#N canvas 461 95 1179 947 10;
#X obj 274 241 osc~;
#X obj 321 241 osc~;
#X obj 415 905 dac~;
#X obj 305 309 clip~ 0 1;
#X obj 391 419 *~;
#X obj 319 74 + 100;
#X obj 318 52 random 900;
#X msg 280 -28 bang;
#X obj 300 268 +~;
#X obj 257 136 / 100;
#X obj 309 174 *;
#X obj 319 97 / 1000;
#X obj 314 218 +;
#X obj 317 127 - 0.5;
#X obj 461 332 lop~;
#X obj 450 207 mtof;
#X obj 496 100 random 12;
#X obj 444 232 phasor~;
#X obj 443 255 -~ 0.5;
#X obj 444 284 *~ 2;
#X obj 526 250 mtof;
#X obj 384 206 mtof;
#X obj 381 232 phasor~;
#X obj 387 255 -~ 0.5;
#X obj 401 284 *~ 2;
#X obj 440 309 vcf~ 5;
#X obj 462 178 +;
#X obj 402 180 -;
#X obj 591 80 random 100;
#X obj 586 149 / 400;
#X obj 524 45 t b b;
#X text 200 203 beating as env;
#X obj 188 404 snapshot~;
#X obj 189 427 > 0;
#X obj 190 448 change;
#X obj 190 470 moses 0.1;
#X obj 185 373 metro 10;
#X obj 101 201 /;
#X msg 85 164 1;
#X obj 108 135 t b f;
#X obj 102 225 * 1000;
#X obj 46 396 pipe;
#X obj 80 365 / 2;
#X obj 42 596 line~;
#X obj 58 323 int;
#X obj 297 369 t b b;
#X obj 107 342 + 1;
#X obj 111 310 random 4;
#X obj 37 622 *~;
#N canvas 222 94 968 862 rev1 0;
#X obj 128 108 inlet~;
#X obj 191 332 +~;
#X obj 233 332 +~;
#X obj -94 522 outlet~;
#X obj -23 538 outlet~;
#X obj 152 451 +~;
#X obj 261 452 +~;
#X obj 194 451 -~;
#X obj 301 451 -~;
#X obj 151 507 +~;
#X obj 195 508 +~;
#X obj 239 509 -~;
#X obj 278 509 -~;
#X obj 238 591 *~ 0;
#X obj 196 590 *~ 0;
#X obj 151 589 *~ 0;
#X obj 279 592 *~ 0;
#N canvas 416 362 450 300 echo1 0;
#X obj 66 95 inlet~;
#X obj 130 96 inlet~;
#X obj 68 216 outlet~;
#X obj 141 215 outlet~;
#X obj 67 143 +~;
#X obj 140 141 -~;
#X obj 138 167 delwrite~ \$0echo1 5.43216;
#X obj 144 189 delread~ \$0echo1 5.43216;
#X connect 0 0 4 0;
#X connect 0 0 5 0;
#X connect 1 0 4 1;
#X connect 1 0 5 1;
#X connect 4 0 2 0;
#X connect 5 0 6 0;
#X connect 7 0 3 0;
#X restore 128 145 pd echo1;
#N canvas 416 362 450 300 echo2 0;
#X obj 66 95 inlet~;
#X obj 130 96 inlet~;
#X obj 68 216 outlet~;
#X obj 141 215 outlet~;
#X obj 67 143 +~;
#X obj 140 141 -~;
#X obj 139 168 delwrite~ \$0echo2 8.45346;
#X obj 140 190 delread~ \$0echo2 8.45346;
#X connect 0 0 4 0;
#X connect 0 0 5 0;
#X connect 1 0 4 1;
#X connect 1 0 5 1;
#X connect 4 0 2 0;
#X connect 5 0 6 0;
#X connect 7 0 3 0;
#X restore 128 170 pd echo2;
#N canvas 416 362 450 300 echo3 0;
#X obj 66 95 inlet~;
#X obj 130 96 inlet~;
#X obj 68 216 outlet~;
#X obj 141 215 outlet~;
#X obj 67 143 +~;
#X obj 140 141 -~;
#X obj 138 167 delwrite~ \$0echo3 13.4367;
#X obj 141 191 delread~ \$0echo3 13.4367;
#X connect 0 0 4 0;
#X connect 0 0 5 0;
#X connect 1 0 4 1;
#X connect 1 0 5 1;
#X connect 4 0 2 0;
#X connect 5 0 6 0;
#X connect 7 0 3 0;
#X restore 126 195 pd echo3;
#N canvas 416 362 450 300 echo4 0;
#X obj 66 95 inlet~;
#X obj 130 96 inlet~;
#X obj 68 216 outlet~;
#X obj 141 215 outlet~;
#X obj 67 143 +~;
#X obj 140 141 -~;
#X obj 138 170 delwrite~ \$0echo4 21.5463;
#X obj 139 191 delread~ \$0echo4 21.5463;
#X connect 0 0 4 0;
#X connect 0 0 5 0;
#X connect 1 0 4 1;
#X connect 1 0 5 1;
#X connect 4 0 2 0;
#X connect 5 0 6 0;
#X connect 7 0 3 0;
#X restore 126 220 pd echo4;
#N canvas 416 362 450 300 echo5 0;
#X obj 66 95 inlet~;
#X obj 130 96 inlet~;
#X obj 68 216 outlet~;
#X obj 141 215 outlet~;
#X obj 67 143 +~;
#X obj 140 141 -~;
#X obj 138 169 delwrite~ \$0echo5 34.3876;
#X obj 141 192 delread~ \$0echo5 34.3876;
#X connect 0 0 4 0;
#X connect 0 0 5 0;
#X connect 1 0 4 1;
#X connect 1 0 5 1;
#X connect 4 0 2 0;
#X connect 5 0 6 0;
#X connect 7 0 3 0;
#X restore 125 242 pd echo5;
#N canvas 416 362 450 300 echo6 0;
#X obj 66 95 inlet~;
#X obj 130 96 inlet~;
#X obj 68 216 outlet~;
#X obj 141 215 outlet~;
#X obj 67 143 +~;
#X obj 140 141 -~;
#X obj 139 169 delwrite~ \$0echo6 55.5437;
#X obj 139 191 delread~ \$0echo6 55.5437;
#X connect 0 0 4 0;
#X connect 0 0 5 0;
#X connect 1 0 4 1;
#X connect 1 0 5 1;
#X connect 4 0 2 0;
#X connect 5 0 6 0;
#X connect 7 0 3 0;
#X restore 125 266 pd echo6;
#X obj 211 271 delread~ \$0loop-del1 60;
#X obj 253 296 delread~ \$0loop-del2 71.9345;
#X obj 300 325 delread~ \$0loop-del3 86.7545;
#X obj 322 350 delread~ \$0loop-del4 95.945;
#X obj 278 632 delwrite~ \$0loop-del4 95.945;
#X obj 239 655 delwrite~ \$0loop-del3 86.7545;
#X obj 197 678 delwrite~ \$0loop-del2 71.9345;
#X obj 152 700 delwrite~ \$0loop-del1 60;
#X text 82 55 reverb from the pd doc (see comments there).;
#X obj 521 543 float;
#X obj 573 473 inlet;
#X connect 0 0 17 0;
#X connect 1 0 5 0;
#X connect 1 0 7 0;
#X connect 1 0 3 0;
#X connect 2 0 5 1;
#X connect 2 0 7 1;
#X connect 2 0 4 0;
#X connect 5 0 9 0;
#X connect 5 0 11 0;
#X connect 6 0 11 1;
#X connect 6 0 9 1;
#X connect 7 0 10 0;
#X connect 7 0 12 0;
#X connect 8 0 10 1;
#X connect 8 0 12 1;
#X connect 9 0 15 0;
#X connect 10 0 14 0;
#X connect 11 0 13 0;
#X connect 12 0 16 0;
#X connect 13 0 28 0;
#X connect 14 0 29 0;
#X connect 15 0 30 0;
#X connect 16 0 27 0;
#X connect 17 0 18 0;
#X connect 17 1 18 1;
#X connect 18 0 19 0;
#X connect 18 1 19 1;
#X connect 19 0 20 0;
#X connect 19 1 20 1;
#X connect 20 0 21 0;
#X connect 20 1 21 1;
#X connect 21 0 22 0;
#X connect 21 1 22 1;
#X connect 22 0 1 0;
#X connect 22 1 2 0;
#X connect 23 0 1 1;
#X connect 24 0 2 1;
#X connect 25 0 6 0;
#X connect 25 0 8 0;
#X connect 26 0 6 1;
#X connect 26 0 8 1;
#X connect 32 0 16 1;
#X connect 32 0 15 1;
#X connect 32 0 14 1;
#X connect 32 0 13 1;
#X connect 33 0 32 0;
#X coords 0 862 1 861 70 100 0;
#X restore 307 682 pd rev1;
#X obj 317 614 *~ 0.1;
#X obj 132 669 *~;
#N canvas 344 86 693 820 phaser1 0;
#X obj -124 271 rpole~;
#X obj -124 246 rzero_rev~;
#X obj -124 320 rpole~;
#X obj -124 295 rzero_rev~;
#X obj -124 368 rpole~;
#X obj -124 343 rzero_rev~;
#X obj -124 417 rpole~;
#X obj -124 392 rzero_rev~;
#X obj -181 615 +~;
#X obj 96 336 expr~ 1 - 0.03 - 0.6*abs($v1-0.5)*abs($v1-0.5);
#X obj -154 96 inlet~;
#X obj -180 662 outlet~;
#X obj 125 118 hsl 100 8 0.05 5 0 1 empty empty spd -22 5 0 8 -262144
-1 -1 132 1;
#X obj 94 300 phasor~;
#X obj -124 468 rpole~;
#X obj -124 443 rzero_rev~;
#X obj -124 517 rpole~;
#X obj -124 492 rzero_rev~;
#X obj 275 51 inlet;
#X connect 0 0 3 0;
#X connect 1 0 0 0;
#X connect 2 0 5 0;
#X connect 3 0 2 0;
#X connect 4 0 7 0;
#X connect 5 0 4 0;
#X connect 6 0 15 0;
#X connect 7 0 6 0;
#X connect 8 0 11 0;
#X connect 9 0 1 1;
#X connect 9 0 0 1;
#X connect 9 0 3 1;
#X connect 9 0 2 1;
#X connect 9 0 5 1;
#X connect 9 0 4 1;
#X connect 9 0 7 1;
#X connect 9 0 6 1;
#X connect 9 0 15 1;
#X connect 9 0 14 1;
#X connect 9 0 17 1;
#X connect 9 0 16 1;
#X connect 10 0 1 0;
#X connect 10 0 8 0;
#X connect 12 0 13 0;
#X connect 13 0 9 0;
#X connect 14 0 17 0;
#X connect 15 0 14 0;
#X connect 16 0 8 1;
#X connect 17 0 16 0;
#X connect 18 0 12 0;
#X coords 0 -1 1 1 130 30 1 100 100;
#X restore 271 718 pd phaser1;
#N canvas 343 82 693 820 phaser1 0;
#X obj -124 271 rpole~;
#X obj -124 246 rzero_rev~;
#X obj -124 320 rpole~;
#X obj -124 295 rzero_rev~;
#X obj -124 368 rpole~;
#X obj -124 343 rzero_rev~;
#X obj -124 417 rpole~;
#X obj -124 392 rzero_rev~;
#X obj -181 615 +~;
#X obj 96 336 expr~ 1 - 0.03 - 0.6*abs($v1-0.5)*abs($v1-0.5);
#X obj -154 96 inlet~;
#X obj -180 662 outlet~;
#X obj 125 118 hsl 100 8 0.05 5 0 1 empty empty spd -22 5 0 8 -262144
-1 -1 206 1;
#X obj 94 300 phasor~;
#X obj -124 468 rpole~;
#X obj -124 443 rzero_rev~;
#X obj -124 517 rpole~;
#X obj -124 492 rzero_rev~;
#X obj 268 52 inlet;
#X connect 0 0 3 0;
#X connect 1 0 0 0;
#X connect 2 0 5 0;
#X connect 3 0 2 0;
#X connect 4 0 7 0;
#X connect 5 0 4 0;
#X connect 6 0 15 0;
#X connect 7 0 6 0;
#X connect 8 0 11 0;
#X connect 9 0 1 1;
#X connect 9 0 0 1;
#X connect 9 0 3 1;
#X connect 9 0 2 1;
#X connect 9 0 5 1;
#X connect 9 0 4 1;
#X connect 9 0 7 1;
#X connect 9 0 6 1;
#X connect 9 0 15 1;
#X connect 9 0 14 1;
#X connect 9 0 17 1;
#X connect 9 0 16 1;
#X connect 10 0 1 0;
#X connect 10 0 8 0;
#X connect 12 0 13 0;
#X connect 13 0 9 0;
#X connect 14 0 17 0;
#X connect 15 0 14 0;
#X connect 16 0 8 1;
#X connect 17 0 16 0;
#X connect 18 0 12 0;
#X coords 0 -1 1 1 130 30 1 100 100;
#X restore 443 725 pd phaser1;
#X obj 486 555 + 0.4;
#X obj 457 584 clip 0.46 0.495;
#X obj 178 540 noise~;
#X obj 189 566 samphold~;
#X obj 256 543 phasor~;
#X obj 273 517 * 22050;
#X obj 287 473 random 1000;
#X obj 282 495 / 1000;
#X obj -19 517 pack 0 f;
#X obj 72 492 random 12;
#X obj 126 730 *~ 0.5;
#X obj -13 351 / 2;
#X obj -75 357 pipe;
#X obj -70 414 pipe;
#X obj -25 388 / 2;
#X obj 410 487 *~ 0.5;
#X obj 853 398 t b f;
#X obj 694 818 tabwrite~ \$0sample1;
#X obj 897 576 line~;
#X msg 865 544 0.0783055;
#X msg 959 552 1 3686.78;
#X msg 844 501 set \$1;
#X obj 877 634 tabread4~ \$0sample1;
#X obj 972 435 - 1;
#X obj 972 460 * -1;
#X msg 965 524 set 1 \$1;
#X obj 971 483 * 4000;
#X obj 906 487 t b b;
#X obj 730 760 metro 4000;
#X obj 693 846 table \$0sample1 176400;
#X obj 881 609 *~ 176400;
#X obj 572 463 snapshot~;
#X obj 220 626 *~ 0.02;
#X obj 563 422 metro;
#X obj 136 255 t b f;
#X obj 609 535 +;
#X obj 619 510 / 1000;
#X obj 616 487 random 100;
#X obj 565 362 + 3;
#X obj 563 340 random 5;
#X obj 550 388 /;
#X obj 701 583 *~ 0.01;
#X obj 364 389 *~ 0.5;
#X obj 704 561 clip~ -1 1;
#X obj 278 -54 loadbang;
#X obj 36 446 t b b b;
#X obj 63 561 float;
#X obj 107 398 random 80;
#X obj 108 424 + 20;
#X obj 107 447 / 100;
#X text 542 171 basstone;
#X text 91 584 noiseclick;
#X text 824 591 sampler;
#X obj 784 378 clip 0.001 1;
#N canvas 1297 205 588 521 rndline 0;
#X obj 166 290 pack;
#X obj 67 81 random 1000;
#X obj 79 208 / 1000;
#X obj 135 361 ==;
#X obj 159 324 line;
#X obj 241 187 exp;
#X obj 236 159 / 100;
#X obj 49 -10 inlet;
#X text 102 -16 start;
#X obj 251 413 outlet;
#X obj 90 396 moses 0.1;
#X obj 74 437 delay 1000;
#X obj 241 213 int;
#X obj 234 134 random 950;
#X obj 313 334 +;
#X obj 338 268 random 950;
#X obj 264 236 t f f;
#X obj 54 22 t b b b;
#X obj 89 140 +;
#X obj 95 173 mod 1000;
#X obj 126 146 int;
#X obj 68 104 + 200;
#X obj 196 264 + 200;
#X connect 0 0 4 0;
#X connect 1 0 21 0;
#X connect 2 0 0 0;
#X connect 2 0 3 1;
#X connect 3 0 10 0;
#X connect 4 0 9 0;
#X connect 4 0 3 0;
#X connect 5 0 12 0;
#X connect 6 0 5 0;
#X connect 7 0 17 0;
#X connect 10 1 11 0;
#X connect 11 0 17 0;
#X connect 12 0 16 0;
#X connect 12 0 22 0;
#X connect 13 0 6 0;
#X connect 14 0 11 1;
#X connect 15 0 14 1;
#X connect 16 0 14 0;
#X connect 16 1 15 1;
#X connect 17 0 1 0;
#X connect 17 1 13 0;
#X connect 17 2 15 0;
#X connect 18 0 19 0;
#X connect 19 0 2 0;
#X connect 19 0 20 0;
#X connect 20 0 18 1;
#X connect 21 0 18 0;
#X connect 22 0 0 1;
#X restore 493 491 pd rndline;
#X obj 492 525 * 0.1;
#X obj 427 373 clip~ -0.9 0.9;
#X obj 257 17 t b b b;
#N canvas 106 125 828 747 madboxp 0;
#N canvas 295 109 896 797 osca 0;
#N canvas 0 29 555 432 cubicshaper 0;
#X obj 42 70 inlet~;
#X obj 55 210 *~;
#X obj 70 235 *~;
#X obj 169 314 +~;
#X obj 90 265 *~;
#X obj 124 72 inlet~;
#X obj 158 225 *~;
#X obj 178 255 *~;
#X obj 214 69 inlet~;
#X obj 274 261 *~;
#X obj 310 75 inlet~;
#X obj 215 354 +~;
#X text 35 50 audio in;
#X text 128 53 a;
#X text 231 52 b;
#X text 325 55 c;
#X text 191 17 cubic audio shaper;
#X obj 216 388 outlet~;
#X connect 0 0 1 0;
#X connect 0 0 1 1;
#X connect 0 0 2 1;
#X connect 0 0 6 1;
#X connect 0 0 6 0;
#X connect 0 0 9 0;
#X connect 1 0 2 0;
#X connect 2 0 4 0;
#X connect 3 0 11 0;
#X connect 4 0 3 0;
#X connect 5 0 4 1;
#X connect 6 0 7 0;
#X connect 7 0 3 1;
#X connect 8 0 7 1;
#X connect 9 0 11 1;
#X connect 10 0 9 1;
#X connect 11 0 17 0;
#X restore 111 415 pd cubicshaper;
#N canvas 0 29 555 432 cubicshaper 0;
#X obj 42 70 inlet~;
#X obj 55 210 *~;
#X obj 70 235 *~;
#X obj 169 314 +~;
#X obj 90 265 *~;
#X obj 124 72 inlet~;
#X obj 158 225 *~;
#X obj 178 255 *~;
#X obj 214 69 inlet~;
#X obj 274 261 *~;
#X obj 310 75 inlet~;
#X obj 215 354 +~;
#X text 35 50 audio in;
#X text 128 53 a;
#X text 231 52 b;
#X text 325 55 c;
#X text 191 17 cubic audio shaper;
#X obj 216 388 outlet~;
#X connect 0 0 1 0;
#X connect 0 0 1 1;
#X connect 0 0 2 1;
#X connect 0 0 6 1;
#X connect 0 0 6 0;
#X connect 0 0 9 0;
#X connect 1 0 2 0;
#X connect 2 0 4 0;
#X connect 3 0 11 0;
#X connect 4 0 3 0;
#X connect 5 0 4 1;
#X connect 6 0 7 0;
#X connect 7 0 3 1;
#X connect 8 0 7 1;
#X connect 9 0 11 1;
#X connect 10 0 9 1;
#X connect 11 0 17 0;
#X restore 170 491 pd cubicshaper;
#N canvas 0 29 555 432 cubicshaper 0;
#X obj 42 70 inlet~;
#X obj 55 210 *~;
#X obj 70 235 *~;
#X obj 169 314 +~;
#X obj 90 265 *~;
#X obj 124 72 inlet~;
#X obj 158 225 *~;
#X obj 178 255 *~;
#X obj 214 69 inlet~;
#X obj 274 261 *~;
#X obj 310 75 inlet~;
#X obj 215 354 +~;
#X text 35 50 audio in;
#X text 128 53 a;
#X text 231 52 b;
#X text 325 55 c;
#X text 191 17 cubic audio shaper;
#X obj 216 388 outlet~;
#X connect 0 0 1 0;
#X connect 0 0 1 1;
#X connect 0 0 2 1;
#X connect 0 0 6 1;
#X connect 0 0 6 0;
#X connect 0 0 9 0;
#X connect 1 0 2 0;
#X connect 2 0 4 0;
#X connect 3 0 11 0;
#X connect 4 0 3 0;
#X connect 5 0 4 1;
#X connect 6 0 7 0;
#X connect 7 0 3 1;
#X connect 8 0 7 1;
#X connect 9 0 11 1;
#X connect 10 0 9 1;
#X connect 11 0 17 0;
#X restore 213 651 pd cubicshaper;
#X obj 164 678 *~;
#X obj -60 140 osc~;
#X obj 35 189 phasor~;
#X obj 47 295 -~ 0.5;
#X obj 67 214 samphold~;
#X obj 47 240 -~;
#X obj 47 266 wrap~;
#X obj 27 378 cos~;
#X obj 214 677 outlet~;
#X obj 133 116 catch~ \$0-oscasync;
#X obj 95 94 throw~ \$0-oscasync;
#X obj 34 167 mtof;
#X obj 24 350 +~;
#X obj -89 209 *~;
#X obj -59 114 mtof;
#X msg 152 -11 bang;
#X msg -66 15 seed \$1;
#X obj 152 -34 inlet;
#X obj -66 37 random 30;
#X obj 236 -90 inlet;
#X msg 29 30 seed \$1;
#X msg -157 37 seed \$1;
#X obj -159 15 + 1;
#X obj -155 90 / 100;
#X obj -157 59 random 100;
#X obj 27 8 + 2;
#X msg 153 279 seed \$1;
#X obj 153 301 random 100;
#X obj 153 322 - 50;
#X obj 154 343 / 50;
#X obj 151 257 + 3;
#X msg 233 259 seed \$1;
#X obj 233 281 random 100;
#X obj 233 302 - 50;
#X obj 234 323 / 50;
#X obj 231 237 + 4;
#X msg 314 230 seed \$1;
#X obj 314 252 random 100;
#X obj 314 273 - 50;
#X obj 315 294 / 50;
#X obj 312 208 + 5;
#X msg 383 312 seed \$1;
#X obj 383 334 random 100;
#X obj 383 355 - 50;
#X obj 384 376 / 50;
#X msg 463 292 seed \$1;
#X obj 463 314 random 100;
#X obj 463 335 - 50;
#X obj 464 356 / 50;
#X msg 544 263 seed \$1;
#X obj 544 285 random 100;
#X obj 544 306 - 50;
#X obj 545 327 / 50;
#X obj 381 290 + 6;
#X obj 461 270 + 7;
#X obj 542 241 + 8;
#X msg 461 477 seed \$1;
#X obj 461 499 random 100;
#X obj 461 520 - 50;
#X obj 462 541 / 50;
#X msg 543 470 seed \$1;
#X obj 543 492 random 100;
#X obj 543 513 - 50;
#X obj 544 534 / 50;
#X msg 624 441 seed \$1;
#X obj 624 463 random 100;
#X obj 624 484 - 50;
#X obj 625 505 / 50;
#X obj 459 455 + 9;
#X obj 541 448 + 10;
#X obj 622 419 + 11;
#X obj 29 52 random 100;
#X obj -154 139 line;
#X obj -154 116 pack;
#X obj 313 -86 inlet;
#X obj -65 85 line;
#X obj -66 60 pack;
#X obj 20 96 line;
#X obj 19 74 pack;
#X obj 141 391 line;
#X obj 145 365 pack;
#X obj 224 372 line;
#X obj 223 347 pack;
#X obj 307 345 line;
#X obj 306 321 pack;
#X obj 378 425 line;
#X obj 377 400 pack;
#X obj 456 407 line;
#X obj 455 382 pack;
#X obj 541 375 line;
#X obj 540 350 pack;
#X obj 464 601 line;
#X obj 463 576 pack;
#X obj 542 589 line;
#X obj 541 564 pack;
#X obj 627 557 line;
#X obj 626 532 pack;
#X text 119 -50 randombang;
#X text 198 -92 seed;
#X text 356 -86 attack;
#X obj 448 -36 inlet;
#X text 489 -33 tp;
#X obj 24 143 +;
#X obj 448 -11 t b f;
#X obj 21 121 float;
#X obj -63 172 *~ 0.5;
#X obj 129 162 clip~ -1 0;
#X obj 128 183 *~ -1;
#X obj 129 141 *~ 10000;
#X connect 0 0 1 0;
#X connect 0 0 3 0;
#X connect 1 0 2 0;
#X connect 2 0 3 1;
#X connect 2 0 11 0;
#X connect 3 0 13 0;
#X connect 4 0 108 0;
#X connect 5 0 7 0;
#X connect 5 0 8 0;
#X connect 6 0 15 1;
#X connect 7 0 8 1;
#X connect 8 0 9 0;
#X connect 9 0 6 0;
#X connect 10 0 0 0;
#X connect 12 0 111 0;
#X connect 14 0 5 0;
#X connect 15 0 10 0;
#X connect 16 0 15 0;
#X connect 17 0 4 0;
#X connect 18 0 21 0;
#X connect 18 0 27 0;
#X connect 18 0 30 0;
#X connect 18 0 35 0;
#X connect 18 0 40 0;
#X connect 18 0 45 0;
#X connect 18 0 49 0;
#X connect 18 0 53 0;
#X connect 18 0 60 0;
#X connect 18 0 64 0;
#X connect 18 0 68 0;
#X connect 18 0 74 0;
#X connect 19 0 21 0;
#X connect 20 0 18 0;
#X connect 21 0 79 0;
#X connect 22 0 19 0;
#X connect 22 0 25 0;
#X connect 22 0 28 0;
#X connect 22 0 33 0;
#X connect 22 0 38 0;
#X connect 22 0 43 0;
#X connect 22 0 56 0;
#X connect 22 0 57 0;
#X connect 22 0 58 0;
#X connect 22 0 71 0;
#X connect 22 0 72 0;
#X connect 22 0 73 0;
#X connect 23 0 74 0;
#X connect 24 0 27 0;
#X connect 25 0 24 0;
#X connect 26 0 76 0;
#X connect 27 0 26 0;
#X connect 28 0 23 0;
#X connect 29 0 30 0;
#X connect 30 0 31 0;
#X connect 31 0 32 0;
#X connect 32 0 83 0;
#X connect 33 0 29 0;
#X connect 34 0 35 0;
#X connect 35 0 36 0;
#X connect 36 0 37 0;
#X connect 37 0 85 0;
#X connect 38 0 34 0;
#X connect 39 0 40 0;
#X connect 40 0 41 0;
#X connect 41 0 42 0;
#X connect 42 0 87 0;
#X connect 43 0 39 0;
#X connect 44 0 45 0;
#X connect 45 0 46 0;
#X connect 46 0 47 0;
#X connect 47 0 89 0;
#X connect 48 0 49 0;
#X connect 49 0 50 0;
#X connect 50 0 51 0;
#X connect 51 0 91 0;
#X connect 52 0 53 0;
#X connect 53 0 54 0;
#X connect 54 0 55 0;
#X connect 55 0 93 0;
#X connect 56 0 44 0;
#X connect 57 0 48 0;
#X connect 58 0 52 0;
#X connect 59 0 60 0;
#X connect 60 0 61 0;
#X connect 61 0 62 0;
#X connect 62 0 95 0;
#X connect 63 0 64 0;
#X connect 64 0 65 0;
#X connect 65 0 66 0;
#X connect 66 0 97 0;
#X connect 67 0 68 0;
#X connect 68 0 69 0;
#X connect 69 0 70 0;
#X connect 70 0 99 0;
#X connect 71 0 59 0;
#X connect 72 0 63 0;
#X connect 73 0 67 0;
#X connect 74 0 81 0;
#X connect 75 0 16 0;
#X connect 76 0 75 0;
#X connect 77 0 76 1;
#X connect 77 0 79 1;
#X connect 77 0 81 1;
#X connect 77 0 83 1;
#X connect 77 0 85 1;
#X connect 77 0 87 1;
#X connect 77 0 89 1;
#X connect 77 0 91 1;
#X connect 77 0 93 1;
#X connect 77 0 95 1;
#X connect 77 0 97 1;
#X connect 77 0 99 1;
#X connect 78 0 17 0;
#X connect 79 0 78 0;
#X connect 80 0 107 0;
#X connect 81 0 80 0;
#X connect 82 0 0 1;
#X connect 83 0 82 0;
#X connect 84 0 0 2;
#X connect 85 0 84 0;
#X connect 86 0 0 3;
#X connect 87 0 86 0;
#X connect 88 0 1 1;
#X connect 89 0 88 0;
#X connect 90 0 1 2;
#X connect 91 0 90 0;
#X connect 92 0 1 3;
#X connect 93 0 92 0;
#X connect 94 0 2 1;
#X connect 95 0 94 0;
#X connect 96 0 2 2;
#X connect 97 0 96 0;
#X connect 98 0 2 3;
#X connect 99 0 98 0;
#X connect 103 0 106 0;
#X connect 105 0 14 0;
#X connect 106 0 107 0;
#X connect 106 1 105 1;
#X connect 107 0 105 0;
#X connect 108 0 16 1;
#X connect 109 0 110 0;
#X connect 110 0 7 1;
#X connect 111 0 109 0;
#X restore 332 395 pd osca;
#X msg 247 339 bang;
#X obj 347 447 *~;
#X obj 347 481 hip~ 10;
#N canvas 86 120 897 793 oscb 0;
#N canvas 0 29 555 432 cubicshaper 0;
#X obj 42 70 inlet~;
#X obj 55 210 *~;
#X obj 70 235 *~;
#X obj 169 314 +~;
#X obj 90 265 *~;
#X obj 124 72 inlet~;
#X obj 158 225 *~;
#X obj 178 255 *~;
#X obj 214 69 inlet~;
#X obj 274 261 *~;
#X obj 310 75 inlet~;
#X obj 215 354 +~;
#X text 35 50 audio in;
#X text 128 53 a;
#X text 231 52 b;
#X text 325 55 c;
#X text 191 17 cubic audio shaper;
#X obj 216 388 outlet~;
#X connect 0 0 1 0;
#X connect 0 0 1 1;
#X connect 0 0 2 1;
#X connect 0 0 6 1;
#X connect 0 0 6 0;
#X connect 0 0 9 0;
#X connect 1 0 2 0;
#X connect 2 0 4 0;
#X connect 3 0 11 0;
#X connect 4 0 3 0;
#X connect 5 0 4 1;
#X connect 6 0 7 0;
#X connect 7 0 3 1;
#X connect 8 0 7 1;
#X connect 9 0 11 1;
#X connect 10 0 9 1;
#X connect 11 0 17 0;
#X restore 111 415 pd cubicshaper;
#N canvas 0 29 555 432 cubicshaper 0;
#X obj 42 70 inlet~;
#X obj 55 210 *~;
#X obj 70 235 *~;
#X obj 169 314 +~;
#X obj 90 265 *~;
#X obj 124 72 inlet~;
#X obj 158 225 *~;
#X obj 178 255 *~;
#X obj 214 69 inlet~;
#X obj 274 261 *~;
#X obj 310 75 inlet~;
#X obj 215 354 +~;
#X text 35 50 audio in;
#X text 128 53 a;
#X text 231 52 b;
#X text 325 55 c;
#X text 191 17 cubic audio shaper;
#X obj 216 388 outlet~;
#X connect 0 0 1 0;
#X connect 0 0 1 1;
#X connect 0 0 2 1;
#X connect 0 0 6 1;
#X connect 0 0 6 0;
#X connect 0 0 9 0;
#X connect 1 0 2 0;
#X connect 2 0 4 0;
#X connect 3 0 11 0;
#X connect 4 0 3 0;
#X connect 5 0 4 1;
#X connect 6 0 7 0;
#X connect 7 0 3 1;
#X connect 8 0 7 1;
#X connect 9 0 11 1;
#X connect 10 0 9 1;
#X connect 11 0 17 0;
#X restore 170 490 pd cubicshaper;
#N canvas 0 29 555 432 cubicshaper 0;
#X obj 42 70 inlet~;
#X obj 55 210 *~;
#X obj 70 235 *~;
#X obj 169 314 +~;
#X obj 90 265 *~;
#X obj 124 72 inlet~;
#X obj 158 225 *~;
#X obj 178 255 *~;
#X obj 214 69 inlet~;
#X obj 274 261 *~;
#X obj 310 75 inlet~;
#X obj 215 354 +~;
#X text 35 50 audio in;
#X text 128 53 a;
#X text 231 52 b;
#X text 325 55 c;
#X text 191 17 cubic audio shaper;
#X obj 216 388 outlet~;
#X connect 0 0 1 0;
#X connect 0 0 1 1;
#X connect 0 0 2 1;
#X connect 0 0 6 1;
#X connect 0 0 6 0;
#X connect 0 0 9 0;
#X connect 1 0 2 0;
#X connect 2 0 4 0;
#X connect 3 0 11 0;
#X connect 4 0 3 0;
#X connect 5 0 4 1;
#X connect 6 0 7 0;
#X connect 7 0 3 1;
#X connect 8 0 7 1;
#X connect 9 0 11 1;
#X connect 10 0 9 1;
#X connect 11 0 17 0;
#X restore 213 651 pd cubicshaper;
#X obj 165 667 *~;
#X obj -58 137 osc~;
#X obj 33 183 phasor~;
#X obj 48 287 -~ 0.5;
#X obj 66 207 samphold~;
#X obj 48 232 -~;
#X obj 48 258 wrap~;
#X obj 47 370 cos~;
#X obj 209 678 outlet~;
#X obj 33 161 mtof;
#X obj 22 337 +~;
#X obj -75 189 *~;
#X obj -59 114 mtof;
#X msg 152 -11 bang;
#X msg -66 15 seed \$1;
#X obj 152 -34 inlet;
#X obj -66 37 random 30;
#X obj 226 -86 inlet;
#X msg 29 30 seed \$1;
#X msg -157 37 seed \$1;
#X obj -159 15 + 1;
#X obj -155 90 / 100;
#X obj -157 59 random 100;
#X obj 27 8 + 2;
#X msg 153 279 seed \$1;
#X obj 153 301 random 100;
#X obj 153 322 - 50;
#X obj 154 343 / 50;
#X obj 151 257 + 3;
#X msg 233 259 seed \$1;
#X obj 233 281 random 100;
#X obj 233 302 - 50;
#X obj 234 323 / 50;
#X obj 231 237 + 4;
#X msg 314 230 seed \$1;
#X obj 314 252 random 100;
#X obj 314 273 - 50;
#X obj 315 294 / 50;
#X obj 312 208 + 5;
#X msg 383 312 seed \$1;
#X obj 383 334 random 100;
#X obj 383 355 - 50;
#X obj 384 376 / 50;
#X msg 463 292 seed \$1;
#X obj 463 314 random 100;
#X obj 463 335 - 50;
#X obj 464 356 / 50;
#X msg 544 263 seed \$1;
#X obj 544 285 random 100;
#X obj 544 306 - 50;
#X obj 545 327 / 50;
#X obj 381 290 + 6;
#X obj 461 270 + 7;
#X obj 542 241 + 8;
#X msg 461 477 seed \$1;
#X obj 461 499 random 100;
#X obj 461 520 - 50;
#X obj 462 541 / 50;
#X msg 543 470 seed \$1;
#X obj 543 492 random 100;
#X obj 543 513 - 50;
#X obj 544 534 / 50;
#X msg 624 441 seed \$1;
#X obj 624 463 random 100;
#X obj 624 484 - 50;
#X obj 625 505 / 50;
#X obj 459 455 + 9;
#X obj 541 448 + 10;
#X obj 622 419 + 11;
#X obj 29 52 random 100;
#X obj -154 139 line;
#X obj -154 116 pack;
#X obj 298 -88 inlet;
#X obj -65 85 line;
#X obj -66 60 pack;
#X obj 20 96 line;
#X obj 19 74 pack;
#X obj 141 391 line;
#X obj 145 365 pack;
#X obj 224 372 line;
#X obj 223 347 pack;
#X obj 307 345 line;
#X obj 306 321 pack;
#X obj 378 425 line;
#X obj 377 400 pack;
#X obj 456 407 line;
#X obj 455 382 pack;
#X obj 541 375 line;
#X obj 540 350 pack;
#X obj 464 601 line;
#X obj 463 576 pack;
#X obj 542 589 line;
#X obj 541 564 pack;
#X obj 627 557 line;
#X obj 626 532 pack;
#X obj 96 94 throw~ \$0-oscbsync;
#X obj 133 119 catch~ \$0-oscbsync;
#X text 119 -50 randombang;
#X text 198 -92 seed;
#X text 356 -86 attack;
#X obj 458 -46 inlet;
#X text 499 -43 tp;
#X obj 23 138 +;
#X obj 21 117 float;
#X obj 462 -21 t b f;
#X obj -61 160 *~ 0.5;
#X obj 130 163 clip~ -1 0;
#X obj 129 184 *~ -1;
#X obj 130 142 *~ 10000;
#X connect 0 0 1 0;
#X connect 0 0 3 0;
#X connect 1 0 2 0;
#X connect 2 0 3 1;
#X connect 2 0 11 0;
#X connect 3 0 98 0;
#X connect 4 0 108 0;
#X connect 5 0 7 0;
#X connect 5 0 8 0;
#X connect 6 0 13 1;
#X connect 7 0 8 1;
#X connect 8 0 9 0;
#X connect 9 0 6 0;
#X connect 10 0 0 0;
#X connect 12 0 5 0;
#X connect 13 0 10 0;
#X connect 14 0 13 0;
#X connect 15 0 4 0;
#X connect 16 0 19 0;
#X connect 16 0 25 0;
#X connect 16 0 28 0;
#X connect 16 0 33 0;
#X connect 16 0 38 0;
#X connect 16 0 43 0;
#X connect 16 0 47 0;
#X connect 16 0 51 0;
#X connect 16 0 58 0;
#X connect 16 0 62 0;
#X connect 16 0 66 0;
#X connect 16 0 72 0;
#X connect 17 0 19 0;
#X connect 18 0 16 0;
#X connect 19 0 77 0;
#X connect 20 0 17 0;
#X connect 20 0 23 0;
#X connect 20 0 26 0;
#X connect 20 0 31 0;
#X connect 20 0 36 0;
#X connect 20 0 41 0;
#X connect 20 0 54 0;
#X connect 20 0 55 0;
#X connect 20 0 56 0;
#X connect 20 0 69 0;
#X connect 20 0 70 0;
#X connect 20 0 71 0;
#X connect 21 0 72 0;
#X connect 22 0 25 0;
#X connect 23 0 22 0;
#X connect 24 0 74 0;
#X connect 25 0 24 0;
#X connect 26 0 21 0;
#X connect 27 0 28 0;
#X connect 28 0 29 0;
#X connect 29 0 30 0;
#X connect 30 0 81 0;
#X connect 31 0 27 0;
#X connect 32 0 33 0;
#X connect 33 0 34 0;
#X connect 34 0 35 0;
#X connect 35 0 83 0;
#X connect 36 0 32 0;
#X connect 37 0 38 0;
#X connect 38 0 39 0;
#X connect 39 0 40 0;
#X connect 40 0 85 0;
#X connect 41 0 37 0;
#X connect 42 0 43 0;
#X connect 43 0 44 0;
#X connect 44 0 45 0;
#X connect 45 0 87 0;
#X connect 46 0 47 0;
#X connect 47 0 48 0;
#X connect 48 0 49 0;
#X connect 49 0 89 0;
#X connect 50 0 51 0;
#X connect 51 0 52 0;
#X connect 52 0 53 0;
#X connect 53 0 91 0;
#X connect 54 0 42 0;
#X connect 55 0 46 0;
#X connect 56 0 50 0;
#X connect 57 0 58 0;
#X connect 58 0 59 0;
#X connect 59 0 60 0;
#X connect 60 0 93 0;
#X connect 61 0 62 0;
#X connect 62 0 63 0;
#X connect 63 0 64 0;
#X connect 64 0 95 0;
#X connect 65 0 66 0;
#X connect 66 0 67 0;
#X connect 67 0 68 0;
#X connect 68 0 97 0;
#X connect 69 0 57 0;
#X connect 70 0 61 0;
#X connect 71 0 65 0;
#X connect 72 0 79 0;
#X connect 73 0 14 0;
#X connect 74 0 73 0;
#X connect 75 0 74 1;
#X connect 75 0 77 1;
#X connect 75 0 79 1;
#X connect 75 0 81 1;
#X connect 75 0 83 1;
#X connect 75 0 85 1;
#X connect 75 0 87 1;
#X connect 75 0 89 1;
#X connect 75 0 91 1;
#X connect 75 0 93 1;
#X connect 75 0 95 1;
#X connect 75 0 97 1;
#X connect 76 0 15 0;
#X connect 77 0 76 0;
#X connect 78 0 106 0;
#X connect 79 0 78 0;
#X connect 80 0 0 1;
#X connect 81 0 80 0;
#X connect 82 0 0 2;
#X connect 83 0 82 0;
#X connect 84 0 0 3;
#X connect 85 0 84 0;
#X connect 86 0 1 1;
#X connect 87 0 86 0;
#X connect 88 0 1 2;
#X connect 89 0 88 0;
#X connect 90 0 1 3;
#X connect 91 0 90 0;
#X connect 92 0 2 1;
#X connect 93 0 92 0;
#X connect 94 0 2 2;
#X connect 95 0 94 0;
#X connect 96 0 2 3;
#X connect 97 0 96 0;
#X connect 99 0 111 0;
#X connect 103 0 107 0;
#X connect 105 0 12 0;
#X connect 106 0 105 0;
#X connect 107 0 106 0;
#X connect 107 1 105 1;
#X connect 108 0 14 1;
#X connect 109 0 110 0;
#X connect 110 0 7 1;
#X connect 111 0 109 0;
#X restore 422 395 pd oscb;
#X obj 435 362 + 13;
#X msg 370 235 890605;
#X obj 395 6 loadbang;
#X msg 382 184 set \$1;
#X floatatom 240 116 8 0 0 0 - - -;
#X obj 357 308 +;
#X obj 168 148 hsl 128 8 1 5 0 1 empty empty diz -2 4 0 8 -262144 -1
-1 0 1;
#X obj 168 162 hsl 128 8 0.1 0.8 0 1 empty empty chr -2 4 0 8 -262144
-1 -1 12700 1;
#X obj 167 642 /~;
#X obj 184 572 abs~;
#X obj 210 616 +~;
#X obj 172 546 *~;
#X obj 166 665 outlet~;
#X obj 135 153 bng 15 250 50 0 empty empty rnd 0 -6 0 8 -262144 -1
-1;
#X obj 108 153 bng 15 250 50 0 empty empty rst 0 -6 0 8 -262144 -1
-1;
#X obj 98 212 t b b;
#X floatatom 180 116 4 -96 96 0 - - -;
#X msg 324 103 -12;
#X msg 325 78 set \$1;
#X text 204 545 distortion;
#X obj 39 19 inlet;
#X obj 96 17 inlet;
#X obj 168 134 hsl 128 8 10 2000 0 1 empty empty sld -2 4 0 8 -262144
-1 -1 9100 1;
#X obj 202 19 inlet;
#X obj 252 18 inlet;
#X text 210 116 seed;
#X text 163 114 tp;
#X floatatom 133 116 4 0 128 0 - - -;
#X msg 162 74 0;
#X msg 116 51 set \$1;
#X text 101 115 skip;
#X obj 84 251 int;
#X obj 84 277 until 128;
#X obj 120 188 + 1;
#X text 422 41 random fm synth \, 2 random-oscs with ringmodulation.
base4d on my madmidi-vst-plugin and various reaktor ensembles \, originally
inspired by jon annings madbox reaktor ens.;
#X text 422 86 2008 martin brinkmann;
#X obj 308 17 inlet;
#X obj 148 17 inlet;
#X connect 0 0 2 0;
#X connect 1 0 0 0;
#X connect 1 0 4 0;
#X connect 2 0 3 0;
#X connect 3 0 16 0;
#X connect 4 0 2 1;
#X connect 5 0 4 1;
#X connect 6 0 9 0;
#X connect 6 0 0 1;
#X connect 6 0 5 0;
#X connect 7 0 6 0;
#X connect 7 0 22 0;
#X connect 7 0 33 0;
#X connect 8 0 6 0;
#X connect 9 0 5 0;
#X connect 9 0 0 1;
#X connect 9 0 8 0;
#X connect 10 0 0 3;
#X connect 10 0 4 3;
#X connect 11 0 16 1;
#X connect 12 0 15 1;
#X connect 13 0 17 0;
#X connect 14 0 15 0;
#X connect 15 0 13 1;
#X connect 16 0 13 0;
#X connect 16 0 14 0;
#X connect 18 0 1 0;
#X connect 19 0 20 0;
#X connect 20 0 36 0;
#X connect 20 1 6 0;
#X connect 21 0 23 0;
#X connect 21 0 10 0;
#X connect 22 0 21 0;
#X connect 23 0 22 0;
#X connect 25 0 19 0;
#X connect 26 0 18 0;
#X connect 27 0 0 2;
#X connect 27 0 4 2;
#X connect 28 0 21 0;
#X connect 29 0 27 0;
#X connect 32 0 34 0;
#X connect 32 0 38 0;
#X connect 33 0 32 0;
#X connect 34 0 33 0;
#X connect 36 0 37 0;
#X connect 37 0 1 0;
#X connect 38 0 36 1;
#X connect 41 0 9 0;
#X connect 42 0 32 0;
#X coords 0 -1 1 1 200 80 1 100 100;
#X restore 762 61 pd madboxp;
#X obj 783 156 *~ 0.5;
#X obj 805 184 env~;
#X obj 772 329 /~;
#X obj 811 210 dbtorms;
#X obj 771 352 clip~ -1 1;
#X obj 811 232 * 2;
#X obj 810 279 line;
#X msg 808 256 \$1 100;
#X obj 805 303 clip 0.03 10;
#X obj 683 536 *~ 0.05;
#X obj 705 -1 random 12;
#X obj 725 32 select 11;
#X obj 952 37 random 999999;
#X obj 618 300 clip~ -1 0;
#X obj 631 323 *~ -1;
#X obj 713 400 *~;
#X obj 681 350 +~;
#X obj 701 326 *~ 0.05;
#X obj 264 338 -~ 0.1;
#N canvas 7 94 1200 916 4tap-delay 0;
#X obj 636 784 outlet~;
#X obj 787 789 outlet~;
#X obj 13 484 inlet~;
#X obj 313 175 inlet;
#X floatatom 328 319 5 0 0 0 - - -;
#X obj 127 114 hradio 12 1 1 8 empty empty 1/16 -25 6 0 8 -262144 -1
-1 3;
#X obj 327 338 pow -1;
#X obj 327 361 / 4;
#X obj 327 385 *;
#X obj 351 412 * 60000;
#X obj 114 630 +~;
#X obj 233 811 *~;
#X obj 136 338 hsl 96 8 0 0.95 0 1 empty empty fb -16 5 0 8 -262144
-1 -1 3200 1;
#X text 362 175 <- bpm in;
#X obj 525 179 loadbang;
#X floatatom 393 306 5 0 0 0 - - -;
#X obj 286 276 t b b;
#X text 269 112 beatsynced multitap-delay with feedback;
#X text 132 654 <- unique name for delaylines! ->;
#X obj 131 130 hsl 96 8 1 0.01 0 1 empty empty fn -16 5 0 8 -262144
-1 -1 0 1;
#X obj 394 327 +;
#X obj 358 502 *~;
#X obj 366 472 dbtorms;
#X obj 371 439 / 1.27;
#X obj 160 153 hsl 41 8 0 -1 0 1 empty empty pan -21 4 0 8 -262144
-1 -1 880 1;
#X obj 355 559 *~;
#X obj 412 558 *~;
#X obj 380 532 + 1;
#X obj 412 530 * -1;
#X obj 131 142 hsl 96 8 0 127 0 1 empty empty lv -16 5 0 8 -262144
-1 -1 9200 1;
#X obj 712 757 +~;
#X floatatom 489 296 5 0 0 0 - - -;
#X obj 128 169 hradio 12 1 1 8 empty empty 1/16 -25 6 0 8 -262144 -1
-1 1;
#X obj 488 315 pow -1;
#X obj 488 338 / 4;
#X obj 488 362 *;
#X obj 512 389 * 60000;
#X floatatom 554 283 5 0 0 0 - - -;
#X obj 447 253 t b b;
#X obj 132 185 hsl 96 8 1 0.01 0 1 empty empty fn -16 5 0 8 -262144
-1 -1 6100 1;
#X obj 555 304 +;
#X obj 161 208 hsl 41 8 0 -1 0 1 empty empty pan -21 4 0 8 -262144
-1 -1 640 1;
#X obj 132 197 hsl 96 8 0 127 0 1 empty empty lv -16 5 0 8 -262144
-1 -1 9300 1;
#X obj 504 488 *~;
#X obj 511 457 dbtorms;
#X obj 521 424 / 1.27;
#X obj 490 545 *~;
#X obj 547 544 *~;
#X obj 506 523 + 1;
#X obj 547 518 * -1;
#X floatatom 638 290 5 0 0 0 - - -;
#X obj 129 226 hradio 12 1 1 8 empty empty 1/16 -25 6 0 8 -262144 -1
-1 4;
#X obj 637 309 pow -1;
#X obj 637 332 / 4;
#X obj 637 356 *;
#X obj 661 383 * 60000;
#X floatatom 703 277 5 0 0 0 - - -;
#X obj 596 247 t b b;
#X obj 133 242 hsl 96 8 1 0.01 0 1 empty empty fn -16 5 0 8 -262144
-1 -1 1400 1;
#X obj 704 298 +;
#X obj 162 265 hsl 41 8 0 -1 0 1 empty empty pan -21 4 0 8 -262144
-1 -1 3040 1;
#X obj 133 254 hsl 96 8 0 127 0 1 empty empty lv -16 5 0 8 -262144
-1 -1 9100 1;
#X obj 653 482 *~;
#X obj 660 451 dbtorms;
#X obj 670 418 / 1.27;
#X obj 639 539 *~;
#X obj 696 538 *~;
#X obj 655 517 + 1;
#X obj 696 509 * -1;
#X floatatom 778 289 5 0 0 0 - - -;
#X obj 131 283 hradio 12 1 1 8 empty empty 1/16 -25 6 0 8 -262144 -1
-1 2;
#X obj 777 308 pow -1;
#X obj 777 331 / 4;
#X obj 777 355 *;
#X obj 801 382 * 60000;
#X floatatom 843 276 5 0 0 0 - - -;
#X obj 736 246 t b b;
#X obj 135 299 hsl 96 8 1 0.01 0 1 empty empty fn -16 5 0 8 -262144
-1 -1 1800 1;
#X obj 844 297 +;
#X obj 164 322 hsl 41 8 0 -1 0 1 empty empty pan -21 4 0 8 -262144
-1 -1 3320 1;
#X obj 135 311 hsl 96 8 0 127 0 1 empty empty lv -16 5 0 8 -262144
-1 -1 9100 1;
#X obj 793 481 *~;
#X obj 800 450 dbtorms;
#X obj 810 417 / 1.27;
#X obj 779 538 *~;
#X obj 836 537 *~;
#X obj 795 516 + 1;
#X obj 830 510 * -1;
#X obj 31 78 random 100;
#X obj 44 107 * -0.01;
#X obj 78 12 inlet;
#X obj 17 139 random 100;
#X obj 17 166 * -0.01;
#X obj 9 212 random 100;
#X obj 8 242 * -0.01;
#X obj 11 282 random 100;
#X obj 15 308 * -0.01;
#X obj -21 655 delwrite~ \$0bmtdl1 2000;
#X obj -24 701 delwrite~ \$0bmtdl2 2000;
#X obj -24 737 delwrite~ \$0bmtdl3 2000;
#X obj -26 774 delwrite~ \$0bmtdl4 2000;
#X obj 370 656 delread~ \$0bmtdl1;
#X obj 363 699 delread~ \$0bmtdl2;
#X obj 364 736 delread~ \$0bmtdl3;
#X obj 365 773 delread~ \$0bmtdl4;
#X connect 2 0 10 0;
#X connect 3 0 4 0;
#X connect 3 0 31 0;
#X connect 3 0 50 0;
#X connect 3 0 69 0;
#X connect 4 0 6 0;
#X connect 5 0 15 0;
#X connect 5 0 16 0;
#X connect 6 0 7 0;
#X connect 7 0 8 0;
#X connect 8 0 9 0;
#X connect 9 0 101 0;
#X connect 10 0 97 0;
#X connect 11 0 10 1;
#X connect 12 0 11 1;
#X connect 14 0 16 0;
#X connect 14 0 38 0;
#X connect 14 0 57 0;
#X connect 14 0 76 0;
#X connect 15 0 20 0;
#X connect 16 0 4 0;
#X connect 16 1 15 0;
#X connect 19 0 20 1;
#X connect 19 0 16 0;
#X connect 20 0 8 1;
#X connect 21 0 25 0;
#X connect 21 0 26 1;
#X connect 22 0 21 0;
#X connect 23 0 22 0;
#X connect 24 0 27 0;
#X connect 24 0 28 0;
#X connect 25 0 30 0;
#X connect 25 0 0 0;
#X connect 26 0 30 1;
#X connect 26 0 1 0;
#X connect 27 0 25 1;
#X connect 28 0 26 0;
#X connect 29 0 23 0;
#X connect 30 0 11 0;
#X connect 31 0 33 0;
#X connect 32 0 37 0;
#X connect 32 0 38 0;
#X connect 33 0 34 0;
#X connect 34 0 35 0;
#X connect 35 0 36 0;
#X connect 36 0 102 0;
#X connect 37 0 40 0;
#X connect 38 0 31 0;
#X connect 38 1 37 0;
#X connect 39 0 40 1;
#X connect 39 0 38 0;
#X connect 40 0 35 1;
#X connect 41 0 49 0;
#X connect 41 0 48 0;
#X connect 42 0 45 0;
#X connect 43 0 46 0;
#X connect 43 0 47 1;
#X connect 44 0 43 0;
#X connect 45 0 44 0;
#X connect 46 0 30 0;
#X connect 46 0 0 0;
#X connect 47 0 30 1;
#X connect 47 0 1 0;
#X connect 48 0 46 1;
#X connect 49 0 47 0;
#X connect 50 0 52 0;
#X connect 51 0 56 0;
#X connect 51 0 57 0;
#X connect 52 0 53 0;
#X connect 53 0 54 0;
#X connect 54 0 55 0;
#X connect 55 0 103 0;
#X connect 56 0 59 0;
#X connect 57 0 50 0;
#X connect 57 1 56 0;
#X connect 58 0 59 1;
#X connect 58 0 57 0;
#X connect 59 0 54 1;
#X connect 60 0 68 0;
#X connect 60 0 67 0;
#X connect 61 0 64 0;
#X connect 62 0 65 0;
#X connect 62 0 66 1;
#X connect 63 0 62 0;
#X connect 64 0 63 0;
#X connect 65 0 30 0;
#X connect 65 0 0 0;
#X connect 66 0 30 1;
#X connect 66 0 1 0;
#X connect 67 0 65 1;
#X connect 68 0 66 0;
#X connect 69 0 71 0;
#X connect 70 0 75 0;
#X connect 70 0 76 0;
#X connect 71 0 72 0;
#X connect 72 0 73 0;
#X connect 73 0 74 0;
#X connect 74 0 104 0;
#X connect 75 0 78 0;
#X connect 76 0 69 0;
#X connect 76 1 75 0;
#X connect 77 0 78 1;
#X connect 77 0 76 0;
#X connect 78 0 73 1;
#X connect 79 0 87 0;
#X connect 79 0 86 0;
#X connect 80 0 83 0;
#X connect 81 0 84 0;
#X connect 81 0 85 1;
#X connect 82 0 81 0;
#X connect 83 0 82 0;
#X connect 84 0 30 0;
#X connect 84 0 0 0;
#X connect 85 0 30 1;
#X connect 85 0 1 0;
#X connect 86 0 84 1;
#X connect 87 0 85 0;
#X connect 88 0 89 0;
#X connect 89 0 24 0;
#X connect 90 0 88 0;
#X connect 90 0 91 0;
#X connect 90 0 93 0;
#X connect 90 0 95 0;
#X connect 91 0 92 0;
#X connect 92 0 41 0;
#X connect 93 0 94 0;
#X connect 94 0 60 0;
#X connect 95 0 96 0;
#X connect 96 0 79 0;
#X connect 101 0 21 1;
#X connect 101 0 98 0;
#X connect 102 0 43 1;
#X connect 102 0 99 0;
#X connect 103 0 62 1;
#X connect 103 0 100 0;
#X connect 104 0 81 1;
#X coords 0 0 1 1 140 250 0;
#X restore 915 862 pd 4tap-delay;
#X msg 966 788 bang;
#X obj 211 105 / 5000;
#X obj 209 60 random 800;
#X obj 210 82 + 200;
#X obj 585 394 int;
#X obj 1026 739 / 64;
#X obj 264 831 hip~ 10;
#X obj 533 821 hip~ 10;
#X obj 1035 832 /;
#X obj 1032 764 t b f;
#X msg 1029 791 15000;
#X obj 309 651 hip~ 20;
#X obj 576 661 / 1000;
#X obj 571 690 + 0.05;
#X obj 572 635 random 150;
#X obj 468 656 / 1000;
#X obj 475 677 + 0.05;
#X obj 464 630 random 150;
#X text 739 796 sample the output;
#N canvas 18 92 1025 581 fix-pan-mix-4chan 0;
#X obj 30 39 inlet~;
#X obj 101 41 inlet~;
#X obj 139 320 outlet~;
#X obj 292 310 outlet~;
#X obj 186 42 inlet~;
#X obj 269 44 inlet~;
#N canvas 0 0 450 300 pan1 0;
#X obj 120 15 inlet;
#X obj 297 51 inlet~;
#X obj 256 225 outlet~;
#X obj 336 218 outlet~;
#X obj 251 149 *~;
#X obj 323 154 *~;
#X obj 276 122 + 1;
#X obj 335 113 * -1;
#X obj 208 75 * -1;
#X obj 160 42 clip 0 1;
#X connect 0 0 9 0;
#X connect 1 0 4 0;
#X connect 1 0 5 1;
#X connect 4 0 2 0;
#X connect 5 0 3 0;
#X connect 6 0 4 1;
#X connect 7 0 5 0;
#X connect 8 0 6 0;
#X connect 8 0 7 0;
#X connect 9 0 8 0;
#X restore 42 187 pd pan1;
#N canvas 0 0 450 300 pan1 0;
#X obj 120 15 inlet;
#X obj 297 51 inlet~;
#X obj 256 225 outlet~;
#X obj 336 218 outlet~;
#X obj 251 149 *~;
#X obj 323 154 *~;
#X obj 276 122 + 1;
#X obj 335 113 * -1;
#X obj 208 75 * -1;
#X obj 160 42 clip 0 1;
#X connect 0 0 9 0;
#X connect 1 0 4 0;
#X connect 1 0 5 1;
#X connect 4 0 2 0;
#X connect 5 0 3 0;
#X connect 6 0 4 1;
#X connect 7 0 5 0;
#X connect 8 0 6 0;
#X connect 8 0 7 0;
#X connect 9 0 8 0;
#X restore 122 192 pd pan1;
#N canvas 0 0 450 300 pan1 0;
#X obj 120 15 inlet;
#X obj 297 51 inlet~;
#X obj 256 225 outlet~;
#X obj 336 218 outlet~;
#X obj 251 149 *~;
#X obj 323 154 *~;
#X obj 276 122 + 1;
#X obj 335 113 * -1;
#X obj 208 75 * -1;
#X obj 160 42 clip 0 1;
#X connect 0 0 9 0;
#X connect 1 0 4 0;
#X connect 1 0 5 1;
#X connect 4 0 2 0;
#X connect 5 0 3 0;
#X connect 6 0 4 1;
#X connect 7 0 5 0;
#X connect 8 0 6 0;
#X connect 8 0 7 0;
#X connect 9 0 8 0;
#X restore 203 183 pd pan1;
#N canvas 0 0 450 300 pan1 0;
#X obj 120 15 inlet;
#X obj 297 51 inlet~;
#X obj 256 225 outlet~;
#X obj 336 218 outlet~;
#X obj 251 149 *~;
#X obj 323 154 *~;
#X obj 276 122 + 1;
#X obj 335 113 * -1;
#X obj 208 75 * -1;
#X obj 160 42 clip 0 1;
#X connect 0 0 9 0;
#X connect 1 0 4 0;
#X connect 1 0 5 1;
#X connect 4 0 2 0;
#X connect 5 0 3 0;
#X connect 6 0 4 1;
#X connect 7 0 5 0;
#X connect 8 0 6 0;
#X connect 8 0 7 0;
#X connect 9 0 8 0;
#X restore 281 194 pd pan1;
#X obj 553 -9 inlet;
#X obj 122 118 random 10;
#X obj 123 141 / 50;
#X obj 123 165 + 0.4;
#X obj 39 108 random 10;
#X obj 40 131 / 50;
#X obj 40 155 + 0.4;
#X obj 293 118 random 10;
#X obj 294 141 / 50;
#X obj 294 165 + 0.4;
#X obj 210 108 random 10;
#X obj 211 131 / 50;
#X obj 211 155 + 0.4;
#X connect 0 0 6 1;
#X connect 1 0 7 1;
#X connect 4 0 8 1;
#X connect 5 0 9 1;
#X connect 6 0 2 0;
#X connect 6 1 3 0;
#X connect 7 0 2 0;
#X connect 7 1 3 0;
#X connect 8 0 2 0;
#X connect 8 1 3 0;
#X connect 9 0 2 0;
#X connect 9 1 3 0;
#X connect 10 0 11 0;
#X connect 10 0 14 0;
#X connect 10 0 20 0;
#X connect 10 0 17 0;
#X connect 11 0 12 0;
#X connect 12 0 13 0;
#X connect 13 0 7 0;
#X connect 14 0 15 0;
#X connect 15 0 16 0;
#X connect 16 0 6 0;
#X connect 17 0 18 0;
#X connect 18 0 19 0;
#X connect 19 0 9 0;
#X connect 20 0 21 0;
#X connect 21 0 22 0;
#X connect 22 0 8 0;
#X restore 350 817 pd fix-pan-mix-4chan;
#X obj 950 698 *~ 0.3;
#X text 430 -51 two sines beating controls a bass-synth-tone and various
clicks and noises;
#X text 429 -18 3/2011 martin brinkmann;
#X obj 462 133 + 24;
#X obj 537 210 + 21;
#X obj 593 110 + 5;
#X text 226 426 onset;
#X connect 0 0 8 0;
#X connect 1 0 8 1;
#X connect 3 0 85 0;
#X connect 3 0 96 0;
#X connect 3 0 130 0;
#X connect 3 0 131 0;
#X connect 4 0 50 0;
#X connect 4 0 69 0;
#X connect 5 0 11 0;
#X connect 6 0 5 0;
#X connect 7 0 30 0;
#X connect 7 0 36 0;
#X connect 7 0 82 0;
#X connect 7 0 108 0;
#X connect 7 0 111 0;
#X connect 7 0 125 0;
#X connect 7 0 147 0;
#X connect 7 0 150 0;
#X connect 7 0 152 4;
#X connect 8 0 3 0;
#X connect 9 0 10 0;
#X connect 10 0 12 0;
#X connect 11 0 13 0;
#X connect 12 0 1 0;
#X connect 13 0 10 1;
#X connect 14 0 110 0;
#X connect 15 0 17 0;
#X connect 16 0 156 0;
#X connect 16 0 157 0;
#X connect 17 0 18 0;
#X connect 18 0 19 0;
#X connect 19 0 25 0;
#X connect 20 0 14 1;
#X connect 20 0 25 1;
#X connect 21 0 22 0;
#X connect 22 0 23 0;
#X connect 23 0 24 0;
#X connect 24 0 25 0;
#X connect 25 0 14 0;
#X connect 26 0 15 0;
#X connect 27 0 21 0;
#X connect 28 0 158 0;
#X connect 29 0 26 1;
#X connect 29 0 27 1;
#X connect 30 0 16 0;
#X connect 30 1 28 0;
#X connect 32 0 33 0;
#X connect 33 0 34 0;
#X connect 34 0 35 0;
#X connect 35 1 41 0;
#X connect 35 1 45 0;
#X connect 36 0 32 0;
#X connect 37 0 40 0;
#X connect 38 0 37 0;
#X connect 39 0 38 0;
#X connect 39 1 37 1;
#X connect 40 0 44 0;
#X connect 40 0 88 0;
#X connect 41 0 66 0;
#X connect 41 0 99 0;
#X connect 42 0 41 1;
#X connect 42 0 65 0;
#X connect 43 0 48 0;
#X connect 43 0 48 1;
#X connect 44 0 42 0;
#X connect 44 0 138 0;
#X connect 45 0 44 0;
#X connect 45 1 47 0;
#X connect 45 1 60 0;
#X connect 45 1 63 0;
#X connect 45 1 93 0;
#X connect 46 0 42 1;
#X connect 47 0 46 0;
#X connect 48 0 51 0;
#X connect 49 0 52 0;
#X connect 49 1 53 0;
#X connect 50 0 144 0;
#X connect 51 0 64 0;
#X connect 51 0 86 0;
#X connect 52 0 71 0;
#X connect 52 0 139 0;
#X connect 53 0 71 0;
#X connect 53 0 140 0;
#X connect 54 0 55 0;
#X connect 55 0 49 1;
#X connect 56 0 57 0;
#X connect 57 0 51 1;
#X connect 58 0 57 1;
#X connect 59 0 58 0;
#X connect 60 0 61 0;
#X connect 61 0 59 0;
#X connect 62 0 43 0;
#X connect 63 0 62 1;
#X connect 64 0 71 0;
#X connect 64 0 152 1;
#X connect 65 0 66 1;
#X connect 65 0 68 0;
#X connect 66 0 67 0;
#X connect 66 0 99 0;
#X connect 67 0 99 0;
#X connect 68 0 67 1;
#X connect 69 0 71 0;
#X connect 69 0 152 2;
#X connect 70 0 81 0;
#X connect 70 1 75 0;
#X connect 70 1 77 0;
#X connect 72 0 84 0;
#X connect 73 0 72 0;
#X connect 74 0 72 0;
#X connect 75 0 73 0;
#X connect 76 0 97 0;
#X connect 76 0 152 0;
#X connect 76 0 153 0;
#X connect 77 0 78 0;
#X connect 78 0 80 0;
#X connect 79 0 74 0;
#X connect 80 0 79 0;
#X connect 81 0 74 0;
#X connect 81 1 73 0;
#X connect 82 0 71 0;
#X connect 84 0 76 0;
#X connect 85 0 89 0;
#X connect 86 0 144 0;
#X connect 87 0 85 0;
#X connect 87 0 91 0;
#X connect 88 0 87 0;
#X connect 88 1 94 0;
#X connect 89 0 107 0;
#X connect 90 0 89 1;
#X connect 91 0 90 0;
#X connect 92 0 94 1;
#X connect 93 0 92 0;
#X connect 94 0 137 0;
#X connect 95 0 144 0;
#X connect 96 0 4 0;
#X connect 97 0 95 0;
#X connect 98 0 7 0;
#X connect 99 0 62 0;
#X connect 99 1 100 0;
#X connect 99 2 101 0;
#X connect 99 2 123 0;
#X connect 100 0 43 0;
#X connect 101 0 102 0;
#X connect 102 0 103 0;
#X connect 103 0 100 1;
#X connect 107 0 70 0;
#X connect 108 0 109 0;
#X connect 109 0 54 0;
#X connect 110 0 4 1;
#X connect 111 0 6 0;
#X connect 111 0 133 0;
#X connect 111 1 135 0;
#X connect 111 2 93 0;
#X connect 111 2 45 0;
#X connect 112 0 113 0;
#X connect 113 0 114 0;
#X connect 113 0 115 0;
#X connect 114 0 116 0;
#X connect 115 0 117 0;
#X connect 116 0 118 0;
#X connect 117 0 128 1;
#X connect 118 0 120 0;
#X connect 119 0 121 0;
#X connect 120 0 119 0;
#X connect 121 0 115 1;
#X connect 122 0 71 0;
#X connect 123 0 124 0;
#X connect 124 0 112 0;
#X connect 124 1 112 1;
#X connect 125 0 112 5;
#X connect 126 0 127 0;
#X connect 127 0 129 0;
#X connect 128 0 122 0;
#X connect 128 0 132 0;
#X connect 129 0 128 0;
#X connect 130 0 129 1;
#X connect 131 0 32 0;
#X connect 131 0 126 0;
#X connect 132 0 139 0;
#X connect 132 1 140 0;
#X connect 133 0 132 1;
#X connect 134 0 9 0;
#X connect 134 0 0 0;
#X connect 134 0 12 1;
#X connect 134 0 39 0;
#X connect 135 0 136 0;
#X connect 136 0 134 0;
#X connect 137 0 87 1;
#X connect 138 0 142 0;
#X connect 139 0 2 0;
#X connect 140 0 2 1;
#X connect 141 0 132 2;
#X connect 142 0 143 0;
#X connect 142 1 141 1;
#X connect 143 0 141 0;
#X connect 144 0 49 0;
#X connect 145 0 146 0;
#X connect 146 0 53 1;
#X connect 147 0 145 0;
#X connect 148 0 149 0;
#X connect 149 0 52 1;
#X connect 150 0 148 0;
#X connect 152 0 2 0;
#X connect 152 1 2 1;
#X connect 153 0 132 0;
#X connect 156 0 26 0;
#X connect 156 0 27 0;
#X connect 157 0 20 0;
#X connect 158 0 29 0;
