#N canvas 173 27 940 881 10;
#X obj 159 81 t b f;
#X obj 551 193 *~ 0.5;
#X obj 490 464 tabwrite~ \$0sample1;
#X obj 202 284 *~ 88200;
#X obj 203 259 line~;
#X msg 171 227 0.703125;
#X msg 265 235 1 1187.5;
#X msg 150 184 set \$1;
#X obj 201 307 tabread4~ \$0sample1;
#X obj 565 221 env~;
#X obj 532 366 /~;
#X obj 278 118 - 1;
#X obj 278 143 * -1;
#X msg 271 207 set 1 \$1;
#X obj 277 166 * 4000;
#X obj 571 247 dbtorms;
#X obj 531 389 clip~ -1 1;
#X obj 212 170 t b b;
#X obj 571 269 * 2;
#X obj 564 317 line;
#X msg 568 293 \$1 100;
#X msg 151 -432 bang;
#X obj 497 488 table \$0sample1 88200;
#X obj 321 -464 loadbang;
#X obj 430 334 metro 4000;
#X obj 146 -25 until;
#X obj 134 -54 + 3;
#X obj 136 -81 random 5;
#N canvas 311 117 713 632 counter 0;
#X obj 278 497 + 1;
#X obj 227 493 float;
#X msg 206 296 1;
#X obj 218 321 /;
#X obj 209 273 t f f;
#X obj 228 344 * 15000;
#X obj 353 306 t b f;
#X obj 218 459 metro 125;
#X msg 348 270 -2;
#X text 141 455 1/16 in ms;
#X floatatom 244 136 3 30 300 0 - - -;
#X text 248 116 bpm;
#X obj 255 548 outlet;
#X obj 498 203 outlet;
#X text 546 204 bpm->;
#X text 306 549 pos->;
#X obj 130 69 t b b b;
#X obj 236 92 + 70;
#X obj 131 39 inlet;
#X obj 234 66 random 50;
#X connect 0 0 1 1;
#X connect 0 0 12 0;
#X connect 1 0 0 0;
#X connect 2 0 3 0;
#X connect 3 0 5 0;
#X connect 4 0 2 0;
#X connect 4 1 3 1;
#X connect 5 0 7 1;
#X connect 6 0 7 0;
#X connect 6 1 1 0;
#X connect 7 0 1 0;
#X connect 8 0 6 0;
#X connect 10 0 4 0;
#X connect 10 0 13 0;
#X connect 16 0 8 0;
#X connect 16 1 10 0;
#X connect 16 2 19 0;
#X connect 17 0 10 0;
#X connect 18 0 16 0;
#X connect 19 0 17 0;
#X coords 0 0 1 1 120 40 0;
#X restore 364 -388 pd counter;
#X obj 117 43 moses 0.01;
#X obj 94 -122 t b b;
#X obj 178 16 delay 1;
#X obj -5 86 t b f;
#X obj -25 286 *~ 88200;
#X obj -24 261 line~;
#X msg -56 229 0.703125;
#X msg 46 238 1 1187.5;
#X msg -68 187 set \$1;
#X obj -26 309 tabread4~ \$0sample1;
#X obj 59 121 - 1;
#X obj 59 146 * -1;
#X msg 52 210 set 1 \$1;
#X obj 58 169 * 4000;
#X obj -15 172 t b b;
#X obj -28 -25 until;
#X obj -30 -49 + 3;
#X obj -28 -76 random 5;
#X obj -53 44 moses 0.01;
#X obj -46 -110 t b b;
#X obj 10 17 delay 1;
#X obj 305 70 *;
#X obj 400 299 mtof;
#X obj 351 111 * 128;
#X obj 385 221 clip 40 120;
#X obj 379 175 + 30;
#N canvas 0 100 708 639 sinedec 0;
#X obj 69 429 outlet~;
#X obj 86 250 osc~;
#X obj 54 -85 inlet;
#X obj 361 -88 inlet;
#X obj 79 209 mtof;
#X obj 88 340 *~;
#X obj 214 177 *~;
#X msg 287 103 1;
#X text 224 201 amp env;
#X obj 236 145 vline~;
#X obj 223 36 t b b;
#X msg 195 102 0 50;
#X text 236 67 decay;
#X msg 299 68 set 0 \$1;
#X obj 84 74 / 4;
#X obj 86 102 int;
#X obj 79 132 + 24;
#X obj 360 -42 / 320;
#X obj 358 -9 * 800;
#X obj 342 47 + 30;
#N canvas 97 146 1090 619 mode 0;
#X obj -19 -8 inlet;
#X text -21 -30 in;
#X obj 8 367 select 1 3 5 7 10;
#X msg -1 414 1;
#X msg 75 418 0;
#X obj -11 529 +;
#X text 37 346 ionisch;
#X msg 159 404 1;
#X msg 231 401 0;
#X text 199 339 aeolisch;
#X obj 168 358 select 1 4 6 9 11;
#X obj 6 590 outlet;
#X obj 28 103 mod 12;
#X obj 81 187 pack f f;
#X obj 217 77 inlet;
#X obj 85 157 int;
#X obj 66 129 t b f;
#X obj 22 76 + 60;
#X obj -10 52 t f f;
#X text 225 53 type;
#X msg 319 404 1;
#X msg 391 404 0;
#X text 333 337 lydisch;
#X obj 327 357 select 1 3 5 8 10;
#X msg 478 403 1;
#X msg 559 403 0;
#X text 494 338 mixolydisch;
#X obj 485 358 select 1 3 6 8 11;
#X msg 639 406 1;
#X msg 711 406 0;
#X text 659 335 dorisch;
#X obj 647 361 select 1 4 6 8 11;
#X msg 781 407 1;
#X msg 853 407 0;
#X text 801 336 lokrisch;
#X obj 790 363 select 2 4 7 9 11;
#X msg 927 405 1;
#X msg 999 405 0;
#X text 947 334 phrygisch;
#X obj 273 242 route 0 1 2 3 4 5 6;
#X obj 936 362 select 2 4 6 9 11;
#X obj 303 -10 inlet;
#X text 354 -9 tp;
#X obj 6 22 +;
#X obj 3 560 -;
#X connect 0 0 43 0;
#X connect 2 0 3 0;
#X connect 2 1 3 0;
#X connect 2 2 3 0;
#X connect 2 3 3 0;
#X connect 2 4 3 0;
#X connect 2 5 4 0;
#X connect 3 0 5 1;
#X connect 4 0 5 1;
#X connect 5 0 44 0;
#X connect 7 0 5 1;
#X connect 8 0 5 1;
#X connect 10 0 7 0;
#X connect 10 1 7 0;
#X connect 10 2 7 0;
#X connect 10 3 7 0;
#X connect 10 4 7 0;
#X connect 10 5 8 0;
#X connect 12 0 16 0;
#X connect 13 0 39 0;
#X connect 14 0 15 1;
#X connect 15 0 13 0;
#X connect 16 0 15 0;
#X connect 16 1 13 1;
#X connect 17 0 12 0;
#X connect 18 0 5 0;
#X connect 18 1 17 0;
#X connect 20 0 5 1;
#X connect 21 0 5 1;
#X connect 23 0 20 0;
#X connect 23 1 20 0;
#X connect 23 2 20 0;
#X connect 23 3 20 0;
#X connect 23 4 20 0;
#X connect 23 5 21 0;
#X connect 24 0 5 1;
#X connect 25 0 5 1;
#X connect 27 0 24 0;
#X connect 27 1 24 0;
#X connect 27 2 24 0;
#X connect 27 3 24 0;
#X connect 27 4 24 0;
#X connect 27 5 25 0;
#X connect 28 0 5 1;
#X connect 29 0 5 1;
#X connect 31 0 28 0;
#X connect 31 1 28 0;
#X connect 31 2 28 0;
#X connect 31 3 28 0;
#X connect 31 4 28 0;
#X connect 31 5 29 0;
#X connect 32 0 5 1;
#X connect 33 0 5 1;
#X connect 35 0 32 0;
#X connect 35 1 32 0;
#X connect 35 2 32 0;
#X connect 35 3 32 0;
#X connect 35 4 32 0;
#X connect 35 5 33 0;
#X connect 36 0 5 1;
#X connect 37 0 5 1;
#X connect 39 0 2 0;
#X connect 39 1 10 0;
#X connect 39 2 23 0;
#X connect 39 3 27 0;
#X connect 39 4 31 0;
#X connect 39 5 35 0;
#X connect 39 6 40 0;
#X connect 40 0 36 0;
#X connect 40 1 36 0;
#X connect 40 2 36 0;
#X connect 40 3 36 0;
#X connect 40 4 36 0;
#X connect 40 5 37 0;
#X connect 41 0 43 1;
#X connect 41 0 44 1;
#X connect 43 0 18 0;
#X connect 44 0 11 0;
#X restore 76 165 pd mode;
#X obj 127 135 inlet;
#X obj 518 -7 inlet;
#X obj 87 307 clip~ -1 1;
#X obj 87 279 *~ 1;
#X obj 506 167 clip 1 1000;
#X obj 552 115 inlet;
#X obj 148 -28 pipe 1;
#X connect 1 0 24 0;
#X connect 2 0 14 0;
#X connect 2 0 27 0;
#X connect 3 0 17 0;
#X connect 4 0 1 0;
#X connect 5 0 0 0;
#X connect 6 0 5 1;
#X connect 7 0 9 0;
#X connect 9 0 6 1;
#X connect 9 0 6 0;
#X connect 10 0 11 0;
#X connect 10 1 7 0;
#X connect 11 0 9 0;
#X connect 13 0 11 0;
#X connect 14 0 15 0;
#X connect 15 0 16 0;
#X connect 16 0 20 0;
#X connect 17 0 18 0;
#X connect 18 0 19 0;
#X connect 19 0 13 0;
#X connect 20 0 4 0;
#X connect 21 0 20 1;
#X connect 22 0 20 2;
#X connect 23 0 5 0;
#X connect 24 0 23 0;
#X connect 25 0 24 1;
#X connect 26 0 25 0;
#X connect 27 0 10 0;
#X restore 397 108 pd sinedec;
#X obj 490 -444 r #touch;
#X obj 486 -416 route down;
#N canvas 77 275 1151 641 seq32 0;
#X obj 15 -9 inlet;
#X obj 7 532 outlet;
#X obj 166 551 outlet;
#X obj 158 -99 inlet;
#X obj 257 -28 inlet;
#X obj 36 52 mod 32;
#X obj -37 105 int;
#X obj 17 243 select 0 1 2 3 4 5 6 7 8 9 10 11 12 13 14 15;
#X obj 15 461 unpack f f;
#X msg -149 327 0 0;
#X msg -68 326 0 0;
#X obj -115 165 route 0 1 2 3 4 5 6 7 8 9 10 11 12 13 14 15;
#X obj 120 46 t b b f;
#X obj 185 48 t b b f;
#X msg 106 93 symbol set;
#X obj 74 118 pack f s f f;
#X msg -11 327 0 0;
#X msg 57 332 0 0;
#X msg 102 331 0 0;
#X msg 169 335 0 0;
#X msg 239 332 0 0;
#X msg 288 332 0 0;
#X obj 137 459 unpack f f;
#X msg 348 329 0 0;
#X msg 429 328 0 0;
#X msg 486 329 0 0;
#X msg 554 334 0 0;
#X msg 599 333 0 0;
#X msg 666 337 0 0;
#X msg 736 334 0 0;
#X msg 785 334 0 0;
#X obj 228 166 route 16 17 18 19 20 21 22 23 24 25 26 27 28 29 30 31
;
#X obj 342 242 select 16 17 18 19 20 21 22 23 24 25 26 27 28 29 30
31;
#X obj -29 495 moses 0.1;
#X msg -106 300 0 0;
#X msg -39 294 0 0;
#X msg 29 301 0 0;
#X msg 75 296 0 0;
#X msg 148 297 0 0;
#X msg 208 301 0 0;
#X msg 266 302 0 0;
#X msg 321 295 0 0;
#X msg 391 302 0 0;
#X msg 458 296 0 0;
#X msg 526 303 0 0;
#X msg 573 298 0 0;
#X msg 645 299 0 0;
#X msg 705 303 0 0;
#X msg 763 304 0 0;
#X msg 731 155 set 0 0;
#X msg -177 293 0 0;
#X obj 742 70 inlet;
#X obj 144 516 moses 0.1;
#X obj 117 2 -;
#X msg 113 -27 320;
#X obj 138 -51 t b f;
#X obj 141 -76 pipe 1;
#X obj -20 72 pipe 50;
#X connect 0 0 5 0;
#X connect 3 0 56 0;
#X connect 4 0 52 0;
#X connect 4 0 13 0;
#X connect 5 0 7 0;
#X connect 5 0 32 0;
#X connect 5 0 57 0;
#X connect 6 0 15 0;
#X connect 7 0 50 0;
#X connect 7 1 9 0;
#X connect 7 2 34 0;
#X connect 7 3 10 0;
#X connect 7 4 35 0;
#X connect 7 5 16 0;
#X connect 7 6 36 0;
#X connect 7 7 17 0;
#X connect 7 8 37 0;
#X connect 7 9 18 0;
#X connect 7 10 38 0;
#X connect 7 11 19 0;
#X connect 7 12 39 0;
#X connect 7 13 20 0;
#X connect 7 14 40 0;
#X connect 7 15 21 0;
#X connect 8 0 33 0;
#X connect 8 1 52 0;
#X connect 9 0 8 0;
#X connect 10 0 8 0;
#X connect 11 0 50 0;
#X connect 11 1 9 0;
#X connect 11 2 34 0;
#X connect 11 3 10 0;
#X connect 11 4 35 0;
#X connect 11 5 16 0;
#X connect 11 6 36 0;
#X connect 11 7 17 0;
#X connect 11 8 37 0;
#X connect 11 9 18 0;
#X connect 11 10 38 0;
#X connect 11 11 19 0;
#X connect 11 12 39 0;
#X connect 11 13 20 0;
#X connect 11 14 40 0;
#X connect 11 15 21 0;
#X connect 12 0 6 0;
#X connect 12 1 14 0;
#X connect 12 2 15 2;
#X connect 13 0 6 0;
#X connect 13 1 14 0;
#X connect 13 2 15 3;
#X connect 14 0 15 1;
#X connect 15 0 11 0;
#X connect 15 0 31 0;
#X connect 16 0 8 0;
#X connect 17 0 8 0;
#X connect 18 0 8 0;
#X connect 19 0 8 0;
#X connect 20 0 8 0;
#X connect 21 0 8 0;
#X connect 22 0 33 0;
#X connect 22 1 52 0;
#X connect 23 0 22 0;
#X connect 24 0 22 0;
#X connect 25 0 22 0;
#X connect 26 0 22 0;
#X connect 27 0 22 0;
#X connect 28 0 22 0;
#X connect 29 0 22 0;
#X connect 30 0 22 0;
#X connect 31 0 41 0;
#X connect 31 1 23 0;
#X connect 31 2 42 0;
#X connect 31 3 24 0;
#X connect 31 4 43 0;
#X connect 31 5 25 0;
#X connect 31 6 44 0;
#X connect 31 7 26 0;
#X connect 31 8 45 0;
#X connect 31 9 27 0;
#X connect 31 10 46 0;
#X connect 31 11 28 0;
#X connect 31 12 47 0;
#X connect 31 13 29 0;
#X connect 31 14 48 0;
#X connect 31 15 30 0;
#X connect 32 0 41 0;
#X connect 32 1 23 0;
#X connect 32 2 42 0;
#X connect 32 3 24 0;
#X connect 32 4 43 0;
#X connect 32 5 25 0;
#X connect 32 6 44 0;
#X connect 32 7 26 0;
#X connect 32 8 45 0;
#X connect 32 9 27 0;
#X connect 32 10 46 0;
#X connect 32 11 28 0;
#X connect 32 12 47 0;
#X connect 32 13 29 0;
#X connect 32 14 48 0;
#X connect 32 15 30 0;
#X connect 33 1 1 0;
#X connect 34 0 8 0;
#X connect 35 0 8 0;
#X connect 36 0 8 0;
#X connect 38 0 8 0;
#X connect 39 0 8 0;
#X connect 40 0 8 0;
#X connect 41 0 22 0;
#X connect 42 0 22 0;
#X connect 43 0 22 0;
#X connect 44 0 22 0;
#X connect 46 0 22 0;
#X connect 47 0 22 0;
#X connect 48 0 22 0;
#X connect 49 0 50 0;
#X connect 49 0 34 0;
#X connect 49 0 35 0;
#X connect 49 0 36 0;
#X connect 49 0 37 0;
#X connect 49 0 38 0;
#X connect 49 0 39 0;
#X connect 49 0 40 0;
#X connect 49 0 42 0;
#X connect 49 0 41 0;
#X connect 49 0 43 0;
#X connect 49 0 44 0;
#X connect 49 0 45 0;
#X connect 49 0 46 0;
#X connect 49 0 47 0;
#X connect 49 0 48 0;
#X connect 49 0 9 0;
#X connect 49 0 10 0;
#X connect 49 0 16 0;
#X connect 49 0 17 0;
#X connect 49 0 18 0;
#X connect 49 0 19 0;
#X connect 49 0 20 0;
#X connect 49 0 21 0;
#X connect 49 0 23 0;
#X connect 49 0 24 0;
#X connect 49 0 25 0;
#X connect 49 0 26 0;
#X connect 49 0 27 0;
#X connect 49 0 28 0;
#X connect 49 0 29 0;
#X connect 49 0 30 0;
#X connect 50 0 8 0;
#X connect 51 0 49 0;
#X connect 52 1 2 0;
#X connect 53 0 33 0;
#X connect 53 0 12 0;
#X connect 54 0 53 0;
#X connect 55 0 54 0;
#X connect 55 1 53 1;
#X connect 56 0 55 0;
#X connect 57 0 6 1;
#X restore 370 -19 pd seq32;
#X obj 566 140 soundinput;
#X obj 296 531 soundoutput;
#X obj 476 383 + 0.5;
#X obj 555 341 clip 0.03 1;
#X obj 499 432 vcf~ 1.5;
#X obj 486 -388 unpack f f f;
#X obj 546 -356 float;
#X obj 495 -357 float;
#X obj 482 225 *~ 0.3;
#X msg 374 -424 bang;
#N canvas 0 0 708 640 sinedec 0;
#X obj 69 429 outlet~;
#X obj 100 247 osc~;
#X obj 54 -85 inlet;
#X obj 390 -60 inlet;
#X obj 77 203 mtof;
#X obj 107 332 *~;
#X obj 214 177 *~;
#X msg 283 91 1;
#X obj 236 145 vline~;
#X obj 223 36 t b b;
#X msg 223 91 0 120;
#X text 236 67 decay;
#X msg 295 68 set 0 \$1;
#X obj 84 74 / 4;
#X obj 86 102 int;
#X obj 79 132 + 24;
#X obj 395 -34 / 320;
#X obj 371 22 * 800;
#X obj 351 44 + 30;
#X obj 551 151 inlet~;
#X obj 499 200 +~ 1;
#X obj 107 364 *~;
#X obj 144 92 inlet;
#N canvas 97 146 1090 619 mode 0;
#X obj -19 -8 inlet;
#X text -21 -30 in;
#X obj 8 367 select 1 3 5 7 10;
#X msg -1 414 1;
#X msg 75 418 0;
#X obj -11 529 +;
#X text 37 346 ionisch;
#X msg 159 404 1;
#X msg 231 401 0;
#X text 199 339 aeolisch;
#X obj 168 358 select 1 4 6 9 11;
#X obj 6 590 outlet;
#X obj 28 103 mod 12;
#X obj 81 187 pack f f;
#X obj 217 77 inlet;
#X obj 85 157 int;
#X obj 66 129 t b f;
#X obj 22 76 + 60;
#X obj -10 52 t f f;
#X text 225 53 type;
#X msg 319 404 1;
#X msg 391 404 0;
#X text 333 337 lydisch;
#X obj 327 357 select 1 3 5 8 10;
#X msg 478 403 1;
#X msg 559 403 0;
#X text 494 338 mixolydisch;
#X obj 485 358 select 1 3 6 8 11;
#X msg 639 406 1;
#X msg 711 406 0;
#X text 659 335 dorisch;
#X obj 647 361 select 1 4 6 8 11;
#X msg 781 407 1;
#X msg 853 407 0;
#X text 801 336 lokrisch;
#X obj 790 363 select 2 4 7 9 11;
#X msg 927 405 1;
#X msg 999 405 0;
#X text 947 334 phrygisch;
#X obj 273 242 route 0 1 2 3 4 5 6;
#X obj 936 362 select 2 4 6 9 11;
#X obj 303 -10 inlet;
#X text 354 -9 tp;
#X obj 6 22 +;
#X obj 3 560 -;
#X connect 0 0 43 0;
#X connect 2 0 3 0;
#X connect 2 1 3 0;
#X connect 2 2 3 0;
#X connect 2 3 3 0;
#X connect 2 4 3 0;
#X connect 2 5 4 0;
#X connect 3 0 5 1;
#X connect 4 0 5 1;
#X connect 5 0 44 0;
#X connect 7 0 5 1;
#X connect 8 0 5 1;
#X connect 10 0 7 0;
#X connect 10 1 7 0;
#X connect 10 2 7 0;
#X connect 10 3 7 0;
#X connect 10 4 7 0;
#X connect 10 5 8 0;
#X connect 12 0 16 0;
#X connect 13 0 39 0;
#X connect 14 0 15 1;
#X connect 15 0 13 0;
#X connect 16 0 15 0;
#X connect 16 1 13 1;
#X connect 17 0 12 0;
#X connect 18 0 5 0;
#X connect 18 1 17 0;
#X connect 20 0 5 1;
#X connect 21 0 5 1;
#X connect 23 0 20 0;
#X connect 23 1 20 0;
#X connect 23 2 20 0;
#X connect 23 3 20 0;
#X connect 23 4 20 0;
#X connect 23 5 21 0;
#X connect 24 0 5 1;
#X connect 25 0 5 1;
#X connect 27 0 24 0;
#X connect 27 1 24 0;
#X connect 27 2 24 0;
#X connect 27 3 24 0;
#X connect 27 4 24 0;
#X connect 27 5 25 0;
#X connect 28 0 5 1;
#X connect 29 0 5 1;
#X connect 31 0 28 0;
#X connect 31 1 28 0;
#X connect 31 2 28 0;
#X connect 31 3 28 0;
#X connect 31 4 28 0;
#X connect 31 5 29 0;
#X connect 32 0 5 1;
#X connect 33 0 5 1;
#X connect 35 0 32 0;
#X connect 35 1 32 0;
#X connect 35 2 32 0;
#X connect 35 3 32 0;
#X connect 35 4 32 0;
#X connect 35 5 33 0;
#X connect 36 0 5 1;
#X connect 37 0 5 1;
#X connect 39 0 2 0;
#X connect 39 1 10 0;
#X connect 39 2 23 0;
#X connect 39 3 27 0;
#X connect 39 4 31 0;
#X connect 39 5 35 0;
#X connect 39 6 40 0;
#X connect 40 0 36 0;
#X connect 40 1 36 0;
#X connect 40 2 36 0;
#X connect 40 3 36 0;
#X connect 40 4 36 0;
#X connect 40 5 37 0;
#X connect 41 0 43 1;
#X connect 41 0 44 1;
#X connect 43 0 18 0;
#X connect 44 0 11 0;
#X restore 75 176 pd mode;
#X obj 481 -16 inlet;
#X obj 112 302 clip~ -1 1;
#X obj 112 274 *~ 1;
#X obj 603 227 clip 1 1000;
#X obj 649 175 inlet;
#X obj 148 -28 pipe 1;
#X connect 1 0 26 0;
#X connect 2 0 13 0;
#X connect 2 0 29 0;
#X connect 3 0 16 0;
#X connect 4 0 1 0;
#X connect 5 0 21 0;
#X connect 6 0 5 1;
#X connect 7 0 8 0;
#X connect 8 0 6 1;
#X connect 8 0 6 0;
#X connect 9 0 10 0;
#X connect 9 1 7 0;
#X connect 10 0 8 0;
#X connect 12 0 10 0;
#X connect 13 0 14 0;
#X connect 14 0 15 0;
#X connect 15 0 23 0;
#X connect 16 0 17 0;
#X connect 17 0 18 0;
#X connect 18 0 12 0;
#X connect 19 0 20 0;
#X connect 20 0 21 1;
#X connect 21 0 0 0;
#X connect 22 0 23 1;
#X connect 23 0 4 0;
#X connect 24 0 23 2;
#X connect 25 0 5 0;
#X connect 26 0 25 0;
#X connect 27 0 26 1;
#X connect 28 0 27 0;
#X connect 29 0 9 0;
#X restore 476 107 pd sinedec;
#N canvas 77 283 1151 641 seq32 0;
#X obj 32 18 inlet;
#X obj 7 532 outlet;
#X obj 166 551 outlet;
#X obj 153 -106 inlet;
#X obj 226 -29 inlet;
#X obj 36 52 mod 32;
#X obj 52 101 int;
#X obj 17 243 select 0 1 2 3 4 5 6 7 8 9 10 11 12 13 14 15;
#X obj 15 461 unpack f f;
#X msg -149 327 0 0;
#X msg -68 326 0 0;
#X obj -115 165 route 0 1 2 3 4 5 6 7 8 9 10 11 12 13 14 15;
#X obj 115 49 t b b f;
#X obj 185 48 t b b f;
#X msg 106 93 symbol set;
#X obj 74 118 pack f s f f;
#X msg -11 327 0 0;
#X msg 57 332 0 0;
#X msg 102 331 0 0;
#X msg 169 335 0 0;
#X msg 239 332 0 0;
#X msg 288 332 39 36;
#X obj 137 459 unpack f f;
#X msg 348 329 0 0;
#X msg 429 328 0 0;
#X msg 486 329 0 0;
#X msg 554 334 0 0;
#X msg 599 333 0 0;
#X msg 666 337 0 0;
#X msg 736 334 0 0;
#X msg 785 334 0 0;
#X obj 228 166 route 16 17 18 19 20 21 22 23 24 25 26 27 28 29 30 31
;
#X obj 342 242 select 16 17 18 19 20 21 22 23 24 25 26 27 28 29 30
31;
#X obj -29 495 moses 0.1;
#X msg -106 300 0 0;
#X msg -39 294 0 0;
#X msg 29 301 0 0;
#X msg 75 296 0 0;
#X msg 148 297 0 0;
#X msg 208 301 0 0;
#X msg 266 302 0 0;
#X msg 321 295 0 0;
#X msg 391 302 0 0;
#X msg 458 296 0 0;
#X msg 526 303 0 0;
#X msg 573 298 0 0;
#X msg 645 299 0 0;
#X msg 705 303 0 0;
#X msg 763 304 0 0;
#X msg 731 155 set 0 0;
#X msg -177 293 0 0;
#X obj 742 70 inlet;
#X obj 144 516 moses 0.1;
#X obj 114 5 -;
#X msg 115 -17 320;
#X obj 140 -41 t b f;
#X obj 149 -82 pipe 1;
#X obj -46 51 pipe 50;
#X connect 0 0 5 0;
#X connect 3 0 56 0;
#X connect 4 0 52 0;
#X connect 4 0 13 0;
#X connect 5 0 7 0;
#X connect 5 0 32 0;
#X connect 5 0 57 0;
#X connect 6 0 15 0;
#X connect 7 0 50 0;
#X connect 7 1 9 0;
#X connect 7 2 34 0;
#X connect 7 3 10 0;
#X connect 7 4 35 0;
#X connect 7 5 16 0;
#X connect 7 6 36 0;
#X connect 7 7 17 0;
#X connect 7 8 37 0;
#X connect 7 9 18 0;
#X connect 7 10 38 0;
#X connect 7 11 19 0;
#X connect 7 12 39 0;
#X connect 7 13 20 0;
#X connect 7 14 40 0;
#X connect 7 15 21 0;
#X connect 8 0 33 0;
#X connect 8 1 52 0;
#X connect 9 0 8 0;
#X connect 10 0 8 0;
#X connect 11 0 50 0;
#X connect 11 1 9 0;
#X connect 11 2 34 0;
#X connect 11 3 10 0;
#X connect 11 4 35 0;
#X connect 11 5 16 0;
#X connect 11 6 36 0;
#X connect 11 7 17 0;
#X connect 11 8 37 0;
#X connect 11 9 18 0;
#X connect 11 10 38 0;
#X connect 11 11 19 0;
#X connect 11 12 39 0;
#X connect 11 13 20 0;
#X connect 11 14 40 0;
#X connect 11 15 21 0;
#X connect 12 0 6 0;
#X connect 12 1 14 0;
#X connect 12 2 15 2;
#X connect 13 0 6 0;
#X connect 13 1 14 0;
#X connect 13 2 15 3;
#X connect 14 0 15 1;
#X connect 15 0 11 0;
#X connect 15 0 31 0;
#X connect 16 0 8 0;
#X connect 17 0 8 0;
#X connect 18 0 8 0;
#X connect 19 0 8 0;
#X connect 20 0 8 0;
#X connect 21 0 8 0;
#X connect 22 0 33 0;
#X connect 22 1 52 0;
#X connect 23 0 22 0;
#X connect 24 0 22 0;
#X connect 25 0 22 0;
#X connect 26 0 22 0;
#X connect 27 0 22 0;
#X connect 28 0 22 0;
#X connect 29 0 22 0;
#X connect 30 0 22 0;
#X connect 31 0 41 0;
#X connect 31 1 23 0;
#X connect 31 2 42 0;
#X connect 31 3 24 0;
#X connect 31 4 43 0;
#X connect 31 5 25 0;
#X connect 31 6 44 0;
#X connect 31 7 26 0;
#X connect 31 8 45 0;
#X connect 31 9 27 0;
#X connect 31 10 46 0;
#X connect 31 11 28 0;
#X connect 31 12 47 0;
#X connect 31 13 29 0;
#X connect 31 14 48 0;
#X connect 31 15 30 0;
#X connect 32 0 41 0;
#X connect 32 1 23 0;
#X connect 32 2 42 0;
#X connect 32 3 24 0;
#X connect 32 4 43 0;
#X connect 32 5 25 0;
#X connect 32 6 44 0;
#X connect 32 7 26 0;
#X connect 32 8 45 0;
#X connect 32 9 27 0;
#X connect 32 10 46 0;
#X connect 32 11 28 0;
#X connect 32 12 47 0;
#X connect 32 13 29 0;
#X connect 32 14 48 0;
#X connect 32 15 30 0;
#X connect 33 1 1 0;
#X connect 34 0 8 0;
#X connect 35 0 8 0;
#X connect 36 0 8 0;
#X connect 38 0 8 0;
#X connect 39 0 8 0;
#X connect 40 0 8 0;
#X connect 41 0 22 0;
#X connect 42 0 22 0;
#X connect 43 0 22 0;
#X connect 44 0 22 0;
#X connect 46 0 22 0;
#X connect 47 0 22 0;
#X connect 48 0 22 0;
#X connect 49 0 50 0;
#X connect 49 0 34 0;
#X connect 49 0 35 0;
#X connect 49 0 36 0;
#X connect 49 0 37 0;
#X connect 49 0 38 0;
#X connect 49 0 39 0;
#X connect 49 0 40 0;
#X connect 49 0 42 0;
#X connect 49 0 41 0;
#X connect 49 0 43 0;
#X connect 49 0 44 0;
#X connect 49 0 45 0;
#X connect 49 0 46 0;
#X connect 49 0 47 0;
#X connect 49 0 48 0;
#X connect 49 0 9 0;
#X connect 49 0 10 0;
#X connect 49 0 16 0;
#X connect 49 0 17 0;
#X connect 49 0 18 0;
#X connect 49 0 19 0;
#X connect 49 0 20 0;
#X connect 49 0 21 0;
#X connect 49 0 23 0;
#X connect 49 0 24 0;
#X connect 49 0 25 0;
#X connect 49 0 26 0;
#X connect 49 0 27 0;
#X connect 49 0 28 0;
#X connect 49 0 29 0;
#X connect 49 0 30 0;
#X connect 50 0 8 0;
#X connect 51 0 49 0;
#X connect 52 1 2 0;
#X connect 53 0 33 0;
#X connect 53 0 12 0;
#X connect 54 0 53 0;
#X connect 55 0 54 0;
#X connect 55 1 53 1;
#X connect 56 0 55 0;
#X connect 57 0 6 1;
#X restore 456 -85 pd seq32;
#N canvas 0 0 708 640 sinedec 0;
#X obj 69 429 outlet~;
#X obj 99 274 osc~;
#X obj 54 -85 inlet;
#X obj 361 -88 inlet;
#X obj 81 206 mtof;
#X obj 110 357 *~;
#X obj 214 177 *~;
#X msg 283 91 1;
#X obj 236 145 vline~;
#X obj 223 36 t b b;
#X msg 223 91 0 552.5;
#X text 236 67 decay;
#X msg 295 68 set 0 \$1;
#X obj 84 74 / 4;
#X obj 86 102 int;
#X obj 79 132 + 24;
#X obj 366 -62 / 320;
#X obj 370 22 * 800;
#X obj 356 46 + 30;
#X obj 97 242 +~;
#X obj 498 50 inlet~;
#X obj 468 77 *~ 2500;
#X obj 127 135 inlet;
#N canvas 97 146 1090 619 mode 0;
#X obj -19 -8 inlet;
#X text -21 -30 in;
#X obj 8 367 select 1 3 5 7 10;
#X msg -1 414 1;
#X msg 75 418 0;
#X obj -11 529 +;
#X text 37 346 ionisch;
#X msg 159 404 1;
#X msg 231 401 0;
#X text 199 339 aeolisch;
#X obj 168 358 select 1 4 6 9 11;
#X obj 6 590 outlet;
#X obj 28 103 mod 12;
#X obj 81 187 pack f f;
#X obj 217 77 inlet;
#X obj 85 157 int;
#X obj 66 129 t b f;
#X obj 22 76 + 60;
#X obj -10 52 t f f;
#X text 225 53 type;
#X msg 319 404 1;
#X msg 391 404 0;
#X text 333 337 lydisch;
#X obj 327 357 select 1 3 5 8 10;
#X msg 478 403 1;
#X msg 559 403 0;
#X text 494 338 mixolydisch;
#X obj 485 358 select 1 3 6 8 11;
#X msg 639 406 1;
#X msg 711 406 0;
#X text 659 335 dorisch;
#X obj 647 361 select 1 4 6 8 11;
#X msg 781 407 1;
#X msg 853 407 0;
#X text 801 336 lokrisch;
#X obj 790 363 select 2 4 7 9 11;
#X msg 927 405 1;
#X msg 999 405 0;
#X text 947 334 phrygisch;
#X obj 273 242 route 0 1 2 3 4 5 6;
#X obj 936 362 select 2 4 6 9 11;
#X obj 303 -10 inlet;
#X text 354 -9 tp;
#X obj 6 22 +;
#X obj 3 560 -;
#X connect 0 0 43 0;
#X connect 2 0 3 0;
#X connect 2 1 3 0;
#X connect 2 2 3 0;
#X connect 2 3 3 0;
#X connect 2 4 3 0;
#X connect 2 5 4 0;
#X connect 3 0 5 1;
#X connect 4 0 5 1;
#X connect 5 0 44 0;
#X connect 7 0 5 1;
#X connect 8 0 5 1;
#X connect 10 0 7 0;
#X connect 10 1 7 0;
#X connect 10 2 7 0;
#X connect 10 3 7 0;
#X connect 10 4 7 0;
#X connect 10 5 8 0;
#X connect 12 0 16 0;
#X connect 13 0 39 0;
#X connect 14 0 15 1;
#X connect 15 0 13 0;
#X connect 16 0 15 0;
#X connect 16 1 13 1;
#X connect 17 0 12 0;
#X connect 18 0 5 0;
#X connect 18 1 17 0;
#X connect 20 0 5 1;
#X connect 21 0 5 1;
#X connect 23 0 20 0;
#X connect 23 1 20 0;
#X connect 23 2 20 0;
#X connect 23 3 20 0;
#X connect 23 4 20 0;
#X connect 23 5 21 0;
#X connect 24 0 5 1;
#X connect 25 0 5 1;
#X connect 27 0 24 0;
#X connect 27 1 24 0;
#X connect 27 2 24 0;
#X connect 27 3 24 0;
#X connect 27 4 24 0;
#X connect 27 5 25 0;
#X connect 28 0 5 1;
#X connect 29 0 5 1;
#X connect 31 0 28 0;
#X connect 31 1 28 0;
#X connect 31 2 28 0;
#X connect 31 3 28 0;
#X connect 31 4 28 0;
#X connect 31 5 29 0;
#X connect 32 0 5 1;
#X connect 33 0 5 1;
#X connect 35 0 32 0;
#X connect 35 1 32 0;
#X connect 35 2 32 0;
#X connect 35 3 32 0;
#X connect 35 4 32 0;
#X connect 35 5 33 0;
#X connect 36 0 5 1;
#X connect 37 0 5 1;
#X connect 39 0 2 0;
#X connect 39 1 10 0;
#X connect 39 2 23 0;
#X connect 39 3 27 0;
#X connect 39 4 31 0;
#X connect 39 5 35 0;
#X connect 39 6 40 0;
#X connect 40 0 36 0;
#X connect 40 1 36 0;
#X connect 40 2 36 0;
#X connect 40 3 36 0;
#X connect 40 4 36 0;
#X connect 40 5 37 0;
#X connect 41 0 43 1;
#X connect 41 0 44 1;
#X connect 43 0 18 0;
#X connect 44 0 11 0;
#X restore 78 171 pd mode;
#X obj 518 -7 inlet;
#X obj 99 328 clip~ -1 1;
#X obj 99 300 *~ 1;
#X obj 594 155 clip 1 1000;
#X obj 593 123 inlet;
#X obj 148 -28 pipe 1;
#X connect 1 0 26 0;
#X connect 2 0 13 0;
#X connect 2 0 29 0;
#X connect 3 0 16 0;
#X connect 4 0 19 0;
#X connect 5 0 0 0;
#X connect 6 0 5 1;
#X connect 7 0 8 0;
#X connect 8 0 6 1;
#X connect 8 0 6 0;
#X connect 9 0 10 0;
#X connect 9 1 7 0;
#X connect 10 0 8 0;
#X connect 12 0 10 0;
#X connect 13 0 14 0;
#X connect 14 0 15 0;
#X connect 15 0 23 0;
#X connect 16 0 17 0;
#X connect 17 0 18 0;
#X connect 18 0 12 0;
#X connect 19 0 1 0;
#X connect 20 0 21 0;
#X connect 21 0 19 1;
#X connect 22 0 23 1;
#X connect 23 0 4 0;
#X connect 24 0 23 2;
#X connect 25 0 5 0;
#X connect 26 0 25 0;
#X connect 27 0 26 1;
#X connect 28 0 27 0;
#X connect 29 0 9 0;
#X restore 560 107 pd sinedec;
#N canvas 77 283 1151 641 seq32 0;
#X obj 27 -6 inlet;
#X obj 7 532 outlet;
#X obj 166 551 outlet;
#X obj 144 -120 inlet;
#X obj 229 -13 inlet;
#X obj 21 31 mod 32;
#X obj 51 94 int;
#X obj 17 243 select 0 1 2 3 4 5 6 7 8 9 10 11 12 13 14 15;
#X obj 15 461 unpack f f;
#X msg -149 327 0 0;
#X msg -68 326 0 0;
#X obj -115 165 route 0 1 2 3 4 5 6 7 8 9 10 11 12 13 14 15;
#X obj 120 46 t b b f;
#X obj 185 48 t b b f;
#X msg 106 93 symbol set;
#X obj 74 118 pack f s f f;
#X msg -11 327 0 0;
#X msg 57 332 0 0;
#X msg 102 331 0 0;
#X msg 169 335 0 0;
#X msg 239 332 0 0;
#X msg 288 332 0 0;
#X obj 137 459 unpack f f;
#X msg 348 329 0 0;
#X msg 429 328 0 0;
#X msg 486 329 0 0;
#X msg 554 334 0 0;
#X msg 599 333 0 0;
#X msg 666 337 0 0;
#X msg 736 334 0 0;
#X msg 785 334 0 0;
#X obj 228 166 route 16 17 18 19 20 21 22 23 24 25 26 27 28 29 30 31
;
#X obj 342 242 select 16 17 18 19 20 21 22 23 24 25 26 27 28 29 30
31;
#X obj -29 495 moses 0.1;
#X msg -106 300 0 0;
#X msg -39 294 0 0;
#X msg 29 301 0 0;
#X msg 75 296 0 0;
#X msg 148 297 0 0;
#X msg 208 301 0 0;
#X msg 266 302 0 0;
#X msg 321 295 0 0;
#X msg 391 302 0 0;
#X msg 458 296 0 0;
#X msg 526 303 0 0;
#X msg 573 298 0 0;
#X msg 645 299 0 0;
#X msg 705 303 0 0;
#X msg 763 304 0 0;
#X msg 731 155 set 0 0;
#X msg -177 293 0 0;
#X obj 742 70 inlet;
#X obj 144 516 moses 0.1;
#X obj 111 8 -;
#X msg 107 -21 320;
#X obj 132 -45 t b f;
#X obj -82 469 pipe 1;
#X obj 144 -69 pipe 1;
#X obj -9 63 pipe 50;
#X connect 0 0 5 0;
#X connect 3 0 57 0;
#X connect 4 0 52 0;
#X connect 4 0 13 0;
#X connect 5 0 7 0;
#X connect 5 0 32 0;
#X connect 5 0 58 0;
#X connect 6 0 15 0;
#X connect 7 0 50 0;
#X connect 7 1 9 0;
#X connect 7 2 34 0;
#X connect 7 3 10 0;
#X connect 7 4 35 0;
#X connect 7 5 16 0;
#X connect 7 6 36 0;
#X connect 7 7 17 0;
#X connect 7 8 37 0;
#X connect 7 9 18 0;
#X connect 7 10 38 0;
#X connect 7 11 19 0;
#X connect 7 12 39 0;
#X connect 7 13 20 0;
#X connect 7 14 40 0;
#X connect 7 15 21 0;
#X connect 8 0 33 0;
#X connect 8 1 52 0;
#X connect 9 0 8 0;
#X connect 10 0 8 0;
#X connect 11 0 50 0;
#X connect 11 1 9 0;
#X connect 11 2 34 0;
#X connect 11 3 10 0;
#X connect 11 4 35 0;
#X connect 11 5 16 0;
#X connect 11 6 36 0;
#X connect 11 7 17 0;
#X connect 11 8 37 0;
#X connect 11 9 18 0;
#X connect 11 10 38 0;
#X connect 11 11 19 0;
#X connect 11 12 39 0;
#X connect 11 13 20 0;
#X connect 11 14 40 0;
#X connect 11 15 21 0;
#X connect 12 0 6 0;
#X connect 12 1 14 0;
#X connect 12 2 15 2;
#X connect 13 0 6 0;
#X connect 13 1 14 0;
#X connect 13 2 15 3;
#X connect 14 0 15 1;
#X connect 15 0 11 0;
#X connect 15 0 31 0;
#X connect 16 0 8 0;
#X connect 17 0 8 0;
#X connect 18 0 8 0;
#X connect 19 0 8 0;
#X connect 20 0 8 0;
#X connect 21 0 8 0;
#X connect 22 0 33 0;
#X connect 22 1 52 0;
#X connect 23 0 22 0;
#X connect 24 0 22 0;
#X connect 25 0 22 0;
#X connect 26 0 22 0;
#X connect 27 0 22 0;
#X connect 28 0 22 0;
#X connect 29 0 22 0;
#X connect 30 0 22 0;
#X connect 31 0 41 0;
#X connect 31 1 23 0;
#X connect 31 2 42 0;
#X connect 31 3 24 0;
#X connect 31 4 43 0;
#X connect 31 5 25 0;
#X connect 31 6 44 0;
#X connect 31 7 26 0;
#X connect 31 8 45 0;
#X connect 31 9 27 0;
#X connect 31 10 46 0;
#X connect 31 11 28 0;
#X connect 31 12 47 0;
#X connect 31 13 29 0;
#X connect 31 14 48 0;
#X connect 31 15 30 0;
#X connect 32 0 41 0;
#X connect 32 1 23 0;
#X connect 32 2 42 0;
#X connect 32 3 24 0;
#X connect 32 4 43 0;
#X connect 32 5 25 0;
#X connect 32 6 44 0;
#X connect 32 7 26 0;
#X connect 32 8 45 0;
#X connect 32 9 27 0;
#X connect 32 10 46 0;
#X connect 32 11 28 0;
#X connect 32 12 47 0;
#X connect 32 13 29 0;
#X connect 32 14 48 0;
#X connect 32 15 30 0;
#X connect 33 1 1 0;
#X connect 34 0 8 0;
#X connect 35 0 8 0;
#X connect 36 0 8 0;
#X connect 38 0 8 0;
#X connect 39 0 8 0;
#X connect 40 0 8 0;
#X connect 41 0 22 0;
#X connect 42 0 22 0;
#X connect 43 0 22 0;
#X connect 44 0 22 0;
#X connect 46 0 22 0;
#X connect 47 0 22 0;
#X connect 48 0 22 0;
#X connect 49 0 50 0;
#X connect 49 0 34 0;
#X connect 49 0 35 0;
#X connect 49 0 36 0;
#X connect 49 0 37 0;
#X connect 49 0 38 0;
#X connect 49 0 39 0;
#X connect 49 0 40 0;
#X connect 49 0 42 0;
#X connect 49 0 41 0;
#X connect 49 0 43 0;
#X connect 49 0 44 0;
#X connect 49 0 45 0;
#X connect 49 0 46 0;
#X connect 49 0 47 0;
#X connect 49 0 48 0;
#X connect 49 0 9 0;
#X connect 49 0 10 0;
#X connect 49 0 16 0;
#X connect 49 0 17 0;
#X connect 49 0 18 0;
#X connect 49 0 19 0;
#X connect 49 0 20 0;
#X connect 49 0 21 0;
#X connect 49 0 23 0;
#X connect 49 0 24 0;
#X connect 49 0 25 0;
#X connect 49 0 26 0;
#X connect 49 0 27 0;
#X connect 49 0 28 0;
#X connect 49 0 29 0;
#X connect 49 0 30 0;
#X connect 50 0 8 0;
#X connect 51 0 49 0;
#X connect 52 1 2 0;
#X connect 53 0 56 0;
#X connect 53 0 12 0;
#X connect 54 0 53 0;
#X connect 55 0 54 0;
#X connect 55 1 53 1;
#X connect 56 0 33 0;
#X connect 57 0 55 0;
#X connect 58 0 6 1;
#X restore 543 -12 pd seq32;
#X obj 531 -307 pack f f f;
#X obj 495 -336 t b f;
#X obj 486 -310 int;
#X obj 428 -287 route 0 1 2;
#X obj 322 -124 unpack f f;
#X obj 450 -198 unpack f f;
#X obj 539 -102 unpack f f;
#X obj 436 -337 + 1;
#X obj 387 -343 float;
#X obj 430 -315 mod 3;
#N canvas 0 221 1193 615 seq16 0;
#X obj 5 -45 inlet;
#X obj 289 412 outlet;
#X obj -75 199 select 0 1 2 3 4 5 6 7 8 9 10 11 12 13 14 15;
#X floatatom 278 167 3 0 128 0 - - -;
#X obj -49 120 mod 16;
#X floatatom 303 167 3 0 128 0 - - -;
#X floatatom 328 167 3 0 128 0 - - -;
#X floatatom 353 167 3 0 128 0 - - -;
#X floatatom 381 167 3 0 128 0 - - -;
#X floatatom 406 167 3 0 128 0 - - -;
#X floatatom 431 167 3 0 128 0 - - -;
#X floatatom 456 167 3 0 128 0 - - -;
#X floatatom 484 167 3 0 128 0 - - -;
#X floatatom 509 167 3 0 128 0 - - -;
#X floatatom 534 167 3 0 128 0 - - -;
#X floatatom 559 167 3 0 128 0 - - -;
#X floatatom 587 167 3 0 128 0 - - -;
#X floatatom 612 167 3 0 128 0 - - -;
#X floatatom 637 167 3 0 128 0 - - -;
#X floatatom 662 167 3 0 128 0 - - -;
#X obj 290 372 / 128;
#X obj -96 271 int;
#X obj -67 270 int;
#X obj -6 269 int;
#X obj -36 268 int;
#X obj 26 271 int;
#X obj 55 270 int;
#X obj 116 269 int;
#X obj 86 268 int;
#X obj 151 268 int;
#X obj 180 267 int;
#X obj 241 266 int;
#X obj 211 265 int;
#X obj 273 268 int;
#X obj 302 267 int;
#X obj 363 266 int;
#X obj 333 265 int;
#X obj 270 64 random 16;
#X obj 351 -43 t b b;
#X obj 335 88 pack f f;
#X obj 337 111 route 0 1 2 3 4 5 6 7 8 9 10 11 12 13 14 15;
#X obj 380 -73 inlet;
#X text 424 -72 random-step set;
#X obj 576 -75 inlet;
#X msg 638 -49 0;
#X text 619 -83 clear;
#X obj 414 52 random 100;
#X obj 422 75 + 28;
#X obj 715 9 random 16;
#X obj 730 -100 t b b;
#X obj 730 80 pack f f;
#X obj 772 -128 inlet;
#X text 816 -130 random-step/pause set;
#X obj 809 -10 random 128;
#X obj 808 14 - 64;
#X obj 810 35 clip 0 64;
#X obj 810 59 * 2;
#X obj -3 4 div 2;
#X obj 443 264 outlet;
#X connect 0 0 57 0;
#X connect 2 0 21 0;
#X connect 2 1 22 0;
#X connect 2 2 24 0;
#X connect 2 3 23 0;
#X connect 2 4 25 0;
#X connect 2 5 26 0;
#X connect 2 6 28 0;
#X connect 2 7 27 0;
#X connect 2 8 29 0;
#X connect 2 9 30 0;
#X connect 2 10 32 0;
#X connect 2 11 31 0;
#X connect 2 12 33 0;
#X connect 2 13 34 0;
#X connect 2 14 36 0;
#X connect 2 15 35 0;
#X connect 2 15 58 0;
#X connect 3 0 21 1;
#X connect 4 0 2 0;
#X connect 5 0 22 1;
#X connect 6 0 24 1;
#X connect 7 0 23 1;
#X connect 8 0 25 1;
#X connect 9 0 26 1;
#X connect 10 0 28 1;
#X connect 11 0 27 1;
#X connect 12 0 29 1;
#X connect 13 0 30 1;
#X connect 14 0 32 1;
#X connect 15 0 31 1;
#X connect 16 0 33 1;
#X connect 17 0 34 1;
#X connect 18 0 36 1;
#X connect 19 0 35 1;
#X connect 20 0 1 0;
#X connect 21 0 20 0;
#X connect 22 0 20 0;
#X connect 23 0 20 0;
#X connect 24 0 20 0;
#X connect 25 0 20 0;
#X connect 26 0 20 0;
#X connect 27 0 20 0;
#X connect 28 0 20 0;
#X connect 29 0 20 0;
#X connect 30 0 20 0;
#X connect 31 0 20 0;
#X connect 32 0 20 0;
#X connect 33 0 20 0;
#X connect 34 0 20 0;
#X connect 35 0 20 0;
#X connect 36 0 20 0;
#X connect 37 0 39 0;
#X connect 38 0 37 0;
#X connect 38 1 46 0;
#X connect 39 0 40 0;
#X connect 40 0 3 0;
#X connect 40 1 5 0;
#X connect 40 2 6 0;
#X connect 40 3 7 0;
#X connect 40 4 8 0;
#X connect 40 5 9 0;
#X connect 40 6 10 0;
#X connect 40 7 11 0;
#X connect 40 8 12 0;
#X connect 40 9 13 0;
#X connect 40 10 14 0;
#X connect 40 11 15 0;
#X connect 40 12 16 0;
#X connect 40 13 17 0;
#X connect 40 14 18 0;
#X connect 40 15 19 0;
#X connect 41 0 38 0;
#X connect 43 0 44 0;
#X connect 44 0 3 0;
#X connect 44 0 5 0;
#X connect 44 0 6 0;
#X connect 44 0 7 0;
#X connect 44 0 8 0;
#X connect 44 0 9 0;
#X connect 44 0 10 0;
#X connect 44 0 11 0;
#X connect 44 0 12 0;
#X connect 44 0 13 0;
#X connect 44 0 14 0;
#X connect 44 0 15 0;
#X connect 44 0 16 0;
#X connect 44 0 17 0;
#X connect 44 0 18 0;
#X connect 44 0 19 0;
#X connect 46 0 47 0;
#X connect 47 0 39 1;
#X connect 48 0 50 0;
#X connect 49 0 48 0;
#X connect 49 1 53 0;
#X connect 50 0 40 0;
#X connect 51 0 49 0;
#X connect 53 0 54 0;
#X connect 54 0 55 0;
#X connect 55 0 56 0;
#X connect 56 0 50 1;
#X connect 57 0 4 0;
#X coords 0 0 1 1 410 40 0;
#X restore -62 10 pd seq16;
#N canvas 0 221 1193 615 seq16 0;
#X obj 5 -45 inlet;
#X obj 289 412 outlet;
#X obj -75 199 select 0 1 2 3 4 5 6 7 8 9 10 11 12 13 14 15;
#X floatatom 278 167 3 0 128 0 - - -;
#X obj -49 120 mod 16;
#X floatatom 303 167 3 0 128 0 - - -;
#X floatatom 328 167 3 0 128 0 - - -;
#X floatatom 353 167 3 0 128 0 - - -;
#X floatatom 381 167 3 0 128 0 - - -;
#X floatatom 406 167 3 0 128 0 - - -;
#X floatatom 431 167 3 0 128 0 - - -;
#X floatatom 456 167 3 0 128 0 - - -;
#X floatatom 484 167 3 0 128 0 - - -;
#X floatatom 509 167 3 0 128 0 - - -;
#X floatatom 534 167 3 0 128 0 - - -;
#X floatatom 559 167 3 0 128 0 - - -;
#X floatatom 587 167 3 0 128 0 - - -;
#X floatatom 612 167 3 0 128 0 - - -;
#X floatatom 637 167 3 0 128 0 - - -;
#X floatatom 662 167 3 0 128 0 - - -;
#X obj 290 372 / 128;
#X obj -96 271 int;
#X obj -67 270 int;
#X obj -6 269 int;
#X obj -36 268 int;
#X obj 26 271 int;
#X obj 55 270 int;
#X obj 116 269 int;
#X obj 86 268 int;
#X obj 151 268 int;
#X obj 180 267 int;
#X obj 241 266 int;
#X obj 211 265 int;
#X obj 273 268 int;
#X obj 302 267 int;
#X obj 363 266 int;
#X obj 333 265 int;
#X obj 270 64 random 16;
#X obj 351 -43 t b b;
#X obj 335 88 pack f f;
#X obj 337 111 route 0 1 2 3 4 5 6 7 8 9 10 11 12 13 14 15;
#X obj 380 -73 inlet;
#X text 424 -72 random-step set;
#X obj 576 -75 inlet;
#X msg 638 -49 0;
#X text 619 -83 clear;
#X obj 414 52 random 100;
#X obj 422 75 + 28;
#X obj 715 9 random 16;
#X obj 730 -100 t b b;
#X obj 730 80 pack f f;
#X obj 772 -128 inlet;
#X text 816 -130 random-step/pause set;
#X obj 809 -10 random 128;
#X obj 808 14 - 64;
#X obj 810 35 clip 0 64;
#X obj 810 59 * 2;
#X obj -3 4 div 2;
#X obj 443 264 outlet;
#X connect 0 0 57 0;
#X connect 2 0 21 0;
#X connect 2 1 22 0;
#X connect 2 2 24 0;
#X connect 2 3 23 0;
#X connect 2 4 25 0;
#X connect 2 5 26 0;
#X connect 2 6 28 0;
#X connect 2 7 27 0;
#X connect 2 8 29 0;
#X connect 2 9 30 0;
#X connect 2 10 32 0;
#X connect 2 11 31 0;
#X connect 2 12 33 0;
#X connect 2 13 34 0;
#X connect 2 14 36 0;
#X connect 2 15 35 0;
#X connect 2 15 58 0;
#X connect 3 0 21 1;
#X connect 4 0 2 0;
#X connect 5 0 22 1;
#X connect 6 0 24 1;
#X connect 7 0 23 1;
#X connect 8 0 25 1;
#X connect 9 0 26 1;
#X connect 10 0 28 1;
#X connect 11 0 27 1;
#X connect 12 0 29 1;
#X connect 13 0 30 1;
#X connect 14 0 32 1;
#X connect 15 0 31 1;
#X connect 16 0 33 1;
#X connect 17 0 34 1;
#X connect 18 0 36 1;
#X connect 19 0 35 1;
#X connect 20 0 1 0;
#X connect 21 0 20 0;
#X connect 22 0 20 0;
#X connect 23 0 20 0;
#X connect 24 0 20 0;
#X connect 25 0 20 0;
#X connect 26 0 20 0;
#X connect 27 0 20 0;
#X connect 28 0 20 0;
#X connect 29 0 20 0;
#X connect 30 0 20 0;
#X connect 31 0 20 0;
#X connect 32 0 20 0;
#X connect 33 0 20 0;
#X connect 34 0 20 0;
#X connect 35 0 20 0;
#X connect 36 0 20 0;
#X connect 37 0 39 0;
#X connect 38 0 37 0;
#X connect 38 1 46 0;
#X connect 39 0 40 0;
#X connect 40 0 3 0;
#X connect 40 1 5 0;
#X connect 40 2 6 0;
#X connect 40 3 7 0;
#X connect 40 4 8 0;
#X connect 40 5 9 0;
#X connect 40 6 10 0;
#X connect 40 7 11 0;
#X connect 40 8 12 0;
#X connect 40 9 13 0;
#X connect 40 10 14 0;
#X connect 40 11 15 0;
#X connect 40 12 16 0;
#X connect 40 13 17 0;
#X connect 40 14 18 0;
#X connect 40 15 19 0;
#X connect 41 0 38 0;
#X connect 43 0 44 0;
#X connect 44 0 3 0;
#X connect 44 0 5 0;
#X connect 44 0 6 0;
#X connect 44 0 7 0;
#X connect 44 0 8 0;
#X connect 44 0 9 0;
#X connect 44 0 10 0;
#X connect 44 0 11 0;
#X connect 44 0 12 0;
#X connect 44 0 13 0;
#X connect 44 0 14 0;
#X connect 44 0 15 0;
#X connect 44 0 16 0;
#X connect 44 0 17 0;
#X connect 44 0 18 0;
#X connect 44 0 19 0;
#X connect 46 0 47 0;
#X connect 47 0 39 1;
#X connect 48 0 50 0;
#X connect 49 0 48 0;
#X connect 49 1 53 0;
#X connect 50 0 40 0;
#X connect 51 0 49 0;
#X connect 53 0 54 0;
#X connect 54 0 55 0;
#X connect 55 0 56 0;
#X connect 56 0 50 1;
#X connect 57 0 4 0;
#X coords 0 0 1 1 410 40 0;
#X restore 103 6 pd seq16;
#X obj 243 -49 moses 0.01;
#N canvas 0 221 1193 615 seq16 0;
#X obj 5 -45 inlet;
#X obj 289 412 outlet;
#X obj -75 199 select 0 1 2 3 4 5 6 7 8 9 10 11 12 13 14 15;
#X floatatom 278 167 3 0 128 0 - - -;
#X obj -49 120 mod 16;
#X floatatom 303 167 3 0 128 0 - - -;
#X floatatom 328 167 3 0 128 0 - - -;
#X floatatom 353 167 3 0 128 0 - - -;
#X floatatom 381 167 3 0 128 0 - - -;
#X floatatom 406 167 3 0 128 0 - - -;
#X floatatom 431 167 3 0 128 0 - - -;
#X floatatom 456 167 3 0 128 0 - - -;
#X floatatom 484 167 3 0 128 0 - - -;
#X floatatom 509 167 3 0 128 0 - - -;
#X floatatom 534 167 3 0 128 0 - - -;
#X floatatom 559 167 3 0 128 0 - - -;
#X floatatom 587 167 3 0 128 0 - - -;
#X floatatom 612 167 3 0 128 0 - - -;
#X floatatom 637 167 3 0 128 0 - - -;
#X floatatom 662 167 3 0 128 0 - - -;
#X obj 290 372 / 128;
#X obj -96 271 int;
#X obj -67 270 int;
#X obj -6 269 int;
#X obj -36 268 int;
#X obj 26 271 int;
#X obj 55 270 int;
#X obj 116 269 int;
#X obj 86 268 int;
#X obj 151 268 int;
#X obj 180 267 int;
#X obj 241 266 int;
#X obj 211 265 int;
#X obj 273 268 int;
#X obj 302 267 int;
#X obj 363 266 int;
#X obj 333 265 int;
#X obj 337 111 route 0 1 2 3 4 5 6 7 8 9 10 11 12 13 14 15;
#X obj 576 -75 inlet;
#X msg 638 -49 0;
#X text 619 -83 clear;
#X obj 715 9 random 16;
#X obj 730 -100 t b b;
#X obj 730 80 pack f f;
#X obj 772 -128 inlet;
#X text 816 -130 random-step/pause set;
#X obj 809 -10 random 128;
#X obj 808 14 - 64;
#X obj 810 35 clip 0 64;
#X obj 810 59 * 2;
#X obj 443 264 outlet;
#X obj 510 -49 t b b;
#X msg 302 17 111;
#X msg 339 17 90;
#X msg 380 17 95;
#X msg 423 17 89;
#X msg 508 -110 bang;
#X connect 0 0 4 0;
#X connect 2 0 21 0;
#X connect 2 1 22 0;
#X connect 2 2 24 0;
#X connect 2 3 23 0;
#X connect 2 4 25 0;
#X connect 2 5 26 0;
#X connect 2 6 28 0;
#X connect 2 7 27 0;
#X connect 2 8 29 0;
#X connect 2 9 30 0;
#X connect 2 10 32 0;
#X connect 2 11 31 0;
#X connect 2 12 33 0;
#X connect 2 13 34 0;
#X connect 2 14 36 0;
#X connect 2 15 35 0;
#X connect 2 15 50 0;
#X connect 3 0 21 1;
#X connect 4 0 2 0;
#X connect 5 0 22 1;
#X connect 6 0 24 1;
#X connect 7 0 23 1;
#X connect 8 0 25 1;
#X connect 9 0 26 1;
#X connect 10 0 28 1;
#X connect 11 0 27 1;
#X connect 12 0 29 1;
#X connect 13 0 30 1;
#X connect 14 0 32 1;
#X connect 15 0 31 1;
#X connect 16 0 33 1;
#X connect 17 0 34 1;
#X connect 18 0 36 1;
#X connect 19 0 35 1;
#X connect 20 0 1 0;
#X connect 21 0 20 0;
#X connect 22 0 20 0;
#X connect 23 0 20 0;
#X connect 24 0 20 0;
#X connect 25 0 20 0;
#X connect 26 0 20 0;
#X connect 27 0 20 0;
#X connect 28 0 20 0;
#X connect 29 0 20 0;
#X connect 30 0 20 0;
#X connect 31 0 20 0;
#X connect 32 0 20 0;
#X connect 33 0 20 0;
#X connect 34 0 20 0;
#X connect 35 0 20 0;
#X connect 36 0 20 0;
#X connect 37 0 3 0;
#X connect 37 1 5 0;
#X connect 37 2 6 0;
#X connect 37 3 7 0;
#X connect 37 4 8 0;
#X connect 37 5 9 0;
#X connect 37 6 10 0;
#X connect 37 7 11 0;
#X connect 37 8 12 0;
#X connect 37 9 13 0;
#X connect 37 10 14 0;
#X connect 37 11 15 0;
#X connect 37 12 16 0;
#X connect 37 13 17 0;
#X connect 37 14 18 0;
#X connect 37 15 19 0;
#X connect 38 0 51 0;
#X connect 39 0 3 0;
#X connect 39 0 5 0;
#X connect 39 0 6 0;
#X connect 39 0 7 0;
#X connect 39 0 8 0;
#X connect 39 0 9 0;
#X connect 39 0 10 0;
#X connect 39 0 11 0;
#X connect 39 0 12 0;
#X connect 39 0 13 0;
#X connect 39 0 14 0;
#X connect 39 0 15 0;
#X connect 39 0 16 0;
#X connect 39 0 17 0;
#X connect 39 0 18 0;
#X connect 39 0 19 0;
#X connect 41 0 43 0;
#X connect 42 0 41 0;
#X connect 42 1 46 0;
#X connect 43 0 37 0;
#X connect 44 0 42 0;
#X connect 46 0 47 0;
#X connect 47 0 48 0;
#X connect 48 0 49 0;
#X connect 49 0 43 1;
#X connect 51 0 55 0;
#X connect 51 0 54 0;
#X connect 51 0 53 0;
#X connect 51 0 52 0;
#X connect 51 1 39 0;
#X connect 52 0 3 0;
#X connect 53 0 8 0;
#X connect 54 0 12 0;
#X connect 55 0 16 0;
#X connect 56 0 51 0;
#X coords 0 0 1 1 410 40 0;
#X restore 244 -77 pd seq16;
#X obj 662 -466 random 320;
#X obj 640 -498 random 320;
#X msg 646 -520 bang;
#N canvas 20 274 455 441 clix 0;
#X obj 63 -20 inlet;
#X obj 113 284 outlet~;
#X obj 85 193 osc~;
#X obj 61 160 mtof;
#X obj 126 248 *~;
#X obj 217 172 *~;
#X obj 236 145 vline~;
#X msg 192 94 0 22;
#X msg 295 68 set 0 \$1;
#X obj 51 105 random 40;
#X obj 51 127 + 10;
#X obj 295 24 random 40;
#X obj 295 46 + 10;
#X obj 185 220 *~;
#X obj 293 -9 inlet;
#X obj 223 36 t b b b;
#X msg 277 94 0.6;
#X connect 0 0 13 1;
#X connect 0 0 15 0;
#X connect 2 0 4 0;
#X connect 3 0 2 0;
#X connect 4 0 1 0;
#X connect 5 0 13 0;
#X connect 6 0 5 1;
#X connect 6 0 5 0;
#X connect 7 0 6 0;
#X connect 8 0 7 0;
#X connect 9 0 10 0;
#X connect 10 0 3 0;
#X connect 11 0 12 0;
#X connect 12 0 8 0;
#X connect 13 0 4 1;
#X connect 14 0 11 0;
#X connect 15 0 7 0;
#X connect 15 1 16 0;
#X connect 15 2 11 0;
#X connect 15 2 9 0;
#X connect 16 0 6 0;
#X restore 250 -13 pd clix;
#X obj 466 146 hip~ 10;
#N canvas 0 81 979 632 dualdelay1m 0;
#X obj -84 383 inlet~;
#X obj 331 212 inlet;
#X obj 382 316 pow -1;
#X obj 382 339 / 4;
#X obj 395 362 *;
#X obj 396 387 * 60000;
#X obj 232 440 +~;
#X obj 257 367 *~;
#X text 369 215 <- bpm in;
#X obj 530 998 outlet~;
#X obj 364 667 *;
#X obj 366 697 * 60000;
#X obj 173 641 +~;
#X obj 209 616 *~;
#X obj 41 90 vsl 8 100 20 120 0 1 empty empty cut 0 110 1 8 -233017
-1 -1 3400 1;
#X obj 68 324 mtof;
#X obj 597 863 +~;
#X obj 510 516 *~;
#X obj 525 546 +~;
#X obj 559 520 *~;
#X obj 378 779 *~;
#X obj 393 809 +~;
#X obj 415 786 *~;
#X obj 40 296 +;
#X obj 159 268 +;
#X obj 531 964 +~;
#X obj 553 934 *~;
#X obj 483 932 *~;
#X obj 513 37 inlet;
#X text 559 38 <- sync-in;
#X text 403 151 1 beatsynced delay for high - and one for low frequencies
;
#X obj 243 479 delwrite~ \$0ddl-hl 2000;
#X obj 148 699 delwrite~ \$0ddl-ll 2000;
#X text -82 696 unique delaybuffer name2! ->;
#X text 513 734 <-unique delaybuffer name2!;
#X obj 158 583 vcf~;
#X obj 2 383 hip~;
#X obj 106 538 lop~;
#X obj 26 415 vcf~;
#X obj 120 498 mtof;
#X obj 104 470 + 24;
#X obj 428 423 delread~ \$0ddl-hl;
#X obj 386 732 delread~ \$0ddl-ll;
#X obj 658 195 t b b;
#X obj 675 30 inlet;
#X obj 461 240 random 8;
#X obj 460 264 + 1;
#X obj 566 256 random 8;
#X obj 565 280 + 1;
#X obj 664 55 t b b;
#X obj 378 272 int;
#X floatatom 472 388 5 0 0 0 - - -;
#X floatatom 571 312 5 0 0 0 - - -;
#X msg 201 233 6;
#N canvas 187 182 588 521 rndline1 0;
#X obj 166 290 pack;
#X obj 130 135 random 1000;
#X obj 130 156 / 1000;
#X obj 135 361 ==;
#X obj 159 324 line;
#X obj 241 187 exp;
#X obj 236 159 / 100;
#X obj 93 16 inlet;
#X text 139 18 start;
#X obj 251 413 outlet;
#X obj 90 396 moses 0.1;
#X obj 98 43 t b b;
#X obj 34 454 delay 1000;
#X obj 244 210 int;
#X obj 234 134 random 950;
#X obj 196 264 + 300;
#X obj 313 334 +;
#X obj 333 238 random 950;
#X connect 0 0 4 0;
#X connect 1 0 2 0;
#X connect 2 0 0 0;
#X connect 2 0 3 1;
#X connect 3 0 10 0;
#X connect 4 0 9 0;
#X connect 4 0 3 0;
#X connect 5 0 13 0;
#X connect 6 0 5 0;
#X connect 7 0 11 0;
#X connect 10 1 12 0;
#X connect 11 0 1 0;
#X connect 11 0 14 0;
#X connect 11 1 17 0;
#X connect 12 0 11 0;
#X connect 13 0 15 0;
#X connect 13 0 16 0;
#X connect 13 0 17 1;
#X connect 14 0 6 0;
#X connect 15 0 0 1;
#X connect 16 0 12 1;
#X connect 17 0 16 1;
#X restore 80 152 pd rndline1;
#N canvas 187 182 588 521 rndline2 0;
#X obj 166 290 pack;
#X obj 130 135 random 1000;
#X obj 130 156 / 1000;
#X obj 135 361 ==;
#X obj 159 324 line;
#X obj 241 187 exp;
#X obj 236 159 / 100;
#X obj 93 16 inlet;
#X text 139 18 start;
#X obj 251 413 outlet;
#X obj 90 396 moses 0.1;
#X obj 98 43 t b b;
#X obj 34 454 delay 1000;
#X obj 244 210 int;
#X obj 234 134 random 950;
#X obj 196 264 + 300;
#X obj 313 334 +;
#X obj 333 238 random 950;
#X connect 0 0 4 0;
#X connect 1 0 2 0;
#X connect 2 0 0 0;
#X connect 2 0 3 1;
#X connect 3 0 10 0;
#X connect 4 0 9 0;
#X connect 4 0 3 0;
#X connect 5 0 13 0;
#X connect 6 0 5 0;
#X connect 7 0 11 0;
#X connect 10 1 12 0;
#X connect 11 0 1 0;
#X connect 11 0 14 0;
#X connect 11 1 17 0;
#X connect 12 0 11 0;
#X connect 13 0 15 0;
#X connect 13 0 16 0;
#X connect 13 0 17 1;
#X connect 14 0 6 0;
#X connect 15 0 0 1;
#X connect 16 0 12 1;
#X connect 17 0 16 1;
#X restore -71 235 pd rndline2;
#X obj -62 266 * 40;
#X msg 425 898 0.15;
#X msg 543 898 0.85;
#X obj 118 204 * 4;
#X msg 777 267 0.7;
#X msg 815 268 0.3;
#X msg 735 295 0.6;
#X obj 487 326 ==;
#X obj 526 205 t b b;
#X obj 465 349 +;
#X msg 737 62 bang;
#X obj 455 297 t f f;
#X connect 0 0 27 1;
#X connect 0 0 36 0;
#X connect 0 0 37 0;
#X connect 1 0 50 0;
#X connect 2 0 3 0;
#X connect 3 0 4 0;
#X connect 3 0 10 0;
#X connect 4 0 5 0;
#X connect 5 0 41 0;
#X connect 6 0 17 1;
#X connect 6 0 31 0;
#X connect 7 0 6 1;
#X connect 10 0 11 0;
#X connect 11 0 42 0;
#X connect 12 0 20 1;
#X connect 12 0 32 0;
#X connect 13 0 12 1;
#X connect 14 0 23 1;
#X connect 15 0 38 1;
#X connect 15 0 35 1;
#X connect 15 0 36 1;
#X connect 16 0 26 1;
#X connect 17 0 18 0;
#X connect 18 0 16 1;
#X connect 19 0 18 1;
#X connect 20 0 21 0;
#X connect 21 0 16 0;
#X connect 22 0 21 1;
#X connect 23 0 15 0;
#X connect 23 0 40 0;
#X connect 24 0 35 2;
#X connect 24 0 38 2;
#X connect 25 0 9 0;
#X connect 26 0 25 1;
#X connect 27 0 25 0;
#X connect 28 0 43 0;
#X connect 35 0 12 0;
#X connect 36 0 38 0;
#X connect 37 0 35 0;
#X connect 38 0 6 0;
#X connect 39 0 37 1;
#X connect 40 0 39 0;
#X connect 41 0 7 0;
#X connect 41 0 19 0;
#X connect 42 0 13 0;
#X connect 42 0 22 0;
#X connect 43 0 14 0;
#X connect 43 1 57 0;
#X connect 43 1 58 0;
#X connect 43 1 60 0;
#X connect 43 1 61 0;
#X connect 43 1 62 0;
#X connect 44 0 49 0;
#X connect 45 0 46 0;
#X connect 46 0 67 0;
#X connect 47 0 48 0;
#X connect 48 0 10 1;
#X connect 48 0 52 0;
#X connect 48 0 63 1;
#X connect 49 0 50 0;
#X connect 49 0 54 0;
#X connect 49 0 55 0;
#X connect 49 1 53 0;
#X connect 49 1 54 0;
#X connect 49 1 55 0;
#X connect 49 1 64 0;
#X connect 50 0 2 0;
#X connect 53 0 24 1;
#X connect 54 0 59 0;
#X connect 55 0 56 0;
#X connect 56 0 23 0;
#X connect 57 0 27 0;
#X connect 58 0 26 0;
#X connect 59 0 24 0;
#X connect 60 0 19 1;
#X connect 60 0 22 1;
#X connect 61 0 17 0;
#X connect 61 0 20 0;
#X connect 62 0 7 1;
#X connect 62 0 13 1;
#X connect 63 0 65 1;
#X connect 64 0 45 0;
#X connect 64 1 47 0;
#X connect 65 0 4 1;
#X connect 65 0 51 0;
#X connect 66 0 49 0;
#X connect 67 0 65 0;
#X connect 67 1 63 0;
#X coords 0 0 1 1 250 135 0;
#X restore 272 442 pd dualdelay1m;
#N canvas 42 124 610 640 mym2schorus 0;
#X obj 23 59 inlet~;
#X obj 466 487 outlet~;
#X obj 295 500 outlet~;
#X obj 197 264 cos~;
#X obj 197 291 +~ 1;
#X obj 290 225 +~ 0.25;
#X obj 304 254 cos~;
#X obj 309 284 +~ 1;
#X obj 369 69 phasor~;
#X obj 354 -14 loadbang;
#X msg 355 20 0.8;
#X obj 145 407 vd~ \$0mychr1;
#X obj 298 371 vd~ \$0mychr1;
#X obj 311 318 *~ 0.3;
#X obj 418 232 cos~;
#X obj 423 262 +~ 1;
#X obj 412 349 vd~ \$0mychr1;
#X obj 425 296 *~ 0.3;
#X obj 24 101 delwrite~ \$0mychr1 100;
#X obj 404 203 +~ 0.5;
#X obj 522 250 cos~;
#X obj 527 280 +~ 1;
#X obj 516 367 vd~ \$0mychr1;
#X obj 508 221 +~ 0.75;
#X obj 530 315 *~ 0.31;
#X obj 194 318 *~ 0.31;
#X connect 0 0 18 0;
#X connect 3 0 4 0;
#X connect 4 0 25 0;
#X connect 5 0 6 0;
#X connect 6 0 7 0;
#X connect 7 0 13 0;
#X connect 8 0 3 0;
#X connect 8 0 5 0;
#X connect 8 0 19 0;
#X connect 8 0 23 0;
#X connect 9 0 10 0;
#X connect 10 0 8 0;
#X connect 11 0 2 0;
#X connect 12 0 1 0;
#X connect 13 0 12 0;
#X connect 14 0 15 0;
#X connect 15 0 17 0;
#X connect 16 0 2 0;
#X connect 17 0 16 0;
#X connect 19 0 14 0;
#X connect 20 0 21 0;
#X connect 21 0 24 0;
#X connect 22 0 1 0;
#X connect 23 0 20 0;
#X connect 24 0 22 0;
#X connect 25 0 11 0;
#X restore 251 491 pd mym2schorus;
#X obj 285 408 *~ 0.3;
#X obj 659 -7 random 7;
#N canvas 182 355 859 644 beatdelay1ff 0;
#X obj 26 93 inlet~;
#X obj 535 48 inlet;
#X obj 186 458 outlet~;
#X floatatom 189 143 5 0 0 0 - - -;
#X obj 188 162 pow -1;
#X obj 254 156 + 1;
#X obj 188 185 / 4;
#X obj 201 208 *;
#X obj 212 236 * 60000;
#X obj 14 182 +~;
#X obj 180 8 loadbang;
#X floatatom 255 127 5 0 0 0 - - -;
#X obj 124 95 t b b;
#X obj 184 424 +~;
#X obj -20 148 *~;
#X obj 134 392 *~;
#X obj -1 297 * -1;
#X obj 3 328 + 1;
#X obj 340 94 hsl 96 8 20 5000 1 1 empty empty frq -20 5 0 8 -262144
-1 -1 6200 1;
#X obj 128 164 vcf~ 1;
#X text 201 35 beatsynced delay with filtered feedback;
#X obj 89 135 hip~ 100;
#X obj -131 267 delwrite~ \$0fbdl1 2000;
#X obj 231 274 delread~ \$0fbdl1;
#X obj 331 122 inlet~;
#X obj 675 474 outlet~;
#X obj 503 198 +~;
#X obj 673 440 +~;
#X obj 473 167 *~;
#X obj 623 408 *~;
#X obj 488 313 * -1;
#X obj 492 344 + 1;
#X obj 617 180 vcf~ 1;
#X obj 578 151 hip~ 100;
#X obj 357 283 delwrite~ \$0fbdl1r 2000;
#X obj 720 290 delread~ \$0fbdl1r;
#X obj 722 45 inlet;
#X obj 639 -11 inlet;
#X obj 643 29 random 8;
#X obj 640 58 + 1;
#X text 539 32 bpm in;
#X obj 540 173 *~ 0.8;
#X obj 51 157 *~ 0.8;
#X connect 0 0 15 1;
#X connect 0 0 14 1;
#X connect 1 0 3 0;
#X connect 3 0 4 0;
#X connect 4 0 6 0;
#X connect 5 0 7 1;
#X connect 6 0 7 0;
#X connect 7 0 8 0;
#X connect 8 0 23 0;
#X connect 9 0 22 0;
#X connect 10 0 12 0;
#X connect 11 0 5 0;
#X connect 12 0 3 0;
#X connect 12 1 11 0;
#X connect 13 0 2 0;
#X connect 14 0 9 0;
#X connect 15 0 13 0;
#X connect 16 0 17 0;
#X connect 17 0 15 0;
#X connect 18 0 19 1;
#X connect 18 0 32 1;
#X connect 19 0 21 0;
#X connect 21 0 42 0;
#X connect 23 0 19 0;
#X connect 23 0 13 1;
#X connect 24 0 29 1;
#X connect 24 0 28 1;
#X connect 26 0 34 0;
#X connect 27 0 25 0;
#X connect 28 0 26 0;
#X connect 29 0 27 0;
#X connect 30 0 31 0;
#X connect 31 0 29 0;
#X connect 32 0 33 0;
#X connect 33 0 41 0;
#X connect 35 0 32 0;
#X connect 35 0 27 1;
#X connect 36 0 16 0;
#X connect 36 0 14 0;
#X connect 36 0 30 0;
#X connect 36 0 28 0;
#X connect 37 0 38 0;
#X connect 38 0 39 0;
#X connect 39 0 11 0;
#X connect 39 0 12 0;
#X connect 41 0 26 1;
#X connect 42 0 9 1;
#X coords 0 0 1 1 130 70 0;
#X restore 122 492 pd beatdelay1ff;
#X obj 742 -561 vsl 15 128 -1 1 0 0 empty empty empty 0 -9 0 10 -262144
-1 -1 0 1;
#X obj 738 -351 r #accelerate;
#X obj 737 -324 unpack 0 0 0;
#X obj 765 -554 vsl 15 128 -1 1 0 0 empty empty empty 0 -9 0 10 -262144
-1 -1 0 1;
#N canvas 17 88 790 312 fix-pan-mix6 0;
#X obj 30 39 inlet~;
#X obj 101 41 inlet~;
#X obj 75 307 outlet~;
#X obj 200 308 outlet~;
#X obj 186 42 inlet~;
#X obj 269 44 inlet~;
#X obj 354 42 inlet~;
#X obj 430 44 inlet~;
#N canvas 0 0 450 300 pan1 0;
#X obj 120 15 inlet;
#X obj 297 51 inlet~;
#X obj 256 225 outlet~;
#X obj 336 218 outlet~;
#X obj 251 149 *~;
#X obj 323 154 *~;
#X obj 276 122 + 1;
#X obj 335 113 * -1;
#X obj 208 75 * -1;
#X obj 160 42 clip 0 1;
#X connect 0 0 9 0;
#X connect 1 0 4 0;
#X connect 1 0 5 1;
#X connect 4 0 2 0;
#X connect 5 0 3 0;
#X connect 6 0 4 1;
#X connect 7 0 5 0;
#X connect 8 0 6 0;
#X connect 8 0 7 0;
#X connect 9 0 8 0;
#X restore 42 187 pd pan1;
#N canvas 0 0 450 300 pan1 0;
#X obj 120 15 inlet;
#X obj 297 51 inlet~;
#X obj 256 225 outlet~;
#X obj 336 218 outlet~;
#X obj 251 149 *~;
#X obj 323 154 *~;
#X obj 276 122 + 1;
#X obj 335 113 * -1;
#X obj 208 75 * -1;
#X obj 160 42 clip 0 1;
#X connect 0 0 9 0;
#X connect 1 0 4 0;
#X connect 1 0 5 1;
#X connect 4 0 2 0;
#X connect 5 0 3 0;
#X connect 6 0 4 1;
#X connect 7 0 5 0;
#X connect 8 0 6 0;
#X connect 8 0 7 0;
#X connect 9 0 8 0;
#X restore 122 192 pd pan1;
#N canvas 0 0 450 300 pan1 0;
#X obj 120 15 inlet;
#X obj 297 51 inlet~;
#X obj 256 225 outlet~;
#X obj 336 218 outlet~;
#X obj 251 149 *~;
#X obj 323 154 *~;
#X obj 276 122 + 1;
#X obj 335 113 * -1;
#X obj 208 75 * -1;
#X obj 160 42 clip 0 1;
#X connect 0 0 9 0;
#X connect 1 0 4 0;
#X connect 1 0 5 1;
#X connect 4 0 2 0;
#X connect 5 0 3 0;
#X connect 6 0 4 1;
#X connect 7 0 5 0;
#X connect 8 0 6 0;
#X connect 8 0 7 0;
#X connect 9 0 8 0;
#X restore 203 183 pd pan1;
#N canvas 0 0 450 300 pan1 0;
#X obj 120 15 inlet;
#X obj 297 51 inlet~;
#X obj 256 225 outlet~;
#X obj 336 218 outlet~;
#X obj 251 149 *~;
#X obj 323 154 *~;
#X obj 276 122 + 1;
#X obj 335 113 * -1;
#X obj 208 75 * -1;
#X obj 160 42 clip 0 1;
#X connect 0 0 9 0;
#X connect 1 0 4 0;
#X connect 1 0 5 1;
#X connect 4 0 2 0;
#X connect 5 0 3 0;
#X connect 6 0 4 1;
#X connect 7 0 5 0;
#X connect 8 0 6 0;
#X connect 8 0 7 0;
#X connect 9 0 8 0;
#X restore 281 194 pd pan1;
#N canvas 0 0 450 300 pan1 0;
#X obj 120 15 inlet;
#X obj 297 51 inlet~;
#X obj 256 225 outlet~;
#X obj 336 218 outlet~;
#X obj 251 149 *~;
#X obj 323 154 *~;
#X obj 276 122 + 1;
#X obj 335 113 * -1;
#X obj 208 75 * -1;
#X obj 160 42 clip 0 1;
#X connect 0 0 9 0;
#X connect 1 0 4 0;
#X connect 1 0 5 1;
#X connect 4 0 2 0;
#X connect 5 0 3 0;
#X connect 6 0 4 1;
#X connect 7 0 5 0;
#X connect 8 0 6 0;
#X connect 8 0 7 0;
#X connect 9 0 8 0;
#X restore 365 196 pd pan1;
#N canvas 0 0 450 300 pan1 0;
#X obj 120 15 inlet;
#X obj 297 51 inlet~;
#X obj 256 225 outlet~;
#X obj 336 218 outlet~;
#X obj 251 149 *~;
#X obj 323 154 *~;
#X obj 276 122 + 1;
#X obj 335 113 * -1;
#X obj 208 75 * -1;
#X obj 160 42 clip 0 1;
#X connect 0 0 9 0;
#X connect 1 0 4 0;
#X connect 1 0 5 1;
#X connect 4 0 2 0;
#X connect 5 0 3 0;
#X connect 6 0 4 1;
#X connect 7 0 5 0;
#X connect 8 0 6 0;
#X connect 8 0 7 0;
#X connect 9 0 8 0;
#X restore 457 192 pd pan1;
#X obj 569 38 inlet;
#X obj 122 118 random 10;
#X obj 123 141 / 50;
#X obj 123 165 + 0.4;
#X obj 39 108 random 10;
#X obj 40 131 / 50;
#X obj 40 155 + 0.4;
#X obj 293 118 random 10;
#X obj 294 141 / 50;
#X obj 294 165 + 0.4;
#X obj 210 108 random 10;
#X obj 211 131 / 50;
#X obj 211 155 + 0.4;
#X obj 457 125 random 10;
#X obj 458 148 / 50;
#X obj 458 172 + 0.4;
#X obj 374 115 random 10;
#X obj 375 138 / 50;
#X obj 375 162 + 0.4;
#X connect 0 0 8 1;
#X connect 1 0 9 1;
#X connect 4 0 10 1;
#X connect 5 0 11 1;
#X connect 6 0 12 1;
#X connect 7 0 13 1;
#X connect 8 0 2 0;
#X connect 8 1 3 0;
#X connect 9 0 2 0;
#X connect 9 1 3 0;
#X connect 10 0 2 0;
#X connect 10 1 3 0;
#X connect 11 0 2 0;
#X connect 11 1 3 0;
#X connect 12 0 2 0;
#X connect 12 1 3 0;
#X connect 13 0 2 0;
#X connect 13 1 3 0;
#X connect 14 0 15 0;
#X connect 14 0 18 0;
#X connect 14 0 24 0;
#X connect 14 0 21 0;
#X connect 14 0 30 0;
#X connect 14 0 27 0;
#X connect 15 0 16 0;
#X connect 16 0 17 0;
#X connect 17 0 9 0;
#X connect 18 0 19 0;
#X connect 19 0 20 0;
#X connect 20 0 8 0;
#X connect 21 0 22 0;
#X connect 22 0 23 0;
#X connect 23 0 11 0;
#X connect 24 0 25 0;
#X connect 25 0 26 0;
#X connect 26 0 10 0;
#X connect 27 0 28 0;
#X connect 28 0 29 0;
#X connect 29 0 13 0;
#X connect 30 0 31 0;
#X connect 31 0 32 0;
#X connect 32 0 12 0;
#X restore 108 456 pd fix-pan-mix6;
#X obj 720 224 line;
#X obj 727 294 change;
#X obj 727 319 moses 0.1;
#X obj 745 83 *;
#X obj 781 82 *;
#X obj 822 82 *;
#X obj 744 110 +;
#X obj 745 143 +;
#X obj 746 165 pow 0.5;
#X obj 720 202 \$0 30;
#X obj 728 268 > 1.3;
#X obj 347 63 random 12;
#X obj 402 30 random 10;
#X obj 512 32 random 10;
#X obj 632 37 random 10;
#X obj 626 88 - 5;
#X obj 539 85 - 5;
#X obj 442 84 - 5;
#X obj 639 64 +;
#X obj 535 62 +;
#X obj 714 -95 float;
#X obj 720 -127 clip -1 1;
#X obj 442 58 +;
#X obj 713 -68 * 7;
#X obj 636 -156 clip -1 1;
#X obj 226 464 clip 0 1;
#X obj 350 364 clip 0 1;
#X obj 344 386 / 3;
#X obj 621 -100 t b f;
#X msg 618 -74 1;
#X obj 632 -53 -;
#X obj 640 -123 * -1;
#N canvas 51 178 1193 613 shuffleseq16 0;
#X obj -87 64 inlet;
#X obj 43 458 outlet;
#X obj -75 199 select 0 1 2 3 4 5 6 7 8 9 10 11 12 13 14 15;
#X floatatom 278 167 3 0 128 0 - - -;
#X floatatom 303 167 3 0 128 0 - - -;
#X floatatom 328 167 3 0 128 0 - - -;
#X floatatom 353 167 3 0 128 0 - - -;
#X floatatom 381 167 3 0 128 0 - - -;
#X floatatom 406 167 3 0 128 0 - - -;
#X floatatom 431 167 3 0 128 0 - - -;
#X floatatom 456 167 3 0 128 0 - - -;
#X floatatom 484 167 3 0 128 0 - - -;
#X floatatom 509 167 3 0 128 0 - - -;
#X floatatom 534 167 3 0 128 0 - - -;
#X floatatom 559 167 3 0 128 0 - - -;
#X floatatom 587 167 3 0 128 0 - - -;
#X floatatom 612 167 3 0 128 0 - - -;
#X floatatom 637 167 3 0 128 0 - - -;
#X floatatom 662 167 3 0 128 0 - - -;
#X obj -96 271 int;
#X obj -67 270 int;
#X obj -6 269 int;
#X obj -36 268 int;
#X obj 26 271 int;
#X obj 55 270 int;
#X obj 116 269 int;
#X obj 86 268 int;
#X obj 151 268 int;
#X obj 180 267 int;
#X obj 241 266 int;
#X obj 211 265 int;
#X obj 273 268 int;
#X obj 302 267 int;
#X obj 363 266 int;
#X obj 333 265 int;
#X obj 337 111 route 0 1 2 3 4 5 6 7 8 9 10 11 12 13 14 15;
#X obj 629 -90 inlet;
#X msg 638 -49 0;
#X text 672 -98 clear;
#X obj 690 5 random 16;
#X obj 730 -100 t b b;
#X obj 694 62 pack f f;
#X obj 735 -125 inlet;
#X text 779 -127 random-step/pause set;
#X obj 799 1 random 16;
#X obj 52 407 +;
#X obj -89 99 t f f;
#X obj -106 146 mod 16;
#X connect 0 0 46 0;
#X connect 2 0 19 0;
#X connect 2 1 20 0;
#X connect 2 2 22 0;
#X connect 2 3 21 0;
#X connect 2 4 23 0;
#X connect 2 5 24 0;
#X connect 2 6 26 0;
#X connect 2 7 25 0;
#X connect 2 8 27 0;
#X connect 2 9 28 0;
#X connect 2 10 30 0;
#X connect 2 11 29 0;
#X connect 2 12 31 0;
#X connect 2 13 32 0;
#X connect 2 14 34 0;
#X connect 2 15 33 0;
#X connect 3 0 19 1;
#X connect 4 0 20 1;
#X connect 5 0 22 1;
#X connect 6 0 21 1;
#X connect 7 0 23 1;
#X connect 8 0 24 1;
#X connect 9 0 26 1;
#X connect 10 0 25 1;
#X connect 11 0 27 1;
#X connect 12 0 28 1;
#X connect 13 0 30 1;
#X connect 14 0 29 1;
#X connect 15 0 31 1;
#X connect 16 0 32 1;
#X connect 17 0 34 1;
#X connect 18 0 33 1;
#X connect 19 0 45 0;
#X connect 20 0 45 0;
#X connect 21 0 45 0;
#X connect 22 0 45 0;
#X connect 23 0 45 0;
#X connect 24 0 45 0;
#X connect 25 0 45 0;
#X connect 26 0 45 0;
#X connect 27 0 45 0;
#X connect 28 0 45 0;
#X connect 29 0 45 0;
#X connect 30 0 45 0;
#X connect 31 0 45 0;
#X connect 32 0 45 0;
#X connect 33 0 45 0;
#X connect 34 0 45 0;
#X connect 35 0 3 0;
#X connect 35 1 4 0;
#X connect 35 2 5 0;
#X connect 35 3 6 0;
#X connect 35 4 7 0;
#X connect 35 5 8 0;
#X connect 35 6 9 0;
#X connect 35 7 10 0;
#X connect 35 8 11 0;
#X connect 35 9 12 0;
#X connect 35 10 13 0;
#X connect 35 11 14 0;
#X connect 35 12 15 0;
#X connect 35 13 16 0;
#X connect 35 14 17 0;
#X connect 35 15 18 0;
#X connect 36 0 37 0;
#X connect 37 0 3 0;
#X connect 37 0 4 0;
#X connect 37 0 5 0;
#X connect 37 0 6 0;
#X connect 37 0 7 0;
#X connect 37 0 8 0;
#X connect 37 0 9 0;
#X connect 37 0 10 0;
#X connect 37 0 11 0;
#X connect 37 0 12 0;
#X connect 37 0 13 0;
#X connect 37 0 14 0;
#X connect 37 0 15 0;
#X connect 37 0 16 0;
#X connect 37 0 17 0;
#X connect 37 0 18 0;
#X connect 39 0 41 0;
#X connect 40 0 39 0;
#X connect 40 1 44 0;
#X connect 41 0 35 0;
#X connect 42 0 40 0;
#X connect 44 0 41 1;
#X connect 45 0 1 0;
#X connect 46 0 47 0;
#X connect 46 1 45 1;
#X connect 47 0 2 0;
#X coords 0 0 1 1 410 40 0;
#X restore 332 -81 pd shuffleseq16;
#N canvas 51 178 1193 613 shuffleseq16 0;
#X obj -87 64 inlet;
#X obj 43 458 outlet;
#X obj -75 199 select 0 1 2 3 4 5 6 7 8 9 10 11 12 13 14 15;
#X floatatom 278 167 3 0 128 0 - - -;
#X floatatom 303 167 3 0 128 0 - - -;
#X floatatom 328 167 3 0 128 0 - - -;
#X floatatom 353 167 3 0 128 0 - - -;
#X floatatom 381 167 3 0 128 0 - - -;
#X floatatom 406 167 3 0 128 0 - - -;
#X floatatom 431 167 3 0 128 0 - - -;
#X floatatom 456 167 3 0 128 0 - - -;
#X floatatom 484 167 3 0 128 0 - - -;
#X floatatom 509 167 3 0 128 0 - - -;
#X floatatom 534 167 3 0 128 0 - - -;
#X floatatom 559 167 3 0 128 0 - - -;
#X floatatom 587 167 3 0 128 0 - - -;
#X floatatom 612 167 3 0 128 0 - - -;
#X floatatom 637 167 3 0 128 0 - - -;
#X floatatom 662 167 3 0 128 0 - - -;
#X obj -96 271 int;
#X obj -67 270 int;
#X obj -6 269 int;
#X obj -36 268 int;
#X obj 26 271 int;
#X obj 55 270 int;
#X obj 116 269 int;
#X obj 86 268 int;
#X obj 151 268 int;
#X obj 180 267 int;
#X obj 241 266 int;
#X obj 211 265 int;
#X obj 273 268 int;
#X obj 302 267 int;
#X obj 363 266 int;
#X obj 333 265 int;
#X obj 337 111 route 0 1 2 3 4 5 6 7 8 9 10 11 12 13 14 15;
#X obj 629 -90 inlet;
#X msg 638 -49 0;
#X text 672 -98 clear;
#X obj 690 5 random 16;
#X obj 730 -100 t b b;
#X obj 694 62 pack f f;
#X obj 735 -125 inlet;
#X text 779 -127 random-step/pause set;
#X obj 799 1 random 16;
#X obj 52 407 +;
#X obj -89 99 t f f;
#X obj -106 146 mod 16;
#X connect 0 0 46 0;
#X connect 2 0 19 0;
#X connect 2 1 20 0;
#X connect 2 2 22 0;
#X connect 2 3 21 0;
#X connect 2 4 23 0;
#X connect 2 5 24 0;
#X connect 2 6 26 0;
#X connect 2 7 25 0;
#X connect 2 8 27 0;
#X connect 2 9 28 0;
#X connect 2 10 30 0;
#X connect 2 11 29 0;
#X connect 2 12 31 0;
#X connect 2 13 32 0;
#X connect 2 14 34 0;
#X connect 2 15 33 0;
#X connect 3 0 19 1;
#X connect 4 0 20 1;
#X connect 5 0 22 1;
#X connect 6 0 21 1;
#X connect 7 0 23 1;
#X connect 8 0 24 1;
#X connect 9 0 26 1;
#X connect 10 0 25 1;
#X connect 11 0 27 1;
#X connect 12 0 28 1;
#X connect 13 0 30 1;
#X connect 14 0 29 1;
#X connect 15 0 31 1;
#X connect 16 0 32 1;
#X connect 17 0 34 1;
#X connect 18 0 33 1;
#X connect 19 0 45 0;
#X connect 20 0 45 0;
#X connect 21 0 45 0;
#X connect 22 0 45 0;
#X connect 23 0 45 0;
#X connect 24 0 45 0;
#X connect 25 0 45 0;
#X connect 26 0 45 0;
#X connect 27 0 45 0;
#X connect 28 0 45 0;
#X connect 29 0 45 0;
#X connect 30 0 45 0;
#X connect 31 0 45 0;
#X connect 32 0 45 0;
#X connect 33 0 45 0;
#X connect 34 0 45 0;
#X connect 35 0 3 0;
#X connect 35 1 4 0;
#X connect 35 2 5 0;
#X connect 35 3 6 0;
#X connect 35 4 7 0;
#X connect 35 5 8 0;
#X connect 35 6 9 0;
#X connect 35 7 10 0;
#X connect 35 8 11 0;
#X connect 35 9 12 0;
#X connect 35 10 13 0;
#X connect 35 11 14 0;
#X connect 35 12 15 0;
#X connect 35 13 16 0;
#X connect 35 14 17 0;
#X connect 35 15 18 0;
#X connect 36 0 37 0;
#X connect 37 0 3 0;
#X connect 37 0 4 0;
#X connect 37 0 5 0;
#X connect 37 0 6 0;
#X connect 37 0 7 0;
#X connect 37 0 8 0;
#X connect 37 0 9 0;
#X connect 37 0 10 0;
#X connect 37 0 11 0;
#X connect 37 0 12 0;
#X connect 37 0 13 0;
#X connect 37 0 14 0;
#X connect 37 0 15 0;
#X connect 37 0 16 0;
#X connect 37 0 17 0;
#X connect 37 0 18 0;
#X connect 39 0 41 0;
#X connect 40 0 39 0;
#X connect 40 1 44 0;
#X connect 41 0 35 0;
#X connect 42 0 40 0;
#X connect 44 0 41 1;
#X connect 45 0 1 0;
#X connect 46 0 47 0;
#X connect 46 1 45 1;
#X connect 47 0 2 0;
#X coords 0 0 1 1 410 40 0;
#X restore 417 -166 pd shuffleseq16;
#N canvas 51 178 1193 613 shuffleseq16 0;
#X obj -87 64 inlet;
#X obj 43 458 outlet;
#X obj -75 199 select 0 1 2 3 4 5 6 7 8 9 10 11 12 13 14 15;
#X floatatom 278 167 3 0 128 0 - - -;
#X floatatom 303 167 3 0 128 0 - - -;
#X floatatom 328 167 3 0 128 0 - - -;
#X floatatom 353 167 3 0 128 0 - - -;
#X floatatom 381 167 3 0 128 0 - - -;
#X floatatom 406 167 3 0 128 0 - - -;
#X floatatom 431 167 3 0 128 0 - - -;
#X floatatom 456 167 3 0 128 0 - - -;
#X floatatom 484 167 3 0 128 0 - - -;
#X floatatom 509 167 3 0 128 0 - - -;
#X floatatom 534 167 3 0 128 0 - - -;
#X floatatom 559 167 3 0 128 0 - - -;
#X floatatom 587 167 3 0 128 0 - - -;
#X floatatom 612 167 3 0 128 0 - - -;
#X floatatom 637 167 3 0 128 0 - - -;
#X floatatom 662 167 3 0 128 0 - - -;
#X obj -96 271 int;
#X obj -67 270 int;
#X obj -6 269 int;
#X obj -36 268 int;
#X obj 26 271 int;
#X obj 55 270 int;
#X obj 116 269 int;
#X obj 86 268 int;
#X obj 151 268 int;
#X obj 180 267 int;
#X obj 241 266 int;
#X obj 211 265 int;
#X obj 273 268 int;
#X obj 302 267 int;
#X obj 363 266 int;
#X obj 333 265 int;
#X obj 337 111 route 0 1 2 3 4 5 6 7 8 9 10 11 12 13 14 15;
#X obj 629 -90 inlet;
#X msg 638 -49 0;
#X text 672 -98 clear;
#X obj 690 5 random 16;
#X obj 730 -100 t b b;
#X obj 694 62 pack f f;
#X obj 735 -125 inlet;
#X text 779 -127 random-step/pause set;
#X obj 799 1 random 16;
#X obj 52 407 +;
#X obj -89 99 t f f;
#X obj -106 146 mod 16;
#X connect 0 0 46 0;
#X connect 2 0 19 0;
#X connect 2 1 20 0;
#X connect 2 2 22 0;
#X connect 2 3 21 0;
#X connect 2 4 23 0;
#X connect 2 5 24 0;
#X connect 2 6 26 0;
#X connect 2 7 25 0;
#X connect 2 8 27 0;
#X connect 2 9 28 0;
#X connect 2 10 30 0;
#X connect 2 11 29 0;
#X connect 2 12 31 0;
#X connect 2 13 32 0;
#X connect 2 14 34 0;
#X connect 2 15 33 0;
#X connect 3 0 19 1;
#X connect 4 0 20 1;
#X connect 5 0 22 1;
#X connect 6 0 21 1;
#X connect 7 0 23 1;
#X connect 8 0 24 1;
#X connect 9 0 26 1;
#X connect 10 0 25 1;
#X connect 11 0 27 1;
#X connect 12 0 28 1;
#X connect 13 0 30 1;
#X connect 14 0 29 1;
#X connect 15 0 31 1;
#X connect 16 0 32 1;
#X connect 17 0 34 1;
#X connect 18 0 33 1;
#X connect 19 0 45 0;
#X connect 20 0 45 0;
#X connect 21 0 45 0;
#X connect 22 0 45 0;
#X connect 23 0 45 0;
#X connect 24 0 45 0;
#X connect 25 0 45 0;
#X connect 26 0 45 0;
#X connect 27 0 45 0;
#X connect 28 0 45 0;
#X connect 29 0 45 0;
#X connect 30 0 45 0;
#X connect 31 0 45 0;
#X connect 32 0 45 0;
#X connect 33 0 45 0;
#X connect 34 0 45 0;
#X connect 35 0 3 0;
#X connect 35 1 4 0;
#X connect 35 2 5 0;
#X connect 35 3 6 0;
#X connect 35 4 7 0;
#X connect 35 5 8 0;
#X connect 35 6 9 0;
#X connect 35 7 10 0;
#X connect 35 8 11 0;
#X connect 35 9 12 0;
#X connect 35 10 13 0;
#X connect 35 11 14 0;
#X connect 35 12 15 0;
#X connect 35 13 16 0;
#X connect 35 14 17 0;
#X connect 35 15 18 0;
#X connect 36 0 37 0;
#X connect 37 0 3 0;
#X connect 37 0 4 0;
#X connect 37 0 5 0;
#X connect 37 0 6 0;
#X connect 37 0 7 0;
#X connect 37 0 8 0;
#X connect 37 0 9 0;
#X connect 37 0 10 0;
#X connect 37 0 11 0;
#X connect 37 0 12 0;
#X connect 37 0 13 0;
#X connect 37 0 14 0;
#X connect 37 0 15 0;
#X connect 37 0 16 0;
#X connect 37 0 17 0;
#X connect 37 0 18 0;
#X connect 39 0 41 0;
#X connect 40 0 39 0;
#X connect 40 1 44 0;
#X connect 41 0 35 0;
#X connect 42 0 40 0;
#X connect 44 0 41 1;
#X connect 45 0 1 0;
#X connect 46 0 47 0;
#X connect 46 1 45 1;
#X connect 47 0 2 0;
#X coords 0 0 1 1 410 40 0;
#X restore 503 -40 pd shuffleseq16;
#X msg 543 -156 bang;
#X obj 593 -264 + 1;
#X obj 539 -245 float;
#X obj 274 -398 == 0;
#X obj 273 -378 change;
#X obj 264 -357 moses 0.1;
#X msg 264 -335 bang;
#X obj 539 -220 moses 0.1;
#X msg 624 -313 bang;
#X obj 272 -419 mod 16;
#X msg 531 -273 -8;
#X obj 631 -287 random 3;
#X msg 630 -264 \$1 bang;
#X obj 620 -237 route 0 1 2;
#X floatatom 570 -190 5 0 0 0 - - -;
#X connect 0 0 17 0;
#X connect 0 1 7 0;
#X connect 0 1 11 0;
#X connect 1 0 9 0;
#X connect 1 0 10 0;
#X connect 3 0 8 0;
#X connect 4 0 3 0;
#X connect 5 0 4 0;
#X connect 6 0 4 0;
#X connect 7 0 5 0;
#X connect 8 0 101 2;
#X connect 8 0 94 0;
#X connect 9 0 15 0;
#X connect 10 0 16 0;
#X connect 11 0 12 0;
#X connect 12 0 14 0;
#X connect 13 0 6 0;
#X connect 14 0 13 0;
#X connect 15 0 18 0;
#X connect 16 0 63 0;
#X connect 17 0 6 0;
#X connect 17 1 5 0;
#X connect 18 0 20 0;
#X connect 19 0 62 0;
#X connect 20 0 19 0;
#X connect 21 0 24 0;
#X connect 21 0 30 0;
#X connect 21 0 48 0;
#X connect 21 0 58 3;
#X connect 21 0 70 3;
#X connect 21 0 72 3;
#X connect 21 0 90 1;
#X connect 21 0 86 1;
#X connect 21 0 92 3;
#X connect 21 0 92 2;
#X connect 21 0 96 3;
#X connect 21 0 101 6;
#X connect 21 0 114 0;
#X connect 21 0 115 0;
#X connect 21 0 116 0;
#X connect 21 0 122 0;
#X connect 23 0 21 0;
#X connect 23 0 68 0;
#X connect 24 0 2 0;
#X connect 25 0 84 1;
#X connect 26 0 25 0;
#X connect 27 0 26 0;
#X connect 28 0 84 0;
#X connect 28 0 83 0;
#X connect 28 0 86 0;
#X connect 28 0 134 0;
#X connect 28 0 135 0;
#X connect 28 0 136 0;
#X connect 28 0 146 0;
#X connect 28 1 92 1;
#X connect 28 1 96 2;
#X connect 29 1 0 0;
#X connect 29 1 50 0;
#X connect 30 0 27 0;
#X connect 30 1 84 2;
#X connect 31 0 84 3;
#X connect 31 0 86 2;
#X connect 32 0 43 0;
#X connect 32 1 37 0;
#X connect 32 1 39 0;
#X connect 33 0 38 0;
#X connect 34 0 33 0;
#X connect 35 0 34 0;
#X connect 36 0 34 0;
#X connect 37 0 35 0;
#X connect 38 0 101 1;
#X connect 38 0 94 0;
#X connect 39 0 40 0;
#X connect 40 0 42 0;
#X connect 41 0 36 0;
#X connect 42 0 41 0;
#X connect 43 0 36 0;
#X connect 43 1 35 0;
#X connect 44 0 83 1;
#X connect 45 0 44 0;
#X connect 46 0 45 0;
#X connect 47 1 32 0;
#X connect 47 1 50 1;
#X connect 47 1 61 1;
#X connect 48 0 46 0;
#X connect 48 1 83 2;
#X connect 49 0 83 3;
#X connect 50 0 52 0;
#X connect 51 0 63 1;
#X connect 52 0 54 0;
#X connect 53 0 51 0;
#X connect 54 0 53 0;
#X connect 55 0 67 0;
#X connect 55 0 69 4;
#X connect 55 0 101 3;
#X connect 56 0 57 0;
#X connect 57 0 64 0;
#X connect 58 0 55 0;
#X connect 58 1 55 2;
#X connect 59 0 1 0;
#X connect 59 1 1 0;
#X connect 61 0 63 2;
#X connect 62 0 10 1;
#X connect 63 0 2 0;
#X connect 64 1 65 0;
#X connect 64 2 66 0;
#X connect 65 0 73 2;
#X connect 66 0 74 0;
#X connect 67 0 16 0;
#X connect 67 0 94 0;
#X connect 68 0 28 0;
#X connect 68 0 81 0;
#X connect 68 0 95 0;
#X connect 68 0 113 0;
#X connect 69 0 71 3;
#X connect 69 0 91 0;
#X connect 70 0 69 0;
#X connect 70 1 69 2;
#X connect 71 0 67 0;
#X connect 71 0 101 5;
#X connect 72 0 71 0;
#X connect 72 1 71 2;
#X connect 73 0 76 0;
#X connect 74 0 75 0;
#X connect 74 0 81 0;
#X connect 74 0 147 0;
#X connect 74 0 137 0;
#X connect 74 1 73 1;
#X connect 75 0 73 0;
#X connect 76 0 77 0;
#X connect 76 1 78 0;
#X connect 76 2 79 0;
#X connect 77 0 58 1;
#X connect 77 1 58 2;
#X connect 78 0 70 1;
#X connect 78 1 70 2;
#X connect 79 0 72 1;
#X connect 79 1 72 2;
#X connect 80 0 82 0;
#X connect 81 0 80 0;
#X connect 82 0 81 1;
#X connect 82 0 75 1;
#X connect 83 0 47 0;
#X connect 83 1 49 0;
#X connect 84 0 29 0;
#X connect 84 1 31 0;
#X connect 85 1 90 0;
#X connect 86 0 85 0;
#X connect 87 0 65 0;
#X connect 88 0 66 0;
#X connect 89 0 88 0;
#X connect 89 0 87 0;
#X connect 90 0 101 0;
#X connect 91 0 67 0;
#X connect 91 0 101 4;
#X connect 92 0 93 0;
#X connect 93 0 60 0;
#X connect 93 1 60 1;
#X connect 94 0 92 0;
#X connect 95 0 71 1;
#X connect 95 0 69 1;
#X connect 95 0 55 1;
#X connect 96 0 60 0;
#X connect 96 1 60 1;
#X connect 97 0 126 0;
#X connect 98 0 99 0;
#X connect 99 0 105 1;
#X connect 99 0 105 0;
#X connect 99 0 126 0;
#X connect 99 1 106 1;
#X connect 99 1 106 0;
#X connect 99 1 123 0;
#X connect 99 2 107 1;
#X connect 99 2 107 0;
#X connect 100 0 123 0;
#X connect 101 0 96 0;
#X connect 101 1 96 1;
#X connect 102 0 112 0;
#X connect 103 0 104 0;
#X connect 104 1 21 0;
#X connect 105 0 108 0;
#X connect 106 0 108 1;
#X connect 107 0 109 1;
#X connect 108 0 109 0;
#X connect 109 0 110 0;
#X connect 110 0 111 0;
#X connect 111 0 102 0;
#X connect 112 0 103 0;
#X connect 113 0 55 3;
#X connect 113 0 71 4;
#X connect 113 0 69 3;
#X connect 114 0 124 1;
#X connect 115 0 121 1;
#X connect 116 0 120 1;
#X connect 117 0 71 5;
#X connect 118 0 69 5;
#X connect 119 0 55 4;
#X connect 120 0 117 0;
#X connect 121 0 118 0;
#X connect 122 0 125 0;
#X connect 123 0 122 0;
#X connect 124 0 119 0;
#X connect 125 0 120 0;
#X connect 125 0 121 0;
#X connect 125 0 124 0;
#X connect 126 0 127 0;
#X connect 126 0 133 0;
#X connect 127 0 96 4;
#X connect 128 0 129 0;
#X connect 129 0 94 1;
#X connect 130 0 131 0;
#X connect 130 1 132 1;
#X connect 131 0 132 0;
#X connect 132 0 128 0;
#X connect 133 0 130 0;
#X connect 134 0 58 0;
#X connect 135 0 70 0;
#X connect 136 0 72 0;
#X connect 137 0 134 1;
#X connect 137 0 136 1;
#X connect 137 0 135 1;
#X connect 138 0 139 1;
#X connect 139 0 138 0;
#X connect 139 0 144 0;
#X connect 139 0 151 0;
#X connect 140 0 141 0;
#X connect 141 0 142 0;
#X connect 142 0 143 0;
#X connect 143 0 139 0;
#X connect 144 1 145 0;
#X connect 145 0 148 0;
#X connect 146 0 140 0;
#X connect 147 0 139 0;
#X connect 148 0 149 0;
#X connect 149 0 150 0;
#X connect 150 0 134 2;
#X connect 150 1 135 2;
#X connect 150 2 136 2;
