#N canvas 555 136 354 230 10;
#X obj 25 132 spigot;
#X floatatom 26 70 5 0 0 0 - - -, f 5;
#X floatatom -16 133 5 0 0 0 - - -, f 5;
#X obj 25 102 == \$1;
#X obj 27 41 inlet;
#X obj 95 39 receive fromGUI;
#X obj 95 67 route list;
#X obj 95 104 route \$2;
#X text 92 19 Play on Screen;
#X text -105 21 Conditional Logic for note #;
#X obj 78 178 oneshot \$3;
#X obj 132 149 inlet;
#X connect 0 0 10 0;
#X connect 1 0 3 0;
#X connect 3 0 0 1;
#X connect 3 0 0 0;
#X connect 3 0 2 0;
#X connect 4 0 1 0;
#X connect 5 0 6 0;
#X connect 6 0 7 0;
#X connect 7 0 10 0;
#X connect 11 0 10 1;
