#N canvas 481 163 516 501 10;
#X obj 39 -130 inlet;
#X obj 39 -62 tabplay~ \$0-sample;
#X obj 155 -61 load \$1 \$0-sample;
#X obj 38 309 dac~;
#X obj 39 -108 select 1;
#X obj 38 281 *~;
#X obj 350 76 send toGUI;
#X obj 350 2 ctlin 7 1;
#X floatatom 350 26 5 0 0 0 - - -, f 5;
#X obj 198 170 line~;
#X obj 198 139 pack 0 50;
#X obj 198 108 / 127;
#X obj 198 0 receive fromGUI;
#X obj 198 29 route list;
#X obj 198 59 route /mySlider;
#X floatatom 198 86 5 0 0 0 - - -, f 5;
#X text 195 -18 Volume Slide from GUI;
#X obj 91 54 inlet;
#X floatatom 91 80 5 0 0 0 - - -, f 5;
#X obj 72 222 *~;
#X obj 91 171 line~;
#X obj 91 140 pack 0 50;
#X obj 91 109 / 127;
#X text 75 37 pad velocity;
#X msg 350 50 list /mySlider \$1;
#X msg 54 78 127;
#X obj 55 9 loadbang;
#X text 344 -16 Volume Slider from MIDI;
#X text 74 310 Main Audio Out;
#X connect 0 0 4 0;
#X connect 1 0 5 0;
#X connect 4 0 1 0;
#X connect 5 0 3 0;
#X connect 5 0 3 1;
#X connect 7 0 8 0;
#X connect 8 0 24 0;
#X connect 9 0 19 1;
#X connect 10 0 9 0;
#X connect 11 0 10 0;
#X connect 12 0 13 0;
#X connect 13 0 14 0;
#X connect 14 0 15 0;
#X connect 15 0 11 0;
#X connect 17 0 18 0;
#X connect 18 0 22 0;
#X connect 19 0 5 1;
#X connect 20 0 19 0;
#X connect 21 0 20 0;
#X connect 22 0 21 0;
#X connect 24 0 6 0;
#X connect 25 0 22 0;
#X connect 26 0 25 0;
