#N canvas 29 0 1009 705 10;
#X obj 249 601 outlet~;
#X obj 249 544 *~;
#X floatatom 209 181 5 0 0 0 - - -;
#X msg 488 199 bang;
#X obj 510 340 line~;
#X obj 514 271 del 200;
#X obj 510 378 *~;
#X obj 508 407 *~;
#X text 492 167 ENVELOPE SECTION;
#X msg 472 242 1 50;
#X msg 514 307 0 1000;
#X text 519 201 trigger envelope;
#X text 563 305 decay time (1000 ms to get to zero);
#X text 511 240 attack time (50 ms to get to 1);
#X text 568 271 note length (200);
#X text 550 340 controls envelope level;
#X text 559 389 envelope bangs the line to raise the envelope;
#X text 559 404 then after a delay (note length);
#X text 559 418 it sends a fade signal to the line object;
#X obj 133 28 inlet;
#X obj 185 433 +~;
#X obj 133 125 mtof;
#X obj 196 202 + 3;
#X text 47 309 WAVE SECTION;
#X text 15 105 convert from midi to frequency;
#X text 222 195 add a small amount to the;
#X text 223 208 frequency to detune;
#X text 615 14 INSTRUMENT 4;
#X obj 131 329 osc~;
#X obj 196 333 osc~;
#X text 220 220 the second sinewave;
#X obj 209 126 r beat;
#X text 201 235 (actually take this from the beat counter);
#X text 170 24 pitch inlet (midi values) \, trigger notes to play;
#X text 623 30 a double sine generator with;
#X text 622 45 detune on one wave;
#X text 207 434 add 2 waves;
#X obj 209 158 / 2;
#X connect 1 0 0 0;
#X connect 2 0 22 1;
#X connect 3 0 5 0;
#X connect 3 0 9 0;
#X connect 4 0 6 0;
#X connect 4 0 6 1;
#X connect 5 0 10 0;
#X connect 6 0 7 0;
#X connect 6 0 7 1;
#X connect 7 0 1 1;
#X connect 9 0 4 0;
#X connect 10 0 4 0;
#X connect 19 0 3 0;
#X connect 19 0 21 0;
#X connect 20 0 1 0;
#X connect 21 0 22 0;
#X connect 21 0 28 0;
#X connect 22 0 29 0;
#X connect 28 0 20 0;
#X connect 29 0 20 1;
#X connect 31 0 37 0;
#X connect 37 0 2 0;
