#N canvas 16 0 1009 705 10;
#X obj 100 -282 clock;
#X msg 103 -316 0;
#X msg 68 -315 1;
#X text 64 -334 start;
#X text 102 -335 stop;
#X floatatom 144 -300 0 0 0 0 - - -;
#X msg 153 -325 208;
#X msg 184 -325 104;
#N canvas 0 0 505 381 tables 0;
#N canvas 0 0 450 300 graph1 0;
#X array dbtorms 123 float 0;
#X coords 0 10 123 0 200 100 1;
#X restore 60 19 graph;
#N canvas 0 0 450 300 graph2 0;
#X array mtof 130 float 0;
#X coords 0 12000 130 0 200 100 1;
#X restore 60 155 graph;
#X obj 284 22 loadbang;
#X msg 282 50 \; dbtorms read dbtorms.txt \; mtof read mtof.txt;
#X text 60 290 to translate midi to frequency;
#X text 62 278 pd needs these tables;
#X text 60 301 and decibels to rms;
#X obj 246 290 mtof;
#X connect 2 0 3 0;
#X restore 605 215 pd tables;
#X text 137 -281 CLOCK;
#X obj 100 169 pan;
#X obj 138 255 outmix;
#X floatatom 113 148 0 0 0 0 - - -;
#X floatatom 182 233 0 0 0 0 - - -;
#X obj 116 124 hsl 50 15 0 100 0 0 empty empty pan -2 -6 0 8 -262144
-1 -1 1960 1;
#X obj 184 168 pan;
#X floatatom 197 147 0 0 0 0 - - -;
#X obj 200 123 hsl 50 15 0 100 0 0 empty empty pan -2 -6 0 8 -262144
-1 -1 980 1;
#X text 204 233 volume control (0-100);
#X obj 27 165 pan;
#X floatatom 40 144 0 0 0 0 - - -;
#X obj 43 120 hsl 50 15 0 100 0 0 empty empty pan -2 -6 0 8 -262144
-1 -1 3430 1;
#X obj 269 168 pan;
#X floatatom 282 147 0 0 0 0 - - -;
#X obj 285 123 hsl 50 15 0 100 0 0 empty empty pan -2 -6 0 8 -262144
-1 -1 1470 1;
#X obj 270 -13 instrument1;
#N canvas 0 0 767 604 seq1 0;
#X msg 29 214 84;
#X msg 54 214 85;
#X msg 82 216 87;
#X msg 110 217 89;
#X msg 138 217 90;
#X msg 165 216 92;
#X msg 195 216 94;
#X floatatom 95 312 0 0 0 0 - - -;
#X obj 31 140 select 7 1 2 3 4 5 6;
#X obj 34 112 random 8;
#X obj 95 456 - 24;
#X msg 138 422 12;
#X msg 34 80 bang;
#X obj 34 44 select 0;
#X obj 151 337 random 4;
#X msg 151 309 bang;
#X obj 151 361 sel 0 1;
#X msg 116 395 24;
#X obj 34 12 inlet;
#X text 70 10 inlet receives current beat;
#X obj 95 536 outlet;
#X text 295 150 what note to play;
#X text 260 181 any other value will trigger nothing;
#X text 172 137 if this beat is a trigger use a random number to work
out;
#X text 228 215 selection of note values to play (midi);
#X text 271 615 note value output;
#X text 241 166 only certain numbers will trigger notes;
#X text 205 338 Another random generator;
#X text 169 423 changes the transposition value if random number is
0 or 1;
#X text 124 455 transpose the note value by a specified amount;
#X text 204 358 triggered every time the beat counter is zero;
#X text 88 45 this instrument only plays on the first beat;
#X text 457 65 RANDOM NOTE GENERATOR;
#X text 299 4 inlet receives random range;
#X text 299 16 used to control how often a note plays;
#X obj 253 9 inlet;
#X connect 0 0 7 0;
#X connect 1 0 7 0;
#X connect 2 0 7 0;
#X connect 3 0 7 0;
#X connect 4 0 7 0;
#X connect 5 0 7 0;
#X connect 6 0 7 0;
#X connect 7 0 10 0;
#X connect 8 0 0 0;
#X connect 8 1 1 0;
#X connect 8 2 2 0;
#X connect 8 3 3 0;
#X connect 8 4 4 0;
#X connect 8 5 5 0;
#X connect 8 6 6 0;
#X connect 9 0 8 0;
#X connect 10 0 20 0;
#X connect 11 0 10 1;
#X connect 12 0 9 0;
#X connect 13 0 12 0;
#X connect 13 0 15 0;
#X connect 14 0 16 0;
#X connect 15 0 14 0;
#X connect 16 0 17 0;
#X connect 16 1 11 0;
#X connect 17 0 10 1;
#X connect 18 0 13 0;
#X connect 35 0 9 1;
#X restore 270 -80 pd seq1;
#X obj 26 -15 instrument2;
#N canvas 0 0 718 631 seq2 0;
#X msg 184 379 84;
#X msg 209 379 85;
#X msg 237 381 87;
#X msg 265 382 89;
#X msg 293 382 90;
#X msg 322 379 92;
#X msg 350 379 94;
#X floatatom 272 443 0 0 0 0 - - -;
#X msg 204 252 bang;
#X obj 85 173 select 0 2 4 8 10 12 14 16 18 20 22 24 26 28 30;
#X obj 200 310 select 7 1 2 3 4 5 6;
#X obj 204 282 random 8;
#X obj 272 490 - 24;
#X obj 85 51 inlet;
#X text 126 49 inlet receives beat count;
#X text 373 173 choose which beat to trigger a sound on;
#X text 384 295 what note to play;
#X text 330 311 only numbers 7 \, 1 \, 2 \, 3 \, 4 \, 5 will trigger
notes;
#X text 349 326 any other value will trigger nothing;
#X text 261 282 if this beat is a trigger use a random number to work
out;
#X text 380 381 selection of note values to play (midi);
#X obj 272 542 outlet;
#X text 302 490 transpose all output note values by 2 octaves;
#X text 316 541 note value output;
#X text 363 12 RANDOM NOTE GENERATOR;
#X obj 318 51 inlet;
#X text 361 50 inlet receives random range;
#X text 361 62 used to control how often a note plays;
#X connect 0 0 7 0;
#X connect 1 0 7 0;
#X connect 2 0 7 0;
#X connect 3 0 7 0;
#X connect 4 0 7 0;
#X connect 5 0 7 0;
#X connect 6 0 7 0;
#X connect 7 0 12 0;
#X connect 8 0 11 0;
#X connect 9 0 8 0;
#X connect 9 2 8 0;
#X connect 9 4 8 0;
#X connect 9 6 8 0;
#X connect 9 8 8 0;
#X connect 9 10 8 0;
#X connect 9 12 8 0;
#X connect 9 14 8 0;
#X connect 10 0 0 0;
#X connect 10 1 1 0;
#X connect 10 2 2 0;
#X connect 10 3 3 0;
#X connect 10 4 4 0;
#X connect 10 5 5 0;
#X connect 10 6 6 0;
#X connect 11 0 10 0;
#X connect 12 0 21 0;
#X connect 13 0 9 0;
#X connect 25 0 11 1;
#X restore 27 -89 pd seq2;
#X floatatom 100 -259 0 0 0 0 - - -;
#X text 124 -270 current beat;
#X obj 64 -145 vsl 15 50 0 30 0 0 empty empty prob 0 -8 0 8 -262144
-1 -1 1307 1;
#X text 326 -105 0 will never play;
#X obj 185 -12 instrument3;
#N canvas 0 0 1009 705 seq3 0;
#X obj 85 51 inlet;
#X text 126 49 inlet receives beat count;
#X text 368 126 choose which beat to trigger a sound on;
#X text 443 262 what note to play;
#X text 408 293 any other value will trigger nothing;
#X text 320 249 if this beat is a trigger use a random number to work
out;
#X text 376 327 selection of note values to play (midi);
#X obj 227 616 outlet;
#X text 271 615 note value output;
#X text 362 10 RANDOM NOTE GENERATOR;
#X obj 318 51 inlet;
#X text 361 50 inlet receives random range;
#X text 361 62 used to control how often a note plays;
#X msg 180 323 84;
#X msg 205 323 85;
#X msg 233 325 87;
#X msg 261 326 89;
#X msg 289 326 90;
#X msg 318 323 92;
#X msg 346 323 94;
#X floatatom 228 382 0 0 0 0 - - -;
#X obj 188 250 select 7 1 2 3 4 5 6;
#X obj 191 222 random 8;
#X obj 227 548 - 24;
#X msg 192 190 bang;
#X obj 297 458 random 4;
#X msg 297 431 bang;
#X obj 297 482 sel 0 1;
#X msg 246 499 36;
#X msg 266 524 24;
#X obj 80 122 select 0 4 8 6 10 12 14 16 18 22 24 2 26 28 30;
#X text 389 278 only certain numbers will trigger notes;
#X text 336 428 Another random generator;
#X text 355 443 triggered every time a note is played;
#X text 350 482 changes the transposition value if random number is
0 or 1;
#X text 259 549 transpose the note value by a specified amount;
#X connect 0 0 30 0;
#X connect 10 0 22 1;
#X connect 13 0 20 0;
#X connect 14 0 20 0;
#X connect 15 0 20 0;
#X connect 16 0 20 0;
#X connect 17 0 20 0;
#X connect 18 0 20 0;
#X connect 19 0 20 0;
#X connect 20 0 23 0;
#X connect 20 0 26 0;
#X connect 21 0 13 0;
#X connect 21 1 14 0;
#X connect 21 2 15 0;
#X connect 21 3 16 0;
#X connect 21 4 17 0;
#X connect 21 5 18 0;
#X connect 21 6 19 0;
#X connect 22 0 21 0;
#X connect 23 0 7 0;
#X connect 24 0 22 0;
#X connect 25 0 27 0;
#X connect 26 0 25 0;
#X connect 27 0 28 0;
#X connect 27 1 29 0;
#X connect 28 0 23 1;
#X connect 29 0 23 1;
#X connect 30 0 24 0;
#X connect 30 1 24 0;
#X connect 30 2 24 0;
#X connect 30 3 24 0;
#X connect 30 4 24 0;
#X connect 30 5 24 0;
#X connect 30 6 24 0;
#X connect 30 7 24 0;
#X connect 30 8 24 0;
#X connect 30 9 24 0;
#X connect 30 10 24 0;
#X connect 30 11 24 0;
#X connect 30 12 24 0;
#X connect 30 13 24 0;
#X connect 30 14 24 0;
#X restore 185 -79 pd seq3;
#X obj 222 -137 vsl 15 50 0 30 0 0 empty empty prob 0 -8 0 8 -262144
-1 -1 1307 1;
#N canvas 0 0 1009 705 seq4 0;
#X msg 67 253 84;
#X msg 92 253 85;
#X msg 120 255 87;
#X msg 148 256 89;
#X msg 176 256 90;
#X msg 205 253 92;
#X msg 233 253 94;
#X floatatom 174 331 0 0 0 0 - - -;
#X obj 94 198 select 7 1 2 3 4 5 6;
#X obj 94 170 random 8;
#X obj 175 542 - 24;
#X msg 94 138 bang;
#X obj 198 449 random 4;
#X msg 198 424 bang;
#X obj 198 473 sel 0 1;
#X msg 194 509 36;
#X msg 223 508 24;
#X obj 78 55 select 0 4 8 6 10 12 14 16 18 22 24 2 26 28 30;
#X obj 78 9 inlet;
#X obj 174 598 outlet;
#X text 121 10 inlet receives beat count;
#X text 327 72 choose which beat to trigger a sound on;
#X text 335 188 what note to play;
#X text 300 219 any other value will trigger nothing;
#X text 203 169 if this beat is a trigger use a random number to work
out;
#X text 268 253 selection of note values to play (midi);
#X text 222 599 note value output;
#X text 359 -4 RANDOM NOTE GENERATOR;
#X text 483 18 inlet receives random range;
#X text 483 30 used to control how often a note plays;
#X text 281 204 only certain numbers will trigger notes;
#X text 254 443 Another random generator;
#X text 273 458 triggered every time a note is played;
#X text 268 497 changes the transposition value if random number is
0 or 1;
#X text 205 542 transpose the note value by a specified amount;
#X obj 437 23 inlet;
#X connect 0 0 7 0;
#X connect 1 0 7 0;
#X connect 2 0 7 0;
#X connect 3 0 7 0;
#X connect 4 0 7 0;
#X connect 5 0 7 0;
#X connect 6 0 7 0;
#X connect 7 0 10 0;
#X connect 7 0 13 0;
#X connect 8 0 0 0;
#X connect 8 1 1 0;
#X connect 8 2 2 0;
#X connect 8 3 3 0;
#X connect 8 4 4 0;
#X connect 8 5 5 0;
#X connect 8 6 6 0;
#X connect 9 0 8 0;
#X connect 10 0 19 0;
#X connect 11 0 9 0;
#X connect 12 0 14 0;
#X connect 13 0 12 0;
#X connect 14 0 15 0;
#X connect 14 1 16 0;
#X connect 15 0 10 1;
#X connect 16 0 10 1;
#X connect 17 0 11 0;
#X connect 17 1 11 0;
#X connect 17 2 11 0;
#X connect 17 3 11 0;
#X connect 17 4 11 0;
#X connect 17 5 11 0;
#X connect 17 6 11 0;
#X connect 17 7 11 0;
#X connect 17 8 11 0;
#X connect 17 9 11 0;
#X connect 17 10 11 0;
#X connect 17 11 11 0;
#X connect 17 12 11 0;
#X connect 17 13 11 0;
#X connect 17 14 11 0;
#X connect 18 0 17 0;
#X connect 35 0 9 1;
#X restore 103 -84 pd seq4;
#X obj 103 -14 instrument4;
#X obj 142 -144 vsl 15 50 0 30 0 0 empty empty prob 0 -8 0 8 -262144
-1 -1 1307 1;
#X obj 307 -138 vsl 15 50 0 30 0 0 empty empty prob 0 -8 0 8 -262144
-1 -1 1307 1;
#X msg 189 -189 8;
#X obj 189 -218 loadbang;
#X text 326 -117 < high probability;
#X text 328 -151 < low probability;
#X obj 280 48 loadbang;
#X text 245 -218 set all initial;
#X text 245 -207 probabilities to 8;
#X obj 606 149 loadbang;
#X msg 606 177 \; pd dsp 1 \;;
#X text 667 184 turn on audio;
#X text 352 122 <<<<< you can control pan from here;
#X text 296 168 << look in here for a simple pan abstraction;
#X obj 12 -49 cnv 15 800 10 empty empty empty 20 12 0 14 -233017 -66577
0;
#X obj 3 31 cnv 15 800 10 empty empty empty 20 12 0 14 -233017 -66577
0;
#X obj 5 -238 cnv 15 800 10 empty empty empty 20 12 0 14 -233017 -66577
0;
#X text 305 68 comment;
#X text 307 89 set initial pans;
#X msg 118 87 40;
#X msg 278 90 30;
#X msg 198 88 20;
#X msg 38 87 70;
#X text 31 -397 EXAMPLE PD SEMI-GENERATIVE PATCH;
#X text 28 -383 ------------------------------------;
#X text 469 -351 This set of patches consists of 4 main sections;
#X text 534 -321 1 CLOCK;
#X text 534 -307 The clock patch just keeps time and spits out;
#X text 532 -294 beat and bar counts;
#X text 542 -208 2 SEQUENCERS / NOTE VALUE GENERATORS;
#X text 538 -192 This section takes the current beat and;
#X text 536 -177 selects a semi random note value to pass on to;
#X text 535 -161 the instruments to play;
#X text 320 -82 <<<<< note value generation subpatches;
#X text 345 1 (abstractions) are here;
#X text 345 -15 <<<<< all instrument subpatches;
#X text 566 -35 3 INSTRUMENTS / WAVE GENERATORS;
#X text 547 -17 This section contains 4 different wave generators;
#X text 541 -3 Each one takes the note values from the sequencers;
#X text 542 11 above and outputs an audio signal at the correct pitch
;
#X text 538 -141 (note:as they are not easily re-useable;
#X text 538 -129 the sequencers are embedded 'pd blah' subpatches)
;
#X text 509 59 4 MIXING SECTION;
#X text 500 75 This section includes some basic panning abstractions
;
#X text 497 89 and a simple output mixer that adds some reverb to the
mix;
#X text 185 257 << look in here for a simple output abstraction;
#X text 607 249 tom@nullpointer.co.uk;
#X text 607 262 http://www.nullpointer.co.uk;
#X obj 3 -362 cnv 15 800 10 empty empty empty 20 12 0 14 -233017 -66577
0;
#X text 259 -389 See below and the Readme.txt for more info;
#X text 665 147 initialise stuff;
#X text 667 216 holds conversion tables;
#X obj 153 -349 loadbang;
#X text 213 -327 tempos \, start with 208;
#X connect 0 0 29 0;
#X connect 1 0 0 1;
#X connect 2 0 0 0;
#X connect 5 0 0 2;
#X connect 6 0 5 0;
#X connect 7 0 5 0;
#X connect 10 0 11 0;
#X connect 10 1 11 1;
#X connect 12 0 10 1;
#X connect 13 0 11 2;
#X connect 14 0 12 0;
#X connect 15 0 11 0;
#X connect 15 1 11 1;
#X connect 16 0 15 1;
#X connect 17 0 16 0;
#X connect 19 0 11 0;
#X connect 19 1 11 1;
#X connect 20 0 19 1;
#X connect 21 0 20 0;
#X connect 22 0 11 0;
#X connect 22 1 11 1;
#X connect 23 0 22 1;
#X connect 24 0 23 0;
#X connect 25 0 22 0;
#X connect 26 0 25 0;
#X connect 27 0 19 0;
#X connect 28 0 27 0;
#X connect 29 0 28 0;
#X connect 29 0 34 0;
#X connect 29 0 26 0;
#X connect 29 0 36 0;
#X connect 31 0 28 1;
#X connect 33 0 15 0;
#X connect 34 0 33 0;
#X connect 35 0 34 1;
#X connect 36 0 37 0;
#X connect 37 0 10 0;
#X connect 38 0 36 1;
#X connect 39 0 26 1;
#X connect 40 0 39 0;
#X connect 40 0 38 0;
#X connect 40 0 35 0;
#X connect 40 0 31 0;
#X connect 41 0 40 0;
#X connect 44 0 60 0;
#X connect 44 0 57 0;
#X connect 44 0 59 0;
#X connect 44 0 58 0;
#X connect 47 0 48 0;
#X connect 57 0 14 0;
#X connect 58 0 24 0;
#X connect 59 0 17 0;
#X connect 60 0 21 0;
#X connect 90 0 6 0;
