#N canvas 130 147 1009 705 10;
#X obj 237 73 inlet~;
#X obj 307 73 inlet~;
#X obj 569 63 inlet;
#X obj 256 461 dac~;
#X text 375 20 OUTPUT MIXER PATCH;
#X text 379 36 (abstraction);
#X text 151 69 stereo inputs;
#X text 606 62 volume control input;
#X obj 593 99 loadbang;
#X obj 335 244 reverb;
#X obj 354 132 loadbang;
#X text 377 241 add some reverb to make it nicer!!;
#X text 308 170 input level \, feedback;
#X msg 378 199 95;
#X obj 303 377 *~;
#X obj 233 377 *~;
#X obj 568 184 / 100;
#X text 327 377 calculate overall volume;
#X msg 349 198 67;
#X msg 593 134 55;
#X text 648 97 default value of 55;
#X text 513 260 reverb is taken from PD docs;
#X text 513 271 I'm not gonna explain it here;
#X text 511 282 but its a load of delays and;
#X text 511 293 some lowpass filters;
#X text 507 306 (needs reverb.pd and echo.pd files);
#X connect 0 0 15 0;
#X connect 0 0 9 0;
#X connect 1 0 14 0;
#X connect 1 0 9 0;
#X connect 2 0 16 0;
#X connect 8 0 19 0;
#X connect 9 0 15 0;
#X connect 9 1 14 0;
#X connect 10 0 18 0;
#X connect 10 0 13 0;
#X connect 13 0 9 2;
#X connect 14 0 3 1;
#X connect 15 0 3 0;
#X connect 16 0 14 1;
#X connect 16 0 15 1;
#X connect 18 0 9 1;
#X connect 19 0 16 0;
