#N canvas 21 27 1205 890 10;
#X obj 231 -487 loadbang;
#X obj 621 405 soundoutput;
#X obj 525 -438 r #accelerate;
#X obj 525 -402 unpack 0 0 0;
#X obj 215 -218 tabwrite \$0wave1;
#X msg 196 -533 bang;
#X msg 301 -373 0;
#X obj 237 -404 t b b;
#X obj 239 -339 line 0 1;
#X obj 333 -256 float;
#X obj 239 -309 t b f;
#X obj 205 -184 tabwrite \$0wave2;
#X obj 344 -217 float;
#X obj 201 -146 tabwrite \$0wave3;
#X obj 352 -173 float;
#X obj 166 -343 vsl 8 128 0 127 0 1 sp5 rp5 empty 0 -8 0 8 -262144
-1 -1 1700 1;
#X obj -27 -276 vsl 8 128 0 127 0 1 empty empty empty 0 -8 0 8 -262144
-1 -1 1070 1;
#X obj -20 -114 mtof~;
#X obj 100 -146 mtof~;
#X obj 110 -167 +~;
#X obj -19 -140 +~;
#X obj 34 -443 vsl 8 128 0 127 0 1 sp4 rp4 empty 0 -8 0 8 -262144 -1
-1 3800 1;
#X obj 32 -295 mtof;
#X obj 163 -192 *~;
#X obj 186 -371 vsl 8 128 0 127 0 1 sp6 rp6 empty 0 -8 0 8 -262144
-1 -1 3900 1;
#X obj 1 -166 *~;
#X obj -5 -320 vsl 8 128 0 127 0 1 sp3 rp3 empty 0 -8 0 8 -262144 -1
-1 1100 1;
#X obj 31 -272 tabosc4~ \$0wave1;
#X obj 92 -118 tabosc4~ \$0wave2;
#X obj -22 -64 tabosc4~ \$0wave3;
#X obj 478 -153 table \$0wave1 515;
#X obj 476 -127 table \$0wave2 515;
#X obj 477 -100 table \$0wave3 515;
#X obj 33 -222 lop~ 100;
#N canvas 0 0 613 632 noisefilter 0;
#X obj -206 260 -;
#X obj -225 204 t f f b;
#X obj -184 239 f 0;
#X obj -153 703 *~;
#X obj -246 529 line~;
#X obj -225 179 f;
#X obj -64 275 * 5000;
#X obj -227 138 metro 15;
#X obj 115 232 hsl 128 8 150 15 0 1 empty empty rate -2 -6 0 8 -262144
-1 -1 6700 1;
#X obj -205 353 pack f 20;
#X obj -206 283 abs;
#X obj 115 291 hsl 128 8 0 1 0 1 empty empty resonance -2 -6 0 8 -262144
-1 -1 9700 1;
#X obj 115 272 hsl 128 8 0 -10000 0 1 empty empty filter_env -2 -6
0 8 -262144 -1 -1 11700 1;
#X obj -205 305 *;
#X obj -205 329 clip 0 1;
#X obj 115 252 hsl 128 8 1 3 0 1 empty empty mod_adjust -2 -6 0 8 -262144
-1 -1 9000 1;
#X obj -69 311 + 300;
#N canvas 104 133 920 632 simple_reson_lp1 0;
#X obj -19 398 cpole~;
#X obj 31 440 czero~;
#X obj 27 494 outlet~;
#X obj -173 141 inlet~;
#X obj -53 364 *~;
#X obj 31 118 /~ 2;
#X obj 32 238 cos~;
#X obj 95 182 -~ 0.25;
#X obj 96 203 cos~;
#X obj 96 256 *~;
#X obj 225 183 clip~ 0.05 0.99;
#X obj 236 146 inlet~;
#X obj -60 305 *~;
#X obj -81 266 +~ 2;
#X obj -84 237 *~ 0.5;
#X obj -27 279 -~;
#X obj 32 90 clip~ 0 1;
#X obj 36 34 /~ 11025;
#X obj 34 5 inlet~;
#X text -123 141 audio in;
#X text 81 5 cutoff;
#X text 287 143 resonance;
#X text 55 368 zero at nyquist;
#X text 99 35 1/4 samplerate;
#X text -128 198 attenuation factor;
#X text -128 214 (1-x)*(1/2*angle+2);
#X text 70 118 pi/2 for audio cos;
#X text -256 396 pole: cos(angle) \, sin(angle)+res;
#X text 39 220 cosine;
#X text 147 191 sine;
#X text -310 363 multiply input by attenuation factor;
#X text -404 106 4/2008 martin brinkmann;
#X text -405 8 slightly crude (especially the attenuatiun factor) lowpass
filter design \, made without knowing too much of the math involved.
frequency is not very exact \, but at least it sounds like a reson
filter :-);
#X text -404 63 a pole is moved along the unit-circle on a kind of
rugby-egg-shaped path \, while a zero sits at -1 \, 0 (nyquist frequency)
\, which makes a resonant lowpass filter.;
#X text 100 54 cutoff (or angle on the unit circle \, usually 0..pi
(0..nyquist) \, but here 0..0.5 because of the cos~ audio object);
#X obj -32 246 sig~ 1;
#X obj 45 393 sig~ -1;
#X obj 104 393 sig~ 0;
#X obj -36 334 *~ 0.5;
#X connect 0 0 1 0;
#X connect 0 1 1 1;
#X connect 1 0 2 0;
#X connect 3 0 4 0;
#X connect 4 0 0 0;
#X connect 5 0 7 0;
#X connect 5 0 6 0;
#X connect 6 0 0 2;
#X connect 6 0 15 1;
#X connect 7 0 8 0;
#X connect 8 0 9 0;
#X connect 9 0 0 3;
#X connect 10 0 9 1;
#X connect 11 0 10 0;
#X connect 12 0 38 0;
#X connect 13 0 12 0;
#X connect 14 0 13 0;
#X connect 15 0 12 1;
#X connect 16 0 5 0;
#X connect 16 0 14 0;
#X connect 17 0 16 0;
#X connect 18 0 17 0;
#X connect 35 0 15 0;
#X connect 36 0 1 2;
#X connect 37 0 1 3;
#X connect 38 0 4 1;
#X restore -99 641 pd simple_reson_lp1;
#X obj -131 680 clip~ -1 1;
#X obj -143 423 *~;
#X obj -119 466 +~;
#X obj -164 379 line~;
#X obj -73 529 clip~ 40 20000;
#X obj -156 740 outlet~;
#X msg -186 75 bang;
#X obj -142 551 inlet~;
#X obj 146 31 inlet;
#X obj 166 74 clip 0 1;
#X connect 0 0 10 0;
#X connect 1 0 2 1;
#X connect 1 1 0 0;
#X connect 1 2 2 0;
#X connect 2 0 0 1;
#X connect 3 0 23 0;
#X connect 4 0 3 0;
#X connect 5 0 1 0;
#X connect 6 0 16 0;
#X connect 7 0 5 0;
#X connect 8 0 7 1;
#X connect 8 0 24 0;
#X connect 9 0 4 0;
#X connect 9 0 21 0;
#X connect 10 0 13 0;
#X connect 11 0 17 2;
#X connect 12 0 19 1;
#X connect 13 0 14 0;
#X connect 14 0 9 0;
#X connect 15 0 13 1;
#X connect 16 0 20 1;
#X connect 17 0 18 0;
#X connect 18 0 3 1;
#X connect 19 0 20 0;
#X connect 20 0 22 0;
#X connect 21 0 19 0;
#X connect 22 0 17 1;
#X connect 24 0 7 0;
#X connect 25 0 17 0;
#X connect 26 0 27 0;
#X connect 27 0 5 1;
#X connect 27 0 6 0;
#X coords 0 0 1 1 140 120 0;
#X restore 440 68 pd noisefilter;
#X obj 326 -47 line;
#X obj 392 -308 line;
#X obj 394 -337 pack \$1 10;
#X obj 441 -272 line;
#X obj 444 -299 pack \$1 10;
#X obj 500 -249 line;
#X obj 524 -278 pack \$1 10;
#X obj 301 -74 pack \$1 70;
#X obj 21 -193 lop~ 200;
#X msg 904 -132 bang;
#X msg 215 -372 515 1000;
#X obj 407 -365 * 2;
#X obj 486 -328 * 2;
#X obj 540 -305 * 2;
#X obj 97 -97 hip~ 10;
#X obj 0 -27 hip~ 10;
#X obj 28 -250 hip~ 10;
#X obj 238 -440 metro 1000;
#X msg 410 167 70;
#X obj 292 156 lop~ 70;
#X obj 278 280 delread~ \$0mdl1;
#X obj 276 231 random 500;
#X obj 278 253 + 100;
#X obj 250 117 +~;
#X msg 273 205 bang;
#X obj 202 240 *~ 0.95;
#X obj 309 183 vcf~ 5;
#X obj 316 206 delwrite~ \$0mdl1 2000;
#X obj 512 250 + 100;
#X obj 484 114 +~;
#X msg 507 202 bang;
#X obj 439 254 *~ 0.95;
#X obj 543 180 vcf~ 5;
#X obj 512 277 delread~ \$0mdl2;
#X obj 526 153 hip~ 150;
#X msg 645 164 150;
#X obj 740 262 + 100;
#X obj 712 126 +~;
#X msg 735 214 bang;
#X obj 671 272 *~ 0.95;
#X obj 771 192 vcf~ 5;
#X msg 864 171 300;
#X obj 754 165 hip~ 300;
#X obj 740 289 delread~ \$0mdl3;
#X obj 434 -144 +;
#X obj 434 -112 +;
#X obj 306 -102 abs;
#X obj 358 -23 * 0.2;
#X obj 982 281 + 100;
#X obj 954 145 +~;
#X msg 977 233 bang;
#X obj 913 291 *~ 0.95;
#X obj 1013 211 vcf~ 5;
#X obj 982 308 delread~ \$0mdl4;
#X obj 997 184 hip~ 700;
#X msg 1106 190 700;
#X obj 1237 270 + 100;
#X obj 1209 134 +~;
#X msg 1232 222 bang;
#X obj 1168 280 *~ 0.95;
#X obj 1268 200 vcf~ 5;
#X obj 1235 248 random 800;
#X obj 980 259 random 800;
#X obj 738 240 random 800;
#X obj 510 228 random 800;
#X obj 550 203 delwrite~ \$0mdl2 1000;
#X obj 778 215 delwrite~ \$0mdl3 1000;
#X obj 1020 234 delwrite~ \$0mdl4 1000;
#X obj 1252 173 hip~ 1500;
#X msg 1361 179 1500;
#X obj 1275 224 delwrite~ \$0mdl5 1000;
#X obj 1219 300 delread~ \$0mdl5;
#N canvas 213 391 665 482 fix-pan-mix5 0;
#X obj 41 38 inlet~;
#X obj 109 41 inlet~;
#X obj 55 225 outlet~;
#X obj 180 226 outlet~;
#X obj 201 37 inlet~;
#X obj 293 42 inlet~;
#X obj 387 40 inlet~;
#N canvas 0 0 450 300 pan1 0;
#X obj 120 15 inlet;
#X obj 297 51 inlet~;
#X obj 256 225 outlet~;
#X obj 336 218 outlet~;
#X obj 251 149 *~;
#X obj 323 154 *~;
#X obj 276 122 + 1;
#X obj 335 113 * -1;
#X obj 208 75 * -1;
#X obj 160 42 clip 0 1;
#X connect 0 0 9 0;
#X connect 1 0 4 0;
#X connect 1 0 5 1;
#X connect 4 0 2 0;
#X connect 5 0 3 0;
#X connect 6 0 4 1;
#X connect 7 0 5 0;
#X connect 8 0 6 0;
#X connect 8 0 7 0;
#X connect 9 0 8 0;
#X restore 22 105 pd pan1;
#X msg 9 79 0.61;
#N canvas 0 0 450 300 pan1 0;
#X obj 120 15 inlet;
#X obj 297 51 inlet~;
#X obj 256 225 outlet~;
#X obj 336 218 outlet~;
#X obj 251 149 *~;
#X obj 323 154 *~;
#X obj 276 122 + 1;
#X obj 335 113 * -1;
#X obj 208 75 * -1;
#X obj 160 42 clip 0 1;
#X connect 0 0 9 0;
#X connect 1 0 4 0;
#X connect 1 0 5 1;
#X connect 4 0 2 0;
#X connect 5 0 3 0;
#X connect 6 0 4 1;
#X connect 7 0 5 0;
#X connect 8 0 6 0;
#X connect 8 0 7 0;
#X connect 9 0 8 0;
#X restore 102 110 pd pan1;
#X msg 91 78 0.425;
#N canvas 0 0 450 300 pan1 0;
#X obj 120 15 inlet;
#X obj 297 51 inlet~;
#X obj 256 225 outlet~;
#X obj 336 218 outlet~;
#X obj 251 149 *~;
#X obj 323 154 *~;
#X obj 276 122 + 1;
#X obj 335 113 * -1;
#X obj 208 75 * -1;
#X obj 160 42 clip 0 1;
#X connect 0 0 9 0;
#X connect 1 0 4 0;
#X connect 1 0 5 1;
#X connect 4 0 2 0;
#X connect 5 0 3 0;
#X connect 6 0 4 1;
#X connect 7 0 5 0;
#X connect 8 0 6 0;
#X connect 8 0 7 0;
#X connect 9 0 8 0;
#X restore 183 101 pd pan1;
#X msg 170 75 0.555;
#N canvas 0 0 450 300 pan1 0;
#X obj 120 15 inlet;
#X obj 297 51 inlet~;
#X obj 256 225 outlet~;
#X obj 336 218 outlet~;
#X obj 251 149 *~;
#X obj 323 154 *~;
#X obj 276 122 + 1;
#X obj 335 113 * -1;
#X obj 208 75 * -1;
#X obj 160 42 clip 0 1;
#X connect 0 0 9 0;
#X connect 1 0 4 0;
#X connect 1 0 5 1;
#X connect 4 0 2 0;
#X connect 5 0 3 0;
#X connect 6 0 4 1;
#X connect 7 0 5 0;
#X connect 8 0 6 0;
#X connect 8 0 7 0;
#X connect 9 0 8 0;
#X restore 261 112 pd pan1;
#X msg 260 78 0.4125;
#N canvas 0 0 450 300 pan1 0;
#X obj 120 15 inlet;
#X obj 297 51 inlet~;
#X obj 256 225 outlet~;
#X obj 336 218 outlet~;
#X obj 251 149 *~;
#X obj 323 154 *~;
#X obj 276 122 + 1;
#X obj 335 113 * -1;
#X obj 208 75 * -1;
#X obj 160 42 clip 0 1;
#X connect 0 0 9 0;
#X connect 1 0 4 0;
#X connect 1 0 5 1;
#X connect 4 0 2 0;
#X connect 5 0 3 0;
#X connect 6 0 4 1;
#X connect 7 0 5 0;
#X connect 8 0 6 0;
#X connect 8 0 7 0;
#X connect 9 0 8 0;
#X restore 341 108 pd pan1;
#X msg 338 77 0.4625;
#X obj 179 -171 t b b;
#X obj -11 -82 random 100;
#X obj -8 -61 / 400;
#X msg -6 -4 set \$1;
#X obj -7 -36 + 0.375;
#X obj 87 -80 random 100;
#X obj 90 -59 / 400;
#X msg 92 -2 set \$1;
#X obj 91 -34 + 0.375;
#X obj 178 -72 random 100;
#X obj 181 -51 / 400;
#X msg 183 6 set \$1;
#X obj 182 -26 + 0.375;
#X obj 273 -68 random 100;
#X obj 276 -47 / 400;
#X msg 278 10 set \$1;
#X obj 277 -22 + 0.375;
#X obj 375 -89 random 100;
#X obj 378 -68 / 400;
#X msg 380 -11 set \$1;
#X obj 379 -43 + 0.375;
#X obj 174 -212 loadbang;
#X connect 0 0 7 1;
#X connect 1 0 9 1;
#X connect 4 0 11 1;
#X connect 5 0 13 1;
#X connect 6 0 15 1;
#X connect 7 0 2 0;
#X connect 7 1 3 0;
#X connect 8 0 7 0;
#X connect 9 0 2 0;
#X connect 9 1 3 0;
#X connect 10 0 9 0;
#X connect 11 0 2 0;
#X connect 11 1 3 0;
#X connect 12 0 11 0;
#X connect 13 0 2 0;
#X connect 13 1 3 0;
#X connect 14 0 13 0;
#X connect 15 0 2 0;
#X connect 15 1 3 0;
#X connect 16 0 15 0;
#X connect 17 0 8 0;
#X connect 17 0 10 0;
#X connect 17 0 12 0;
#X connect 17 0 14 0;
#X connect 17 0 16 0;
#X connect 17 1 18 0;
#X connect 17 1 22 0;
#X connect 17 1 26 0;
#X connect 17 1 30 0;
#X connect 17 1 34 0;
#X connect 18 0 19 0;
#X connect 19 0 21 0;
#X connect 20 0 8 0;
#X connect 21 0 20 0;
#X connect 22 0 23 0;
#X connect 23 0 25 0;
#X connect 24 0 10 0;
#X connect 25 0 24 0;
#X connect 26 0 27 0;
#X connect 27 0 29 0;
#X connect 28 0 12 0;
#X connect 29 0 28 0;
#X connect 30 0 31 0;
#X connect 31 0 33 0;
#X connect 32 0 14 0;
#X connect 33 0 32 0;
#X connect 34 0 35 0;
#X connect 35 0 37 0;
#X connect 36 0 16 0;
#X connect 37 0 36 0;
#X connect 38 0 17 0;
#X restore 610 365 pd fix-pan-mix5;
#X obj 120 21 *~ 1.5;
#X connect 0 0 52 0;
#X connect 0 0 44 0;
#X connect 2 0 3 0;
#X connect 3 0 46 0;
#X connect 3 1 47 0;
#X connect 3 2 48 0;
#X connect 5 0 52 0;
#X connect 5 0 44 0;
#X connect 6 0 8 0;
#X connect 7 0 45 0;
#X connect 7 1 6 0;
#X connect 8 0 10 0;
#X connect 9 0 4 0;
#X connect 10 0 9 0;
#X connect 10 0 12 0;
#X connect 10 0 14 0;
#X connect 10 1 4 1;
#X connect 10 1 11 1;
#X connect 10 1 13 1;
#X connect 12 0 11 0;
#X connect 14 0 13 0;
#X connect 15 0 19 0;
#X connect 16 0 20 0;
#X connect 17 0 29 0;
#X connect 18 0 28 0;
#X connect 19 0 18 0;
#X connect 20 0 17 0;
#X connect 21 0 22 0;
#X connect 22 0 27 0;
#X connect 23 0 19 1;
#X connect 24 0 23 1;
#X connect 25 0 20 1;
#X connect 26 0 25 0;
#X connect 27 0 51 0;
#X connect 28 0 49 0;
#X connect 29 0 50 0;
#X connect 33 0 23 0;
#X connect 34 0 58 0;
#X connect 34 0 64 0;
#X connect 34 0 72 0;
#X connect 34 0 84 0;
#X connect 34 0 92 0;
#X connect 35 0 82 0;
#X connect 36 0 9 1;
#X connect 36 0 79 0;
#X connect 37 0 36 0;
#X connect 38 0 12 1;
#X connect 38 0 79 1;
#X connect 39 0 38 0;
#X connect 40 0 14 1;
#X connect 40 0 80 1;
#X connect 41 0 40 0;
#X connect 42 0 35 0;
#X connect 43 0 25 1;
#X connect 44 0 53 0;
#X connect 44 0 70 0;
#X connect 44 0 76 0;
#X connect 44 0 90 0;
#X connect 44 0 104 0;
#X connect 45 0 8 0;
#X connect 46 0 37 0;
#X connect 47 0 39 0;
#X connect 48 0 41 0;
#X connect 49 0 43 0;
#X connect 49 0 108 0;
#X connect 50 0 108 0;
#X connect 51 0 33 0;
#X connect 52 0 7 0;
#X connect 53 0 59 0;
#X connect 53 0 61 1;
#X connect 54 0 61 0;
#X connect 55 0 60 0;
#X connect 55 0 107 0;
#X connect 56 0 57 0;
#X connect 57 0 55 0;
#X connect 58 0 54 0;
#X connect 59 0 56 0;
#X connect 60 0 58 1;
#X connect 61 0 62 0;
#X connect 63 0 68 0;
#X connect 64 0 69 0;
#X connect 65 0 99 0;
#X connect 66 0 64 1;
#X connect 67 0 100 0;
#X connect 68 0 66 0;
#X connect 68 0 107 1;
#X connect 69 0 67 0;
#X connect 70 0 65 0;
#X connect 70 0 67 1;
#X connect 71 0 78 0;
#X connect 72 0 77 0;
#X connect 73 0 98 0;
#X connect 74 0 72 1;
#X connect 75 0 101 0;
#X connect 76 0 73 0;
#X connect 76 0 75 1;
#X connect 77 0 75 0;
#X connect 78 0 74 0;
#X connect 78 0 107 2;
#X connect 79 0 80 0;
#X connect 80 0 81 0;
#X connect 81 0 42 0;
#X connect 82 0 34 1;
#X connect 83 0 88 0;
#X connect 84 0 89 0;
#X connect 85 0 97 0;
#X connect 86 0 84 1;
#X connect 87 0 102 0;
#X connect 88 0 86 0;
#X connect 88 0 107 3;
#X connect 89 0 87 0;
#X connect 90 0 85 0;
#X connect 90 0 87 1;
#X connect 91 0 106 0;
#X connect 92 0 103 0;
#X connect 93 0 96 0;
#X connect 94 0 92 1;
#X connect 95 0 105 0;
#X connect 96 0 91 0;
#X connect 97 0 83 0;
#X connect 98 0 71 0;
#X connect 99 0 63 0;
#X connect 103 0 95 0;
#X connect 104 0 93 0;
#X connect 104 0 95 1;
#X connect 106 0 94 0;
#X connect 106 0 107 4;
#X connect 107 0 1 0;
#X connect 107 1 1 1;
#X connect 108 0 34 0;
