#N canvas 335 137 1413 747 10;
#X obj 596 244 table \$0gs1len 10;
#X obj 601 316 table \$0gs1pos 10;
#X obj 603 184 table \$0gs1dens 10;
#X obj 114 462 tabread4 \$0gs1pos;
#X obj -154 370 tabread4 \$0gs1len;
#X obj -93 40 inlet;
#X obj -361 297 tabread4 \$0gs1dens;
#X obj -93 66 + 1;
#X obj 169 48 inlet;
#X obj 169 74 + 1;
#X obj -315 485 +;
#X obj 454 -15 inlet;
#X text 496 -14 thinner;
#X obj 426 37 *;
#X obj -162 515 * 1;
#X obj 575 -30 inlet;
#X obj 540 41 *;
#X obj 538 135 -;
#X msg 525 109 1;
#X obj 535 86 t b f;
#X obj 342 264 +;
#X obj 624 69 inlet;
#X obj 610 121 *;
#X obj 340 286 clip 0 1;
#X obj 540 64 * 0.8;
#X obj -318 535 outlet;
#X text -320 555 dens;
#X text 615 -29 shorter;
#X text 664 69 pitch rand;
#X obj 614 99 t f f;
#X obj 556 16 t f f;
#X obj 444 5 t f f;
#X obj -258 533 outlet;
#X text -261 552 dens rnd;
#X obj 97 579 outlet;
#X obj 157 577 outlet;
#X text 95 599 pos;
#X text 154 596 pos rnd;
#X obj -163 551 outlet;
#X obj -103 549 outlet;
#X text -165 571 len;
#X text -106 568 len rnd;
#X obj -14 546 outlet;
#X text -17 565 ramp;
#X obj -7 437 tabread4 \$0gs1ramp;
#X obj 597 287 table \$0gs1ramp 10;
#X obj 277 314 outlet;
#X obj 337 312 outlet;
#X text 275 334 tp;
#X text 334 331 tp rnd;
#X obj 481 509 outlet;
#X text 478 528 pan rnd;
#X obj 603 206 table \$0gs1densr 10;
#X obj -241 299 tabread4 \$0gs1densr;
#X obj 594 262 table \$0gs1lenr 10;
#X obj -40 369 tabread4 \$0gs1lenr;
#X obj 229 462 tabread4 \$0gs1posr;
#X obj 602 335 table \$0gs1posr 10;
#X obj 626 369 table \$0gs1tp 10;
#X obj 625 390 table \$0gs1tpr 10;
#X obj 630 419 table \$0gs1panr 10;
#X obj 478 463 tabread4 \$0gs1panr;
#X obj 317 118 tabread4 \$0gs1tpr;
#X obj 175 126 tabread4 \$0gs1tp;
#X obj 744 149 \$0;
#X obj 745 104 loadbang;
#X msg 746 124 bang;
#X obj 742 174 outlet;
#X obj 922 677 outlet;
#X obj 589 630 float;
#X obj 912 50 inlet;
#X text 912 31 copy;
#X obj 909 72 t b;
#X obj 713 641 pack f f f f f f f f f;
#X obj -299 444 t b f;
#X obj -137 466 t b f;
#X obj 371 237 t b f;
#X connect 3 0 34 0;
#X connect 3 0 73 5;
#X connect 4 0 14 0;
#X connect 4 0 73 2;
#X connect 5 0 7 0;
#X connect 6 0 10 0;
#X connect 6 0 69 1;
#X connect 7 0 6 0;
#X connect 7 0 4 0;
#X connect 7 0 3 0;
#X connect 7 0 44 0;
#X connect 7 0 53 0;
#X connect 7 0 55 0;
#X connect 7 0 56 0;
#X connect 7 0 61 0;
#X connect 7 0 62 0;
#X connect 8 0 9 0;
#X connect 9 0 63 0;
#X connect 10 0 25 0;
#X connect 11 0 31 0;
#X connect 13 0 74 0;
#X connect 14 0 38 0;
#X connect 15 0 30 0;
#X connect 16 0 24 0;
#X connect 17 0 75 0;
#X connect 18 0 17 0;
#X connect 19 0 18 0;
#X connect 19 1 17 1;
#X connect 20 0 23 0;
#X connect 21 0 29 0;
#X connect 22 0 76 0;
#X connect 23 0 47 0;
#X connect 24 0 19 0;
#X connect 29 0 22 0;
#X connect 29 1 22 1;
#X connect 30 0 16 0;
#X connect 30 1 16 1;
#X connect 31 0 13 0;
#X connect 31 1 13 1;
#X connect 44 0 42 0;
#X connect 44 0 73 4;
#X connect 53 0 32 0;
#X connect 53 0 73 1;
#X connect 55 0 39 0;
#X connect 55 0 73 3;
#X connect 56 0 35 0;
#X connect 56 0 73 6;
#X connect 61 0 50 0;
#X connect 61 0 73 8;
#X connect 62 0 20 0;
#X connect 62 0 73 7;
#X connect 63 0 46 0;
#X connect 64 0 67 0;
#X connect 65 0 66 0;
#X connect 66 0 64 0;
#X connect 69 0 73 0;
#X connect 70 0 72 0;
#X connect 72 0 69 0;
#X connect 73 0 68 0;
#X connect 74 0 10 0;
#X connect 74 1 10 1;
#X connect 75 0 14 0;
#X connect 75 1 14 1;
#X connect 76 0 20 0;
#X connect 76 1 20 1;
