#N canvas 86 237 986 624 10;
#X obj 63 258 dac~;
#X msg 307 -38 52.99 46.02 40.79 60.98 67.98;
#X text 128 -13 endless drone-chords;
#X text 127 5 2/2014 martin brinkmann;
#N canvas 35 128 1616 929 resonatornet5 0;
#N canvas 460 235 839 714 resonator1 0;
#X obj 130 384 inlet~;
#X obj 230 555 outlet~;
#X obj 200 421 mtof;
#X obj 315 376 mtof;
#X msg 266 371 1000;
#X obj 287 411 /;
#X obj 384 54 inlet;
#X obj 234 218 - 1;
#X obj 202 289 *;
#X obj 170 247 float;
#X obj 188 194 t b f;
#X obj 386 141 - 63;
#X obj 387 164 / 64;
#X obj 283 230 t b f;
#X obj 302 445 +;
#X obj 388 186 - 1;
#X obj 387 209 abs;
#X obj 321 344 float;
#X obj 341 302 t b b f;
#X obj 384 238 *;
#X obj 378 261 * -0.2;
#X obj 231 494 abs_rezdelayline1;
#X text 92 31 resonator;
#X obj 228 54 inlet;
#X obj 273 54 inlet;
#X obj 328 55 inlet;
#X text 227 36 damp;
#X text 278 38 feedback;
#X text 338 39 md;
#X text 385 36 pitch;
#X connect 0 0 21 0;
#X connect 2 0 21 3;
#X connect 3 0 5 1;
#X connect 4 0 5 0;
#X connect 5 0 14 0;
#X connect 6 0 13 0;
#X connect 7 0 8 1;
#X connect 8 0 21 1;
#X connect 9 0 8 0;
#X connect 10 0 9 0;
#X connect 10 1 7 0;
#X connect 11 0 12 0;
#X connect 12 0 15 0;
#X connect 13 0 4 0;
#X connect 13 1 17 0;
#X connect 14 0 21 2;
#X connect 15 0 16 0;
#X connect 16 0 19 1;
#X connect 16 0 19 0;
#X connect 17 0 3 0;
#X connect 18 0 4 0;
#X connect 18 1 17 0;
#X connect 18 2 14 1;
#X connect 19 0 20 0;
#X connect 20 0 18 0;
#X connect 21 0 1 0;
#X connect 23 0 11 0;
#X connect 23 0 2 0;
#X connect 24 0 9 0;
#X connect 25 0 10 0;
#X coords 0 714 1 713 140 40 0;
#X restore -151 449 pd resonator1;
#X obj 50 -133 noise~;
#X obj -17 -75 /~;
#X obj -22 -129 sig~ 1;
#X obj -58 105 *~;
#X obj -45 -32 abs~;
#X obj -122 347 *~;
#X obj 128 168 hsl 100 8 0 1 0 1 empty empty lvl -22 4 0 10 -262144
-1 -1 6100 1;
#X obj -113 317 *;
#X obj -104 579 *~;
#X obj 129 215 hsl 100 8 0 1 0 1 empty empty 2 -10 4 0 10 -262144 -1
-1 3100 1;
#X obj -71 555 *;
#X obj 1021 55 throw~ \$0output;
#X obj 55 -185 catch~ \$0output;
#X obj -182 373 catch~ \$0reson1;
#X obj -99 605 throw~ \$0reson2;
#X obj -184 397 hip~ 20;
#X obj 186 150 nbx 5 14 0 127 0 1 empty empty p -8 6 0 10 -262144 -1
-1 52.99 256;
#X obj -224 614 *~;
#X obj 129 226 hsl 100 8 0 1 0 1 empty empty 3 -10 4 0 10 -262144 -1
-1 2300 1;
#X obj -210 590 *;
#X obj -219 639 throw~ \$0reson3;
#N canvas 1 83 450 300 normalizer1 0;
#X obj 93 104 /~;
#X obj 75 45 sig~ 1;
#X obj 144 219 *~;
#X obj 98 186 clip~ 0 1;
#X obj 160 58 inlet~;
#X obj 144 248 outlet~;
#X obj 93 130 abs~;
#X text 149 16 scale signales > -1..1;
#X connect 0 0 6 0;
#X connect 1 0 0 0;
#X connect 2 0 5 0;
#X connect 3 0 2 0;
#X connect 4 0 0 1;
#X connect 4 0 2 1;
#X connect 6 0 3 0;
#X restore -183 424 pd normalizer1;
#X obj -118 675 *~;
#X obj 129 237 hsl 100 8 0 1 0 1 empty empty 4 -10 4 0 10 -262144 -1
-1 3000 1;
#X obj -100 654 *;
#X obj -119 697 throw~ \$0reson4;
#X obj -45 -12 clip~ 0.001 1;
#X obj -172 716 *~;
#X obj 129 248 hsl 100 8 0 1 0 1 empty empty 5 -10 4 0 10 -262144 -1
-1 3100 1;
#X obj -154 695 *;
#X obj -170 739 throw~ \$0reson5;
#X obj 614 -169 *;
#X obj 602 -122 * 10000;
#X obj 604 -145 *;
#X obj 675 -164 *;
#X obj 666 -117 * 10000;
#X obj 668 -140 *;
#X obj 91 -9 *~;
#X obj 303 -92 moses;
#X obj 313 133 hsl 96 8 0.01 1 1 1 empty empty r -10 4 0 10 -262144
-66577 -1 3500 1;
#N canvas 717 79 1076 1000 lopass2p2z 0;
#X obj -50 465 inlet~;
#X obj 129 919 outlet~;
#X obj 73 85 inlet~;
#X obj 87 200 sig~ 1;
#X obj 121 249 /~;
#X obj 219 59 samplerate~;
#X obj 110 376 sig~ 1;
#X obj 147 408 /~;
#X obj 214 340 +~;
#X obj 187 310 sig~ 1;
#X obj 251 318 *~;
#X obj 181 375 +~;
#X obj 112 295 *~;
#X text 41 361 a1/a3;
#X obj 222 407 sig~ 1;
#X obj 296 433 -~;
#X obj 299 457 *~ 2;
#X obj 286 506 *~;
#X obj 409 334 *~;
#X text 276 435 b1;
#X text 384 379 b2;
#X obj 361 397 sig~ 1;
#X obj 392 429 -~;
#X obj 377 512 *~;
#X text 99 246 c;
#X obj 397 462 +~;
#X obj 147 222 expr~ tan($v1);
#X obj 151 194 /~ 44100;
#X obj 129 153 *~ 3.14159;
#X text 408 73 resonance 0..1;
#X text 124 86 cutoff (hz);
#X text 420 186 a2= 2*a1 \, a3=a1;
#X text 420 150 c= 1/tan(pi*cutf/samplerate);
#X text 422 168 a1= 1/(1+res*c+c*c);
#X text 421 204 b1= 2*(1-c*c)*a1;
#X text 421 220 b2= (1-res*c+c*c)*a1;
#X obj 33 690 czero~;
#X obj 59 727 czero~;
#X obj 73 646 sig~ -1;
#X obj 90 670 sig~ 0;
#X obj 90 841 cpole~;
#X obj 129 888 cpole~;
#X obj 296 199 *~ 1.41421;
#X obj 307 148 -~;
#X obj 353 72 inlet~;
#X obj 279 94 sig~ 1;
#X text 28 627 zeros at fixed pos;
#X obj 178 840 *~ -1;
#X obj 184 805 expr~ sqrt($v1);
#X obj -44 595 *~;
#X obj 128 704 *~ -0.5;
#X text 219 845 2nd pole = 1st mirrored on the x axis;
#X text 183 704 b1/2 (x pos);
#X text 267 11 cookbook-like? (i cant remember where i got this from)
lp-filter;
#X obj 163 748 *~;
#X obj 183 781 -~;
#X text 217 666 pole position from coeffs:;
#X text 218 683 p=-b1/2+j*sqrt(b2-(b1/2)^2) (found somewhere on the
net...);
#X connect 0 0 49 0;
#X connect 2 0 28 0;
#X connect 3 0 4 0;
#X connect 4 0 10 0;
#X connect 4 0 12 0;
#X connect 4 0 12 1;
#X connect 4 0 18 0;
#X connect 5 0 27 1;
#X connect 6 0 7 0;
#X connect 7 0 17 1;
#X connect 7 0 23 0;
#X connect 7 0 49 1;
#X connect 8 0 11 1;
#X connect 9 0 8 0;
#X connect 10 0 8 1;
#X connect 11 0 7 1;
#X connect 12 0 11 0;
#X connect 12 0 15 1;
#X connect 12 0 25 1;
#X connect 14 0 15 0;
#X connect 15 0 16 0;
#X connect 16 0 17 0;
#X connect 17 0 50 0;
#X connect 18 0 22 1;
#X connect 21 0 22 0;
#X connect 22 0 25 0;
#X connect 23 0 55 0;
#X connect 25 0 23 1;
#X connect 26 0 4 1;
#X connect 27 0 26 0;
#X connect 28 0 27 0;
#X connect 36 0 37 0;
#X connect 36 1 37 1;
#X connect 37 0 40 0;
#X connect 37 1 40 1;
#X connect 38 0 36 2;
#X connect 38 0 37 2;
#X connect 39 0 37 3;
#X connect 39 0 36 3;
#X connect 40 0 41 0;
#X connect 40 1 41 1;
#X connect 41 0 1 0;
#X connect 42 0 10 1;
#X connect 42 0 18 1;
#X connect 43 0 42 0;
#X connect 44 0 43 1;
#X connect 45 0 43 0;
#X connect 47 0 41 3;
#X connect 48 0 40 3;
#X connect 48 0 47 0;
#X connect 49 0 36 0;
#X connect 50 0 40 2;
#X connect 50 0 41 2;
#X connect 50 0 54 0;
#X connect 50 0 54 1;
#X connect 54 0 55 1;
#X connect 55 0 48 0;
#X restore 103 -67 pd lopass2p2z;
#N canvas 486 219 1076 837 hipass2p2z 0;
#X obj -47 497 inlet~;
#X obj 128 927 outlet~;
#X obj 105 93 inlet~;
#X text 401 96 resonance 0..1;
#X text 156 94 cutoff (hz);
#X text 572 141 c= tan(pi*cutf/samplerate);
#X obj 245 49 samplerate~;
#X obj 140 186 expr~ tan($v1);
#X obj 135 159 /~ 44100;
#X obj 108 128 *~ 3.14159;
#X text 91 160 c;
#X obj 143 285 sig~ 1;
#X obj 174 398 /~;
#X obj 210 362 +~;
#X obj 226 333 +~;
#X obj 270 268 *~;
#X obj 266 314 *~;
#X text 573 165 a1= 1/(1+res+c+c*c);
#X text 573 186 a2= -2*a1;
#X text 99 483 a2;
#X text 123 337 a1/a3;
#X text 574 205 b1= 2*(c*c-1)*a1;
#X obj 287 439 -~;
#X obj 310 417 sig~ 1;
#X text 256 428 b1;
#X obj 280 485 *~ 2;
#X obj 261 515 *~;
#X obj 417 339 *~;
#X text 384 379 b2;
#X obj 361 397 sig~ 1;
#X obj 392 429 -~;
#X obj 377 512 *~;
#X obj 394 472 +~;
#X text 573 221 b2= (1-res*c+c*c)*a1;
#X obj 33 690 czero~;
#X obj 59 727 czero~;
#X obj 90 841 cpole~;
#X obj 129 888 cpole~;
#X obj 178 840 *~ -1;
#X obj 184 805 expr~ sqrt($v1);
#X obj -44 595 *~;
#X obj 128 704 *~ -0.5;
#X text 219 845 2nd pole = 1st mirrored on the x axis;
#X text 183 704 b1/2 (x pos);
#X obj 163 748 *~;
#X obj 183 781 -~;
#X text 217 666 pole position from coeffs:;
#X text 218 683 p=-b1/2+j*sqrt(b2-(b1/2)^2) (found somewhere on the
net...);
#X text 573 99 cookbook-like? (i cant remember where i got this from)
hp-filter;
#X obj 343 246 *~ 1.41421;
#X obj 341 194 -~;
#X obj 305 153 sig~ 1;
#X obj 346 95 inlet~;
#X obj 90 670 sig~ 0;
#X obj 73 646 sig~ 1;
#X text 49 624 zeros at fixed pos;
#X connect 0 0 40 0;
#X connect 2 0 9 0;
#X connect 6 0 8 1;
#X connect 7 0 15 0;
#X connect 7 0 16 0;
#X connect 7 0 16 1;
#X connect 7 0 27 0;
#X connect 8 0 7 0;
#X connect 9 0 8 0;
#X connect 11 0 12 0;
#X connect 11 0 13 0;
#X connect 12 0 26 0;
#X connect 12 0 31 0;
#X connect 12 0 40 1;
#X connect 13 0 12 1;
#X connect 14 0 13 1;
#X connect 15 0 14 0;
#X connect 16 0 14 1;
#X connect 16 0 22 0;
#X connect 16 0 32 1;
#X connect 22 0 25 0;
#X connect 23 0 22 1;
#X connect 25 0 26 1;
#X connect 26 0 41 0;
#X connect 27 0 30 1;
#X connect 29 0 30 0;
#X connect 30 0 32 0;
#X connect 31 0 45 0;
#X connect 32 0 31 1;
#X connect 34 0 35 0;
#X connect 34 1 35 1;
#X connect 35 0 36 0;
#X connect 35 1 36 1;
#X connect 36 0 37 0;
#X connect 36 1 37 1;
#X connect 37 0 1 0;
#X connect 38 0 37 3;
#X connect 39 0 36 3;
#X connect 39 0 38 0;
#X connect 40 0 34 0;
#X connect 41 0 36 2;
#X connect 41 0 37 2;
#X connect 41 0 44 0;
#X connect 41 0 44 1;
#X connect 44 0 45 1;
#X connect 45 0 39 0;
#X connect 49 0 15 1;
#X connect 49 0 27 1;
#X connect 50 0 49 0;
#X connect 51 0 50 0;
#X connect 52 0 50 1;
#X connect 53 0 35 3;
#X connect 53 0 34 3;
#X connect 54 0 34 2;
#X connect 54 0 35 2;
#X restore 103 -43 pd hipass2p2z;
#X obj -44 11 lop~ 12;
#X obj 500 -12 *;
#X obj 498 -70 t b f;
#X obj 444 134 hsl 100 8 0 1 0 1 empty empty sc -17 4 0 10 -262144
-1 -1 4800 1;
#X obj 398 -93 clip 1 10000;
#X obj 313 110 hsl 96 8 5 22500 1 1 empty empty hp -17 4 0 10 -262144
-1 -1 1100 1;
#X obj 313 121 hsl 96 8 5 22500 1 1 empty empty lp -17 4 0 10 -262144
-1 -1 6000 1;
#X obj 602 -60 lop~ 40;
#X obj 250 -147 clip~ -1 1;
#X obj 286 -121 env~;
#N canvas 213 232 667 548 xfader 0;
#X obj 22 339 outlet~;
#X obj 21 257 +~;
#X obj 43 227 *~;
#X obj -19 230 *~;
#X obj -12 175 * -1;
#X obj -12 199 + 1;
#X obj -83 121 inlet~;
#X obj 18 124 inlet~;
#X obj 280 -125 inlet;
#X obj 216 -26 / 128;
#X text -47 -109 simple crossfader (or dry/wet slider);
#X connect 1 0 0 0;
#X connect 2 0 1 1;
#X connect 3 0 1 0;
#X connect 4 0 5 0;
#X connect 5 0 3 1;
#X connect 6 0 3 0;
#X connect 7 0 2 0;
#X connect 8 0 9 0;
#X connect 9 0 4 0;
#X connect 9 0 2 1;
#X coords 0 548 1 547 90 25 0;
#X restore 120 22 pd xfader;
#X obj 177 133 hsl 100 8 0 127 0 1 empty empty ca -17 4 0 10 -262144
-1 -1 500 1;
#N canvas 94 83 1108 856 ad1 0;
#X obj -143 147 inlet;
#X msg 15 502 0;
#X obj 63 365 pack f f;
#X msg -148 457 0.740853 1;
#X msg 64 391 set \$1 \$2;
#X obj 125 589 >=;
#X msg 216 752 0 55.3241;
#X obj 91 633 moses 0.001;
#X obj -145 184 clip 0 1;
#X obj -123 220 moses 0.001;
#X obj 3 544 line 0 1;
#X obj -20 376 t f f;
#X obj -27 713 spigot;
#X obj 148 680 delay 0;
#X obj -49 150 inlet;
#X text -8 150 att;
#X obj 71 153 inlet;
#X text 112 153 dec;
#X obj 40 796 outlet;
#X obj -3 199 t b f;
#X msg 237 618 set 0 \$1;
#X connect 0 0 8 0;
#X connect 1 0 10 0;
#X connect 2 0 4 0;
#X connect 3 0 10 0;
#X connect 4 0 3 0;
#X connect 5 0 7 0;
#X connect 6 0 12 0;
#X connect 7 1 13 0;
#X connect 8 0 9 0;
#X connect 8 0 12 1;
#X connect 9 1 2 0;
#X connect 9 1 11 0;
#X connect 10 0 5 0;
#X connect 10 0 18 0;
#X connect 11 0 3 0;
#X connect 11 1 5 1;
#X connect 11 1 1 0;
#X connect 12 0 10 0;
#X connect 13 0 6 0;
#X connect 14 0 2 1;
#X connect 14 0 19 0;
#X connect 16 0 20 0;
#X connect 19 0 2 0;
#X connect 19 1 2 1;
#X connect 20 0 6 0;
#X coords 0 0 1 1 120 160 0;
#X restore 599 -89 pd ad1;
#N canvas 1205 323 450 300 timeblock 0;
#X obj 21 -24 inlet;
#X obj 139 195 outlet;
#X obj 224 40 inlet;
#X obj 110 164 t b f;
#X msg 138 99 0;
#X obj 189 79 delay;
#X msg 191 102 1;
#X obj 23 -1 t b f;
#X obj 14 46 -;
#X msg 9 20 100;
#X obj 23 93 clip 0 1;
#X obj 19 67 / 10;
#X obj 107 138 spigot 1;
#X text 225 15 blockingtime (ms);
#X text 21 -42 event in (float);
#X connect 0 0 7 0;
#X connect 2 0 5 1;
#X connect 3 0 4 0;
#X connect 3 0 5 0;
#X connect 3 1 1 0;
#X connect 4 0 12 1;
#X connect 5 0 6 0;
#X connect 6 0 12 1;
#X connect 7 0 9 0;
#X connect 7 1 8 1;
#X connect 8 0 11 0;
#X connect 9 0 8 0;
#X connect 10 0 12 0;
#X connect 11 0 10 0;
#X connect 12 0 3 0;
#X restore 313 -67 pd timeblock;
#X obj 128 199 hsl 100 8 0.6 0.999 1 1 empty empty fb -18 4 0 10 -262144
-1 -1 9700 1;
#X obj 128 187 hsl 100 8 75 127 1 1 empty empty dp -18 4 0 10 -262144
-1 -1 5200 1;
#X obj 233 197 tgl 10 1 empty empty md 0 -6 0 10 -262144 -1 -1 2 2
;
#N canvas 1 79 450 300 pan1 0;
#X obj 120 15 inlet;
#X obj 297 51 inlet~;
#X obj 256 225 outlet~;
#X obj 336 218 outlet~;
#X obj 251 149 *~;
#X obj 323 154 *~;
#X obj 276 122 + 1;
#X obj 335 113 * -1;
#X obj 208 75 * -1;
#X obj 160 42 clip 0 1;
#X connect 0 0 9 0;
#X connect 1 0 4 0;
#X connect 1 0 5 1;
#X connect 4 0 2 0;
#X connect 5 0 3 0;
#X connect 6 0 4 1;
#X connect 7 0 5 0;
#X connect 8 0 6 0;
#X connect 8 0 7 0;
#X connect 9 0 8 0;
#X restore -77 770 pd pan1;
#X obj 129 266 hsl 100 8 0 1 0 1 empty empty pan -22 4 0 10 -262144
-1 -1 6600 1;
#N canvas 460 235 839 714 resonator1 0;
#X obj 130 384 inlet~;
#X obj 230 555 outlet~;
#X obj 200 421 mtof;
#X obj 315 376 mtof;
#X msg 266 371 1000;
#X obj 287 411 /;
#X obj 384 54 inlet;
#X obj 234 218 - 1;
#X obj 202 289 *;
#X obj 170 247 float;
#X obj 188 194 t b f;
#X obj 386 141 - 63;
#X obj 387 164 / 64;
#X obj 283 230 t b f;
#X obj 302 445 +;
#X obj 388 186 - 1;
#X obj 387 209 abs;
#X obj 321 344 float;
#X obj 341 302 t b b f;
#X obj 384 238 *;
#X obj 378 261 * -0.2;
#X obj 231 494 abs_rezdelayline1;
#X text 92 31 resonator;
#X obj 228 54 inlet;
#X obj 273 54 inlet;
#X obj 328 55 inlet;
#X text 227 36 damp;
#X text 278 38 feedback;
#X text 338 39 md;
#X text 385 36 pitch;
#X connect 0 0 21 0;
#X connect 2 0 21 3;
#X connect 3 0 5 1;
#X connect 4 0 5 0;
#X connect 5 0 14 0;
#X connect 6 0 13 0;
#X connect 7 0 8 1;
#X connect 8 0 21 1;
#X connect 9 0 8 0;
#X connect 10 0 9 0;
#X connect 10 1 7 0;
#X connect 11 0 12 0;
#X connect 12 0 15 0;
#X connect 13 0 4 0;
#X connect 13 1 17 0;
#X connect 14 0 21 2;
#X connect 15 0 16 0;
#X connect 16 0 19 1;
#X connect 16 0 19 0;
#X connect 17 0 3 0;
#X connect 18 0 4 0;
#X connect 18 1 17 0;
#X connect 18 2 14 1;
#X connect 19 0 20 0;
#X connect 20 0 18 0;
#X connect 21 0 1 0;
#X connect 23 0 11 0;
#X connect 23 0 2 0;
#X connect 24 0 9 0;
#X connect 25 0 10 0;
#X coords 0 714 1 713 140 40 0;
#X restore 181 440 pd resonator1;
#X obj 208 329 *~;
#X obj 273 168 hsl 100 8 0 1 0 1 empty empty lvl -22 4 0 10 -262144
-1 -1 6400 1;
#X obj 203 307 *;
#X obj 228 570 *~;
#X obj 274 215 hsl 100 8 0 1 0 1 empty empty 1 -10 4 0 10 -262144 -1
-1 0 1;
#X obj 261 546 *;
#X obj 148 388 hip~ 20;
#X obj 108 605 *~;
#X obj 274 226 hsl 100 8 0 1 0 1 empty empty 3 -10 4 0 10 -262144 -1
-1 4300 1;
#X obj 122 581 *;
#X obj 113 630 throw~ \$0reson3;
#N canvas 1 83 450 300 normalizer1 0;
#X obj 93 104 /~;
#X obj 75 45 sig~ 1;
#X obj 144 219 *~;
#X obj 98 186 clip~ 0 1;
#X obj 160 58 inlet~;
#X obj 144 248 outlet~;
#X obj 93 130 abs~;
#X text 149 16 scale signales > -1..1;
#X connect 0 0 6 0;
#X connect 1 0 0 0;
#X connect 2 0 5 0;
#X connect 3 0 2 0;
#X connect 4 0 0 1;
#X connect 4 0 2 1;
#X connect 6 0 3 0;
#X restore 149 415 pd normalizer1;
#X obj 214 666 *~;
#X obj 274 237 hsl 100 8 0 1 0 1 empty empty 4 -10 4 0 10 -262144 -1
-1 0 1;
#X obj 232 645 *;
#X obj 213 688 throw~ \$0reson4;
#X obj 160 707 *~;
#X obj 274 248 hsl 100 8 0 1 0 1 empty empty 5 -10 4 0 10 -262144 -1
-1 1100 1;
#X obj 178 686 *;
#X obj 162 730 throw~ \$0reson5;
#X obj 273 199 hsl 100 8 0.6 0.999 1 1 empty empty fb -18 4 0 10 -262144
-1 -1 9600 1;
#X obj 273 187 hsl 100 8 75 127 1 1 empty empty dp -18 4 0 10 -262144
-1 -1 4800 1;
#X obj 378 197 tgl 10 1 empty empty md 0 -6 0 10 -262144 -1 -1 2 2
;
#X obj 274 266 hsl 100 8 0 1 0 1 empty empty pan -22 4 0 10 -262144
-1 -1 3400 1;
#X obj 331 150 nbx 5 14 0 127 0 1 empty empty p -8 6 0 10 -262144 -1
-1 46.02 256;
#X obj 150 364 catch~ \$0reson2;
#N canvas 1 79 450 300 pan1 0;
#X obj 120 15 inlet;
#X obj 297 51 inlet~;
#X obj 256 225 outlet~;
#X obj 336 218 outlet~;
#X obj 251 149 *~;
#X obj 323 154 *~;
#X obj 276 122 + 1;
#X obj 335 113 * -1;
#X obj 208 75 * -1;
#X obj 160 42 clip 0 1;
#X connect 0 0 9 0;
#X connect 1 0 4 0;
#X connect 1 0 5 1;
#X connect 4 0 2 0;
#X connect 5 0 3 0;
#X connect 6 0 4 1;
#X connect 7 0 5 0;
#X connect 8 0 6 0;
#X connect 8 0 7 0;
#X connect 9 0 8 0;
#X restore 264 754 pd pan1;
#X obj 237 596 throw~ \$0reson1;
#X obj 560 984 *~ 0.21;
#X obj 617 984 *~ 0.21;
#N canvas 460 235 839 714 resonator1 0;
#X obj 130 384 inlet~;
#X obj 230 555 outlet~;
#X obj 200 421 mtof;
#X obj 315 376 mtof;
#X msg 266 371 1000;
#X obj 287 411 /;
#X obj 384 54 inlet;
#X obj 234 218 - 1;
#X obj 202 289 *;
#X obj 170 247 float;
#X obj 188 194 t b f;
#X obj 386 141 - 63;
#X obj 387 164 / 64;
#X obj 283 230 t b f;
#X obj 302 445 +;
#X obj 388 186 - 1;
#X obj 387 209 abs;
#X obj 321 344 float;
#X obj 341 302 t b b f;
#X obj 384 238 *;
#X obj 378 261 * -0.2;
#X obj 231 494 abs_rezdelayline1;
#X text 92 31 resonator;
#X obj 228 54 inlet;
#X obj 273 54 inlet;
#X obj 328 55 inlet;
#X text 227 36 damp;
#X text 278 38 feedback;
#X text 338 39 md;
#X text 385 36 pitch;
#X connect 0 0 21 0;
#X connect 2 0 21 3;
#X connect 3 0 5 1;
#X connect 4 0 5 0;
#X connect 5 0 14 0;
#X connect 6 0 13 0;
#X connect 7 0 8 1;
#X connect 8 0 21 1;
#X connect 9 0 8 0;
#X connect 10 0 9 0;
#X connect 10 1 7 0;
#X connect 11 0 12 0;
#X connect 12 0 15 0;
#X connect 13 0 4 0;
#X connect 13 1 17 0;
#X connect 14 0 21 2;
#X connect 15 0 16 0;
#X connect 16 0 19 1;
#X connect 16 0 19 0;
#X connect 17 0 3 0;
#X connect 18 0 4 0;
#X connect 18 1 17 0;
#X connect 18 2 14 1;
#X connect 19 0 20 0;
#X connect 20 0 18 0;
#X connect 21 0 1 0;
#X connect 23 0 11 0;
#X connect 23 0 2 0;
#X connect 24 0 9 0;
#X connect 25 0 10 0;
#X coords 0 714 1 713 140 40 0;
#X restore 503 437 pd resonator1;
#X obj 530 326 *~;
#X obj 419 168 hsl 100 8 0 1 0 1 empty empty lvl -22 4 0 10 -262144
-1 -1 5700 1;
#X obj 525 304 *;
#X obj 550 567 *~;
#X obj 420 215 hsl 100 8 0 1 0 1 empty empty 1 -10 4 0 10 -262144 -1
-1 0 1;
#X obj 583 543 *;
#X obj 470 385 hip~ 20;
#X obj 430 602 *~;
#X obj 420 226 hsl 100 8 0 1 0 1 empty empty 2 -10 4 0 10 -262144 -1
-1 700 1;
#X obj 444 578 *;
#N canvas 1 83 450 300 normalizer1 0;
#X obj 93 104 /~;
#X obj 75 45 sig~ 1;
#X obj 144 219 *~;
#X obj 98 186 clip~ 0 1;
#X obj 160 58 inlet~;
#X obj 144 248 outlet~;
#X obj 93 130 abs~;
#X text 149 16 scale signales > -1..1;
#X connect 0 0 6 0;
#X connect 1 0 0 0;
#X connect 2 0 5 0;
#X connect 3 0 2 0;
#X connect 4 0 0 1;
#X connect 4 0 2 1;
#X connect 6 0 3 0;
#X restore 471 412 pd normalizer1;
#X obj 536 663 *~;
#X obj 420 237 hsl 100 8 0 1 0 1 empty empty 4 -10 4 0 10 -262144 -1
-1 1800 1;
#X obj 554 642 *;
#X obj 535 685 throw~ \$0reson4;
#X obj 482 704 *~;
#X obj 420 248 hsl 100 8 0 1 0 1 empty empty 5 -10 4 0 10 -262144 -1
-1 2200 1;
#X obj 500 683 *;
#X obj 484 727 throw~ \$0reson5;
#X obj 419 199 hsl 100 8 0.6 0.999 1 1 empty empty fb -18 4 0 10 -262144
-1 -1 9000 1;
#X obj 419 187 hsl 100 8 75 127 1 1 empty empty dp -18 4 0 10 -262144
-1 -1 3999 1;
#X obj 524 197 tgl 10 1 empty empty md 0 -6 0 10 -262144 -1 -1 2 2
;
#X obj 420 266 hsl 100 8 0 1 0 1 empty empty pan -22 4 0 10 -262144
-1 -1 4400 1;
#X obj 477 150 nbx 5 14 0 127 0 1 empty empty p -8 6 0 10 -262144 -1
-1 40.79 256;
#N canvas 1 79 450 300 pan1 0;
#X obj 120 15 inlet;
#X obj 297 51 inlet~;
#X obj 256 225 outlet~;
#X obj 336 218 outlet~;
#X obj 251 149 *~;
#X obj 323 154 *~;
#X obj 276 122 + 1;
#X obj 335 113 * -1;
#X obj 208 75 * -1;
#X obj 160 42 clip 0 1;
#X connect 0 0 9 0;
#X connect 1 0 4 0;
#X connect 1 0 5 1;
#X connect 4 0 2 0;
#X connect 5 0 3 0;
#X connect 6 0 4 1;
#X connect 7 0 5 0;
#X connect 8 0 6 0;
#X connect 8 0 7 0;
#X connect 9 0 8 0;
#X restore 586 751 pd pan1;
#X obj 559 593 throw~ \$0reson1;
#X obj 472 361 catch~ \$0reson3;
#X obj 435 627 throw~ \$0reson2;
#N canvas 460 235 839 714 resonator1 0;
#X obj 130 384 inlet~;
#X obj 230 555 outlet~;
#X obj 200 421 mtof;
#X obj 315 376 mtof;
#X msg 266 371 1000;
#X obj 287 411 /;
#X obj 384 54 inlet;
#X obj 234 218 - 1;
#X obj 202 289 *;
#X obj 170 247 float;
#X obj 188 194 t b f;
#X obj 386 141 - 63;
#X obj 387 164 / 64;
#X obj 283 230 t b f;
#X obj 302 445 +;
#X obj 388 186 - 1;
#X obj 387 209 abs;
#X obj 321 344 float;
#X obj 341 302 t b b f;
#X obj 384 238 *;
#X obj 378 261 * -0.2;
#X obj 231 494 abs_rezdelayline1;
#X text 92 31 resonator;
#X obj 228 54 inlet;
#X obj 273 54 inlet;
#X obj 328 55 inlet;
#X text 227 36 damp;
#X text 278 38 feedback;
#X text 338 39 md;
#X text 385 36 pitch;
#X connect 0 0 21 0;
#X connect 2 0 21 3;
#X connect 3 0 5 1;
#X connect 4 0 5 0;
#X connect 5 0 14 0;
#X connect 6 0 13 0;
#X connect 7 0 8 1;
#X connect 8 0 21 1;
#X connect 9 0 8 0;
#X connect 10 0 9 0;
#X connect 10 1 7 0;
#X connect 11 0 12 0;
#X connect 12 0 15 0;
#X connect 13 0 4 0;
#X connect 13 1 17 0;
#X connect 14 0 21 2;
#X connect 15 0 16 0;
#X connect 16 0 19 1;
#X connect 16 0 19 0;
#X connect 17 0 3 0;
#X connect 18 0 4 0;
#X connect 18 1 17 0;
#X connect 18 2 14 1;
#X connect 19 0 20 0;
#X connect 20 0 18 0;
#X connect 21 0 1 0;
#X connect 23 0 11 0;
#X connect 23 0 2 0;
#X connect 24 0 9 0;
#X connect 25 0 10 0;
#X coords 0 714 1 713 140 40 0;
#X restore 801 456 pd resonator1;
#X obj 828 345 *~;
#X obj 565 168 hsl 100 8 0 1 0 1 empty empty lvl -22 4 0 10 -262144
-1 -1 7000 1;
#X obj 823 326 *;
#X obj 848 586 *~;
#X obj 566 215 hsl 100 8 0 1 0 1 empty empty 1 -10 4 0 10 -262144 -1
-1 500 1;
#X obj 881 562 *;
#X obj 768 404 hip~ 20;
#X obj 728 621 *~;
#X obj 566 226 hsl 100 8 0 1 0 1 empty empty 2 -10 4 0 10 -262144 -1
-1 3800 1;
#X obj 742 597 *;
#N canvas 1 83 450 300 normalizer1 0;
#X obj 93 104 /~;
#X obj 75 45 sig~ 1;
#X obj 144 219 *~;
#X obj 98 186 clip~ 0 1;
#X obj 160 58 inlet~;
#X obj 144 248 outlet~;
#X obj 93 130 abs~;
#X text 149 16 scale signales > -1..1;
#X connect 0 0 6 0;
#X connect 1 0 0 0;
#X connect 2 0 5 0;
#X connect 3 0 2 0;
#X connect 4 0 0 1;
#X connect 4 0 2 1;
#X connect 6 0 3 0;
#X restore 769 431 pd normalizer1;
#X obj 834 682 *~;
#X obj 566 237 hsl 100 8 0 1 0 1 empty empty 3 -10 4 0 10 -262144 -1
-1 2200 1;
#X obj 852 661 *;
#X obj 780 723 *~;
#X obj 566 248 hsl 100 8 0 1 0 1 empty empty 5 -10 4 0 10 -262144 -1
-1 3400 1;
#X obj 798 702 *;
#X obj 782 746 throw~ \$0reson5;
#X obj 565 199 hsl 100 8 0.6 0.999 1 1 empty empty fb -18 4 0 10 -262144
-1 -1 8100 1;
#X obj 565 187 hsl 100 8 75 127 1 1 empty empty dp -18 4 0 10 -262144
-1 -1 6100 1;
#X obj 670 197 tgl 10 1 empty empty md 0 -6 0 10 -262144 -1 -1 2 2
;
#X obj 566 266 hsl 100 8 0 1 0 1 empty empty pan -22 4 0 10 -262144
-1 -1 2800 1;
#X obj 623 150 nbx 5 14 0 127 0 1 empty empty p -8 6 0 10 -262144 -1
-1 60.98 256;
#N canvas 1 79 450 300 pan1 0;
#X obj 120 15 inlet;
#X obj 297 51 inlet~;
#X obj 256 225 outlet~;
#X obj 336 218 outlet~;
#X obj 251 149 *~;
#X obj 323 154 *~;
#X obj 276 122 + 1;
#X obj 335 113 * -1;
#X obj 208 75 * -1;
#X obj 160 42 clip 0 1;
#X connect 0 0 9 0;
#X connect 1 0 4 0;
#X connect 1 0 5 1;
#X connect 4 0 2 0;
#X connect 5 0 3 0;
#X connect 6 0 4 1;
#X connect 7 0 5 0;
#X connect 8 0 6 0;
#X connect 8 0 7 0;
#X connect 9 0 8 0;
#X restore 884 770 pd pan1;
#X obj 857 612 throw~ \$0reson1;
#X obj 733 646 throw~ \$0reson2;
#X obj 770 380 catch~ \$0reson4;
#X obj 833 704 throw~ \$0reson3;
#N canvas 460 235 839 714 resonator1 0;
#X obj 130 384 inlet~;
#X obj 230 555 outlet~;
#X obj 200 421 mtof;
#X obj 315 376 mtof;
#X msg 266 371 1000;
#X obj 287 411 /;
#X obj 384 54 inlet;
#X obj 234 218 - 1;
#X obj 202 289 *;
#X obj 170 247 float;
#X obj 188 194 t b f;
#X obj 386 141 - 63;
#X obj 387 164 / 64;
#X obj 283 230 t b f;
#X obj 302 445 +;
#X obj 388 186 - 1;
#X obj 387 209 abs;
#X obj 321 344 float;
#X obj 341 302 t b b f;
#X obj 384 238 *;
#X obj 378 261 * -0.2;
#X obj 231 494 abs_rezdelayline1;
#X text 92 31 resonator;
#X obj 228 54 inlet;
#X obj 273 54 inlet;
#X obj 328 55 inlet;
#X text 227 36 damp;
#X text 278 38 feedback;
#X text 338 39 md;
#X text 385 36 pitch;
#X connect 0 0 21 0;
#X connect 2 0 21 3;
#X connect 3 0 5 1;
#X connect 4 0 5 0;
#X connect 5 0 14 0;
#X connect 6 0 13 0;
#X connect 7 0 8 1;
#X connect 8 0 21 1;
#X connect 9 0 8 0;
#X connect 10 0 9 0;
#X connect 10 1 7 0;
#X connect 11 0 12 0;
#X connect 12 0 15 0;
#X connect 13 0 4 0;
#X connect 13 1 17 0;
#X connect 14 0 21 2;
#X connect 15 0 16 0;
#X connect 16 0 19 1;
#X connect 16 0 19 0;
#X connect 17 0 3 0;
#X connect 18 0 4 0;
#X connect 18 1 17 0;
#X connect 18 2 14 1;
#X connect 19 0 20 0;
#X connect 20 0 18 0;
#X connect 21 0 1 0;
#X connect 23 0 11 0;
#X connect 23 0 2 0;
#X connect 24 0 9 0;
#X connect 25 0 10 0;
#X coords 0 714 1 713 140 40 0;
#X restore 1112 455 pd resonator1;
#X obj 1139 344 *~;
#X obj 711 168 hsl 100 8 0 1 0 1 empty empty lvl -22 4 0 10 -262144
-1 -1 4700 1;
#X obj 1142 324 *;
#X obj 1159 585 *~;
#X obj 712 215 hsl 100 8 0 1 0 1 empty empty 1 -10 4 0 10 -262144 -1
-1 4300 1;
#X obj 1192 561 *;
#X obj 1079 403 hip~ 20;
#X obj 1039 620 *~;
#X obj 712 226 hsl 100 8 0 1 0 1 empty empty 2 -10 4 0 10 -262144 -1
-1 1300 1;
#X obj 1053 596 *;
#N canvas 1 83 450 300 normalizer1 0;
#X obj 93 104 /~;
#X obj 75 45 sig~ 1;
#X obj 144 219 *~;
#X obj 98 186 clip~ 0 1;
#X obj 160 58 inlet~;
#X obj 144 248 outlet~;
#X obj 93 130 abs~;
#X text 149 16 scale signales > -1..1;
#X connect 0 0 6 0;
#X connect 1 0 0 0;
#X connect 2 0 5 0;
#X connect 3 0 2 0;
#X connect 4 0 0 1;
#X connect 4 0 2 1;
#X connect 6 0 3 0;
#X restore 1080 430 pd normalizer1;
#X obj 1145 681 *~;
#X obj 712 237 hsl 100 8 0 1 0 1 empty empty 3 -10 4 0 10 -262144 -1
-1 600 1;
#X obj 1163 660 *;
#X obj 1091 722 *~;
#X obj 712 248 hsl 100 8 0 1 0 1 empty empty 4 -10 4 0 10 -262144 -1
-1 900 1;
#X obj 1109 701 *;
#X obj 711 199 hsl 100 8 0.6 0.999 1 1 empty empty fb -18 4 0 10 -262144
-1 -1 9800 1;
#X obj 711 187 hsl 100 8 75 127 1 1 empty empty dp -18 4 0 10 -262144
-1 -1 4400 1;
#X obj 816 197 tgl 10 1 empty empty md 0 -6 0 10 -262144 -1 -1 2 2
;
#X obj 712 266 hsl 100 8 0 1 0 1 empty empty pan -22 4 0 10 -262144
-1 -1 3300 1;
#X obj 769 150 nbx 5 14 0 127 0 1 empty empty p -8 6 0 10 -262144 -1
-1 67.98 256;
#N canvas 1 79 450 300 pan1 0;
#X obj 120 15 inlet;
#X obj 297 51 inlet~;
#X obj 256 225 outlet~;
#X obj 336 218 outlet~;
#X obj 251 149 *~;
#X obj 323 154 *~;
#X obj 276 122 + 1;
#X obj 335 113 * -1;
#X obj 208 75 * -1;
#X obj 160 42 clip 0 1;
#X connect 0 0 9 0;
#X connect 1 0 4 0;
#X connect 1 0 5 1;
#X connect 4 0 2 0;
#X connect 5 0 3 0;
#X connect 6 0 4 1;
#X connect 7 0 5 0;
#X connect 8 0 6 0;
#X connect 8 0 7 0;
#X connect 9 0 8 0;
#X restore 1202 765 pd pan1;
#X obj 1168 611 throw~ \$0reson1;
#X obj 1044 645 throw~ \$0reson2;
#X obj 1144 703 throw~ \$0reson3;
#X obj 1081 379 catch~ \$0reson5;
#X obj 1093 745 throw~ \$0reson4;
#X obj 626 1020 outlet~;
#X obj 558 1022 outlet~;
#X obj 580 123 hsl 100 8 0.1 1 0 1 empty empty a -10 4 0 10 -262144
-1 -1 0 1;
#X obj 580 134 hsl 100 8 0.1 1 0 1 empty empty d -10 4 0 10 -262144
-1 -1 1900 1;
#X text 144 150 res1;
#X text 288 150 res2;
#X text 436 150 res3;
#X text 726 150 res5;
#X text 576 150 res4;
#X obj 672 -41 inlet;
#X obj 702 764 float;
#X obj 770 106 bng 15 250 50 0 empty empty p 5 7 0 10 -262144 -1 -1
;
#X obj 698 849 outlet;
#X obj 671 -11 unpack f f f f f;
#X msg 700 809 set \$1 \$2 \$3 \$4 \$5;
#X obj 444 123 hsl 100 8 0.01 1 1 1 empty empty th -17 4 0 10 -262144
-1 -1 2200 1;
#X obj 421 32 -;
#X obj 412 -17 t b f;
#X msg 413 5 1;
#X obj 344 -8 * 100;
#X obj 97 -133 inlet~;
#N canvas 213 232 667 548 xfader 0;
#X obj 22 339 outlet~;
#X obj 21 257 +~;
#X obj 43 227 *~;
#X obj -19 230 *~;
#X obj -12 175 * -1;
#X obj -12 199 + 1;
#X obj -83 121 inlet~;
#X obj 18 124 inlet~;
#X obj 280 -125 inlet;
#X obj 216 -26 / 128;
#X text -47 -109 simple crossfader (or dry/wet slider);
#X connect 1 0 0 0;
#X connect 2 0 1 1;
#X connect 3 0 1 0;
#X connect 4 0 5 0;
#X connect 5 0 3 1;
#X connect 6 0 3 0;
#X connect 7 0 2 0;
#X connect 8 0 9 0;
#X connect 9 0 4 0;
#X connect 9 0 2 1;
#X coords 0 548 1 547 90 25 0;
#X restore 42 -91 pd xfader;
#X obj 177 122 hsl 100 8 0 127 0 1 empty empty xt -17 4 0 10 -262144
-1 -1 0 1;
#X obj 699 787 pack f f f f f;
#X obj 1080 886 float;
#X obj 790 -92 inlet;
#X obj 800 106 bng 15 250 50 0 empty empty s 5 8 0 10 -262144 -1 -1
;
#X obj 1084 1022 outlet;
#X text 749 -156 a network of 5 resonators and filtered noise as driver
;
#X obj 1084 910 pack f f f f f f f f f f f f f f f f f f f f f f f
f f f f f f f f f f f f;
#X obj 792 -73 unpack f f f f f f f f f f f f f f f f f f f f f f f
f f f f f f f f f f f f;
#X msg 1084 949 set \$1 \$2 \$3 \$4 \$5 \$6 \$7 \$8 \$9 \$10 \$11 \$12
\$13 \$14 \$15 \$16 \$17 \$18 \$19 \$20 \$21 \$22 \$23 \$24 \$25 \$26
\$27 \$28 \$29 \$30 \$31 \$32 \$33 \$34 \$35;
#X text 342 -118 (re)trigger ad env;
#X text 127 -91 filtered noise;
#X connect 0 0 9 0;
#X connect 0 0 12 0;
#X connect 0 0 18 0;
#X connect 0 0 23 0;
#X connect 0 0 28 0;
#X connect 0 0 60 1;
#X connect 1 0 201 0;
#X connect 2 0 5 0;
#X connect 3 0 2 0;
#X connect 4 0 6 0;
#X connect 4 0 62 0;
#X connect 4 0 93 0;
#X connect 4 0 122 0;
#X connect 4 0 151 0;
#X connect 5 0 27 0;
#X connect 6 0 0 0;
#X connect 7 0 8 1;
#X connect 7 0 8 0;
#X connect 8 0 6 1;
#X connect 9 0 15 0;
#X connect 10 0 11 1;
#X connect 10 0 11 0;
#X connect 10 0 204 1;
#X connect 11 0 9 1;
#X connect 13 0 2 1;
#X connect 13 0 51 0;
#X connect 14 0 16 0;
#X connect 16 0 22 0;
#X connect 17 0 0 4;
#X connect 17 0 190 1;
#X connect 18 0 21 0;
#X connect 19 0 20 1;
#X connect 19 0 20 0;
#X connect 19 0 209 1;
#X connect 20 0 18 1;
#X connect 22 0 0 0;
#X connect 23 0 26 0;
#X connect 24 0 25 1;
#X connect 24 0 25 0;
#X connect 24 0 209 2;
#X connect 25 0 23 1;
#X connect 27 0 43 0;
#X connect 28 0 31 0;
#X connect 29 0 30 1;
#X connect 29 0 30 0;
#X connect 29 0 209 3;
#X connect 30 0 28 1;
#X connect 32 0 34 1;
#X connect 32 0 34 0;
#X connect 33 0 55 1;
#X connect 34 0 33 0;
#X connect 35 0 37 1;
#X connect 35 0 37 0;
#X connect 36 0 55 2;
#X connect 36 0 44 0;
#X connect 37 0 36 0;
#X connect 38 0 53 0;
#X connect 39 0 56 0;
#X connect 40 0 41 2;
#X connect 40 0 42 2;
#X connect 41 0 42 0;
#X connect 42 0 38 0;
#X connect 42 0 53 1;
#X connect 43 0 4 0;
#X connect 44 0 47 0;
#X connect 45 0 44 0;
#X connect 45 1 44 1;
#X connect 46 0 45 0;
#X connect 47 0 56 1;
#X connect 48 0 42 1;
#X connect 49 0 41 1;
#X connect 50 0 38 1;
#X connect 51 0 52 0;
#X connect 52 0 39 0;
#X connect 53 0 4 1;
#X connect 54 0 53 2;
#X connect 55 0 50 0;
#X connect 56 0 55 0;
#X connect 57 0 0 2;
#X connect 57 0 209 21;
#X connect 58 0 0 1;
#X connect 58 0 209 20;
#X connect 59 0 0 3;
#X connect 59 0 209 22;
#X connect 60 0 91 0;
#X connect 60 1 92 0;
#X connect 61 0 60 0;
#X connect 62 0 66 0;
#X connect 62 0 70 0;
#X connect 62 0 75 0;
#X connect 62 0 79 0;
#X connect 62 0 89 1;
#X connect 62 0 12 0;
#X connect 63 0 62 0;
#X connect 64 0 65 1;
#X connect 64 0 65 0;
#X connect 65 0 63 1;
#X connect 66 0 90 0;
#X connect 67 0 68 1;
#X connect 67 0 68 0;
#X connect 67 0 209 4;
#X connect 68 0 66 1;
#X connect 69 0 74 0;
#X connect 70 0 73 0;
#X connect 71 0 72 1;
#X connect 71 0 72 0;
#X connect 71 0 209 5;
#X connect 72 0 70 1;
#X connect 74 0 62 0;
#X connect 75 0 78 0;
#X connect 76 0 77 1;
#X connect 76 0 77 0;
#X connect 76 0 209 6;
#X connect 77 0 75 1;
#X connect 79 0 82 0;
#X connect 80 0 81 1;
#X connect 80 0 81 0;
#X connect 80 0 209 7;
#X connect 81 0 79 1;
#X connect 83 0 62 2;
#X connect 83 0 209 24;
#X connect 84 0 62 1;
#X connect 84 0 209 23;
#X connect 85 0 62 3;
#X connect 85 0 209 25;
#X connect 86 0 89 0;
#X connect 87 0 62 4;
#X connect 87 0 203 1;
#X connect 88 0 69 0;
#X connect 89 0 91 0;
#X connect 89 1 92 0;
#X connect 91 0 181 0;
#X connect 92 0 180 0;
#X connect 93 0 97 0;
#X connect 93 0 101 0;
#X connect 93 0 105 0;
#X connect 93 0 109 0;
#X connect 93 0 118 1;
#X connect 93 0 12 0;
#X connect 94 0 93 0;
#X connect 95 0 96 1;
#X connect 95 0 96 0;
#X connect 96 0 94 1;
#X connect 97 0 119 0;
#X connect 98 0 99 1;
#X connect 98 0 99 0;
#X connect 98 0 209 8;
#X connect 99 0 97 1;
#X connect 100 0 104 0;
#X connect 101 0 121 0;
#X connect 102 0 103 1;
#X connect 102 0 103 0;
#X connect 102 0 209 9;
#X connect 103 0 101 1;
#X connect 104 0 93 0;
#X connect 105 0 108 0;
#X connect 106 0 107 1;
#X connect 106 0 107 0;
#X connect 106 0 209 10;
#X connect 107 0 105 1;
#X connect 109 0 112 0;
#X connect 110 0 111 1;
#X connect 110 0 111 0;
#X connect 110 0 209 11;
#X connect 111 0 109 1;
#X connect 113 0 93 2;
#X connect 113 0 209 27;
#X connect 114 0 93 1;
#X connect 114 0 209 26;
#X connect 115 0 93 3;
#X connect 115 0 209 28;
#X connect 116 0 118 0;
#X connect 117 0 93 4;
#X connect 117 0 203 2;
#X connect 118 0 91 0;
#X connect 118 1 92 0;
#X connect 120 0 100 0;
#X connect 122 0 126 0;
#X connect 122 0 130 0;
#X connect 122 0 134 0;
#X connect 122 0 137 0;
#X connect 122 0 146 1;
#X connect 122 0 12 0;
#X connect 123 0 122 0;
#X connect 124 0 125 1;
#X connect 124 0 125 0;
#X connect 125 0 123 1;
#X connect 126 0 147 0;
#X connect 127 0 128 1;
#X connect 127 0 128 0;
#X connect 127 0 209 12;
#X connect 128 0 126 1;
#X connect 129 0 133 0;
#X connect 130 0 148 0;
#X connect 131 0 132 1;
#X connect 131 0 132 0;
#X connect 131 0 209 13;
#X connect 132 0 130 1;
#X connect 133 0 122 0;
#X connect 134 0 150 0;
#X connect 135 0 136 1;
#X connect 135 0 136 0;
#X connect 135 0 209 14;
#X connect 136 0 134 1;
#X connect 137 0 140 0;
#X connect 138 0 139 1;
#X connect 138 0 139 0;
#X connect 138 0 209 15;
#X connect 139 0 137 1;
#X connect 141 0 122 2;
#X connect 141 0 209 30;
#X connect 142 0 122 1;
#X connect 142 0 209 29;
#X connect 143 0 122 3;
#X connect 143 0 209 31;
#X connect 144 0 146 0;
#X connect 145 0 122 4;
#X connect 145 0 203 3;
#X connect 146 0 91 0;
#X connect 146 1 92 0;
#X connect 149 0 129 0;
#X connect 151 0 155 0;
#X connect 151 0 159 0;
#X connect 151 0 163 0;
#X connect 151 0 166 0;
#X connect 151 0 174 1;
#X connect 151 0 12 0;
#X connect 152 0 151 0;
#X connect 153 0 154 1;
#X connect 153 0 154 0;
#X connect 154 0 152 1;
#X connect 155 0 175 0;
#X connect 156 0 157 1;
#X connect 156 0 157 0;
#X connect 156 0 209 16;
#X connect 157 0 155 1;
#X connect 158 0 162 0;
#X connect 159 0 176 0;
#X connect 160 0 161 1;
#X connect 160 0 161 0;
#X connect 160 0 209 17;
#X connect 161 0 159 1;
#X connect 162 0 151 0;
#X connect 163 0 177 0;
#X connect 164 0 165 1;
#X connect 164 0 165 0;
#X connect 164 0 209 18;
#X connect 165 0 163 1;
#X connect 166 0 179 0;
#X connect 167 0 168 1;
#X connect 167 0 168 0;
#X connect 167 0 209 19;
#X connect 168 0 166 1;
#X connect 169 0 151 2;
#X connect 169 0 209 33;
#X connect 170 0 151 1;
#X connect 170 0 209 32;
#X connect 171 0 151 3;
#X connect 171 0 209 34;
#X connect 172 0 174 0;
#X connect 173 0 151 4;
#X connect 173 0 203 4;
#X connect 174 0 91 0;
#X connect 174 1 92 0;
#X connect 178 0 158 0;
#X connect 182 0 32 1;
#X connect 182 0 32 0;
#X connect 183 0 35 1;
#X connect 183 0 35 0;
#X connect 189 0 193 0;
#X connect 190 0 203 0;
#X connect 191 0 190 0;
#X connect 193 0 17 0;
#X connect 193 1 87 0;
#X connect 193 2 117 0;
#X connect 193 3 145 0;
#X connect 193 4 173 0;
#X connect 194 0 192 0;
#X connect 195 0 197 0;
#X connect 196 0 199 0;
#X connect 197 0 198 0;
#X connect 197 1 196 1;
#X connect 198 0 196 0;
#X connect 199 0 39 1;
#X connect 200 0 201 1;
#X connect 201 0 41 0;
#X connect 202 0 201 2;
#X connect 203 0 194 0;
#X connect 204 0 209 0;
#X connect 205 0 210 0;
#X connect 206 0 204 0;
#X connect 209 0 211 0;
#X connect 210 0 10 0;
#X connect 210 1 19 0;
#X connect 210 2 24 0;
#X connect 210 3 29 0;
#X connect 210 4 67 0;
#X connect 210 5 71 0;
#X connect 210 6 76 0;
#X connect 210 7 80 0;
#X connect 210 8 98 0;
#X connect 210 9 102 0;
#X connect 210 10 106 0;
#X connect 210 11 110 0;
#X connect 210 12 127 0;
#X connect 210 13 131 0;
#X connect 210 14 135 0;
#X connect 210 15 138 0;
#X connect 210 16 156 0;
#X connect 210 17 160 0;
#X connect 210 18 164 0;
#X connect 210 19 167 0;
#X connect 210 20 58 0;
#X connect 210 21 57 0;
#X connect 210 22 59 0;
#X connect 210 23 84 0;
#X connect 210 24 83 0;
#X connect 210 25 85 0;
#X connect 210 26 114 0;
#X connect 210 27 113 0;
#X connect 210 28 115 0;
#X connect 210 29 142 0;
#X connect 210 30 141 0;
#X connect 210 31 143 0;
#X connect 210 32 170 0;
#X connect 210 33 169 0;
#X connect 210 34 171 0;
#X connect 211 0 207 0;
#X coords 0 -1 1 1 740 180 1 100 100;
#X restore 16 49 pd resonatornet5;
#X msg 544 -110 0.313131 0.232323 0.30303 0.313131 0 0.434343 0 0.111111
0 0.0707071 0.181818 0.222222 0.050505 0.383838 0.222222 0.343434 0.434343
0.131313 0.0606061 0.0909091 98.9029 0.988764 2 96.8204 0.983685 2
92.7811 0.953755 2 103.754 0.91056 2 94.7817 0.993869 2;
#X msg 171 -107 0 0 0 0 0 0 0 0 0 0 0 0 0 0 0 0 0 0 0 0 102.656 0.988764
2 96.8204 0.978632 2 97.3317 0.973605 2 96.3066 0.963629 2 97.3368
0.978632 2;
#X text 731 24 soundparameters;
#X text 391 28 5 pitches;
#X text 17 31 external noise in;
#X msg 590 -38 0.494949 0 0 0 0 0.272727 0 0 0 0.191919 0.565657 0.818182
0 0 0 0.343434 0.292929 0.161616 0 0 104.864 0.988764 2 99.9608 0.939134
2 91.7991 0.973605 2 97.8561 0.963629 2 101.03 0.978632 2;
#X msg 355 -9 44.97 47.98 52.02 58.99 67.05;
#X msg 176 299;
#X msg 426 295;
#X text 174 -123 init (kill feedback etc);
#X connect 1 0 4 1;
#X connect 4 0 0 0;
#X connect 4 1 0 1;
#X connect 4 2 12 0;
#X connect 4 3 13 0;
#X connect 5 0 4 2;
#X connect 6 0 4 2;
#X connect 10 0 4 2;
#X connect 11 0 4 1;
