#N canvas 124 310 559 334 10;
#N canvas 224 50 961 852 16counter 0;
#X obj 318 440 + 1;
#X obj 267 436 float;
#X obj 272 622 mod 2;
#X obj 210 672 delay 0;
#X obj 260 651 *;
#X msg 206 296 1;
#X obj 218 321 /;
#X obj 209 273 t f f;
#X obj 228 344 * 15000;
#X obj 339 355 t b f;
#X obj 263 405 metro 125;
#X obj 182 578 *;
#X obj 268 596 t b f f;
#X obj 136 130 hsl 80 8 0 0.4 0 1 empty empty swing -33 4 0 10 -262144
-1 -1 0 1;
#X msg 340 329 -2;
#X obj 251 700 int;
#X obj 172 17 loadbang;
#X floatatom 126 113 5 30 300 0 bpm - -;
#X msg -2 85 set \$1;
#X msg 5 139 100;
#X obj 174 112 bng 15 250 50 0 empty empty empty 6 7 0 10 -261234 -1
-1;
#X obj 253 737 outlet;
#X obj 570 496 outlet;
#X text 618 497 bpm->;
#X obj 200 112 bng 15 50 20 0 empty empty empty 6 7 0 10 -204786 -1
-1;
#X obj 208 225 float;
#X obj 435 539 outlet;
#X text 144 343 1/16 in ms;
#X text 485 540 pos96->;
#X text 178 628 swing;
#X obj 259 373 / 6;
#X text 219 371 1/96;
#X obj 343 481 / 6;
#X obj 343 505 int;
#X obj 342 530 change;
#X text 304 738 pos16swing->;
#X obj 600 64 + 1;
#X obj 602 29 float;
#X obj 600 96 moses 2;
#X obj 600 155 timer;
#X obj 600 123 t b;
#X obj 648 122 t b b;
#X obj 653 243 /;
#X msg 623 221 60000;
#X obj 618 183 t b f;
#X obj 656 268 moses 10;
#X text 500 72 beatcounter;
#X obj 772 358 float;
#X obj 769 401 + 1;
#X obj 688 426 +;
#X obj 729 396 *;
#X obj 705 328 t f b;
#X obj 698 464 /;
#X msg 884 211 0;
#X text 499 302 mean (as seen on idafx blog);
#X obj 906 259 bng 15 250 50 0 empty empty empty 17 7 0 10 -262144
-1 -1;
#X obj 864 324 t f f;
#X obj 921 503 moses 0.1;
#X text 880 303 reset;
#X obj 870 366 /;
#X obj 849 431 < 0.75;
#X obj 903 435 > 1.25;
#X obj 869 391 t f f;
#X obj 877 471 ||;
#X obj 174 54 t b b b;
#X obj 43 -7 inlet;
#X obj 107 -11 inlet;
#X connect 0 0 1 1;
#X connect 0 0 32 0;
#X connect 0 0 26 0;
#X connect 1 0 0 0;
#X connect 2 0 4 0;
#X connect 3 0 15 0;
#X connect 4 0 3 1;
#X connect 5 0 6 0;
#X connect 6 0 8 0;
#X connect 7 0 5 0;
#X connect 7 1 6 1;
#X connect 8 0 11 1;
#X connect 8 0 30 0;
#X connect 9 0 10 0;
#X connect 9 1 1 0;
#X connect 10 0 1 0;
#X connect 11 0 4 1;
#X connect 12 0 3 0;
#X connect 12 1 2 0;
#X connect 12 2 15 1;
#X connect 13 0 11 0;
#X connect 14 0 9 0;
#X connect 15 0 21 0;
#X connect 16 0 64 0;
#X connect 17 0 18 0;
#X connect 17 0 25 1;
#X connect 18 0 19 0;
#X connect 19 0 17 0;
#X connect 20 0 14 0;
#X connect 20 0 25 0;
#X connect 24 0 37 0;
#X connect 25 0 7 0;
#X connect 25 0 22 0;
#X connect 30 0 10 1;
#X connect 32 0 33 0;
#X connect 33 0 34 0;
#X connect 34 0 12 0;
#X connect 36 0 37 1;
#X connect 36 0 38 0;
#X connect 37 0 36 0;
#X connect 38 0 40 0;
#X connect 38 1 41 0;
#X connect 39 0 44 0;
#X connect 39 0 56 0;
#X connect 40 0 39 0;
#X connect 41 0 39 0;
#X connect 41 1 39 1;
#X connect 42 0 45 0;
#X connect 43 0 42 0;
#X connect 44 0 43 0;
#X connect 44 1 42 1;
#X connect 45 1 51 0;
#X connect 47 0 48 0;
#X connect 47 0 50 0;
#X connect 48 0 47 1;
#X connect 48 0 52 1;
#X connect 49 0 52 0;
#X connect 50 0 49 1;
#X connect 51 0 49 0;
#X connect 51 1 47 0;
#X connect 52 0 50 1;
#X connect 52 0 17 0;
#X connect 53 0 47 1;
#X connect 53 0 37 1;
#X connect 53 0 55 0;
#X connect 56 0 59 1;
#X connect 56 1 59 0;
#X connect 57 1 53 0;
#X connect 59 0 62 0;
#X connect 60 0 63 0;
#X connect 61 0 63 1;
#X connect 62 0 60 0;
#X connect 62 1 61 0;
#X connect 63 0 57 0;
#X connect 64 0 20 0;
#X connect 64 1 20 0;
#X connect 64 2 19 0;
#X connect 65 0 20 0;
#X connect 66 0 24 0;
#X coords 0 -1 1 1 120 40 1 100 100;
#X restore 33 8 pd 16counter;
#X obj 54 277 dac~;
#N canvas 42 133 704 644 mym2schorus 0;
#X obj 23 59 inlet~;
#X obj 466 487 outlet~;
#X obj 295 500 outlet~;
#X obj 197 264 cos~;
#X obj 197 291 +~ 1;
#X obj 290 225 +~ 0.25;
#X obj 304 254 cos~;
#X obj 309 284 +~ 1;
#X obj 369 69 phasor~;
#X obj 354 -14 loadbang;
#X msg 355 20 0.8;
#X obj 145 407 vd~ \$0mychr1;
#X obj 298 371 vd~ \$0mychr1;
#X obj 311 318 *~ 0.3;
#X obj 418 232 cos~;
#X obj 423 262 +~ 1;
#X obj 412 349 vd~ \$0mychr1;
#X obj 425 296 *~ 0.3;
#X obj 24 101 delwrite~ \$0mychr1 100;
#X obj 404 203 +~ 0.5;
#X obj 522 250 cos~;
#X obj 527 280 +~ 1;
#X obj 516 367 vd~ \$0mychr1;
#X obj 508 221 +~ 0.75;
#X obj 530 315 *~ 0.31;
#X obj 194 318 *~ 0.31;
#X connect 0 0 18 0;
#X connect 3 0 4 0;
#X connect 4 0 25 0;
#X connect 5 0 6 0;
#X connect 6 0 7 0;
#X connect 7 0 13 0;
#X connect 8 0 3 0;
#X connect 8 0 5 0;
#X connect 8 0 19 0;
#X connect 8 0 23 0;
#X connect 9 0 10 0;
#X connect 10 0 8 0;
#X connect 11 0 2 0;
#X connect 12 0 1 0;
#X connect 13 0 12 0;
#X connect 14 0 15 0;
#X connect 15 0 17 0;
#X connect 16 0 2 0;
#X connect 17 0 16 0;
#X connect 19 0 14 0;
#X connect 20 0 21 0;
#X connect 21 0 24 0;
#X connect 22 0 1 0;
#X connect 23 0 20 0;
#X connect 24 0 22 0;
#X connect 25 0 11 0;
#X restore 43 238 pd mym2schorus;
#N canvas 84 234 1047 823 2polefbloop1 0;
#X obj 16 1019 outlet~;
#X obj -1 109 inlet;
#X obj -38 306 div;
#X obj 259 125 nbx 7 14 1 1e+37 0 1 empty empty seed 0 -8 0 10 -262144
-1 -1 3456.39 256;
#X obj 107 152 nbx 3 14 1 64 0 1 empty empty empty 0 -8 0 10 -262144
-1 -1 2 256;
#N canvas 1 95 450 300 rndish-sp 0;
#X obj 72 42 inlet;
#X obj 151 -77 inlet;
#X obj 105 277 outlet;
#X obj 101 80 *;
#X obj 131 164 sqrt;
#X obj 108 197 +;
#X obj 111 114 t f f;
#X text 77 15 sp;
#X obj 108 235 sin;
#X obj 157 41 +;
#X obj 191 14 /;
#X msg 179 -14 1;
#X obj 164 -50 t f b f;
#X text 165 -102 seed;
#X connect 0 0 3 0;
#X connect 1 0 12 0;
#X connect 3 0 6 0;
#X connect 4 0 5 1;
#X connect 5 0 8 0;
#X connect 6 0 5 0;
#X connect 6 1 4 0;
#X connect 8 0 2 0;
#X connect 9 0 3 1;
#X connect 10 0 9 1;
#X connect 11 0 10 0;
#X connect 12 0 9 0;
#X connect 12 1 11 0;
#X connect 12 2 10 1;
#X restore -87 377 pd rndish-sp;
#X obj 33 332 div;
#X obj 107 169 nbx 3 14 1 64 0 1 empty empty empty 0 -8 0 10 -262144
-1 -1 4 256;
#N canvas 4 91 450 300 rndish-sp 0;
#X obj 72 42 inlet;
#X obj 151 -77 inlet;
#X obj 105 277 outlet;
#X obj 101 80 *;
#X obj 131 164 sqrt;
#X obj 108 197 +;
#X obj 111 114 t f f;
#X text 77 15 sp;
#X obj 108 235 sin;
#X obj 157 41 +;
#X obj 191 14 /;
#X msg 179 -14 1;
#X obj 164 -50 t f b f;
#X text 165 -102 seed;
#X connect 0 0 3 0;
#X connect 1 0 12 0;
#X connect 3 0 6 0;
#X connect 4 0 5 1;
#X connect 5 0 8 0;
#X connect 6 0 5 0;
#X connect 6 1 4 0;
#X connect 8 0 2 0;
#X connect 9 0 3 1;
#X connect 10 0 9 1;
#X connect 11 0 10 0;
#X connect 12 0 9 0;
#X connect 12 1 11 0;
#X connect 12 2 10 1;
#X restore 13 376 pd rndish-sp;
#X obj 138 328 div;
#X obj 107 195 nbx 3 14 1 64 0 1 empty empty empty 0 -8 0 10 -262144
-1 -1 1 256;
#N canvas 7 94 450 300 rndish-sp 0;
#X obj 72 42 inlet;
#X obj 151 -77 inlet;
#X obj 105 277 outlet;
#X obj 101 80 *;
#X obj 131 164 sqrt;
#X obj 108 197 +;
#X obj 111 114 t f f;
#X text 77 15 sp;
#X obj 108 235 sin;
#X obj 157 41 +;
#X obj 191 14 /;
#X msg 179 -14 1;
#X obj 164 -50 t f b f;
#X text 165 -102 seed;
#X connect 0 0 3 0;
#X connect 1 0 12 0;
#X connect 3 0 6 0;
#X connect 4 0 5 1;
#X connect 5 0 8 0;
#X connect 6 0 5 0;
#X connect 6 1 4 0;
#X connect 8 0 2 0;
#X connect 9 0 3 1;
#X connect 10 0 9 1;
#X connect 11 0 10 0;
#X connect 12 0 9 0;
#X connect 12 1 11 0;
#X connect 12 2 10 1;
#X restore 103 378 pd rndish-sp;
#X obj 201 126 nbx 4 14 3 1024 0 1 empty empty len(1/16) 0 -8 0 10
-262144 -1 -1 32 256;
#X obj 10 163 mod;
#X obj -6 246 +;
#X obj 104 126 nbx 4 14 0 1024 0 1 empty empty st(len) 0 -8 0 10 -262144
-1 -1 0 256;
#X obj 45 169 *;
#X obj 337 154 vsl 8 80 0.01 1 0 1 empty empty lvl 0 -7 0 10 -262144
-1 -1 3600 1;
#X obj 272 912 *;
#X obj 17 973 *~;
#X obj 151 126 nbx 4 14 0 1024 0 1 empty empty st(1/16) 0 -8 0 10 -262144
-1 -1 11 256;
#X obj 22 221 +;
#X obj 36 192 t b f;
#X obj 106 239 hsl 256 8 0 1 0 0 empty empty empty -2 -8 0 10 -262144
-1 -1 23109 1;
#X obj 74 257 /;
#X obj 75 30 t b f;
#X obj 194 331 div;
#X obj 107 212 nbx 3 14 1 64 0 1 empty empty empty 0 -8 0 10 -262144
-1 -1 5 256;
#N canvas 7 94 450 300 rndish-sp 0;
#X obj 72 42 inlet;
#X obj 151 -77 inlet;
#X obj 105 277 outlet;
#X obj 101 80 *;
#X obj 131 164 sqrt;
#X obj 108 197 +;
#X obj 111 114 t f f;
#X text 77 15 sp;
#X obj 108 235 sin;
#X obj 157 41 +;
#X obj 191 14 /;
#X msg 179 -14 1;
#X obj 164 -50 t f b f;
#X text 165 -102 seed;
#X connect 0 0 3 0;
#X connect 1 0 12 0;
#X connect 3 0 6 0;
#X connect 4 0 5 1;
#X connect 5 0 8 0;
#X connect 6 0 5 0;
#X connect 6 1 4 0;
#X connect 8 0 2 0;
#X connect 9 0 3 1;
#X connect 10 0 9 1;
#X connect 11 0 10 0;
#X connect 12 0 9 0;
#X connect 12 1 11 0;
#X connect 12 2 10 1;
#X restore 188 378 pd rndish-sp;
#N canvas 638 474 991 480 4_sp_random 0;
#N canvas 6 90 450 300 rndish 0;
#X obj 72 42 inlet;
#X obj 135 42 inlet;
#X obj 105 277 outlet;
#X obj 101 80 *;
#X obj 131 164 sqrt;
#X obj 108 197 +;
#X obj 111 114 t f f;
#X text 150 17 irrational nr/seed;
#X text 77 15 sp;
#X obj 108 235 sin;
#X connect 0 0 3 0;
#X connect 1 0 3 1;
#X connect 3 0 6 0;
#X connect 4 0 5 1;
#X connect 5 0 9 0;
#X connect 6 0 5 0;
#X connect 6 1 4 0;
#X connect 9 0 2 0;
#X restore 37 209 pd rndish;
#X obj 17 269 outlet;
#X obj 55 -87 inlet;
#X obj 267 122 sqrt;
#X msg 267 98 5;
#X obj 345 123 sqrt;
#X msg 345 99 7;
#X obj 180 131 sqrt;
#X msg 180 107 3;
#X obj 108 133 sqrt;
#X msg 108 109 2;
#X obj 373 -63 loadbang;
#X obj 109 160 * 100;
#X obj 180 158 * 100;
#N canvas 5 86 450 300 rndish 0;
#X obj 72 42 inlet;
#X obj 135 42 inlet;
#X obj 105 277 outlet;
#X obj 101 80 *;
#X obj 131 164 sqrt;
#X obj 108 197 +;
#X obj 111 114 t f f;
#X text 150 17 irrational nr/seed;
#X text 77 15 sp;
#X obj 108 235 sin;
#X connect 0 0 3 0;
#X connect 1 0 3 1;
#X connect 3 0 6 0;
#X connect 4 0 5 1;
#X connect 5 0 9 0;
#X connect 6 0 5 0;
#X connect 6 1 4 0;
#X connect 9 0 2 0;
#X restore 142 206 pd rndish;
#X obj 141 267 outlet;
#N canvas 5 86 450 300 rndish 0;
#X obj 72 42 inlet;
#X obj 135 42 inlet;
#X obj 105 277 outlet;
#X obj 101 80 *;
#X obj 131 164 sqrt;
#X obj 108 197 +;
#X obj 111 114 t f f;
#X text 150 17 irrational nr/seed;
#X text 77 15 sp;
#X obj 108 235 sin;
#X connect 0 0 3 0;
#X connect 1 0 3 1;
#X connect 3 0 6 0;
#X connect 4 0 5 1;
#X connect 5 0 9 0;
#X connect 6 0 5 0;
#X connect 6 1 4 0;
#X connect 9 0 2 0;
#X restore 231 205 pd rndish;
#X obj 264 152 * 100;
#X obj 346 154 * 100;
#N canvas 3 87 450 300 rndish 0;
#X obj 72 42 inlet;
#X obj 135 42 inlet;
#X obj 105 277 outlet;
#X obj 101 80 *;
#X obj 131 164 sqrt;
#X obj 108 197 +;
#X obj 111 114 t f f;
#X text 150 17 irrational nr/seed;
#X text 77 15 sp;
#X obj 108 235 sin;
#X connect 0 0 3 0;
#X connect 1 0 3 1;
#X connect 3 0 6 0;
#X connect 4 0 5 1;
#X connect 5 0 9 0;
#X connect 6 0 5 0;
#X connect 6 1 4 0;
#X connect 9 0 2 0;
#X restore 327 212 pd rndish;
#X obj 240 272 outlet;
#X obj 334 270 outlet;
#X obj 140 -87 inlet;
#X text 169 -118 4 sps;
#X obj 209 -91 inlet;
#X obj 294 -91 inlet;
#X connect 0 0 1 0;
#X connect 2 0 0 0;
#X connect 3 0 17 0;
#X connect 4 0 3 0;
#X connect 5 0 18 0;
#X connect 6 0 5 0;
#X connect 7 0 13 0;
#X connect 8 0 7 0;
#X connect 9 0 12 0;
#X connect 10 0 9 0;
#X connect 11 0 10 0;
#X connect 11 0 8 0;
#X connect 11 0 4 0;
#X connect 11 0 6 0;
#X connect 12 0 0 1;
#X connect 13 0 14 1;
#X connect 14 0 15 0;
#X connect 16 0 20 0;
#X connect 17 0 16 1;
#X connect 18 0 19 1;
#X connect 19 0 21 0;
#X connect 22 0 14 0;
#X connect 24 0 16 0;
#X connect 25 0 19 0;
#X restore 22 446 pd 4_sp_random;
#X obj 17 994 clip~ -1 1;
#X obj 248 152 nbx 7 14 -999 999 0 1 empty empty empty 0 -8 0 10 -262144
-1 -1 -314 256;
#X obj 88 729 line~;
#X obj 134 730 line~;
#X obj 248 169 nbx 7 14 -999 999 0 1 empty empty empty 0 -8 0 10 -262144
-1 -1 447 256;
#X obj 248 196 nbx 7 14 -999 999 0 1 empty empty empty 0 -8 0 10 -262144
-1 -1 87 256;
#X obj 203 746 line~;
#X obj 260 751 line~;
#X obj 248 213 nbx 7 14 -999 999 0 1 empty empty empty 0 -8 0 10 -262144
-1 -1 8 256;
#X obj 146 152 nbx 5 14 0 99 0 1 empty empty empty 0 -8 0 10 -262144
-1 -1 2.06 256;
#X obj 128 566 *;
#X obj 130 598 +;
#X obj 146 169 nbx 5 14 0 99 0 1 empty empty empty 0 -8 0 10 -262144
-1 -1 0.54 256;
#X obj 201 565 *;
#X obj 212 585 +;
#X obj 146 195 nbx 5 14 0 99 0 1 empty empty empty 0 -8 0 10 -262144
-1 -1 20 256;
#X obj 258 628 *;
#X obj 255 657 +;
#X obj 147 212 nbx 5 14 0 99 0 1 empty empty empty 0 -8 0 10 -262144
-1 -1 12 256;
#X obj 352 620 *;
#X obj 344 648 +;
#X obj 323 845 t f f;
#X obj 207 152 nbx 3 14 1 999 0 1 empty empty empty 0 -8 0 10 -262144
-1 -1 20 256;
#X obj 72 692 pack f f;
#X obj 138 681 pack f f;
#X obj 207 169 nbx 3 14 1 999 0 1 empty empty empty 0 -8 0 10 -262144
-1 -1 288 256;
#X obj 207 195 nbx 3 14 1 999 0 1 empty empty empty 0 -8 0 10 -262144
-1 -1 1 256;
#X obj 207 212 nbx 3 14 1 999 0 1 empty empty empty 0 -8 0 10 -262144
-1 -1 57 256;
#X obj 200 716 pack f f;
#X obj 251 704 pack f f;
#X obj 89 773 cos~;
#X obj 134 757 -~ 0.25;
#X obj 133 780 cos~;
#X obj 145 526 / 100;
#X obj 214 535 / 100;
#X obj 277 602 / 100;
#X obj 372 589 / 100;
#X obj 175 813 cos~;
#X obj 223 793 -~ 0.25;
#X obj 219 813 cos~;
#X obj 280 282 / 999;
#X obj 328 297 / 999;
#X obj 377 340 / 999;
#X obj 438 364 / 999;
#X obj 333 125 nbx 4 14 0 499 0 1 empty empty fbdel 0 -8 0 10 -262144
-1 -1 17 256;
#X obj 323 154 vsl 8 80 0.01 1 0 1 empty empty fb 0 -7 0 10 -262144
-1 -1 6900 1;
#X obj 126 802 *~;
#X obj 90 798 *~;
#X obj 110 185 hsl 128 8 1 2 0 1 empty empty unstability 2 5 0 10 -262144
-1 -1 5100 1;
#X obj 110 228 hsl 128 8 1 2 0 1 empty empty unstability 2 5 0 10 -262144
-1 -1 1600 1;
#X obj 189 859 *~;
#X obj 147 859 *~;
#X text 246 139 coordinates;
#X text 204 139 smooth;
#X text 106 139 speed;
#X text 146 139 mod_amt;
#X obj 79 -121 unpack f f f f f f f f f f f f f f f f f f f f f f f
f f;
#N canvas 404 126 1259 894 presets 0;
#X obj 79 53 inlet;
#X obj 781 744 outlet;
#X obj 718 74 inlet;
#X text 82 29 store;
#X text 718 54 recall;
#X obj 237 143 route 0 1 2 3 4 5 6 7 8 9 10 11 12 13 14 15;
#X msg 237 208 0 0 32 9014 16 2 2 72 90 0.197975 0.473671 7 3.36 8
4.12 1.14961 11 2 4 197 5 2.54 3 -77 1.23622;
#X obj 615 143 select 0 1 2 3 4 5 6 7 8 9 10 11 12 13 14 15;
#X msg 254 275 0 0 40 8665.01 17.25 3 6 276 -170.91 0.536329 0.536329
6 1.43 271 127.11 1.02362 2 2.27 1 165.53 5 2 129 -112.71 1.10236;
#X msg 296 335 0 0 32 64858 27 8 7 100 -254.36 0.661646 0.536329 5
31 271 -775.81 1 2 3.91 16 379.53 6 2.78 104 96.86 1.5748;
#X msg 328 394 0 0 32 9014 34 3 2 103 358 0.586456 0.473671 5 5 156
-8 1 7 0.59 61 90 10 47.24 135 -52 1.04724;
#X msg 373 456 0 16 32 7294 38 3 6 196 97 0.812025 0.473671 4 3.56
1 -3 1.01575 6 8.92 61 12 5 7 1 106.14 1.37008;
#X msg 415 516 0 0 32 953025 12 2 4 72 88 0.411013 0.473671 7 0.04
8 7.12 1.14961 11 0.55 1 246 5 15 231 -23 1.14961;
#X msg 447 575 0 0 48 11943 23.66 4 0.24 1 6.57 0.686709 0.461139 3
0.87 39 -7.84 1 11 7 134 165 5 12 30 83 1.38583;
#X msg 478 620 0 0 32 11739 14 8 46 117 -450.57 0.874684 0.373418 7
0.02 450 327 1.08661 10 15 1 77 4 3 190 22 1.02362;
#X msg 610 217 0 0 40 23243 28 2 0.63 1 448 0.899747 0.436076 5 0.19
266 -50 1 3 43 1 343 5 0 1 152 1.03937;
#X msg 655 280 0 0 32 12345 13 2 1 1 411 0.686709 0.461139 3 2 1 -415
1 5 14 385 76 4 26 356 8 1;
#X msg 210 98 \$1 set \$2 \$3 \$4 \$5 \$6 \$7 \$8 \$9 \$10 \$11 \$12
\$13 \$14 \$15 \$16 \$17 \$18 \$19 \$20 \$21 \$22 \$23 \$24 \$25 \$26
;
#X msg 697 339 0 0 48 10051 15 1 2.38 10 53.27 0.423544 0.461139 3
1.19 20 -35.3 1.01575 2 15 351 106.22 5 2 114 -28.74 1.17323;
#X msg 729 398 0 0 40 89796 33 2 28 4 417 0.598987 0.461139 3 53 109
885 1.47244 10 63 169 -556 7 7 26 -490 1.37008;
#X msg 759 448 0 11 32 3456.39 17 2 2.06 20 -314 0.874684 0.461139
4 0.54 288 447 1.40157 1 20 1 87 5 12 57 8 1.12598;
#X msg 804 510 0 0 32 10367 14 2 21 260 869 0.899747 0.473671 3 18
19 -638 1 11 0.22 1 -246 5 0.69 1 178 1;
#X msg 846 570 0 14 32 11760 20 2 4 5 104 0.736835 0.461139 5 14 17
-124 1.09449 4 3 289 188 6 40 1 -240 1;
#X msg 879 629 0 0 32 12345 20 2 0 1 0 0.01 0.461139 7 0 1 0 1 11 0
1 0 5 0 1 0 1;
#X connect 0 0 17 0;
#X connect 2 0 7 0;
#X connect 5 0 6 0;
#X connect 5 1 8 0;
#X connect 5 2 9 0;
#X connect 5 3 10 0;
#X connect 5 4 11 0;
#X connect 5 5 12 0;
#X connect 5 6 13 0;
#X connect 5 7 14 0;
#X connect 5 8 15 0;
#X connect 5 9 16 0;
#X connect 5 10 18 0;
#X connect 5 11 19 0;
#X connect 5 12 20 0;
#X connect 5 13 21 0;
#X connect 5 14 22 0;
#X connect 5 15 23 0;
#X connect 6 0 1 0;
#X connect 7 0 6 0;
#X connect 7 1 8 0;
#X connect 7 2 9 0;
#X connect 7 3 10 0;
#X connect 7 4 11 0;
#X connect 7 5 12 0;
#X connect 7 6 13 0;
#X connect 7 7 14 0;
#X connect 7 8 15 0;
#X connect 7 9 16 0;
#X connect 7 10 18 0;
#X connect 7 11 19 0;
#X connect 7 12 20 0;
#X connect 7 13 21 0;
#X connect 7 14 22 0;
#X connect 7 15 23 0;
#X connect 8 0 1 0;
#X connect 9 0 1 0;
#X connect 10 0 1 0;
#X connect 11 0 1 0;
#X connect 12 0 1 0;
#X connect 13 0 1 0;
#X connect 14 0 1 0;
#X connect 15 0 1 0;
#X connect 16 0 1 0;
#X connect 17 0 5 0;
#X connect 18 0 1 0;
#X connect 19 0 1 0;
#X connect 20 0 1 0;
#X connect 21 0 1 0;
#X connect 22 0 1 0;
#X connect 23 0 1 0;
#X restore 491 168 pd presets;
#X obj 354 165 bng 15 250 50 0 empty empty empty 17 7 0 10 -258113
-1 -1;
#X obj 355 206 bng 15 250 50 0 empty empty empty 17 7 0 10 -4034 -1
-1;
#X obj 485 78 float;
#X obj 663 80 float;
#X obj 349 186 nbx 2 14 0 15 0 1 empty empty empty 0 -8 0 10 -262144
-1 -1 12 256;
#X obj 591 361 pack f f f f f f f f f f f f f f f f f f f f f f f f
f f;
#X obj -1 896 abs_2polefeedbackloop;
#X connect 1 0 13 0;
#X connect 2 0 5 0;
#X connect 3 0 5 1;
#X connect 3 0 8 1;
#X connect 3 0 11 1;
#X connect 3 0 28 1;
#X connect 3 0 93 4;
#X connect 4 0 2 1;
#X connect 4 0 93 6;
#X connect 5 0 29 0;
#X connect 6 0 8 0;
#X connect 7 0 6 1;
#X connect 7 0 93 12;
#X connect 8 0 29 1;
#X connect 9 0 11 0;
#X connect 10 0 9 1;
#X connect 10 0 93 17;
#X connect 11 0 29 2;
#X connect 12 0 24 1;
#X connect 12 0 25 0;
#X connect 12 0 93 3;
#X connect 13 0 14 0;
#X connect 13 0 24 0;
#X connect 14 0 2 0;
#X connect 14 0 6 0;
#X connect 14 0 9 0;
#X connect 14 0 26 0;
#X connect 15 0 16 0;
#X connect 15 0 93 1;
#X connect 16 0 21 0;
#X connect 17 0 51 0;
#X connect 17 0 93 11;
#X connect 18 0 19 1;
#X connect 19 0 30 0;
#X connect 20 0 22 0;
#X connect 20 0 93 2;
#X connect 21 0 14 1;
#X connect 22 0 21 0;
#X connect 22 1 21 1;
#X connect 24 0 23 0;
#X connect 25 0 15 0;
#X connect 25 1 16 1;
#X connect 25 1 13 1;
#X connect 26 0 28 0;
#X connect 27 0 26 1;
#X connect 27 0 93 21;
#X connect 28 0 29 3;
#X connect 29 0 40 0;
#X connect 29 1 43 0;
#X connect 29 2 46 0;
#X connect 29 3 49 0;
#X connect 30 0 0 0;
#X connect 31 0 70 0;
#X connect 31 0 93 9;
#X connect 32 0 60 0;
#X connect 33 0 61 0;
#X connect 34 0 71 0;
#X connect 34 0 93 15;
#X connect 35 0 72 0;
#X connect 35 0 93 20;
#X connect 36 0 67 0;
#X connect 37 0 68 0;
#X connect 38 0 73 0;
#X connect 38 0 93 24;
#X connect 39 0 63 0;
#X connect 39 0 93 7;
#X connect 40 0 41 0;
#X connect 41 0 53 0;
#X connect 42 0 64 0;
#X connect 42 0 93 13;
#X connect 43 0 44 0;
#X connect 44 0 54 0;
#X connect 45 0 65 0;
#X connect 45 0 93 18;
#X connect 46 0 47 0;
#X connect 47 0 58 0;
#X connect 48 0 66 0;
#X connect 48 0 93 22;
#X connect 49 0 50 0;
#X connect 50 0 59 0;
#X connect 51 0 18 0;
#X connect 51 1 18 1;
#X connect 52 0 53 1;
#X connect 52 0 93 8;
#X connect 53 0 32 0;
#X connect 54 0 33 0;
#X connect 55 0 54 1;
#X connect 55 0 93 14;
#X connect 56 0 58 1;
#X connect 56 0 93 19;
#X connect 57 0 59 1;
#X connect 57 0 93 23;
#X connect 58 0 36 0;
#X connect 59 0 37 0;
#X connect 60 0 77 0;
#X connect 61 0 62 0;
#X connect 62 0 76 0;
#X connect 63 0 40 1;
#X connect 64 0 43 1;
#X connect 65 0 46 1;
#X connect 66 0 49 1;
#X connect 67 0 81 0;
#X connect 68 0 69 0;
#X connect 69 0 80 0;
#X connect 70 0 41 1;
#X connect 71 0 44 1;
#X connect 72 0 47 1;
#X connect 73 0 50 1;
#X connect 74 0 93 5;
#X connect 74 0 94 0;
#X connect 75 0 93 10;
#X connect 75 0 94 1;
#X connect 76 0 94 3;
#X connect 77 0 94 2;
#X connect 78 0 77 1;
#X connect 78 0 76 1;
#X connect 78 0 93 16;
#X connect 79 0 81 1;
#X connect 79 0 80 1;
#X connect 79 0 93 25;
#X connect 80 0 94 5;
#X connect 81 0 94 4;
#X connect 86 0 15 0;
#X connect 86 1 20 0;
#X connect 86 2 12 0;
#X connect 86 3 3 0;
#X connect 86 4 74 0;
#X connect 86 5 4 0;
#X connect 86 6 39 0;
#X connect 86 7 52 0;
#X connect 86 8 31 0;
#X connect 86 9 75 0;
#X connect 86 10 17 0;
#X connect 86 11 7 0;
#X connect 86 12 42 0;
#X connect 86 13 55 0;
#X connect 86 14 34 0;
#X connect 86 15 78 0;
#X connect 86 16 10 0;
#X connect 86 17 45 0;
#X connect 86 18 56 0;
#X connect 86 19 35 0;
#X connect 86 20 27 0;
#X connect 86 21 48 0;
#X connect 86 22 57 0;
#X connect 86 23 38 0;
#X connect 86 24 79 0;
#X connect 87 0 86 0;
#X connect 88 0 90 0;
#X connect 89 0 91 0;
#X connect 90 0 93 0;
#X connect 91 0 87 1;
#X connect 92 0 90 1;
#X connect 92 0 91 1;
#X connect 93 0 87 0;
#X connect 94 0 19 0;
#X coords 0 -1 1 1 280 150 1 100 100;
#X restore 34 63 pd 2polefbloop1;
#X text 168 33 3/2013 martin brinkmann;
#X text 168 7 noise generator based on 2 cpole filters and feedback.
controlled by random-trigger-loops.;
#X connect 0 0 3 0;
#X connect 2 0 1 0;
#X connect 2 1 1 1;
#X connect 3 0 2 0;
