#N canvas 104 264 890 406 10;
#N canvas 17 88 790 312 fix-pan-mix8 0;
#X obj 30 39 inlet~;
#X obj 101 41 inlet~;
#X obj 55 225 outlet~;
#X obj 180 226 outlet~;
#X obj 186 42 inlet~;
#X obj 269 44 inlet~;
#X obj 354 42 inlet~;
#X obj 430 44 inlet~;
#X obj 504 44 inlet~;
#X obj 579 47 inlet~;
#N canvas 0 50 450 300 pan1 0;
#X obj 120 15 inlet;
#X obj 297 51 inlet~;
#X obj 256 225 outlet~;
#X obj 336 218 outlet~;
#X obj 251 149 *~;
#X obj 323 154 *~;
#X obj 276 122 + 1;
#X obj 335 113 * -1;
#X obj 208 75 * -1;
#X obj 160 42 clip 0 1;
#X connect 0 0 9 0;
#X connect 1 0 4 0;
#X connect 1 0 5 1;
#X connect 4 0 2 0;
#X connect 5 0 3 0;
#X connect 6 0 4 1;
#X connect 7 0 5 0;
#X connect 8 0 6 0;
#X connect 8 0 7 0;
#X connect 9 0 8 0;
#X restore 22 105 pd pan1;
#X msg 9 79 0.5;
#N canvas 0 50 450 300 pan1 0;
#X obj 120 15 inlet;
#X obj 297 51 inlet~;
#X obj 256 225 outlet~;
#X obj 336 218 outlet~;
#X obj 251 149 *~;
#X obj 323 154 *~;
#X obj 276 122 + 1;
#X obj 335 113 * -1;
#X obj 208 75 * -1;
#X obj 160 42 clip 0 1;
#X connect 0 0 9 0;
#X connect 1 0 4 0;
#X connect 1 0 5 1;
#X connect 4 0 2 0;
#X connect 5 0 3 0;
#X connect 6 0 4 1;
#X connect 7 0 5 0;
#X connect 8 0 6 0;
#X connect 8 0 7 0;
#X connect 9 0 8 0;
#X restore 102 110 pd pan1;
#X msg 91 78 0.5;
#N canvas 0 50 450 300 pan1 0;
#X obj 120 15 inlet;
#X obj 297 51 inlet~;
#X obj 256 225 outlet~;
#X obj 336 218 outlet~;
#X obj 251 149 *~;
#X obj 323 154 *~;
#X obj 276 122 + 1;
#X obj 335 113 * -1;
#X obj 208 75 * -1;
#X obj 160 42 clip 0 1;
#X connect 0 0 9 0;
#X connect 1 0 4 0;
#X connect 1 0 5 1;
#X connect 4 0 2 0;
#X connect 5 0 3 0;
#X connect 6 0 4 1;
#X connect 7 0 5 0;
#X connect 8 0 6 0;
#X connect 8 0 7 0;
#X connect 9 0 8 0;
#X restore 183 101 pd pan1;
#X msg 170 75 0.5;
#N canvas 0 50 450 300 pan1 0;
#X obj 120 15 inlet;
#X obj 297 51 inlet~;
#X obj 256 225 outlet~;
#X obj 336 218 outlet~;
#X obj 251 149 *~;
#X obj 323 154 *~;
#X obj 276 122 + 1;
#X obj 335 113 * -1;
#X obj 208 75 * -1;
#X obj 160 42 clip 0 1;
#X connect 0 0 9 0;
#X connect 1 0 4 0;
#X connect 1 0 5 1;
#X connect 4 0 2 0;
#X connect 5 0 3 0;
#X connect 6 0 4 1;
#X connect 7 0 5 0;
#X connect 8 0 6 0;
#X connect 8 0 7 0;
#X connect 9 0 8 0;
#X restore 261 112 pd pan1;
#X msg 260 78 0.5;
#N canvas 0 50 450 300 pan1 0;
#X obj 120 15 inlet;
#X obj 297 51 inlet~;
#X obj 256 225 outlet~;
#X obj 336 218 outlet~;
#X obj 251 149 *~;
#X obj 323 154 *~;
#X obj 276 122 + 1;
#X obj 335 113 * -1;
#X obj 208 75 * -1;
#X obj 160 42 clip 0 1;
#X connect 0 0 9 0;
#X connect 1 0 4 0;
#X connect 1 0 5 1;
#X connect 4 0 2 0;
#X connect 5 0 3 0;
#X connect 6 0 4 1;
#X connect 7 0 5 0;
#X connect 8 0 6 0;
#X connect 8 0 7 0;
#X connect 9 0 8 0;
#X restore 341 108 pd pan1;
#X msg 338 77 0.5;
#N canvas 0 50 450 300 pan1 0;
#X obj 120 15 inlet;
#X obj 297 51 inlet~;
#X obj 256 225 outlet~;
#X obj 336 218 outlet~;
#X obj 251 149 *~;
#X obj 323 154 *~;
#X obj 276 122 + 1;
#X obj 335 113 * -1;
#X obj 208 75 * -1;
#X obj 160 42 clip 0 1;
#X connect 0 0 9 0;
#X connect 1 0 4 0;
#X connect 1 0 5 1;
#X connect 4 0 2 0;
#X connect 5 0 3 0;
#X connect 6 0 4 1;
#X connect 7 0 5 0;
#X connect 8 0 6 0;
#X connect 8 0 7 0;
#X connect 9 0 8 0;
#X restore 436 102 pd pan1;
#X msg 423 76 0.5;
#N canvas 0 50 450 300 pan1 0;
#X obj 120 15 inlet;
#X obj 297 51 inlet~;
#X obj 256 225 outlet~;
#X obj 336 218 outlet~;
#X obj 251 149 *~;
#X obj 323 154 *~;
#X obj 276 122 + 1;
#X obj 335 113 * -1;
#X obj 208 75 * -1;
#X obj 160 42 clip 0 1;
#X connect 0 0 9 0;
#X connect 1 0 4 0;
#X connect 1 0 5 1;
#X connect 4 0 2 0;
#X connect 5 0 3 0;
#X connect 6 0 4 1;
#X connect 7 0 5 0;
#X connect 8 0 6 0;
#X connect 8 0 7 0;
#X connect 9 0 8 0;
#X restore 508 103 pd pan1;
#X msg 501 75 0.5;
#N canvas 0 50 450 300 pan1 0;
#X obj 120 15 inlet;
#X obj 297 51 inlet~;
#X obj 256 225 outlet~;
#X obj 336 218 outlet~;
#X obj 251 149 *~;
#X obj 323 154 *~;
#X obj 276 122 + 1;
#X obj 335 113 * -1;
#X obj 208 75 * -1;
#X obj 160 42 clip 0 1;
#X connect 0 0 9 0;
#X connect 1 0 4 0;
#X connect 1 0 5 1;
#X connect 4 0 2 0;
#X connect 5 0 3 0;
#X connect 6 0 4 1;
#X connect 7 0 5 0;
#X connect 8 0 6 0;
#X connect 8 0 7 0;
#X connect 9 0 8 0;
#X restore 587 102 pd pan1;
#X msg 574 76 0.5;
#X obj 316 11 loadbang;
#X connect 0 0 10 1;
#X connect 1 0 12 1;
#X connect 4 0 14 1;
#X connect 5 0 16 1;
#X connect 6 0 18 1;
#X connect 7 0 20 1;
#X connect 8 0 22 1;
#X connect 9 0 24 1;
#X connect 10 0 2 0;
#X connect 10 1 3 0;
#X connect 11 0 10 0;
#X connect 12 0 2 0;
#X connect 12 1 3 0;
#X connect 13 0 12 0;
#X connect 14 0 2 0;
#X connect 14 1 3 0;
#X connect 15 0 14 0;
#X connect 16 0 2 0;
#X connect 16 1 3 0;
#X connect 17 0 16 0;
#X connect 18 0 2 0;
#X connect 18 1 3 0;
#X connect 19 0 18 0;
#X connect 20 0 2 0;
#X connect 20 1 3 0;
#X connect 21 0 20 0;
#X connect 22 0 2 0;
#X connect 22 1 3 0;
#X connect 23 0 22 0;
#X connect 24 0 2 0;
#X connect 24 1 3 0;
#X connect 25 0 24 0;
#X connect 26 0 11 0;
#X connect 26 0 13 0;
#X connect 26 0 15 0;
#X connect 26 0 17 0;
#X connect 26 0 19 0;
#X connect 26 0 21 0;
#X connect 26 0 23 0;
#X connect 26 0 25 0;
#X restore 99 135 pd fix-pan-mix8;
#X obj 37 -46 key;
#X floatatom 32 8 5 0 0 0 - - -;
#X obj 68 -59 select 113 119 101 114 116 122 117 105 97 115 100 102
103 104 106 107;
#X text -59 -65 qwertzui asdfghjk;
#X obj -46 10 bng 15 250 50 0 empty empty empty 17 7 0 10 -262144 -1
-1;
#N canvas 1 79 1184 284 16-hardware-controller-levels 0;
#X obj 45 207 outlet;
#X obj 115 207 outlet;
#X obj 185 207 outlet;
#X obj 255 207 outlet;
#X obj 325 207 outlet;
#X obj 395 207 outlet;
#X obj 465 207 outlet;
#X obj 535 207 outlet;
#X obj 605 207 outlet;
#X obj 675 207 outlet;
#X obj 745 207 outlet;
#X obj 815 207 outlet;
#X obj 885 207 outlet;
#X obj 955 207 outlet;
#X obj 1025 207 outlet;
#X obj 1095 207 outlet;
#X obj 413 27 abs_16midifaders ___________________________;
#X connect 16 0 0 0;
#X connect 16 1 1 0;
#X connect 16 2 2 0;
#X connect 16 3 3 0;
#X connect 16 4 4 0;
#X connect 16 5 5 0;
#X connect 16 6 6 0;
#X connect 16 7 7 0;
#X connect 16 8 8 0;
#X connect 16 9 9 0;
#X connect 16 10 10 0;
#X connect 16 11 11 0;
#X connect 16 12 12 0;
#X connect 16 13 13 0;
#X connect 16 14 14 0;
#X connect 16 15 15 0;
#X restore 123 7 pd 16-hardware-controller-levels;
#X obj 98 211 dac~;
#X obj 83 171 hip~ 20;
#X obj 147 171 hip~ 20;
#X obj -34 -20 stripnote;
#X obj -33 -49 notein;
#N canvas 215 231 667 548 xfader 0;
#X obj 22 339 outlet~;
#X obj 105 114 hsl 80 8 0 1 0 1 empty empty empty -22 5 0 10 -262144
-1 -1 3300 1;
#X obj 21 257 +~;
#X obj 43 227 *~;
#X obj -19 230 *~;
#X obj -12 175 * -1;
#X obj -12 199 + 1;
#X obj -83 121 inlet~;
#X obj 18 124 inlet~;
#X obj 280 -125 inlet;
#X obj 216 -26 / 128;
#X text -47 -109 simple crossfader (or dry/wet slider);
#X connect 1 0 5 0;
#X connect 1 0 3 1;
#X connect 2 0 0 0;
#X connect 3 0 2 1;
#X connect 4 0 2 0;
#X connect 5 0 6 0;
#X connect 6 0 4 1;
#X connect 7 0 4 0;
#X connect 8 0 3 0;
#X connect 9 0 10 0;
#X connect 10 0 1 0;
#X coords 0 -1 1 1 90 25 1 100 100;
#X restore 464 -14 pd xfader;
#N canvas 211 233 667 548 xfader1s 0;
#X obj 16 360 outlet~;
#X obj 105 114 hsl 80 8 0 1 0 1 empty empty empty -22 5 0 10 -262144
-1 -1 3300 1;
#X obj 15 278 +~;
#X obj 37 248 *~;
#X obj -25 251 *~;
#X obj 39 173 * -1;
#X obj 39 197 + 1;
#X obj -211 143 inlet~;
#X obj -63 141 inlet~;
#X obj 280 -125 inlet;
#X obj 216 -26 / 128;
#X text -47 -109 simple crossfader (or dry/wet slider);
#X obj -163 362 outlet~;
#X obj -164 280 +~;
#X obj -142 250 *~;
#X obj -204 253 *~;
#X obj -268 144 inlet~;
#X obj -110 141 inlet~;
#X text -242 115 dry;
#X text -88 118 wet;
#X connect 1 0 5 0;
#X connect 1 0 3 1;
#X connect 1 0 14 1;
#X connect 2 0 0 0;
#X connect 3 0 2 1;
#X connect 4 0 2 0;
#X connect 5 0 6 0;
#X connect 6 0 4 1;
#X connect 6 0 15 1;
#X connect 7 0 4 0;
#X connect 8 0 3 0;
#X connect 9 0 10 0;
#X connect 10 0 1 0;
#X connect 13 0 12 0;
#X connect 14 0 13 1;
#X connect 15 0 13 0;
#X connect 16 0 15 0;
#X connect 17 0 14 0;
#X coords 0 -1 1 1 90 25 1 100 100;
#X restore 564 -15 pd xfader1s;
#X text 428 -56 midi i/o \, fadera/buttons \, volume levels mono/stereo
\, pan \, xfader;
#N canvas 440 360 537 395 lvl1s 0;
#X obj 50 18 inlet~;
#X obj 66 323 outlet~;
#X obj 157 202 *;
#X obj 66 295 *~;
#X obj 159 160 / 128;
#X obj 106 120 hsl 80 8 0 127 0 1 empty empty empty -2 -8 0 10 -262144
-1 -1 7200 1;
#X obj 84 266 *;
#X obj 93 42 inlet;
#X obj -8 19 inlet~;
#X obj 8 324 outlet~;
#X obj 8 296 *~;
#X obj 152 103 nbx 3 14 1 999 0 1 empty empty empty 0 -8 0 10 -262144
-1 -1 100 256;
#X obj 106 208 / 100;
#X obj 158 180 t f f;
#X obj 79 180 t b f;
#X connect 0 0 3 0;
#X connect 2 0 6 0;
#X connect 3 0 1 0;
#X connect 4 0 13 0;
#X connect 5 0 4 0;
#X connect 6 0 3 1;
#X connect 6 0 10 1;
#X connect 7 0 5 0;
#X connect 8 0 10 0;
#X connect 10 0 9 0;
#X connect 11 0 14 0;
#X connect 12 0 6 1;
#X connect 13 0 2 0;
#X connect 13 1 2 1;
#X connect 14 0 5 0;
#X connect 14 1 12 0;
#X coords 0 -1 1 1 90 30 1 100 100;
#X restore 230 74 pd lvl1s;
#N canvas 438 361 537 395 lvl1 0;
#X obj 50 18 inlet~;
#X obj 66 323 outlet~;
#X obj 157 202 *;
#X obj 66 295 *~;
#X obj 159 160 / 128;
#X obj 106 120 hsl 80 8 0 127 0 1 empty empty empty -2 -8 0 10 -262144
-1 -1 7200 1;
#X obj 84 266 *;
#X obj 93 42 inlet;
#X obj 152 103 nbx 3 14 1 999 0 1 empty empty empty 0 -8 0 10 -262144
-1 -1 100 256;
#X obj 106 208 / 100;
#X obj 158 180 t f f;
#X obj 79 180 t b f;
#X connect 0 0 3 0;
#X connect 2 0 6 0;
#X connect 3 0 1 0;
#X connect 4 0 10 0;
#X connect 5 0 4 0;
#X connect 6 0 3 1;
#X connect 7 0 5 0;
#X connect 8 0 11 0;
#X connect 9 0 6 1;
#X connect 10 0 2 0;
#X connect 10 1 2 1;
#X connect 11 0 5 0;
#X connect 11 1 9 0;
#X coords 0 -1 1 1 90 30 1 100 100;
#X restore 112 72 pd lvl1;
#X connect 0 0 8 0;
#X connect 0 1 9 0;
#X connect 1 0 2 0;
#X connect 1 0 3 0;
#X connect 6 0 16 1;
#X connect 6 1 15 2;
#X connect 8 0 7 0;
#X connect 9 0 7 1;
#X connect 10 0 3 0;
#X connect 10 0 5 0;
#X connect 10 0 2 0;
#X connect 11 0 10 0;
#X connect 11 1 10 1;
