#N canvas 297 80 1607 946 10;
#X obj 279 935 *~;
#X obj 337 934 *~;
#X obj 309 972 +~;
#X obj 381 917 +;
#X obj 305 1068 /~;
#X obj 380 944 clip 1 2;
#X obj 259 809 random 100;
#X obj 260 831 / 100;
#X msg 321 845 bang;
#X obj 377 828 random 100;
#X obj 377 849 / 100;
#X obj 744 1240 mtof~;
#X obj 749 1158 +~;
#X obj 654 1108 *~;
#X obj 653 1136 clip~ -1 1;
#X obj 736 1274 moog~;
#X text 782 1273 needs moog~;
#X obj 666 1054 random 64;
#X obj 666 1077 + 1;
#X obj 826 1159 random 128;
#X obj 826 1183 / 32;
#X obj 730 1083 random 100;
#X obj 731 1105 + 20;
#X text 719 987 filter;
#X text 333 759 mixer;
#X obj 816 1012 line~;
#X obj 792 901 random 128;
#X obj 792 924 / 128;
#X obj 789 1127 *~;
#X obj 892 1037 random 2;
#X obj 893 1058 - 1;
#X obj 893 1081 * 40;
#X obj 794 960 pack;
#X obj 299 882 float;
#X obj 377 876 float;
#X obj 92 516 phasor~;
#X obj 84 836 hip~ 5;
#X obj 209 673 *~;
#X obj 116 668 *~;
#X obj 259 649 -;
#X msg 257 610 1;
#X obj 147 698 +~;
#X obj 60 787 *~;
#X obj 115 787 *~;
#X obj 82 727 -;
#X msg 51 706 1;
#X obj 83 812 +~;
#X obj 8 683 +~;
#X obj 31 660 *~;
#X obj 65 603 *~ -2;
#X obj 52 628 +~ 1;
#X obj 8 716 *~ 2;
#X obj 72 677 t b f;
#X obj 61 332 random 128;
#X obj 118 364 random 100;
#X obj 118 408 / 100;
#X obj 118 386 - 50;
#X obj 95 431 +;
#X obj 169 253 t b b;
#X obj 178 747 random 100;
#X obj 178 769 / 100;
#X obj 276 542 random 100;
#X obj 274 565 / 100;
#X obj 208 351 random 100;
#X obj 206 374 / 100;
#X obj 550 510 phasor~;
#X obj 562 782 hip~ 5;
#X obj 683 633 *~;
#X obj 586 638 *~;
#X obj 722 606 -;
#X msg 727 580 1;
#X obj 617 668 +~;
#X obj 535 443 +~;
#X obj 549 488 mtof~;
#X obj 538 733 *~;
#X obj 582 736 *~;
#X obj 552 697 -;
#X msg 521 676 1;
#X obj 561 758 +~;
#X obj 481 653 +~;
#X obj 501 630 *~;
#X obj 535 573 *~ -2;
#X obj 522 598 +~ 1;
#X obj 484 682 *~ 2;
#X obj 542 647 t b f;
#X obj 531 302 random 128;
#X obj 588 334 random 100;
#X obj 588 378 / 100;
#X obj 588 356 - 50;
#X obj 578 407 +;
#X obj 619 261 t b b;
#X obj 646 692 random 100;
#X obj 643 715 / 100;
#X obj 735 513 random 100;
#X obj 733 536 / 100;
#X obj 694 322 random 100;
#X obj 692 344 / 100;
#X msg 62 306 seed \$1;
#X msg 136 339 seed \$1;
#X msg 208 323 seed \$1;
#X msg 282 518 seed \$1;
#X msg 180 722 seed \$1;
#X text 125 477 saw/pulse/tri osc 1;
#X text 591 441 saw/pulse/tri osc 2;
#X msg 533 279 seed \$1;
#X msg 613 310 seed \$1;
#X msg 696 299 seed \$1;
#X msg 736 488 seed \$1;
#X msg 709 669 seed \$1;
#X msg 281 784 seed \$1;
#X msg 401 796 seed \$1;
#X msg 652 1028 seed \$1;
#X msg 795 877 seed \$1;
#X msg 890 892 seed \$1;
#X msg 745 1058 seed \$1;
#X msg 895 1008 seed \$1;
#X msg 836 1136 seed \$1;
#X obj 466 324 random 100;
#X msg 472 300 seed \$1;
#X obj 472 350 clip 30 100;
#X obj 474 373 - 30;
#X obj 379 549 line~;
#X obj 337 387 random 128;
#X obj 335 416 / 128;
#X obj 379 506 pack;
#X msg 344 363 seed \$1;
#X msg 404 433 seed \$1;
#X obj 386 575 *~;
#X msg 267 210 bang;
#X msg 644 200 bang;
#X msg 307 272 bang;
#X msg 363 681 bang;
#X msg 838 787 bang;
#X obj 165 513 clip~ 0.05 0.95;
#X obj 165 452 +~;
#X obj -38 410 *~;
#X msg -173 283 seed \$1;
#X obj -173 307 random 20;
#X msg -8 299 seed \$1;
#X obj -17 324 random 100;
#X obj -20 390 / 200;
#X obj -20 350 clip 20 100;
#X obj -20 370 - 20;
#X text -105 334 pwm;
#X text 363 594 fm-amt;
#X obj 793 380 *~;
#X msg 841 223 seed \$1;
#X obj 841 247 random 20;
#X msg 959 251 seed \$1;
#X obj 950 276 random 100;
#X obj 941 349 / 200;
#X obj 947 302 clip 20 100;
#X obj 947 322 - 20;
#X text 785 303 pwm;
#X obj 664 411 +~;
#X obj 619 467 clip~ 0.05 0.95;
#X obj 553 1312 *~;
#X msg 514 1157 seed \$1;
#X obj 514 1181 random 20;
#X msg 583 1194 seed \$1;
#X obj 575 1218 random 100;
#X obj 573 1240 clip 20 100;
#X obj 573 1261 - 20;
#X obj 747 1215 clip~ 1 130;
#X obj 734 1188 +~;
#X obj 573 1283 / 2;
#X obj 399 458 random 2000;
#X obj 875 919 random 2000;
#X obj -3 161 inlet;
#X obj -174 260 + 1;
#X obj -2 274 + 2;
#X obj 60 284 + 3;
#X obj 139 315 + 4;
#X obj 209 301 + 5;
#X obj 285 497 + 6;
#X text 39 160 <-seed;
#X obj 182 701 + 7;
#X obj 283 764 + 8;
#X obj 403 776 + 9;
#X obj 349 343 + 10;
#X obj 404 409 + 11;
#X obj 477 278 + 12;
#X obj 533 258 + 13;
#X obj 616 290 + 14;
#X obj 698 278 + 15;
#X obj 842 199 + 16;
#X obj 964 226 + 17;
#X obj 737 468 + 18;
#X obj 711 650 + 19;
#X obj 515 1134 + 20;
#X obj 589 1168 + 21;
#X obj 653 1008 + 22;
#X obj 744 1035 + 23;
#X obj 796 852 + 24;
#X obj 888 871 + 25;
#X obj 900 986 + 26;
#X obj 838 1115 + 27;
#X obj 735 1353 outlet~;
#X obj 267 189 inlet;
#X text 306 187 <- osc1;
#X obj 310 244 inlet;
#X text 350 242 <- fm;
#X obj 371 654 inlet;
#X text 411 652 <- mix;
#X obj 634 172 inlet;
#X text 673 170 <- osc2;
#X obj 845 753 inlet;
#X text 885 753 <- fliter;
#X msg 452 214 1;
#X msg 510 214 0;
#X obj 821 1322 snapshot~;
#X obj -57 154 *;
#X obj 501 398 +~;
#X obj 514 421 *~;
#X obj 505 1227 +~;
#X obj 480 1199 / 20;
#X obj 417 481 *;
#X obj 840 943 *;
#X obj 530 465 +~;
#X obj 77 458 mtof;
#X obj 74 489 +~;
#X obj 291 1026 +~;
#X obj 223 965 *~;
#X obj 197 933 / 25;
#X obj 737 1129 +;
#X obj 1027 1277 vd~ \$0-rnsubdel1;
#X obj 808 1352 delwrite~ \$0-rnsubdel1 1000;
#X obj 1000 396 hip~ 5;
#X obj 1037 433 clip~ -1 1;
#X msg 984 479 bang;
#X text 1058 403 lfo wave;
#X obj 989 576 tabwrite~ \$0lfowavbuffer;
#X obj 989 601 table \$0lfowavbuffer 515;
#X obj 391 1264 tabosc4~ \$0lfowavbuffer;
#X obj 1075 351 inlet;
#X obj -200 359 tabosc4~ \$0lfowavbuffer;
#X obj 778 325 tabosc4~ \$0lfowavbuffer;
#X obj 1074 460 lop~ 200;
#X obj 888 454 osc~ 86.1328;
#X obj 1002 546 +~;
#X obj 948 506 *~;
#X obj 1047 510 *~;
#X obj 262 90 -;
#X msg 227 62 1;
#X obj 218 6 t b f;
#X obj 596 546 expr~ $v1>$v2;
#X obj 132 587 expr~ $v1>$v2;
#X obj -32 564 expr~ $v1>0.5;
#X obj 461 552 expr~ $v1>0.5;
#X obj -309 67 inlet;
#X text -307 49 fb-am;
#X obj -271 67 inlet;
#X text -269 49 del;
#X obj -234 67 inlet;
#X text -230 50 env-sp;
#X obj -187 67 inlet;
#X text -183 50 tp;
#X obj 104 154 float;
#X obj -148 68 inlet;
#X text -144 51 lf-t;
#X obj -104 68 inlet;
#X text -100 48 cut;
#X text 315 46 random controled simple subtractive synth 2 osc + fm
+ lp-filter +lfos 11/2006 \, 6/2008 martin brinkmann \, abstraction
2012;
#X connect 0 0 2 0;
#X connect 1 0 2 1;
#X connect 2 0 221 1;
#X connect 3 0 5 0;
#X connect 4 0 13 0;
#X connect 5 0 4 1;
#X connect 6 0 7 0;
#X connect 7 0 33 0;
#X connect 8 0 33 0;
#X connect 9 0 10 0;
#X connect 10 0 34 0;
#X connect 11 0 15 1;
#X connect 12 0 164 1;
#X connect 13 0 14 0;
#X connect 14 0 15 0;
#X connect 15 0 197 0;
#X connect 15 0 226 0;
#X connect 15 0 227 0;
#X connect 17 0 18 0;
#X connect 18 0 13 1;
#X connect 19 0 20 0;
#X connect 20 0 15 2;
#X connect 21 0 22 0;
#X connect 22 0 224 0;
#X connect 25 0 28 0;
#X connect 26 0 27 0;
#X connect 27 0 32 0;
#X connect 28 0 12 1;
#X connect 29 0 30 0;
#X connect 30 0 31 0;
#X connect 31 0 28 1;
#X connect 32 0 25 0;
#X connect 33 0 3 0;
#X connect 33 0 0 1;
#X connect 34 0 3 1;
#X connect 34 0 8 0;
#X connect 34 0 1 1;
#X connect 35 0 38 0;
#X connect 35 0 49 0;
#X connect 35 0 47 0;
#X connect 35 0 246 0;
#X connect 35 0 247 0;
#X connect 36 0 0 0;
#X connect 37 0 41 1;
#X connect 38 0 41 0;
#X connect 39 0 37 1;
#X connect 40 0 39 0;
#X connect 41 0 43 0;
#X connect 42 0 46 0;
#X connect 43 0 46 1;
#X connect 44 0 42 1;
#X connect 45 0 44 0;
#X connect 46 0 36 0;
#X connect 46 0 127 0;
#X connect 47 0 51 0;
#X connect 48 0 47 1;
#X connect 49 0 50 0;
#X connect 50 0 48 1;
#X connect 51 0 42 0;
#X connect 52 0 45 0;
#X connect 52 1 44 1;
#X connect 53 0 57 0;
#X connect 54 0 56 0;
#X connect 55 0 57 1;
#X connect 56 0 55 0;
#X connect 57 0 219 0;
#X connect 58 0 53 0;
#X connect 58 1 54 0;
#X connect 59 0 60 0;
#X connect 60 0 52 0;
#X connect 60 0 43 1;
#X connect 61 0 62 0;
#X connect 62 0 38 1;
#X connect 62 0 39 1;
#X connect 62 0 40 0;
#X connect 63 0 64 0;
#X connect 64 0 134 1;
#X connect 65 0 68 0;
#X connect 65 0 81 0;
#X connect 65 0 79 0;
#X connect 65 0 245 0;
#X connect 65 0 248 0;
#X connect 66 0 1 0;
#X connect 67 0 71 1;
#X connect 68 0 71 0;
#X connect 69 0 67 1;
#X connect 70 0 69 0;
#X connect 71 0 75 0;
#X connect 72 0 218 1;
#X connect 73 0 65 0;
#X connect 74 0 78 0;
#X connect 75 0 78 1;
#X connect 76 0 74 1;
#X connect 77 0 76 0;
#X connect 78 0 66 0;
#X connect 79 0 83 0;
#X connect 80 0 79 1;
#X connect 81 0 82 0;
#X connect 82 0 80 1;
#X connect 83 0 74 0;
#X connect 84 0 77 0;
#X connect 84 1 76 1;
#X connect 85 0 89 0;
#X connect 86 0 88 0;
#X connect 87 0 89 1;
#X connect 88 0 87 0;
#X connect 89 0 72 1;
#X connect 90 0 85 0;
#X connect 90 1 86 0;
#X connect 91 0 92 0;
#X connect 92 0 84 0;
#X connect 92 0 75 1;
#X connect 93 0 94 0;
#X connect 94 0 68 1;
#X connect 94 0 69 1;
#X connect 94 0 70 0;
#X connect 95 0 96 0;
#X connect 96 0 154 0;
#X connect 97 0 53 0;
#X connect 98 0 54 0;
#X connect 99 0 63 0;
#X connect 100 0 61 0;
#X connect 101 0 59 0;
#X connect 104 0 85 0;
#X connect 105 0 86 0;
#X connect 106 0 95 0;
#X connect 107 0 93 0;
#X connect 108 0 91 0;
#X connect 109 0 6 0;
#X connect 110 0 9 0;
#X connect 111 0 17 0;
#X connect 112 0 26 0;
#X connect 113 0 167 0;
#X connect 114 0 21 0;
#X connect 115 0 29 0;
#X connect 116 0 19 0;
#X connect 117 0 119 0;
#X connect 118 0 117 0;
#X connect 119 0 120 0;
#X connect 120 0 212 1;
#X connect 121 0 127 1;
#X connect 122 0 123 0;
#X connect 123 0 124 0;
#X connect 124 0 121 0;
#X connect 125 0 122 0;
#X connect 126 0 166 0;
#X connect 127 0 213 0;
#X connect 128 0 58 0;
#X connect 128 0 63 0;
#X connect 128 0 61 0;
#X connect 128 0 59 0;
#X connect 128 0 139 0;
#X connect 128 0 137 0;
#X connect 129 0 90 0;
#X connect 129 0 95 0;
#X connect 129 0 91 0;
#X connect 129 0 93 0;
#X connect 129 0 147 0;
#X connect 129 0 149 0;
#X connect 130 0 117 0;
#X connect 130 0 122 0;
#X connect 130 0 166 0;
#X connect 130 0 210 0;
#X connect 131 0 9 0;
#X connect 131 0 6 0;
#X connect 132 0 26 0;
#X connect 132 0 17 0;
#X connect 132 0 21 0;
#X connect 132 0 19 0;
#X connect 132 0 29 0;
#X connect 132 0 158 0;
#X connect 132 0 160 0;
#X connect 132 0 167 0;
#X connect 132 0 210 0;
#X connect 133 0 246 1;
#X connect 134 0 133 0;
#X connect 135 0 134 0;
#X connect 136 0 137 0;
#X connect 137 0 235 0;
#X connect 138 0 139 0;
#X connect 139 0 141 0;
#X connect 140 0 135 1;
#X connect 141 0 142 0;
#X connect 142 0 140 0;
#X connect 145 0 154 1;
#X connect 146 0 147 0;
#X connect 147 0 236 0;
#X connect 148 0 149 0;
#X connect 149 0 151 0;
#X connect 150 0 145 1;
#X connect 151 0 152 0;
#X connect 152 0 150 0;
#X connect 154 0 155 0;
#X connect 155 0 245 1;
#X connect 156 0 164 0;
#X connect 157 0 158 0;
#X connect 158 0 214 1;
#X connect 159 0 160 0;
#X connect 160 0 161 0;
#X connect 161 0 162 0;
#X connect 162 0 165 0;
#X connect 163 0 11 0;
#X connect 164 0 163 0;
#X connect 165 0 156 1;
#X connect 166 0 216 0;
#X connect 167 0 217 0;
#X connect 168 0 169 0;
#X connect 168 0 170 0;
#X connect 168 0 171 0;
#X connect 168 0 172 0;
#X connect 168 0 173 0;
#X connect 168 0 174 0;
#X connect 168 0 176 0;
#X connect 168 0 177 0;
#X connect 168 0 178 0;
#X connect 168 0 179 0;
#X connect 168 0 180 0;
#X connect 168 0 181 0;
#X connect 168 0 182 0;
#X connect 168 0 183 0;
#X connect 168 0 184 0;
#X connect 168 0 185 0;
#X connect 168 0 186 0;
#X connect 168 0 187 0;
#X connect 168 0 188 0;
#X connect 168 0 189 0;
#X connect 168 0 190 0;
#X connect 168 0 191 0;
#X connect 168 0 192 0;
#X connect 168 0 193 0;
#X connect 168 0 194 0;
#X connect 168 0 195 0;
#X connect 168 0 196 0;
#X connect 168 0 208 0;
#X connect 169 0 136 0;
#X connect 170 0 138 0;
#X connect 171 0 97 0;
#X connect 172 0 98 0;
#X connect 173 0 99 0;
#X connect 174 0 100 0;
#X connect 176 0 101 0;
#X connect 177 0 109 0;
#X connect 178 0 110 0;
#X connect 179 0 125 0;
#X connect 180 0 126 0;
#X connect 181 0 118 0;
#X connect 182 0 104 0;
#X connect 183 0 105 0;
#X connect 184 0 106 0;
#X connect 185 0 146 0;
#X connect 186 0 148 0;
#X connect 187 0 107 0;
#X connect 188 0 108 0;
#X connect 189 0 157 0;
#X connect 190 0 159 0;
#X connect 191 0 111 0;
#X connect 192 0 114 0;
#X connect 193 0 112 0;
#X connect 194 0 113 0;
#X connect 195 0 115 0;
#X connect 196 0 116 0;
#X connect 198 0 128 0;
#X connect 200 0 130 0;
#X connect 202 0 131 0;
#X connect 204 0 129 0;
#X connect 206 0 132 0;
#X connect 208 0 35 1;
#X connect 208 0 65 1;
#X connect 208 0 209 0;
#X connect 208 0 233 1;
#X connect 208 0 235 1;
#X connect 208 0 236 1;
#X connect 209 0 121 0;
#X connect 209 0 25 0;
#X connect 210 0 211 0;
#X connect 211 0 212 0;
#X connect 211 0 215 0;
#X connect 212 0 213 1;
#X connect 213 0 72 0;
#X connect 214 0 233 0;
#X connect 215 0 214 0;
#X connect 216 0 124 1;
#X connect 217 0 32 1;
#X connect 218 0 73 0;
#X connect 219 0 220 0;
#X connect 220 0 35 0;
#X connect 221 0 4 0;
#X connect 222 0 221 0;
#X connect 223 0 222 0;
#X connect 224 0 12 0;
#X connect 225 0 210 0;
#X connect 225 0 222 1;
#X connect 227 0 228 0;
#X connect 228 0 237 0;
#X connect 229 0 231 0;
#X connect 233 0 156 0;
#X connect 234 0 229 0;
#X connect 235 0 135 0;
#X connect 236 0 145 0;
#X connect 237 0 241 0;
#X connect 238 0 240 0;
#X connect 239 0 231 0;
#X connect 240 0 239 0;
#X connect 241 0 239 1;
#X connect 242 0 240 1;
#X connect 243 0 242 0;
#X connect 244 0 243 0;
#X connect 244 1 242 1;
#X connect 245 0 67 0;
#X connect 246 0 37 0;
#X connect 247 0 48 0;
#X connect 248 0 80 0;
#X connect 249 0 211 1;
#X connect 249 0 223 0;
#X connect 251 0 225 0;
#X connect 253 0 216 1;
#X connect 253 0 217 1;
#X connect 255 0 257 0;
#X connect 257 0 218 0;
#X connect 257 0 220 1;
#X connect 258 0 244 0;
#X connect 258 0 241 1;
#X connect 260 0 224 1;
