#N canvas 770 281 855 577 10;
#X text -1 15 start;
#X text 146 33 env;
#X text 250 27 start;
#X text 415 61 env;
#X obj 713 355 outlet;
#X obj 174 302 outlet~;
#X obj 129 215 *~;
#X obj 265 225 *~;
#X obj 11 297 table \$0mnbxfloop1l;
#X obj 378 329 table \$0mnbxfloop1r;
#X obj 544 327 outlet~;
#X obj 480 276 *~;
#X obj 598 266 *~;
#X obj 6 146 tabplay~ \$0mnbxfloop1l;
#X obj 417 200 tabplay~ \$0mnbxfloop1r;
#X obj 257 132 tabplay~ \$0mnbxfloop1l;
#X obj 587 204 tabplay~ \$0mnbxfloop1r;
#X obj 2 39 inlet;
#X obj 143 55 inlet~;
#X obj 256 48 inlet;
#X obj 417 79 inlet~;
#X obj 683 250 loadbang;
#X obj 684 316 \$0;
#X connect 6 0 5 0;
#X connect 7 0 5 0;
#X connect 11 0 10 0;
#X connect 12 0 10 0;
#X connect 13 0 6 0;
#X connect 14 0 11 0;
#X connect 15 0 7 0;
#X connect 16 0 12 0;
#X connect 17 0 13 0;
#X connect 17 0 14 0;
#X connect 18 0 6 1;
#X connect 18 0 11 1;
#X connect 19 0 15 0;
#X connect 19 0 16 0;
#X connect 20 0 7 1;
#X connect 20 0 12 1;
#X connect 21 0 22 0;
#X connect 22 0 4 0;
