#N canvas 864 239 450 300 10;
#N canvas 562 152 1082 854 cycle2table 0;
#X obj 42 15 inlet~;
#X obj 308 45 until;
#X obj 353 74 f;
#X obj 384 76 + 1;
#X obj 356 99 mod 1023;
#X msg 283 24 1023;
#X obj 426 151 + 1;
#X obj 423 219 *;
#X obj 423 240 < 0;
#X obj 321 457 int;
#X obj 342 430 spigot;
#X obj 368 128 t f f f;
#X obj 406 486 int;
#X obj 197 500 until;
#X obj 197 528 f;
#X obj 228 530 + 1;
#X obj 250 277 t b b b;
#X obj 329 520 -;
#X obj 258 631 +;
#X obj 227 608 *;
#X obj 215 577 t f f;
#X obj 300 548 / 512;
#X obj 382 409 &&;
#X obj 409 391 == 0;
#X obj 432 454 spigot;
#X obj 474 427 &&;
#X obj 462 361 f;
#X obj 493 363 + 1;
#X msg 621 86 0;
#X obj 210 -40 t b b b b;
#X obj 429 295 moses 0.1;
#X obj 431 263 t f f;
#X obj 492 331 t b;
#X obj 230 551 mod 515;
#X msg 197 477 515;
#X obj 210 -63 inlet;
#X text 112 454 fill the singlecycletable;
#X text 269 -61 bang for getting a cycle;
#X obj 493 402 == 2;
#X text 418 74 get 1st and 3rd 0-xing;
#X text 330 23 1024 samples should be enough for nice cycles;
#X obj 590 664 \$0;
#X obj 657 334 \$0;
#X obj 669 434 pack f f;
#X obj 701 288 int;
#X obj 731 320 + 1;
#X obj 701 351 mod 2;
#X obj 709 374 + 1;
#X obj 696 218 t b b;
#X obj 607 711 pack f f;
#X obj 599 572 outlet;
#X obj 614 357 + 1;
#X obj 612 379 mod 2;
#X text 742 417 doublebuffering \, xfade;
#X obj 598 545 int;
#X obj 21 63 hip~ 10;
#X obj 58 109 tabwrite~ \$0temptablesc1;
#X obj 55 131 table \$0temptablesc1 1024;
#X obj 392 173 tabread \$0temptablesc1;
#X obj 460 197 tabread \$0temptablesc1;
#X obj 260 660 tabread4 \$0temptablesc1;
#X obj 258 689 tabwrite \$0sc1table1;
#X msg 657 462 set \$1sc1table\$2;
#X msg 607 734 \; \$1sc1table\$2 normalize 1;
#X connect 0 0 55 0;
#X connect 1 0 2 0;
#X connect 2 0 3 0;
#X connect 3 0 4 0;
#X connect 4 0 2 1;
#X connect 4 0 11 0;
#X connect 5 0 1 0;
#X connect 6 0 59 0;
#X connect 7 0 8 0;
#X connect 8 0 31 0;
#X connect 9 0 17 0;
#X connect 10 0 9 1;
#X connect 11 0 10 0;
#X connect 11 0 24 0;
#X connect 11 1 58 0;
#X connect 11 2 6 0;
#X connect 12 0 17 1;
#X connect 12 0 18 1;
#X connect 13 0 14 0;
#X connect 14 0 15 0;
#X connect 15 0 33 0;
#X connect 16 0 34 0;
#X connect 16 1 9 0;
#X connect 16 2 12 0;
#X connect 17 0 21 0;
#X connect 18 0 60 0;
#X connect 19 0 18 0;
#X connect 20 0 19 0;
#X connect 20 1 61 1;
#X connect 21 0 19 1;
#X connect 22 0 10 1;
#X connect 23 0 22 1;
#X connect 24 0 12 1;
#X connect 25 0 24 1;
#X connect 26 0 27 0;
#X connect 26 0 23 0;
#X connect 26 0 38 0;
#X connect 27 0 26 1;
#X connect 28 0 26 0;
#X connect 29 0 41 0;
#X connect 29 0 54 0;
#X connect 29 0 56 0;
#X connect 29 1 16 0;
#X connect 29 2 5 0;
#X connect 29 3 28 0;
#X connect 29 3 48 0;
#X connect 30 1 32 0;
#X connect 31 0 30 0;
#X connect 31 1 22 0;
#X connect 31 1 25 0;
#X connect 32 0 26 0;
#X connect 33 0 14 1;
#X connect 33 0 20 0;
#X connect 34 0 13 0;
#X connect 35 0 29 0;
#X connect 38 0 25 1;
#X connect 41 0 49 0;
#X connect 42 0 43 0;
#X connect 43 0 62 0;
#X connect 44 0 45 0;
#X connect 45 0 46 0;
#X connect 46 0 47 0;
#X connect 46 0 44 1;
#X connect 46 0 51 0;
#X connect 47 0 43 1;
#X connect 47 0 49 1;
#X connect 48 0 42 0;
#X connect 48 1 44 0;
#X connect 49 0 63 0;
#X connect 51 0 52 0;
#X connect 52 0 54 1;
#X connect 54 0 50 0;
#X connect 55 0 56 0;
#X connect 58 0 7 0;
#X connect 59 0 7 1;
#X connect 60 0 61 0;
#X connect 62 0 61 0;
#X restore 125 112 pd cycle2table;
#X obj 199 172 tabosc4~ \$0sc1table2;
#X obj 215 202 table \$0sc1table2 515;
#X obj 51 167 tabosc4~ \$0sc1table1;
#X obj 65 200 table \$0sc1table1 515;
#X obj 38 32 inlet~;
#X text 37 15 audio;
#X text 197 31 samplestart;
#X obj 199 48 inlet;
#X obj 313 33 inlet;
#X text 299 17 frequency;
#X obj 54 256 outlet~;
#X obj 194 255 outlet~;
#X obj 280 244 outlet;
#X text 113 256 osc outs;
#X text 282 260 osc nr;
#X text 127 1 getting singlecycles;
#X connect 0 0 13 0;
#X connect 1 0 12 0;
#X connect 3 0 11 0;
#X connect 5 0 0 0;
#X connect 8 0 0 1;
#X connect 9 0 1 0;
#X connect 9 0 3 0;
