#N canvas 70 114 681 844 10;
#X obj 311 272 inlet~;
#X obj 366 272 inlet~;
#X obj 457 315 inlet~;
#X obj 512 315 inlet~;
#X obj 458 556 block~ 1;
#X obj 318 467 cpole~;
#X obj 258 606 /~;
#X obj 234 578 sig~ 1;
#X obj 320 657 *~;
#X obj 265 633 clip~ 0 1;
#X obj 300 687 hip~ 10;
#X obj 186 151 noise~;
#X obj 243 204 noise~;
#X obj 188 178 *~ 0.001;
#X obj 245 231 *~ 0.001;
#X obj 97 153 *~ 0.1;
#X obj 388 749 delwrite~ \$0ckpfbdel 500;
#X obj 97 131 vd~ \$0ckpfbdel;
#X obj 251 167 *~ 0.1;
#X obj 241 142 vd~ \$0ckpfbdel;
#X obj 348 537 cpole~;
#X obj 58 38 inlet;
#X obj 113 38 inlet;
#X text 41 17 delaytime;
#X text 105 20 feedback;
#X text 314 253 pole1;
#X text 483 294 pole2;
#X obj 298 749 outlet~;
#X obj 226 90 + 1;
#X obj 300 711 lop~ 1000;
#X text 189 21 2 cpole-filters with feedback-delay and normalization
;
#X text 45 542 buggy version \, kept for compatibility;
#X connect 0 0 5 2;
#X connect 1 0 5 3;
#X connect 2 0 20 2;
#X connect 3 0 20 3;
#X connect 5 0 20 0;
#X connect 5 1 20 1;
#X connect 6 0 9 0;
#X connect 7 0 6 0;
#X connect 8 0 10 0;
#X connect 9 0 8 0;
#X connect 10 0 29 0;
#X connect 11 0 13 0;
#X connect 12 0 14 0;
#X connect 13 0 5 0;
#X connect 14 0 5 1;
#X connect 15 0 5 0;
#X connect 15 0 5 1;
#X connect 17 0 15 0;
#X connect 18 0 5 1;
#X connect 19 0 18 0;
#X connect 20 0 6 1;
#X connect 20 0 8 1;
#X connect 20 1 8 1;
#X connect 20 1 6 1;
#X connect 21 0 17 0;
#X connect 21 0 28 0;
#X connect 22 0 15 1;
#X connect 22 0 18 1;
#X connect 28 0 19 0;
#X connect 29 0 16 0;
#X connect 29 0 27 0;
