#N canvas 1 79 900 686 10;
#X obj -1917 173 delwrite~ \$0rotspkdel1u 500;
#X obj -1745 137 vd~ \$0rotspkdel1u;
#X obj -1369 70 delwrite~ \$0rotspkdel1l 500;
#X obj -1193 159 vd~ \$0rotspkdel1l;
#X text -1828 127 high;
#X text -1239 107 low;
#X obj -1922 81 inlet~;
#X obj -1756 99 inlet~;
#X obj -1719 203 outlet~;
#X obj -1368 25 inlet~;
#X obj -1192 116 inlet~;
#X obj -1193 228 outlet~;
#X text -1770 11 delays for rotating spwaker sim;
#X connect 1 0 8 0;
#X connect 3 0 11 0;
#X connect 6 0 0 0;
#X connect 7 0 1 0;
#X connect 9 0 2 0;
#X connect 10 0 3 0;
