#N canvas 558 143 1184 896 10;
#X obj -15 -52 inlet;
#X obj 115 38 inlet;
#X obj 198 42 inlet;
#X obj 281 40 inlet;
#X obj -14 86 samplerate~;
#X obj -150 97 \$0;
#X obj -153 42 loadbang;
#X msg -152 62 bang;
#X obj 500 45 inlet;
#X obj 60 -14 + 1;
#X obj 6 -11 int;
#X text -17 -71 trigger;
#X obj 374 42 inlet;
#X text 105 20 start (0..1);
#X text 202 16 len(0..1);
#X text 272 21 pitch (factor);
#X obj 585 121 table \$0sampleloop;
#X obj 609 499 outlet;
#X obj 136 534 wrap~;
#X obj 138 508 +~;
#X obj -60 780 outlet~;
#X obj 136 559 *~;
#X obj 139 485 vline~;
#X msg 91 426 0;
#X text 50 477 playback ramp;
#X obj 250 326 /;
#X obj 243 355 * 1000;
#X obj 223 375 *;
#X obj 160 444 pack f f;
#X obj 33 29 select 0 1;
#X obj 155 412 float;
#X obj 213 424 *;
#X obj 142 369 float;
#X obj 422 551 wrap~;
#X obj 424 525 +~;
#X obj 422 576 *~;
#X obj 425 502 vline~;
#X msg 377 443 0;
#X text 329 489 playback ramp;
#X obj 538 359 /;
#X obj 538 384 * 1000;
#X obj 519 411 *;
#X obj 446 461 pack f f;
#X obj 441 429 float;
#X obj 516 434 *;
#X obj 405 391 float;
#X text 607 516 looplen(ms);
#X obj 67 249 t b b b;
#X obj 353 360 t b b b;
#X text 131 -64 abs for doublebufferd (xfade) samplelooper;
#X text 293 666 2x for smooth xfade;
#X obj 686 328 outlet;
#X obj 133 718 *~;
#X obj 190 672 vline~;
#X msg 170 644 1 \$1 \, 0 \$1 \$2;
#X msg 265 644 0;
#X obj 245 126 +;
#X text 373 22 smooth(0..1);
#X obj 374 62 / 100;
#X obj 250 500 *;
#X obj 250 529 / 2;
#X obj 228 564 pack f f;
#X obj 220 529 -;
#X obj 220 597 t a b;
#X obj 463 722 *~;
#X obj 489 675 vline~;
#X msg 469 647 1 \$1 \, 0 \$1 \$2;
#X msg 564 647 0;
#X obj 547 534 / 2;
#X obj 522 571 pack f f;
#X obj 508 537 -;
#X obj 519 600 t a b;
#X obj 540 502 *;
#X obj 37 8 mod 2;
#X obj 209 490 float;
#X obj 507 480 float;
#X text 690 345 loaded;
#X text 497 27 samplesize;
#X obj 10 209 outlet;
#X msg -83 161 symbol \$1sampleloop;
#X text 6 226 tablename;
#X obj 36 604 tabread4~ \$0sampleloop;
#X obj 359 610 tabread4~ \$0sampleloop;
#X obj 503 166 t b f b;
#X connect 0 0 10 0;
#X connect 1 0 32 1;
#X connect 1 0 45 1;
#X connect 2 0 56 0;
#X connect 3 0 31 1;
#X connect 3 0 44 1;
#X connect 4 0 25 1;
#X connect 4 0 39 1;
#X connect 5 0 79 0;
#X connect 6 0 7 0;
#X connect 7 0 5 0;
#X connect 8 0 83 0;
#X connect 9 0 73 0;
#X connect 10 0 9 0;
#X connect 12 0 58 0;
#X connect 18 0 21 0;
#X connect 19 0 18 0;
#X connect 21 0 81 0;
#X connect 22 0 19 0;
#X connect 23 0 22 0;
#X connect 25 0 26 0;
#X connect 26 0 27 1;
#X connect 27 0 31 0;
#X connect 28 0 22 0;
#X connect 29 0 47 0;
#X connect 29 1 48 0;
#X connect 30 0 28 0;
#X connect 31 0 28 1;
#X connect 31 0 74 1;
#X connect 32 0 19 1;
#X connect 33 0 35 0;
#X connect 34 0 33 0;
#X connect 35 0 82 0;
#X connect 36 0 34 0;
#X connect 37 0 36 0;
#X connect 39 0 40 0;
#X connect 40 0 41 1;
#X connect 41 0 44 0;
#X connect 42 0 36 0;
#X connect 43 0 42 0;
#X connect 44 0 42 1;
#X connect 44 0 17 0;
#X connect 44 0 75 1;
#X connect 45 0 34 1;
#X connect 47 0 30 0;
#X connect 47 0 74 0;
#X connect 47 1 23 0;
#X connect 47 2 32 0;
#X connect 47 2 27 0;
#X connect 48 0 43 0;
#X connect 48 0 75 0;
#X connect 48 1 37 0;
#X connect 48 2 45 0;
#X connect 48 2 44 0;
#X connect 52 0 20 0;
#X connect 53 0 52 1;
#X connect 54 0 53 0;
#X connect 55 0 53 0;
#X connect 56 0 30 1;
#X connect 56 0 27 0;
#X connect 56 0 43 1;
#X connect 56 0 41 0;
#X connect 58 0 56 1;
#X connect 58 0 59 1;
#X connect 58 0 72 1;
#X connect 59 0 60 0;
#X connect 59 0 62 1;
#X connect 60 0 61 0;
#X connect 61 0 63 0;
#X connect 62 0 61 1;
#X connect 63 0 54 0;
#X connect 63 1 55 0;
#X connect 64 0 20 0;
#X connect 65 0 64 1;
#X connect 66 0 65 0;
#X connect 67 0 65 0;
#X connect 68 0 69 0;
#X connect 69 0 71 0;
#X connect 70 0 69 1;
#X connect 71 0 66 0;
#X connect 71 1 67 0;
#X connect 72 0 68 0;
#X connect 72 0 70 1;
#X connect 73 0 10 1;
#X connect 73 0 29 0;
#X connect 74 0 62 0;
#X connect 74 0 59 0;
#X connect 75 0 70 0;
#X connect 75 0 72 0;
#X connect 79 0 78 0;
#X connect 81 0 52 0;
#X connect 82 0 64 0;
#X connect 83 0 51 0;
#X connect 83 1 25 0;
#X connect 83 1 21 1;
#X connect 83 1 35 1;
#X connect 83 1 39 0;
#X connect 83 2 4 0;
