#N canvas 221 131 664 617 10;
#X obj 128 318 *~;
#X obj 91 368 *~;
#X obj 40 417 *~;
#X obj -47 455 *~;
#N canvas 165 180 695 417 pm-osc 0;
#X obj 139 268 outlet~;
#X text 173 18 <-frq;
#X obj 122 21 inlet~;
#X obj 142 207 cos~;
#X obj 133 160 +~;
#X obj 129 82 phasor~;
#X obj 294 16 inlet~;
#X text 348 17 <-phasemod;
#X connect 2 0 5 0;
#X connect 3 0 0 0;
#X connect 4 0 3 0;
#X connect 5 0 4 0;
#X connect 6 0 4 1;
#X restore 141 275 pd pm-osc;
#X obj 146 106 inlet~;
#X text 151 87 mod;
#X obj 26 96 inlet~;
#X text 27 78 env;
#X text -67 28 triops fm osc;
#X obj 201 496 outlet~;
#X text 203 517 audio out;
#X obj -95 101 inlet;
#X text -96 86 pitch;
#X obj 392 121 inlet;
#X obj 445 120 inlet;
#X obj 495 119 inlet;
#X text 428 94 catch \$0-nrs;
#X msg 263 354 set \$1uniquecatch;
#X obj 90 392 throw~;
#X obj 45 448 throw~;
#X obj -51 477 throw~;
#X msg 315 391 set \$1uniquecatch;
#X msg 354 416 set \$1uniquecatch;
#X obj 230 107 inlet;
#X obj 271 107 inlet;
#X obj 310 106 inlet;
#X text 243 89 throw-levels;
#X connect 0 0 1 0;
#X connect 0 0 2 0;
#X connect 0 0 3 0;
#X connect 0 0 10 0;
#X connect 1 0 19 0;
#X connect 2 0 20 0;
#X connect 3 0 21 0;
#X connect 4 0 0 0;
#X connect 5 0 4 1;
#X connect 7 0 0 1;
#X connect 12 0 4 0;
#X connect 14 0 18 0;
#X connect 15 0 22 0;
#X connect 16 0 23 0;
#X connect 18 0 19 0;
#X connect 22 0 20 0;
#X connect 23 0 21 0;
#X connect 24 0 1 1;
#X connect 25 0 2 1;
#X connect 26 0 3 1;
