#N canvas 1 79 989 774 10;
#X obj -4 706 outlet~;
#X obj 298 20 inlet;
#X obj 203 187 +;
#X obj 298 45 t b f;
#X obj 204 165 float;
#X obj -86 68 inlet;
#X obj 96 122 inlet;
#X obj 205 83 inlet;
#X obj 204 104 + 0.8;
#X obj 202 131 * 50;
#X text 204 62 pitch;
#X text 297 -3 tp (semitones);
#X text 75 23 inputs -1..1;
#X obj -264 68 inlet;
#X obj -157 100 inlet;
#X obj -197 76 inlet;
#N canvas 7 94 839 714 resonator1 0;
#X obj -38 317 inlet~;
#X obj 230 555 outlet~;
#X obj 200 421 mtof;
#X obj 315 376 mtof;
#X msg 266 371 1000;
#X obj 287 411 /;
#X obj 83 60 inlet;
#N canvas 195 270 839 634 delayline 0;
#X obj 125 281 inlet~;
#X obj 418 525 outlet~;
#X obj 199 507 +~;
#X obj 228 478 *~;
#X obj 29 267 block~ 1;
#X obj 355 374 lop~;
#X obj 399 289 inlet;
#X obj 288 277 inlet;
#X obj 215 266 inlet;
#X obj 204 528 delwrite~ \$0tpresa1 500;
#X obj 304 342 vd~ \$0tpresa1;
#X connect 0 0 2 0;
#X connect 2 0 9 0;
#X connect 3 0 2 1;
#X connect 5 0 3 1;
#X connect 6 0 5 1;
#X connect 7 0 10 0;
#X connect 8 0 3 0;
#X connect 10 0 1 0;
#X connect 10 0 5 0;
#X restore 231 494 pd delayline;
#X obj 386 141 - 63;
#X obj 387 164 / 64;
#X obj 274 263 t b f;
#X obj 302 445 +;
#X obj 388 186 - 1;
#X obj 387 209 abs;
#X obj 321 344 float;
#X obj 341 302 t b b f;
#X obj 384 238 *;
#X obj 378 261 * -0.2;
#X obj 155 35 inlet;
#X obj 281 33 inlet;
#X obj 279 69 clip 75 127;
#X obj 154 67 clip 0.6 0.999;
#X connect 0 0 7 0;
#X connect 2 0 7 3;
#X connect 3 0 5 1;
#X connect 4 0 5 0;
#X connect 5 0 11 0;
#X connect 6 0 10 0;
#X connect 7 0 1 0;
#X connect 8 0 9 0;
#X connect 9 0 12 0;
#X connect 10 0 4 0;
#X connect 10 1 14 0;
#X connect 11 0 7 2;
#X connect 12 0 13 0;
#X connect 13 0 16 1;
#X connect 13 0 16 0;
#X connect 14 0 3 0;
#X connect 15 0 4 0;
#X connect 15 1 14 0;
#X connect 15 2 11 1;
#X connect 16 0 17 0;
#X connect 17 0 15 0;
#X connect 18 0 21 0;
#X connect 19 0 20 0;
#X connect 20 0 2 0;
#X connect 20 0 8 0;
#X connect 21 0 7 1;
#X coords 0 714 1 713 140 40 0;
#X restore -10 653 pd resonator1;
#X text 100 104 dp;
#X text -85 47 fb;
#X obj -82 369 * 0.3999;
#X obj 96 154 * 26;
#X obj -81 399 + 0.6;
#X obj 108 217 + 101;
#X obj -150 565 *~;
#X obj -232 266 phasor~;
#X obj -249 164 *;
#X obj -234 236 * 20;
#X obj -252 95 + 1;
#X obj -251 121 * 0.5;
#X obj -84 115 + 1;
#X obj -97 140 * 0.5;
#X obj -157 123 + 1;
#X obj -156 149 * 0.5;
#X obj -161 190 *;
#X obj -158 224 * 150;
#X obj -156 319 hip~;
#X obj -309 437 noise~;
#X obj -282 508 samphold~;
#X obj -227 461 phasor~;
#X obj -211 417 * 22050;
#X obj -221 389 *;
#X obj -224 320 + 1;
#X obj -223 346 * 0.5;
#X obj -62 175 *;
#X obj -62 258 -;
#X msg -63 235 1;
#X obj -60 205 t b f;
#X obj 441 -17 inlet;
#X text 442 -31 fbcurve (tonality);
#X obj -64 302 *;
#X obj -30 302 *;
#X obj 4 216 t b f;
#X msg -2 245 1;
#X obj -9 164 clip 0.0001 1;
#X obj -52 336 +;
#X obj -11 194 t f f;
#X obj 5 273 -;
#X connect 1 0 3 0;
#X connect 2 0 16 1;
#X connect 3 0 4 0;
#X connect 3 1 2 1;
#X connect 4 0 2 0;
#X connect 5 0 29 0;
#X connect 6 0 20 0;
#X connect 7 0 8 0;
#X connect 8 0 9 0;
#X connect 9 0 4 0;
#X connect 13 0 27 0;
#X connect 14 0 31 0;
#X connect 15 0 41 0;
#X connect 16 0 0 0;
#X connect 19 0 21 0;
#X connect 20 0 22 0;
#X connect 21 0 16 2;
#X connect 22 0 16 3;
#X connect 23 0 16 0;
#X connect 24 0 35 0;
#X connect 25 0 26 0;
#X connect 26 0 24 0;
#X connect 27 0 28 0;
#X connect 28 0 25 1;
#X connect 28 0 25 0;
#X connect 29 0 30 0;
#X connect 30 0 43 1;
#X connect 30 0 43 0;
#X connect 30 0 49 0;
#X connect 31 0 32 0;
#X connect 32 0 33 1;
#X connect 32 0 33 0;
#X connect 33 0 34 0;
#X connect 34 0 35 1;
#X connect 35 0 23 1;
#X connect 36 0 37 0;
#X connect 37 0 23 0;
#X connect 38 0 37 1;
#X connect 39 0 38 0;
#X connect 40 0 39 0;
#X connect 41 0 42 0;
#X connect 42 0 40 1;
#X connect 42 0 40 0;
#X connect 43 0 46 0;
#X connect 44 0 50 0;
#X connect 45 0 44 0;
#X connect 46 0 45 0;
#X connect 46 1 44 1;
#X connect 47 0 53 0;
#X connect 49 0 54 0;
#X connect 50 0 54 1;
#X connect 51 0 52 0;
#X connect 51 1 56 1;
#X connect 52 0 56 0;
#X connect 53 0 55 0;
#X connect 54 0 19 0;
#X connect 55 0 49 1;
#X connect 55 1 51 0;
#X connect 56 0 50 1;
