#N canvas 121 87 1230 992 10;
#X obj 25 -31 inlet;
#X obj -45 206 tabplay~;
#X obj -23 677 outlet~;
#X obj -64 3 inlet;
#X obj -28 145 pack f f;
#X msg -34 173 set \$2sp\$1;
#X obj -68 116 t b f;
#X obj 273 -35 inlet;
#X text -72 -15 dollar0;
#X obj 317 -35 inlet;
#X text 26 -51 samplenr (0..87) \, velocity (0..127);
#X obj 25 12 unpack f f;
#X msg 335 330 0;
#X obj 394 389 line~;
#X obj 311 479 *~;
#X obj 268 400 line~;
#X obj 191 114 t b b f;
#X obj 393 264 * -1;
#X obj 356 431 +~;
#X text 215 390 attack;
#X text 408 359 release;
#X text 147 54 gate;
#X obj 220 312 float;
#X obj 367 286 float;
#X obj 354 257 t b;
#X obj 251 353 pack f f;
#X obj 395 314 pack f f;
#X obj 108 54 / 128;
#X obj 21 59 spigot;
#X obj 63 36 > 0;
#X obj -22 621 *~;
#X obj 122 82 moses 0.0001;
#X text 277 -59 attack/release ms;
#X obj 89 262 tabplay~;
#X obj 148 665 outlet~;
#X obj 106 201 pack f f;
#X obj 71 171 t b f;
#X obj 149 609 *~;
#X text -67 -71 voice for tabplay sampleplayer (stereo);
#X msg 100 229 set \$2spr\$1;
#X connect 0 0 11 0;
#X connect 1 0 30 0;
#X connect 3 0 4 1;
#X connect 3 0 35 1;
#X connect 4 0 5 0;
#X connect 5 0 1 0;
#X connect 6 0 1 0;
#X connect 6 1 4 0;
#X connect 7 0 25 1;
#X connect 9 0 26 1;
#X connect 11 0 28 0;
#X connect 11 1 29 0;
#X connect 11 1 27 0;
#X connect 12 0 15 0;
#X connect 12 0 13 0;
#X connect 13 0 18 1;
#X connect 14 0 30 1;
#X connect 14 0 37 1;
#X connect 15 0 18 0;
#X connect 16 0 22 0;
#X connect 16 1 12 0;
#X connect 16 2 17 0;
#X connect 16 2 22 1;
#X connect 17 0 23 1;
#X connect 18 0 14 0;
#X connect 18 0 14 1;
#X connect 22 0 25 0;
#X connect 23 0 26 0;
#X connect 24 0 23 0;
#X connect 25 0 15 0;
#X connect 26 0 13 0;
#X connect 27 0 31 0;
#X connect 28 0 6 0;
#X connect 28 0 36 0;
#X connect 29 0 28 1;
#X connect 30 0 2 0;
#X connect 31 0 24 0;
#X connect 31 1 16 0;
#X connect 33 0 37 0;
#X connect 35 0 39 0;
#X connect 36 0 33 0;
#X connect 36 1 35 0;
#X connect 37 0 34 0;
#X connect 39 0 33 0;
