#N canvas 1 80 450 300 10;
#X obj 180 222 tabread4~ \$0bufferfx1;
#X obj 25 223 tabwrite~ \$0bufferfx1;
#X obj 116 131 table \$0bufferfx1 44100;
#X obj 19 115 inlet~;
#X obj 182 90 inlet~;
#X obj 187 278 outlet~;
#X obj -66 113 inlet;
#X text -119 86 tabwrite start/stop;
#X text 25 93 audio;
#X text 170 71 tabread phasor;
#X connect 0 0 5 0;
#X connect 3 0 1 0;
#X connect 4 0 0 0;
#X connect 6 0 1 0;
