#N canvas 96 230 1456 643 10;
#X obj 22 216 outlet;
#X obj 14 71 \$0;
#X obj 8 23 loadbang;
#X obj 107 54 table \$0sp0;
#X obj 107 74 table \$0sp1;
#X obj 107 94 table \$0sp2;
#X obj 107 114 table \$0sp3;
#X obj 107 134 table \$0sp4;
#X obj 107 154 table \$0sp5;
#X obj 107 174 table \$0sp6;
#X obj 107 194 table \$0sp7;
#X obj 197 54 table \$0sp8;
#X obj 197 74 table \$0sp9;
#X obj 197 94 table \$0sp10;
#X obj 197 114 table \$0sp11;
#X obj 197 134 table \$0sp12;
#X obj 197 154 table \$0sp13;
#X obj 197 174 table \$0sp14;
#X obj 197 194 table \$0sp15;
#X obj 297 54 table \$0sp16;
#X obj 297 74 table \$0sp17;
#X obj 297 94 table \$0sp18;
#X obj 297 114 table \$0sp19;
#X obj 297 134 table \$0sp20;
#X obj 297 154 table \$0sp21;
#X obj 297 174 table \$0sp22;
#X obj 297 194 table \$0sp23;
#X obj 397 54 table \$0sp24;
#X obj 397 74 table \$0sp25;
#X obj 397 94 table \$0sp26;
#X obj 397 114 table \$0sp27;
#X obj 397 134 table \$0sp28;
#X obj 397 154 table \$0sp29;
#X obj 397 174 table \$0sp30;
#X obj 397 194 table \$0sp31;
#X obj 497 54 table \$0sp32;
#X obj 497 74 table \$0sp33;
#X obj 497 94 table \$0sp34;
#X obj 497 114 table \$0sp35;
#X obj 497 134 table \$0sp36;
#X obj 497 154 table \$0sp37;
#X obj 497 174 table \$0sp38;
#X obj 497 194 table \$0sp39;
#X obj 597 54 table \$0sp40;
#X obj 597 74 table \$0sp41;
#X obj 597 94 table \$0sp42;
#X obj 597 114 table \$0sp43;
#X obj 597 134 table \$0sp44;
#X obj 597 154 table \$0sp45;
#X obj 597 174 table \$0sp46;
#X obj 597 194 table \$0sp47;
#X obj 697 54 table \$0sp48;
#X obj 697 74 table \$0sp49;
#X obj 697 94 table \$0sp50;
#X obj 697 114 table \$0sp51;
#X obj 697 134 table \$0sp52;
#X obj 697 154 table \$0sp53;
#X obj 697 174 table \$0sp54;
#X obj 697 194 table \$0sp55;
#X obj 797 54 table \$0sp56;
#X obj 797 74 table \$0sp57;
#X obj 797 94 table \$0sp58;
#X obj 797 114 table \$0sp59;
#X obj 797 134 table \$0sp60;
#X obj 797 154 table \$0sp61;
#X obj 797 174 table \$0sp62;
#X obj 797 194 table \$0sp63;
#X obj 897 54 table \$0sp64;
#X obj 897 74 table \$0sp65;
#X obj 897 94 table \$0sp66;
#X obj 897 114 table \$0sp67;
#X obj 897 134 table \$0sp68;
#X obj 897 154 table \$0sp69;
#X obj 897 174 table \$0sp70;
#X obj 897 194 table \$0sp71;
#X obj 997 54 table \$0sp72;
#X obj 997 74 table \$0sp73;
#X obj 997 94 table \$0sp74;
#X obj 997 114 table \$0sp75;
#X obj 997 134 table \$0sp76;
#X obj 997 154 table \$0sp77;
#X obj 997 174 table \$0sp78;
#X obj 997 194 table \$0sp79;
#X obj 1097 54 table \$0sp80;
#X obj 1097 74 table \$0sp81;
#X obj 1097 94 table \$0sp82;
#X obj 1097 114 table \$0sp83;
#X obj 1097 134 table \$0sp84;
#X obj 1097 154 table \$0sp85;
#X obj 1097 174 table \$0sp86;
#X obj 1097 194 table \$0sp87;
#X text 254 10 2x 88 tables for stereo (piano) samples;
#X obj 147 264 table \$0spr0;
#X obj 147 284 table \$0spr1;
#X obj 147 304 table \$0spr2;
#X obj 147 324 table \$0spr3;
#X obj 147 344 table \$0spr4;
#X obj 147 364 table \$0spr5;
#X obj 147 384 table \$0spr6;
#X obj 147 404 table \$0spr7;
#X obj 237 264 table \$0spr8;
#X obj 237 284 table \$0spr9;
#X obj 237 304 table \$0spr10;
#X obj 237 324 table \$0spr11;
#X obj 237 344 table \$0spr12;
#X obj 237 364 table \$0spr13;
#X obj 237 384 table \$0spr14;
#X obj 237 404 table \$0spr15;
#X obj 337 264 table \$0spr16;
#X obj 337 284 table \$0spr17;
#X obj 337 304 table \$0spr18;
#X obj 337 324 table \$0spr19;
#X obj 337 344 table \$0spr20;
#X obj 337 364 table \$0spr21;
#X obj 337 384 table \$0spr22;
#X obj 337 404 table \$0spr23;
#X obj 437 264 table \$0spr24;
#X obj 437 284 table \$0spr25;
#X obj 437 304 table \$0spr26;
#X obj 437 324 table \$0spr27;
#X obj 437 344 table \$0spr28;
#X obj 437 364 table \$0spr29;
#X obj 437 384 table \$0spr30;
#X obj 437 404 table \$0spr31;
#X obj 537 264 table \$0spr32;
#X obj 537 284 table \$0spr33;
#X obj 537 304 table \$0spr34;
#X obj 537 324 table \$0spr35;
#X obj 537 344 table \$0spr36;
#X obj 537 364 table \$0spr37;
#X obj 537 384 table \$0spr38;
#X obj 537 404 table \$0spr39;
#X obj 637 264 table \$0spr40;
#X obj 637 284 table \$0spr41;
#X obj 637 304 table \$0spr42;
#X obj 637 324 table \$0spr43;
#X obj 637 344 table \$0spr44;
#X obj 637 364 table \$0spr45;
#X obj 637 384 table \$0spr46;
#X obj 637 404 table \$0spr47;
#X obj 737 264 table \$0spr48;
#X obj 737 284 table \$0spr49;
#X obj 737 304 table \$0spr50;
#X obj 737 324 table \$0spr51;
#X obj 737 344 table \$0spr52;
#X obj 737 364 table \$0spr53;
#X obj 737 384 table \$0spr54;
#X obj 737 404 table \$0spr55;
#X obj 837 264 table \$0spr56;
#X obj 837 284 table \$0spr57;
#X obj 837 304 table \$0spr58;
#X obj 837 324 table \$0spr59;
#X obj 837 344 table \$0spr60;
#X obj 837 364 table \$0spr61;
#X obj 837 384 table \$0spr62;
#X obj 837 404 table \$0spr63;
#X obj 937 264 table \$0spr64;
#X obj 937 284 table \$0spr65;
#X obj 937 304 table \$0spr66;
#X obj 937 324 table \$0spr67;
#X obj 937 344 table \$0spr68;
#X obj 937 364 table \$0spr69;
#X obj 937 384 table \$0spr70;
#X obj 937 404 table \$0spr71;
#X obj 1037 264 table \$0spr72;
#X obj 1037 284 table \$0spr73;
#X obj 1037 304 table \$0spr74;
#X obj 1037 324 table \$0spr75;
#X obj 1037 344 table \$0spr76;
#X obj 1037 364 table \$0spr77;
#X obj 1037 384 table \$0spr78;
#X obj 1037 404 table \$0spr79;
#X obj 1137 264 table \$0spr80;
#X obj 1137 284 table \$0spr81;
#X obj 1137 304 table \$0spr82;
#X obj 1137 324 table \$0spr83;
#X obj 1137 344 table \$0spr84;
#X obj 1137 364 table \$0spr85;
#X obj 1137 384 table \$0spr86;
#X obj 1137 404 table \$0spr87;
#X text 1203 129 left;
#X text 1232 323 right;
#X connect 1 0 0 0;
#X connect 2 0 1 0;
