#N canvas 396 282 450 300 10;
#X obj 288 110 table \$0tanh 4096;
#N canvas 154 182 557 744 mktanh 0;
#X obj 80 -50 inlet;
#X obj 89 338 outlet;
#X obj 91 181 * 2;
#X obj 93 202 exp;
#X text 145 214 exp2x-1 / exp2x +1;
#X obj 93 244 - 1;
#X obj 96 224 t f f;
#X obj 122 245 + 1;
#X obj 100 274 /;
#X obj 294 180 outlet;
#X obj 94 78 t f f;
#X obj 95 109 / 2048;
#X obj 94 131 - 1;
#X obj 91 155 * 6.28319;
#X text 159 157 2pi;
#X obj 81 4 until;
#X obj 80 32 int;
#X obj 105 52 + 1;
#X obj 126 23 mod 4096;
#X msg 81 -21 4096;
#X connect 0 0 19 0;
#X connect 2 0 3 0;
#X connect 3 0 6 0;
#X connect 5 0 8 0;
#X connect 6 0 5 0;
#X connect 6 1 7 0;
#X connect 7 0 8 1;
#X connect 8 0 1 0;
#X connect 10 0 11 0;
#X connect 10 1 9 0;
#X connect 11 0 12 0;
#X connect 12 0 13 0;
#X connect 13 0 2 0;
#X connect 15 0 16 0;
#X connect 16 0 17 0;
#X connect 16 0 10 0;
#X connect 17 0 18 0;
#X connect 18 0 16 1;
#X connect 19 0 15 0;
#X restore 165 78 pd mktanh;
#X obj 163 110 tabwrite \$0tanh;
#X obj 165 55 loadbang;
#X obj 11 8 inlet~;
#X obj 11 159 outlet~;
#X obj 11 39 *~ 768;
#X obj 11 61 +~ 2048;
#X obj 11 88 clip~ -2048 2048;
#X obj 11 114 tabread4~ \$0tanh;
#X text 155 12 tanh distortion;
#X connect 1 0 2 0;
#X connect 1 1 2 1;
#X connect 3 0 1 0;
#X connect 4 0 6 0;
#X connect 6 0 7 0;
#X connect 7 0 8 0;
#X connect 8 0 9 0;
#X connect 9 0 5 0;
