#N canvas 179 177 1286 607 10;
#X obj 127 -163 *~;
#X obj 78 60 +~;
#X obj 660 -170 *~;
#X obj 415 -212 table \$0mnbrbloop1;
#X obj 182 -218 tabread4~ \$0mnbrbloop1;
#X obj 726 -254 tabread4~ \$0mnbrbloop1;
#X obj 146 -330 inlet~;
#X obj 201 -329 inlet~;
#X obj 632 -314 inlet~;
#X obj 687 -313 inlet~;
#X text 147 -356 index;
#X text 205 -353 env;
#X text 634 -335 index;
#X text 692 -332 env;
#X obj 81 90 outlet~;
#X obj 705 60 outlet;
#X obj 692 -26 loadbang;
#X obj 697 4 \$0;
#X text 329 -342 2 sampler-voices for beatloop;
#X connect 0 0 1 0;
#X connect 1 0 14 0;
#X connect 2 0 1 1;
#X connect 4 0 0 1;
#X connect 5 0 2 1;
#X connect 6 0 4 0;
#X connect 7 0 0 0;
#X connect 8 0 5 0;
#X connect 9 0 2 0;
#X connect 16 0 17 0;
#X connect 17 0 15 0;
