#N canvas 470 116 858 799 10;
#X obj -82 74 inlet~;
#X obj 191 332 +~;
#X obj 233 332 +~;
#X obj -111 557 outlet~;
#X obj -20 559 outlet~;
#X obj 152 451 +~;
#X obj 261 452 +~;
#X obj 194 451 -~;
#X obj 301 451 -~;
#X obj 151 507 +~;
#X obj 195 508 +~;
#X obj 239 509 -~;
#X obj 278 509 -~;
#X obj 238 591 *~ 0;
#X obj 196 590 *~ 0;
#X obj 151 589 *~ 0;
#X obj 279 592 *~ 0;
#X obj 546 554 / 200;
#X obj 546 506 min 100;
#X obj 546 529 max 0;
#N canvas 416 362 450 300 echo1 0;
#X obj 66 95 inlet~;
#X obj 130 96 inlet~;
#X obj 68 216 outlet~;
#X obj 141 215 outlet~;
#X obj 67 143 +~;
#X obj 140 141 -~;
#X obj 138 167 delwrite~ \$0echo1 5.43216;
#X obj 144 189 delread~ \$0echo1 5.43216;
#X connect 0 0 4 0;
#X connect 0 0 5 0;
#X connect 1 0 4 1;
#X connect 1 0 5 1;
#X connect 4 0 2 0;
#X connect 5 0 6 0;
#X connect 7 0 3 0;
#X restore -80 144 pd echo1;
#N canvas 416 362 450 300 echo2 0;
#X obj 66 95 inlet~;
#X obj 130 96 inlet~;
#X obj 68 216 outlet~;
#X obj 141 215 outlet~;
#X obj 67 143 +~;
#X obj 140 141 -~;
#X obj 139 168 delwrite~ \$0echo2 8.45346;
#X obj 140 190 delread~ \$0echo2 8.45346;
#X connect 0 0 4 0;
#X connect 0 0 5 0;
#X connect 1 0 4 1;
#X connect 1 0 5 1;
#X connect 4 0 2 0;
#X connect 5 0 6 0;
#X connect 7 0 3 0;
#X restore -80 169 pd echo2;
#N canvas 416 362 450 300 echo3 0;
#X obj 66 95 inlet~;
#X obj 130 96 inlet~;
#X obj 68 216 outlet~;
#X obj 141 215 outlet~;
#X obj 67 143 +~;
#X obj 140 141 -~;
#X obj 138 167 delwrite~ \$0echo3 13.4367;
#X obj 141 191 delread~ \$0echo3 13.4367;
#X connect 0 0 4 0;
#X connect 0 0 5 0;
#X connect 1 0 4 1;
#X connect 1 0 5 1;
#X connect 4 0 2 0;
#X connect 5 0 6 0;
#X connect 7 0 3 0;
#X restore -82 194 pd echo3;
#N canvas 416 362 450 300 echo4 0;
#X obj 66 95 inlet~;
#X obj 130 96 inlet~;
#X obj 68 216 outlet~;
#X obj 141 215 outlet~;
#X obj 67 143 +~;
#X obj 140 141 -~;
#X obj 138 170 delwrite~ \$0echo4 21.5463;
#X obj 139 191 delread~ \$0echo4 21.5463;
#X connect 0 0 4 0;
#X connect 0 0 5 0;
#X connect 1 0 4 1;
#X connect 1 0 5 1;
#X connect 4 0 2 0;
#X connect 5 0 6 0;
#X connect 7 0 3 0;
#X restore -82 219 pd echo4;
#N canvas 416 362 450 300 echo5 0;
#X obj 66 95 inlet~;
#X obj 130 96 inlet~;
#X obj 68 216 outlet~;
#X obj 141 215 outlet~;
#X obj 67 143 +~;
#X obj 140 141 -~;
#X obj 138 169 delwrite~ \$0echo5 34.3876;
#X obj 141 192 delread~ \$0echo5 34.3876;
#X connect 0 0 4 0;
#X connect 0 0 5 0;
#X connect 1 0 4 1;
#X connect 1 0 5 1;
#X connect 4 0 2 0;
#X connect 5 0 6 0;
#X connect 7 0 3 0;
#X restore -83 241 pd echo5;
#N canvas 416 362 450 300 echo6 0;
#X obj 66 95 inlet~;
#X obj 130 96 inlet~;
#X obj 68 216 outlet~;
#X obj 141 215 outlet~;
#X obj 67 143 +~;
#X obj 140 141 -~;
#X obj 139 169 delwrite~ \$0echo6 55.5437;
#X obj 139 191 delread~ \$0echo6 55.5437;
#X connect 0 0 4 0;
#X connect 0 0 5 0;
#X connect 1 0 4 1;
#X connect 1 0 5 1;
#X connect 4 0 2 0;
#X connect 5 0 6 0;
#X connect 7 0 3 0;
#X restore -83 265 pd echo6;
#X obj 211 271 delread~ \$0loop-del1 60;
#X obj 253 296 delread~ \$0loop-del2 71.9345;
#X obj 300 325 delread~ \$0loop-del3 86.7545;
#X obj 322 350 delread~ \$0loop-del4 95.945;
#X obj 278 632 delwrite~ \$0loop-del4 95.945;
#X obj 239 655 delwrite~ \$0loop-del3 86.7545;
#X obj 197 678 delwrite~ \$0loop-del2 71.9345;
#X obj 152 700 delwrite~ \$0loop-del1 60;
#X obj 554 132 inlet;
#X text 553 115 feedback;
#X text -81 57 audio in;
#X text 209 30 reverb from pd doc;
#X connect 0 0 20 0;
#X connect 1 0 5 0;
#X connect 1 0 7 0;
#X connect 1 0 3 0;
#X connect 2 0 5 1;
#X connect 2 0 7 1;
#X connect 2 0 4 0;
#X connect 5 0 9 0;
#X connect 5 0 11 0;
#X connect 6 0 11 1;
#X connect 6 0 9 1;
#X connect 7 0 10 0;
#X connect 7 0 12 0;
#X connect 8 0 10 1;
#X connect 8 0 12 1;
#X connect 9 0 15 0;
#X connect 10 0 14 0;
#X connect 11 0 13 0;
#X connect 12 0 16 0;
#X connect 13 0 31 0;
#X connect 14 0 32 0;
#X connect 15 0 33 0;
#X connect 16 0 30 0;
#X connect 17 0 16 1;
#X connect 17 0 15 1;
#X connect 17 0 14 1;
#X connect 17 0 13 1;
#X connect 18 0 19 0;
#X connect 19 0 17 0;
#X connect 20 0 21 0;
#X connect 20 1 21 1;
#X connect 21 0 22 0;
#X connect 21 1 22 1;
#X connect 22 0 23 0;
#X connect 22 1 23 1;
#X connect 23 0 24 0;
#X connect 23 1 24 1;
#X connect 24 0 25 0;
#X connect 24 1 25 1;
#X connect 25 0 1 0;
#X connect 25 1 2 0;
#X connect 26 0 1 1;
#X connect 27 0 2 1;
#X connect 28 0 6 0;
#X connect 28 0 8 0;
#X connect 29 0 6 1;
#X connect 29 0 8 1;
#X connect 34 0 18 0;
