#N canvas 291 180 713 802 10;
#N canvas 1 79 450 250 (subpatch) 0;
#X array \$0display 128 float 0;
#X coords 0 1 127 0 256 64 2 0 0;
#X restore 101 115 graph;
#X obj 199 280 int;
#X obj 197 257 until;
#X obj 231 282 + 1;
#X msg 236 257 0;
#X obj 302 772 tabwrite \$0display;
#X msg 174 209 128;
#X obj 381 552 / 128;
#X obj 95 278 delay 100;
#X obj 526 309 inlet;
#X obj 423 452 inlet;
#X text 421 431 samplelen;
#X text 105 222 redraw;
#X obj 14 62 inlet;
#X text 13 46 filename;
#X obj 101 102 cnv 10 200 12 empty empty empty 20 12 0 14 -262144 -66577
0;
#X symbolatom 101 101 42 0 0 0 - - -;
#X obj 190 233 t f b;
#X obj 196 485 int;
#X obj 190 460 until;
#X obj 227 491 + 1;
#X msg 261 450 0;
#X msg 191 434 10;
#X obj 227 671 +;
#X obj 239 625 tabread;
#X obj 184 667 float;
#X obj 239 648 abs;
#X obj 196 509 / 10;
#X obj 239 585 *;
#X obj 243 558 +;
#X obj 195 530 t b f;
#X obj 174 696 / 10;
#X obj 140 726 float;
#X obj 182 397 t b b f b;
#X obj 221 318 t f f;
#X text 59 495 average 10 samples;
#X msg 448 402 set \$1-sample;
#X obj 113 241 t b;
#X obj 89 308 t b b;
#X msg 6 368 \; \$1display normalize 1;
#X obj 11 344 \$0;
#X text 151 43 waveformdisplay abs for pvocloop2;
#X text 524 290 sample\$0;
#X connect 1 0 3 0;
#X connect 1 0 34 0;
#X connect 2 0 1 0;
#X connect 3 0 1 1;
#X connect 4 0 1 1;
#X connect 6 0 17 0;
#X connect 7 0 28 1;
#X connect 8 0 38 0;
#X connect 9 0 36 0;
#X connect 10 0 7 0;
#X connect 10 0 37 0;
#X connect 13 0 16 0;
#X connect 17 0 2 0;
#X connect 17 1 4 0;
#X connect 18 0 20 0;
#X connect 18 0 27 0;
#X connect 19 0 18 0;
#X connect 20 0 18 1;
#X connect 21 0 18 1;
#X connect 21 0 25 1;
#X connect 22 0 19 0;
#X connect 23 0 25 1;
#X connect 24 0 26 0;
#X connect 25 0 23 0;
#X connect 25 0 31 0;
#X connect 26 0 23 1;
#X connect 27 0 30 0;
#X connect 28 0 24 0;
#X connect 29 0 28 0;
#X connect 30 0 25 0;
#X connect 30 1 29 0;
#X connect 31 0 32 1;
#X connect 32 0 5 0;
#X connect 33 0 32 0;
#X connect 33 1 22 0;
#X connect 33 2 29 1;
#X connect 33 3 21 0;
#X connect 34 0 33 0;
#X connect 34 1 5 1;
#X connect 36 0 24 0;
#X connect 37 0 8 0;
#X connect 38 0 40 0;
#X connect 38 1 6 0;
#X connect 40 0 39 0;
#X coords 0 -1 1 1 258 80 2 100 100;
