#N canvas 329 227 1117 770 10;
#X obj -52 347 osc~;
#X obj -112 371 osc~;
#X obj 4 429 +~;
#X obj -124 346 mtof~;
#X obj -66 320 mtof~;
#X obj 6 293 +~;
#X obj -123 320 +~;
#X obj -86 163 mtof;
#X obj 59 268 *~;
#X obj -108 279 *~;
#X obj -99 399 *~ 0.5;
#X obj -8 373 *~ 0.5;
#X obj -9 530 +~;
#X obj 4 552 hip~ 5;
#X obj -76 215 hip~ 5;
#X obj 9 585 clip~ -1 1;
#X obj -57 502 *~;
#X obj 31 456 *~;
#X msg 15 109 1;
#X msg 217 158 bang;
#X obj 73 617 lop~ 500;
#N canvas 850 143 957 723 randomizer 0;
#X obj 57 587 + 1;
#X msg 24 148 bang;
#X msg 81 184 seed \$1;
#X msg 200 205 seed \$1;
#X msg 36 316 seed \$1;
#X msg 216 330 seed \$1;
#X msg 111 386 seed \$1;
#X msg 210 448 seed \$1;
#X msg 62 514 seed \$1;
#X obj 195 184 + 1;
#X obj 37 294 + 2;
#X obj 216 308 + 3;
#X obj 113 361 + 4;
#X obj 212 426 + 5;
#X obj 63 489 + 6;
#X obj 13 104 inlet;
#X obj 197 228 random 1280;
#X obj 214 353 random 1280;
#X obj 210 472 random 1280;
#X obj 61 539 random 1280;
#X obj 110 410 random 1280;
#X obj 36 337 random 1280;
#X obj 83 206 random 1280;
#X obj 81 229 / 1280;
#X obj 197 250 / 10;
#X obj 36 361 / 10;
#X obj 61 561 / 10;
#X obj 213 497 / 10;
#X obj 216 373 / 10;
#X obj 110 435 / 10;
#X obj 156 148 inlet;
#X obj 78 252 s \$0rp1;
#X obj 197 272 s \$0rp2;
#X obj 222 395 s \$0rp4;
#X obj 214 519 s \$0rp6;
#X obj 53 611 s \$0rp7;
#X obj 109 459 s \$0rp5;
#X obj 33 386 s \$0rp3;
#X connect 0 0 35 0;
#X connect 1 0 16 0;
#X connect 1 0 17 0;
#X connect 1 0 18 0;
#X connect 1 0 19 0;
#X connect 1 0 20 0;
#X connect 1 0 21 0;
#X connect 1 0 22 0;
#X connect 2 0 22 0;
#X connect 3 0 16 0;
#X connect 4 0 21 0;
#X connect 5 0 17 0;
#X connect 6 0 20 0;
#X connect 7 0 18 0;
#X connect 8 0 19 0;
#X connect 9 0 3 0;
#X connect 10 0 4 0;
#X connect 11 0 5 0;
#X connect 12 0 6 0;
#X connect 13 0 7 0;
#X connect 14 0 8 0;
#X connect 15 0 1 0;
#X connect 16 0 24 0;
#X connect 17 0 28 0;
#X connect 18 0 27 0;
#X connect 19 0 26 0;
#X connect 20 0 29 0;
#X connect 21 0 25 0;
#X connect 22 0 23 0;
#X connect 23 0 31 0;
#X connect 24 0 32 0;
#X connect 25 0 37 0;
#X connect 26 0 0 0;
#X connect 27 0 34 0;
#X connect 28 0 33 0;
#X connect 29 0 36 0;
#X connect 30 0 2 0;
#X connect 30 0 9 0;
#X connect 30 0 10 0;
#X connect 30 0 11 0;
#X connect 30 0 12 0;
#X connect 30 0 13 0;
#X connect 30 0 14 0;
#X coords 0 0 1 1 170 40 0;
#X restore -77 266 pd randomizer;
#X obj 7 226 spigot;
#X obj 90 545 table \$0nfmbuffer 515;
#X obj 67 646 tabwrite~ \$0nfmbuffer;
#X obj 29 490 tabread4~ \$0nfmbuffer;
#X obj -85 189 tabosc4~ \$0nfmbuffer;
#X obj -16 681 outlet~;
#X obj 221 62 inlet;
#X text -136 5 abs for fbfm synth;
#X text 222 46 rec;
#X obj -353 423 inlet;
#X text -355 396 p1;
#X obj -310 274 inlet;
#X text -302 255 p2;
#X obj -258 205 inlet;
#X text -250 186 p3;
#X obj -186 127 inlet;
#X text -178 108 p4;
#X obj 39 70 inlet;
#X text 47 51 p5;
#X obj 166 61 inlet;
#X text 166 43 sync;
#X obj 90 64 inlet;
#X text 99 45 p6;
#X obj 130 86 inlet;
#X text 139 67 p7;
#X obj 351 204 inlet;
#X obj 357 441 tabwrite \$0nfmbuffer;
#X obj 576 338 t b b;
#X obj 624 557 outlet;
#X obj 549 445 int;
#X obj 547 422 until;
#X obj 548 399 t f b;
#X obj 581 447 + 1;
#X msg 586 422 0;
#X msg 580 509 add2 \$1;
#X msg 643 508 set;
#X msg 555 370 515;
#X obj 573 165 inlet;
#X obj 550 473 tabread \$0nfmbuffer;
#X obj 324 345 list split 1;
#X obj 324 262 until;
#X obj 324 300 list append;
#X obj 454 345 bang;
#X obj 446 302 int;
#X obj 473 306 + 1;
#X msg 451 271 0;
#X obj 350 229 t b b l;
#X text 575 147 store 2 msg;
#X text 630 577 msg;
#X text 321 188 recall from msg;
#X connect 0 0 11 0;
#X connect 1 0 10 0;
#X connect 2 0 16 1;
#X connect 2 0 17 0;
#X connect 3 0 1 0;
#X connect 4 0 0 0;
#X connect 5 0 4 0;
#X connect 6 0 3 0;
#X connect 7 0 26 0;
#X connect 8 0 5 1;
#X connect 9 0 6 1;
#X connect 10 0 2 0;
#X connect 11 0 2 1;
#X connect 12 0 13 0;
#X connect 13 0 15 0;
#X connect 14 0 8 0;
#X connect 14 0 9 1;
#X connect 15 0 20 0;
#X connect 15 0 27 0;
#X connect 16 0 12 0;
#X connect 17 0 25 0;
#X connect 18 0 1 1;
#X connect 18 0 0 1;
#X connect 18 0 26 1;
#X connect 19 0 24 0;
#X connect 20 0 24 0;
#X connect 22 0 21 0;
#X connect 25 0 12 1;
#X connect 26 0 14 0;
#X connect 28 0 19 0;
#X connect 31 0 16 0;
#X connect 33 0 6 0;
#X connect 35 0 9 0;
#X connect 37 0 7 0;
#X connect 39 0 5 0;
#X connect 41 0 18 0;
#X connect 43 0 8 1;
#X connect 45 0 17 1;
#X connect 47 0 68 0;
#X connect 49 0 58 0;
#X connect 49 1 57 0;
#X connect 51 0 54 0;
#X connect 51 0 60 0;
#X connect 52 0 51 0;
#X connect 53 0 52 0;
#X connect 53 1 55 0;
#X connect 54 0 51 1;
#X connect 55 0 51 1;
#X connect 56 0 50 0;
#X connect 57 0 50 0;
#X connect 58 0 53 0;
#X connect 59 0 49 0;
#X connect 60 0 56 0;
#X connect 61 0 48 0;
#X connect 61 1 63 1;
#X connect 61 2 64 0;
#X connect 62 0 63 0;
#X connect 62 0 65 0;
#X connect 63 0 61 0;
#X connect 64 0 62 1;
#X connect 65 0 66 0;
#X connect 65 0 48 1;
#X connect 66 0 65 1;
#X connect 67 0 65 1;
#X connect 68 0 62 0;
#X connect 68 1 67 0;
#X connect 68 2 63 1;
