#N canvas 61 169 1205 752 10;
#N canvas 783 257 1063 771 cluster16voices 0;
#X obj -248 10 inlet;
#X obj -238 39 select 0 1 2 3 4 5 6 7 8 9 10 11 12 13 14 15;
#X obj 64 651 /~ 16;
#X obj 65 676 outlet~;
#X obj 527 650 /~ 16;
#X obj 528 675 outlet~;
#X obj 467 24 inlet;
#X obj 565 21 inlet;
#X text 436 2 duration (ms);
#X text 567 4 ramp (ms);
#X obj 123 15 inlet;
#X obj 198 16 inlet;
#X obj 274 20 inlet;
#X obj 362 21 inlet;
#X text 118 -5 lfreq(hz);
#X text 197 0 hfreq(hz);
#X text 272 0 lpan(0..1);
#X text 356 4 rpan(0..1);
#X obj -81 233 abs_clustr1 \$0otb;
#X obj 14 234 abs_clustr1 \$0otb;
#X obj 107 236 abs_clustr1 \$0otb;
#X obj 203 235 abs_clustr1 \$0otb;
#X obj 305 235 abs_clustr1 \$0otb;
#X obj 400 236 abs_clustr1 \$0otb;
#X obj 493 237 abs_clustr1 \$0otb;
#X obj 589 237 abs_clustr1 \$0otb;
#X text -249 -15 nr (0..15);
#X obj 99 384 abs_clustr1 \$0otb;
#X obj 192 385 abs_clustr1 \$0otb;
#X obj 288 385 abs_clustr1 \$0otb;
#X obj 390 385 abs_clustr1 \$0otb;
#X obj 485 386 abs_clustr1 \$0otb;
#X obj 578 387 abs_clustr1 \$0otb;
#X obj 674 387 abs_clustr1 \$0otb;
#X obj -56 384 abs_clustr1 \$0otb;
#X connect 0 0 1 0;
#X connect 1 0 18 0;
#X connect 1 1 19 0;
#X connect 1 2 20 0;
#X connect 1 3 21 0;
#X connect 1 4 22 0;
#X connect 1 5 23 0;
#X connect 1 6 24 0;
#X connect 1 7 25 0;
#X connect 1 8 34 0;
#X connect 1 9 27 0;
#X connect 1 10 28 0;
#X connect 1 11 29 0;
#X connect 1 12 30 0;
#X connect 1 13 31 0;
#X connect 1 14 32 0;
#X connect 1 15 33 0;
#X connect 2 0 3 0;
#X connect 4 0 5 0;
#X connect 6 0 18 5;
#X connect 6 0 19 5;
#X connect 6 0 20 5;
#X connect 6 0 21 5;
#X connect 6 0 22 5;
#X connect 6 0 23 5;
#X connect 6 0 24 5;
#X connect 6 0 25 5;
#X connect 6 0 27 5;
#X connect 6 0 28 5;
#X connect 6 0 29 5;
#X connect 6 0 30 5;
#X connect 6 0 31 5;
#X connect 6 0 32 5;
#X connect 6 0 33 5;
#X connect 6 0 34 5;
#X connect 7 0 18 6;
#X connect 7 0 19 6;
#X connect 7 0 20 6;
#X connect 7 0 21 6;
#X connect 7 0 22 6;
#X connect 7 0 23 6;
#X connect 7 0 24 6;
#X connect 7 0 25 6;
#X connect 7 0 27 6;
#X connect 7 0 28 6;
#X connect 7 0 29 6;
#X connect 7 0 30 6;
#X connect 7 0 31 6;
#X connect 7 0 32 6;
#X connect 7 0 33 6;
#X connect 7 0 34 6;
#X connect 10 0 18 1;
#X connect 10 0 19 1;
#X connect 10 0 20 1;
#X connect 10 0 21 1;
#X connect 10 0 22 1;
#X connect 10 0 23 1;
#X connect 10 0 24 1;
#X connect 10 0 25 1;
#X connect 10 0 27 1;
#X connect 10 0 28 1;
#X connect 10 0 29 1;
#X connect 10 0 30 1;
#X connect 10 0 31 1;
#X connect 10 0 32 1;
#X connect 10 0 33 1;
#X connect 10 0 34 1;
#X connect 11 0 18 2;
#X connect 11 0 19 2;
#X connect 11 0 20 2;
#X connect 11 0 21 2;
#X connect 11 0 22 2;
#X connect 11 0 23 2;
#X connect 11 0 24 2;
#X connect 11 0 25 2;
#X connect 11 0 27 2;
#X connect 11 0 28 2;
#X connect 11 0 29 2;
#X connect 11 0 30 2;
#X connect 11 0 31 2;
#X connect 11 0 32 2;
#X connect 11 0 33 2;
#X connect 11 0 34 2;
#X connect 12 0 18 3;
#X connect 12 0 19 3;
#X connect 12 0 20 3;
#X connect 12 0 21 3;
#X connect 12 0 22 3;
#X connect 12 0 23 3;
#X connect 12 0 24 3;
#X connect 12 0 25 3;
#X connect 12 0 27 3;
#X connect 12 0 28 3;
#X connect 12 0 29 3;
#X connect 12 0 30 3;
#X connect 12 0 31 3;
#X connect 12 0 32 3;
#X connect 12 0 33 3;
#X connect 12 0 34 3;
#X connect 13 0 18 4;
#X connect 13 0 19 4;
#X connect 13 0 20 4;
#X connect 13 0 21 4;
#X connect 13 0 22 4;
#X connect 13 0 23 4;
#X connect 13 0 24 4;
#X connect 13 0 25 4;
#X connect 13 0 27 4;
#X connect 13 0 28 4;
#X connect 13 0 29 4;
#X connect 13 0 30 4;
#X connect 13 0 31 4;
#X connect 13 0 32 4;
#X connect 13 0 33 4;
#X connect 13 0 34 4;
#X connect 18 0 2 0;
#X connect 18 1 4 0;
#X connect 19 0 2 0;
#X connect 19 1 4 0;
#X connect 20 0 2 0;
#X connect 20 1 4 0;
#X connect 21 0 2 0;
#X connect 21 1 4 0;
#X connect 22 0 2 0;
#X connect 22 1 4 0;
#X connect 23 0 2 0;
#X connect 23 1 4 0;
#X connect 24 0 2 0;
#X connect 24 1 4 0;
#X connect 25 0 2 0;
#X connect 25 1 4 0;
#X connect 27 0 2 0;
#X connect 27 1 4 0;
#X connect 28 0 2 0;
#X connect 28 1 4 0;
#X connect 29 0 2 0;
#X connect 29 1 4 0;
#X connect 30 0 2 0;
#X connect 30 1 4 0;
#X connect 31 0 2 0;
#X connect 31 1 4 0;
#X connect 32 0 2 0;
#X connect 32 1 4 0;
#X connect 33 0 2 0;
#X connect 33 1 4 0;
#X connect 34 0 2 0;
#X connect 34 1 4 0;
#X restore -544 506 pd cluster16voices;
#X obj 166 241 metro;
#X obj 219 285 int;
#X obj 261 317 + 1;
#N canvas 779 241 1063 771 cluster16voices 0;
#X obj -248 10 inlet;
#X obj -238 39 select 0 1 2 3 4 5 6 7 8 9 10 11 12 13 14 15;
#X obj 64 651 /~ 16;
#X obj 65 676 outlet~;
#X obj 527 650 /~ 16;
#X obj 528 675 outlet~;
#X obj 467 24 inlet;
#X obj 565 21 inlet;
#X text 436 2 duration (ms);
#X text 567 4 ramp (ms);
#X obj 123 15 inlet;
#X obj 198 16 inlet;
#X obj 274 20 inlet;
#X obj 362 21 inlet;
#X text 118 -5 lfreq(hz);
#X text 197 0 hfreq(hz);
#X text 272 0 lpan(0..1);
#X text 356 4 rpan(0..1);
#X obj -81 233 abs_clustr1 \$0otb;
#X obj 14 234 abs_clustr1 \$0otb;
#X obj 107 235 abs_clustr1 \$0otb;
#X obj 203 235 abs_clustr1 \$0otb;
#X obj 305 235 abs_clustr1 \$0otb;
#X obj 400 236 abs_clustr1 \$0otb;
#X obj 493 237 abs_clustr1 \$0otb;
#X obj 589 237 abs_clustr1 \$0otb;
#X text -249 -15 nr (0..15);
#X obj 4 383 abs_clustr1 \$0otb;
#X obj 99 384 abs_clustr1 \$0otb;
#X obj 192 385 abs_clustr1 \$0otb;
#X obj 288 385 abs_clustr1 \$0otb;
#X obj 390 385 abs_clustr1 \$0otb;
#X obj 485 386 abs_clustr1 \$0otb;
#X obj 578 387 abs_clustr1 \$0otb;
#X obj 674 387 abs_clustr1 \$0otb;
#X connect 0 0 1 0;
#X connect 1 0 18 0;
#X connect 1 1 19 0;
#X connect 1 2 20 0;
#X connect 1 3 21 0;
#X connect 1 4 22 0;
#X connect 1 5 23 0;
#X connect 1 6 24 0;
#X connect 1 7 25 0;
#X connect 1 8 27 0;
#X connect 1 9 28 0;
#X connect 1 10 29 0;
#X connect 1 11 30 0;
#X connect 1 12 31 0;
#X connect 1 13 32 0;
#X connect 1 14 33 0;
#X connect 1 15 34 0;
#X connect 2 0 3 0;
#X connect 4 0 5 0;
#X connect 6 0 18 5;
#X connect 6 0 19 5;
#X connect 6 0 20 5;
#X connect 6 0 21 5;
#X connect 6 0 22 5;
#X connect 6 0 23 5;
#X connect 6 0 24 5;
#X connect 6 0 25 5;
#X connect 6 0 27 5;
#X connect 6 0 28 5;
#X connect 6 0 29 5;
#X connect 6 0 30 5;
#X connect 6 0 31 5;
#X connect 6 0 32 5;
#X connect 6 0 33 5;
#X connect 6 0 34 5;
#X connect 7 0 18 6;
#X connect 7 0 19 6;
#X connect 7 0 20 6;
#X connect 7 0 21 6;
#X connect 7 0 22 6;
#X connect 7 0 23 6;
#X connect 7 0 24 6;
#X connect 7 0 25 6;
#X connect 7 0 27 6;
#X connect 7 0 28 6;
#X connect 7 0 29 6;
#X connect 7 0 30 6;
#X connect 7 0 31 6;
#X connect 7 0 32 6;
#X connect 7 0 33 6;
#X connect 7 0 34 6;
#X connect 10 0 18 1;
#X connect 10 0 19 1;
#X connect 10 0 20 1;
#X connect 10 0 21 1;
#X connect 10 0 22 1;
#X connect 10 0 23 1;
#X connect 10 0 24 1;
#X connect 10 0 25 1;
#X connect 10 0 27 1;
#X connect 10 0 28 1;
#X connect 10 0 29 1;
#X connect 10 0 30 1;
#X connect 10 0 31 1;
#X connect 10 0 32 1;
#X connect 10 0 33 1;
#X connect 10 0 34 1;
#X connect 11 0 18 2;
#X connect 11 0 19 2;
#X connect 11 0 20 2;
#X connect 11 0 21 2;
#X connect 11 0 22 2;
#X connect 11 0 23 2;
#X connect 11 0 24 2;
#X connect 11 0 25 2;
#X connect 11 0 27 2;
#X connect 11 0 28 2;
#X connect 11 0 29 2;
#X connect 11 0 30 2;
#X connect 11 0 31 2;
#X connect 11 0 32 2;
#X connect 11 0 33 2;
#X connect 11 0 34 2;
#X connect 12 0 18 3;
#X connect 12 0 19 3;
#X connect 12 0 20 3;
#X connect 12 0 21 3;
#X connect 12 0 22 3;
#X connect 12 0 23 3;
#X connect 12 0 24 3;
#X connect 12 0 25 3;
#X connect 12 0 27 3;
#X connect 12 0 28 3;
#X connect 12 0 29 3;
#X connect 12 0 30 3;
#X connect 12 0 31 3;
#X connect 12 0 32 3;
#X connect 12 0 33 3;
#X connect 12 0 34 3;
#X connect 13 0 18 4;
#X connect 13 0 19 4;
#X connect 13 0 20 4;
#X connect 13 0 21 4;
#X connect 13 0 22 4;
#X connect 13 0 23 4;
#X connect 13 0 24 4;
#X connect 13 0 25 4;
#X connect 13 0 27 4;
#X connect 13 0 28 4;
#X connect 13 0 29 4;
#X connect 13 0 30 4;
#X connect 13 0 31 4;
#X connect 13 0 32 4;
#X connect 13 0 33 4;
#X connect 13 0 34 4;
#X connect 18 0 2 0;
#X connect 18 1 4 0;
#X connect 19 0 2 0;
#X connect 19 1 4 0;
#X connect 20 0 2 0;
#X connect 20 1 4 0;
#X connect 21 0 2 0;
#X connect 21 1 4 0;
#X connect 22 0 2 0;
#X connect 22 1 4 0;
#X connect 23 0 2 0;
#X connect 23 1 4 0;
#X connect 24 0 2 0;
#X connect 24 1 4 0;
#X connect 25 0 2 0;
#X connect 25 1 4 0;
#X connect 27 0 2 0;
#X connect 27 1 4 0;
#X connect 28 0 2 0;
#X connect 28 1 4 0;
#X connect 29 0 2 0;
#X connect 29 1 4 0;
#X connect 30 0 2 0;
#X connect 30 1 4 0;
#X connect 31 0 2 0;
#X connect 31 1 4 0;
#X connect 32 0 2 0;
#X connect 32 1 4 0;
#X connect 33 0 2 0;
#X connect 33 1 4 0;
#X connect 34 0 2 0;
#X connect 34 1 4 0;
#X restore -397 507 pd cluster16voices;
#X obj -396 482 - 16;
#X obj -215 219 / 2;
#X obj -268 282 +;
#X obj -235 242 t b f;
#X obj -309 283 -;
#X obj 124 370 float;
#X obj 172 371 float;
#X obj 15 364 float;
#X obj 62 365 float;
#X obj -106 230 / 2;
#X obj -127 282 +;
#X obj -107 252 t b f;
#X obj -168 283 -;
#X obj -159 195 / 100;
#X obj -99 196 / 100;
#N canvas 781 249 1063 771 cluster16voices 0;
#X obj -248 10 inlet;
#X obj -238 39 select 0 1 2 3 4 5 6 7 8 9 10 11 12 13 14 15;
#X obj 64 651 /~ 16;
#X obj 65 676 outlet~;
#X obj 527 650 /~ 16;
#X obj 528 675 outlet~;
#X obj 467 24 inlet;
#X obj 565 21 inlet;
#X text 436 2 duration (ms);
#X text 567 4 ramp (ms);
#X obj 123 15 inlet;
#X obj 198 16 inlet;
#X obj 274 20 inlet;
#X obj 362 21 inlet;
#X text 118 -5 lfreq(hz);
#X text 197 0 hfreq(hz);
#X text 272 0 lpan(0..1);
#X text 356 4 rpan(0..1);
#X obj -81 233 abs_clustr1 \$0otb;
#X obj 14 234 abs_clustr1 \$0otb;
#X obj 107 235 abs_clustr1 \$0otb;
#X obj 203 235 abs_clustr1 \$0otb;
#X obj 305 235 abs_clustr1 \$0otb;
#X obj 400 236 abs_clustr1 \$0otb;
#X obj 493 237 abs_clustr1 \$0otb;
#X obj 589 237 abs_clustr1 \$0otb;
#X text -249 -15 nr (0..15);
#X obj 4 383 abs_clustr1 \$0otb;
#X obj 99 384 abs_clustr1 \$0otb;
#X obj 192 385 abs_clustr1 \$0otb;
#X obj 288 385 abs_clustr1 \$0otb;
#X obj 390 385 abs_clustr1 \$0otb;
#X obj 485 386 abs_clustr1 \$0otb;
#X obj 578 387 abs_clustr1 \$0otb;
#X obj 674 387 abs_clustr1 \$0otb;
#X connect 0 0 1 0;
#X connect 1 0 18 0;
#X connect 1 1 19 0;
#X connect 1 2 20 0;
#X connect 1 3 21 0;
#X connect 1 4 22 0;
#X connect 1 5 23 0;
#X connect 1 6 24 0;
#X connect 1 7 25 0;
#X connect 1 8 27 0;
#X connect 1 9 28 0;
#X connect 1 10 29 0;
#X connect 1 11 30 0;
#X connect 1 12 31 0;
#X connect 1 13 32 0;
#X connect 1 14 33 0;
#X connect 1 15 34 0;
#X connect 2 0 3 0;
#X connect 4 0 5 0;
#X connect 6 0 18 5;
#X connect 6 0 19 5;
#X connect 6 0 20 5;
#X connect 6 0 21 5;
#X connect 6 0 22 5;
#X connect 6 0 23 5;
#X connect 6 0 24 5;
#X connect 6 0 25 5;
#X connect 6 0 27 5;
#X connect 6 0 28 5;
#X connect 6 0 29 5;
#X connect 6 0 30 5;
#X connect 6 0 31 5;
#X connect 6 0 32 5;
#X connect 6 0 33 5;
#X connect 6 0 34 5;
#X connect 7 0 18 6;
#X connect 7 0 19 6;
#X connect 7 0 20 6;
#X connect 7 0 21 6;
#X connect 7 0 22 6;
#X connect 7 0 23 6;
#X connect 7 0 24 6;
#X connect 7 0 25 6;
#X connect 7 0 27 6;
#X connect 7 0 28 6;
#X connect 7 0 29 6;
#X connect 7 0 30 6;
#X connect 7 0 31 6;
#X connect 7 0 32 6;
#X connect 7 0 33 6;
#X connect 7 0 34 6;
#X connect 10 0 18 1;
#X connect 10 0 19 1;
#X connect 10 0 20 1;
#X connect 10 0 21 1;
#X connect 10 0 22 1;
#X connect 10 0 23 1;
#X connect 10 0 24 1;
#X connect 10 0 25 1;
#X connect 10 0 27 1;
#X connect 10 0 28 1;
#X connect 10 0 29 1;
#X connect 10 0 30 1;
#X connect 10 0 31 1;
#X connect 10 0 32 1;
#X connect 10 0 33 1;
#X connect 10 0 34 1;
#X connect 11 0 18 2;
#X connect 11 0 19 2;
#X connect 11 0 20 2;
#X connect 11 0 21 2;
#X connect 11 0 22 2;
#X connect 11 0 23 2;
#X connect 11 0 24 2;
#X connect 11 0 25 2;
#X connect 11 0 27 2;
#X connect 11 0 28 2;
#X connect 11 0 29 2;
#X connect 11 0 30 2;
#X connect 11 0 31 2;
#X connect 11 0 32 2;
#X connect 11 0 33 2;
#X connect 11 0 34 2;
#X connect 12 0 18 3;
#X connect 12 0 19 3;
#X connect 12 0 20 3;
#X connect 12 0 21 3;
#X connect 12 0 22 3;
#X connect 12 0 23 3;
#X connect 12 0 24 3;
#X connect 12 0 25 3;
#X connect 12 0 27 3;
#X connect 12 0 28 3;
#X connect 12 0 29 3;
#X connect 12 0 30 3;
#X connect 12 0 31 3;
#X connect 12 0 32 3;
#X connect 12 0 33 3;
#X connect 12 0 34 3;
#X connect 13 0 18 4;
#X connect 13 0 19 4;
#X connect 13 0 20 4;
#X connect 13 0 21 4;
#X connect 13 0 22 4;
#X connect 13 0 23 4;
#X connect 13 0 24 4;
#X connect 13 0 25 4;
#X connect 13 0 27 4;
#X connect 13 0 28 4;
#X connect 13 0 29 4;
#X connect 13 0 30 4;
#X connect 13 0 31 4;
#X connect 13 0 32 4;
#X connect 13 0 33 4;
#X connect 13 0 34 4;
#X connect 18 0 2 0;
#X connect 18 1 4 0;
#X connect 19 0 2 0;
#X connect 19 1 4 0;
#X connect 20 0 2 0;
#X connect 20 1 4 0;
#X connect 21 0 2 0;
#X connect 21 1 4 0;
#X connect 22 0 2 0;
#X connect 22 1 4 0;
#X connect 23 0 2 0;
#X connect 23 1 4 0;
#X connect 24 0 2 0;
#X connect 24 1 4 0;
#X connect 25 0 2 0;
#X connect 25 1 4 0;
#X connect 27 0 2 0;
#X connect 27 1 4 0;
#X connect 28 0 2 0;
#X connect 28 1 4 0;
#X connect 29 0 2 0;
#X connect 29 1 4 0;
#X connect 30 0 2 0;
#X connect 30 1 4 0;
#X connect 31 0 2 0;
#X connect 31 1 4 0;
#X connect 32 0 2 0;
#X connect 32 1 4 0;
#X connect 33 0 2 0;
#X connect 33 1 4 0;
#X connect 34 0 2 0;
#X connect 34 1 4 0;
#X restore -255 508 pd cluster16voices;
#N canvas 779 241 1063 771 cluster16voices 0;
#X obj -248 10 inlet;
#X obj -238 39 select 0 1 2 3 4 5 6 7 8 9 10 11 12 13 14 15;
#X obj 64 651 /~ 16;
#X obj 65 676 outlet~;
#X obj 527 650 /~ 16;
#X obj 528 675 outlet~;
#X obj 467 24 inlet;
#X obj 565 21 inlet;
#X text 436 2 duration (ms);
#X text 567 4 ramp (ms);
#X obj 123 15 inlet;
#X obj 198 16 inlet;
#X obj 274 20 inlet;
#X obj 362 21 inlet;
#X text 118 -5 lfreq(hz);
#X text 197 0 hfreq(hz);
#X text 272 0 lpan(0..1);
#X text 356 4 rpan(0..1);
#X obj -81 233 abs_clustr1 \$0otb;
#X obj 14 234 abs_clustr1 \$0otb;
#X obj 107 235 abs_clustr1 \$0otb;
#X obj 203 235 abs_clustr1 \$0otb;
#X obj 305 235 abs_clustr1 \$0otb;
#X obj 400 236 abs_clustr1 \$0otb;
#X obj 493 237 abs_clustr1 \$0otb;
#X obj 589 237 abs_clustr1 \$0otb;
#X text -249 -15 nr (0..15);
#X obj 4 383 abs_clustr1 \$0otb;
#X obj 99 384 abs_clustr1 \$0otb;
#X obj 192 385 abs_clustr1 \$0otb;
#X obj 288 385 abs_clustr1 \$0otb;
#X obj 390 385 abs_clustr1 \$0otb;
#X obj 485 386 abs_clustr1 \$0otb;
#X obj 578 387 abs_clustr1 \$0otb;
#X obj 674 387 abs_clustr1 \$0otb;
#X connect 0 0 1 0;
#X connect 1 0 18 0;
#X connect 1 1 19 0;
#X connect 1 2 20 0;
#X connect 1 3 21 0;
#X connect 1 4 22 0;
#X connect 1 5 23 0;
#X connect 1 6 24 0;
#X connect 1 7 25 0;
#X connect 1 8 27 0;
#X connect 1 9 28 0;
#X connect 1 10 29 0;
#X connect 1 11 30 0;
#X connect 1 12 31 0;
#X connect 1 13 32 0;
#X connect 1 14 33 0;
#X connect 1 15 34 0;
#X connect 2 0 3 0;
#X connect 4 0 5 0;
#X connect 6 0 18 5;
#X connect 6 0 19 5;
#X connect 6 0 20 5;
#X connect 6 0 21 5;
#X connect 6 0 22 5;
#X connect 6 0 23 5;
#X connect 6 0 24 5;
#X connect 6 0 25 5;
#X connect 6 0 27 5;
#X connect 6 0 28 5;
#X connect 6 0 29 5;
#X connect 6 0 30 5;
#X connect 6 0 31 5;
#X connect 6 0 32 5;
#X connect 6 0 33 5;
#X connect 6 0 34 5;
#X connect 7 0 18 6;
#X connect 7 0 19 6;
#X connect 7 0 20 6;
#X connect 7 0 21 6;
#X connect 7 0 22 6;
#X connect 7 0 23 6;
#X connect 7 0 24 6;
#X connect 7 0 25 6;
#X connect 7 0 27 6;
#X connect 7 0 28 6;
#X connect 7 0 29 6;
#X connect 7 0 30 6;
#X connect 7 0 31 6;
#X connect 7 0 32 6;
#X connect 7 0 33 6;
#X connect 7 0 34 6;
#X connect 10 0 18 1;
#X connect 10 0 19 1;
#X connect 10 0 20 1;
#X connect 10 0 21 1;
#X connect 10 0 22 1;
#X connect 10 0 23 1;
#X connect 10 0 24 1;
#X connect 10 0 25 1;
#X connect 10 0 27 1;
#X connect 10 0 28 1;
#X connect 10 0 29 1;
#X connect 10 0 30 1;
#X connect 10 0 31 1;
#X connect 10 0 32 1;
#X connect 10 0 33 1;
#X connect 10 0 34 1;
#X connect 11 0 18 2;
#X connect 11 0 19 2;
#X connect 11 0 20 2;
#X connect 11 0 21 2;
#X connect 11 0 22 2;
#X connect 11 0 23 2;
#X connect 11 0 24 2;
#X connect 11 0 25 2;
#X connect 11 0 27 2;
#X connect 11 0 28 2;
#X connect 11 0 29 2;
#X connect 11 0 30 2;
#X connect 11 0 31 2;
#X connect 11 0 32 2;
#X connect 11 0 33 2;
#X connect 11 0 34 2;
#X connect 12 0 18 3;
#X connect 12 0 19 3;
#X connect 12 0 20 3;
#X connect 12 0 21 3;
#X connect 12 0 22 3;
#X connect 12 0 23 3;
#X connect 12 0 24 3;
#X connect 12 0 25 3;
#X connect 12 0 27 3;
#X connect 12 0 28 3;
#X connect 12 0 29 3;
#X connect 12 0 30 3;
#X connect 12 0 31 3;
#X connect 12 0 32 3;
#X connect 12 0 33 3;
#X connect 12 0 34 3;
#X connect 13 0 18 4;
#X connect 13 0 19 4;
#X connect 13 0 20 4;
#X connect 13 0 21 4;
#X connect 13 0 22 4;
#X connect 13 0 23 4;
#X connect 13 0 24 4;
#X connect 13 0 25 4;
#X connect 13 0 27 4;
#X connect 13 0 28 4;
#X connect 13 0 29 4;
#X connect 13 0 30 4;
#X connect 13 0 31 4;
#X connect 13 0 32 4;
#X connect 13 0 33 4;
#X connect 13 0 34 4;
#X connect 18 0 2 0;
#X connect 18 1 4 0;
#X connect 19 0 2 0;
#X connect 19 1 4 0;
#X connect 20 0 2 0;
#X connect 20 1 4 0;
#X connect 21 0 2 0;
#X connect 21 1 4 0;
#X connect 22 0 2 0;
#X connect 22 1 4 0;
#X connect 23 0 2 0;
#X connect 23 1 4 0;
#X connect 24 0 2 0;
#X connect 24 1 4 0;
#X connect 25 0 2 0;
#X connect 25 1 4 0;
#X connect 27 0 2 0;
#X connect 27 1 4 0;
#X connect 28 0 2 0;
#X connect 28 1 4 0;
#X connect 29 0 2 0;
#X connect 29 1 4 0;
#X connect 30 0 2 0;
#X connect 30 1 4 0;
#X connect 31 0 2 0;
#X connect 31 1 4 0;
#X connect 32 0 2 0;
#X connect 32 1 4 0;
#X connect 33 0 2 0;
#X connect 33 1 4 0;
#X connect 34 0 2 0;
#X connect 34 1 4 0;
#X restore -108 509 pd cluster16voices;
#X obj -254 484 - 32;
#X obj -107 481 - 48;
#N canvas 781 249 1063 771 cluster16voices 0;
#X obj -248 10 inlet;
#X obj -238 39 select 0 1 2 3 4 5 6 7 8 9 10 11 12 13 14 15;
#X obj 64 651 /~ 16;
#X obj 65 676 outlet~;
#X obj 527 650 /~ 16;
#X obj 528 675 outlet~;
#X obj 467 24 inlet;
#X obj 565 21 inlet;
#X text 436 2 duration (ms);
#X text 567 4 ramp (ms);
#X obj 123 15 inlet;
#X obj 198 16 inlet;
#X obj 274 20 inlet;
#X obj 362 21 inlet;
#X text 118 -5 lfreq(hz);
#X text 197 0 hfreq(hz);
#X text 272 0 lpan(0..1);
#X text 356 4 rpan(0..1);
#X obj -81 233 abs_clustr1 \$0otb;
#X obj 14 234 abs_clustr1 \$0otb;
#X obj 107 235 abs_clustr1 \$0otb;
#X obj 203 235 abs_clustr1 \$0otb;
#X obj 305 235 abs_clustr1 \$0otb;
#X obj 400 236 abs_clustr1 \$0otb;
#X obj 493 237 abs_clustr1 \$0otb;
#X obj 589 237 abs_clustr1 \$0otb;
#X text -249 -15 nr (0..15);
#X obj 4 383 abs_clustr1 \$0otb;
#X obj 99 384 abs_clustr1 \$0otb;
#X obj 192 385 abs_clustr1 \$0otb;
#X obj 288 385 abs_clustr1 \$0otb;
#X obj 390 385 abs_clustr1 \$0otb;
#X obj 485 386 abs_clustr1 \$0otb;
#X obj 578 387 abs_clustr1 \$0otb;
#X obj 674 387 abs_clustr1 \$0otb;
#X connect 0 0 1 0;
#X connect 1 0 18 0;
#X connect 1 1 19 0;
#X connect 1 2 20 0;
#X connect 1 3 21 0;
#X connect 1 4 22 0;
#X connect 1 5 23 0;
#X connect 1 6 24 0;
#X connect 1 7 25 0;
#X connect 1 8 27 0;
#X connect 1 9 28 0;
#X connect 1 10 29 0;
#X connect 1 11 30 0;
#X connect 1 12 31 0;
#X connect 1 13 32 0;
#X connect 1 14 33 0;
#X connect 1 15 34 0;
#X connect 2 0 3 0;
#X connect 4 0 5 0;
#X connect 6 0 18 5;
#X connect 6 0 19 5;
#X connect 6 0 20 5;
#X connect 6 0 21 5;
#X connect 6 0 22 5;
#X connect 6 0 23 5;
#X connect 6 0 24 5;
#X connect 6 0 25 5;
#X connect 6 0 27 5;
#X connect 6 0 28 5;
#X connect 6 0 29 5;
#X connect 6 0 30 5;
#X connect 6 0 31 5;
#X connect 6 0 32 5;
#X connect 6 0 33 5;
#X connect 6 0 34 5;
#X connect 7 0 18 6;
#X connect 7 0 19 6;
#X connect 7 0 20 6;
#X connect 7 0 21 6;
#X connect 7 0 22 6;
#X connect 7 0 23 6;
#X connect 7 0 24 6;
#X connect 7 0 25 6;
#X connect 7 0 27 6;
#X connect 7 0 28 6;
#X connect 7 0 29 6;
#X connect 7 0 30 6;
#X connect 7 0 31 6;
#X connect 7 0 32 6;
#X connect 7 0 33 6;
#X connect 7 0 34 6;
#X connect 10 0 18 1;
#X connect 10 0 19 1;
#X connect 10 0 20 1;
#X connect 10 0 21 1;
#X connect 10 0 22 1;
#X connect 10 0 23 1;
#X connect 10 0 24 1;
#X connect 10 0 25 1;
#X connect 10 0 27 1;
#X connect 10 0 28 1;
#X connect 10 0 29 1;
#X connect 10 0 30 1;
#X connect 10 0 31 1;
#X connect 10 0 32 1;
#X connect 10 0 33 1;
#X connect 10 0 34 1;
#X connect 11 0 18 2;
#X connect 11 0 19 2;
#X connect 11 0 20 2;
#X connect 11 0 21 2;
#X connect 11 0 22 2;
#X connect 11 0 23 2;
#X connect 11 0 24 2;
#X connect 11 0 25 2;
#X connect 11 0 27 2;
#X connect 11 0 28 2;
#X connect 11 0 29 2;
#X connect 11 0 30 2;
#X connect 11 0 31 2;
#X connect 11 0 32 2;
#X connect 11 0 33 2;
#X connect 11 0 34 2;
#X connect 12 0 18 3;
#X connect 12 0 19 3;
#X connect 12 0 20 3;
#X connect 12 0 21 3;
#X connect 12 0 22 3;
#X connect 12 0 23 3;
#X connect 12 0 24 3;
#X connect 12 0 25 3;
#X connect 12 0 27 3;
#X connect 12 0 28 3;
#X connect 12 0 29 3;
#X connect 12 0 30 3;
#X connect 12 0 31 3;
#X connect 12 0 32 3;
#X connect 12 0 33 3;
#X connect 12 0 34 3;
#X connect 13 0 18 4;
#X connect 13 0 19 4;
#X connect 13 0 20 4;
#X connect 13 0 21 4;
#X connect 13 0 22 4;
#X connect 13 0 23 4;
#X connect 13 0 24 4;
#X connect 13 0 25 4;
#X connect 13 0 27 4;
#X connect 13 0 28 4;
#X connect 13 0 29 4;
#X connect 13 0 30 4;
#X connect 13 0 31 4;
#X connect 13 0 32 4;
#X connect 13 0 33 4;
#X connect 13 0 34 4;
#X connect 18 0 2 0;
#X connect 18 1 4 0;
#X connect 19 0 2 0;
#X connect 19 1 4 0;
#X connect 20 0 2 0;
#X connect 20 1 4 0;
#X connect 21 0 2 0;
#X connect 21 1 4 0;
#X connect 22 0 2 0;
#X connect 22 1 4 0;
#X connect 23 0 2 0;
#X connect 23 1 4 0;
#X connect 24 0 2 0;
#X connect 24 1 4 0;
#X connect 25 0 2 0;
#X connect 25 1 4 0;
#X connect 27 0 2 0;
#X connect 27 1 4 0;
#X connect 28 0 2 0;
#X connect 28 1 4 0;
#X connect 29 0 2 0;
#X connect 29 1 4 0;
#X connect 30 0 2 0;
#X connect 30 1 4 0;
#X connect 31 0 2 0;
#X connect 31 1 4 0;
#X connect 32 0 2 0;
#X connect 32 1 4 0;
#X connect 33 0 2 0;
#X connect 33 1 4 0;
#X connect 34 0 2 0;
#X connect 34 1 4 0;
#X restore 47 512 pd cluster16voices;
#N canvas 779 241 1063 771 cluster16voices 0;
#X obj -248 10 inlet;
#X obj -238 39 select 0 1 2 3 4 5 6 7 8 9 10 11 12 13 14 15;
#X obj 64 651 /~ 16;
#X obj 65 676 outlet~;
#X obj 527 650 /~ 16;
#X obj 528 675 outlet~;
#X obj 467 24 inlet;
#X obj 565 21 inlet;
#X text 436 2 duration (ms);
#X text 567 4 ramp (ms);
#X obj 123 15 inlet;
#X obj 198 16 inlet;
#X obj 274 20 inlet;
#X obj 362 21 inlet;
#X text 118 -5 lfreq(hz);
#X text 197 0 hfreq(hz);
#X text 272 0 lpan(0..1);
#X text 356 4 rpan(0..1);
#X obj -81 233 abs_clustr1 \$0otb;
#X obj 14 234 abs_clustr1 \$0otb;
#X obj 107 235 abs_clustr1 \$0otb;
#X obj 203 235 abs_clustr1 \$0otb;
#X obj 305 235 abs_clustr1 \$0otb;
#X obj 400 236 abs_clustr1 \$0otb;
#X obj 493 237 abs_clustr1 \$0otb;
#X obj 589 237 abs_clustr1 \$0otb;
#X text -249 -15 nr (0..15);
#X obj 4 383 abs_clustr1 \$0otb;
#X obj 99 384 abs_clustr1 \$0otb;
#X obj 192 385 abs_clustr1 \$0otb;
#X obj 288 385 abs_clustr1 \$0otb;
#X obj 390 385 abs_clustr1 \$0otb;
#X obj 485 386 abs_clustr1 \$0otb;
#X obj 578 387 abs_clustr1 \$0otb;
#X obj 674 387 abs_clustr1 \$0otb;
#X connect 0 0 1 0;
#X connect 1 0 18 0;
#X connect 1 1 19 0;
#X connect 1 2 20 0;
#X connect 1 3 21 0;
#X connect 1 4 22 0;
#X connect 1 5 23 0;
#X connect 1 6 24 0;
#X connect 1 7 25 0;
#X connect 1 8 27 0;
#X connect 1 9 28 0;
#X connect 1 10 29 0;
#X connect 1 11 30 0;
#X connect 1 12 31 0;
#X connect 1 13 32 0;
#X connect 1 14 33 0;
#X connect 1 15 34 0;
#X connect 2 0 3 0;
#X connect 4 0 5 0;
#X connect 6 0 18 5;
#X connect 6 0 19 5;
#X connect 6 0 20 5;
#X connect 6 0 21 5;
#X connect 6 0 22 5;
#X connect 6 0 23 5;
#X connect 6 0 24 5;
#X connect 6 0 25 5;
#X connect 6 0 27 5;
#X connect 6 0 28 5;
#X connect 6 0 29 5;
#X connect 6 0 30 5;
#X connect 6 0 31 5;
#X connect 6 0 32 5;
#X connect 6 0 33 5;
#X connect 6 0 34 5;
#X connect 7 0 18 6;
#X connect 7 0 19 6;
#X connect 7 0 20 6;
#X connect 7 0 21 6;
#X connect 7 0 22 6;
#X connect 7 0 23 6;
#X connect 7 0 24 6;
#X connect 7 0 25 6;
#X connect 7 0 27 6;
#X connect 7 0 28 6;
#X connect 7 0 29 6;
#X connect 7 0 30 6;
#X connect 7 0 31 6;
#X connect 7 0 32 6;
#X connect 7 0 33 6;
#X connect 7 0 34 6;
#X connect 10 0 18 1;
#X connect 10 0 19 1;
#X connect 10 0 20 1;
#X connect 10 0 21 1;
#X connect 10 0 22 1;
#X connect 10 0 23 1;
#X connect 10 0 24 1;
#X connect 10 0 25 1;
#X connect 10 0 27 1;
#X connect 10 0 28 1;
#X connect 10 0 29 1;
#X connect 10 0 30 1;
#X connect 10 0 31 1;
#X connect 10 0 32 1;
#X connect 10 0 33 1;
#X connect 10 0 34 1;
#X connect 11 0 18 2;
#X connect 11 0 19 2;
#X connect 11 0 20 2;
#X connect 11 0 21 2;
#X connect 11 0 22 2;
#X connect 11 0 23 2;
#X connect 11 0 24 2;
#X connect 11 0 25 2;
#X connect 11 0 27 2;
#X connect 11 0 28 2;
#X connect 11 0 29 2;
#X connect 11 0 30 2;
#X connect 11 0 31 2;
#X connect 11 0 32 2;
#X connect 11 0 33 2;
#X connect 11 0 34 2;
#X connect 12 0 18 3;
#X connect 12 0 19 3;
#X connect 12 0 20 3;
#X connect 12 0 21 3;
#X connect 12 0 22 3;
#X connect 12 0 23 3;
#X connect 12 0 24 3;
#X connect 12 0 25 3;
#X connect 12 0 27 3;
#X connect 12 0 28 3;
#X connect 12 0 29 3;
#X connect 12 0 30 3;
#X connect 12 0 31 3;
#X connect 12 0 32 3;
#X connect 12 0 33 3;
#X connect 12 0 34 3;
#X connect 13 0 18 4;
#X connect 13 0 19 4;
#X connect 13 0 20 4;
#X connect 13 0 21 4;
#X connect 13 0 22 4;
#X connect 13 0 23 4;
#X connect 13 0 24 4;
#X connect 13 0 25 4;
#X connect 13 0 27 4;
#X connect 13 0 28 4;
#X connect 13 0 29 4;
#X connect 13 0 30 4;
#X connect 13 0 31 4;
#X connect 13 0 32 4;
#X connect 13 0 33 4;
#X connect 13 0 34 4;
#X connect 18 0 2 0;
#X connect 18 1 4 0;
#X connect 19 0 2 0;
#X connect 19 1 4 0;
#X connect 20 0 2 0;
#X connect 20 1 4 0;
#X connect 21 0 2 0;
#X connect 21 1 4 0;
#X connect 22 0 2 0;
#X connect 22 1 4 0;
#X connect 23 0 2 0;
#X connect 23 1 4 0;
#X connect 24 0 2 0;
#X connect 24 1 4 0;
#X connect 25 0 2 0;
#X connect 25 1 4 0;
#X connect 27 0 2 0;
#X connect 27 1 4 0;
#X connect 28 0 2 0;
#X connect 28 1 4 0;
#X connect 29 0 2 0;
#X connect 29 1 4 0;
#X connect 30 0 2 0;
#X connect 30 1 4 0;
#X connect 31 0 2 0;
#X connect 31 1 4 0;
#X connect 32 0 2 0;
#X connect 32 1 4 0;
#X connect 33 0 2 0;
#X connect 33 1 4 0;
#X connect 34 0 2 0;
#X connect 34 1 4 0;
#X restore 194 513 pd cluster16voices;
#N canvas 781 249 1063 771 cluster16voices 0;
#X obj -248 10 inlet;
#X obj -238 39 select 0 1 2 3 4 5 6 7 8 9 10 11 12 13 14 15;
#X obj 64 651 /~ 16;
#X obj 65 676 outlet~;
#X obj 527 650 /~ 16;
#X obj 528 675 outlet~;
#X obj 467 24 inlet;
#X obj 565 21 inlet;
#X text 436 2 duration (ms);
#X text 567 4 ramp (ms);
#X obj 123 15 inlet;
#X obj 198 16 inlet;
#X obj 274 20 inlet;
#X obj 362 21 inlet;
#X text 118 -5 lfreq(hz);
#X text 197 0 hfreq(hz);
#X text 272 0 lpan(0..1);
#X text 356 4 rpan(0..1);
#X obj -81 233 abs_clustr1 \$0otb;
#X obj 14 234 abs_clustr1 \$0otb;
#X obj 107 235 abs_clustr1 \$0otb;
#X obj 203 235 abs_clustr1 \$0otb;
#X obj 305 235 abs_clustr1 \$0otb;
#X obj 400 236 abs_clustr1 \$0otb;
#X obj 493 237 abs_clustr1 \$0otb;
#X obj 589 237 abs_clustr1 \$0otb;
#X text -249 -15 nr (0..15);
#X obj 4 383 abs_clustr1 \$0otb;
#X obj 99 384 abs_clustr1 \$0otb;
#X obj 192 385 abs_clustr1 \$0otb;
#X obj 288 385 abs_clustr1 \$0otb;
#X obj 390 385 abs_clustr1 \$0otb;
#X obj 485 386 abs_clustr1 \$0otb;
#X obj 578 387 abs_clustr1 \$0otb;
#X obj 674 387 abs_clustr1 \$0otb;
#X connect 0 0 1 0;
#X connect 1 0 18 0;
#X connect 1 1 19 0;
#X connect 1 2 20 0;
#X connect 1 3 21 0;
#X connect 1 4 22 0;
#X connect 1 5 23 0;
#X connect 1 6 24 0;
#X connect 1 7 25 0;
#X connect 1 8 27 0;
#X connect 1 9 28 0;
#X connect 1 10 29 0;
#X connect 1 11 30 0;
#X connect 1 12 31 0;
#X connect 1 13 32 0;
#X connect 1 14 33 0;
#X connect 1 15 34 0;
#X connect 2 0 3 0;
#X connect 4 0 5 0;
#X connect 6 0 18 5;
#X connect 6 0 19 5;
#X connect 6 0 20 5;
#X connect 6 0 21 5;
#X connect 6 0 22 5;
#X connect 6 0 23 5;
#X connect 6 0 24 5;
#X connect 6 0 25 5;
#X connect 6 0 27 5;
#X connect 6 0 28 5;
#X connect 6 0 29 5;
#X connect 6 0 30 5;
#X connect 6 0 31 5;
#X connect 6 0 32 5;
#X connect 6 0 33 5;
#X connect 6 0 34 5;
#X connect 7 0 18 6;
#X connect 7 0 19 6;
#X connect 7 0 20 6;
#X connect 7 0 21 6;
#X connect 7 0 22 6;
#X connect 7 0 23 6;
#X connect 7 0 24 6;
#X connect 7 0 25 6;
#X connect 7 0 27 6;
#X connect 7 0 28 6;
#X connect 7 0 29 6;
#X connect 7 0 30 6;
#X connect 7 0 31 6;
#X connect 7 0 32 6;
#X connect 7 0 33 6;
#X connect 7 0 34 6;
#X connect 10 0 18 1;
#X connect 10 0 19 1;
#X connect 10 0 20 1;
#X connect 10 0 21 1;
#X connect 10 0 22 1;
#X connect 10 0 23 1;
#X connect 10 0 24 1;
#X connect 10 0 25 1;
#X connect 10 0 27 1;
#X connect 10 0 28 1;
#X connect 10 0 29 1;
#X connect 10 0 30 1;
#X connect 10 0 31 1;
#X connect 10 0 32 1;
#X connect 10 0 33 1;
#X connect 10 0 34 1;
#X connect 11 0 18 2;
#X connect 11 0 19 2;
#X connect 11 0 20 2;
#X connect 11 0 21 2;
#X connect 11 0 22 2;
#X connect 11 0 23 2;
#X connect 11 0 24 2;
#X connect 11 0 25 2;
#X connect 11 0 27 2;
#X connect 11 0 28 2;
#X connect 11 0 29 2;
#X connect 11 0 30 2;
#X connect 11 0 31 2;
#X connect 11 0 32 2;
#X connect 11 0 33 2;
#X connect 11 0 34 2;
#X connect 12 0 18 3;
#X connect 12 0 19 3;
#X connect 12 0 20 3;
#X connect 12 0 21 3;
#X connect 12 0 22 3;
#X connect 12 0 23 3;
#X connect 12 0 24 3;
#X connect 12 0 25 3;
#X connect 12 0 27 3;
#X connect 12 0 28 3;
#X connect 12 0 29 3;
#X connect 12 0 30 3;
#X connect 12 0 31 3;
#X connect 12 0 32 3;
#X connect 12 0 33 3;
#X connect 12 0 34 3;
#X connect 13 0 18 4;
#X connect 13 0 19 4;
#X connect 13 0 20 4;
#X connect 13 0 21 4;
#X connect 13 0 22 4;
#X connect 13 0 23 4;
#X connect 13 0 24 4;
#X connect 13 0 25 4;
#X connect 13 0 27 4;
#X connect 13 0 28 4;
#X connect 13 0 29 4;
#X connect 13 0 30 4;
#X connect 13 0 31 4;
#X connect 13 0 32 4;
#X connect 13 0 33 4;
#X connect 13 0 34 4;
#X connect 18 0 2 0;
#X connect 18 1 4 0;
#X connect 19 0 2 0;
#X connect 19 1 4 0;
#X connect 20 0 2 0;
#X connect 20 1 4 0;
#X connect 21 0 2 0;
#X connect 21 1 4 0;
#X connect 22 0 2 0;
#X connect 22 1 4 0;
#X connect 23 0 2 0;
#X connect 23 1 4 0;
#X connect 24 0 2 0;
#X connect 24 1 4 0;
#X connect 25 0 2 0;
#X connect 25 1 4 0;
#X connect 27 0 2 0;
#X connect 27 1 4 0;
#X connect 28 0 2 0;
#X connect 28 1 4 0;
#X connect 29 0 2 0;
#X connect 29 1 4 0;
#X connect 30 0 2 0;
#X connect 30 1 4 0;
#X connect 31 0 2 0;
#X connect 31 1 4 0;
#X connect 32 0 2 0;
#X connect 32 1 4 0;
#X connect 33 0 2 0;
#X connect 33 1 4 0;
#X connect 34 0 2 0;
#X connect 34 1 4 0;
#X restore 336 514 pd cluster16voices;
#N canvas 779 241 1063 771 cluster16voices 0;
#X obj -248 10 inlet;
#X obj -238 39 select 0 1 2 3 4 5 6 7 8 9 10 11 12 13 14 15;
#X obj 64 651 /~ 16;
#X obj 65 676 outlet~;
#X obj 527 650 /~ 16;
#X obj 528 675 outlet~;
#X obj 467 24 inlet;
#X obj 565 21 inlet;
#X text 436 2 duration (ms);
#X text 567 4 ramp (ms);
#X obj 123 15 inlet;
#X obj 198 16 inlet;
#X obj 274 20 inlet;
#X obj 362 21 inlet;
#X text 118 -5 lfreq(hz);
#X text 197 0 hfreq(hz);
#X text 272 0 lpan(0..1);
#X text 356 4 rpan(0..1);
#X obj -81 233 abs_clustr1 \$0otb;
#X obj 14 234 abs_clustr1 \$0otb;
#X obj 107 235 abs_clustr1 \$0otb;
#X obj 203 235 abs_clustr1 \$0otb;
#X obj 305 235 abs_clustr1 \$0otb;
#X obj 400 236 abs_clustr1 \$0otb;
#X obj 493 237 abs_clustr1 \$0otb;
#X obj 589 237 abs_clustr1 \$0otb;
#X text -249 -15 nr (0..15);
#X obj 4 383 abs_clustr1 \$0otb;
#X obj 99 384 abs_clustr1 \$0otb;
#X obj 192 385 abs_clustr1 \$0otb;
#X obj 288 385 abs_clustr1 \$0otb;
#X obj 390 385 abs_clustr1 \$0otb;
#X obj 485 386 abs_clustr1 \$0otb;
#X obj 578 387 abs_clustr1 \$0otb;
#X obj 674 387 abs_clustr1 \$0otb;
#X connect 0 0 1 0;
#X connect 1 0 18 0;
#X connect 1 1 19 0;
#X connect 1 2 20 0;
#X connect 1 3 21 0;
#X connect 1 4 22 0;
#X connect 1 5 23 0;
#X connect 1 6 24 0;
#X connect 1 7 25 0;
#X connect 1 8 27 0;
#X connect 1 9 28 0;
#X connect 1 10 29 0;
#X connect 1 11 30 0;
#X connect 1 12 31 0;
#X connect 1 13 32 0;
#X connect 1 14 33 0;
#X connect 1 15 34 0;
#X connect 2 0 3 0;
#X connect 4 0 5 0;
#X connect 6 0 18 5;
#X connect 6 0 19 5;
#X connect 6 0 20 5;
#X connect 6 0 21 5;
#X connect 6 0 22 5;
#X connect 6 0 23 5;
#X connect 6 0 24 5;
#X connect 6 0 25 5;
#X connect 6 0 27 5;
#X connect 6 0 28 5;
#X connect 6 0 29 5;
#X connect 6 0 30 5;
#X connect 6 0 31 5;
#X connect 6 0 32 5;
#X connect 6 0 33 5;
#X connect 6 0 34 5;
#X connect 7 0 18 6;
#X connect 7 0 19 6;
#X connect 7 0 20 6;
#X connect 7 0 21 6;
#X connect 7 0 22 6;
#X connect 7 0 23 6;
#X connect 7 0 24 6;
#X connect 7 0 25 6;
#X connect 7 0 27 6;
#X connect 7 0 28 6;
#X connect 7 0 29 6;
#X connect 7 0 30 6;
#X connect 7 0 31 6;
#X connect 7 0 32 6;
#X connect 7 0 33 6;
#X connect 7 0 34 6;
#X connect 10 0 18 1;
#X connect 10 0 19 1;
#X connect 10 0 20 1;
#X connect 10 0 21 1;
#X connect 10 0 22 1;
#X connect 10 0 23 1;
#X connect 10 0 24 1;
#X connect 10 0 25 1;
#X connect 10 0 27 1;
#X connect 10 0 28 1;
#X connect 10 0 29 1;
#X connect 10 0 30 1;
#X connect 10 0 31 1;
#X connect 10 0 32 1;
#X connect 10 0 33 1;
#X connect 10 0 34 1;
#X connect 11 0 18 2;
#X connect 11 0 19 2;
#X connect 11 0 20 2;
#X connect 11 0 21 2;
#X connect 11 0 22 2;
#X connect 11 0 23 2;
#X connect 11 0 24 2;
#X connect 11 0 25 2;
#X connect 11 0 27 2;
#X connect 11 0 28 2;
#X connect 11 0 29 2;
#X connect 11 0 30 2;
#X connect 11 0 31 2;
#X connect 11 0 32 2;
#X connect 11 0 33 2;
#X connect 11 0 34 2;
#X connect 12 0 18 3;
#X connect 12 0 19 3;
#X connect 12 0 20 3;
#X connect 12 0 21 3;
#X connect 12 0 22 3;
#X connect 12 0 23 3;
#X connect 12 0 24 3;
#X connect 12 0 25 3;
#X connect 12 0 27 3;
#X connect 12 0 28 3;
#X connect 12 0 29 3;
#X connect 12 0 30 3;
#X connect 12 0 31 3;
#X connect 12 0 32 3;
#X connect 12 0 33 3;
#X connect 12 0 34 3;
#X connect 13 0 18 4;
#X connect 13 0 19 4;
#X connect 13 0 20 4;
#X connect 13 0 21 4;
#X connect 13 0 22 4;
#X connect 13 0 23 4;
#X connect 13 0 24 4;
#X connect 13 0 25 4;
#X connect 13 0 27 4;
#X connect 13 0 28 4;
#X connect 13 0 29 4;
#X connect 13 0 30 4;
#X connect 13 0 31 4;
#X connect 13 0 32 4;
#X connect 13 0 33 4;
#X connect 13 0 34 4;
#X connect 18 0 2 0;
#X connect 18 1 4 0;
#X connect 19 0 2 0;
#X connect 19 1 4 0;
#X connect 20 0 2 0;
#X connect 20 1 4 0;
#X connect 21 0 2 0;
#X connect 21 1 4 0;
#X connect 22 0 2 0;
#X connect 22 1 4 0;
#X connect 23 0 2 0;
#X connect 23 1 4 0;
#X connect 24 0 2 0;
#X connect 24 1 4 0;
#X connect 25 0 2 0;
#X connect 25 1 4 0;
#X connect 27 0 2 0;
#X connect 27 1 4 0;
#X connect 28 0 2 0;
#X connect 28 1 4 0;
#X connect 29 0 2 0;
#X connect 29 1 4 0;
#X connect 30 0 2 0;
#X connect 30 1 4 0;
#X connect 31 0 2 0;
#X connect 31 1 4 0;
#X connect 32 0 2 0;
#X connect 32 1 4 0;
#X connect 33 0 2 0;
#X connect 33 1 4 0;
#X connect 34 0 2 0;
#X connect 34 1 4 0;
#X restore 476 515 pd cluster16voices;
#X obj 58 485 - 64;
#X obj 195 488 - 80;
#X obj 338 489 - 96;
#X obj 477 487 - 112;
#X obj 12 669 outlet~;
#X obj 111 668 outlet~;
#X obj -127 364 mtof;
#X obj -78 364 mtof;
#X obj 263 359 mod 128;
#X obj 14 631 /~ 3;
#X obj 109 633 /~ 3;
#X text 161 631 experimental value \, should be 8 !?;
#N canvas 12 90 1277 881 makewaves 0;
#X obj 273 -90 until;
#X obj 273 -62 f;
#X obj 304 -60 + 1;
#X obj 950 274 t f f;
#X obj 907 387 mod 2;
#X obj 917 411 * 2;
#X obj 918 436 - 1;
#X obj 907 360 div 256;
#X obj 305 -39 mod 515;
#X msg 272 -114 515;
#X obj 930 470 * -1;
#X obj 925 509 tabwrite \$0otb;
#X obj 227 368 sin;
#X obj 226 345 * 6.28319;
#X obj 227 236 t f f;
#X obj 226 319 / 512;
#X obj 227 399 tabwrite \$0otb;
#X obj 227 236 t f f;
#X obj 757 353 t f f;
#X obj 744 409 mod 512;
#X obj 744 434 / 256;
#X obj 749 458 - 1;
#X obj 752 479 * -1;
#X obj 752 526 tabwrite \$0otb;
#X obj 487 279 t f f;
#X obj 395 332 mod 512;
#X obj 489 418 * 2;
#X obj 486 444 - 1;
#X obj 405 471 *;
#X obj 392 360 t f f;
#X obj 407 496 / 512;
#X obj 483 395 < 256;
#X obj 431 522 -;
#X obj 450 547 * 4;
#X obj 449 580 + 3;
#X obj 393 307 + 128;
#X obj 448 616 tabwrite \$0otb;
#X obj 249 61 pack f f;
#X obj 342 92 route 0 1 2 3;
#X obj 138 -165 inlet;
#X obj 249 36 int;
#X obj 150 -111 t b f;
#X obj 297 -7 t b f;
#X connect 0 0 1 0;
#X connect 1 0 2 0;
#X connect 2 0 8 0;
#X connect 3 0 7 0;
#X connect 3 1 11 1;
#X connect 4 0 5 0;
#X connect 5 0 6 0;
#X connect 6 0 10 0;
#X connect 7 0 4 0;
#X connect 8 0 1 1;
#X connect 8 0 42 0;
#X connect 9 0 0 0;
#X connect 10 0 11 0;
#X connect 12 0 16 0;
#X connect 13 0 12 0;
#X connect 14 0 15 0;
#X connect 14 1 16 1;
#X connect 15 0 13 0;
#X connect 18 0 19 0;
#X connect 18 1 23 1;
#X connect 19 0 20 0;
#X connect 20 0 21 0;
#X connect 21 0 22 0;
#X connect 22 0 23 0;
#X connect 24 0 35 0;
#X connect 24 1 36 1;
#X connect 25 0 29 0;
#X connect 26 0 27 0;
#X connect 27 0 28 1;
#X connect 28 0 30 0;
#X connect 29 0 28 0;
#X connect 29 1 31 0;
#X connect 30 0 32 0;
#X connect 31 0 26 0;
#X connect 31 0 32 1;
#X connect 32 0 33 0;
#X connect 33 0 34 0;
#X connect 34 0 36 0;
#X connect 35 0 25 0;
#X connect 37 0 38 0;
#X connect 38 0 14 0;
#X connect 38 1 24 0;
#X connect 38 2 18 0;
#X connect 38 3 3 0;
#X connect 39 0 41 0;
#X connect 40 0 37 0;
#X connect 41 0 9 0;
#X connect 41 1 40 1;
#X connect 42 0 40 0;
#X connect 42 1 37 1;
#X restore -23 214 pd makewaves;
#N canvas 825 296 664 503 osctable 0;
#N canvas 0 0 450 300 (subpatch) 0;
#X array \$0otb 515 float 1;
#A 0 0 0.0078125 0.015625 0.0234375 0.03125 0.0390625 0.046875 0.0546875
0.0625 0.0703125 0.078125 0.0859375 0.09375 0.101562 0.109375 0.117188
0.125 0.132812 0.140625 0.148438 0.15625 0.164062 0.171875 0.179688
0.1875 0.195312 0.203125 0.210938 0.21875 0.226562 0.234375 0.242188
0.25 0.257812 0.265625 0.273438 0.28125 0.289062 0.296875 0.304688
0.3125 0.320312 0.328125 0.335938 0.34375 0.351562 0.359375 0.367188
0.375 0.382812 0.390625 0.398438 0.40625 0.414062 0.421875 0.429688
0.4375 0.445312 0.453125 0.460938 0.46875 0.476562 0.484375 0.492188
0.5 0.507812 0.515625 0.523438 0.53125 0.539062 0.546875 0.554688 0.5625
0.570312 0.578125 0.585938 0.59375 0.601562 0.609375 0.617188 0.625
0.632812 0.640625 0.648438 0.65625 0.664062 0.671875 0.679688 0.6875
0.695312 0.703125 0.710938 0.71875 0.726562 0.734375 0.742188 0.75
0.757812 0.765625 0.773438 0.78125 0.789062 0.796875 0.804688 0.8125
0.820312 0.828125 0.835938 0.84375 0.851562 0.859375 0.867188 0.875
0.882812 0.890625 0.898438 0.90625 0.914062 0.921875 0.929688 0.9375
0.945312 0.953125 0.960938 0.96875 0.976562 0.984375 0.992188 1 0.992188
0.984375 0.976562 0.96875 0.960938 0.953125 0.945312 0.9375 0.929688
0.921875 0.914062 0.90625 0.898438 0.890625 0.882812 0.875 0.867188
0.859375 0.851562 0.84375 0.835938 0.828125 0.820312 0.8125 0.804688
0.796875 0.789062 0.78125 0.773438 0.765625 0.757812 0.75 0.742188
0.734375 0.726562 0.71875 0.710938 0.703125 0.695312 0.6875 0.679688
0.671875 0.664062 0.65625 0.648438 0.640625 0.632812 0.625 0.617188
0.609375 0.601562 0.59375 0.585938 0.578125 0.570312 0.5625 0.554688
0.546875 0.539062 0.53125 0.523438 0.515625 0.507812 0.5 0.492188 0.484375
0.476562 0.46875 0.460938 0.453125 0.445312 0.4375 0.429688 0.421875
0.414062 0.40625 0.398438 0.390625 0.382812 0.375 0.367188 0.359375
0.351562 0.34375 0.335938 0.328125 0.320312 0.3125 0.304688 0.296875
0.289062 0.28125 0.273438 0.265625 0.257812 0.25 0.242188 0.234375
0.226562 0.21875 0.210938 0.203125 0.195312 0.1875 0.179688 0.171875
0.164062 0.15625 0.148438 0.140625 0.132812 0.125 0.117188 0.109375
0.101562 0.09375 0.0859375 0.078125 0.0703125 0.0625 0.0546875 0.046875
0.0390625 0.03125 0.0234375 0.015625 0.0078125 0 -0.0078125 -0.015625
-0.0234375 -0.03125 -0.0390625 -0.046875 -0.0546875 -0.0625 -0.0703125
-0.078125 -0.0859375 -0.09375 -0.101562 -0.109375 -0.117188 -0.125
-0.132812 -0.140625 -0.148438 -0.15625 -0.164062 -0.171875 -0.179688
-0.1875 -0.195312 -0.203125 -0.210938 -0.21875 -0.226562 -0.234375
-0.242188 -0.25 -0.257812 -0.265625 -0.273438 -0.28125 -0.289062 -0.296875
-0.304688 -0.3125 -0.320312 -0.328125 -0.335938 -0.34375 -0.351562
-0.359375 -0.367188 -0.375 -0.382812 -0.390625 -0.398438 -0.40625 -0.414062
-0.421875 -0.429688 -0.4375 -0.445312 -0.453125 -0.460938 -0.46875
-0.476562 -0.484375 -0.492188 -0.5 -0.507812 -0.515625 -0.523438 -0.53125
-0.539062 -0.546875 -0.554688 -0.5625 -0.570312 -0.578125 -0.585938
-0.59375 -0.601562 -0.609375 -0.617188 -0.625 -0.632812 -0.640625 -0.648438
-0.65625 -0.664062 -0.671875 -0.679688 -0.6875 -0.695312 -0.703125
-0.710938 -0.71875 -0.726562 -0.734375 -0.742188 -0.75 -0.757812 -0.765625
-0.773438 -0.78125 -0.789062 -0.796875 -0.804688 -0.8125 -0.820312
-0.828125 -0.835938 -0.84375 -0.851562 -0.859375 -0.867188 -0.875 -0.882812
-0.890625 -0.898438 -0.90625 -0.914062 -0.921875 -0.929688 -0.9375
-0.945312 -0.953125 -0.960938 -0.96875 -0.976562 -0.984375 -0.992188
-1 -0.992188 -0.984375 -0.976562 -0.96875 -0.960938 -0.953125 -0.945312
-0.9375 -0.929688 -0.921875 -0.914062 -0.90625 -0.898438 -0.890625
-0.882812 -0.875 -0.867188 -0.859375 -0.851562 -0.84375 -0.835938 -0.828125
-0.820312 -0.8125 -0.804688 -0.796875 -0.789062 -0.78125 -0.773438
-0.765625 -0.757812 -0.75 -0.742188 -0.734375 -0.726562 -0.71875 -0.710938
-0.703125 -0.695312 -0.6875 -0.679688 -0.671875 -0.664062 -0.65625
-0.648438 -0.640625 -0.632812 -0.625 -0.617188 -0.609375 -0.601562
-0.59375 -0.585938 -0.578125 -0.570312 -0.5625 -0.554688 -0.546875
-0.539062 -0.53125 -0.523438 -0.515625 -0.507812 -0.5 -0.492188 -0.484375
-0.476562 -0.46875 -0.460938 -0.453125 -0.445312 -0.4375 -0.429688
-0.421875 -0.414062 -0.40625 -0.398438 -0.390625 -0.382812 -0.375 -0.367188
-0.359375 -0.351562 -0.34375 -0.335938 -0.328125 -0.320312 -0.3125
-0.304688 -0.296875 -0.289062 -0.28125 -0.273438 -0.265625 -0.257812
-0.25 -0.242188 -0.234375 -0.226562 -0.21875 -0.210938 -0.203125 -0.195312
-0.1875 -0.179688 -0.171875 -0.164062 -0.15625 -0.148438 -0.140625
-0.132812 -0.125 -0.117188 -0.109375 -0.101562 -0.09375 -0.0859375
-0.078125 -0.0703125 -0.0625 -0.0546875 -0.046875 -0.0390625 -0.03125
-0.0234375 -0.015625 -0.0078125 0 0.0078125 0.015625;
#X coords 0 1 514 -1 512 400 1 0 0;
#X restore 47 39 graph;
#X restore 8 276 pd osctable;
#X text -350 54 abstraction for clustersynth128;
#X obj -345 135 inlet;
#X text -364 112 pirch center;
#X obj -297 140 inlet;
#X text -300 126 pan center;
#X obj -186 115 inlet;
#X obj -118 124 inlet;
#X text -206 92 pirch range;
#X text -121 110 pan range;
#X obj -60 78 inlet;
#X text -59 58 wave;
#X obj 7 76 inlet;
#X text 8 53 duration;
#X obj 68 78 inlet;
#X obj 194 75 inlet;
#X text 69 58 metro;
#X text 194 53 dens;
#X obj 139 77 inlet;
#X text 139 55 ramp;
#X connect 0 0 37 0;
#X connect 0 1 38 0;
#X connect 1 0 2 0;
#X connect 2 0 3 0;
#X connect 3 0 36 0;
#X connect 4 0 37 0;
#X connect 4 1 38 0;
#X connect 5 0 4 0;
#X connect 6 0 8 0;
#X connect 7 0 35 0;
#X connect 8 0 7 0;
#X connect 8 0 9 0;
#X connect 8 1 7 1;
#X connect 8 1 9 1;
#X connect 9 0 34 0;
#X connect 10 0 0 5;
#X connect 10 0 4 5;
#X connect 10 0 20 5;
#X connect 10 0 21 5;
#X connect 10 0 24 5;
#X connect 10 0 25 5;
#X connect 10 0 26 5;
#X connect 10 0 27 5;
#X connect 11 0 0 6;
#X connect 11 0 4 6;
#X connect 11 0 20 6;
#X connect 11 0 21 6;
#X connect 11 0 24 6;
#X connect 11 0 25 6;
#X connect 11 0 26 6;
#X connect 11 0 27 6;
#X connect 12 0 0 3;
#X connect 12 0 4 3;
#X connect 12 0 20 3;
#X connect 12 0 21 3;
#X connect 12 0 24 3;
#X connect 12 0 25 3;
#X connect 12 0 26 3;
#X connect 12 0 27 3;
#X connect 13 0 0 4;
#X connect 13 0 4 4;
#X connect 13 0 20 4;
#X connect 13 0 21 4;
#X connect 13 0 24 4;
#X connect 13 0 25 4;
#X connect 13 0 26 4;
#X connect 13 0 27 4;
#X connect 14 0 16 0;
#X connect 15 0 13 0;
#X connect 16 0 15 0;
#X connect 16 0 17 0;
#X connect 16 1 15 1;
#X connect 16 1 17 1;
#X connect 17 0 12 0;
#X connect 18 0 15 0;
#X connect 18 0 17 0;
#X connect 19 0 14 0;
#X connect 20 0 37 0;
#X connect 20 1 38 0;
#X connect 21 0 37 0;
#X connect 21 1 38 0;
#X connect 22 0 20 0;
#X connect 23 0 21 0;
#X connect 24 0 37 0;
#X connect 24 1 38 0;
#X connect 25 0 37 0;
#X connect 25 1 38 0;
#X connect 26 0 37 0;
#X connect 26 1 38 0;
#X connect 27 0 37 0;
#X connect 27 1 38 0;
#X connect 28 0 24 0;
#X connect 29 0 25 0;
#X connect 30 0 26 0;
#X connect 31 0 27 0;
#X connect 34 0 0 1;
#X connect 34 0 4 1;
#X connect 34 0 20 1;
#X connect 34 0 21 1;
#X connect 34 0 24 1;
#X connect 34 0 25 1;
#X connect 34 0 26 1;
#X connect 34 0 27 1;
#X connect 35 0 0 2;
#X connect 35 0 4 2;
#X connect 35 0 20 2;
#X connect 35 0 21 2;
#X connect 35 0 24 2;
#X connect 35 0 25 2;
#X connect 35 0 26 2;
#X connect 35 0 27 2;
#X connect 36 0 2 1;
#X connect 36 0 0 0;
#X connect 36 0 5 0;
#X connect 36 0 22 0;
#X connect 36 0 23 0;
#X connect 36 0 29 0;
#X connect 36 0 28 0;
#X connect 36 0 30 0;
#X connect 36 0 31 0;
#X connect 37 0 32 0;
#X connect 38 0 33 0;
#X connect 43 0 9 0;
#X connect 43 0 7 0;
#X connect 45 0 18 0;
#X connect 47 0 6 0;
#X connect 48 0 19 0;
#X connect 51 0 40 0;
#X connect 53 0 10 0;
#X connect 55 0 1 0;
#X connect 56 0 1 1;
#X connect 59 0 11 0;
