#N canvas 49 141 1207 813 10;
#X obj -148 -2 inlet;
#X obj 251 108 inlet;
#X obj 91 45 inlet;
#X text 130 45 <-length;
#X obj 169 75 inlet;
#X text 207 76 <-len jitter;
#X obj 319 129 inlet;
#X text 365 128 <-pos jitter;
#X text 292 107 <-pos;
#X obj -100 18 + 1;
#X obj 411 158 inlet;
#X obj 517 189 inlet;
#X text 452 158 <-transpose;
#X text 557 190 <-p jitter;
#X obj 583 228 inlet;
#X text 632 230 <-pan jitter;
#X obj -111 75 select 0 1 2 3 4 5 6 7 8 9 10 11;
#N canvas 790 179 1050 795 grainplayer12 0;
#X obj 403 11 inlet;
#X obj 239 -124 inlet;
#X obj 59 142 line~;
#X obj 127 558 outlet~;
#X msg 48 48 0;
#X msg 65 104 1 694.434;
#X obj 14 305 +~;
#X obj 61 245 *~;
#X msg 87 64 set 1 \$1;
#X obj 125 -34 / 44.1;
#X text 282 -124 <-length;
#X obj 352 -107 inlet;
#X obj 193 -44 +;
#X text 398 -108 <-len jitter;
#X obj 472 33 inlet;
#X obj 133 230 +;
#X text 518 32 <-pos jitter;
#X text 445 11 <-pos;
#X obj 223 189 random 1;
#X obj 234 -77 random 1;
#X obj 163 338 cos~;
#X obj 163 286 -~ 0.5;
#X obj 163 310 *~ 0.5;
#X obj 105 -3 *;
#X obj 630 8 inlet;
#X obj 699 75 inlet;
#X text 672 8 <-transpose;
#X text 748 74 <-p jitter;
#X msg 446 190 1.05946;
#X obj 481 218 pow;
#X obj 544 85 * -1;
#X obj 637 131 * 128;
#X obj 630 166 random 1;
#X obj 631 190 / 128;
#X obj 613 296 *;
#X obj 509 110 +;
#X obj 127 522 *~;
#X obj 228 564 outlet~;
#X obj 228 528 *~;
#X msg 295 356 0.5;
#X obj 295 384 +;
#X obj 768 317 inlet;
#X text 817 316 <-pan jitter;
#X obj 624 423 / 128;
#X obj 623 454 - 0.5;
#X obj 635 489 *;
#X text 513 -79 play a single grain on bang;
#X msg 281 450 1;
#X obj 301 481 -;
#X obj 628 219 * 48;
#X obj 5 185 phasor~;
#X obj 48 20 / 1000;
#X obj -4 43 pow -1;
#X msg 28 152 1;
#X obj 467 243 clip 0.125 4;
#X obj 628 244 - 24;
#X obj 140 413 *~;
#X obj 163 360 *~ 8;
#X obj 161 383 clip~ 0 1;
#X obj 287 415 t b f;
#X text 76 -142 bang starts grain;
#X obj 508 132 float;
#X obj -6 358 tabread4~ \$0grainsource1;
#X obj 483 159 t b f;
#X obj 649 101 float;
#X obj 633 30 t b f;
#X obj 571 64 float;
#X obj 35 -175 inlet;
#X obj 35 -145 t b b;
#X obj 202 92 t b f;
#X floatatom 631 544 5 0 0 0 - - -;
#X obj 618 397 random 128;
#X connect 0 0 15 1;
#X connect 1 0 12 1;
#X connect 2 0 21 0;
#X connect 4 0 2 0;
#X connect 4 0 5 0;
#X connect 5 0 2 0;
#X connect 6 0 62 0;
#X connect 7 0 6 0;
#X connect 8 0 5 0;
#X connect 9 0 23 0;
#X connect 11 0 19 1;
#X connect 12 0 9 0;
#X connect 12 0 7 1;
#X connect 14 0 18 1;
#X connect 15 0 6 1;
#X connect 18 0 15 0;
#X connect 19 0 12 0;
#X connect 20 0 57 0;
#X connect 21 0 22 0;
#X connect 22 0 20 0;
#X connect 23 0 8 0;
#X connect 23 0 51 0;
#X connect 24 0 65 0;
#X connect 24 0 66 0;
#X connect 25 0 34 1;
#X connect 25 0 64 0;
#X connect 28 0 29 0;
#X connect 29 0 54 0;
#X connect 30 0 35 1;
#X connect 31 0 32 1;
#X connect 32 0 33 0;
#X connect 33 0 49 0;
#X connect 34 0 35 0;
#X connect 35 0 61 0;
#X connect 36 0 3 0;
#X connect 38 0 37 0;
#X connect 39 0 40 0;
#X connect 40 0 36 1;
#X connect 40 0 59 0;
#X connect 41 0 45 1;
#X connect 43 0 44 0;
#X connect 44 0 45 0;
#X connect 45 0 40 1;
#X connect 45 0 70 0;
#X connect 47 0 48 0;
#X connect 48 0 38 1;
#X connect 49 0 55 0;
#X connect 50 0 7 0;
#X connect 51 0 52 0;
#X connect 52 0 50 0;
#X connect 53 0 50 1;
#X connect 54 0 69 0;
#X connect 55 0 34 0;
#X connect 56 0 36 0;
#X connect 56 0 38 0;
#X connect 57 0 58 0;
#X connect 58 0 56 1;
#X connect 59 0 47 0;
#X connect 59 1 48 1;
#X connect 61 0 63 0;
#X connect 62 0 56 0;
#X connect 63 0 28 0;
#X connect 63 1 29 1;
#X connect 64 0 31 0;
#X connect 65 0 64 0;
#X connect 65 0 32 0;
#X connect 65 0 66 0;
#X connect 65 1 66 1;
#X connect 66 0 30 0;
#X connect 67 0 68 0;
#X connect 68 0 4 0;
#X connect 68 0 39 0;
#X connect 68 0 53 0;
#X connect 68 1 19 0;
#X connect 68 1 32 0;
#X connect 68 1 61 0;
#X connect 68 1 18 0;
#X connect 68 1 71 0;
#X connect 69 0 23 0;
#X connect 69 1 23 1;
#X connect 71 0 43 0;
#X restore 697 586 pd grainplayer12;
#N canvas 654 227 1050 795 grainplayer 0;
#X obj 403 11 inlet;
#X obj 239 -124 inlet;
#X obj 59 142 line~;
#X obj 127 558 outlet~;
#X msg 48 48 0;
#X msg 65 104 1 689.218;
#X obj 14 305 +~;
#X obj 61 245 *~;
#X msg 87 64 set 1 \$1;
#X obj 125 -34 / 44.1;
#X text 282 -124 <-length;
#X obj 352 -107 inlet;
#X obj 193 -44 +;
#X text 398 -108 <-len jitter;
#X obj 472 33 inlet;
#X obj 133 230 +;
#X text 518 32 <-pos jitter;
#X text 445 11 <-pos;
#X obj 223 189 random 1;
#X obj 234 -77 random 1;
#X obj 163 338 cos~;
#X obj 163 286 -~ 0.5;
#X obj 163 310 *~ 0.5;
#X obj 105 -3 *;
#X obj 630 8 inlet;
#X obj 699 75 inlet;
#X text 672 8 <-transpose;
#X text 748 74 <-p jitter;
#X msg 446 190 1.05946;
#X obj 481 218 pow;
#X obj 544 85 * -1;
#X obj 637 131 * 128;
#X obj 630 166 random 1;
#X obj 631 190 / 128;
#X obj 613 296 *;
#X obj 509 110 +;
#X obj 127 522 *~;
#X obj 228 564 outlet~;
#X obj 228 528 *~;
#X msg 295 356 0.5;
#X obj 295 384 +;
#X obj 768 317 inlet;
#X text 817 316 <-pan jitter;
#X obj 624 423 / 128;
#X obj 623 454 - 0.5;
#X obj 624 487 *;
#X text 513 -79 play a single grain on bang;
#X msg 281 450 1;
#X obj 301 481 -;
#X obj 628 219 * 48;
#X obj 5 185 phasor~;
#X obj 48 20 / 1000;
#X obj -4 43 pow -1;
#X msg 28 152 1;
#X obj 467 243 clip 0.125 4;
#X obj 628 244 - 24;
#X obj 140 413 *~;
#X obj 163 360 *~ 8;
#X obj 161 383 clip~ 0 1;
#X obj 287 415 t b f;
#X text 76 -142 bang starts grain;
#X obj 508 132 float;
#X obj -6 358 tabread4~ \$0grainsource1;
#X obj 483 159 t b f;
#X obj 649 101 float;
#X obj 633 30 t b f;
#X obj 571 64 float;
#X obj 35 -175 inlet;
#X obj 35 -145 t b b;
#X obj 202 92 t b f;
#X obj 634 397 random 128;
#X connect 0 0 15 1;
#X connect 1 0 12 1;
#X connect 2 0 21 0;
#X connect 4 0 2 0;
#X connect 4 0 5 0;
#X connect 5 0 2 0;
#X connect 6 0 62 0;
#X connect 7 0 6 0;
#X connect 8 0 5 0;
#X connect 9 0 23 0;
#X connect 11 0 19 1;
#X connect 12 0 9 0;
#X connect 12 0 7 1;
#X connect 14 0 18 1;
#X connect 15 0 6 1;
#X connect 18 0 15 0;
#X connect 19 0 12 0;
#X connect 20 0 57 0;
#X connect 21 0 22 0;
#X connect 22 0 20 0;
#X connect 23 0 8 0;
#X connect 23 0 51 0;
#X connect 24 0 65 0;
#X connect 24 0 66 0;
#X connect 25 0 34 1;
#X connect 25 0 64 0;
#X connect 28 0 29 0;
#X connect 29 0 54 0;
#X connect 30 0 35 1;
#X connect 31 0 32 1;
#X connect 32 0 33 0;
#X connect 33 0 49 0;
#X connect 34 0 35 0;
#X connect 35 0 61 0;
#X connect 36 0 3 0;
#X connect 38 0 37 0;
#X connect 39 0 40 0;
#X connect 40 0 36 1;
#X connect 40 0 59 0;
#X connect 41 0 45 1;
#X connect 43 0 44 0;
#X connect 44 0 45 0;
#X connect 45 0 40 1;
#X connect 47 0 48 0;
#X connect 48 0 38 1;
#X connect 49 0 55 0;
#X connect 50 0 7 0;
#X connect 51 0 52 0;
#X connect 52 0 50 0;
#X connect 53 0 50 1;
#X connect 54 0 69 0;
#X connect 55 0 34 0;
#X connect 56 0 36 0;
#X connect 56 0 38 0;
#X connect 57 0 58 0;
#X connect 58 0 56 1;
#X connect 59 0 47 0;
#X connect 59 1 48 1;
#X connect 61 0 63 0;
#X connect 62 0 56 0;
#X connect 63 0 28 0;
#X connect 63 1 29 1;
#X connect 64 0 31 0;
#X connect 65 0 64 0;
#X connect 65 0 32 0;
#X connect 65 0 66 0;
#X connect 65 1 66 1;
#X connect 66 0 30 0;
#X connect 67 0 68 0;
#X connect 68 0 4 0;
#X connect 68 0 53 0;
#X connect 68 0 39 0;
#X connect 68 1 19 0;
#X connect 68 1 32 0;
#X connect 68 1 61 0;
#X connect 68 1 18 0;
#X connect 68 1 70 0;
#X connect 69 0 23 0;
#X connect 69 1 23 1;
#X connect 70 0 43 0;
#X restore -120 195 pd grainplayer;
#N canvas 1 81 1050 795 grainplayer 0;
#X obj 403 11 inlet;
#X obj 239 -124 inlet;
#X obj 59 142 line~;
#X obj 127 558 outlet~;
#X msg 48 48 0;
#X msg 65 104 1 650.805;
#X obj 14 305 +~;
#X obj 61 245 *~;
#X msg 87 64 set 1 \$1;
#X obj 125 -34 / 44.1;
#X text 282 -124 <-length;
#X obj 352 -107 inlet;
#X obj 193 -44 +;
#X text 398 -108 <-len jitter;
#X obj 472 33 inlet;
#X obj 133 230 +;
#X text 518 32 <-pos jitter;
#X text 445 11 <-pos;
#X obj 223 189 random 1;
#X obj 234 -77 random 1;
#X obj 163 338 cos~;
#X obj 163 286 -~ 0.5;
#X obj 163 310 *~ 0.5;
#X obj 105 -3 *;
#X obj 630 8 inlet;
#X obj 699 75 inlet;
#X text 672 8 <-transpose;
#X text 748 74 <-p jitter;
#X msg 446 190 1.05946;
#X obj 481 218 pow;
#X obj 544 85 * -1;
#X obj 637 131 * 128;
#X obj 630 166 random 1;
#X obj 631 190 / 128;
#X obj 613 296 *;
#X obj 509 110 +;
#X obj 127 522 *~;
#X obj 228 564 outlet~;
#X obj 228 528 *~;
#X msg 295 356 0.5;
#X obj 295 384 +;
#X obj 768 317 inlet;
#X text 817 316 <-pan jitter;
#X obj 624 423 / 128;
#X obj 623 454 - 0.5;
#X obj 624 487 *;
#X text 513 -79 play a single grain on bang;
#X msg 281 450 1;
#X obj 301 481 -;
#X obj 628 219 * 48;
#X obj 5 185 phasor~;
#X obj 48 20 / 1000;
#X obj -4 43 pow -1;
#X msg 28 152 1;
#X obj 467 243 clip 0.125 4;
#X obj 628 244 - 24;
#X obj 140 413 *~;
#X obj 163 360 *~ 8;
#X obj 161 383 clip~ 0 1;
#X obj 287 415 t b f;
#X text 76 -142 bang starts grain;
#X obj 508 132 float;
#X obj -6 358 tabread4~ \$0grainsource1;
#X obj 483 159 t b f;
#X obj 649 101 float;
#X obj 633 30 t b f;
#X obj 571 64 float;
#X obj 35 -175 inlet;
#X obj 35 -145 t b b;
#X obj 202 92 t b f;
#X obj 634 397 random 128;
#X connect 0 0 15 1;
#X connect 1 0 12 1;
#X connect 2 0 21 0;
#X connect 4 0 2 0;
#X connect 4 0 5 0;
#X connect 5 0 2 0;
#X connect 6 0 62 0;
#X connect 7 0 6 0;
#X connect 8 0 5 0;
#X connect 9 0 23 0;
#X connect 11 0 19 1;
#X connect 12 0 9 0;
#X connect 12 0 7 1;
#X connect 14 0 18 1;
#X connect 15 0 6 1;
#X connect 18 0 15 0;
#X connect 19 0 12 0;
#X connect 20 0 57 0;
#X connect 21 0 22 0;
#X connect 22 0 20 0;
#X connect 23 0 8 0;
#X connect 23 0 51 0;
#X connect 24 0 65 0;
#X connect 24 0 66 0;
#X connect 25 0 34 1;
#X connect 25 0 64 0;
#X connect 28 0 29 0;
#X connect 29 0 54 0;
#X connect 30 0 35 1;
#X connect 31 0 32 1;
#X connect 32 0 33 0;
#X connect 33 0 49 0;
#X connect 34 0 35 0;
#X connect 35 0 61 0;
#X connect 36 0 3 0;
#X connect 38 0 37 0;
#X connect 39 0 40 0;
#X connect 40 0 36 1;
#X connect 40 0 59 0;
#X connect 41 0 45 1;
#X connect 43 0 44 0;
#X connect 44 0 45 0;
#X connect 45 0 40 1;
#X connect 47 0 48 0;
#X connect 48 0 38 1;
#X connect 49 0 55 0;
#X connect 50 0 7 0;
#X connect 51 0 52 0;
#X connect 52 0 50 0;
#X connect 53 0 50 1;
#X connect 54 0 69 0;
#X connect 55 0 34 0;
#X connect 56 0 36 0;
#X connect 56 0 38 0;
#X connect 57 0 58 0;
#X connect 58 0 56 1;
#X connect 59 0 47 0;
#X connect 59 1 48 1;
#X connect 61 0 63 0;
#X connect 62 0 56 0;
#X connect 63 0 28 0;
#X connect 63 1 29 1;
#X connect 64 0 31 0;
#X connect 65 0 64 0;
#X connect 65 0 32 0;
#X connect 65 0 66 0;
#X connect 65 1 66 1;
#X connect 66 0 30 0;
#X connect 67 0 68 0;
#X connect 68 0 4 0;
#X connect 68 0 39 0;
#X connect 68 0 53 0;
#X connect 68 1 19 0;
#X connect 68 1 32 0;
#X connect 68 1 61 0;
#X connect 68 1 18 0;
#X connect 68 1 70 0;
#X connect 69 0 23 0;
#X connect 69 1 23 1;
#X connect 70 0 43 0;
#X restore -36 227 pd grainplayer;
#N canvas 1 81 1050 795 grainplayer 0;
#X obj 403 11 inlet;
#X obj 239 -124 inlet;
#X obj 59 142 line~;
#X obj 127 558 outlet~;
#X msg 48 48 0;
#X msg 65 104 1 433.821;
#X obj 14 305 +~;
#X obj 61 245 *~;
#X msg 87 64 set 1 \$1;
#X obj 125 -34 / 44.1;
#X text 282 -124 <-length;
#X obj 352 -107 inlet;
#X obj 193 -44 +;
#X text 398 -108 <-len jitter;
#X obj 472 33 inlet;
#X obj 133 230 +;
#X text 518 32 <-pos jitter;
#X text 445 11 <-pos;
#X obj 223 189 random 1;
#X obj 234 -77 random 1;
#X obj 163 338 cos~;
#X obj 163 286 -~ 0.5;
#X obj 163 310 *~ 0.5;
#X obj 105 -3 *;
#X obj 630 8 inlet;
#X obj 699 75 inlet;
#X text 672 8 <-transpose;
#X text 748 74 <-p jitter;
#X msg 446 190 1.05946;
#X obj 481 218 pow;
#X obj 544 85 * -1;
#X obj 637 131 * 128;
#X obj 630 166 random 1;
#X obj 631 190 / 128;
#X obj 613 296 *;
#X obj 509 110 +;
#X obj 127 522 *~;
#X obj 228 564 outlet~;
#X obj 228 528 *~;
#X msg 295 356 0.5;
#X obj 295 384 +;
#X obj 768 317 inlet;
#X text 817 316 <-pan jitter;
#X obj 624 423 / 128;
#X obj 623 454 - 0.5;
#X obj 624 487 *;
#X text 513 -79 play a single grain on bang;
#X msg 281 450 1;
#X obj 301 481 -;
#X obj 628 219 * 48;
#X obj 5 185 phasor~;
#X obj 48 20 / 1000;
#X obj -4 43 pow -1;
#X msg 28 152 1;
#X obj 467 243 clip 0.125 4;
#X obj 628 244 - 24;
#X obj 140 413 *~;
#X obj 163 360 *~ 8;
#X obj 161 383 clip~ 0 1;
#X obj 287 415 t b f;
#X text 76 -142 bang starts grain;
#X obj 508 132 float;
#X obj -6 358 tabread4~ \$0grainsource1;
#X obj 483 159 t b f;
#X obj 649 101 float;
#X obj 633 30 t b f;
#X obj 571 64 float;
#X obj 35 -175 inlet;
#X obj 35 -145 t b b;
#X obj 202 92 t b f;
#X obj 634 397 random 128;
#X connect 0 0 15 1;
#X connect 1 0 12 1;
#X connect 2 0 21 0;
#X connect 4 0 2 0;
#X connect 4 0 5 0;
#X connect 5 0 2 0;
#X connect 6 0 62 0;
#X connect 7 0 6 0;
#X connect 8 0 5 0;
#X connect 9 0 23 0;
#X connect 11 0 19 1;
#X connect 12 0 9 0;
#X connect 12 0 7 1;
#X connect 14 0 18 1;
#X connect 15 0 6 1;
#X connect 18 0 15 0;
#X connect 19 0 12 0;
#X connect 20 0 57 0;
#X connect 21 0 22 0;
#X connect 22 0 20 0;
#X connect 23 0 8 0;
#X connect 23 0 51 0;
#X connect 24 0 65 0;
#X connect 24 0 66 0;
#X connect 25 0 34 1;
#X connect 25 0 64 0;
#X connect 28 0 29 0;
#X connect 29 0 54 0;
#X connect 30 0 35 1;
#X connect 31 0 32 1;
#X connect 32 0 33 0;
#X connect 33 0 49 0;
#X connect 34 0 35 0;
#X connect 35 0 61 0;
#X connect 36 0 3 0;
#X connect 38 0 37 0;
#X connect 39 0 40 0;
#X connect 40 0 36 1;
#X connect 40 0 59 0;
#X connect 41 0 45 1;
#X connect 43 0 44 0;
#X connect 44 0 45 0;
#X connect 45 0 40 1;
#X connect 47 0 48 0;
#X connect 48 0 38 1;
#X connect 49 0 55 0;
#X connect 50 0 7 0;
#X connect 51 0 52 0;
#X connect 52 0 50 0;
#X connect 53 0 50 1;
#X connect 54 0 69 0;
#X connect 55 0 34 0;
#X connect 56 0 36 0;
#X connect 56 0 38 0;
#X connect 57 0 58 0;
#X connect 58 0 56 1;
#X connect 59 0 47 0;
#X connect 59 1 48 1;
#X connect 61 0 63 0;
#X connect 62 0 56 0;
#X connect 63 0 28 0;
#X connect 63 1 29 1;
#X connect 64 0 31 0;
#X connect 65 0 64 0;
#X connect 65 0 32 0;
#X connect 65 0 66 0;
#X connect 65 1 66 1;
#X connect 66 0 30 0;
#X connect 67 0 68 0;
#X connect 68 0 4 0;
#X connect 68 0 39 0;
#X connect 68 0 53 0;
#X connect 68 1 19 0;
#X connect 68 1 32 0;
#X connect 68 1 61 0;
#X connect 68 1 18 0;
#X connect 68 1 70 0;
#X connect 69 0 23 0;
#X connect 69 1 23 1;
#X connect 70 0 43 0;
#X restore 68 260 pd grainplayer;
#N canvas 1 83 1050 795 grainplayer 0;
#X obj 403 11 inlet;
#X obj 239 -124 inlet;
#X obj 59 142 line~;
#X obj 127 558 outlet~;
#X msg 48 48 0;
#X msg 65 104 1 572.529;
#X obj 14 305 +~;
#X obj 61 245 *~;
#X msg 87 64 set 1 \$1;
#X obj 125 -34 / 44.1;
#X text 282 -124 <-length;
#X obj 352 -107 inlet;
#X obj 193 -44 +;
#X text 398 -108 <-len jitter;
#X obj 472 33 inlet;
#X obj 133 230 +;
#X text 518 32 <-pos jitter;
#X text 445 11 <-pos;
#X obj 223 189 random 1;
#X obj 234 -77 random 1;
#X obj 163 338 cos~;
#X obj 163 286 -~ 0.5;
#X obj 163 310 *~ 0.5;
#X obj 105 -3 *;
#X obj 630 8 inlet;
#X obj 699 75 inlet;
#X text 672 8 <-transpose;
#X text 748 74 <-p jitter;
#X msg 446 190 1.05946;
#X obj 481 218 pow;
#X obj 544 85 * -1;
#X obj 637 131 * 128;
#X obj 630 166 random 1;
#X obj 631 190 / 128;
#X obj 613 296 *;
#X obj 509 110 +;
#X obj 127 522 *~;
#X obj 228 564 outlet~;
#X obj 228 528 *~;
#X msg 295 356 0.5;
#X obj 295 384 +;
#X obj 768 317 inlet;
#X text 817 316 <-pan jitter;
#X obj 624 423 / 128;
#X obj 623 454 - 0.5;
#X obj 624 487 *;
#X text 513 -79 play a single grain on bang;
#X msg 281 450 1;
#X obj 301 481 -;
#X obj 628 219 * 48;
#X obj 5 185 phasor~;
#X obj 48 20 / 1000;
#X obj -4 43 pow -1;
#X msg 28 152 1;
#X obj 467 243 clip 0.125 4;
#X obj 628 244 - 24;
#X obj 140 413 *~;
#X obj 163 360 *~ 8;
#X obj 161 383 clip~ 0 1;
#X obj 287 415 t b f;
#X text 76 -142 bang starts grain;
#X obj 508 132 float;
#X obj -6 358 tabread4~ \$0grainsource1;
#X obj 483 159 t b f;
#X obj 649 101 float;
#X obj 633 30 t b f;
#X obj 571 64 float;
#X obj 35 -175 inlet;
#X obj 35 -145 t b b;
#X obj 202 92 t b f;
#X obj 634 397 random 128;
#X connect 0 0 15 1;
#X connect 1 0 12 1;
#X connect 2 0 21 0;
#X connect 4 0 2 0;
#X connect 4 0 5 0;
#X connect 5 0 2 0;
#X connect 6 0 62 0;
#X connect 7 0 6 0;
#X connect 8 0 5 0;
#X connect 9 0 23 0;
#X connect 11 0 19 1;
#X connect 12 0 9 0;
#X connect 12 0 7 1;
#X connect 14 0 18 1;
#X connect 15 0 6 1;
#X connect 18 0 15 0;
#X connect 19 0 12 0;
#X connect 20 0 57 0;
#X connect 21 0 22 0;
#X connect 22 0 20 0;
#X connect 23 0 8 0;
#X connect 23 0 51 0;
#X connect 24 0 65 0;
#X connect 24 0 66 0;
#X connect 25 0 34 1;
#X connect 25 0 64 0;
#X connect 28 0 29 0;
#X connect 29 0 54 0;
#X connect 30 0 35 1;
#X connect 31 0 32 1;
#X connect 32 0 33 0;
#X connect 33 0 49 0;
#X connect 34 0 35 0;
#X connect 35 0 61 0;
#X connect 36 0 3 0;
#X connect 38 0 37 0;
#X connect 39 0 40 0;
#X connect 40 0 36 1;
#X connect 40 0 59 0;
#X connect 41 0 45 1;
#X connect 43 0 44 0;
#X connect 44 0 45 0;
#X connect 45 0 40 1;
#X connect 47 0 48 0;
#X connect 48 0 38 1;
#X connect 49 0 55 0;
#X connect 50 0 7 0;
#X connect 51 0 52 0;
#X connect 52 0 50 0;
#X connect 53 0 50 1;
#X connect 54 0 69 0;
#X connect 55 0 34 0;
#X connect 56 0 36 0;
#X connect 56 0 38 0;
#X connect 57 0 58 0;
#X connect 58 0 56 1;
#X connect 59 0 47 0;
#X connect 59 1 48 1;
#X connect 61 0 63 0;
#X connect 62 0 56 0;
#X connect 63 0 28 0;
#X connect 63 1 29 1;
#X connect 64 0 31 0;
#X connect 65 0 64 0;
#X connect 65 0 32 0;
#X connect 65 0 66 0;
#X connect 65 1 66 1;
#X connect 66 0 30 0;
#X connect 67 0 68 0;
#X connect 68 0 4 0;
#X connect 68 0 39 0;
#X connect 68 0 53 0;
#X connect 68 1 19 0;
#X connect 68 1 32 0;
#X connect 68 1 61 0;
#X connect 68 1 18 0;
#X connect 68 1 70 0;
#X connect 69 0 23 0;
#X connect 69 1 23 1;
#X connect 70 0 43 0;
#X restore 164 284 pd grainplayer;
#N canvas 1 81 1050 795 grainplayer 0;
#X obj 403 11 inlet;
#X obj 239 -124 inlet;
#X obj 59 142 line~;
#X obj 127 558 outlet~;
#X msg 48 48 0;
#X msg 65 104 1 505.635;
#X obj 14 305 +~;
#X obj 61 245 *~;
#X msg 87 64 set 1 \$1;
#X obj 125 -34 / 44.1;
#X text 282 -124 <-length;
#X obj 352 -107 inlet;
#X obj 193 -44 +;
#X text 398 -108 <-len jitter;
#X obj 472 33 inlet;
#X obj 133 230 +;
#X text 518 32 <-pos jitter;
#X text 445 11 <-pos;
#X obj 223 189 random 1;
#X obj 234 -77 random 1;
#X obj 163 338 cos~;
#X obj 163 286 -~ 0.5;
#X obj 163 310 *~ 0.5;
#X obj 105 -3 *;
#X obj 630 8 inlet;
#X obj 699 75 inlet;
#X text 672 8 <-transpose;
#X text 748 74 <-p jitter;
#X msg 446 190 1.05946;
#X obj 481 218 pow;
#X obj 544 85 * -1;
#X obj 637 131 * 128;
#X obj 630 166 random 1;
#X obj 631 190 / 128;
#X obj 613 296 *;
#X obj 509 110 +;
#X obj 127 522 *~;
#X obj 228 564 outlet~;
#X obj 228 528 *~;
#X msg 295 356 0.5;
#X obj 295 384 +;
#X obj 768 317 inlet;
#X text 817 316 <-pan jitter;
#X obj 624 423 / 128;
#X obj 623 454 - 0.5;
#X obj 624 487 *;
#X text 513 -79 play a single grain on bang;
#X msg 281 450 1;
#X obj 301 481 -;
#X obj 628 219 * 48;
#X obj 5 185 phasor~;
#X obj 48 20 / 1000;
#X obj -4 43 pow -1;
#X msg 28 152 1;
#X obj 467 243 clip 0.125 4;
#X obj 628 244 - 24;
#X obj 140 413 *~;
#X obj 163 360 *~ 8;
#X obj 161 383 clip~ 0 1;
#X obj 287 415 t b f;
#X text 76 -142 bang starts grain;
#X obj 508 132 float;
#X obj -6 358 tabread4~ \$0grainsource1;
#X obj 483 159 t b f;
#X obj 649 101 float;
#X obj 633 30 t b f;
#X obj 571 64 float;
#X obj 35 -175 inlet;
#X obj 35 -145 t b b;
#X obj 202 92 t b f;
#X obj 634 397 random 128;
#X connect 0 0 15 1;
#X connect 1 0 12 1;
#X connect 2 0 21 0;
#X connect 4 0 2 0;
#X connect 4 0 5 0;
#X connect 5 0 2 0;
#X connect 6 0 62 0;
#X connect 7 0 6 0;
#X connect 8 0 5 0;
#X connect 9 0 23 0;
#X connect 11 0 19 1;
#X connect 12 0 9 0;
#X connect 12 0 7 1;
#X connect 14 0 18 1;
#X connect 15 0 6 1;
#X connect 18 0 15 0;
#X connect 19 0 12 0;
#X connect 20 0 57 0;
#X connect 21 0 22 0;
#X connect 22 0 20 0;
#X connect 23 0 8 0;
#X connect 23 0 51 0;
#X connect 24 0 65 0;
#X connect 24 0 66 0;
#X connect 25 0 34 1;
#X connect 25 0 64 0;
#X connect 28 0 29 0;
#X connect 29 0 54 0;
#X connect 30 0 35 1;
#X connect 31 0 32 1;
#X connect 32 0 33 0;
#X connect 33 0 49 0;
#X connect 34 0 35 0;
#X connect 35 0 61 0;
#X connect 36 0 3 0;
#X connect 38 0 37 0;
#X connect 39 0 40 0;
#X connect 40 0 36 1;
#X connect 40 0 59 0;
#X connect 41 0 45 1;
#X connect 43 0 44 0;
#X connect 44 0 45 0;
#X connect 45 0 40 1;
#X connect 47 0 48 0;
#X connect 48 0 38 1;
#X connect 49 0 55 0;
#X connect 50 0 7 0;
#X connect 51 0 52 0;
#X connect 52 0 50 0;
#X connect 53 0 50 1;
#X connect 54 0 69 0;
#X connect 55 0 34 0;
#X connect 56 0 36 0;
#X connect 56 0 38 0;
#X connect 57 0 58 0;
#X connect 58 0 56 1;
#X connect 59 0 47 0;
#X connect 59 1 48 1;
#X connect 61 0 63 0;
#X connect 62 0 56 0;
#X connect 63 0 28 0;
#X connect 63 1 29 1;
#X connect 64 0 31 0;
#X connect 65 0 64 0;
#X connect 65 0 32 0;
#X connect 65 0 66 0;
#X connect 65 1 66 1;
#X connect 66 0 30 0;
#X connect 67 0 68 0;
#X connect 68 0 4 0;
#X connect 68 0 39 0;
#X connect 68 0 53 0;
#X connect 68 1 19 0;
#X connect 68 1 32 0;
#X connect 68 1 61 0;
#X connect 68 1 18 0;
#X connect 68 1 70 0;
#X connect 69 0 23 0;
#X connect 69 1 23 1;
#X connect 70 0 43 0;
#X restore 255 321 pd grainplayer;
#N canvas 1 85 1050 795 grainplayer 0;
#X obj 403 11 inlet;
#X obj 239 -124 inlet;
#X obj 59 142 line~;
#X obj 127 558 outlet~;
#X msg 48 48 0;
#X msg 65 104 1 786.225;
#X obj 14 305 +~;
#X obj 61 245 *~;
#X msg 87 64 set 1 \$1;
#X obj 125 -34 / 44.1;
#X text 282 -124 <-length;
#X obj 352 -107 inlet;
#X obj 193 -44 +;
#X text 398 -108 <-len jitter;
#X obj 472 33 inlet;
#X obj 133 230 +;
#X text 518 32 <-pos jitter;
#X text 445 11 <-pos;
#X obj 223 189 random 1;
#X obj 234 -77 random 1;
#X obj 163 338 cos~;
#X obj 163 286 -~ 0.5;
#X obj 163 310 *~ 0.5;
#X obj 105 -3 *;
#X obj 630 8 inlet;
#X obj 699 75 inlet;
#X text 672 8 <-transpose;
#X text 748 74 <-p jitter;
#X msg 446 190 1.05946;
#X obj 481 218 pow;
#X obj 544 85 * -1;
#X obj 637 131 * 128;
#X obj 630 166 random 1;
#X obj 631 190 / 128;
#X obj 613 296 *;
#X obj 509 110 +;
#X obj 127 522 *~;
#X obj 228 564 outlet~;
#X obj 228 528 *~;
#X msg 295 356 0.5;
#X obj 295 384 +;
#X obj 768 317 inlet;
#X text 817 316 <-pan jitter;
#X obj 624 423 / 128;
#X obj 623 454 - 0.5;
#X obj 624 487 *;
#X text 513 -79 play a single grain on bang;
#X msg 281 450 1;
#X obj 301 481 -;
#X obj 628 219 * 48;
#X obj 5 185 phasor~;
#X obj 48 20 / 1000;
#X obj -4 43 pow -1;
#X msg 28 152 1;
#X obj 467 243 clip 0.125 4;
#X obj 628 244 - 24;
#X obj 140 413 *~;
#X obj 163 360 *~ 8;
#X obj 161 383 clip~ 0 1;
#X obj 287 415 t b f;
#X text 76 -142 bang starts grain;
#X obj 508 132 float;
#X obj -6 358 tabread4~ \$0grainsource1;
#X obj 483 159 t b f;
#X obj 649 101 float;
#X obj 633 30 t b f;
#X obj 571 64 float;
#X obj 35 -175 inlet;
#X obj 36 -145 t b b;
#X obj 202 92 t b f;
#X obj 634 397 random 128;
#X connect 0 0 15 1;
#X connect 1 0 12 1;
#X connect 2 0 21 0;
#X connect 4 0 2 0;
#X connect 4 0 5 0;
#X connect 5 0 2 0;
#X connect 6 0 62 0;
#X connect 7 0 6 0;
#X connect 8 0 5 0;
#X connect 9 0 23 0;
#X connect 11 0 19 1;
#X connect 12 0 9 0;
#X connect 12 0 7 1;
#X connect 14 0 18 1;
#X connect 15 0 6 1;
#X connect 18 0 15 0;
#X connect 19 0 12 0;
#X connect 20 0 57 0;
#X connect 21 0 22 0;
#X connect 22 0 20 0;
#X connect 23 0 8 0;
#X connect 23 0 51 0;
#X connect 24 0 65 0;
#X connect 24 0 66 0;
#X connect 25 0 34 1;
#X connect 25 0 64 0;
#X connect 28 0 29 0;
#X connect 29 0 54 0;
#X connect 30 0 35 1;
#X connect 31 0 32 1;
#X connect 32 0 33 0;
#X connect 33 0 49 0;
#X connect 34 0 35 0;
#X connect 35 0 61 0;
#X connect 36 0 3 0;
#X connect 38 0 37 0;
#X connect 39 0 40 0;
#X connect 40 0 36 1;
#X connect 40 0 59 0;
#X connect 41 0 45 1;
#X connect 43 0 44 0;
#X connect 44 0 45 0;
#X connect 45 0 40 1;
#X connect 47 0 48 0;
#X connect 48 0 38 1;
#X connect 49 0 55 0;
#X connect 50 0 7 0;
#X connect 51 0 52 0;
#X connect 52 0 50 0;
#X connect 53 0 50 1;
#X connect 54 0 69 0;
#X connect 55 0 34 0;
#X connect 56 0 36 0;
#X connect 56 0 38 0;
#X connect 57 0 58 0;
#X connect 58 0 56 1;
#X connect 59 0 47 0;
#X connect 59 1 48 1;
#X connect 61 0 63 0;
#X connect 62 0 56 0;
#X connect 63 0 28 0;
#X connect 63 1 29 1;
#X connect 64 0 31 0;
#X connect 65 0 64 0;
#X connect 65 0 32 0;
#X connect 65 0 66 0;
#X connect 65 1 66 1;
#X connect 66 0 30 0;
#X connect 67 0 68 0;
#X connect 68 0 4 0;
#X connect 68 0 39 0;
#X connect 68 0 53 0;
#X connect 68 1 19 0;
#X connect 68 1 32 0;
#X connect 68 1 61 0;
#X connect 68 1 18 0;
#X connect 68 1 70 0;
#X connect 69 0 23 0;
#X connect 69 1 23 1;
#X connect 70 0 43 0;
#X restore 343 359 pd grainplayer;
#N canvas 1 83 1050 795 grainplayer 0;
#X obj 403 11 inlet;
#X obj 239 -124 inlet;
#X obj 59 142 line~;
#X obj 127 558 outlet~;
#X msg 48 48 0;
#X msg 65 104 1 837.563;
#X obj 14 305 +~;
#X obj 61 245 *~;
#X msg 87 64 set 1 \$1;
#X obj 125 -34 / 44.1;
#X text 282 -124 <-length;
#X obj 352 -107 inlet;
#X obj 193 -44 +;
#X text 398 -108 <-len jitter;
#X obj 472 33 inlet;
#X obj 133 230 +;
#X text 518 32 <-pos jitter;
#X text 445 11 <-pos;
#X obj 223 189 random 1;
#X obj 234 -77 random 1;
#X obj 163 338 cos~;
#X obj 163 286 -~ 0.5;
#X obj 163 310 *~ 0.5;
#X obj 105 -3 *;
#X obj 630 8 inlet;
#X obj 699 75 inlet;
#X text 672 8 <-transpose;
#X text 748 74 <-p jitter;
#X msg 446 190 1.05946;
#X obj 481 218 pow;
#X obj 544 85 * -1;
#X obj 637 131 * 128;
#X obj 630 166 random 1;
#X obj 631 190 / 128;
#X obj 613 296 *;
#X obj 509 110 +;
#X obj 127 522 *~;
#X obj 228 564 outlet~;
#X obj 228 528 *~;
#X msg 295 356 0.5;
#X obj 295 384 +;
#X obj 768 317 inlet;
#X text 817 316 <-pan jitter;
#X obj 624 423 / 128;
#X obj 623 454 - 0.5;
#X obj 624 487 *;
#X text 513 -79 play a single grain on bang;
#X msg 281 450 1;
#X obj 301 481 -;
#X obj 628 219 * 48;
#X obj 5 185 phasor~;
#X obj 48 20 / 1000;
#X obj -4 43 pow -1;
#X msg 28 152 1;
#X obj 467 243 clip 0.125 4;
#X obj 628 244 - 24;
#X obj 140 413 *~;
#X obj 163 360 *~ 8;
#X obj 161 383 clip~ 0 1;
#X obj 287 415 t b f;
#X text 76 -142 bang starts grain;
#X obj 508 132 float;
#X obj -6 358 tabread4~ \$0grainsource1;
#X obj 483 159 t b f;
#X obj 649 101 float;
#X obj 633 30 t b f;
#X obj 571 64 float;
#X obj 35 -175 inlet;
#X obj 35 -144 t b b;
#X obj 202 92 t b f;
#X obj 634 397 random 128;
#X connect 0 0 15 1;
#X connect 1 0 12 1;
#X connect 2 0 21 0;
#X connect 4 0 2 0;
#X connect 4 0 5 0;
#X connect 5 0 2 0;
#X connect 6 0 62 0;
#X connect 7 0 6 0;
#X connect 8 0 5 0;
#X connect 9 0 23 0;
#X connect 11 0 19 1;
#X connect 12 0 9 0;
#X connect 12 0 7 1;
#X connect 14 0 18 1;
#X connect 15 0 6 1;
#X connect 18 0 15 0;
#X connect 19 0 12 0;
#X connect 20 0 57 0;
#X connect 21 0 22 0;
#X connect 22 0 20 0;
#X connect 23 0 8 0;
#X connect 23 0 51 0;
#X connect 24 0 65 0;
#X connect 24 0 66 0;
#X connect 25 0 34 1;
#X connect 25 0 64 0;
#X connect 28 0 29 0;
#X connect 29 0 54 0;
#X connect 30 0 35 1;
#X connect 31 0 32 1;
#X connect 32 0 33 0;
#X connect 33 0 49 0;
#X connect 34 0 35 0;
#X connect 35 0 61 0;
#X connect 36 0 3 0;
#X connect 38 0 37 0;
#X connect 39 0 40 0;
#X connect 40 0 36 1;
#X connect 40 0 59 0;
#X connect 41 0 45 1;
#X connect 43 0 44 0;
#X connect 44 0 45 0;
#X connect 45 0 40 1;
#X connect 47 0 48 0;
#X connect 48 0 38 1;
#X connect 49 0 55 0;
#X connect 50 0 7 0;
#X connect 51 0 52 0;
#X connect 52 0 50 0;
#X connect 53 0 50 1;
#X connect 54 0 69 0;
#X connect 55 0 34 0;
#X connect 56 0 36 0;
#X connect 56 0 38 0;
#X connect 57 0 58 0;
#X connect 58 0 56 1;
#X connect 59 0 47 0;
#X connect 59 1 48 1;
#X connect 61 0 63 0;
#X connect 62 0 56 0;
#X connect 63 0 28 0;
#X connect 63 1 29 1;
#X connect 64 0 31 0;
#X connect 65 0 64 0;
#X connect 65 0 32 0;
#X connect 65 0 66 0;
#X connect 65 1 66 1;
#X connect 66 0 30 0;
#X connect 67 0 68 0;
#X connect 68 0 4 0;
#X connect 68 0 39 0;
#X connect 68 0 53 0;
#X connect 68 1 19 0;
#X connect 68 1 32 0;
#X connect 68 1 61 0;
#X connect 68 1 18 0;
#X connect 68 1 70 0;
#X connect 69 0 23 0;
#X connect 69 1 23 1;
#X connect 70 0 43 0;
#X restore 424 386 pd grainplayer;
#N canvas 1 81 1050 795 grainplayer 0;
#X obj 403 11 inlet;
#X obj 239 -124 inlet;
#X obj 59 142 line~;
#X obj 127 558 outlet~;
#X msg 48 48 0;
#X msg 65 104 1 694.252;
#X obj 14 305 +~;
#X obj 61 245 *~;
#X msg 87 64 set 1 \$1;
#X obj 125 -34 / 44.1;
#X text 282 -124 <-length;
#X obj 352 -107 inlet;
#X obj 193 -44 +;
#X text 398 -108 <-len jitter;
#X obj 472 33 inlet;
#X obj 133 230 +;
#X text 518 32 <-pos jitter;
#X text 445 11 <-pos;
#X obj 223 189 random 1;
#X obj 234 -77 random 1;
#X obj 163 338 cos~;
#X obj 163 286 -~ 0.5;
#X obj 163 310 *~ 0.5;
#X obj 105 -3 *;
#X obj 630 8 inlet;
#X obj 699 75 inlet;
#X text 672 8 <-transpose;
#X text 748 74 <-p jitter;
#X msg 446 190 1.05946;
#X obj 481 218 pow;
#X obj 544 85 * -1;
#X obj 637 131 * 128;
#X obj 630 166 random 1;
#X obj 631 190 / 128;
#X obj 613 296 *;
#X obj 509 110 +;
#X obj 127 522 *~;
#X obj 228 564 outlet~;
#X obj 228 528 *~;
#X msg 295 356 0.5;
#X obj 295 384 +;
#X obj 768 317 inlet;
#X text 817 316 <-pan jitter;
#X obj 624 423 / 128;
#X obj 623 454 - 0.5;
#X obj 624 487 *;
#X text 513 -79 play a single grain on bang;
#X msg 281 450 1;
#X obj 301 481 -;
#X obj 628 219 * 48;
#X obj 5 185 phasor~;
#X obj 48 20 / 1000;
#X obj -4 43 pow -1;
#X msg 28 152 1;
#X obj 467 243 clip 0.125 4;
#X obj 628 244 - 24;
#X obj 140 413 *~;
#X obj 163 360 *~ 8;
#X obj 161 383 clip~ 0 1;
#X obj 287 415 t b f;
#X text 76 -142 bang starts grain;
#X obj 508 132 float;
#X obj -6 358 tabread4~ \$0grainsource1;
#X obj 483 159 t b f;
#X obj 649 101 float;
#X obj 633 30 t b f;
#X obj 571 64 float;
#X obj 35 -175 inlet;
#X obj 35 -145 t b b;
#X obj 202 92 t b f;
#X obj 634 397 random 128;
#X connect 0 0 15 1;
#X connect 1 0 12 1;
#X connect 2 0 21 0;
#X connect 4 0 2 0;
#X connect 4 0 5 0;
#X connect 5 0 2 0;
#X connect 6 0 62 0;
#X connect 7 0 6 0;
#X connect 8 0 5 0;
#X connect 9 0 23 0;
#X connect 11 0 19 1;
#X connect 12 0 9 0;
#X connect 12 0 7 1;
#X connect 14 0 18 1;
#X connect 15 0 6 1;
#X connect 18 0 15 0;
#X connect 19 0 12 0;
#X connect 20 0 57 0;
#X connect 21 0 22 0;
#X connect 22 0 20 0;
#X connect 23 0 8 0;
#X connect 23 0 51 0;
#X connect 24 0 65 0;
#X connect 24 0 66 0;
#X connect 25 0 34 1;
#X connect 25 0 64 0;
#X connect 28 0 29 0;
#X connect 29 0 54 0;
#X connect 30 0 35 1;
#X connect 31 0 32 1;
#X connect 32 0 33 0;
#X connect 33 0 49 0;
#X connect 34 0 35 0;
#X connect 35 0 61 0;
#X connect 36 0 3 0;
#X connect 38 0 37 0;
#X connect 39 0 40 0;
#X connect 40 0 36 1;
#X connect 40 0 59 0;
#X connect 41 0 45 1;
#X connect 43 0 44 0;
#X connect 44 0 45 0;
#X connect 45 0 40 1;
#X connect 47 0 48 0;
#X connect 48 0 38 1;
#X connect 49 0 55 0;
#X connect 50 0 7 0;
#X connect 51 0 52 0;
#X connect 52 0 50 0;
#X connect 53 0 50 1;
#X connect 54 0 69 0;
#X connect 55 0 34 0;
#X connect 56 0 36 0;
#X connect 56 0 38 0;
#X connect 57 0 58 0;
#X connect 58 0 56 1;
#X connect 59 0 47 0;
#X connect 59 1 48 1;
#X connect 61 0 63 0;
#X connect 62 0 56 0;
#X connect 63 0 28 0;
#X connect 63 1 29 1;
#X connect 64 0 31 0;
#X connect 65 0 64 0;
#X connect 65 0 32 0;
#X connect 65 0 66 0;
#X connect 65 1 66 1;
#X connect 66 0 30 0;
#X connect 67 0 68 0;
#X connect 68 0 4 0;
#X connect 68 0 39 0;
#X connect 68 0 53 0;
#X connect 68 1 19 0;
#X connect 68 1 32 0;
#X connect 68 1 61 0;
#X connect 68 1 18 0;
#X connect 68 1 70 0;
#X connect 69 0 23 0;
#X connect 69 1 23 1;
#X connect 70 0 43 0;
#X restore 493 439 pd grainplayer;
#N canvas 1 80 1050 795 grainplayer 0;
#X obj 403 11 inlet;
#X obj 239 -124 inlet;
#X obj 59 142 line~;
#X obj 127 558 outlet~;
#X msg 48 48 0;
#X msg 65 104 1 477.2;
#X obj 14 305 +~;
#X obj 61 245 *~;
#X msg 87 64 set 1 \$1;
#X obj 125 -34 / 44.1;
#X text 282 -124 <-length;
#X obj 352 -107 inlet;
#X obj 193 -44 +;
#X text 398 -108 <-len jitter;
#X obj 472 33 inlet;
#X obj 133 230 +;
#X text 518 32 <-pos jitter;
#X text 445 11 <-pos;
#X obj 223 189 random 1;
#X obj 234 -77 random 1;
#X obj 163 338 cos~;
#X obj 163 286 -~ 0.5;
#X obj 163 310 *~ 0.5;
#X obj 105 -3 *;
#X obj 630 8 inlet;
#X obj 699 75 inlet;
#X text 672 8 <-transpose;
#X text 748 74 <-p jitter;
#X msg 446 190 1.05946;
#X obj 481 218 pow;
#X obj 544 85 * -1;
#X obj 637 131 * 128;
#X obj 630 166 random 1;
#X obj 631 190 / 128;
#X obj 613 296 *;
#X obj 509 110 +;
#X obj 127 522 *~;
#X obj 228 564 outlet~;
#X obj 228 528 *~;
#X msg 295 356 0.5;
#X obj 295 384 +;
#X obj 768 317 inlet;
#X text 817 316 <-pan jitter;
#X obj 624 423 / 128;
#X obj 623 454 - 0.5;
#X obj 624 487 *;
#X text 513 -79 play a single grain on bang;
#X msg 281 450 1;
#X obj 301 481 -;
#X obj 628 219 * 48;
#X obj 5 185 phasor~;
#X obj 48 20 / 1000;
#X obj -4 43 pow -1;
#X msg 28 152 1;
#X obj 467 243 clip 0.125 4;
#X obj 628 244 - 24;
#X obj 140 413 *~;
#X obj 163 360 *~ 8;
#X obj 161 383 clip~ 0 1;
#X obj 287 415 t b f;
#X text 76 -142 bang starts grain;
#X obj 508 132 float;
#X obj -6 358 tabread4~ \$0grainsource1;
#X obj 483 159 t b f;
#X obj 649 101 float;
#X obj 633 30 t b f;
#X obj 571 64 float;
#X obj 35 -175 inlet;
#X obj 35 -145 t b b;
#X obj 202 92 t b f;
#X obj 634 397 random 128;
#X connect 0 0 15 1;
#X connect 1 0 12 1;
#X connect 2 0 21 0;
#X connect 4 0 2 0;
#X connect 4 0 5 0;
#X connect 5 0 2 0;
#X connect 6 0 62 0;
#X connect 7 0 6 0;
#X connect 8 0 5 0;
#X connect 9 0 23 0;
#X connect 11 0 19 1;
#X connect 12 0 9 0;
#X connect 12 0 7 1;
#X connect 14 0 18 1;
#X connect 15 0 6 1;
#X connect 18 0 15 0;
#X connect 19 0 12 0;
#X connect 20 0 57 0;
#X connect 21 0 22 0;
#X connect 22 0 20 0;
#X connect 23 0 8 0;
#X connect 23 0 51 0;
#X connect 24 0 65 0;
#X connect 24 0 66 0;
#X connect 25 0 34 1;
#X connect 25 0 64 0;
#X connect 28 0 29 0;
#X connect 29 0 54 0;
#X connect 30 0 35 1;
#X connect 31 0 32 1;
#X connect 32 0 33 0;
#X connect 33 0 49 0;
#X connect 34 0 35 0;
#X connect 35 0 61 0;
#X connect 36 0 3 0;
#X connect 38 0 37 0;
#X connect 39 0 40 0;
#X connect 40 0 36 1;
#X connect 40 0 59 0;
#X connect 41 0 45 1;
#X connect 43 0 44 0;
#X connect 44 0 45 0;
#X connect 45 0 40 1;
#X connect 47 0 48 0;
#X connect 48 0 38 1;
#X connect 49 0 55 0;
#X connect 50 0 7 0;
#X connect 51 0 52 0;
#X connect 52 0 50 0;
#X connect 53 0 50 1;
#X connect 54 0 69 0;
#X connect 55 0 34 0;
#X connect 56 0 36 0;
#X connect 56 0 38 0;
#X connect 57 0 58 0;
#X connect 58 0 56 1;
#X connect 59 0 47 0;
#X connect 59 1 48 1;
#X connect 61 0 63 0;
#X connect 62 0 56 0;
#X connect 63 0 28 0;
#X connect 63 1 29 1;
#X connect 64 0 31 0;
#X connect 65 0 64 0;
#X connect 65 0 32 0;
#X connect 65 0 66 0;
#X connect 65 1 66 1;
#X connect 66 0 30 0;
#X connect 67 0 68 0;
#X connect 68 0 4 0;
#X connect 68 0 39 0;
#X connect 68 0 53 0;
#X connect 68 1 19 0;
#X connect 68 1 32 0;
#X connect 68 1 61 0;
#X connect 68 1 18 0;
#X connect 68 1 70 0;
#X connect 69 0 23 0;
#X connect 69 1 23 1;
#X connect 70 0 43 0;
#X restore 568 475 pd grainplayer;
#N canvas 1 81 1050 795 grainplayer 0;
#X obj 403 11 inlet;
#X obj 239 -124 inlet;
#X obj 59 142 line~;
#X obj 127 558 outlet~;
#X msg 48 48 0;
#X msg 65 104 1 728.22;
#X obj 14 305 +~;
#X obj 61 245 *~;
#X msg 87 64 set 1 \$1;
#X obj 125 -34 / 44.1;
#X text 282 -124 <-length;
#X obj 352 -107 inlet;
#X obj 193 -44 +;
#X text 398 -108 <-len jitter;
#X obj 472 33 inlet;
#X obj 133 230 +;
#X text 518 32 <-pos jitter;
#X text 445 11 <-pos;
#X obj 223 189 random 1;
#X obj 234 -77 random 1;
#X obj 163 338 cos~;
#X obj 163 286 -~ 0.5;
#X obj 163 310 *~ 0.5;
#X obj 105 -3 *;
#X obj 630 8 inlet;
#X obj 699 75 inlet;
#X text 672 8 <-transpose;
#X text 748 74 <-p jitter;
#X msg 446 190 1.05946;
#X obj 481 218 pow;
#X obj 544 85 * -1;
#X obj 637 131 * 128;
#X obj 630 166 random 1;
#X obj 631 190 / 128;
#X obj 613 296 *;
#X obj 509 110 +;
#X obj 127 522 *~;
#X obj 228 564 outlet~;
#X obj 228 528 *~;
#X msg 295 356 0.5;
#X obj 295 384 +;
#X obj 768 317 inlet;
#X text 817 316 <-pan jitter;
#X obj 624 423 / 128;
#X obj 623 454 - 0.5;
#X obj 624 487 *;
#X text 513 -79 play a single grain on bang;
#X msg 281 450 1;
#X obj 301 481 -;
#X obj 628 219 * 48;
#X obj 5 185 phasor~;
#X obj 48 20 / 1000;
#X obj -4 43 pow -1;
#X msg 28 152 1;
#X obj 467 243 clip 0.125 4;
#X obj 628 244 - 24;
#X obj 140 413 *~;
#X obj 163 360 *~ 8;
#X obj 161 383 clip~ 0 1;
#X obj 287 415 t b f;
#X text 76 -142 bang starts grain;
#X obj 508 132 float;
#X obj -6 358 tabread4~ \$0grainsource1;
#X obj 483 159 t b f;
#X obj 649 101 float;
#X obj 633 30 t b f;
#X obj 571 64 float;
#X obj 35 -175 inlet;
#X obj 35 -145 t b b;
#X obj 202 92 t b f;
#X obj 634 397 random 128;
#X connect 0 0 15 1;
#X connect 1 0 12 1;
#X connect 2 0 21 0;
#X connect 4 0 2 0;
#X connect 4 0 5 0;
#X connect 5 0 2 0;
#X connect 6 0 62 0;
#X connect 7 0 6 0;
#X connect 8 0 5 0;
#X connect 9 0 23 0;
#X connect 11 0 19 1;
#X connect 12 0 9 0;
#X connect 12 0 7 1;
#X connect 14 0 18 1;
#X connect 15 0 6 1;
#X connect 18 0 15 0;
#X connect 19 0 12 0;
#X connect 20 0 57 0;
#X connect 21 0 22 0;
#X connect 22 0 20 0;
#X connect 23 0 8 0;
#X connect 23 0 51 0;
#X connect 24 0 65 0;
#X connect 24 0 66 0;
#X connect 25 0 34 1;
#X connect 25 0 64 0;
#X connect 28 0 29 0;
#X connect 29 0 54 0;
#X connect 30 0 35 1;
#X connect 31 0 32 1;
#X connect 32 0 33 0;
#X connect 33 0 49 0;
#X connect 34 0 35 0;
#X connect 35 0 61 0;
#X connect 36 0 3 0;
#X connect 38 0 37 0;
#X connect 39 0 40 0;
#X connect 40 0 36 1;
#X connect 40 0 59 0;
#X connect 41 0 45 1;
#X connect 43 0 44 0;
#X connect 44 0 45 0;
#X connect 45 0 40 1;
#X connect 47 0 48 0;
#X connect 48 0 38 1;
#X connect 49 0 55 0;
#X connect 50 0 7 0;
#X connect 51 0 52 0;
#X connect 52 0 50 0;
#X connect 53 0 50 1;
#X connect 54 0 69 0;
#X connect 55 0 34 0;
#X connect 56 0 36 0;
#X connect 56 0 38 0;
#X connect 57 0 58 0;
#X connect 58 0 56 1;
#X connect 59 0 47 0;
#X connect 59 1 48 1;
#X connect 61 0 63 0;
#X connect 62 0 56 0;
#X connect 63 0 28 0;
#X connect 63 1 29 1;
#X connect 64 0 31 0;
#X connect 65 0 64 0;
#X connect 65 0 32 0;
#X connect 65 0 66 0;
#X connect 65 1 66 1;
#X connect 66 0 30 0;
#X connect 67 0 68 0;
#X connect 68 0 4 0;
#X connect 68 0 39 0;
#X connect 68 0 53 0;
#X connect 68 1 19 0;
#X connect 68 1 32 0;
#X connect 68 1 61 0;
#X connect 68 1 18 0;
#X connect 68 1 70 0;
#X connect 69 0 23 0;
#X connect 69 1 23 1;
#X connect 70 0 43 0;
#X restore 628 511 pd grainplayer;
#N canvas 1 82 1050 795 grainplayer 0;
#X obj 403 11 inlet;
#X obj 239 -124 inlet;
#X obj 59 142 line~;
#X obj 127 558 outlet~;
#X msg 48 48 0;
#X msg 65 104 1 790.896;
#X obj 14 305 +~;
#X obj 61 245 *~;
#X msg 87 64 set 1 \$1;
#X obj 125 -34 / 44.1;
#X text 282 -124 <-length;
#X obj 352 -107 inlet;
#X obj 193 -44 +;
#X text 398 -108 <-len jitter;
#X obj 472 33 inlet;
#X obj 133 230 +;
#X text 518 32 <-pos jitter;
#X text 445 11 <-pos;
#X obj 223 189 random 1;
#X obj 234 -77 random 1;
#X obj 163 338 cos~;
#X obj 163 286 -~ 0.5;
#X obj 163 310 *~ 0.5;
#X obj 105 -3 *;
#X obj 630 8 inlet;
#X obj 699 75 inlet;
#X text 672 8 <-transpose;
#X text 748 74 <-p jitter;
#X msg 446 190 1.05946;
#X obj 481 218 pow;
#X obj 544 85 * -1;
#X obj 637 131 * 128;
#X obj 630 166 random 1;
#X obj 631 190 / 128;
#X obj 613 296 *;
#X obj 509 110 +;
#X obj 127 522 *~;
#X obj 228 564 outlet~;
#X obj 228 528 *~;
#X msg 295 356 0.5;
#X obj 295 384 +;
#X obj 768 317 inlet;
#X text 817 316 <-pan jitter;
#X obj 624 423 / 128;
#X obj 623 454 - 0.5;
#X obj 624 487 *;
#X text 513 -79 play a single grain on bang;
#X msg 281 450 1;
#X obj 301 481 -;
#X obj 628 219 * 48;
#X obj 5 185 phasor~;
#X obj 48 20 / 1000;
#X obj -4 43 pow -1;
#X msg 28 152 1;
#X obj 467 243 clip 0.125 4;
#X obj 628 244 - 24;
#X obj 140 413 *~;
#X obj 163 360 *~ 8;
#X obj 161 383 clip~ 0 1;
#X obj 287 415 t b f;
#X text 76 -142 bang starts grain;
#X obj 508 132 float;
#X obj -6 358 tabread4~ \$0grainsource1;
#X obj 483 159 t b f;
#X obj 649 101 float;
#X obj 633 30 t b f;
#X obj 571 64 float;
#X obj 35 -175 inlet;
#X obj 35 -145 t b b;
#X obj 202 92 t b f;
#X obj 634 397 random 128;
#X connect 0 0 15 1;
#X connect 1 0 12 1;
#X connect 2 0 21 0;
#X connect 4 0 2 0;
#X connect 4 0 5 0;
#X connect 5 0 2 0;
#X connect 6 0 62 0;
#X connect 7 0 6 0;
#X connect 8 0 5 0;
#X connect 9 0 23 0;
#X connect 11 0 19 1;
#X connect 12 0 9 0;
#X connect 12 0 7 1;
#X connect 14 0 18 1;
#X connect 15 0 6 1;
#X connect 18 0 15 0;
#X connect 19 0 12 0;
#X connect 20 0 57 0;
#X connect 21 0 22 0;
#X connect 22 0 20 0;
#X connect 23 0 8 0;
#X connect 23 0 51 0;
#X connect 24 0 65 0;
#X connect 24 0 66 0;
#X connect 25 0 34 1;
#X connect 25 0 64 0;
#X connect 28 0 29 0;
#X connect 29 0 54 0;
#X connect 30 0 35 1;
#X connect 31 0 32 1;
#X connect 32 0 33 0;
#X connect 33 0 49 0;
#X connect 34 0 35 0;
#X connect 35 0 61 0;
#X connect 36 0 3 0;
#X connect 38 0 37 0;
#X connect 39 0 40 0;
#X connect 40 0 36 1;
#X connect 40 0 59 0;
#X connect 41 0 45 1;
#X connect 43 0 44 0;
#X connect 44 0 45 0;
#X connect 45 0 40 1;
#X connect 47 0 48 0;
#X connect 48 0 38 1;
#X connect 49 0 55 0;
#X connect 50 0 7 0;
#X connect 51 0 52 0;
#X connect 52 0 50 0;
#X connect 53 0 50 1;
#X connect 54 0 69 0;
#X connect 55 0 34 0;
#X connect 56 0 36 0;
#X connect 56 0 38 0;
#X connect 57 0 58 0;
#X connect 58 0 56 1;
#X connect 59 0 47 0;
#X connect 59 1 48 1;
#X connect 61 0 63 0;
#X connect 62 0 56 0;
#X connect 63 0 28 0;
#X connect 63 1 29 1;
#X connect 64 0 31 0;
#X connect 65 0 64 0;
#X connect 65 0 32 0;
#X connect 65 0 66 0;
#X connect 65 1 66 1;
#X connect 66 0 30 0;
#X connect 67 0 68 0;
#X connect 68 0 4 0;
#X connect 68 0 39 0;
#X connect 68 0 53 0;
#X connect 68 1 19 0;
#X connect 68 1 32 0;
#X connect 68 1 61 0;
#X connect 68 1 18 0;
#X connect 68 1 70 0;
#X connect 69 0 23 0;
#X connect 69 1 23 1;
#X connect 70 0 43 0;
#X restore 683 546 pd grainplayer;
#X obj -129 43 int;
#X text -98 -2 bang;
#X obj 220 765 outlet~;
#X obj 603 777 outlet~;
#X obj 220 737 *~ 1;
#X obj 602 751 *~ 1;
#X obj -95 47 mod 12;
#X text 209 13 12 grains at the same time should be enough for everyone
\, at least for this kind of slow and mushy graincloud-sounds;
#X text 582 9 \; -);
#X obj 707 328 loadbang;
#X obj 707 354 \$0;
#X obj 707 386 outlet;
#X obj 831 151 table \$0grainsource1;
#X connect 0 0 29 0;
#X connect 1 0 18 3;
#X connect 1 0 19 3;
#X connect 1 0 20 3;
#X connect 1 0 21 3;
#X connect 1 0 22 3;
#X connect 1 0 23 3;
#X connect 1 0 24 3;
#X connect 1 0 25 3;
#X connect 1 0 26 3;
#X connect 1 0 27 3;
#X connect 1 0 28 3;
#X connect 1 0 17 3;
#X connect 2 0 18 1;
#X connect 2 0 19 1;
#X connect 2 0 20 1;
#X connect 2 0 21 1;
#X connect 2 0 22 1;
#X connect 2 0 23 1;
#X connect 2 0 24 1;
#X connect 2 0 25 1;
#X connect 2 0 26 1;
#X connect 2 0 27 1;
#X connect 2 0 28 1;
#X connect 2 0 17 1;
#X connect 4 0 18 2;
#X connect 4 0 19 2;
#X connect 4 0 20 2;
#X connect 4 0 21 2;
#X connect 4 0 22 2;
#X connect 4 0 23 2;
#X connect 4 0 24 2;
#X connect 4 0 25 2;
#X connect 4 0 26 2;
#X connect 4 0 27 2;
#X connect 4 0 28 2;
#X connect 4 0 17 2;
#X connect 6 0 18 4;
#X connect 6 0 19 4;
#X connect 6 0 20 4;
#X connect 6 0 21 4;
#X connect 6 0 22 4;
#X connect 6 0 23 4;
#X connect 6 0 24 4;
#X connect 6 0 25 4;
#X connect 6 0 26 4;
#X connect 6 0 27 4;
#X connect 6 0 28 4;
#X connect 6 0 17 4;
#X connect 9 0 35 0;
#X connect 10 0 18 5;
#X connect 10 0 19 5;
#X connect 10 0 20 5;
#X connect 10 0 21 5;
#X connect 10 0 22 5;
#X connect 10 0 23 5;
#X connect 10 0 24 5;
#X connect 10 0 25 5;
#X connect 10 0 26 5;
#X connect 10 0 27 5;
#X connect 10 0 28 5;
#X connect 10 0 17 5;
#X connect 11 0 18 6;
#X connect 11 0 19 6;
#X connect 11 0 20 6;
#X connect 11 0 21 6;
#X connect 11 0 22 6;
#X connect 11 0 23 6;
#X connect 11 0 24 6;
#X connect 11 0 25 6;
#X connect 11 0 26 6;
#X connect 11 0 27 6;
#X connect 11 0 28 6;
#X connect 11 0 17 6;
#X connect 14 0 18 7;
#X connect 14 0 19 7;
#X connect 14 0 20 7;
#X connect 14 0 21 7;
#X connect 14 0 22 7;
#X connect 14 0 23 7;
#X connect 14 0 24 7;
#X connect 14 0 25 7;
#X connect 14 0 26 7;
#X connect 14 0 27 7;
#X connect 14 0 28 7;
#X connect 14 0 17 7;
#X connect 16 0 18 0;
#X connect 16 1 19 0;
#X connect 16 2 20 0;
#X connect 16 3 21 0;
#X connect 16 4 22 0;
#X connect 16 5 23 0;
#X connect 16 6 24 0;
#X connect 16 7 25 0;
#X connect 16 8 26 0;
#X connect 16 9 27 0;
#X connect 16 10 28 0;
#X connect 16 11 17 0;
#X connect 17 0 33 0;
#X connect 17 1 34 0;
#X connect 18 0 33 0;
#X connect 18 1 34 0;
#X connect 19 0 33 0;
#X connect 19 1 34 0;
#X connect 20 0 33 0;
#X connect 20 1 34 0;
#X connect 21 0 33 0;
#X connect 21 1 34 0;
#X connect 22 0 33 0;
#X connect 22 1 34 0;
#X connect 23 0 33 0;
#X connect 23 1 34 0;
#X connect 24 0 33 0;
#X connect 24 1 34 0;
#X connect 25 0 33 0;
#X connect 25 1 34 0;
#X connect 26 0 33 0;
#X connect 26 1 34 0;
#X connect 27 0 33 0;
#X connect 27 1 34 0;
#X connect 28 0 33 0;
#X connect 28 1 34 0;
#X connect 29 0 9 0;
#X connect 33 0 31 0;
#X connect 34 0 32 0;
#X connect 35 0 16 0;
#X connect 35 0 29 1;
#X connect 38 0 39 0;
#X connect 39 0 40 0;
