#N canvas 296 196 1140 882 10;
#X obj -15 -52 inlet;
#X obj 115 38 inlet;
#X obj 198 42 inlet;
#X obj 400 38 inlet;
#X obj 454 214 samplerate~;
#X obj -150 97 \$0;
#X obj -153 42 loadbang;
#X msg -152 62 bang;
#X obj 494 -7 inlet;
#X text -17 -71 trigger;
#X text 105 20 start (0..1);
#X text 202 16 len(0..1);
#X obj 595 109 table \$0sampleloop;
#X obj 539 569 outlet;
#X obj 139 564 wrap~;
#X obj 153 533 +~;
#X obj -307 762 outlet~;
#X obj 139 589 *~;
#X obj 164 428 vline~;
#X msg 92 372 0;
#X text 50 477 playback ramp;
#X obj 250 326 /;
#X obj 243 355 * 1000;
#X obj 223 375 *;
#X obj 253 212 *;
#X obj 119 365 float;
#X text 537 586 looplen(ms);
#X obj 67 249 t b b b;
#X obj 686 328 outlet;
#X text 690 345 loaded;
#X text 491 -25 samplesize;
#X obj -4 356 outlet;
#X msg -134 173 symbol \$1sampleloop;
#X text -8 373 tablename;
#X obj 26 666 tabread4~ \$0sampleloop;
#X obj 492 24 t b f b;
#X obj 596 139 table \$0sampleloopr;
#X obj -165 764 outlet~;
#X obj 208 662 tabread4~ \$0sampleloopr;
#X text 74 -64 abs for simple stereo samplelooper;
#X text 364 18 pitch (factor);
#X obj 193 514 *~;
#X msg 172 369 1;
#X obj 175 402 pack f f;
#X obj 151 491 wrap~;
#X obj 117 454 +~;
#X obj 284 42 inlet;
#X text 288 16 shift(0..1);
#X text 196 488 shift;
#X text 182 568 wrap around sample end;
#X connect 0 0 27 0;
#X connect 1 0 25 1;
#X connect 2 0 23 0;
#X connect 2 0 24 0;
#X connect 3 0 24 1;
#X connect 4 0 21 1;
#X connect 5 0 32 0;
#X connect 6 0 7 0;
#X connect 7 0 5 0;
#X connect 8 0 35 0;
#X connect 14 0 17 0;
#X connect 15 0 14 0;
#X connect 17 0 34 0;
#X connect 17 0 38 0;
#X connect 18 0 45 0;
#X connect 19 0 18 0;
#X connect 21 0 22 0;
#X connect 22 0 23 1;
#X connect 23 0 13 0;
#X connect 23 0 43 1;
#X connect 24 0 41 1;
#X connect 25 0 15 1;
#X connect 27 0 42 0;
#X connect 27 1 19 0;
#X connect 27 2 25 0;
#X connect 27 2 23 0;
#X connect 32 0 31 0;
#X connect 34 0 16 0;
#X connect 35 0 28 0;
#X connect 35 1 21 0;
#X connect 35 1 17 1;
#X connect 35 2 4 0;
#X connect 38 0 37 0;
#X connect 41 0 15 0;
#X connect 42 0 43 0;
#X connect 43 0 18 0;
#X connect 44 0 41 0;
#X connect 45 0 44 0;
#X connect 46 0 45 1;
