#N canvas 196 170 1304 857 10;
#X obj 871 428 outlet~;
#X obj 966 428 outlet~;
#X obj 152 190 inlet~;
#X obj 270 359 +~;
#X obj 575 627 *~;
#X obj 525 231 *~;
#X obj 511 288 *~;
#X obj 568 287 *~;
#X obj 531 263 + 1;
#X obj 570 264 * -1;
#X obj 711 467 +~;
#X obj 660 217 *~;
#X obj 646 274 *~;
#X obj 703 273 *~;
#X obj 662 248 + 1;
#X obj 704 251 * -1;
#X obj 809 211 *~;
#X obj 795 268 *~;
#X obj 852 267 *~;
#X obj 811 246 + 1;
#X obj 852 238 * -1;
#X obj 949 210 *~;
#X obj 935 267 *~;
#X obj 992 266 *~;
#X obj 951 245 + 1;
#X obj 990 243 * -1;
#X obj 710 497 lop~ 1600;
#X obj 183 449 delwrite~ \$0bmtdl1 2000;
#X obj 180 495 delwrite~ \$0bmtdl2 2000;
#X obj 180 530 delwrite~ \$0bmtdl3 2000;
#X obj 182 565 delwrite~ \$0bmtdl4 2000;
#X obj 526 384 delread~ \$0bmtdl1;
#X obj 518 428 delread~ \$0bmtdl2;
#X obj 520 465 delread~ \$0bmtdl3;
#X obj 521 510 delread~ \$0bmtdl4;
#X obj 267 62 inlet;
#X obj 315 63 inlet;
#X obj 363 64 inlet;
#X text 270 43 time;
#X text 315 47 level;
#X text 367 43 pan;
#X obj 449 64 inlet;
#X obj 497 65 inlet;
#X obj 545 66 inlet;
#X text 452 45 time;
#X text 497 49 level;
#X text 549 45 pan;
#X obj 609 65 inlet;
#X obj 657 66 inlet;
#X obj 705 67 inlet;
#X text 612 46 time;
#X text 657 50 level;
#X text 709 46 pan;
#X obj 759 67 inlet;
#X obj 807 68 inlet;
#X obj 855 69 inlet;
#X text 762 48 time;
#X text 807 52 level;
#X text 859 48 pan;
#X obj 1129 380 inlet;
#X text 1121 361 fb;
#X obj 519 182 *;
#X obj 515 148 t f f;
#X obj 658 187 *;
#X obj 654 153 t f f;
#X obj 805 183 *;
#X obj 801 149 t f f;
#X obj 946 185 *;
#X obj 942 151 t f f;
#X text 82 43 four tap delay abs;
#X connect 2 0 3 0;
#X connect 3 0 27 0;
#X connect 4 0 3 1;
#X connect 5 0 6 0;
#X connect 5 0 7 1;
#X connect 6 0 10 0;
#X connect 6 0 0 0;
#X connect 7 0 10 1;
#X connect 7 0 1 0;
#X connect 8 0 6 1;
#X connect 9 0 7 0;
#X connect 10 0 26 0;
#X connect 11 0 12 0;
#X connect 11 0 13 1;
#X connect 12 0 10 0;
#X connect 12 0 0 0;
#X connect 13 0 10 1;
#X connect 13 0 1 0;
#X connect 14 0 12 1;
#X connect 15 0 13 0;
#X connect 16 0 17 0;
#X connect 16 0 18 1;
#X connect 17 0 10 0;
#X connect 17 0 0 0;
#X connect 18 0 10 1;
#X connect 18 0 1 0;
#X connect 19 0 17 1;
#X connect 20 0 18 0;
#X connect 21 0 22 0;
#X connect 21 0 23 1;
#X connect 22 0 10 0;
#X connect 22 0 0 0;
#X connect 23 0 10 1;
#X connect 23 0 1 0;
#X connect 24 0 22 1;
#X connect 25 0 23 0;
#X connect 26 0 4 0;
#X connect 31 0 5 1;
#X connect 31 0 28 0;
#X connect 32 0 11 1;
#X connect 32 0 29 0;
#X connect 33 0 16 1;
#X connect 33 0 30 0;
#X connect 34 0 21 1;
#X connect 35 0 31 0;
#X connect 36 0 62 0;
#X connect 37 0 8 0;
#X connect 37 0 9 0;
#X connect 41 0 32 0;
#X connect 42 0 64 0;
#X connect 43 0 14 0;
#X connect 43 0 15 0;
#X connect 47 0 33 0;
#X connect 48 0 66 0;
#X connect 49 0 19 0;
#X connect 49 0 20 0;
#X connect 53 0 34 0;
#X connect 54 0 68 0;
#X connect 55 0 24 0;
#X connect 55 0 25 0;
#X connect 59 0 4 1;
#X connect 61 0 5 0;
#X connect 62 0 61 0;
#X connect 62 1 61 1;
#X connect 63 0 11 0;
#X connect 64 0 63 0;
#X connect 64 1 63 1;
#X connect 65 0 16 0;
#X connect 66 0 65 0;
#X connect 66 1 65 1;
#X connect 67 0 21 0;
#X connect 68 0 67 0;
#X connect 68 1 67 1;
