#N canvas 207 89 1288 967 10;
#X obj -14 55 inlet~;
#X obj 793 647 outlet~;
#X obj 2 212 +~;
#X obj 60 151 *~;
#X obj 223 68 inlet;
#X obj 789 608 delread~ \$0bdl1;
#X obj 26 292 delwrite~ \$0bdl1 4000;
#X obj 83 55 inlet;
#X text 232 44 feedback 0..1;
#X text 86 36 time (ms);
#X obj 337 73 inlet;
#X text 340 53 freq;
#X obj 122 202 vcf~ 1;
#X obj 96 170 hip~ 100;
#X text 34 12 delayline (delread/write) with feedback and filter \,
max 4 sec.;
#X obj 303 541 *~;
#X obj 426 478 line~;
#X obj 426 452 pack 0 200;
#X obj 240 326 exp;
#X obj 240 442 /;
#X obj 367 372 * 0.001;
#X obj 535 548 line~;
#X obj 535 523 pack 0 200;
#X obj 303 567 +~;
#X obj 240 593 cos~;
#X obj 240 620 *~;
#X obj 317 662 +~;
#X obj 327 500 wrap~;
#X obj 472 543 *~;
#X obj 472 576 +~;
#X obj 427 607 cos~;
#X obj 427 634 *~;
#X obj 367 399 t b f;
#X floatatom 240 468 6 0 0 0 - - -;
#X obj 327 473 +~ 0.5;
#X obj 240 541 -~ 0.5;
#X obj 240 567 *~ 0.5;
#X obj 409 542 -~ 0.5;
#X obj 409 575 *~ 0.5;
#X obj 240 379 - 1;
#X obj 240 300 * 0.05776;
#X obj 240 405 * -1;
#X text 303 346 speed;
#X text 302 360 change;
#X text 275 435 tape head;
#X obj 240 499 phasor~;
#X obj 535 499 max 1.5;
#X obj 447 345 max 1;
#X text 276 448 rotation freq;
#X msg 549 463 0;
#X text 494 338 <--window (msec);
#X text 439 279 PITCH SHIFTER from pd doc;
#X text 250 271 transpose;
#X obj 821 572 delwrite~ \$0psh1m-del 5000;
#X obj 294 601 vd~ \$0psh1m-del;
#X obj 485 606 vd~ \$0psh1m-del;
#X obj 438 115 inlet;
#X text 445 97 tp;
#X obj 536 122 inlet;
#X text 539 104 windowsize (ms);
#X connect 0 0 2 0;
#X connect 2 0 6 0;
#X connect 3 0 2 1;
#X connect 4 0 3 1;
#X connect 5 0 53 0;
#X connect 5 0 1 0;
#X connect 7 0 5 0;
#X connect 10 0 12 1;
#X connect 12 0 13 0;
#X connect 13 0 3 0;
#X connect 15 0 23 0;
#X connect 16 0 15 1;
#X connect 16 0 28 1;
#X connect 17 0 16 0;
#X connect 18 0 39 0;
#X connect 19 0 33 0;
#X connect 20 0 32 0;
#X connect 21 0 23 1;
#X connect 21 0 29 1;
#X connect 22 0 21 0;
#X connect 23 0 54 0;
#X connect 24 0 25 0;
#X connect 25 0 26 0;
#X connect 26 0 12 0;
#X connect 27 0 28 0;
#X connect 27 0 37 0;
#X connect 28 0 29 0;
#X connect 29 0 55 0;
#X connect 30 0 31 0;
#X connect 31 0 26 1;
#X connect 32 0 19 0;
#X connect 32 1 19 1;
#X connect 33 0 45 0;
#X connect 34 0 27 0;
#X connect 35 0 36 0;
#X connect 36 0 24 0;
#X connect 37 0 38 0;
#X connect 38 0 30 0;
#X connect 39 0 41 0;
#X connect 40 0 18 0;
#X connect 41 0 19 0;
#X connect 45 0 15 0;
#X connect 45 0 35 0;
#X connect 45 0 34 0;
#X connect 46 0 22 0;
#X connect 47 0 20 0;
#X connect 47 0 17 0;
#X connect 49 0 46 0;
#X connect 54 0 25 1;
#X connect 55 0 31 1;
#X connect 56 0 40 0;
#X connect 58 0 47 0;
#X connect 58 0 49 0;
