#N canvas 722 247 1089 787 10;
#X obj -36 844 outlet~;
#X obj 12 376 dbtorms;
#X obj -44 451 dbtorms;
#X obj -188 371 pack 0 0 0;
#X obj -132 343 / 128;
#N canvas 2 83 999 890 samplevoice 0;
#X obj 33 979 outlet~;
#X obj 147 734 line~;
#X msg -46 712 0;
#X obj 116 585 pack;
#X obj 181 545 / 44.1;
#X msg 133 641 0 0;
#X msg 126 610 set \$1 \$2;
#X obj 159 570 *;
#X obj 171 482 t b f b;
#X msg 251 421 1.05946;
#X obj 257 450 pow;
#X obj 264 357 * -1;
#X obj 39 899 *~;
#X obj 13 771 line~;
#X msg -22 667 -0.625 0;
#X obj -28 863 *~;
#X obj -111 365 moses 0.001;
#X obj -113 782 line~;
#X obj -162 686 pack;
#X msg -131 751 0.625 0;
#X msg -131 719 set \$1 \$2;
#X obj -69 460 t b b f;
#X obj -24 567 * -1;
#X msg -7 635 set \$1 \$2;
#X obj -4 606 pack;
#X obj -25 813 +~;
#X text -130 805 attack;
#X text 17 793 release;
#X obj 269 283 +;
#X obj -216 93 inlet;
#X obj 286 311 clip -127 127;
#X obj 235 253 float;
#X obj 265 385 t b f;
#X msg 100 651 0;
#X obj 47 566 t b b;
#X text 218 221 pitch;
#X text -108 333 gate;
#X obj 298 215 t b f;
#X msg 275 92 60;
#X obj 281 62 t b f;
#X obj 295 134 +;
#X obj 300 185 * -1;
#X obj 273 29 * -1;
#X obj -56 301 inlet;
#X text -61 280 attack;
#X obj 8 327 inlet;
#X text 7 308 decay;
#X obj 102 292 inlet;
#X text 106 273 size;
#X text 282 3 tp;
#X obj 251 -15 inlet;
#X obj 101 516 int;
#X obj -206 125 unpack f f;
#X obj 47 543 pipe 1;
#X obj 145 765 tabread4~ \$0simsam1;
#X connect 1 0 54 0;
#X connect 2 0 17 0;
#X connect 2 0 13 0;
#X connect 3 0 6 0;
#X connect 4 0 7 1;
#X connect 5 0 1 0;
#X connect 6 0 5 0;
#X connect 7 0 3 1;
#X connect 8 0 3 0;
#X connect 8 1 7 0;
#X connect 8 2 51 0;
#X connect 9 0 10 0;
#X connect 10 0 8 0;
#X connect 11 0 32 0;
#X connect 12 0 0 0;
#X connect 13 0 25 1;
#X connect 14 0 13 0;
#X connect 15 0 12 0;
#X connect 16 0 14 0;
#X connect 16 1 21 0;
#X connect 16 1 53 0;
#X connect 17 0 25 0;
#X connect 18 0 20 0;
#X connect 19 0 17 0;
#X connect 20 0 19 0;
#X connect 21 0 19 0;
#X connect 21 1 2 0;
#X connect 21 2 18 0;
#X connect 21 2 22 0;
#X connect 22 0 24 0;
#X connect 23 0 14 0;
#X connect 24 0 23 0;
#X connect 25 0 15 0;
#X connect 25 0 15 1;
#X connect 28 0 30 0;
#X connect 29 0 52 0;
#X connect 30 0 11 0;
#X connect 31 0 28 0;
#X connect 32 0 9 0;
#X connect 32 1 10 1;
#X connect 33 0 1 0;
#X connect 34 0 5 0;
#X connect 34 1 33 0;
#X connect 37 0 31 0;
#X connect 37 1 28 1;
#X connect 38 0 40 0;
#X connect 39 0 38 0;
#X connect 39 1 40 1;
#X connect 40 0 41 0;
#X connect 41 0 37 0;
#X connect 42 0 39 0;
#X connect 43 0 18 1;
#X connect 45 0 24 1;
#X connect 47 0 51 1;
#X connect 50 0 42 0;
#X connect 51 0 4 0;
#X connect 51 0 3 0;
#X connect 52 0 31 0;
#X connect 52 1 16 0;
#X connect 53 0 34 0;
#X connect 54 0 12 1;
#X restore -12 626 pd samplevoice;
#X obj -180 402 route 1 2 3 4 5 6;
#N canvas 0 0 999 890 samplevoice 0;
#X obj 33 979 outlet~;
#X obj 147 734 line~;
#X msg -46 712 0;
#X obj 116 585 pack;
#X obj 181 545 / 44.1;
#X msg 133 641 0 0;
#X msg 126 610 set \$1 \$2;
#X obj 159 570 *;
#X obj 171 482 t b f b;
#X msg 251 421 1.05946;
#X obj 257 450 pow;
#X obj 264 357 * -1;
#X obj 39 899 *~;
#X obj 13 771 line~;
#X msg -22 667 -0.648438 0;
#X obj -28 863 *~;
#X obj -111 365 moses 0.001;
#X obj -113 782 line~;
#X obj -162 686 pack;
#X msg -131 751 0.648438 0;
#X msg -131 719 set \$1 \$2;
#X obj -69 460 t b b f;
#X obj -24 567 * -1;
#X msg -7 635 set \$1 \$2;
#X obj -4 606 pack;
#X obj -25 813 +~;
#X text -130 805 attack;
#X text 17 793 release;
#X obj 269 283 +;
#X obj -216 93 inlet;
#X obj 286 311 clip -127 127;
#X obj 235 253 float;
#X obj 265 385 t b f;
#X msg 100 651 0;
#X obj 47 566 t b b;
#X text 218 221 pitch;
#X text -108 333 gate;
#X obj 298 215 t b f;
#X msg 275 92 60;
#X obj 281 62 t b f;
#X obj 295 134 +;
#X obj 300 185 * -1;
#X obj 273 29 * -1;
#X obj -56 301 inlet;
#X text -61 280 attack;
#X obj 8 327 inlet;
#X text 7 308 decay;
#X obj 102 292 inlet;
#X text 106 273 size;
#X text 282 3 tp;
#X obj 251 -15 inlet;
#X obj 101 516 int;
#X obj -206 125 unpack f f;
#X obj 47 543 pipe 1;
#X obj 145 765 tabread4~ \$0simsam1;
#X connect 1 0 54 0;
#X connect 2 0 17 0;
#X connect 2 0 13 0;
#X connect 3 0 6 0;
#X connect 4 0 7 1;
#X connect 5 0 1 0;
#X connect 6 0 5 0;
#X connect 7 0 3 1;
#X connect 8 0 3 0;
#X connect 8 1 7 0;
#X connect 8 2 51 0;
#X connect 9 0 10 0;
#X connect 10 0 8 0;
#X connect 11 0 32 0;
#X connect 12 0 0 0;
#X connect 13 0 25 1;
#X connect 14 0 13 0;
#X connect 15 0 12 0;
#X connect 16 0 14 0;
#X connect 16 1 21 0;
#X connect 16 1 53 0;
#X connect 17 0 25 0;
#X connect 18 0 20 0;
#X connect 19 0 17 0;
#X connect 20 0 19 0;
#X connect 21 0 19 0;
#X connect 21 1 2 0;
#X connect 21 2 18 0;
#X connect 21 2 22 0;
#X connect 22 0 24 0;
#X connect 23 0 14 0;
#X connect 24 0 23 0;
#X connect 25 0 15 0;
#X connect 25 0 15 1;
#X connect 28 0 30 0;
#X connect 29 0 52 0;
#X connect 30 0 11 0;
#X connect 31 0 28 0;
#X connect 32 0 9 0;
#X connect 32 1 10 1;
#X connect 33 0 1 0;
#X connect 34 0 5 0;
#X connect 34 1 33 0;
#X connect 37 0 31 0;
#X connect 37 1 28 1;
#X connect 38 0 40 0;
#X connect 39 0 38 0;
#X connect 39 1 40 1;
#X connect 40 0 41 0;
#X connect 41 0 37 0;
#X connect 42 0 39 0;
#X connect 43 0 18 1;
#X connect 45 0 24 1;
#X connect 47 0 51 1;
#X connect 50 0 42 0;
#X connect 51 0 4 0;
#X connect 51 0 3 0;
#X connect 52 0 31 0;
#X connect 52 1 16 0;
#X connect 53 0 34 0;
#X connect 54 0 12 1;
#X restore -5 665 pd samplevoice;
#N canvas 0 0 999 890 samplevoice 0;
#X obj 33 979 outlet~;
#X obj 147 734 line~;
#X msg -46 712 0;
#X obj 116 585 pack;
#X obj 181 545 / 44.1;
#X msg 133 641 0 0;
#X msg 126 610 set \$1 \$2;
#X obj 159 570 *;
#X obj 171 482 t b f b;
#X msg 251 421 1.05946;
#X obj 257 450 pow;
#X obj 264 357 * -1;
#X obj 39 899 *~;
#X obj 13 771 line~;
#X msg -22 667 -0.734375 0;
#X obj -28 863 *~;
#X obj -111 365 moses 0.001;
#X obj -113 782 line~;
#X obj -162 686 pack;
#X msg -131 751 0.734375 0;
#X msg -131 719 set \$1 \$2;
#X obj -69 460 t b b f;
#X obj -24 567 * -1;
#X msg -7 635 set \$1 \$2;
#X obj -4 606 pack;
#X obj -25 813 +~;
#X text -130 805 attack;
#X text 17 793 release;
#X obj 269 283 +;
#X obj -216 93 inlet;
#X obj 286 311 clip -127 127;
#X obj 235 253 float;
#X obj 265 385 t b f;
#X msg 100 651 0;
#X obj 47 566 t b b;
#X text 218 221 pitch;
#X text -108 333 gate;
#X obj 298 215 t b f;
#X msg 275 92 60;
#X obj 281 62 t b f;
#X obj 295 134 +;
#X obj 300 185 * -1;
#X obj 273 29 * -1;
#X obj -56 301 inlet;
#X text -61 280 attack;
#X obj 8 327 inlet;
#X text 7 308 decay;
#X obj 102 292 inlet;
#X text 106 273 size;
#X text 282 3 tp;
#X obj 251 -15 inlet;
#X obj 101 516 int;
#X obj -206 125 unpack f f;
#X obj 47 543 pipe 1;
#X obj 145 765 tabread4~ \$0simsam1;
#X connect 1 0 54 0;
#X connect 2 0 17 0;
#X connect 2 0 13 0;
#X connect 3 0 6 0;
#X connect 4 0 7 1;
#X connect 5 0 1 0;
#X connect 6 0 5 0;
#X connect 7 0 3 1;
#X connect 8 0 3 0;
#X connect 8 1 7 0;
#X connect 8 2 51 0;
#X connect 9 0 10 0;
#X connect 10 0 8 0;
#X connect 11 0 32 0;
#X connect 12 0 0 0;
#X connect 13 0 25 1;
#X connect 14 0 13 0;
#X connect 15 0 12 0;
#X connect 16 0 14 0;
#X connect 16 1 21 0;
#X connect 16 1 53 0;
#X connect 17 0 25 0;
#X connect 18 0 20 0;
#X connect 19 0 17 0;
#X connect 20 0 19 0;
#X connect 21 0 19 0;
#X connect 21 1 2 0;
#X connect 21 2 18 0;
#X connect 21 2 22 0;
#X connect 22 0 24 0;
#X connect 23 0 14 0;
#X connect 24 0 23 0;
#X connect 25 0 15 0;
#X connect 25 0 15 1;
#X connect 28 0 30 0;
#X connect 29 0 52 0;
#X connect 30 0 11 0;
#X connect 31 0 28 0;
#X connect 32 0 9 0;
#X connect 32 1 10 1;
#X connect 33 0 1 0;
#X connect 34 0 5 0;
#X connect 34 1 33 0;
#X connect 37 0 31 0;
#X connect 37 1 28 1;
#X connect 38 0 40 0;
#X connect 39 0 38 0;
#X connect 39 1 40 1;
#X connect 40 0 41 0;
#X connect 41 0 37 0;
#X connect 42 0 39 0;
#X connect 43 0 18 1;
#X connect 45 0 24 1;
#X connect 47 0 51 1;
#X connect 50 0 42 0;
#X connect 51 0 4 0;
#X connect 51 0 3 0;
#X connect 52 0 31 0;
#X connect 52 1 16 0;
#X connect 53 0 34 0;
#X connect 54 0 12 1;
#X restore 4 705 pd samplevoice;
#N canvas 0 0 999 890 samplevoice 0;
#X obj 33 979 outlet~;
#X obj 147 734 line~;
#X msg -46 712 0;
#X obj 116 585 pack;
#X obj 181 545 / 44.1;
#X msg 133 641 0 0;
#X msg 126 610 set \$1 \$2;
#X obj 159 570 *;
#X obj 171 482 t b f b;
#X msg 251 421 1.05946;
#X obj 257 450 pow;
#X obj 264 357 * -1;
#X obj 39 899 *~;
#X obj 13 771 line~;
#X msg -22 667 -0.398438 0;
#X obj -28 863 *~;
#X obj -111 365 moses 0.001;
#X obj -113 782 line~;
#X obj -162 686 pack;
#X msg -131 751 0.398438 0;
#X msg -131 719 set \$1 \$2;
#X obj -69 460 t b b f;
#X obj -24 567 * -1;
#X msg -7 635 set \$1 \$2;
#X obj -4 606 pack;
#X obj -25 813 +~;
#X text -130 805 attack;
#X text 17 793 release;
#X obj 269 283 +;
#X obj -216 93 inlet;
#X obj 286 311 clip -127 127;
#X obj 235 253 float;
#X obj 265 385 t b f;
#X msg 100 651 0;
#X obj 47 566 t b b;
#X text 218 221 pitch;
#X text -108 333 gate;
#X obj 298 215 t b f;
#X msg 275 92 60;
#X obj 281 62 t b f;
#X obj 295 134 +;
#X obj 300 185 * -1;
#X obj 273 29 * -1;
#X obj -56 301 inlet;
#X text -61 280 attack;
#X obj 8 327 inlet;
#X text 7 308 decay;
#X obj 102 292 inlet;
#X text 106 273 size;
#X text 282 3 tp;
#X obj 251 -15 inlet;
#X obj 101 516 int;
#X obj -206 125 unpack f f;
#X obj 47 543 pipe 1;
#X obj 145 765 tabread4~ \$0simsam1;
#X connect 1 0 54 0;
#X connect 2 0 17 0;
#X connect 2 0 13 0;
#X connect 3 0 6 0;
#X connect 4 0 7 1;
#X connect 5 0 1 0;
#X connect 6 0 5 0;
#X connect 7 0 3 1;
#X connect 8 0 3 0;
#X connect 8 1 7 0;
#X connect 8 2 51 0;
#X connect 9 0 10 0;
#X connect 10 0 8 0;
#X connect 11 0 32 0;
#X connect 12 0 0 0;
#X connect 13 0 25 1;
#X connect 14 0 13 0;
#X connect 15 0 12 0;
#X connect 16 0 14 0;
#X connect 16 1 21 0;
#X connect 16 1 53 0;
#X connect 17 0 25 0;
#X connect 18 0 20 0;
#X connect 19 0 17 0;
#X connect 20 0 19 0;
#X connect 21 0 19 0;
#X connect 21 1 2 0;
#X connect 21 2 18 0;
#X connect 21 2 22 0;
#X connect 22 0 24 0;
#X connect 23 0 14 0;
#X connect 24 0 23 0;
#X connect 25 0 15 0;
#X connect 25 0 15 1;
#X connect 28 0 30 0;
#X connect 29 0 52 0;
#X connect 30 0 11 0;
#X connect 31 0 28 0;
#X connect 32 0 9 0;
#X connect 32 1 10 1;
#X connect 33 0 1 0;
#X connect 34 0 5 0;
#X connect 34 1 33 0;
#X connect 37 0 31 0;
#X connect 37 1 28 1;
#X connect 38 0 40 0;
#X connect 39 0 38 0;
#X connect 39 1 40 1;
#X connect 40 0 41 0;
#X connect 41 0 37 0;
#X connect 42 0 39 0;
#X connect 43 0 18 1;
#X connect 45 0 24 1;
#X connect 47 0 51 1;
#X connect 50 0 42 0;
#X connect 51 0 4 0;
#X connect 51 0 3 0;
#X connect 52 0 31 0;
#X connect 52 1 16 0;
#X connect 53 0 34 0;
#X connect 54 0 12 1;
#X restore 18 737 pd samplevoice;
#X obj -194 317 poly 6 1;
#N canvas 0 0 999 890 samplevoice 0;
#X obj 33 979 outlet~;
#X obj 147 734 line~;
#X msg -46 712 0;
#X obj 116 585 pack;
#X obj 181 545 / 44.1;
#X msg 133 641 0 0;
#X msg 126 610 set \$1 \$2;
#X obj 159 570 *;
#X obj 171 482 t b f b;
#X msg 251 421 1.05946;
#X obj 257 450 pow;
#X obj 264 357 * -1;
#X obj 39 899 *~;
#X obj 13 771 line~;
#X msg -22 667 -0.703125 0;
#X obj -28 863 *~;
#X obj -111 365 moses 0.001;
#X obj -113 782 line~;
#X obj -162 686 pack;
#X msg -131 751 0.703125 0;
#X msg -131 719 set \$1 \$2;
#X obj -69 460 t b b f;
#X obj -24 567 * -1;
#X msg -7 635 set \$1 \$2;
#X obj -4 606 pack;
#X obj -25 813 +~;
#X text -130 805 attack;
#X text 17 793 release;
#X obj 269 283 +;
#X obj -216 93 inlet;
#X obj 286 311 clip -127 127;
#X obj 235 253 float;
#X obj 265 385 t b f;
#X msg 100 651 0;
#X obj 47 566 t b b;
#X text 218 221 pitch;
#X text -108 333 gate;
#X obj 298 215 t b f;
#X msg 275 92 60;
#X obj 281 62 t b f;
#X obj 295 134 +;
#X obj 300 185 * -1;
#X obj 273 29 * -1;
#X obj -56 301 inlet;
#X text -61 280 attack;
#X obj 8 327 inlet;
#X text 7 308 decay;
#X obj 102 292 inlet;
#X text 106 273 size;
#X text 282 3 tp;
#X obj 251 -15 inlet;
#X obj 101 516 int;
#X obj -206 125 unpack f f;
#X obj 47 543 pipe 1;
#X obj 145 765 tabread4~ \$0simsam1;
#X connect 1 0 54 0;
#X connect 2 0 17 0;
#X connect 2 0 13 0;
#X connect 3 0 6 0;
#X connect 4 0 7 1;
#X connect 5 0 1 0;
#X connect 6 0 5 0;
#X connect 7 0 3 1;
#X connect 8 0 3 0;
#X connect 8 1 7 0;
#X connect 8 2 51 0;
#X connect 9 0 10 0;
#X connect 10 0 8 0;
#X connect 11 0 32 0;
#X connect 12 0 0 0;
#X connect 13 0 25 1;
#X connect 14 0 13 0;
#X connect 15 0 12 0;
#X connect 16 0 14 0;
#X connect 16 1 21 0;
#X connect 16 1 53 0;
#X connect 17 0 25 0;
#X connect 18 0 20 0;
#X connect 19 0 17 0;
#X connect 20 0 19 0;
#X connect 21 0 19 0;
#X connect 21 1 2 0;
#X connect 21 2 18 0;
#X connect 21 2 22 0;
#X connect 22 0 24 0;
#X connect 23 0 14 0;
#X connect 24 0 23 0;
#X connect 25 0 15 0;
#X connect 25 0 15 1;
#X connect 28 0 30 0;
#X connect 29 0 52 0;
#X connect 30 0 11 0;
#X connect 31 0 28 0;
#X connect 32 0 9 0;
#X connect 32 1 10 1;
#X connect 33 0 1 0;
#X connect 34 0 5 0;
#X connect 34 1 33 0;
#X connect 37 0 31 0;
#X connect 37 1 28 1;
#X connect 38 0 40 0;
#X connect 39 0 38 0;
#X connect 39 1 40 1;
#X connect 40 0 41 0;
#X connect 41 0 37 0;
#X connect 42 0 39 0;
#X connect 43 0 18 1;
#X connect 45 0 24 1;
#X connect 47 0 51 1;
#X connect 50 0 42 0;
#X connect 51 0 4 0;
#X connect 51 0 3 0;
#X connect 52 0 31 0;
#X connect 52 1 16 0;
#X connect 53 0 34 0;
#X connect 54 0 12 1;
#X restore 24 777 pd samplevoice;
#N canvas 1 79 999 890 samplevoice 0;
#X obj 33 979 outlet~;
#X obj 147 734 line~;
#X msg -46 712 0;
#X obj 116 585 pack;
#X obj 181 545 / 44.1;
#X msg 133 641 0 0;
#X msg 126 610 set \$1 \$2;
#X obj 159 570 *;
#X obj 171 482 t b f b;
#X msg 251 421 1.05946;
#X obj 257 450 pow;
#X obj 264 357 * -1;
#X obj 39 899 *~;
#X obj 13 771 line~;
#X msg -22 667 -0.703125 0;
#X obj -28 863 *~;
#X obj -111 365 moses 0.001;
#X obj -113 782 line~;
#X obj -162 686 pack;
#X msg -131 751 0.703125 0;
#X msg -131 719 set \$1 \$2;
#X obj -69 460 t b b f;
#X obj -24 567 * -1;
#X msg -7 635 set \$1 \$2;
#X obj -4 606 pack;
#X obj -25 813 +~;
#X text -130 805 attack;
#X text 17 793 release;
#X obj 269 283 +;
#X obj -216 93 inlet;
#X obj 286 311 clip -127 127;
#X obj 235 253 float;
#X obj 265 385 t b f;
#X msg 100 651 0;
#X obj 47 566 t b b;
#X text 218 221 pitch;
#X text -108 333 gate;
#X obj 298 215 t b f;
#X msg 275 92 60;
#X obj 281 62 t b f;
#X obj 295 134 +;
#X obj 300 185 * -1;
#X obj 273 29 * -1;
#X obj -56 301 inlet;
#X text -61 280 attack;
#X obj 8 327 inlet;
#X text 7 308 decay;
#X obj 102 292 inlet;
#X text 106 273 size;
#X text 282 3 tp;
#X obj 251 -15 inlet;
#X obj 101 516 int;
#X obj -206 125 unpack f f;
#X obj 47 543 pipe 1;
#X obj 145 765 tabread4~ \$0simsam1;
#X connect 1 0 54 0;
#X connect 2 0 17 0;
#X connect 2 0 13 0;
#X connect 3 0 6 0;
#X connect 4 0 7 1;
#X connect 5 0 1 0;
#X connect 6 0 5 0;
#X connect 7 0 3 1;
#X connect 8 0 3 0;
#X connect 8 1 7 0;
#X connect 8 2 51 0;
#X connect 9 0 10 0;
#X connect 10 0 8 0;
#X connect 11 0 32 0;
#X connect 12 0 0 0;
#X connect 13 0 25 1;
#X connect 14 0 13 0;
#X connect 15 0 12 0;
#X connect 16 0 14 0;
#X connect 16 1 21 0;
#X connect 16 1 53 0;
#X connect 17 0 25 0;
#X connect 18 0 20 0;
#X connect 19 0 17 0;
#X connect 20 0 19 0;
#X connect 21 0 19 0;
#X connect 21 1 2 0;
#X connect 21 2 18 0;
#X connect 21 2 22 0;
#X connect 22 0 24 0;
#X connect 23 0 14 0;
#X connect 24 0 23 0;
#X connect 25 0 15 0;
#X connect 25 0 15 1;
#X connect 28 0 30 0;
#X connect 29 0 52 0;
#X connect 30 0 11 0;
#X connect 31 0 28 0;
#X connect 32 0 9 0;
#X connect 32 1 10 1;
#X connect 33 0 1 0;
#X connect 34 0 5 0;
#X connect 34 1 33 0;
#X connect 37 0 31 0;
#X connect 37 1 28 1;
#X connect 38 0 40 0;
#X connect 39 0 38 0;
#X connect 39 1 40 1;
#X connect 40 0 41 0;
#X connect 41 0 37 0;
#X connect 42 0 39 0;
#X connect 43 0 18 1;
#X connect 45 0 24 1;
#X connect 47 0 51 1;
#X connect 50 0 42 0;
#X connect 51 0 4 0;
#X connect 51 0 3 0;
#X connect 52 0 31 0;
#X connect 52 1 16 0;
#X connect 53 0 34 0;
#X connect 54 0 12 1;
#X restore 40 804 pd samplevoice;
#X obj 160 800 table \$0simsam1;
#X text -190 51 abs for simple polysampler;
#X obj -223 245 inlet;
#X text -224 225 notes;
#X obj -181 246 inlet;
#X obj -139 248 inlet;
#X obj 335 392 inlet;
#X text -178 224 attack;
#X text -134 226 decay;
#X text 346 365 tp;
#X obj 548 263 inlet;
#X text -204 138 abs for polysimsam sampleplayer;
#X obj 512 573 outlet;
#X obj 507 462 loadbang;
#X obj 508 528 \$0;
#X text 552 247 size;
#X obj 148 366 float;
#X connect 1 0 5 2;
#X connect 1 0 7 2;
#X connect 1 0 8 2;
#X connect 1 0 9 2;
#X connect 1 0 11 2;
#X connect 1 0 12 2;
#X connect 2 0 5 1;
#X connect 2 0 7 1;
#X connect 2 0 8 1;
#X connect 2 0 9 1;
#X connect 2 0 11 1;
#X connect 2 0 12 1;
#X connect 3 0 6 0;
#X connect 4 0 3 2;
#X connect 5 0 0 0;
#X connect 6 0 5 0;
#X connect 6 1 7 0;
#X connect 6 2 8 0;
#X connect 6 3 9 0;
#X connect 6 4 11 0;
#X connect 6 5 12 0;
#X connect 7 0 0 0;
#X connect 8 0 0 0;
#X connect 9 0 0 0;
#X connect 10 0 3 0;
#X connect 10 1 3 1;
#X connect 10 2 4 0;
#X connect 11 0 0 0;
#X connect 12 0 0 0;
#X connect 15 0 10 0;
#X connect 17 0 2 0;
#X connect 18 0 1 0;
#X connect 19 0 5 4;
#X connect 19 0 7 4;
#X connect 19 0 8 4;
#X connect 19 0 9 4;
#X connect 19 0 11 4;
#X connect 19 0 12 4;
#X connect 23 0 29 0;
#X connect 26 0 27 0;
#X connect 27 0 25 0;
#X connect 29 0 5 3;
#X connect 29 0 7 3;
#X connect 29 0 8 3;
#X connect 29 0 9 3;
#X connect 29 0 11 3;
#X connect 29 0 12 3;
