#N canvas 1 81 450 300 10;
#N canvas 93 80 1056 743 ahihat1 0;
#X obj 245 704 outlet~;
#X obj 329 190 inlet;
#X obj 107 126 hsl 128 8 0 127 0 1 empty empty amt 134 5 0 8 -262144
-1 -1 2400 1;
#X text 374 188 <-trigger/level in;
#X obj 63 480 noise~;
#X obj 334 433 line~;
#X msg 271 394 0 39.1045;
#X obj 311 464 *~;
#X obj 312 506 lop~ 200;
#X msg 359 399 1;
#X obj 107 115 hsl 128 8 1.27 5000 1 1 empty empty dec 134 4 0 8 -262144
-1 -1 6700 1;
#X obj 250 264 +;
#X msg 252 234 0;
#X obj 243 674 *~;
#X obj 107 139 hsl 128 8 70 120 0 1 empty empty cut 134 3 0 8 -262144
-1 -1 10800 1;
#X obj 102 282 mtof;
#X text 348 482 quadratic filter/amp env;
#X obj 166 341 *~;
#X obj 129 408 +~;
#X obj 160 299 mtof;
#X obj 107 152 hsl 128 8 0.01 0.99 0 1 empty empty res 134 3 0 8 -262144
-1 -1 7100 1;
#X obj 272 288 *;
#X msg 271 315 set 0 \$1;
#X obj 329 341 t b b;
#X obj 311 213 t f f;
#N canvas 486 219 1076 837 hipass2p2z 0;
#X obj -47 497 inlet~;
#X obj 128 927 outlet~;
#X obj 105 93 inlet~;
#X text 401 96 resonance 0..1;
#X text 156 94 cutoff (hz);
#X text 572 141 c= tan(pi*cutf/samplerate);
#X obj 245 49 samplerate~;
#X obj 140 186 expr~ tan($v1);
#X obj 135 159 /~ 44100;
#X obj 108 128 *~ 3.14159;
#X text 91 160 c;
#X obj 143 285 sig~ 1;
#X obj 174 398 /~;
#X obj 210 362 +~;
#X obj 226 333 +~;
#X obj 270 268 *~;
#X obj 266 314 *~;
#X text 573 165 a1= 1/(1+res+c+c*c);
#X text 573 186 a2= -2*a1;
#X text 99 483 a2;
#X text 123 337 a1/a3;
#X text 574 205 b1= 2*(c*c-1)*a1;
#X obj 287 439 -~;
#X obj 310 417 sig~ 1;
#X text 256 428 b1;
#X obj 280 485 *~ 2;
#X obj 261 515 *~;
#X obj 417 339 *~;
#X text 384 379 b2;
#X obj 361 397 sig~ 1;
#X obj 392 429 -~;
#X obj 377 512 *~;
#X obj 394 472 +~;
#X text 573 221 b2= (1-res*c+c*c)*a1;
#X obj 33 690 czero~;
#X obj 59 727 czero~;
#X obj 90 841 cpole~;
#X obj 129 888 cpole~;
#X obj 178 840 *~ -1;
#X obj 184 805 expr~ sqrt($v1);
#X obj -44 595 *~;
#X obj 128 704 *~ -0.5;
#X text 219 845 2nd pole = 1st mirrored on the x axis;
#X text 183 704 b1/2 (x pos);
#X obj 163 748 *~;
#X obj 183 781 -~;
#X text 217 666 pole position from coeffs:;
#X text 218 683 p=-b1/2+j*sqrt(b2-(b1/2)^2) (found somewhere on the
net...);
#X text 573 99 cookbook-like? (i cant remember where i got this from)
hp-filter;
#X obj 343 246 *~ 1.41421;
#X obj 341 194 -~;
#X obj 305 153 sig~ 1;
#X obj 346 95 inlet~;
#X obj 90 670 sig~ 0;
#X obj 73 646 sig~ 1;
#X text 49 624 zeros at fixed pos;
#X connect 0 0 40 0;
#X connect 2 0 9 0;
#X connect 6 0 8 1;
#X connect 7 0 15 0;
#X connect 7 0 16 0;
#X connect 7 0 16 1;
#X connect 7 0 27 0;
#X connect 8 0 7 0;
#X connect 9 0 8 0;
#X connect 11 0 12 0;
#X connect 11 0 13 0;
#X connect 12 0 26 0;
#X connect 12 0 31 0;
#X connect 12 0 40 1;
#X connect 13 0 12 1;
#X connect 14 0 13 1;
#X connect 15 0 14 0;
#X connect 16 0 14 1;
#X connect 16 0 22 0;
#X connect 16 0 32 1;
#X connect 22 0 25 0;
#X connect 23 0 22 1;
#X connect 25 0 26 1;
#X connect 26 0 41 0;
#X connect 27 0 30 1;
#X connect 29 0 30 0;
#X connect 30 0 32 0;
#X connect 31 0 45 0;
#X connect 32 0 31 1;
#X connect 34 0 35 0;
#X connect 34 1 35 1;
#X connect 35 0 36 0;
#X connect 35 1 36 1;
#X connect 36 0 37 0;
#X connect 36 1 37 1;
#X connect 37 0 1 0;
#X connect 38 0 37 3;
#X connect 39 0 36 3;
#X connect 39 0 38 0;
#X connect 40 0 34 0;
#X connect 41 0 36 2;
#X connect 41 0 37 2;
#X connect 41 0 44 0;
#X connect 41 0 44 1;
#X connect 44 0 45 1;
#X connect 45 0 39 0;
#X connect 49 0 15 1;
#X connect 49 0 27 1;
#X connect 50 0 49 0;
#X connect 51 0 50 0;
#X connect 52 0 50 1;
#X connect 53 0 35 3;
#X connect 53 0 34 3;
#X connect 54 0 34 2;
#X connect 54 0 35 2;
#X restore 91 529 pd hipass2p2z;
#X connect 1 0 24 0;
#X connect 2 0 19 0;
#X connect 4 0 25 0;
#X connect 5 0 7 1;
#X connect 5 0 7 0;
#X connect 6 0 5 0;
#X connect 7 0 8 0;
#X connect 8 0 13 1;
#X connect 8 0 17 0;
#X connect 9 0 5 0;
#X connect 10 0 11 1;
#X connect 11 0 21 0;
#X connect 12 0 11 0;
#X connect 13 0 0 0;
#X connect 14 0 15 0;
#X connect 15 0 18 0;
#X connect 17 0 18 1;
#X connect 18 0 25 1;
#X connect 19 0 17 1;
#X connect 20 0 25 2;
#X connect 21 0 22 0;
#X connect 22 0 6 0;
#X connect 22 0 23 0;
#X connect 23 0 6 0;
#X connect 23 1 9 0;
#X connect 24 0 12 0;
#X connect 24 1 21 1;
#X connect 25 0 13 0;
#X coords 0 -1 1 1 160 70 1 100 100;
#X restore 75 107 pd ahihat1;
#X obj 64 216 dac~;
#X text 174 79 hihat synth using hp-filtered noise;
#X obj 12 9 notein;
#X obj 80 62 / 128;
#X obj 33 37 moses 0.1;
#X connect 0 0 1 0;
#X connect 0 0 1 1;
#X connect 3 1 5 0;
#X connect 4 0 0 0;
#X connect 5 1 4 0;
