#N canvas 133 255 450 300 10;
#X obj 51 210 dac~;
#N canvas 253 80 785 755 akick2 0;
#X obj 378 305 line~;
#X msg 339 272 0 \$1;
#X obj 141 565 *~;
#X obj 351 345 *~;
#X obj 117 430 *~;
#X obj 132 529 osc~;
#X obj 102 487 +~;
#X msg 176 493 1;
#X obj -64 806 outlet~;
#X obj 345 69 inlet;
#X obj 106 157 hsl 128 8 0 127 0 1 empty empty pam 134 5 0 8 -262144
-1 -1 4900 1;
#X obj 38 216 mtof;
#X obj 106 137 hsl 128 8 0 127 0 1 empty empty p 134 4 0 8 -262144
-1 -1 1600 1;
#X obj -1 216 mtof;
#X obj 106 114 hsl 128 8 10 800 0 1 empty empty dec 134 5 0 8 -262144
-1 -1 8200 1;
#X obj 305 202 +;
#X msg 292 138 0;
#X text 390 67 <-trigger/level in;
#X obj 339 239 float;
#X msg 388 243 \$1;
#X obj 376 130 t b f;
#X obj 106 170 hsl 128 8 1 5 0 1 empty empty dz 133 4 0 8 -262144 -1
-1 11700 1;
#X obj 106 180 hsl 128 8 0.1 0.8 0 1 empty empty chr 133 4 0 8 -262144
-1 -1 1900 1;
#X obj -64 781 /~;
#X obj -24 707 abs~;
#X obj 33 731 +~;
#X obj -57 675 *~;
#X text -139 719 distortion;
#X obj 341 381 *~;
#X obj 329 406 lop~ 400;
#X obj 106 147 hsl 128 8 10 800 0 1 empty empty pdc 134 5 0 8 -262144
-1 -1 3700 1;
#X obj 192 324 line~;
#X msg 180 296 0 \$1;
#X obj 177 232 +;
#X obj 180 263 float;
#X obj 186 349 *~;
#X obj 178 375 *~;
#X text 388 273 amp env;
#X msg 234 296 1;
#X text 225 273 pitch env;
#X obj 106 124 hsl 128 8 1 5 0 1 empty empty shp 133 4 0 8 -262144
-1 -1 4200 1;
#X obj 322 527 /~;
#X obj 313 465 *~;
#X text 364 518 env shape;
#X obj 367 490 +~ 1;
#X connect 0 0 3 1;
#X connect 0 0 3 0;
#X connect 1 0 0 0;
#X connect 2 0 26 0;
#X connect 3 0 28 0;
#X connect 3 0 28 1;
#X connect 4 0 6 1;
#X connect 5 0 2 0;
#X connect 6 0 5 0;
#X connect 7 0 5 1;
#X connect 9 0 16 0;
#X connect 9 0 20 0;
#X connect 10 0 11 0;
#X connect 11 0 4 0;
#X connect 12 0 13 0;
#X connect 13 0 6 0;
#X connect 14 0 15 1;
#X connect 15 0 18 0;
#X connect 16 0 15 0;
#X connect 16 0 33 0;
#X connect 18 0 1 0;
#X connect 19 0 0 0;
#X connect 20 0 18 0;
#X connect 20 0 7 0;
#X connect 20 0 34 0;
#X connect 20 1 19 0;
#X connect 20 1 38 0;
#X connect 21 0 26 1;
#X connect 22 0 25 1;
#X connect 23 0 8 0;
#X connect 24 0 25 0;
#X connect 25 0 23 1;
#X connect 26 0 23 0;
#X connect 26 0 24 0;
#X connect 28 0 29 0;
#X connect 29 0 42 0;
#X connect 30 0 33 1;
#X connect 31 0 35 0;
#X connect 31 0 35 1;
#X connect 32 0 31 0;
#X connect 33 0 34 0;
#X connect 34 0 32 0;
#X connect 35 0 36 0;
#X connect 35 0 36 1;
#X connect 36 0 4 1;
#X connect 38 0 31 0;
#X connect 40 0 42 1;
#X connect 41 0 2 1;
#X connect 42 0 41 0;
#X connect 42 0 44 0;
#X connect 44 0 41 1;
#X coords 0 -1 1 1 160 90 1 100 100;
#X restore 59 101 pd akick2;
#X obj 12 9 notein;
#X obj 80 62 / 128;
#X obj 33 37 moses 0.1;
#X text 157 26 909ish kick;
#X connect 1 0 0 0;
#X connect 1 0 0 1;
#X connect 2 1 4 0;
#X connect 3 0 1 0;
#X connect 4 1 3 0;
