#N canvas 195 251 426 341 10;
#N canvas 51 142 671 640 akick3 0;
#X obj 146 333 osc~;
#X obj 147 300 vline~;
#X msg 147 260 \$1 \, \$2 \$3;
#X obj 147 228 pack f f f;
#X obj 110 116 nbx 3 14 10 999 0 1 empty empty t -8 8 0 10 -262144
-1 -1 500 256;
#X obj 158 116 nbx 3 14 10 999 0 1 empty empty b -8 8 0 10 -262144
-1 -1 50 256;
#X obj 206 116 nbx 3 14 1 500 0 1 empty empty d -8 8 0 10 -262144 -1
-1 3 256;
#X obj 113 184 float;
#X obj 109 389 *~;
#X obj 83 349 *~;
#X obj 78 315 vline~;
#X obj 55 263 pack f f;
#X obj 113 137 hsl 128 8 0 1 0 1 empty empty d -10 5 0 10 -262144 -1
-1 8400 1;
#X obj 40 166 t f f;
#X obj 44 192 *;
#X obj 43 220 * 2000;
#X obj 37 22 inlet;
#X obj 108 431 outlet~;
#X obj 11 52 moses 0.0001;
#X obj 251 239 spigot 1;
#X obj 38 82 t f b b;
#X msg 276 209 0;
#X obj 287 179 delay;
#X msg 310 209 1;
#X msg 52 289 \$1 0.5 \, 0 \$2 1;
#X msg 244 270 0.25;
#X connect 0 0 8 1;
#X connect 1 0 0 0;
#X connect 2 0 1 0;
#X connect 3 0 2 0;
#X connect 4 0 7 1;
#X connect 5 0 3 1;
#X connect 6 0 3 2;
#X connect 7 0 3 0;
#X connect 8 0 17 0;
#X connect 9 0 8 0;
#X connect 10 0 9 1;
#X connect 10 0 9 0;
#X connect 11 0 24 0;
#X connect 12 0 13 0;
#X connect 13 0 14 0;
#X connect 13 1 14 1;
#X connect 14 0 15 0;
#X connect 15 0 11 1;
#X connect 15 0 22 1;
#X connect 16 0 18 0;
#X connect 18 1 20 0;
#X connect 19 0 25 0;
#X connect 20 0 11 0;
#X connect 20 1 7 0;
#X connect 20 1 21 0;
#X connect 20 1 22 0;
#X connect 20 2 19 0;
#X connect 21 0 19 1;
#X connect 22 0 23 0;
#X connect 23 0 19 1;
#X connect 24 0 10 0;
#X connect 25 0 0 1;
#X coords 0 -1 1 1 150 50 1 100 100;
#X restore 80 119 pd akick3;
#X obj 83 204 *~ 0.5;
#X obj 60 24 notein;
#X obj 76 66 / 128;
#X msg 21 27 1;
#X obj 83 235 dac~;
#X text 149 34 808-ish kickdrum;
#X connect 0 0 1 0;
#X connect 1 0 5 0;
#X connect 1 0 5 1;
#X connect 2 1 3 0;
#X connect 3 0 0 0;
#X connect 4 0 0 0;
