#N canvas 39 228 450 300 10;
#N canvas 97 62 1056 743 asnare1 0;
#X obj 378 305 line~;
#X msg 371 254 0 \$1;
#X obj 175 656 *~;
#X obj 355 336 *~;
#X obj 144 336 *~;
#X obj 135 370 +~;
#X obj 319 373 lop~ 200;
#X msg 419 249 1;
#X obj 256 457 *~;
#X msg 173 372 1;
#X obj 214 740 outlet~;
#X obj 371 58 inlet;
#X obj 106 126 hsl 128 8 0 127 0 1 empty empty amt 134 5 0 8 -262144
-1 -1 5000 1;
#X obj 170 307 mtof;
#X obj 106 137 hsl 128 8 0 127 0 1 empty empty p 134 3 0 8 -262144
-1 -1 4600 1;
#X obj 37 218 mtof;
#X obj 106 114 hsl 128 8 1.27 800 1 1 empty empty dec 134 4 0 8 -262144
-1 -1 8800 1;
#X obj 134 406 +~;
#X obj 304 163 +;
#X msg 331 96 0;
#X text 416 56 <-trigger/level in;
#X text 391 332 quadratic pitch/amp env;
#X obj 133 434 phasor~;
#X obj 85 520 *~;
#X obj 135 594 +~;
#X obj 145 624 hip~ 5;
#X obj 145 518 -~;
#X obj 191 448 loadbang;
#X obj 153 551 *~;
#X msg 131 489 1;
#X obj 211 711 +~;
#X obj 275 492 noise~;
#X obj 596 363 line~;
#X msg 589 312 0 \$1;
#X obj 573 394 *~;
#X obj 537 431 lop~ 200;
#X msg 653 308 1;
#X obj 106 149 hsl 128 8 1.27 800 1 1 empty empty ndc 134 4 0 8 -262144
-1 -1 8500 1;
#X obj 519 238 +;
#X msg 549 154 0;
#X obj 284 577 *~;
#X obj 106 159 hsl 128 8 0 127 0 1 empty empty np 134 3 0 8 -262144
-1 -1 4800 1;
#X obj 358 478 mtof;
#X obj 285 536 lop~;
#X obj 371 230 float;
#X obj 351 177 t f b b;
#X obj 580 279 float;
#X obj 569 235 t f b b;
#X obj 9 471 expr~ $v1<0.5;
#X obj 165 487 expr~ $v1>=0.5;
#X connect 0 0 3 1;
#X connect 0 0 3 0;
#X connect 1 0 0 0;
#X connect 2 0 30 0;
#X connect 3 0 6 0;
#X connect 4 0 5 1;
#X connect 5 0 17 0;
#X connect 6 0 4 0;
#X connect 6 0 8 1;
#X connect 7 0 0 0;
#X connect 8 0 2 1;
#X connect 9 0 22 1;
#X connect 11 0 19 0;
#X connect 11 0 39 0;
#X connect 11 0 45 0;
#X connect 11 0 47 0;
#X connect 12 0 13 0;
#X connect 13 0 4 1;
#X connect 14 0 15 0;
#X connect 15 0 5 0;
#X connect 16 0 18 1;
#X connect 17 0 22 0;
#X connect 18 0 44 0;
#X connect 19 0 18 0;
#X connect 22 0 23 1;
#X connect 22 0 26 1;
#X connect 22 0 48 0;
#X connect 22 0 49 0;
#X connect 23 0 24 0;
#X connect 24 0 25 0;
#X connect 25 0 2 0;
#X connect 26 0 28 0;
#X connect 27 0 29 0;
#X connect 28 0 24 1;
#X connect 29 0 26 0;
#X connect 30 0 10 0;
#X connect 31 0 43 0;
#X connect 32 0 34 1;
#X connect 32 0 34 0;
#X connect 33 0 32 0;
#X connect 34 0 35 0;
#X connect 35 0 40 1;
#X connect 36 0 32 0;
#X connect 37 0 38 1;
#X connect 38 0 46 0;
#X connect 39 0 38 0;
#X connect 40 0 30 1;
#X connect 41 0 42 0;
#X connect 42 0 43 1;
#X connect 43 0 40 0;
#X connect 44 0 1 0;
#X connect 45 0 8 0;
#X connect 45 1 9 0;
#X connect 45 1 44 0;
#X connect 45 2 7 0;
#X connect 46 0 33 0;
#X connect 47 1 46 0;
#X connect 47 2 36 0;
#X connect 48 0 23 0;
#X connect 49 0 28 1;
#X coords 0 -1 1 1 160 70 1 100 100;
#X restore 63 134 pd asnare1;
#X obj 55 227 dac~;
#X obj 12 9 notein;
#X obj 80 62 / 128;
#X obj 33 37 moses 0.1;
#X text 236 27 909ish snaredrum;
#X connect 0 0 1 0;
#X connect 0 0 1 1;
#X connect 2 1 4 0;
#X connect 3 0 0 0;
#X connect 4 1 3 0;
