#N canvas 0 0 450 300 10;
#N canvas 101 241 690 525 autopan 0;
#X obj 105 118 hsl 128 8 0.1 30 1 1 empty empty lfo 132 5 0 8 -262144
-1 -1 1700 1;
#X obj 105 129 hsl 128 8 0 0.5 0 1 empty empty dp 132 5 0 8 -262144
-1 -1 8600 1;
#X obj -19 204 osc~;
#X obj -14 241 *~;
#X obj -63 475 outlet~;
#X obj 62 476 outlet~;
#X obj 116 294 inlet~;
#N canvas 0 0 450 300 pan1 0;
#X obj 297 51 inlet~;
#X obj 256 225 outlet~;
#X obj 336 218 outlet~;
#X obj 251 149 *~;
#X obj 323 154 *~;
#X obj 160 42 clip~ 0 1;
#X obj 120 15 inlet~;
#X obj 208 75 *~ -1;
#X obj 276 122 +~ 1;
#X obj 335 113 *~ -1;
#X connect 0 0 3 0;
#X connect 0 0 4 1;
#X connect 3 0 1 0;
#X connect 4 0 2 0;
#X connect 5 0 7 0;
#X connect 6 0 5 0;
#X connect 7 0 8 0;
#X connect 7 0 9 0;
#X connect 8 0 3 1;
#X connect 9 0 4 0;
#X restore -22 368 pd pan1;
#X obj -17 281 +~ 0.5;
#X connect 0 0 2 0;
#X connect 1 0 3 1;
#X connect 2 0 3 0;
#X connect 3 0 8 0;
#X connect 6 0 7 1;
#X connect 7 0 4 0;
#X connect 7 1 5 0;
#X connect 8 0 7 0;
#X coords 0 -1 1 1 150 40 1 100 100;
#X restore -83 73 pd autopan;
#X obj -87 19 adc~;
#X obj -62 157 dac~;
#X connect 0 0 2 0;
#X connect 0 1 2 1;
#X connect 1 0 0 0;
#X connect 1 1 0 0;
