#N canvas 268 148 1098 805 10;
#X obj -201 335 dac~;
#X obj -189 301 *~ 0.5;
#X obj -5 -220 loadbang;
#X obj -11 -83 playlist all 400 205 {Helvetica 10 bold} white yellow
black red;
#X msg 174 167 prismarp1.wav;
#X msg 185 137 set \$1;
#X msg -1 -194 location /home/mnb/samplelib;
#X msg 9 -144 location /home/mnb/wave_wrk;
#X msg 43 -122 location ..;
#X msg 10 -167 location /home/mnb/archiv/sounds;
#N canvas 218 81 1184 711 songpos96-16 0;
#X obj 318 440 + 1;
#X obj 267 436 float;
#X msg 206 296 1;
#X obj 218 321 /;
#X obj 209 273 t f f;
#X obj 228 344 * 15000;
#X obj 339 355 t b f;
#X obj 263 405 metro 125;
#X msg 340 329 -2;
#X obj 172 17 loadbang;
#X floatatom 126 113 5 30 300 0 bpm - -;
#X msg -2 85 set \$1;
#X msg 5 139 120;
#X obj 174 112 bng 15 250 50 0 empty empty empty 6 7 0 10 -261234 -1
-1;
#X obj 278 636 outlet;
#X obj 570 496 outlet;
#X text 618 497 bpm->;
#X obj 200 112 bng 15 50 20 0 empty empty empty 6 7 0 10 -204786 -1
-1;
#X obj 208 225 float;
#X obj 435 539 outlet;
#X text 144 343 1/16 in ms;
#X text 485 540 pos96->;
#X obj 259 373 / 6;
#X text 219 371 1/96;
#X obj 280 481 / 6;
#X obj 280 505 int;
#X obj 279 530 change;
#X obj 600 64 + 1;
#X obj 602 29 float;
#X obj 600 96 moses 2;
#X obj 600 155 timer;
#X obj 600 123 t b;
#X obj 648 122 t b b;
#X obj 653 243 /;
#X msg 623 221 60000;
#X obj 618 183 t b f;
#X obj 656 268 moses 10;
#X text 500 72 beatcounter;
#X obj 772 358 float;
#X obj 769 401 + 1;
#X obj 688 426 +;
#X obj 729 396 *;
#X obj 705 328 t f b;
#X obj 698 464 /;
#X msg 884 211 0;
#X text 499 302 mean (as seen on idafx blog);
#X obj 864 324 t f f;
#X obj 921 503 moses 0.1;
#X text 880 303 reset;
#X obj 870 366 /;
#X obj 849 431 < 0.75;
#X obj 903 435 > 1.25;
#X obj 869 391 t f f;
#X obj 877 471 ||;
#X obj 174 54 t b b b;
#X obj 43 -7 inlet;
#X obj 107 -11 inlet;
#X text 329 637 pos16->;
#X text 46 14 sync;
#X text 111 10 tap;
#X connect 0 0 1 1;
#X connect 0 0 24 0;
#X connect 0 0 19 0;
#X connect 1 0 0 0;
#X connect 2 0 3 0;
#X connect 3 0 5 0;
#X connect 4 0 2 0;
#X connect 4 1 3 1;
#X connect 5 0 22 0;
#X connect 6 0 7 0;
#X connect 6 1 1 0;
#X connect 7 0 1 0;
#X connect 8 0 6 0;
#X connect 9 0 54 0;
#X connect 10 0 11 0;
#X connect 10 0 18 1;
#X connect 11 0 12 0;
#X connect 12 0 10 0;
#X connect 13 0 8 0;
#X connect 13 0 18 0;
#X connect 17 0 28 0;
#X connect 18 0 4 0;
#X connect 18 0 15 0;
#X connect 22 0 7 1;
#X connect 24 0 25 0;
#X connect 25 0 26 0;
#X connect 26 0 14 0;
#X connect 27 0 28 1;
#X connect 27 0 29 0;
#X connect 28 0 27 0;
#X connect 29 0 31 0;
#X connect 29 1 32 0;
#X connect 30 0 35 0;
#X connect 30 0 46 0;
#X connect 31 0 30 0;
#X connect 32 0 30 0;
#X connect 32 1 30 1;
#X connect 33 0 36 0;
#X connect 34 0 33 0;
#X connect 35 0 34 0;
#X connect 35 1 33 1;
#X connect 36 1 42 0;
#X connect 38 0 39 0;
#X connect 38 0 41 0;
#X connect 39 0 38 1;
#X connect 39 0 43 1;
#X connect 40 0 43 0;
#X connect 41 0 40 1;
#X connect 42 0 40 0;
#X connect 42 1 38 0;
#X connect 43 0 41 1;
#X connect 43 0 10 0;
#X connect 44 0 38 1;
#X connect 44 0 28 1;
#X connect 46 0 49 1;
#X connect 46 1 49 0;
#X connect 47 1 44 0;
#X connect 49 0 52 0;
#X connect 50 0 53 0;
#X connect 51 0 53 1;
#X connect 52 0 50 0;
#X connect 52 1 51 0;
#X connect 53 0 47 0;
#X connect 54 0 13 0;
#X connect 54 1 13 0;
#X connect 54 2 12 0;
#X connect 55 0 13 0;
#X connect 56 0 17 0;
#X coords 0 -1 1 1 120 30 1 100 100;
#X restore -257 -6 pd songpos96-16;
#N canvas 148 128 1578 886 beatloop5a 0;
#X floatatom 125 114 4 3 999 0 oln - -;
#X obj 106 163 hsl 123 8 0 1 0 0 empty empty empty -2 -6 0 8 -262144
-258699 -1 3812 1;
#X obj 69 -121 mod;
#X obj -19 -156 inlet;
#X obj -91 -321 inlet;
#X text 21 -155 <-bpm;
#X msg -52 -91 1;
#X obj -28 -67 /;
#X obj -55 -112 t f f;
#X obj -27 -38 * 15000;
#X text -104 -38 1/16 in ms;
#X obj 169 -117 /;
#X msg 138 -161 100;
#X obj 139 -193 t b f;
#X obj 131 -88 *;
#X obj 131 -63 t b f;
#X msg 80 -6 1;
#X floatatom 125 130 4 3 999 0 lln - -;
#X obj 205 4 /;
#X obj 155 -4 +;
#X obj 70 -146 +;
#X obj 229 -311 inlet;
#X text 273 -311 pos offset (1/16);
#X obj 332 -278 inlet;
#X text 383 -279 tp (semitones \, -36..36);
#X floatatom 188 130 4 -36 36 0 tp - -;
#X obj 812 -62 loadbang;
#X msg 327 20 set \$1;
#X msg 329 46 0;
#X msg 314 -62 set \$1;
#X msg 316 -36 32;
#X msg 389 39 set \$1;
#X msg 393 69 32;
#X floatatom 175 114 5 0 99 0 st - -;
#X msg 474 56 set \$1;
#X msg 466 84 0;
#X msg 186 536 set \$1;
#X obj 340 1331 outlet~;
#X obj 343 537 t b b;
#X msg -36 942 0;
#X obj 156 872 pack;
#X obj 249 719 / 44.1;
#X obj 198 779 *;
#X obj 209 689 t b f b;
#X msg 564 633 1.05946;
#X obj 566 658 pow;
#X obj 554 569 * -1;
#X msg -3 910 -1 0.592993;
#X obj 18 1181 *~;
#X obj -133 575 moses 0.001;
#X obj -149 892 pack;
#X msg -119 977 1 0.417949;
#X msg -127 937 set \$1 \$2;
#X obj -46 697 t b b f;
#X obj -14 797 * -1;
#X msg 3 865 set \$1 \$2;
#X obj 6 836 pack;
#X obj -8 1143 +~;
#X text -120 1118 attack;
#X text 59 1112 release;
#X obj 553 597 t b f;
#X obj 45 766 delay 1;
#X obj 51 796 t b b;
#X text 609 453 tp (semitones);
#X text -314 451 trigger/vel (0..1);
#X obj 141 760 *;
#X obj 186 818 *;
#X obj 300 851 -;
#X msg 301 822 1;
#X text -115 446 duration (ms);
#X obj 286 776 t b b f;
#X obj 374 683 float;
#X msg -214 639 bang;
#X symbolatom 103 146 21 0 0 0 - - -;
#X text 420 430 sample start (percent);
#X obj 356 722 / 100;
#X obj -213 666 delay 1;
#X obj -256 467 pack;
#X obj -256 489 route 0 1;
#X obj -149 441 pack;
#X obj -152 475 route 0 1;
#X obj 391 449 pack;
#X obj 391 471 route 0 1;
#X obj 579 463 pack;
#X obj 579 485 route 0 1;
#X msg 838 943 0;
#X obj 1022 863 pack;
#X obj 1103 723 / 44.1;
#X obj 1076 774 *;
#X obj 1065 702 t b f b;
#X msg 1166 601 1.05946;
#X obj 1163 635 pow;
#X obj 1156 537 * -1;
#X msg 871 911 -1 0.592993;
#X obj 774 632 moses 0.001;
#X obj 755 913 pack;
#X msg 753 982 1 0.417949;
#X msg 753 950 set \$1 \$2;
#X obj 811 685 t b b f;
#X obj 860 798 * -1;
#X msg 862 873 set \$1 \$2;
#X obj 872 835 pack;
#X obj 866 1144 +~;
#X text 769 1123 attack;
#X text 933 1113 release;
#X obj 1155 565 t b f;
#X obj 925 774 delay 1;
#X obj 925 797 t b b;
#X obj 1007 767 *;
#X obj 1070 810 *;
#X obj 1186 856 -;
#X msg 1175 823 1;
#X obj 1160 777 t b b f;
#X obj 1179 670 float;
#X msg 780 663 bang;
#X obj 1167 720 / 100;
#X obj 745 742 delay 1;
#X text 615 821 2nd voice ->;
#X obj 1028 1028 vline~;
#X obj 176 1016 vline~;
#X obj 58 1092 vline~;
#X obj -97 1092 vline~;
#X obj 774 1091 vline~;
#X obj 931 1093 vline~;
#X text 14 274 <-voice nr;
#X obj -27 277 mod 2;
#X obj 819 58 inlet;
#X text 861 59 <-filename;
#X obj 133 490 t b a;
#X msg 975 734 176510;
#X text -51 -321 <-pos;
#X msg 112 733 176510;
#X msg 751 95 set symbol \$1;
#X text 443 258 read file into table abs;
#X obj 340 1286 abs_beatloop1;
#X obj 859 1175 *~;
#X obj 133 838 float;
#X obj 79 874 float;
#X text -277 818 1st voice;
#X obj 1009 830 float;
#X obj 956 865 float;
#X text 136 471 samplelen;
#X obj -17 13 * 44.1;
#X obj 172 407 /;
#N canvas 572 254 450 300 round 0;
#X obj 56 24 inlet;
#X obj 78 254 outlet;
#X obj 115 94 int;
#X obj 50 119 -;
#X obj 64 57 t f f;
#X obj 51 156 >= 0.5;
#X obj 77 212 +;
#X connect 0 0 4 0;
#X connect 2 0 3 1;
#X connect 2 0 6 1;
#X connect 3 0 5 0;
#X connect 4 0 3 0;
#X connect 4 1 2 0;
#X connect 5 0 6 0;
#X connect 6 0 1 0;
#X restore 258 284 pd round;
#X msg 475 234;
#X obj 671 324 soundfiler;
#X msg 798 304 read -resize \$2 \$1mnbrbloop1;
#X obj 808 213 t b a;
#X obj 811 279 pack \$0 s;
#X obj 803 250 float;
#X obj 157 131 tgl 12 1 empty empty empty 17 7 0 10 -262144 -1 -1 1
1;
#X text 310 233 auto looplen;
#X obj 263 231 spigot;
#X obj 233 118 vsl 8 50 1 300 1 1 empty empty a 0 -9 0 10 -262144 -1
-1 300 1;
#X obj 244 118 vsl 8 50 1 300 1 1 empty empty d 0 -9 0 10 -262144 -1
-1 400 1;
#X text 210 101 slc;
#X obj 133 245 - 1;
#X obj 220 249 - 1;
#X text 69 230 slice attack/decay \, 0..299 ms;
#X obj 561 -208 inlet;
#X obj 543 -174 unpack f f f f f f;
#X text 602 -209 <-param preset;
#X obj 481 1020 outlet;
#X text 389 1331 audio;
#X text 489 926 preset;
#X obj 440 951 pack f f f f f f;
#X obj 441 921 float;
#X obj 215 116 bng 15 250 50 0 empty empty v 5 8 0 10 -262144 -1 -1
;
#X msg 441 974 set \$1 \$2 \$3 \$4 \$5 \$6;
#X connect 0 0 13 0;
#X connect 0 0 29 0;
#X connect 0 0 167 1;
#X connect 2 0 18 0;
#X connect 2 0 14 0;
#X connect 3 0 8 0;
#X connect 4 0 20 0;
#X connect 4 0 125 0;
#X connect 6 0 7 0;
#X connect 7 0 9 0;
#X connect 8 0 6 0;
#X connect 8 1 7 1;
#X connect 9 0 79 1;
#X connect 9 0 142 0;
#X connect 11 0 14 1;
#X connect 12 0 11 0;
#X connect 13 0 12 0;
#X connect 13 1 11 1;
#X connect 14 0 15 0;
#X connect 15 0 16 0;
#X connect 15 1 19 0;
#X connect 16 0 77 1;
#X connect 17 0 31 0;
#X connect 17 0 2 1;
#X connect 17 0 18 1;
#X connect 17 0 166 1;
#X connect 18 0 1 0;
#X connect 19 0 81 1;
#X connect 20 0 2 0;
#X connect 21 0 20 1;
#X connect 23 0 25 0;
#X connect 25 0 27 0;
#X connect 25 0 83 1;
#X connect 25 0 166 3;
#X connect 26 0 28 0;
#X connect 26 0 30 0;
#X connect 26 0 32 0;
#X connect 26 0 35 0;
#X connect 26 0 145 0;
#X connect 26 0 38 0;
#X connect 27 0 28 0;
#X connect 28 0 25 0;
#X connect 29 0 30 0;
#X connect 30 0 0 0;
#X connect 31 0 32 0;
#X connect 32 0 17 0;
#X connect 33 0 34 0;
#X connect 33 0 19 1;
#X connect 33 0 166 2;
#X connect 34 0 35 0;
#X connect 35 0 33 0;
#X connect 36 0 131 0;
#X connect 36 0 129 0;
#X connect 38 0 131 0;
#X connect 38 0 129 0;
#X connect 39 0 120 0;
#X connect 39 0 121 0;
#X connect 40 0 119 0;
#X connect 41 0 42 1;
#X connect 42 0 66 0;
#X connect 43 0 136 0;
#X connect 43 1 42 0;
#X connect 43 2 131 0;
#X connect 44 0 45 0;
#X connect 45 0 71 0;
#X connect 46 0 60 0;
#X connect 47 0 120 0;
#X connect 48 0 134 1;
#X connect 49 1 53 0;
#X connect 49 1 61 0;
#X connect 49 1 72 0;
#X connect 50 0 52 0;
#X connect 51 0 121 0;
#X connect 52 0 51 0;
#X connect 53 0 51 0;
#X connect 53 1 39 0;
#X connect 53 2 50 0;
#X connect 53 2 54 0;
#X connect 54 0 56 0;
#X connect 55 0 47 0;
#X connect 56 0 55 0;
#X connect 57 0 48 0;
#X connect 57 0 48 1;
#X connect 60 0 44 0;
#X connect 60 1 45 1;
#X connect 61 0 62 0;
#X connect 62 0 136 0;
#X connect 62 1 137 0;
#X connect 65 0 137 1;
#X connect 66 0 40 1;
#X connect 67 0 66 1;
#X connect 68 0 67 0;
#X connect 70 0 71 0;
#X connect 70 1 68 0;
#X connect 70 2 67 1;
#X connect 71 0 43 0;
#X connect 72 0 76 0;
#X connect 75 0 70 0;
#X connect 75 0 65 0;
#X connect 76 0 47 0;
#X connect 77 0 78 0;
#X connect 78 0 49 0;
#X connect 78 1 94 0;
#X connect 79 0 80 0;
#X connect 80 0 76 1;
#X connect 80 1 116 1;
#X connect 81 0 82 0;
#X connect 82 0 75 0;
#X connect 82 1 115 0;
#X connect 83 0 84 0;
#X connect 84 0 46 0;
#X connect 84 1 92 0;
#X connect 85 0 122 0;
#X connect 85 0 123 0;
#X connect 86 0 118 0;
#X connect 87 0 88 1;
#X connect 88 0 109 0;
#X connect 89 0 139 0;
#X connect 89 1 88 0;
#X connect 89 2 129 0;
#X connect 90 0 91 0;
#X connect 91 0 113 0;
#X connect 92 0 105 0;
#X connect 93 0 123 0;
#X connect 94 1 98 0;
#X connect 94 1 106 0;
#X connect 94 1 114 0;
#X connect 95 0 97 0;
#X connect 96 0 122 0;
#X connect 97 0 96 0;
#X connect 98 0 96 0;
#X connect 98 1 85 0;
#X connect 98 2 95 0;
#X connect 98 2 99 0;
#X connect 99 0 101 0;
#X connect 100 0 93 0;
#X connect 101 0 100 0;
#X connect 102 0 135 1;
#X connect 102 0 135 0;
#X connect 105 0 90 0;
#X connect 105 1 91 1;
#X connect 106 0 107 0;
#X connect 107 0 139 0;
#X connect 107 1 140 0;
#X connect 108 0 140 1;
#X connect 109 0 86 1;
#X connect 110 0 109 1;
#X connect 111 0 110 0;
#X connect 112 0 113 0;
#X connect 112 1 111 0;
#X connect 112 2 110 1;
#X connect 113 0 89 0;
#X connect 114 0 116 0;
#X connect 115 0 112 0;
#X connect 115 0 108 0;
#X connect 116 0 93 0;
#X connect 118 0 134 2;
#X connect 119 0 134 0;
#X connect 120 0 57 1;
#X connect 121 0 57 0;
#X connect 122 0 102 0;
#X connect 123 0 102 1;
#X connect 125 0 77 0;
#X connect 125 0 79 0;
#X connect 125 0 81 0;
#X connect 125 0 83 0;
#X connect 126 0 132 0;
#X connect 126 0 73 0;
#X connect 126 0 148 0;
#X connect 128 0 131 0;
#X connect 128 0 129 0;
#X connect 128 1 36 0;
#X connect 129 0 87 0;
#X connect 129 0 108 1;
#X connect 129 0 139 1;
#X connect 131 0 41 0;
#X connect 131 0 65 1;
#X connect 131 0 136 1;
#X connect 132 0 145 0;
#X connect 134 0 37 0;
#X connect 134 1 150 1;
#X connect 135 0 134 3;
#X connect 136 0 40 0;
#X connect 137 0 119 0;
#X connect 139 0 86 0;
#X connect 140 0 118 0;
#X connect 142 0 143 1;
#X connect 143 0 144 0;
#X connect 144 0 153 0;
#X connect 145 0 73 0;
#X connect 145 0 148 0;
#X connect 146 0 128 0;
#X connect 146 0 143 0;
#X connect 147 0 146 0;
#X connect 148 0 150 0;
#X connect 148 1 149 1;
#X connect 149 0 147 0;
#X connect 150 0 149 0;
#X connect 151 0 153 1;
#X connect 153 0 17 0;
#X connect 153 0 0 0;
#X connect 154 0 157 0;
#X connect 154 0 166 4;
#X connect 155 0 158 0;
#X connect 155 0 166 5;
#X connect 157 0 95 1;
#X connect 157 0 50 1;
#X connect 158 0 56 1;
#X connect 158 0 101 1;
#X connect 160 0 161 0;
#X connect 161 0 0 0;
#X connect 161 1 17 0;
#X connect 161 2 33 0;
#X connect 161 3 25 0;
#X connect 161 4 154 0;
#X connect 161 5 155 0;
#X connect 166 0 169 0;
#X connect 167 0 166 0;
#X connect 168 0 167 0;
#X connect 169 0 163 0;
#X coords 0 -1 1 1 155 75 1 100 100;
#X restore -202 170 pd beatloop5a;
#X msg -15 302;
#X connect 1 0 0 0;
#X connect 1 0 0 1;
#X connect 2 0 6 0;
#X connect 3 0 11 5;
#X connect 3 1 5 0;
#X connect 5 0 4 0;
#X connect 6 0 3 0;
#X connect 7 0 3 0;
#X connect 8 0 3 0;
#X connect 9 0 3 0;
#X connect 10 0 11 0;
#X connect 10 2 11 1;
#X connect 11 0 1 0;
#X connect 11 1 12 0;
