#N canvas 451 290 450 300 10;
#X msg 185 19 120;
#N canvas 379 475 649 492 beatdly1f 0;
#X obj -7 105 inlet~;
#X obj 231 69 inlet;
#X obj 81 352 outlet~;
#X obj 130 140 pow -1;
#X obj 151 178 / 4;
#X obj 182 207 *;
#X obj 166 243 * 60000;
#X obj 20 19 hsl 96 8 0 0.95 0 1 empty empty fb -16 5 0 8 -262144 -1
-1 7700 1;
#X text 200 7 beatsynced delay with feedback;
#X obj 82 3 nbx 3 14 0 32 0 1 empty empty empty 0 -8 0 10 -262144 -1
-1 3 256;
#X text 268 70 <- bpm in;
#X obj 100 111 float;
#X obj 110 44 t b f;
#X obj 20 29 hsl 96 8 20 5000 1 1 empty empty frq -20 5 0 8 -262144
-1 -1 8500 1;
#X obj 80 297 abs_delayline1filt;
#X connect 0 0 14 0;
#X connect 1 0 11 0;
#X connect 3 0 4 0;
#X connect 4 0 5 0;
#X connect 5 0 6 0;
#X connect 6 0 14 1;
#X connect 7 0 14 2;
#X connect 9 0 12 0;
#X connect 11 0 3 0;
#X connect 12 0 11 0;
#X connect 12 1 5 1;
#X connect 13 0 14 3;
#X connect 14 0 2 0;
#X coords 0 -1 1 1 120 40 1 0 0;
#X restore 37 41 pd beatdly1f;
#N canvas 361 169 649 492 beatdly1f 0;
#X obj -7 105 inlet~;
#X obj 231 69 inlet;
#X obj 25 503 outlet~;
#X obj 130 140 pow -1;
#X obj 151 178 / 4;
#X obj 182 207 *;
#X obj 166 243 * 60000;
#X obj 20 19 hsl 96 8 0 0.95 0 1 empty empty fb -16 5 0 8 -262144 -1
-1 7700 1;
#X text 200 7 beatsynced delay with feedback;
#X obj 82 3 nbx 3 14 0 32 0 1 empty empty empty 0 -8 0 10 -262144 -1
-1 3 256;
#X text 268 70 <- bpm in;
#X obj 100 111 float;
#X obj 104 69 t b f;
#X obj 20 29 hsl 96 8 20 5000 1 1 empty empty frq -20 5 0 8 -262144
-1 -1 8500 1;
#X obj 80 297 abs_delayline1filt;
#X obj 20 39 hsl 96 8 0 1 0 1 empty empty dw -17 5 0 10 -262144 -1
-1 3300 1;
#X obj 26 479 +~;
#X obj 48 449 *~;
#X obj -23 445 *~;
#X obj -7 397 * -1;
#X obj -7 421 + 1;
#X text -70 369 simple crossfader (or dry/wet slider);
#X connect 0 0 14 0;
#X connect 0 0 18 0;
#X connect 1 0 11 0;
#X connect 3 0 4 0;
#X connect 4 0 5 0;
#X connect 5 0 6 0;
#X connect 6 0 14 1;
#X connect 7 0 14 2;
#X connect 9 0 12 0;
#X connect 11 0 3 0;
#X connect 12 0 11 0;
#X connect 12 1 5 1;
#X connect 13 0 14 3;
#X connect 14 0 17 0;
#X connect 15 0 19 0;
#X connect 15 0 17 1;
#X connect 16 0 2 0;
#X connect 17 0 16 1;
#X connect 18 0 16 0;
#X connect 19 0 20 0;
#X connect 20 0 18 1;
#X coords 0 -1 1 1 120 50 1 0 0;
#X restore 68 101 pd beatdly1f;
#X text 84 2 beatsynced delay with filter;
#X connect 0 0 1 1;
#X connect 0 0 2 1;
