#N canvas 287 276 450 300 10;
#N canvas 308 262 649 492 beatdelay1 0;
#X obj -7 105 inlet~;
#X obj 231 69 inlet;
#X obj 81 352 outlet~;
#X obj 130 140 pow -1;
#X obj 151 178 / 4;
#X obj 182 207 *;
#X obj 166 243 * 60000;
#X obj 19 20 hsl 96 8 0 0.95 0 1 empty empty fb -16 5 0 8 -262144 -1
-1 7700 1;
#X text 200 7 beatsynced delay with feedback;
#X obj 80 297 abs_delayline1;
#X obj 81 3 nbx 3 14 0 32 0 1 empty empty empty 0 -8 0 10 -262144 -1
-1 3 256;
#X text 268 70 <- bpm in;
#X obj 100 111 float;
#X obj 110 44 t b f;
#X connect 0 0 9 0;
#X connect 1 0 12 0;
#X connect 3 0 4 0;
#X connect 4 0 5 0;
#X connect 5 0 6 0;
#X connect 6 0 9 1;
#X connect 7 0 9 2;
#X connect 9 0 2 0;
#X connect 10 0 13 0;
#X connect 12 0 3 0;
#X connect 13 0 12 0;
#X connect 13 1 5 1;
#X coords 0 -1 1 1 120 30 1 0 0;
#X restore 25 35 pd beatdelay1;
#X msg 163 6 120;
#N canvas 306 263 649 492 beatdly1s 0;
#X obj -7 105 inlet~;
#X obj 231 69 inlet;
#X obj 81 352 outlet~;
#X obj 130 140 pow -1;
#X obj 151 178 / 4;
#X obj 182 207 *;
#X obj 166 243 * 60000;
#X obj 19 20 hsl 96 8 0 0.95 0 1 empty empty fb -16 5 0 8 -262144 -1
-1 7700 1;
#X text 200 7 beatsynced delay with feedback;
#X obj 80 297 abs_delayline1;
#X obj 81 3 nbx 3 14 0 32 0 1 empty empty empty 0 -8 0 10 -262144 -1
-1 3 256;
#X text 268 70 <- bpm in;
#X obj 100 111 float;
#X obj 110 44 t b f;
#X obj -124 115 inlet~;
#X obj -36 362 outlet~;
#X obj -37 307 abs_delayline1;
#X connect 0 0 9 0;
#X connect 1 0 12 0;
#X connect 3 0 4 0;
#X connect 4 0 5 0;
#X connect 5 0 6 0;
#X connect 6 0 9 1;
#X connect 6 0 16 1;
#X connect 7 0 9 2;
#X connect 7 0 16 2;
#X connect 9 0 2 0;
#X connect 10 0 13 0;
#X connect 12 0 3 0;
#X connect 13 0 12 0;
#X connect 13 1 5 1;
#X connect 14 0 16 0;
#X connect 16 0 15 0;
#X coords 0 -1 1 1 120 30 1 0 0;
#X restore 183 34 pd beatdly1s;
#X text 211 12 without dry/wet;
#N canvas 304 264 649 492 beatdelay1 0;
#X obj -67 108 inlet~;
#X obj 177 57 inlet;
#X obj 130 140 pow -1;
#X obj 151 178 / 4;
#X obj 182 207 *;
#X obj 166 243 * 60000;
#X obj 19 19 hsl 96 8 0 0.95 0 1 empty empty fb -16 5 0 8 -262144 -1
-1 7700 1;
#X text 127 1 beatsynced delay with feedback;
#X obj 80 297 abs_delayline1;
#X obj 81 2 nbx 3 14 0 32 0 1 empty empty empty 0 -8 0 10 -262144 -1
-1 3 256;
#X text 214 58 <- bpm in;
#X obj 100 111 float;
#X obj 110 44 t b f;
#X obj 26 551 outlet~;
#X obj 19 29 hsl 96 8 0 1 0 1 empty empty dw -17 5 0 10 -262144 -1
-1 3300 1;
#X obj 25 469 +~;
#X obj 47 439 *~;
#X obj -24 435 *~;
#X obj -8 387 * -1;
#X obj -8 411 + 1;
#X text -71 359 simple crossfader (or dry/wet slider);
#X connect 0 0 8 0;
#X connect 0 0 17 0;
#X connect 1 0 11 0;
#X connect 2 0 3 0;
#X connect 3 0 4 0;
#X connect 4 0 5 0;
#X connect 5 0 8 1;
#X connect 6 0 8 2;
#X connect 8 0 16 0;
#X connect 9 0 12 0;
#X connect 11 0 2 0;
#X connect 12 0 11 0;
#X connect 12 1 4 1;
#X connect 14 0 18 0;
#X connect 14 0 16 1;
#X connect 15 0 13 0;
#X connect 16 0 15 1;
#X connect 17 0 15 0;
#X connect 18 0 19 0;
#X connect 19 0 17 1;
#X coords 0 -1 1 1 120 40 1 0 0;
#X restore 7 108 pd beatdelay1;
#N canvas 304 264 649 492 beatdly1s 0;
#X obj -9 143 inlet~;
#X obj 231 69 inlet;
#X obj 130 140 pow -1;
#X obj 151 178 / 4;
#X obj 182 207 *;
#X obj 166 243 * 60000;
#X obj 19 19 hsl 96 8 0 0.95 0 1 empty empty fb -16 5 0 8 -262144 -1
-1 7700 1;
#X text 200 7 beatsynced delay with feedback;
#X obj 80 297 abs_delayline1;
#X obj 81 2 nbx 3 14 0 32 0 1 empty empty empty 0 -8 0 10 -262144 -1
-1 3 256;
#X text 268 70 <- bpm in;
#X obj 100 111 float;
#X obj 110 44 t b f;
#X obj -124 115 inlet~;
#X obj -37 307 abs_delayline1;
#X obj -67 462 outlet~;
#X obj 19 29 hsl 96 8 0 1 0 1 empty empty dw -17 5 0 10 -262144 -1
-1 3300 1;
#X obj -58 438 +~;
#X obj -36 408 *~;
#X obj -107 404 *~;
#X obj -91 356 * -1;
#X obj -91 380 + 1;
#X text -41 359 simple crossfader (or dry/wet slider);
#X obj 114 479 outlet~;
#X obj 113 458 +~;
#X obj 135 428 *~;
#X obj 64 424 *~;
#X obj 80 376 * -1;
#X obj 80 400 + 1;
#X connect 0 0 8 0;
#X connect 0 0 26 0;
#X connect 1 0 11 0;
#X connect 2 0 3 0;
#X connect 3 0 4 0;
#X connect 4 0 5 0;
#X connect 5 0 8 1;
#X connect 5 0 14 1;
#X connect 6 0 8 2;
#X connect 6 0 14 2;
#X connect 8 0 25 0;
#X connect 9 0 12 0;
#X connect 11 0 2 0;
#X connect 12 0 11 0;
#X connect 12 1 4 1;
#X connect 13 0 14 0;
#X connect 13 0 19 0;
#X connect 14 0 18 0;
#X connect 16 0 20 0;
#X connect 16 0 18 1;
#X connect 16 0 27 0;
#X connect 16 0 25 1;
#X connect 17 0 15 0;
#X connect 18 0 17 1;
#X connect 19 0 17 0;
#X connect 20 0 21 0;
#X connect 21 0 19 1;
#X connect 24 0 23 0;
#X connect 25 0 24 1;
#X connect 26 0 24 0;
#X connect 27 0 28 0;
#X connect 28 0 26 1;
#X coords 0 -1 1 1 120 40 1 0 0;
#X restore 153 109 pd beatdly1s;
#X text 120 81 with dry/wet;
#X connect 1 0 0 1;
#X connect 1 0 2 2;
#X connect 1 0 4 1;
#X connect 1 0 5 2;
