#N canvas 685 165 870 559 10;
#N canvas 224 50 961 852 16counter 0;
#X obj 318 440 + 1;
#X obj 267 436 float;
#X obj 272 622 mod 2;
#X obj 210 672 delay 0;
#X obj 260 651 *;
#X msg 206 296 1;
#X obj 218 321 /;
#X obj 209 273 t f f;
#X obj 228 344 * 15000;
#X obj 339 355 t b f;
#X obj 263 405 metro 125;
#X obj 182 578 *;
#X obj 268 596 t b f f;
#X obj 136 130 hsl 80 8 0 0.4 0 1 empty empty swing -33 4 0 10 -262144
-1 -1 0 1;
#X msg 340 329 -2;
#X obj 251 700 int;
#X obj 172 17 loadbang;
#X floatatom 126 113 5 30 300 0 bpm - -;
#X msg -2 85 set \$1;
#X msg 5 139 110;
#X obj 174 112 bng 15 250 50 0 empty empty empty 6 7 0 10 -261234 -1
-1;
#X obj 253 737 outlet;
#X obj 570 496 outlet;
#X text 618 497 bpm->;
#X obj 200 112 bng 15 50 20 0 empty empty empty 6 7 0 10 -204786 -1
-1;
#X obj 208 225 float;
#X obj 435 539 outlet;
#X text 144 343 1/16 in ms;
#X text 485 540 pos96->;
#X text 178 628 swing;
#X obj 259 373 / 6;
#X text 219 371 1/96;
#X obj 343 481 / 6;
#X obj 343 505 int;
#X obj 342 530 change;
#X text 304 738 pos16swing->;
#X obj 600 64 + 1;
#X obj 602 29 float;
#X obj 600 96 moses 2;
#X obj 600 155 timer;
#X obj 600 123 t b;
#X obj 648 122 t b b;
#X obj 653 243 /;
#X msg 623 221 60000;
#X obj 618 183 t b f;
#X obj 656 268 moses 10;
#X text 500 72 beatcounter;
#X obj 772 358 float;
#X obj 769 401 + 1;
#X obj 688 426 +;
#X obj 729 396 *;
#X obj 705 328 t f b;
#X obj 698 464 /;
#X msg 884 211 0;
#X text 499 302 mean (as seen on idafx blog);
#X obj 906 259 bng 15 250 50 0 empty empty empty 17 7 0 10 -262144
-1 -1;
#X obj 864 324 t f f;
#X obj 921 503 moses 0.1;
#X text 880 303 reset;
#X obj 870 366 /;
#X obj 849 431 < 0.75;
#X obj 903 435 > 1.25;
#X obj 869 391 t f f;
#X obj 877 471 ||;
#X obj 174 54 t b b b;
#X obj 43 -7 inlet;
#X obj 107 -11 inlet;
#X connect 0 0 1 1;
#X connect 0 0 32 0;
#X connect 0 0 26 0;
#X connect 1 0 0 0;
#X connect 2 0 4 0;
#X connect 3 0 15 0;
#X connect 4 0 3 1;
#X connect 5 0 6 0;
#X connect 6 0 8 0;
#X connect 7 0 5 0;
#X connect 7 1 6 1;
#X connect 8 0 11 1;
#X connect 8 0 30 0;
#X connect 9 0 10 0;
#X connect 9 1 1 0;
#X connect 10 0 1 0;
#X connect 11 0 4 1;
#X connect 12 0 3 0;
#X connect 12 1 2 0;
#X connect 12 2 15 1;
#X connect 13 0 11 0;
#X connect 14 0 9 0;
#X connect 15 0 21 0;
#X connect 16 0 64 0;
#X connect 17 0 18 0;
#X connect 17 0 25 1;
#X connect 18 0 19 0;
#X connect 19 0 17 0;
#X connect 20 0 14 0;
#X connect 20 0 25 0;
#X connect 24 0 37 0;
#X connect 25 0 7 0;
#X connect 25 0 22 0;
#X connect 30 0 10 1;
#X connect 32 0 33 0;
#X connect 33 0 34 0;
#X connect 34 0 12 0;
#X connect 36 0 37 1;
#X connect 36 0 38 0;
#X connect 37 0 36 0;
#X connect 38 0 40 0;
#X connect 38 1 41 0;
#X connect 39 0 44 0;
#X connect 39 0 56 0;
#X connect 40 0 39 0;
#X connect 41 0 39 0;
#X connect 41 1 39 1;
#X connect 42 0 45 0;
#X connect 43 0 42 0;
#X connect 44 0 43 0;
#X connect 44 1 42 1;
#X connect 45 1 51 0;
#X connect 47 0 48 0;
#X connect 47 0 50 0;
#X connect 48 0 47 1;
#X connect 48 0 52 1;
#X connect 49 0 52 0;
#X connect 50 0 49 1;
#X connect 51 0 49 0;
#X connect 51 1 47 0;
#X connect 52 0 50 1;
#X connect 52 0 17 0;
#X connect 53 0 47 1;
#X connect 53 0 37 1;
#X connect 53 0 55 0;
#X connect 56 0 59 1;
#X connect 56 1 59 0;
#X connect 57 1 53 0;
#X connect 59 0 62 0;
#X connect 60 0 63 0;
#X connect 61 0 63 1;
#X connect 62 0 60 0;
#X connect 62 1 61 0;
#X connect 63 0 57 0;
#X connect 64 0 20 0;
#X connect 64 1 20 0;
#X connect 64 2 19 0;
#X connect 65 0 20 0;
#X connect 66 0 24 0;
#X coords 0 -1 1 1 120 40 1 100 100;
#X restore 3 -120 pd 16counter;
#X obj 11 -32 bng 15 250 50 0 empty empty empty 17 7 0 10 -262144 -1
-1;
#N canvas 64 102 954 630 poly_blip1 0;
#N canvas 42 139 517 419 blip 0;
#X obj 120 253 osc~;
#X obj 181 251 vline~;
#X obj 169 286 *~;
#X obj 137 342 *~;
#X obj 137 369 outlet~;
#X obj 104 117 mtof;
#X obj 301 42 inlet;
#X obj 103 82 unpack f f;
#X obj 184 117 t b f;
#X obj 104 35 inlet;
#X msg 180 216 1 2 0 \, 0 \$1 3;
#X obj 182 320 *~;
#X obj 166 158 float;
#X connect 0 0 3 0;
#X connect 1 0 2 0;
#X connect 1 0 2 1;
#X connect 2 0 11 0;
#X connect 3 0 4 0;
#X connect 5 0 0 0;
#X connect 6 0 12 1;
#X connect 7 0 5 0;
#X connect 7 1 8 0;
#X connect 8 0 12 0;
#X connect 8 1 11 1;
#X connect 9 0 7 0;
#X connect 10 0 1 0;
#X connect 11 0 3 1;
#X connect 12 0 10 0;
#X restore 82 277 pd blip;
#X obj 242 -41 inlet;
#X obj 106 117 hsl 100 8 10 1000 1 1 empty empty decay 2 5 0 10 -262144
-1 -1 8200 1;
#X obj 321 160 pack 0 0 0;
#X obj 315 106 poly 16 1;
#X obj 405 -31 inlet;
#X obj 319 181 route 1 2 3 4 5 6 7 8 9 10 11 12 13 14 15 16;
#N canvas 42 139 517 419 blip 0;
#X obj 120 253 osc~;
#X obj 181 251 vline~;
#X obj 169 286 *~;
#X obj 137 342 *~;
#X obj 137 369 outlet~;
#X obj 104 117 mtof;
#X obj 301 42 inlet;
#X obj 103 82 unpack f f;
#X obj 184 117 t b f;
#X obj 104 35 inlet;
#X msg 180 216 1 2 0 \, 0 \$1 3;
#X obj 182 320 *~;
#X obj 166 158 float;
#X connect 0 0 3 0;
#X connect 1 0 2 0;
#X connect 1 0 2 1;
#X connect 2 0 11 0;
#X connect 3 0 4 0;
#X connect 5 0 0 0;
#X connect 6 0 12 1;
#X connect 7 0 5 0;
#X connect 7 1 8 0;
#X connect 8 0 12 0;
#X connect 8 1 11 1;
#X connect 9 0 7 0;
#X connect 10 0 1 0;
#X connect 11 0 3 1;
#X connect 12 0 10 0;
#X restore 148 277 pd blip;
#N canvas 42 139 517 419 blip 0;
#X obj 120 253 osc~;
#X obj 181 251 vline~;
#X obj 169 286 *~;
#X obj 137 342 *~;
#X obj 137 369 outlet~;
#X obj 104 117 mtof;
#X obj 301 42 inlet;
#X obj 103 82 unpack f f;
#X obj 184 117 t b f;
#X obj 104 35 inlet;
#X msg 180 216 1 2 0 \, 0 \$1 3;
#X obj 182 320 *~;
#X obj 166 158 float;
#X connect 0 0 3 0;
#X connect 1 0 2 0;
#X connect 1 0 2 1;
#X connect 2 0 11 0;
#X connect 3 0 4 0;
#X connect 5 0 0 0;
#X connect 6 0 12 1;
#X connect 7 0 5 0;
#X connect 7 1 8 0;
#X connect 8 0 12 0;
#X connect 8 1 11 1;
#X connect 9 0 7 0;
#X connect 10 0 1 0;
#X connect 11 0 3 1;
#X connect 12 0 10 0;
#X restore 208 278 pd blip;
#N canvas 42 139 517 419 blip 0;
#X obj 120 253 osc~;
#X obj 181 251 vline~;
#X obj 169 286 *~;
#X obj 137 342 *~;
#X obj 137 369 outlet~;
#X obj 104 117 mtof;
#X obj 301 42 inlet;
#X obj 103 82 unpack f f;
#X obj 184 117 t b f;
#X obj 104 35 inlet;
#X msg 180 216 1 2 0 \, 0 \$1 3;
#X obj 182 320 *~;
#X obj 166 158 float;
#X connect 0 0 3 0;
#X connect 1 0 2 0;
#X connect 1 0 2 1;
#X connect 2 0 11 0;
#X connect 3 0 4 0;
#X connect 5 0 0 0;
#X connect 6 0 12 1;
#X connect 7 0 5 0;
#X connect 7 1 8 0;
#X connect 8 0 12 0;
#X connect 8 1 11 1;
#X connect 9 0 7 0;
#X connect 10 0 1 0;
#X connect 11 0 3 1;
#X connect 12 0 10 0;
#X restore 274 278 pd blip;
#N canvas 42 139 517 419 blip 0;
#X obj 120 253 osc~;
#X obj 181 251 vline~;
#X obj 169 286 *~;
#X obj 137 342 *~;
#X obj 137 369 outlet~;
#X obj 104 117 mtof;
#X obj 301 42 inlet;
#X obj 103 82 unpack f f;
#X obj 184 117 t b f;
#X obj 104 35 inlet;
#X msg 180 216 1 2 0 \, 0 \$1 3;
#X obj 182 320 *~;
#X obj 166 158 float;
#X connect 0 0 3 0;
#X connect 1 0 2 0;
#X connect 1 0 2 1;
#X connect 2 0 11 0;
#X connect 3 0 4 0;
#X connect 5 0 0 0;
#X connect 6 0 12 1;
#X connect 7 0 5 0;
#X connect 7 1 8 0;
#X connect 8 0 12 0;
#X connect 8 1 11 1;
#X connect 9 0 7 0;
#X connect 10 0 1 0;
#X connect 11 0 3 1;
#X connect 12 0 10 0;
#X restore 337 282 pd blip;
#N canvas 42 139 517 419 blip 0;
#X obj 120 253 osc~;
#X obj 181 251 vline~;
#X obj 169 286 *~;
#X obj 137 342 *~;
#X obj 137 369 outlet~;
#X obj 104 117 mtof;
#X obj 301 42 inlet;
#X obj 103 82 unpack f f;
#X obj 184 117 t b f;
#X obj 104 35 inlet;
#X msg 180 216 1 2 0 \, 0 \$1 3;
#X obj 182 320 *~;
#X obj 166 158 float;
#X connect 0 0 3 0;
#X connect 1 0 2 0;
#X connect 1 0 2 1;
#X connect 2 0 11 0;
#X connect 3 0 4 0;
#X connect 5 0 0 0;
#X connect 6 0 12 1;
#X connect 7 0 5 0;
#X connect 7 1 8 0;
#X connect 8 0 12 0;
#X connect 8 1 11 1;
#X connect 9 0 7 0;
#X connect 10 0 1 0;
#X connect 11 0 3 1;
#X connect 12 0 10 0;
#X restore 403 282 pd blip;
#N canvas 42 139 517 419 blip 0;
#X obj 120 253 osc~;
#X obj 181 251 vline~;
#X obj 169 286 *~;
#X obj 137 342 *~;
#X obj 137 369 outlet~;
#X obj 104 117 mtof;
#X obj 301 42 inlet;
#X obj 103 82 unpack f f;
#X obj 184 117 t b f;
#X obj 104 35 inlet;
#X msg 180 216 1 2 0 \, 0 \$1 3;
#X obj 182 320 *~;
#X obj 166 158 float;
#X connect 0 0 3 0;
#X connect 1 0 2 0;
#X connect 1 0 2 1;
#X connect 2 0 11 0;
#X connect 3 0 4 0;
#X connect 5 0 0 0;
#X connect 6 0 12 1;
#X connect 7 0 5 0;
#X connect 7 1 8 0;
#X connect 8 0 12 0;
#X connect 8 1 11 1;
#X connect 9 0 7 0;
#X connect 10 0 1 0;
#X connect 11 0 3 1;
#X connect 12 0 10 0;
#X restore 463 283 pd blip;
#N canvas 42 139 517 419 blip 0;
#X obj 120 253 osc~;
#X obj 181 251 vline~;
#X obj 169 286 *~;
#X obj 137 342 *~;
#X obj 137 369 outlet~;
#X obj 104 117 mtof;
#X obj 301 42 inlet;
#X obj 103 82 unpack f f;
#X obj 184 117 t b f;
#X obj 104 35 inlet;
#X msg 180 216 1 2 0 \, 0 \$1 3;
#X obj 182 320 *~;
#X obj 166 158 float;
#X connect 0 0 3 0;
#X connect 1 0 2 0;
#X connect 1 0 2 1;
#X connect 2 0 11 0;
#X connect 3 0 4 0;
#X connect 5 0 0 0;
#X connect 6 0 12 1;
#X connect 7 0 5 0;
#X connect 7 1 8 0;
#X connect 8 0 12 0;
#X connect 8 1 11 1;
#X connect 9 0 7 0;
#X connect 10 0 1 0;
#X connect 11 0 3 1;
#X connect 12 0 10 0;
#X restore 529 283 pd blip;
#X obj 178 566 outlet~;
#N canvas 42 139 517 419 blip 0;
#X obj 120 253 osc~;
#X obj 181 251 vline~;
#X obj 169 286 *~;
#X obj 137 342 *~;
#X obj 137 369 outlet~;
#X obj 104 117 mtof;
#X obj 301 42 inlet;
#X obj 103 82 unpack f f;
#X obj 184 117 t b f;
#X obj 104 35 inlet;
#X msg 180 216 1 2 0 \, 0 \$1 3;
#X obj 182 320 *~;
#X obj 166 158 float;
#X connect 0 0 3 0;
#X connect 1 0 2 0;
#X connect 1 0 2 1;
#X connect 2 0 11 0;
#X connect 3 0 4 0;
#X connect 5 0 0 0;
#X connect 6 0 12 1;
#X connect 7 0 5 0;
#X connect 7 1 8 0;
#X connect 8 0 12 0;
#X connect 8 1 11 1;
#X connect 9 0 7 0;
#X connect 10 0 1 0;
#X connect 11 0 3 1;
#X connect 12 0 10 0;
#X restore 117 332 pd blip;
#N canvas 42 139 517 419 blip 0;
#X obj 120 253 osc~;
#X obj 181 251 vline~;
#X obj 169 286 *~;
#X obj 137 342 *~;
#X obj 137 369 outlet~;
#X obj 104 117 mtof;
#X obj 301 42 inlet;
#X obj 103 82 unpack f f;
#X obj 184 117 t b f;
#X obj 104 35 inlet;
#X msg 180 216 1 2 0 \, 0 \$1 3;
#X obj 182 320 *~;
#X obj 166 158 float;
#X connect 0 0 3 0;
#X connect 1 0 2 0;
#X connect 1 0 2 1;
#X connect 2 0 11 0;
#X connect 3 0 4 0;
#X connect 5 0 0 0;
#X connect 6 0 12 1;
#X connect 7 0 5 0;
#X connect 7 1 8 0;
#X connect 8 0 12 0;
#X connect 8 1 11 1;
#X connect 9 0 7 0;
#X connect 10 0 1 0;
#X connect 11 0 3 1;
#X connect 12 0 10 0;
#X restore 183 332 pd blip;
#N canvas 42 139 517 419 blip 0;
#X obj 120 253 osc~;
#X obj 181 251 vline~;
#X obj 169 286 *~;
#X obj 137 342 *~;
#X obj 137 369 outlet~;
#X obj 104 117 mtof;
#X obj 301 42 inlet;
#X obj 103 82 unpack f f;
#X obj 184 117 t b f;
#X obj 104 35 inlet;
#X msg 180 216 1 2 0 \, 0 \$1 3;
#X obj 182 320 *~;
#X obj 166 158 float;
#X connect 0 0 3 0;
#X connect 1 0 2 0;
#X connect 1 0 2 1;
#X connect 2 0 11 0;
#X connect 3 0 4 0;
#X connect 5 0 0 0;
#X connect 6 0 12 1;
#X connect 7 0 5 0;
#X connect 7 1 8 0;
#X connect 8 0 12 0;
#X connect 8 1 11 1;
#X connect 9 0 7 0;
#X connect 10 0 1 0;
#X connect 11 0 3 1;
#X connect 12 0 10 0;
#X restore 243 333 pd blip;
#N canvas 42 139 517 419 blip 0;
#X obj 120 253 osc~;
#X obj 181 251 vline~;
#X obj 169 286 *~;
#X obj 137 342 *~;
#X obj 137 369 outlet~;
#X obj 104 117 mtof;
#X obj 301 42 inlet;
#X obj 103 82 unpack f f;
#X obj 184 117 t b f;
#X obj 104 35 inlet;
#X msg 180 216 1 2 0 \, 0 \$1 3;
#X obj 182 320 *~;
#X obj 166 158 float;
#X connect 0 0 3 0;
#X connect 1 0 2 0;
#X connect 1 0 2 1;
#X connect 2 0 11 0;
#X connect 3 0 4 0;
#X connect 5 0 0 0;
#X connect 6 0 12 1;
#X connect 7 0 5 0;
#X connect 7 1 8 0;
#X connect 8 0 12 0;
#X connect 8 1 11 1;
#X connect 9 0 7 0;
#X connect 10 0 1 0;
#X connect 11 0 3 1;
#X connect 12 0 10 0;
#X restore 309 333 pd blip;
#N canvas 42 139 517 419 blip 0;
#X obj 120 253 osc~;
#X obj 181 251 vline~;
#X obj 169 286 *~;
#X obj 137 342 *~;
#X obj 137 369 outlet~;
#X obj 104 117 mtof;
#X obj 301 42 inlet;
#X obj 103 82 unpack f f;
#X obj 184 117 t b f;
#X obj 104 35 inlet;
#X msg 180 216 1 2 0 \, 0 \$1 3;
#X obj 182 320 *~;
#X obj 166 158 float;
#X connect 0 0 3 0;
#X connect 1 0 2 0;
#X connect 1 0 2 1;
#X connect 2 0 11 0;
#X connect 3 0 4 0;
#X connect 5 0 0 0;
#X connect 6 0 12 1;
#X connect 7 0 5 0;
#X connect 7 1 8 0;
#X connect 8 0 12 0;
#X connect 8 1 11 1;
#X connect 9 0 7 0;
#X connect 10 0 1 0;
#X connect 11 0 3 1;
#X connect 12 0 10 0;
#X restore 372 337 pd blip;
#N canvas 42 139 517 419 blip 0;
#X obj 120 253 osc~;
#X obj 181 251 vline~;
#X obj 169 286 *~;
#X obj 137 342 *~;
#X obj 137 369 outlet~;
#X obj 104 117 mtof;
#X obj 301 42 inlet;
#X obj 103 82 unpack f f;
#X obj 184 117 t b f;
#X obj 104 35 inlet;
#X msg 180 216 1 2 0 \, 0 \$1 3;
#X obj 182 320 *~;
#X obj 166 158 float;
#X connect 0 0 3 0;
#X connect 1 0 2 0;
#X connect 1 0 2 1;
#X connect 2 0 11 0;
#X connect 3 0 4 0;
#X connect 5 0 0 0;
#X connect 6 0 12 1;
#X connect 7 0 5 0;
#X connect 7 1 8 0;
#X connect 8 0 12 0;
#X connect 8 1 11 1;
#X connect 9 0 7 0;
#X connect 10 0 1 0;
#X connect 11 0 3 1;
#X connect 12 0 10 0;
#X restore 438 337 pd blip;
#N canvas 42 139 517 419 blip 0;
#X obj 120 253 osc~;
#X obj 181 251 vline~;
#X obj 169 286 *~;
#X obj 137 342 *~;
#X obj 137 369 outlet~;
#X obj 104 117 mtof;
#X obj 301 42 inlet;
#X obj 103 82 unpack f f;
#X obj 184 117 t b f;
#X obj 104 35 inlet;
#X msg 180 216 1 2 0 \, 0 \$1 3;
#X obj 182 320 *~;
#X obj 166 158 float;
#X connect 0 0 3 0;
#X connect 1 0 2 0;
#X connect 1 0 2 1;
#X connect 2 0 11 0;
#X connect 3 0 4 0;
#X connect 5 0 0 0;
#X connect 6 0 12 1;
#X connect 7 0 5 0;
#X connect 7 1 8 0;
#X connect 8 0 12 0;
#X connect 8 1 11 1;
#X connect 9 0 7 0;
#X connect 10 0 1 0;
#X connect 11 0 3 1;
#X connect 12 0 10 0;
#X restore 498 338 pd blip;
#N canvas 42 139 517 419 blip 0;
#X obj 120 253 osc~;
#X obj 181 251 vline~;
#X obj 169 286 *~;
#X obj 137 342 *~;
#X obj 137 369 outlet~;
#X obj 104 117 mtof;
#X obj 301 42 inlet;
#X obj 103 82 unpack f f;
#X obj 184 117 t b f;
#X obj 104 35 inlet;
#X msg 180 216 1 2 0 \, 0 \$1 3;
#X obj 182 320 *~;
#X obj 166 158 float;
#X connect 0 0 3 0;
#X connect 1 0 2 0;
#X connect 1 0 2 1;
#X connect 2 0 11 0;
#X connect 3 0 4 0;
#X connect 5 0 0 0;
#X connect 6 0 12 1;
#X connect 7 0 5 0;
#X connect 7 1 8 0;
#X connect 8 0 12 0;
#X connect 8 1 11 1;
#X connect 9 0 7 0;
#X connect 10 0 1 0;
#X connect 11 0 3 1;
#X connect 12 0 10 0;
#X restore 564 338 pd blip;
#X obj 302 17 pack f f;
#X obj 377 132 / 128;
#X obj 302 41 stripnote;
#X obj 307 69 pack f f;
#X obj 181 535 *~ 0.3;
#X connect 0 0 27 0;
#X connect 1 0 23 0;
#X connect 2 0 0 1;
#X connect 2 0 7 1;
#X connect 2 0 8 1;
#X connect 2 0 9 1;
#X connect 2 0 10 1;
#X connect 2 0 11 1;
#X connect 2 0 12 1;
#X connect 2 0 13 1;
#X connect 2 0 15 1;
#X connect 2 0 16 1;
#X connect 2 0 17 1;
#X connect 2 0 18 1;
#X connect 2 0 19 1;
#X connect 2 0 20 1;
#X connect 2 0 21 1;
#X connect 2 0 22 1;
#X connect 3 0 6 0;
#X connect 4 0 3 0;
#X connect 4 1 3 1;
#X connect 4 2 24 0;
#X connect 5 0 23 1;
#X connect 6 0 0 0;
#X connect 6 1 7 0;
#X connect 6 2 8 0;
#X connect 6 3 9 0;
#X connect 6 4 10 0;
#X connect 6 5 11 0;
#X connect 6 6 12 0;
#X connect 6 7 13 0;
#X connect 6 8 15 0;
#X connect 6 9 16 0;
#X connect 6 10 17 0;
#X connect 6 11 18 0;
#X connect 6 12 19 0;
#X connect 6 13 20 0;
#X connect 6 14 21 0;
#X connect 6 15 22 0;
#X connect 7 0 27 0;
#X connect 8 0 27 0;
#X connect 9 0 27 0;
#X connect 10 0 27 0;
#X connect 11 0 27 0;
#X connect 12 0 27 0;
#X connect 13 0 27 0;
#X connect 15 0 27 0;
#X connect 16 0 27 0;
#X connect 17 0 27 0;
#X connect 18 0 27 0;
#X connect 19 0 27 0;
#X connect 20 0 27 0;
#X connect 21 0 27 0;
#X connect 22 0 27 0;
#X connect 23 0 25 0;
#X connect 24 0 3 2;
#X connect 25 0 26 0;
#X connect 25 1 26 1;
#X connect 26 0 4 0;
#X connect 27 0 14 0;
#X coords 0 -1 1 1 110 30 1 100 100;
#X restore 52 297 pd poly_blip1;
#X obj 146 390 dac~;
#X obj 154 359 *~ 0.5;
#X obj 82 197 r \$0notes;
#X obj 79 218 t b f;
#X msg 58 248 64;
#X obj 3 -72 s \$0pos;
#X obj 222 66 t b b;
#N canvas 831 408 543 424 node 0;
#X obj 103 114 nbx 3 14 0 128 0 1 empty empty empty 0 -8 0 10 -262144
-1 -1 4 256;
#X obj 141 114 nbx 3 14 0 128 0 1 empty empty empty 0 -8 0 10 -262144
-1 -1 83 256;
#X obj 34 -73 inlet;
#X obj 217 -24 inlet;
#X obj 14 300 outlet;
#X obj 168 302 outlet;
#X obj 39 -13 t b b;
#X msg 272 39 1;
#X obj 197 171 int;
#X obj 223 171 + 1;
#X obj 197 143 t b;
#X obj 204 193 >=;
#X obj 212 231 select 1;
#X msg 290 95 0;
#X obj 220 92 spigot 0;
#X obj 168 277 float;
#X text 261 -24 metro-in;
#X text 85 -77 trig in;
#X obj 36 -39 spigot 1;
#X msg 98 -35 1;
#X obj 137 65 /;
#X obj 162 103 hsl 12 8 0 1 0 0 empty empty empty -2 -8 0 10 -166441
-1 -262144 1100 1;
#X msg 369 143 color 0;
#X msg 354 25 color 1;
#X msg 45 115 0;
#X obj 352 92 delay 150;
#X msg 333 122 0;
#X text 217 301 note out;
#X text 61 301 trig out;
#X text 101 129 delay;
#X text 139 129 note value;
#X connect 0 0 11 1;
#X connect 0 0 20 1;
#X connect 1 0 15 1;
#X connect 2 0 18 0;
#X connect 3 0 14 0;
#X connect 6 0 24 0;
#X connect 6 1 7 0;
#X connect 7 0 14 1;
#X connect 8 0 9 0;
#X connect 8 0 11 0;
#X connect 8 0 20 0;
#X connect 9 0 8 1;
#X connect 10 0 8 0;
#X connect 11 0 12 0;
#X connect 12 0 13 0;
#X connect 12 0 4 0;
#X connect 12 0 15 0;
#X connect 12 0 19 0;
#X connect 12 0 23 0;
#X connect 12 0 25 0;
#X connect 13 0 14 1;
#X connect 14 0 10 0;
#X connect 15 0 5 0;
#X connect 18 0 6 0;
#X connect 19 0 18 1;
#X connect 20 0 21 0;
#X connect 22 0 21 0;
#X connect 23 0 21 0;
#X connect 24 0 8 1;
#X connect 24 0 18 1;
#X connect 25 0 22 0;
#X connect 25 0 26 0;
#X connect 26 0 21 0;
#X coords 0 -1 1 1 80 30 1 100 100;
#X restore 28 3 pd node;
#X obj 58 37 s \$0notes;
#X obj 67 -19 r \$0pos;
#N canvas 835 406 543 424 node 0;
#X obj 104 114 nbx 3 14 0 128 0 1 empty empty empty 0 -8 0 10 -262144
-1 -1 7 256;
#X obj 146 114 nbx 3 14 0 128 0 1 empty empty empty 0 -8 0 10 -262144
-1 -1 53 256;
#X obj 34 -73 inlet;
#X obj 217 -24 inlet;
#X obj 71 294 outlet;
#X obj 188 298 outlet;
#X obj 39 -13 t b b;
#X msg 285 50 1;
#X obj 186 175 int;
#X obj 212 175 + 1;
#X obj 223 109 t b;
#X obj 186 201 >=;
#X obj 185 228 select 1;
#X msg 291 89 0;
#X obj 224 85 spigot 0;
#X obj 187 262 float;
#X text 261 -24 metro-in;
#X text 85 -77 trig in;
#X obj 36 -39 spigot 1;
#X msg 98 -35 1;
#X obj 114 33 /;
#X obj 167 103 hsl 12 8 0 1 0 0 empty empty empty -2 -8 0 10 -262144
-1 -262144 0 1;
#X msg 350 146 color 0;
#X msg 363 27 color 1;
#X msg 51 120 0;
#X obj 359 88 delay 150;
#X msg 342 122 0;
#X connect 0 0 11 1;
#X connect 0 0 20 1;
#X connect 1 0 15 1;
#X connect 2 0 18 0;
#X connect 3 0 14 0;
#X connect 6 0 24 0;
#X connect 6 1 7 0;
#X connect 7 0 14 1;
#X connect 8 0 9 0;
#X connect 8 0 11 0;
#X connect 8 0 20 0;
#X connect 9 0 8 1;
#X connect 10 0 8 0;
#X connect 11 0 12 0;
#X connect 12 0 13 0;
#X connect 12 0 4 0;
#X connect 12 0 15 0;
#X connect 12 0 19 0;
#X connect 12 0 23 0;
#X connect 12 0 25 0;
#X connect 13 0 14 1;
#X connect 14 0 10 0;
#X connect 15 0 5 0;
#X connect 18 0 6 0;
#X connect 19 0 18 1;
#X connect 20 0 21 0;
#X connect 22 0 21 0;
#X connect 23 0 21 0;
#X connect 24 0 8 1;
#X connect 24 0 18 1;
#X connect 25 0 22 0;
#X connect 25 0 26 0;
#X connect 26 0 21 0;
#X coords 0 -1 1 1 85 30 1 100 100;
#X restore 126 4 pd node;
#X obj 153 38 s \$0notes;
#X obj 165 -18 r \$0pos;
#N canvas 837 405 543 424 node 0;
#X obj 104 114 nbx 3 14 0 128 0 1 empty empty empty 0 -8 0 10 -262144
-1 -1 6 256;
#X obj 146 114 nbx 3 14 0 128 0 1 empty empty empty 0 -8 0 10 -262144
-1 -1 43 256;
#X obj 34 -73 inlet;
#X obj 217 -24 inlet;
#X obj 71 294 outlet;
#X obj 188 298 outlet;
#X obj 39 -13 t b b;
#X msg 285 50 1;
#X obj 186 175 int;
#X obj 212 175 + 1;
#X obj 223 109 t b;
#X obj 186 201 >=;
#X obj 185 228 select 1;
#X msg 291 89 0;
#X obj 224 85 spigot 0;
#X obj 187 262 float;
#X text 261 -24 metro-in;
#X text 85 -77 trig in;
#X obj 36 -39 spigot 1;
#X msg 98 -35 1;
#X obj 114 33 /;
#X obj 167 103 hsl 12 8 0 1 0 0 empty empty empty -2 -8 0 10 -262144
-1 -262144 0 1;
#X msg 350 146 color 0;
#X msg 363 27 color 1;
#X msg 51 120 0;
#X obj 359 88 delay 150;
#X msg 342 122 0;
#X connect 0 0 11 1;
#X connect 0 0 20 1;
#X connect 1 0 15 1;
#X connect 2 0 18 0;
#X connect 3 0 14 0;
#X connect 6 0 24 0;
#X connect 6 1 7 0;
#X connect 7 0 14 1;
#X connect 8 0 9 0;
#X connect 8 0 11 0;
#X connect 8 0 20 0;
#X connect 9 0 8 1;
#X connect 10 0 8 0;
#X connect 11 0 12 0;
#X connect 12 0 13 0;
#X connect 12 0 4 0;
#X connect 12 0 15 0;
#X connect 12 0 19 0;
#X connect 12 0 23 0;
#X connect 12 0 25 0;
#X connect 13 0 14 1;
#X connect 14 0 10 0;
#X connect 15 0 5 0;
#X connect 18 0 6 0;
#X connect 19 0 18 1;
#X connect 20 0 21 0;
#X connect 22 0 21 0;
#X connect 23 0 21 0;
#X connect 24 0 8 1;
#X connect 24 0 18 1;
#X connect 25 0 22 0;
#X connect 25 0 26 0;
#X connect 26 0 21 0;
#X coords 0 -1 1 1 85 30 1 100 100;
#X restore 221 7 pd node;
#X obj 248 41 s \$0notes;
#X obj 260 -15 r \$0pos;
#N canvas 837 405 543 424 node 0;
#X obj 104 114 nbx 3 14 0 128 0 1 empty empty empty 0 -8 0 10 -262144
-1 -1 3 256;
#X obj 146 114 nbx 3 14 0 128 0 1 empty empty empty 0 -8 0 10 -262144
-1 -1 64 256;
#X obj 34 -73 inlet;
#X obj 217 -24 inlet;
#X obj 71 294 outlet;
#X obj 188 298 outlet;
#X obj 39 -13 t b b;
#X msg 285 50 1;
#X obj 186 175 int;
#X obj 212 175 + 1;
#X obj 223 109 t b;
#X obj 186 201 >=;
#X obj 185 228 select 1;
#X msg 291 89 0;
#X obj 224 85 spigot 0;
#X obj 187 262 float;
#X text 261 -24 metro-in;
#X text 85 -77 trig in;
#X obj 36 -39 spigot 1;
#X msg 98 -35 1;
#X obj 114 33 /;
#X obj 167 103 hsl 12 8 0 1 0 0 empty empty empty -2 -8 0 10 -262144
-1 -262144 367 1;
#X msg 350 146 color 0;
#X msg 363 27 color 1;
#X msg 51 120 0;
#X obj 359 88 delay 150;
#X msg 342 122 0;
#X connect 0 0 11 1;
#X connect 0 0 20 1;
#X connect 1 0 15 1;
#X connect 2 0 18 0;
#X connect 3 0 14 0;
#X connect 6 0 24 0;
#X connect 6 1 7 0;
#X connect 7 0 14 1;
#X connect 8 0 9 0;
#X connect 8 0 11 0;
#X connect 8 0 20 0;
#X connect 9 0 8 1;
#X connect 10 0 8 0;
#X connect 11 0 12 0;
#X connect 12 0 13 0;
#X connect 12 0 4 0;
#X connect 12 0 15 0;
#X connect 12 0 19 0;
#X connect 12 0 23 0;
#X connect 12 0 25 0;
#X connect 13 0 14 1;
#X connect 14 0 10 0;
#X connect 15 0 5 0;
#X connect 18 0 6 0;
#X connect 19 0 18 1;
#X connect 20 0 21 0;
#X connect 22 0 21 0;
#X connect 23 0 21 0;
#X connect 24 0 8 1;
#X connect 24 0 18 1;
#X connect 25 0 22 0;
#X connect 25 0 26 0;
#X connect 26 0 21 0;
#X coords 0 -1 1 1 85 30 1 100 100;
#X restore 222 100 pd node;
#X obj 249 134 s \$0notes;
#N canvas 835 406 543 424 node 0;
#X obj 104 114 nbx 3 14 0 128 0 1 empty empty empty 0 -8 0 10 -262144
-1 -1 6 256;
#X obj 146 114 nbx 3 14 0 128 0 1 empty empty empty 0 -8 0 10 -262144
-1 -1 69 256;
#X obj 34 -73 inlet;
#X obj 217 -24 inlet;
#X obj 71 294 outlet;
#X obj 188 298 outlet;
#X obj 39 -13 t b b;
#X msg 285 50 1;
#X obj 186 175 int;
#X obj 212 175 + 1;
#X obj 223 109 t b;
#X obj 186 201 >=;
#X obj 185 228 select 1;
#X msg 291 89 0;
#X obj 224 85 spigot 0;
#X obj 187 262 float;
#X text 261 -24 metro-in;
#X text 85 -77 trig in;
#X obj 36 -39 spigot 1;
#X msg 98 -35 1;
#X obj 114 33 /;
#X obj 167 103 hsl 12 8 0 1 0 0 empty empty empty -2 -8 0 10 -262144
-1 -262144 0 1;
#X msg 350 146 color 0;
#X msg 363 27 color 1;
#X msg 51 120 0;
#X obj 359 88 delay 150;
#X msg 342 122 0;
#X connect 0 0 11 1;
#X connect 0 0 20 1;
#X connect 1 0 15 1;
#X connect 2 0 18 0;
#X connect 3 0 14 0;
#X connect 6 0 24 0;
#X connect 6 1 7 0;
#X connect 7 0 14 1;
#X connect 8 0 9 0;
#X connect 8 0 11 0;
#X connect 8 0 20 0;
#X connect 9 0 8 1;
#X connect 10 0 8 0;
#X connect 11 0 12 0;
#X connect 12 0 13 0;
#X connect 12 0 4 0;
#X connect 12 0 15 0;
#X connect 12 0 19 0;
#X connect 12 0 23 0;
#X connect 12 0 25 0;
#X connect 13 0 14 1;
#X connect 14 0 10 0;
#X connect 15 0 5 0;
#X connect 18 0 6 0;
#X connect 19 0 18 1;
#X connect 20 0 21 0;
#X connect 22 0 21 0;
#X connect 23 0 21 0;
#X connect 24 0 8 1;
#X connect 24 0 18 1;
#X connect 25 0 22 0;
#X connect 25 0 26 0;
#X connect 26 0 21 0;
#X coords 0 -1 1 1 85 30 1 100 100;
#X restore 317 101 pd node;
#X obj 344 135 s \$0notes;
#X obj 356 77 r \$0pos;
#X text 6 -48 start;
#X text 154 -110 'cells' and nodes for sequencing;
#N canvas 558 438 450 300 click 0;
#X obj 29 43 inlet;
#X obj 26 263 outlet~;
#X obj 103 114 nbx 4 14 1 999 0 1 empty empty empty 0 -8 0 10 -262144
-1 -1 7 256;
#X obj 30 225 vline~;
#X msg 33 200 \$1 0 \, \$2 0 \, 0 \$3;
#X obj 32 172 pack -1 1 f;
#X obj 102 141 / 100;
#X obj 27 92 t f f;
#X obj 34 127 * -1;
#X connect 0 0 7 0;
#X connect 2 0 6 0;
#X connect 3 0 1 0;
#X connect 4 0 3 0;
#X connect 5 0 4 0;
#X connect 6 0 5 2;
#X connect 7 0 8 0;
#X connect 7 1 5 1;
#X connect 8 0 5 0;
#X coords 0 -1 1 1 50 30 1 100 100;
#X restore 312 267 pd click;
#X msg 295 219 1;
#X msg 396 222 0.2;
#X msg 331 220 0.5;
#X obj 395 -76 r \$0pos;
#N canvas 1 79 450 300 cell 0;
#X obj 12 51 inlet;
#X floatatom 132 116 3 0 128 0 trsh - -;
#X msg 148 32 set \$1;
#X msg 148 60 7;
#X obj 103 9 loadbang;
#X obj 183 269 outlet;
#X obj 161 126 bng 15 250 50 0 empty empty empty 17 7 0 10 -262144
-1 -1;
#X floatatom 132 133 3 0 128 0 val - -;
#X obj 12 171 int;
#X obj 50 131 + 1;
#X obj 48 208 >=;
#X obj 49 229 moses 0.1;
#X msg 12 87 bang;
#X msg 64 82 -1;
#X obj 159 169 delay 1;
#X connect 0 0 12 0;
#X connect 1 0 2 0;
#X connect 1 0 10 1;
#X connect 2 0 3 0;
#X connect 3 0 1 0;
#X connect 4 0 3 0;
#X connect 6 0 14 0;
#X connect 8 0 9 0;
#X connect 8 0 10 0;
#X connect 8 0 7 0;
#X connect 9 0 8 1;
#X connect 10 0 11 0;
#X connect 11 1 6 0;
#X connect 11 1 13 0;
#X connect 12 0 8 0;
#X connect 13 0 8 0;
#X connect 14 0 5 0;
#X coords 0 -1 1 1 80 50 1 100 100;
#X restore 527 -19 pd cell;
#N canvas 0 50 450 300 cell 0;
#X obj 12 51 inlet;
#X floatatom 132 116 3 0 128 0 trsh - -;
#X msg 148 32 set \$1;
#X msg 148 60 4;
#X obj 103 9 loadbang;
#X obj 183 269 outlet;
#X obj 161 126 bng 15 250 50 0 empty empty empty 17 7 0 10 -262144
-1 -1;
#X floatatom 132 133 3 0 128 0 val - -;
#X obj 12 171 int;
#X obj 50 131 + 1;
#X obj 48 208 >=;
#X obj 49 229 moses 0.1;
#X msg 12 87 bang;
#X msg 64 82 -1;
#X obj 159 169 delay 1;
#X connect 0 0 12 0;
#X connect 1 0 2 0;
#X connect 1 0 10 1;
#X connect 2 0 3 0;
#X connect 3 0 1 0;
#X connect 4 0 3 0;
#X connect 6 0 14 0;
#X connect 8 0 9 0;
#X connect 8 0 10 0;
#X connect 8 0 7 0;
#X connect 9 0 8 1;
#X connect 10 0 11 0;
#X connect 11 1 6 0;
#X connect 11 1 13 0;
#X connect 12 0 8 0;
#X connect 13 0 8 0;
#X connect 14 0 5 0;
#X coords 0 -1 1 1 80 50 1 100 100;
#X restore 477 57 pd cell;
#N canvas 0 50 450 300 cell 0;
#X obj 12 51 inlet;
#X floatatom 132 116 3 0 128 0 trsh - -;
#X msg 148 32 set \$1;
#X msg 148 60 3;
#X obj 103 9 loadbang;
#X obj 183 269 outlet;
#X obj 161 126 bng 15 250 50 0 empty empty empty 17 7 0 10 -262144
-1 -1;
#X floatatom 132 133 3 0 128 0 val - -;
#X obj 12 171 int;
#X obj 50 131 + 1;
#X obj 48 208 >=;
#X obj 49 229 moses 0.1;
#X msg 12 87 bang;
#X msg 64 82 -1;
#X obj 159 169 delay 1;
#X connect 0 0 12 0;
#X connect 1 0 2 0;
#X connect 1 0 10 1;
#X connect 2 0 3 0;
#X connect 3 0 1 0;
#X connect 4 0 3 0;
#X connect 6 0 14 0;
#X connect 8 0 9 0;
#X connect 8 0 10 0;
#X connect 8 0 7 0;
#X connect 9 0 8 1;
#X connect 10 0 11 0;
#X connect 11 1 6 0;
#X connect 11 1 13 0;
#X connect 12 0 8 0;
#X connect 13 0 8 0;
#X connect 14 0 5 0;
#X coords 0 -1 1 1 80 50 1 100 100;
#X restore 601 130 pd cell;
#X text 457 217 every 'cell' has a counter which is increased through
banging \, and a threshhold which causes the counter to reset and send
a bang.;
#X text 41 156 every node triggers after a delay in 1/16 and sends
ists note value;
#N canvas 0 50 450 300 cell 0;
#X obj 12 51 inlet;
#X floatatom 132 116 3 0 128 0 trsh - -;
#X msg 148 32 set \$1;
#X msg 148 60 3;
#X obj 103 9 loadbang;
#X obj 183 269 outlet;
#X obj 161 126 bng 15 250 50 0 empty empty empty 17 7 0 10 -262144
-1 -1;
#X floatatom 132 133 3 0 128 0 val - -;
#X obj 12 171 int;
#X obj 50 131 + 1;
#X obj 48 208 >=;
#X obj 49 229 moses 0.1;
#X msg 12 87 bang;
#X msg 64 82 -1;
#X obj 159 169 delay 1;
#X connect 0 0 12 0;
#X connect 1 0 2 0;
#X connect 1 0 10 1;
#X connect 2 0 3 0;
#X connect 3 0 1 0;
#X connect 4 0 3 0;
#X connect 6 0 14 0;
#X connect 8 0 9 0;
#X connect 8 0 10 0;
#X connect 8 0 7 0;
#X connect 9 0 8 1;
#X connect 10 0 11 0;
#X connect 11 1 6 0;
#X connect 11 1 13 0;
#X connect 12 0 8 0;
#X connect 13 0 8 0;
#X connect 14 0 5 0;
#X coords 0 -1 1 1 80 50 1 100 100;
#X restore 636 31 pd cell;
#X msg 362 220 0.7;
#X obj 395 -54 mod 3;
#X obj 557 -72 select 0 2;
#X connect 0 0 8 0;
#X connect 1 0 10 0;
#X connect 2 0 4 0;
#X connect 4 0 3 0;
#X connect 4 0 3 1;
#X connect 5 0 6 0;
#X connect 6 0 7 0;
#X connect 6 1 2 0;
#X connect 7 0 2 1;
#X connect 9 0 19 0;
#X connect 9 1 19 1;
#X connect 10 0 13 0;
#X connect 10 1 11 0;
#X connect 12 0 10 1;
#X connect 13 0 16 0;
#X connect 13 1 14 0;
#X connect 15 0 13 1;
#X connect 16 0 10 0;
#X connect 16 0 9 0;
#X connect 16 1 17 0;
#X connect 18 0 16 1;
#X connect 19 0 21 0;
#X connect 19 1 20 0;
#X connect 21 0 13 0;
#X connect 21 1 22 0;
#X connect 23 0 21 1;
#X connect 26 0 4 0;
#X connect 27 0 26 0;
#X connect 28 0 26 0;
#X connect 29 0 26 0;
#X connect 30 0 38 0;
#X connect 31 0 32 0;
#X connect 31 0 37 0;
#X connect 32 0 33 0;
#X connect 32 0 29 0;
#X connect 33 0 31 0;
#X connect 33 0 27 0;
#X connect 33 0 32 0;
#X connect 33 0 36 0;
#X connect 36 0 31 0;
#X connect 36 0 33 0;
#X connect 36 0 28 0;
#X connect 37 0 26 0;
#X connect 38 0 39 0;
#X connect 39 0 31 0;
#X connect 39 1 36 0;
