#N canvas 275 451 451 275 10;
#X obj -210 -110 dac~;
#X obj -230 -273 ctlin 81;
#X obj -164 -272 ctlin 82;
#X obj -165 -251 / 2;
#X text -232 -289 nanopad-x;
#X text -161 -290 nanopad-y;
#N canvas 255 190 1540 858 clustersynth128 0;
#X obj 262 180 tgl 15 0 empty empty empty 17 7 0 10 -262144 -1 -1 0
1;
#X obj 289 180 nbx 5 14 10 200 0 1 empty empty dens_(ms) 0 -8 0 10
-262144 -1 -1 41 256;
#X obj 104 131 nbx 5 14 0 127 0 1 empty empty pitch_ctr 0 -8 0 10 -262144
-1 -1 0 256;
#X obj 169 131 nbx 5 14 0 64 0 1 empty empty pitch_rg 0 -8 0 10 -262144
-1 -1 0 256;
#X obj 232 145 nbx 5 14 10 10000 0 1 empty empty dur(ms) 0 -8 0 10
-262144 -1 -1 2000 256;
#X obj 290 145 nbx 5 14 10 5000 0 1 empty empty ramp(ms) 0 -8 0 10
-262144 -1 -1 20 256;
#X obj 105 162 nbx 5 14 0 100 0 1 empty empty pan_ctr 0 -8 0 10 -262144
-1 -1 50 256;
#X obj 170 162 nbx 5 14 0 50 0 1 empty empty pan_rg 0 -8 0 10 -262144
-1 -1 50 256;
#X obj 148 401 outlet~;
#X obj 315 402 outlet~;
#X text 353 73 7/2011 martin brinkmann;
#X obj 116 -2 inlet;
#X obj 168 -2 inlet;
#X obj 296 -2 inlet;
#X obj 348 -2 inlet;
#X obj 219 -2 inlet;
#X obj 220 32 clip 0 1;
#X obj 220 57 int;
#X text 351 56 tabosc-clusters with up to 128 voices;
#X obj 171 182 hradio 15 1 1 4 empty empty wave -25 7 0 10 -262144
-1 -1 0;
#X obj 426 0 inlet;
#X obj 171 344 abs_clustersynth128;
#X connect 0 0 21 6;
#X connect 1 0 21 8;
#X connect 2 0 21 0;
#X connect 3 0 21 2;
#X connect 4 0 21 5;
#X connect 5 0 21 7;
#X connect 6 0 21 1;
#X connect 7 0 21 3;
#X connect 11 0 2 0;
#X connect 12 0 3 0;
#X connect 13 0 6 0;
#X connect 14 0 7 0;
#X connect 15 0 16 0;
#X connect 16 0 17 0;
#X connect 17 0 0 0;
#X connect 19 0 21 4;
#X connect 20 0 1 0;
#X connect 21 0 8 0;
#X connect 21 1 9 0;
#X coords 0 -1 1 1 250 100 1 100 100;
#X restore -224 -223 pd clustersynth128;
#X connect 1 0 6 0;
#X connect 2 0 3 0;
#X connect 3 0 6 1;
#X connect 6 0 0 0;
#X connect 6 1 0 1;
