#N canvas 71 134 698 566 10;
#X obj 57 310 dac~;
#N canvas 281 117 811 736 cymbalsynth1 0;
#X obj 446 356 line~;
#X obj 436 389 *~;
#X msg 443 297 0 12.96;
#X msg 357 254 set 0 \$1;
#X obj 270 45 moses 0.1;
#N canvas 579 303 450 300 cymbalosc 0;
#X obj 27 115 osc~;
#X obj 27 140 *~ 1000;
#X obj 27 174 clip~ -1 1;
#X obj 109 114 osc~;
#X obj 109 138 *~ 1000;
#X obj 116 188 clip~ -1 1;
#X obj 116 163 +~ 500;
#X obj 29 93 +~;
#X obj 23 255 outlet~;
#X obj 60 63 *~;
#X obj 3 44 inlet;
#X obj 93 44 inlet;
#X obj 145 78 inlet;
#X connect 0 0 1 0;
#X connect 1 0 2 0;
#X connect 2 0 8 0;
#X connect 3 0 4 0;
#X connect 4 0 6 0;
#X connect 5 0 9 0;
#X connect 6 0 5 0;
#X connect 7 0 0 0;
#X connect 9 0 7 1;
#X connect 10 0 7 0;
#X connect 11 0 9 1;
#X connect 12 0 3 0;
#X restore -53 330 pd cymbalosc;
#X obj 152 508 bp~ 1600 7;
#X obj 265 515 hip~ 3000;
#X obj 556 363 line~;
#X obj 531 388 *~;
#X msg 656 295 0 27;
#X msg 652 256 set 0 \$1;
#X obj 154 474 *~;
#X obj 268 460 *~;
#X obj -38 -160 inlet;
#X obj 213 689 outlet~;
#X obj 189 638 *~;
#X obj 274 644 *~;
#X msg 506 283 1;
#X obj 330 619 *;
#X obj 104 127 nbx 5 14 1 2000 0 1 empty empty dec-s 0 -5 0 10 -262144
-1 -1 27 256;
#X obj 224 127 nbx 5 14 100 5000 0 1 empty empty dec-l 0 -5 0 10 -262144
-1 -1 438 256;
#X obj 161 127 nbx 3 14 1 128 0 1 empty empty m-l 0 -5 0 10 -262144
-1 -1 48 256;
#X obj 281 127 nbx 3 14 1 128 0 1 empty empty m-h 0 -5 0 10 -262144
-1 -1 65 256;
#X obj 333 138 / 128;
#X obj 220 613 *;
#X obj 280 181 nbx 3 14 0 99 0 1 empty empty hi-lo 0 -5 0 10 -262144
-1 -1 49 256;
#X obj 280 209 / 100;
#X obj 227 245 t b f;
#X obj 226 294 -;
#X msg 208 269 1;
#X obj 280 154 nbx 3 14 0 99 0 1 empty empty sh-lg 0 -5 0 10 -262144
-1 -1 48 256;
#X obj 351 173 / 100;
#X obj 486 121 float;
#X obj 358 219 *;
#X obj 422 81 t b b b;
#N canvas 0 0 450 300 valmix 0;
#X obj 129 137 +;
#X obj 115 108 *;
#X obj 163 110 *;
#X msg 4 6 1;
#X obj 6 29 -;
#X obj 128 168 outlet;
#X obj 73 3 inlet;
#X obj 5 -69 inlet;
#X obj 123 4 inlet;
#X obj 12 -29 t f b f;
#X connect 0 0 5 0;
#X connect 1 0 0 0;
#X connect 2 0 0 1;
#X connect 3 0 4 0;
#X connect 4 0 2 0;
#X connect 6 0 1 1;
#X connect 7 0 9 0;
#X connect 8 0 2 1;
#X connect 9 0 1 0;
#X connect 9 1 3 0;
#X connect 9 2 4 1;
#X restore 245 75 pd valmix;
#N canvas 0 0 450 300 range1_0 0;
#X obj 65 87 inlet;
#X obj 122 88 inlet;
#X obj 176 88 inlet;
#X obj 115 278 outlet;
#X obj 91 141 clip;
#X obj 116 172 -;
#X obj 153 190 -;
#X obj 116 233 /;
#X connect 0 0 4 0;
#X connect 1 0 4 1;
#X connect 1 0 5 1;
#X connect 1 0 6 1;
#X connect 2 0 4 2;
#X connect 2 0 6 0;
#X connect 4 0 5 0;
#X connect 5 0 7 0;
#X connect 6 0 7 1;
#X connect 7 0 3 0;
#X restore 66 35 pd range1_0;
#X obj 151 412 hip~ 1000;
#X obj 104 180 nbx 5 14 0 5000 0 1 empty empty empty 0 -8 0 10 -262144
-1 -1 4646 256;
#X obj 104 145 nbx 5 14 0 5000 0 1 empty empty empty 0 -8 0 10 -262144
-1 -1 1836 256;
#X obj 104 162 nbx 5 14 0 5000 0 1 empty empty empty 0 -8 0 10 -262144
-1 -1 2503 256;
#N canvas 579 303 450 300 cymbalosc 0;
#X obj 27 115 osc~;
#X obj 27 140 *~ 1000;
#X obj 27 174 clip~ -1 1;
#X obj 109 114 osc~;
#X obj 109 138 *~ 1000;
#X obj 116 188 clip~ -1 1;
#X obj 116 163 +~ 500;
#X obj 29 93 +~;
#X obj 23 255 outlet~;
#X obj 60 63 *~;
#X obj 3 44 inlet;
#X obj 93 44 inlet;
#X obj 145 78 inlet;
#X connect 0 0 1 0;
#X connect 1 0 2 0;
#X connect 2 0 8 0;
#X connect 3 0 4 0;
#X connect 4 0 6 0;
#X connect 5 0 9 0;
#X connect 6 0 5 0;
#X connect 7 0 0 0;
#X connect 9 0 7 1;
#X connect 10 0 7 0;
#X connect 11 0 9 1;
#X connect 12 0 3 0;
#X restore 57 309 pd cymbalosc;
#X obj 162 180 nbx 5 14 0 5000 0 1 empty empty empty 0 -8 0 10 -262144
-1 -1 533 256;
#X obj 162 145 nbx 5 14 0 5000 0 1 empty empty empty 0 -8 0 10 -262144
-1 -1 1073 256;
#X obj 162 162 nbx 5 14 0 5000 0 1 empty empty empty 0 -8 0 10 -262144
-1 -1 2120 256;
#X obj 53 378 *~ 0.25;
#N canvas 579 303 450 300 cymbalosc 0;
#X obj 27 115 osc~;
#X obj 27 140 *~ 1000;
#X obj 27 174 clip~ -1 1;
#X obj 109 114 osc~;
#X obj 109 138 *~ 1000;
#X obj 116 188 clip~ -1 1;
#X obj 116 163 +~ 500;
#X obj 29 93 +~;
#X obj 23 255 outlet~;
#X obj 60 63 *~;
#X obj 3 44 inlet;
#X obj 93 44 inlet;
#X obj 145 78 inlet;
#X connect 0 0 1 0;
#X connect 1 0 2 0;
#X connect 2 0 8 0;
#X connect 3 0 4 0;
#X connect 4 0 6 0;
#X connect 5 0 9 0;
#X connect 6 0 5 0;
#X connect 7 0 0 0;
#X connect 9 0 7 1;
#X connect 10 0 7 0;
#X connect 11 0 9 1;
#X connect 12 0 3 0;
#X restore 131 346 pd cymbalosc;
#X obj 220 180 nbx 5 14 0 5000 0 1 empty empty empty 0 -8 0 10 -262144
-1 -1 2025 256;
#X obj 220 145 nbx 5 14 0 5000 0 1 empty empty empty 0 -8 0 10 -262144
-1 -1 2137 256;
#X obj 220 162 nbx 5 14 0 5000 0 1 empty empty empty 0 -8 0 10 -262144
-1 -1 683 256;
#X obj 24 -41 pack 0 0;
#X obj 56 -13 unpack f f;
#X obj -35 -112 moses;
#X obj -32 -86 moses;
#X obj 74 -71 inlet;
#X obj 176 5 pipe 1;
#X obj -114 30 random 5000;
#X obj -115 52 random 5000;
#X obj -114 82 random 5000;
#X obj 203 127 bng 15 250 50 0 empty empty empty 17 7 0 10 -261682
-1 -1;
#X obj -77 154 random 5000;
#X obj -78 176 random 5000;
#X obj -77 206 random 5000;
#X obj -63 233 random 5000;
#X obj -64 255 random 5000;
#X obj -63 285 random 5000;
#X connect 0 0 1 0;
#X connect 0 0 1 1;
#X connect 1 0 12 1;
#X connect 2 0 0 0;
#X connect 3 0 2 0;
#X connect 4 1 24 0;
#X connect 4 1 35 0;
#X connect 5 0 46 0;
#X connect 6 0 16 0;
#X connect 7 0 17 0;
#X connect 8 0 9 0;
#X connect 8 0 9 1;
#X connect 9 0 13 1;
#X connect 10 0 8 0;
#X connect 11 0 10 0;
#X connect 12 0 6 0;
#X connect 13 0 7 0;
#X connect 14 0 53 0;
#X connect 16 0 15 0;
#X connect 17 0 15 0;
#X connect 18 0 0 0;
#X connect 18 0 8 0;
#X connect 19 0 17 1;
#X connect 20 0 36 2;
#X connect 21 0 36 1;
#X connect 22 0 37 1;
#X connect 22 0 53 1;
#X connect 23 0 37 2;
#X connect 23 0 54 1;
#X connect 24 0 19 0;
#X connect 24 0 25 0;
#X connect 25 0 16 1;
#X connect 26 0 27 0;
#X connect 27 0 19 1;
#X connect 27 0 28 0;
#X connect 28 0 30 0;
#X connect 28 1 29 1;
#X connect 29 0 25 1;
#X connect 30 0 29 0;
#X connect 31 0 32 0;
#X connect 32 0 34 1;
#X connect 33 0 34 0;
#X connect 33 0 11 0;
#X connect 34 0 3 0;
#X connect 35 0 2 0;
#X connect 35 0 10 0;
#X connect 35 1 18 0;
#X connect 35 2 33 0;
#X connect 36 0 33 0;
#X connect 37 0 36 0;
#X connect 38 0 12 0;
#X connect 38 0 13 0;
#X connect 39 0 5 2;
#X connect 40 0 5 0;
#X connect 41 0 5 1;
#X connect 42 0 46 0;
#X connect 43 0 42 2;
#X connect 44 0 42 0;
#X connect 45 0 42 1;
#X connect 46 0 38 0;
#X connect 47 0 46 0;
#X connect 48 0 47 2;
#X connect 49 0 47 0;
#X connect 50 0 47 1;
#X connect 51 0 52 0;
#X connect 52 0 37 0;
#X connect 52 1 56 0;
#X connect 53 1 54 0;
#X connect 54 0 51 0;
#X connect 55 0 51 1;
#X connect 56 0 4 0;
#X connect 57 0 40 0;
#X connect 58 0 41 0;
#X connect 59 0 39 0;
#X connect 60 0 57 0;
#X connect 60 0 58 0;
#X connect 60 0 59 0;
#X connect 60 0 61 0;
#X connect 60 0 62 0;
#X connect 60 0 63 0;
#X connect 60 0 64 0;
#X connect 60 0 65 0;
#X connect 60 0 66 0;
#X connect 61 0 44 0;
#X connect 62 0 45 0;
#X connect 63 0 43 0;
#X connect 64 0 49 0;
#X connect 65 0 50 0;
#X connect 66 0 48 0;
#X coords 0 -1 1 1 220 100 1 100 100;
#X restore 53 137 pd cymbalsynth1;
#X obj 103 39 notein;
#X connect 1 0 0 0;
#X connect 1 0 0 1;
#X connect 2 0 1 0;
#X connect 2 1 1 1;
