#N canvas 0 0 450 300 10;
#N canvas 70 55 473 398 dist1s 0;
#X obj 20 96 inlet~;
#X obj 16 239 /~;
#X obj 44 180 abs~;
#X obj 59 212 +~;
#X obj 23 133 *~;
#X obj 20 276 outlet~;
#X obj 126 115 hsl 128 8 1 5 0 1 empty empty empty -2 -6 0 8 -262144
-1 -1 3473 1;
#X obj 126 129 hsl 128 8 0.1 0.8 0 1 empty empty empty -2 -6 0 8 -262144
-1 -1 9400 1;
#X obj -63 93 inlet~;
#X obj -67 236 /~;
#X obj -39 177 abs~;
#X obj -24 209 +~;
#X obj -60 130 *~;
#X obj -65 277 outlet~;
#X text 101 181 needs pd >=0.42-5 or zexy;
#X connect 0 0 4 0;
#X connect 1 0 5 0;
#X connect 2 0 3 0;
#X connect 3 0 1 1;
#X connect 4 0 1 0;
#X connect 4 0 2 0;
#X connect 6 0 4 1;
#X connect 6 0 12 1;
#X connect 7 0 3 1;
#X connect 7 0 11 1;
#X connect 8 0 12 0;
#X connect 9 0 13 0;
#X connect 10 0 11 0;
#X connect 11 0 9 1;
#X connect 12 0 9 0;
#X connect 12 0 10 0;
#X coords 0 -1 1 1 160 40 1 100 100;
#X restore 75 67 pd dist1s;
#N canvas 70 55 473 398 dist1 0;
#X obj 126 115 hsl 128 8 1 5 0 1 empty empty empty -2 -6 0 8 -262144
-1 -1 3473 1;
#X obj 126 129 hsl 128 8 0.1 0.8 0 1 empty empty empty -2 -6 0 8 -262144
-1 -1 9400 1;
#X obj -63 93 inlet~;
#X obj -67 236 /~;
#X obj -39 177 abs~;
#X obj -24 209 +~;
#X obj -60 130 *~;
#X obj -65 277 outlet~;
#X text 101 181 needs pd >=0.42-5 or zexy;
#X connect 0 0 6 1;
#X connect 1 0 5 1;
#X connect 2 0 6 0;
#X connect 3 0 7 0;
#X connect 4 0 5 0;
#X connect 5 0 3 1;
#X connect 6 0 3 0;
#X connect 6 0 4 0;
#X coords 0 -1 1 1 160 40 1 100 100;
#X restore 267 71 pd dist1;
