#N canvas 624 364 629 283 10;
#X msg 275 38 120;
#X obj 276 15 loadbang;
#N canvas 272 100 1162 979 dualdelay2s 0;
#X obj -11 367 inlet~;
#X obj 163 115 vsl 8 100 20 120 0 1 empty empty cut 0 110 1 8 -233017
-1 -1 7300 1;
#X obj 65 364 mtof;
#X obj 141 115 vsl 8 100 0.01 1 1 1 empty empty fr 0 110 1 8 -262144
-1 -1 1500 1;
#X obj 151 115 vsl 8 100 0 30 0 1 empty empty a 0 110 1 8 -262144 -1
-1 3800 1;
#X obj -62 10 metro 5;
#X obj -124 298 *;
#X obj 127 115 vsl 8 100 0.7 10 0 1 empty empty rs 0 110 1 8 -233017
-1 -1 3900 1;
#X obj 65 340 +;
#X obj 103 115 vsl 8 100 0.01 1 1 1 empty empty fr 0 110 1 8 -262144
-1 -1 3000 1;
#X obj 115 115 vsl 8 100 0 3 0 1 empty empty a 0 110 0 8 -262144 -1
-1 3900 1;
#X obj 30 241 *;
#X obj 119 303 +;
#X obj 124 338 clip 0 10;
#X obj 126 362 / 10;
#X obj 415 675 +~;
#X obj 437 645 *~;
#X obj 365 643 *~;
#X obj 359 597 * -1;
#X obj 359 621 + 1;
#X obj 199 145 hsl 96 8 0 1 0 1 empty empty d/w -22 5 0 10 -262144
-1 -1 5700 1;
#X obj 399 114 inlet;
#X obj 487 357 pow -1;
#X obj 508 395 / 4;
#X obj 539 424 *;
#X obj 523 460 * 60000;
#X obj 198 131 hsl 96 8 0 0.95 0 1 empty empty fb -16 5 0 8 -262144
-1 -1 5600 1;
#X obj 478 573 abs_delayline1;
#X obj 260 114 nbx 3 14 0 32 0 1 empty empty empty 0 -8 0 10 -262144
-1 -1 3 256;
#X text 436 115 <- bpm in;
#X obj 457 328 float;
#X obj 495 302 t b f;
#X obj 175 897 outlet~;
#X obj 166 436 *~;
#X obj -1 717 *~;
#X obj -7 671 * -1;
#X obj -7 695 + 1;
#X obj 199 215 hsl 96 8 0 1 0 1 empty empty d/w -22 5 0 10 -262144
-1 -1 9500 1;
#X obj 164 807 +~;
#X obj 186 777 *~;
#X obj 114 775 *~;
#X obj 108 729 * -1;
#X obj 108 753 + 1;
#X obj 199 195 hsl 96 8 0 1 0 1 empty empty d/w -22 5 0 10 -262144
-1 -1 5800 1;
#X obj 259 562 pow -1;
#X obj 280 600 / 4;
#X obj 311 629 *;
#X obj 295 665 * 60000;
#X obj 198 181 hsl 96 8 0 0.95 0 1 empty empty fb -16 5 0 8 -262144
-1 -1 5800 1;
#X obj 255 704 abs_delayline1;
#X obj 260 164 nbx 3 14 0 32 0 1 empty empty empty 0 -8 0 10 -262144
-1 -1 4 256;
#X obj 229 533 float;
#X obj 268 505 t b f;
#X text 238 113 hi;
#X text 238 163 lo;
#X obj 511 77 inlet;
#X text 547 79 <- sync-in;
#X obj 468 73 t b;
#X obj -103 60 float;
#X obj -76 106 + 1;
#X obj -26 109 / 200;
#X obj -61 74 wrap;
#X obj -87 154 cos;
#X obj -100 127 * 6.28319;
#X obj -189 174 float;
#X obj -162 220 + 1;
#X obj -117 219 / 200;
#X obj -147 188 wrap;
#X obj -168 268 cos;
#X obj -186 241 * 6.28319;
#X obj -398 352 inlet~;
#X obj -81 671 +~;
#X obj -59 641 *~;
#X obj -131 639 *~;
#X obj -137 593 * -1;
#X obj -137 617 + 1;
#X obj -72 547 abs_delayline1;
#X obj -321 893 outlet~;
#X obj -319 435 *~;
#X obj -497 713 *~;
#X obj -503 667 * -1;
#X obj -503 691 + 1;
#X obj -332 803 +~;
#X obj -310 773 *~;
#X obj -382 771 *~;
#X obj -388 725 * -1;
#X obj -388 749 + 1;
#X obj -250 740 abs_delayline1;
#X text 81 62 1 beatsynced delay for high - and one for low frequencies
stereo;
#N canvas 705 79 1076 1000 lopass2p2zm 0;
#X obj -222 90 inlet~;
#X obj 133 939 outlet~;
#X obj 205 50 samplerate~;
#X text 102 462 a1/a3;
#X text 229 499 b1;
#X text 384 433 b2;
#X text 393 32 resonance 0..1;
#X text 120 49 cutoff (hz);
#X text 420 186 a2= 2*a1 \, a3=a1;
#X text 420 150 c= 1/tan(pi*cutf/samplerate);
#X text 422 168 a1= 1/(1+res*c+c*c);
#X text 421 204 b1= 2*(1-c*c)*a1;
#X text 421 220 b2= (1-res*c+c*c)*a1;
#X obj 33 690 czero~;
#X obj 59 727 czero~;
#X obj 73 646 sig~ -1;
#X obj 90 670 sig~ 0;
#X obj 90 841 cpole~;
#X obj 129 888 cpole~;
#X text 28 627 zeros at fixed pos;
#X obj 178 840 *~ -1;
#X obj 177 813 expr~ sqrt($v1);
#X obj -44 595 *~;
#X text 219 845 2nd pole = 1st mirrored on the x axis;
#X text 183 704 b1/2 (x pos);
#X text 267 11 cookbook-like? (i cant remember where i got this from)
lp-filter;
#X obj 178 789 -~;
#X text 217 666 pole position from coeffs:;
#X text 218 683 p=-b1/2+j*sqrt(b2-(b1/2)^2) (found somewhere on the
net...);
#X obj 351 169 -;
#X obj 346 114 t b f;
#X obj 354 35 inlet;
#X msg 342 136 1;
#X obj 343 194 * 1.41421;
#X obj 79 49 inlet;
#X obj 133 151 * 3.14159;
#X obj 151 181 / 44100;
#X obj 150 212 expr tan($f1);
#X obj 148 293 /;
#X msg 130 266 1;
#X obj 142 243 t b f;
#X obj 144 339 t f f;
#X obj 147 366 *;
#X obj 239 372 *;
#X obj 237 395 + 1;
#X obj 355 85 float 0.5;
#X obj 105 118 t f b;
#X obj 344 57 t f b;
#X obj 175 440 +;
#X obj 162 462 t b f;
#X msg 158 484 1;
#X obj 169 507 /;
#X obj 409 388 *;
#X obj 409 484 -;
#X obj 404 429 t b f;
#X msg 400 451 1;
#X obj 379 549 +;
#X obj 105 97 float 440;
#X obj 248 514 -;
#X obj 238 458 t b f;
#X msg 239 481 1;
#X obj 246 536 * 2;
#X obj 175 411 t f f f;
#X obj 160 621 *;
#X obj 340 608 *~;
#X obj 131 703 * -0.5;
#X obj 153 725 t f f;
#X obj 154 748 *;
#X connect 0 0 22 0;
#X connect 2 0 36 1;
#X connect 13 0 14 0;
#X connect 13 1 14 1;
#X connect 14 0 17 0;
#X connect 14 1 17 1;
#X connect 15 0 13 2;
#X connect 15 0 14 2;
#X connect 16 0 14 3;
#X connect 16 0 13 3;
#X connect 17 0 18 0;
#X connect 17 1 18 1;
#X connect 18 0 1 0;
#X connect 20 0 18 3;
#X connect 21 0 17 3;
#X connect 21 0 20 0;
#X connect 22 0 13 0;
#X connect 26 0 21 0;
#X connect 29 0 33 0;
#X connect 30 0 32 0;
#X connect 30 1 29 1;
#X connect 31 0 47 0;
#X connect 32 0 29 0;
#X connect 33 0 43 1;
#X connect 33 0 52 1;
#X connect 34 0 57 0;
#X connect 35 0 36 0;
#X connect 36 0 37 0;
#X connect 37 0 40 0;
#X connect 38 0 41 0;
#X connect 38 0 52 0;
#X connect 39 0 38 0;
#X connect 40 0 39 0;
#X connect 40 1 38 1;
#X connect 41 0 42 0;
#X connect 41 1 42 1;
#X connect 41 1 43 0;
#X connect 42 0 62 0;
#X connect 43 0 44 0;
#X connect 44 0 48 1;
#X connect 45 0 30 0;
#X connect 46 0 35 0;
#X connect 46 1 45 0;
#X connect 47 0 45 0;
#X connect 47 1 57 0;
#X connect 48 0 49 0;
#X connect 49 0 50 0;
#X connect 49 1 51 1;
#X connect 50 0 51 0;
#X connect 51 0 22 1;
#X connect 51 0 63 0;
#X connect 51 0 64 0;
#X connect 52 0 54 0;
#X connect 53 0 56 0;
#X connect 54 0 55 0;
#X connect 54 1 53 1;
#X connect 55 0 53 0;
#X connect 56 0 64 1;
#X connect 57 0 46 0;
#X connect 58 0 61 0;
#X connect 59 0 60 0;
#X connect 59 1 58 1;
#X connect 60 0 58 0;
#X connect 61 0 63 1;
#X connect 62 0 48 0;
#X connect 62 1 59 0;
#X connect 62 2 56 1;
#X connect 63 0 65 0;
#X connect 64 0 26 0;
#X connect 65 0 17 2;
#X connect 65 0 18 2;
#X connect 65 0 66 0;
#X connect 66 0 67 0;
#X connect 66 1 67 1;
#X connect 67 0 26 1;
#X restore -353 531 pd lopass2p2zm;
#N canvas 486 219 1076 837 hipass2p2zm 0;
#X obj -47 497 inlet~;
#X obj 128 927 outlet~;
#X text 391 24 resonance 0..1;
#X text 156 94 cutoff (hz);
#X text 572 141 c= tan(pi*cutf/samplerate);
#X obj 245 49 samplerate~;
#X text 91 160 c;
#X obj 137 290 sig~ 1;
#X obj 165 418 /~;
#X text 573 165 a1= 1/(1+res+c+c*c);
#X text 573 186 a2= -2*a1;
#X text 99 483 a2;
#X text 136 349 a1/a3;
#X text 574 205 b1= 2*(c*c-1)*a1;
#X text 256 428 b1;
#X text 384 379 b2;
#X obj 353 534 *~;
#X text 573 221 b2= (1-res*c+c*c)*a1;
#X obj 33 690 czero~;
#X obj 59 727 czero~;
#X obj 90 841 cpole~;
#X obj 129 888 cpole~;
#X obj 178 840 *~ -1;
#X obj 184 805 expr~ sqrt($v1);
#X obj -44 595 *~;
#X obj 128 704 *~ -0.5;
#X text 219 845 2nd pole = 1st mirrored on the x axis;
#X text 183 704 b1/2 (x pos);
#X obj 163 748 *~;
#X obj 183 781 -~;
#X text 217 666 pole position from coeffs:;
#X text 218 683 p=-b1/2+j*sqrt(b2-(b1/2)^2) (found somewhere on the
net...);
#X text 573 99 cookbook-like? (i cant remember where i got this from)
hp-filter;
#X obj 90 670 sig~ 0;
#X obj 73 646 sig~ 1;
#X text 44 625 zeros at fixed pos;
#X obj 67 26 inlet;
#X obj 348 25 inlet;
#X obj 108 128 * 3.14159;
#X obj 135 159 / 44100;
#X obj 140 186 expr tan($f1);
#X obj 351 169 -;
#X obj 346 114 t b f;
#X msg 342 136 1;
#X obj 354 86 float 0.5;
#X obj 355 62 t f b;
#X obj 352 203 * 1.41421;
#X obj 88 93 t f b;
#X obj 72 53 float 440;
#X obj 137 223 t f f;
#X obj 194 284 *;
#X obj 273 282 *;
#X obj 197 348 +;
#X obj 196 374 + 1;
#X obj 120 440 /;
#X msg 102 413 1;
#X obj 114 390 t b f;
#X obj 287 439 - 1;
#X obj 283 465 * 2;
#X obj 237 524 *~;
#X obj 411 430 -;
#X obj 406 375 t b f;
#X msg 402 397 1;
#X obj 410 326 *;
#X obj 397 485 +~;
#X connect 0 0 24 0;
#X connect 5 0 39 1;
#X connect 7 0 8 0;
#X connect 16 0 29 0;
#X connect 18 0 19 0;
#X connect 18 1 19 1;
#X connect 19 0 20 0;
#X connect 19 1 20 1;
#X connect 20 0 21 0;
#X connect 20 1 21 1;
#X connect 21 0 1 0;
#X connect 22 0 21 3;
#X connect 23 0 20 3;
#X connect 23 0 22 0;
#X connect 24 0 18 0;
#X connect 25 0 20 2;
#X connect 25 0 21 2;
#X connect 25 0 28 0;
#X connect 25 0 28 1;
#X connect 28 0 29 1;
#X connect 29 0 23 0;
#X connect 33 0 19 3;
#X connect 33 0 18 3;
#X connect 34 0 18 2;
#X connect 34 0 19 2;
#X connect 36 0 48 0;
#X connect 37 0 45 0;
#X connect 38 0 39 0;
#X connect 39 0 40 0;
#X connect 40 0 49 0;
#X connect 40 0 63 0;
#X connect 41 0 46 0;
#X connect 42 0 43 0;
#X connect 42 1 41 1;
#X connect 43 0 41 0;
#X connect 44 0 42 0;
#X connect 45 0 44 0;
#X connect 45 1 48 0;
#X connect 46 0 51 1;
#X connect 46 0 63 1;
#X connect 47 0 38 0;
#X connect 47 1 44 0;
#X connect 48 0 47 0;
#X connect 49 0 50 0;
#X connect 49 1 50 1;
#X connect 49 1 51 0;
#X connect 50 0 52 0;
#X connect 50 0 57 0;
#X connect 50 0 64 0;
#X connect 51 0 52 1;
#X connect 52 0 53 0;
#X connect 53 0 8 1;
#X connect 53 0 56 0;
#X connect 54 0 24 1;
#X connect 54 0 16 0;
#X connect 54 0 59 0;
#X connect 55 0 54 0;
#X connect 56 0 55 0;
#X connect 56 1 54 1;
#X connect 57 0 58 0;
#X connect 58 0 59 1;
#X connect 59 0 25 0;
#X connect 60 0 64 1;
#X connect 61 0 62 0;
#X connect 61 1 60 1;
#X connect 62 0 60 0;
#X connect 63 0 61 0;
#X connect 64 0 16 1;
#X restore -149 488 pd hipass2p2zm;
#N canvas 705 79 1076 1000 lopass2p2zm 0;
#X obj -222 90 inlet~;
#X obj 133 939 outlet~;
#X obj 205 50 samplerate~;
#X text 102 462 a1/a3;
#X text 229 499 b1;
#X text 384 433 b2;
#X text 393 32 resonance 0..1;
#X text 120 49 cutoff (hz);
#X text 420 186 a2= 2*a1 \, a3=a1;
#X text 420 150 c= 1/tan(pi*cutf/samplerate);
#X text 422 168 a1= 1/(1+res*c+c*c);
#X text 421 204 b1= 2*(1-c*c)*a1;
#X text 421 220 b2= (1-res*c+c*c)*a1;
#X obj 33 690 czero~;
#X obj 59 727 czero~;
#X obj 73 646 sig~ -1;
#X obj 90 670 sig~ 0;
#X obj 90 841 cpole~;
#X obj 129 888 cpole~;
#X text 28 627 zeros at fixed pos;
#X obj 178 840 *~ -1;
#X obj 177 813 expr~ sqrt($v1);
#X obj -44 595 *~;
#X text 219 845 2nd pole = 1st mirrored on the x axis;
#X text 183 704 b1/2 (x pos);
#X text 267 11 cookbook-like? (i cant remember where i got this from)
lp-filter;
#X obj 178 789 -~;
#X text 217 666 pole position from coeffs:;
#X text 218 683 p=-b1/2+j*sqrt(b2-(b1/2)^2) (found somewhere on the
net...);
#X obj 351 169 -;
#X obj 346 114 t b f;
#X obj 354 35 inlet;
#X msg 342 136 1;
#X obj 343 194 * 1.41421;
#X obj 79 49 inlet;
#X obj 133 151 * 3.14159;
#X obj 151 181 / 44100;
#X obj 150 212 expr tan($f1);
#X obj 148 293 /;
#X msg 130 266 1;
#X obj 142 243 t b f;
#X obj 144 339 t f f;
#X obj 147 366 *;
#X obj 239 372 *;
#X obj 237 395 + 1;
#X obj 355 85 float 0.5;
#X obj 105 118 t f b;
#X obj 344 57 t f b;
#X obj 175 440 +;
#X obj 162 462 t b f;
#X msg 158 484 1;
#X obj 169 507 /;
#X obj 409 388 *;
#X obj 409 484 -;
#X obj 404 429 t b f;
#X msg 400 451 1;
#X obj 379 549 +;
#X obj 105 97 float 440;
#X obj 248 514 -;
#X obj 238 458 t b f;
#X msg 239 481 1;
#X obj 246 536 * 2;
#X obj 175 411 t f f f;
#X obj 160 621 *;
#X obj 340 608 *~;
#X obj 131 703 * -0.5;
#X obj 153 725 t f f;
#X obj 154 748 *;
#X connect 0 0 22 0;
#X connect 2 0 36 1;
#X connect 13 0 14 0;
#X connect 13 1 14 1;
#X connect 14 0 17 0;
#X connect 14 1 17 1;
#X connect 15 0 13 2;
#X connect 15 0 14 2;
#X connect 16 0 14 3;
#X connect 16 0 13 3;
#X connect 17 0 18 0;
#X connect 17 1 18 1;
#X connect 18 0 1 0;
#X connect 20 0 18 3;
#X connect 21 0 17 3;
#X connect 21 0 20 0;
#X connect 22 0 13 0;
#X connect 26 0 21 0;
#X connect 29 0 33 0;
#X connect 30 0 32 0;
#X connect 30 1 29 1;
#X connect 31 0 47 0;
#X connect 32 0 29 0;
#X connect 33 0 43 1;
#X connect 33 0 52 1;
#X connect 34 0 57 0;
#X connect 35 0 36 0;
#X connect 36 0 37 0;
#X connect 37 0 40 0;
#X connect 38 0 41 0;
#X connect 38 0 52 0;
#X connect 39 0 38 0;
#X connect 40 0 39 0;
#X connect 40 1 38 1;
#X connect 41 0 42 0;
#X connect 41 1 42 1;
#X connect 41 1 43 0;
#X connect 42 0 62 0;
#X connect 43 0 44 0;
#X connect 44 0 48 1;
#X connect 45 0 30 0;
#X connect 46 0 35 0;
#X connect 46 1 45 0;
#X connect 47 0 45 0;
#X connect 47 1 57 0;
#X connect 48 0 49 0;
#X connect 49 0 50 0;
#X connect 49 1 51 1;
#X connect 50 0 51 0;
#X connect 51 0 22 1;
#X connect 51 0 63 0;
#X connect 51 0 64 0;
#X connect 52 0 54 0;
#X connect 53 0 56 0;
#X connect 54 0 55 0;
#X connect 54 1 53 1;
#X connect 55 0 53 0;
#X connect 56 0 64 1;
#X connect 57 0 46 0;
#X connect 58 0 61 0;
#X connect 59 0 60 0;
#X connect 59 1 58 1;
#X connect 60 0 58 0;
#X connect 61 0 63 1;
#X connect 62 0 48 0;
#X connect 62 1 59 0;
#X connect 62 2 56 1;
#X connect 63 0 65 0;
#X connect 64 0 26 0;
#X connect 65 0 17 2;
#X connect 65 0 18 2;
#X connect 65 0 66 0;
#X connect 66 0 67 0;
#X connect 66 1 67 1;
#X connect 67 0 26 1;
#X restore -351 554 pd lopass2p2zm;
#N canvas 486 219 1076 837 hipass2p2zm 0;
#X obj -47 497 inlet~;
#X obj 128 927 outlet~;
#X text 391 24 resonance 0..1;
#X text 156 94 cutoff (hz);
#X text 572 141 c= tan(pi*cutf/samplerate);
#X obj 245 49 samplerate~;
#X text 91 160 c;
#X obj 137 290 sig~ 1;
#X obj 165 418 /~;
#X text 573 165 a1= 1/(1+res+c+c*c);
#X text 573 186 a2= -2*a1;
#X text 99 483 a2;
#X text 136 349 a1/a3;
#X text 574 205 b1= 2*(c*c-1)*a1;
#X text 256 428 b1;
#X text 384 379 b2;
#X obj 353 534 *~;
#X text 573 221 b2= (1-res*c+c*c)*a1;
#X obj 33 690 czero~;
#X obj 59 727 czero~;
#X obj 90 841 cpole~;
#X obj 129 888 cpole~;
#X obj 178 840 *~ -1;
#X obj 184 805 expr~ sqrt($v1);
#X obj -44 595 *~;
#X obj 128 704 *~ -0.5;
#X text 219 845 2nd pole = 1st mirrored on the x axis;
#X text 183 704 b1/2 (x pos);
#X obj 163 748 *~;
#X obj 183 781 -~;
#X text 217 666 pole position from coeffs:;
#X text 218 683 p=-b1/2+j*sqrt(b2-(b1/2)^2) (found somewhere on the
net...);
#X text 573 99 cookbook-like? (i cant remember where i got this from)
hp-filter;
#X obj 90 670 sig~ 0;
#X obj 73 646 sig~ 1;
#X text 44 625 zeros at fixed pos;
#X obj 67 26 inlet;
#X obj 348 25 inlet;
#X obj 108 128 * 3.14159;
#X obj 135 159 / 44100;
#X obj 140 186 expr tan($f1);
#X obj 351 169 -;
#X obj 346 114 t b f;
#X msg 342 136 1;
#X obj 354 86 float 0.5;
#X obj 355 62 t f b;
#X obj 352 203 * 1.41421;
#X obj 88 93 t f b;
#X obj 72 53 float 440;
#X obj 137 223 t f f;
#X obj 194 284 *;
#X obj 273 282 *;
#X obj 197 348 +;
#X obj 196 374 + 1;
#X obj 120 440 /;
#X msg 102 413 1;
#X obj 114 390 t b f;
#X obj 287 439 - 1;
#X obj 283 465 * 2;
#X obj 237 524 *~;
#X obj 411 430 -;
#X obj 406 375 t b f;
#X msg 402 397 1;
#X obj 410 326 *;
#X obj 397 485 +~;
#X connect 0 0 24 0;
#X connect 5 0 39 1;
#X connect 7 0 8 0;
#X connect 16 0 29 0;
#X connect 18 0 19 0;
#X connect 18 1 19 1;
#X connect 19 0 20 0;
#X connect 19 1 20 1;
#X connect 20 0 21 0;
#X connect 20 1 21 1;
#X connect 21 0 1 0;
#X connect 22 0 21 3;
#X connect 23 0 20 3;
#X connect 23 0 22 0;
#X connect 24 0 18 0;
#X connect 25 0 20 2;
#X connect 25 0 21 2;
#X connect 25 0 28 0;
#X connect 25 0 28 1;
#X connect 28 0 29 1;
#X connect 29 0 23 0;
#X connect 33 0 19 3;
#X connect 33 0 18 3;
#X connect 34 0 18 2;
#X connect 34 0 19 2;
#X connect 36 0 48 0;
#X connect 37 0 45 0;
#X connect 38 0 39 0;
#X connect 39 0 40 0;
#X connect 40 0 49 0;
#X connect 40 0 63 0;
#X connect 41 0 46 0;
#X connect 42 0 43 0;
#X connect 42 1 41 1;
#X connect 43 0 41 0;
#X connect 44 0 42 0;
#X connect 45 0 44 0;
#X connect 45 1 48 0;
#X connect 46 0 51 1;
#X connect 46 0 63 1;
#X connect 47 0 38 0;
#X connect 47 1 44 0;
#X connect 48 0 47 0;
#X connect 49 0 50 0;
#X connect 49 1 50 1;
#X connect 49 1 51 0;
#X connect 50 0 52 0;
#X connect 50 0 57 0;
#X connect 50 0 64 0;
#X connect 51 0 52 1;
#X connect 52 0 53 0;
#X connect 53 0 8 1;
#X connect 53 0 56 0;
#X connect 54 0 24 1;
#X connect 54 0 16 0;
#X connect 54 0 59 0;
#X connect 55 0 54 0;
#X connect 56 0 55 0;
#X connect 56 1 54 1;
#X connect 57 0 58 0;
#X connect 58 0 59 1;
#X connect 59 0 25 0;
#X connect 60 0 64 1;
#X connect 61 0 62 0;
#X connect 61 1 60 1;
#X connect 62 0 60 0;
#X connect 63 0 61 0;
#X connect 64 0 16 1;
#X restore -149 508 pd hipass2p2zm;
#N canvas 705 79 1076 1000 lopass2p2zm 0;
#X obj -222 90 inlet~;
#X obj 133 939 outlet~;
#X obj 205 50 samplerate~;
#X text 102 462 a1/a3;
#X text 229 499 b1;
#X text 384 433 b2;
#X text 393 32 resonance 0..1;
#X text 120 49 cutoff (hz);
#X text 420 186 a2= 2*a1 \, a3=a1;
#X text 420 150 c= 1/tan(pi*cutf/samplerate);
#X text 422 168 a1= 1/(1+res*c+c*c);
#X text 421 204 b1= 2*(1-c*c)*a1;
#X text 421 220 b2= (1-res*c+c*c)*a1;
#X obj 33 690 czero~;
#X obj 59 727 czero~;
#X obj 73 646 sig~ -1;
#X obj 90 670 sig~ 0;
#X obj 90 841 cpole~;
#X obj 129 888 cpole~;
#X text 28 627 zeros at fixed pos;
#X obj 178 840 *~ -1;
#X obj 177 813 expr~ sqrt($v1);
#X obj -44 595 *~;
#X text 219 845 2nd pole = 1st mirrored on the x axis;
#X text 183 704 b1/2 (x pos);
#X text 267 11 cookbook-like? (i cant remember where i got this from)
lp-filter;
#X obj 178 789 -~;
#X text 217 666 pole position from coeffs:;
#X text 218 683 p=-b1/2+j*sqrt(b2-(b1/2)^2) (found somewhere on the
net...);
#X obj 351 169 -;
#X obj 346 114 t b f;
#X obj 354 35 inlet;
#X msg 342 136 1;
#X obj 343 194 * 1.41421;
#X obj 79 49 inlet;
#X obj 133 151 * 3.14159;
#X obj 151 181 / 44100;
#X obj 150 212 expr tan($f1);
#X obj 148 293 /;
#X msg 130 266 1;
#X obj 142 243 t b f;
#X obj 144 339 t f f;
#X obj 147 366 *;
#X obj 239 372 *;
#X obj 237 395 + 1;
#X obj 355 85 float 0.5;
#X obj 105 118 t f b;
#X obj 344 57 t f b;
#X obj 175 440 +;
#X obj 162 462 t b f;
#X msg 158 484 1;
#X obj 169 507 /;
#X obj 409 388 *;
#X obj 409 484 -;
#X obj 404 429 t b f;
#X msg 400 451 1;
#X obj 379 549 +;
#X obj 105 97 float 440;
#X obj 248 514 -;
#X obj 238 458 t b f;
#X msg 239 481 1;
#X obj 246 536 * 2;
#X obj 175 411 t f f f;
#X obj 160 621 *;
#X obj 340 608 *~;
#X obj 131 703 * -0.5;
#X obj 153 725 t f f;
#X obj 154 748 *;
#X connect 0 0 22 0;
#X connect 2 0 36 1;
#X connect 13 0 14 0;
#X connect 13 1 14 1;
#X connect 14 0 17 0;
#X connect 14 1 17 1;
#X connect 15 0 13 2;
#X connect 15 0 14 2;
#X connect 16 0 14 3;
#X connect 16 0 13 3;
#X connect 17 0 18 0;
#X connect 17 1 18 1;
#X connect 18 0 1 0;
#X connect 20 0 18 3;
#X connect 21 0 17 3;
#X connect 21 0 20 0;
#X connect 22 0 13 0;
#X connect 26 0 21 0;
#X connect 29 0 33 0;
#X connect 30 0 32 0;
#X connect 30 1 29 1;
#X connect 31 0 47 0;
#X connect 32 0 29 0;
#X connect 33 0 43 1;
#X connect 33 0 52 1;
#X connect 34 0 57 0;
#X connect 35 0 36 0;
#X connect 36 0 37 0;
#X connect 37 0 40 0;
#X connect 38 0 41 0;
#X connect 38 0 52 0;
#X connect 39 0 38 0;
#X connect 40 0 39 0;
#X connect 40 1 38 1;
#X connect 41 0 42 0;
#X connect 41 1 42 1;
#X connect 41 1 43 0;
#X connect 42 0 62 0;
#X connect 43 0 44 0;
#X connect 44 0 48 1;
#X connect 45 0 30 0;
#X connect 46 0 35 0;
#X connect 46 1 45 0;
#X connect 47 0 45 0;
#X connect 47 1 57 0;
#X connect 48 0 49 0;
#X connect 49 0 50 0;
#X connect 49 1 51 1;
#X connect 50 0 51 0;
#X connect 51 0 22 1;
#X connect 51 0 63 0;
#X connect 51 0 64 0;
#X connect 52 0 54 0;
#X connect 53 0 56 0;
#X connect 54 0 55 0;
#X connect 54 1 53 1;
#X connect 55 0 53 0;
#X connect 56 0 64 1;
#X connect 57 0 46 0;
#X connect 58 0 61 0;
#X connect 59 0 60 0;
#X connect 59 1 58 1;
#X connect 60 0 58 0;
#X connect 61 0 63 1;
#X connect 62 0 48 0;
#X connect 62 1 59 0;
#X connect 62 2 56 1;
#X connect 63 0 65 0;
#X connect 64 0 26 0;
#X connect 65 0 17 2;
#X connect 65 0 18 2;
#X connect 65 0 66 0;
#X connect 66 0 67 0;
#X connect 66 1 67 1;
#X connect 67 0 26 1;
#X restore 135 606 pd lopass2p2zm;
#N canvas 705 79 1076 1000 lopass2p2zm 0;
#X obj -222 90 inlet~;
#X obj 133 939 outlet~;
#X obj 205 50 samplerate~;
#X text 102 462 a1/a3;
#X text 229 499 b1;
#X text 384 433 b2;
#X text 393 32 resonance 0..1;
#X text 120 49 cutoff (hz);
#X text 420 186 a2= 2*a1 \, a3=a1;
#X text 420 150 c= 1/tan(pi*cutf/samplerate);
#X text 422 168 a1= 1/(1+res*c+c*c);
#X text 421 204 b1= 2*(1-c*c)*a1;
#X text 421 220 b2= (1-res*c+c*c)*a1;
#X obj 33 690 czero~;
#X obj 59 727 czero~;
#X obj 73 646 sig~ -1;
#X obj 90 670 sig~ 0;
#X obj 90 841 cpole~;
#X obj 129 888 cpole~;
#X text 28 627 zeros at fixed pos;
#X obj 178 840 *~ -1;
#X obj 177 813 expr~ sqrt($v1);
#X obj -44 595 *~;
#X text 219 845 2nd pole = 1st mirrored on the x axis;
#X text 183 704 b1/2 (x pos);
#X text 267 11 cookbook-like? (i cant remember where i got this from)
lp-filter;
#X obj 178 789 -~;
#X text 217 666 pole position from coeffs:;
#X text 218 683 p=-b1/2+j*sqrt(b2-(b1/2)^2) (found somewhere on the
net...);
#X obj 351 169 -;
#X obj 346 114 t b f;
#X obj 354 35 inlet;
#X msg 342 136 1;
#X obj 343 194 * 1.41421;
#X obj 79 49 inlet;
#X obj 133 151 * 3.14159;
#X obj 151 181 / 44100;
#X obj 150 212 expr tan($f1);
#X obj 148 293 /;
#X msg 130 266 1;
#X obj 142 243 t b f;
#X obj 144 339 t f f;
#X obj 147 366 *;
#X obj 239 372 *;
#X obj 237 395 + 1;
#X obj 355 85 float 0.5;
#X obj 105 118 t f b;
#X obj 344 57 t f b;
#X obj 175 440 +;
#X obj 162 462 t b f;
#X msg 158 484 1;
#X obj 169 507 /;
#X obj 409 388 *;
#X obj 409 484 -;
#X obj 404 429 t b f;
#X msg 400 451 1;
#X obj 379 549 +;
#X obj 105 97 float 440;
#X obj 248 514 -;
#X obj 238 458 t b f;
#X msg 239 481 1;
#X obj 246 536 * 2;
#X obj 175 411 t f f f;
#X obj 160 621 *;
#X obj 340 608 *~;
#X obj 131 703 * -0.5;
#X obj 153 725 t f f;
#X obj 154 748 *;
#X connect 0 0 22 0;
#X connect 2 0 36 1;
#X connect 13 0 14 0;
#X connect 13 1 14 1;
#X connect 14 0 17 0;
#X connect 14 1 17 1;
#X connect 15 0 13 2;
#X connect 15 0 14 2;
#X connect 16 0 14 3;
#X connect 16 0 13 3;
#X connect 17 0 18 0;
#X connect 17 1 18 1;
#X connect 18 0 1 0;
#X connect 20 0 18 3;
#X connect 21 0 17 3;
#X connect 21 0 20 0;
#X connect 22 0 13 0;
#X connect 26 0 21 0;
#X connect 29 0 33 0;
#X connect 30 0 32 0;
#X connect 30 1 29 1;
#X connect 31 0 47 0;
#X connect 32 0 29 0;
#X connect 33 0 43 1;
#X connect 33 0 52 1;
#X connect 34 0 57 0;
#X connect 35 0 36 0;
#X connect 36 0 37 0;
#X connect 37 0 40 0;
#X connect 38 0 41 0;
#X connect 38 0 52 0;
#X connect 39 0 38 0;
#X connect 40 0 39 0;
#X connect 40 1 38 1;
#X connect 41 0 42 0;
#X connect 41 1 42 1;
#X connect 41 1 43 0;
#X connect 42 0 62 0;
#X connect 43 0 44 0;
#X connect 44 0 48 1;
#X connect 45 0 30 0;
#X connect 46 0 35 0;
#X connect 46 1 45 0;
#X connect 47 0 45 0;
#X connect 47 1 57 0;
#X connect 48 0 49 0;
#X connect 49 0 50 0;
#X connect 49 1 51 1;
#X connect 50 0 51 0;
#X connect 51 0 22 1;
#X connect 51 0 63 0;
#X connect 51 0 64 0;
#X connect 52 0 54 0;
#X connect 53 0 56 0;
#X connect 54 0 55 0;
#X connect 54 1 53 1;
#X connect 55 0 53 0;
#X connect 56 0 64 1;
#X connect 57 0 46 0;
#X connect 58 0 61 0;
#X connect 59 0 60 0;
#X connect 59 1 58 1;
#X connect 60 0 58 0;
#X connect 61 0 63 1;
#X connect 62 0 48 0;
#X connect 62 1 59 0;
#X connect 62 2 56 1;
#X connect 63 0 65 0;
#X connect 64 0 26 0;
#X connect 65 0 17 2;
#X connect 65 0 18 2;
#X connect 65 0 66 0;
#X connect 66 0 67 0;
#X connect 66 1 67 1;
#X connect 67 0 26 1;
#X restore 135 630 pd lopass2p2zm;
#N canvas 486 219 1076 837 hipass2p2zm 0;
#X obj -47 497 inlet~;
#X obj 128 927 outlet~;
#X text 391 24 resonance 0..1;
#X text 156 94 cutoff (hz);
#X text 572 141 c= tan(pi*cutf/samplerate);
#X obj 245 49 samplerate~;
#X text 91 160 c;
#X obj 137 290 sig~ 1;
#X obj 165 418 /~;
#X text 573 165 a1= 1/(1+res+c+c*c);
#X text 573 186 a2= -2*a1;
#X text 99 483 a2;
#X text 136 349 a1/a3;
#X text 574 205 b1= 2*(c*c-1)*a1;
#X text 256 428 b1;
#X text 384 379 b2;
#X obj 353 534 *~;
#X text 573 221 b2= (1-res*c+c*c)*a1;
#X obj 33 690 czero~;
#X obj 59 727 czero~;
#X obj 90 841 cpole~;
#X obj 129 888 cpole~;
#X obj 178 840 *~ -1;
#X obj 184 805 expr~ sqrt($v1);
#X obj -44 595 *~;
#X obj 128 704 *~ -0.5;
#X text 219 845 2nd pole = 1st mirrored on the x axis;
#X text 183 704 b1/2 (x pos);
#X obj 163 748 *~;
#X obj 183 781 -~;
#X text 217 666 pole position from coeffs:;
#X text 218 683 p=-b1/2+j*sqrt(b2-(b1/2)^2) (found somewhere on the
net...);
#X text 573 99 cookbook-like? (i cant remember where i got this from)
hp-filter;
#X obj 90 670 sig~ 0;
#X obj 73 646 sig~ 1;
#X text 44 625 zeros at fixed pos;
#X obj 67 26 inlet;
#X obj 348 25 inlet;
#X obj 108 128 * 3.14159;
#X obj 135 159 / 44100;
#X obj 140 186 expr tan($f1);
#X obj 351 169 -;
#X obj 346 114 t b f;
#X msg 342 136 1;
#X obj 354 86 float 0.5;
#X obj 355 62 t f b;
#X obj 352 203 * 1.41421;
#X obj 88 93 t f b;
#X obj 72 53 float 440;
#X obj 137 223 t f f;
#X obj 194 284 *;
#X obj 273 282 *;
#X obj 197 348 +;
#X obj 196 374 + 1;
#X obj 120 440 /;
#X msg 102 413 1;
#X obj 114 390 t b f;
#X obj 287 439 - 1;
#X obj 283 465 * 2;
#X obj 237 524 *~;
#X obj 411 430 -;
#X obj 406 375 t b f;
#X msg 402 397 1;
#X obj 410 326 *;
#X obj 397 485 +~;
#X connect 0 0 24 0;
#X connect 5 0 39 1;
#X connect 7 0 8 0;
#X connect 16 0 29 0;
#X connect 18 0 19 0;
#X connect 18 1 19 1;
#X connect 19 0 20 0;
#X connect 19 1 20 1;
#X connect 20 0 21 0;
#X connect 20 1 21 1;
#X connect 21 0 1 0;
#X connect 22 0 21 3;
#X connect 23 0 20 3;
#X connect 23 0 22 0;
#X connect 24 0 18 0;
#X connect 25 0 20 2;
#X connect 25 0 21 2;
#X connect 25 0 28 0;
#X connect 25 0 28 1;
#X connect 28 0 29 1;
#X connect 29 0 23 0;
#X connect 33 0 19 3;
#X connect 33 0 18 3;
#X connect 34 0 18 2;
#X connect 34 0 19 2;
#X connect 36 0 48 0;
#X connect 37 0 45 0;
#X connect 38 0 39 0;
#X connect 39 0 40 0;
#X connect 40 0 49 0;
#X connect 40 0 63 0;
#X connect 41 0 46 0;
#X connect 42 0 43 0;
#X connect 42 1 41 1;
#X connect 43 0 41 0;
#X connect 44 0 42 0;
#X connect 45 0 44 0;
#X connect 45 1 48 0;
#X connect 46 0 51 1;
#X connect 46 0 63 1;
#X connect 47 0 38 0;
#X connect 47 1 44 0;
#X connect 48 0 47 0;
#X connect 49 0 50 0;
#X connect 49 1 50 1;
#X connect 49 1 51 0;
#X connect 50 0 52 0;
#X connect 50 0 57 0;
#X connect 50 0 64 0;
#X connect 51 0 52 1;
#X connect 52 0 53 0;
#X connect 53 0 8 1;
#X connect 53 0 56 0;
#X connect 54 0 24 1;
#X connect 54 0 16 0;
#X connect 54 0 59 0;
#X connect 55 0 54 0;
#X connect 56 0 55 0;
#X connect 56 1 54 1;
#X connect 57 0 58 0;
#X connect 58 0 59 1;
#X connect 59 0 25 0;
#X connect 60 0 64 1;
#X connect 61 0 62 0;
#X connect 61 1 60 1;
#X connect 62 0 60 0;
#X connect 63 0 61 0;
#X connect 64 0 16 1;
#X restore 404 510 pd hipass2p2zm;
#N canvas 486 219 1076 837 hipass2p2zm 0;
#X obj -47 497 inlet~;
#X obj 128 927 outlet~;
#X text 391 24 resonance 0..1;
#X text 156 94 cutoff (hz);
#X text 572 141 c= tan(pi*cutf/samplerate);
#X obj 245 49 samplerate~;
#X text 91 160 c;
#X obj 137 290 sig~ 1;
#X obj 165 418 /~;
#X text 573 165 a1= 1/(1+res+c+c*c);
#X text 573 186 a2= -2*a1;
#X text 99 483 a2;
#X text 136 349 a1/a3;
#X text 574 205 b1= 2*(c*c-1)*a1;
#X text 256 428 b1;
#X text 384 379 b2;
#X obj 353 534 *~;
#X text 573 221 b2= (1-res*c+c*c)*a1;
#X obj 33 690 czero~;
#X obj 59 727 czero~;
#X obj 90 841 cpole~;
#X obj 129 888 cpole~;
#X obj 178 840 *~ -1;
#X obj 184 805 expr~ sqrt($v1);
#X obj -44 595 *~;
#X obj 128 704 *~ -0.5;
#X text 219 845 2nd pole = 1st mirrored on the x axis;
#X text 183 704 b1/2 (x pos);
#X obj 163 748 *~;
#X obj 183 781 -~;
#X text 217 666 pole position from coeffs:;
#X text 218 683 p=-b1/2+j*sqrt(b2-(b1/2)^2) (found somewhere on the
net...);
#X text 573 99 cookbook-like? (i cant remember where i got this from)
hp-filter;
#X obj 90 670 sig~ 0;
#X obj 73 646 sig~ 1;
#X text 44 625 zeros at fixed pos;
#X obj 67 26 inlet;
#X obj 348 25 inlet;
#X obj 108 128 * 3.14159;
#X obj 135 159 / 44100;
#X obj 140 186 expr tan($f1);
#X obj 351 169 -;
#X obj 346 114 t b f;
#X msg 342 136 1;
#X obj 354 86 float 0.5;
#X obj 355 62 t f b;
#X obj 352 203 * 1.41421;
#X obj 88 93 t f b;
#X obj 72 53 float 440;
#X obj 137 223 t f f;
#X obj 194 284 *;
#X obj 273 282 *;
#X obj 197 348 +;
#X obj 196 374 + 1;
#X obj 120 440 /;
#X msg 102 413 1;
#X obj 114 390 t b f;
#X obj 287 439 - 1;
#X obj 283 465 * 2;
#X obj 237 524 *~;
#X obj 411 430 -;
#X obj 406 375 t b f;
#X msg 402 397 1;
#X obj 410 326 *;
#X obj 397 485 +~;
#X connect 0 0 24 0;
#X connect 5 0 39 1;
#X connect 7 0 8 0;
#X connect 16 0 29 0;
#X connect 18 0 19 0;
#X connect 18 1 19 1;
#X connect 19 0 20 0;
#X connect 19 1 20 1;
#X connect 20 0 21 0;
#X connect 20 1 21 1;
#X connect 21 0 1 0;
#X connect 22 0 21 3;
#X connect 23 0 20 3;
#X connect 23 0 22 0;
#X connect 24 0 18 0;
#X connect 25 0 20 2;
#X connect 25 0 21 2;
#X connect 25 0 28 0;
#X connect 25 0 28 1;
#X connect 28 0 29 1;
#X connect 29 0 23 0;
#X connect 33 0 19 3;
#X connect 33 0 18 3;
#X connect 34 0 18 2;
#X connect 34 0 19 2;
#X connect 36 0 48 0;
#X connect 37 0 45 0;
#X connect 38 0 39 0;
#X connect 39 0 40 0;
#X connect 40 0 49 0;
#X connect 40 0 63 0;
#X connect 41 0 46 0;
#X connect 42 0 43 0;
#X connect 42 1 41 1;
#X connect 43 0 41 0;
#X connect 44 0 42 0;
#X connect 45 0 44 0;
#X connect 45 1 48 0;
#X connect 46 0 51 1;
#X connect 46 0 63 1;
#X connect 47 0 38 0;
#X connect 47 1 44 0;
#X connect 48 0 47 0;
#X connect 49 0 50 0;
#X connect 49 1 50 1;
#X connect 49 1 51 0;
#X connect 50 0 52 0;
#X connect 50 0 57 0;
#X connect 50 0 64 0;
#X connect 51 0 52 1;
#X connect 52 0 53 0;
#X connect 53 0 8 1;
#X connect 53 0 56 0;
#X connect 54 0 24 1;
#X connect 54 0 16 0;
#X connect 54 0 59 0;
#X connect 55 0 54 0;
#X connect 56 0 55 0;
#X connect 56 1 54 1;
#X connect 57 0 58 0;
#X connect 58 0 59 1;
#X connect 59 0 25 0;
#X connect 60 0 64 1;
#X connect 61 0 62 0;
#X connect 61 1 60 1;
#X connect 62 0 60 0;
#X connect 63 0 61 0;
#X connect 64 0 16 1;
#X restore 404 530 pd hipass2p2zm;
#X connect 0 0 34 1;
#X connect 0 0 33 1;
#X connect 1 0 8 1;
#X connect 2 0 89 1;
#X connect 2 0 91 1;
#X connect 2 0 90 1;
#X connect 2 0 92 1;
#X connect 2 0 93 1;
#X connect 2 0 94 1;
#X connect 2 0 95 1;
#X connect 2 0 96 1;
#X connect 3 0 66 0;
#X connect 4 0 6 1;
#X connect 5 0 58 0;
#X connect 5 0 64 0;
#X connect 6 0 8 0;
#X connect 7 0 12 1;
#X connect 8 0 2 0;
#X connect 9 0 60 0;
#X connect 10 0 11 1;
#X connect 11 0 12 0;
#X connect 12 0 13 0;
#X connect 13 0 14 0;
#X connect 14 0 93 2;
#X connect 14 0 94 2;
#X connect 14 0 90 2;
#X connect 14 0 92 2;
#X connect 14 0 89 2;
#X connect 14 0 91 2;
#X connect 14 0 95 2;
#X connect 14 0 96 2;
#X connect 15 0 32 0;
#X connect 16 0 15 1;
#X connect 17 0 15 0;
#X connect 18 0 19 0;
#X connect 19 0 17 0;
#X connect 20 0 16 0;
#X connect 20 0 18 0;
#X connect 20 0 74 0;
#X connect 20 0 72 0;
#X connect 21 0 30 0;
#X connect 21 0 51 0;
#X connect 22 0 23 0;
#X connect 23 0 24 0;
#X connect 24 0 25 0;
#X connect 25 0 27 1;
#X connect 25 0 76 1;
#X connect 26 0 27 2;
#X connect 26 0 76 2;
#X connect 27 0 16 1;
#X connect 28 0 31 0;
#X connect 30 0 22 0;
#X connect 31 0 30 0;
#X connect 31 1 24 1;
#X connect 33 0 93 0;
#X connect 33 0 95 0;
#X connect 34 0 32 0;
#X connect 35 0 36 0;
#X connect 36 0 34 0;
#X connect 37 0 33 0;
#X connect 37 0 35 0;
#X connect 37 0 80 0;
#X connect 37 0 78 0;
#X connect 38 0 32 0;
#X connect 39 0 38 1;
#X connect 40 0 38 0;
#X connect 41 0 42 0;
#X connect 42 0 40 0;
#X connect 43 0 39 0;
#X connect 43 0 41 0;
#X connect 43 0 85 0;
#X connect 43 0 83 0;
#X connect 44 0 45 0;
#X connect 45 0 46 0;
#X connect 46 0 47 0;
#X connect 47 0 49 1;
#X connect 47 0 87 1;
#X connect 48 0 49 2;
#X connect 48 0 87 2;
#X connect 49 0 39 1;
#X connect 50 0 52 0;
#X connect 51 0 44 0;
#X connect 52 0 51 0;
#X connect 52 1 46 1;
#X connect 55 0 57 0;
#X connect 57 0 5 0;
#X connect 58 0 59 0;
#X connect 59 0 61 0;
#X connect 59 0 63 0;
#X connect 60 0 59 1;
#X connect 61 0 58 1;
#X connect 62 0 11 0;
#X connect 63 0 62 0;
#X connect 64 0 65 0;
#X connect 65 0 67 0;
#X connect 65 0 69 0;
#X connect 66 0 65 1;
#X connect 67 0 64 1;
#X connect 68 0 6 0;
#X connect 69 0 68 0;
#X connect 70 0 79 1;
#X connect 70 0 78 1;
#X connect 71 0 77 0;
#X connect 72 0 71 1;
#X connect 73 0 71 0;
#X connect 74 0 75 0;
#X connect 75 0 73 0;
#X connect 76 0 72 1;
#X connect 78 0 89 0;
#X connect 78 0 90 0;
#X connect 79 0 77 0;
#X connect 80 0 81 0;
#X connect 81 0 79 0;
#X connect 82 0 77 0;
#X connect 83 0 82 1;
#X connect 84 0 82 0;
#X connect 85 0 86 0;
#X connect 86 0 84 0;
#X connect 87 0 83 1;
#X connect 89 0 91 0;
#X connect 90 0 92 0;
#X connect 91 0 84 1;
#X connect 91 0 87 0;
#X connect 92 0 73 1;
#X connect 92 0 76 0;
#X connect 93 0 94 0;
#X connect 94 0 40 1;
#X connect 94 0 49 0;
#X connect 95 0 96 0;
#X connect 96 0 17 1;
#X connect 96 0 27 0;
#X coords 0 -1 1 1 200 130 1 100 100;
#X restore 81 89 pd dualdelay2s;
#N canvas 268 100 1162 979 dualdelay2m 0;
#X obj 163 115 vsl 8 100 20 120 0 1 empty empty cut 0 110 1 8 -233017
-1 -1 7300 1;
#X obj 65 364 mtof;
#X obj 141 115 vsl 8 100 0.01 1 1 1 empty empty fr 0 110 1 8 -262144
-1 -1 1500 1;
#X obj 151 115 vsl 8 100 0 30 0 1 empty empty a 0 110 1 8 -262144 -1
-1 3800 1;
#X obj -62 10 metro 5;
#X obj -124 298 *;
#X obj 127 115 vsl 8 100 0.7 10 0 1 empty empty rs 0 110 1 8 -233017
-1 -1 3900 1;
#X obj 65 340 +;
#X obj 103 115 vsl 8 100 0.01 1 1 1 empty empty fr 0 110 1 8 -262144
-1 -1 3000 1;
#X obj 115 115 vsl 8 100 0 3 0 1 empty empty a 0 110 0 8 -262144 -1
-1 3900 1;
#X obj 30 241 *;
#X obj 119 303 +;
#X obj 124 338 clip 0 10;
#X obj 126 362 / 10;
#X obj 199 145 hsl 96 8 0 1 0 1 empty empty d/w -22 5 0 10 -262144
-1 -1 5700 1;
#X obj 399 114 inlet;
#X obj 235 401 pow -1;
#X obj 256 439 / 4;
#X obj 272 468 *;
#X obj 272 489 * 60000;
#X obj 198 131 hsl 96 8 0 0.95 0 1 empty empty fb -16 5 0 8 -262144
-1 -1 5600 1;
#X obj 260 114 nbx 3 14 0 32 0 1 empty empty empty 0 -8 0 10 -262144
-1 -1 3 256;
#X text 436 115 <- bpm in;
#X obj 205 372 float;
#X obj 243 346 t b f;
#X obj 199 215 hsl 96 8 0 1 0 1 empty empty d/w -22 5 0 10 -262144
-1 -1 9500 1;
#X obj 199 195 hsl 96 8 0 1 0 1 empty empty d/w -22 5 0 10 -262144
-1 -1 5800 1;
#X obj -250 627 pow -1;
#X obj -229 665 / 4;
#X obj -218 693 *;
#X obj -221 720 * 60000;
#X obj 198 181 hsl 96 8 0 0.95 0 1 empty empty fb -16 5 0 8 -262144
-1 -1 5800 1;
#X obj 260 164 nbx 3 14 0 32 0 1 empty empty empty 0 -8 0 10 -262144
-1 -1 4 256;
#X obj -268 598 float;
#X obj -240 573 t b f;
#X text 238 113 hi;
#X text 238 163 lo;
#X obj 511 77 inlet;
#X text 547 79 <- sync-in;
#X obj 468 73 t b;
#X obj -103 60 float;
#X obj -76 106 + 1;
#X obj -26 109 / 200;
#X obj -61 74 wrap;
#X obj -87 154 cos;
#X obj -100 127 * 6.28319;
#X obj -189 174 float;
#X obj -162 220 + 1;
#X obj -117 219 / 200;
#X obj -147 188 wrap;
#X obj -168 268 cos;
#X obj -186 241 * 6.28319;
#X obj -398 352 inlet~;
#X obj 4 765 +~;
#X obj 26 735 *~;
#X obj -21 732 *~;
#X obj -27 686 * -1;
#X obj -27 710 + 1;
#X obj 39 633 abs_delayline1;
#X obj -351 974 outlet~;
#X obj -319 435 *~;
#X obj -497 713 *~;
#X obj -503 667 * -1;
#X obj -503 691 + 1;
#X obj -332 837 +~;
#X obj -310 807 *~;
#X obj -380 802 *~;
#X obj -386 756 * -1;
#X obj -386 780 + 1;
#X obj -279 778 abs_delayline1;
#X text 81 62 1 beatsynced delay for high - and one for low frequencies
stereo;
#N canvas 705 79 1076 1000 lopass2p2zm 0;
#X obj -222 90 inlet~;
#X obj 133 939 outlet~;
#X obj 205 50 samplerate~;
#X text 102 462 a1/a3;
#X text 229 499 b1;
#X text 384 433 b2;
#X text 393 32 resonance 0..1;
#X text 120 49 cutoff (hz);
#X text 420 186 a2= 2*a1 \, a3=a1;
#X text 420 150 c= 1/tan(pi*cutf/samplerate);
#X text 422 168 a1= 1/(1+res*c+c*c);
#X text 421 204 b1= 2*(1-c*c)*a1;
#X text 421 220 b2= (1-res*c+c*c)*a1;
#X obj 33 690 czero~;
#X obj 59 727 czero~;
#X obj 73 646 sig~ -1;
#X obj 90 670 sig~ 0;
#X obj 90 841 cpole~;
#X obj 129 888 cpole~;
#X text 28 627 zeros at fixed pos;
#X obj 178 840 *~ -1;
#X obj 177 813 expr~ sqrt($v1);
#X obj -44 595 *~;
#X text 219 845 2nd pole = 1st mirrored on the x axis;
#X text 183 704 b1/2 (x pos);
#X text 267 11 cookbook-like? (i cant remember where i got this from)
lp-filter;
#X obj 178 789 -~;
#X text 217 666 pole position from coeffs:;
#X text 218 683 p=-b1/2+j*sqrt(b2-(b1/2)^2) (found somewhere on the
net...);
#X obj 351 169 -;
#X obj 346 114 t b f;
#X obj 354 35 inlet;
#X msg 342 136 1;
#X obj 343 194 * 1.41421;
#X obj 79 49 inlet;
#X obj 133 151 * 3.14159;
#X obj 151 181 / 44100;
#X obj 150 212 expr tan($f1);
#X obj 148 293 /;
#X msg 130 266 1;
#X obj 142 243 t b f;
#X obj 144 339 t f f;
#X obj 147 366 *;
#X obj 239 372 *;
#X obj 237 395 + 1;
#X obj 355 85 float 0.5;
#X obj 105 118 t f b;
#X obj 344 57 t f b;
#X obj 175 440 +;
#X obj 162 462 t b f;
#X msg 158 484 1;
#X obj 169 507 /;
#X obj 409 388 *;
#X obj 409 484 -;
#X obj 404 429 t b f;
#X msg 400 451 1;
#X obj 379 549 +;
#X obj 105 97 float 440;
#X obj 248 514 -;
#X obj 238 458 t b f;
#X msg 239 481 1;
#X obj 246 536 * 2;
#X obj 175 411 t f f f;
#X obj 160 621 *;
#X obj 340 608 *~;
#X obj 131 703 * -0.5;
#X obj 153 725 t f f;
#X obj 154 748 *;
#X connect 0 0 22 0;
#X connect 2 0 36 1;
#X connect 13 0 14 0;
#X connect 13 1 14 1;
#X connect 14 0 17 0;
#X connect 14 1 17 1;
#X connect 15 0 13 2;
#X connect 15 0 14 2;
#X connect 16 0 14 3;
#X connect 16 0 13 3;
#X connect 17 0 18 0;
#X connect 17 1 18 1;
#X connect 18 0 1 0;
#X connect 20 0 18 3;
#X connect 21 0 17 3;
#X connect 21 0 20 0;
#X connect 22 0 13 0;
#X connect 26 0 21 0;
#X connect 29 0 33 0;
#X connect 30 0 32 0;
#X connect 30 1 29 1;
#X connect 31 0 47 0;
#X connect 32 0 29 0;
#X connect 33 0 43 1;
#X connect 33 0 52 1;
#X connect 34 0 57 0;
#X connect 35 0 36 0;
#X connect 36 0 37 0;
#X connect 37 0 40 0;
#X connect 38 0 41 0;
#X connect 38 0 52 0;
#X connect 39 0 38 0;
#X connect 40 0 39 0;
#X connect 40 1 38 1;
#X connect 41 0 42 0;
#X connect 41 1 42 1;
#X connect 41 1 43 0;
#X connect 42 0 62 0;
#X connect 43 0 44 0;
#X connect 44 0 48 1;
#X connect 45 0 30 0;
#X connect 46 0 35 0;
#X connect 46 1 45 0;
#X connect 47 0 45 0;
#X connect 47 1 57 0;
#X connect 48 0 49 0;
#X connect 49 0 50 0;
#X connect 49 1 51 1;
#X connect 50 0 51 0;
#X connect 51 0 22 1;
#X connect 51 0 63 0;
#X connect 51 0 64 0;
#X connect 52 0 54 0;
#X connect 53 0 56 0;
#X connect 54 0 55 0;
#X connect 54 1 53 1;
#X connect 55 0 53 0;
#X connect 56 0 64 1;
#X connect 57 0 46 0;
#X connect 58 0 61 0;
#X connect 59 0 60 0;
#X connect 59 1 58 1;
#X connect 60 0 58 0;
#X connect 61 0 63 1;
#X connect 62 0 48 0;
#X connect 62 1 59 0;
#X connect 62 2 56 1;
#X connect 63 0 65 0;
#X connect 64 0 26 0;
#X connect 65 0 17 2;
#X connect 65 0 18 2;
#X connect 65 0 66 0;
#X connect 66 0 67 0;
#X connect 66 1 67 1;
#X connect 67 0 26 1;
#X restore -353 531 pd lopass2p2zm;
#N canvas 486 219 1076 837 hipass2p2zm 0;
#X obj -47 497 inlet~;
#X obj 128 927 outlet~;
#X text 391 24 resonance 0..1;
#X text 156 94 cutoff (hz);
#X text 572 141 c= tan(pi*cutf/samplerate);
#X obj 245 49 samplerate~;
#X text 91 160 c;
#X obj 137 290 sig~ 1;
#X obj 165 418 /~;
#X text 573 165 a1= 1/(1+res+c+c*c);
#X text 573 186 a2= -2*a1;
#X text 99 483 a2;
#X text 136 349 a1/a3;
#X text 574 205 b1= 2*(c*c-1)*a1;
#X text 256 428 b1;
#X text 384 379 b2;
#X obj 353 534 *~;
#X text 573 221 b2= (1-res*c+c*c)*a1;
#X obj 33 690 czero~;
#X obj 59 727 czero~;
#X obj 90 841 cpole~;
#X obj 129 888 cpole~;
#X obj 178 840 *~ -1;
#X obj 184 805 expr~ sqrt($v1);
#X obj -44 595 *~;
#X obj 128 704 *~ -0.5;
#X text 219 845 2nd pole = 1st mirrored on the x axis;
#X text 183 704 b1/2 (x pos);
#X obj 163 748 *~;
#X obj 183 781 -~;
#X text 217 666 pole position from coeffs:;
#X text 218 683 p=-b1/2+j*sqrt(b2-(b1/2)^2) (found somewhere on the
net...);
#X text 573 99 cookbook-like? (i cant remember where i got this from)
hp-filter;
#X obj 90 670 sig~ 0;
#X obj 73 646 sig~ 1;
#X text 44 625 zeros at fixed pos;
#X obj 67 26 inlet;
#X obj 348 25 inlet;
#X obj 108 128 * 3.14159;
#X obj 135 159 / 44100;
#X obj 140 186 expr tan($f1);
#X obj 351 169 -;
#X obj 346 114 t b f;
#X msg 342 136 1;
#X obj 354 86 float 0.5;
#X obj 355 62 t f b;
#X obj 352 203 * 1.41421;
#X obj 88 93 t f b;
#X obj 72 53 float 440;
#X obj 137 223 t f f;
#X obj 194 284 *;
#X obj 273 282 *;
#X obj 197 348 +;
#X obj 196 374 + 1;
#X obj 120 440 /;
#X msg 102 413 1;
#X obj 114 390 t b f;
#X obj 287 439 - 1;
#X obj 283 465 * 2;
#X obj 237 524 *~;
#X obj 411 430 -;
#X obj 406 375 t b f;
#X msg 402 397 1;
#X obj 410 326 *;
#X obj 397 485 +~;
#X connect 0 0 24 0;
#X connect 5 0 39 1;
#X connect 7 0 8 0;
#X connect 16 0 29 0;
#X connect 18 0 19 0;
#X connect 18 1 19 1;
#X connect 19 0 20 0;
#X connect 19 1 20 1;
#X connect 20 0 21 0;
#X connect 20 1 21 1;
#X connect 21 0 1 0;
#X connect 22 0 21 3;
#X connect 23 0 20 3;
#X connect 23 0 22 0;
#X connect 24 0 18 0;
#X connect 25 0 20 2;
#X connect 25 0 21 2;
#X connect 25 0 28 0;
#X connect 25 0 28 1;
#X connect 28 0 29 1;
#X connect 29 0 23 0;
#X connect 33 0 19 3;
#X connect 33 0 18 3;
#X connect 34 0 18 2;
#X connect 34 0 19 2;
#X connect 36 0 48 0;
#X connect 37 0 45 0;
#X connect 38 0 39 0;
#X connect 39 0 40 0;
#X connect 40 0 49 0;
#X connect 40 0 63 0;
#X connect 41 0 46 0;
#X connect 42 0 43 0;
#X connect 42 1 41 1;
#X connect 43 0 41 0;
#X connect 44 0 42 0;
#X connect 45 0 44 0;
#X connect 45 1 48 0;
#X connect 46 0 51 1;
#X connect 46 0 63 1;
#X connect 47 0 38 0;
#X connect 47 1 44 0;
#X connect 48 0 47 0;
#X connect 49 0 50 0;
#X connect 49 1 50 1;
#X connect 49 1 51 0;
#X connect 50 0 52 0;
#X connect 50 0 57 0;
#X connect 50 0 64 0;
#X connect 51 0 52 1;
#X connect 52 0 53 0;
#X connect 53 0 8 1;
#X connect 53 0 56 0;
#X connect 54 0 24 1;
#X connect 54 0 16 0;
#X connect 54 0 59 0;
#X connect 55 0 54 0;
#X connect 56 0 55 0;
#X connect 56 1 54 1;
#X connect 57 0 58 0;
#X connect 58 0 59 1;
#X connect 59 0 25 0;
#X connect 60 0 64 1;
#X connect 61 0 62 0;
#X connect 61 1 60 1;
#X connect 62 0 60 0;
#X connect 63 0 61 0;
#X connect 64 0 16 1;
#X restore -21 587 pd hipass2p2zm;
#N canvas 705 79 1076 1000 lopass2p2zm 0;
#X obj -222 90 inlet~;
#X obj 133 939 outlet~;
#X obj 205 50 samplerate~;
#X text 102 462 a1/a3;
#X text 229 499 b1;
#X text 384 433 b2;
#X text 393 32 resonance 0..1;
#X text 120 49 cutoff (hz);
#X text 420 186 a2= 2*a1 \, a3=a1;
#X text 420 150 c= 1/tan(pi*cutf/samplerate);
#X text 422 168 a1= 1/(1+res*c+c*c);
#X text 421 204 b1= 2*(1-c*c)*a1;
#X text 421 220 b2= (1-res*c+c*c)*a1;
#X obj 33 690 czero~;
#X obj 59 727 czero~;
#X obj 73 646 sig~ -1;
#X obj 90 670 sig~ 0;
#X obj 90 841 cpole~;
#X obj 129 888 cpole~;
#X text 28 627 zeros at fixed pos;
#X obj 178 840 *~ -1;
#X obj 177 813 expr~ sqrt($v1);
#X obj -44 595 *~;
#X text 219 845 2nd pole = 1st mirrored on the x axis;
#X text 183 704 b1/2 (x pos);
#X text 267 11 cookbook-like? (i cant remember where i got this from)
lp-filter;
#X obj 178 789 -~;
#X text 217 666 pole position from coeffs:;
#X text 218 683 p=-b1/2+j*sqrt(b2-(b1/2)^2) (found somewhere on the
net...);
#X obj 351 169 -;
#X obj 346 114 t b f;
#X obj 354 35 inlet;
#X msg 342 136 1;
#X obj 343 194 * 1.41421;
#X obj 79 49 inlet;
#X obj 133 151 * 3.14159;
#X obj 151 181 / 44100;
#X obj 150 212 expr tan($f1);
#X obj 148 293 /;
#X msg 130 266 1;
#X obj 142 243 t b f;
#X obj 144 339 t f f;
#X obj 147 366 *;
#X obj 239 372 *;
#X obj 237 395 + 1;
#X obj 355 85 float 0.5;
#X obj 105 118 t f b;
#X obj 344 57 t f b;
#X obj 175 440 +;
#X obj 162 462 t b f;
#X msg 158 484 1;
#X obj 169 507 /;
#X obj 409 388 *;
#X obj 409 484 -;
#X obj 404 429 t b f;
#X msg 400 451 1;
#X obj 379 549 +;
#X obj 105 97 float 440;
#X obj 248 514 -;
#X obj 238 458 t b f;
#X msg 239 481 1;
#X obj 246 536 * 2;
#X obj 175 411 t f f f;
#X obj 160 621 *;
#X obj 340 608 *~;
#X obj 131 703 * -0.5;
#X obj 153 725 t f f;
#X obj 154 748 *;
#X connect 0 0 22 0;
#X connect 2 0 36 1;
#X connect 13 0 14 0;
#X connect 13 1 14 1;
#X connect 14 0 17 0;
#X connect 14 1 17 1;
#X connect 15 0 13 2;
#X connect 15 0 14 2;
#X connect 16 0 14 3;
#X connect 16 0 13 3;
#X connect 17 0 18 0;
#X connect 17 1 18 1;
#X connect 18 0 1 0;
#X connect 20 0 18 3;
#X connect 21 0 17 3;
#X connect 21 0 20 0;
#X connect 22 0 13 0;
#X connect 26 0 21 0;
#X connect 29 0 33 0;
#X connect 30 0 32 0;
#X connect 30 1 29 1;
#X connect 31 0 47 0;
#X connect 32 0 29 0;
#X connect 33 0 43 1;
#X connect 33 0 52 1;
#X connect 34 0 57 0;
#X connect 35 0 36 0;
#X connect 36 0 37 0;
#X connect 37 0 40 0;
#X connect 38 0 41 0;
#X connect 38 0 52 0;
#X connect 39 0 38 0;
#X connect 40 0 39 0;
#X connect 40 1 38 1;
#X connect 41 0 42 0;
#X connect 41 1 42 1;
#X connect 41 1 43 0;
#X connect 42 0 62 0;
#X connect 43 0 44 0;
#X connect 44 0 48 1;
#X connect 45 0 30 0;
#X connect 46 0 35 0;
#X connect 46 1 45 0;
#X connect 47 0 45 0;
#X connect 47 1 57 0;
#X connect 48 0 49 0;
#X connect 49 0 50 0;
#X connect 49 1 51 1;
#X connect 50 0 51 0;
#X connect 51 0 22 1;
#X connect 51 0 63 0;
#X connect 51 0 64 0;
#X connect 52 0 54 0;
#X connect 53 0 56 0;
#X connect 54 0 55 0;
#X connect 54 1 53 1;
#X connect 55 0 53 0;
#X connect 56 0 64 1;
#X connect 57 0 46 0;
#X connect 58 0 61 0;
#X connect 59 0 60 0;
#X connect 59 1 58 1;
#X connect 60 0 58 0;
#X connect 61 0 63 1;
#X connect 62 0 48 0;
#X connect 62 1 59 0;
#X connect 62 2 56 1;
#X connect 63 0 65 0;
#X connect 64 0 26 0;
#X connect 65 0 17 2;
#X connect 65 0 18 2;
#X connect 65 0 66 0;
#X connect 66 0 67 0;
#X connect 66 1 67 1;
#X connect 67 0 26 1;
#X restore -354 557 pd lopass2p2zm;
#N canvas 486 219 1076 837 hipass2p2zm 0;
#X obj -47 497 inlet~;
#X obj 128 927 outlet~;
#X text 391 24 resonance 0..1;
#X text 156 94 cutoff (hz);
#X text 572 141 c= tan(pi*cutf/samplerate);
#X obj 245 49 samplerate~;
#X text 91 160 c;
#X obj 137 290 sig~ 1;
#X obj 165 418 /~;
#X text 573 165 a1= 1/(1+res+c+c*c);
#X text 573 186 a2= -2*a1;
#X text 99 483 a2;
#X text 136 349 a1/a3;
#X text 574 205 b1= 2*(c*c-1)*a1;
#X text 256 428 b1;
#X text 384 379 b2;
#X obj 353 534 *~;
#X text 573 221 b2= (1-res*c+c*c)*a1;
#X obj 33 690 czero~;
#X obj 59 727 czero~;
#X obj 90 841 cpole~;
#X obj 129 888 cpole~;
#X obj 178 840 *~ -1;
#X obj 184 805 expr~ sqrt($v1);
#X obj -44 595 *~;
#X obj 128 704 *~ -0.5;
#X text 219 845 2nd pole = 1st mirrored on the x axis;
#X text 183 704 b1/2 (x pos);
#X obj 163 748 *~;
#X obj 183 781 -~;
#X text 217 666 pole position from coeffs:;
#X text 218 683 p=-b1/2+j*sqrt(b2-(b1/2)^2) (found somewhere on the
net...);
#X text 573 99 cookbook-like? (i cant remember where i got this from)
hp-filter;
#X obj 90 670 sig~ 0;
#X obj 73 646 sig~ 1;
#X text 44 625 zeros at fixed pos;
#X obj 67 26 inlet;
#X obj 348 25 inlet;
#X obj 108 128 * 3.14159;
#X obj 135 159 / 44100;
#X obj 140 186 expr tan($f1);
#X obj 351 169 -;
#X obj 346 114 t b f;
#X msg 342 136 1;
#X obj 354 86 float 0.5;
#X obj 355 62 t f b;
#X obj 352 203 * 1.41421;
#X obj 88 93 t f b;
#X obj 72 53 float 440;
#X obj 137 223 t f f;
#X obj 194 284 *;
#X obj 273 282 *;
#X obj 197 348 +;
#X obj 196 374 + 1;
#X obj 120 440 /;
#X msg 102 413 1;
#X obj 114 390 t b f;
#X obj 287 439 - 1;
#X obj 283 465 * 2;
#X obj 237 524 *~;
#X obj 411 430 -;
#X obj 406 375 t b f;
#X msg 402 397 1;
#X obj 410 326 *;
#X obj 397 485 +~;
#X connect 0 0 24 0;
#X connect 5 0 39 1;
#X connect 7 0 8 0;
#X connect 16 0 29 0;
#X connect 18 0 19 0;
#X connect 18 1 19 1;
#X connect 19 0 20 0;
#X connect 19 1 20 1;
#X connect 20 0 21 0;
#X connect 20 1 21 1;
#X connect 21 0 1 0;
#X connect 22 0 21 3;
#X connect 23 0 20 3;
#X connect 23 0 22 0;
#X connect 24 0 18 0;
#X connect 25 0 20 2;
#X connect 25 0 21 2;
#X connect 25 0 28 0;
#X connect 25 0 28 1;
#X connect 28 0 29 1;
#X connect 29 0 23 0;
#X connect 33 0 19 3;
#X connect 33 0 18 3;
#X connect 34 0 18 2;
#X connect 34 0 19 2;
#X connect 36 0 48 0;
#X connect 37 0 45 0;
#X connect 38 0 39 0;
#X connect 39 0 40 0;
#X connect 40 0 49 0;
#X connect 40 0 63 0;
#X connect 41 0 46 0;
#X connect 42 0 43 0;
#X connect 42 1 41 1;
#X connect 43 0 41 0;
#X connect 44 0 42 0;
#X connect 45 0 44 0;
#X connect 45 1 48 0;
#X connect 46 0 51 1;
#X connect 46 0 63 1;
#X connect 47 0 38 0;
#X connect 47 1 44 0;
#X connect 48 0 47 0;
#X connect 49 0 50 0;
#X connect 49 1 50 1;
#X connect 49 1 51 0;
#X connect 50 0 52 0;
#X connect 50 0 57 0;
#X connect 50 0 64 0;
#X connect 51 0 52 1;
#X connect 52 0 53 0;
#X connect 53 0 8 1;
#X connect 53 0 56 0;
#X connect 54 0 24 1;
#X connect 54 0 16 0;
#X connect 54 0 59 0;
#X connect 55 0 54 0;
#X connect 56 0 55 0;
#X connect 56 1 54 1;
#X connect 57 0 58 0;
#X connect 58 0 59 1;
#X connect 59 0 25 0;
#X connect 60 0 64 1;
#X connect 61 0 62 0;
#X connect 61 1 60 1;
#X connect 62 0 60 0;
#X connect 63 0 61 0;
#X connect 64 0 16 1;
#X restore -21 607 pd hipass2p2zm;
#X connect 0 0 7 1;
#X connect 1 0 71 1;
#X connect 1 0 73 1;
#X connect 1 0 72 1;
#X connect 1 0 74 1;
#X connect 2 0 48 0;
#X connect 3 0 5 1;
#X connect 4 0 40 0;
#X connect 4 0 46 0;
#X connect 5 0 7 0;
#X connect 6 0 11 1;
#X connect 7 0 1 0;
#X connect 8 0 42 0;
#X connect 9 0 10 1;
#X connect 10 0 11 0;
#X connect 11 0 12 0;
#X connect 12 0 13 0;
#X connect 13 0 72 2;
#X connect 13 0 74 2;
#X connect 13 0 71 2;
#X connect 13 0 73 2;
#X connect 14 0 56 0;
#X connect 14 0 54 0;
#X connect 15 0 23 0;
#X connect 15 0 33 0;
#X connect 16 0 17 0;
#X connect 17 0 18 0;
#X connect 18 0 19 0;
#X connect 19 0 58 1;
#X connect 20 0 58 2;
#X connect 21 0 24 0;
#X connect 23 0 16 0;
#X connect 24 0 23 0;
#X connect 24 1 18 1;
#X connect 25 0 62 0;
#X connect 25 0 60 0;
#X connect 26 0 67 0;
#X connect 26 0 65 0;
#X connect 27 0 28 0;
#X connect 28 0 29 0;
#X connect 29 0 30 0;
#X connect 30 0 69 1;
#X connect 31 0 69 2;
#X connect 32 0 34 0;
#X connect 33 0 27 0;
#X connect 34 0 33 0;
#X connect 34 1 29 1;
#X connect 37 0 39 0;
#X connect 39 0 4 0;
#X connect 40 0 41 0;
#X connect 41 0 43 0;
#X connect 41 0 45 0;
#X connect 42 0 41 1;
#X connect 43 0 40 1;
#X connect 44 0 10 0;
#X connect 45 0 44 0;
#X connect 46 0 47 0;
#X connect 47 0 49 0;
#X connect 47 0 51 0;
#X connect 48 0 47 1;
#X connect 49 0 46 1;
#X connect 50 0 5 0;
#X connect 51 0 50 0;
#X connect 52 0 61 1;
#X connect 52 0 60 1;
#X connect 53 0 59 0;
#X connect 54 0 53 1;
#X connect 55 0 53 0;
#X connect 56 0 57 0;
#X connect 57 0 55 0;
#X connect 58 0 54 1;
#X connect 60 0 71 0;
#X connect 60 0 72 0;
#X connect 61 0 59 0;
#X connect 62 0 63 0;
#X connect 63 0 61 0;
#X connect 64 0 59 0;
#X connect 65 0 64 1;
#X connect 66 0 64 0;
#X connect 67 0 68 0;
#X connect 68 0 66 0;
#X connect 69 0 65 1;
#X connect 71 0 73 0;
#X connect 72 0 74 0;
#X connect 73 0 66 1;
#X connect 73 0 69 0;
#X connect 74 0 55 1;
#X connect 74 0 58 0;
#X coords 0 -1 1 1 200 130 1 100 100;
#X restore 295 88 pd dualdelay2m;
#X connect 0 0 2 2;
#X connect 0 0 2 3;
#X connect 0 0 3 1;
#X connect 0 0 3 2;
#X connect 1 0 0 0;
