#N canvas 300 325 263 246 10;
#N canvas 438 196 474 579 flngr1 0;
#X obj 110 311 osc~;
#X obj 145 129 vsl 8 128 0 0.99 0 1 empty empty fb 0 -8 0 8 -262144
-1 -1 4100 1;
#X obj 65 375 inlet~;
#X obj 168 522 outlet~;
#X obj 131 129 vsl 8 128 1 24 0 1 empty empty dl 0 -8 0 8 -262144 -1
-1 6000 1;
#X obj 111 336 +~ 0.5;
#X obj 117 128 vsl 8 128 0 16 0 1 empty empty dp 0 -8 0 8 -262144 -1
-1 1600 1;
#X obj 178 443 +~;
#X obj 152 417 *~;
#X obj 103 128 vsl 8 128 0.01 32 1 1 empty empty sp 0 -8 0 8 -262144
-1 -1 1200 1;
#X obj 171 246 loadbang;
#X msg 167 275 1;
#X obj 168 486 abs_flangerfbdly1;
#X connect 0 0 5 0;
#X connect 1 0 12 2;
#X connect 2 0 12 0;
#X connect 4 0 7 1;
#X connect 5 0 8 0;
#X connect 6 0 8 1;
#X connect 7 0 12 1;
#X connect 8 0 7 0;
#X connect 9 0 0 0;
#X connect 10 0 11 0;
#X connect 11 0 0 1;
#X connect 12 0 3 0;
#X coords 0 -1 1 1 60 160 1 100 100;
#X restore 18 -52 pd flngr1;
#N canvas 436 197 474 579 flng1s 0;
#X obj 110 311 osc~;
#X obj 145 129 vsl 8 128 0 0.99 0 1 empty empty fb 0 -8 0 8 -262144
-1 -1 4100 1;
#X obj 65 375 inlet~;
#X obj 168 522 outlet~;
#X obj 131 129 vsl 8 128 1 24 0 1 empty empty dl 0 -8 0 8 -262144 -1
-1 6000 1;
#X obj 111 336 +~ 0.5;
#X obj 117 128 vsl 8 128 0 16 0 1 empty empty dp 0 -8 0 8 -262144 -1
-1 1600 1;
#X obj 178 443 +~;
#X obj 152 417 *~;
#X obj 103 128 vsl 8 128 0.01 32 1 1 empty empty sp 0 -8 0 8 -262144
-1 -1 1200 1;
#X obj 171 246 loadbang;
#X msg 167 275 1;
#X obj 168 486 abs_flangerfbdly1;
#X obj -90 378 inlet~;
#X obj 13 525 outlet~;
#X obj 13 489 abs_flangerfbdly1;
#X connect 0 0 5 0;
#X connect 1 0 12 2;
#X connect 1 0 15 2;
#X connect 2 0 12 0;
#X connect 4 0 7 1;
#X connect 5 0 8 0;
#X connect 6 0 8 1;
#X connect 7 0 12 1;
#X connect 7 0 15 1;
#X connect 8 0 7 0;
#X connect 9 0 0 0;
#X connect 10 0 11 0;
#X connect 11 0 0 1;
#X connect 12 0 3 0;
#X connect 13 0 15 0;
#X connect 15 0 14 0;
#X coords 0 -1 1 1 60 160 1 100 100;
#X restore 95 -52 pd flng1s;
