#N canvas 81 165 937 670 10;
#N canvas 269 99 1543 980 fmdrone 0;
#X obj -215 367 mtof;
#X obj 117 115 vradio 15 1 1 5 empty empty empty 0 -8 0 10 -262144
-1 -1 1;
#X obj -146 338 select 0 1 2 3 4;
#X msg -183 380 0 1 0 1 1 0;
#X msg -163 405 0.5 1.5 0 2 1 0;
#X msg -127 455 0 0.5 0.75 1 2 1;
#X msg -148 433 0 0.5 0.75 0.5 2 1;
#X msg -89 475 0.5 1 0 1 1 0;
#X obj 31 409 *;
#X obj 195 115 vradio 15 1 1 5 empty empty empty 0 -8 0 10 -262144
-1 -1 0;
#X obj 1 549 select 0 1 2 3 4;
#X msg -19 574 0 1 0 1 1 0;
#X msg 1 599 0.5 1.5 0 2 1 0;
#X msg 37 649 0 0.5 0.75 1 2 1;
#X msg 16 627 0 0.5 0.75 0.5 2 1;
#X msg 75 669 0.5 1 0 1 1 0;
#X obj 134 115 nbx 4 14 0.25 16 0 1 empty empty empty 0 -8 0 10 -262144
-1 -1 3.99 256;
#X obj -61 747 abs_fm_op1;
#X obj -138 574 abs_fm_op1;
#X obj 103 116 vsl 12 81 0 0.5 0 1 empty empty fb 2 4 0 8 -262144 -1
-1 5300 1;
#X obj 150 399 *;
#X obj 181 117 vsl 12 81 0 0.5 0 1 empty empty fb 2 4 0 8 -262144 -1
-1 6600 1;
#X obj 246 116 vsl 10 81 0 0.3 0 1 empty empty b 2 4 0 8 -262144 -1
-1 1600 1;
#X obj 259 819 *~;
#X obj -148 528 *~;
#X obj 227 665 *~;
#X msg 349 340 1;
#X msg 589 156 bang;
#X obj -54 706 *~;
#X obj 215 729 *~;
#X obj 234 638 clip~ -1 1;
#X obj 234 438 *~;
#X obj 292 402 clip~ -1 1;
#X obj 212 117 vsl 12 81 0 1 0 1 empty empty ff 2 4 0 8 -262144 -1
-1 5500 1;
#X obj 227 117 vsl 12 81 0 1 0 1 empty empty lm 2 4 0 8 -262144 -1
-1 3500 1;
#X obj 134 136 nbx 4 14 0.0001 5 0 1 empty empty empty 0 -8 0 10 -262144
-1 -1 0.23 256;
#X obj 134 154 nbx 4 14 0.0001 5 0 1 empty empty empty 0 -8 0 10 -262144
-1 -1 0.15 256;
#X obj 91 315 metro 5000;
#X obj 134 176 nbx 4 14 1 16000 0 1 empty empty empty 0 -8 0 10 -262144
-1 -1 6666 256;
#X obj 600 456 mtof;
#X obj 303 114 vradio 15 1 1 5 empty empty empty 0 -8 0 10 -262144
-1 -1 2;
#X obj 647 326 select 0 1 2 3 4;
#X msg 630 364 0 1 0 1 1 0;
#X msg 630 393 0.5 1.5 0 2 1 0;
#X msg 666 443 0 0.5 0.75 1 2 1;
#X msg 645 421 0 0.5 0.75 0.5 2 1;
#X msg 704 463 0.5 1 0 1 1 0;
#X obj 539 505 *;
#X obj 382 114 vradio 15 1 1 5 empty empty empty 0 -8 0 10 -262144
-1 -1 3;
#X obj 749 535 select 0 1 2 3 4;
#X msg 729 560 0 1 0 1 1 0;
#X msg 749 585 0.5 1.5 0 2 1 0;
#X msg 785 635 0 0.5 0.75 1 2 1;
#X msg 764 613 0 0.5 0.75 0.5 2 1;
#X msg 823 655 0.5 1 0 1 1 0;
#X obj 320 114 nbx 4 14 0.25 16 0 1 empty empty empty 0 -8 0 10 -262144
-1 -1 0.25 256;
#X obj 619 798 abs_fm_op1;
#X obj 593 559 abs_fm_op1;
#X obj 289 116 vsl 12 81 0 0.5 0 1 empty empty fb 2 4 0 8 -262144 -1
-1 2800 1;
#X obj 521 613 *;
#X obj 368 116 vsl 12 81 0 0.5 0 1 empty empty fb 2 4 0 8 -262144 -1
-1 3500 1;
#X obj 272 116 vsl 10 81 0 0.3 0 1 empty empty b 2 4 0 8 -262144 -1
-1 1400 1;
#X obj 481 848 *~;
#X obj 587 522 *~;
#X obj 969 669 *~;
#X msg 947 341 1;
#X obj 636 757 *~;
#X obj 891 714 *~;
#X obj 972 645 clip~ -1 1;
#X obj 814 485 *~;
#X obj 833 427 clip~ -1 1;
#X obj 399 117 vsl 12 81 0 1 0 1 empty empty ff 2 4 0 8 -262144 -1
-1 6300 1;
#X obj 413 117 vsl 12 81 0 1 0 1 empty empty lm 2 4 0 8 -262144 -1
-1 6400 1;
#X obj 320 136 nbx 4 14 0.0001 5 0 1 empty empty empty 0 -8 0 10 -262144
-1 -1 0.14 256;
#X obj 320 154 nbx 4 14 0.0001 5 0 1 empty empty empty 0 -8 0 10 -262144
-1 -1 0.19 256;
#X obj 1053 343 metro 5000;
#X obj 321 176 nbx 4 14 1 16000 0 1 empty empty empty 0 -8 0 10 -262144
-1 -1 9000 256;
#X obj 318 868 *~;
#X obj 259 116 vsl 10 81 0 0.3 0 1 empty empty r 2 4 0 8 -262144 -1
-1 3100 1;
#X obj 320 899 *~;
#X obj 319 943 outlet~;
#X obj 589 124 loadbang;
#X obj 586 403 +;
#X obj -383 257 inlet;
#X obj 285 203 nbx 6 14 -36 36 0 1 empty empty empty 0 -8 0 10 -262144
-1 -1 24.02 256;
#X obj 103 203 nbx 4 14 0 127 0 1 empty empty empty 0 -8 0 10 -262144
-1 -1 36 256;
#X obj -215 340 +;
#X obj -251 304 - 60;
#X obj -177 307 t b f;
#X obj 493 338 t b f;
#X msg 271 489 set \$1tabosc512wavbuffer;
#X obj 315 522 abs_tabosc512buffer;
#X obj 956 543 abs_tabosc512buffer;
#X msg 966 570 set \$1tabosc512wavbuffer;
#X obj 294 371 tabosc4~;
#X obj 278 576 tabosc4~;
#X obj 825 399 tabosc4~;
#X obj 970 616 tabosc4~;
#X obj -124 -312 +;
#X obj -113 -287 +;
#X obj 468 1001 float;
#X obj -78 -262 +;
#X obj -108 -223 +;
#X obj -101 -198 +;
#X obj -45 -176 +;
#X obj -43 -142 +;
#X obj 515 1099 outlet;
#X obj -157 -385 inlet;
#X obj 262 -53 inlet;
#X obj 351 202 bng 15 250 50 0 empty empty v 5 8 0 10 -262144 -1 -1
;
#X text 515 1116 preset;
#N canvas 105 619 450 300 randadd 0;
#X obj -19 178 random;
#X obj -9 119 t b f;
#X obj 27 146 * 10;
#X obj 1 71 inlet;
#X obj 26 217 / 2;
#X obj -2 243 -;
#X obj -1 280 / 2000;
#X obj 4 310 outlet;
#X connect 0 0 5 0;
#X connect 1 0 0 0;
#X connect 1 1 2 0;
#X connect 2 0 0 1;
#X connect 2 0 4 0;
#X connect 3 0 1 0;
#X connect 4 0 5 1;
#X connect 5 0 6 0;
#X connect 6 0 7 0;
#X restore -193 -311 pd randadd;
#N canvas 107 618 450 300 randadd 0;
#X obj -19 178 random;
#X obj -9 119 t b f;
#X obj 27 146 * 10;
#X obj 1 71 inlet;
#X obj 26 217 / 2;
#X obj -2 243 -;
#X obj -1 280 / 2000;
#X obj 4 310 outlet;
#X connect 0 0 5 0;
#X connect 1 0 0 0;
#X connect 1 1 2 0;
#X connect 2 0 0 1;
#X connect 2 0 4 0;
#X connect 3 0 1 0;
#X connect 4 0 5 1;
#X connect 5 0 6 0;
#X connect 6 0 7 0;
#X restore -214 -282 pd randadd;
#N canvas 105 619 450 300 randadd 0;
#X obj -19 178 random;
#X obj -9 119 t b f;
#X obj 27 146 * 10;
#X obj 1 71 inlet;
#X obj 26 217 / 2;
#X obj -2 243 -;
#X obj -1 280 / 2000;
#X obj 4 310 outlet;
#X connect 0 0 5 0;
#X connect 1 0 0 0;
#X connect 1 1 2 0;
#X connect 2 0 0 1;
#X connect 2 0 4 0;
#X connect 3 0 1 0;
#X connect 4 0 5 1;
#X connect 5 0 6 0;
#X connect 6 0 7 0;
#X restore -182 -257 pd randadd;
#N canvas 107 618 450 300 randadd 0;
#X obj -19 178 random;
#X obj -9 119 t b f;
#X obj 27 146 * 10;
#X obj 1 71 inlet;
#X obj 26 217 / 2;
#X obj -2 243 -;
#X obj -1 280 / 2000;
#X obj 4 310 outlet;
#X connect 0 0 5 0;
#X connect 1 0 0 0;
#X connect 1 1 2 0;
#X connect 2 0 0 1;
#X connect 2 0 4 0;
#X connect 3 0 1 0;
#X connect 4 0 5 1;
#X connect 5 0 6 0;
#X connect 6 0 7 0;
#X restore -177 -227 pd randadd;
#N canvas 107 618 450 300 randadd 0;
#X obj -19 178 random;
#X obj -9 119 t b f;
#X obj 27 146 * 10;
#X obj 1 71 inlet;
#X obj 26 217 / 2;
#X obj -2 243 -;
#X obj -1 280 / 2000;
#X obj 4 310 outlet;
#X connect 0 0 5 0;
#X connect 1 0 0 0;
#X connect 1 1 2 0;
#X connect 2 0 0 1;
#X connect 2 0 4 0;
#X connect 3 0 1 0;
#X connect 4 0 5 1;
#X connect 5 0 6 0;
#X connect 6 0 7 0;
#X restore -172 -199 pd randadd;
#N canvas 107 618 450 300 randadd 0;
#X obj -19 178 random;
#X obj -9 119 t b f;
#X obj 27 146 * 10;
#X obj 1 71 inlet;
#X obj 26 217 / 2;
#X obj -2 243 -;
#X obj -1 280 / 2000;
#X obj 4 310 outlet;
#X connect 0 0 5 0;
#X connect 1 0 0 0;
#X connect 1 1 2 0;
#X connect 2 0 0 1;
#X connect 2 0 4 0;
#X connect 3 0 1 0;
#X connect 4 0 5 1;
#X connect 5 0 6 0;
#X connect 6 0 7 0;
#X restore -169 -174 pd randadd;
#N canvas 103 620 450 300 randadd 0;
#X obj -19 178 random;
#X obj -9 119 t b f;
#X obj 27 146 * 10;
#X obj 1 71 inlet;
#X obj 26 217 / 2;
#X obj -2 243 -;
#X obj -1 280 / 2000;
#X obj 4 310 outlet;
#X connect 0 0 5 0;
#X connect 1 0 0 0;
#X connect 1 1 2 0;
#X connect 2 0 0 1;
#X connect 2 0 4 0;
#X connect 3 0 1 0;
#X connect 4 0 5 1;
#X connect 5 0 6 0;
#X connect 6 0 7 0;
#X restore -163 -146 pd randadd;
#X text 263 -72 preset(list);
#X obj 257 -18 unpack f f f f f f f f f f f f f f f f f f f f f f f
f f;
#X msg 510 1060 set \$1 \$2 \$3 \$4 \$5 \$6 \$7 \$8 \$9 \$10 \$11 \$12
\$13 \$14 \$15 \$16 \$17 \$18 \$19 \$20 \$21 \$22 \$23 \$24 \$25;
#X obj 503 1030 pack f f f f f f f f f f f f f f f f f f f f f f f
f f;
#X text -387 240 transpose;
#X text 323 -204 2 x 2 operator fm/ringmod synth drone. output is used
as modulator lfo wave;
#X text 323 -175 11/2013 martin brinkmann;
#X obj -172 -350 unpack f f f f f f f f f f f f f f f f f f f f f f
f f f;
#X obj -85 -116 +;
#X obj -59 -94 +;
#N canvas 107 618 450 300 randadd 0;
#X obj -19 178 random;
#X obj -9 119 t b f;
#X obj 27 146 * 10;
#X obj 1 71 inlet;
#X obj 26 217 / 2;
#X obj -2 243 -;
#X obj -1 280 / 2000;
#X obj 4 310 outlet;
#X connect 0 0 5 0;
#X connect 1 0 0 0;
#X connect 1 1 2 0;
#X connect 2 0 0 1;
#X connect 2 0 4 0;
#X connect 3 0 1 0;
#X connect 4 0 5 1;
#X connect 5 0 6 0;
#X connect 6 0 7 0;
#X restore -155 -118 pd randadd;
#N canvas 103 620 450 300 randadd 0;
#X obj -19 178 random;
#X obj -9 119 t b f;
#X obj 27 146 * 10;
#X obj 1 71 inlet;
#X obj 26 217 / 2;
#X obj -2 243 -;
#X obj -1 280 / 2000;
#X obj 4 310 outlet;
#X connect 0 0 5 0;
#X connect 1 0 0 0;
#X connect 1 1 2 0;
#X connect 2 0 0 1;
#X connect 2 0 4 0;
#X connect 3 0 1 0;
#X connect 4 0 5 1;
#X connect 5 0 6 0;
#X connect 6 0 7 0;
#X restore -162 -95 pd randadd;
#X obj -75 -64 +;
#X obj -70 -38 +;
#N canvas 107 618 450 300 randadd 0;
#X obj -19 178 random;
#X obj -9 119 t b f;
#X obj 27 146 * 10;
#X obj 1 71 inlet;
#X obj 26 217 / 2;
#X obj -2 243 -;
#X obj -1 280 / 2000;
#X obj 4 310 outlet;
#X connect 0 0 5 0;
#X connect 1 0 0 0;
#X connect 1 1 2 0;
#X connect 2 0 0 1;
#X connect 2 0 4 0;
#X connect 3 0 1 0;
#X connect 4 0 5 1;
#X connect 5 0 6 0;
#X connect 6 0 7 0;
#X restore -145 -66 pd randadd;
#N canvas 103 620 450 300 randadd 0;
#X obj -19 178 random;
#X obj -9 119 t b f;
#X obj 27 146 * 10;
#X obj 1 71 inlet;
#X obj 26 217 / 2;
#X obj -2 243 -;
#X obj -1 280 / 2000;
#X obj 4 310 outlet;
#X connect 0 0 5 0;
#X connect 1 0 0 0;
#X connect 1 1 2 0;
#X connect 2 0 0 1;
#X connect 2 0 4 0;
#X connect 3 0 1 0;
#X connect 4 0 5 1;
#X connect 5 0 6 0;
#X connect 6 0 7 0;
#X restore -138 -40 pd randadd;
#X obj -42 -6 +;
#X obj -9 34 +;
#N canvas 107 618 450 300 randadd 0;
#X obj -19 178 random;
#X obj -9 119 t b f;
#X obj 27 146 * 10;
#X obj 1 71 inlet;
#X obj 26 217 / 2;
#X obj -2 243 -;
#X obj -1 280 / 2000;
#X obj 4 310 outlet;
#X connect 0 0 5 0;
#X connect 1 0 0 0;
#X connect 1 1 2 0;
#X connect 2 0 0 1;
#X connect 2 0 4 0;
#X connect 3 0 1 0;
#X connect 4 0 5 1;
#X connect 5 0 6 0;
#X connect 6 0 7 0;
#X restore -112 -8 pd randadd;
#N canvas 103 620 450 300 randadd 0;
#X obj -19 178 random;
#X obj -9 119 t b f;
#X obj 27 146 * 10;
#X obj 1 71 inlet;
#X obj 26 217 / 2;
#X obj -2 243 -;
#X obj -1 280 / 2000;
#X obj 4 310 outlet;
#X connect 0 0 5 0;
#X connect 1 0 0 0;
#X connect 1 1 2 0;
#X connect 2 0 0 1;
#X connect 2 0 4 0;
#X connect 3 0 1 0;
#X connect 4 0 5 1;
#X connect 5 0 6 0;
#X connect 6 0 7 0;
#X restore -77 32 pd randadd;
#X obj 28 -304 +;
#X obj 46 -260 +;
#X obj 88 -237 +;
#X obj 99 -211 +;
#X obj 65 -177 +;
#X obj 71 -150 +;
#X obj 74 -122 +;
#N canvas 105 619 450 300 randadd 0;
#X obj -19 178 random;
#X obj -9 119 t b f;
#X obj 27 146 * 10;
#X obj 1 71 inlet;
#X obj 26 217 / 2;
#X obj -2 243 -;
#X obj -1 280 / 2000;
#X obj 4 310 outlet;
#X connect 0 0 5 0;
#X connect 1 0 0 0;
#X connect 1 1 2 0;
#X connect 2 0 0 1;
#X connect 2 0 4 0;
#X connect 3 0 1 0;
#X connect 4 0 5 1;
#X connect 5 0 6 0;
#X connect 6 0 7 0;
#X restore -42 -302 pd randadd;
#N canvas 107 618 450 300 randadd 0;
#X obj -19 178 random;
#X obj -9 119 t b f;
#X obj 27 146 * 10;
#X obj 1 71 inlet;
#X obj 26 217 / 2;
#X obj -2 243 -;
#X obj -1 280 / 2000;
#X obj 4 310 outlet;
#X connect 0 0 5 0;
#X connect 1 0 0 0;
#X connect 1 1 2 0;
#X connect 2 0 0 1;
#X connect 2 0 4 0;
#X connect 3 0 1 0;
#X connect 4 0 5 1;
#X connect 5 0 6 0;
#X connect 6 0 7 0;
#X restore -23 -263 pd randadd;
#N canvas 107 618 450 300 randadd 0;
#X obj -19 178 random;
#X obj -9 119 t b f;
#X obj 27 146 * 10;
#X obj 1 71 inlet;
#X obj 26 217 / 2;
#X obj -2 243 -;
#X obj -1 280 / 2000;
#X obj 4 310 outlet;
#X connect 0 0 5 0;
#X connect 1 0 0 0;
#X connect 1 1 2 0;
#X connect 2 0 0 1;
#X connect 2 0 4 0;
#X connect 3 0 1 0;
#X connect 4 0 5 1;
#X connect 5 0 6 0;
#X connect 6 0 7 0;
#X restore -18 -235 pd randadd;
#N canvas 107 618 450 300 randadd 0;
#X obj -19 178 random;
#X obj -9 119 t b f;
#X obj 27 146 * 10;
#X obj 1 71 inlet;
#X obj 26 217 / 2;
#X obj -2 243 -;
#X obj -1 280 / 2000;
#X obj 4 310 outlet;
#X connect 0 0 5 0;
#X connect 1 0 0 0;
#X connect 1 1 2 0;
#X connect 2 0 0 1;
#X connect 2 0 4 0;
#X connect 3 0 1 0;
#X connect 4 0 5 1;
#X connect 5 0 6 0;
#X connect 6 0 7 0;
#X restore -7 -209 pd randadd;
#N canvas 107 618 450 300 randadd 0;
#X obj -19 178 random;
#X obj -9 119 t b f;
#X obj 27 146 * 10;
#X obj 1 71 inlet;
#X obj 26 217 / 2;
#X obj -2 243 -;
#X obj -1 280 / 2000;
#X obj 4 310 outlet;
#X connect 0 0 5 0;
#X connect 1 0 0 0;
#X connect 1 1 2 0;
#X connect 2 0 0 1;
#X connect 2 0 4 0;
#X connect 3 0 1 0;
#X connect 4 0 5 1;
#X connect 5 0 6 0;
#X connect 6 0 7 0;
#X restore -6 -178 pd randadd;
#N canvas 107 618 450 300 randadd 0;
#X obj -19 178 random;
#X obj -9 119 t b f;
#X obj 27 146 * 10;
#X obj 1 71 inlet;
#X obj 26 217 / 2;
#X obj -2 243 -;
#X obj -1 280 / 2000;
#X obj 4 310 outlet;
#X connect 0 0 5 0;
#X connect 1 0 0 0;
#X connect 1 1 2 0;
#X connect 2 0 0 1;
#X connect 2 0 4 0;
#X connect 3 0 1 0;
#X connect 4 0 5 1;
#X connect 5 0 6 0;
#X connect 6 0 7 0;
#X restore 1 -152 pd randadd;
#N canvas 103 620 450 300 randadd 0;
#X obj -19 178 random;
#X obj -9 119 t b f;
#X obj 27 146 * 10;
#X obj 1 71 inlet;
#X obj 26 217 / 2;
#X obj -2 243 -;
#X obj -1 280 / 2000;
#X obj 4 310 outlet;
#X connect 0 0 5 0;
#X connect 1 0 0 0;
#X connect 1 1 2 0;
#X connect 2 0 0 1;
#X connect 2 0 4 0;
#X connect 3 0 1 0;
#X connect 4 0 5 1;
#X connect 5 0 6 0;
#X connect 6 0 7 0;
#X restore 6 -124 pd randadd;
#X obj 112 -99 +;
#X obj 84 -69 +;
#N canvas 107 618 450 300 randadd 0;
#X obj -19 178 random;
#X obj -9 119 t b f;
#X obj 27 146 * 10;
#X obj 1 71 inlet;
#X obj 26 217 / 2;
#X obj -2 243 -;
#X obj -1 280 / 2000;
#X obj 4 310 outlet;
#X connect 0 0 5 0;
#X connect 1 0 0 0;
#X connect 1 1 2 0;
#X connect 2 0 0 1;
#X connect 2 0 4 0;
#X connect 3 0 1 0;
#X connect 4 0 5 1;
#X connect 5 0 6 0;
#X connect 6 0 7 0;
#X restore 11 -98 pd randadd;
#N canvas 103 620 450 300 randadd 0;
#X obj -19 178 random;
#X obj -9 119 t b f;
#X obj 27 146 * 10;
#X obj 1 71 inlet;
#X obj 26 217 / 2;
#X obj -2 243 -;
#X obj -1 280 / 2000;
#X obj 4 310 outlet;
#X connect 0 0 5 0;
#X connect 1 0 0 0;
#X connect 1 1 2 0;
#X connect 2 0 0 1;
#X connect 2 0 4 0;
#X connect 3 0 1 0;
#X connect 4 0 5 1;
#X connect 5 0 6 0;
#X connect 6 0 7 0;
#X restore 16 -71 pd randadd;
#X obj 127 -45 +;
#X obj 96 -17 +;
#N canvas 107 618 450 300 randadd 0;
#X obj -19 178 random;
#X obj -9 119 t b f;
#X obj 27 146 * 10;
#X obj 1 71 inlet;
#X obj 26 217 / 2;
#X obj -2 243 -;
#X obj -1 280 / 2000;
#X obj 4 310 outlet;
#X connect 0 0 5 0;
#X connect 1 0 0 0;
#X connect 1 1 2 0;
#X connect 2 0 0 1;
#X connect 2 0 4 0;
#X connect 3 0 1 0;
#X connect 4 0 5 1;
#X connect 5 0 6 0;
#X connect 6 0 7 0;
#X restore 26 -45 pd randadd;
#N canvas 103 620 450 300 randadd 0;
#X obj -19 178 random;
#X obj -9 119 t b f;
#X obj 27 146 * 10;
#X obj 1 71 inlet;
#X obj 26 217 / 2;
#X obj -2 243 -;
#X obj -1 280 / 2000;
#X obj 4 310 outlet;
#X connect 0 0 5 0;
#X connect 1 0 0 0;
#X connect 1 1 2 0;
#X connect 2 0 0 1;
#X connect 2 0 4 0;
#X connect 3 0 1 0;
#X connect 4 0 5 1;
#X connect 5 0 6 0;
#X connect 6 0 7 0;
#X restore 28 -19 pd randadd;
#X obj 106 6 +;
#N canvas 107 618 450 300 randadd 0;
#X obj -19 178 random;
#X obj -9 119 t b f;
#X obj 27 146 * 10;
#X obj 1 71 inlet;
#X obj 26 217 / 2;
#X obj -2 243 -;
#X obj -1 280 / 2000;
#X obj 4 310 outlet;
#X connect 0 0 5 0;
#X connect 1 0 0 0;
#X connect 1 1 2 0;
#X connect 2 0 0 1;
#X connect 2 0 4 0;
#X connect 3 0 1 0;
#X connect 4 0 5 1;
#X connect 5 0 6 0;
#X connect 6 0 7 0;
#X restore 36 4 pd randadd;
#X obj -114 -258 * 16;
#X obj -100 -172 * 1000;
#X obj -91 -146 * 127;
#X text -160 -402 random walk for (list of percents);
#X obj 63 -208 * 16;
#X obj 80 -99 * 72;
#X obj -144 -286 * 50;
#X obj -91 -95 * 50;
#X obj 95 -46 * 50;
#X obj 55 -237 * 50;
#X connect 0 0 17 0;
#X connect 0 0 24 0;
#X connect 1 0 2 0;
#X connect 1 0 121 1;
#X connect 1 0 99 1;
#X connect 2 0 3 0;
#X connect 2 1 4 0;
#X connect 2 2 6 0;
#X connect 2 3 5 0;
#X connect 2 4 7 0;
#X connect 3 0 18 2;
#X connect 4 0 18 2;
#X connect 5 0 18 2;
#X connect 6 0 18 2;
#X connect 7 0 18 2;
#X connect 8 0 18 3;
#X connect 9 0 10 0;
#X connect 9 0 121 8;
#X connect 9 0 127 1;
#X connect 10 0 11 0;
#X connect 10 1 12 0;
#X connect 10 2 14 0;
#X connect 10 3 13 0;
#X connect 10 4 15 0;
#X connect 11 0 17 2;
#X connect 12 0 17 2;
#X connect 13 0 17 2;
#X connect 14 0 17 2;
#X connect 15 0 17 2;
#X connect 16 0 24 1;
#X connect 16 0 121 2;
#X connect 16 0 101 1;
#X connect 17 0 23 0;
#X connect 17 0 77 0;
#X connect 17 0 91 0;
#X connect 18 0 28 0;
#X connect 19 0 8 1;
#X connect 19 0 8 0;
#X connect 19 0 100 1;
#X connect 19 0 98 1;
#X connect 20 0 17 3;
#X connect 21 0 20 1;
#X connect 21 0 20 0;
#X connect 21 0 121 7;
#X connect 21 0 126 1;
#X connect 22 0 23 1;
#X connect 22 0 121 11;
#X connect 22 0 134 1;
#X connect 23 0 80 0;
#X connect 24 0 18 0;
#X connect 25 0 29 1;
#X connect 25 0 29 0;
#X connect 26 0 94 0;
#X connect 26 0 95 1;
#X connect 27 0 26 0;
#X connect 27 0 37 0;
#X connect 27 0 75 0;
#X connect 27 0 65 0;
#X connect 28 0 17 1;
#X connect 29 0 28 1;
#X connect 30 0 25 0;
#X connect 31 0 18 1;
#X connect 32 0 31 0;
#X connect 33 0 31 1;
#X connect 33 0 121 9;
#X connect 33 0 130 1;
#X connect 34 0 25 1;
#X connect 34 0 121 10;
#X connect 34 0 131 1;
#X connect 35 0 94 0;
#X connect 35 0 121 3;
#X connect 35 0 102 1;
#X connect 36 0 95 0;
#X connect 36 0 121 4;
#X connect 36 0 103 1;
#X connect 37 0 91 1;
#X connect 38 0 121 5;
#X connect 38 0 104 1;
#X connect 39 0 56 0;
#X connect 39 0 63 0;
#X connect 40 0 41 0;
#X connect 40 0 121 15;
#X connect 40 0 140 1;
#X connect 41 0 42 0;
#X connect 41 1 43 0;
#X connect 41 2 45 0;
#X connect 41 3 44 0;
#X connect 41 4 46 0;
#X connect 42 0 57 2;
#X connect 43 0 57 2;
#X connect 44 0 57 2;
#X connect 45 0 57 2;
#X connect 46 0 57 2;
#X connect 47 0 57 3;
#X connect 48 0 49 0;
#X connect 48 0 121 22;
#X connect 48 0 156 1;
#X connect 49 0 50 0;
#X connect 49 1 51 0;
#X connect 49 2 53 0;
#X connect 49 3 52 0;
#X connect 49 4 54 0;
#X connect 50 0 56 2;
#X connect 51 0 56 2;
#X connect 52 0 56 2;
#X connect 53 0 56 2;
#X connect 54 0 56 2;
#X connect 55 0 63 1;
#X connect 55 0 121 16;
#X connect 55 0 141 1;
#X connect 56 0 62 0;
#X connect 56 0 77 1;
#X connect 56 0 92 0;
#X connect 57 0 66 0;
#X connect 58 0 47 1;
#X connect 58 0 47 0;
#X connect 58 0 121 14;
#X connect 58 0 139 1;
#X connect 59 0 56 3;
#X connect 60 0 59 1;
#X connect 60 0 59 0;
#X connect 60 0 121 21;
#X connect 60 0 153 1;
#X connect 61 0 62 1;
#X connect 61 0 121 13;
#X connect 61 0 138 1;
#X connect 62 0 80 0;
#X connect 63 0 57 0;
#X connect 64 0 67 1;
#X connect 64 0 67 0;
#X connect 65 0 96 0;
#X connect 65 0 97 1;
#X connect 66 0 56 1;
#X connect 67 0 66 1;
#X connect 68 0 64 0;
#X connect 69 0 57 1;
#X connect 70 0 69 0;
#X connect 71 0 69 1;
#X connect 71 0 121 23;
#X connect 71 0 157 1;
#X connect 72 0 64 1;
#X connect 72 0 121 24;
#X connect 72 0 160 1;
#X connect 73 0 96 0;
#X connect 73 0 121 17;
#X connect 73 0 142 1;
#X connect 74 0 97 0;
#X connect 74 0 121 18;
#X connect 74 0 143 1;
#X connect 75 0 92 1;
#X connect 76 0 75 1;
#X connect 76 0 121 19;
#X connect 76 0 144 1;
#X connect 77 0 79 0;
#X connect 78 0 79 1;
#X connect 78 0 121 12;
#X connect 78 0 135 1;
#X connect 79 0 80 0;
#X connect 81 0 27 0;
#X connect 82 0 39 0;
#X connect 83 0 87 0;
#X connect 84 0 89 0;
#X connect 84 0 121 20;
#X connect 84 0 152 1;
#X connect 85 0 88 0;
#X connect 85 0 121 6;
#X connect 85 0 105 1;
#X connect 86 0 0 0;
#X connect 86 0 82 0;
#X connect 87 0 86 0;
#X connect 88 0 86 0;
#X connect 88 1 86 1;
#X connect 89 0 82 0;
#X connect 89 1 82 1;
#X connect 90 0 94 0;
#X connect 90 0 95 0;
#X connect 91 0 90 0;
#X connect 92 0 93 0;
#X connect 93 0 96 0;
#X connect 93 0 97 0;
#X connect 94 0 32 0;
#X connect 95 0 30 0;
#X connect 96 0 70 0;
#X connect 97 0 68 0;
#X connect 98 0 19 0;
#X connect 99 0 1 0;
#X connect 100 0 121 0;
#X connect 101 0 16 0;
#X connect 102 0 35 0;
#X connect 103 0 36 0;
#X connect 104 0 38 0;
#X connect 105 0 85 0;
#X connect 107 0 125 0;
#X connect 108 0 119 0;
#X connect 109 0 100 0;
#X connect 111 0 98 0;
#X connect 112 0 168 0;
#X connect 113 0 162 0;
#X connect 114 0 102 0;
#X connect 115 0 103 0;
#X connect 116 0 163 0;
#X connect 117 0 164 0;
#X connect 119 0 19 0;
#X connect 119 1 1 0;
#X connect 119 2 16 0;
#X connect 119 3 35 0;
#X connect 119 4 36 0;
#X connect 119 5 38 0;
#X connect 119 6 85 0;
#X connect 119 7 21 0;
#X connect 119 8 9 0;
#X connect 119 9 33 0;
#X connect 119 10 34 0;
#X connect 119 11 22 0;
#X connect 119 12 78 0;
#X connect 119 13 61 0;
#X connect 119 14 58 0;
#X connect 119 15 40 0;
#X connect 119 16 55 0;
#X connect 119 17 73 0;
#X connect 119 18 74 0;
#X connect 119 19 76 0;
#X connect 119 20 84 0;
#X connect 119 21 60 0;
#X connect 119 22 48 0;
#X connect 119 23 71 0;
#X connect 119 24 72 0;
#X connect 120 0 106 0;
#X connect 121 0 120 0;
#X connect 125 0 111 0;
#X connect 125 1 112 0;
#X connect 125 2 113 0;
#X connect 125 3 114 0;
#X connect 125 4 115 0;
#X connect 125 5 116 0;
#X connect 125 6 117 0;
#X connect 125 7 128 0;
#X connect 125 8 129 0;
#X connect 125 9 132 0;
#X connect 125 10 133 0;
#X connect 125 11 136 0;
#X connect 125 12 137 0;
#X connect 125 13 145 0;
#X connect 125 14 146 0;
#X connect 125 15 147 0;
#X connect 125 16 148 0;
#X connect 125 17 149 0;
#X connect 125 18 150 0;
#X connect 125 19 151 0;
#X connect 125 20 154 0;
#X connect 125 21 155 0;
#X connect 125 22 158 0;
#X connect 125 23 159 0;
#X connect 125 24 161 0;
#X connect 126 0 21 0;
#X connect 127 0 9 0;
#X connect 128 0 126 0;
#X connect 129 0 169 0;
#X connect 130 0 33 0;
#X connect 131 0 34 0;
#X connect 132 0 130 0;
#X connect 133 0 131 0;
#X connect 134 0 22 0;
#X connect 135 0 78 0;
#X connect 136 0 134 0;
#X connect 137 0 135 0;
#X connect 138 0 61 0;
#X connect 139 0 58 0;
#X connect 140 0 40 0;
#X connect 141 0 55 0;
#X connect 142 0 73 0;
#X connect 143 0 74 0;
#X connect 144 0 76 0;
#X connect 145 0 138 0;
#X connect 146 0 139 0;
#X connect 147 0 171 0;
#X connect 148 0 166 0;
#X connect 149 0 142 0;
#X connect 150 0 143 0;
#X connect 151 0 144 0;
#X connect 152 0 84 0;
#X connect 153 0 60 0;
#X connect 154 0 167 0;
#X connect 155 0 153 0;
#X connect 156 0 48 0;
#X connect 157 0 71 0;
#X connect 158 0 170 0;
#X connect 159 0 157 0;
#X connect 160 0 72 0;
#X connect 161 0 160 0;
#X connect 162 0 101 0;
#X connect 163 0 104 0;
#X connect 164 0 105 0;
#X connect 166 0 141 0;
#X connect 167 0 152 0;
#X connect 168 0 99 0;
#X connect 169 0 127 0;
#X connect 170 0 156 0;
#X connect 171 0 140 0;
#X coords 0 -1 1 1 330 120 1 100 100;
#X restore -185 223 pd fmdrone;
#X obj -172 442 dac~;
#X obj -186 362 abs_stereochorus1;
#X obj -291 1 notein;
#X msg 216 47 0.26875 0 3 0.2601 0.1601 5119 36 0.16875 1 0.35 0.575
0 0.135 0.08625 0.175 0 7.25 0.3901 0.1801 4497 12.05 0.23125 1 0.65
0.2;
#X msg 216 12 0 0 2 0.25 0.16 4000 36 0 0 0.4875 0.4875 0 0.135 0 0
0 4 0.5 0.2 4000 12 0 0 0.475 0.4625;
#X text -247 1 midi transpose;
#X msg -268 80 5 0 0 0 0 0 0 5 0 0 0 0 0 0 5 0 0 0 0 0 0 5 0 0 0;
#X text 40 83 mutate feedback;
#X text 61 103 mutate fm mod;
#X text 77 124 mutate speeds;
#X msg -265 124 0 0 0 10 10 10 0 0 0 0 0 0 0 0 0 0 0 10 10 10 0 0 0
0 0;
#X text 69 145 mutate waveforms;
#X msg -265 144 0 10 0 0 0 0 0 0 10 0 0 0 0 0 0 10 0 0 0 0 0 0 10 0
0;
#X text 69 165 mutate pitch related;
#X msg -265 164 0 0 10 0 0 0 10 0 0 0 0 0 0 0 0 0 10 0 0 0 10 0 0 0
0;
#X text -121 -17 2 x 2 operator fm/ringmod synth drone. output is used
as modulator lfo wave;
#X text -121 12 11/2013 martin brinkmann;
#X msg 216 94 0.31875 0 2 0.35 0.89 5799 36 0.1375 1 0.2375 0.35 0.01875
0.16125 0.07875 0.16875 1 1.25 0.38 0.2 3528 11.96 0.39375 0 0.1125
0.3625;
#X msg 218 142 0.1625 4 1 0.35 0.3101 4875 36 0.36875 2 0.2375 0.5125
0.03375 0.17625 0.0675 0.2625 3 1.25 1.4001 0.56 3106 11.96 0.38125
2 0.6 0.3;
#X msg 219 187 0.2875 0 12 0.24 0.16 4847 36 0.05 0 0.2125 0.5875 0
0.10125 0.09 0.19375 0 6.5 0.14 0.2 6417 19.08 0 0 0.4625 0.1375;
#X msg 220 234 0.40625 3 7 0.12 0.6 4466 36 0.14375 1 0.3 0.1375 0
0.135 0.07875 0.0625 3 9 0.5 0.2 3535 -12 0.2875 2 0.225 0.6125;
#X msg -266 102 0 0 0 0 0 0 0 0 0 15 15 0 0 0 0 0 0 0 0 0 0 0 0 15
15;
#X msg 221 268 0.20475 2 4 0.1801 0.144 5395 36 0.1005 3 0.1675 0.5515
0.05625 0.10125 0.04125 0.34075 2 6 0.4001 0.3115 3333 19 0.3125 2
0.206 0.499;
#X msg 222 314 0.2625 4 0.84 0.25 0.37 5027 36 0.0875 0 0.4375 0.925
0.03375 0.09375 0.1275 0.2375 3 2.98 0.2 0.32 4411 -11.88 0.2875 4
0.1125 0.35;
#X msg 222 360 0 0 3 0.16 0.13 6469 36 0.13125 2 0.4875 0.775 0.09375
0.135 0 0 0 7.43 0.2801 0.13 5181 5.08 0 0 1 0.55;
#X msg 222 393 0.33125 3 1.99 0.23 0.14 3509 36 0.2125 0 0.35 0.45
0.09 0.04875 0.11625 0 2 2.02 0.12 0.21 9000 24.02 0.21875 2 0.7875
0.5125;
#X msg 223 439 0.33125 1 3.99 0.23 0.15 6666 36 0.4125 0 0.6875 0.4375
0.06 0.11625 0.0525 0.175 2 0.25 0.14 0.19 9000 24.02 0.21875 3 0.7875
0.8;
#X msg 224 483 0.20625 0 8 2.26 0.11 6912 36 0.175 0 0.2 0.3875 0.13875
0.075 0.04125 0.11875 0 6 3.14 0.22 5045 5.95 0.26875 0 0.2875 0.325
;
#X msg 224 528 0.25 0 5 1.0001 0.61 376 36 0.23125 0 0.175 0.5 0.04125
0.15375 0.0675 0.13125 0 3.5 0.4201 0.42 700 24 0.1 0 0.675 0.4625
;
#X msg -156 499;
#X connect 0 0 2 0;
#X connect 0 1 30 0;
#X connect 2 0 1 0;
#X connect 2 1 1 1;
#X connect 3 0 0 0;
#X connect 4 0 0 2;
#X connect 5 0 0 2;
#X connect 7 0 0 1;
#X connect 11 0 0 1;
#X connect 13 0 0 1;
#X connect 15 0 0 1;
#X connect 18 0 0 2;
#X connect 19 0 0 2;
#X connect 20 0 0 2;
#X connect 21 0 0 2;
#X connect 22 0 0 1;
#X connect 23 0 0 2;
#X connect 24 0 0 2;
#X connect 25 0 0 2;
#X connect 26 0 0 2;
#X connect 27 0 0 2;
#X connect 28 0 0 2;
#X connect 29 0 0 2;
