#N canvas 335 325 656 523 10;
#X obj -95 -13 t b;
#X obj 58 -42 bng 15 250 50 0 empty empty empty 17 7 0 10 -262144 -1
-1;
#X obj -98 372 dac~;
#X obj -89 334 *~ 0.5;
#N canvas 0 0 450 300 lfo1 0;
#X obj -7 -13 metro 5;
#X obj 24 11 osc~;
#X obj 24 50 snapshot~;
#X obj 24 145 *;
#X obj -17 -43 loadbang;
#X msg 67 -45 bang;
#X obj 19 182 outlet;
#X obj 24 114 * 1;
#X obj 107 117 hsl 128 8 0.01 5 0 1 empty empty empty -2 -8 0 10 -262144
-1 -1 1100 1;
#X obj 107 129 hsl 128 8 0 1 0 1 empty empty empty -2 -8 0 10 -262144
-1 -1 2400 1;
#X connect 0 0 2 0;
#X connect 1 0 2 0;
#X connect 2 0 7 0;
#X connect 3 0 6 0;
#X connect 4 0 0 0;
#X connect 5 0 0 0;
#X connect 7 0 3 0;
#X connect 8 0 1 0;
#X connect 9 0 3 1;
#X coords 0 -1 1 1 140 40 1 100 100;
#X restore 124 7 pd lfo1;
#N canvas 0 0 450 300 lfo1 0;
#X obj -7 -13 metro 5;
#X obj 24 11 osc~;
#X obj 24 50 snapshot~;
#X obj 24 145 *;
#X obj -17 -43 loadbang;
#X msg 67 -45 bang;
#X obj 19 182 outlet;
#X obj 24 114 * 1;
#X obj 107 117 hsl 128 8 0.01 5 0 1 empty empty empty -2 -8 0 10 -262144
-1 -1 700 1;
#X obj 107 129 hsl 128 8 0 1 0 1 empty empty empty -2 -8 0 10 -262144
-1 -1 2700 1;
#X connect 0 0 2 0;
#X connect 1 0 2 0;
#X connect 2 0 7 0;
#X connect 3 0 6 0;
#X connect 4 0 0 0;
#X connect 5 0 0 0;
#X connect 7 0 3 0;
#X connect 8 0 1 0;
#X connect 9 0 3 1;
#X coords 0 -1 1 1 140 40 1 100 100;
#X restore 186 58 pd lfo1;
#N canvas 0 0 450 300 lfo1 0;
#X obj -7 -13 metro 5;
#X obj 24 11 osc~;
#X obj 24 50 snapshot~;
#X obj 24 145 *;
#X obj -17 -43 loadbang;
#X msg 67 -45 bang;
#X obj 19 182 outlet;
#X obj 24 114 * 1;
#X obj 107 117 hsl 128 8 0.01 5 0 1 empty empty empty -2 -8 0 10 -262144
-1 -1 1000 1;
#X obj 107 129 hsl 128 8 0 1 0 1 empty empty empty -2 -8 0 10 -262144
-1 -1 1900 1;
#X connect 0 0 2 0;
#X connect 1 0 2 0;
#X connect 2 0 7 0;
#X connect 3 0 6 0;
#X connect 4 0 0 0;
#X connect 5 0 0 0;
#X connect 7 0 3 0;
#X connect 8 0 1 0;
#X connect 9 0 3 1;
#X coords 0 -1 1 1 140 40 1 100 100;
#X restore 223 117 pd lfo1;
#N canvas 634 267 527 649 fractalgen 0;
#X obj 189 287 +;
#X obj 218 313 +;
#X obj 189 350 /;
#X obj 103 130 nbx 3 14 0 128 0 1 empty empty a 0 -8 0 10 -262144 -1
-1 55 256;
#X obj -14 180 inlet;
#X obj 43 183 inlet;
#X obj 167 261 float;
#X obj 142 130 nbx 3 14 0 128 0 1 empty empty b 0 -8 0 10 -262144 -1
-1 26 256;
#X obj 212 260 float;
#X obj 181 130 nbx 3 14 0 128 0 1 empty empty c 0 -8 0 10 -262144 -1
-1 123 256;
#X obj 254 286 float;
#X obj 172 321 abs;
#X obj 190 372 clip 0 1;
#X obj 178 224 t b f;
#X obj 229 224 t b f;
#X obj 104 183 nbx 3 14 0 128 0 1 empty empty st 0 -8 0 10 -262144
-1 -1 39 256;
#X obj 144 183 nbx 3 14 0 128 0 1 empty empty rg 0 -8 0 10 -262144
-1 -1 59 256;
#X obj 11 274 abs;
#X obj 27 348 mod;
#X obj 37 373 +;
#X obj 190 399 moses;
#X obj 106 160 hsl 100 8 0 1 0 1 empty empty thr -2 -8 0 10 -262144
-1 -1 2100 1;
#X obj 33 433 int;
#X obj 229 432 pipe 1;
#X obj 229 455 t b f;
#X obj 271 497 outlet;
#X obj 37 476 outlet;
#N canvas 677 181 1022 653 fractalformula 0;
#X obj 215 -76 inlet;
#X obj 587 20 inlet;
#X text 219 -100 bang;
#X obj 675 41 inlet;
#X obj 734 66 inlet;
#X text 600 1 a;
#X text 687 23 b;
#X text 752 49 c;
#X obj 295 184 outlet;
#X text 596 157 xn+1=yn-sgn(xn)*sqrt(abs(b*xn-c);
#X obj 395 296 outlet;
#X text 394 247 yn+1=a-xn;
#X msg 50 3 0;
#X obj 297 160 expr $f1-($f2*sqrt(abs(($f3*$f4)-$f5)));
#X obj 290 248 expr $f1-$f2;
#X text 317 79 yn;
#X text 410 42 xn;
#X obj 397 62 float;
#X obj 305 98 float;
#X obj 286 220 float;
#X obj 282 13 t b b b;
#N canvas 612 239 450 300 sign 0;
#X obj 160 44 inlet;
#X obj 169 193 outlet;
#X obj 165 108 moses 0;
#X msg 165 139 -1;
#X msg 217 141 1;
#X connect 0 0 2 0;
#X connect 2 0 3 0;
#X connect 2 1 4 0;
#X connect 3 0 1 0;
#X connect 4 0 1 0;
#X restore 370 124 pd sign;
#X obj 59 37 t b f;
#X obj 35 -54 inlet;
#X text 34 -73 reset;
#X connect 0 0 20 0;
#X connect 1 0 19 1;
#X connect 3 0 13 2;
#X connect 4 0 13 4;
#X connect 12 0 22 0;
#X connect 13 0 17 1;
#X connect 13 0 8 0;
#X connect 14 0 18 1;
#X connect 14 0 10 0;
#X connect 17 0 13 3;
#X connect 17 0 14 1;
#X connect 17 0 21 0;
#X connect 18 0 13 0;
#X connect 19 0 14 0;
#X connect 20 0 19 0;
#X connect 20 1 18 0;
#X connect 20 2 17 0;
#X connect 21 0 13 1;
#X connect 22 0 19 0;
#X connect 22 1 14 1;
#X connect 22 1 18 0;
#X connect 23 0 12 0;
#X restore 0 236 pd fractalformula;
#X text 195 18 gingerbread-hopalong-whatever fractal;
#X text 197 37 3/2011 martin brinkmann;
#X connect 0 0 1 0;
#X connect 1 0 2 1;
#X connect 2 0 12 0;
#X connect 3 0 27 2;
#X connect 3 0 6 0;
#X connect 4 0 27 1;
#X connect 5 0 27 0;
#X connect 6 0 0 0;
#X connect 7 0 27 3;
#X connect 7 0 13 0;
#X connect 8 0 0 1;
#X connect 9 0 27 4;
#X connect 9 0 14 0;
#X connect 10 0 1 1;
#X connect 11 0 2 0;
#X connect 12 0 20 0;
#X connect 13 0 6 0;
#X connect 13 1 8 0;
#X connect 14 0 6 0;
#X connect 14 1 10 0;
#X connect 15 0 19 1;
#X connect 16 0 18 1;
#X connect 17 0 18 0;
#X connect 18 0 19 0;
#X connect 19 0 22 1;
#X connect 20 1 23 0;
#X connect 21 0 20 1;
#X connect 22 0 26 0;
#X connect 23 0 24 0;
#X connect 24 0 22 0;
#X connect 24 1 25 0;
#X connect 27 0 17 0;
#X connect 27 1 11 0;
#X coords 0 -1 1 1 120 100 1 100 100;
#X restore -95 12 pd fractalgen;
#N canvas 232 84 1152 835 tri-ops2 0;
#X obj 137 135 vsl 12 81 0.1 1 0 1 empty empty a 2 4 0 8 -261682 -1
-1 0 1;
#X obj -198 156 inlet;
#X text -155 157 gate;
#X obj -156 407 *;
#X obj -157 456 * 10000;
#X obj -155 433 *;
#X obj -190 190 clip 0 1;
#X obj 151 135 vsl 12 81 0.1 1 0 1 empty empty d 2 4 0 8 -261682 -1
-1 3400 1;
#X obj 179 135 vsl 12 81 0.2 1 0 1 empty empty r 2 4 0 8 -261682 -1
-1 2500 1;
#X obj 165 135 vsl 12 81 0 1 0 1 empty empty s 2 4 0 8 -261682 -1 -1
1200 1;
#X obj -92 412 *;
#X obj -93 461 * 10000;
#X obj -91 438 *;
#X obj -33 417 *;
#X obj -32 466 * 10000;
#X obj -32 443 *;
#N canvas 104 43 1108 856 adsr1 0;
#X obj -143 147 inlet;
#X msg 31 499 0;
#X obj 63 365 pack f f;
#X msg -148 457 0.308707 1;
#X msg 64 391 set \$1 \$2;
#X obj 125 589 >=;
#X msg 216 752 0.15 541.987;
#X obj 157 632 moses 0.001;
#X obj 150 406 pack f f;
#X msg 151 436 set \$1 \$2;
#X msg 170 319 bang;
#X msg 313 372 set 0 \$1;
#X msg -135 357 bang;
#X msg -136 523 0 410.062;
#X obj -145 184 clip 0 1;
#X obj -113 211 moses 0.001;
#X obj -20 376 t f f;
#X obj 12 727 spigot;
#X obj -49 150 inlet;
#X text -8 150 att;
#X obj 22 153 inlet;
#X text 63 153 dec;
#X obj 93 150 inlet;
#X text 134 152 sus;
#X obj 170 152 inlet;
#X text 211 152 rel;
#X obj -3 199 t b f;
#X obj -95 781 outlet~;
#X obj -62 657 line 0 1;
#X obj 228 693 delay 0;
#X obj -91 717 line~;
#X msg -91 690 \$1 1.6;
#X connect 0 0 14 0;
#X connect 1 0 28 0;
#X connect 2 0 4 0;
#X connect 3 0 28 0;
#X connect 4 0 3 0;
#X connect 5 0 7 0;
#X connect 6 0 17 0;
#X connect 7 1 29 0;
#X connect 8 0 9 0;
#X connect 9 0 6 0;
#X connect 10 0 8 0;
#X connect 11 0 13 0;
#X connect 12 0 13 0;
#X connect 13 0 28 0;
#X connect 14 0 15 0;
#X connect 14 0 17 1;
#X connect 15 0 12 0;
#X connect 15 1 2 0;
#X connect 15 1 16 0;
#X connect 16 0 3 0;
#X connect 16 1 5 1;
#X connect 16 1 1 0;
#X connect 17 0 28 0;
#X connect 18 0 2 1;
#X connect 18 0 26 0;
#X connect 20 0 10 0;
#X connect 20 0 8 1;
#X connect 22 0 10 0;
#X connect 22 0 8 0;
#X connect 24 0 11 0;
#X connect 26 0 2 0;
#X connect 26 1 2 1;
#X connect 28 0 5 0;
#X connect 28 0 31 0;
#X connect 29 0 6 0;
#X connect 30 0 27 0;
#X connect 31 0 30 0;
#X coords 0 0 1 1 120 160 0;
#X restore -142 517 pd adsr1;
#X obj 229 135 vsl 12 81 0.1 1 0 1 empty empty a 2 4 0 8 -204800 -1
-1 0 1;
#X obj 130 412 *;
#X obj 129 461 * 10000;
#X obj 131 438 *;
#X obj 243 135 vsl 12 81 0.1 1 0 1 empty empty d 2 4 0 8 -204800 -1
-1 1700 1;
#X obj 271 135 vsl 12 81 0.2 1 0 1 empty empty r 2 4 0 8 -204800 -1
-1 1400 1;
#X obj 257 135 vsl 12 81 0 1 0 1 empty empty s 2 4 0 8 -204800 -1 -1
1300 1;
#X obj 194 417 *;
#X obj 193 466 * 10000;
#X obj 195 443 *;
#X obj 253 422 *;
#X obj 252 471 * 10000;
#X obj 254 448 *;
#N canvas 104 43 1108 856 adsr2 0;
#X obj -143 147 inlet;
#X msg 15 502 0;
#X obj 63 365 pack f f;
#X msg -148 457 0.308707 1;
#X msg 64 391 set \$1 \$2;
#X obj 125 589 >=;
#X msg 216 752 0.1625 71.9555;
#X obj 157 632 moses 0.001;
#X obj 150 406 pack f f;
#X msg 151 436 set \$1 \$2;
#X msg 170 319 bang;
#X msg 313 372 set 0 \$1;
#X msg -135 357 bang;
#X msg -136 523 0 133.634;
#X obj -145 184 clip 0 1;
#X obj -113 211 moses 0.001;
#X obj 15 538 line 0 1;
#X obj -20 376 t f f;
#X obj 9 720 spigot;
#X obj -49 150 inlet;
#X text -8 150 att;
#X obj 22 153 inlet;
#X text 63 153 dec;
#X obj 93 150 inlet;
#X text 134 152 sus;
#X obj 170 152 inlet;
#X text 211 152 rel;
#X obj -3 199 t b f;
#X obj 228 693 delay 0;
#X obj -84 723 line~;
#X obj -95 781 outlet~;
#X msg -78 694 \$1 1;
#X connect 0 0 14 0;
#X connect 1 0 16 0;
#X connect 2 0 4 0;
#X connect 3 0 16 0;
#X connect 4 0 3 0;
#X connect 5 0 7 0;
#X connect 6 0 18 0;
#X connect 7 1 28 0;
#X connect 8 0 9 0;
#X connect 9 0 6 0;
#X connect 10 0 8 0;
#X connect 11 0 13 0;
#X connect 12 0 13 0;
#X connect 13 0 16 0;
#X connect 14 0 15 0;
#X connect 14 0 18 1;
#X connect 15 0 12 0;
#X connect 15 1 2 0;
#X connect 15 1 17 0;
#X connect 16 0 5 0;
#X connect 16 0 31 0;
#X connect 17 0 3 0;
#X connect 17 1 5 1;
#X connect 17 1 1 0;
#X connect 18 0 16 0;
#X connect 19 0 2 1;
#X connect 19 0 27 0;
#X connect 21 0 10 0;
#X connect 21 0 8 1;
#X connect 23 0 10 0;
#X connect 23 0 8 0;
#X connect 25 0 11 0;
#X connect 27 0 2 0;
#X connect 27 1 2 1;
#X connect 28 0 6 0;
#X connect 29 0 30 0;
#X connect 31 0 29 0;
#X coords 0 0 1 1 120 160 0;
#X restore 139 512 pd adsr2;
#X obj 322 135 vsl 12 81 0.1 1 0 1 empty empty a 2 4 0 8 -204786 -1
-1 300 1;
#X obj 412 396 *;
#X obj 411 445 * 10000;
#X obj 413 422 *;
#X obj 336 135 vsl 12 81 0.1 1 0 1 empty empty d 2 4 0 8 -204786 -1
-1 4500 1;
#X obj 364 135 vsl 12 81 0.2 1 0 1 empty empty r 2 4 0 8 -204786 -1
-1 2600 1;
#X obj 350 135 vsl 12 81 0 1 0 1 empty empty s 2 4 0 8 -204786 -1 -1
1400 1;
#X obj 476 401 *;
#X obj 475 450 * 10000;
#X obj 477 427 *;
#X obj 535 406 *;
#X obj 534 455 * 10000;
#X obj 536 432 *;
#N canvas 104 43 1108 856 adsr3 0;
#X obj -143 147 inlet;
#X msg 15 502 0;
#X obj 63 365 pack f f;
#X msg -148 457 0.308707 3.20019;
#X msg 64 391 set \$1 \$2;
#X obj 125 589 >=;
#X msg 216 752 0.175 1350.85;
#X obj 157 632 moses 0.001;
#X obj 150 406 pack f f;
#X msg 151 436 set \$1 \$2;
#X msg 170 319 bang;
#X msg 313 372 set 0 \$1;
#X msg -135 357 bang;
#X msg -136 523 0 447.746;
#X obj -145 184 clip 0 1;
#X obj -113 211 moses 0.001;
#X obj 15 538 line 0 1;
#X obj -20 376 t f f;
#X obj 9 720 spigot;
#X obj -49 150 inlet;
#X text -8 150 att;
#X obj 22 153 inlet;
#X text 63 153 dec;
#X obj 93 150 inlet;
#X text 134 152 sus;
#X obj 170 152 inlet;
#X text 211 152 rel;
#X obj -3 199 t b f;
#X obj 228 693 delay 0;
#X obj -84 723 line~;
#X obj -95 781 outlet~;
#X msg -78 694 \$1 1;
#X connect 0 0 14 0;
#X connect 1 0 16 0;
#X connect 2 0 4 0;
#X connect 3 0 16 0;
#X connect 4 0 3 0;
#X connect 5 0 7 0;
#X connect 6 0 18 0;
#X connect 7 1 28 0;
#X connect 8 0 9 0;
#X connect 9 0 6 0;
#X connect 10 0 8 0;
#X connect 11 0 13 0;
#X connect 12 0 13 0;
#X connect 13 0 16 0;
#X connect 14 0 15 0;
#X connect 14 0 18 1;
#X connect 15 0 12 0;
#X connect 15 1 2 0;
#X connect 15 1 17 0;
#X connect 16 0 5 0;
#X connect 16 0 31 0;
#X connect 17 0 3 0;
#X connect 17 1 5 1;
#X connect 17 1 1 0;
#X connect 18 0 16 0;
#X connect 19 0 2 1;
#X connect 19 0 27 0;
#X connect 21 0 10 0;
#X connect 21 0 8 1;
#X connect 23 0 10 0;
#X connect 23 0 8 0;
#X connect 25 0 11 0;
#X connect 27 0 2 0;
#X connect 27 1 2 1;
#X connect 28 0 6 0;
#X connect 29 0 30 0;
#X connect 31 0 29 0;
#X coords 0 0 1 1 120 160 0;
#X restore 423 496 pd adsr3;
#X text -249 157 pitch;
#X obj 238 116 nbx 4 14 0.25 8 0 1 empty empty empty 0 -8 0 10 -204800
-1 -1 3 256;
#X obj 331 115 nbx 4 14 0.25 8 0 1 empty empty empty 0 -8 0 10 -204786
-1 -1 2 256;
#X obj -374 513 mtof;
#X obj 120 786 *;
#X obj 337 770 *;
#X obj -289 160 inlet;
#X obj -274 389 / 128;
#X obj -230 493 *;
#X obj 146 1069 outlet~;
#X obj 106 135 vsl 8 80 0 1 0 1 empty empty empty 0 -8 0 8 -261682
-1 -1 0 1;
#X obj -34 294 *;
#X obj 116 135 vsl 8 80 0 1 0 1 empty empty empty 0 -8 0 8 -204800
-1 -1 2000 1;
#X obj -4 295 *;
#X obj 126 135 vsl 8 80 0 1 0 1 empty empty empty 0 -8 0 8 -204786
-1 -1 2900 1;
#X obj 29 296 *;
#X obj 198 135 vsl 8 80 0 1 0 1 empty empty empty 0 -8 0 8 -261682
-1 -1 3400 1;
#X obj 120 303 *;
#X obj 208 135 vsl 8 80 0 1 0 1 empty empty empty 0 -8 0 8 -204800
-1 -1 2100 1;
#X obj 152 305 *;
#X obj 218 135 vsl 8 80 0 1 0 1 empty empty empty 0 -8 0 8 -204786
-1 -1 1200 1;
#X obj 185 306 *;
#X obj 291 135 vsl 8 80 0 1 0 1 empty empty empty 0 -8 0 8 -261682
-1 -1 3100 1;
#X obj 321 302 *;
#X obj 301 135 vsl 8 80 0 1 0 1 empty empty empty 0 -8 0 8 -204800
-1 -1 4600 1;
#X obj 369 307 *;
#X obj 311 135 vsl 8 80 0 1 0 1 empty empty empty 0 -8 0 8 -204786
-1 -1 3000 1;
#X obj 402 308 *;
#X obj 4 635 *~;
#X obj 6 730 +~;
#X obj 181 653 *~;
#X obj 164 684 +~;
#X obj 427 690 *~;
#X obj 410 721 +~;
#X obj 47 530 *;
#X obj 354 545 *;
#X obj 118 221 hsl 64 8 -1 1 0 1 empty empty empty -2 -8 0 10 -261682
-1 -1 4400 1;
#X obj 211 221 hsl 64 8 -1 1 0 1 empty empty empty -2 -8 0 10 -204800
-1 -1 4200 1;
#X obj 303 221 hsl 64 8 -1 1 0 1 empty empty empty -2 -8 0 10 -204786
-1 -1 2400 1;
#X obj -133 584 *~;
#X obj 131 552 *~;
#X obj 413 533 *~;
#X obj 213 651 *~;
#X obj 467 674 *~;
#X obj 40 636 *~;
#X text 432 81 fm-depth1/2/3 modulation;
#X obj 410 106 inlet;
#X obj 473 104 inlet;
#X obj 532 105 inlet;
#X text 127 29 3 op fm monosynth;
#X obj 146 116 nbx 4 14 0.25 8 0 1 empty empty empty 0 -8 0 10 -261682
-1 -1 1 256;
#X obj -37 729 *;
#X obj 42 984 *~;
#X obj 135 974 *~;
#X obj 181 990 *~;
#X obj 109 122 hsl 32 8 0 1 0 1 empty empty empty -2 -8 0 10 -261682
-1 -1 3100 1;
#X obj -82 205 *;
#X obj 201 122 hsl 32 8 0 1 0 1 empty empty empty -2 -8 0 10 -204800
-1 -1 0 1;
#X obj -27 210 *;
#X obj 294 122 hsl 32 8 0 1 0 1 empty empty empty -2 -8 0 10 -204786
-1 -1 900 1;
#X obj 16 209 *;
#X text 121 55 3/2010 martin brinkmann;
#X obj -38 577 abs_uniquecatch1;
#X obj -108 805 abs_triopsfmosc1;
#X obj 177 580 abs_uniquecatch1;
#X obj 450 583 abs_uniquecatch1;
#X msg 540 501 bang;
#X obj 31 867 abs_triopsfmosc1;
#X obj 411 848 abs_triopsfmosc1;
#X connect 0 0 3 1;
#X connect 0 0 3 0;
#X connect 1 0 6 0;
#X connect 3 0 5 1;
#X connect 3 0 5 0;
#X connect 4 0 16 1;
#X connect 5 0 4 0;
#X connect 6 0 16 0;
#X connect 6 0 30 0;
#X connect 6 0 44 0;
#X connect 7 0 10 1;
#X connect 7 0 10 0;
#X connect 8 0 13 1;
#X connect 8 0 13 0;
#X connect 9 0 16 3;
#X connect 10 0 12 1;
#X connect 10 0 12 0;
#X connect 11 0 16 2;
#X connect 12 0 11 0;
#X connect 13 0 15 1;
#X connect 13 0 15 0;
#X connect 14 0 16 4;
#X connect 15 0 14 0;
#X connect 16 0 84 0;
#X connect 16 0 84 1;
#X connect 17 0 18 1;
#X connect 17 0 18 0;
#X connect 18 0 20 1;
#X connect 18 0 20 0;
#X connect 19 0 30 1;
#X connect 20 0 19 0;
#X connect 21 0 24 1;
#X connect 21 0 24 0;
#X connect 22 0 27 1;
#X connect 22 0 27 0;
#X connect 23 0 30 3;
#X connect 24 0 26 1;
#X connect 24 0 26 0;
#X connect 25 0 30 2;
#X connect 26 0 25 0;
#X connect 27 0 29 1;
#X connect 27 0 29 0;
#X connect 28 0 30 4;
#X connect 29 0 28 0;
#X connect 30 0 85 0;
#X connect 30 0 85 1;
#X connect 31 0 32 1;
#X connect 31 0 32 0;
#X connect 32 0 34 1;
#X connect 32 0 34 0;
#X connect 33 0 44 1;
#X connect 34 0 33 0;
#X connect 35 0 38 1;
#X connect 35 0 38 0;
#X connect 36 0 41 1;
#X connect 36 0 41 0;
#X connect 37 0 44 3;
#X connect 38 0 40 1;
#X connect 38 0 40 0;
#X connect 39 0 44 2;
#X connect 40 0 39 0;
#X connect 41 0 43 1;
#X connect 41 0 43 0;
#X connect 42 0 44 4;
#X connect 43 0 42 0;
#X connect 44 0 86 0;
#X connect 44 0 86 1;
#X connect 46 0 49 1;
#X connect 47 0 50 1;
#X connect 48 0 49 0;
#X connect 48 0 50 0;
#X connect 48 0 96 0;
#X connect 49 0 112 0;
#X connect 50 0 113 0;
#X connect 51 0 48 0;
#X connect 51 0 52 0;
#X connect 52 0 53 0;
#X connect 52 0 79 0;
#X connect 52 0 80 0;
#X connect 53 0 73 1;
#X connect 55 0 56 1;
#X connect 55 0 56 0;
#X connect 56 0 108 3;
#X connect 57 0 58 1;
#X connect 57 0 58 0;
#X connect 58 0 108 4;
#X connect 59 0 60 1;
#X connect 59 0 60 0;
#X connect 60 0 108 5;
#X connect 61 0 62 1;
#X connect 61 0 62 0;
#X connect 62 0 112 3;
#X connect 63 0 64 1;
#X connect 63 0 64 0;
#X connect 64 0 112 4;
#X connect 65 0 66 1;
#X connect 65 0 66 0;
#X connect 66 0 112 5;
#X connect 67 0 68 1;
#X connect 67 0 68 0;
#X connect 68 0 113 3;
#X connect 69 0 70 1;
#X connect 69 0 70 0;
#X connect 70 0 113 4;
#X connect 71 0 72 1;
#X connect 71 0 72 0;
#X connect 72 0 113 5;
#X connect 73 0 74 1;
#X connect 74 0 108 2;
#X connect 75 0 76 1;
#X connect 76 0 112 2;
#X connect 77 0 78 1;
#X connect 78 0 113 2;
#X connect 79 0 75 1;
#X connect 80 0 77 1;
#X connect 81 0 53 1;
#X connect 82 0 79 1;
#X connect 83 0 80 1;
#X connect 84 0 108 1;
#X connect 85 0 112 1;
#X connect 86 0 113 1;
#X connect 87 0 76 1;
#X connect 88 0 78 1;
#X connect 89 0 74 1;
#X connect 91 0 89 1;
#X connect 92 0 87 1;
#X connect 93 0 88 1;
#X connect 95 0 96 1;
#X connect 96 0 108 0;
#X connect 97 0 54 0;
#X connect 98 0 54 0;
#X connect 99 0 54 0;
#X connect 100 0 101 1;
#X connect 100 0 101 0;
#X connect 101 0 97 1;
#X connect 102 0 103 1;
#X connect 102 0 103 0;
#X connect 103 0 98 1;
#X connect 104 0 105 1;
#X connect 104 0 105 0;
#X connect 105 0 99 1;
#X connect 107 0 74 0;
#X connect 107 0 73 0;
#X connect 107 0 89 0;
#X connect 107 1 108 6;
#X connect 107 1 112 6;
#X connect 107 1 113 6;
#X connect 108 0 97 0;
#X connect 109 0 76 0;
#X connect 109 0 75 0;
#X connect 109 0 87 0;
#X connect 109 1 108 7;
#X connect 109 1 112 7;
#X connect 109 1 113 7;
#X connect 110 0 78 0;
#X connect 110 0 77 0;
#X connect 110 0 88 0;
#X connect 110 1 108 8;
#X connect 110 1 112 8;
#X connect 110 1 113 8;
#X connect 111 0 110 0;
#X connect 111 0 109 0;
#X connect 111 0 107 0;
#X connect 112 0 98 0;
#X connect 113 0 99 0;
#X coords 0 -1 1 1 280 130 1 100 100;
#X restore -95 173 pd tri-ops2;
#N canvas 1 84 486 449 swingpos 0;
#X obj 221 225 mod 2;
#X obj 188 302 delay 0;
#X obj 217 276 *;
#X obj 302 185 *;
#X obj 219 199 t b f f;
#X obj 106 118 hsl 64 8 0 0.4 0 1 empty empty empty -33 4 0 10 -262144
-1 -1 0 1;
#X obj 229 330 int;
#X obj 199 32 inlet;
#X obj 371 17 inlet;
#X text 211 49 pos;
#X text 383 33 bpm;
#X text 96 136 swing factor;
#X obj 229 359 outlet;
#X msg 365 86 1;
#X obj 377 111 /;
#X obj 368 63 t f f;
#X obj 387 134 * 15000;
#X text 303 133 1/16 in ms;
#X connect 0 0 2 0;
#X connect 1 0 6 0;
#X connect 2 0 1 1;
#X connect 3 0 2 1;
#X connect 4 0 1 0;
#X connect 4 1 0 0;
#X connect 4 2 6 1;
#X connect 5 0 3 0;
#X connect 6 0 12 0;
#X connect 7 0 4 0;
#X connect 8 0 15 0;
#X connect 13 0 14 0;
#X connect 14 0 16 0;
#X connect 15 0 13 0;
#X connect 15 1 14 1;
#X connect 16 0 3 1;
#X coords 0 -1 1 1 75 30 1 100 100;
#X restore -102 -63 pd swingpos;
#N canvas 218 81 1184 711 songpos96-16 0;
#X obj 318 440 + 1;
#X obj 267 436 float;
#X msg 206 296 1;
#X obj 218 321 /;
#X obj 209 273 t f f;
#X obj 228 344 * 15000;
#X obj 339 355 t b f;
#X obj 263 405 metro 125;
#X msg 340 329 -2;
#X obj 172 17 loadbang;
#X floatatom 126 113 5 30 300 0 bpm - -;
#X msg -2 85 set \$1;
#X msg 5 139 110;
#X obj 174 112 bng 15 250 50 0 empty empty empty 6 7 0 10 -261234 -1
-1;
#X obj 278 636 outlet;
#X obj 570 496 outlet;
#X text 618 497 bpm->;
#X obj 200 112 bng 15 50 20 0 empty empty empty 6 7 0 10 -204786 -1
-1;
#X obj 208 225 float;
#X obj 435 539 outlet;
#X text 144 343 1/16 in ms;
#X text 485 540 pos96->;
#X obj 259 373 / 6;
#X text 219 371 1/96;
#X obj 280 481 / 6;
#X obj 280 505 int;
#X obj 279 530 change;
#X obj 600 64 + 1;
#X obj 602 29 float;
#X obj 600 96 moses 2;
#X obj 600 155 timer;
#X obj 600 123 t b;
#X obj 648 122 t b b;
#X obj 653 243 /;
#X msg 623 221 60000;
#X obj 618 183 t b f;
#X obj 656 268 moses 10;
#X text 500 72 beatcounter;
#X obj 772 358 float;
#X obj 769 401 + 1;
#X obj 688 426 +;
#X obj 729 396 *;
#X obj 705 328 t f b;
#X obj 698 464 /;
#X msg 884 211 0;
#X text 499 302 mean (as seen on idafx blog);
#X obj 864 324 t f f;
#X obj 921 503 moses 0.1;
#X text 880 303 reset;
#X obj 870 366 /;
#X obj 849 431 < 0.75;
#X obj 903 435 > 1.25;
#X obj 869 391 t f f;
#X obj 877 471 ||;
#X obj 174 54 t b b b;
#X obj 43 -7 inlet;
#X obj 107 -11 inlet;
#X text 329 637 pos16->;
#X text 46 14 sync;
#X text 111 10 tap;
#X connect 0 0 1 1;
#X connect 0 0 24 0;
#X connect 0 0 19 0;
#X connect 1 0 0 0;
#X connect 2 0 3 0;
#X connect 3 0 5 0;
#X connect 4 0 2 0;
#X connect 4 1 3 1;
#X connect 5 0 22 0;
#X connect 6 0 7 0;
#X connect 6 1 1 0;
#X connect 7 0 1 0;
#X connect 8 0 6 0;
#X connect 9 0 54 0;
#X connect 10 0 11 0;
#X connect 10 0 18 1;
#X connect 11 0 12 0;
#X connect 12 0 10 0;
#X connect 13 0 8 0;
#X connect 13 0 18 0;
#X connect 17 0 28 0;
#X connect 18 0 4 0;
#X connect 18 0 15 0;
#X connect 22 0 7 1;
#X connect 24 0 25 0;
#X connect 25 0 26 0;
#X connect 26 0 14 0;
#X connect 27 0 28 1;
#X connect 27 0 29 0;
#X connect 28 0 27 0;
#X connect 29 0 31 0;
#X connect 29 1 32 0;
#X connect 30 0 35 0;
#X connect 30 0 46 0;
#X connect 31 0 30 0;
#X connect 32 0 30 0;
#X connect 32 1 30 1;
#X connect 33 0 36 0;
#X connect 34 0 33 0;
#X connect 35 0 34 0;
#X connect 35 1 33 1;
#X connect 36 1 42 0;
#X connect 38 0 39 0;
#X connect 38 0 41 0;
#X connect 39 0 38 1;
#X connect 39 0 43 1;
#X connect 40 0 43 0;
#X connect 41 0 40 1;
#X connect 42 0 40 0;
#X connect 42 1 38 0;
#X connect 43 0 41 1;
#X connect 43 0 10 0;
#X connect 44 0 38 1;
#X connect 44 0 28 1;
#X connect 46 0 49 1;
#X connect 46 1 49 0;
#X connect 47 1 44 0;
#X connect 49 0 52 0;
#X connect 50 0 53 0;
#X connect 51 0 53 1;
#X connect 52 0 50 0;
#X connect 52 1 51 0;
#X connect 53 0 47 0;
#X connect 54 0 13 0;
#X connect 54 1 13 0;
#X connect 54 2 12 0;
#X connect 55 0 13 0;
#X connect 56 0 17 0;
#X coords 0 -1 1 1 120 30 1 100 100;
#X restore -103 -101 pd songpos96-16;
#X connect 0 0 7 0;
#X connect 1 0 7 1;
#X connect 3 0 2 1;
#X connect 3 0 2 0;
#X connect 4 0 8 2;
#X connect 5 0 8 3;
#X connect 6 0 8 4;
#X connect 7 0 8 0;
#X connect 7 1 8 1;
#X connect 8 0 3 0;
#X connect 9 0 0 0;
#X connect 10 0 9 0;
#X connect 10 2 9 1;
