#N canvas 93 203 1034 613 10;
#X obj 7 259 dac~;
#X obj 246 -37 playlist all 400 205 {Helvetica 10 bold} white yellow
black red;
#X msg 224 -146 location /home/mnb/samplelib;
#X msg 248 -106 location /home/mnb/wave_wrk;
#X msg 259 -85 location ..;
#X msg 234 -126 location /home/mnb/archiv/sounds;
#X obj -3 202 hip~ 20;
#X obj 59 202 hip~ 20;
#N canvas 1 85 737 589 lfo1 0;
#X obj 8 192 *;
#X obj 34 -61 loadbang;
#X msg 127 -34 bang;
#X obj 3 229 outlet;
#X obj 8 161 * 1;
#X obj 107 117 hsl 128 8 0.01 10 1 1 empty empty empty -2 -8 0 10 -262144
-1 -1 1500 1;
#X obj 107 129 hsl 128 8 0 1 0 1 empty empty empty -2 -8 0 10 -262144
-1 -1 1700 1;
#X obj 92 -4 metro 5;
#X obj 2 37 float;
#X obj 29 83 + 1;
#X obj 59 83 / 200;
#X obj 44 51 wrap;
#X obj 5 128 cos;
#X obj 5 104 * 6.28319;
#X obj 110 -147 inlet;
#X text 114 -168 sync;
#X connect 0 0 3 0;
#X connect 1 0 7 0;
#X connect 2 0 7 0;
#X connect 4 0 0 0;
#X connect 5 0 10 0;
#X connect 6 0 0 1;
#X connect 7 0 8 0;
#X connect 8 0 9 0;
#X connect 9 0 11 0;
#X connect 9 0 13 0;
#X connect 10 0 9 1;
#X connect 11 0 8 1;
#X connect 12 0 4 0;
#X connect 13 0 12 0;
#X connect 14 0 2 0;
#X coords 0 -1 1 1 140 40 1 100 100;
#X restore 53 -52 pd lfo1;
#X obj 161 172 bng 15 250 50 0 empty empty empty 17 7 0 10 -262144
-1 -1;
#N canvas 218 81 1184 711 songpos96-16 0;
#X obj 318 440 + 1;
#X obj 267 436 float;
#X msg 206 296 1;
#X obj 218 321 /;
#X obj 209 273 t f f;
#X obj 228 344 * 15000;
#X obj 339 355 t b f;
#X obj 263 405 metro 125;
#X msg 340 329 -2;
#X obj 172 17 loadbang;
#X floatatom 126 113 5 30 300 0 bpm - -;
#X msg -2 85 set \$1;
#X msg 5 139 96;
#X obj 174 112 bng 15 250 50 0 empty empty empty 6 7 0 10 -261234 -1
-1;
#X obj 278 636 outlet;
#X obj 570 496 outlet;
#X text 618 497 bpm->;
#X obj 200 112 bng 15 50 20 0 empty empty empty 6 7 0 10 -204786 -1
-1;
#X obj 208 225 float;
#X obj 435 539 outlet;
#X text 144 343 1/16 in ms;
#X text 485 540 pos96->;
#X obj 259 373 / 6;
#X text 219 371 1/96;
#X obj 280 481 / 6;
#X obj 280 505 int;
#X obj 279 530 change;
#X obj 600 64 + 1;
#X obj 602 29 float;
#X obj 600 96 moses 2;
#X obj 600 155 timer;
#X obj 600 123 t b;
#X obj 648 122 t b b;
#X obj 653 243 /;
#X msg 623 221 60000;
#X obj 618 183 t b f;
#X obj 656 268 moses 10;
#X text 500 72 beatcounter;
#X obj 772 358 float;
#X obj 769 401 + 1;
#X obj 688 426 +;
#X obj 729 396 *;
#X obj 705 328 t f b;
#X obj 698 464 /;
#X msg 884 211 0;
#X text 499 302 mean (as seen on idafx blog);
#X obj 864 324 t f f;
#X obj 921 503 moses 0.1;
#X text 880 303 reset;
#X obj 870 366 /;
#X obj 849 431 < 0.75;
#X obj 903 435 > 1.25;
#X obj 869 391 t f f;
#X obj 877 471 ||;
#X obj 174 54 t b b b;
#X obj 43 -7 inlet;
#X obj 107 -11 inlet;
#X text 329 637 pos16->;
#X text 46 14 sync;
#X text 111 10 tap;
#X connect 0 0 1 1;
#X connect 0 0 24 0;
#X connect 0 0 19 0;
#X connect 1 0 0 0;
#X connect 2 0 3 0;
#X connect 3 0 5 0;
#X connect 4 0 2 0;
#X connect 4 1 3 1;
#X connect 5 0 22 0;
#X connect 6 0 7 0;
#X connect 6 1 1 0;
#X connect 7 0 1 0;
#X connect 8 0 6 0;
#X connect 9 0 54 0;
#X connect 10 0 11 0;
#X connect 10 0 18 1;
#X connect 11 0 12 0;
#X connect 12 0 10 0;
#X connect 13 0 8 0;
#X connect 13 0 18 0;
#X connect 17 0 28 0;
#X connect 18 0 4 0;
#X connect 18 0 15 0;
#X connect 22 0 7 1;
#X connect 24 0 25 0;
#X connect 25 0 26 0;
#X connect 26 0 14 0;
#X connect 27 0 28 1;
#X connect 27 0 29 0;
#X connect 28 0 27 0;
#X connect 29 0 31 0;
#X connect 29 1 32 0;
#X connect 30 0 35 0;
#X connect 30 0 46 0;
#X connect 31 0 30 0;
#X connect 32 0 30 0;
#X connect 32 1 30 1;
#X connect 33 0 36 0;
#X connect 34 0 33 0;
#X connect 35 0 34 0;
#X connect 35 1 33 1;
#X connect 36 1 42 0;
#X connect 38 0 39 0;
#X connect 38 0 41 0;
#X connect 39 0 38 1;
#X connect 39 0 43 1;
#X connect 40 0 43 0;
#X connect 41 0 40 1;
#X connect 42 0 40 0;
#X connect 42 1 38 0;
#X connect 43 0 41 1;
#X connect 43 0 10 0;
#X connect 44 0 38 1;
#X connect 44 0 28 1;
#X connect 46 0 49 1;
#X connect 46 1 49 0;
#X connect 47 1 44 0;
#X connect 49 0 52 0;
#X connect 50 0 53 0;
#X connect 51 0 53 1;
#X connect 52 0 50 0;
#X connect 52 1 51 0;
#X connect 53 0 47 0;
#X connect 54 0 13 0;
#X connect 54 1 13 0;
#X connect 54 2 12 0;
#X connect 55 0 13 0;
#X connect 56 0 17 0;
#X coords 0 -1 1 1 120 30 1 100 100;
#X restore -130 -122 pd songpos96-16;
#N canvas 288 161 1391 866 loopmv 0;
#N canvas 698 170 934 878 samplelooper2 0;
#X obj 39 481 metro;
#X msg 163 402 bang;
#X obj 96 839 outlet~;
#X obj -16 251 inlet;
#X obj 523 361 inlet;
#X msg 337 589 set symbol \$1;
#X msg 315 627 symbol /home/mnb/archiv/sounds/03_06/karmaLogArp.wav
;
#X text 529 340 filename;
#X text -18 234 sync;
#X msg 3 599 1.05946;
#X obj 12 637 pow;
#X obj 24 571 t b f;
#X text 64 651 2 pitch factor;
#X obj 17 668 clip 0.0625 8;
#X obj 277 667 soundfiler;
#X obj 431 677 pack s s;
#X obj 457 649 t b a;
#X obj 306 552 t b a;
#X obj 366 79 inlet;
#X text 363 63 bpm;
#X obj 343 129 pow -1;
#X obj 343 154 / 4;
#X obj 391 171 samplerate~;
#X obj 342 203 *;
#X obj 343 177 * 60;
#X obj 364 100 t f b;
#X text 377 210 1/16 in samples;
#X obj 329 229 /;
#X obj 406 357 *;
#X obj 419 312 t b f;
#X obj 340 266 t b f;
#X msg 329 294 1;
#X obj 347 320 /;
#X obj 153 542 moses 10;
#X obj 571 473 loadbang;
#X obj 220 526 float;
#X obj 548 695 outlet;
#X obj 128 242 inlet;
#X obj 229 241 inlet;
#X obj 75 269 / 100;
#X obj 61 295 clip 0 1;
#X text 133 225 len;
#X text 229 218 tp;
#X msg 388 700 read -resize \$1 \$2 \$2r;
#X obj 180 840 outlet~;
#X obj 76 243 inlet;
#X text 83 225 pos;
#X obj 136 742 abs_vssloop1s;
#X obj 173 238 inlet;
#X text 171 221 shift;
#X connect 0 0 47 0;
#X connect 1 0 0 0;
#X connect 1 0 35 0;
#X connect 3 0 1 0;
#X connect 4 0 17 0;
#X connect 5 0 6 0;
#X connect 6 0 15 0;
#X connect 6 0 36 0;
#X connect 9 0 10 0;
#X connect 10 0 13 0;
#X connect 11 0 9 0;
#X connect 11 1 10 1;
#X connect 13 0 47 4;
#X connect 14 0 35 1;
#X connect 14 0 47 5;
#X connect 15 0 43 0;
#X connect 16 0 6 0;
#X connect 16 1 15 1;
#X connect 17 0 6 0;
#X connect 17 1 5 0;
#X connect 18 0 25 0;
#X connect 20 0 21 0;
#X connect 21 0 24 0;
#X connect 22 0 23 1;
#X connect 23 0 27 1;
#X connect 24 0 23 0;
#X connect 25 0 20 0;
#X connect 25 1 22 0;
#X connect 27 0 30 0;
#X connect 28 0 47 2;
#X connect 29 0 28 0;
#X connect 29 1 28 1;
#X connect 30 0 31 0;
#X connect 30 1 32 1;
#X connect 31 0 32 0;
#X connect 32 0 28 0;
#X connect 33 1 0 1;
#X connect 34 0 6 0;
#X connect 35 0 27 0;
#X connect 37 0 29 0;
#X connect 38 0 11 0;
#X connect 39 0 40 0;
#X connect 40 0 47 1;
#X connect 43 0 14 0;
#X connect 45 0 39 0;
#X connect 47 0 2 0;
#X connect 47 1 44 0;
#X connect 47 2 16 0;
#X connect 47 3 33 0;
#X connect 47 4 1 0;
#X connect 48 0 47 3;
#X coords 0 878 1 877 290 55 0;
#X restore 193 613 pd samplelooper2;
#X symbolatom 122 154 24 0 0 0 - - -;
#X obj 111 116 nbx 5 14 0 100 0 1 empty empty s -8 8 0 10 -262144 -1
-1 19 256;
#X obj 179 116 nbx 4 14 0 16 0 1 empty empty sl -12 8 0 10 -262144
-1 -1 2 256;
#X obj 231 136 nbx 3 14 -36 36 0 1 empty empty tp -13 8 0 10 -262144
-1 -1 -18 256;
#X obj 179 136 nbx 3 14 1 96 0 1 empty empty ll -12 8 0 10 -262144
-1 -1 16 256;
#X obj 55 425 float;
#X obj 61 464 float;
#X obj 65 -285 inlet;
#X obj 194 641 outlet~;
#X text 65 -301 bpm/sync;
#X obj 81 559 delay 0;
#X obj 249 635 outlet~;
#X obj 731 404 inlet;
#X text 730 384 filename;
#X obj 479 266 openpanel;
#X obj 106 154 bng 12 250 50 0 empty empty > 4 7 1 8 -204786 -1 -1
;
#X obj 436 -274 inlet;
#X text 434 -294 position mod;
#X obj 208 558 +;
#X obj 197 524 t b f;
#X obj 61 500 float;
#X obj 37 154 *;
#X obj 42 131 t b f;
#X obj 150 432 *;
#X obj 111 135 nbx 5 14 0 100 0 1 empty empty l -8 8 0 10 -262144 -1
-1 9 256;
#X obj 120 466 +;
#X obj 373 520 select 0;
#X obj 635 639 outlet;
#X text 638 657 seq start;
#X obj 439 -236 * 10;
#X obj -71 -301 inlet;
#X obj -28 238 mod;
#X obj -23 196 div;
#X obj -28 261 change;
#X obj -36 310 t b b b f;
#X obj 191 249 /;
#X obj 190 211 t b f;
#X text -70 -316 pos;
#X obj 165 103 hsl 100 8 0 1 0 0 empty empty empty -2 -8 0 10 -262144
-1 -1 8044 1;
#X obj 31 274 /;
#X obj -35 -182 t f b;
#X obj 347 209 pack f f f f f;
#X obj 378 356 outlet;
#X msg 341 270 set \$1 \$2 \$3 \$4 \$5;
#X obj 344 179 float;
#X text 377 378 preset;
#X obj 550 -229 inlet;
#X obj 371 -95 unpack f f f f f;
#X text 556 -247 preset;
#X obj 254 118 bng 12 250 50 0 empty empty v 4 7 1 8 -262144 -1 -1
;
#X connect 0 0 9 0;
#X connect 0 1 12 0;
#X connect 0 2 1 0;
#X connect 2 0 6 1;
#X connect 2 0 45 1;
#X connect 3 0 7 1;
#X connect 3 0 22 0;
#X connect 3 0 33 1;
#X connect 3 0 42 2;
#X connect 4 0 0 4;
#X connect 4 0 42 4;
#X connect 5 0 23 0;
#X connect 5 0 32 1;
#X connect 5 0 37 0;
#X connect 5 0 40 1;
#X connect 5 0 42 3;
#X connect 6 0 26 1;
#X connect 7 0 0 2;
#X connect 8 0 41 0;
#X connect 11 0 0 0;
#X connect 13 0 0 6;
#X connect 15 0 0 6;
#X connect 16 0 15 0;
#X connect 17 0 30 0;
#X connect 19 0 0 1;
#X connect 20 0 19 0;
#X connect 20 1 19 1;
#X connect 21 0 0 3;
#X connect 23 0 22 0;
#X connect 23 1 22 1;
#X connect 24 0 26 0;
#X connect 25 0 36 0;
#X connect 25 0 42 1;
#X connect 26 0 19 0;
#X connect 27 0 28 0;
#X connect 30 0 20 0;
#X connect 31 0 33 0;
#X connect 32 0 34 0;
#X connect 32 0 40 0;
#X connect 33 0 32 0;
#X connect 34 0 27 0;
#X connect 34 0 35 0;
#X connect 35 0 11 0;
#X connect 35 1 7 0;
#X connect 35 1 21 0;
#X connect 35 2 6 0;
#X connect 35 3 24 0;
#X connect 36 0 24 1;
#X connect 37 0 36 0;
#X connect 37 1 36 1;
#X connect 40 0 39 0;
#X connect 41 0 0 5;
#X connect 41 1 3 0;
#X connect 42 0 44 0;
#X connect 44 0 43 0;
#X connect 45 0 42 0;
#X connect 47 0 48 0;
#X connect 48 0 2 0;
#X connect 48 1 25 0;
#X connect 48 2 3 0;
#X connect 48 3 5 0;
#X connect 48 4 4 0;
#X connect 50 0 45 0;
#X coords 0 -1 1 1 170 70 1 100 100;
#X restore -6 84 pd loopmv;
#X msg 91 16 19 9 2 16 -18;
#X msg 118 40 4 9 2 16 -18;
#X msg 134 60 32 7 2 16 -16;
#X msg 89 169;
#X text 15 -137 moving glitch-sampleloop;
#X text -234 101 startpoint (percent) \, step len (1/16);
#X text -276 119 length (percent) \, looplen (steps) \, tp (semi);
#X connect 1 0 11 4;
#X connect 2 0 1 0;
#X connect 3 0 1 0;
#X connect 4 0 1 0;
#X connect 5 0 1 0;
#X connect 6 0 0 0;
#X connect 7 0 0 1;
#X connect 8 0 11 2;
#X connect 10 0 11 0;
#X connect 10 2 11 1;
#X connect 10 2 8 0;
#X connect 11 0 6 0;
#X connect 11 1 7 0;
#X connect 11 2 15 0;
#X connect 11 3 9 0;
#X connect 12 0 11 3;
#X connect 13 0 11 3;
#X connect 14 0 11 3;
