#N canvas 214 205 663 577 10;
#X obj 70 170 dac~;
#N canvas 102 109 828 747 madboxp 0;
#N canvas 295 109 896 797 osca 0;
#N canvas 0 29 555 432 cubicshaper 0;
#X obj 42 70 inlet~;
#X obj 55 210 *~;
#X obj 70 235 *~;
#X obj 169 314 +~;
#X obj 90 265 *~;
#X obj 124 72 inlet~;
#X obj 158 225 *~;
#X obj 178 255 *~;
#X obj 214 69 inlet~;
#X obj 274 261 *~;
#X obj 310 75 inlet~;
#X obj 215 354 +~;
#X text 35 50 audio in;
#X text 128 53 a;
#X text 231 52 b;
#X text 325 55 c;
#X text 191 17 cubic audio shaper;
#X obj 216 388 outlet~;
#X connect 0 0 1 0;
#X connect 0 0 1 1;
#X connect 0 0 2 1;
#X connect 0 0 6 1;
#X connect 0 0 6 0;
#X connect 0 0 9 0;
#X connect 1 0 2 0;
#X connect 2 0 4 0;
#X connect 3 0 11 0;
#X connect 4 0 3 0;
#X connect 5 0 4 1;
#X connect 6 0 7 0;
#X connect 7 0 3 1;
#X connect 8 0 7 1;
#X connect 9 0 11 1;
#X connect 10 0 9 1;
#X connect 11 0 17 0;
#X restore 111 415 pd cubicshaper;
#N canvas 0 29 555 432 cubicshaper 0;
#X obj 42 70 inlet~;
#X obj 55 210 *~;
#X obj 70 235 *~;
#X obj 169 314 +~;
#X obj 90 265 *~;
#X obj 124 72 inlet~;
#X obj 158 225 *~;
#X obj 178 255 *~;
#X obj 214 69 inlet~;
#X obj 274 261 *~;
#X obj 310 75 inlet~;
#X obj 215 354 +~;
#X text 35 50 audio in;
#X text 128 53 a;
#X text 231 52 b;
#X text 325 55 c;
#X text 191 17 cubic audio shaper;
#X obj 216 388 outlet~;
#X connect 0 0 1 0;
#X connect 0 0 1 1;
#X connect 0 0 2 1;
#X connect 0 0 6 1;
#X connect 0 0 6 0;
#X connect 0 0 9 0;
#X connect 1 0 2 0;
#X connect 2 0 4 0;
#X connect 3 0 11 0;
#X connect 4 0 3 0;
#X connect 5 0 4 1;
#X connect 6 0 7 0;
#X connect 7 0 3 1;
#X connect 8 0 7 1;
#X connect 9 0 11 1;
#X connect 10 0 9 1;
#X connect 11 0 17 0;
#X restore 170 491 pd cubicshaper;
#N canvas 0 29 555 432 cubicshaper 0;
#X obj 42 70 inlet~;
#X obj 55 210 *~;
#X obj 70 235 *~;
#X obj 169 314 +~;
#X obj 90 265 *~;
#X obj 124 72 inlet~;
#X obj 158 225 *~;
#X obj 178 255 *~;
#X obj 214 69 inlet~;
#X obj 274 261 *~;
#X obj 310 75 inlet~;
#X obj 215 354 +~;
#X text 35 50 audio in;
#X text 128 53 a;
#X text 231 52 b;
#X text 325 55 c;
#X text 191 17 cubic audio shaper;
#X obj 216 388 outlet~;
#X connect 0 0 1 0;
#X connect 0 0 1 1;
#X connect 0 0 2 1;
#X connect 0 0 6 1;
#X connect 0 0 6 0;
#X connect 0 0 9 0;
#X connect 1 0 2 0;
#X connect 2 0 4 0;
#X connect 3 0 11 0;
#X connect 4 0 3 0;
#X connect 5 0 4 1;
#X connect 6 0 7 0;
#X connect 7 0 3 1;
#X connect 8 0 7 1;
#X connect 9 0 11 1;
#X connect 10 0 9 1;
#X connect 11 0 17 0;
#X restore 213 651 pd cubicshaper;
#X obj 164 678 *~;
#X obj -60 140 osc~;
#X obj 35 189 phasor~;
#X obj 47 295 -~ 0.5;
#X obj 67 214 samphold~;
#X obj 47 240 -~;
#X obj 47 266 wrap~;
#X obj 27 378 cos~;
#X obj 214 677 outlet~;
#X obj 133 116 catch~ \$0-oscasync;
#X obj 95 94 throw~ \$0-oscasync;
#X obj 34 167 mtof;
#X obj 24 350 +~;
#X obj -89 209 *~;
#X obj -59 114 mtof;
#X msg 152 -11 bang;
#X msg -66 15 seed \$1;
#X obj 152 -34 inlet;
#X obj -66 37 random 30;
#X obj 236 -90 inlet;
#X msg 29 30 seed \$1;
#X msg -157 37 seed \$1;
#X obj -159 15 + 1;
#X obj -155 90 / 100;
#X obj -157 59 random 100;
#X obj 27 8 + 2;
#X msg 153 279 seed \$1;
#X obj 153 301 random 100;
#X obj 153 322 - 50;
#X obj 154 343 / 50;
#X obj 151 257 + 3;
#X msg 233 259 seed \$1;
#X obj 233 281 random 100;
#X obj 233 302 - 50;
#X obj 234 323 / 50;
#X obj 231 237 + 4;
#X msg 314 230 seed \$1;
#X obj 314 252 random 100;
#X obj 314 273 - 50;
#X obj 315 294 / 50;
#X obj 312 208 + 5;
#X msg 383 312 seed \$1;
#X obj 383 334 random 100;
#X obj 383 355 - 50;
#X obj 384 376 / 50;
#X msg 463 292 seed \$1;
#X obj 463 314 random 100;
#X obj 463 335 - 50;
#X obj 464 356 / 50;
#X msg 544 263 seed \$1;
#X obj 544 285 random 100;
#X obj 544 306 - 50;
#X obj 545 327 / 50;
#X obj 381 290 + 6;
#X obj 461 270 + 7;
#X obj 542 241 + 8;
#X msg 461 477 seed \$1;
#X obj 461 499 random 100;
#X obj 461 520 - 50;
#X obj 462 541 / 50;
#X msg 543 470 seed \$1;
#X obj 543 492 random 100;
#X obj 543 513 - 50;
#X obj 544 534 / 50;
#X msg 624 441 seed \$1;
#X obj 624 463 random 100;
#X obj 624 484 - 50;
#X obj 625 505 / 50;
#X obj 459 455 + 9;
#X obj 541 448 + 10;
#X obj 622 419 + 11;
#X obj 29 52 random 100;
#X obj -154 139 line;
#X obj -154 116 pack;
#X obj 313 -86 inlet;
#X obj -65 85 line;
#X obj -66 60 pack;
#X obj 20 96 line;
#X obj 19 74 pack;
#X obj 141 391 line;
#X obj 145 365 pack;
#X obj 224 372 line;
#X obj 223 347 pack;
#X obj 307 345 line;
#X obj 306 321 pack;
#X obj 378 425 line;
#X obj 377 400 pack;
#X obj 456 407 line;
#X obj 455 382 pack;
#X obj 541 375 line;
#X obj 540 350 pack;
#X obj 464 601 line;
#X obj 463 576 pack;
#X obj 542 589 line;
#X obj 541 564 pack;
#X obj 627 557 line;
#X obj 626 532 pack;
#X text 119 -50 randombang;
#X text 198 -92 seed;
#X text 356 -86 attack;
#X obj 448 -36 inlet;
#X text 489 -33 tp;
#X obj 24 143 +;
#X obj 448 -11 t b f;
#X obj 21 121 float;
#X obj -63 172 *~ 0.5;
#X obj 129 162 clip~ -1 0;
#X obj 128 183 *~ -1;
#X obj 129 141 *~ 10000;
#X connect 0 0 1 0;
#X connect 0 0 3 0;
#X connect 1 0 2 0;
#X connect 2 0 3 1;
#X connect 2 0 11 0;
#X connect 3 0 13 0;
#X connect 4 0 108 0;
#X connect 5 0 7 0;
#X connect 5 0 8 0;
#X connect 6 0 15 1;
#X connect 7 0 8 1;
#X connect 8 0 9 0;
#X connect 9 0 6 0;
#X connect 10 0 0 0;
#X connect 12 0 111 0;
#X connect 14 0 5 0;
#X connect 15 0 10 0;
#X connect 16 0 15 0;
#X connect 17 0 4 0;
#X connect 18 0 21 0;
#X connect 18 0 27 0;
#X connect 18 0 30 0;
#X connect 18 0 35 0;
#X connect 18 0 40 0;
#X connect 18 0 45 0;
#X connect 18 0 49 0;
#X connect 18 0 53 0;
#X connect 18 0 60 0;
#X connect 18 0 64 0;
#X connect 18 0 68 0;
#X connect 18 0 74 0;
#X connect 19 0 21 0;
#X connect 20 0 18 0;
#X connect 21 0 79 0;
#X connect 22 0 19 0;
#X connect 22 0 25 0;
#X connect 22 0 28 0;
#X connect 22 0 33 0;
#X connect 22 0 38 0;
#X connect 22 0 43 0;
#X connect 22 0 56 0;
#X connect 22 0 57 0;
#X connect 22 0 58 0;
#X connect 22 0 71 0;
#X connect 22 0 72 0;
#X connect 22 0 73 0;
#X connect 23 0 74 0;
#X connect 24 0 27 0;
#X connect 25 0 24 0;
#X connect 26 0 76 0;
#X connect 27 0 26 0;
#X connect 28 0 23 0;
#X connect 29 0 30 0;
#X connect 30 0 31 0;
#X connect 31 0 32 0;
#X connect 32 0 83 0;
#X connect 33 0 29 0;
#X connect 34 0 35 0;
#X connect 35 0 36 0;
#X connect 36 0 37 0;
#X connect 37 0 85 0;
#X connect 38 0 34 0;
#X connect 39 0 40 0;
#X connect 40 0 41 0;
#X connect 41 0 42 0;
#X connect 42 0 87 0;
#X connect 43 0 39 0;
#X connect 44 0 45 0;
#X connect 45 0 46 0;
#X connect 46 0 47 0;
#X connect 47 0 89 0;
#X connect 48 0 49 0;
#X connect 49 0 50 0;
#X connect 50 0 51 0;
#X connect 51 0 91 0;
#X connect 52 0 53 0;
#X connect 53 0 54 0;
#X connect 54 0 55 0;
#X connect 55 0 93 0;
#X connect 56 0 44 0;
#X connect 57 0 48 0;
#X connect 58 0 52 0;
#X connect 59 0 60 0;
#X connect 60 0 61 0;
#X connect 61 0 62 0;
#X connect 62 0 95 0;
#X connect 63 0 64 0;
#X connect 64 0 65 0;
#X connect 65 0 66 0;
#X connect 66 0 97 0;
#X connect 67 0 68 0;
#X connect 68 0 69 0;
#X connect 69 0 70 0;
#X connect 70 0 99 0;
#X connect 71 0 59 0;
#X connect 72 0 63 0;
#X connect 73 0 67 0;
#X connect 74 0 81 0;
#X connect 75 0 16 0;
#X connect 76 0 75 0;
#X connect 77 0 76 1;
#X connect 77 0 79 1;
#X connect 77 0 81 1;
#X connect 77 0 83 1;
#X connect 77 0 85 1;
#X connect 77 0 87 1;
#X connect 77 0 89 1;
#X connect 77 0 91 1;
#X connect 77 0 93 1;
#X connect 77 0 95 1;
#X connect 77 0 97 1;
#X connect 77 0 99 1;
#X connect 78 0 17 0;
#X connect 79 0 78 0;
#X connect 80 0 107 0;
#X connect 81 0 80 0;
#X connect 82 0 0 1;
#X connect 83 0 82 0;
#X connect 84 0 0 2;
#X connect 85 0 84 0;
#X connect 86 0 0 3;
#X connect 87 0 86 0;
#X connect 88 0 1 1;
#X connect 89 0 88 0;
#X connect 90 0 1 2;
#X connect 91 0 90 0;
#X connect 92 0 1 3;
#X connect 93 0 92 0;
#X connect 94 0 2 1;
#X connect 95 0 94 0;
#X connect 96 0 2 2;
#X connect 97 0 96 0;
#X connect 98 0 2 3;
#X connect 99 0 98 0;
#X connect 103 0 106 0;
#X connect 105 0 14 0;
#X connect 106 0 107 0;
#X connect 106 1 105 1;
#X connect 107 0 105 0;
#X connect 108 0 16 1;
#X connect 109 0 110 0;
#X connect 110 0 7 1;
#X connect 111 0 109 0;
#X restore 332 395 pd osca;
#X msg 247 339 bang;
#X obj 347 447 *~;
#X obj 347 481 hip~ 10;
#N canvas 86 120 897 793 oscb 0;
#N canvas 0 29 555 432 cubicshaper 0;
#X obj 42 70 inlet~;
#X obj 55 210 *~;
#X obj 70 235 *~;
#X obj 169 314 +~;
#X obj 90 265 *~;
#X obj 124 72 inlet~;
#X obj 158 225 *~;
#X obj 178 255 *~;
#X obj 214 69 inlet~;
#X obj 274 261 *~;
#X obj 310 75 inlet~;
#X obj 215 354 +~;
#X text 35 50 audio in;
#X text 128 53 a;
#X text 231 52 b;
#X text 325 55 c;
#X text 191 17 cubic audio shaper;
#X obj 216 388 outlet~;
#X connect 0 0 1 0;
#X connect 0 0 1 1;
#X connect 0 0 2 1;
#X connect 0 0 6 1;
#X connect 0 0 6 0;
#X connect 0 0 9 0;
#X connect 1 0 2 0;
#X connect 2 0 4 0;
#X connect 3 0 11 0;
#X connect 4 0 3 0;
#X connect 5 0 4 1;
#X connect 6 0 7 0;
#X connect 7 0 3 1;
#X connect 8 0 7 1;
#X connect 9 0 11 1;
#X connect 10 0 9 1;
#X connect 11 0 17 0;
#X restore 111 415 pd cubicshaper;
#N canvas 0 29 555 432 cubicshaper 0;
#X obj 42 70 inlet~;
#X obj 55 210 *~;
#X obj 70 235 *~;
#X obj 169 314 +~;
#X obj 90 265 *~;
#X obj 124 72 inlet~;
#X obj 158 225 *~;
#X obj 178 255 *~;
#X obj 214 69 inlet~;
#X obj 274 261 *~;
#X obj 310 75 inlet~;
#X obj 215 354 +~;
#X text 35 50 audio in;
#X text 128 53 a;
#X text 231 52 b;
#X text 325 55 c;
#X text 191 17 cubic audio shaper;
#X obj 216 388 outlet~;
#X connect 0 0 1 0;
#X connect 0 0 1 1;
#X connect 0 0 2 1;
#X connect 0 0 6 1;
#X connect 0 0 6 0;
#X connect 0 0 9 0;
#X connect 1 0 2 0;
#X connect 2 0 4 0;
#X connect 3 0 11 0;
#X connect 4 0 3 0;
#X connect 5 0 4 1;
#X connect 6 0 7 0;
#X connect 7 0 3 1;
#X connect 8 0 7 1;
#X connect 9 0 11 1;
#X connect 10 0 9 1;
#X connect 11 0 17 0;
#X restore 170 490 pd cubicshaper;
#N canvas 0 29 555 432 cubicshaper 0;
#X obj 42 70 inlet~;
#X obj 55 210 *~;
#X obj 70 235 *~;
#X obj 169 314 +~;
#X obj 90 265 *~;
#X obj 124 72 inlet~;
#X obj 158 225 *~;
#X obj 178 255 *~;
#X obj 214 69 inlet~;
#X obj 274 261 *~;
#X obj 310 75 inlet~;
#X obj 215 354 +~;
#X text 35 50 audio in;
#X text 128 53 a;
#X text 231 52 b;
#X text 325 55 c;
#X text 191 17 cubic audio shaper;
#X obj 216 388 outlet~;
#X connect 0 0 1 0;
#X connect 0 0 1 1;
#X connect 0 0 2 1;
#X connect 0 0 6 1;
#X connect 0 0 6 0;
#X connect 0 0 9 0;
#X connect 1 0 2 0;
#X connect 2 0 4 0;
#X connect 3 0 11 0;
#X connect 4 0 3 0;
#X connect 5 0 4 1;
#X connect 6 0 7 0;
#X connect 7 0 3 1;
#X connect 8 0 7 1;
#X connect 9 0 11 1;
#X connect 10 0 9 1;
#X connect 11 0 17 0;
#X restore 213 651 pd cubicshaper;
#X obj 165 667 *~;
#X obj -58 137 osc~;
#X obj 33 183 phasor~;
#X obj 48 287 -~ 0.5;
#X obj 66 207 samphold~;
#X obj 48 232 -~;
#X obj 48 258 wrap~;
#X obj 47 370 cos~;
#X obj 209 678 outlet~;
#X obj 33 161 mtof;
#X obj 22 337 +~;
#X obj -75 189 *~;
#X obj -59 114 mtof;
#X msg 152 -11 bang;
#X msg -66 15 seed \$1;
#X obj 152 -34 inlet;
#X obj -66 37 random 30;
#X obj 226 -86 inlet;
#X msg 29 30 seed \$1;
#X msg -157 37 seed \$1;
#X obj -159 15 + 1;
#X obj -155 90 / 100;
#X obj -157 59 random 100;
#X obj 27 8 + 2;
#X msg 153 279 seed \$1;
#X obj 153 301 random 100;
#X obj 153 322 - 50;
#X obj 154 343 / 50;
#X obj 151 257 + 3;
#X msg 233 259 seed \$1;
#X obj 233 281 random 100;
#X obj 233 302 - 50;
#X obj 234 323 / 50;
#X obj 231 237 + 4;
#X msg 314 230 seed \$1;
#X obj 314 252 random 100;
#X obj 314 273 - 50;
#X obj 315 294 / 50;
#X obj 312 208 + 5;
#X msg 383 312 seed \$1;
#X obj 383 334 random 100;
#X obj 383 355 - 50;
#X obj 384 376 / 50;
#X msg 463 292 seed \$1;
#X obj 463 314 random 100;
#X obj 463 335 - 50;
#X obj 464 356 / 50;
#X msg 544 263 seed \$1;
#X obj 544 285 random 100;
#X obj 544 306 - 50;
#X obj 545 327 / 50;
#X obj 381 290 + 6;
#X obj 461 270 + 7;
#X obj 542 241 + 8;
#X msg 461 477 seed \$1;
#X obj 461 499 random 100;
#X obj 461 520 - 50;
#X obj 462 541 / 50;
#X msg 543 470 seed \$1;
#X obj 543 492 random 100;
#X obj 543 513 - 50;
#X obj 544 534 / 50;
#X msg 624 441 seed \$1;
#X obj 624 463 random 100;
#X obj 624 484 - 50;
#X obj 625 505 / 50;
#X obj 459 455 + 9;
#X obj 541 448 + 10;
#X obj 622 419 + 11;
#X obj 29 52 random 100;
#X obj -154 139 line;
#X obj -154 116 pack;
#X obj 298 -88 inlet;
#X obj -65 85 line;
#X obj -66 60 pack;
#X obj 20 96 line;
#X obj 19 74 pack;
#X obj 141 391 line;
#X obj 145 365 pack;
#X obj 224 372 line;
#X obj 223 347 pack;
#X obj 307 345 line;
#X obj 306 321 pack;
#X obj 378 425 line;
#X obj 377 400 pack;
#X obj 456 407 line;
#X obj 455 382 pack;
#X obj 541 375 line;
#X obj 540 350 pack;
#X obj 464 601 line;
#X obj 463 576 pack;
#X obj 542 589 line;
#X obj 541 564 pack;
#X obj 627 557 line;
#X obj 626 532 pack;
#X obj 96 94 throw~ \$0-oscbsync;
#X obj 133 119 catch~ \$0-oscbsync;
#X text 119 -50 randombang;
#X text 198 -92 seed;
#X text 356 -86 attack;
#X obj 458 -46 inlet;
#X text 499 -43 tp;
#X obj 23 138 +;
#X obj 21 117 float;
#X obj 462 -21 t b f;
#X obj -61 160 *~ 0.5;
#X obj 130 163 clip~ -1 0;
#X obj 129 184 *~ -1;
#X obj 130 142 *~ 10000;
#X connect 0 0 1 0;
#X connect 0 0 3 0;
#X connect 1 0 2 0;
#X connect 2 0 3 1;
#X connect 2 0 11 0;
#X connect 3 0 98 0;
#X connect 4 0 108 0;
#X connect 5 0 7 0;
#X connect 5 0 8 0;
#X connect 6 0 13 1;
#X connect 7 0 8 1;
#X connect 8 0 9 0;
#X connect 9 0 6 0;
#X connect 10 0 0 0;
#X connect 12 0 5 0;
#X connect 13 0 10 0;
#X connect 14 0 13 0;
#X connect 15 0 4 0;
#X connect 16 0 19 0;
#X connect 16 0 25 0;
#X connect 16 0 28 0;
#X connect 16 0 33 0;
#X connect 16 0 38 0;
#X connect 16 0 43 0;
#X connect 16 0 47 0;
#X connect 16 0 51 0;
#X connect 16 0 58 0;
#X connect 16 0 62 0;
#X connect 16 0 66 0;
#X connect 16 0 72 0;
#X connect 17 0 19 0;
#X connect 18 0 16 0;
#X connect 19 0 77 0;
#X connect 20 0 17 0;
#X connect 20 0 23 0;
#X connect 20 0 26 0;
#X connect 20 0 31 0;
#X connect 20 0 36 0;
#X connect 20 0 41 0;
#X connect 20 0 54 0;
#X connect 20 0 55 0;
#X connect 20 0 56 0;
#X connect 20 0 69 0;
#X connect 20 0 70 0;
#X connect 20 0 71 0;
#X connect 21 0 72 0;
#X connect 22 0 25 0;
#X connect 23 0 22 0;
#X connect 24 0 74 0;
#X connect 25 0 24 0;
#X connect 26 0 21 0;
#X connect 27 0 28 0;
#X connect 28 0 29 0;
#X connect 29 0 30 0;
#X connect 30 0 81 0;
#X connect 31 0 27 0;
#X connect 32 0 33 0;
#X connect 33 0 34 0;
#X connect 34 0 35 0;
#X connect 35 0 83 0;
#X connect 36 0 32 0;
#X connect 37 0 38 0;
#X connect 38 0 39 0;
#X connect 39 0 40 0;
#X connect 40 0 85 0;
#X connect 41 0 37 0;
#X connect 42 0 43 0;
#X connect 43 0 44 0;
#X connect 44 0 45 0;
#X connect 45 0 87 0;
#X connect 46 0 47 0;
#X connect 47 0 48 0;
#X connect 48 0 49 0;
#X connect 49 0 89 0;
#X connect 50 0 51 0;
#X connect 51 0 52 0;
#X connect 52 0 53 0;
#X connect 53 0 91 0;
#X connect 54 0 42 0;
#X connect 55 0 46 0;
#X connect 56 0 50 0;
#X connect 57 0 58 0;
#X connect 58 0 59 0;
#X connect 59 0 60 0;
#X connect 60 0 93 0;
#X connect 61 0 62 0;
#X connect 62 0 63 0;
#X connect 63 0 64 0;
#X connect 64 0 95 0;
#X connect 65 0 66 0;
#X connect 66 0 67 0;
#X connect 67 0 68 0;
#X connect 68 0 97 0;
#X connect 69 0 57 0;
#X connect 70 0 61 0;
#X connect 71 0 65 0;
#X connect 72 0 79 0;
#X connect 73 0 14 0;
#X connect 74 0 73 0;
#X connect 75 0 74 1;
#X connect 75 0 77 1;
#X connect 75 0 79 1;
#X connect 75 0 81 1;
#X connect 75 0 83 1;
#X connect 75 0 85 1;
#X connect 75 0 87 1;
#X connect 75 0 89 1;
#X connect 75 0 91 1;
#X connect 75 0 93 1;
#X connect 75 0 95 1;
#X connect 75 0 97 1;
#X connect 76 0 15 0;
#X connect 77 0 76 0;
#X connect 78 0 106 0;
#X connect 79 0 78 0;
#X connect 80 0 0 1;
#X connect 81 0 80 0;
#X connect 82 0 0 2;
#X connect 83 0 82 0;
#X connect 84 0 0 3;
#X connect 85 0 84 0;
#X connect 86 0 1 1;
#X connect 87 0 86 0;
#X connect 88 0 1 2;
#X connect 89 0 88 0;
#X connect 90 0 1 3;
#X connect 91 0 90 0;
#X connect 92 0 2 1;
#X connect 93 0 92 0;
#X connect 94 0 2 2;
#X connect 95 0 94 0;
#X connect 96 0 2 3;
#X connect 97 0 96 0;
#X connect 99 0 111 0;
#X connect 103 0 107 0;
#X connect 105 0 12 0;
#X connect 106 0 105 0;
#X connect 107 0 106 0;
#X connect 107 1 105 1;
#X connect 108 0 14 1;
#X connect 109 0 110 0;
#X connect 110 0 7 1;
#X connect 111 0 109 0;
#X restore 422 395 pd oscb;
#X obj 435 362 + 13;
#X msg 370 235 1062;
#X obj 395 6 loadbang;
#X msg 382 184 set \$1;
#X floatatom 240 116 8 0 0 0 - - -;
#X obj 357 308 +;
#X obj 168 148 hsl 128 8 1 5 0 1 empty empty diz -2 4 0 8 -262144 -1
-1 1000 1;
#X obj 168 162 hsl 128 8 0.1 0.8 0 1 empty empty chr -2 4 0 8 -262144
-1 -1 800 1;
#X obj 167 642 /~;
#X obj 184 572 abs~;
#X obj 210 616 +~;
#X obj 172 546 *~;
#X obj 166 665 outlet~;
#X obj 135 153 bng 15 250 50 0 empty empty rnd 0 -6 0 8 -262144 -1
-1;
#X obj 108 153 bng 15 250 50 0 empty empty rst 0 -6 0 8 -262144 -1
-1;
#X obj 98 212 t b b;
#X floatatom 180 116 4 -96 96 0 - - -;
#X msg 324 103 -12;
#X msg 325 78 set \$1;
#X text 204 545 distortion;
#X obj 39 19 inlet;
#X obj 96 17 inlet;
#X obj 168 134 hsl 128 8 10 2000 0 1 empty empty sld -2 4 0 8 -262144
-1 -1 0 1;
#X obj 202 19 inlet;
#X obj 252 18 inlet;
#X text 210 116 seed;
#X text 163 114 tp;
#X floatatom 133 116 4 0 128 0 - - -;
#X msg 162 74 0;
#X msg 116 51 set \$1;
#X text 101 115 skip;
#X obj 84 251 int;
#X obj 84 277 until 128;
#X obj 120 188 + 1;
#X text 422 41 random fm synth \, 2 random-oscs with ringmodulation.
base4d on my madmidi-vst-plugin and various reaktor ensembles \, originally
inspired by jon annings madbox reaktor ens.;
#X text 422 86 2008 martin brinkmann;
#X obj 308 17 inlet;
#X obj 148 17 inlet;
#X connect 0 0 2 0;
#X connect 1 0 0 0;
#X connect 1 0 4 0;
#X connect 2 0 3 0;
#X connect 3 0 16 0;
#X connect 4 0 2 1;
#X connect 5 0 4 1;
#X connect 6 0 9 0;
#X connect 6 0 0 1;
#X connect 6 0 5 0;
#X connect 7 0 6 0;
#X connect 7 0 22 0;
#X connect 7 0 33 0;
#X connect 8 0 6 0;
#X connect 9 0 5 0;
#X connect 9 0 0 1;
#X connect 9 0 8 0;
#X connect 10 0 0 3;
#X connect 10 0 4 3;
#X connect 11 0 16 1;
#X connect 12 0 15 1;
#X connect 13 0 17 0;
#X connect 14 0 15 0;
#X connect 15 0 13 1;
#X connect 16 0 13 0;
#X connect 16 0 14 0;
#X connect 18 0 1 0;
#X connect 19 0 20 0;
#X connect 20 0 36 0;
#X connect 20 1 6 0;
#X connect 21 0 23 0;
#X connect 21 0 10 0;
#X connect 22 0 21 0;
#X connect 23 0 22 0;
#X connect 25 0 19 0;
#X connect 26 0 18 0;
#X connect 27 0 0 2;
#X connect 27 0 4 2;
#X connect 28 0 21 0;
#X connect 29 0 27 0;
#X connect 32 0 34 0;
#X connect 32 0 38 0;
#X connect 33 0 32 0;
#X connect 34 0 33 0;
#X connect 36 0 37 0;
#X connect 37 0 1 0;
#X connect 38 0 36 1;
#X connect 41 0 9 0;
#X connect 42 0 32 0;
#X coords 0 -1 1 1 200 80 1 100 100;
#X restore 81 49 pd madboxp;
#X connect 1 0 0 1;
#X connect 1 0 0 0;
