#N canvas 607 334 844 508 10;
#X msg 369 -140 120;
#N canvas 302 265 649 492 mbtdly1 0;
#X obj -186 117 inlet~;
#X obj 231 69 inlet;
#X obj 60 394 outlet~;
#X obj 130 140 pow -1;
#X obj 151 178 / 4;
#X obj 182 207 *;
#X obj 164 243 * 60000;
#X obj 19 20 hsl 96 8 0 0.95 0 1 empty empty fb -16 5 0 8 -262144 -1
-1 7700 1;
#X obj 81 3 nbx 3 14 0 32 0 1 empty empty empty 0 -8 0 10 -262144 -1
-1 3 256;
#X text 268 70 <- bpm in;
#X obj 100 111 float;
#X obj 110 44 t b f;
#X text 200 7 beatsynced delay with feedback and mod;
#X obj -64 96 inlet~;
#X obj 59 363 abs_moddelayline1;
#X obj 79 322 +~;
#X obj -28 177 *~ 300;
#X connect 0 0 14 0;
#X connect 1 0 10 0;
#X connect 3 0 4 0;
#X connect 4 0 5 0;
#X connect 5 0 6 0;
#X connect 6 0 15 1;
#X connect 7 0 14 2;
#X connect 8 0 11 0;
#X connect 10 0 3 0;
#X connect 11 0 10 0;
#X connect 11 1 5 1;
#X connect 13 0 16 0;
#X connect 14 0 2 0;
#X connect 15 0 14 1;
#X connect 16 0 15 0;
#X coords 0 -1 1 1 120 30 1 0 0;
#X restore 38 24 pd mbtdly1;
#N canvas 302 265 649 492 mbtdly1s 0;
#X obj -186 117 inlet~;
#X obj 231 69 inlet;
#X obj 60 394 outlet~;
#X obj 130 140 pow -1;
#X obj 151 178 / 4;
#X obj 182 207 *;
#X obj 164 243 * 60000;
#X obj 19 20 hsl 96 8 0 0.95 0 1 empty empty fb -16 5 0 8 -262144 -1
-1 7700 1;
#X obj 81 3 nbx 3 14 0 32 0 1 empty empty empty 0 -8 0 10 -262144 -1
-1 3 256;
#X text 268 70 <- bpm in;
#X obj 100 111 float;
#X obj 110 44 t b f;
#X text 200 7 beatsynced delay with feedback and mod;
#X obj -35 136 inlet~;
#X obj 59 363 abs_moddelayline1;
#X obj 58 297 +~;
#X obj -306 120 inlet~;
#X obj -60 397 outlet~;
#X obj -61 366 abs_moddelayline1;
#X obj -28 177 *~ 300;
#X connect 0 0 14 0;
#X connect 1 0 10 0;
#X connect 3 0 4 0;
#X connect 4 0 5 0;
#X connect 5 0 6 0;
#X connect 6 0 15 1;
#X connect 7 0 14 2;
#X connect 7 0 18 2;
#X connect 8 0 11 0;
#X connect 10 0 3 0;
#X connect 11 0 10 0;
#X connect 11 1 5 1;
#X connect 13 0 19 0;
#X connect 14 0 2 0;
#X connect 15 0 14 1;
#X connect 15 0 18 1;
#X connect 16 0 18 0;
#X connect 18 0 17 0;
#X connect 19 0 15 0;
#X coords 0 -1 1 1 120 30 1 0 0;
#X restore 264 15 pd mbtdly1s;
#N canvas 215 231 667 548 xfader 0;
#X obj 22 339 outlet~;
#X obj 105 114 hsl 80 8 0 1 0 1 empty empty empty -22 5 0 10 -262144
-1 -1 3300 1;
#X obj 21 257 +~;
#X obj 43 227 *~;
#X obj -19 230 *~;
#X obj -12 175 * -1;
#X obj -12 199 + 1;
#X obj -83 121 inlet~;
#X obj 18 124 inlet~;
#X obj 280 -125 inlet;
#X obj 216 -26 / 128;
#X text -47 -109 simple crossfader (or dry/wet slider);
#X connect 1 0 5 0;
#X connect 1 0 3 1;
#X connect 2 0 0 0;
#X connect 3 0 2 1;
#X connect 4 0 2 0;
#X connect 5 0 6 0;
#X connect 6 0 4 1;
#X connect 7 0 4 0;
#X connect 8 0 3 0;
#X connect 9 0 10 0;
#X connect 10 0 1 0;
#X coords 0 -1 1 1 90 25 1 100 100;
#X restore -3 62 pd xfader;
#N canvas 211 233 667 548 xfader1s 0;
#X obj 16 360 outlet~;
#X obj 105 114 hsl 80 8 0 1 0 1 empty empty empty -22 5 0 10 -262144
-1 -1 3300 1;
#X obj 15 278 +~;
#X obj 37 248 *~;
#X obj -25 251 *~;
#X obj 39 173 * -1;
#X obj 39 197 + 1;
#X obj -89 142 inlet~;
#X obj 12 145 inlet~;
#X obj 280 -125 inlet;
#X obj 216 -26 / 128;
#X text -47 -109 simple crossfader (or dry/wet slider);
#X obj -163 362 outlet~;
#X obj -164 280 +~;
#X obj -142 250 *~;
#X obj -204 253 *~;
#X obj -268 144 inlet~;
#X obj -167 147 inlet~;
#X connect 1 0 5 0;
#X connect 1 0 3 1;
#X connect 1 0 14 1;
#X connect 2 0 0 0;
#X connect 3 0 2 1;
#X connect 4 0 2 0;
#X connect 5 0 6 0;
#X connect 6 0 4 1;
#X connect 6 0 15 1;
#X connect 7 0 4 0;
#X connect 8 0 3 0;
#X connect 9 0 10 0;
#X connect 10 0 1 0;
#X connect 13 0 12 0;
#X connect 14 0 13 1;
#X connect 15 0 13 0;
#X connect 16 0 15 0;
#X connect 17 0 14 0;
#X coords 0 -1 1 1 90 25 1 100 100;
#X restore 223 56 pd xfader1s;
#N canvas 89 372 597 672 lp_hp_bp4p 0;
#X obj -6 98 inlet~;
#X obj 27 579 outlet~;
#X obj 106 115 hsl 96 8 5 22500 1 1 empty empty empty -2 -8 0 10 -262144
-1 -1 0 1;
#X obj 106 126 hsl 96 8 5 22500 1 1 empty empty empty -2 -8 0 10 -262144
-1 -1 9500 1;
#X text 338 42 frequency mod (hz);
#X obj 106 139 hsl 96 8 0.01 1 1 1 empty empty empty -2 -8 0 10 -204800
-1 -1 0 1;
#X obj 155 331 +~;
#X obj 298 42 inlet~;
#X obj 139 420 +~;
#X obj 147 360 clip~ 1 20000;
#X obj 136 443 clip~ 1 20000;
#N canvas 717 79 1076 1000 lopass2p2z 0;
#X obj -50 465 inlet~;
#X obj 129 919 outlet~;
#X obj 73 85 inlet~;
#X obj 87 200 sig~ 1;
#X obj 121 249 /~;
#X obj 219 59 samplerate~;
#X obj 110 376 sig~ 1;
#X obj 147 408 /~;
#X obj 214 340 +~;
#X obj 187 310 sig~ 1;
#X obj 251 318 *~;
#X obj 181 375 +~;
#X obj 112 295 *~;
#X text 41 361 a1/a3;
#X obj 222 407 sig~ 1;
#X obj 296 433 -~;
#X obj 299 457 *~ 2;
#X obj 286 506 *~;
#X obj 409 334 *~;
#X text 276 435 b1;
#X text 384 379 b2;
#X obj 361 397 sig~ 1;
#X obj 392 429 -~;
#X obj 377 512 *~;
#X text 99 246 c;
#X obj 397 462 +~;
#X obj 147 222 expr~ tan($v1);
#X obj 151 194 /~ 44100;
#X obj 129 153 *~ 3.14159;
#X text 408 73 resonance 0..1;
#X text 124 86 cutoff (hz);
#X text 420 186 a2= 2*a1 \, a3=a1;
#X text 420 150 c= 1/tan(pi*cutf/samplerate);
#X text 422 168 a1= 1/(1+res*c+c*c);
#X text 421 204 b1= 2*(1-c*c)*a1;
#X text 421 220 b2= (1-res*c+c*c)*a1;
#X obj 33 690 czero~;
#X obj 59 727 czero~;
#X obj 73 646 sig~ -1;
#X obj 90 670 sig~ 0;
#X obj 90 841 cpole~;
#X obj 129 888 cpole~;
#X obj 296 199 *~ 1.41421;
#X obj 307 148 -~;
#X obj 353 72 inlet~;
#X obj 279 94 sig~ 1;
#X text 28 627 zeros at fixed pos;
#X obj 178 840 *~ -1;
#X obj 184 805 expr~ sqrt($v1);
#X obj -44 595 *~;
#X obj 128 704 *~ -0.5;
#X text 219 845 2nd pole = 1st mirrored on the x axis;
#X text 183 704 b1/2 (x pos);
#X text 267 11 cookbook-like? (i cant remember where i got this from)
lp-filter;
#X obj 163 748 *~;
#X obj 183 781 -~;
#X text 217 666 pole position from coeffs:;
#X text 218 683 p=-b1/2+j*sqrt(b2-(b1/2)^2) (found somewhere on the
net...);
#X connect 0 0 49 0;
#X connect 2 0 28 0;
#X connect 3 0 4 0;
#X connect 4 0 10 0;
#X connect 4 0 12 0;
#X connect 4 0 12 1;
#X connect 4 0 18 0;
#X connect 5 0 27 1;
#X connect 6 0 7 0;
#X connect 7 0 17 1;
#X connect 7 0 23 0;
#X connect 7 0 49 1;
#X connect 8 0 11 1;
#X connect 9 0 8 0;
#X connect 10 0 8 1;
#X connect 11 0 7 1;
#X connect 12 0 11 0;
#X connect 12 0 15 1;
#X connect 12 0 25 1;
#X connect 14 0 15 0;
#X connect 15 0 16 0;
#X connect 16 0 17 0;
#X connect 17 0 50 0;
#X connect 18 0 22 1;
#X connect 21 0 22 0;
#X connect 22 0 25 0;
#X connect 23 0 55 0;
#X connect 25 0 23 1;
#X connect 26 0 4 1;
#X connect 27 0 26 0;
#X connect 28 0 27 0;
#X connect 36 0 37 0;
#X connect 36 1 37 1;
#X connect 37 0 40 0;
#X connect 37 1 40 1;
#X connect 38 0 36 2;
#X connect 38 0 37 2;
#X connect 39 0 37 3;
#X connect 39 0 36 3;
#X connect 40 0 41 0;
#X connect 40 1 41 1;
#X connect 41 0 1 0;
#X connect 42 0 10 1;
#X connect 42 0 18 1;
#X connect 43 0 42 0;
#X connect 44 0 43 1;
#X connect 45 0 43 0;
#X connect 47 0 41 3;
#X connect 48 0 40 3;
#X connect 48 0 47 0;
#X connect 49 0 36 0;
#X connect 50 0 40 2;
#X connect 50 0 41 2;
#X connect 50 0 54 0;
#X connect 50 0 54 1;
#X connect 54 0 55 1;
#X connect 55 0 48 0;
#X restore 24 409 pd lopass2p2z;
#N canvas 486 219 1076 837 hipass2p2z 0;
#X obj -47 497 inlet~;
#X obj 128 927 outlet~;
#X obj 105 93 inlet~;
#X text 401 96 resonance 0..1;
#X text 156 94 cutoff (hz);
#X text 572 141 c= tan(pi*cutf/samplerate);
#X obj 245 49 samplerate~;
#X obj 140 186 expr~ tan($v1);
#X obj 135 159 /~ 44100;
#X obj 108 128 *~ 3.14159;
#X text 91 160 c;
#X obj 143 285 sig~ 1;
#X obj 174 398 /~;
#X obj 210 362 +~;
#X obj 226 333 +~;
#X obj 270 268 *~;
#X obj 266 314 *~;
#X text 573 165 a1= 1/(1+res+c+c*c);
#X text 573 186 a2= -2*a1;
#X text 99 483 a2;
#X text 123 337 a1/a3;
#X text 574 205 b1= 2*(c*c-1)*a1;
#X obj 287 439 -~;
#X obj 310 417 sig~ 1;
#X text 256 428 b1;
#X obj 280 485 *~ 2;
#X obj 261 515 *~;
#X obj 417 339 *~;
#X text 384 379 b2;
#X obj 361 397 sig~ 1;
#X obj 392 429 -~;
#X obj 377 512 *~;
#X obj 394 472 +~;
#X text 573 221 b2= (1-res*c+c*c)*a1;
#X obj 33 690 czero~;
#X obj 59 727 czero~;
#X obj 90 841 cpole~;
#X obj 129 888 cpole~;
#X obj 178 840 *~ -1;
#X obj 184 805 expr~ sqrt($v1);
#X obj -44 595 *~;
#X obj 128 704 *~ -0.5;
#X text 219 845 2nd pole = 1st mirrored on the x axis;
#X text 183 704 b1/2 (x pos);
#X obj 163 748 *~;
#X obj 183 781 -~;
#X text 217 666 pole position from coeffs:;
#X text 218 683 p=-b1/2+j*sqrt(b2-(b1/2)^2) (found somewhere on the
net...);
#X text 573 99 cookbook-like? (i cant remember where i got this from)
hp-filter;
#X obj 343 246 *~ 1.41421;
#X obj 341 194 -~;
#X obj 305 153 sig~ 1;
#X obj 346 95 inlet~;
#X obj 90 670 sig~ 0;
#X obj 73 646 sig~ 1;
#X text 49 624 zeros at fixed pos;
#X connect 0 0 40 0;
#X connect 2 0 9 0;
#X connect 6 0 8 1;
#X connect 7 0 15 0;
#X connect 7 0 16 0;
#X connect 7 0 16 1;
#X connect 7 0 27 0;
#X connect 8 0 7 0;
#X connect 9 0 8 0;
#X connect 11 0 12 0;
#X connect 11 0 13 0;
#X connect 12 0 26 0;
#X connect 12 0 31 0;
#X connect 12 0 40 1;
#X connect 13 0 12 1;
#X connect 14 0 13 1;
#X connect 15 0 14 0;
#X connect 16 0 14 1;
#X connect 16 0 22 0;
#X connect 16 0 32 1;
#X connect 22 0 25 0;
#X connect 23 0 22 1;
#X connect 25 0 26 1;
#X connect 26 0 41 0;
#X connect 27 0 30 1;
#X connect 29 0 30 0;
#X connect 30 0 32 0;
#X connect 31 0 45 0;
#X connect 32 0 31 1;
#X connect 34 0 35 0;
#X connect 34 1 35 1;
#X connect 35 0 36 0;
#X connect 35 1 36 1;
#X connect 36 0 37 0;
#X connect 36 1 37 1;
#X connect 37 0 1 0;
#X connect 38 0 37 3;
#X connect 39 0 36 3;
#X connect 39 0 38 0;
#X connect 40 0 34 0;
#X connect 41 0 36 2;
#X connect 41 0 37 2;
#X connect 41 0 44 0;
#X connect 41 0 44 1;
#X connect 44 0 45 1;
#X connect 45 0 39 0;
#X connect 49 0 15 1;
#X connect 49 0 27 1;
#X connect 50 0 49 0;
#X connect 51 0 50 0;
#X connect 52 0 50 1;
#X connect 53 0 35 3;
#X connect 53 0 34 3;
#X connect 54 0 34 2;
#X connect 54 0 35 2;
#X restore 41 499 pd hipass2p2z;
#N canvas 717 79 1076 1000 lopass2p2z 0;
#X obj -50 465 inlet~;
#X obj 129 919 outlet~;
#X obj 73 85 inlet~;
#X obj 87 200 sig~ 1;
#X obj 121 249 /~;
#X obj 219 59 samplerate~;
#X obj 110 376 sig~ 1;
#X obj 147 408 /~;
#X obj 214 340 +~;
#X obj 187 310 sig~ 1;
#X obj 251 318 *~;
#X obj 181 375 +~;
#X obj 112 295 *~;
#X text 41 361 a1/a3;
#X obj 222 407 sig~ 1;
#X obj 296 433 -~;
#X obj 299 457 *~ 2;
#X obj 286 506 *~;
#X obj 409 334 *~;
#X text 276 435 b1;
#X text 384 379 b2;
#X obj 361 397 sig~ 1;
#X obj 392 429 -~;
#X obj 377 512 *~;
#X text 99 246 c;
#X obj 397 462 +~;
#X obj 147 222 expr~ tan($v1);
#X obj 151 194 /~ 44100;
#X obj 129 153 *~ 3.14159;
#X text 408 73 resonance 0..1;
#X text 124 86 cutoff (hz);
#X text 420 186 a2= 2*a1 \, a3=a1;
#X text 420 150 c= 1/tan(pi*cutf/samplerate);
#X text 422 168 a1= 1/(1+res*c+c*c);
#X text 421 204 b1= 2*(1-c*c)*a1;
#X text 421 220 b2= (1-res*c+c*c)*a1;
#X obj 33 690 czero~;
#X obj 59 727 czero~;
#X obj 73 646 sig~ -1;
#X obj 90 670 sig~ 0;
#X obj 90 841 cpole~;
#X obj 129 888 cpole~;
#X obj 296 199 *~ 1.41421;
#X obj 307 148 -~;
#X obj 353 72 inlet~;
#X obj 279 94 sig~ 1;
#X text 28 627 zeros at fixed pos;
#X obj 178 840 *~ -1;
#X obj 184 805 expr~ sqrt($v1);
#X obj -44 595 *~;
#X obj 128 704 *~ -0.5;
#X text 219 845 2nd pole = 1st mirrored on the x axis;
#X text 183 704 b1/2 (x pos);
#X text 267 11 cookbook-like? (i cant remember where i got this from)
lp-filter;
#X obj 163 748 *~;
#X obj 183 781 -~;
#X text 217 666 pole position from coeffs:;
#X text 218 683 p=-b1/2+j*sqrt(b2-(b1/2)^2) (found somewhere on the
net...);
#X connect 0 0 49 0;
#X connect 2 0 28 0;
#X connect 3 0 4 0;
#X connect 4 0 10 0;
#X connect 4 0 12 0;
#X connect 4 0 12 1;
#X connect 4 0 18 0;
#X connect 5 0 27 1;
#X connect 6 0 7 0;
#X connect 7 0 17 1;
#X connect 7 0 23 0;
#X connect 7 0 49 1;
#X connect 8 0 11 1;
#X connect 9 0 8 0;
#X connect 10 0 8 1;
#X connect 11 0 7 1;
#X connect 12 0 11 0;
#X connect 12 0 15 1;
#X connect 12 0 25 1;
#X connect 14 0 15 0;
#X connect 15 0 16 0;
#X connect 16 0 17 0;
#X connect 17 0 50 0;
#X connect 18 0 22 1;
#X connect 21 0 22 0;
#X connect 22 0 25 0;
#X connect 23 0 55 0;
#X connect 25 0 23 1;
#X connect 26 0 4 1;
#X connect 27 0 26 0;
#X connect 28 0 27 0;
#X connect 36 0 37 0;
#X connect 36 1 37 1;
#X connect 37 0 40 0;
#X connect 37 1 40 1;
#X connect 38 0 36 2;
#X connect 38 0 37 2;
#X connect 39 0 37 3;
#X connect 39 0 36 3;
#X connect 40 0 41 0;
#X connect 40 1 41 1;
#X connect 41 0 1 0;
#X connect 42 0 10 1;
#X connect 42 0 18 1;
#X connect 43 0 42 0;
#X connect 44 0 43 1;
#X connect 45 0 43 0;
#X connect 47 0 41 3;
#X connect 48 0 40 3;
#X connect 48 0 47 0;
#X connect 49 0 36 0;
#X connect 50 0 40 2;
#X connect 50 0 41 2;
#X connect 50 0 54 0;
#X connect 50 0 54 1;
#X connect 54 0 55 1;
#X connect 55 0 48 0;
#X restore 31 433 pd lopass2p2z;
#N canvas 486 219 1076 837 hipass2p2z 0;
#X obj -47 497 inlet~;
#X obj 128 927 outlet~;
#X obj 105 93 inlet~;
#X text 401 96 resonance 0..1;
#X text 156 94 cutoff (hz);
#X text 572 141 c= tan(pi*cutf/samplerate);
#X obj 245 49 samplerate~;
#X obj 140 186 expr~ tan($v1);
#X obj 135 159 /~ 44100;
#X obj 108 128 *~ 3.14159;
#X text 91 160 c;
#X obj 143 285 sig~ 1;
#X obj 174 398 /~;
#X obj 210 362 +~;
#X obj 226 333 +~;
#X obj 270 268 *~;
#X obj 266 314 *~;
#X text 573 165 a1= 1/(1+res+c+c*c);
#X text 573 186 a2= -2*a1;
#X text 99 483 a2;
#X text 123 337 a1/a3;
#X text 574 205 b1= 2*(c*c-1)*a1;
#X obj 287 439 -~;
#X obj 310 417 sig~ 1;
#X text 256 428 b1;
#X obj 280 485 *~ 2;
#X obj 261 515 *~;
#X obj 417 339 *~;
#X text 384 379 b2;
#X obj 361 397 sig~ 1;
#X obj 392 429 -~;
#X obj 377 512 *~;
#X obj 394 472 +~;
#X text 573 221 b2= (1-res*c+c*c)*a1;
#X obj 33 690 czero~;
#X obj 59 727 czero~;
#X obj 90 841 cpole~;
#X obj 129 888 cpole~;
#X obj 178 840 *~ -1;
#X obj 184 805 expr~ sqrt($v1);
#X obj -44 595 *~;
#X obj 128 704 *~ -0.5;
#X text 219 845 2nd pole = 1st mirrored on the x axis;
#X text 183 704 b1/2 (x pos);
#X obj 163 748 *~;
#X obj 183 781 -~;
#X text 217 666 pole position from coeffs:;
#X text 218 683 p=-b1/2+j*sqrt(b2-(b1/2)^2) (found somewhere on the
net...);
#X text 573 99 cookbook-like? (i cant remember where i got this from)
hp-filter;
#X obj 343 246 *~ 1.41421;
#X obj 341 194 -~;
#X obj 305 153 sig~ 1;
#X obj 346 95 inlet~;
#X obj 90 670 sig~ 0;
#X obj 73 646 sig~ 1;
#X text 49 624 zeros at fixed pos;
#X connect 0 0 40 0;
#X connect 2 0 9 0;
#X connect 6 0 8 1;
#X connect 7 0 15 0;
#X connect 7 0 16 0;
#X connect 7 0 16 1;
#X connect 7 0 27 0;
#X connect 8 0 7 0;
#X connect 9 0 8 0;
#X connect 11 0 12 0;
#X connect 11 0 13 0;
#X connect 12 0 26 0;
#X connect 12 0 31 0;
#X connect 12 0 40 1;
#X connect 13 0 12 1;
#X connect 14 0 13 1;
#X connect 15 0 14 0;
#X connect 16 0 14 1;
#X connect 16 0 22 0;
#X connect 16 0 32 1;
#X connect 22 0 25 0;
#X connect 23 0 22 1;
#X connect 25 0 26 1;
#X connect 26 0 41 0;
#X connect 27 0 30 1;
#X connect 29 0 30 0;
#X connect 30 0 32 0;
#X connect 31 0 45 0;
#X connect 32 0 31 1;
#X connect 34 0 35 0;
#X connect 34 1 35 1;
#X connect 35 0 36 0;
#X connect 35 1 36 1;
#X connect 36 0 37 0;
#X connect 36 1 37 1;
#X connect 37 0 1 0;
#X connect 38 0 37 3;
#X connect 39 0 36 3;
#X connect 39 0 38 0;
#X connect 40 0 34 0;
#X connect 41 0 36 2;
#X connect 41 0 37 2;
#X connect 41 0 44 0;
#X connect 41 0 44 1;
#X connect 44 0 45 1;
#X connect 45 0 39 0;
#X connect 49 0 15 1;
#X connect 49 0 27 1;
#X connect 50 0 49 0;
#X connect 51 0 50 0;
#X connect 52 0 50 1;
#X connect 53 0 35 3;
#X connect 53 0 34 3;
#X connect 54 0 34 2;
#X connect 54 0 35 2;
#X restore 59 530 pd hipass2p2z;
#X connect 0 0 11 0;
#X connect 2 0 8 0;
#X connect 3 0 6 0;
#X connect 5 0 11 2;
#X connect 5 0 12 2;
#X connect 5 0 13 2;
#X connect 5 0 14 2;
#X connect 6 0 9 0;
#X connect 7 0 6 1;
#X connect 7 0 8 1;
#X connect 8 0 10 0;
#X connect 9 0 11 1;
#X connect 9 0 13 1;
#X connect 10 0 12 1;
#X connect 10 0 14 1;
#X connect 11 0 13 0;
#X connect 12 0 14 0;
#X connect 13 0 12 0;
#X connect 14 0 1 0;
#X coords 0 -1 1 1 110 50 1 100 100;
#X restore 43 -34 pd lp_hp_bp4p;
#N canvas 87 373 597 672 lp_hp_bp4p 0;
#X obj -6 98 inlet~;
#X obj 27 579 outlet~;
#X obj 106 115 hsl 96 8 5 22500 1 1 empty empty empty -2 -8 0 10 -262144
-1 -1 0 1;
#X obj 106 126 hsl 96 8 5 22500 1 1 empty empty empty -2 -8 0 10 -262144
-1 -1 9500 1;
#X text 338 42 frequency mod (hz);
#X obj 106 139 hsl 96 8 0.01 1 1 1 empty empty empty -2 -8 0 10 -204800
-1 -1 0 1;
#X obj 155 331 +~;
#X obj 298 42 inlet~;
#X obj 139 420 +~;
#X obj 147 360 clip~ 1 20000;
#X obj 136 443 clip~ 1 20000;
#N canvas 717 79 1076 1000 lopass2p2z 0;
#X obj -50 465 inlet~;
#X obj 129 919 outlet~;
#X obj 73 85 inlet~;
#X obj 87 200 sig~ 1;
#X obj 121 249 /~;
#X obj 219 59 samplerate~;
#X obj 110 376 sig~ 1;
#X obj 147 408 /~;
#X obj 214 340 +~;
#X obj 187 310 sig~ 1;
#X obj 251 318 *~;
#X obj 181 375 +~;
#X obj 112 295 *~;
#X text 41 361 a1/a3;
#X obj 222 407 sig~ 1;
#X obj 296 433 -~;
#X obj 299 457 *~ 2;
#X obj 286 506 *~;
#X obj 409 334 *~;
#X text 276 435 b1;
#X text 384 379 b2;
#X obj 361 397 sig~ 1;
#X obj 392 429 -~;
#X obj 377 512 *~;
#X text 99 246 c;
#X obj 397 462 +~;
#X obj 147 222 expr~ tan($v1);
#X obj 151 194 /~ 44100;
#X obj 129 153 *~ 3.14159;
#X text 408 73 resonance 0..1;
#X text 124 86 cutoff (hz);
#X text 420 186 a2= 2*a1 \, a3=a1;
#X text 420 150 c= 1/tan(pi*cutf/samplerate);
#X text 422 168 a1= 1/(1+res*c+c*c);
#X text 421 204 b1= 2*(1-c*c)*a1;
#X text 421 220 b2= (1-res*c+c*c)*a1;
#X obj 33 690 czero~;
#X obj 59 727 czero~;
#X obj 73 646 sig~ -1;
#X obj 90 670 sig~ 0;
#X obj 90 841 cpole~;
#X obj 129 888 cpole~;
#X obj 296 199 *~ 1.41421;
#X obj 307 148 -~;
#X obj 353 72 inlet~;
#X obj 279 94 sig~ 1;
#X text 28 627 zeros at fixed pos;
#X obj 178 840 *~ -1;
#X obj 184 805 expr~ sqrt($v1);
#X obj -44 595 *~;
#X obj 128 704 *~ -0.5;
#X text 219 845 2nd pole = 1st mirrored on the x axis;
#X text 183 704 b1/2 (x pos);
#X text 267 11 cookbook-like? (i cant remember where i got this from)
lp-filter;
#X obj 163 748 *~;
#X obj 183 781 -~;
#X text 217 666 pole position from coeffs:;
#X text 218 683 p=-b1/2+j*sqrt(b2-(b1/2)^2) (found somewhere on the
net...);
#X connect 0 0 49 0;
#X connect 2 0 28 0;
#X connect 3 0 4 0;
#X connect 4 0 10 0;
#X connect 4 0 12 0;
#X connect 4 0 12 1;
#X connect 4 0 18 0;
#X connect 5 0 27 1;
#X connect 6 0 7 0;
#X connect 7 0 17 1;
#X connect 7 0 23 0;
#X connect 7 0 49 1;
#X connect 8 0 11 1;
#X connect 9 0 8 0;
#X connect 10 0 8 1;
#X connect 11 0 7 1;
#X connect 12 0 11 0;
#X connect 12 0 15 1;
#X connect 12 0 25 1;
#X connect 14 0 15 0;
#X connect 15 0 16 0;
#X connect 16 0 17 0;
#X connect 17 0 50 0;
#X connect 18 0 22 1;
#X connect 21 0 22 0;
#X connect 22 0 25 0;
#X connect 23 0 55 0;
#X connect 25 0 23 1;
#X connect 26 0 4 1;
#X connect 27 0 26 0;
#X connect 28 0 27 0;
#X connect 36 0 37 0;
#X connect 36 1 37 1;
#X connect 37 0 40 0;
#X connect 37 1 40 1;
#X connect 38 0 36 2;
#X connect 38 0 37 2;
#X connect 39 0 37 3;
#X connect 39 0 36 3;
#X connect 40 0 41 0;
#X connect 40 1 41 1;
#X connect 41 0 1 0;
#X connect 42 0 10 1;
#X connect 42 0 18 1;
#X connect 43 0 42 0;
#X connect 44 0 43 1;
#X connect 45 0 43 0;
#X connect 47 0 41 3;
#X connect 48 0 40 3;
#X connect 48 0 47 0;
#X connect 49 0 36 0;
#X connect 50 0 40 2;
#X connect 50 0 41 2;
#X connect 50 0 54 0;
#X connect 50 0 54 1;
#X connect 54 0 55 1;
#X connect 55 0 48 0;
#X restore 24 409 pd lopass2p2z;
#N canvas 486 219 1076 837 hipass2p2z 0;
#X obj -47 497 inlet~;
#X obj 128 927 outlet~;
#X obj 105 93 inlet~;
#X text 401 96 resonance 0..1;
#X text 156 94 cutoff (hz);
#X text 572 141 c= tan(pi*cutf/samplerate);
#X obj 245 49 samplerate~;
#X obj 140 186 expr~ tan($v1);
#X obj 135 159 /~ 44100;
#X obj 108 128 *~ 3.14159;
#X text 91 160 c;
#X obj 143 285 sig~ 1;
#X obj 174 398 /~;
#X obj 210 362 +~;
#X obj 226 333 +~;
#X obj 270 268 *~;
#X obj 266 314 *~;
#X text 573 165 a1= 1/(1+res+c+c*c);
#X text 573 186 a2= -2*a1;
#X text 99 483 a2;
#X text 123 337 a1/a3;
#X text 574 205 b1= 2*(c*c-1)*a1;
#X obj 287 439 -~;
#X obj 310 417 sig~ 1;
#X text 256 428 b1;
#X obj 280 485 *~ 2;
#X obj 261 515 *~;
#X obj 417 339 *~;
#X text 384 379 b2;
#X obj 361 397 sig~ 1;
#X obj 392 429 -~;
#X obj 377 512 *~;
#X obj 394 472 +~;
#X text 573 221 b2= (1-res*c+c*c)*a1;
#X obj 33 690 czero~;
#X obj 59 727 czero~;
#X obj 90 841 cpole~;
#X obj 129 888 cpole~;
#X obj 178 840 *~ -1;
#X obj 184 805 expr~ sqrt($v1);
#X obj -44 595 *~;
#X obj 128 704 *~ -0.5;
#X text 219 845 2nd pole = 1st mirrored on the x axis;
#X text 183 704 b1/2 (x pos);
#X obj 163 748 *~;
#X obj 183 781 -~;
#X text 217 666 pole position from coeffs:;
#X text 218 683 p=-b1/2+j*sqrt(b2-(b1/2)^2) (found somewhere on the
net...);
#X text 573 99 cookbook-like? (i cant remember where i got this from)
hp-filter;
#X obj 343 246 *~ 1.41421;
#X obj 341 194 -~;
#X obj 305 153 sig~ 1;
#X obj 346 95 inlet~;
#X obj 90 670 sig~ 0;
#X obj 73 646 sig~ 1;
#X text 49 624 zeros at fixed pos;
#X connect 0 0 40 0;
#X connect 2 0 9 0;
#X connect 6 0 8 1;
#X connect 7 0 15 0;
#X connect 7 0 16 0;
#X connect 7 0 16 1;
#X connect 7 0 27 0;
#X connect 8 0 7 0;
#X connect 9 0 8 0;
#X connect 11 0 12 0;
#X connect 11 0 13 0;
#X connect 12 0 26 0;
#X connect 12 0 31 0;
#X connect 12 0 40 1;
#X connect 13 0 12 1;
#X connect 14 0 13 1;
#X connect 15 0 14 0;
#X connect 16 0 14 1;
#X connect 16 0 22 0;
#X connect 16 0 32 1;
#X connect 22 0 25 0;
#X connect 23 0 22 1;
#X connect 25 0 26 1;
#X connect 26 0 41 0;
#X connect 27 0 30 1;
#X connect 29 0 30 0;
#X connect 30 0 32 0;
#X connect 31 0 45 0;
#X connect 32 0 31 1;
#X connect 34 0 35 0;
#X connect 34 1 35 1;
#X connect 35 0 36 0;
#X connect 35 1 36 1;
#X connect 36 0 37 0;
#X connect 36 1 37 1;
#X connect 37 0 1 0;
#X connect 38 0 37 3;
#X connect 39 0 36 3;
#X connect 39 0 38 0;
#X connect 40 0 34 0;
#X connect 41 0 36 2;
#X connect 41 0 37 2;
#X connect 41 0 44 0;
#X connect 41 0 44 1;
#X connect 44 0 45 1;
#X connect 45 0 39 0;
#X connect 49 0 15 1;
#X connect 49 0 27 1;
#X connect 50 0 49 0;
#X connect 51 0 50 0;
#X connect 52 0 50 1;
#X connect 53 0 35 3;
#X connect 53 0 34 3;
#X connect 54 0 34 2;
#X connect 54 0 35 2;
#X restore 41 499 pd hipass2p2z;
#N canvas 717 79 1076 1000 lopass2p2z 0;
#X obj -50 465 inlet~;
#X obj 129 919 outlet~;
#X obj 73 85 inlet~;
#X obj 87 200 sig~ 1;
#X obj 121 249 /~;
#X obj 219 59 samplerate~;
#X obj 110 376 sig~ 1;
#X obj 147 408 /~;
#X obj 214 340 +~;
#X obj 187 310 sig~ 1;
#X obj 251 318 *~;
#X obj 181 375 +~;
#X obj 112 295 *~;
#X text 41 361 a1/a3;
#X obj 222 407 sig~ 1;
#X obj 296 433 -~;
#X obj 299 457 *~ 2;
#X obj 286 506 *~;
#X obj 409 334 *~;
#X text 276 435 b1;
#X text 384 379 b2;
#X obj 361 397 sig~ 1;
#X obj 392 429 -~;
#X obj 377 512 *~;
#X text 99 246 c;
#X obj 397 462 +~;
#X obj 147 222 expr~ tan($v1);
#X obj 151 194 /~ 44100;
#X obj 129 153 *~ 3.14159;
#X text 408 73 resonance 0..1;
#X text 124 86 cutoff (hz);
#X text 420 186 a2= 2*a1 \, a3=a1;
#X text 420 150 c= 1/tan(pi*cutf/samplerate);
#X text 422 168 a1= 1/(1+res*c+c*c);
#X text 421 204 b1= 2*(1-c*c)*a1;
#X text 421 220 b2= (1-res*c+c*c)*a1;
#X obj 33 690 czero~;
#X obj 59 727 czero~;
#X obj 73 646 sig~ -1;
#X obj 90 670 sig~ 0;
#X obj 90 841 cpole~;
#X obj 129 888 cpole~;
#X obj 296 199 *~ 1.41421;
#X obj 307 148 -~;
#X obj 353 72 inlet~;
#X obj 279 94 sig~ 1;
#X text 28 627 zeros at fixed pos;
#X obj 178 840 *~ -1;
#X obj 184 805 expr~ sqrt($v1);
#X obj -44 595 *~;
#X obj 128 704 *~ -0.5;
#X text 219 845 2nd pole = 1st mirrored on the x axis;
#X text 183 704 b1/2 (x pos);
#X text 267 11 cookbook-like? (i cant remember where i got this from)
lp-filter;
#X obj 163 748 *~;
#X obj 183 781 -~;
#X text 217 666 pole position from coeffs:;
#X text 218 683 p=-b1/2+j*sqrt(b2-(b1/2)^2) (found somewhere on the
net...);
#X connect 0 0 49 0;
#X connect 2 0 28 0;
#X connect 3 0 4 0;
#X connect 4 0 10 0;
#X connect 4 0 12 0;
#X connect 4 0 12 1;
#X connect 4 0 18 0;
#X connect 5 0 27 1;
#X connect 6 0 7 0;
#X connect 7 0 17 1;
#X connect 7 0 23 0;
#X connect 7 0 49 1;
#X connect 8 0 11 1;
#X connect 9 0 8 0;
#X connect 10 0 8 1;
#X connect 11 0 7 1;
#X connect 12 0 11 0;
#X connect 12 0 15 1;
#X connect 12 0 25 1;
#X connect 14 0 15 0;
#X connect 15 0 16 0;
#X connect 16 0 17 0;
#X connect 17 0 50 0;
#X connect 18 0 22 1;
#X connect 21 0 22 0;
#X connect 22 0 25 0;
#X connect 23 0 55 0;
#X connect 25 0 23 1;
#X connect 26 0 4 1;
#X connect 27 0 26 0;
#X connect 28 0 27 0;
#X connect 36 0 37 0;
#X connect 36 1 37 1;
#X connect 37 0 40 0;
#X connect 37 1 40 1;
#X connect 38 0 36 2;
#X connect 38 0 37 2;
#X connect 39 0 37 3;
#X connect 39 0 36 3;
#X connect 40 0 41 0;
#X connect 40 1 41 1;
#X connect 41 0 1 0;
#X connect 42 0 10 1;
#X connect 42 0 18 1;
#X connect 43 0 42 0;
#X connect 44 0 43 1;
#X connect 45 0 43 0;
#X connect 47 0 41 3;
#X connect 48 0 40 3;
#X connect 48 0 47 0;
#X connect 49 0 36 0;
#X connect 50 0 40 2;
#X connect 50 0 41 2;
#X connect 50 0 54 0;
#X connect 50 0 54 1;
#X connect 54 0 55 1;
#X connect 55 0 48 0;
#X restore 31 433 pd lopass2p2z;
#N canvas 486 219 1076 837 hipass2p2z 0;
#X obj -47 497 inlet~;
#X obj 128 927 outlet~;
#X obj 105 93 inlet~;
#X text 401 96 resonance 0..1;
#X text 156 94 cutoff (hz);
#X text 572 141 c= tan(pi*cutf/samplerate);
#X obj 245 49 samplerate~;
#X obj 140 186 expr~ tan($v1);
#X obj 135 159 /~ 44100;
#X obj 108 128 *~ 3.14159;
#X text 91 160 c;
#X obj 143 285 sig~ 1;
#X obj 174 398 /~;
#X obj 210 362 +~;
#X obj 226 333 +~;
#X obj 270 268 *~;
#X obj 266 314 *~;
#X text 573 165 a1= 1/(1+res+c+c*c);
#X text 573 186 a2= -2*a1;
#X text 99 483 a2;
#X text 123 337 a1/a3;
#X text 574 205 b1= 2*(c*c-1)*a1;
#X obj 287 439 -~;
#X obj 310 417 sig~ 1;
#X text 256 428 b1;
#X obj 280 485 *~ 2;
#X obj 261 515 *~;
#X obj 417 339 *~;
#X text 384 379 b2;
#X obj 361 397 sig~ 1;
#X obj 392 429 -~;
#X obj 377 512 *~;
#X obj 394 472 +~;
#X text 573 221 b2= (1-res*c+c*c)*a1;
#X obj 33 690 czero~;
#X obj 59 727 czero~;
#X obj 90 841 cpole~;
#X obj 129 888 cpole~;
#X obj 178 840 *~ -1;
#X obj 184 805 expr~ sqrt($v1);
#X obj -44 595 *~;
#X obj 128 704 *~ -0.5;
#X text 219 845 2nd pole = 1st mirrored on the x axis;
#X text 183 704 b1/2 (x pos);
#X obj 163 748 *~;
#X obj 183 781 -~;
#X text 217 666 pole position from coeffs:;
#X text 218 683 p=-b1/2+j*sqrt(b2-(b1/2)^2) (found somewhere on the
net...);
#X text 573 99 cookbook-like? (i cant remember where i got this from)
hp-filter;
#X obj 343 246 *~ 1.41421;
#X obj 341 194 -~;
#X obj 305 153 sig~ 1;
#X obj 346 95 inlet~;
#X obj 90 670 sig~ 0;
#X obj 73 646 sig~ 1;
#X text 49 624 zeros at fixed pos;
#X connect 0 0 40 0;
#X connect 2 0 9 0;
#X connect 6 0 8 1;
#X connect 7 0 15 0;
#X connect 7 0 16 0;
#X connect 7 0 16 1;
#X connect 7 0 27 0;
#X connect 8 0 7 0;
#X connect 9 0 8 0;
#X connect 11 0 12 0;
#X connect 11 0 13 0;
#X connect 12 0 26 0;
#X connect 12 0 31 0;
#X connect 12 0 40 1;
#X connect 13 0 12 1;
#X connect 14 0 13 1;
#X connect 15 0 14 0;
#X connect 16 0 14 1;
#X connect 16 0 22 0;
#X connect 16 0 32 1;
#X connect 22 0 25 0;
#X connect 23 0 22 1;
#X connect 25 0 26 1;
#X connect 26 0 41 0;
#X connect 27 0 30 1;
#X connect 29 0 30 0;
#X connect 30 0 32 0;
#X connect 31 0 45 0;
#X connect 32 0 31 1;
#X connect 34 0 35 0;
#X connect 34 1 35 1;
#X connect 35 0 36 0;
#X connect 35 1 36 1;
#X connect 36 0 37 0;
#X connect 36 1 37 1;
#X connect 37 0 1 0;
#X connect 38 0 37 3;
#X connect 39 0 36 3;
#X connect 39 0 38 0;
#X connect 40 0 34 0;
#X connect 41 0 36 2;
#X connect 41 0 37 2;
#X connect 41 0 44 0;
#X connect 41 0 44 1;
#X connect 44 0 45 1;
#X connect 45 0 39 0;
#X connect 49 0 15 1;
#X connect 49 0 27 1;
#X connect 50 0 49 0;
#X connect 51 0 50 0;
#X connect 52 0 50 1;
#X connect 53 0 35 3;
#X connect 53 0 34 3;
#X connect 54 0 34 2;
#X connect 54 0 35 2;
#X restore 59 530 pd hipass2p2z;
#X obj -136 128 inlet~;
#X obj -103 609 outlet~;
#N canvas 717 79 1076 1000 lopass2p2z 0;
#X obj -50 465 inlet~;
#X obj 129 919 outlet~;
#X obj 73 85 inlet~;
#X obj 87 200 sig~ 1;
#X obj 121 249 /~;
#X obj 219 59 samplerate~;
#X obj 110 376 sig~ 1;
#X obj 147 408 /~;
#X obj 214 340 +~;
#X obj 187 310 sig~ 1;
#X obj 251 318 *~;
#X obj 181 375 +~;
#X obj 112 295 *~;
#X text 41 361 a1/a3;
#X obj 222 407 sig~ 1;
#X obj 296 433 -~;
#X obj 299 457 *~ 2;
#X obj 286 506 *~;
#X obj 409 334 *~;
#X text 276 435 b1;
#X text 384 379 b2;
#X obj 361 397 sig~ 1;
#X obj 392 429 -~;
#X obj 377 512 *~;
#X text 99 246 c;
#X obj 397 462 +~;
#X obj 147 222 expr~ tan($v1);
#X obj 151 194 /~ 44100;
#X obj 129 153 *~ 3.14159;
#X text 408 73 resonance 0..1;
#X text 124 86 cutoff (hz);
#X text 420 186 a2= 2*a1 \, a3=a1;
#X text 420 150 c= 1/tan(pi*cutf/samplerate);
#X text 422 168 a1= 1/(1+res*c+c*c);
#X text 421 204 b1= 2*(1-c*c)*a1;
#X text 421 220 b2= (1-res*c+c*c)*a1;
#X obj 33 690 czero~;
#X obj 59 727 czero~;
#X obj 73 646 sig~ -1;
#X obj 90 670 sig~ 0;
#X obj 90 841 cpole~;
#X obj 129 888 cpole~;
#X obj 296 199 *~ 1.41421;
#X obj 307 148 -~;
#X obj 353 72 inlet~;
#X obj 279 94 sig~ 1;
#X text 28 627 zeros at fixed pos;
#X obj 178 840 *~ -1;
#X obj 184 805 expr~ sqrt($v1);
#X obj -44 595 *~;
#X obj 128 704 *~ -0.5;
#X text 219 845 2nd pole = 1st mirrored on the x axis;
#X text 183 704 b1/2 (x pos);
#X text 267 11 cookbook-like? (i cant remember where i got this from)
lp-filter;
#X obj 163 748 *~;
#X obj 183 781 -~;
#X text 217 666 pole position from coeffs:;
#X text 218 683 p=-b1/2+j*sqrt(b2-(b1/2)^2) (found somewhere on the
net...);
#X connect 0 0 49 0;
#X connect 2 0 28 0;
#X connect 3 0 4 0;
#X connect 4 0 10 0;
#X connect 4 0 12 0;
#X connect 4 0 12 1;
#X connect 4 0 18 0;
#X connect 5 0 27 1;
#X connect 6 0 7 0;
#X connect 7 0 17 1;
#X connect 7 0 23 0;
#X connect 7 0 49 1;
#X connect 8 0 11 1;
#X connect 9 0 8 0;
#X connect 10 0 8 1;
#X connect 11 0 7 1;
#X connect 12 0 11 0;
#X connect 12 0 15 1;
#X connect 12 0 25 1;
#X connect 14 0 15 0;
#X connect 15 0 16 0;
#X connect 16 0 17 0;
#X connect 17 0 50 0;
#X connect 18 0 22 1;
#X connect 21 0 22 0;
#X connect 22 0 25 0;
#X connect 23 0 55 0;
#X connect 25 0 23 1;
#X connect 26 0 4 1;
#X connect 27 0 26 0;
#X connect 28 0 27 0;
#X connect 36 0 37 0;
#X connect 36 1 37 1;
#X connect 37 0 40 0;
#X connect 37 1 40 1;
#X connect 38 0 36 2;
#X connect 38 0 37 2;
#X connect 39 0 37 3;
#X connect 39 0 36 3;
#X connect 40 0 41 0;
#X connect 40 1 41 1;
#X connect 41 0 1 0;
#X connect 42 0 10 1;
#X connect 42 0 18 1;
#X connect 43 0 42 0;
#X connect 44 0 43 1;
#X connect 45 0 43 0;
#X connect 47 0 41 3;
#X connect 48 0 40 3;
#X connect 48 0 47 0;
#X connect 49 0 36 0;
#X connect 50 0 40 2;
#X connect 50 0 41 2;
#X connect 50 0 54 0;
#X connect 50 0 54 1;
#X connect 54 0 55 1;
#X connect 55 0 48 0;
#X restore -106 439 pd lopass2p2z;
#N canvas 486 219 1076 837 hipass2p2z 0;
#X obj -47 497 inlet~;
#X obj 128 927 outlet~;
#X obj 105 93 inlet~;
#X text 401 96 resonance 0..1;
#X text 156 94 cutoff (hz);
#X text 572 141 c= tan(pi*cutf/samplerate);
#X obj 245 49 samplerate~;
#X obj 140 186 expr~ tan($v1);
#X obj 135 159 /~ 44100;
#X obj 108 128 *~ 3.14159;
#X text 91 160 c;
#X obj 143 285 sig~ 1;
#X obj 174 398 /~;
#X obj 210 362 +~;
#X obj 226 333 +~;
#X obj 270 268 *~;
#X obj 266 314 *~;
#X text 573 165 a1= 1/(1+res+c+c*c);
#X text 573 186 a2= -2*a1;
#X text 99 483 a2;
#X text 123 337 a1/a3;
#X text 574 205 b1= 2*(c*c-1)*a1;
#X obj 287 439 -~;
#X obj 310 417 sig~ 1;
#X text 256 428 b1;
#X obj 280 485 *~ 2;
#X obj 261 515 *~;
#X obj 417 339 *~;
#X text 384 379 b2;
#X obj 361 397 sig~ 1;
#X obj 392 429 -~;
#X obj 377 512 *~;
#X obj 394 472 +~;
#X text 573 221 b2= (1-res*c+c*c)*a1;
#X obj 33 690 czero~;
#X obj 59 727 czero~;
#X obj 90 841 cpole~;
#X obj 129 888 cpole~;
#X obj 178 840 *~ -1;
#X obj 184 805 expr~ sqrt($v1);
#X obj -44 595 *~;
#X obj 128 704 *~ -0.5;
#X text 219 845 2nd pole = 1st mirrored on the x axis;
#X text 183 704 b1/2 (x pos);
#X obj 163 748 *~;
#X obj 183 781 -~;
#X text 217 666 pole position from coeffs:;
#X text 218 683 p=-b1/2+j*sqrt(b2-(b1/2)^2) (found somewhere on the
net...);
#X text 573 99 cookbook-like? (i cant remember where i got this from)
hp-filter;
#X obj 343 246 *~ 1.41421;
#X obj 341 194 -~;
#X obj 305 153 sig~ 1;
#X obj 346 95 inlet~;
#X obj 90 670 sig~ 0;
#X obj 73 646 sig~ 1;
#X text 49 624 zeros at fixed pos;
#X connect 0 0 40 0;
#X connect 2 0 9 0;
#X connect 6 0 8 1;
#X connect 7 0 15 0;
#X connect 7 0 16 0;
#X connect 7 0 16 1;
#X connect 7 0 27 0;
#X connect 8 0 7 0;
#X connect 9 0 8 0;
#X connect 11 0 12 0;
#X connect 11 0 13 0;
#X connect 12 0 26 0;
#X connect 12 0 31 0;
#X connect 12 0 40 1;
#X connect 13 0 12 1;
#X connect 14 0 13 1;
#X connect 15 0 14 0;
#X connect 16 0 14 1;
#X connect 16 0 22 0;
#X connect 16 0 32 1;
#X connect 22 0 25 0;
#X connect 23 0 22 1;
#X connect 25 0 26 1;
#X connect 26 0 41 0;
#X connect 27 0 30 1;
#X connect 29 0 30 0;
#X connect 30 0 32 0;
#X connect 31 0 45 0;
#X connect 32 0 31 1;
#X connect 34 0 35 0;
#X connect 34 1 35 1;
#X connect 35 0 36 0;
#X connect 35 1 36 1;
#X connect 36 0 37 0;
#X connect 36 1 37 1;
#X connect 37 0 1 0;
#X connect 38 0 37 3;
#X connect 39 0 36 3;
#X connect 39 0 38 0;
#X connect 40 0 34 0;
#X connect 41 0 36 2;
#X connect 41 0 37 2;
#X connect 41 0 44 0;
#X connect 41 0 44 1;
#X connect 44 0 45 1;
#X connect 45 0 39 0;
#X connect 49 0 15 1;
#X connect 49 0 27 1;
#X connect 50 0 49 0;
#X connect 51 0 50 0;
#X connect 52 0 50 1;
#X connect 53 0 35 3;
#X connect 53 0 34 3;
#X connect 54 0 34 2;
#X connect 54 0 35 2;
#X restore -89 529 pd hipass2p2z;
#N canvas 717 79 1076 1000 lopass2p2z 0;
#X obj -50 465 inlet~;
#X obj 129 919 outlet~;
#X obj 73 85 inlet~;
#X obj 87 200 sig~ 1;
#X obj 121 249 /~;
#X obj 219 59 samplerate~;
#X obj 110 376 sig~ 1;
#X obj 147 408 /~;
#X obj 214 340 +~;
#X obj 187 310 sig~ 1;
#X obj 251 318 *~;
#X obj 181 375 +~;
#X obj 112 295 *~;
#X text 41 361 a1/a3;
#X obj 222 407 sig~ 1;
#X obj 296 433 -~;
#X obj 299 457 *~ 2;
#X obj 286 506 *~;
#X obj 409 334 *~;
#X text 276 435 b1;
#X text 384 379 b2;
#X obj 361 397 sig~ 1;
#X obj 392 429 -~;
#X obj 377 512 *~;
#X text 99 246 c;
#X obj 397 462 +~;
#X obj 147 222 expr~ tan($v1);
#X obj 151 194 /~ 44100;
#X obj 129 153 *~ 3.14159;
#X text 408 73 resonance 0..1;
#X text 124 86 cutoff (hz);
#X text 420 186 a2= 2*a1 \, a3=a1;
#X text 420 150 c= 1/tan(pi*cutf/samplerate);
#X text 422 168 a1= 1/(1+res*c+c*c);
#X text 421 204 b1= 2*(1-c*c)*a1;
#X text 421 220 b2= (1-res*c+c*c)*a1;
#X obj 33 690 czero~;
#X obj 59 727 czero~;
#X obj 73 646 sig~ -1;
#X obj 90 670 sig~ 0;
#X obj 90 841 cpole~;
#X obj 129 888 cpole~;
#X obj 296 199 *~ 1.41421;
#X obj 307 148 -~;
#X obj 353 72 inlet~;
#X obj 279 94 sig~ 1;
#X text 28 627 zeros at fixed pos;
#X obj 178 840 *~ -1;
#X obj 184 805 expr~ sqrt($v1);
#X obj -44 595 *~;
#X obj 128 704 *~ -0.5;
#X text 219 845 2nd pole = 1st mirrored on the x axis;
#X text 183 704 b1/2 (x pos);
#X text 267 11 cookbook-like? (i cant remember where i got this from)
lp-filter;
#X obj 163 748 *~;
#X obj 183 781 -~;
#X text 217 666 pole position from coeffs:;
#X text 218 683 p=-b1/2+j*sqrt(b2-(b1/2)^2) (found somewhere on the
net...);
#X connect 0 0 49 0;
#X connect 2 0 28 0;
#X connect 3 0 4 0;
#X connect 4 0 10 0;
#X connect 4 0 12 0;
#X connect 4 0 12 1;
#X connect 4 0 18 0;
#X connect 5 0 27 1;
#X connect 6 0 7 0;
#X connect 7 0 17 1;
#X connect 7 0 23 0;
#X connect 7 0 49 1;
#X connect 8 0 11 1;
#X connect 9 0 8 0;
#X connect 10 0 8 1;
#X connect 11 0 7 1;
#X connect 12 0 11 0;
#X connect 12 0 15 1;
#X connect 12 0 25 1;
#X connect 14 0 15 0;
#X connect 15 0 16 0;
#X connect 16 0 17 0;
#X connect 17 0 50 0;
#X connect 18 0 22 1;
#X connect 21 0 22 0;
#X connect 22 0 25 0;
#X connect 23 0 55 0;
#X connect 25 0 23 1;
#X connect 26 0 4 1;
#X connect 27 0 26 0;
#X connect 28 0 27 0;
#X connect 36 0 37 0;
#X connect 36 1 37 1;
#X connect 37 0 40 0;
#X connect 37 1 40 1;
#X connect 38 0 36 2;
#X connect 38 0 37 2;
#X connect 39 0 37 3;
#X connect 39 0 36 3;
#X connect 40 0 41 0;
#X connect 40 1 41 1;
#X connect 41 0 1 0;
#X connect 42 0 10 1;
#X connect 42 0 18 1;
#X connect 43 0 42 0;
#X connect 44 0 43 1;
#X connect 45 0 43 0;
#X connect 47 0 41 3;
#X connect 48 0 40 3;
#X connect 48 0 47 0;
#X connect 49 0 36 0;
#X connect 50 0 40 2;
#X connect 50 0 41 2;
#X connect 50 0 54 0;
#X connect 50 0 54 1;
#X connect 54 0 55 1;
#X connect 55 0 48 0;
#X restore -99 463 pd lopass2p2z;
#N canvas 486 219 1076 837 hipass2p2z 0;
#X obj -47 497 inlet~;
#X obj 128 927 outlet~;
#X obj 105 93 inlet~;
#X text 401 96 resonance 0..1;
#X text 156 94 cutoff (hz);
#X text 572 141 c= tan(pi*cutf/samplerate);
#X obj 245 49 samplerate~;
#X obj 140 186 expr~ tan($v1);
#X obj 135 159 /~ 44100;
#X obj 108 128 *~ 3.14159;
#X text 91 160 c;
#X obj 143 285 sig~ 1;
#X obj 174 398 /~;
#X obj 210 362 +~;
#X obj 226 333 +~;
#X obj 270 268 *~;
#X obj 266 314 *~;
#X text 573 165 a1= 1/(1+res+c+c*c);
#X text 573 186 a2= -2*a1;
#X text 99 483 a2;
#X text 123 337 a1/a3;
#X text 574 205 b1= 2*(c*c-1)*a1;
#X obj 287 439 -~;
#X obj 310 417 sig~ 1;
#X text 256 428 b1;
#X obj 280 485 *~ 2;
#X obj 261 515 *~;
#X obj 417 339 *~;
#X text 384 379 b2;
#X obj 361 397 sig~ 1;
#X obj 392 429 -~;
#X obj 377 512 *~;
#X obj 394 472 +~;
#X text 573 221 b2= (1-res*c+c*c)*a1;
#X obj 33 690 czero~;
#X obj 59 727 czero~;
#X obj 90 841 cpole~;
#X obj 129 888 cpole~;
#X obj 178 840 *~ -1;
#X obj 184 805 expr~ sqrt($v1);
#X obj -44 595 *~;
#X obj 128 704 *~ -0.5;
#X text 219 845 2nd pole = 1st mirrored on the x axis;
#X text 183 704 b1/2 (x pos);
#X obj 163 748 *~;
#X obj 183 781 -~;
#X text 217 666 pole position from coeffs:;
#X text 218 683 p=-b1/2+j*sqrt(b2-(b1/2)^2) (found somewhere on the
net...);
#X text 573 99 cookbook-like? (i cant remember where i got this from)
hp-filter;
#X obj 343 246 *~ 1.41421;
#X obj 341 194 -~;
#X obj 305 153 sig~ 1;
#X obj 346 95 inlet~;
#X obj 90 670 sig~ 0;
#X obj 73 646 sig~ 1;
#X text 49 624 zeros at fixed pos;
#X connect 0 0 40 0;
#X connect 2 0 9 0;
#X connect 6 0 8 1;
#X connect 7 0 15 0;
#X connect 7 0 16 0;
#X connect 7 0 16 1;
#X connect 7 0 27 0;
#X connect 8 0 7 0;
#X connect 9 0 8 0;
#X connect 11 0 12 0;
#X connect 11 0 13 0;
#X connect 12 0 26 0;
#X connect 12 0 31 0;
#X connect 12 0 40 1;
#X connect 13 0 12 1;
#X connect 14 0 13 1;
#X connect 15 0 14 0;
#X connect 16 0 14 1;
#X connect 16 0 22 0;
#X connect 16 0 32 1;
#X connect 22 0 25 0;
#X connect 23 0 22 1;
#X connect 25 0 26 1;
#X connect 26 0 41 0;
#X connect 27 0 30 1;
#X connect 29 0 30 0;
#X connect 30 0 32 0;
#X connect 31 0 45 0;
#X connect 32 0 31 1;
#X connect 34 0 35 0;
#X connect 34 1 35 1;
#X connect 35 0 36 0;
#X connect 35 1 36 1;
#X connect 36 0 37 0;
#X connect 36 1 37 1;
#X connect 37 0 1 0;
#X connect 38 0 37 3;
#X connect 39 0 36 3;
#X connect 39 0 38 0;
#X connect 40 0 34 0;
#X connect 41 0 36 2;
#X connect 41 0 37 2;
#X connect 41 0 44 0;
#X connect 41 0 44 1;
#X connect 44 0 45 1;
#X connect 45 0 39 0;
#X connect 49 0 15 1;
#X connect 49 0 27 1;
#X connect 50 0 49 0;
#X connect 51 0 50 0;
#X connect 52 0 50 1;
#X connect 53 0 35 3;
#X connect 53 0 34 3;
#X connect 54 0 34 2;
#X connect 54 0 35 2;
#X restore -71 560 pd hipass2p2z;
#X connect 0 0 11 0;
#X connect 2 0 8 0;
#X connect 3 0 6 0;
#X connect 5 0 11 2;
#X connect 5 0 12 2;
#X connect 5 0 13 2;
#X connect 5 0 14 2;
#X connect 5 0 17 2;
#X connect 5 0 19 2;
#X connect 5 0 18 2;
#X connect 5 0 20 2;
#X connect 6 0 9 0;
#X connect 7 0 6 1;
#X connect 7 0 8 1;
#X connect 8 0 10 0;
#X connect 9 0 11 1;
#X connect 9 0 13 1;
#X connect 9 0 17 1;
#X connect 9 0 19 1;
#X connect 10 0 12 1;
#X connect 10 0 14 1;
#X connect 10 0 18 1;
#X connect 10 0 20 1;
#X connect 11 0 13 0;
#X connect 12 0 14 0;
#X connect 13 0 12 0;
#X connect 14 0 1 0;
#X connect 15 0 17 0;
#X connect 17 0 19 0;
#X connect 18 0 20 0;
#X connect 19 0 18 0;
#X connect 20 0 16 0;
#X coords 0 -1 1 1 110 50 1 100 100;
#X restore 254 -47 pd lp_hp_bp4p;
#N canvas 302 265 649 492 mbtdly1 0;
#X obj -186 117 inlet~;
#X obj 231 69 inlet;
#X obj 130 140 pow -1;
#X obj 151 178 / 4;
#X obj 182 207 *;
#X obj 164 243 * 60000;
#X obj 19 20 hsl 96 8 0 0.95 0 1 empty empty fb -16 5 0 8 -262144 -1
-1 7700 1;
#X obj 81 3 nbx 3 14 0 32 0 1 empty empty empty 0 -8 0 10 -262144 -1
-1 3 256;
#X text 268 70 <- bpm in;
#X obj 100 111 float;
#X obj 110 44 t b f;
#X text 200 7 beatsynced delay with feedback and mod;
#X obj -64 96 inlet~;
#X obj 59 363 abs_moddelayline1;
#X obj 79 322 +~;
#X obj -28 177 *~ 300;
#X obj 19 29 hsl 96 8 0 1 0 1 empty empty dw -17 5 0 10 -262144 -1
-1 3300 1;
#X obj 120 537 outlet~;
#X obj 119 516 +~;
#X obj 148 455 *~;
#X obj 70 482 *~;
#X obj 86 434 * -1;
#X obj 86 458 + 1;
#X connect 0 0 13 0;
#X connect 0 0 20 0;
#X connect 1 0 9 0;
#X connect 2 0 3 0;
#X connect 3 0 4 0;
#X connect 4 0 5 0;
#X connect 5 0 14 1;
#X connect 6 0 13 2;
#X connect 7 0 10 0;
#X connect 9 0 2 0;
#X connect 10 0 9 0;
#X connect 10 1 4 1;
#X connect 12 0 15 0;
#X connect 13 0 19 0;
#X connect 14 0 13 1;
#X connect 15 0 14 0;
#X connect 16 0 21 0;
#X connect 16 0 19 1;
#X connect 18 0 17 0;
#X connect 19 0 18 1;
#X connect 20 0 18 0;
#X connect 21 0 22 0;
#X connect 22 0 20 1;
#X coords 0 -1 1 1 120 40 1 0 0;
#X restore 455 9 pd mbtdly1;
#N canvas 296 268 649 492 mbtdly1s 0;
#X obj -186 117 inlet~;
#X obj 231 69 inlet;
#X obj 130 140 pow -1;
#X obj 151 178 / 4;
#X obj 182 207 *;
#X obj 164 243 * 60000;
#X obj 19 20 hsl 96 8 0 0.95 0 1 empty empty fb -16 5 0 8 -262144 -1
-1 7700 1;
#X obj 81 3 nbx 3 14 0 32 0 1 empty empty empty 0 -8 0 10 -262144 -1
-1 3 256;
#X text 268 70 <- bpm in;
#X obj 100 111 float;
#X obj 110 44 t b f;
#X text 200 7 beatsynced delay with feedback and mod;
#X obj -35 136 inlet~;
#X obj 59 363 abs_moddelayline1;
#X obj 58 297 +~;
#X obj -306 120 inlet~;
#X obj -61 366 abs_moddelayline1;
#X obj -28 177 *~ 300;
#X obj -71 536 outlet~;
#X obj 19 29 hsl 96 8 0 1 0 1 empty empty dw -17 5 0 10 -262144 -1
-1 3300 1;
#X obj -62 512 +~;
#X obj -40 482 *~;
#X obj -111 478 *~;
#X obj -95 430 * -1;
#X obj -95 454 + 1;
#X text -45 433 simple crossfader (or dry/wet slider);
#X obj 110 553 outlet~;
#X obj 109 532 +~;
#X obj 131 502 *~;
#X obj 60 498 *~;
#X obj 76 450 * -1;
#X obj 76 474 + 1;
#X connect 0 0 13 0;
#X connect 0 0 29 0;
#X connect 1 0 9 0;
#X connect 2 0 3 0;
#X connect 3 0 4 0;
#X connect 4 0 5 0;
#X connect 5 0 14 1;
#X connect 6 0 13 2;
#X connect 6 0 16 2;
#X connect 7 0 10 0;
#X connect 9 0 2 0;
#X connect 10 0 9 0;
#X connect 10 1 4 1;
#X connect 12 0 17 0;
#X connect 13 0 28 0;
#X connect 14 0 13 1;
#X connect 14 0 16 1;
#X connect 15 0 16 0;
#X connect 15 0 22 0;
#X connect 16 0 21 0;
#X connect 17 0 14 0;
#X connect 19 0 23 0;
#X connect 19 0 21 1;
#X connect 19 0 30 0;
#X connect 19 0 28 1;
#X connect 20 0 18 0;
#X connect 21 0 20 1;
#X connect 22 0 20 0;
#X connect 23 0 24 0;
#X connect 24 0 22 1;
#X connect 27 0 26 0;
#X connect 28 0 27 1;
#X connect 29 0 27 0;
#X connect 30 0 31 0;
#X connect 31 0 29 1;
#X coords 0 -1 1 1 120 40 1 0 0;
#X restore 619 16 pd mbtdly1s;
#N canvas 89 372 597 672 lp_hp_bp4p 0;
#X obj -6 98 inlet~;
#X obj 27 579 outlet~;
#X obj 106 115 hsl 96 8 5 22500 1 1 empty empty empty -2 -8 0 10 -262144
-1 -1 0 1;
#X obj 106 126 hsl 96 8 5 22500 1 1 empty empty empty -2 -8 0 10 -262144
-1 -1 9500 1;
#X text 338 42 frequency mod (hz);
#X obj 106 139 hsl 96 8 0.01 1 1 1 empty empty empty -2 -8 0 10 -204800
-1 -1 0 1;
#X obj 155 331 +~;
#X obj 298 42 inlet~;
#X obj 139 420 +~;
#X obj 147 360 clip~ 1 20000;
#X obj 136 443 clip~ 1 20000;
#N canvas 717 79 1076 1000 lopass2p2z 0;
#X obj -50 465 inlet~;
#X obj 129 919 outlet~;
#X obj 73 85 inlet~;
#X obj 87 200 sig~ 1;
#X obj 121 249 /~;
#X obj 219 59 samplerate~;
#X obj 110 376 sig~ 1;
#X obj 147 408 /~;
#X obj 214 340 +~;
#X obj 187 310 sig~ 1;
#X obj 251 318 *~;
#X obj 181 375 +~;
#X obj 112 295 *~;
#X text 41 361 a1/a3;
#X obj 222 407 sig~ 1;
#X obj 296 433 -~;
#X obj 299 457 *~ 2;
#X obj 286 506 *~;
#X obj 409 334 *~;
#X text 276 435 b1;
#X text 384 379 b2;
#X obj 361 397 sig~ 1;
#X obj 392 429 -~;
#X obj 377 512 *~;
#X text 99 246 c;
#X obj 397 462 +~;
#X obj 147 222 expr~ tan($v1);
#X obj 151 194 /~ 44100;
#X obj 129 153 *~ 3.14159;
#X text 408 73 resonance 0..1;
#X text 124 86 cutoff (hz);
#X text 420 186 a2= 2*a1 \, a3=a1;
#X text 420 150 c= 1/tan(pi*cutf/samplerate);
#X text 422 168 a1= 1/(1+res*c+c*c);
#X text 421 204 b1= 2*(1-c*c)*a1;
#X text 421 220 b2= (1-res*c+c*c)*a1;
#X obj 33 690 czero~;
#X obj 59 727 czero~;
#X obj 73 646 sig~ -1;
#X obj 90 670 sig~ 0;
#X obj 90 841 cpole~;
#X obj 129 888 cpole~;
#X obj 296 199 *~ 1.41421;
#X obj 307 148 -~;
#X obj 353 72 inlet~;
#X obj 279 94 sig~ 1;
#X text 28 627 zeros at fixed pos;
#X obj 178 840 *~ -1;
#X obj 184 805 expr~ sqrt($v1);
#X obj -44 595 *~;
#X obj 128 704 *~ -0.5;
#X text 219 845 2nd pole = 1st mirrored on the x axis;
#X text 183 704 b1/2 (x pos);
#X text 267 11 cookbook-like? (i cant remember where i got this from)
lp-filter;
#X obj 163 748 *~;
#X obj 183 781 -~;
#X text 217 666 pole position from coeffs:;
#X text 218 683 p=-b1/2+j*sqrt(b2-(b1/2)^2) (found somewhere on the
net...);
#X connect 0 0 49 0;
#X connect 2 0 28 0;
#X connect 3 0 4 0;
#X connect 4 0 10 0;
#X connect 4 0 12 0;
#X connect 4 0 12 1;
#X connect 4 0 18 0;
#X connect 5 0 27 1;
#X connect 6 0 7 0;
#X connect 7 0 17 1;
#X connect 7 0 23 0;
#X connect 7 0 49 1;
#X connect 8 0 11 1;
#X connect 9 0 8 0;
#X connect 10 0 8 1;
#X connect 11 0 7 1;
#X connect 12 0 11 0;
#X connect 12 0 15 1;
#X connect 12 0 25 1;
#X connect 14 0 15 0;
#X connect 15 0 16 0;
#X connect 16 0 17 0;
#X connect 17 0 50 0;
#X connect 18 0 22 1;
#X connect 21 0 22 0;
#X connect 22 0 25 0;
#X connect 23 0 55 0;
#X connect 25 0 23 1;
#X connect 26 0 4 1;
#X connect 27 0 26 0;
#X connect 28 0 27 0;
#X connect 36 0 37 0;
#X connect 36 1 37 1;
#X connect 37 0 40 0;
#X connect 37 1 40 1;
#X connect 38 0 36 2;
#X connect 38 0 37 2;
#X connect 39 0 37 3;
#X connect 39 0 36 3;
#X connect 40 0 41 0;
#X connect 40 1 41 1;
#X connect 41 0 1 0;
#X connect 42 0 10 1;
#X connect 42 0 18 1;
#X connect 43 0 42 0;
#X connect 44 0 43 1;
#X connect 45 0 43 0;
#X connect 47 0 41 3;
#X connect 48 0 40 3;
#X connect 48 0 47 0;
#X connect 49 0 36 0;
#X connect 50 0 40 2;
#X connect 50 0 41 2;
#X connect 50 0 54 0;
#X connect 50 0 54 1;
#X connect 54 0 55 1;
#X connect 55 0 48 0;
#X restore 24 409 pd lopass2p2z;
#N canvas 486 219 1076 837 hipass2p2z 0;
#X obj -47 497 inlet~;
#X obj 128 927 outlet~;
#X obj 105 93 inlet~;
#X text 401 96 resonance 0..1;
#X text 156 94 cutoff (hz);
#X text 572 141 c= tan(pi*cutf/samplerate);
#X obj 245 49 samplerate~;
#X obj 140 186 expr~ tan($v1);
#X obj 135 159 /~ 44100;
#X obj 108 128 *~ 3.14159;
#X text 91 160 c;
#X obj 143 285 sig~ 1;
#X obj 174 398 /~;
#X obj 210 362 +~;
#X obj 226 333 +~;
#X obj 270 268 *~;
#X obj 266 314 *~;
#X text 573 165 a1= 1/(1+res+c+c*c);
#X text 573 186 a2= -2*a1;
#X text 99 483 a2;
#X text 123 337 a1/a3;
#X text 574 205 b1= 2*(c*c-1)*a1;
#X obj 287 439 -~;
#X obj 310 417 sig~ 1;
#X text 256 428 b1;
#X obj 280 485 *~ 2;
#X obj 261 515 *~;
#X obj 417 339 *~;
#X text 384 379 b2;
#X obj 361 397 sig~ 1;
#X obj 392 429 -~;
#X obj 377 512 *~;
#X obj 394 472 +~;
#X text 573 221 b2= (1-res*c+c*c)*a1;
#X obj 33 690 czero~;
#X obj 59 727 czero~;
#X obj 90 841 cpole~;
#X obj 129 888 cpole~;
#X obj 178 840 *~ -1;
#X obj 184 805 expr~ sqrt($v1);
#X obj -44 595 *~;
#X obj 128 704 *~ -0.5;
#X text 219 845 2nd pole = 1st mirrored on the x axis;
#X text 183 704 b1/2 (x pos);
#X obj 163 748 *~;
#X obj 183 781 -~;
#X text 217 666 pole position from coeffs:;
#X text 218 683 p=-b1/2+j*sqrt(b2-(b1/2)^2) (found somewhere on the
net...);
#X text 573 99 cookbook-like? (i cant remember where i got this from)
hp-filter;
#X obj 343 246 *~ 1.41421;
#X obj 341 194 -~;
#X obj 305 153 sig~ 1;
#X obj 346 95 inlet~;
#X obj 90 670 sig~ 0;
#X obj 73 646 sig~ 1;
#X text 49 624 zeros at fixed pos;
#X connect 0 0 40 0;
#X connect 2 0 9 0;
#X connect 6 0 8 1;
#X connect 7 0 15 0;
#X connect 7 0 16 0;
#X connect 7 0 16 1;
#X connect 7 0 27 0;
#X connect 8 0 7 0;
#X connect 9 0 8 0;
#X connect 11 0 12 0;
#X connect 11 0 13 0;
#X connect 12 0 26 0;
#X connect 12 0 31 0;
#X connect 12 0 40 1;
#X connect 13 0 12 1;
#X connect 14 0 13 1;
#X connect 15 0 14 0;
#X connect 16 0 14 1;
#X connect 16 0 22 0;
#X connect 16 0 32 1;
#X connect 22 0 25 0;
#X connect 23 0 22 1;
#X connect 25 0 26 1;
#X connect 26 0 41 0;
#X connect 27 0 30 1;
#X connect 29 0 30 0;
#X connect 30 0 32 0;
#X connect 31 0 45 0;
#X connect 32 0 31 1;
#X connect 34 0 35 0;
#X connect 34 1 35 1;
#X connect 35 0 36 0;
#X connect 35 1 36 1;
#X connect 36 0 37 0;
#X connect 36 1 37 1;
#X connect 37 0 1 0;
#X connect 38 0 37 3;
#X connect 39 0 36 3;
#X connect 39 0 38 0;
#X connect 40 0 34 0;
#X connect 41 0 36 2;
#X connect 41 0 37 2;
#X connect 41 0 44 0;
#X connect 41 0 44 1;
#X connect 44 0 45 1;
#X connect 45 0 39 0;
#X connect 49 0 15 1;
#X connect 49 0 27 1;
#X connect 50 0 49 0;
#X connect 51 0 50 0;
#X connect 52 0 50 1;
#X connect 53 0 35 3;
#X connect 53 0 34 3;
#X connect 54 0 34 2;
#X connect 54 0 35 2;
#X restore 41 499 pd hipass2p2z;
#N canvas 717 79 1076 1000 lopass2p2z 0;
#X obj -50 465 inlet~;
#X obj 129 919 outlet~;
#X obj 73 85 inlet~;
#X obj 87 200 sig~ 1;
#X obj 121 249 /~;
#X obj 219 59 samplerate~;
#X obj 110 376 sig~ 1;
#X obj 147 408 /~;
#X obj 214 340 +~;
#X obj 187 310 sig~ 1;
#X obj 251 318 *~;
#X obj 181 375 +~;
#X obj 112 295 *~;
#X text 41 361 a1/a3;
#X obj 222 407 sig~ 1;
#X obj 296 433 -~;
#X obj 299 457 *~ 2;
#X obj 286 506 *~;
#X obj 409 334 *~;
#X text 276 435 b1;
#X text 384 379 b2;
#X obj 361 397 sig~ 1;
#X obj 392 429 -~;
#X obj 377 512 *~;
#X text 99 246 c;
#X obj 397 462 +~;
#X obj 147 222 expr~ tan($v1);
#X obj 151 194 /~ 44100;
#X obj 129 153 *~ 3.14159;
#X text 408 73 resonance 0..1;
#X text 124 86 cutoff (hz);
#X text 420 186 a2= 2*a1 \, a3=a1;
#X text 420 150 c= 1/tan(pi*cutf/samplerate);
#X text 422 168 a1= 1/(1+res*c+c*c);
#X text 421 204 b1= 2*(1-c*c)*a1;
#X text 421 220 b2= (1-res*c+c*c)*a1;
#X obj 33 690 czero~;
#X obj 59 727 czero~;
#X obj 73 646 sig~ -1;
#X obj 90 670 sig~ 0;
#X obj 90 841 cpole~;
#X obj 129 888 cpole~;
#X obj 296 199 *~ 1.41421;
#X obj 307 148 -~;
#X obj 353 72 inlet~;
#X obj 279 94 sig~ 1;
#X text 28 627 zeros at fixed pos;
#X obj 178 840 *~ -1;
#X obj 184 805 expr~ sqrt($v1);
#X obj -44 595 *~;
#X obj 128 704 *~ -0.5;
#X text 219 845 2nd pole = 1st mirrored on the x axis;
#X text 183 704 b1/2 (x pos);
#X text 267 11 cookbook-like? (i cant remember where i got this from)
lp-filter;
#X obj 163 748 *~;
#X obj 183 781 -~;
#X text 217 666 pole position from coeffs:;
#X text 218 683 p=-b1/2+j*sqrt(b2-(b1/2)^2) (found somewhere on the
net...);
#X connect 0 0 49 0;
#X connect 2 0 28 0;
#X connect 3 0 4 0;
#X connect 4 0 10 0;
#X connect 4 0 12 0;
#X connect 4 0 12 1;
#X connect 4 0 18 0;
#X connect 5 0 27 1;
#X connect 6 0 7 0;
#X connect 7 0 17 1;
#X connect 7 0 23 0;
#X connect 7 0 49 1;
#X connect 8 0 11 1;
#X connect 9 0 8 0;
#X connect 10 0 8 1;
#X connect 11 0 7 1;
#X connect 12 0 11 0;
#X connect 12 0 15 1;
#X connect 12 0 25 1;
#X connect 14 0 15 0;
#X connect 15 0 16 0;
#X connect 16 0 17 0;
#X connect 17 0 50 0;
#X connect 18 0 22 1;
#X connect 21 0 22 0;
#X connect 22 0 25 0;
#X connect 23 0 55 0;
#X connect 25 0 23 1;
#X connect 26 0 4 1;
#X connect 27 0 26 0;
#X connect 28 0 27 0;
#X connect 36 0 37 0;
#X connect 36 1 37 1;
#X connect 37 0 40 0;
#X connect 37 1 40 1;
#X connect 38 0 36 2;
#X connect 38 0 37 2;
#X connect 39 0 37 3;
#X connect 39 0 36 3;
#X connect 40 0 41 0;
#X connect 40 1 41 1;
#X connect 41 0 1 0;
#X connect 42 0 10 1;
#X connect 42 0 18 1;
#X connect 43 0 42 0;
#X connect 44 0 43 1;
#X connect 45 0 43 0;
#X connect 47 0 41 3;
#X connect 48 0 40 3;
#X connect 48 0 47 0;
#X connect 49 0 36 0;
#X connect 50 0 40 2;
#X connect 50 0 41 2;
#X connect 50 0 54 0;
#X connect 50 0 54 1;
#X connect 54 0 55 1;
#X connect 55 0 48 0;
#X restore 31 433 pd lopass2p2z;
#N canvas 486 219 1076 837 hipass2p2z 0;
#X obj -47 497 inlet~;
#X obj 128 927 outlet~;
#X obj 105 93 inlet~;
#X text 401 96 resonance 0..1;
#X text 156 94 cutoff (hz);
#X text 572 141 c= tan(pi*cutf/samplerate);
#X obj 245 49 samplerate~;
#X obj 140 186 expr~ tan($v1);
#X obj 135 159 /~ 44100;
#X obj 108 128 *~ 3.14159;
#X text 91 160 c;
#X obj 143 285 sig~ 1;
#X obj 174 398 /~;
#X obj 210 362 +~;
#X obj 226 333 +~;
#X obj 270 268 *~;
#X obj 266 314 *~;
#X text 573 165 a1= 1/(1+res+c+c*c);
#X text 573 186 a2= -2*a1;
#X text 99 483 a2;
#X text 123 337 a1/a3;
#X text 574 205 b1= 2*(c*c-1)*a1;
#X obj 287 439 -~;
#X obj 310 417 sig~ 1;
#X text 256 428 b1;
#X obj 280 485 *~ 2;
#X obj 261 515 *~;
#X obj 417 339 *~;
#X text 384 379 b2;
#X obj 361 397 sig~ 1;
#X obj 392 429 -~;
#X obj 377 512 *~;
#X obj 394 472 +~;
#X text 573 221 b2= (1-res*c+c*c)*a1;
#X obj 33 690 czero~;
#X obj 59 727 czero~;
#X obj 90 841 cpole~;
#X obj 129 888 cpole~;
#X obj 178 840 *~ -1;
#X obj 184 805 expr~ sqrt($v1);
#X obj -44 595 *~;
#X obj 128 704 *~ -0.5;
#X text 219 845 2nd pole = 1st mirrored on the x axis;
#X text 183 704 b1/2 (x pos);
#X obj 163 748 *~;
#X obj 183 781 -~;
#X text 217 666 pole position from coeffs:;
#X text 218 683 p=-b1/2+j*sqrt(b2-(b1/2)^2) (found somewhere on the
net...);
#X text 573 99 cookbook-like? (i cant remember where i got this from)
hp-filter;
#X obj 343 246 *~ 1.41421;
#X obj 341 194 -~;
#X obj 305 153 sig~ 1;
#X obj 346 95 inlet~;
#X obj 90 670 sig~ 0;
#X obj 73 646 sig~ 1;
#X text 49 624 zeros at fixed pos;
#X connect 0 0 40 0;
#X connect 2 0 9 0;
#X connect 6 0 8 1;
#X connect 7 0 15 0;
#X connect 7 0 16 0;
#X connect 7 0 16 1;
#X connect 7 0 27 0;
#X connect 8 0 7 0;
#X connect 9 0 8 0;
#X connect 11 0 12 0;
#X connect 11 0 13 0;
#X connect 12 0 26 0;
#X connect 12 0 31 0;
#X connect 12 0 40 1;
#X connect 13 0 12 1;
#X connect 14 0 13 1;
#X connect 15 0 14 0;
#X connect 16 0 14 1;
#X connect 16 0 22 0;
#X connect 16 0 32 1;
#X connect 22 0 25 0;
#X connect 23 0 22 1;
#X connect 25 0 26 1;
#X connect 26 0 41 0;
#X connect 27 0 30 1;
#X connect 29 0 30 0;
#X connect 30 0 32 0;
#X connect 31 0 45 0;
#X connect 32 0 31 1;
#X connect 34 0 35 0;
#X connect 34 1 35 1;
#X connect 35 0 36 0;
#X connect 35 1 36 1;
#X connect 36 0 37 0;
#X connect 36 1 37 1;
#X connect 37 0 1 0;
#X connect 38 0 37 3;
#X connect 39 0 36 3;
#X connect 39 0 38 0;
#X connect 40 0 34 0;
#X connect 41 0 36 2;
#X connect 41 0 37 2;
#X connect 41 0 44 0;
#X connect 41 0 44 1;
#X connect 44 0 45 1;
#X connect 45 0 39 0;
#X connect 49 0 15 1;
#X connect 49 0 27 1;
#X connect 50 0 49 0;
#X connect 51 0 50 0;
#X connect 52 0 50 1;
#X connect 53 0 35 3;
#X connect 53 0 34 3;
#X connect 54 0 34 2;
#X connect 54 0 35 2;
#X restore 59 530 pd hipass2p2z;
#X connect 0 0 11 0;
#X connect 2 0 8 0;
#X connect 3 0 6 0;
#X connect 5 0 11 2;
#X connect 5 0 12 2;
#X connect 5 0 13 2;
#X connect 5 0 14 2;
#X connect 6 0 9 0;
#X connect 7 0 6 1;
#X connect 7 0 8 1;
#X connect 8 0 10 0;
#X connect 9 0 11 1;
#X connect 9 0 13 1;
#X connect 10 0 12 1;
#X connect 10 0 14 1;
#X connect 11 0 13 0;
#X connect 12 0 14 0;
#X connect 13 0 12 0;
#X connect 14 0 1 0;
#X coords 0 -1 1 1 110 50 1 100 100;
#X restore 460 -49 pd lp_hp_bp4p;
#N canvas 87 373 597 672 lp_hp_bp4p 0;
#X obj -6 98 inlet~;
#X obj 27 579 outlet~;
#X obj 106 115 hsl 96 8 5 22500 1 1 empty empty empty -2 -8 0 10 -262144
-1 -1 0 1;
#X obj 106 126 hsl 96 8 5 22500 1 1 empty empty empty -2 -8 0 10 -262144
-1 -1 9500 1;
#X text 338 42 frequency mod (hz);
#X obj 106 139 hsl 96 8 0.01 1 1 1 empty empty empty -2 -8 0 10 -204800
-1 -1 0 1;
#X obj 155 331 +~;
#X obj 298 42 inlet~;
#X obj 139 420 +~;
#X obj 147 360 clip~ 1 20000;
#X obj 136 443 clip~ 1 20000;
#N canvas 717 79 1076 1000 lopass2p2z 0;
#X obj -50 465 inlet~;
#X obj 129 919 outlet~;
#X obj 73 85 inlet~;
#X obj 87 200 sig~ 1;
#X obj 121 249 /~;
#X obj 219 59 samplerate~;
#X obj 110 376 sig~ 1;
#X obj 147 408 /~;
#X obj 214 340 +~;
#X obj 187 310 sig~ 1;
#X obj 251 318 *~;
#X obj 181 375 +~;
#X obj 112 295 *~;
#X text 41 361 a1/a3;
#X obj 222 407 sig~ 1;
#X obj 296 433 -~;
#X obj 299 457 *~ 2;
#X obj 286 506 *~;
#X obj 409 334 *~;
#X text 276 435 b1;
#X text 384 379 b2;
#X obj 361 397 sig~ 1;
#X obj 392 429 -~;
#X obj 377 512 *~;
#X text 99 246 c;
#X obj 397 462 +~;
#X obj 147 222 expr~ tan($v1);
#X obj 151 194 /~ 44100;
#X obj 129 153 *~ 3.14159;
#X text 408 73 resonance 0..1;
#X text 124 86 cutoff (hz);
#X text 420 186 a2= 2*a1 \, a3=a1;
#X text 420 150 c= 1/tan(pi*cutf/samplerate);
#X text 422 168 a1= 1/(1+res*c+c*c);
#X text 421 204 b1= 2*(1-c*c)*a1;
#X text 421 220 b2= (1-res*c+c*c)*a1;
#X obj 33 690 czero~;
#X obj 59 727 czero~;
#X obj 73 646 sig~ -1;
#X obj 90 670 sig~ 0;
#X obj 90 841 cpole~;
#X obj 129 888 cpole~;
#X obj 296 199 *~ 1.41421;
#X obj 307 148 -~;
#X obj 353 72 inlet~;
#X obj 279 94 sig~ 1;
#X text 28 627 zeros at fixed pos;
#X obj 178 840 *~ -1;
#X obj 184 805 expr~ sqrt($v1);
#X obj -44 595 *~;
#X obj 128 704 *~ -0.5;
#X text 219 845 2nd pole = 1st mirrored on the x axis;
#X text 183 704 b1/2 (x pos);
#X text 267 11 cookbook-like? (i cant remember where i got this from)
lp-filter;
#X obj 163 748 *~;
#X obj 183 781 -~;
#X text 217 666 pole position from coeffs:;
#X text 218 683 p=-b1/2+j*sqrt(b2-(b1/2)^2) (found somewhere on the
net...);
#X connect 0 0 49 0;
#X connect 2 0 28 0;
#X connect 3 0 4 0;
#X connect 4 0 10 0;
#X connect 4 0 12 0;
#X connect 4 0 12 1;
#X connect 4 0 18 0;
#X connect 5 0 27 1;
#X connect 6 0 7 0;
#X connect 7 0 17 1;
#X connect 7 0 23 0;
#X connect 7 0 49 1;
#X connect 8 0 11 1;
#X connect 9 0 8 0;
#X connect 10 0 8 1;
#X connect 11 0 7 1;
#X connect 12 0 11 0;
#X connect 12 0 15 1;
#X connect 12 0 25 1;
#X connect 14 0 15 0;
#X connect 15 0 16 0;
#X connect 16 0 17 0;
#X connect 17 0 50 0;
#X connect 18 0 22 1;
#X connect 21 0 22 0;
#X connect 22 0 25 0;
#X connect 23 0 55 0;
#X connect 25 0 23 1;
#X connect 26 0 4 1;
#X connect 27 0 26 0;
#X connect 28 0 27 0;
#X connect 36 0 37 0;
#X connect 36 1 37 1;
#X connect 37 0 40 0;
#X connect 37 1 40 1;
#X connect 38 0 36 2;
#X connect 38 0 37 2;
#X connect 39 0 37 3;
#X connect 39 0 36 3;
#X connect 40 0 41 0;
#X connect 40 1 41 1;
#X connect 41 0 1 0;
#X connect 42 0 10 1;
#X connect 42 0 18 1;
#X connect 43 0 42 0;
#X connect 44 0 43 1;
#X connect 45 0 43 0;
#X connect 47 0 41 3;
#X connect 48 0 40 3;
#X connect 48 0 47 0;
#X connect 49 0 36 0;
#X connect 50 0 40 2;
#X connect 50 0 41 2;
#X connect 50 0 54 0;
#X connect 50 0 54 1;
#X connect 54 0 55 1;
#X connect 55 0 48 0;
#X restore 24 409 pd lopass2p2z;
#N canvas 486 219 1076 837 hipass2p2z 0;
#X obj -47 497 inlet~;
#X obj 128 927 outlet~;
#X obj 105 93 inlet~;
#X text 401 96 resonance 0..1;
#X text 156 94 cutoff (hz);
#X text 572 141 c= tan(pi*cutf/samplerate);
#X obj 245 49 samplerate~;
#X obj 140 186 expr~ tan($v1);
#X obj 135 159 /~ 44100;
#X obj 108 128 *~ 3.14159;
#X text 91 160 c;
#X obj 143 285 sig~ 1;
#X obj 174 398 /~;
#X obj 210 362 +~;
#X obj 226 333 +~;
#X obj 270 268 *~;
#X obj 266 314 *~;
#X text 573 165 a1= 1/(1+res+c+c*c);
#X text 573 186 a2= -2*a1;
#X text 99 483 a2;
#X text 123 337 a1/a3;
#X text 574 205 b1= 2*(c*c-1)*a1;
#X obj 287 439 -~;
#X obj 310 417 sig~ 1;
#X text 256 428 b1;
#X obj 280 485 *~ 2;
#X obj 261 515 *~;
#X obj 417 339 *~;
#X text 384 379 b2;
#X obj 361 397 sig~ 1;
#X obj 392 429 -~;
#X obj 377 512 *~;
#X obj 394 472 +~;
#X text 573 221 b2= (1-res*c+c*c)*a1;
#X obj 33 690 czero~;
#X obj 59 727 czero~;
#X obj 90 841 cpole~;
#X obj 129 888 cpole~;
#X obj 178 840 *~ -1;
#X obj 184 805 expr~ sqrt($v1);
#X obj -44 595 *~;
#X obj 128 704 *~ -0.5;
#X text 219 845 2nd pole = 1st mirrored on the x axis;
#X text 183 704 b1/2 (x pos);
#X obj 163 748 *~;
#X obj 183 781 -~;
#X text 217 666 pole position from coeffs:;
#X text 218 683 p=-b1/2+j*sqrt(b2-(b1/2)^2) (found somewhere on the
net...);
#X text 573 99 cookbook-like? (i cant remember where i got this from)
hp-filter;
#X obj 343 246 *~ 1.41421;
#X obj 341 194 -~;
#X obj 305 153 sig~ 1;
#X obj 346 95 inlet~;
#X obj 90 670 sig~ 0;
#X obj 73 646 sig~ 1;
#X text 49 624 zeros at fixed pos;
#X connect 0 0 40 0;
#X connect 2 0 9 0;
#X connect 6 0 8 1;
#X connect 7 0 15 0;
#X connect 7 0 16 0;
#X connect 7 0 16 1;
#X connect 7 0 27 0;
#X connect 8 0 7 0;
#X connect 9 0 8 0;
#X connect 11 0 12 0;
#X connect 11 0 13 0;
#X connect 12 0 26 0;
#X connect 12 0 31 0;
#X connect 12 0 40 1;
#X connect 13 0 12 1;
#X connect 14 0 13 1;
#X connect 15 0 14 0;
#X connect 16 0 14 1;
#X connect 16 0 22 0;
#X connect 16 0 32 1;
#X connect 22 0 25 0;
#X connect 23 0 22 1;
#X connect 25 0 26 1;
#X connect 26 0 41 0;
#X connect 27 0 30 1;
#X connect 29 0 30 0;
#X connect 30 0 32 0;
#X connect 31 0 45 0;
#X connect 32 0 31 1;
#X connect 34 0 35 0;
#X connect 34 1 35 1;
#X connect 35 0 36 0;
#X connect 35 1 36 1;
#X connect 36 0 37 0;
#X connect 36 1 37 1;
#X connect 37 0 1 0;
#X connect 38 0 37 3;
#X connect 39 0 36 3;
#X connect 39 0 38 0;
#X connect 40 0 34 0;
#X connect 41 0 36 2;
#X connect 41 0 37 2;
#X connect 41 0 44 0;
#X connect 41 0 44 1;
#X connect 44 0 45 1;
#X connect 45 0 39 0;
#X connect 49 0 15 1;
#X connect 49 0 27 1;
#X connect 50 0 49 0;
#X connect 51 0 50 0;
#X connect 52 0 50 1;
#X connect 53 0 35 3;
#X connect 53 0 34 3;
#X connect 54 0 34 2;
#X connect 54 0 35 2;
#X restore 41 499 pd hipass2p2z;
#N canvas 717 79 1076 1000 lopass2p2z 0;
#X obj -50 465 inlet~;
#X obj 129 919 outlet~;
#X obj 73 85 inlet~;
#X obj 87 200 sig~ 1;
#X obj 121 249 /~;
#X obj 219 59 samplerate~;
#X obj 110 376 sig~ 1;
#X obj 147 408 /~;
#X obj 214 340 +~;
#X obj 187 310 sig~ 1;
#X obj 251 318 *~;
#X obj 181 375 +~;
#X obj 112 295 *~;
#X text 41 361 a1/a3;
#X obj 222 407 sig~ 1;
#X obj 296 433 -~;
#X obj 299 457 *~ 2;
#X obj 286 506 *~;
#X obj 409 334 *~;
#X text 276 435 b1;
#X text 384 379 b2;
#X obj 361 397 sig~ 1;
#X obj 392 429 -~;
#X obj 377 512 *~;
#X text 99 246 c;
#X obj 397 462 +~;
#X obj 147 222 expr~ tan($v1);
#X obj 151 194 /~ 44100;
#X obj 129 153 *~ 3.14159;
#X text 408 73 resonance 0..1;
#X text 124 86 cutoff (hz);
#X text 420 186 a2= 2*a1 \, a3=a1;
#X text 420 150 c= 1/tan(pi*cutf/samplerate);
#X text 422 168 a1= 1/(1+res*c+c*c);
#X text 421 204 b1= 2*(1-c*c)*a1;
#X text 421 220 b2= (1-res*c+c*c)*a1;
#X obj 33 690 czero~;
#X obj 59 727 czero~;
#X obj 73 646 sig~ -1;
#X obj 90 670 sig~ 0;
#X obj 90 841 cpole~;
#X obj 129 888 cpole~;
#X obj 296 199 *~ 1.41421;
#X obj 307 148 -~;
#X obj 353 72 inlet~;
#X obj 279 94 sig~ 1;
#X text 28 627 zeros at fixed pos;
#X obj 178 840 *~ -1;
#X obj 184 805 expr~ sqrt($v1);
#X obj -44 595 *~;
#X obj 128 704 *~ -0.5;
#X text 219 845 2nd pole = 1st mirrored on the x axis;
#X text 183 704 b1/2 (x pos);
#X text 267 11 cookbook-like? (i cant remember where i got this from)
lp-filter;
#X obj 163 748 *~;
#X obj 183 781 -~;
#X text 217 666 pole position from coeffs:;
#X text 218 683 p=-b1/2+j*sqrt(b2-(b1/2)^2) (found somewhere on the
net...);
#X connect 0 0 49 0;
#X connect 2 0 28 0;
#X connect 3 0 4 0;
#X connect 4 0 10 0;
#X connect 4 0 12 0;
#X connect 4 0 12 1;
#X connect 4 0 18 0;
#X connect 5 0 27 1;
#X connect 6 0 7 0;
#X connect 7 0 17 1;
#X connect 7 0 23 0;
#X connect 7 0 49 1;
#X connect 8 0 11 1;
#X connect 9 0 8 0;
#X connect 10 0 8 1;
#X connect 11 0 7 1;
#X connect 12 0 11 0;
#X connect 12 0 15 1;
#X connect 12 0 25 1;
#X connect 14 0 15 0;
#X connect 15 0 16 0;
#X connect 16 0 17 0;
#X connect 17 0 50 0;
#X connect 18 0 22 1;
#X connect 21 0 22 0;
#X connect 22 0 25 0;
#X connect 23 0 55 0;
#X connect 25 0 23 1;
#X connect 26 0 4 1;
#X connect 27 0 26 0;
#X connect 28 0 27 0;
#X connect 36 0 37 0;
#X connect 36 1 37 1;
#X connect 37 0 40 0;
#X connect 37 1 40 1;
#X connect 38 0 36 2;
#X connect 38 0 37 2;
#X connect 39 0 37 3;
#X connect 39 0 36 3;
#X connect 40 0 41 0;
#X connect 40 1 41 1;
#X connect 41 0 1 0;
#X connect 42 0 10 1;
#X connect 42 0 18 1;
#X connect 43 0 42 0;
#X connect 44 0 43 1;
#X connect 45 0 43 0;
#X connect 47 0 41 3;
#X connect 48 0 40 3;
#X connect 48 0 47 0;
#X connect 49 0 36 0;
#X connect 50 0 40 2;
#X connect 50 0 41 2;
#X connect 50 0 54 0;
#X connect 50 0 54 1;
#X connect 54 0 55 1;
#X connect 55 0 48 0;
#X restore 31 433 pd lopass2p2z;
#N canvas 486 219 1076 837 hipass2p2z 0;
#X obj -47 497 inlet~;
#X obj 128 927 outlet~;
#X obj 105 93 inlet~;
#X text 401 96 resonance 0..1;
#X text 156 94 cutoff (hz);
#X text 572 141 c= tan(pi*cutf/samplerate);
#X obj 245 49 samplerate~;
#X obj 140 186 expr~ tan($v1);
#X obj 135 159 /~ 44100;
#X obj 108 128 *~ 3.14159;
#X text 91 160 c;
#X obj 143 285 sig~ 1;
#X obj 174 398 /~;
#X obj 210 362 +~;
#X obj 226 333 +~;
#X obj 270 268 *~;
#X obj 266 314 *~;
#X text 573 165 a1= 1/(1+res+c+c*c);
#X text 573 186 a2= -2*a1;
#X text 99 483 a2;
#X text 123 337 a1/a3;
#X text 574 205 b1= 2*(c*c-1)*a1;
#X obj 287 439 -~;
#X obj 310 417 sig~ 1;
#X text 256 428 b1;
#X obj 280 485 *~ 2;
#X obj 261 515 *~;
#X obj 417 339 *~;
#X text 384 379 b2;
#X obj 361 397 sig~ 1;
#X obj 392 429 -~;
#X obj 377 512 *~;
#X obj 394 472 +~;
#X text 573 221 b2= (1-res*c+c*c)*a1;
#X obj 33 690 czero~;
#X obj 59 727 czero~;
#X obj 90 841 cpole~;
#X obj 129 888 cpole~;
#X obj 178 840 *~ -1;
#X obj 184 805 expr~ sqrt($v1);
#X obj -44 595 *~;
#X obj 128 704 *~ -0.5;
#X text 219 845 2nd pole = 1st mirrored on the x axis;
#X text 183 704 b1/2 (x pos);
#X obj 163 748 *~;
#X obj 183 781 -~;
#X text 217 666 pole position from coeffs:;
#X text 218 683 p=-b1/2+j*sqrt(b2-(b1/2)^2) (found somewhere on the
net...);
#X text 573 99 cookbook-like? (i cant remember where i got this from)
hp-filter;
#X obj 343 246 *~ 1.41421;
#X obj 341 194 -~;
#X obj 305 153 sig~ 1;
#X obj 346 95 inlet~;
#X obj 90 670 sig~ 0;
#X obj 73 646 sig~ 1;
#X text 49 624 zeros at fixed pos;
#X connect 0 0 40 0;
#X connect 2 0 9 0;
#X connect 6 0 8 1;
#X connect 7 0 15 0;
#X connect 7 0 16 0;
#X connect 7 0 16 1;
#X connect 7 0 27 0;
#X connect 8 0 7 0;
#X connect 9 0 8 0;
#X connect 11 0 12 0;
#X connect 11 0 13 0;
#X connect 12 0 26 0;
#X connect 12 0 31 0;
#X connect 12 0 40 1;
#X connect 13 0 12 1;
#X connect 14 0 13 1;
#X connect 15 0 14 0;
#X connect 16 0 14 1;
#X connect 16 0 22 0;
#X connect 16 0 32 1;
#X connect 22 0 25 0;
#X connect 23 0 22 1;
#X connect 25 0 26 1;
#X connect 26 0 41 0;
#X connect 27 0 30 1;
#X connect 29 0 30 0;
#X connect 30 0 32 0;
#X connect 31 0 45 0;
#X connect 32 0 31 1;
#X connect 34 0 35 0;
#X connect 34 1 35 1;
#X connect 35 0 36 0;
#X connect 35 1 36 1;
#X connect 36 0 37 0;
#X connect 36 1 37 1;
#X connect 37 0 1 0;
#X connect 38 0 37 3;
#X connect 39 0 36 3;
#X connect 39 0 38 0;
#X connect 40 0 34 0;
#X connect 41 0 36 2;
#X connect 41 0 37 2;
#X connect 41 0 44 0;
#X connect 41 0 44 1;
#X connect 44 0 45 1;
#X connect 45 0 39 0;
#X connect 49 0 15 1;
#X connect 49 0 27 1;
#X connect 50 0 49 0;
#X connect 51 0 50 0;
#X connect 52 0 50 1;
#X connect 53 0 35 3;
#X connect 53 0 34 3;
#X connect 54 0 34 2;
#X connect 54 0 35 2;
#X restore 59 530 pd hipass2p2z;
#X obj -136 128 inlet~;
#X obj -103 609 outlet~;
#N canvas 717 79 1076 1000 lopass2p2z 0;
#X obj -50 465 inlet~;
#X obj 129 919 outlet~;
#X obj 73 85 inlet~;
#X obj 87 200 sig~ 1;
#X obj 121 249 /~;
#X obj 219 59 samplerate~;
#X obj 110 376 sig~ 1;
#X obj 147 408 /~;
#X obj 214 340 +~;
#X obj 187 310 sig~ 1;
#X obj 251 318 *~;
#X obj 181 375 +~;
#X obj 112 295 *~;
#X text 41 361 a1/a3;
#X obj 222 407 sig~ 1;
#X obj 296 433 -~;
#X obj 299 457 *~ 2;
#X obj 286 506 *~;
#X obj 409 334 *~;
#X text 276 435 b1;
#X text 384 379 b2;
#X obj 361 397 sig~ 1;
#X obj 392 429 -~;
#X obj 377 512 *~;
#X text 99 246 c;
#X obj 397 462 +~;
#X obj 147 222 expr~ tan($v1);
#X obj 151 194 /~ 44100;
#X obj 129 153 *~ 3.14159;
#X text 408 73 resonance 0..1;
#X text 124 86 cutoff (hz);
#X text 420 186 a2= 2*a1 \, a3=a1;
#X text 420 150 c= 1/tan(pi*cutf/samplerate);
#X text 422 168 a1= 1/(1+res*c+c*c);
#X text 421 204 b1= 2*(1-c*c)*a1;
#X text 421 220 b2= (1-res*c+c*c)*a1;
#X obj 33 690 czero~;
#X obj 59 727 czero~;
#X obj 73 646 sig~ -1;
#X obj 90 670 sig~ 0;
#X obj 90 841 cpole~;
#X obj 129 888 cpole~;
#X obj 296 199 *~ 1.41421;
#X obj 307 148 -~;
#X obj 353 72 inlet~;
#X obj 279 94 sig~ 1;
#X text 28 627 zeros at fixed pos;
#X obj 178 840 *~ -1;
#X obj 184 805 expr~ sqrt($v1);
#X obj -44 595 *~;
#X obj 128 704 *~ -0.5;
#X text 219 845 2nd pole = 1st mirrored on the x axis;
#X text 183 704 b1/2 (x pos);
#X text 267 11 cookbook-like? (i cant remember where i got this from)
lp-filter;
#X obj 163 748 *~;
#X obj 183 781 -~;
#X text 217 666 pole position from coeffs:;
#X text 218 683 p=-b1/2+j*sqrt(b2-(b1/2)^2) (found somewhere on the
net...);
#X connect 0 0 49 0;
#X connect 2 0 28 0;
#X connect 3 0 4 0;
#X connect 4 0 10 0;
#X connect 4 0 12 0;
#X connect 4 0 12 1;
#X connect 4 0 18 0;
#X connect 5 0 27 1;
#X connect 6 0 7 0;
#X connect 7 0 17 1;
#X connect 7 0 23 0;
#X connect 7 0 49 1;
#X connect 8 0 11 1;
#X connect 9 0 8 0;
#X connect 10 0 8 1;
#X connect 11 0 7 1;
#X connect 12 0 11 0;
#X connect 12 0 15 1;
#X connect 12 0 25 1;
#X connect 14 0 15 0;
#X connect 15 0 16 0;
#X connect 16 0 17 0;
#X connect 17 0 50 0;
#X connect 18 0 22 1;
#X connect 21 0 22 0;
#X connect 22 0 25 0;
#X connect 23 0 55 0;
#X connect 25 0 23 1;
#X connect 26 0 4 1;
#X connect 27 0 26 0;
#X connect 28 0 27 0;
#X connect 36 0 37 0;
#X connect 36 1 37 1;
#X connect 37 0 40 0;
#X connect 37 1 40 1;
#X connect 38 0 36 2;
#X connect 38 0 37 2;
#X connect 39 0 37 3;
#X connect 39 0 36 3;
#X connect 40 0 41 0;
#X connect 40 1 41 1;
#X connect 41 0 1 0;
#X connect 42 0 10 1;
#X connect 42 0 18 1;
#X connect 43 0 42 0;
#X connect 44 0 43 1;
#X connect 45 0 43 0;
#X connect 47 0 41 3;
#X connect 48 0 40 3;
#X connect 48 0 47 0;
#X connect 49 0 36 0;
#X connect 50 0 40 2;
#X connect 50 0 41 2;
#X connect 50 0 54 0;
#X connect 50 0 54 1;
#X connect 54 0 55 1;
#X connect 55 0 48 0;
#X restore -106 439 pd lopass2p2z;
#N canvas 486 219 1076 837 hipass2p2z 0;
#X obj -47 497 inlet~;
#X obj 128 927 outlet~;
#X obj 105 93 inlet~;
#X text 401 96 resonance 0..1;
#X text 156 94 cutoff (hz);
#X text 572 141 c= tan(pi*cutf/samplerate);
#X obj 245 49 samplerate~;
#X obj 140 186 expr~ tan($v1);
#X obj 135 159 /~ 44100;
#X obj 108 128 *~ 3.14159;
#X text 91 160 c;
#X obj 143 285 sig~ 1;
#X obj 174 398 /~;
#X obj 210 362 +~;
#X obj 226 333 +~;
#X obj 270 268 *~;
#X obj 266 314 *~;
#X text 573 165 a1= 1/(1+res+c+c*c);
#X text 573 186 a2= -2*a1;
#X text 99 483 a2;
#X text 123 337 a1/a3;
#X text 574 205 b1= 2*(c*c-1)*a1;
#X obj 287 439 -~;
#X obj 310 417 sig~ 1;
#X text 256 428 b1;
#X obj 280 485 *~ 2;
#X obj 261 515 *~;
#X obj 417 339 *~;
#X text 384 379 b2;
#X obj 361 397 sig~ 1;
#X obj 392 429 -~;
#X obj 377 512 *~;
#X obj 394 472 +~;
#X text 573 221 b2= (1-res*c+c*c)*a1;
#X obj 33 690 czero~;
#X obj 59 727 czero~;
#X obj 90 841 cpole~;
#X obj 129 888 cpole~;
#X obj 178 840 *~ -1;
#X obj 184 805 expr~ sqrt($v1);
#X obj -44 595 *~;
#X obj 128 704 *~ -0.5;
#X text 219 845 2nd pole = 1st mirrored on the x axis;
#X text 183 704 b1/2 (x pos);
#X obj 163 748 *~;
#X obj 183 781 -~;
#X text 217 666 pole position from coeffs:;
#X text 218 683 p=-b1/2+j*sqrt(b2-(b1/2)^2) (found somewhere on the
net...);
#X text 573 99 cookbook-like? (i cant remember where i got this from)
hp-filter;
#X obj 343 246 *~ 1.41421;
#X obj 341 194 -~;
#X obj 305 153 sig~ 1;
#X obj 346 95 inlet~;
#X obj 90 670 sig~ 0;
#X obj 73 646 sig~ 1;
#X text 49 624 zeros at fixed pos;
#X connect 0 0 40 0;
#X connect 2 0 9 0;
#X connect 6 0 8 1;
#X connect 7 0 15 0;
#X connect 7 0 16 0;
#X connect 7 0 16 1;
#X connect 7 0 27 0;
#X connect 8 0 7 0;
#X connect 9 0 8 0;
#X connect 11 0 12 0;
#X connect 11 0 13 0;
#X connect 12 0 26 0;
#X connect 12 0 31 0;
#X connect 12 0 40 1;
#X connect 13 0 12 1;
#X connect 14 0 13 1;
#X connect 15 0 14 0;
#X connect 16 0 14 1;
#X connect 16 0 22 0;
#X connect 16 0 32 1;
#X connect 22 0 25 0;
#X connect 23 0 22 1;
#X connect 25 0 26 1;
#X connect 26 0 41 0;
#X connect 27 0 30 1;
#X connect 29 0 30 0;
#X connect 30 0 32 0;
#X connect 31 0 45 0;
#X connect 32 0 31 1;
#X connect 34 0 35 0;
#X connect 34 1 35 1;
#X connect 35 0 36 0;
#X connect 35 1 36 1;
#X connect 36 0 37 0;
#X connect 36 1 37 1;
#X connect 37 0 1 0;
#X connect 38 0 37 3;
#X connect 39 0 36 3;
#X connect 39 0 38 0;
#X connect 40 0 34 0;
#X connect 41 0 36 2;
#X connect 41 0 37 2;
#X connect 41 0 44 0;
#X connect 41 0 44 1;
#X connect 44 0 45 1;
#X connect 45 0 39 0;
#X connect 49 0 15 1;
#X connect 49 0 27 1;
#X connect 50 0 49 0;
#X connect 51 0 50 0;
#X connect 52 0 50 1;
#X connect 53 0 35 3;
#X connect 53 0 34 3;
#X connect 54 0 34 2;
#X connect 54 0 35 2;
#X restore -89 529 pd hipass2p2z;
#N canvas 717 79 1076 1000 lopass2p2z 0;
#X obj -50 465 inlet~;
#X obj 129 919 outlet~;
#X obj 73 85 inlet~;
#X obj 87 200 sig~ 1;
#X obj 121 249 /~;
#X obj 219 59 samplerate~;
#X obj 110 376 sig~ 1;
#X obj 147 408 /~;
#X obj 214 340 +~;
#X obj 187 310 sig~ 1;
#X obj 251 318 *~;
#X obj 181 375 +~;
#X obj 112 295 *~;
#X text 41 361 a1/a3;
#X obj 222 407 sig~ 1;
#X obj 296 433 -~;
#X obj 299 457 *~ 2;
#X obj 286 506 *~;
#X obj 409 334 *~;
#X text 276 435 b1;
#X text 384 379 b2;
#X obj 361 397 sig~ 1;
#X obj 392 429 -~;
#X obj 377 512 *~;
#X text 99 246 c;
#X obj 397 462 +~;
#X obj 147 222 expr~ tan($v1);
#X obj 151 194 /~ 44100;
#X obj 129 153 *~ 3.14159;
#X text 408 73 resonance 0..1;
#X text 124 86 cutoff (hz);
#X text 420 186 a2= 2*a1 \, a3=a1;
#X text 420 150 c= 1/tan(pi*cutf/samplerate);
#X text 422 168 a1= 1/(1+res*c+c*c);
#X text 421 204 b1= 2*(1-c*c)*a1;
#X text 421 220 b2= (1-res*c+c*c)*a1;
#X obj 33 690 czero~;
#X obj 59 727 czero~;
#X obj 73 646 sig~ -1;
#X obj 90 670 sig~ 0;
#X obj 90 841 cpole~;
#X obj 129 888 cpole~;
#X obj 296 199 *~ 1.41421;
#X obj 307 148 -~;
#X obj 353 72 inlet~;
#X obj 279 94 sig~ 1;
#X text 28 627 zeros at fixed pos;
#X obj 178 840 *~ -1;
#X obj 184 805 expr~ sqrt($v1);
#X obj -44 595 *~;
#X obj 128 704 *~ -0.5;
#X text 219 845 2nd pole = 1st mirrored on the x axis;
#X text 183 704 b1/2 (x pos);
#X text 267 11 cookbook-like? (i cant remember where i got this from)
lp-filter;
#X obj 163 748 *~;
#X obj 183 781 -~;
#X text 217 666 pole position from coeffs:;
#X text 218 683 p=-b1/2+j*sqrt(b2-(b1/2)^2) (found somewhere on the
net...);
#X connect 0 0 49 0;
#X connect 2 0 28 0;
#X connect 3 0 4 0;
#X connect 4 0 10 0;
#X connect 4 0 12 0;
#X connect 4 0 12 1;
#X connect 4 0 18 0;
#X connect 5 0 27 1;
#X connect 6 0 7 0;
#X connect 7 0 17 1;
#X connect 7 0 23 0;
#X connect 7 0 49 1;
#X connect 8 0 11 1;
#X connect 9 0 8 0;
#X connect 10 0 8 1;
#X connect 11 0 7 1;
#X connect 12 0 11 0;
#X connect 12 0 15 1;
#X connect 12 0 25 1;
#X connect 14 0 15 0;
#X connect 15 0 16 0;
#X connect 16 0 17 0;
#X connect 17 0 50 0;
#X connect 18 0 22 1;
#X connect 21 0 22 0;
#X connect 22 0 25 0;
#X connect 23 0 55 0;
#X connect 25 0 23 1;
#X connect 26 0 4 1;
#X connect 27 0 26 0;
#X connect 28 0 27 0;
#X connect 36 0 37 0;
#X connect 36 1 37 1;
#X connect 37 0 40 0;
#X connect 37 1 40 1;
#X connect 38 0 36 2;
#X connect 38 0 37 2;
#X connect 39 0 37 3;
#X connect 39 0 36 3;
#X connect 40 0 41 0;
#X connect 40 1 41 1;
#X connect 41 0 1 0;
#X connect 42 0 10 1;
#X connect 42 0 18 1;
#X connect 43 0 42 0;
#X connect 44 0 43 1;
#X connect 45 0 43 0;
#X connect 47 0 41 3;
#X connect 48 0 40 3;
#X connect 48 0 47 0;
#X connect 49 0 36 0;
#X connect 50 0 40 2;
#X connect 50 0 41 2;
#X connect 50 0 54 0;
#X connect 50 0 54 1;
#X connect 54 0 55 1;
#X connect 55 0 48 0;
#X restore -99 463 pd lopass2p2z;
#N canvas 486 219 1076 837 hipass2p2z 0;
#X obj -47 497 inlet~;
#X obj 128 927 outlet~;
#X obj 105 93 inlet~;
#X text 401 96 resonance 0..1;
#X text 156 94 cutoff (hz);
#X text 572 141 c= tan(pi*cutf/samplerate);
#X obj 245 49 samplerate~;
#X obj 140 186 expr~ tan($v1);
#X obj 135 159 /~ 44100;
#X obj 108 128 *~ 3.14159;
#X text 91 160 c;
#X obj 143 285 sig~ 1;
#X obj 174 398 /~;
#X obj 210 362 +~;
#X obj 226 333 +~;
#X obj 270 268 *~;
#X obj 266 314 *~;
#X text 573 165 a1= 1/(1+res+c+c*c);
#X text 573 186 a2= -2*a1;
#X text 99 483 a2;
#X text 123 337 a1/a3;
#X text 574 205 b1= 2*(c*c-1)*a1;
#X obj 287 439 -~;
#X obj 310 417 sig~ 1;
#X text 256 428 b1;
#X obj 280 485 *~ 2;
#X obj 261 515 *~;
#X obj 417 339 *~;
#X text 384 379 b2;
#X obj 361 397 sig~ 1;
#X obj 392 429 -~;
#X obj 377 512 *~;
#X obj 394 472 +~;
#X text 573 221 b2= (1-res*c+c*c)*a1;
#X obj 33 690 czero~;
#X obj 59 727 czero~;
#X obj 90 841 cpole~;
#X obj 129 888 cpole~;
#X obj 178 840 *~ -1;
#X obj 184 805 expr~ sqrt($v1);
#X obj -44 595 *~;
#X obj 128 704 *~ -0.5;
#X text 219 845 2nd pole = 1st mirrored on the x axis;
#X text 183 704 b1/2 (x pos);
#X obj 163 748 *~;
#X obj 183 781 -~;
#X text 217 666 pole position from coeffs:;
#X text 218 683 p=-b1/2+j*sqrt(b2-(b1/2)^2) (found somewhere on the
net...);
#X text 573 99 cookbook-like? (i cant remember where i got this from)
hp-filter;
#X obj 343 246 *~ 1.41421;
#X obj 341 194 -~;
#X obj 305 153 sig~ 1;
#X obj 346 95 inlet~;
#X obj 90 670 sig~ 0;
#X obj 73 646 sig~ 1;
#X text 49 624 zeros at fixed pos;
#X connect 0 0 40 0;
#X connect 2 0 9 0;
#X connect 6 0 8 1;
#X connect 7 0 15 0;
#X connect 7 0 16 0;
#X connect 7 0 16 1;
#X connect 7 0 27 0;
#X connect 8 0 7 0;
#X connect 9 0 8 0;
#X connect 11 0 12 0;
#X connect 11 0 13 0;
#X connect 12 0 26 0;
#X connect 12 0 31 0;
#X connect 12 0 40 1;
#X connect 13 0 12 1;
#X connect 14 0 13 1;
#X connect 15 0 14 0;
#X connect 16 0 14 1;
#X connect 16 0 22 0;
#X connect 16 0 32 1;
#X connect 22 0 25 0;
#X connect 23 0 22 1;
#X connect 25 0 26 1;
#X connect 26 0 41 0;
#X connect 27 0 30 1;
#X connect 29 0 30 0;
#X connect 30 0 32 0;
#X connect 31 0 45 0;
#X connect 32 0 31 1;
#X connect 34 0 35 0;
#X connect 34 1 35 1;
#X connect 35 0 36 0;
#X connect 35 1 36 1;
#X connect 36 0 37 0;
#X connect 36 1 37 1;
#X connect 37 0 1 0;
#X connect 38 0 37 3;
#X connect 39 0 36 3;
#X connect 39 0 38 0;
#X connect 40 0 34 0;
#X connect 41 0 36 2;
#X connect 41 0 37 2;
#X connect 41 0 44 0;
#X connect 41 0 44 1;
#X connect 44 0 45 1;
#X connect 45 0 39 0;
#X connect 49 0 15 1;
#X connect 49 0 27 1;
#X connect 50 0 49 0;
#X connect 51 0 50 0;
#X connect 52 0 50 1;
#X connect 53 0 35 3;
#X connect 53 0 34 3;
#X connect 54 0 34 2;
#X connect 54 0 35 2;
#X restore -71 560 pd hipass2p2z;
#X connect 0 0 11 0;
#X connect 2 0 8 0;
#X connect 3 0 6 0;
#X connect 5 0 11 2;
#X connect 5 0 12 2;
#X connect 5 0 13 2;
#X connect 5 0 14 2;
#X connect 5 0 17 2;
#X connect 5 0 19 2;
#X connect 5 0 18 2;
#X connect 5 0 20 2;
#X connect 6 0 9 0;
#X connect 7 0 6 1;
#X connect 7 0 8 1;
#X connect 8 0 10 0;
#X connect 9 0 11 1;
#X connect 9 0 13 1;
#X connect 9 0 17 1;
#X connect 9 0 19 1;
#X connect 10 0 12 1;
#X connect 10 0 14 1;
#X connect 10 0 18 1;
#X connect 10 0 20 1;
#X connect 11 0 13 0;
#X connect 12 0 14 0;
#X connect 13 0 12 0;
#X connect 14 0 1 0;
#X connect 15 0 17 0;
#X connect 17 0 19 0;
#X connect 18 0 20 0;
#X connect 19 0 18 0;
#X connect 20 0 16 0;
#X coords 0 -1 1 1 110 50 1 100 100;
#X restore 609 -46 pd lp_hp_bp4p;
#N canvas 1 82 737 589 lfo1a 0;
#X obj -17 -43 loadbang;
#X obj 107 117 hsl 128 8 0.01 30 1 1 empty empty empty -2 -8 0 10 -262144
-1 -1 3500 1;
#X obj 107 129 hsl 128 8 0 1 0 1 empty empty empty -2 -8 0 10 -262144
-1 -1 4400 1;
#X obj 9 157 osc~;
#X msg 12 51 1;
#X obj 3 229 outlet~;
#X obj 8 192 *~;
#X obj 116 -20 inlet;
#X text 120 -41 sync;
#X connect 0 0 4 0;
#X connect 1 0 3 0;
#X connect 2 0 6 1;
#X connect 3 0 6 0;
#X connect 4 0 3 1;
#X connect 6 0 5 0;
#X connect 7 0 4 0;
#X coords 0 -1 1 1 140 40 1 100 100;
#X restore 42 -105 pd lfo1a;
#N canvas 1 82 737 589 lfo1a 0;
#X obj -17 -43 loadbang;
#X obj 107 117 hsl 128 8 0.01 30 1 1 empty empty empty -2 -8 0 10 -262144
-1 -1 2800 1;
#X obj 107 129 hsl 128 8 0 1 0 1 empty empty empty -2 -8 0 10 -262144
-1 -1 4300 1;
#X obj 9 157 osc~;
#X msg 12 51 1;
#X obj 3 229 outlet~;
#X obj 8 192 *~;
#X obj 116 -20 inlet;
#X text 120 -41 sync;
#X connect 0 0 4 0;
#X connect 1 0 3 0;
#X connect 2 0 6 1;
#X connect 3 0 6 0;
#X connect 4 0 3 1;
#X connect 6 0 5 0;
#X connect 7 0 4 0;
#X coords 0 -1 1 1 140 40 1 100 100;
#X restore 238 -100 pd lfo1a;
#X obj 375 -164 loadbang;
#N canvas 1 82 737 589 lfo1a 0;
#X obj -17 -43 loadbang;
#X obj 107 117 hsl 128 8 0.01 30 1 1 empty empty empty -2 -8 0 10 -262144
-1 -1 8100 1;
#X obj 107 129 hsl 128 8 0 1 0 1 empty empty empty -2 -8 0 10 -262144
-1 -1 4800 1;
#X obj 9 157 osc~;
#X msg 12 51 1;
#X obj 3 229 outlet~;
#X obj 8 192 *~;
#X obj 116 -20 inlet;
#X text 120 -41 sync;
#X connect 0 0 4 0;
#X connect 1 0 3 0;
#X connect 2 0 6 1;
#X connect 3 0 6 0;
#X connect 4 0 3 1;
#X connect 6 0 5 0;
#X connect 7 0 4 0;
#X coords 0 -1 1 1 140 40 1 100 100;
#X restore 478 -102 pd lfo1a;
#N canvas 1 82 737 589 lfo1a 0;
#X obj -17 -43 loadbang;
#X obj 107 117 hsl 128 8 0.01 30 1 1 empty empty empty -2 -8 0 10 -262144
-1 -1 4500 1;
#X obj 107 129 hsl 128 8 0 1 0 1 empty empty empty -2 -8 0 10 -262144
-1 -1 5800 1;
#X obj 9 157 osc~;
#X msg 12 51 1;
#X obj 3 229 outlet~;
#X obj 8 192 *~;
#X obj 116 -20 inlet;
#X text 120 -41 sync;
#X connect 0 0 4 0;
#X connect 1 0 3 0;
#X connect 2 0 6 1;
#X connect 3 0 6 0;
#X connect 4 0 3 1;
#X connect 6 0 5 0;
#X connect 7 0 4 0;
#X coords 0 -1 1 1 140 40 1 100 100;
#X restore 645 -106 pd lfo1a;
#X connect 0 0 1 2;
#X connect 0 0 2 3;
#X connect 0 0 7 2;
#X connect 0 0 8 3;
#X connect 1 0 3 1;
#X connect 2 0 4 1;
#X connect 2 1 4 3;
#X connect 5 0 1 0;
#X connect 6 0 2 0;
#X connect 6 1 2 1;
#X connect 9 0 7 0;
#X connect 10 0 8 0;
#X connect 10 1 8 1;
#X connect 11 0 1 1;
#X connect 12 0 2 2;
#X connect 13 0 0 0;
#X connect 13 0 12 0;
#X connect 13 0 11 0;
#X connect 13 0 14 0;
#X connect 13 0 15 0;
#X connect 14 0 7 1;
#X connect 15 0 8 2;
