#N canvas 500 214 401 247 10;
#N canvas 1 83 450 300 normalizer1 0;
#X obj 93 104 /~;
#X obj 75 45 sig~ 1;
#X obj 144 219 *~;
#X obj 98 186 clip~ 0 1;
#X obj 160 58 inlet~;
#X obj 144 248 outlet~;
#X obj 93 130 abs~;
#X text 149 16 scale signales > -1..1;
#X connect 0 0 6 0;
#X connect 1 0 0 0;
#X connect 2 0 5 0;
#X connect 3 0 2 0;
#X connect 4 0 0 1;
#X connect 4 0 2 1;
#X connect 6 0 3 0;
#X restore 37 39 pd normalizer1;
#N canvas 1 81 450 300 normalizer1s 0;
#X obj 93 104 /~;
#X obj 75 45 sig~ 1;
#X obj 144 195 *~;
#X obj 98 162 clip~ 0 1;
#X obj 160 58 inlet~;
#X obj 144 224 outlet~;
#X obj 93 130 abs~;
#X text 149 16 scale signales > -1..1;
#X obj 231 114 /~;
#X obj 282 205 *~;
#X obj 236 172 clip~ 0 1;
#X obj 298 68 inlet~;
#X obj 282 234 outlet~;
#X obj 231 140 abs~;
#X connect 0 0 6 0;
#X connect 1 0 0 0;
#X connect 1 0 8 0;
#X connect 2 0 5 0;
#X connect 3 0 2 0;
#X connect 4 0 0 1;
#X connect 4 0 2 1;
#X connect 6 0 3 0;
#X connect 8 0 13 0;
#X connect 9 0 12 0;
#X connect 10 0 9 0;
#X connect 11 0 8 1;
#X connect 11 0 9 1;
#X connect 13 0 10 0;
#X restore 137 39 pd normalizer1s;
#X text 38 8 simple limiter;
