#N canvas 229 396 797 507 10;
#X obj 65 173 dac~;
#N canvas 309 214 807 703 qwertz-keys 0;
#X msg -121 181 0;
#X msg -89 182 1;
#X msg -57 182 2;
#X msg -23 182 3;
#X msg 10 182 4;
#X msg 44 182 5;
#X msg 78 183 6;
#X msg 116 182 7;
#X msg 150 182 8;
#X msg 182 183 9;
#X msg 214 183 10;
#X msg 247 182 11;
#X msg 281 183 12;
#X msg 315 183 13;
#X msg 351 183 14;
#X msg 387 183 15;
#X msg 427 183 16;
#X obj -173 623 outlet;
#X obj 66 654 outlet;
#X obj -97 71 key;
#X obj -25 128 select 113 50 119 51 101 114 53 116 54 122 55 117 105
57 111 48 112;
#X obj 20 78 keyup;
#X obj 11 541 ==;
#X msg -121 468 1;
#X msg 87 593 0;
#X obj 12 568 moses 0.1;
#X obj -146 435 + 48;
#X obj 69 621 change;
#X text -3 111 q2w3er5t6z7ui9o0p \, 'upper manual';
#X text -3 17 monophonic qwertz keyboard. german keyboard layout. turn
key-auto-repeat off!;
#X msg 123 356 0;
#X msg 155 357 1;
#X msg 187 357 2;
#X msg 221 357 3;
#X msg 254 357 4;
#X msg 288 357 5;
#X msg 322 358 6;
#X msg 360 357 7;
#X msg 394 357 8;
#X msg 426 358 9;
#X msg 465 359 10;
#X msg 501 360 11;
#X obj 121 424 + 36;
#X floatatom -124 112 5 0 0 0 - - -;
#X text 321 297 ysxdcvgbhnjm \, 'lower manaul';
#X obj 172 317 select 121 115 120 100 99 118 103 98 104 110 106 109
;
#X connect 0 0 26 0;
#X connect 1 0 26 0;
#X connect 2 0 26 0;
#X connect 3 0 26 0;
#X connect 4 0 26 0;
#X connect 5 0 26 0;
#X connect 6 0 26 0;
#X connect 7 0 26 0;
#X connect 8 0 26 0;
#X connect 9 0 26 0;
#X connect 10 0 26 0;
#X connect 11 0 26 0;
#X connect 12 0 26 0;
#X connect 13 0 26 0;
#X connect 14 0 26 0;
#X connect 15 0 26 0;
#X connect 16 0 26 0;
#X connect 19 0 20 0;
#X connect 19 0 22 1;
#X connect 19 0 43 0;
#X connect 19 0 45 0;
#X connect 20 0 0 0;
#X connect 20 1 1 0;
#X connect 20 2 2 0;
#X connect 20 3 3 0;
#X connect 20 4 4 0;
#X connect 20 5 5 0;
#X connect 20 6 6 0;
#X connect 20 7 7 0;
#X connect 20 8 8 0;
#X connect 20 9 9 0;
#X connect 20 10 10 0;
#X connect 20 11 11 0;
#X connect 20 12 12 0;
#X connect 20 13 13 0;
#X connect 20 14 14 0;
#X connect 20 15 15 0;
#X connect 20 16 16 0;
#X connect 21 0 22 0;
#X connect 22 0 25 0;
#X connect 23 0 27 0;
#X connect 24 0 27 0;
#X connect 25 1 24 0;
#X connect 26 0 23 0;
#X connect 26 0 17 0;
#X connect 27 0 18 0;
#X connect 30 0 42 0;
#X connect 31 0 42 0;
#X connect 32 0 42 0;
#X connect 33 0 42 0;
#X connect 34 0 42 0;
#X connect 35 0 42 0;
#X connect 36 0 42 0;
#X connect 37 0 42 0;
#X connect 38 0 42 0;
#X connect 39 0 42 0;
#X connect 40 0 42 0;
#X connect 41 0 42 0;
#X connect 42 0 23 0;
#X connect 42 0 17 0;
#X connect 45 0 30 0;
#X connect 45 1 31 0;
#X connect 45 2 32 0;
#X connect 45 3 33 0;
#X connect 45 4 34 0;
#X connect 45 5 35 0;
#X connect 45 6 36 0;
#X connect 45 7 37 0;
#X connect 45 8 38 0;
#X connect 45 9 39 0;
#X connect 45 10 40 0;
#X connect 45 11 41 0;
#X restore 82 15 pd qwertz-keys;
#N canvas 717 122 886 883 oshot2p 0;
#X obj 24 176 openpanel;
#X obj 244 224 loadbang;
#X msg 116 487 set \$1;
#X msg 101 533 302399;
#X obj 265 -46 inlet;
#X obj 40 931 outlet~;
#X obj 147 734 line~;
#X msg -46 712 0;
#X obj 114 585 pack;
#X obj 202 543 / 44.1;
#X msg 133 641 302399 6857.12;
#X msg 126 610 set \$1 \$2;
#X obj 158 566 *;
#X obj 171 499 t b f b;
#X msg 577 237 1.05946;
#X obj 583 266 pow;
#X obj 565 173 * -1;
#X obj 39 899 *~;
#X obj 46 776 line~;
#X msg -22 667 -0.789062 12.6313;
#X obj -28 863 *~;
#X obj -35 284 dbtorms;
#X obj -111 365 moses 0.001;
#X obj -113 782 line~;
#X obj -135 685 pack;
#X obj -132 294 dbtorms;
#X msg -131 751 0.789062 10;
#X msg -131 719 set \$1 \$2;
#X obj -73 454 t b b f;
#X obj -24 567 * -1;
#X msg -7 635 set \$1 \$2;
#X obj -4 606 pack;
#X obj -25 813 +~;
#X text -134 807 attack;
#X text 45 801 release;
#X obj 457 114 +;
#X obj 171 -62 inlet;
#X obj 500 139 clip -127 127;
#X obj 463 46 float;
#X obj 566 201 t b f;
#X msg 100 651 0;
#X obj 47 543 delay 1;
#X obj 47 566 t b b;
#X text 212 -63 pitch;
#X text 308 -48 gate;
#X obj 128 114 nbx 4 14 -60 60 0 1 empty empty tp -12 7 0 10 -262144
-1 -1 0 256;
#X obj 407 -9 t b f;
#X obj 31 223 t b a;
#X obj 105 148 hsl 70 8 120 190 0 1 empty empty attack 2 4 0 10 -262144
-258113 -1 0 1;
#X obj 105 159 hsl 70 8 120 190 0 1 empty empty decay 2 4 0 10 -262144
-258113 -1 200 1;
#X msg 275 92 60;
#X obj 281 62 t b f;
#X obj 295 134 +;
#X obj 409 -39 * -1;
#X obj 204 117 * -1;
#X obj 102 116 bng 12 250 50 0 empty empty V 4 7 1 8 -204786 -1 -1
;
#X obj 146 775 abs_oneshot2p;
#X msg 84 283 set symbol \$1;
#X symbolatom 102 131 10 0 0 0 - - -;
#X msg 229 338;
#X obj 331 453 soundfiler;
#X obj 335 319 t b a;
#X obj 327 404 pack \$0 s;
#X msg 331 429 read -resize \$2 \$1osp1;
#X obj 323 368 float;
#X obj 583 -30 inlet;
#X text 587 -52 filename;
#X connect 0 0 47 0;
#X connect 1 0 59 0;
#X connect 2 0 3 0;
#X connect 3 0 9 0;
#X connect 3 0 8 0;
#X connect 4 0 22 0;
#X connect 6 0 56 0;
#X connect 7 0 23 0;
#X connect 7 0 18 0;
#X connect 8 0 11 0;
#X connect 9 0 12 1;
#X connect 10 0 6 0;
#X connect 11 0 10 0;
#X connect 12 0 8 1;
#X connect 13 0 8 0;
#X connect 13 1 12 0;
#X connect 13 2 3 0;
#X connect 14 0 15 0;
#X connect 15 0 13 0;
#X connect 16 0 39 0;
#X connect 17 0 5 0;
#X connect 18 0 32 1;
#X connect 19 0 18 0;
#X connect 20 0 17 0;
#X connect 21 0 31 1;
#X connect 22 0 19 0;
#X connect 22 1 28 0;
#X connect 22 1 41 0;
#X connect 23 0 32 0;
#X connect 24 0 27 0;
#X connect 25 0 24 1;
#X connect 26 0 23 0;
#X connect 27 0 26 0;
#X connect 28 0 26 0;
#X connect 28 1 7 0;
#X connect 28 2 24 0;
#X connect 28 2 29 0;
#X connect 29 0 31 0;
#X connect 30 0 19 0;
#X connect 31 0 30 0;
#X connect 32 0 20 0;
#X connect 32 0 20 1;
#X connect 35 0 37 0;
#X connect 36 0 38 0;
#X connect 37 0 16 0;
#X connect 38 0 35 0;
#X connect 39 0 14 0;
#X connect 39 1 15 1;
#X connect 40 0 6 0;
#X connect 41 0 42 0;
#X connect 42 0 10 0;
#X connect 42 1 40 0;
#X connect 45 0 54 0;
#X connect 46 0 38 0;
#X connect 46 1 35 1;
#X connect 47 0 3 0;
#X connect 47 0 59 0;
#X connect 47 1 57 0;
#X connect 47 1 58 0;
#X connect 48 0 25 0;
#X connect 49 0 21 0;
#X connect 50 0 52 0;
#X connect 51 0 50 0;
#X connect 51 1 52 1;
#X connect 52 0 53 0;
#X connect 53 0 46 0;
#X connect 54 0 51 0;
#X connect 55 0 0 0;
#X connect 56 0 17 1;
#X connect 56 1 64 1;
#X connect 57 0 59 0;
#X connect 59 0 58 0;
#X connect 59 0 61 0;
#X connect 60 0 2 0;
#X connect 61 0 64 0;
#X connect 61 1 62 1;
#X connect 62 0 63 0;
#X connect 63 0 60 0;
#X connect 64 0 62 0;
#X connect 65 0 47 0;
#X coords 0 -1 1 1 80 70 1 100 100;
#X restore 82 49 pd oshot2p;
#X obj 170 -8 notein;
#X obj 268 -14 loadbang;
#X obj 262 123 playlist all 400 205 {Helvetica 10 bold} white yellow
black red;
#X msg 447 373 prismarp1.wav;
#X msg 458 343 set \$1;
#X msg 272 12 location /home/mnb/samplelib;
#X msg 282 62 location /home/mnb/wave_wrk;
#X msg 316 84 location ..;
#X msg 283 39 location /home/mnb/archiv/sounds;
#X obj 182 20 / 128;
#X connect 1 0 2 0;
#X connect 1 1 2 1;
#X connect 2 0 0 0;
#X connect 2 0 0 1;
#X connect 3 0 2 0;
#X connect 3 1 12 0;
#X connect 4 0 8 0;
#X connect 5 0 2 2;
#X connect 5 1 7 0;
#X connect 7 0 6 0;
#X connect 8 0 5 0;
#X connect 9 0 5 0;
#X connect 10 0 5 0;
#X connect 11 0 5 0;
#X connect 12 0 2 1;
