#N canvas 150 258 821 585 10;
#X obj -93 145 dac~;
#N canvas 218 81 1184 711 songpos96-16 0;
#X obj 318 440 + 1;
#X obj 267 436 float;
#X msg 206 296 1;
#X obj 218 321 /;
#X obj 209 273 t f f;
#X obj 228 344 * 15000;
#X obj 339 355 t b f;
#X obj 263 405 metro 125;
#X msg 340 329 -2;
#X obj 172 17 loadbang;
#X floatatom 126 113 5 30 300 0 bpm - -;
#X msg -2 85 set \$1;
#X msg 5 139 110;
#X obj 174 112 bng 15 250 50 0 empty empty empty 6 7 0 10 -261234 -1
-1;
#X obj 278 636 outlet;
#X obj 570 496 outlet;
#X text 618 497 bpm->;
#X obj 200 112 bng 15 50 20 0 empty empty empty 6 7 0 10 -204786 -1
-1;
#X obj 208 225 float;
#X obj 435 539 outlet;
#X text 144 343 1/16 in ms;
#X text 485 540 pos96->;
#X obj 259 373 / 6;
#X text 219 371 1/96;
#X obj 280 481 / 6;
#X obj 280 505 int;
#X obj 279 530 change;
#X obj 600 64 + 1;
#X obj 602 29 float;
#X obj 600 96 moses 2;
#X obj 600 155 timer;
#X obj 600 123 t b;
#X obj 648 122 t b b;
#X obj 653 243 /;
#X msg 623 221 60000;
#X obj 618 183 t b f;
#X obj 656 268 moses 10;
#X text 500 72 beatcounter;
#X obj 772 358 float;
#X obj 769 401 + 1;
#X obj 688 426 +;
#X obj 729 396 *;
#X obj 705 328 t f b;
#X obj 698 464 /;
#X msg 884 211 0;
#X text 499 302 mean (as seen on idafx blog);
#X obj 864 324 t f f;
#X obj 921 503 moses 0.1;
#X text 880 303 reset;
#X obj 870 366 /;
#X obj 849 431 < 0.75;
#X obj 903 435 > 1.25;
#X obj 869 391 t f f;
#X obj 877 471 ||;
#X obj 174 54 t b b b;
#X obj 43 -7 inlet;
#X obj 107 -11 inlet;
#X text 329 637 pos16->;
#X text 46 14 sync;
#X text 111 10 tap;
#X connect 0 0 1 1;
#X connect 0 0 24 0;
#X connect 0 0 19 0;
#X connect 1 0 0 0;
#X connect 2 0 3 0;
#X connect 3 0 5 0;
#X connect 4 0 2 0;
#X connect 4 1 3 1;
#X connect 5 0 22 0;
#X connect 6 0 7 0;
#X connect 6 1 1 0;
#X connect 7 0 1 0;
#X connect 8 0 6 0;
#X connect 9 0 54 0;
#X connect 10 0 11 0;
#X connect 10 0 18 1;
#X connect 11 0 12 0;
#X connect 12 0 10 0;
#X connect 13 0 8 0;
#X connect 13 0 18 0;
#X connect 17 0 28 0;
#X connect 18 0 4 0;
#X connect 18 0 15 0;
#X connect 22 0 7 1;
#X connect 24 0 25 0;
#X connect 25 0 26 0;
#X connect 26 0 14 0;
#X connect 27 0 28 1;
#X connect 27 0 29 0;
#X connect 28 0 27 0;
#X connect 29 0 31 0;
#X connect 29 1 32 0;
#X connect 30 0 35 0;
#X connect 30 0 46 0;
#X connect 31 0 30 0;
#X connect 32 0 30 0;
#X connect 32 1 30 1;
#X connect 33 0 36 0;
#X connect 34 0 33 0;
#X connect 35 0 34 0;
#X connect 35 1 33 1;
#X connect 36 1 42 0;
#X connect 38 0 39 0;
#X connect 38 0 41 0;
#X connect 39 0 38 1;
#X connect 39 0 43 1;
#X connect 40 0 43 0;
#X connect 41 0 40 1;
#X connect 42 0 40 0;
#X connect 42 1 38 0;
#X connect 43 0 41 1;
#X connect 43 0 10 0;
#X connect 44 0 38 1;
#X connect 44 0 28 1;
#X connect 46 0 49 1;
#X connect 46 1 49 0;
#X connect 47 1 44 0;
#X connect 49 0 52 0;
#X connect 50 0 53 0;
#X connect 51 0 53 1;
#X connect 52 0 50 0;
#X connect 52 1 51 0;
#X connect 53 0 47 0;
#X connect 54 0 13 0;
#X connect 54 1 13 0;
#X connect 54 2 12 0;
#X connect 55 0 13 0;
#X connect 56 0 17 0;
#X coords 0 -1 1 1 120 30 1 100 100;
#X restore 58 -117 pd songpos96-16;
#X obj -96 -21 adc~;
#N canvas 357 142 1044 912 pcf1s 0;
#X obj 313 592 inlet~;
#X obj -94 605 inlet~;
#X obj 242 1059 outlet~;
#X obj 454 1131 outlet~;
#X obj 668 13 inlet;
#X obj 342 105 vsl 8 90 20 120 0 1 empty empty ct 0 100 1 8 -225271
-1 -1 5300 1;
#X obj 304 105 vsl 8 90 0 50 0 1 empty empty sq 0 100 1 8 -233017 -1
-1 7600 1;
#X obj 65 810 *~;
#X obj 118 816 *~;
#X obj 199 857 *~;
#X obj 412 889 *~;
#X obj 502 911 *~;
#X obj 583 959 *~;
#X obj 368 104 vsl 8 90 0 1 0 1 empty empty lp 0 100 1 8 -262144 -1
-1 4700 1;
#X obj 381 104 vsl 8 90 0 1 0 1 empty empty bp 0 100 1 8 -262144 -1
-1 7400 1;
#X obj 394 104 vsl 8 90 0 1 0 1 empty empty hp 0 100 1 8 -262144 -1
-1 2500 1;
#X text 714 13 <-bpm;
#X obj 108 200 hsl 175 8 0 15 0 0 empty empty empty -2 -6 0 8 -262144
-258699 -1 13920 1;
#X obj 291 106 vsl 8 90 0 1 0 1 empty empty gl 0 100 1 8 -262144 -1
-1 1000 1;
#X obj 104 121 vsl 8 73 -1 1 0 1 empty empty empty 0 -8 0 8 -262144
-1 -1 400 1;
#X obj 115 121 vsl 8 73 -1 1 0 1 empty empty empty 0 -8 0 8 -262144
-1 -1 3400 1;
#X obj 127 121 vsl 8 73 -1 1 0 1 empty empty empty 0 -8 0 8 -262144
-1 -1 1300 1;
#X obj 139 121 vsl 8 73 -1 1 0 1 empty empty empty 0 -8 0 8 -262144
-1 -1 2600 1;
#X obj 151 121 vsl 8 73 -1 1 0 1 empty empty empty 0 -8 0 8 -262144
-1 -1 4200 1;
#X obj 162 121 vsl 8 73 -1 1 0 1 empty empty empty 0 -8 0 8 -262144
-1 -1 2100 1;
#X obj 173 121 vsl 8 73 -1 1 0 1 empty empty empty 0 -8 0 8 -262144
-1 -1 800 1;
#X obj 185 121 vsl 8 73 -1 1 0 1 empty empty empty 0 -8 0 8 -262144
-1 -1 2000 1;
#X obj 196 121 vsl 8 73 -1 1 0 1 empty empty empty 0 -8 0 8 -262144
-1 -1 5000 1;
#X obj 208 121 vsl 8 73 -1 1 0 1 empty empty empty 0 -8 0 8 -262144
-1 -1 5600 1;
#X obj 219 121 vsl 8 73 -1 1 0 1 empty empty empty 0 -8 0 8 -262144
-1 -1 900 1;
#X obj 231 121 vsl 8 73 -1 1 0 1 empty empty empty 0 -8 0 8 -262144
-1 -1 2800 1;
#X obj 243 121 vsl 8 73 -1 1 0 1 empty empty empty 0 -8 0 8 -262144
-1 -1 5900 1;
#X obj 254 121 vsl 8 73 -1 1 0 1 empty empty empty 0 -8 0 8 -262144
-1 -1 3800 1;
#X obj 265 121 vsl 8 73 -1 1 0 1 empty empty empty 0 -8 0 8 -262144
-1 -1 1600 1;
#X obj 277 121 vsl 8 73 -1 1 0 1 empty empty empty 0 -8 0 8 -262144
-1 -1 0 1;
#X obj 316 105 vsl 8 90 0.01 12 1 1 empty empty fr 0 100 1 8 -262144
-1 -1 2700 1;
#X obj 329 105 vsl 8 90 0 30 0 1 empty empty a 0 100 1 8 -262144 -1
-1 3100 1;
#X obj 145 291 f;
#X obj 172 291 f;
#X obj 199 291 f;
#X obj 226 291 f;
#X obj 255 291 f;
#X obj 282 291 f;
#X obj 309 291 f;
#X obj 336 291 f;
#X obj 364 291 f;
#X obj 391 291 f;
#X obj 418 291 f;
#X obj 445 291 f;
#X obj 474 291 f;
#X obj 501 291 f;
#X obj 528 291 f;
#X obj 555 291 f;
#X obj 426 -42 inlet;
#X obj 155 260 select 0 1 2 3 4 5 6 7 8 9 10 11 12 13 14 15;
#X text 469 -48 <-counter 0..15;
#X obj 94 848 +~;
#X obj 166 883 +~;
#X obj 471 939 +~;
#X obj 497 1019 +~;
#X obj 217 29 mod;
#X obj 517 384 pack 0 0;
#X msg 659 179 1;
#X obj 666 202 /;
#X obj 667 227 * 15000;
#X obj 625 284 *;
#X obj 600 248 float;
#X obj 661 151 t b b f;
#X obj 862 391 inlet;
#X text 902 392 <-tp;
#X obj 249 998 +~;
#X obj 287 978 *~;
#X obj 221 971 *~;
#X obj 339 898 * -1;
#X obj 339 922 + 1;
#X obj 406 104 vsl 8 90 0 1 0 1 empty empty d/w 0 100 1 8 -262144 -1
-1 7000 1;
#X obj 439 1073 +~;
#X obj 482 1049 *~;
#X obj 419 1048 *~;
#X obj 454 1103 clip~ -1 1;
#X obj 240 1030 clip~ -1 1;
#X obj 518 362 t f;
#X obj 507 414 line 36 4;
#X obj 139 490 +;
#X obj 134 469 *;
#X obj 141 517 +;
#X obj 126 542 +;
#X obj 124 604 clip 0 128;
#X obj 219 400 *~;
#X obj 292 472 *~;
#X obj 476 523 *~;
#X obj 26 412 *;
#X msg 16 198 bang;
#X obj 14 223 metro 5;
#X obj 6 290 float;
#X obj 18 334 + 1;
#X obj 46 334 / 200;
#X obj 48 304 wrap;
#X obj 20 383 cos;
#X obj 9 357 * 6.28319;
#X obj 123 630 change;
#X obj 22 452 t b f;
#X obj 249 102 nbx 3 14 2 16 0 1 empty empty len -20 7 0 10 -262144
-1 -1 15 256;
#X obj 184 104 hsl 40 8 -30 30 0 0 empty empty lfo -24 5 0 10 -262144
-1 -1 1289 1;
#N canvas 705 79 1076 1000 lopass2p2zm 0;
#X obj -222 90 inlet~;
#X obj 133 939 outlet~;
#X obj 205 50 samplerate~;
#X text 102 462 a1/a3;
#X text 229 499 b1;
#X text 384 433 b2;
#X text 393 32 resonance 0..1;
#X text 120 49 cutoff (hz);
#X text 420 186 a2= 2*a1 \, a3=a1;
#X text 420 150 c= 1/tan(pi*cutf/samplerate);
#X text 422 168 a1= 1/(1+res*c+c*c);
#X text 421 204 b1= 2*(1-c*c)*a1;
#X text 421 220 b2= (1-res*c+c*c)*a1;
#X obj 33 690 czero~;
#X obj 59 727 czero~;
#X obj 73 646 sig~ -1;
#X obj 90 670 sig~ 0;
#X obj 90 841 cpole~;
#X obj 129 888 cpole~;
#X text 28 627 zeros at fixed pos;
#X obj 178 840 *~ -1;
#X obj 177 813 expr~ sqrt($v1);
#X obj -44 595 *~;
#X text 219 845 2nd pole = 1st mirrored on the x axis;
#X text 183 704 b1/2 (x pos);
#X text 267 11 cookbook-like? (i cant remember where i got this from)
lp-filter;
#X obj 178 789 -~;
#X text 217 666 pole position from coeffs:;
#X text 218 683 p=-b1/2+j*sqrt(b2-(b1/2)^2) (found somewhere on the
net...);
#X obj 351 169 -;
#X obj 346 114 t b f;
#X obj 354 35 inlet;
#X msg 342 136 1;
#X obj 343 194 * 1.41421;
#X obj 79 49 inlet;
#X obj 133 151 * 3.14159;
#X obj 151 181 / 44100;
#X obj 150 212 expr tan($f1);
#X obj 148 293 /;
#X msg 130 266 1;
#X obj 142 243 t b f;
#X obj 144 339 t f f;
#X obj 147 366 *;
#X obj 239 372 *;
#X obj 237 395 + 1;
#X obj 355 85 float 0.5;
#X obj 105 118 t f b;
#X obj 344 57 t f b;
#X obj 175 440 +;
#X obj 162 462 t b f;
#X msg 158 484 1;
#X obj 169 507 /;
#X obj 409 388 *;
#X obj 409 484 -;
#X obj 404 429 t b f;
#X msg 400 451 1;
#X obj 379 549 +;
#X obj 105 97 float 440;
#X obj 248 514 -;
#X obj 238 458 t b f;
#X msg 239 481 1;
#X obj 246 536 * 2;
#X obj 175 411 t f f f;
#X obj 160 621 *;
#X obj 340 608 *~;
#X obj 131 703 * -0.5;
#X obj 153 725 t f f;
#X obj 154 748 *;
#X connect 0 0 22 0;
#X connect 2 0 36 1;
#X connect 13 0 14 0;
#X connect 13 1 14 1;
#X connect 14 0 17 0;
#X connect 14 1 17 1;
#X connect 15 0 13 2;
#X connect 15 0 14 2;
#X connect 16 0 14 3;
#X connect 16 0 13 3;
#X connect 17 0 18 0;
#X connect 17 1 18 1;
#X connect 18 0 1 0;
#X connect 20 0 18 3;
#X connect 21 0 17 3;
#X connect 21 0 20 0;
#X connect 22 0 13 0;
#X connect 26 0 21 0;
#X connect 29 0 33 0;
#X connect 30 0 32 0;
#X connect 30 1 29 1;
#X connect 31 0 47 0;
#X connect 32 0 29 0;
#X connect 33 0 43 1;
#X connect 33 0 52 1;
#X connect 34 0 57 0;
#X connect 35 0 36 0;
#X connect 36 0 37 0;
#X connect 37 0 40 0;
#X connect 38 0 41 0;
#X connect 38 0 52 0;
#X connect 39 0 38 0;
#X connect 40 0 39 0;
#X connect 40 1 38 1;
#X connect 41 0 42 0;
#X connect 41 1 42 1;
#X connect 41 1 43 0;
#X connect 42 0 62 0;
#X connect 43 0 44 0;
#X connect 44 0 48 1;
#X connect 45 0 30 0;
#X connect 46 0 35 0;
#X connect 46 1 45 0;
#X connect 47 0 45 0;
#X connect 47 1 57 0;
#X connect 48 0 49 0;
#X connect 49 0 50 0;
#X connect 49 1 51 1;
#X connect 50 0 51 0;
#X connect 51 0 22 1;
#X connect 51 0 63 0;
#X connect 51 0 64 0;
#X connect 52 0 54 0;
#X connect 53 0 56 0;
#X connect 54 0 55 0;
#X connect 54 1 53 1;
#X connect 55 0 53 0;
#X connect 56 0 64 1;
#X connect 57 0 46 0;
#X connect 58 0 61 0;
#X connect 59 0 60 0;
#X connect 59 1 58 1;
#X connect 60 0 58 0;
#X connect 61 0 63 1;
#X connect 62 0 48 0;
#X connect 62 1 59 0;
#X connect 62 2 56 1;
#X connect 63 0 65 0;
#X connect 64 0 26 0;
#X connect 65 0 17 2;
#X connect 65 0 18 2;
#X connect 65 0 66 0;
#X connect 66 0 67 0;
#X connect 66 1 67 1;
#X connect 67 0 26 1;
#X restore -28 704 pd lopass2p2zm;
#N canvas 486 219 1076 837 hipass2p2zm 0;
#X obj -47 497 inlet~;
#X obj 128 927 outlet~;
#X text 391 24 resonance 0..1;
#X text 156 94 cutoff (hz);
#X text 572 141 c= tan(pi*cutf/samplerate);
#X obj 245 49 samplerate~;
#X text 91 160 c;
#X obj 137 290 sig~ 1;
#X obj 165 418 /~;
#X text 573 165 a1= 1/(1+res+c+c*c);
#X text 573 186 a2= -2*a1;
#X text 99 483 a2;
#X text 136 349 a1/a3;
#X text 574 205 b1= 2*(c*c-1)*a1;
#X text 256 428 b1;
#X text 384 379 b2;
#X obj 353 534 *~;
#X text 573 221 b2= (1-res*c+c*c)*a1;
#X obj 33 690 czero~;
#X obj 59 727 czero~;
#X obj 90 841 cpole~;
#X obj 129 888 cpole~;
#X obj 178 840 *~ -1;
#X obj 184 805 expr~ sqrt($v1);
#X obj -44 595 *~;
#X obj 128 704 *~ -0.5;
#X text 219 845 2nd pole = 1st mirrored on the x axis;
#X text 183 704 b1/2 (x pos);
#X obj 163 748 *~;
#X obj 183 781 -~;
#X text 217 666 pole position from coeffs:;
#X text 218 683 p=-b1/2+j*sqrt(b2-(b1/2)^2) (found somewhere on the
net...);
#X text 573 99 cookbook-like? (i cant remember where i got this from)
hp-filter;
#X obj 90 670 sig~ 0;
#X obj 73 646 sig~ 1;
#X text 44 625 zeros at fixed pos;
#X obj 67 26 inlet;
#X obj 348 25 inlet;
#X obj 108 128 * 3.14159;
#X obj 135 159 / 44100;
#X obj 140 186 expr tan($f1);
#X obj 351 169 -;
#X obj 346 114 t b f;
#X msg 342 136 1;
#X obj 354 86 float 0.5;
#X obj 355 62 t f b;
#X obj 352 203 * 1.41421;
#X obj 88 93 t f b;
#X obj 72 53 float 440;
#X obj 137 223 t f f;
#X obj 194 284 *;
#X obj 273 282 *;
#X obj 197 348 +;
#X obj 196 374 + 1;
#X obj 120 440 /;
#X msg 102 413 1;
#X obj 114 390 t b f;
#X obj 287 439 - 1;
#X obj 283 465 * 2;
#X obj 237 524 *~;
#X obj 411 430 -;
#X obj 406 375 t b f;
#X msg 402 397 1;
#X obj 410 326 *;
#X obj 397 485 +~;
#X connect 0 0 24 0;
#X connect 5 0 39 1;
#X connect 7 0 8 0;
#X connect 16 0 29 0;
#X connect 18 0 19 0;
#X connect 18 1 19 1;
#X connect 19 0 20 0;
#X connect 19 1 20 1;
#X connect 20 0 21 0;
#X connect 20 1 21 1;
#X connect 21 0 1 0;
#X connect 22 0 21 3;
#X connect 23 0 20 3;
#X connect 23 0 22 0;
#X connect 24 0 18 0;
#X connect 25 0 20 2;
#X connect 25 0 21 2;
#X connect 25 0 28 0;
#X connect 25 0 28 1;
#X connect 28 0 29 1;
#X connect 29 0 23 0;
#X connect 33 0 19 3;
#X connect 33 0 18 3;
#X connect 34 0 18 2;
#X connect 34 0 19 2;
#X connect 36 0 48 0;
#X connect 37 0 45 0;
#X connect 38 0 39 0;
#X connect 39 0 40 0;
#X connect 40 0 49 0;
#X connect 40 0 63 0;
#X connect 41 0 46 0;
#X connect 42 0 43 0;
#X connect 42 1 41 1;
#X connect 43 0 41 0;
#X connect 44 0 42 0;
#X connect 45 0 44 0;
#X connect 45 1 48 0;
#X connect 46 0 51 1;
#X connect 46 0 63 1;
#X connect 47 0 38 0;
#X connect 47 1 44 0;
#X connect 48 0 47 0;
#X connect 49 0 50 0;
#X connect 49 1 50 1;
#X connect 49 1 51 0;
#X connect 50 0 52 0;
#X connect 50 0 57 0;
#X connect 50 0 64 0;
#X connect 51 0 52 1;
#X connect 52 0 53 0;
#X connect 53 0 8 1;
#X connect 53 0 56 0;
#X connect 54 0 24 1;
#X connect 54 0 16 0;
#X connect 54 0 59 0;
#X connect 55 0 54 0;
#X connect 56 0 55 0;
#X connect 56 1 54 1;
#X connect 57 0 58 0;
#X connect 58 0 59 1;
#X connect 59 0 25 0;
#X connect 60 0 64 1;
#X connect 61 0 62 0;
#X connect 61 1 60 1;
#X connect 62 0 60 0;
#X connect 63 0 61 0;
#X connect 64 0 16 1;
#X restore 214 751 pd hipass2p2zm;
#X obj 411 415 float;
#X obj 354 105 vsl 8 90 0.01 0.99 0 1 empty empty rs 0 100 1 8 -261689
-1 -1 5100 1;
#N canvas 705 79 1076 1000 lopass2p2zm 0;
#X obj -222 90 inlet~;
#X obj 133 939 outlet~;
#X obj 205 50 samplerate~;
#X text 102 462 a1/a3;
#X text 229 499 b1;
#X text 384 433 b2;
#X text 393 32 resonance 0..1;
#X text 120 49 cutoff (hz);
#X text 420 186 a2= 2*a1 \, a3=a1;
#X text 420 150 c= 1/tan(pi*cutf/samplerate);
#X text 422 168 a1= 1/(1+res*c+c*c);
#X text 421 204 b1= 2*(1-c*c)*a1;
#X text 421 220 b2= (1-res*c+c*c)*a1;
#X obj 33 690 czero~;
#X obj 59 727 czero~;
#X obj 73 646 sig~ -1;
#X obj 90 670 sig~ 0;
#X obj 90 841 cpole~;
#X obj 129 888 cpole~;
#X text 28 627 zeros at fixed pos;
#X obj 178 840 *~ -1;
#X obj 177 813 expr~ sqrt($v1);
#X obj -44 595 *~;
#X text 219 845 2nd pole = 1st mirrored on the x axis;
#X text 183 704 b1/2 (x pos);
#X text 267 11 cookbook-like? (i cant remember where i got this from)
lp-filter;
#X obj 178 789 -~;
#X text 217 666 pole position from coeffs:;
#X text 218 683 p=-b1/2+j*sqrt(b2-(b1/2)^2) (found somewhere on the
net...);
#X obj 351 169 -;
#X obj 346 114 t b f;
#X obj 354 35 inlet;
#X msg 342 136 1;
#X obj 343 194 * 1.41421;
#X obj 79 49 inlet;
#X obj 133 151 * 3.14159;
#X obj 151 181 / 44100;
#X obj 150 212 expr tan($f1);
#X obj 148 293 /;
#X msg 130 266 1;
#X obj 142 243 t b f;
#X obj 144 339 t f f;
#X obj 147 366 *;
#X obj 239 372 *;
#X obj 237 395 + 1;
#X obj 355 85 float 0.5;
#X obj 105 118 t f b;
#X obj 344 57 t f b;
#X obj 175 440 +;
#X obj 162 462 t b f;
#X msg 158 484 1;
#X obj 169 507 /;
#X obj 409 388 *;
#X obj 409 484 -;
#X obj 404 429 t b f;
#X msg 400 451 1;
#X obj 379 549 +;
#X obj 105 97 float 440;
#X obj 248 514 -;
#X obj 238 458 t b f;
#X msg 239 481 1;
#X obj 246 536 * 2;
#X obj 175 411 t f f f;
#X obj 160 621 *;
#X obj 340 608 *~;
#X obj 131 703 * -0.5;
#X obj 153 725 t f f;
#X obj 154 748 *;
#X connect 0 0 22 0;
#X connect 2 0 36 1;
#X connect 13 0 14 0;
#X connect 13 1 14 1;
#X connect 14 0 17 0;
#X connect 14 1 17 1;
#X connect 15 0 13 2;
#X connect 15 0 14 2;
#X connect 16 0 14 3;
#X connect 16 0 13 3;
#X connect 17 0 18 0;
#X connect 17 1 18 1;
#X connect 18 0 1 0;
#X connect 20 0 18 3;
#X connect 21 0 17 3;
#X connect 21 0 20 0;
#X connect 22 0 13 0;
#X connect 26 0 21 0;
#X connect 29 0 33 0;
#X connect 30 0 32 0;
#X connect 30 1 29 1;
#X connect 31 0 47 0;
#X connect 32 0 29 0;
#X connect 33 0 43 1;
#X connect 33 0 52 1;
#X connect 34 0 57 0;
#X connect 35 0 36 0;
#X connect 36 0 37 0;
#X connect 37 0 40 0;
#X connect 38 0 41 0;
#X connect 38 0 52 0;
#X connect 39 0 38 0;
#X connect 40 0 39 0;
#X connect 40 1 38 1;
#X connect 41 0 42 0;
#X connect 41 1 42 1;
#X connect 41 1 43 0;
#X connect 42 0 62 0;
#X connect 43 0 44 0;
#X connect 44 0 48 1;
#X connect 45 0 30 0;
#X connect 46 0 35 0;
#X connect 46 1 45 0;
#X connect 47 0 45 0;
#X connect 47 1 57 0;
#X connect 48 0 49 0;
#X connect 49 0 50 0;
#X connect 49 1 51 1;
#X connect 50 0 51 0;
#X connect 51 0 22 1;
#X connect 51 0 63 0;
#X connect 51 0 64 0;
#X connect 52 0 54 0;
#X connect 53 0 56 0;
#X connect 54 0 55 0;
#X connect 54 1 53 1;
#X connect 55 0 53 0;
#X connect 56 0 64 1;
#X connect 57 0 46 0;
#X connect 58 0 61 0;
#X connect 59 0 60 0;
#X connect 59 1 58 1;
#X connect 60 0 58 0;
#X connect 61 0 63 1;
#X connect 62 0 48 0;
#X connect 62 1 59 0;
#X connect 62 2 56 1;
#X connect 63 0 65 0;
#X connect 64 0 26 0;
#X connect 65 0 17 2;
#X connect 65 0 18 2;
#X connect 65 0 66 0;
#X connect 66 0 67 0;
#X connect 66 1 67 1;
#X connect 67 0 26 1;
#X restore -28 731 pd lopass2p2zm;
#N canvas 486 219 1076 837 hipass2p2zm 0;
#X obj -47 497 inlet~;
#X obj 128 927 outlet~;
#X text 391 24 resonance 0..1;
#X text 156 94 cutoff (hz);
#X text 572 141 c= tan(pi*cutf/samplerate);
#X obj 245 49 samplerate~;
#X text 91 160 c;
#X obj 137 290 sig~ 1;
#X obj 165 418 /~;
#X text 573 165 a1= 1/(1+res+c+c*c);
#X text 573 186 a2= -2*a1;
#X text 99 483 a2;
#X text 136 349 a1/a3;
#X text 574 205 b1= 2*(c*c-1)*a1;
#X text 256 428 b1;
#X text 384 379 b2;
#X obj 353 534 *~;
#X text 573 221 b2= (1-res*c+c*c)*a1;
#X obj 33 690 czero~;
#X obj 59 727 czero~;
#X obj 90 841 cpole~;
#X obj 129 888 cpole~;
#X obj 178 840 *~ -1;
#X obj 184 805 expr~ sqrt($v1);
#X obj -44 595 *~;
#X obj 128 704 *~ -0.5;
#X text 219 845 2nd pole = 1st mirrored on the x axis;
#X text 183 704 b1/2 (x pos);
#X obj 163 748 *~;
#X obj 183 781 -~;
#X text 217 666 pole position from coeffs:;
#X text 218 683 p=-b1/2+j*sqrt(b2-(b1/2)^2) (found somewhere on the
net...);
#X text 573 99 cookbook-like? (i cant remember where i got this from)
hp-filter;
#X obj 90 670 sig~ 0;
#X obj 73 646 sig~ 1;
#X text 44 625 zeros at fixed pos;
#X obj 67 26 inlet;
#X obj 348 25 inlet;
#X obj 108 128 * 3.14159;
#X obj 135 159 / 44100;
#X obj 140 186 expr tan($f1);
#X obj 351 169 -;
#X obj 346 114 t b f;
#X msg 342 136 1;
#X obj 354 86 float 0.5;
#X obj 355 62 t f b;
#X obj 352 203 * 1.41421;
#X obj 88 93 t f b;
#X obj 72 53 float 440;
#X obj 137 223 t f f;
#X obj 194 284 *;
#X obj 273 282 *;
#X obj 197 348 +;
#X obj 196 374 + 1;
#X obj 120 440 /;
#X msg 102 413 1;
#X obj 114 390 t b f;
#X obj 287 439 - 1;
#X obj 283 465 * 2;
#X obj 237 524 *~;
#X obj 411 430 -;
#X obj 406 375 t b f;
#X msg 402 397 1;
#X obj 410 326 *;
#X obj 397 485 +~;
#X connect 0 0 24 0;
#X connect 5 0 39 1;
#X connect 7 0 8 0;
#X connect 16 0 29 0;
#X connect 18 0 19 0;
#X connect 18 1 19 1;
#X connect 19 0 20 0;
#X connect 19 1 20 1;
#X connect 20 0 21 0;
#X connect 20 1 21 1;
#X connect 21 0 1 0;
#X connect 22 0 21 3;
#X connect 23 0 20 3;
#X connect 23 0 22 0;
#X connect 24 0 18 0;
#X connect 25 0 20 2;
#X connect 25 0 21 2;
#X connect 25 0 28 0;
#X connect 25 0 28 1;
#X connect 28 0 29 1;
#X connect 29 0 23 0;
#X connect 33 0 19 3;
#X connect 33 0 18 3;
#X connect 34 0 18 2;
#X connect 34 0 19 2;
#X connect 36 0 48 0;
#X connect 37 0 45 0;
#X connect 38 0 39 0;
#X connect 39 0 40 0;
#X connect 40 0 49 0;
#X connect 40 0 63 0;
#X connect 41 0 46 0;
#X connect 42 0 43 0;
#X connect 42 1 41 1;
#X connect 43 0 41 0;
#X connect 44 0 42 0;
#X connect 45 0 44 0;
#X connect 45 1 48 0;
#X connect 46 0 51 1;
#X connect 46 0 63 1;
#X connect 47 0 38 0;
#X connect 47 1 44 0;
#X connect 48 0 47 0;
#X connect 49 0 50 0;
#X connect 49 1 50 1;
#X connect 49 1 51 0;
#X connect 50 0 52 0;
#X connect 50 0 57 0;
#X connect 50 0 64 0;
#X connect 51 0 52 1;
#X connect 52 0 53 0;
#X connect 53 0 8 1;
#X connect 53 0 56 0;
#X connect 54 0 24 1;
#X connect 54 0 16 0;
#X connect 54 0 59 0;
#X connect 55 0 54 0;
#X connect 56 0 55 0;
#X connect 56 1 54 1;
#X connect 57 0 58 0;
#X connect 58 0 59 1;
#X connect 59 0 25 0;
#X connect 60 0 64 1;
#X connect 61 0 62 0;
#X connect 61 1 60 1;
#X connect 62 0 60 0;
#X connect 63 0 61 0;
#X connect 64 0 16 1;
#X restore 213 775 pd hipass2p2zm;
#X obj 55 584 clip 0 128;
#X obj 53 633 mtof;
#X obj 54 610 change;
#X obj 196 593 clip 0 128;
#X obj 194 642 mtof;
#X obj 195 619 change;
#X obj 99 562 + 6;
#X obj 194 570 - 6;
#N canvas 705 79 1076 1000 lopass2p2zm 0;
#X obj -222 90 inlet~;
#X obj 133 939 outlet~;
#X obj 205 50 samplerate~;
#X text 102 462 a1/a3;
#X text 229 499 b1;
#X text 384 433 b2;
#X text 393 32 resonance 0..1;
#X text 120 49 cutoff (hz);
#X text 420 186 a2= 2*a1 \, a3=a1;
#X text 420 150 c= 1/tan(pi*cutf/samplerate);
#X text 422 168 a1= 1/(1+res*c+c*c);
#X text 421 204 b1= 2*(1-c*c)*a1;
#X text 421 220 b2= (1-res*c+c*c)*a1;
#X obj 33 690 czero~;
#X obj 59 727 czero~;
#X obj 73 646 sig~ -1;
#X obj 90 670 sig~ 0;
#X obj 90 841 cpole~;
#X obj 129 888 cpole~;
#X text 28 627 zeros at fixed pos;
#X obj 178 840 *~ -1;
#X obj 177 813 expr~ sqrt($v1);
#X obj -44 595 *~;
#X text 219 845 2nd pole = 1st mirrored on the x axis;
#X text 183 704 b1/2 (x pos);
#X text 267 11 cookbook-like? (i cant remember where i got this from)
lp-filter;
#X obj 178 789 -~;
#X text 217 666 pole position from coeffs:;
#X text 218 683 p=-b1/2+j*sqrt(b2-(b1/2)^2) (found somewhere on the
net...);
#X obj 351 169 -;
#X obj 346 114 t b f;
#X obj 354 35 inlet;
#X msg 342 136 1;
#X obj 343 194 * 1.41421;
#X obj 79 49 inlet;
#X obj 133 151 * 3.14159;
#X obj 151 181 / 44100;
#X obj 150 212 expr tan($f1);
#X obj 148 293 /;
#X msg 130 266 1;
#X obj 142 243 t b f;
#X obj 144 339 t f f;
#X obj 147 366 *;
#X obj 239 372 *;
#X obj 237 395 + 1;
#X obj 355 85 float 0.5;
#X obj 105 118 t f b;
#X obj 344 57 t f b;
#X obj 175 440 +;
#X obj 162 462 t b f;
#X msg 158 484 1;
#X obj 169 507 /;
#X obj 409 388 *;
#X obj 409 484 -;
#X obj 404 429 t b f;
#X msg 400 451 1;
#X obj 379 549 +;
#X obj 105 97 float 440;
#X obj 248 514 -;
#X obj 238 458 t b f;
#X msg 239 481 1;
#X obj 246 536 * 2;
#X obj 175 411 t f f f;
#X obj 160 621 *;
#X obj 340 608 *~;
#X obj 131 703 * -0.5;
#X obj 153 725 t f f;
#X obj 154 748 *;
#X connect 0 0 22 0;
#X connect 2 0 36 1;
#X connect 13 0 14 0;
#X connect 13 1 14 1;
#X connect 14 0 17 0;
#X connect 14 1 17 1;
#X connect 15 0 13 2;
#X connect 15 0 14 2;
#X connect 16 0 14 3;
#X connect 16 0 13 3;
#X connect 17 0 18 0;
#X connect 17 1 18 1;
#X connect 18 0 1 0;
#X connect 20 0 18 3;
#X connect 21 0 17 3;
#X connect 21 0 20 0;
#X connect 22 0 13 0;
#X connect 26 0 21 0;
#X connect 29 0 33 0;
#X connect 30 0 32 0;
#X connect 30 1 29 1;
#X connect 31 0 47 0;
#X connect 32 0 29 0;
#X connect 33 0 43 1;
#X connect 33 0 52 1;
#X connect 34 0 57 0;
#X connect 35 0 36 0;
#X connect 36 0 37 0;
#X connect 37 0 40 0;
#X connect 38 0 41 0;
#X connect 38 0 52 0;
#X connect 39 0 38 0;
#X connect 40 0 39 0;
#X connect 40 1 38 1;
#X connect 41 0 42 0;
#X connect 41 1 42 1;
#X connect 41 1 43 0;
#X connect 42 0 62 0;
#X connect 43 0 44 0;
#X connect 44 0 48 1;
#X connect 45 0 30 0;
#X connect 46 0 35 0;
#X connect 46 1 45 0;
#X connect 47 0 45 0;
#X connect 47 1 57 0;
#X connect 48 0 49 0;
#X connect 49 0 50 0;
#X connect 49 1 51 1;
#X connect 50 0 51 0;
#X connect 51 0 22 1;
#X connect 51 0 63 0;
#X connect 51 0 64 0;
#X connect 52 0 54 0;
#X connect 53 0 56 0;
#X connect 54 0 55 0;
#X connect 54 1 53 1;
#X connect 55 0 53 0;
#X connect 56 0 64 1;
#X connect 57 0 46 0;
#X connect 58 0 61 0;
#X connect 59 0 60 0;
#X connect 59 1 58 1;
#X connect 60 0 58 0;
#X connect 61 0 63 1;
#X connect 62 0 48 0;
#X connect 62 1 59 0;
#X connect 62 2 56 1;
#X connect 63 0 65 0;
#X connect 64 0 26 0;
#X connect 65 0 17 2;
#X connect 65 0 18 2;
#X connect 65 0 66 0;
#X connect 66 0 67 0;
#X connect 66 1 67 1;
#X connect 67 0 26 1;
#X restore 81 726 pd lopass2p2zm;
#N canvas 486 219 1076 837 hipass2p2zm 0;
#X obj -47 497 inlet~;
#X obj 128 927 outlet~;
#X text 391 24 resonance 0..1;
#X text 156 94 cutoff (hz);
#X text 572 141 c= tan(pi*cutf/samplerate);
#X obj 245 49 samplerate~;
#X text 91 160 c;
#X obj 137 290 sig~ 1;
#X obj 165 418 /~;
#X text 573 165 a1= 1/(1+res+c+c*c);
#X text 573 186 a2= -2*a1;
#X text 99 483 a2;
#X text 136 349 a1/a3;
#X text 574 205 b1= 2*(c*c-1)*a1;
#X text 256 428 b1;
#X text 384 379 b2;
#X obj 353 534 *~;
#X text 573 221 b2= (1-res*c+c*c)*a1;
#X obj 33 690 czero~;
#X obj 59 727 czero~;
#X obj 90 841 cpole~;
#X obj 129 888 cpole~;
#X obj 178 840 *~ -1;
#X obj 184 805 expr~ sqrt($v1);
#X obj -44 595 *~;
#X obj 128 704 *~ -0.5;
#X text 219 845 2nd pole = 1st mirrored on the x axis;
#X text 183 704 b1/2 (x pos);
#X obj 163 748 *~;
#X obj 183 781 -~;
#X text 217 666 pole position from coeffs:;
#X text 218 683 p=-b1/2+j*sqrt(b2-(b1/2)^2) (found somewhere on the
net...);
#X text 573 99 cookbook-like? (i cant remember where i got this from)
hp-filter;
#X obj 90 670 sig~ 0;
#X obj 73 646 sig~ 1;
#X text 44 625 zeros at fixed pos;
#X obj 67 26 inlet;
#X obj 348 25 inlet;
#X obj 108 128 * 3.14159;
#X obj 135 159 / 44100;
#X obj 140 186 expr tan($f1);
#X obj 351 169 -;
#X obj 346 114 t b f;
#X msg 342 136 1;
#X obj 354 86 float 0.5;
#X obj 355 62 t f b;
#X obj 352 203 * 1.41421;
#X obj 88 93 t f b;
#X obj 72 53 float 440;
#X obj 137 223 t f f;
#X obj 194 284 *;
#X obj 273 282 *;
#X obj 197 348 +;
#X obj 196 374 + 1;
#X obj 120 440 /;
#X msg 102 413 1;
#X obj 114 390 t b f;
#X obj 287 439 - 1;
#X obj 283 465 * 2;
#X obj 237 524 *~;
#X obj 411 430 -;
#X obj 406 375 t b f;
#X msg 402 397 1;
#X obj 410 326 *;
#X obj 397 485 +~;
#X connect 0 0 24 0;
#X connect 5 0 39 1;
#X connect 7 0 8 0;
#X connect 16 0 29 0;
#X connect 18 0 19 0;
#X connect 18 1 19 1;
#X connect 19 0 20 0;
#X connect 19 1 20 1;
#X connect 20 0 21 0;
#X connect 20 1 21 1;
#X connect 21 0 1 0;
#X connect 22 0 21 3;
#X connect 23 0 20 3;
#X connect 23 0 22 0;
#X connect 24 0 18 0;
#X connect 25 0 20 2;
#X connect 25 0 21 2;
#X connect 25 0 28 0;
#X connect 25 0 28 1;
#X connect 28 0 29 1;
#X connect 29 0 23 0;
#X connect 33 0 19 3;
#X connect 33 0 18 3;
#X connect 34 0 18 2;
#X connect 34 0 19 2;
#X connect 36 0 48 0;
#X connect 37 0 45 0;
#X connect 38 0 39 0;
#X connect 39 0 40 0;
#X connect 40 0 49 0;
#X connect 40 0 63 0;
#X connect 41 0 46 0;
#X connect 42 0 43 0;
#X connect 42 1 41 1;
#X connect 43 0 41 0;
#X connect 44 0 42 0;
#X connect 45 0 44 0;
#X connect 45 1 48 0;
#X connect 46 0 51 1;
#X connect 46 0 63 1;
#X connect 47 0 38 0;
#X connect 47 1 44 0;
#X connect 48 0 47 0;
#X connect 49 0 50 0;
#X connect 49 1 50 1;
#X connect 49 1 51 0;
#X connect 50 0 52 0;
#X connect 50 0 57 0;
#X connect 50 0 64 0;
#X connect 51 0 52 1;
#X connect 52 0 53 0;
#X connect 53 0 8 1;
#X connect 53 0 56 0;
#X connect 54 0 24 1;
#X connect 54 0 16 0;
#X connect 54 0 59 0;
#X connect 55 0 54 0;
#X connect 56 0 55 0;
#X connect 56 1 54 1;
#X connect 57 0 58 0;
#X connect 58 0 59 1;
#X connect 59 0 25 0;
#X connect 60 0 64 1;
#X connect 61 0 62 0;
#X connect 61 1 60 1;
#X connect 62 0 60 0;
#X connect 63 0 61 0;
#X connect 64 0 16 1;
#X restore 80 756 pd hipass2p2zm;
#N canvas 703 79 1076 1000 lopass2p2zm 0;
#X obj -222 90 inlet~;
#X obj 133 939 outlet~;
#X obj 205 50 samplerate~;
#X text 102 462 a1/a3;
#X text 229 499 b1;
#X text 384 433 b2;
#X text 393 32 resonance 0..1;
#X text 120 49 cutoff (hz);
#X text 420 186 a2= 2*a1 \, a3=a1;
#X text 420 150 c= 1/tan(pi*cutf/samplerate);
#X text 422 168 a1= 1/(1+res*c+c*c);
#X text 421 204 b1= 2*(1-c*c)*a1;
#X text 421 220 b2= (1-res*c+c*c)*a1;
#X obj 33 690 czero~;
#X obj 59 727 czero~;
#X obj 73 646 sig~ -1;
#X obj 90 670 sig~ 0;
#X obj 90 841 cpole~;
#X obj 129 888 cpole~;
#X text 28 627 zeros at fixed pos;
#X obj 178 840 *~ -1;
#X obj 177 813 expr~ sqrt($v1);
#X obj -44 595 *~;
#X text 219 845 2nd pole = 1st mirrored on the x axis;
#X text 183 704 b1/2 (x pos);
#X text 267 11 cookbook-like? (i cant remember where i got this from)
lp-filter;
#X obj 178 789 -~;
#X text 217 666 pole position from coeffs:;
#X text 218 683 p=-b1/2+j*sqrt(b2-(b1/2)^2) (found somewhere on the
net...);
#X obj 351 169 -;
#X obj 346 114 t b f;
#X obj 354 35 inlet;
#X msg 342 136 1;
#X obj 343 194 * 1.41421;
#X obj 79 49 inlet;
#X obj 133 151 * 3.14159;
#X obj 151 181 / 44100;
#X obj 150 212 expr tan($f1);
#X obj 148 293 /;
#X msg 130 266 1;
#X obj 142 243 t b f;
#X obj 144 339 t f f;
#X obj 147 366 *;
#X obj 239 372 *;
#X obj 237 395 + 1;
#X obj 355 85 float 0.5;
#X obj 105 118 t f b;
#X obj 344 57 t f b;
#X obj 175 440 +;
#X obj 162 462 t b f;
#X msg 158 484 1;
#X obj 169 507 /;
#X obj 409 388 *;
#X obj 409 484 -;
#X obj 404 429 t b f;
#X msg 400 451 1;
#X obj 379 549 +;
#X obj 105 97 float 440;
#X obj 248 514 -;
#X obj 238 458 t b f;
#X msg 239 481 1;
#X obj 246 536 * 2;
#X obj 175 411 t f f f;
#X obj 160 621 *;
#X obj 340 608 *~;
#X obj 131 703 * -0.5;
#X obj 153 725 t f f;
#X obj 154 748 *;
#X connect 0 0 22 0;
#X connect 2 0 36 1;
#X connect 13 0 14 0;
#X connect 13 1 14 1;
#X connect 14 0 17 0;
#X connect 14 1 17 1;
#X connect 15 0 13 2;
#X connect 15 0 14 2;
#X connect 16 0 14 3;
#X connect 16 0 13 3;
#X connect 17 0 18 0;
#X connect 17 1 18 1;
#X connect 18 0 1 0;
#X connect 20 0 18 3;
#X connect 21 0 17 3;
#X connect 21 0 20 0;
#X connect 22 0 13 0;
#X connect 26 0 21 0;
#X connect 29 0 33 0;
#X connect 30 0 32 0;
#X connect 30 1 29 1;
#X connect 31 0 47 0;
#X connect 32 0 29 0;
#X connect 33 0 43 1;
#X connect 33 0 52 1;
#X connect 34 0 57 0;
#X connect 35 0 36 0;
#X connect 36 0 37 0;
#X connect 37 0 40 0;
#X connect 38 0 41 0;
#X connect 38 0 52 0;
#X connect 39 0 38 0;
#X connect 40 0 39 0;
#X connect 40 1 38 1;
#X connect 41 0 42 0;
#X connect 41 1 42 1;
#X connect 41 1 43 0;
#X connect 42 0 62 0;
#X connect 43 0 44 0;
#X connect 44 0 48 1;
#X connect 45 0 30 0;
#X connect 46 0 35 0;
#X connect 46 1 45 0;
#X connect 47 0 45 0;
#X connect 47 1 57 0;
#X connect 48 0 49 0;
#X connect 49 0 50 0;
#X connect 49 1 51 1;
#X connect 50 0 51 0;
#X connect 51 0 22 1;
#X connect 51 0 63 0;
#X connect 51 0 64 0;
#X connect 52 0 54 0;
#X connect 53 0 56 0;
#X connect 54 0 55 0;
#X connect 54 1 53 1;
#X connect 55 0 53 0;
#X connect 56 0 64 1;
#X connect 57 0 46 0;
#X connect 58 0 61 0;
#X connect 59 0 60 0;
#X connect 59 1 58 1;
#X connect 60 0 58 0;
#X connect 61 0 63 1;
#X connect 62 0 48 0;
#X connect 62 1 59 0;
#X connect 62 2 56 1;
#X connect 63 0 65 0;
#X connect 64 0 26 0;
#X connect 65 0 17 2;
#X connect 65 0 18 2;
#X connect 65 0 66 0;
#X connect 66 0 67 0;
#X connect 66 1 67 1;
#X connect 67 0 26 1;
#X restore 402 773 pd lopass2p2zm;
#N canvas 486 219 1076 837 hipass2p2zm 0;
#X obj -47 497 inlet~;
#X obj 128 927 outlet~;
#X text 391 24 resonance 0..1;
#X text 156 94 cutoff (hz);
#X text 572 141 c= tan(pi*cutf/samplerate);
#X obj 245 49 samplerate~;
#X text 91 160 c;
#X obj 137 290 sig~ 1;
#X obj 165 418 /~;
#X text 573 165 a1= 1/(1+res+c+c*c);
#X text 573 186 a2= -2*a1;
#X text 99 483 a2;
#X text 136 349 a1/a3;
#X text 574 205 b1= 2*(c*c-1)*a1;
#X text 256 428 b1;
#X text 384 379 b2;
#X obj 353 534 *~;
#X text 573 221 b2= (1-res*c+c*c)*a1;
#X obj 33 690 czero~;
#X obj 59 727 czero~;
#X obj 90 841 cpole~;
#X obj 129 888 cpole~;
#X obj 178 840 *~ -1;
#X obj 184 805 expr~ sqrt($v1);
#X obj -44 595 *~;
#X obj 128 704 *~ -0.5;
#X text 219 845 2nd pole = 1st mirrored on the x axis;
#X text 183 704 b1/2 (x pos);
#X obj 163 748 *~;
#X obj 183 781 -~;
#X text 217 666 pole position from coeffs:;
#X text 218 683 p=-b1/2+j*sqrt(b2-(b1/2)^2) (found somewhere on the
net...);
#X text 573 99 cookbook-like? (i cant remember where i got this from)
hp-filter;
#X obj 90 670 sig~ 0;
#X obj 73 646 sig~ 1;
#X text 44 625 zeros at fixed pos;
#X obj 67 26 inlet;
#X obj 348 25 inlet;
#X obj 108 128 * 3.14159;
#X obj 135 159 / 44100;
#X obj 140 186 expr tan($f1);
#X obj 351 169 -;
#X obj 346 114 t b f;
#X msg 342 136 1;
#X obj 354 86 float 0.5;
#X obj 355 62 t f b;
#X obj 352 203 * 1.41421;
#X obj 88 93 t f b;
#X obj 72 53 float 440;
#X obj 137 223 t f f;
#X obj 194 284 *;
#X obj 273 282 *;
#X obj 197 348 +;
#X obj 196 374 + 1;
#X obj 120 440 /;
#X msg 102 413 1;
#X obj 114 390 t b f;
#X obj 287 439 - 1;
#X obj 283 465 * 2;
#X obj 237 524 *~;
#X obj 411 430 -;
#X obj 406 375 t b f;
#X msg 402 397 1;
#X obj 410 326 *;
#X obj 397 485 +~;
#X connect 0 0 24 0;
#X connect 5 0 39 1;
#X connect 7 0 8 0;
#X connect 16 0 29 0;
#X connect 18 0 19 0;
#X connect 18 1 19 1;
#X connect 19 0 20 0;
#X connect 19 1 20 1;
#X connect 20 0 21 0;
#X connect 20 1 21 1;
#X connect 21 0 1 0;
#X connect 22 0 21 3;
#X connect 23 0 20 3;
#X connect 23 0 22 0;
#X connect 24 0 18 0;
#X connect 25 0 20 2;
#X connect 25 0 21 2;
#X connect 25 0 28 0;
#X connect 25 0 28 1;
#X connect 28 0 29 1;
#X connect 29 0 23 0;
#X connect 33 0 19 3;
#X connect 33 0 18 3;
#X connect 34 0 18 2;
#X connect 34 0 19 2;
#X connect 36 0 48 0;
#X connect 37 0 45 0;
#X connect 38 0 39 0;
#X connect 39 0 40 0;
#X connect 40 0 49 0;
#X connect 40 0 63 0;
#X connect 41 0 46 0;
#X connect 42 0 43 0;
#X connect 42 1 41 1;
#X connect 43 0 41 0;
#X connect 44 0 42 0;
#X connect 45 0 44 0;
#X connect 45 1 48 0;
#X connect 46 0 51 1;
#X connect 46 0 63 1;
#X connect 47 0 38 0;
#X connect 47 1 44 0;
#X connect 48 0 47 0;
#X connect 49 0 50 0;
#X connect 49 1 50 1;
#X connect 49 1 51 0;
#X connect 50 0 52 0;
#X connect 50 0 57 0;
#X connect 50 0 64 0;
#X connect 51 0 52 1;
#X connect 52 0 53 0;
#X connect 53 0 8 1;
#X connect 53 0 56 0;
#X connect 54 0 24 1;
#X connect 54 0 16 0;
#X connect 54 0 59 0;
#X connect 55 0 54 0;
#X connect 56 0 55 0;
#X connect 56 1 54 1;
#X connect 57 0 58 0;
#X connect 58 0 59 1;
#X connect 59 0 25 0;
#X connect 60 0 64 1;
#X connect 61 0 62 0;
#X connect 61 1 60 1;
#X connect 62 0 60 0;
#X connect 63 0 61 0;
#X connect 64 0 16 1;
#X restore 644 820 pd hipass2p2zm;
#N canvas 705 79 1076 1000 lopass2p2zm 0;
#X obj -222 90 inlet~;
#X obj 133 939 outlet~;
#X obj 205 50 samplerate~;
#X text 102 462 a1/a3;
#X text 229 499 b1;
#X text 384 433 b2;
#X text 393 32 resonance 0..1;
#X text 120 49 cutoff (hz);
#X text 420 186 a2= 2*a1 \, a3=a1;
#X text 420 150 c= 1/tan(pi*cutf/samplerate);
#X text 422 168 a1= 1/(1+res*c+c*c);
#X text 421 204 b1= 2*(1-c*c)*a1;
#X text 421 220 b2= (1-res*c+c*c)*a1;
#X obj 33 690 czero~;
#X obj 59 727 czero~;
#X obj 73 646 sig~ -1;
#X obj 90 670 sig~ 0;
#X obj 90 841 cpole~;
#X obj 129 888 cpole~;
#X text 28 627 zeros at fixed pos;
#X obj 178 840 *~ -1;
#X obj 177 813 expr~ sqrt($v1);
#X obj -44 595 *~;
#X text 219 845 2nd pole = 1st mirrored on the x axis;
#X text 183 704 b1/2 (x pos);
#X text 267 11 cookbook-like? (i cant remember where i got this from)
lp-filter;
#X obj 178 789 -~;
#X text 217 666 pole position from coeffs:;
#X text 218 683 p=-b1/2+j*sqrt(b2-(b1/2)^2) (found somewhere on the
net...);
#X obj 351 169 -;
#X obj 346 114 t b f;
#X obj 354 35 inlet;
#X msg 342 136 1;
#X obj 343 194 * 1.41421;
#X obj 79 49 inlet;
#X obj 133 151 * 3.14159;
#X obj 151 181 / 44100;
#X obj 150 212 expr tan($f1);
#X obj 148 293 /;
#X msg 130 266 1;
#X obj 142 243 t b f;
#X obj 144 339 t f f;
#X obj 147 366 *;
#X obj 239 372 *;
#X obj 237 395 + 1;
#X obj 355 85 float 0.5;
#X obj 105 118 t f b;
#X obj 344 57 t f b;
#X obj 175 440 +;
#X obj 162 462 t b f;
#X msg 158 484 1;
#X obj 169 507 /;
#X obj 409 388 *;
#X obj 409 484 -;
#X obj 404 429 t b f;
#X msg 400 451 1;
#X obj 379 549 +;
#X obj 105 97 float 440;
#X obj 248 514 -;
#X obj 238 458 t b f;
#X msg 239 481 1;
#X obj 246 536 * 2;
#X obj 175 411 t f f f;
#X obj 160 621 *;
#X obj 340 608 *~;
#X obj 131 703 * -0.5;
#X obj 153 725 t f f;
#X obj 154 748 *;
#X connect 0 0 22 0;
#X connect 2 0 36 1;
#X connect 13 0 14 0;
#X connect 13 1 14 1;
#X connect 14 0 17 0;
#X connect 14 1 17 1;
#X connect 15 0 13 2;
#X connect 15 0 14 2;
#X connect 16 0 14 3;
#X connect 16 0 13 3;
#X connect 17 0 18 0;
#X connect 17 1 18 1;
#X connect 18 0 1 0;
#X connect 20 0 18 3;
#X connect 21 0 17 3;
#X connect 21 0 20 0;
#X connect 22 0 13 0;
#X connect 26 0 21 0;
#X connect 29 0 33 0;
#X connect 30 0 32 0;
#X connect 30 1 29 1;
#X connect 31 0 47 0;
#X connect 32 0 29 0;
#X connect 33 0 43 1;
#X connect 33 0 52 1;
#X connect 34 0 57 0;
#X connect 35 0 36 0;
#X connect 36 0 37 0;
#X connect 37 0 40 0;
#X connect 38 0 41 0;
#X connect 38 0 52 0;
#X connect 39 0 38 0;
#X connect 40 0 39 0;
#X connect 40 1 38 1;
#X connect 41 0 42 0;
#X connect 41 1 42 1;
#X connect 41 1 43 0;
#X connect 42 0 62 0;
#X connect 43 0 44 0;
#X connect 44 0 48 1;
#X connect 45 0 30 0;
#X connect 46 0 35 0;
#X connect 46 1 45 0;
#X connect 47 0 45 0;
#X connect 47 1 57 0;
#X connect 48 0 49 0;
#X connect 49 0 50 0;
#X connect 49 1 51 1;
#X connect 50 0 51 0;
#X connect 51 0 22 1;
#X connect 51 0 63 0;
#X connect 51 0 64 0;
#X connect 52 0 54 0;
#X connect 53 0 56 0;
#X connect 54 0 55 0;
#X connect 54 1 53 1;
#X connect 55 0 53 0;
#X connect 56 0 64 1;
#X connect 57 0 46 0;
#X connect 58 0 61 0;
#X connect 59 0 60 0;
#X connect 59 1 58 1;
#X connect 60 0 58 0;
#X connect 61 0 63 1;
#X connect 62 0 48 0;
#X connect 62 1 59 0;
#X connect 62 2 56 1;
#X connect 63 0 65 0;
#X connect 64 0 26 0;
#X connect 65 0 17 2;
#X connect 65 0 18 2;
#X connect 65 0 66 0;
#X connect 66 0 67 0;
#X connect 66 1 67 1;
#X connect 67 0 26 1;
#X restore 402 800 pd lopass2p2zm;
#N canvas 486 219 1076 837 hipass2p2zm 0;
#X obj -47 497 inlet~;
#X obj 128 927 outlet~;
#X text 391 24 resonance 0..1;
#X text 156 94 cutoff (hz);
#X text 572 141 c= tan(pi*cutf/samplerate);
#X obj 245 49 samplerate~;
#X text 91 160 c;
#X obj 137 290 sig~ 1;
#X obj 165 418 /~;
#X text 573 165 a1= 1/(1+res+c+c*c);
#X text 573 186 a2= -2*a1;
#X text 99 483 a2;
#X text 136 349 a1/a3;
#X text 574 205 b1= 2*(c*c-1)*a1;
#X text 256 428 b1;
#X text 384 379 b2;
#X obj 353 534 *~;
#X text 573 221 b2= (1-res*c+c*c)*a1;
#X obj 33 690 czero~;
#X obj 59 727 czero~;
#X obj 90 841 cpole~;
#X obj 129 888 cpole~;
#X obj 178 840 *~ -1;
#X obj 184 805 expr~ sqrt($v1);
#X obj -44 595 *~;
#X obj 128 704 *~ -0.5;
#X text 219 845 2nd pole = 1st mirrored on the x axis;
#X text 183 704 b1/2 (x pos);
#X obj 163 748 *~;
#X obj 183 781 -~;
#X text 217 666 pole position from coeffs:;
#X text 218 683 p=-b1/2+j*sqrt(b2-(b1/2)^2) (found somewhere on the
net...);
#X text 573 99 cookbook-like? (i cant remember where i got this from)
hp-filter;
#X obj 90 670 sig~ 0;
#X obj 73 646 sig~ 1;
#X text 44 625 zeros at fixed pos;
#X obj 67 26 inlet;
#X obj 348 25 inlet;
#X obj 108 128 * 3.14159;
#X obj 135 159 / 44100;
#X obj 140 186 expr tan($f1);
#X obj 351 169 -;
#X obj 346 114 t b f;
#X msg 342 136 1;
#X obj 354 86 float 0.5;
#X obj 355 62 t f b;
#X obj 352 203 * 1.41421;
#X obj 88 93 t f b;
#X obj 72 53 float 440;
#X obj 137 223 t f f;
#X obj 194 284 *;
#X obj 273 282 *;
#X obj 197 348 +;
#X obj 196 374 + 1;
#X obj 120 440 /;
#X msg 102 413 1;
#X obj 114 390 t b f;
#X obj 287 439 - 1;
#X obj 283 465 * 2;
#X obj 237 524 *~;
#X obj 411 430 -;
#X obj 406 375 t b f;
#X msg 402 397 1;
#X obj 410 326 *;
#X obj 397 485 +~;
#X connect 0 0 24 0;
#X connect 5 0 39 1;
#X connect 7 0 8 0;
#X connect 16 0 29 0;
#X connect 18 0 19 0;
#X connect 18 1 19 1;
#X connect 19 0 20 0;
#X connect 19 1 20 1;
#X connect 20 0 21 0;
#X connect 20 1 21 1;
#X connect 21 0 1 0;
#X connect 22 0 21 3;
#X connect 23 0 20 3;
#X connect 23 0 22 0;
#X connect 24 0 18 0;
#X connect 25 0 20 2;
#X connect 25 0 21 2;
#X connect 25 0 28 0;
#X connect 25 0 28 1;
#X connect 28 0 29 1;
#X connect 29 0 23 0;
#X connect 33 0 19 3;
#X connect 33 0 18 3;
#X connect 34 0 18 2;
#X connect 34 0 19 2;
#X connect 36 0 48 0;
#X connect 37 0 45 0;
#X connect 38 0 39 0;
#X connect 39 0 40 0;
#X connect 40 0 49 0;
#X connect 40 0 63 0;
#X connect 41 0 46 0;
#X connect 42 0 43 0;
#X connect 42 1 41 1;
#X connect 43 0 41 0;
#X connect 44 0 42 0;
#X connect 45 0 44 0;
#X connect 45 1 48 0;
#X connect 46 0 51 1;
#X connect 46 0 63 1;
#X connect 47 0 38 0;
#X connect 47 1 44 0;
#X connect 48 0 47 0;
#X connect 49 0 50 0;
#X connect 49 1 50 1;
#X connect 49 1 51 0;
#X connect 50 0 52 0;
#X connect 50 0 57 0;
#X connect 50 0 64 0;
#X connect 51 0 52 1;
#X connect 52 0 53 0;
#X connect 53 0 8 1;
#X connect 53 0 56 0;
#X connect 54 0 24 1;
#X connect 54 0 16 0;
#X connect 54 0 59 0;
#X connect 55 0 54 0;
#X connect 56 0 55 0;
#X connect 56 1 54 1;
#X connect 57 0 58 0;
#X connect 58 0 59 1;
#X connect 59 0 25 0;
#X connect 60 0 64 1;
#X connect 61 0 62 0;
#X connect 61 1 60 1;
#X connect 62 0 60 0;
#X connect 63 0 61 0;
#X connect 64 0 16 1;
#X restore 643 844 pd hipass2p2zm;
#N canvas 705 79 1076 1000 lopass2p2zm 0;
#X obj -222 90 inlet~;
#X obj 133 939 outlet~;
#X obj 205 50 samplerate~;
#X text 102 462 a1/a3;
#X text 229 499 b1;
#X text 384 433 b2;
#X text 393 32 resonance 0..1;
#X text 120 49 cutoff (hz);
#X text 420 186 a2= 2*a1 \, a3=a1;
#X text 420 150 c= 1/tan(pi*cutf/samplerate);
#X text 422 168 a1= 1/(1+res*c+c*c);
#X text 421 204 b1= 2*(1-c*c)*a1;
#X text 421 220 b2= (1-res*c+c*c)*a1;
#X obj 33 690 czero~;
#X obj 59 727 czero~;
#X obj 73 646 sig~ -1;
#X obj 90 670 sig~ 0;
#X obj 90 841 cpole~;
#X obj 129 888 cpole~;
#X text 28 627 zeros at fixed pos;
#X obj 178 840 *~ -1;
#X obj 177 813 expr~ sqrt($v1);
#X obj -44 595 *~;
#X text 219 845 2nd pole = 1st mirrored on the x axis;
#X text 183 704 b1/2 (x pos);
#X text 267 11 cookbook-like? (i cant remember where i got this from)
lp-filter;
#X obj 178 789 -~;
#X text 217 666 pole position from coeffs:;
#X text 218 683 p=-b1/2+j*sqrt(b2-(b1/2)^2) (found somewhere on the
net...);
#X obj 351 169 -;
#X obj 346 114 t b f;
#X obj 354 35 inlet;
#X msg 342 136 1;
#X obj 343 194 * 1.41421;
#X obj 79 49 inlet;
#X obj 133 151 * 3.14159;
#X obj 151 181 / 44100;
#X obj 150 212 expr tan($f1);
#X obj 148 293 /;
#X msg 130 266 1;
#X obj 142 243 t b f;
#X obj 144 339 t f f;
#X obj 147 366 *;
#X obj 239 372 *;
#X obj 237 395 + 1;
#X obj 355 85 float 0.5;
#X obj 105 118 t f b;
#X obj 344 57 t f b;
#X obj 175 440 +;
#X obj 162 462 t b f;
#X msg 158 484 1;
#X obj 169 507 /;
#X obj 409 388 *;
#X obj 409 484 -;
#X obj 404 429 t b f;
#X msg 400 451 1;
#X obj 379 549 +;
#X obj 105 97 float 440;
#X obj 248 514 -;
#X obj 238 458 t b f;
#X msg 239 481 1;
#X obj 246 536 * 2;
#X obj 175 411 t f f f;
#X obj 160 621 *;
#X obj 340 608 *~;
#X obj 131 703 * -0.5;
#X obj 153 725 t f f;
#X obj 154 748 *;
#X connect 0 0 22 0;
#X connect 2 0 36 1;
#X connect 13 0 14 0;
#X connect 13 1 14 1;
#X connect 14 0 17 0;
#X connect 14 1 17 1;
#X connect 15 0 13 2;
#X connect 15 0 14 2;
#X connect 16 0 14 3;
#X connect 16 0 13 3;
#X connect 17 0 18 0;
#X connect 17 1 18 1;
#X connect 18 0 1 0;
#X connect 20 0 18 3;
#X connect 21 0 17 3;
#X connect 21 0 20 0;
#X connect 22 0 13 0;
#X connect 26 0 21 0;
#X connect 29 0 33 0;
#X connect 30 0 32 0;
#X connect 30 1 29 1;
#X connect 31 0 47 0;
#X connect 32 0 29 0;
#X connect 33 0 43 1;
#X connect 33 0 52 1;
#X connect 34 0 57 0;
#X connect 35 0 36 0;
#X connect 36 0 37 0;
#X connect 37 0 40 0;
#X connect 38 0 41 0;
#X connect 38 0 52 0;
#X connect 39 0 38 0;
#X connect 40 0 39 0;
#X connect 40 1 38 1;
#X connect 41 0 42 0;
#X connect 41 1 42 1;
#X connect 41 1 43 0;
#X connect 42 0 62 0;
#X connect 43 0 44 0;
#X connect 44 0 48 1;
#X connect 45 0 30 0;
#X connect 46 0 35 0;
#X connect 46 1 45 0;
#X connect 47 0 45 0;
#X connect 47 1 57 0;
#X connect 48 0 49 0;
#X connect 49 0 50 0;
#X connect 49 1 51 1;
#X connect 50 0 51 0;
#X connect 51 0 22 1;
#X connect 51 0 63 0;
#X connect 51 0 64 0;
#X connect 52 0 54 0;
#X connect 53 0 56 0;
#X connect 54 0 55 0;
#X connect 54 1 53 1;
#X connect 55 0 53 0;
#X connect 56 0 64 1;
#X connect 57 0 46 0;
#X connect 58 0 61 0;
#X connect 59 0 60 0;
#X connect 59 1 58 1;
#X connect 60 0 58 0;
#X connect 61 0 63 1;
#X connect 62 0 48 0;
#X connect 62 1 59 0;
#X connect 62 2 56 1;
#X connect 63 0 65 0;
#X connect 64 0 26 0;
#X connect 65 0 17 2;
#X connect 65 0 18 2;
#X connect 65 0 66 0;
#X connect 66 0 67 0;
#X connect 66 1 67 1;
#X connect 67 0 26 1;
#X restore 511 795 pd lopass2p2zm;
#N canvas 486 219 1076 837 hipass2p2zm 0;
#X obj -47 497 inlet~;
#X obj 128 927 outlet~;
#X text 391 24 resonance 0..1;
#X text 156 94 cutoff (hz);
#X text 572 141 c= tan(pi*cutf/samplerate);
#X obj 245 49 samplerate~;
#X text 91 160 c;
#X obj 137 290 sig~ 1;
#X obj 165 418 /~;
#X text 573 165 a1= 1/(1+res+c+c*c);
#X text 573 186 a2= -2*a1;
#X text 99 483 a2;
#X text 136 349 a1/a3;
#X text 574 205 b1= 2*(c*c-1)*a1;
#X text 256 428 b1;
#X text 384 379 b2;
#X obj 353 534 *~;
#X text 573 221 b2= (1-res*c+c*c)*a1;
#X obj 33 690 czero~;
#X obj 59 727 czero~;
#X obj 90 841 cpole~;
#X obj 129 888 cpole~;
#X obj 178 840 *~ -1;
#X obj 184 805 expr~ sqrt($v1);
#X obj -44 595 *~;
#X obj 128 704 *~ -0.5;
#X text 219 845 2nd pole = 1st mirrored on the x axis;
#X text 183 704 b1/2 (x pos);
#X obj 163 748 *~;
#X obj 183 781 -~;
#X text 217 666 pole position from coeffs:;
#X text 218 683 p=-b1/2+j*sqrt(b2-(b1/2)^2) (found somewhere on the
net...);
#X text 573 99 cookbook-like? (i cant remember where i got this from)
hp-filter;
#X obj 90 670 sig~ 0;
#X obj 73 646 sig~ 1;
#X text 44 625 zeros at fixed pos;
#X obj 67 26 inlet;
#X obj 348 25 inlet;
#X obj 108 128 * 3.14159;
#X obj 135 159 / 44100;
#X obj 140 186 expr tan($f1);
#X obj 351 169 -;
#X obj 346 114 t b f;
#X msg 342 136 1;
#X obj 354 86 float 0.5;
#X obj 355 62 t f b;
#X obj 352 203 * 1.41421;
#X obj 88 93 t f b;
#X obj 72 53 float 440;
#X obj 137 223 t f f;
#X obj 194 284 *;
#X obj 273 282 *;
#X obj 197 348 +;
#X obj 196 374 + 1;
#X obj 120 440 /;
#X msg 102 413 1;
#X obj 114 390 t b f;
#X obj 287 439 - 1;
#X obj 283 465 * 2;
#X obj 237 524 *~;
#X obj 411 430 -;
#X obj 406 375 t b f;
#X msg 402 397 1;
#X obj 410 326 *;
#X obj 397 485 +~;
#X connect 0 0 24 0;
#X connect 5 0 39 1;
#X connect 7 0 8 0;
#X connect 16 0 29 0;
#X connect 18 0 19 0;
#X connect 18 1 19 1;
#X connect 19 0 20 0;
#X connect 19 1 20 1;
#X connect 20 0 21 0;
#X connect 20 1 21 1;
#X connect 21 0 1 0;
#X connect 22 0 21 3;
#X connect 23 0 20 3;
#X connect 23 0 22 0;
#X connect 24 0 18 0;
#X connect 25 0 20 2;
#X connect 25 0 21 2;
#X connect 25 0 28 0;
#X connect 25 0 28 1;
#X connect 28 0 29 1;
#X connect 29 0 23 0;
#X connect 33 0 19 3;
#X connect 33 0 18 3;
#X connect 34 0 18 2;
#X connect 34 0 19 2;
#X connect 36 0 48 0;
#X connect 37 0 45 0;
#X connect 38 0 39 0;
#X connect 39 0 40 0;
#X connect 40 0 49 0;
#X connect 40 0 63 0;
#X connect 41 0 46 0;
#X connect 42 0 43 0;
#X connect 42 1 41 1;
#X connect 43 0 41 0;
#X connect 44 0 42 0;
#X connect 45 0 44 0;
#X connect 45 1 48 0;
#X connect 46 0 51 1;
#X connect 46 0 63 1;
#X connect 47 0 38 0;
#X connect 47 1 44 0;
#X connect 48 0 47 0;
#X connect 49 0 50 0;
#X connect 49 1 50 1;
#X connect 49 1 51 0;
#X connect 50 0 52 0;
#X connect 50 0 57 0;
#X connect 50 0 64 0;
#X connect 51 0 52 1;
#X connect 52 0 53 0;
#X connect 53 0 8 1;
#X connect 53 0 56 0;
#X connect 54 0 24 1;
#X connect 54 0 16 0;
#X connect 54 0 59 0;
#X connect 55 0 54 0;
#X connect 56 0 55 0;
#X connect 56 1 54 1;
#X connect 57 0 58 0;
#X connect 58 0 59 1;
#X connect 59 0 25 0;
#X connect 60 0 64 1;
#X connect 61 0 62 0;
#X connect 61 1 60 1;
#X connect 62 0 60 0;
#X connect 63 0 61 0;
#X connect 64 0 16 1;
#X restore 510 825 pd hipass2p2zm;
#X obj 122 652 mtof;
#X connect 0 0 78 0;
#X connect 0 0 120 0;
#X connect 0 0 124 0;
#X connect 0 0 121 0;
#X connect 1 0 72 1;
#X connect 1 0 104 0;
#X connect 1 0 105 0;
#X connect 1 0 118 0;
#X connect 4 0 67 0;
#X connect 4 0 92 0;
#X connect 5 0 83 1;
#X connect 6 0 84 1;
#X connect 7 0 56 0;
#X connect 8 0 56 1;
#X connect 9 0 57 1;
#X connect 10 0 58 0;
#X connect 11 0 58 1;
#X connect 12 0 59 1;
#X connect 13 0 88 0;
#X connect 13 0 88 1;
#X connect 14 0 89 0;
#X connect 14 0 89 1;
#X connect 15 0 90 0;
#X connect 15 0 90 1;
#X connect 18 0 66 0;
#X connect 19 0 37 1;
#X connect 20 0 38 1;
#X connect 21 0 39 1;
#X connect 22 0 40 1;
#X connect 23 0 41 1;
#X connect 24 0 42 1;
#X connect 25 0 43 1;
#X connect 26 0 44 1;
#X connect 27 0 45 1;
#X connect 28 0 46 1;
#X connect 29 0 47 1;
#X connect 30 0 48 1;
#X connect 31 0 49 1;
#X connect 32 0 50 1;
#X connect 33 0 51 1;
#X connect 34 0 52 1;
#X connect 35 0 96 0;
#X connect 36 0 91 1;
#X connect 37 0 81 0;
#X connect 38 0 81 0;
#X connect 39 0 81 0;
#X connect 40 0 81 0;
#X connect 41 0 81 0;
#X connect 42 0 81 0;
#X connect 43 0 81 0;
#X connect 44 0 81 0;
#X connect 45 0 81 0;
#X connect 46 0 81 0;
#X connect 47 0 81 0;
#X connect 48 0 81 0;
#X connect 49 0 81 0;
#X connect 50 0 81 0;
#X connect 51 0 81 0;
#X connect 52 0 81 0;
#X connect 53 0 60 0;
#X connect 54 0 37 0;
#X connect 54 1 38 0;
#X connect 54 2 39 0;
#X connect 54 3 40 0;
#X connect 54 4 41 0;
#X connect 54 5 42 0;
#X connect 54 6 43 0;
#X connect 54 7 44 0;
#X connect 54 8 45 0;
#X connect 54 9 46 0;
#X connect 54 10 47 0;
#X connect 54 11 48 0;
#X connect 54 12 49 0;
#X connect 54 13 50 0;
#X connect 54 14 51 0;
#X connect 54 15 52 0;
#X connect 56 0 57 0;
#X connect 57 0 71 1;
#X connect 58 0 59 0;
#X connect 59 0 77 1;
#X connect 60 0 54 0;
#X connect 60 0 17 0;
#X connect 61 0 82 0;
#X connect 62 0 63 0;
#X connect 63 0 64 0;
#X connect 64 0 65 1;
#X connect 65 0 61 1;
#X connect 66 0 65 0;
#X connect 67 0 66 0;
#X connect 67 1 62 0;
#X connect 67 2 63 1;
#X connect 68 0 85 1;
#X connect 70 0 80 0;
#X connect 71 0 70 1;
#X connect 72 0 70 0;
#X connect 73 0 74 0;
#X connect 74 0 72 0;
#X connect 74 0 78 1;
#X connect 75 0 73 0;
#X connect 75 0 71 0;
#X connect 75 0 77 0;
#X connect 76 0 79 0;
#X connect 77 0 76 1;
#X connect 78 0 76 0;
#X connect 79 0 3 0;
#X connect 80 0 2 0;
#X connect 81 0 61 0;
#X connect 82 0 84 0;
#X connect 83 0 85 0;
#X connect 84 0 83 0;
#X connect 85 0 86 0;
#X connect 86 0 87 0;
#X connect 86 0 116 0;
#X connect 86 0 117 0;
#X connect 87 0 100 0;
#X connect 88 0 7 1;
#X connect 88 0 10 1;
#X connect 89 0 8 1;
#X connect 89 0 11 1;
#X connect 90 0 9 1;
#X connect 90 0 12 1;
#X connect 91 0 101 0;
#X connect 91 0 103 0;
#X connect 92 0 93 0;
#X connect 93 0 94 0;
#X connect 94 0 95 0;
#X connect 95 0 97 0;
#X connect 95 0 99 0;
#X connect 96 0 95 1;
#X connect 97 0 94 1;
#X connect 98 0 91 0;
#X connect 99 0 98 0;
#X connect 100 0 126 0;
#X connect 101 0 86 0;
#X connect 101 1 86 1;
#X connect 102 0 60 1;
#X connect 104 0 108 0;
#X connect 105 0 109 0;
#X connect 106 0 104 2;
#X connect 106 0 108 2;
#X connect 106 0 105 2;
#X connect 106 0 109 2;
#X connect 106 0 118 2;
#X connect 106 0 119 2;
#X connect 106 0 120 2;
#X connect 106 0 122 2;
#X connect 106 0 124 2;
#X connect 106 0 125 2;
#X connect 106 0 121 2;
#X connect 106 0 123 2;
#X connect 107 0 106 0;
#X connect 108 0 7 0;
#X connect 109 0 9 0;
#X connect 110 0 112 0;
#X connect 111 0 118 1;
#X connect 111 0 124 1;
#X connect 112 0 111 0;
#X connect 113 0 115 0;
#X connect 114 0 119 1;
#X connect 114 0 125 1;
#X connect 115 0 114 0;
#X connect 116 0 110 0;
#X connect 117 0 113 0;
#X connect 118 0 119 0;
#X connect 119 0 8 0;
#X connect 120 0 122 0;
#X connect 121 0 123 0;
#X connect 122 0 10 0;
#X connect 123 0 12 0;
#X connect 124 0 125 0;
#X connect 125 0 11 0;
#X connect 126 0 104 1;
#X connect 126 0 108 1;
#X connect 126 0 105 1;
#X connect 126 0 109 1;
#X connect 126 0 122 1;
#X connect 126 0 120 1;
#X connect 126 0 121 1;
#X connect 126 0 123 1;
#X coords 0 -1 1 1 320 110 1 100 100;
#X restore -97 3 pd pcf1s;
#N canvas 355 143 1044 912 pcf1m 0;
#X obj -94 605 inlet~;
#X obj 242 1059 outlet~;
#X obj 668 13 inlet;
#X obj 342 105 vsl 8 90 20 120 0 1 empty empty ct 0 100 1 8 -225271
-1 -1 5300 1;
#X obj 304 105 vsl 8 90 0 50 0 1 empty empty sq 0 100 1 8 -233017 -1
-1 7600 1;
#X obj 65 810 *~;
#X obj 118 816 *~;
#X obj 199 857 *~;
#X obj 368 104 vsl 8 90 0 1 0 1 empty empty lp 0 100 1 8 -262144 -1
-1 4700 1;
#X obj 381 104 vsl 8 90 0 1 0 1 empty empty bp 0 100 1 8 -262144 -1
-1 7400 1;
#X obj 394 104 vsl 8 90 0 1 0 1 empty empty hp 0 100 1 8 -262144 -1
-1 2500 1;
#X text 714 13 <-bpm;
#X obj 108 200 hsl 175 8 0 15 0 0 empty empty empty -2 -6 0 8 -262144
-258699 -1 13920 1;
#X obj 291 106 vsl 8 90 0 1 0 1 empty empty gl 0 100 1 8 -262144 -1
-1 1000 1;
#X obj 104 121 vsl 8 73 -1 1 0 1 empty empty empty 0 -8 0 8 -262144
-1 -1 400 1;
#X obj 115 121 vsl 8 73 -1 1 0 1 empty empty empty 0 -8 0 8 -262144
-1 -1 3400 1;
#X obj 127 121 vsl 8 73 -1 1 0 1 empty empty empty 0 -8 0 8 -262144
-1 -1 1300 1;
#X obj 139 121 vsl 8 73 -1 1 0 1 empty empty empty 0 -8 0 8 -262144
-1 -1 2600 1;
#X obj 151 121 vsl 8 73 -1 1 0 1 empty empty empty 0 -8 0 8 -262144
-1 -1 4200 1;
#X obj 162 121 vsl 8 73 -1 1 0 1 empty empty empty 0 -8 0 8 -262144
-1 -1 2100 1;
#X obj 173 121 vsl 8 73 -1 1 0 1 empty empty empty 0 -8 0 8 -262144
-1 -1 800 1;
#X obj 185 121 vsl 8 73 -1 1 0 1 empty empty empty 0 -8 0 8 -262144
-1 -1 2000 1;
#X obj 196 121 vsl 8 73 -1 1 0 1 empty empty empty 0 -8 0 8 -262144
-1 -1 5000 1;
#X obj 208 121 vsl 8 73 -1 1 0 1 empty empty empty 0 -8 0 8 -262144
-1 -1 5600 1;
#X obj 219 121 vsl 8 73 -1 1 0 1 empty empty empty 0 -8 0 8 -262144
-1 -1 900 1;
#X obj 231 121 vsl 8 73 -1 1 0 1 empty empty empty 0 -8 0 8 -262144
-1 -1 2800 1;
#X obj 243 121 vsl 8 73 -1 1 0 1 empty empty empty 0 -8 0 8 -262144
-1 -1 5900 1;
#X obj 254 121 vsl 8 73 -1 1 0 1 empty empty empty 0 -8 0 8 -262144
-1 -1 3800 1;
#X obj 265 121 vsl 8 73 -1 1 0 1 empty empty empty 0 -8 0 8 -262144
-1 -1 1600 1;
#X obj 277 121 vsl 8 73 -1 1 0 1 empty empty empty 0 -8 0 8 -262144
-1 -1 0 1;
#X obj 316 105 vsl 8 90 0.01 12 1 1 empty empty fr 0 100 1 8 -262144
-1 -1 2700 1;
#X obj 329 105 vsl 8 90 0 30 0 1 empty empty a 0 100 1 8 -262144 -1
-1 3100 1;
#X obj 145 291 f;
#X obj 172 291 f;
#X obj 199 291 f;
#X obj 226 291 f;
#X obj 255 291 f;
#X obj 282 291 f;
#X obj 309 291 f;
#X obj 336 291 f;
#X obj 364 291 f;
#X obj 391 291 f;
#X obj 418 291 f;
#X obj 445 291 f;
#X obj 474 291 f;
#X obj 501 291 f;
#X obj 528 291 f;
#X obj 555 291 f;
#X obj 426 -42 inlet;
#X obj 155 260 select 0 1 2 3 4 5 6 7 8 9 10 11 12 13 14 15;
#X text 469 -48 <-counter 0..15;
#X obj 94 848 +~;
#X obj 166 883 +~;
#X obj 217 29 mod;
#X obj 517 384 pack 0 0;
#X msg 659 179 1;
#X obj 666 202 /;
#X obj 667 227 * 15000;
#X obj 625 284 *;
#X obj 600 248 float;
#X obj 661 151 t b b f;
#X obj 862 391 inlet;
#X text 902 392 <-tp;
#X obj 249 998 +~;
#X obj 287 978 *~;
#X obj 221 971 *~;
#X obj 322 896 * -1;
#X obj 322 920 + 1;
#X obj 406 104 vsl 8 90 0 1 0 1 empty empty d/w 0 100 1 8 -262144 -1
-1 7000 1;
#X obj 240 1030 clip~ -1 1;
#X obj 518 362 t f;
#X obj 507 414 line 36 4;
#X obj 139 490 +;
#X obj 134 469 *;
#X obj 141 517 +;
#X obj 126 542 +;
#X obj 124 604 clip 0 128;
#X obj 219 400 *~;
#X obj 292 472 *~;
#X obj 476 523 *~;
#X obj 26 412 *;
#X msg 16 198 bang;
#X obj 14 223 metro 5;
#X obj 6 290 float;
#X obj 18 334 + 1;
#X obj 46 334 / 200;
#X obj 48 304 wrap;
#X obj 20 383 cos;
#X obj 9 357 * 6.28319;
#X obj 123 630 change;
#X obj 22 452 t b f;
#X obj 249 102 nbx 3 14 2 16 0 1 empty empty len -20 7 0 10 -262144
-1 -1 15 256;
#X obj 184 104 hsl 40 8 -30 30 0 0 empty empty lfo -24 5 0 10 -262144
-1 -1 0 1;
#N canvas 705 79 1076 1000 lopass2p2zm 0;
#X obj -222 90 inlet~;
#X obj 133 939 outlet~;
#X obj 205 50 samplerate~;
#X text 102 462 a1/a3;
#X text 229 499 b1;
#X text 384 433 b2;
#X text 393 32 resonance 0..1;
#X text 120 49 cutoff (hz);
#X text 420 186 a2= 2*a1 \, a3=a1;
#X text 420 150 c= 1/tan(pi*cutf/samplerate);
#X text 422 168 a1= 1/(1+res*c+c*c);
#X text 421 204 b1= 2*(1-c*c)*a1;
#X text 421 220 b2= (1-res*c+c*c)*a1;
#X obj 33 690 czero~;
#X obj 59 727 czero~;
#X obj 73 646 sig~ -1;
#X obj 90 670 sig~ 0;
#X obj 90 841 cpole~;
#X obj 129 888 cpole~;
#X text 28 627 zeros at fixed pos;
#X obj 178 840 *~ -1;
#X obj 177 813 expr~ sqrt($v1);
#X obj -44 595 *~;
#X text 219 845 2nd pole = 1st mirrored on the x axis;
#X text 183 704 b1/2 (x pos);
#X text 267 11 cookbook-like? (i cant remember where i got this from)
lp-filter;
#X obj 178 789 -~;
#X text 217 666 pole position from coeffs:;
#X text 218 683 p=-b1/2+j*sqrt(b2-(b1/2)^2) (found somewhere on the
net...);
#X obj 351 169 -;
#X obj 346 114 t b f;
#X obj 354 35 inlet;
#X msg 342 136 1;
#X obj 343 194 * 1.41421;
#X obj 79 49 inlet;
#X obj 133 151 * 3.14159;
#X obj 151 181 / 44100;
#X obj 150 212 expr tan($f1);
#X obj 148 293 /;
#X msg 130 266 1;
#X obj 142 243 t b f;
#X obj 144 339 t f f;
#X obj 147 366 *;
#X obj 239 372 *;
#X obj 237 395 + 1;
#X obj 355 85 float 0.5;
#X obj 105 118 t f b;
#X obj 344 57 t f b;
#X obj 175 440 +;
#X obj 162 462 t b f;
#X msg 158 484 1;
#X obj 169 507 /;
#X obj 409 388 *;
#X obj 409 484 -;
#X obj 404 429 t b f;
#X msg 400 451 1;
#X obj 379 549 +;
#X obj 105 97 float 440;
#X obj 248 514 -;
#X obj 238 458 t b f;
#X msg 239 481 1;
#X obj 246 536 * 2;
#X obj 175 411 t f f f;
#X obj 160 621 *;
#X obj 340 608 *~;
#X obj 131 703 * -0.5;
#X obj 153 725 t f f;
#X obj 154 748 *;
#X connect 0 0 22 0;
#X connect 2 0 36 1;
#X connect 13 0 14 0;
#X connect 13 1 14 1;
#X connect 14 0 17 0;
#X connect 14 1 17 1;
#X connect 15 0 13 2;
#X connect 15 0 14 2;
#X connect 16 0 14 3;
#X connect 16 0 13 3;
#X connect 17 0 18 0;
#X connect 17 1 18 1;
#X connect 18 0 1 0;
#X connect 20 0 18 3;
#X connect 21 0 17 3;
#X connect 21 0 20 0;
#X connect 22 0 13 0;
#X connect 26 0 21 0;
#X connect 29 0 33 0;
#X connect 30 0 32 0;
#X connect 30 1 29 1;
#X connect 31 0 47 0;
#X connect 32 0 29 0;
#X connect 33 0 43 1;
#X connect 33 0 52 1;
#X connect 34 0 57 0;
#X connect 35 0 36 0;
#X connect 36 0 37 0;
#X connect 37 0 40 0;
#X connect 38 0 41 0;
#X connect 38 0 52 0;
#X connect 39 0 38 0;
#X connect 40 0 39 0;
#X connect 40 1 38 1;
#X connect 41 0 42 0;
#X connect 41 1 42 1;
#X connect 41 1 43 0;
#X connect 42 0 62 0;
#X connect 43 0 44 0;
#X connect 44 0 48 1;
#X connect 45 0 30 0;
#X connect 46 0 35 0;
#X connect 46 1 45 0;
#X connect 47 0 45 0;
#X connect 47 1 57 0;
#X connect 48 0 49 0;
#X connect 49 0 50 0;
#X connect 49 1 51 1;
#X connect 50 0 51 0;
#X connect 51 0 22 1;
#X connect 51 0 63 0;
#X connect 51 0 64 0;
#X connect 52 0 54 0;
#X connect 53 0 56 0;
#X connect 54 0 55 0;
#X connect 54 1 53 1;
#X connect 55 0 53 0;
#X connect 56 0 64 1;
#X connect 57 0 46 0;
#X connect 58 0 61 0;
#X connect 59 0 60 0;
#X connect 59 1 58 1;
#X connect 60 0 58 0;
#X connect 61 0 63 1;
#X connect 62 0 48 0;
#X connect 62 1 59 0;
#X connect 62 2 56 1;
#X connect 63 0 65 0;
#X connect 64 0 26 0;
#X connect 65 0 17 2;
#X connect 65 0 18 2;
#X connect 65 0 66 0;
#X connect 66 0 67 0;
#X connect 66 1 67 1;
#X connect 67 0 26 1;
#X restore -28 704 pd lopass2p2zm;
#N canvas 486 219 1076 837 hipass2p2zm 0;
#X obj -47 497 inlet~;
#X obj 128 927 outlet~;
#X text 391 24 resonance 0..1;
#X text 156 94 cutoff (hz);
#X text 572 141 c= tan(pi*cutf/samplerate);
#X obj 245 49 samplerate~;
#X text 91 160 c;
#X obj 137 290 sig~ 1;
#X obj 165 418 /~;
#X text 573 165 a1= 1/(1+res+c+c*c);
#X text 573 186 a2= -2*a1;
#X text 99 483 a2;
#X text 136 349 a1/a3;
#X text 574 205 b1= 2*(c*c-1)*a1;
#X text 256 428 b1;
#X text 384 379 b2;
#X obj 353 534 *~;
#X text 573 221 b2= (1-res*c+c*c)*a1;
#X obj 33 690 czero~;
#X obj 59 727 czero~;
#X obj 90 841 cpole~;
#X obj 129 888 cpole~;
#X obj 178 840 *~ -1;
#X obj 184 805 expr~ sqrt($v1);
#X obj -44 595 *~;
#X obj 128 704 *~ -0.5;
#X text 219 845 2nd pole = 1st mirrored on the x axis;
#X text 183 704 b1/2 (x pos);
#X obj 163 748 *~;
#X obj 183 781 -~;
#X text 217 666 pole position from coeffs:;
#X text 218 683 p=-b1/2+j*sqrt(b2-(b1/2)^2) (found somewhere on the
net...);
#X text 573 99 cookbook-like? (i cant remember where i got this from)
hp-filter;
#X obj 90 670 sig~ 0;
#X obj 73 646 sig~ 1;
#X text 44 625 zeros at fixed pos;
#X obj 67 26 inlet;
#X obj 348 25 inlet;
#X obj 108 128 * 3.14159;
#X obj 135 159 / 44100;
#X obj 140 186 expr tan($f1);
#X obj 351 169 -;
#X obj 346 114 t b f;
#X msg 342 136 1;
#X obj 354 86 float 0.5;
#X obj 355 62 t f b;
#X obj 352 203 * 1.41421;
#X obj 88 93 t f b;
#X obj 72 53 float 440;
#X obj 137 223 t f f;
#X obj 194 284 *;
#X obj 273 282 *;
#X obj 197 348 +;
#X obj 196 374 + 1;
#X obj 120 440 /;
#X msg 102 413 1;
#X obj 114 390 t b f;
#X obj 287 439 - 1;
#X obj 283 465 * 2;
#X obj 237 524 *~;
#X obj 411 430 -;
#X obj 406 375 t b f;
#X msg 402 397 1;
#X obj 410 326 *;
#X obj 397 485 +~;
#X connect 0 0 24 0;
#X connect 5 0 39 1;
#X connect 7 0 8 0;
#X connect 16 0 29 0;
#X connect 18 0 19 0;
#X connect 18 1 19 1;
#X connect 19 0 20 0;
#X connect 19 1 20 1;
#X connect 20 0 21 0;
#X connect 20 1 21 1;
#X connect 21 0 1 0;
#X connect 22 0 21 3;
#X connect 23 0 20 3;
#X connect 23 0 22 0;
#X connect 24 0 18 0;
#X connect 25 0 20 2;
#X connect 25 0 21 2;
#X connect 25 0 28 0;
#X connect 25 0 28 1;
#X connect 28 0 29 1;
#X connect 29 0 23 0;
#X connect 33 0 19 3;
#X connect 33 0 18 3;
#X connect 34 0 18 2;
#X connect 34 0 19 2;
#X connect 36 0 48 0;
#X connect 37 0 45 0;
#X connect 38 0 39 0;
#X connect 39 0 40 0;
#X connect 40 0 49 0;
#X connect 40 0 63 0;
#X connect 41 0 46 0;
#X connect 42 0 43 0;
#X connect 42 1 41 1;
#X connect 43 0 41 0;
#X connect 44 0 42 0;
#X connect 45 0 44 0;
#X connect 45 1 48 0;
#X connect 46 0 51 1;
#X connect 46 0 63 1;
#X connect 47 0 38 0;
#X connect 47 1 44 0;
#X connect 48 0 47 0;
#X connect 49 0 50 0;
#X connect 49 1 50 1;
#X connect 49 1 51 0;
#X connect 50 0 52 0;
#X connect 50 0 57 0;
#X connect 50 0 64 0;
#X connect 51 0 52 1;
#X connect 52 0 53 0;
#X connect 53 0 8 1;
#X connect 53 0 56 0;
#X connect 54 0 24 1;
#X connect 54 0 16 0;
#X connect 54 0 59 0;
#X connect 55 0 54 0;
#X connect 56 0 55 0;
#X connect 56 1 54 1;
#X connect 57 0 58 0;
#X connect 58 0 59 1;
#X connect 59 0 25 0;
#X connect 60 0 64 1;
#X connect 61 0 62 0;
#X connect 61 1 60 1;
#X connect 62 0 60 0;
#X connect 63 0 61 0;
#X connect 64 0 16 1;
#X restore 214 751 pd hipass2p2zm;
#X obj 411 415 float;
#X obj 354 105 vsl 8 90 0.01 0.99 0 1 empty empty rs 0 100 1 8 -261689
-1 -1 5100 1;
#N canvas 705 79 1076 1000 lopass2p2zm 0;
#X obj -222 90 inlet~;
#X obj 133 939 outlet~;
#X obj 205 50 samplerate~;
#X text 102 462 a1/a3;
#X text 229 499 b1;
#X text 384 433 b2;
#X text 393 32 resonance 0..1;
#X text 120 49 cutoff (hz);
#X text 420 186 a2= 2*a1 \, a3=a1;
#X text 420 150 c= 1/tan(pi*cutf/samplerate);
#X text 422 168 a1= 1/(1+res*c+c*c);
#X text 421 204 b1= 2*(1-c*c)*a1;
#X text 421 220 b2= (1-res*c+c*c)*a1;
#X obj 33 690 czero~;
#X obj 59 727 czero~;
#X obj 73 646 sig~ -1;
#X obj 90 670 sig~ 0;
#X obj 90 841 cpole~;
#X obj 129 888 cpole~;
#X text 28 627 zeros at fixed pos;
#X obj 178 840 *~ -1;
#X obj 177 813 expr~ sqrt($v1);
#X obj -44 595 *~;
#X text 219 845 2nd pole = 1st mirrored on the x axis;
#X text 183 704 b1/2 (x pos);
#X text 267 11 cookbook-like? (i cant remember where i got this from)
lp-filter;
#X obj 178 789 -~;
#X text 217 666 pole position from coeffs:;
#X text 218 683 p=-b1/2+j*sqrt(b2-(b1/2)^2) (found somewhere on the
net...);
#X obj 351 169 -;
#X obj 346 114 t b f;
#X obj 354 35 inlet;
#X msg 342 136 1;
#X obj 343 194 * 1.41421;
#X obj 79 49 inlet;
#X obj 133 151 * 3.14159;
#X obj 151 181 / 44100;
#X obj 150 212 expr tan($f1);
#X obj 148 293 /;
#X msg 130 266 1;
#X obj 142 243 t b f;
#X obj 144 339 t f f;
#X obj 147 366 *;
#X obj 239 372 *;
#X obj 237 395 + 1;
#X obj 355 85 float 0.5;
#X obj 105 118 t f b;
#X obj 344 57 t f b;
#X obj 175 440 +;
#X obj 162 462 t b f;
#X msg 158 484 1;
#X obj 169 507 /;
#X obj 409 388 *;
#X obj 409 484 -;
#X obj 404 429 t b f;
#X msg 400 451 1;
#X obj 379 549 +;
#X obj 105 97 float 440;
#X obj 248 514 -;
#X obj 238 458 t b f;
#X msg 239 481 1;
#X obj 246 536 * 2;
#X obj 175 411 t f f f;
#X obj 160 621 *;
#X obj 340 608 *~;
#X obj 131 703 * -0.5;
#X obj 153 725 t f f;
#X obj 154 748 *;
#X connect 0 0 22 0;
#X connect 2 0 36 1;
#X connect 13 0 14 0;
#X connect 13 1 14 1;
#X connect 14 0 17 0;
#X connect 14 1 17 1;
#X connect 15 0 13 2;
#X connect 15 0 14 2;
#X connect 16 0 14 3;
#X connect 16 0 13 3;
#X connect 17 0 18 0;
#X connect 17 1 18 1;
#X connect 18 0 1 0;
#X connect 20 0 18 3;
#X connect 21 0 17 3;
#X connect 21 0 20 0;
#X connect 22 0 13 0;
#X connect 26 0 21 0;
#X connect 29 0 33 0;
#X connect 30 0 32 0;
#X connect 30 1 29 1;
#X connect 31 0 47 0;
#X connect 32 0 29 0;
#X connect 33 0 43 1;
#X connect 33 0 52 1;
#X connect 34 0 57 0;
#X connect 35 0 36 0;
#X connect 36 0 37 0;
#X connect 37 0 40 0;
#X connect 38 0 41 0;
#X connect 38 0 52 0;
#X connect 39 0 38 0;
#X connect 40 0 39 0;
#X connect 40 1 38 1;
#X connect 41 0 42 0;
#X connect 41 1 42 1;
#X connect 41 1 43 0;
#X connect 42 0 62 0;
#X connect 43 0 44 0;
#X connect 44 0 48 1;
#X connect 45 0 30 0;
#X connect 46 0 35 0;
#X connect 46 1 45 0;
#X connect 47 0 45 0;
#X connect 47 1 57 0;
#X connect 48 0 49 0;
#X connect 49 0 50 0;
#X connect 49 1 51 1;
#X connect 50 0 51 0;
#X connect 51 0 22 1;
#X connect 51 0 63 0;
#X connect 51 0 64 0;
#X connect 52 0 54 0;
#X connect 53 0 56 0;
#X connect 54 0 55 0;
#X connect 54 1 53 1;
#X connect 55 0 53 0;
#X connect 56 0 64 1;
#X connect 57 0 46 0;
#X connect 58 0 61 0;
#X connect 59 0 60 0;
#X connect 59 1 58 1;
#X connect 60 0 58 0;
#X connect 61 0 63 1;
#X connect 62 0 48 0;
#X connect 62 1 59 0;
#X connect 62 2 56 1;
#X connect 63 0 65 0;
#X connect 64 0 26 0;
#X connect 65 0 17 2;
#X connect 65 0 18 2;
#X connect 65 0 66 0;
#X connect 66 0 67 0;
#X connect 66 1 67 1;
#X connect 67 0 26 1;
#X restore -28 731 pd lopass2p2zm;
#N canvas 486 219 1076 837 hipass2p2zm 0;
#X obj -47 497 inlet~;
#X obj 128 927 outlet~;
#X text 391 24 resonance 0..1;
#X text 156 94 cutoff (hz);
#X text 572 141 c= tan(pi*cutf/samplerate);
#X obj 245 49 samplerate~;
#X text 91 160 c;
#X obj 137 290 sig~ 1;
#X obj 165 418 /~;
#X text 573 165 a1= 1/(1+res+c+c*c);
#X text 573 186 a2= -2*a1;
#X text 99 483 a2;
#X text 136 349 a1/a3;
#X text 574 205 b1= 2*(c*c-1)*a1;
#X text 256 428 b1;
#X text 384 379 b2;
#X obj 353 534 *~;
#X text 573 221 b2= (1-res*c+c*c)*a1;
#X obj 33 690 czero~;
#X obj 59 727 czero~;
#X obj 90 841 cpole~;
#X obj 129 888 cpole~;
#X obj 178 840 *~ -1;
#X obj 184 805 expr~ sqrt($v1);
#X obj -44 595 *~;
#X obj 128 704 *~ -0.5;
#X text 219 845 2nd pole = 1st mirrored on the x axis;
#X text 183 704 b1/2 (x pos);
#X obj 163 748 *~;
#X obj 183 781 -~;
#X text 217 666 pole position from coeffs:;
#X text 218 683 p=-b1/2+j*sqrt(b2-(b1/2)^2) (found somewhere on the
net...);
#X text 573 99 cookbook-like? (i cant remember where i got this from)
hp-filter;
#X obj 90 670 sig~ 0;
#X obj 73 646 sig~ 1;
#X text 44 625 zeros at fixed pos;
#X obj 67 26 inlet;
#X obj 348 25 inlet;
#X obj 108 128 * 3.14159;
#X obj 135 159 / 44100;
#X obj 140 186 expr tan($f1);
#X obj 351 169 -;
#X obj 346 114 t b f;
#X msg 342 136 1;
#X obj 354 86 float 0.5;
#X obj 355 62 t f b;
#X obj 352 203 * 1.41421;
#X obj 88 93 t f b;
#X obj 72 53 float 440;
#X obj 137 223 t f f;
#X obj 194 284 *;
#X obj 273 282 *;
#X obj 197 348 +;
#X obj 196 374 + 1;
#X obj 120 440 /;
#X msg 102 413 1;
#X obj 114 390 t b f;
#X obj 287 439 - 1;
#X obj 283 465 * 2;
#X obj 237 524 *~;
#X obj 411 430 -;
#X obj 406 375 t b f;
#X msg 402 397 1;
#X obj 410 326 *;
#X obj 397 485 +~;
#X connect 0 0 24 0;
#X connect 5 0 39 1;
#X connect 7 0 8 0;
#X connect 16 0 29 0;
#X connect 18 0 19 0;
#X connect 18 1 19 1;
#X connect 19 0 20 0;
#X connect 19 1 20 1;
#X connect 20 0 21 0;
#X connect 20 1 21 1;
#X connect 21 0 1 0;
#X connect 22 0 21 3;
#X connect 23 0 20 3;
#X connect 23 0 22 0;
#X connect 24 0 18 0;
#X connect 25 0 20 2;
#X connect 25 0 21 2;
#X connect 25 0 28 0;
#X connect 25 0 28 1;
#X connect 28 0 29 1;
#X connect 29 0 23 0;
#X connect 33 0 19 3;
#X connect 33 0 18 3;
#X connect 34 0 18 2;
#X connect 34 0 19 2;
#X connect 36 0 48 0;
#X connect 37 0 45 0;
#X connect 38 0 39 0;
#X connect 39 0 40 0;
#X connect 40 0 49 0;
#X connect 40 0 63 0;
#X connect 41 0 46 0;
#X connect 42 0 43 0;
#X connect 42 1 41 1;
#X connect 43 0 41 0;
#X connect 44 0 42 0;
#X connect 45 0 44 0;
#X connect 45 1 48 0;
#X connect 46 0 51 1;
#X connect 46 0 63 1;
#X connect 47 0 38 0;
#X connect 47 1 44 0;
#X connect 48 0 47 0;
#X connect 49 0 50 0;
#X connect 49 1 50 1;
#X connect 49 1 51 0;
#X connect 50 0 52 0;
#X connect 50 0 57 0;
#X connect 50 0 64 0;
#X connect 51 0 52 1;
#X connect 52 0 53 0;
#X connect 53 0 8 1;
#X connect 53 0 56 0;
#X connect 54 0 24 1;
#X connect 54 0 16 0;
#X connect 54 0 59 0;
#X connect 55 0 54 0;
#X connect 56 0 55 0;
#X connect 56 1 54 1;
#X connect 57 0 58 0;
#X connect 58 0 59 1;
#X connect 59 0 25 0;
#X connect 60 0 64 1;
#X connect 61 0 62 0;
#X connect 61 1 60 1;
#X connect 62 0 60 0;
#X connect 63 0 61 0;
#X connect 64 0 16 1;
#X restore 213 775 pd hipass2p2zm;
#X obj 55 584 clip 0 128;
#X obj 53 633 mtof;
#X obj 54 610 change;
#X obj 196 593 clip 0 128;
#X obj 194 642 mtof;
#X obj 195 619 change;
#X obj 99 562 + 6;
#X obj 194 570 - 6;
#N canvas 705 79 1076 1000 lopass2p2zm 0;
#X obj -222 90 inlet~;
#X obj 133 939 outlet~;
#X obj 205 50 samplerate~;
#X text 102 462 a1/a3;
#X text 229 499 b1;
#X text 384 433 b2;
#X text 393 32 resonance 0..1;
#X text 120 49 cutoff (hz);
#X text 420 186 a2= 2*a1 \, a3=a1;
#X text 420 150 c= 1/tan(pi*cutf/samplerate);
#X text 422 168 a1= 1/(1+res*c+c*c);
#X text 421 204 b1= 2*(1-c*c)*a1;
#X text 421 220 b2= (1-res*c+c*c)*a1;
#X obj 33 690 czero~;
#X obj 59 727 czero~;
#X obj 73 646 sig~ -1;
#X obj 90 670 sig~ 0;
#X obj 90 841 cpole~;
#X obj 129 888 cpole~;
#X text 28 627 zeros at fixed pos;
#X obj 178 840 *~ -1;
#X obj 177 813 expr~ sqrt($v1);
#X obj -44 595 *~;
#X text 219 845 2nd pole = 1st mirrored on the x axis;
#X text 183 704 b1/2 (x pos);
#X text 267 11 cookbook-like? (i cant remember where i got this from)
lp-filter;
#X obj 178 789 -~;
#X text 217 666 pole position from coeffs:;
#X text 218 683 p=-b1/2+j*sqrt(b2-(b1/2)^2) (found somewhere on the
net...);
#X obj 351 169 -;
#X obj 346 114 t b f;
#X obj 354 35 inlet;
#X msg 342 136 1;
#X obj 343 194 * 1.41421;
#X obj 79 49 inlet;
#X obj 133 151 * 3.14159;
#X obj 151 181 / 44100;
#X obj 150 212 expr tan($f1);
#X obj 148 293 /;
#X msg 130 266 1;
#X obj 142 243 t b f;
#X obj 144 339 t f f;
#X obj 147 366 *;
#X obj 239 372 *;
#X obj 237 395 + 1;
#X obj 355 85 float 0.5;
#X obj 105 118 t f b;
#X obj 344 57 t f b;
#X obj 175 440 +;
#X obj 162 462 t b f;
#X msg 158 484 1;
#X obj 169 507 /;
#X obj 409 388 *;
#X obj 409 484 -;
#X obj 404 429 t b f;
#X msg 400 451 1;
#X obj 379 549 +;
#X obj 105 97 float 440;
#X obj 248 514 -;
#X obj 238 458 t b f;
#X msg 239 481 1;
#X obj 246 536 * 2;
#X obj 175 411 t f f f;
#X obj 160 621 *;
#X obj 340 608 *~;
#X obj 131 703 * -0.5;
#X obj 153 725 t f f;
#X obj 154 748 *;
#X connect 0 0 22 0;
#X connect 2 0 36 1;
#X connect 13 0 14 0;
#X connect 13 1 14 1;
#X connect 14 0 17 0;
#X connect 14 1 17 1;
#X connect 15 0 13 2;
#X connect 15 0 14 2;
#X connect 16 0 14 3;
#X connect 16 0 13 3;
#X connect 17 0 18 0;
#X connect 17 1 18 1;
#X connect 18 0 1 0;
#X connect 20 0 18 3;
#X connect 21 0 17 3;
#X connect 21 0 20 0;
#X connect 22 0 13 0;
#X connect 26 0 21 0;
#X connect 29 0 33 0;
#X connect 30 0 32 0;
#X connect 30 1 29 1;
#X connect 31 0 47 0;
#X connect 32 0 29 0;
#X connect 33 0 43 1;
#X connect 33 0 52 1;
#X connect 34 0 57 0;
#X connect 35 0 36 0;
#X connect 36 0 37 0;
#X connect 37 0 40 0;
#X connect 38 0 41 0;
#X connect 38 0 52 0;
#X connect 39 0 38 0;
#X connect 40 0 39 0;
#X connect 40 1 38 1;
#X connect 41 0 42 0;
#X connect 41 1 42 1;
#X connect 41 1 43 0;
#X connect 42 0 62 0;
#X connect 43 0 44 0;
#X connect 44 0 48 1;
#X connect 45 0 30 0;
#X connect 46 0 35 0;
#X connect 46 1 45 0;
#X connect 47 0 45 0;
#X connect 47 1 57 0;
#X connect 48 0 49 0;
#X connect 49 0 50 0;
#X connect 49 1 51 1;
#X connect 50 0 51 0;
#X connect 51 0 22 1;
#X connect 51 0 63 0;
#X connect 51 0 64 0;
#X connect 52 0 54 0;
#X connect 53 0 56 0;
#X connect 54 0 55 0;
#X connect 54 1 53 1;
#X connect 55 0 53 0;
#X connect 56 0 64 1;
#X connect 57 0 46 0;
#X connect 58 0 61 0;
#X connect 59 0 60 0;
#X connect 59 1 58 1;
#X connect 60 0 58 0;
#X connect 61 0 63 1;
#X connect 62 0 48 0;
#X connect 62 1 59 0;
#X connect 62 2 56 1;
#X connect 63 0 65 0;
#X connect 64 0 26 0;
#X connect 65 0 17 2;
#X connect 65 0 18 2;
#X connect 65 0 66 0;
#X connect 66 0 67 0;
#X connect 66 1 67 1;
#X connect 67 0 26 1;
#X restore 81 726 pd lopass2p2zm;
#N canvas 486 219 1076 837 hipass2p2zm 0;
#X obj -47 497 inlet~;
#X obj 128 927 outlet~;
#X text 391 24 resonance 0..1;
#X text 156 94 cutoff (hz);
#X text 572 141 c= tan(pi*cutf/samplerate);
#X obj 245 49 samplerate~;
#X text 91 160 c;
#X obj 137 290 sig~ 1;
#X obj 165 418 /~;
#X text 573 165 a1= 1/(1+res+c+c*c);
#X text 573 186 a2= -2*a1;
#X text 99 483 a2;
#X text 136 349 a1/a3;
#X text 574 205 b1= 2*(c*c-1)*a1;
#X text 256 428 b1;
#X text 384 379 b2;
#X obj 353 534 *~;
#X text 573 221 b2= (1-res*c+c*c)*a1;
#X obj 33 690 czero~;
#X obj 59 727 czero~;
#X obj 90 841 cpole~;
#X obj 129 888 cpole~;
#X obj 178 840 *~ -1;
#X obj 184 805 expr~ sqrt($v1);
#X obj -44 595 *~;
#X obj 128 704 *~ -0.5;
#X text 219 845 2nd pole = 1st mirrored on the x axis;
#X text 183 704 b1/2 (x pos);
#X obj 163 748 *~;
#X obj 183 781 -~;
#X text 217 666 pole position from coeffs:;
#X text 218 683 p=-b1/2+j*sqrt(b2-(b1/2)^2) (found somewhere on the
net...);
#X text 573 99 cookbook-like? (i cant remember where i got this from)
hp-filter;
#X obj 90 670 sig~ 0;
#X obj 73 646 sig~ 1;
#X text 44 625 zeros at fixed pos;
#X obj 67 26 inlet;
#X obj 348 25 inlet;
#X obj 108 128 * 3.14159;
#X obj 135 159 / 44100;
#X obj 140 186 expr tan($f1);
#X obj 351 169 -;
#X obj 346 114 t b f;
#X msg 342 136 1;
#X obj 354 86 float 0.5;
#X obj 355 62 t f b;
#X obj 352 203 * 1.41421;
#X obj 88 93 t f b;
#X obj 72 53 float 440;
#X obj 137 223 t f f;
#X obj 194 284 *;
#X obj 273 282 *;
#X obj 197 348 +;
#X obj 196 374 + 1;
#X obj 120 440 /;
#X msg 102 413 1;
#X obj 114 390 t b f;
#X obj 287 439 - 1;
#X obj 283 465 * 2;
#X obj 237 524 *~;
#X obj 411 430 -;
#X obj 406 375 t b f;
#X msg 402 397 1;
#X obj 410 326 *;
#X obj 397 485 +~;
#X connect 0 0 24 0;
#X connect 5 0 39 1;
#X connect 7 0 8 0;
#X connect 16 0 29 0;
#X connect 18 0 19 0;
#X connect 18 1 19 1;
#X connect 19 0 20 0;
#X connect 19 1 20 1;
#X connect 20 0 21 0;
#X connect 20 1 21 1;
#X connect 21 0 1 0;
#X connect 22 0 21 3;
#X connect 23 0 20 3;
#X connect 23 0 22 0;
#X connect 24 0 18 0;
#X connect 25 0 20 2;
#X connect 25 0 21 2;
#X connect 25 0 28 0;
#X connect 25 0 28 1;
#X connect 28 0 29 1;
#X connect 29 0 23 0;
#X connect 33 0 19 3;
#X connect 33 0 18 3;
#X connect 34 0 18 2;
#X connect 34 0 19 2;
#X connect 36 0 48 0;
#X connect 37 0 45 0;
#X connect 38 0 39 0;
#X connect 39 0 40 0;
#X connect 40 0 49 0;
#X connect 40 0 63 0;
#X connect 41 0 46 0;
#X connect 42 0 43 0;
#X connect 42 1 41 1;
#X connect 43 0 41 0;
#X connect 44 0 42 0;
#X connect 45 0 44 0;
#X connect 45 1 48 0;
#X connect 46 0 51 1;
#X connect 46 0 63 1;
#X connect 47 0 38 0;
#X connect 47 1 44 0;
#X connect 48 0 47 0;
#X connect 49 0 50 0;
#X connect 49 1 50 1;
#X connect 49 1 51 0;
#X connect 50 0 52 0;
#X connect 50 0 57 0;
#X connect 50 0 64 0;
#X connect 51 0 52 1;
#X connect 52 0 53 0;
#X connect 53 0 8 1;
#X connect 53 0 56 0;
#X connect 54 0 24 1;
#X connect 54 0 16 0;
#X connect 54 0 59 0;
#X connect 55 0 54 0;
#X connect 56 0 55 0;
#X connect 56 1 54 1;
#X connect 57 0 58 0;
#X connect 58 0 59 1;
#X connect 59 0 25 0;
#X connect 60 0 64 1;
#X connect 61 0 62 0;
#X connect 61 1 60 1;
#X connect 62 0 60 0;
#X connect 63 0 61 0;
#X connect 64 0 16 1;
#X restore 80 756 pd hipass2p2zm;
#X obj 122 652 mtof;
#X connect 0 0 65 1;
#X connect 0 0 93 0;
#X connect 0 0 94 0;
#X connect 0 0 107 0;
#X connect 2 0 60 0;
#X connect 2 0 81 0;
#X connect 3 0 72 1;
#X connect 4 0 73 1;
#X connect 5 0 51 0;
#X connect 6 0 51 1;
#X connect 7 0 52 1;
#X connect 8 0 77 0;
#X connect 8 0 77 1;
#X connect 9 0 78 0;
#X connect 9 0 78 1;
#X connect 10 0 79 0;
#X connect 10 0 79 1;
#X connect 13 0 59 0;
#X connect 14 0 32 1;
#X connect 15 0 33 1;
#X connect 16 0 34 1;
#X connect 17 0 35 1;
#X connect 18 0 36 1;
#X connect 19 0 37 1;
#X connect 20 0 38 1;
#X connect 21 0 39 1;
#X connect 22 0 40 1;
#X connect 23 0 41 1;
#X connect 24 0 42 1;
#X connect 25 0 43 1;
#X connect 26 0 44 1;
#X connect 27 0 45 1;
#X connect 28 0 46 1;
#X connect 29 0 47 1;
#X connect 30 0 85 0;
#X connect 31 0 80 1;
#X connect 32 0 70 0;
#X connect 33 0 70 0;
#X connect 34 0 70 0;
#X connect 35 0 70 0;
#X connect 36 0 70 0;
#X connect 37 0 70 0;
#X connect 38 0 70 0;
#X connect 39 0 70 0;
#X connect 40 0 70 0;
#X connect 41 0 70 0;
#X connect 42 0 70 0;
#X connect 43 0 70 0;
#X connect 44 0 70 0;
#X connect 45 0 70 0;
#X connect 46 0 70 0;
#X connect 47 0 70 0;
#X connect 48 0 53 0;
#X connect 49 0 32 0;
#X connect 49 1 33 0;
#X connect 49 2 34 0;
#X connect 49 3 35 0;
#X connect 49 4 36 0;
#X connect 49 5 37 0;
#X connect 49 6 38 0;
#X connect 49 7 39 0;
#X connect 49 8 40 0;
#X connect 49 9 41 0;
#X connect 49 10 42 0;
#X connect 49 11 43 0;
#X connect 49 12 44 0;
#X connect 49 13 45 0;
#X connect 49 14 46 0;
#X connect 49 15 47 0;
#X connect 51 0 52 0;
#X connect 52 0 64 1;
#X connect 53 0 49 0;
#X connect 53 0 12 0;
#X connect 54 0 71 0;
#X connect 55 0 56 0;
#X connect 56 0 57 0;
#X connect 57 0 58 1;
#X connect 58 0 54 1;
#X connect 59 0 58 0;
#X connect 60 0 59 0;
#X connect 60 1 55 0;
#X connect 60 2 56 1;
#X connect 61 0 74 1;
#X connect 63 0 69 0;
#X connect 64 0 63 1;
#X connect 65 0 63 0;
#X connect 66 0 67 0;
#X connect 67 0 65 0;
#X connect 68 0 66 0;
#X connect 68 0 64 0;
#X connect 69 0 1 0;
#X connect 70 0 54 0;
#X connect 71 0 73 0;
#X connect 72 0 74 0;
#X connect 73 0 72 0;
#X connect 74 0 75 0;
#X connect 75 0 76 0;
#X connect 75 0 105 0;
#X connect 75 0 106 0;
#X connect 76 0 89 0;
#X connect 77 0 5 1;
#X connect 78 0 6 1;
#X connect 79 0 7 1;
#X connect 80 0 90 0;
#X connect 80 0 92 0;
#X connect 81 0 82 0;
#X connect 82 0 83 0;
#X connect 83 0 84 0;
#X connect 84 0 86 0;
#X connect 84 0 88 0;
#X connect 85 0 84 1;
#X connect 86 0 83 1;
#X connect 87 0 80 0;
#X connect 88 0 87 0;
#X connect 89 0 109 0;
#X connect 90 0 75 0;
#X connect 90 1 75 1;
#X connect 91 0 53 1;
#X connect 93 0 97 0;
#X connect 94 0 98 0;
#X connect 95 0 93 2;
#X connect 95 0 97 2;
#X connect 95 0 94 2;
#X connect 95 0 98 2;
#X connect 95 0 107 2;
#X connect 95 0 108 2;
#X connect 96 0 95 0;
#X connect 97 0 5 0;
#X connect 98 0 7 0;
#X connect 99 0 101 0;
#X connect 100 0 107 1;
#X connect 101 0 100 0;
#X connect 102 0 104 0;
#X connect 103 0 108 1;
#X connect 104 0 103 0;
#X connect 105 0 99 0;
#X connect 106 0 102 0;
#X connect 107 0 108 0;
#X connect 108 0 6 0;
#X connect 109 0 93 1;
#X connect 109 0 97 1;
#X connect 109 0 94 1;
#X connect 109 0 98 1;
#X coords 0 -1 1 1 320 110 1 100 100;
#X restore 234 4 pd pcf1m;
#X connect 1 0 3 2;
#X connect 1 0 4 1;
#X connect 1 2 3 3;
#X connect 1 2 4 2;
#X connect 2 0 3 0;
#X connect 2 1 3 1;
#X connect 3 0 0 0;
#X connect 3 1 0 1;
