#N canvas 152 204 450 300 10;
#N canvas 342 73 693 820 phaser1 0;
#X obj -124 271 rpole~;
#X obj -124 246 rzero_rev~;
#X obj -124 320 rpole~;
#X obj -124 295 rzero_rev~;
#X obj -124 368 rpole~;
#X obj -124 343 rzero_rev~;
#X obj -124 417 rpole~;
#X obj -124 392 rzero_rev~;
#X obj -181 615 +~;
#X obj 96 336 expr~ 1 - 0.03 - 0.6*abs($v1-0.5)*abs($v1-0.5);
#X obj -154 96 inlet~;
#X obj -180 662 outlet~;
#X obj 125 118 hsl 100 8 0.05 5 0 1 empty empty spd -22 5 0 8 -262144
-1 -1 1000 1;
#X obj 94 300 phasor~;
#X obj -124 468 rpole~;
#X obj -124 443 rzero_rev~;
#X obj -124 517 rpole~;
#X obj -124 492 rzero_rev~;
#X connect 0 0 3 0;
#X connect 1 0 0 0;
#X connect 2 0 5 0;
#X connect 3 0 2 0;
#X connect 4 0 7 0;
#X connect 5 0 4 0;
#X connect 6 0 15 0;
#X connect 7 0 6 0;
#X connect 8 0 11 0;
#X connect 9 0 1 1;
#X connect 9 0 0 1;
#X connect 9 0 3 1;
#X connect 9 0 2 1;
#X connect 9 0 5 1;
#X connect 9 0 4 1;
#X connect 9 0 7 1;
#X connect 9 0 6 1;
#X connect 9 0 15 1;
#X connect 9 0 14 1;
#X connect 9 0 17 1;
#X connect 9 0 16 1;
#X connect 10 0 1 0;
#X connect 10 0 8 0;
#X connect 12 0 13 0;
#X connect 13 0 9 0;
#X connect 14 0 17 0;
#X connect 15 0 14 0;
#X connect 16 0 8 1;
#X connect 17 0 16 0;
#X coords 0 -1 1 1 130 30 1 100 100;
#X restore 36 45 pd phaser1;
#X obj 54 159 dac~;
#X connect 0 0 1 0;
#X connect 0 0 1 1;
