#N canvas 214 279 450 300 10;
#N canvas 143 117 891 631 pitchshiftrm 0;
#X floatatom 102 115 6 -36 36 0 - - -;
#X msg 337 187 100;
#X text 376 192 <--window (msec);
#X obj 166 32 inlet~;
#X obj 367 10 loadbang;
#X obj 166 437 outlet~;
#X text 420 121 PITCH SHIFTER from pd doc;
#X msg 63 57 set \$1;
#X msg 80 86 0;
#X obj 569 22 inlet;
#X obj 175 293 abs_pitchshift1;
#X text 145 114 tp;
#X connect 0 0 7 0;
#X connect 0 0 10 1;
#X connect 1 0 10 2;
#X connect 3 0 10 0;
#X connect 4 0 1 0;
#X connect 4 0 8 0;
#X connect 7 0 8 0;
#X connect 8 0 0 0;
#X connect 9 0 0 0;
#X connect 10 0 5 0;
#X coords 0 -1 1 1 80 30 1 100 100;
#X restore 36 52 pd pitchshiftrm;
#N canvas 141 118 891 631 pitchshiftrs 0;
#X floatatom 102 115 6 -36 36 0 - - -;
#X msg 337 187 100;
#X text 376 192 <--window (msec);
#X obj 166 32 inlet~;
#X obj 367 10 loadbang;
#X obj 166 437 outlet~;
#X text 420 121 PITCH SHIFTER from pd doc;
#X msg 63 57 set \$1;
#X msg 80 86 0;
#X obj 569 22 inlet;
#X obj 175 293 abs_pitchshift1;
#X obj 33 26 inlet~;
#X obj 33 431 outlet~;
#X obj 42 287 abs_pitchshift1;
#X text 141 114 tp;
#X connect 0 0 7 0;
#X connect 0 0 10 1;
#X connect 0 0 13 1;
#X connect 1 0 10 2;
#X connect 1 0 13 2;
#X connect 3 0 10 0;
#X connect 4 0 1 0;
#X connect 4 0 8 0;
#X connect 7 0 8 0;
#X connect 8 0 0 0;
#X connect 9 0 0 0;
#X connect 10 0 5 0;
#X connect 11 0 13 0;
#X connect 13 0 12 0;
#X coords 0 -1 1 1 80 30 1 100 100;
#X restore -88 50 pd pitchshiftrs;
