#N canvas 580 486 343 198 10;
#X obj -33 78 dac~;
#N canvas 453 91 998 963 plink2d_midi 0;
#X obj 289 479 mtof;
#X floatatom 704 580 5 0 0 0 - - -;
#X obj 256 606 pack f f f f;
#X obj 146 512 +;
#X obj 132 568 int;
#X obj 142 537 t b f;
#X msg 91 475 1;
#X obj 110 653 moses 0.1;
#X msg 97 548 0;
#X obj 291 392 clip -1 1;
#X obj 369 377 clip -1 1;
#X obj 377 412 + 1;
#N canvas 159 79 739 534 speedchangedetect 0;
#X obj 153 -521 t f b;
#X obj 154 -442 -;
#X obj 181 -469 float;
#X obj 140 -345 > 0.1;
#X obj 142 -315 moses 0.1;
#X obj 146 -410 abs;
#X obj 213 -160 outlet;
#X obj 150 -559 inlet;
#X text 204 -502 speed;
#X text 196 -558 <- events;
#X obj 274 -481 inlet;
#X text 315 -480 <-threshhold 0..1;
#X obj 218 -284 *;
#X obj 143 -386 t f f;
#X obj 220 -201 clip 0 127;
#X obj 220 -242 * 100;
#X connect 0 0 1 0;
#X connect 0 0 2 1;
#X connect 0 1 2 0;
#X connect 1 0 5 0;
#X connect 2 0 1 1;
#X connect 3 0 4 0;
#X connect 4 1 12 0;
#X connect 5 0 13 0;
#X connect 7 0 0 0;
#X connect 10 0 3 1;
#X connect 12 0 15 0;
#X connect 13 0 3 0;
#X connect 13 1 12 1;
#X connect 14 0 6 0;
#X connect 15 0 14 0;
#X restore 69 351 pd speedchangedetect;
#N canvas 161 73 739 534 speedchangedetect 0;
#X obj 153 -521 t f b;
#X obj 154 -442 -;
#X obj 181 -469 float;
#X obj 140 -345 > 0.1;
#X obj 142 -315 moses 0.1;
#X obj 146 -410 abs;
#X obj 213 -160 outlet;
#X obj 150 -559 inlet;
#X text 204 -502 speed;
#X text 196 -558 <- events;
#X obj 274 -481 inlet;
#X text 315 -480 <-threshhold 0..1;
#X obj 218 -284 *;
#X obj 143 -386 t f f;
#X obj 220 -201 clip 0 127;
#X obj 220 -242 * 100;
#X connect 0 0 1 0;
#X connect 0 0 2 1;
#X connect 0 1 2 0;
#X connect 1 0 5 0;
#X connect 2 0 1 1;
#X connect 3 0 4 0;
#X connect 4 1 12 0;
#X connect 5 0 13 0;
#X connect 7 0 0 0;
#X connect 10 0 3 1;
#X connect 12 0 15 0;
#X connect 13 0 3 0;
#X connect 13 1 12 1;
#X connect 14 0 6 0;
#X connect 15 0 14 0;
#X restore 34 311 pd speedchangedetect;
#X msg 222 277 0.05;
#X obj 258 657 route 0 1 2 3 4 5 6 7 8 9 10 11 12 13 14 15 16 17 18
19 20 21 22 23;
#X obj 111 627 > 23;
#X msg 374 979 bang;
#N canvas 0 50 450 300 distri 0;
#X obj 147 43 inlet~;
#X obj 75 202 outlet~;
#X obj 220 194 outlet~;
#X obj 194 142 *~ 0.3;
#X obj 136 82 clip~ -1 1;
#X connect 0 0 4 0;
#X connect 3 0 2 0;
#X connect 4 0 1 0;
#X connect 4 0 3 0;
#X restore 519 986 pd distri;
#N canvas 0 50 450 300 distri 0;
#X obj 132 45 inlet~;
#X obj 75 202 outlet~;
#X obj 220 194 outlet~;
#X obj 193 143 *~ 0.3;
#X obj 136 82 clip~ -1 1;
#X connect 0 0 4 0;
#X connect 3 0 2 0;
#X connect 4 0 3 0;
#X connect 4 0 1 0;
#X restore 206 986 pd distri;
#X obj 292 422 * 64;
#X obj 292 450 + 64;
#X obj 96 879 abs_plk2dg;
#X obj 661 1040 clip~ -0.5 0.5;
#X obj 545 1115 + 100;
#X obj 529 1087 random 400;
#X obj 699 491 random 200;
#X obj 622 1077 lop~ 250;
#X obj 578 1194 *~ 5000;
#X obj 291 362 * 0.5;
#X obj 372 456 * 0.24;
#X obj 702 533 + 50;
#X obj 475 403 clip -1 1;
#X obj 383 559 + 0.5;
#X obj 458 475 * 0.25;
#X obj 261 1049 outlet~;
#X obj 583 1034 outlet~;
#X obj 800 904 inlet~;
#X obj 642 176 t b;
#X obj 582 115 loadbang;
#X msg 673 125 bang;
#X obj 25 200 - 1;
#X obj 81 201 - 1;
#X obj 266 165 random 400;
#X obj 266 187 - 200;
#X obj 266 209 / 100;
#X obj 145 177 t b;
#X obj 106 128 hsl 90 8 0 1 0 1 empty empty ps -2 -8 0 10 -262144 -1
-1 6600 1;
#X obj 331 299 *;
#X obj 81 171 / 32;
#X obj 25 170 / 32;
#X obj -6 74 inlet;
#X obj 37 77 inlet;
#X floatatom 389 322 5 0 0 0 - - -;
#X obj 143 765 abs_plk2dg;
#X obj 227 765 abs_plk2dg;
#X obj 308 765 abs_plk2dg;
#X obj 393 765 abs_plk2dg;
#X obj 474 766 abs_plk2dg;
#X obj 560 765 abs_plk2dg;
#X obj 639 764 abs_plk2dg;
#X obj 723 762 abs_plk2dg;
#X obj 149 823 abs_plk2dg;
#X obj 233 823 abs_plk2dg;
#X obj 314 823 abs_plk2dg;
#X obj 399 823 abs_plk2dg;
#X obj 483 823 abs_plk2dg;
#X obj 564 823 abs_plk2dg;
#X obj 644 824 abs_plk2dg;
#X obj 729 820 abs_plk2dg;
#X obj 180 879 abs_plk2dg;
#X obj 261 879 abs_plk2dg;
#X obj 346 878 abs_plk2dg;
#X obj 428 878 abs_plk2dg;
#X obj 507 881 abs_plk2dg;
#X obj 591 880 abs_plk2dg;
#X obj 676 876 abs_plk2dg;
#X text 800 886 ext fm;
#X obj 632 1229 throw~;
#X msg 733 1164 set \$1uniquecatch;
#X obj 550 564 abs_uniquecatch1;
#X obj 612 1163 abs_delayrw1 500;
#X connect 0 0 2 1;
#X connect 1 0 22 1;
#X connect 1 0 54 1;
#X connect 1 0 55 1;
#X connect 1 0 56 1;
#X connect 1 0 57 1;
#X connect 1 0 58 1;
#X connect 1 0 59 1;
#X connect 1 0 60 1;
#X connect 1 0 61 1;
#X connect 1 0 62 1;
#X connect 1 0 63 1;
#X connect 1 0 64 1;
#X connect 1 0 65 1;
#X connect 1 0 66 1;
#X connect 1 0 67 1;
#X connect 1 0 68 1;
#X connect 1 0 69 1;
#X connect 1 0 70 1;
#X connect 1 0 71 1;
#X connect 1 0 72 1;
#X connect 1 0 73 1;
#X connect 1 0 74 1;
#X connect 1 0 75 1;
#X connect 1 0 76 1;
#X connect 2 0 15 0;
#X connect 3 0 5 0;
#X connect 4 0 3 1;
#X connect 4 0 2 0;
#X connect 4 0 16 0;
#X connect 5 0 4 0;
#X connect 5 1 4 1;
#X connect 6 0 3 0;
#X connect 7 1 8 0;
#X connect 8 0 4 0;
#X connect 9 0 20 0;
#X connect 10 0 11 0;
#X connect 11 0 30 0;
#X connect 12 0 6 0;
#X connect 13 0 6 0;
#X connect 14 0 13 1;
#X connect 14 0 12 1;
#X connect 15 0 54 0;
#X connect 15 1 55 0;
#X connect 15 2 56 0;
#X connect 15 3 57 0;
#X connect 15 4 58 0;
#X connect 15 5 59 0;
#X connect 15 6 60 0;
#X connect 15 7 61 0;
#X connect 15 8 62 0;
#X connect 15 9 63 0;
#X connect 15 10 64 0;
#X connect 15 11 65 0;
#X connect 15 12 66 0;
#X connect 15 13 67 0;
#X connect 15 14 68 0;
#X connect 15 15 69 0;
#X connect 15 16 22 0;
#X connect 15 17 70 0;
#X connect 15 18 71 0;
#X connect 15 19 72 0;
#X connect 15 20 73 0;
#X connect 15 21 74 0;
#X connect 15 22 75 0;
#X connect 15 23 76 0;
#X connect 16 0 7 0;
#X connect 17 0 25 0;
#X connect 18 0 27 0;
#X connect 18 1 36 0;
#X connect 19 0 27 0;
#X connect 19 1 35 0;
#X connect 20 0 21 0;
#X connect 21 0 0 0;
#X connect 22 0 19 0;
#X connect 22 1 18 0;
#X connect 23 0 27 0;
#X connect 24 0 81 1;
#X connect 25 0 24 0;
#X connect 26 0 31 0;
#X connect 27 0 81 0;
#X connect 28 0 78 0;
#X connect 29 0 9 0;
#X connect 30 0 2 2;
#X connect 31 0 1 0;
#X connect 32 0 34 0;
#X connect 33 0 2 3;
#X connect 34 0 33 0;
#X connect 37 0 23 0;
#X connect 38 0 14 0;
#X connect 38 0 17 0;
#X connect 38 0 26 0;
#X connect 38 0 80 0;
#X connect 39 0 38 0;
#X connect 40 0 38 0;
#X connect 41 0 13 0;
#X connect 41 0 10 0;
#X connect 41 0 46 0;
#X connect 42 0 12 0;
#X connect 42 0 29 0;
#X connect 42 0 46 0;
#X connect 43 0 44 0;
#X connect 44 0 45 0;
#X connect 45 0 48 0;
#X connect 46 0 43 0;
#X connect 47 0 48 1;
#X connect 48 0 32 0;
#X connect 48 0 53 0;
#X connect 49 0 42 0;
#X connect 50 0 41 0;
#X connect 51 0 50 0;
#X connect 52 0 49 0;
#X connect 54 0 19 0;
#X connect 54 1 18 0;
#X connect 55 0 19 0;
#X connect 55 1 18 0;
#X connect 56 0 19 0;
#X connect 56 1 18 0;
#X connect 57 0 19 0;
#X connect 57 1 18 0;
#X connect 58 0 19 0;
#X connect 58 1 18 0;
#X connect 59 0 19 0;
#X connect 59 1 18 0;
#X connect 60 0 19 0;
#X connect 60 1 18 0;
#X connect 61 0 19 0;
#X connect 61 1 18 0;
#X connect 62 0 19 0;
#X connect 62 1 18 0;
#X connect 63 0 19 0;
#X connect 63 1 18 0;
#X connect 64 0 19 0;
#X connect 64 1 18 0;
#X connect 65 0 19 0;
#X connect 65 1 18 0;
#X connect 66 0 19 0;
#X connect 66 1 18 0;
#X connect 67 0 19 0;
#X connect 67 1 18 0;
#X connect 68 0 19 0;
#X connect 68 1 18 0;
#X connect 69 0 19 0;
#X connect 69 1 18 0;
#X connect 70 0 19 0;
#X connect 70 1 18 0;
#X connect 71 0 19 0;
#X connect 71 1 18 0;
#X connect 72 0 19 0;
#X connect 72 1 18 0;
#X connect 73 0 19 0;
#X connect 73 1 18 0;
#X connect 74 0 19 0;
#X connect 74 1 18 0;
#X connect 75 0 19 0;
#X connect 75 1 18 0;
#X connect 76 0 19 0;
#X connect 76 1 18 0;
#X connect 79 0 78 0;
#X connect 80 0 54 2;
#X connect 80 0 55 2;
#X connect 80 0 56 2;
#X connect 80 0 57 2;
#X connect 80 0 58 2;
#X connect 80 0 59 2;
#X connect 80 0 60 2;
#X connect 80 0 61 2;
#X connect 80 0 62 2;
#X connect 80 0 63 2;
#X connect 80 0 64 2;
#X connect 80 0 65 2;
#X connect 80 0 66 2;
#X connect 80 0 67 2;
#X connect 80 0 68 2;
#X connect 80 0 69 2;
#X connect 80 0 76 2;
#X connect 80 0 75 2;
#X connect 80 0 74 2;
#X connect 80 0 73 2;
#X connect 80 0 72 2;
#X connect 80 0 71 2;
#X connect 80 0 70 2;
#X connect 80 0 22 2;
#X connect 80 1 79 0;
#X connect 81 0 28 0;
#X coords 0 -1 1 1 100 40 1 100 100;
#X restore -49 12 pd plink2d_midi;
#X obj 18 -27 ctlin 81;
#X obj -51 -26 ctlin 82;
#X text 16 -43 nanopad-x;
#X text -48 -44 nanopad-y;
#X connect 1 0 0 0;
#X connect 1 1 0 1;
#X connect 2 0 1 1;
#X connect 3 0 1 0;
