#N canvas 397 235 450 300 10;
#N canvas 64 102 954 630 poly_blip1 0;
#N canvas 42 139 517 419 blip 0;
#X obj 120 253 osc~;
#X obj 181 251 vline~;
#X obj 169 286 *~;
#X obj 137 342 *~;
#X obj 137 369 outlet~;
#X obj 104 117 mtof;
#X obj 301 42 inlet;
#X obj 103 82 unpack f f;
#X obj 184 117 t b f;
#X obj 104 35 inlet;
#X msg 180 216 1 2 0 \, 0 \$1 3;
#X obj 182 320 *~;
#X obj 166 158 float;
#X connect 0 0 3 0;
#X connect 1 0 2 0;
#X connect 1 0 2 1;
#X connect 2 0 11 0;
#X connect 3 0 4 0;
#X connect 5 0 0 0;
#X connect 6 0 12 1;
#X connect 7 0 5 0;
#X connect 7 1 8 0;
#X connect 8 0 12 0;
#X connect 8 1 11 1;
#X connect 9 0 7 0;
#X connect 10 0 1 0;
#X connect 11 0 3 1;
#X connect 12 0 10 0;
#X restore 82 277 pd blip;
#X obj 242 -41 inlet;
#X obj 106 117 hsl 100 8 10 1000 1 1 empty empty decay 2 5 0 10 -262144
-1 -1 7000 1;
#X obj 321 160 pack 0 0 0;
#X obj 315 106 poly 16 1;
#X obj 405 -31 inlet;
#X obj 319 181 route 1 2 3 4 5 6 7 8 9 10 11 12 13 14 15 16;
#N canvas 42 139 517 419 blip 0;
#X obj 120 253 osc~;
#X obj 181 251 vline~;
#X obj 169 286 *~;
#X obj 137 342 *~;
#X obj 137 369 outlet~;
#X obj 104 117 mtof;
#X obj 301 42 inlet;
#X obj 103 82 unpack f f;
#X obj 184 117 t b f;
#X obj 104 35 inlet;
#X msg 180 216 1 2 0 \, 0 \$1 3;
#X obj 182 320 *~;
#X obj 166 158 float;
#X connect 0 0 3 0;
#X connect 1 0 2 0;
#X connect 1 0 2 1;
#X connect 2 0 11 0;
#X connect 3 0 4 0;
#X connect 5 0 0 0;
#X connect 6 0 12 1;
#X connect 7 0 5 0;
#X connect 7 1 8 0;
#X connect 8 0 12 0;
#X connect 8 1 11 1;
#X connect 9 0 7 0;
#X connect 10 0 1 0;
#X connect 11 0 3 1;
#X connect 12 0 10 0;
#X restore 148 277 pd blip;
#N canvas 42 139 517 419 blip 0;
#X obj 120 253 osc~;
#X obj 181 251 vline~;
#X obj 169 286 *~;
#X obj 137 342 *~;
#X obj 137 369 outlet~;
#X obj 104 117 mtof;
#X obj 301 42 inlet;
#X obj 103 82 unpack f f;
#X obj 184 117 t b f;
#X obj 104 35 inlet;
#X msg 180 216 1 2 0 \, 0 \$1 3;
#X obj 182 320 *~;
#X obj 166 158 float;
#X connect 0 0 3 0;
#X connect 1 0 2 0;
#X connect 1 0 2 1;
#X connect 2 0 11 0;
#X connect 3 0 4 0;
#X connect 5 0 0 0;
#X connect 6 0 12 1;
#X connect 7 0 5 0;
#X connect 7 1 8 0;
#X connect 8 0 12 0;
#X connect 8 1 11 1;
#X connect 9 0 7 0;
#X connect 10 0 1 0;
#X connect 11 0 3 1;
#X connect 12 0 10 0;
#X restore 208 278 pd blip;
#N canvas 42 139 517 419 blip 0;
#X obj 120 253 osc~;
#X obj 181 251 vline~;
#X obj 169 286 *~;
#X obj 137 342 *~;
#X obj 137 369 outlet~;
#X obj 104 117 mtof;
#X obj 301 42 inlet;
#X obj 103 82 unpack f f;
#X obj 184 117 t b f;
#X obj 104 35 inlet;
#X msg 180 216 1 2 0 \, 0 \$1 3;
#X obj 182 320 *~;
#X obj 166 158 float;
#X connect 0 0 3 0;
#X connect 1 0 2 0;
#X connect 1 0 2 1;
#X connect 2 0 11 0;
#X connect 3 0 4 0;
#X connect 5 0 0 0;
#X connect 6 0 12 1;
#X connect 7 0 5 0;
#X connect 7 1 8 0;
#X connect 8 0 12 0;
#X connect 8 1 11 1;
#X connect 9 0 7 0;
#X connect 10 0 1 0;
#X connect 11 0 3 1;
#X connect 12 0 10 0;
#X restore 274 278 pd blip;
#N canvas 42 139 517 419 blip 0;
#X obj 120 253 osc~;
#X obj 181 251 vline~;
#X obj 169 286 *~;
#X obj 137 342 *~;
#X obj 137 369 outlet~;
#X obj 104 117 mtof;
#X obj 301 42 inlet;
#X obj 103 82 unpack f f;
#X obj 184 117 t b f;
#X obj 104 35 inlet;
#X msg 180 216 1 2 0 \, 0 \$1 3;
#X obj 182 320 *~;
#X obj 166 158 float;
#X connect 0 0 3 0;
#X connect 1 0 2 0;
#X connect 1 0 2 1;
#X connect 2 0 11 0;
#X connect 3 0 4 0;
#X connect 5 0 0 0;
#X connect 6 0 12 1;
#X connect 7 0 5 0;
#X connect 7 1 8 0;
#X connect 8 0 12 0;
#X connect 8 1 11 1;
#X connect 9 0 7 0;
#X connect 10 0 1 0;
#X connect 11 0 3 1;
#X connect 12 0 10 0;
#X restore 337 282 pd blip;
#N canvas 42 139 517 419 blip 0;
#X obj 120 253 osc~;
#X obj 181 251 vline~;
#X obj 169 286 *~;
#X obj 137 342 *~;
#X obj 137 369 outlet~;
#X obj 104 117 mtof;
#X obj 301 42 inlet;
#X obj 103 82 unpack f f;
#X obj 184 117 t b f;
#X obj 104 35 inlet;
#X msg 180 216 1 2 0 \, 0 \$1 3;
#X obj 182 320 *~;
#X obj 166 158 float;
#X connect 0 0 3 0;
#X connect 1 0 2 0;
#X connect 1 0 2 1;
#X connect 2 0 11 0;
#X connect 3 0 4 0;
#X connect 5 0 0 0;
#X connect 6 0 12 1;
#X connect 7 0 5 0;
#X connect 7 1 8 0;
#X connect 8 0 12 0;
#X connect 8 1 11 1;
#X connect 9 0 7 0;
#X connect 10 0 1 0;
#X connect 11 0 3 1;
#X connect 12 0 10 0;
#X restore 403 282 pd blip;
#N canvas 42 139 517 419 blip 0;
#X obj 120 253 osc~;
#X obj 181 251 vline~;
#X obj 169 286 *~;
#X obj 137 342 *~;
#X obj 137 369 outlet~;
#X obj 104 117 mtof;
#X obj 301 42 inlet;
#X obj 103 82 unpack f f;
#X obj 184 117 t b f;
#X obj 104 35 inlet;
#X msg 180 216 1 2 0 \, 0 \$1 3;
#X obj 182 320 *~;
#X obj 166 158 float;
#X connect 0 0 3 0;
#X connect 1 0 2 0;
#X connect 1 0 2 1;
#X connect 2 0 11 0;
#X connect 3 0 4 0;
#X connect 5 0 0 0;
#X connect 6 0 12 1;
#X connect 7 0 5 0;
#X connect 7 1 8 0;
#X connect 8 0 12 0;
#X connect 8 1 11 1;
#X connect 9 0 7 0;
#X connect 10 0 1 0;
#X connect 11 0 3 1;
#X connect 12 0 10 0;
#X restore 463 283 pd blip;
#N canvas 42 139 517 419 blip 0;
#X obj 120 253 osc~;
#X obj 181 251 vline~;
#X obj 169 286 *~;
#X obj 137 342 *~;
#X obj 137 369 outlet~;
#X obj 104 117 mtof;
#X obj 301 42 inlet;
#X obj 103 82 unpack f f;
#X obj 184 117 t b f;
#X obj 104 35 inlet;
#X msg 180 216 1 2 0 \, 0 \$1 3;
#X obj 182 320 *~;
#X obj 166 158 float;
#X connect 0 0 3 0;
#X connect 1 0 2 0;
#X connect 1 0 2 1;
#X connect 2 0 11 0;
#X connect 3 0 4 0;
#X connect 5 0 0 0;
#X connect 6 0 12 1;
#X connect 7 0 5 0;
#X connect 7 1 8 0;
#X connect 8 0 12 0;
#X connect 8 1 11 1;
#X connect 9 0 7 0;
#X connect 10 0 1 0;
#X connect 11 0 3 1;
#X connect 12 0 10 0;
#X restore 529 283 pd blip;
#X obj 178 566 outlet~;
#N canvas 42 139 517 419 blip 0;
#X obj 120 253 osc~;
#X obj 181 251 vline~;
#X obj 169 286 *~;
#X obj 137 342 *~;
#X obj 137 369 outlet~;
#X obj 104 117 mtof;
#X obj 301 42 inlet;
#X obj 103 82 unpack f f;
#X obj 184 117 t b f;
#X obj 104 35 inlet;
#X msg 180 216 1 2 0 \, 0 \$1 3;
#X obj 182 320 *~;
#X obj 166 158 float;
#X connect 0 0 3 0;
#X connect 1 0 2 0;
#X connect 1 0 2 1;
#X connect 2 0 11 0;
#X connect 3 0 4 0;
#X connect 5 0 0 0;
#X connect 6 0 12 1;
#X connect 7 0 5 0;
#X connect 7 1 8 0;
#X connect 8 0 12 0;
#X connect 8 1 11 1;
#X connect 9 0 7 0;
#X connect 10 0 1 0;
#X connect 11 0 3 1;
#X connect 12 0 10 0;
#X restore 117 332 pd blip;
#N canvas 42 139 517 419 blip 0;
#X obj 120 253 osc~;
#X obj 181 251 vline~;
#X obj 169 286 *~;
#X obj 137 342 *~;
#X obj 137 369 outlet~;
#X obj 104 117 mtof;
#X obj 301 42 inlet;
#X obj 103 82 unpack f f;
#X obj 184 117 t b f;
#X obj 104 35 inlet;
#X msg 180 216 1 2 0 \, 0 \$1 3;
#X obj 182 320 *~;
#X obj 166 158 float;
#X connect 0 0 3 0;
#X connect 1 0 2 0;
#X connect 1 0 2 1;
#X connect 2 0 11 0;
#X connect 3 0 4 0;
#X connect 5 0 0 0;
#X connect 6 0 12 1;
#X connect 7 0 5 0;
#X connect 7 1 8 0;
#X connect 8 0 12 0;
#X connect 8 1 11 1;
#X connect 9 0 7 0;
#X connect 10 0 1 0;
#X connect 11 0 3 1;
#X connect 12 0 10 0;
#X restore 183 332 pd blip;
#N canvas 42 139 517 419 blip 0;
#X obj 120 253 osc~;
#X obj 181 251 vline~;
#X obj 169 286 *~;
#X obj 137 342 *~;
#X obj 137 369 outlet~;
#X obj 104 117 mtof;
#X obj 301 42 inlet;
#X obj 103 82 unpack f f;
#X obj 184 117 t b f;
#X obj 104 35 inlet;
#X msg 180 216 1 2 0 \, 0 \$1 3;
#X obj 182 320 *~;
#X obj 166 158 float;
#X connect 0 0 3 0;
#X connect 1 0 2 0;
#X connect 1 0 2 1;
#X connect 2 0 11 0;
#X connect 3 0 4 0;
#X connect 5 0 0 0;
#X connect 6 0 12 1;
#X connect 7 0 5 0;
#X connect 7 1 8 0;
#X connect 8 0 12 0;
#X connect 8 1 11 1;
#X connect 9 0 7 0;
#X connect 10 0 1 0;
#X connect 11 0 3 1;
#X connect 12 0 10 0;
#X restore 243 333 pd blip;
#N canvas 42 139 517 419 blip 0;
#X obj 120 253 osc~;
#X obj 181 251 vline~;
#X obj 169 286 *~;
#X obj 137 342 *~;
#X obj 137 369 outlet~;
#X obj 104 117 mtof;
#X obj 301 42 inlet;
#X obj 103 82 unpack f f;
#X obj 184 117 t b f;
#X obj 104 35 inlet;
#X msg 180 216 1 2 0 \, 0 \$1 3;
#X obj 182 320 *~;
#X obj 166 158 float;
#X connect 0 0 3 0;
#X connect 1 0 2 0;
#X connect 1 0 2 1;
#X connect 2 0 11 0;
#X connect 3 0 4 0;
#X connect 5 0 0 0;
#X connect 6 0 12 1;
#X connect 7 0 5 0;
#X connect 7 1 8 0;
#X connect 8 0 12 0;
#X connect 8 1 11 1;
#X connect 9 0 7 0;
#X connect 10 0 1 0;
#X connect 11 0 3 1;
#X connect 12 0 10 0;
#X restore 309 333 pd blip;
#N canvas 42 139 517 419 blip 0;
#X obj 120 253 osc~;
#X obj 181 251 vline~;
#X obj 169 286 *~;
#X obj 137 342 *~;
#X obj 137 369 outlet~;
#X obj 104 117 mtof;
#X obj 301 42 inlet;
#X obj 103 82 unpack f f;
#X obj 184 117 t b f;
#X obj 104 35 inlet;
#X msg 180 216 1 2 0 \, 0 \$1 3;
#X obj 182 320 *~;
#X obj 166 158 float;
#X connect 0 0 3 0;
#X connect 1 0 2 0;
#X connect 1 0 2 1;
#X connect 2 0 11 0;
#X connect 3 0 4 0;
#X connect 5 0 0 0;
#X connect 6 0 12 1;
#X connect 7 0 5 0;
#X connect 7 1 8 0;
#X connect 8 0 12 0;
#X connect 8 1 11 1;
#X connect 9 0 7 0;
#X connect 10 0 1 0;
#X connect 11 0 3 1;
#X connect 12 0 10 0;
#X restore 372 337 pd blip;
#N canvas 42 139 517 419 blip 0;
#X obj 120 253 osc~;
#X obj 181 251 vline~;
#X obj 169 286 *~;
#X obj 137 342 *~;
#X obj 137 369 outlet~;
#X obj 104 117 mtof;
#X obj 301 42 inlet;
#X obj 103 82 unpack f f;
#X obj 184 117 t b f;
#X obj 104 35 inlet;
#X msg 180 216 1 2 0 \, 0 \$1 3;
#X obj 182 320 *~;
#X obj 166 158 float;
#X connect 0 0 3 0;
#X connect 1 0 2 0;
#X connect 1 0 2 1;
#X connect 2 0 11 0;
#X connect 3 0 4 0;
#X connect 5 0 0 0;
#X connect 6 0 12 1;
#X connect 7 0 5 0;
#X connect 7 1 8 0;
#X connect 8 0 12 0;
#X connect 8 1 11 1;
#X connect 9 0 7 0;
#X connect 10 0 1 0;
#X connect 11 0 3 1;
#X connect 12 0 10 0;
#X restore 438 337 pd blip;
#N canvas 42 139 517 419 blip 0;
#X obj 120 253 osc~;
#X obj 181 251 vline~;
#X obj 169 286 *~;
#X obj 137 342 *~;
#X obj 137 369 outlet~;
#X obj 104 117 mtof;
#X obj 301 42 inlet;
#X obj 103 82 unpack f f;
#X obj 184 117 t b f;
#X obj 104 35 inlet;
#X msg 180 216 1 2 0 \, 0 \$1 3;
#X obj 182 320 *~;
#X obj 166 158 float;
#X connect 0 0 3 0;
#X connect 1 0 2 0;
#X connect 1 0 2 1;
#X connect 2 0 11 0;
#X connect 3 0 4 0;
#X connect 5 0 0 0;
#X connect 6 0 12 1;
#X connect 7 0 5 0;
#X connect 7 1 8 0;
#X connect 8 0 12 0;
#X connect 8 1 11 1;
#X connect 9 0 7 0;
#X connect 10 0 1 0;
#X connect 11 0 3 1;
#X connect 12 0 10 0;
#X restore 498 338 pd blip;
#N canvas 42 139 517 419 blip 0;
#X obj 120 253 osc~;
#X obj 181 251 vline~;
#X obj 169 286 *~;
#X obj 137 342 *~;
#X obj 137 369 outlet~;
#X obj 104 117 mtof;
#X obj 301 42 inlet;
#X obj 103 82 unpack f f;
#X obj 184 117 t b f;
#X obj 104 35 inlet;
#X msg 180 216 1 2 0 \, 0 \$1 3;
#X obj 182 320 *~;
#X obj 166 158 float;
#X connect 0 0 3 0;
#X connect 1 0 2 0;
#X connect 1 0 2 1;
#X connect 2 0 11 0;
#X connect 3 0 4 0;
#X connect 5 0 0 0;
#X connect 6 0 12 1;
#X connect 7 0 5 0;
#X connect 7 1 8 0;
#X connect 8 0 12 0;
#X connect 8 1 11 1;
#X connect 9 0 7 0;
#X connect 10 0 1 0;
#X connect 11 0 3 1;
#X connect 12 0 10 0;
#X restore 564 338 pd blip;
#X obj 302 17 pack f f;
#X obj 377 132 / 128;
#X obj 302 41 stripnote;
#X obj 307 69 pack f f;
#X obj 181 535 *~ 0.3;
#X connect 0 0 27 0;
#X connect 1 0 23 0;
#X connect 2 0 0 1;
#X connect 2 0 7 1;
#X connect 2 0 8 1;
#X connect 2 0 9 1;
#X connect 2 0 10 1;
#X connect 2 0 11 1;
#X connect 2 0 12 1;
#X connect 2 0 13 1;
#X connect 2 0 15 1;
#X connect 2 0 16 1;
#X connect 2 0 17 1;
#X connect 2 0 18 1;
#X connect 2 0 19 1;
#X connect 2 0 20 1;
#X connect 2 0 21 1;
#X connect 2 0 22 1;
#X connect 3 0 6 0;
#X connect 4 0 3 0;
#X connect 4 1 3 1;
#X connect 4 2 24 0;
#X connect 5 0 23 1;
#X connect 6 0 0 0;
#X connect 6 1 7 0;
#X connect 6 2 8 0;
#X connect 6 3 9 0;
#X connect 6 4 10 0;
#X connect 6 5 11 0;
#X connect 6 6 12 0;
#X connect 6 7 13 0;
#X connect 6 8 15 0;
#X connect 6 9 16 0;
#X connect 6 10 17 0;
#X connect 6 11 18 0;
#X connect 6 12 19 0;
#X connect 6 13 20 0;
#X connect 6 14 21 0;
#X connect 6 15 22 0;
#X connect 7 0 27 0;
#X connect 8 0 27 0;
#X connect 9 0 27 0;
#X connect 10 0 27 0;
#X connect 11 0 27 0;
#X connect 12 0 27 0;
#X connect 13 0 27 0;
#X connect 15 0 27 0;
#X connect 16 0 27 0;
#X connect 17 0 27 0;
#X connect 18 0 27 0;
#X connect 19 0 27 0;
#X connect 20 0 27 0;
#X connect 21 0 27 0;
#X connect 22 0 27 0;
#X connect 23 0 25 0;
#X connect 24 0 3 2;
#X connect 25 0 26 0;
#X connect 25 1 26 1;
#X connect 26 0 4 0;
#X connect 27 0 14 0;
#X coords 0 -1 1 1 110 30 1 100 100;
#X restore 24 126 pd poly_blip1;
#X obj 40 91 notein;
#X obj 40 220 dac~;
#X connect 0 0 2 0;
#X connect 0 0 2 1;
#X connect 1 0 0 0;
#X connect 1 1 0 1;
