#N canvas 235 342 856 439 10;
#N canvas 214 88 835 791 midipolydoubleosc1 0;
#X obj 6 345 +;
#X obj -175 41 - 8192;
#X obj -175 86 clip -1 1;
#X obj -175 65 / 8192;
#X obj -28 316 int;
#X obj -173 115 * 2;
#X text -144 116 bend range;
#X obj 270 118 vsl 15 81 0.2 1 0 1 empty empty r 2 4 0 8 -262144 -1
-1 2000 1;
#X obj 145 116 vradio 15 1 1 5 empty empty wav 0 80 0 8 -262144 -1
-1 3;
#X obj 125 116 vradio 15 1 1 3 empty empty okt 0 52 0 8 -262144 -1
-1 1;
#X obj 181 118 vsl 15 81 0 4 0 1 empty empty rs 2 4 0 8 -262144 -1
-1 2100 1;
#X obj 126 186 tgl 15 1 empty empty ep 0 -6 0 8 -262144 -1 -1 0 -2
;
#X obj 105 118 vsl 15 81 0 0.25 0 1 empty empty dt 2 4 0 8 -262144
-1 -1 800 1;
#X obj -11 69 pack 0 0;
#X obj -6 288 unpack 0 0;
#X obj -35 158 route 1 2 3 4;
#X obj -33 131 pack 0 0 0;
#X obj 236 118 vsl 15 81 0.2 1 0 1 empty empty d 2 4 0 8 -262144 -1
-1 6700 1;
#X obj 219 118 vsl 15 81 0.2 1 0 1 empty empty a 2 4 0 8 -262144 -1
-1 200 1;
#X obj 253 118 vsl 15 81 0.2 1 0 1 empty empty s 2 4 0 8 -262144 -1
-1 3700 1;
#N canvas 197 80 1028 787 one_doubleosc1_voice 0;
#X obj 23 233 moses 0.001;
#X msg 5 397 0 5728.98;
#X msg -22 349 set 0 \$1;
#X obj -173 127 clip 0 1;
#X obj -159 209 - 1;
#X obj -170 230 * 12;
#X obj -186 253 +;
#X obj 63 463 *;
#X obj 71 422 line 0 1;
#X obj 68 508 *;
#X obj 49 327 t b b;
#X obj 68 561 mtof;
#X obj -71 666 *~;
#X obj -90 635 moog~;
#X obj 68 533 +;
#X obj -71 430 line 0 1;
#X obj -50 576 lop~ 50;
#X msg -67 401 0 30;
#X obj 61 488 *;
#X obj -254 107 inlet;
#X text -215 109 pitch;
#X obj -169 74 inlet;
#X text -127 73 gate;
#X obj -72 698 outlet~;
#X obj 212 396 *;
#X obj 239 355 + 1;
#X obj 219 323 t b f;
#X obj 427 209 *;
#X obj 427 257 * 10000;
#X obj 428 235 *;
#X msg 81 373 0;
#X obj 26 200 t f f;
#X msg 99 350 set \$1;
#X obj 125 243 +;
#X obj 129 211 t b f;
#X obj 170 252 +;
#X obj 174 220 t b f;
#X obj 3 170 inlet;
#X text 42 168 wave;
#X obj -103 514 +~;
#X obj -105 541 *~ 0.5;
#X obj -36 130 inlet;
#X text 3 128 okt;
#X obj 65 137 inlet;
#X obj 120 568 inlet;
#X text 159 568 res;
#X obj 141 140 inlet;
#X text 180 140 env;
#X obj 451 166 inlet;
#X text 492 167 decay;
#X obj 258 150 inlet;
#X text 297 150 env-pol;
#X text 107 136 cut;
#X obj -93 110 inlet;
#X text -54 110 det;
#X obj -195 347 +;
#X obj -100 291 +;
#X obj -154 317 * -1;
#X obj 366 137 inlet;
#X text 407 136 attack;
#X obj 501 252 inlet;
#X text 544 255 sustain;
#X obj 608 188 inlet;
#X text 648 190 release;
#X obj 365 176 *;
#X obj 368 224 * 10000;
#X obj 366 202 *;
#X obj 601 225 *;
#X obj 604 273 * 10000;
#X obj 602 251 *;
#X obj -172 103 / 128;
#N canvas 104 50 1108 856 adsr1 0;
#X obj -143 147 inlet;
#X msg 15 502 0;
#X obj 63 365 pack f f;
#X msg -148 457 0 23.4256;
#X msg 62 393 set \$1 \$2;
#X msg 63 325 bang;
#X obj 125 589 >=;
#X msg 216 752 0.57 5728.98;
#X obj 157 632 moses 0.001;
#X obj 150 406 pack f f;
#X msg 151 436 set \$1 \$2;
#X msg 154 350 bang;
#X msg 313 372 set 0 \$1;
#X msg -135 357 bang;
#X msg -136 523 0 256;
#X obj -145 184 clip 0 1;
#X obj -113 211 moses 0.001;
#X obj 15 538 line 0 1;
#X obj -20 376 t f f;
#X obj 9 720 spigot;
#X obj 228 693 delay 0;
#X obj -49 150 inlet;
#X text -8 150 att;
#X obj 22 153 inlet;
#X text 63 153 dec;
#X obj 93 152 inlet;
#X text 134 152 sus;
#X obj 170 152 inlet;
#X text 211 152 rel;
#X obj -106 711 outlet;
#X connect 0 0 15 0;
#X connect 1 0 17 0;
#X connect 2 0 4 0;
#X connect 3 0 17 0;
#X connect 4 0 3 0;
#X connect 5 0 2 0;
#X connect 6 0 8 0;
#X connect 7 0 19 0;
#X connect 8 1 20 0;
#X connect 9 0 10 0;
#X connect 10 0 7 0;
#X connect 11 0 9 0;
#X connect 12 0 14 0;
#X connect 13 0 14 0;
#X connect 14 0 17 0;
#X connect 15 0 16 0;
#X connect 15 0 19 1;
#X connect 16 0 13 0;
#X connect 16 1 2 0;
#X connect 16 1 18 0;
#X connect 17 0 6 0;
#X connect 17 0 29 0;
#X connect 18 0 3 0;
#X connect 18 1 6 1;
#X connect 18 1 1 0;
#X connect 19 0 17 0;
#X connect 20 0 7 0;
#X connect 21 0 2 1;
#X connect 21 0 5 0;
#X connect 23 0 11 0;
#X connect 23 0 9 1;
#X connect 25 0 11 0;
#X connect 25 0 9 0;
#X connect 27 0 12 0;
#X coords 0 0 1 1 120 160 0;
#X restore 315 333 pd adsr1;
#N canvas 167 179 695 417 spt-osc1 0;
#N canvas 156 355 492 405 sawtooth1 0;
#X obj 71 333 outlet~;
#X obj 18 30 inlet;
#X obj 34 69 mtof;
#X obj 59 159 phasor~;
#X obj 70 292 -~ 0.5;
#X obj 227 28 inlet~;
#X obj 93 190 samphold~;
#X obj 72 242 -~;
#X obj 70 268 wrap~;
#X text 62 30 <-pitch;
#X text 279 27 <-sync;
#X obj -83 79 switch~;
#X obj -86 29 inlet;
#X text -46 29 <-on/off;
#X obj 71 312 *~ 2;
#X connect 1 0 2 0;
#X connect 2 0 3 0;
#X connect 3 0 6 0;
#X connect 3 0 7 0;
#X connect 4 0 14 0;
#X connect 5 0 6 1;
#X connect 6 0 7 1;
#X connect 7 0 8 0;
#X connect 8 0 4 0;
#X connect 12 0 11 0;
#X connect 14 0 0 0;
#X restore 54 171 pd sawtooth1;
#N canvas 156 356 623 456 pulse1 0;
#X obj 90 407 outlet~;
#X obj 18 30 inlet;
#X obj 34 69 mtof;
#X obj 59 159 phasor~;
#X obj 227 28 inlet~;
#X obj 93 190 samphold~;
#X obj 72 242 -~;
#X obj 71 262 wrap~;
#X text 62 30 <-pitch;
#X text 279 27 <-sync;
#X obj -86 68 switch~;
#X obj -86 29 inlet;
#X text -46 29 <-on/off;
#X obj 71 286 cos~;
#X obj 84 318 *~ 10000;
#X obj 83 339 +~ 9500;
#X obj 85 368 clip~ -1 1;
#X connect 1 0 2 0;
#X connect 2 0 3 0;
#X connect 3 0 5 0;
#X connect 3 0 6 0;
#X connect 4 0 5 1;
#X connect 5 0 6 1;
#X connect 6 0 7 0;
#X connect 7 0 13 0;
#X connect 11 0 10 0;
#X connect 13 0 14 0;
#X connect 14 0 15 0;
#X connect 15 0 16 0;
#X connect 16 0 0 0;
#X restore 159 172 pd pulse1;
#N canvas 156 355 492 405 triangle1 0;
#X obj 73 460 outlet~;
#X obj 18 30 inlet;
#X obj 34 69 mtof;
#X obj 59 159 phasor~;
#X obj 227 28 inlet~;
#X obj 93 190 samphold~;
#X obj 72 242 -~;
#X obj 70 268 wrap~;
#X text 62 30 <-pitch;
#X text 279 27 <-sync;
#X obj 95 304 *~ -1;
#X obj 96 327 +~ 1;
#X obj 67 362 min~;
#X obj -83 79 switch~;
#X obj -86 29 inlet;
#X text -46 29 <-on/off;
#X obj 71 392 *~ 4;
#X obj 75 424 -~ 1;
#X connect 1 0 2 0;
#X connect 2 0 3 0;
#X connect 3 0 5 0;
#X connect 3 0 6 0;
#X connect 4 0 5 1;
#X connect 5 0 6 1;
#X connect 6 0 7 0;
#X connect 7 0 10 0;
#X connect 7 0 12 0;
#X connect 10 0 11 0;
#X connect 11 0 12 1;
#X connect 12 0 16 0;
#X connect 14 0 13 0;
#X connect 16 0 17 0;
#X connect 17 0 0 0;
#X restore 425 172 pd triangle1;
#X obj 273 28 inlet~;
#X text 130 21 <-pitch;
#X text 320 27 <-sync;
#X obj 89 21 inlet;
#X obj 479 22 inlet;
#X text 522 22 <-type 0 \, 1 \, 2;
#X obj 154 279 outlet~;
#X obj 20 138 == 0;
#X obj 124 137 == 1;
#X obj 347 95 int 0;
#X obj 483 46 loadbang;
#X obj 425 145 == 4;
#X obj 319 140 == 3;
#X obj 245 137 == 2;
#N canvas 156 356 623 456 pulse2 0;
#X obj 71 405 outlet~;
#X obj 18 30 inlet;
#X obj 34 69 mtof;
#X obj 59 159 phasor~;
#X obj 227 28 inlet~;
#X obj 93 190 samphold~;
#X obj 72 242 -~;
#X obj 70 268 wrap~;
#X text 62 30 <-pitch;
#X text 279 27 <-sync;
#X obj -86 68 switch~;
#X obj -86 29 inlet;
#X text -46 29 <-on/off;
#X obj 70 290 cos~;
#X obj 83 322 *~ 10000;
#X obj 84 372 clip~ -1 1;
#X obj 82 343 +~ 8500;
#X connect 1 0 2 0;
#X connect 2 0 3 0;
#X connect 3 0 5 0;
#X connect 3 0 6 0;
#X connect 4 0 5 1;
#X connect 5 0 6 1;
#X connect 6 0 7 0;
#X connect 7 0 13 0;
#X connect 11 0 10 0;
#X connect 13 0 14 0;
#X connect 14 0 16 0;
#X connect 15 0 0 0;
#X connect 16 0 15 0;
#X restore 252 173 pd pulse2;
#N canvas 156 356 623 456 square 0;
#X obj 30 422 outlet~;
#X obj 18 30 inlet;
#X obj 34 69 mtof;
#X obj 59 159 phasor~;
#X obj 227 28 inlet~;
#X obj 93 190 samphold~;
#X obj 72 242 -~;
#X obj 70 268 wrap~;
#X text 62 30 <-pitch;
#X text 279 27 <-sync;
#X obj -86 68 switch~;
#X obj -86 29 inlet;
#X text -46 29 <-on/off;
#X obj 69 297 cos~;
#X obj 73 323 *~ 10000;
#X obj 68 358 clip~ -1 1;
#X connect 1 0 2 0;
#X connect 2 0 3 0;
#X connect 3 0 5 0;
#X connect 3 0 6 0;
#X connect 4 0 5 1;
#X connect 5 0 6 1;
#X connect 6 0 7 0;
#X connect 7 0 13 0;
#X connect 11 0 10 0;
#X connect 13 0 14 0;
#X connect 14 0 15 0;
#X connect 15 0 0 0;
#X restore 342 172 pd square;
#X obj 385 51 clip 0 4;
#X connect 0 0 9 0;
#X connect 1 0 9 0;
#X connect 2 0 9 0;
#X connect 3 0 0 2;
#X connect 3 0 1 2;
#X connect 3 0 2 2;
#X connect 3 0 18 2;
#X connect 3 0 17 2;
#X connect 6 0 0 1;
#X connect 6 0 1 1;
#X connect 6 0 2 1;
#X connect 6 0 17 1;
#X connect 6 0 18 1;
#X connect 7 0 19 0;
#X connect 10 0 0 0;
#X connect 11 0 1 0;
#X connect 12 0 11 0;
#X connect 12 0 10 0;
#X connect 12 0 14 0;
#X connect 12 0 15 0;
#X connect 12 0 16 0;
#X connect 13 0 12 0;
#X connect 14 0 2 0;
#X connect 15 0 18 0;
#X connect 16 0 17 0;
#X connect 17 0 9 0;
#X connect 18 0 9 0;
#X connect 19 0 12 0;
#X restore -163 383 pd spt-osc1;
#N canvas 167 179 695 417 spt-osc1 0;
#N canvas 156 355 492 405 sawtooth1 0;
#X obj 71 333 outlet~;
#X obj 18 30 inlet;
#X obj 34 69 mtof;
#X obj 59 159 phasor~;
#X obj 70 292 -~ 0.5;
#X obj 227 28 inlet~;
#X obj 93 190 samphold~;
#X obj 72 242 -~;
#X obj 70 268 wrap~;
#X text 62 30 <-pitch;
#X text 279 27 <-sync;
#X obj -83 79 switch~;
#X obj -86 29 inlet;
#X text -46 29 <-on/off;
#X obj 71 312 *~ 2;
#X connect 1 0 2 0;
#X connect 2 0 3 0;
#X connect 3 0 6 0;
#X connect 3 0 7 0;
#X connect 4 0 14 0;
#X connect 5 0 6 1;
#X connect 6 0 7 1;
#X connect 7 0 8 0;
#X connect 8 0 4 0;
#X connect 12 0 11 0;
#X connect 14 0 0 0;
#X restore 54 171 pd sawtooth1;
#N canvas 156 356 623 456 pulse1 0;
#X obj 90 407 outlet~;
#X obj 18 30 inlet;
#X obj 34 69 mtof;
#X obj 59 159 phasor~;
#X obj 227 28 inlet~;
#X obj 93 190 samphold~;
#X obj 72 242 -~;
#X obj 71 262 wrap~;
#X text 62 30 <-pitch;
#X text 279 27 <-sync;
#X obj -86 68 switch~;
#X obj -86 29 inlet;
#X text -46 29 <-on/off;
#X obj 71 286 cos~;
#X obj 84 318 *~ 10000;
#X obj 83 339 +~ 9500;
#X obj 85 368 clip~ -1 1;
#X connect 1 0 2 0;
#X connect 2 0 3 0;
#X connect 3 0 5 0;
#X connect 3 0 6 0;
#X connect 4 0 5 1;
#X connect 5 0 6 1;
#X connect 6 0 7 0;
#X connect 7 0 13 0;
#X connect 11 0 10 0;
#X connect 13 0 14 0;
#X connect 14 0 15 0;
#X connect 15 0 16 0;
#X connect 16 0 0 0;
#X restore 159 172 pd pulse1;
#N canvas 156 355 492 405 triangle1 0;
#X obj 73 460 outlet~;
#X obj 18 30 inlet;
#X obj 34 69 mtof;
#X obj 59 159 phasor~;
#X obj 227 28 inlet~;
#X obj 93 190 samphold~;
#X obj 72 242 -~;
#X obj 70 268 wrap~;
#X text 62 30 <-pitch;
#X text 279 27 <-sync;
#X obj 95 304 *~ -1;
#X obj 96 327 +~ 1;
#X obj 67 362 min~;
#X obj -83 79 switch~;
#X obj -86 29 inlet;
#X text -46 29 <-on/off;
#X obj 71 392 *~ 4;
#X obj 75 424 -~ 1;
#X connect 1 0 2 0;
#X connect 2 0 3 0;
#X connect 3 0 5 0;
#X connect 3 0 6 0;
#X connect 4 0 5 1;
#X connect 5 0 6 1;
#X connect 6 0 7 0;
#X connect 7 0 10 0;
#X connect 7 0 12 0;
#X connect 10 0 11 0;
#X connect 11 0 12 1;
#X connect 12 0 16 0;
#X connect 14 0 13 0;
#X connect 16 0 17 0;
#X connect 17 0 0 0;
#X restore 425 172 pd triangle1;
#X obj 273 28 inlet~;
#X text 130 21 <-pitch;
#X text 320 27 <-sync;
#X obj 89 21 inlet;
#X obj 479 22 inlet;
#X text 522 22 <-type 0 \, 1 \, 2;
#X obj 154 279 outlet~;
#X obj 20 138 == 0;
#X obj 124 137 == 1;
#X obj 347 95 int 0;
#X obj 483 46 loadbang;
#X obj 425 145 == 4;
#X obj 319 140 == 3;
#X obj 245 137 == 2;
#N canvas 156 356 623 456 pulse2 0;
#X obj 71 405 outlet~;
#X obj 18 30 inlet;
#X obj 34 69 mtof;
#X obj 59 159 phasor~;
#X obj 227 28 inlet~;
#X obj 93 190 samphold~;
#X obj 72 242 -~;
#X obj 70 268 wrap~;
#X text 62 30 <-pitch;
#X text 279 27 <-sync;
#X obj -86 68 switch~;
#X obj -86 29 inlet;
#X text -46 29 <-on/off;
#X obj 70 290 cos~;
#X obj 83 322 *~ 10000;
#X obj 84 372 clip~ -1 1;
#X obj 82 343 +~ 8500;
#X connect 1 0 2 0;
#X connect 2 0 3 0;
#X connect 3 0 5 0;
#X connect 3 0 6 0;
#X connect 4 0 5 1;
#X connect 5 0 6 1;
#X connect 6 0 7 0;
#X connect 7 0 13 0;
#X connect 11 0 10 0;
#X connect 13 0 14 0;
#X connect 14 0 16 0;
#X connect 15 0 0 0;
#X connect 16 0 15 0;
#X restore 252 173 pd pulse2;
#N canvas 156 356 623 456 square 0;
#X obj 30 422 outlet~;
#X obj 18 30 inlet;
#X obj 34 69 mtof;
#X obj 59 159 phasor~;
#X obj 227 28 inlet~;
#X obj 93 190 samphold~;
#X obj 72 242 -~;
#X obj 70 268 wrap~;
#X text 62 30 <-pitch;
#X text 279 27 <-sync;
#X obj -86 68 switch~;
#X obj -86 29 inlet;
#X text -46 29 <-on/off;
#X obj 69 297 cos~;
#X obj 73 323 *~ 10000;
#X obj 68 358 clip~ -1 1;
#X connect 1 0 2 0;
#X connect 2 0 3 0;
#X connect 3 0 5 0;
#X connect 3 0 6 0;
#X connect 4 0 5 1;
#X connect 5 0 6 1;
#X connect 6 0 7 0;
#X connect 7 0 13 0;
#X connect 11 0 10 0;
#X connect 13 0 14 0;
#X connect 14 0 15 0;
#X connect 15 0 0 0;
#X restore 342 172 pd square;
#X obj 385 51 clip 0 4;
#X connect 0 0 9 0;
#X connect 1 0 9 0;
#X connect 2 0 9 0;
#X connect 3 0 0 2;
#X connect 3 0 1 2;
#X connect 3 0 2 2;
#X connect 3 0 18 2;
#X connect 3 0 17 2;
#X connect 6 0 0 1;
#X connect 6 0 1 1;
#X connect 6 0 2 1;
#X connect 6 0 17 1;
#X connect 6 0 18 1;
#X connect 7 0 19 0;
#X connect 10 0 0 0;
#X connect 11 0 1 0;
#X connect 12 0 11 0;
#X connect 12 0 10 0;
#X connect 12 0 14 0;
#X connect 12 0 15 0;
#X connect 12 0 16 0;
#X connect 13 0 12 0;
#X connect 14 0 2 0;
#X connect 15 0 18 0;
#X connect 16 0 17 0;
#X connect 17 0 9 0;
#X connect 18 0 9 0;
#X connect 19 0 12 0;
#X restore -166 437 pd spt-osc1;
#X connect 0 0 17 0;
#X connect 0 1 10 0;
#X connect 0 1 72 1;
#X connect 0 1 73 1;
#X connect 1 0 8 0;
#X connect 2 0 1 0;
#X connect 3 0 31 0;
#X connect 3 0 71 0;
#X connect 4 0 5 0;
#X connect 5 0 6 1;
#X connect 6 0 56 0;
#X connect 6 0 55 0;
#X connect 7 0 18 0;
#X connect 7 0 18 1;
#X connect 9 0 14 0;
#X connect 10 0 1 0;
#X connect 10 1 30 0;
#X connect 11 0 13 1;
#X connect 12 0 23 0;
#X connect 13 0 12 0;
#X connect 14 0 11 0;
#X connect 16 0 12 1;
#X connect 17 0 15 0;
#X connect 18 0 9 0;
#X connect 19 0 6 0;
#X connect 21 0 70 0;
#X connect 24 0 9 1;
#X connect 25 0 24 1;
#X connect 26 0 24 0;
#X connect 26 1 25 0;
#X connect 27 0 29 1;
#X connect 27 0 29 0;
#X connect 28 0 2 0;
#X connect 28 0 71 2;
#X connect 29 0 28 0;
#X connect 30 0 8 0;
#X connect 30 0 15 0;
#X connect 31 0 0 0;
#X connect 31 1 32 0;
#X connect 32 0 30 0;
#X connect 33 0 14 1;
#X connect 34 0 33 0;
#X connect 34 1 33 1;
#X connect 35 0 24 0;
#X connect 36 0 35 0;
#X connect 36 1 35 1;
#X connect 37 0 72 2;
#X connect 37 0 73 2;
#X connect 39 0 40 0;
#X connect 40 0 13 0;
#X connect 41 0 4 0;
#X connect 43 0 34 0;
#X connect 44 0 13 2;
#X connect 46 0 36 0;
#X connect 48 0 27 1;
#X connect 48 0 27 0;
#X connect 50 0 26 0;
#X connect 53 0 56 1;
#X connect 53 0 57 0;
#X connect 55 0 73 0;
#X connect 56 0 72 0;
#X connect 57 0 55 1;
#X connect 58 0 64 1;
#X connect 58 0 64 0;
#X connect 60 0 71 3;
#X connect 62 0 67 1;
#X connect 62 0 67 0;
#X connect 64 0 66 1;
#X connect 64 0 66 0;
#X connect 65 0 71 1;
#X connect 66 0 65 0;
#X connect 67 0 69 1;
#X connect 67 0 69 0;
#X connect 68 0 71 4;
#X connect 69 0 68 0;
#X connect 70 0 3 0;
#X connect 71 0 16 0;
#X connect 71 0 7 1;
#X connect 71 0 7 0;
#X connect 72 0 39 1;
#X connect 73 0 39 0;
#X coords 0 0 1 1 120 100 0;
#X restore 47 368 pd one_doubleosc1_voice;
#X obj -173 140 t b f;
#X obj -14 95 poly 4 1;
#X obj -66 404 +;
#X obj -100 375 int;
#X obj -78 347 unpack 0 0;
#N canvas 197 80 1028 787 one_doubleosc1_voice 0;
#X obj 23 233 moses 0.001;
#X msg 5 397 0 5728.98;
#X msg -22 349 set 0 \$1;
#X obj -173 127 clip 0 1;
#X obj -159 209 - 1;
#X obj -170 230 * 12;
#X obj -186 253 +;
#X obj 63 463 *;
#X obj 71 422 line 0 1;
#X obj 68 508 *;
#X obj 49 327 t b b;
#X obj 68 561 mtof;
#X obj -71 666 *~;
#X obj -90 635 moog~;
#X obj 68 533 +;
#X obj -71 430 line 0 1;
#X obj -50 576 lop~ 50;
#X msg -67 401 0 30;
#X obj 61 488 *;
#X obj -254 107 inlet;
#X text -215 109 pitch;
#X obj -169 74 inlet;
#X text -127 73 gate;
#X obj -72 698 outlet~;
#X obj 212 396 *;
#X obj 239 355 + 1;
#X obj 219 323 t b f;
#X obj 427 209 *;
#X obj 427 257 * 10000;
#X obj 428 235 *;
#X msg 81 373 0;
#X obj 26 200 t f f;
#X msg 99 350 set \$1;
#X obj 125 243 +;
#X obj 129 211 t b f;
#X obj 170 252 +;
#X obj 174 220 t b f;
#X obj 3 170 inlet;
#X text 42 168 wave;
#X obj -103 514 +~;
#X obj -105 541 *~ 0.5;
#X obj -36 130 inlet;
#X text 3 128 okt;
#X obj 65 137 inlet;
#X obj 120 568 inlet;
#X text 159 568 res;
#X obj 141 140 inlet;
#X text 180 140 env;
#X obj 451 166 inlet;
#X text 492 167 decay;
#X obj 258 150 inlet;
#X text 297 150 env-pol;
#X text 107 136 cut;
#X obj -93 110 inlet;
#X text -54 110 det;
#X obj -195 347 +;
#X obj -100 291 +;
#X obj -154 317 * -1;
#X obj 366 137 inlet;
#X text 407 136 attack;
#X obj 501 252 inlet;
#X text 544 255 sustain;
#X obj 608 188 inlet;
#X text 648 190 release;
#X obj 365 176 *;
#X obj 368 224 * 10000;
#X obj 366 202 *;
#X obj 601 225 *;
#X obj 604 273 * 10000;
#X obj 602 251 *;
#X obj -172 103 / 128;
#N canvas 104 50 1108 856 adsr1 0;
#X obj -143 147 inlet;
#X msg 15 502 0;
#X obj 63 365 pack f f;
#X msg -148 457 0 23.4256;
#X msg 62 393 set \$1 \$2;
#X msg 63 325 bang;
#X obj 125 589 >=;
#X msg 216 752 0.57 5728.98;
#X obj 157 632 moses 0.001;
#X obj 150 406 pack f f;
#X msg 151 436 set \$1 \$2;
#X msg 154 350 bang;
#X msg 313 372 set 0 \$1;
#X msg -135 357 bang;
#X msg -136 523 0 256;
#X obj -145 184 clip 0 1;
#X obj -113 211 moses 0.001;
#X obj 15 538 line 0 1;
#X obj -20 376 t f f;
#X obj 9 720 spigot;
#X obj 228 693 delay 0;
#X obj -49 150 inlet;
#X text -8 150 att;
#X obj 22 153 inlet;
#X text 63 153 dec;
#X obj 93 152 inlet;
#X text 134 152 sus;
#X obj 170 152 inlet;
#X text 211 152 rel;
#X obj -106 711 outlet;
#X connect 0 0 15 0;
#X connect 1 0 17 0;
#X connect 2 0 4 0;
#X connect 3 0 17 0;
#X connect 4 0 3 0;
#X connect 5 0 2 0;
#X connect 6 0 8 0;
#X connect 7 0 19 0;
#X connect 8 1 20 0;
#X connect 9 0 10 0;
#X connect 10 0 7 0;
#X connect 11 0 9 0;
#X connect 12 0 14 0;
#X connect 13 0 14 0;
#X connect 14 0 17 0;
#X connect 15 0 16 0;
#X connect 15 0 19 1;
#X connect 16 0 13 0;
#X connect 16 1 2 0;
#X connect 16 1 18 0;
#X connect 17 0 6 0;
#X connect 17 0 29 0;
#X connect 18 0 3 0;
#X connect 18 1 6 1;
#X connect 18 1 1 0;
#X connect 19 0 17 0;
#X connect 20 0 7 0;
#X connect 21 0 2 1;
#X connect 21 0 5 0;
#X connect 23 0 11 0;
#X connect 23 0 9 1;
#X connect 25 0 11 0;
#X connect 25 0 9 0;
#X connect 27 0 12 0;
#X coords 0 0 1 1 120 160 0;
#X restore 315 333 pd adsr1;
#N canvas 167 179 695 417 spt-osc1 0;
#N canvas 156 355 492 405 sawtooth1 0;
#X obj 71 333 outlet~;
#X obj 18 30 inlet;
#X obj 34 69 mtof;
#X obj 59 159 phasor~;
#X obj 70 292 -~ 0.5;
#X obj 227 28 inlet~;
#X obj 93 190 samphold~;
#X obj 72 242 -~;
#X obj 70 268 wrap~;
#X text 62 30 <-pitch;
#X text 279 27 <-sync;
#X obj -83 79 switch~;
#X obj -86 29 inlet;
#X text -46 29 <-on/off;
#X obj 71 312 *~ 2;
#X connect 1 0 2 0;
#X connect 2 0 3 0;
#X connect 3 0 6 0;
#X connect 3 0 7 0;
#X connect 4 0 14 0;
#X connect 5 0 6 1;
#X connect 6 0 7 1;
#X connect 7 0 8 0;
#X connect 8 0 4 0;
#X connect 12 0 11 0;
#X connect 14 0 0 0;
#X restore 54 171 pd sawtooth1;
#N canvas 156 356 623 456 pulse1 0;
#X obj 90 407 outlet~;
#X obj 18 30 inlet;
#X obj 34 69 mtof;
#X obj 59 159 phasor~;
#X obj 227 28 inlet~;
#X obj 93 190 samphold~;
#X obj 72 242 -~;
#X obj 71 262 wrap~;
#X text 62 30 <-pitch;
#X text 279 27 <-sync;
#X obj -86 68 switch~;
#X obj -86 29 inlet;
#X text -46 29 <-on/off;
#X obj 71 286 cos~;
#X obj 84 318 *~ 10000;
#X obj 83 339 +~ 9500;
#X obj 85 368 clip~ -1 1;
#X connect 1 0 2 0;
#X connect 2 0 3 0;
#X connect 3 0 5 0;
#X connect 3 0 6 0;
#X connect 4 0 5 1;
#X connect 5 0 6 1;
#X connect 6 0 7 0;
#X connect 7 0 13 0;
#X connect 11 0 10 0;
#X connect 13 0 14 0;
#X connect 14 0 15 0;
#X connect 15 0 16 0;
#X connect 16 0 0 0;
#X restore 159 172 pd pulse1;
#N canvas 156 355 492 405 triangle1 0;
#X obj 73 460 outlet~;
#X obj 18 30 inlet;
#X obj 34 69 mtof;
#X obj 59 159 phasor~;
#X obj 227 28 inlet~;
#X obj 93 190 samphold~;
#X obj 72 242 -~;
#X obj 70 268 wrap~;
#X text 62 30 <-pitch;
#X text 279 27 <-sync;
#X obj 95 304 *~ -1;
#X obj 96 327 +~ 1;
#X obj 67 362 min~;
#X obj -83 79 switch~;
#X obj -86 29 inlet;
#X text -46 29 <-on/off;
#X obj 71 392 *~ 4;
#X obj 75 424 -~ 1;
#X connect 1 0 2 0;
#X connect 2 0 3 0;
#X connect 3 0 5 0;
#X connect 3 0 6 0;
#X connect 4 0 5 1;
#X connect 5 0 6 1;
#X connect 6 0 7 0;
#X connect 7 0 10 0;
#X connect 7 0 12 0;
#X connect 10 0 11 0;
#X connect 11 0 12 1;
#X connect 12 0 16 0;
#X connect 14 0 13 0;
#X connect 16 0 17 0;
#X connect 17 0 0 0;
#X restore 425 172 pd triangle1;
#X obj 273 28 inlet~;
#X text 130 21 <-pitch;
#X text 320 27 <-sync;
#X obj 89 21 inlet;
#X obj 479 22 inlet;
#X text 522 22 <-type 0 \, 1 \, 2;
#X obj 154 279 outlet~;
#X obj 20 138 == 0;
#X obj 124 137 == 1;
#X obj 347 95 int 0;
#X obj 483 46 loadbang;
#X obj 425 145 == 4;
#X obj 319 140 == 3;
#X obj 245 137 == 2;
#N canvas 156 356 623 456 pulse2 0;
#X obj 71 405 outlet~;
#X obj 18 30 inlet;
#X obj 34 69 mtof;
#X obj 59 159 phasor~;
#X obj 227 28 inlet~;
#X obj 93 190 samphold~;
#X obj 72 242 -~;
#X obj 70 268 wrap~;
#X text 62 30 <-pitch;
#X text 279 27 <-sync;
#X obj -86 68 switch~;
#X obj -86 29 inlet;
#X text -46 29 <-on/off;
#X obj 70 290 cos~;
#X obj 83 322 *~ 10000;
#X obj 84 372 clip~ -1 1;
#X obj 82 343 +~ 8500;
#X connect 1 0 2 0;
#X connect 2 0 3 0;
#X connect 3 0 5 0;
#X connect 3 0 6 0;
#X connect 4 0 5 1;
#X connect 5 0 6 1;
#X connect 6 0 7 0;
#X connect 7 0 13 0;
#X connect 11 0 10 0;
#X connect 13 0 14 0;
#X connect 14 0 16 0;
#X connect 15 0 0 0;
#X connect 16 0 15 0;
#X restore 252 173 pd pulse2;
#N canvas 156 356 623 456 square 0;
#X obj 30 422 outlet~;
#X obj 18 30 inlet;
#X obj 34 69 mtof;
#X obj 59 159 phasor~;
#X obj 227 28 inlet~;
#X obj 93 190 samphold~;
#X obj 72 242 -~;
#X obj 70 268 wrap~;
#X text 62 30 <-pitch;
#X text 279 27 <-sync;
#X obj -86 68 switch~;
#X obj -86 29 inlet;
#X text -46 29 <-on/off;
#X obj 69 297 cos~;
#X obj 73 323 *~ 10000;
#X obj 68 358 clip~ -1 1;
#X connect 1 0 2 0;
#X connect 2 0 3 0;
#X connect 3 0 5 0;
#X connect 3 0 6 0;
#X connect 4 0 5 1;
#X connect 5 0 6 1;
#X connect 6 0 7 0;
#X connect 7 0 13 0;
#X connect 11 0 10 0;
#X connect 13 0 14 0;
#X connect 14 0 15 0;
#X connect 15 0 0 0;
#X restore 342 172 pd square;
#X obj 385 51 clip 0 4;
#X connect 0 0 9 0;
#X connect 1 0 9 0;
#X connect 2 0 9 0;
#X connect 3 0 0 2;
#X connect 3 0 1 2;
#X connect 3 0 2 2;
#X connect 3 0 18 2;
#X connect 3 0 17 2;
#X connect 6 0 0 1;
#X connect 6 0 1 1;
#X connect 6 0 2 1;
#X connect 6 0 17 1;
#X connect 6 0 18 1;
#X connect 7 0 19 0;
#X connect 10 0 0 0;
#X connect 11 0 1 0;
#X connect 12 0 11 0;
#X connect 12 0 10 0;
#X connect 12 0 14 0;
#X connect 12 0 15 0;
#X connect 12 0 16 0;
#X connect 13 0 12 0;
#X connect 14 0 2 0;
#X connect 15 0 18 0;
#X connect 16 0 17 0;
#X connect 17 0 9 0;
#X connect 18 0 9 0;
#X connect 19 0 12 0;
#X restore -166 372 pd spt-osc1;
#N canvas 167 179 695 417 spt-osc1 0;
#N canvas 156 355 492 405 sawtooth1 0;
#X obj 71 333 outlet~;
#X obj 18 30 inlet;
#X obj 34 69 mtof;
#X obj 59 159 phasor~;
#X obj 70 292 -~ 0.5;
#X obj 227 28 inlet~;
#X obj 93 190 samphold~;
#X obj 72 242 -~;
#X obj 70 268 wrap~;
#X text 62 30 <-pitch;
#X text 279 27 <-sync;
#X obj -83 79 switch~;
#X obj -86 29 inlet;
#X text -46 29 <-on/off;
#X obj 71 312 *~ 2;
#X connect 1 0 2 0;
#X connect 2 0 3 0;
#X connect 3 0 6 0;
#X connect 3 0 7 0;
#X connect 4 0 14 0;
#X connect 5 0 6 1;
#X connect 6 0 7 1;
#X connect 7 0 8 0;
#X connect 8 0 4 0;
#X connect 12 0 11 0;
#X connect 14 0 0 0;
#X restore 54 171 pd sawtooth1;
#N canvas 156 356 623 456 pulse1 0;
#X obj 90 407 outlet~;
#X obj 18 30 inlet;
#X obj 34 69 mtof;
#X obj 59 159 phasor~;
#X obj 227 28 inlet~;
#X obj 93 190 samphold~;
#X obj 72 242 -~;
#X obj 71 262 wrap~;
#X text 62 30 <-pitch;
#X text 279 27 <-sync;
#X obj -86 68 switch~;
#X obj -86 29 inlet;
#X text -46 29 <-on/off;
#X obj 71 286 cos~;
#X obj 84 318 *~ 10000;
#X obj 83 339 +~ 9500;
#X obj 85 368 clip~ -1 1;
#X connect 1 0 2 0;
#X connect 2 0 3 0;
#X connect 3 0 5 0;
#X connect 3 0 6 0;
#X connect 4 0 5 1;
#X connect 5 0 6 1;
#X connect 6 0 7 0;
#X connect 7 0 13 0;
#X connect 11 0 10 0;
#X connect 13 0 14 0;
#X connect 14 0 15 0;
#X connect 15 0 16 0;
#X connect 16 0 0 0;
#X restore 159 172 pd pulse1;
#N canvas 156 355 492 405 triangle1 0;
#X obj 73 460 outlet~;
#X obj 18 30 inlet;
#X obj 34 69 mtof;
#X obj 59 159 phasor~;
#X obj 227 28 inlet~;
#X obj 93 190 samphold~;
#X obj 72 242 -~;
#X obj 70 268 wrap~;
#X text 62 30 <-pitch;
#X text 279 27 <-sync;
#X obj 95 304 *~ -1;
#X obj 96 327 +~ 1;
#X obj 67 362 min~;
#X obj -83 79 switch~;
#X obj -86 29 inlet;
#X text -46 29 <-on/off;
#X obj 71 392 *~ 4;
#X obj 75 424 -~ 1;
#X connect 1 0 2 0;
#X connect 2 0 3 0;
#X connect 3 0 5 0;
#X connect 3 0 6 0;
#X connect 4 0 5 1;
#X connect 5 0 6 1;
#X connect 6 0 7 0;
#X connect 7 0 10 0;
#X connect 7 0 12 0;
#X connect 10 0 11 0;
#X connect 11 0 12 1;
#X connect 12 0 16 0;
#X connect 14 0 13 0;
#X connect 16 0 17 0;
#X connect 17 0 0 0;
#X restore 425 172 pd triangle1;
#X obj 273 28 inlet~;
#X text 130 21 <-pitch;
#X text 320 27 <-sync;
#X obj 89 21 inlet;
#X obj 479 22 inlet;
#X text 522 22 <-type 0 \, 1 \, 2;
#X obj 154 279 outlet~;
#X obj 20 138 == 0;
#X obj 124 137 == 1;
#X obj 347 95 int 0;
#X obj 483 46 loadbang;
#X obj 425 145 == 4;
#X obj 319 140 == 3;
#X obj 245 137 == 2;
#N canvas 156 356 623 456 pulse2 0;
#X obj 71 405 outlet~;
#X obj 18 30 inlet;
#X obj 34 69 mtof;
#X obj 59 159 phasor~;
#X obj 227 28 inlet~;
#X obj 93 190 samphold~;
#X obj 72 242 -~;
#X obj 70 268 wrap~;
#X text 62 30 <-pitch;
#X text 279 27 <-sync;
#X obj -86 68 switch~;
#X obj -86 29 inlet;
#X text -46 29 <-on/off;
#X obj 70 290 cos~;
#X obj 83 322 *~ 10000;
#X obj 84 372 clip~ -1 1;
#X obj 82 343 +~ 8500;
#X connect 1 0 2 0;
#X connect 2 0 3 0;
#X connect 3 0 5 0;
#X connect 3 0 6 0;
#X connect 4 0 5 1;
#X connect 5 0 6 1;
#X connect 6 0 7 0;
#X connect 7 0 13 0;
#X connect 11 0 10 0;
#X connect 13 0 14 0;
#X connect 14 0 16 0;
#X connect 15 0 0 0;
#X connect 16 0 15 0;
#X restore 252 173 pd pulse2;
#N canvas 156 356 623 456 square 0;
#X obj 30 422 outlet~;
#X obj 18 30 inlet;
#X obj 34 69 mtof;
#X obj 59 159 phasor~;
#X obj 227 28 inlet~;
#X obj 93 190 samphold~;
#X obj 72 242 -~;
#X obj 70 268 wrap~;
#X text 62 30 <-pitch;
#X text 279 27 <-sync;
#X obj -86 68 switch~;
#X obj -86 29 inlet;
#X text -46 29 <-on/off;
#X obj 69 297 cos~;
#X obj 73 323 *~ 10000;
#X obj 68 358 clip~ -1 1;
#X connect 1 0 2 0;
#X connect 2 0 3 0;
#X connect 3 0 5 0;
#X connect 3 0 6 0;
#X connect 4 0 5 1;
#X connect 5 0 6 1;
#X connect 6 0 7 0;
#X connect 7 0 13 0;
#X connect 11 0 10 0;
#X connect 13 0 14 0;
#X connect 14 0 15 0;
#X connect 15 0 0 0;
#X restore 342 172 pd square;
#X obj 385 51 clip 0 4;
#X connect 0 0 9 0;
#X connect 1 0 9 0;
#X connect 2 0 9 0;
#X connect 3 0 0 2;
#X connect 3 0 1 2;
#X connect 3 0 2 2;
#X connect 3 0 18 2;
#X connect 3 0 17 2;
#X connect 6 0 0 1;
#X connect 6 0 1 1;
#X connect 6 0 2 1;
#X connect 6 0 17 1;
#X connect 6 0 18 1;
#X connect 7 0 19 0;
#X connect 10 0 0 0;
#X connect 11 0 1 0;
#X connect 12 0 11 0;
#X connect 12 0 10 0;
#X connect 12 0 14 0;
#X connect 12 0 15 0;
#X connect 12 0 16 0;
#X connect 13 0 12 0;
#X connect 14 0 2 0;
#X connect 15 0 18 0;
#X connect 16 0 17 0;
#X connect 17 0 9 0;
#X connect 18 0 9 0;
#X connect 19 0 12 0;
#X restore -174 424 pd spt-osc1;
#X connect 0 0 17 0;
#X connect 0 1 10 0;
#X connect 0 1 72 1;
#X connect 0 1 73 1;
#X connect 1 0 8 0;
#X connect 2 0 1 0;
#X connect 3 0 31 0;
#X connect 3 0 71 0;
#X connect 4 0 5 0;
#X connect 5 0 6 1;
#X connect 6 0 56 0;
#X connect 6 0 55 0;
#X connect 7 0 18 0;
#X connect 7 0 18 1;
#X connect 9 0 14 0;
#X connect 10 0 1 0;
#X connect 10 1 30 0;
#X connect 11 0 13 1;
#X connect 12 0 23 0;
#X connect 13 0 12 0;
#X connect 14 0 11 0;
#X connect 16 0 12 1;
#X connect 17 0 15 0;
#X connect 18 0 9 0;
#X connect 19 0 6 0;
#X connect 21 0 70 0;
#X connect 24 0 9 1;
#X connect 25 0 24 1;
#X connect 26 0 24 0;
#X connect 26 1 25 0;
#X connect 27 0 29 1;
#X connect 27 0 29 0;
#X connect 28 0 2 0;
#X connect 28 0 71 2;
#X connect 29 0 28 0;
#X connect 30 0 8 0;
#X connect 30 0 15 0;
#X connect 31 0 0 0;
#X connect 31 1 32 0;
#X connect 32 0 30 0;
#X connect 33 0 14 1;
#X connect 34 0 33 0;
#X connect 34 1 33 1;
#X connect 35 0 24 0;
#X connect 36 0 35 0;
#X connect 36 1 35 1;
#X connect 37 0 72 2;
#X connect 37 0 73 2;
#X connect 39 0 40 0;
#X connect 40 0 13 0;
#X connect 41 0 4 0;
#X connect 43 0 34 0;
#X connect 44 0 13 2;
#X connect 46 0 36 0;
#X connect 48 0 27 1;
#X connect 48 0 27 0;
#X connect 50 0 26 0;
#X connect 53 0 56 1;
#X connect 53 0 57 0;
#X connect 55 0 73 0;
#X connect 56 0 72 0;
#X connect 57 0 55 1;
#X connect 58 0 64 1;
#X connect 58 0 64 0;
#X connect 60 0 71 3;
#X connect 62 0 67 1;
#X connect 62 0 67 0;
#X connect 64 0 66 1;
#X connect 64 0 66 0;
#X connect 65 0 71 1;
#X connect 66 0 65 0;
#X connect 67 0 69 1;
#X connect 67 0 69 0;
#X connect 68 0 71 4;
#X connect 69 0 68 0;
#X connect 70 0 3 0;
#X connect 71 0 16 0;
#X connect 71 0 7 1;
#X connect 71 0 7 0;
#X connect 72 0 39 1;
#X connect 73 0 39 0;
#X coords 0 0 1 1 120 100 0;
#X restore -10 437 pd one_doubleosc1_voice;
#X obj -86 510 +;
#X obj -120 481 int;
#X obj -98 453 unpack 0 0;
#N canvas 197 80 1028 787 one_doubleosc1_voice 0;
#X obj 23 233 moses 0.001;
#X msg 5 397 0 5728.98;
#X msg -22 349 set 0 \$1;
#X obj -173 127 clip 0 1;
#X obj -159 209 - 1;
#X obj -170 230 * 12;
#X obj -186 253 +;
#X obj 63 463 *;
#X obj 71 422 line 0 1;
#X obj 68 508 *;
#X obj 49 327 t b b;
#X obj 68 561 mtof;
#X obj -71 666 *~;
#X obj -90 635 moog~;
#X obj 68 533 +;
#X obj -71 430 line 0 1;
#X obj -50 576 lop~ 50;
#X msg -67 401 0 30;
#X obj 61 488 *;
#X obj -254 107 inlet;
#X text -215 109 pitch;
#X obj -169 74 inlet;
#X text -127 73 gate;
#X obj -72 698 outlet~;
#X obj 212 396 *;
#X obj 239 355 + 1;
#X obj 219 323 t b f;
#X obj 427 209 *;
#X obj 427 257 * 10000;
#X obj 428 235 *;
#X msg 81 373 0;
#X obj 26 200 t f f;
#X msg 99 350 set \$1;
#X obj 125 243 +;
#X obj 129 211 t b f;
#X obj 170 252 +;
#X obj 174 220 t b f;
#X obj 3 170 inlet;
#X text 42 168 wave;
#X obj -103 514 +~;
#X obj -105 541 *~ 0.5;
#X obj -36 130 inlet;
#X text 3 128 okt;
#X obj 65 137 inlet;
#X obj 120 568 inlet;
#X text 159 568 res;
#X obj 141 140 inlet;
#X text 180 140 env;
#X obj 451 166 inlet;
#X text 492 167 decay;
#X obj 258 150 inlet;
#X text 297 150 env-pol;
#X text 107 136 cut;
#X obj -93 110 inlet;
#X text -54 110 det;
#X obj -195 347 +;
#X obj -100 291 +;
#X obj -154 317 * -1;
#X obj 366 137 inlet;
#X text 407 136 attack;
#X obj 501 252 inlet;
#X text 544 255 sustain;
#X obj 608 188 inlet;
#X text 648 190 release;
#X obj 365 176 *;
#X obj 368 224 * 10000;
#X obj 366 202 *;
#X obj 601 225 *;
#X obj 604 273 * 10000;
#X obj 602 251 *;
#X obj -172 103 / 128;
#N canvas 104 50 1108 856 adsr1 0;
#X obj -143 147 inlet;
#X msg 15 502 0;
#X obj 63 365 pack f f;
#X msg -148 457 0 23.4256;
#X msg 62 393 set \$1 \$2;
#X msg 63 325 bang;
#X obj 125 589 >=;
#X msg 216 752 0.57 5728.98;
#X obj 157 632 moses 0.001;
#X obj 150 406 pack f f;
#X msg 151 436 set \$1 \$2;
#X msg 154 350 bang;
#X msg 313 372 set 0 \$1;
#X msg -135 357 bang;
#X msg -136 523 0 256;
#X obj -145 184 clip 0 1;
#X obj -113 211 moses 0.001;
#X obj 15 538 line 0 1;
#X obj -20 376 t f f;
#X obj 9 720 spigot;
#X obj 228 693 delay 0;
#X obj -49 150 inlet;
#X text -8 150 att;
#X obj 22 153 inlet;
#X text 63 153 dec;
#X obj 93 152 inlet;
#X text 134 152 sus;
#X obj 170 152 inlet;
#X text 211 152 rel;
#X obj -106 711 outlet;
#X connect 0 0 15 0;
#X connect 1 0 17 0;
#X connect 2 0 4 0;
#X connect 3 0 17 0;
#X connect 4 0 3 0;
#X connect 5 0 2 0;
#X connect 6 0 8 0;
#X connect 7 0 19 0;
#X connect 8 1 20 0;
#X connect 9 0 10 0;
#X connect 10 0 7 0;
#X connect 11 0 9 0;
#X connect 12 0 14 0;
#X connect 13 0 14 0;
#X connect 14 0 17 0;
#X connect 15 0 16 0;
#X connect 15 0 19 1;
#X connect 16 0 13 0;
#X connect 16 1 2 0;
#X connect 16 1 18 0;
#X connect 17 0 6 0;
#X connect 17 0 29 0;
#X connect 18 0 3 0;
#X connect 18 1 6 1;
#X connect 18 1 1 0;
#X connect 19 0 17 0;
#X connect 20 0 7 0;
#X connect 21 0 2 1;
#X connect 21 0 5 0;
#X connect 23 0 11 0;
#X connect 23 0 9 1;
#X connect 25 0 11 0;
#X connect 25 0 9 0;
#X connect 27 0 12 0;
#X coords 0 0 1 1 120 160 0;
#X restore 315 333 pd adsr1;
#N canvas 167 179 695 417 spt-osc1 0;
#N canvas 156 355 492 405 sawtooth1 0;
#X obj 71 333 outlet~;
#X obj 18 30 inlet;
#X obj 34 69 mtof;
#X obj 59 159 phasor~;
#X obj 70 292 -~ 0.5;
#X obj 227 28 inlet~;
#X obj 93 190 samphold~;
#X obj 72 242 -~;
#X obj 70 268 wrap~;
#X text 62 30 <-pitch;
#X text 279 27 <-sync;
#X obj -83 79 switch~;
#X obj -86 29 inlet;
#X text -46 29 <-on/off;
#X obj 71 312 *~ 2;
#X connect 1 0 2 0;
#X connect 2 0 3 0;
#X connect 3 0 6 0;
#X connect 3 0 7 0;
#X connect 4 0 14 0;
#X connect 5 0 6 1;
#X connect 6 0 7 1;
#X connect 7 0 8 0;
#X connect 8 0 4 0;
#X connect 12 0 11 0;
#X connect 14 0 0 0;
#X restore 54 171 pd sawtooth1;
#N canvas 156 356 623 456 pulse1 0;
#X obj 90 407 outlet~;
#X obj 18 30 inlet;
#X obj 34 69 mtof;
#X obj 59 159 phasor~;
#X obj 227 28 inlet~;
#X obj 93 190 samphold~;
#X obj 72 242 -~;
#X obj 71 262 wrap~;
#X text 62 30 <-pitch;
#X text 279 27 <-sync;
#X obj -86 68 switch~;
#X obj -86 29 inlet;
#X text -46 29 <-on/off;
#X obj 71 286 cos~;
#X obj 84 318 *~ 10000;
#X obj 83 339 +~ 9500;
#X obj 85 368 clip~ -1 1;
#X connect 1 0 2 0;
#X connect 2 0 3 0;
#X connect 3 0 5 0;
#X connect 3 0 6 0;
#X connect 4 0 5 1;
#X connect 5 0 6 1;
#X connect 6 0 7 0;
#X connect 7 0 13 0;
#X connect 11 0 10 0;
#X connect 13 0 14 0;
#X connect 14 0 15 0;
#X connect 15 0 16 0;
#X connect 16 0 0 0;
#X restore 159 172 pd pulse1;
#N canvas 156 355 492 405 triangle1 0;
#X obj 73 460 outlet~;
#X obj 18 30 inlet;
#X obj 34 69 mtof;
#X obj 59 159 phasor~;
#X obj 227 28 inlet~;
#X obj 93 190 samphold~;
#X obj 72 242 -~;
#X obj 70 268 wrap~;
#X text 62 30 <-pitch;
#X text 279 27 <-sync;
#X obj 95 304 *~ -1;
#X obj 96 327 +~ 1;
#X obj 67 362 min~;
#X obj -83 79 switch~;
#X obj -86 29 inlet;
#X text -46 29 <-on/off;
#X obj 71 392 *~ 4;
#X obj 75 424 -~ 1;
#X connect 1 0 2 0;
#X connect 2 0 3 0;
#X connect 3 0 5 0;
#X connect 3 0 6 0;
#X connect 4 0 5 1;
#X connect 5 0 6 1;
#X connect 6 0 7 0;
#X connect 7 0 10 0;
#X connect 7 0 12 0;
#X connect 10 0 11 0;
#X connect 11 0 12 1;
#X connect 12 0 16 0;
#X connect 14 0 13 0;
#X connect 16 0 17 0;
#X connect 17 0 0 0;
#X restore 425 172 pd triangle1;
#X obj 273 28 inlet~;
#X text 130 21 <-pitch;
#X text 320 27 <-sync;
#X obj 89 21 inlet;
#X obj 479 22 inlet;
#X text 522 22 <-type 0 \, 1 \, 2;
#X obj 154 279 outlet~;
#X obj 20 138 == 0;
#X obj 124 137 == 1;
#X obj 347 95 int 0;
#X obj 483 46 loadbang;
#X obj 425 145 == 4;
#X obj 319 140 == 3;
#X obj 245 137 == 2;
#N canvas 156 356 623 456 pulse2 0;
#X obj 71 405 outlet~;
#X obj 18 30 inlet;
#X obj 34 69 mtof;
#X obj 59 159 phasor~;
#X obj 227 28 inlet~;
#X obj 93 190 samphold~;
#X obj 72 242 -~;
#X obj 70 268 wrap~;
#X text 62 30 <-pitch;
#X text 279 27 <-sync;
#X obj -86 68 switch~;
#X obj -86 29 inlet;
#X text -46 29 <-on/off;
#X obj 70 290 cos~;
#X obj 83 322 *~ 10000;
#X obj 84 372 clip~ -1 1;
#X obj 82 343 +~ 8500;
#X connect 1 0 2 0;
#X connect 2 0 3 0;
#X connect 3 0 5 0;
#X connect 3 0 6 0;
#X connect 4 0 5 1;
#X connect 5 0 6 1;
#X connect 6 0 7 0;
#X connect 7 0 13 0;
#X connect 11 0 10 0;
#X connect 13 0 14 0;
#X connect 14 0 16 0;
#X connect 15 0 0 0;
#X connect 16 0 15 0;
#X restore 252 173 pd pulse2;
#N canvas 156 356 623 456 square 0;
#X obj 30 422 outlet~;
#X obj 18 30 inlet;
#X obj 34 69 mtof;
#X obj 59 159 phasor~;
#X obj 227 28 inlet~;
#X obj 93 190 samphold~;
#X obj 72 242 -~;
#X obj 70 268 wrap~;
#X text 62 30 <-pitch;
#X text 279 27 <-sync;
#X obj -86 68 switch~;
#X obj -86 29 inlet;
#X text -46 29 <-on/off;
#X obj 69 297 cos~;
#X obj 73 323 *~ 10000;
#X obj 68 358 clip~ -1 1;
#X connect 1 0 2 0;
#X connect 2 0 3 0;
#X connect 3 0 5 0;
#X connect 3 0 6 0;
#X connect 4 0 5 1;
#X connect 5 0 6 1;
#X connect 6 0 7 0;
#X connect 7 0 13 0;
#X connect 11 0 10 0;
#X connect 13 0 14 0;
#X connect 14 0 15 0;
#X connect 15 0 0 0;
#X restore 342 172 pd square;
#X obj 385 51 clip 0 4;
#X connect 0 0 9 0;
#X connect 1 0 9 0;
#X connect 2 0 9 0;
#X connect 3 0 0 2;
#X connect 3 0 1 2;
#X connect 3 0 2 2;
#X connect 3 0 18 2;
#X connect 3 0 17 2;
#X connect 6 0 0 1;
#X connect 6 0 1 1;
#X connect 6 0 2 1;
#X connect 6 0 17 1;
#X connect 6 0 18 1;
#X connect 7 0 19 0;
#X connect 10 0 0 0;
#X connect 11 0 1 0;
#X connect 12 0 11 0;
#X connect 12 0 10 0;
#X connect 12 0 14 0;
#X connect 12 0 15 0;
#X connect 12 0 16 0;
#X connect 13 0 12 0;
#X connect 14 0 2 0;
#X connect 15 0 18 0;
#X connect 16 0 17 0;
#X connect 17 0 9 0;
#X connect 18 0 9 0;
#X connect 19 0 12 0;
#X restore -176 378 pd spt-osc1;
#N canvas 167 179 695 417 spt-osc1 0;
#N canvas 156 355 492 405 sawtooth1 0;
#X obj 71 333 outlet~;
#X obj 18 30 inlet;
#X obj 34 69 mtof;
#X obj 59 159 phasor~;
#X obj 70 292 -~ 0.5;
#X obj 227 28 inlet~;
#X obj 93 190 samphold~;
#X obj 72 242 -~;
#X obj 70 268 wrap~;
#X text 62 30 <-pitch;
#X text 279 27 <-sync;
#X obj -83 79 switch~;
#X obj -86 29 inlet;
#X text -46 29 <-on/off;
#X obj 71 312 *~ 2;
#X connect 1 0 2 0;
#X connect 2 0 3 0;
#X connect 3 0 6 0;
#X connect 3 0 7 0;
#X connect 4 0 14 0;
#X connect 5 0 6 1;
#X connect 6 0 7 1;
#X connect 7 0 8 0;
#X connect 8 0 4 0;
#X connect 12 0 11 0;
#X connect 14 0 0 0;
#X restore 54 171 pd sawtooth1;
#N canvas 156 356 623 456 pulse1 0;
#X obj 90 407 outlet~;
#X obj 18 30 inlet;
#X obj 34 69 mtof;
#X obj 59 159 phasor~;
#X obj 227 28 inlet~;
#X obj 93 190 samphold~;
#X obj 72 242 -~;
#X obj 71 262 wrap~;
#X text 62 30 <-pitch;
#X text 279 27 <-sync;
#X obj -86 68 switch~;
#X obj -86 29 inlet;
#X text -46 29 <-on/off;
#X obj 71 286 cos~;
#X obj 84 318 *~ 10000;
#X obj 83 339 +~ 9500;
#X obj 85 368 clip~ -1 1;
#X connect 1 0 2 0;
#X connect 2 0 3 0;
#X connect 3 0 5 0;
#X connect 3 0 6 0;
#X connect 4 0 5 1;
#X connect 5 0 6 1;
#X connect 6 0 7 0;
#X connect 7 0 13 0;
#X connect 11 0 10 0;
#X connect 13 0 14 0;
#X connect 14 0 15 0;
#X connect 15 0 16 0;
#X connect 16 0 0 0;
#X restore 159 172 pd pulse1;
#N canvas 156 355 492 405 triangle1 0;
#X obj 73 460 outlet~;
#X obj 18 30 inlet;
#X obj 34 69 mtof;
#X obj 59 159 phasor~;
#X obj 227 28 inlet~;
#X obj 93 190 samphold~;
#X obj 72 242 -~;
#X obj 70 268 wrap~;
#X text 62 30 <-pitch;
#X text 279 27 <-sync;
#X obj 95 304 *~ -1;
#X obj 96 327 +~ 1;
#X obj 67 362 min~;
#X obj -83 79 switch~;
#X obj -86 29 inlet;
#X text -46 29 <-on/off;
#X obj 71 392 *~ 4;
#X obj 75 424 -~ 1;
#X connect 1 0 2 0;
#X connect 2 0 3 0;
#X connect 3 0 5 0;
#X connect 3 0 6 0;
#X connect 4 0 5 1;
#X connect 5 0 6 1;
#X connect 6 0 7 0;
#X connect 7 0 10 0;
#X connect 7 0 12 0;
#X connect 10 0 11 0;
#X connect 11 0 12 1;
#X connect 12 0 16 0;
#X connect 14 0 13 0;
#X connect 16 0 17 0;
#X connect 17 0 0 0;
#X restore 425 172 pd triangle1;
#X obj 273 28 inlet~;
#X text 130 21 <-pitch;
#X text 320 27 <-sync;
#X obj 89 21 inlet;
#X obj 479 22 inlet;
#X text 522 22 <-type 0 \, 1 \, 2;
#X obj 154 279 outlet~;
#X obj 20 138 == 0;
#X obj 124 137 == 1;
#X obj 347 95 int 0;
#X obj 483 46 loadbang;
#X obj 425 145 == 4;
#X obj 319 140 == 3;
#X obj 245 137 == 2;
#N canvas 156 356 623 456 pulse2 0;
#X obj 71 405 outlet~;
#X obj 18 30 inlet;
#X obj 34 69 mtof;
#X obj 59 159 phasor~;
#X obj 227 28 inlet~;
#X obj 93 190 samphold~;
#X obj 72 242 -~;
#X obj 70 268 wrap~;
#X text 62 30 <-pitch;
#X text 279 27 <-sync;
#X obj -86 68 switch~;
#X obj -86 29 inlet;
#X text -46 29 <-on/off;
#X obj 70 290 cos~;
#X obj 83 322 *~ 10000;
#X obj 84 372 clip~ -1 1;
#X obj 82 343 +~ 8500;
#X connect 1 0 2 0;
#X connect 2 0 3 0;
#X connect 3 0 5 0;
#X connect 3 0 6 0;
#X connect 4 0 5 1;
#X connect 5 0 6 1;
#X connect 6 0 7 0;
#X connect 7 0 13 0;
#X connect 11 0 10 0;
#X connect 13 0 14 0;
#X connect 14 0 16 0;
#X connect 15 0 0 0;
#X connect 16 0 15 0;
#X restore 252 173 pd pulse2;
#N canvas 156 356 623 456 square 0;
#X obj 30 422 outlet~;
#X obj 18 30 inlet;
#X obj 34 69 mtof;
#X obj 59 159 phasor~;
#X obj 227 28 inlet~;
#X obj 93 190 samphold~;
#X obj 72 242 -~;
#X obj 70 268 wrap~;
#X text 62 30 <-pitch;
#X text 279 27 <-sync;
#X obj -86 68 switch~;
#X obj -86 29 inlet;
#X text -46 29 <-on/off;
#X obj 69 297 cos~;
#X obj 73 323 *~ 10000;
#X obj 68 358 clip~ -1 1;
#X connect 1 0 2 0;
#X connect 2 0 3 0;
#X connect 3 0 5 0;
#X connect 3 0 6 0;
#X connect 4 0 5 1;
#X connect 5 0 6 1;
#X connect 6 0 7 0;
#X connect 7 0 13 0;
#X connect 11 0 10 0;
#X connect 13 0 14 0;
#X connect 14 0 15 0;
#X connect 15 0 0 0;
#X restore 342 172 pd square;
#X obj 385 51 clip 0 4;
#X connect 0 0 9 0;
#X connect 1 0 9 0;
#X connect 2 0 9 0;
#X connect 3 0 0 2;
#X connect 3 0 1 2;
#X connect 3 0 2 2;
#X connect 3 0 18 2;
#X connect 3 0 17 2;
#X connect 6 0 0 1;
#X connect 6 0 1 1;
#X connect 6 0 2 1;
#X connect 6 0 17 1;
#X connect 6 0 18 1;
#X connect 7 0 19 0;
#X connect 10 0 0 0;
#X connect 11 0 1 0;
#X connect 12 0 11 0;
#X connect 12 0 10 0;
#X connect 12 0 14 0;
#X connect 12 0 15 0;
#X connect 12 0 16 0;
#X connect 13 0 12 0;
#X connect 14 0 2 0;
#X connect 15 0 18 0;
#X connect 16 0 17 0;
#X connect 17 0 9 0;
#X connect 18 0 9 0;
#X connect 19 0 12 0;
#X restore -189 441 pd spt-osc1;
#X connect 0 0 17 0;
#X connect 0 1 10 0;
#X connect 0 1 72 1;
#X connect 0 1 73 1;
#X connect 1 0 8 0;
#X connect 2 0 1 0;
#X connect 3 0 31 0;
#X connect 3 0 71 0;
#X connect 4 0 5 0;
#X connect 5 0 6 1;
#X connect 6 0 56 0;
#X connect 6 0 55 0;
#X connect 7 0 18 0;
#X connect 7 0 18 1;
#X connect 9 0 14 0;
#X connect 10 0 1 0;
#X connect 10 1 30 0;
#X connect 11 0 13 1;
#X connect 12 0 23 0;
#X connect 13 0 12 0;
#X connect 14 0 11 0;
#X connect 16 0 12 1;
#X connect 17 0 15 0;
#X connect 18 0 9 0;
#X connect 19 0 6 0;
#X connect 21 0 70 0;
#X connect 24 0 9 1;
#X connect 25 0 24 1;
#X connect 26 0 24 0;
#X connect 26 1 25 0;
#X connect 27 0 29 1;
#X connect 27 0 29 0;
#X connect 28 0 2 0;
#X connect 28 0 71 2;
#X connect 29 0 28 0;
#X connect 30 0 8 0;
#X connect 30 0 15 0;
#X connect 31 0 0 0;
#X connect 31 1 32 0;
#X connect 32 0 30 0;
#X connect 33 0 14 1;
#X connect 34 0 33 0;
#X connect 34 1 33 1;
#X connect 35 0 24 0;
#X connect 36 0 35 0;
#X connect 36 1 35 1;
#X connect 37 0 72 2;
#X connect 37 0 73 2;
#X connect 39 0 40 0;
#X connect 40 0 13 0;
#X connect 41 0 4 0;
#X connect 43 0 34 0;
#X connect 44 0 13 2;
#X connect 46 0 36 0;
#X connect 48 0 27 1;
#X connect 48 0 27 0;
#X connect 50 0 26 0;
#X connect 53 0 56 1;
#X connect 53 0 57 0;
#X connect 55 0 73 0;
#X connect 56 0 72 0;
#X connect 57 0 55 1;
#X connect 58 0 64 1;
#X connect 58 0 64 0;
#X connect 60 0 71 3;
#X connect 62 0 67 1;
#X connect 62 0 67 0;
#X connect 64 0 66 1;
#X connect 64 0 66 0;
#X connect 65 0 71 1;
#X connect 66 0 65 0;
#X connect 67 0 69 1;
#X connect 67 0 69 0;
#X connect 68 0 71 4;
#X connect 69 0 68 0;
#X connect 70 0 3 0;
#X connect 71 0 16 0;
#X connect 71 0 7 1;
#X connect 71 0 7 0;
#X connect 72 0 39 1;
#X connect 73 0 39 0;
#X coords 0 0 1 1 120 100 0;
#X restore -51 537 pd one_doubleosc1_voice;
#X obj -158 569 +;
#X obj -192 540 int;
#X obj -170 512 unpack 0 0;
#N canvas 197 80 1028 787 one_doubleosc1_voice 0;
#X obj 23 233 moses 0.001;
#X msg 5 397 0 5728.98;
#X msg -22 349 set 0 \$1;
#X obj -173 127 clip 0 1;
#X obj -159 209 - 1;
#X obj -170 230 * 12;
#X obj -186 253 +;
#X obj 63 463 *;
#X obj 71 422 line 0 1;
#X obj 68 508 *;
#X obj 49 327 t b b;
#X obj 68 561 mtof;
#X obj -71 666 *~;
#X obj -90 635 moog~;
#X obj 68 533 +;
#X obj -71 430 line 0 1;
#X obj -50 576 lop~ 50;
#X msg -67 401 0 30;
#X obj 61 488 *;
#X obj -254 107 inlet;
#X text -215 109 pitch;
#X obj -169 74 inlet;
#X text -127 73 gate;
#X obj -72 698 outlet~;
#X obj 212 396 *;
#X obj 239 355 + 1;
#X obj 219 323 t b f;
#X obj 427 209 *;
#X obj 427 257 * 10000;
#X obj 428 235 *;
#X msg 81 373 0;
#X obj 26 200 t f f;
#X msg 99 350 set \$1;
#X obj 125 243 +;
#X obj 129 211 t b f;
#X obj 170 252 +;
#X obj 174 220 t b f;
#X obj 3 170 inlet;
#X text 42 168 wave;
#X obj -103 514 +~;
#X obj -105 541 *~ 0.5;
#X obj -36 130 inlet;
#X text 3 128 okt;
#X obj 65 137 inlet;
#X obj 120 568 inlet;
#X text 159 568 res;
#X obj 141 140 inlet;
#X text 180 140 env;
#X obj 451 166 inlet;
#X text 492 167 decay;
#X obj 258 150 inlet;
#X text 297 150 env-pol;
#X text 107 136 cut;
#X obj -93 110 inlet;
#X text -54 110 det;
#X obj -195 347 +;
#X obj -100 291 +;
#X obj -154 317 * -1;
#X obj 366 137 inlet;
#X text 407 136 attack;
#X obj 501 252 inlet;
#X text 544 255 sustain;
#X obj 608 188 inlet;
#X text 648 190 release;
#X obj 365 176 *;
#X obj 368 224 * 10000;
#X obj 366 202 *;
#X obj 601 225 *;
#X obj 604 273 * 10000;
#X obj 602 251 *;
#X obj -172 103 / 128;
#N canvas 104 50 1108 856 adsr1 0;
#X obj -143 147 inlet;
#X msg 15 502 0;
#X obj 63 365 pack f f;
#X msg -148 457 0 23.4256;
#X msg 62 393 set \$1 \$2;
#X msg 63 325 bang;
#X obj 125 589 >=;
#X msg 216 752 0.57 5728.98;
#X obj 157 632 moses 0.001;
#X obj 150 406 pack f f;
#X msg 151 436 set \$1 \$2;
#X msg 154 350 bang;
#X msg 313 372 set 0 \$1;
#X msg -135 357 bang;
#X msg -136 523 0 256;
#X obj -145 184 clip 0 1;
#X obj -113 211 moses 0.001;
#X obj 15 538 line 0 1;
#X obj -20 376 t f f;
#X obj 9 720 spigot;
#X obj 228 693 delay 0;
#X obj -49 150 inlet;
#X text -8 150 att;
#X obj 22 153 inlet;
#X text 63 153 dec;
#X obj 93 152 inlet;
#X text 134 152 sus;
#X obj 170 152 inlet;
#X text 211 152 rel;
#X obj -106 711 outlet;
#X connect 0 0 15 0;
#X connect 1 0 17 0;
#X connect 2 0 4 0;
#X connect 3 0 17 0;
#X connect 4 0 3 0;
#X connect 5 0 2 0;
#X connect 6 0 8 0;
#X connect 7 0 19 0;
#X connect 8 1 20 0;
#X connect 9 0 10 0;
#X connect 10 0 7 0;
#X connect 11 0 9 0;
#X connect 12 0 14 0;
#X connect 13 0 14 0;
#X connect 14 0 17 0;
#X connect 15 0 16 0;
#X connect 15 0 19 1;
#X connect 16 0 13 0;
#X connect 16 1 2 0;
#X connect 16 1 18 0;
#X connect 17 0 6 0;
#X connect 17 0 29 0;
#X connect 18 0 3 0;
#X connect 18 1 6 1;
#X connect 18 1 1 0;
#X connect 19 0 17 0;
#X connect 20 0 7 0;
#X connect 21 0 2 1;
#X connect 21 0 5 0;
#X connect 23 0 11 0;
#X connect 23 0 9 1;
#X connect 25 0 11 0;
#X connect 25 0 9 0;
#X connect 27 0 12 0;
#X coords 0 0 1 1 120 160 0;
#X restore 315 333 pd adsr1;
#N canvas 167 179 695 417 spt-osc1 0;
#N canvas 156 355 492 405 sawtooth1 0;
#X obj 71 333 outlet~;
#X obj 18 30 inlet;
#X obj 34 69 mtof;
#X obj 59 159 phasor~;
#X obj 70 292 -~ 0.5;
#X obj 227 28 inlet~;
#X obj 93 190 samphold~;
#X obj 72 242 -~;
#X obj 70 268 wrap~;
#X text 62 30 <-pitch;
#X text 279 27 <-sync;
#X obj -83 79 switch~;
#X obj -86 29 inlet;
#X text -46 29 <-on/off;
#X obj 71 312 *~ 2;
#X connect 1 0 2 0;
#X connect 2 0 3 0;
#X connect 3 0 6 0;
#X connect 3 0 7 0;
#X connect 4 0 14 0;
#X connect 5 0 6 1;
#X connect 6 0 7 1;
#X connect 7 0 8 0;
#X connect 8 0 4 0;
#X connect 12 0 11 0;
#X connect 14 0 0 0;
#X restore 54 171 pd sawtooth1;
#N canvas 156 356 623 456 pulse1 0;
#X obj 90 407 outlet~;
#X obj 18 30 inlet;
#X obj 34 69 mtof;
#X obj 59 159 phasor~;
#X obj 227 28 inlet~;
#X obj 93 190 samphold~;
#X obj 72 242 -~;
#X obj 71 262 wrap~;
#X text 62 30 <-pitch;
#X text 279 27 <-sync;
#X obj -86 68 switch~;
#X obj -86 29 inlet;
#X text -46 29 <-on/off;
#X obj 71 286 cos~;
#X obj 84 318 *~ 10000;
#X obj 83 339 +~ 9500;
#X obj 85 368 clip~ -1 1;
#X connect 1 0 2 0;
#X connect 2 0 3 0;
#X connect 3 0 5 0;
#X connect 3 0 6 0;
#X connect 4 0 5 1;
#X connect 5 0 6 1;
#X connect 6 0 7 0;
#X connect 7 0 13 0;
#X connect 11 0 10 0;
#X connect 13 0 14 0;
#X connect 14 0 15 0;
#X connect 15 0 16 0;
#X connect 16 0 0 0;
#X restore 159 172 pd pulse1;
#N canvas 156 355 492 405 triangle1 0;
#X obj 73 460 outlet~;
#X obj 18 30 inlet;
#X obj 34 69 mtof;
#X obj 59 159 phasor~;
#X obj 227 28 inlet~;
#X obj 93 190 samphold~;
#X obj 72 242 -~;
#X obj 70 268 wrap~;
#X text 62 30 <-pitch;
#X text 279 27 <-sync;
#X obj 95 304 *~ -1;
#X obj 96 327 +~ 1;
#X obj 67 362 min~;
#X obj -83 79 switch~;
#X obj -86 29 inlet;
#X text -46 29 <-on/off;
#X obj 71 392 *~ 4;
#X obj 75 424 -~ 1;
#X connect 1 0 2 0;
#X connect 2 0 3 0;
#X connect 3 0 5 0;
#X connect 3 0 6 0;
#X connect 4 0 5 1;
#X connect 5 0 6 1;
#X connect 6 0 7 0;
#X connect 7 0 10 0;
#X connect 7 0 12 0;
#X connect 10 0 11 0;
#X connect 11 0 12 1;
#X connect 12 0 16 0;
#X connect 14 0 13 0;
#X connect 16 0 17 0;
#X connect 17 0 0 0;
#X restore 425 172 pd triangle1;
#X obj 273 28 inlet~;
#X text 130 21 <-pitch;
#X text 320 27 <-sync;
#X obj 89 21 inlet;
#X obj 479 22 inlet;
#X text 522 22 <-type 0 \, 1 \, 2;
#X obj 154 279 outlet~;
#X obj 20 138 == 0;
#X obj 124 137 == 1;
#X obj 347 95 int 0;
#X obj 483 46 loadbang;
#X obj 425 145 == 4;
#X obj 319 140 == 3;
#X obj 245 137 == 2;
#N canvas 156 356 623 456 pulse2 0;
#X obj 71 405 outlet~;
#X obj 18 30 inlet;
#X obj 34 69 mtof;
#X obj 59 159 phasor~;
#X obj 227 28 inlet~;
#X obj 93 190 samphold~;
#X obj 72 242 -~;
#X obj 70 268 wrap~;
#X text 62 30 <-pitch;
#X text 279 27 <-sync;
#X obj -86 68 switch~;
#X obj -86 29 inlet;
#X text -46 29 <-on/off;
#X obj 70 290 cos~;
#X obj 83 322 *~ 10000;
#X obj 84 372 clip~ -1 1;
#X obj 82 343 +~ 8500;
#X connect 1 0 2 0;
#X connect 2 0 3 0;
#X connect 3 0 5 0;
#X connect 3 0 6 0;
#X connect 4 0 5 1;
#X connect 5 0 6 1;
#X connect 6 0 7 0;
#X connect 7 0 13 0;
#X connect 11 0 10 0;
#X connect 13 0 14 0;
#X connect 14 0 16 0;
#X connect 15 0 0 0;
#X connect 16 0 15 0;
#X restore 252 173 pd pulse2;
#N canvas 156 356 623 456 square 0;
#X obj 30 422 outlet~;
#X obj 18 30 inlet;
#X obj 34 69 mtof;
#X obj 59 159 phasor~;
#X obj 227 28 inlet~;
#X obj 93 190 samphold~;
#X obj 72 242 -~;
#X obj 70 268 wrap~;
#X text 62 30 <-pitch;
#X text 279 27 <-sync;
#X obj -86 68 switch~;
#X obj -86 29 inlet;
#X text -46 29 <-on/off;
#X obj 69 297 cos~;
#X obj 73 323 *~ 10000;
#X obj 68 358 clip~ -1 1;
#X connect 1 0 2 0;
#X connect 2 0 3 0;
#X connect 3 0 5 0;
#X connect 3 0 6 0;
#X connect 4 0 5 1;
#X connect 5 0 6 1;
#X connect 6 0 7 0;
#X connect 7 0 13 0;
#X connect 11 0 10 0;
#X connect 13 0 14 0;
#X connect 14 0 15 0;
#X connect 15 0 0 0;
#X restore 342 172 pd square;
#X obj 385 51 clip 0 4;
#X connect 0 0 9 0;
#X connect 1 0 9 0;
#X connect 2 0 9 0;
#X connect 3 0 0 2;
#X connect 3 0 1 2;
#X connect 3 0 2 2;
#X connect 3 0 18 2;
#X connect 3 0 17 2;
#X connect 6 0 0 1;
#X connect 6 0 1 1;
#X connect 6 0 2 1;
#X connect 6 0 17 1;
#X connect 6 0 18 1;
#X connect 7 0 19 0;
#X connect 10 0 0 0;
#X connect 11 0 1 0;
#X connect 12 0 11 0;
#X connect 12 0 10 0;
#X connect 12 0 14 0;
#X connect 12 0 15 0;
#X connect 12 0 16 0;
#X connect 13 0 12 0;
#X connect 14 0 2 0;
#X connect 15 0 18 0;
#X connect 16 0 17 0;
#X connect 17 0 9 0;
#X connect 18 0 9 0;
#X connect 19 0 12 0;
#X restore -170 382 pd spt-osc1;
#N canvas 167 179 695 417 spt-osc1 0;
#N canvas 156 355 492 405 sawtooth1 0;
#X obj 71 333 outlet~;
#X obj 18 30 inlet;
#X obj 34 69 mtof;
#X obj 59 159 phasor~;
#X obj 70 292 -~ 0.5;
#X obj 227 28 inlet~;
#X obj 93 190 samphold~;
#X obj 72 242 -~;
#X obj 70 268 wrap~;
#X text 62 30 <-pitch;
#X text 279 27 <-sync;
#X obj -83 79 switch~;
#X obj -86 29 inlet;
#X text -46 29 <-on/off;
#X obj 71 312 *~ 2;
#X connect 1 0 2 0;
#X connect 2 0 3 0;
#X connect 3 0 6 0;
#X connect 3 0 7 0;
#X connect 4 0 14 0;
#X connect 5 0 6 1;
#X connect 6 0 7 1;
#X connect 7 0 8 0;
#X connect 8 0 4 0;
#X connect 12 0 11 0;
#X connect 14 0 0 0;
#X restore 54 171 pd sawtooth1;
#N canvas 156 356 623 456 pulse1 0;
#X obj 90 407 outlet~;
#X obj 18 30 inlet;
#X obj 34 69 mtof;
#X obj 59 159 phasor~;
#X obj 227 28 inlet~;
#X obj 93 190 samphold~;
#X obj 72 242 -~;
#X obj 71 262 wrap~;
#X text 62 30 <-pitch;
#X text 279 27 <-sync;
#X obj -86 68 switch~;
#X obj -86 29 inlet;
#X text -46 29 <-on/off;
#X obj 71 286 cos~;
#X obj 84 318 *~ 10000;
#X obj 83 339 +~ 9500;
#X obj 85 368 clip~ -1 1;
#X connect 1 0 2 0;
#X connect 2 0 3 0;
#X connect 3 0 5 0;
#X connect 3 0 6 0;
#X connect 4 0 5 1;
#X connect 5 0 6 1;
#X connect 6 0 7 0;
#X connect 7 0 13 0;
#X connect 11 0 10 0;
#X connect 13 0 14 0;
#X connect 14 0 15 0;
#X connect 15 0 16 0;
#X connect 16 0 0 0;
#X restore 159 172 pd pulse1;
#N canvas 156 355 492 405 triangle1 0;
#X obj 73 460 outlet~;
#X obj 18 30 inlet;
#X obj 34 69 mtof;
#X obj 59 159 phasor~;
#X obj 227 28 inlet~;
#X obj 93 190 samphold~;
#X obj 72 242 -~;
#X obj 70 268 wrap~;
#X text 62 30 <-pitch;
#X text 279 27 <-sync;
#X obj 95 304 *~ -1;
#X obj 96 327 +~ 1;
#X obj 67 362 min~;
#X obj -83 79 switch~;
#X obj -86 29 inlet;
#X text -46 29 <-on/off;
#X obj 71 392 *~ 4;
#X obj 75 424 -~ 1;
#X connect 1 0 2 0;
#X connect 2 0 3 0;
#X connect 3 0 5 0;
#X connect 3 0 6 0;
#X connect 4 0 5 1;
#X connect 5 0 6 1;
#X connect 6 0 7 0;
#X connect 7 0 10 0;
#X connect 7 0 12 0;
#X connect 10 0 11 0;
#X connect 11 0 12 1;
#X connect 12 0 16 0;
#X connect 14 0 13 0;
#X connect 16 0 17 0;
#X connect 17 0 0 0;
#X restore 425 172 pd triangle1;
#X obj 273 28 inlet~;
#X text 130 21 <-pitch;
#X text 320 27 <-sync;
#X obj 89 21 inlet;
#X obj 479 22 inlet;
#X text 522 22 <-type 0 \, 1 \, 2;
#X obj 154 279 outlet~;
#X obj 20 138 == 0;
#X obj 124 137 == 1;
#X obj 347 95 int 0;
#X obj 483 46 loadbang;
#X obj 425 145 == 4;
#X obj 319 140 == 3;
#X obj 245 137 == 2;
#N canvas 156 356 623 456 pulse2 0;
#X obj 71 405 outlet~;
#X obj 18 30 inlet;
#X obj 34 69 mtof;
#X obj 59 159 phasor~;
#X obj 227 28 inlet~;
#X obj 93 190 samphold~;
#X obj 72 242 -~;
#X obj 70 268 wrap~;
#X text 62 30 <-pitch;
#X text 279 27 <-sync;
#X obj -86 68 switch~;
#X obj -86 29 inlet;
#X text -46 29 <-on/off;
#X obj 70 290 cos~;
#X obj 83 322 *~ 10000;
#X obj 84 372 clip~ -1 1;
#X obj 82 343 +~ 8500;
#X connect 1 0 2 0;
#X connect 2 0 3 0;
#X connect 3 0 5 0;
#X connect 3 0 6 0;
#X connect 4 0 5 1;
#X connect 5 0 6 1;
#X connect 6 0 7 0;
#X connect 7 0 13 0;
#X connect 11 0 10 0;
#X connect 13 0 14 0;
#X connect 14 0 16 0;
#X connect 15 0 0 0;
#X connect 16 0 15 0;
#X restore 252 173 pd pulse2;
#N canvas 156 356 623 456 square 0;
#X obj 30 422 outlet~;
#X obj 18 30 inlet;
#X obj 34 69 mtof;
#X obj 59 159 phasor~;
#X obj 227 28 inlet~;
#X obj 93 190 samphold~;
#X obj 72 242 -~;
#X obj 70 268 wrap~;
#X text 62 30 <-pitch;
#X text 279 27 <-sync;
#X obj -86 68 switch~;
#X obj -86 29 inlet;
#X text -46 29 <-on/off;
#X obj 69 297 cos~;
#X obj 73 323 *~ 10000;
#X obj 68 358 clip~ -1 1;
#X connect 1 0 2 0;
#X connect 2 0 3 0;
#X connect 3 0 5 0;
#X connect 3 0 6 0;
#X connect 4 0 5 1;
#X connect 5 0 6 1;
#X connect 6 0 7 0;
#X connect 7 0 13 0;
#X connect 11 0 10 0;
#X connect 13 0 14 0;
#X connect 14 0 15 0;
#X connect 15 0 0 0;
#X restore 342 172 pd square;
#X obj 385 51 clip 0 4;
#X connect 0 0 9 0;
#X connect 1 0 9 0;
#X connect 2 0 9 0;
#X connect 3 0 0 2;
#X connect 3 0 1 2;
#X connect 3 0 2 2;
#X connect 3 0 18 2;
#X connect 3 0 17 2;
#X connect 6 0 0 1;
#X connect 6 0 1 1;
#X connect 6 0 2 1;
#X connect 6 0 17 1;
#X connect 6 0 18 1;
#X connect 7 0 19 0;
#X connect 10 0 0 0;
#X connect 11 0 1 0;
#X connect 12 0 11 0;
#X connect 12 0 10 0;
#X connect 12 0 14 0;
#X connect 12 0 15 0;
#X connect 12 0 16 0;
#X connect 13 0 12 0;
#X connect 14 0 2 0;
#X connect 15 0 18 0;
#X connect 16 0 17 0;
#X connect 17 0 9 0;
#X connect 18 0 9 0;
#X connect 19 0 12 0;
#X restore -171 441 pd spt-osc1;
#X connect 0 0 17 0;
#X connect 0 1 10 0;
#X connect 0 1 72 1;
#X connect 0 1 73 1;
#X connect 1 0 8 0;
#X connect 2 0 1 0;
#X connect 3 0 31 0;
#X connect 3 0 71 0;
#X connect 4 0 5 0;
#X connect 5 0 6 1;
#X connect 6 0 56 0;
#X connect 6 0 55 0;
#X connect 7 0 18 0;
#X connect 7 0 18 1;
#X connect 9 0 14 0;
#X connect 10 0 1 0;
#X connect 10 1 30 0;
#X connect 11 0 13 1;
#X connect 12 0 23 0;
#X connect 13 0 12 0;
#X connect 14 0 11 0;
#X connect 16 0 12 1;
#X connect 17 0 15 0;
#X connect 18 0 9 0;
#X connect 19 0 6 0;
#X connect 21 0 70 0;
#X connect 24 0 9 1;
#X connect 25 0 24 1;
#X connect 26 0 24 0;
#X connect 26 1 25 0;
#X connect 27 0 29 1;
#X connect 27 0 29 0;
#X connect 28 0 2 0;
#X connect 28 0 71 2;
#X connect 29 0 28 0;
#X connect 30 0 8 0;
#X connect 30 0 15 0;
#X connect 31 0 0 0;
#X connect 31 1 32 0;
#X connect 32 0 30 0;
#X connect 33 0 14 1;
#X connect 34 0 33 0;
#X connect 34 1 33 1;
#X connect 35 0 24 0;
#X connect 36 0 35 0;
#X connect 36 1 35 1;
#X connect 37 0 72 2;
#X connect 37 0 73 2;
#X connect 39 0 40 0;
#X connect 40 0 13 0;
#X connect 41 0 4 0;
#X connect 43 0 34 0;
#X connect 44 0 13 2;
#X connect 46 0 36 0;
#X connect 48 0 27 1;
#X connect 48 0 27 0;
#X connect 50 0 26 0;
#X connect 53 0 56 1;
#X connect 53 0 57 0;
#X connect 55 0 73 0;
#X connect 56 0 72 0;
#X connect 57 0 55 1;
#X connect 58 0 64 1;
#X connect 58 0 64 0;
#X connect 60 0 71 3;
#X connect 62 0 67 1;
#X connect 62 0 67 0;
#X connect 64 0 66 1;
#X connect 64 0 66 0;
#X connect 65 0 71 1;
#X connect 66 0 65 0;
#X connect 67 0 69 1;
#X connect 67 0 69 0;
#X connect 68 0 71 4;
#X connect 69 0 68 0;
#X connect 70 0 3 0;
#X connect 71 0 16 0;
#X connect 71 0 7 1;
#X connect 71 0 7 0;
#X connect 72 0 39 1;
#X connect 73 0 39 0;
#X coords 0 0 1 1 120 100 0;
#X restore -129 616 pd one_doubleosc1_voice;
#X obj -116 -20 inlet;
#X obj -42 -21 inlet;
#X text 404 29 2008-9 martin brinkmann;
#X text 404 14 needs moog external;
#X obj 22 717 *~ 0.3;
#X obj 23 744 outlet~;
#X obj 164 118 vsl 15 81 0 120 0 1 empty empty cf 2 4 0 8 -262144 -1
-1 3000 1;
#X obj 200 118 vsl 15 81 0 120 0 1 empty empty ev 2 4 0 8 -262144 -1
-1 3900 1;
#X obj 135 4 inlet;
#X obj 321 79 inlet;
#X text 370 78 env-mod 0..1;
#X text 179 3 cutoff-mod 0..1;
#X obj 321 100 clip 0 1;
#X obj 321 122 * 60;
#X obj 136 29 clip 0 1;
#X obj 136 51 * 60;
#X obj 157 237 +;
#X obj 163 211 t b f;
#X obj 243 282 +;
#X obj 247 250 t b f;
#X obj 29 -10 inlet;
#X text 35 -29 bend;
#X connect 0 0 20 0;
#X connect 1 0 3 0;
#X connect 2 0 5 0;
#X connect 3 0 2 0;
#X connect 4 0 0 0;
#X connect 5 0 21 0;
#X connect 7 0 20 12;
#X connect 7 0 26 12;
#X connect 7 0 30 12;
#X connect 7 0 34 12;
#X connect 8 0 20 4;
#X connect 8 0 26 4;
#X connect 8 0 30 4;
#X connect 8 0 34 4;
#X connect 9 0 20 3;
#X connect 9 0 26 3;
#X connect 9 0 30 3;
#X connect 9 0 34 3;
#X connect 10 0 20 6;
#X connect 10 0 26 6;
#X connect 10 0 30 6;
#X connect 10 0 34 6;
#X connect 11 0 20 8;
#X connect 11 0 26 8;
#X connect 11 0 30 8;
#X connect 11 0 34 8;
#X connect 12 0 20 2;
#X connect 12 0 26 2;
#X connect 12 0 30 2;
#X connect 12 0 34 2;
#X connect 13 0 22 0;
#X connect 14 0 4 0;
#X connect 14 1 20 1;
#X connect 15 0 33 0;
#X connect 15 1 29 0;
#X connect 15 2 25 0;
#X connect 15 3 14 0;
#X connect 16 0 15 0;
#X connect 17 0 20 10;
#X connect 17 0 26 10;
#X connect 17 0 30 10;
#X connect 17 0 34 10;
#X connect 18 0 20 9;
#X connect 18 0 26 9;
#X connect 18 0 30 9;
#X connect 18 0 34 9;
#X connect 19 0 20 11;
#X connect 19 0 26 11;
#X connect 19 0 30 11;
#X connect 19 0 34 11;
#X connect 20 0 39 0;
#X connect 21 0 4 0;
#X connect 21 0 24 0;
#X connect 21 0 28 0;
#X connect 21 0 32 0;
#X connect 21 1 0 1;
#X connect 21 1 23 1;
#X connect 21 1 27 1;
#X connect 21 1 31 1;
#X connect 22 0 16 0;
#X connect 22 1 16 1;
#X connect 22 2 16 2;
#X connect 23 0 26 0;
#X connect 24 0 23 0;
#X connect 25 0 24 0;
#X connect 25 1 26 1;
#X connect 26 0 39 0;
#X connect 27 0 30 0;
#X connect 28 0 27 0;
#X connect 29 0 28 0;
#X connect 29 1 30 1;
#X connect 30 0 39 0;
#X connect 31 0 34 0;
#X connect 32 0 31 0;
#X connect 33 0 32 0;
#X connect 33 1 34 1;
#X connect 34 0 39 0;
#X connect 35 0 13 0;
#X connect 36 0 13 1;
#X connect 39 0 40 0;
#X connect 41 0 52 0;
#X connect 42 0 54 0;
#X connect 43 0 49 0;
#X connect 44 0 47 0;
#X connect 47 0 48 0;
#X connect 48 0 53 0;
#X connect 49 0 50 0;
#X connect 50 0 51 0;
#X connect 51 0 34 5;
#X connect 51 0 30 5;
#X connect 51 0 26 5;
#X connect 51 0 20 5;
#X connect 52 0 51 0;
#X connect 52 1 51 1;
#X connect 53 0 20 7;
#X connect 53 0 26 7;
#X connect 53 0 30 7;
#X connect 53 0 34 7;
#X connect 54 0 53 0;
#X connect 54 1 53 1;
#X connect 55 0 1 0;
#X coords 0 -1 1 1 190 105 1 100 100;
#X restore -144 55 pd midipolydoubleosc1;
#X obj -150 201 dac~;
#X obj -143 -75 bng 15 250 50 0 empty empty empty 17 7 0 10 -262144
-1 -1;
#X obj -83 -78 notein;
#X obj -36 -77 bendin;
#X obj 12 -77 ctlin 1;
#X text -65 -25 'midi-sample' recorder with note pitchbend and ctl
events;
#X obj -44 27 / 128;
#X floatatom 164 115 5 0 0 0 - - -;
#X floatatom 294 216 5 0 0 0 - - -;
#X text 367 166 recorder for xy ctl values;
#X text 228 51 recorder for single ctl values;
#X obj 401 123 ctlin 81;
#X obj 332 124 ctlin 82;
#X text 399 107 nanopad-x;
#X text 335 106 nanopad-y;
#N canvas 209 173 1473 827 qrc3xy 0;
#X obj 92 12 inlet;
#X msg 226 300 set;
#X msg 36 55 tempo 1;
#X msg 155 338 clear;
#X obj 219 229 t b b;
#X msg 244 268 0;
#X obj 189 193 spigot;
#X obj 141 113 tgl 15 0 empty empty empty 17 7 0 10 -258113 -1 -1 0
1;
#X obj 33 29 loadbang;
#X obj -87 233 t b b;
#X msg -43 272 1;
#X msg -5 275 0;
#X obj -83 345 spigot 1;
#X text 95 -7 trig;
#X obj 103 113 bng 15 250 50 0 empty empty empty 17 7 0 10 -262144
-1 -1;
#X obj 448 45 inlet;
#X msg 508 410 addcomma;
#X obj 460 439 t b a;
#X obj 445 327 timer;
#X obj 434 357 int;
#X obj 668 272 moses 0.1;
#X msg 658 291 0;
#X msg 219 159 0;
#X obj 457 99 t b b f b b;
#X obj 376 683 outlet;
#X obj 449 386 pack f f;
#X msg 489 468 add2 \$1 \$2;
#X obj 937 90 inlet;
#X msg 1025 445 addcomma;
#X obj 971 480 t b a;
#X obj 963 367 timer;
#X obj 945 405 int;
#X obj 1168 315 moses 0.1;
#X msg 1163 343 0;
#X obj 956 434 pack f f;
#X obj 929 686 outlet;
#X obj 961 192 t b b f b;
#X obj 903 544 abs_qlistrec3v;
#X msg 999 510 add2 \$1 \$2;
#X msg 504 523 0 61 \, 17 58 \, 18 59 \, 7 58 \, 18 56 \, 8 52 \, 8
51 \, 10 47 \, 8 44 \, 8 41 \, 7 39 \, 11 36 \, 7 35 \, 8 31 \, 11
30 \, 7 27 \, 8 26 \, 8 25 \, 10 24 \, 34 23 \, 8 25 \, 11 26 \, 7
27 \, 17 29 \, 10 30 \, 8 31 \, 27 32 \, 34 34 \, 10 36 \, 17 38 \,
7 39 \, 11 40 \, 15 41 \, 37 42 \, 8 41 \, 8 40 \, 7 39 \, 30 34 \,
7 33 \, 505 75 \, 8 76 \, 52 75 \, 10 76 \, 8 77 \, 46 78 \, 26 85
\, 8 87 \, 11 88 \, 7 93 \, 71 92 \, 27 93 \, 24 92 \, 30 93 \, 8 92
\, 34 91 \, 458 47 \, 100 46 \, 8 47 \, 27 52 \, 8 54 \, 7 56 \, 11
59 \, 7 60 \, 8 61 \, 46 59 \, 7 58 \, 11 59 \, 8 60 \, 7 61 \, 8 56
\, 10 52 \, 8 47 \, 8 46 \, 10 39 \, 8 33 \, 8 32 \, 18 29 \, 7 27
\, 8 25 \, 18 24 \, 8 19 \, 10 18 \, 8 16 \, 8 12 \, 18 10 \, 26 11
\, 17 12 \, 190 11 \, 7 7 \, 18 5 \, 89 4 \, 36 5 \, 26 9 \, 8 12 \,
11 18 \, 7 19 \, 8 23 \, 10 32 \, 8 33 \, 8 39 \, 7 41 \, 11 47 \,
8 51 \, 7 54 \, 18 55 \, 8 56 \, 18 61 \, 36 59 \, 641 92 \, 8 91 \,
10 94 \, 15 99 \, 11 98 \, 8 96 \, 7 94 \, 18 95 \, 43 94 \, 127 90
\, 8 91 \, 18 92 \, 68 117 \, 8 121 \, 53 123 \, 18 122 \, 8 121 \,
34 120 \, 8 117 \, 11 116 \, 7 114 \, 36 116 \, 8 117 \, 10 119 \,
15 113 \, 11 109 \, 24 108 \, 10 107 \, 27 106 \, 8 105 \, 8 98 \,
7 92 \, 11 91 \, 8 88 \, 7 78 \, 11 74 \, 7 73 \, 8 68 \, 8 63 \, 10
61 \, 8 59 \, 282 14 \, 24 18 \, 11 19 \, 7 25 \, 8 31 \, 11 33 \,
7 34 \, 36 33 \, 15 32 \, 27 28 \, 11 27 \, 15 28 \, 81 18 \, 18 17
\, 8 22 \, 8 23 \, 27 24 \, 7 25 \, 20 27 \, 7 28 \, 8 30 \, 18 29
\, 8 28 \, 10 27 \, 8 20 \, 177 33 \, 8 34 \, 53 33 \, 8 32 \, 296
54 \, 11 47 \, 15 43 \, 8 39 \, 10 36 \, 8 34 \, 7 31 \, 11 29 \, 8
25 \, 18 20 \, 7 19 \, 8 18 \, 212738 19 \, 15 27 \, 8 29 \, 11 34
\, 15 36 \, 10 38 \, 8 35 \, 8 43 \, 7 48 \, 27 49 \, 11 50 \, 7 54
\, 8 55 \, 8 57 \, 10 58 \, 8 59 \, 8 61 \, 10 63 \, 17 66 \, 7 68
\, 18 69 \, 8 70 \, 11 71 \, 15 72 \, 34 73 \, 27 74 \, 11 77 \, 7
78 \, 36 84 \, 7 85 \, 11 86 \, 34 85 \, 8 84 \, 8 85 \, 127 84 \,
7 82 \, 8 78 \, 18 73 \, 8 70 \, 8 63 \, 18 61 \, 8 59 \, 10 58 \,
17 57 \, 7 58 \, 39 61 \, 7 62 \, 8 59 \, 7 58 \, 27 57 \, 11 56 \,
7 50 \, 8 49 \, 18 48 \, 8 47 \, 8 43 \, 91 41 \, 8 39 \, 7 37 \, 8
34 \, 74 32 \, 194 32 \, 11 33 \, 7 34 \, 98 33 \, 27 34 \, 53 35 \,
8 36 \, 10 38 \, 17 39 \, 7 41 \, 18 42 \, 193 70 \, 17 72 \, 10 74
\, 8 76 \, 8 77 \, 7 78 \, 11 79 \, 7 81 \, 8 83 \, 36 78 \, 10 77
\, 203 43 \, 17 45 \, 10 43 \, 8 39 \, 18 38 \, 8 35 \, 7 34 \, 46
32 \, 17 31 \, 145 14 \, 34 15 \, 100 12 \, 26 11 \, 10 10 \, 8 7 \,
126 8 \, 24 5 \, 48534 19 \, 34 24 \, 8 25 \, 10 26 \, 8 28 \, 8 29
\, 26 34 \, 27 38 \, 8 41 \, 8 43 \, 10 47 \, 8 48 \, 8 50 \, 8 56
\, 10 59 \, 8 62 \, 8 63 \, 27 70 \, 7 76 \, 20 77 \, 7 78 \, 8 83
\, 10 86 \, 8 91 \, 8 92 \, 27 93 \, 8 99 \, 7 105 \, 11 106 \, 15
107 \, 11 108 \, 7 113 \, 8 116 \, 18 117 \, 27 119 \, 8 120 \, 8 121
\, 43 120 \, 10 119 \, 17 120 \, 27 121 \, 10 120 \, 24 119 \, 396
68 \, 11 62 \, 15 61 \, 13 48 \, 17 41 \, 7 38 \, 11 33 \, 27 31 \,
7 29 \, 8 21 \, 8 20 \, 10 19 \, 27 18 \, 53 9 \, 17 12 \, 18 13 \,
8 17 \, 7 19 \, 11 18 \, 8 19 \, 7 20 \, 8 21 \, 11 25 \, 7 27 \, 17
28 \, 10 30 \, 27 29 \, 15 30 \, 8 33 \, 18 32 \, 312 47 \, 18 43 \,
8 40 \, 8 38 \, 7 34 \, 27 29 \, 18 27 \, 27 26 \, 8 25 \, 8 24 \,
10 23 \, 8 21 \, 18 17 \, 8 16 \, 7 15 \, 8 12 \, 83320 61 \, 8 62
\, 27 63 \, 17 67 \, 11 68 \, 15 69 \, 8 76 \, 44 77 \, 29 83 \, 17
84 \, 72 85 \, 7 87 \, 8 88 \, 20 90 \, 8 92 \, 7 93 \, 17 92 \, 153
91 \, 325 90 \, 8 89 \, 15 83 \, 11 76 \, 219 70 \, 15 69 \, 20 68
\, 33 69 \, 8 67 \, 29 64 \, 8 63 \, 44 61 \, 8 59 \, 17 58 \, 219
58 \, 10 57 \, 8 56 \, 27 55 \, 7 54 \, 11 55 \, 15 56 \, 8 57 \, 18
58 \, 8 59 \, 18 62 \, 8 63 \, 26 62 \, 642 92 \, 79 94 \, 108 97 \,
53 98 \, 27 99 \, 27 98 \, 8 94 \, 8 93 \, 1203 108 \, 62 107 \, 63970
4 \, 46 19 \, 37 18 \, 8 30 \, 7 31 \, 8 32 \, 11 33 \, 15 34 \, 24
45 \, 8 46 \, 10 47 \, 46 61 \, 8 62 \, 10 63 \, 17 67 \, 10 69 \,
8 70 \, 8 71 \, 7 72 \, 11 77 \, 8 78 \, 43 82 \, 10 84 \, 8 85 \,
8 86 \, 10 87 \, 8 88 \, 15 91 \, 39 90 \, 233 88 \, 11 87 \, 24 86
\, 27 85 \, 18 83 \, 15 78 \, 11 77 \, 8 76 \, 18 77 \, 8 78 \, 15
77 \, 258 43 \, 44 39 \, 236 40 \, 11 39 \, 7 38 \, 17 37 \, 11 34
\, 7 33 \, 223 101 \, 7 99 \, 8 89 \, 136 68 \, 7 67 \, 8 65 \, 11
63 \, 15 62 \, 264 29 \, 18 28 \, 18 27 \, 8 26 \, 7 25 \, 18 23 \,
8 19 \, 8 18 \,;
#X obj 289 554 abs_qlistrec3v;
#X text 936 71 ctl2;
#X text 453 27 ctl;
#X msg 1018 574 36 13 \, 34 14 \, 18 15 \, 8 16 \, 27 15 \, 15 16 \,
18 17 \, 17 18 \, 10 19 \, 8 20 \, 7 21 \, 18 25 \, 8 28 \, 11 29 \,
7 31 \, 8 32 \, 8 37 \, 10 38 \, 15 39 \, 55 38 \, 10 37 \, 8 36 \,
8 33 \, 7 32 \, 11 30 \, 7 29 \, 8 28 \, 37 27 \, 8 24 \, 15 23 \,
30 21 \, 512 49 \, 8 51 \, 8 54 \, 10 56 \, 8 62 \, 7 63 \, 11 65 \,
5 68 \, 10 72 \, 8 75 \, 53 74 \, 11 69 \, 27 65 \, 7 63 \, 17 62 \,
18 61 \, 26 59 \, 27 60 \, 15 61 \, 11 62 \, 5 63 \, 11 64 \, 18 65
\, 24 64 \, 477 4 \, 18 5 \, 18 7 \, 17 8 \, 7 11 \, 27 7 \, 10 2 \,
17 1 \, 18 2 \, 43 1 \, 81 2 \, 18 4 \, 8 6 \, 8 8 \, 10 12 \, 8 16
\, 8 17 \, 10 19 \, 8 23 \, 43 22 \, 18 23 \, 280 22 \, 15 18 \, 10
17 \, 8 16 \, 15 15 \, 39 14 \, 7 12 \, 18 11 \, 17 9 \, 10 8 \, 15
9 \, 20 7 \, 15 8 \, 10 6 \, 8 7 \, 27 6 \, 8 5 \, 7 7 \, 46 5 \, 8
2 \, 7 1 \, 661 52 \, 8 55 \, 10 62 \, 8 63 \, 7 69 \, 20 74 \, 7 77
\, 8 78 \, 10 79 \, 171 43 \, 17 44 \, 78 66 \, 8 64 \, 10 63 \, 15
61 \, 8 60 \, 11 56 \, 7 52 \, 8 51 \, 10 50 \, 8 45 \, 8 40 \, 18
38 \, 7 32 \, 8 30 \, 18 28 \, 20 27 \, 15 23 \, 27 22 \, 7 17 \, 11
13 \, 34 16 \, 8 17 \, 8 18 \, 10 20 \, 8 23 \, 15 24 \, 11 30 \, 8
34 \, 7 35 \, 11 39 \, 7 43 \, 8 44 \, 8 45 \, 10 46 \, 291 68 \, 17
69 \, 7 72 \, 11 75 \, 7 80 \, 8 85 \, 11 86 \, 7 89 \, 8 90 \, 8 91
\, 10 92 \, 8 95 \, 8 96 \, 7 98 \, 18 102 \, 36 90 \, 81 54 \, 8 49
\, 10 45 \, 17 42 \, 7 41 \, 11 37 \, 8 36 \, 7 34 \, 20 30 \, 7 29
\, 8 27 \, 18 24 \, 18 23 \, 8 22 \, 177 11 \, 8 12 \, 7 14 \, 11 15
\, 15 14 \, 18 12 \, 8 11 \, 296 23 \, 11 21 \, 15 22 \, 8 21 \, 18
20 \, 7 21 \, 11 20 \, 27 19 \, 7 16 \, 8 11 \, 212738 72 \, 8 74 \,
7 79 \, 20 80 \, 34 81 \, 8 86 \, 7 90 \, 20 91 \, 26 98 \, 8 101 \,
8 103 \, 18 104 \, 8 105 \, 10 109 \, 17 112 \, 7 113 \, 11 114 \,
7 115 \, 63 116 \, 26 115 \, 27 112 \, 8 110 \, 8 109 \, 18 110 \,
18 109 \, 27 108 \, 7 107 \, 8 104 \, 72 103 \, 63 101 \, 7 100 \,
8 96 \, 11 95 \, 7 91 \, 8 90 \, 8 85 \, 18 83 \, 8 82 \, 10 80 \,
36 79 \, 97 75 \, 27 74 \, 8 73 \, 8 70 \, 29 69 \, 87 66 \, 11 65
\, 26 64 \, 36 66 \, 194 46 \, 11 47 \, 7 49 \, 43 48 \, 27 49 \, 10
48 \, 8 47 \, 8 46 \, 18 45 \, 8 44 \, 7 43 \, 11 42 \, 15 41 \, 18
40 \, 18 39 \, 8 38 \, 15 36 \, 27 35 \, 184 35 \, 17 37 \, 10 38 \,
8 39 \, 8 40 \, 18 42 \, 7 43 \, 8 44 \, 18 45 \, 17 44 \, 213 70 \,
17 74 \, 10 76 \, 8 79 \, 8 80 \, 26 84 \, 11 86 \, 15 89 \, 8 90 \,
172 91 \, 18 92 \, 15 93 \, 100 92 \, 8 91 \, 27 89 \, 8 87 \, 8 86
\, 7 84 \, 11 83 \, 8 82 \, 7 80 \, 8 78 \, 10 77 \, 8 76 \, 8 75 \,
18 74 \, 8 73 \, 8 72 \, 10 69 \, 24 66 \, 11 63 \, 8 58 \, 7 56 \,
20 55 \, 48486 12 \, 7 13 \, 8 22 \, 11 23 \, 15 24 \, 18 28 \, 8 34
\, 10 35 \, 15 40 \, 8 41 \, 11 45 \, 7 46 \, 17 47 \, 10 50 \, 8 52
\, 8 55 \, 8 57 \, 10 58 \, 8 60 \, 8 63 \, 7 64 \, 11 65 \, 8 69 \,
89 68 \, 17 69 \, 34 68 \, 18 66 \, 8 63 \, 8 62 \, 10 61 \, 8 60 \,
8 58 \, 10 57 \, 17 54 \, 7 53 \, 11 52 \, 7 51 \, 8 50 \, 8 48 \,
10 46 \, 17 45 \, 10 44 \, 8 42 \, 8 41 \, 18 40 \, 27 42 \, 384 57
\, 18 61 \, 8 67 \, 13 68 \, 8 69 \, 34 72 \, 8 74 \, 11 73 \, 15 69
\, 8 72 \, 10 71 \, 8 69 \, 18 68 \, 53 56 \, 8 52 \, 8 46 \, 27 44
\, 7 40 \, 11 35 \, 15 30 \, 8 28 \, 11 24 \, 7 23 \, 8 22 \, 8 18
\, 10 17 \, 8 16 \, 8 15 \, 10 13 \, 8 12 \, 346 69 \, 8 75 \, 10 79
\, 8 80 \, 15 84 \, 11 86 \, 8 90 \, 7 91 \, 18 92 \, 8 94 \, 11 96
\, 7 97 \, 8 98 \, 18 99 \, 8 100 \, 7 102 \, 11 103 \, 15 105 \, 8
103 \, 83320 34 \, 53 35 \, 20 36 \, 7 37 \, 8 44 \, 29 45 \, 7 46
\, 8 49 \, 8 51 \, 8 53 \, 11 56 \, 24 57 \, 72 59 \, 8 61 \, 20 62
\, 8 63 \, 7 64 \, 8 67 \, 8 68 \, 27 69 \, 117 68 \, 8 67 \, 325 56
\, 8 55 \, 7 45 \, 20 44 \, 8 43 \, 210 40 \, 36 41 \, 8 42 \, 8 43
\, 15 45 \, 8 47 \, 8 48 \, 11 49 \, 17 51 \, 17 52 \, 18 55 \, 8 56
\, 8 57 \, 17 59 \, 8 61 \, 8 62 \, 18 63 \, 17 66 \, 165 50 \, 10
51 \, 24 52 \, 11 53 \, 7 54 \, 11 57 \, 15 58 \, 8 63 \, 10 65 \,
8 69 \, 27 71 \, 8 74 \, 8 75 \, 8 77 \, 651 68 \, 44 69 \, 34 74 \,
17 75 \, 91 77 \, 17 78 \, 27 79 \, 72 78 \, 1211 87 \, 17 86 \, 27
87 \, 63988 21 \, 46 35 \, 27 36 \, 10 35 \, 8 45 \, 7 46 \, 60 55
\, 18 54 \, 46 57 \, 71 56 \, 20 51 \, 26 49 \, 8 47 \, 8 45 \, 74
44 \, 27 43 \, 233 67 \, 11 68 \, 24 67 \, 18 68 \, 8 69 \, 74 74 \,
8 75 \, 7 76 \, 8 79 \, 258 73 \, 8 74 \, 18 75 \, 253 40 \, 18 39
\, 8 38 \, 8 35 \, 18 34 \, 223 19 \, 7 20 \, 8 14 \, 136 17 \, 307
69 \, 26 71 \, 20 70 \, 7 69 \,;
#X obj 504 494 spigot 0;
#X obj 1019 543 spigot 0;
#X connect 0 0 14 0;
#X connect 1 0 39 0;
#X connect 1 0 43 0;
#X connect 2 0 37 0;
#X connect 2 0 40 0;
#X connect 3 0 37 0;
#X connect 3 0 40 0;
#X connect 4 0 5 0;
#X connect 4 0 3 0;
#X connect 4 0 1 0;
#X connect 4 1 18 0;
#X connect 4 1 30 0;
#X connect 5 0 19 1;
#X connect 5 0 31 1;
#X connect 6 0 4 0;
#X connect 6 0 10 0;
#X connect 7 0 6 1;
#X connect 7 0 20 0;
#X connect 7 0 32 0;
#X connect 8 0 2 0;
#X connect 9 0 11 0;
#X connect 9 0 37 0;
#X connect 9 0 40 0;
#X connect 9 1 12 0;
#X connect 10 0 12 1;
#X connect 11 0 12 1;
#X connect 11 0 7 0;
#X connect 12 0 39 0;
#X connect 12 0 43 0;
#X connect 14 0 9 0;
#X connect 15 0 23 0;
#X connect 15 0 24 0;
#X connect 16 0 44 0;
#X connect 17 0 16 0;
#X connect 17 1 26 0;
#X connect 18 0 19 1;
#X connect 19 0 25 0;
#X connect 20 0 21 0;
#X connect 20 1 44 1;
#X connect 21 0 44 1;
#X connect 22 0 6 1;
#X connect 23 0 19 0;
#X connect 23 0 22 0;
#X connect 23 1 18 0;
#X connect 23 2 25 1;
#X connect 23 3 18 1;
#X connect 23 4 6 0;
#X connect 25 0 17 0;
#X connect 26 0 44 0;
#X connect 27 0 35 0;
#X connect 27 0 36 0;
#X connect 28 0 45 0;
#X connect 29 0 28 0;
#X connect 29 1 38 0;
#X connect 30 0 31 1;
#X connect 31 0 34 0;
#X connect 32 0 33 0;
#X connect 32 1 45 1;
#X connect 33 0 45 1;
#X connect 34 0 29 0;
#X connect 36 0 31 0;
#X connect 36 1 30 0;
#X connect 36 2 34 1;
#X connect 36 3 30 1;
#X connect 37 0 35 0;
#X connect 38 0 45 0;
#X connect 39 0 40 1;
#X connect 40 0 24 0;
#X connect 43 0 37 1;
#X connect 44 0 39 0;
#X connect 45 0 43 0;
#X coords 0 -1 1 1 60 30 1 100 100;
#X restore 302 159 pd qrc3xy;
#N canvas 4 194 1802 803 qrc3 0;
#X obj 352 14 inlet;
#X obj 401 15 inlet;
#X obj 73 667 outlet;
#X obj 131 667 outlet;
#X obj 95 14 inlet;
#X msg 363 326 addcomma;
#X obj 299 380 t b a;
#X msg 126 306 set;
#X obj 205 267 timer;
#X obj 27 540 unpack f f;
#X msg 37 40 tempo 1;
#X msg -5 339 clear;
#X obj 271 347 pack f f f;
#X obj 130 207 t b b;
#X msg 143 231 0;
#X obj 184 292 int;
#X obj 116 175 spigot;
#X obj 142 113 tgl 15 0 empty empty empty 17 7 0 10 -258113 -1 -1 0
1;
#X obj 37 10 loadbang;
#X obj -87 233 t b b;
#X msg -43 272 1;
#X msg -5 275 0;
#X obj -83 345 spigot 1;
#X obj 443 192 moses 0.1;
#X text 353 -6 p;
#X text 406 -3 vel;
#X text 98 -5 trig;
#X obj 103 113 bng 15 250 50 0 empty empty empty 17 7 0 10 -262144
-1 -1;
#X obj 246 79 t b b f b b;
#X text 295 58 v before p;
#X msg 182 155 0;
#X msg 444 220 0;
#X obj 842 26 inlet;
#X text 841 7 bend;
#X msg 908 385 addcomma;
#X obj 838 418 t b a;
#X obj 839 308 timer;
#X obj 819 342 int;
#X obj 1021 291 moses 0.1;
#X msg 1016 319 0;
#X obj 834 379 pack f f;
#X obj 683 639 outlet;
#X obj 844 132 t b b f b;
#X msg 831 510 2018 8448 \, 15 10240 \, 13 11264 \, 15 12416 \, 14
13056 \, 13 13696 \, 15 14464 \, 14 14848 \, 15 15232 \, 13 15616 \,
14 16128 \, 15 16383 \, 467 15744 \, 14 15360 \, 15 15104 \, 13 14848
\, 14 14720 \, 15 14464 \, 13 14080 \, 14 13696 \, 15 13440 \, 13 13056
\, 14 12160 \, 15 11136 \, 13 10368 \, 14 9984 \, 15 9600 \, 13 9216
\, 17 8320 \, 13 8192 \,;
#X msg 280 500 0 63 111 \, 21 67 106 \, 1 60 104 \, 203 63 0 \, 2 60
0 \, 18 67 0 \, 520 63 120 \, 5 67 105 \, 4 60 106 \, 74 60 0 \, 2
63 0 \, 11 67 0 \, 117 67 102 \, 11 63 120 \, 7 60 105 \, 66 60 0 \,
2 63 0 \, 4 67 0 \, 60 63 121 \, 5 67 112 \, 1 60 110 \, 79 60 0 \,
0 63 0 \, 11 67 0 \, 217 67 113 \, 2 63 122 \, 0 60 111 \, 161 63 0
\, 2 60 0 \, 15 67 0 \, 380 63 121 \, 4 60 108 \, 2 67 110 \, 933 63
0 \, 5 67 0 \, 4 60 0 \, 166 63 121 \, 2 67 107 \, 2 60 107 \, 46 63
0 \, 5 67 0 \, 2 60 0 \, 89 63 125 \, 4 67 114 \, 1 60 113 \, 56 63
0 \, 11 60 0 \, 7 67 0 \, 262 63 125 \, 2 67 113 \, 2 60 114 \, 185
63 0 \, 1 60 0 \, 11 67 0 \, 190 63 120 \, 2 67 105 \, 5 60 105 \,
81 60 0 \, 2 63 0 \, 8 67 0 \, 178 63 123 \, 0 67 111 \, 2 60 111 \,
1374 63 0 \, 11 67 0 \, 0 60 0 \,;
#X msg 328 409 add2 \$1 \$2 \$3;
#X obj 27 514 abs_qlistrec3n;
#X msg 845 452 add2 \$1 \$2;
#X obj 1217 6 inlet;
#X msg 1305 361 addcomma;
#X obj 1251 396 t b a;
#X obj 1243 283 timer;
#X obj 1237 345 int;
#X obj 1448 231 moses 0.1;
#X msg 1443 259 0;
#X obj 1238 366 pack f f;
#X obj 1221 605 outlet;
#X obj 1241 108 t b b f b;
#X msg 1296 504 4635 2 \, 14 4 \, 15 10 \, 13 12 \, 14 21 \, 15 23
\, 13 28 \, 14 30 \, 15 32 \, 13 34 \, 14 36 \, 15 37 \, 13 38 \, 30
39 \, 13 40 \, 14 41 \, 15 43 \, 13 45 \, 14 47 \, 15 51 \, 13 53 \,
14 55 \, 14 56 \, 14 57 \, 29 59 \, 14 62 \, 15 63 \, 14 66 \, 13 68
\, 15 71 \, 14 73 \, 13 74 \, 15 77 \, 14 78 \, 13 79 \, 17 80 \, 13
83 \, 13 85 \, 17 87 \, 13 88 \, 14 89 \, 13 91 \, 15 93 \, 14 96 \,
13 98 \, 15 101 \, 14 103 \, 14 104 \, 13 106 \, 17 108 \, 13 111 \,
14 114 \, 15 118 \, 13 120 \, 14 124 \, 15 127 \, 625 124 \, 15 119
\, 13 114 \, 14 109 \, 15 106 \, 13 104 \, 14 102 \, 15 100 \, 13 96
\, 14 89 \, 15 81 \, 14 73 \, 13 68 \, 15 62 \, 14 58 \, 13 53 \, 15
48 \, 14 44 \, 13 39 \, 15 33 \, 14 26 \, 13 20 \, 15 8 \, 14 0 \,
;
#X msg 1279 426 add2 \$1 \$2;
#X text 73 629 pitch \, velocity;
#X text 691 605 pitchbend;
#X text 1227 583 control;
#X text 1216 -13 ctl;
#X obj 678 449 abs_qlistrec3v;
#X obj 1158 452 abs_qlistrec3v;
#X text -99 321 trig after rec;
#X text 449 171 recording;
#X obj 308 446 spigot 0;
#X obj 847 485 spigot 0;
#X obj 1299 459 spigot 0;
#X connect 0 0 2 0;
#X connect 0 0 28 0;
#X connect 1 0 3 0;
#X connect 1 0 12 2;
#X connect 4 0 27 0;
#X connect 5 0 68 0;
#X connect 6 0 5 0;
#X connect 6 1 45 0;
#X connect 7 0 44 0;
#X connect 7 0 43 0;
#X connect 7 0 58 0;
#X connect 8 0 15 1;
#X connect 9 0 2 0;
#X connect 9 1 3 0;
#X connect 10 0 46 0;
#X connect 10 0 64 0;
#X connect 10 0 65 0;
#X connect 11 0 46 0;
#X connect 11 0 64 0;
#X connect 11 0 65 0;
#X connect 12 0 6 0;
#X connect 13 0 14 0;
#X connect 13 0 11 0;
#X connect 13 0 7 0;
#X connect 13 1 8 0;
#X connect 13 1 36 0;
#X connect 13 1 51 0;
#X connect 14 0 15 1;
#X connect 14 0 37 1;
#X connect 14 0 52 1;
#X connect 15 0 12 0;
#X connect 16 0 13 0;
#X connect 16 0 20 0;
#X connect 17 0 16 1;
#X connect 17 0 23 0;
#X connect 17 0 38 0;
#X connect 17 0 53 0;
#X connect 18 0 10 0;
#X connect 19 0 21 0;
#X connect 19 0 46 0;
#X connect 19 0 64 0;
#X connect 19 0 65 0;
#X connect 19 1 22 0;
#X connect 20 0 22 1;
#X connect 21 0 22 1;
#X connect 21 0 17 0;
#X connect 21 0 68 1;
#X connect 22 0 44 0;
#X connect 22 0 43 0;
#X connect 22 0 58 0;
#X connect 23 0 31 0;
#X connect 23 1 68 1;
#X connect 27 0 19 0;
#X connect 28 0 15 0;
#X connect 28 0 30 0;
#X connect 28 1 8 0;
#X connect 28 2 12 1;
#X connect 28 3 8 1;
#X connect 28 4 16 0;
#X connect 30 0 16 1;
#X connect 31 0 68 1;
#X connect 32 0 41 0;
#X connect 32 0 42 0;
#X connect 34 0 69 0;
#X connect 35 0 34 0;
#X connect 35 1 47 0;
#X connect 36 0 37 1;
#X connect 37 0 40 0;
#X connect 38 0 39 0;
#X connect 38 1 69 1;
#X connect 39 0 69 1;
#X connect 40 0 35 0;
#X connect 42 0 37 0;
#X connect 42 1 36 0;
#X connect 42 2 40 1;
#X connect 42 3 36 1;
#X connect 43 0 64 1;
#X connect 44 0 46 1;
#X connect 45 0 68 0;
#X connect 46 0 9 0;
#X connect 47 0 69 0;
#X connect 48 0 56 0;
#X connect 48 0 57 0;
#X connect 49 0 70 0;
#X connect 50 0 49 0;
#X connect 50 1 59 0;
#X connect 51 0 52 1;
#X connect 52 0 55 0;
#X connect 53 0 54 0;
#X connect 53 1 70 1;
#X connect 54 0 70 1;
#X connect 55 0 50 0;
#X connect 57 0 52 0;
#X connect 57 1 51 0;
#X connect 57 2 55 1;
#X connect 57 3 51 1;
#X connect 58 0 65 1;
#X connect 59 0 70 0;
#X connect 64 0 41 0;
#X connect 65 0 56 0;
#X connect 68 0 44 0;
#X connect 69 0 43 0;
#X connect 70 0 58 0;
#X coords 0 -1 1 1 60 30 1 100 100;
#X restore -141 -20 pd qrc3;
#N canvas 221 167 1473 827 qrc3v 0;
#X obj 92 12 inlet;
#X msg 221 300 set;
#X msg 36 55 tempo 1;
#X msg 155 338 clear;
#X obj 224 235 t b b;
#X msg 244 268 0;
#X obj 189 193 spigot;
#X obj 141 113 tgl 15 0 empty empty empty 17 7 0 10 -258113 -1 -1 0
1;
#X obj 33 29 loadbang;
#X obj -87 233 t b b;
#X msg -43 272 1;
#X msg -5 275 0;
#X obj -83 345 spigot 1;
#X text 95 -7 trig;
#X obj 103 113 bng 15 250 50 0 empty empty empty 17 7 0 10 -262144
-1 -1;
#X obj 448 45 inlet;
#X msg 508 410 addcomma;
#X obj 460 439 t b a;
#X obj 445 327 timer;
#X obj 434 357 int;
#X obj 668 272 moses 0.1;
#X msg 658 291 0;
#X msg 219 159 0;
#X obj 457 99 t b b f b b;
#X obj 392 680 outlet;
#X obj 449 386 pack f f;
#X msg 504 516 0 1 \, 17 3 \, 7 4 \, 11 6 \, 8 7 \, 8 8 \, 7 9 \, 11
10 \, 15 11 \, 8 12 \, 11 13 \, 15 15 \, 11 16 \, 7 17 \, 8 18 \, 8
20 \, 10 21 \, 8 22 \, 15 23 \, 20 24 \, 7 25 \, 8 26 \, 11 27 \, 7
28 \, 8 30 \, 11 31 \, 7 33 \, 8 34 \, 8 35 \, 11 36 \, 7 37 \, 8 38
\, 8 39 \, 8 40 \, 10 42 \, 8 43 \, 8 45 \, 7 46 \, 11 47 \, 8 48 \,
8 49 \, 7 50 \, 11 51 \, 8 52 \, 7 53 \, 8 54 \, 11 56 \, 8 57 \, 7
59 \, 8 60 \, 8 61 \, 18 62 \, 20 63 \, 24 64 \, 134 63 \, 20 62 \,
7 61 \, 17 59 \, 18 58 \, 27 57 \, 15 56 \, 8 55 \, 11 54 \, 8 52 \,
8 50 \, 7 48 \, 8 47 \, 11 45 \, 8 44 \, 8 42 \, 7 40 \, 8 39 \, 8
37 \, 11 35 \, 8 33 \, 8 31 \, 8 28 \, 8 26 \, 8 24 \, 10 22 \, 8 21
\, 8 19 \, 8 18 \, 18 17 \, 36 20 \, 8 22 \, 8 26 \, 8 29 \, 8 33 \,
8 36 \, 8 39 \, 10 43 \, 8 47 \, 8 52 \, 8 57 \, 8 62 \, 8 66 \, 8
69 \, 11 71 \, 8 73 \, 24 72 \, 11 69 \, 8 65 \, 8 61 \, 8 56 \, 8
51 \, 8 46 \, 8 43 \, 8 40 \, 8 38 \, 11 36 \, 15 35 \, 36 36 \, 8
37 \, 8 39 \, 8 40 \, 8 42 \, 11 43 \, 8 44 \, 24 45 \, 20 46 \, 8
48 \, 8 50 \, 8 52 \, 8 54 \, 8 56 \, 8 57 \, 8 59 \, 8 61 \, 11 63
\, 8 65 \, 8 67 \, 8 69 \, 8 72 \, 8 74 \, 8 77 \, 8 78 \, 8 80 \,
8 82 \, 11 84 \, 8 86 \, 8 89 \, 8 92 \, 8 94 \, 8 96 \, 8 98 \, 8
100 \, 10 102 \, 8 103 \, 8 104 \, 8 105 \, 82 103 \, 8 102 \, 8 100
\, 8 98 \, 8 97 \, 8 96 \, 8 95 \, 8 94 \, 10 92 \, 8 91 \, 8 89 \,
8 88 \, 8 86 \, 8 84 \, 8 81 \, 11 78 \, 8 75 \, 8 72 \, 10 70 \, 8
68 \, 8 66 \, 8 64 \, 8 63 \, 8 61 \, 8 59 \, 10 57 \, 8 56 \, 8 53
\, 8 51 \, 8 49 \, 8 47 \, 8 45 \, 10 43 \, 8 42 \, 8 40 \, 8 38 \,
8 37 \, 10 35 \, 8 34 \, 8 32 \, 8 31 \, 8 29 \, 8 28 \, 10 26 \, 8
24 \, 8 22 \, 8 19 \, 8 17 \, 10 15 \, 8 14 \, 8 12 \, 17 11 \, 36
10 \,;
#X msg 489 468 add2 \$1 \$2;
#X obj 289 554 abs_qlistrec3v;
#X obj 505 494 spigot 0;
#X connect 0 0 14 0;
#X connect 1 0 26 0;
#X connect 2 0 28 0;
#X connect 3 0 28 0;
#X connect 4 0 5 0;
#X connect 4 0 3 0;
#X connect 4 0 1 0;
#X connect 4 1 18 0;
#X connect 5 0 19 1;
#X connect 6 0 4 0;
#X connect 6 0 10 0;
#X connect 7 0 6 1;
#X connect 7 0 20 0;
#X connect 8 0 2 0;
#X connect 9 0 11 0;
#X connect 9 0 28 0;
#X connect 9 1 12 0;
#X connect 10 0 12 1;
#X connect 11 0 12 1;
#X connect 11 0 7 0;
#X connect 12 0 26 0;
#X connect 14 0 9 0;
#X connect 15 0 23 0;
#X connect 15 0 24 0;
#X connect 16 0 29 0;
#X connect 17 0 16 0;
#X connect 17 1 27 0;
#X connect 18 0 19 1;
#X connect 19 0 25 0;
#X connect 20 0 21 0;
#X connect 20 1 29 1;
#X connect 21 0 29 1;
#X connect 22 0 6 1;
#X connect 23 0 19 0;
#X connect 23 0 22 0;
#X connect 23 1 18 0;
#X connect 23 2 25 1;
#X connect 23 3 18 1;
#X connect 23 4 6 0;
#X connect 25 0 17 0;
#X connect 26 0 28 1;
#X connect 27 0 29 0;
#X connect 28 0 24 0;
#X connect 29 0 26 0;
#X coords 0 -1 1 1 60 30 1 100 100;
#X restore 164 56 pd qrc3v;
#X floatatom 340 216 5 0 0 0 - - -;
#X obj 217 17 ctlin 64;
#X floatatom 454 297 5 0 0 0 - - -;
#X obj 561 204 ctlin 81;
#X obj 492 205 ctlin 82;
#X text 559 188 nanopad-x;
#X text 495 187 nanopad-y;
#X floatatom 497 297 5 0 0 0 - - -;
#X text 527 247 recorder for xyz ctl values;
#X floatatom 537 296 5 0 0 0 - - -;
#X obj 621 203 ctlin 83;
#X text 619 187 nanopad-on;
#N canvas 31 174 1849 827 qr3xyz 0;
#X obj 92 12 inlet;
#X msg 226 300 set;
#X msg 36 55 tempo 1;
#X msg 206 351 clear;
#X obj 219 229 t b b;
#X msg 244 268 0;
#X obj 189 193 spigot;
#X obj 141 113 tgl 15 0 empty empty empty 17 7 0 10 -258113 -1 -1 0
1;
#X obj 33 29 loadbang;
#X obj -87 233 t b b;
#X msg -43 272 1;
#X msg -5 275 0;
#X obj -83 345 spigot 1;
#X text 95 -7 trig;
#X obj 103 113 bng 15 250 50 0 empty empty empty 17 7 0 10 -262144
-1 -1;
#X obj 448 45 inlet;
#X msg 508 410 addcomma;
#X obj 460 439 t b a;
#X obj 445 327 timer;
#X obj 434 357 int;
#X obj 668 272 moses 0.1;
#X msg 658 291 0;
#X msg 219 159 0;
#X obj 457 99 t b b f b b;
#X obj 376 683 outlet;
#X obj 449 386 pack f f;
#X msg 489 468 add2 \$1 \$2;
#X obj 937 90 inlet;
#X msg 1025 445 addcomma;
#X obj 971 480 t b a;
#X obj 964 361 timer;
#X obj 945 405 int;
#X obj 1165 325 moses 0.1;
#X msg 1160 353 0;
#X obj 954 436 pack f f;
#X obj 929 686 outlet;
#X obj 961 192 t b b f b;
#X obj 903 544 abs_qlistrec3v;
#X msg 999 510 add2 \$1 \$2;
#X msg 504 523 0 4 \, 46 19 \, 37 18 \, 8 30 \, 7 31 \, 8 32 \, 11
33 \, 15 34 \, 24 45 \, 8 46 \, 10 47 \, 46 61 \, 8 62 \, 10 63 \,
17 67 \, 10 69 \, 8 70 \, 8 71 \, 7 72 \, 11 77 \, 8 78 \, 43 82 \,
10 84 \, 8 85 \, 8 86 \, 10 87 \, 8 88 \, 15 91 \, 39 90 \, 233 88
\, 11 87 \, 24 86 \, 27 85 \, 18 83 \, 15 78 \, 11 77 \, 8 76 \, 18
77 \, 8 78 \, 15 77 \, 258 43 \, 44 39 \, 236 40 \, 11 39 \, 7 38 \,
17 37 \, 11 34 \, 7 33 \, 223 101 \, 7 99 \, 8 89 \, 136 68 \, 7 67
\, 8 65 \, 11 63 \, 15 62 \, 264 29 \, 18 28 \, 18 27 \, 8 26 \, 7
25 \, 18 23 \, 8 19 \, 8 18 \,;
#X obj 289 554 abs_qlistrec3v;
#X text 936 71 ctl2;
#X text 453 27 ctl;
#X msg 1018 574 46 35 \, 27 36 \, 10 35 \, 8 45 \, 7 46 \, 60 55 \,
18 54 \, 46 57 \, 71 56 \, 20 51 \, 26 49 \, 8 47 \, 8 45 \, 74 44
\, 27 43 \, 233 67 \, 11 68 \, 24 67 \, 18 68 \, 8 69 \, 74 74 \, 8
75 \, 7 76 \, 8 79 \, 258 73 \, 8 74 \, 18 75 \, 253 40 \, 18 39 \,
8 38 \, 8 35 \, 18 34 \, 223 19 \, 7 20 \, 8 14 \, 136 17 \, 307 69
\, 26 71 \, 20 70 \, 7 69 \,;
#X obj 1438 59 inlet;
#X msg 1526 414 addcomma;
#X obj 1472 449 t b a;
#X obj 1464 336 timer;
#X obj 1446 374 int;
#X obj 1669 284 moses 0.1;
#X msg 1664 312 0;
#X obj 1457 403 pack f f;
#X obj 1430 655 outlet;
#X obj 1462 161 t b b f b;
#X obj 1404 513 abs_qlistrec3v;
#X msg 1500 479 add2 \$1 \$2;
#X msg 1519 543 0 127 \, 15 0 \, 30 127 \, 149 0 \, 30 127 \, 249 0
\, 220 127 \, 187 0 \, 233 127 \, 60 0 \, 220 127 \, 63 0 \, 214 127
\, 27 0 \, 124 127 \, 68 0 \, 240 127 \, 104 0 \,;
#X text 1437 40 ctl3;
#X obj 504 494 spigot 0;
#X obj 1019 543 spigot 0;
#X obj 1520 512 spigot 0;
#X connect 0 0 14 0;
#X connect 1 0 39 0;
#X connect 1 0 43 0;
#X connect 1 0 56 0;
#X connect 2 0 37 0;
#X connect 2 0 40 0;
#X connect 2 0 54 0;
#X connect 3 0 37 0;
#X connect 3 0 40 0;
#X connect 3 0 54 0;
#X connect 4 0 5 0;
#X connect 4 0 3 0;
#X connect 4 0 1 0;
#X connect 4 1 18 0;
#X connect 4 1 30 0;
#X connect 4 1 47 0;
#X connect 5 0 19 1;
#X connect 5 0 31 1;
#X connect 5 0 48 1;
#X connect 6 0 4 0;
#X connect 6 0 10 0;
#X connect 7 0 6 1;
#X connect 7 0 20 0;
#X connect 7 0 32 0;
#X connect 7 0 49 0;
#X connect 8 0 2 0;
#X connect 9 0 11 0;
#X connect 9 0 37 0;
#X connect 9 0 40 0;
#X connect 9 0 54 0;
#X connect 9 1 12 0;
#X connect 10 0 12 1;
#X connect 11 0 12 1;
#X connect 11 0 7 0;
#X connect 12 0 39 0;
#X connect 12 0 43 0;
#X connect 12 0 56 0;
#X connect 14 0 9 0;
#X connect 15 0 23 0;
#X connect 15 0 24 0;
#X connect 16 0 58 0;
#X connect 17 0 16 0;
#X connect 17 1 26 0;
#X connect 18 0 19 1;
#X connect 19 0 25 0;
#X connect 20 0 21 0;
#X connect 20 1 58 1;
#X connect 21 0 58 1;
#X connect 22 0 6 1;
#X connect 23 0 19 0;
#X connect 23 0 22 0;
#X connect 23 1 18 0;
#X connect 23 2 25 1;
#X connect 23 3 18 1;
#X connect 23 4 6 0;
#X connect 25 0 17 0;
#X connect 26 0 58 0;
#X connect 27 0 35 0;
#X connect 27 0 36 0;
#X connect 28 0 59 0;
#X connect 29 0 28 0;
#X connect 29 1 38 0;
#X connect 30 0 31 1;
#X connect 31 0 34 0;
#X connect 32 0 33 0;
#X connect 32 1 59 1;
#X connect 33 0 59 1;
#X connect 34 0 29 0;
#X connect 36 0 31 0;
#X connect 36 1 30 0;
#X connect 36 2 34 1;
#X connect 36 3 30 1;
#X connect 37 0 35 0;
#X connect 38 0 59 0;
#X connect 39 0 40 1;
#X connect 40 0 24 0;
#X connect 43 0 37 1;
#X connect 44 0 52 0;
#X connect 44 0 53 0;
#X connect 45 0 60 0;
#X connect 46 0 45 0;
#X connect 46 1 55 0;
#X connect 47 0 48 1;
#X connect 48 0 51 0;
#X connect 49 0 50 0;
#X connect 49 1 60 1;
#X connect 50 0 60 1;
#X connect 51 0 46 0;
#X connect 53 0 48 0;
#X connect 53 1 47 0;
#X connect 53 2 51 1;
#X connect 53 3 47 1;
#X connect 54 0 52 0;
#X connect 55 0 60 0;
#X connect 56 0 54 1;
#X connect 58 0 39 0;
#X connect 59 0 43 0;
#X connect 60 0 56 0;
#X coords 0 -1 1 1 60 30 1 100 100;
#X restore 462 240 pd qr3xyz;
#X connect 0 0 1 0;
#X connect 0 0 1 1;
#X connect 2 0 17 0;
#X connect 3 0 17 1;
#X connect 3 1 17 2;
#X connect 4 0 17 3;
#X connect 5 0 17 4;
#X connect 7 0 0 3;
#X connect 12 0 16 2;
#X connect 13 0 16 1;
#X connect 16 0 9 0;
#X connect 16 1 19 0;
#X connect 17 0 0 0;
#X connect 17 1 0 1;
#X connect 17 2 0 2;
#X connect 17 3 7 0;
#X connect 18 0 8 0;
#X connect 20 0 18 1;
#X connect 22 0 31 2;
#X connect 23 0 31 1;
#X connect 29 0 31 3;
#X connect 31 0 21 0;
#X connect 31 1 26 0;
#X connect 31 2 28 0;
