#N canvas 294 267 679 549 10;
#X obj -382 -25 dac~;
#X obj -381 -114 hip~ 5;
#X obj -381 -87 *~ 0.5;
#X text -249 -345 subtractive random synth-loop.;
#N canvas 216 82 1184 711 songpos96-16 0;
#X obj 318 440 + 1;
#X obj 267 436 float;
#X msg 206 296 1;
#X obj 218 321 /;
#X obj 209 273 t f f;
#X obj 228 344 * 15000;
#X obj 339 355 t b f;
#X obj 263 405 metro 125;
#X msg 340 329 -2;
#X obj 172 17 loadbang;
#X floatatom 126 113 5 30 300 0 bpm - -;
#X msg -2 85 set \$1;
#X msg 5 139 120;
#X obj 174 112 bng 15 250 50 0 empty empty empty 6 7 0 10 -261234 -1
-1;
#X obj 278 636 outlet;
#X obj 570 496 outlet;
#X text 618 497 bpm->;
#X obj 200 112 bng 15 50 20 0 empty empty empty 6 7 0 10 -204786 -1
-1;
#X obj 208 225 float;
#X obj 435 539 outlet;
#X text 144 343 1/16 in ms;
#X text 485 540 pos96->;
#X obj 259 373 / 6;
#X text 219 371 1/96;
#X obj 280 481 / 6;
#X obj 280 505 int;
#X obj 279 530 change;
#X obj 600 64 + 1;
#X obj 602 29 float;
#X obj 600 96 moses 2;
#X obj 600 155 timer;
#X obj 600 123 t b;
#X obj 648 122 t b b;
#X obj 653 243 /;
#X msg 623 221 60000;
#X obj 618 183 t b f;
#X obj 656 268 moses 10;
#X text 500 72 beatcounter;
#X obj 772 358 float;
#X obj 769 401 + 1;
#X obj 688 426 +;
#X obj 729 396 *;
#X obj 705 328 t f b;
#X obj 698 464 /;
#X msg 884 211 0;
#X text 499 302 mean (as seen on idafx blog);
#X obj 864 324 t f f;
#X obj 921 503 moses 0.1;
#X text 880 303 reset;
#X obj 870 366 /;
#X obj 849 431 < 0.75;
#X obj 903 435 > 1.25;
#X obj 869 391 t f f;
#X obj 877 471 ||;
#X obj 174 54 t b b b;
#X obj 43 -7 inlet;
#X obj 107 -11 inlet;
#X text 329 637 pos16->;
#X text 46 14 sync;
#X text 111 10 tap;
#X connect 0 0 1 1;
#X connect 0 0 24 0;
#X connect 0 0 19 0;
#X connect 1 0 0 0;
#X connect 2 0 3 0;
#X connect 3 0 5 0;
#X connect 4 0 2 0;
#X connect 4 1 3 1;
#X connect 5 0 22 0;
#X connect 6 0 7 0;
#X connect 6 1 1 0;
#X connect 7 0 1 0;
#X connect 8 0 6 0;
#X connect 9 0 54 0;
#X connect 10 0 11 0;
#X connect 10 0 18 1;
#X connect 11 0 12 0;
#X connect 12 0 10 0;
#X connect 13 0 8 0;
#X connect 13 0 18 0;
#X connect 17 0 28 0;
#X connect 18 0 4 0;
#X connect 18 0 15 0;
#X connect 22 0 7 1;
#X connect 24 0 25 0;
#X connect 25 0 26 0;
#X connect 26 0 14 0;
#X connect 27 0 28 1;
#X connect 27 0 29 0;
#X connect 28 0 27 0;
#X connect 29 0 31 0;
#X connect 29 1 32 0;
#X connect 30 0 35 0;
#X connect 30 0 46 0;
#X connect 31 0 30 0;
#X connect 32 0 30 0;
#X connect 32 1 30 1;
#X connect 33 0 36 0;
#X connect 34 0 33 0;
#X connect 35 0 34 0;
#X connect 35 1 33 1;
#X connect 36 1 42 0;
#X connect 38 0 39 0;
#X connect 38 0 41 0;
#X connect 39 0 38 1;
#X connect 39 0 43 1;
#X connect 40 0 43 0;
#X connect 41 0 40 1;
#X connect 42 0 40 0;
#X connect 42 1 38 0;
#X connect 43 0 41 1;
#X connect 43 0 10 0;
#X connect 44 0 38 1;
#X connect 44 0 28 1;
#X connect 46 0 49 1;
#X connect 46 1 49 0;
#X connect 47 1 44 0;
#X connect 49 0 52 0;
#X connect 50 0 53 0;
#X connect 51 0 53 1;
#X connect 52 0 50 0;
#X connect 52 1 51 0;
#X connect 53 0 47 0;
#X connect 54 0 13 0;
#X connect 54 1 13 0;
#X connect 54 2 12 0;
#X connect 55 0 13 0;
#X connect 56 0 17 0;
#X coords 0 -1 1 1 120 30 1 100 100;
#X restore -383 -344 pd songpos96-16;
#N canvas 0 0 1271 679 triggercycles8 0;
#X obj 200 -9 inlet;
#X obj -370 501 outlet;
#X floatatom 102 117 4 -999 999 0 - - -;
#X msg -370 345 set \$1;
#X msg -358 320 0;
#X floatatom 102 135 3 0 999 0 - - -;
#X msg -489 353 set \$1;
#X msg -477 328 64;
#X obj 300 -1 loadbang;
#X obj -418 357 +;
#X obj -405 390 mod;
#X obj -393 410 == 0;
#X obj -391 433 moses 0.1;
#X obj -369 472 t b;
#X obj -179 510 outlet;
#X floatatom 136 117 4 -999 999 0 - - -;
#X msg -170 355 set \$1;
#X msg -158 330 0;
#X floatatom 136 135 3 0 999 0 - - -;
#X msg -289 363 set \$1;
#X msg -277 338 32;
#X obj -210 365 +;
#X obj -205 400 mod;
#X obj -193 420 == 0;
#X obj -191 443 moses 0.1;
#X obj -178 481 t b;
#X obj 19 503 outlet;
#X floatatom 170 117 4 -999 999 0 - - -;
#X msg 11 352 set \$1;
#X msg 23 327 0;
#X floatatom 170 135 3 0 999 0 - - -;
#X msg -96 359 set \$1;
#X msg -84 334 9;
#X obj -25 363 +;
#X obj -12 396 mod;
#X obj 0 416 == 0;
#X obj 2 439 moses 0.1;
#X obj 20 474 t b;
#X obj 209 498 outlet;
#X floatatom 204 117 4 -999 999 0 - - -;
#X msg 223 361 set \$1;
#X msg 237 336 0;
#X floatatom 204 135 3 0 999 0 - - -;
#X msg 104 369 set \$1;
#X msg 116 344 12;
#X obj 183 371 +;
#X obj 188 406 mod;
#X obj 200 426 == 0;
#X obj 202 449 moses 0.1;
#X obj 210 469 t b;
#X obj 417 489 outlet;
#X floatatom 238 117 4 -999 999 0 - - -;
#X msg 423 344 set \$1;
#X msg 435 319 0;
#X floatatom 238 135 3 0 999 0 - - -;
#X msg 304 352 set \$1;
#X msg 317 327 10;
#X obj 375 356 +;
#X obj 388 389 mod;
#X obj 400 409 == 0;
#X obj 402 432 moses 0.1;
#X obj 418 460 t b;
#X obj 618 498 outlet;
#X floatatom 272 117 4 -999 999 0 - - -;
#X msg 623 354 set \$1;
#X msg 635 329 0;
#X floatatom 272 135 3 0 999 0 - - -;
#X msg 504 362 set \$1;
#X msg 516 337 7;
#X obj 583 364 +;
#X obj 588 399 mod;
#X obj 600 419 == 0;
#X obj 602 442 moses 0.1;
#X obj 619 469 t b;
#X obj 811 499 outlet;
#X floatatom 306 117 4 -999 999 0 - - -;
#X msg 804 351 set \$1;
#X msg 816 326 0;
#X floatatom 306 135 3 0 999 0 - - -;
#X msg 697 358 set \$1;
#X msg 709 333 10;
#X obj 768 362 +;
#X obj 781 395 mod;
#X obj 793 415 == 0;
#X obj 795 438 moses 0.1;
#X obj 812 470 t b;
#X obj 1010 501 outlet;
#X floatatom 340 117 4 -999 999 0 - - -;
#X msg 1016 360 set \$1;
#X msg 1028 335 0;
#X floatatom 340 135 3 0 999 0 - - -;
#X msg 897 368 set \$1;
#X msg 909 343 16;
#X obj 976 370 +;
#X obj 981 405 mod;
#X obj 993 425 == 0;
#X obj 995 448 moses 0.1;
#X obj 1011 472 t b;
#X obj -425 417 /;
#X obj 105 152 hsl 25 8 0 0.999 0 0 empty empty empty -2 -8 0 10 -262144
-1 -1 1014 1;
#X obj -235 434 /;
#X obj 139 152 hsl 25 8 0 0.999 0 0 empty empty empty -2 -8 0 10 -262144
-1 -1 2027 1;
#X obj -40 437 /;
#X obj 173 152 hsl 25 8 0 0.999 0 0 empty empty empty -2 -8 0 10 -262144
-1 -1 0 1;
#X obj 160 433 /;
#X obj 207 152 hsl 25 8 0 0.999 0 0 empty empty empty -2 -8 0 10 -262144
-1 -1 601 1;
#X obj 356 424 /;
#X obj 241 152 hsl 25 8 0 0.999 0 0 empty empty empty -2 -8 0 10 -262144
-1 -1 1682 1;
#X obj 560 443 /;
#X obj 275 152 hsl 25 8 0 0.999 0 0 empty empty empty -2 -8 0 10 -262144
-1 -1 2059 1;
#X obj 752 446 /;
#X obj 309 152 hsl 25 8 0 0.999 0 0 empty empty empty -2 -8 0 10 -262144
-1 -1 1682 1;
#X obj 956 445 /;
#X obj 343 152 hsl 25 8 0 0.999 0 0 empty empty empty -2 -8 0 10 -262144
-1 -1 1652 1;
#X connect 0 0 9 0;
#X connect 0 0 21 0;
#X connect 0 0 33 0;
#X connect 0 0 45 0;
#X connect 0 0 57 0;
#X connect 0 0 69 0;
#X connect 0 0 81 0;
#X connect 0 0 93 0;
#X connect 2 0 3 0;
#X connect 2 0 9 1;
#X connect 3 0 4 0;
#X connect 4 0 2 0;
#X connect 5 0 6 0;
#X connect 5 0 10 1;
#X connect 5 0 98 1;
#X connect 6 0 7 0;
#X connect 7 0 5 0;
#X connect 8 0 4 0;
#X connect 8 0 7 0;
#X connect 8 0 20 0;
#X connect 8 0 17 0;
#X connect 8 0 32 0;
#X connect 8 0 29 0;
#X connect 8 0 44 0;
#X connect 8 0 41 0;
#X connect 8 0 53 0;
#X connect 8 0 68 0;
#X connect 8 0 65 0;
#X connect 8 0 80 0;
#X connect 8 0 77 0;
#X connect 8 0 92 0;
#X connect 8 0 89 0;
#X connect 8 0 56 0;
#X connect 9 0 10 0;
#X connect 10 0 11 0;
#X connect 10 0 98 0;
#X connect 11 0 12 0;
#X connect 12 1 13 0;
#X connect 13 0 1 0;
#X connect 15 0 16 0;
#X connect 15 0 21 1;
#X connect 16 0 17 0;
#X connect 17 0 15 0;
#X connect 18 0 19 0;
#X connect 18 0 22 1;
#X connect 18 0 100 1;
#X connect 19 0 20 0;
#X connect 20 0 18 0;
#X connect 21 0 22 0;
#X connect 22 0 23 0;
#X connect 22 0 100 0;
#X connect 23 0 24 0;
#X connect 24 1 25 0;
#X connect 25 0 14 0;
#X connect 27 0 28 0;
#X connect 27 0 33 1;
#X connect 28 0 29 0;
#X connect 29 0 27 0;
#X connect 30 0 31 0;
#X connect 30 0 34 1;
#X connect 30 0 102 1;
#X connect 31 0 32 0;
#X connect 32 0 30 0;
#X connect 33 0 34 0;
#X connect 34 0 35 0;
#X connect 34 0 102 0;
#X connect 35 0 36 0;
#X connect 36 1 37 0;
#X connect 37 0 26 0;
#X connect 39 0 40 0;
#X connect 39 0 45 1;
#X connect 40 0 41 0;
#X connect 41 0 39 0;
#X connect 42 0 43 0;
#X connect 42 0 46 1;
#X connect 42 0 104 1;
#X connect 43 0 44 0;
#X connect 44 0 42 0;
#X connect 45 0 46 0;
#X connect 46 0 47 0;
#X connect 46 0 104 0;
#X connect 47 0 48 0;
#X connect 48 1 49 0;
#X connect 49 0 38 0;
#X connect 51 0 52 0;
#X connect 51 0 57 1;
#X connect 52 0 53 0;
#X connect 53 0 51 0;
#X connect 54 0 55 0;
#X connect 54 0 58 1;
#X connect 54 0 106 1;
#X connect 55 0 56 0;
#X connect 56 0 54 0;
#X connect 57 0 58 0;
#X connect 58 0 59 0;
#X connect 58 0 106 0;
#X connect 59 0 60 0;
#X connect 60 1 61 0;
#X connect 61 0 50 0;
#X connect 63 0 64 0;
#X connect 63 0 69 1;
#X connect 64 0 65 0;
#X connect 65 0 63 0;
#X connect 66 0 67 0;
#X connect 66 0 70 1;
#X connect 66 0 108 1;
#X connect 67 0 68 0;
#X connect 68 0 66 0;
#X connect 69 0 70 0;
#X connect 70 0 71 0;
#X connect 70 0 108 0;
#X connect 71 0 72 0;
#X connect 72 1 73 0;
#X connect 73 0 62 0;
#X connect 75 0 76 0;
#X connect 75 0 81 1;
#X connect 76 0 77 0;
#X connect 77 0 75 0;
#X connect 78 0 79 0;
#X connect 78 0 82 1;
#X connect 78 0 110 1;
#X connect 79 0 80 0;
#X connect 80 0 78 0;
#X connect 81 0 82 0;
#X connect 82 0 83 0;
#X connect 82 0 110 0;
#X connect 83 0 84 0;
#X connect 84 1 85 0;
#X connect 85 0 74 0;
#X connect 87 0 88 0;
#X connect 87 0 93 1;
#X connect 88 0 89 0;
#X connect 89 0 87 0;
#X connect 90 0 91 0;
#X connect 90 0 94 1;
#X connect 90 0 112 1;
#X connect 91 0 92 0;
#X connect 92 0 90 0;
#X connect 93 0 94 0;
#X connect 94 0 95 0;
#X connect 94 0 112 0;
#X connect 95 0 96 0;
#X connect 96 1 97 0;
#X connect 97 0 86 0;
#X connect 98 0 99 0;
#X connect 100 0 101 0;
#X connect 102 0 103 0;
#X connect 104 0 105 0;
#X connect 106 0 107 0;
#X connect 108 0 109 0;
#X connect 110 0 111 0;
#X connect 112 0 113 0;
#X coords 0 -1 1 1 272 65 1 100 100;
#X restore -383 -280 pd triggercycles8;
#N canvas 524 439 1148 640 rnsyn2 0;
#X obj -5 166 inlet;
#X obj 232 426 outlet~;
#X obj 221 197 inlet;
#X text 260 195 <- osc1;
#X obj 310 244 inlet;
#X text 350 242 <- fm;
#X obj 416 223 inlet;
#X text 455 224 <- mix;
#X obj 522 217 inlet;
#X text 561 215 <- osc2;
#X obj 38 20 hsl 128 8 0 5 0 1 empty empty fb-am -34 4 0 10 -262144
-1 -1 6800 1;
#X obj 38 33 hsl 128 8 1 999 0 1 empty empty del -34 4 0 10 -262144
-1 -1 7500 1;
#X obj 38 46 hsl 128 8 0.1 2 0 1 empty empty ev-sp -34 4 0 10 -262144
-1 -1 8200 1;
#X obj 38 74 hsl 128 8 -36 64 0 1 empty empty cut -34 4 0 10 -262144
-1 -1 8100 1;
#X text 821 263 lfo wave;
#X obj 812 241 inlet;
#X obj 38 60 hsl 128 8 0 1 0 1 empty empty lf-t -34 4 0 10 -262144
-1 -1 10700 1;
#X obj 216 373 abs_randomsub2_synth -----------;
#X obj 690 230 inlet;
#X text 737 229 filter;
#X obj 132 3 nbx 3 14 -48 48 0 1 empty empty empty 0 -8 0 10 -262144
-1 -1 0 256;
#X obj 59 3 nbx 7 14 -1e+37 1e+37 0 1 empty empty empty 0 -8 0 10 -262144
-1 -1 22835 256;
#X obj -5 198 t b;
#X text 39 160 <-seed;
#X text 305 89 random controled simple subtractive synth 2 osc + fm
+ lp-filter +lfos 11/2006 \, 6/2008 \, 12/2012 martin brinkmann;
#X connect 0 0 22 0;
#X connect 2 0 17 7;
#X connect 4 0 17 8;
#X connect 6 0 17 9;
#X connect 8 0 17 10;
#X connect 10 0 17 0;
#X connect 11 0 17 1;
#X connect 12 0 17 2;
#X connect 13 0 17 5;
#X connect 15 0 17 12;
#X connect 16 0 17 4;
#X connect 17 0 1 0;
#X connect 18 0 17 11;
#X connect 20 0 17 3;
#X connect 21 0 17 6;
#X connect 22 0 21 0;
#X coords 0 -1 1 1 170 85 1 0 0;
#X restore -382 -206 pd rnsyn2;
#X obj -383 -304 mod 64;
#X obj -333 -303 nbx 4 14 2 1024 0 1 empty empty empty 0 -8 0 10 -262144
-1 -1 64 256;
#X connect 1 0 2 0;
#X connect 2 0 0 0;
#X connect 2 0 0 1;
#X connect 4 0 7 0;
#X connect 5 0 6 0;
#X connect 5 1 6 1;
#X connect 5 2 6 2;
#X connect 5 3 6 3;
#X connect 5 4 6 4;
#X connect 5 5 6 5;
#X connect 5 6 6 6;
#X connect 6 0 1 0;
#X connect 7 0 5 0;
#X connect 8 0 7 1;
