#N canvas 188 386 715 440 10;
#X obj -76 173 dac~;
#N canvas 415 154 1047 823 randrezloop1 0;
#X obj 55 629 *~;
#X obj 75 754 outlet~;
#X obj -7 102 inlet;
#X obj -5 285 div;
#X obj 257 114 nbx 7 14 1 1e+37 0 1 empty empty seed 0 -8 0 10 -262144
-1 -1 3206.69 256;
#X obj 103 160 nbx 3 14 1 64 0 1 empty empty spd1 0 -8 0 10 -262144
-1 -1 5 256;
#N canvas 6 90 450 300 rndish-sp 0;
#X obj 72 42 inlet;
#X obj 151 -77 inlet;
#X obj 105 277 outlet;
#X obj 101 80 *;
#X obj 131 164 sqrt;
#X obj 108 197 +;
#X obj 111 114 t f f;
#X text 77 15 sp;
#X obj 108 235 sin;
#X obj 157 41 +;
#X obj 191 14 /;
#X msg 179 -14 1;
#X obj 164 -50 t f b f;
#X text 165 -102 seed;
#X connect 0 0 3 0;
#X connect 1 0 12 0;
#X connect 3 0 6 0;
#X connect 4 0 5 1;
#X connect 5 0 8 0;
#X connect 6 0 5 0;
#X connect 6 1 4 0;
#X connect 8 0 2 0;
#X connect 9 0 3 1;
#X connect 10 0 9 1;
#X connect 11 0 10 0;
#X connect 12 0 9 0;
#X connect 12 1 11 0;
#X connect 12 2 10 1;
#X restore -13 319 pd rndish-sp;
#X obj 127 294 div;
#X obj 141 160 nbx 3 14 1 64 0 1 empty empty spd2 0 -8 0 10 -262144
-1 -1 4 256;
#N canvas 6 90 450 300 rndish-sp 0;
#X obj 72 42 inlet;
#X obj 151 -77 inlet;
#X obj 105 277 outlet;
#X obj 101 80 *;
#X obj 131 164 sqrt;
#X obj 108 197 +;
#X obj 111 114 t f f;
#X text 77 15 sp;
#X obj 108 235 sin;
#X obj 157 41 +;
#X obj 191 14 /;
#X msg 179 -14 1;
#X obj 164 -50 t f b f;
#X text 165 -102 seed;
#X connect 0 0 3 0;
#X connect 1 0 12 0;
#X connect 3 0 6 0;
#X connect 4 0 5 1;
#X connect 5 0 8 0;
#X connect 6 0 5 0;
#X connect 6 1 4 0;
#X connect 8 0 2 0;
#X connect 9 0 3 1;
#X connect 10 0 9 1;
#X connect 11 0 10 0;
#X connect 12 0 9 0;
#X connect 12 1 11 0;
#X connect 12 2 10 1;
#X restore 157 351 pd rndish-sp;
#X obj 242 287 div;
#X obj 179 160 nbx 3 14 1 64 0 1 empty empty spd3 0 -8 0 10 -262144
-1 -1 7 256;
#N canvas 7 94 450 300 rndish-sp 0;
#X obj 72 42 inlet;
#X obj 151 -77 inlet;
#X obj 105 277 outlet;
#X obj 101 80 *;
#X obj 131 164 sqrt;
#X obj 108 197 +;
#X obj 111 114 t f f;
#X text 77 15 sp;
#X obj 108 235 sin;
#X obj 157 41 +;
#X obj 191 14 /;
#X msg 179 -14 1;
#X obj 164 -50 t f b f;
#X text 165 -102 seed;
#X connect 0 0 3 0;
#X connect 1 0 12 0;
#X connect 3 0 6 0;
#X connect 4 0 5 1;
#X connect 5 0 8 0;
#X connect 6 0 5 0;
#X connect 6 1 4 0;
#X connect 8 0 2 0;
#X connect 9 0 3 1;
#X connect 10 0 9 1;
#X connect 11 0 10 0;
#X connect 12 0 9 0;
#X connect 12 1 11 0;
#X connect 12 2 10 1;
#X restore 255 336 pd rndish-sp;
#N canvas 436 307 450 300 limit 0;
#X obj 40 31 inlet~;
#X obj 40 234 outlet~;
#X obj 41 199 /~;
#X obj 75 174 clip~ 1 32000;
#X obj 79 136 lop~ 100;
#X obj 76 108 abs~;
#X connect 0 0 2 0;
#X connect 0 0 5 0;
#X connect 2 0 1 0;
#X connect 3 0 2 1;
#X connect 4 0 3 0;
#X connect 5 0 4 0;
#X restore 55 653 pd limit;
#X obj 223 160 nbx 4 14 -128 128 0 1 empty empty tp 0 -8 0 10 -262144
-1 -1 0 256;
#X obj 204 127 nbx 4 14 3 1024 0 1 empty empty len(1/16) 0 -8 0 10
-262144 -1 -1 16 256;
#X obj 4 156 mod;
#X obj -3 235 +;
#X obj 103 127 nbx 4 14 0 1024 0 1 empty empty st(len) 0 -8 0 10 -262144
-1 -1 8 256;
#X obj 43 162 *;
#X obj 294 135 vsl 8 48 0.01 1 0 1 empty empty empty 0 -9 0 10 -262144
-1 -1 1500 1;
#X obj 426 517 *;
#X obj 80 720 *~;
#X obj 56 686 hip~ 12;
#X obj 152 127 nbx 4 14 0 1024 0 1 empty empty st(1/16) 0 -8 0 10 -262144
-1 -1 6 256;
#X obj 16 214 +;
#X obj 49 187 t b f;
#X obj 106 178 hsl 128 8 0 1 0 0 empty empty empty -2 -8 0 10 -262144
-1 -1 6350 1;
#X obj 86 235 /;
#X obj 98 39 t b f;
#X text 348 166 7/2011 martin brinkmann;
#N canvas 648 469 991 480 4random 0;
#N canvas 6 90 450 300 rndish 0;
#X obj 72 42 inlet;
#X obj 135 42 inlet;
#X obj 105 277 outlet;
#X obj 101 80 *;
#X obj 131 164 sqrt;
#X obj 108 197 +;
#X obj 111 114 t f f;
#X text 150 17 irrational nr/seed;
#X text 77 15 sp;
#X obj 108 235 sin;
#X connect 0 0 3 0;
#X connect 1 0 3 1;
#X connect 3 0 6 0;
#X connect 4 0 5 1;
#X connect 5 0 9 0;
#X connect 6 0 5 0;
#X connect 6 1 4 0;
#X connect 9 0 2 0;
#X restore 37 209 pd rndish;
#X obj 17 269 outlet;
#X obj 144 -81 inlet;
#X obj 267 122 sqrt;
#X msg 267 98 5;
#X obj 345 123 sqrt;
#X msg 345 99 7;
#X obj 180 131 sqrt;
#X msg 180 107 3;
#X obj 108 133 sqrt;
#X msg 108 109 2;
#X obj 373 -63 loadbang;
#X obj 109 160 * 100;
#X obj 180 158 * 100;
#N canvas 5 86 450 300 rndish 0;
#X obj 72 42 inlet;
#X obj 135 42 inlet;
#X obj 105 277 outlet;
#X obj 101 80 *;
#X obj 131 164 sqrt;
#X obj 108 197 +;
#X obj 111 114 t f f;
#X text 150 17 irrational nr/seed;
#X text 77 15 sp;
#X obj 108 235 sin;
#X connect 0 0 3 0;
#X connect 1 0 3 1;
#X connect 3 0 6 0;
#X connect 4 0 5 1;
#X connect 5 0 9 0;
#X connect 6 0 5 0;
#X connect 6 1 4 0;
#X connect 9 0 2 0;
#X restore 142 206 pd rndish;
#X obj 141 267 outlet;
#X text 194 -77 sp;
#N canvas 5 86 450 300 rndish 0;
#X obj 72 42 inlet;
#X obj 135 42 inlet;
#X obj 105 277 outlet;
#X obj 101 80 *;
#X obj 131 164 sqrt;
#X obj 108 197 +;
#X obj 111 114 t f f;
#X text 150 17 irrational nr/seed;
#X text 77 15 sp;
#X obj 108 235 sin;
#X connect 0 0 3 0;
#X connect 1 0 3 1;
#X connect 3 0 6 0;
#X connect 4 0 5 1;
#X connect 5 0 9 0;
#X connect 6 0 5 0;
#X connect 6 1 4 0;
#X connect 9 0 2 0;
#X restore 231 205 pd rndish;
#X obj 264 152 * 100;
#X obj 346 154 * 100;
#N canvas 5 86 450 300 rndish 0;
#X obj 72 42 inlet;
#X obj 135 42 inlet;
#X obj 105 277 outlet;
#X obj 101 80 *;
#X obj 131 164 sqrt;
#X obj 108 197 +;
#X obj 111 114 t f f;
#X text 150 17 irrational nr/seed;
#X text 77 15 sp;
#X obj 108 235 sin;
#X connect 0 0 3 0;
#X connect 1 0 3 1;
#X connect 3 0 6 0;
#X connect 4 0 5 1;
#X connect 5 0 9 0;
#X connect 6 0 5 0;
#X connect 6 1 4 0;
#X connect 9 0 2 0;
#X restore 327 212 pd rndish;
#X obj 240 272 outlet;
#X obj 334 270 outlet;
#X connect 0 0 1 0;
#X connect 2 0 0 0;
#X connect 2 0 14 0;
#X connect 2 0 17 0;
#X connect 2 0 20 0;
#X connect 3 0 18 0;
#X connect 4 0 3 0;
#X connect 5 0 19 0;
#X connect 6 0 5 0;
#X connect 7 0 13 0;
#X connect 8 0 7 0;
#X connect 9 0 12 0;
#X connect 10 0 9 0;
#X connect 11 0 10 0;
#X connect 11 0 8 0;
#X connect 11 0 4 0;
#X connect 11 0 6 0;
#X connect 12 0 0 1;
#X connect 13 0 14 1;
#X connect 14 0 15 0;
#X connect 17 0 21 0;
#X connect 18 0 17 1;
#X connect 19 0 20 1;
#X connect 20 0 22 0;
#X restore 42 437 pd 4random;
#N canvas 648 469 991 480 4random 0;
#N canvas 6 90 450 300 rndish 0;
#X obj 72 42 inlet;
#X obj 135 42 inlet;
#X obj 105 277 outlet;
#X obj 101 80 *;
#X obj 131 164 sqrt;
#X obj 108 197 +;
#X obj 111 114 t f f;
#X text 150 17 irrational nr/seed;
#X text 77 15 sp;
#X obj 108 235 sin;
#X connect 0 0 3 0;
#X connect 1 0 3 1;
#X connect 3 0 6 0;
#X connect 4 0 5 1;
#X connect 5 0 9 0;
#X connect 6 0 5 0;
#X connect 6 1 4 0;
#X connect 9 0 2 0;
#X restore 37 209 pd rndish;
#X obj 17 269 outlet;
#X obj 144 -81 inlet;
#X obj 267 122 sqrt;
#X msg 267 98 5;
#X obj 345 123 sqrt;
#X msg 345 99 7;
#X obj 180 131 sqrt;
#X msg 180 107 3;
#X obj 108 133 sqrt;
#X msg 108 109 2;
#X obj 373 -63 loadbang;
#X obj 109 160 * 100;
#X obj 180 158 * 100;
#N canvas 5 86 450 300 rndish 0;
#X obj 72 42 inlet;
#X obj 135 42 inlet;
#X obj 105 277 outlet;
#X obj 101 80 *;
#X obj 131 164 sqrt;
#X obj 108 197 +;
#X obj 111 114 t f f;
#X text 150 17 irrational nr/seed;
#X text 77 15 sp;
#X obj 108 235 sin;
#X connect 0 0 3 0;
#X connect 1 0 3 1;
#X connect 3 0 6 0;
#X connect 4 0 5 1;
#X connect 5 0 9 0;
#X connect 6 0 5 0;
#X connect 6 1 4 0;
#X connect 9 0 2 0;
#X restore 142 206 pd rndish;
#X obj 141 267 outlet;
#X text 194 -77 sp;
#N canvas 5 86 450 300 rndish 0;
#X obj 72 42 inlet;
#X obj 135 42 inlet;
#X obj 105 277 outlet;
#X obj 101 80 *;
#X obj 131 164 sqrt;
#X obj 108 197 +;
#X obj 111 114 t f f;
#X text 150 17 irrational nr/seed;
#X text 77 15 sp;
#X obj 108 235 sin;
#X connect 0 0 3 0;
#X connect 1 0 3 1;
#X connect 3 0 6 0;
#X connect 4 0 5 1;
#X connect 5 0 9 0;
#X connect 6 0 5 0;
#X connect 6 1 4 0;
#X connect 9 0 2 0;
#X restore 231 205 pd rndish;
#X obj 264 152 * 100;
#X obj 346 154 * 100;
#N canvas 5 86 450 300 rndish 0;
#X obj 72 42 inlet;
#X obj 135 42 inlet;
#X obj 105 277 outlet;
#X obj 101 80 *;
#X obj 131 164 sqrt;
#X obj 108 197 +;
#X obj 111 114 t f f;
#X text 150 17 irrational nr/seed;
#X text 77 15 sp;
#X obj 108 235 sin;
#X connect 0 0 3 0;
#X connect 1 0 3 1;
#X connect 3 0 6 0;
#X connect 4 0 5 1;
#X connect 5 0 9 0;
#X connect 6 0 5 0;
#X connect 6 1 4 0;
#X connect 9 0 2 0;
#X restore 327 212 pd rndish;
#X obj 240 272 outlet;
#X obj 334 270 outlet;
#X connect 0 0 1 0;
#X connect 2 0 0 0;
#X connect 2 0 14 0;
#X connect 2 0 17 0;
#X connect 2 0 20 0;
#X connect 3 0 18 0;
#X connect 4 0 3 0;
#X connect 5 0 19 0;
#X connect 6 0 5 0;
#X connect 7 0 13 0;
#X connect 8 0 7 0;
#X connect 9 0 12 0;
#X connect 10 0 9 0;
#X connect 11 0 10 0;
#X connect 11 0 8 0;
#X connect 11 0 4 0;
#X connect 11 0 6 0;
#X connect 12 0 0 1;
#X connect 13 0 14 1;
#X connect 14 0 15 0;
#X connect 17 0 21 0;
#X connect 18 0 17 1;
#X connect 19 0 20 1;
#X connect 20 0 22 0;
#X restore 132 437 pd 4random;
#N canvas 648 469 991 480 4random 0;
#N canvas 6 90 450 300 rndish 0;
#X obj 72 42 inlet;
#X obj 135 42 inlet;
#X obj 105 277 outlet;
#X obj 101 80 *;
#X obj 131 164 sqrt;
#X obj 108 197 +;
#X obj 111 114 t f f;
#X text 150 17 irrational nr/seed;
#X text 77 15 sp;
#X obj 108 235 sin;
#X connect 0 0 3 0;
#X connect 1 0 3 1;
#X connect 3 0 6 0;
#X connect 4 0 5 1;
#X connect 5 0 9 0;
#X connect 6 0 5 0;
#X connect 6 1 4 0;
#X connect 9 0 2 0;
#X restore 37 209 pd rndish;
#X obj 17 269 outlet;
#X obj 144 -81 inlet;
#X obj 267 122 sqrt;
#X msg 267 98 5;
#X obj 345 123 sqrt;
#X msg 345 99 7;
#X obj 180 131 sqrt;
#X msg 180 107 3;
#X obj 108 133 sqrt;
#X msg 108 109 2;
#X obj 373 -63 loadbang;
#X obj 109 160 * 100;
#X obj 180 158 * 100;
#N canvas 5 86 450 300 rndish 0;
#X obj 72 42 inlet;
#X obj 135 42 inlet;
#X obj 105 277 outlet;
#X obj 101 80 *;
#X obj 131 164 sqrt;
#X obj 108 197 +;
#X obj 111 114 t f f;
#X text 150 17 irrational nr/seed;
#X text 77 15 sp;
#X obj 108 235 sin;
#X connect 0 0 3 0;
#X connect 1 0 3 1;
#X connect 3 0 6 0;
#X connect 4 0 5 1;
#X connect 5 0 9 0;
#X connect 6 0 5 0;
#X connect 6 1 4 0;
#X connect 9 0 2 0;
#X restore 142 206 pd rndish;
#X obj 141 267 outlet;
#X text 194 -77 sp;
#N canvas 5 86 450 300 rndish 0;
#X obj 72 42 inlet;
#X obj 135 42 inlet;
#X obj 105 277 outlet;
#X obj 101 80 *;
#X obj 131 164 sqrt;
#X obj 108 197 +;
#X obj 111 114 t f f;
#X text 150 17 irrational nr/seed;
#X text 77 15 sp;
#X obj 108 235 sin;
#X connect 0 0 3 0;
#X connect 1 0 3 1;
#X connect 3 0 6 0;
#X connect 4 0 5 1;
#X connect 5 0 9 0;
#X connect 6 0 5 0;
#X connect 6 1 4 0;
#X connect 9 0 2 0;
#X restore 231 205 pd rndish;
#X obj 264 152 * 100;
#X obj 346 154 * 100;
#N canvas 5 86 450 300 rndish 0;
#X obj 72 42 inlet;
#X obj 135 42 inlet;
#X obj 105 277 outlet;
#X obj 101 80 *;
#X obj 131 164 sqrt;
#X obj 108 197 +;
#X obj 111 114 t f f;
#X text 150 17 irrational nr/seed;
#X text 77 15 sp;
#X obj 108 235 sin;
#X connect 0 0 3 0;
#X connect 1 0 3 1;
#X connect 3 0 6 0;
#X connect 4 0 5 1;
#X connect 5 0 9 0;
#X connect 6 0 5 0;
#X connect 6 1 4 0;
#X connect 9 0 2 0;
#X restore 327 212 pd rndish;
#X obj 240 272 outlet;
#X obj 334 270 outlet;
#X connect 0 0 1 0;
#X connect 2 0 0 0;
#X connect 2 0 14 0;
#X connect 2 0 17 0;
#X connect 2 0 20 0;
#X connect 3 0 18 0;
#X connect 4 0 3 0;
#X connect 5 0 19 0;
#X connect 6 0 5 0;
#X connect 7 0 13 0;
#X connect 8 0 7 0;
#X connect 9 0 12 0;
#X connect 10 0 9 0;
#X connect 11 0 10 0;
#X connect 11 0 8 0;
#X connect 11 0 4 0;
#X connect 11 0 6 0;
#X connect 12 0 0 1;
#X connect 13 0 14 1;
#X connect 14 0 15 0;
#X connect 17 0 21 0;
#X connect 18 0 17 1;
#X connect 19 0 20 1;
#X connect 20 0 22 0;
#X restore 252 445 pd 4random;
#X text 346 132 randomloopgenerator \, like madloop \, but with a different
synthesis-method (resonator based);
#X obj 276 135 vsl 8 48 1 0 0 1 empty empty empty 0 -9 0 10 -262144
-1 -1 4700 1;
#X obj -3 579 abs_randrezresonator1;
#X obj 158 588 abs_randrezresonator1;
#X connect 0 0 13 0;
#X connect 2 0 16 0;
#X connect 3 0 6 0;
#X connect 4 0 6 1;
#X connect 4 0 9 1;
#X connect 4 0 12 1;
#X connect 5 0 3 1;
#X connect 6 0 31 0;
#X connect 7 0 9 0;
#X connect 8 0 7 1;
#X connect 9 0 32 0;
#X connect 10 0 12 0;
#X connect 11 0 10 1;
#X connect 12 0 33 0;
#X connect 13 0 23 0;
#X connect 14 0 36 6;
#X connect 14 0 37 6;
#X connect 15 0 28 1;
#X connect 15 0 29 0;
#X connect 16 0 17 0;
#X connect 16 0 28 0;
#X connect 17 0 3 0;
#X connect 17 0 7 0;
#X connect 17 0 10 0;
#X connect 18 0 19 0;
#X connect 19 0 25 0;
#X connect 20 0 21 1;
#X connect 20 0 21 0;
#X connect 21 0 22 1;
#X connect 22 0 1 0;
#X connect 23 0 22 0;
#X connect 24 0 26 0;
#X connect 25 0 17 1;
#X connect 26 0 25 0;
#X connect 26 1 25 1;
#X connect 28 0 27 0;
#X connect 29 0 18 0;
#X connect 29 1 19 1;
#X connect 29 1 16 1;
#X connect 31 0 36 0;
#X connect 31 1 36 1;
#X connect 31 2 36 4;
#X connect 31 3 36 5;
#X connect 32 0 36 2;
#X connect 32 1 36 3;
#X connect 32 2 37 0;
#X connect 32 3 37 1;
#X connect 33 0 37 2;
#X connect 33 1 37 3;
#X connect 33 2 37 4;
#X connect 33 3 37 5;
#X connect 35 0 36 7;
#X connect 35 0 37 7;
#X connect 36 0 0 0;
#X connect 37 0 0 1;
#X coords 0 -1 1 1 230 90 1 100 100;
#X restore -90 -66 pd randrezloop1;
#X text 158 -45 randomloopgenerator \, like madloop \, but with a different
synthesis-method (resonator based);
#X obj -91 131 abs_stereochorus1;
#N canvas 218 81 1184 711 songpos96-16 0;
#X obj 318 440 + 1;
#X obj 267 436 float;
#X msg 206 296 1;
#X obj 218 321 /;
#X obj 209 273 t f f;
#X obj 228 344 * 15000;
#X obj 339 355 t b f;
#X obj 263 405 metro 125;
#X msg 340 329 -2;
#X obj 172 17 loadbang;
#X floatatom 126 113 5 30 300 0 bpm - -;
#X msg -2 85 set \$1;
#X msg 5 139 110;
#X obj 174 112 bng 15 250 50 0 empty empty empty 6 7 0 10 -261234 -1
-1;
#X obj 278 636 outlet;
#X obj 570 496 outlet;
#X text 618 497 bpm->;
#X obj 200 112 bng 15 50 20 0 empty empty empty 6 7 0 10 -204786 -1
-1;
#X obj 208 225 float;
#X obj 435 539 outlet;
#X text 144 343 1/16 in ms;
#X text 485 540 pos96->;
#X obj 259 373 / 6;
#X text 219 371 1/96;
#X obj 280 481 / 6;
#X obj 280 505 int;
#X obj 279 530 change;
#X obj 600 64 + 1;
#X obj 602 29 float;
#X obj 600 96 moses 2;
#X obj 600 155 timer;
#X obj 600 123 t b;
#X obj 648 122 t b b;
#X obj 653 243 /;
#X msg 623 221 60000;
#X obj 618 183 t b f;
#X obj 656 268 moses 10;
#X text 500 72 beatcounter;
#X obj 772 358 float;
#X obj 769 401 + 1;
#X obj 688 426 +;
#X obj 729 396 *;
#X obj 705 328 t f b;
#X obj 698 464 /;
#X msg 884 211 0;
#X text 499 302 mean (as seen on idafx blog);
#X obj 864 324 t f f;
#X obj 921 503 moses 0.1;
#X text 880 303 reset;
#X obj 870 366 /;
#X obj 849 431 < 0.75;
#X obj 903 435 > 1.25;
#X obj 869 391 t f f;
#X obj 877 471 ||;
#X obj 174 54 t b b b;
#X obj 43 -7 inlet;
#X obj 107 -11 inlet;
#X text 329 637 pos16->;
#X text 46 14 sync;
#X text 111 10 tap;
#X connect 0 0 1 1;
#X connect 0 0 24 0;
#X connect 0 0 19 0;
#X connect 1 0 0 0;
#X connect 2 0 3 0;
#X connect 3 0 5 0;
#X connect 4 0 2 0;
#X connect 4 1 3 1;
#X connect 5 0 22 0;
#X connect 6 0 7 0;
#X connect 6 1 1 0;
#X connect 7 0 1 0;
#X connect 8 0 6 0;
#X connect 9 0 54 0;
#X connect 10 0 11 0;
#X connect 10 0 18 1;
#X connect 11 0 12 0;
#X connect 12 0 10 0;
#X connect 13 0 8 0;
#X connect 13 0 18 0;
#X connect 17 0 28 0;
#X connect 18 0 4 0;
#X connect 18 0 15 0;
#X connect 22 0 7 1;
#X connect 24 0 25 0;
#X connect 25 0 26 0;
#X connect 26 0 14 0;
#X connect 27 0 28 1;
#X connect 27 0 29 0;
#X connect 28 0 27 0;
#X connect 29 0 31 0;
#X connect 29 1 32 0;
#X connect 30 0 35 0;
#X connect 30 0 46 0;
#X connect 31 0 30 0;
#X connect 32 0 30 0;
#X connect 32 1 30 1;
#X connect 33 0 36 0;
#X connect 34 0 33 0;
#X connect 35 0 34 0;
#X connect 35 1 33 1;
#X connect 36 1 42 0;
#X connect 38 0 39 0;
#X connect 38 0 41 0;
#X connect 39 0 38 1;
#X connect 39 0 43 1;
#X connect 40 0 43 0;
#X connect 41 0 40 1;
#X connect 42 0 40 0;
#X connect 42 1 38 0;
#X connect 43 0 41 1;
#X connect 43 0 10 0;
#X connect 44 0 38 1;
#X connect 44 0 28 1;
#X connect 46 0 49 1;
#X connect 46 1 49 0;
#X connect 47 1 44 0;
#X connect 49 0 52 0;
#X connect 50 0 53 0;
#X connect 51 0 53 1;
#X connect 52 0 50 0;
#X connect 52 1 51 0;
#X connect 53 0 47 0;
#X connect 54 0 13 0;
#X connect 54 1 13 0;
#X connect 54 2 12 0;
#X connect 55 0 13 0;
#X connect 56 0 17 0;
#X coords 0 -1 1 1 120 30 1 100 100;
#X restore -96 -121 pd songpos96-16;
#X connect 1 0 3 0;
#X connect 3 0 0 0;
#X connect 3 1 0 1;
#X connect 4 0 1 0;
