#N canvas 183 262 450 300 10;
#N canvas 466 232 839 714 resonator1 0;
#X obj 130 384 inlet~;
#X obj 230 555 outlet~;
#X obj 117 126 hsl 96 8 0.6 0.999 1 1 empty empty fb -15 4 0 8 -262144
-1 -1 9100 1;
#X obj 117 114 hsl 96 8 75 127 1 1 empty empty dp -15 4 0 8 -262144
-1 -1 5600 1;
#X obj 200 421 mtof;
#X obj 315 376 mtof;
#X msg 266 371 1000;
#X obj 287 411 /;
#X obj 334 67 inlet;
#X obj 221 125 tgl 10 1 empty empty md 0 -6 0 8 -262144 -1 -1 0 2;
#X obj 234 218 - 1;
#X obj 202 289 *;
#X obj 170 247 float;
#X obj 188 194 t b f;
#X obj 386 141 - 63;
#X obj 387 164 / 64;
#X obj 283 230 t b f;
#X obj 302 445 +;
#X obj 388 186 - 1;
#X obj 387 209 abs;
#X obj 321 344 float;
#X obj 341 302 t b b f;
#X obj 384 238 *;
#X obj 378 261 * -0.2;
#X obj 231 494 abs_rezdelayline1;
#X text 92 31 resonator;
#X connect 0 0 24 0;
#X connect 2 0 12 0;
#X connect 3 0 4 0;
#X connect 3 0 14 0;
#X connect 4 0 24 3;
#X connect 5 0 7 1;
#X connect 6 0 7 0;
#X connect 7 0 17 0;
#X connect 8 0 16 0;
#X connect 9 0 13 0;
#X connect 10 0 11 1;
#X connect 11 0 24 1;
#X connect 12 0 11 0;
#X connect 13 0 12 0;
#X connect 13 1 10 0;
#X connect 14 0 15 0;
#X connect 15 0 18 0;
#X connect 16 0 6 0;
#X connect 16 1 20 0;
#X connect 17 0 24 2;
#X connect 18 0 19 0;
#X connect 19 0 22 1;
#X connect 19 0 22 0;
#X connect 20 0 5 0;
#X connect 21 0 6 0;
#X connect 21 1 20 0;
#X connect 21 2 17 1;
#X connect 22 0 23 0;
#X connect 23 0 21 0;
#X connect 24 0 1 0;
#X coords 0 -1 1 1 140 40 1 100 100;
#X restore 84 112 pd resonator1;
#X floatatom 221 47 5 0 0 0 - - -;
#X obj 98 -32 notein;
#X obj 80 6 / 128;
#N canvas 556 439 450 300 click 0;
#X obj 29 43 inlet;
#X obj 26 263 outlet~;
#X obj 103 114 nbx 4 14 1 999 0 1 empty empty empty 0 -8 0 10 -262144
-1 -1 93 256;
#X obj 30 225 vline~;
#X msg 33 200 \$1 0 \, \$2 0 \, 0 \$3;
#X obj 32 172 pack -1 1 f;
#X obj 102 141 / 100;
#X obj 27 92 t f f;
#X obj 34 127 * -1;
#X connect 0 0 7 0;
#X connect 2 0 6 0;
#X connect 3 0 1 0;
#X connect 4 0 3 0;
#X connect 5 0 4 0;
#X connect 6 0 5 2;
#X connect 7 0 8 0;
#X connect 7 1 5 1;
#X connect 8 0 5 0;
#X coords 0 -1 1 1 50 30 1 100 100;
#X restore 81 47 pd click;
#X obj 84 170 *~ 0.5;
#X obj 79 212 dac~;
#X connect 0 0 5 0;
#X connect 1 0 0 1;
#X connect 2 0 1 0;
#X connect 2 1 3 0;
#X connect 3 0 4 0;
#X connect 4 0 0 0;
#X connect 5 0 6 0;
#X connect 5 0 6 1;
