#N canvas 234 202 733 623 10;
#X obj -139 318 dac~;
#N canvas 224 46 961 852 16counter 0;
#X obj 318 440 + 1;
#X obj 267 436 float;
#X obj 272 622 mod 2;
#X obj 210 672 delay 0;
#X obj 260 651 *;
#X msg 206 296 1;
#X obj 218 321 /;
#X obj 209 273 t f f;
#X obj 228 344 * 15000;
#X obj 339 355 t b f;
#X obj 263 405 metro 125;
#X obj 182 578 *;
#X obj 268 596 t b f f;
#X obj 136 130 hsl 80 8 0 0.4 0 1 empty empty swing -33 4 0 10 -262144
-1 -1 0 1;
#X msg 340 329 -2;
#X obj 251 700 int;
#X obj 172 17 loadbang;
#X floatatom 126 113 5 30 300 0 bpm - -;
#X msg -2 85 set \$1;
#X msg 5 139 100;
#X obj 174 112 bng 15 250 50 0 empty empty empty 6 7 0 10 -261234 -1
-1;
#X obj 253 737 outlet;
#X obj 570 496 outlet;
#X text 618 497 bpm->;
#X obj 200 112 bng 15 50 20 0 empty empty empty 6 7 0 10 -204786 -1
-1;
#X obj 208 225 float;
#X obj 435 539 outlet;
#X text 144 343 1/16 in ms;
#X text 485 540 pos96->;
#X text 178 628 swing;
#X obj 259 373 / 6;
#X text 219 371 1/96;
#X obj 343 481 / 6;
#X obj 343 505 int;
#X obj 342 530 change;
#X text 304 738 pos16swing->;
#X obj 600 64 + 1;
#X obj 602 29 float;
#X obj 600 96 moses 2;
#X obj 600 155 timer;
#X obj 600 123 t b;
#X obj 648 122 t b b;
#X obj 653 243 /;
#X msg 623 221 60000;
#X obj 618 183 t b f;
#X obj 656 268 moses 10;
#X text 500 72 beatcounter;
#X obj 772 358 float;
#X obj 769 401 + 1;
#X obj 688 426 +;
#X obj 729 396 *;
#X obj 705 328 t f b;
#X obj 698 464 /;
#X msg 884 211 0;
#X text 499 302 mean (as seen on idafx blog);
#X obj 906 259 bng 15 250 50 0 empty empty empty 17 7 0 10 -262144
-1 -1;
#X obj 864 324 t f f;
#X obj 921 503 moses 0.1;
#X text 880 303 reset;
#X obj 870 366 /;
#X obj 849 431 < 0.75;
#X obj 903 435 > 1.25;
#X obj 869 391 t f f;
#X obj 877 471 ||;
#X obj 174 54 t b b b;
#X obj 43 -7 inlet;
#X obj 107 -11 inlet;
#X connect 0 0 1 1;
#X connect 0 0 32 0;
#X connect 0 0 26 0;
#X connect 1 0 0 0;
#X connect 2 0 4 0;
#X connect 3 0 15 0;
#X connect 4 0 3 1;
#X connect 5 0 6 0;
#X connect 6 0 8 0;
#X connect 7 0 5 0;
#X connect 7 1 6 1;
#X connect 8 0 11 1;
#X connect 8 0 30 0;
#X connect 9 0 10 0;
#X connect 9 1 1 0;
#X connect 10 0 1 0;
#X connect 11 0 4 1;
#X connect 12 0 3 0;
#X connect 12 1 2 0;
#X connect 12 2 15 1;
#X connect 13 0 11 0;
#X connect 14 0 9 0;
#X connect 15 0 21 0;
#X connect 16 0 64 0;
#X connect 17 0 18 0;
#X connect 17 0 25 1;
#X connect 18 0 19 0;
#X connect 19 0 17 0;
#X connect 20 0 14 0;
#X connect 20 0 25 0;
#X connect 24 0 37 0;
#X connect 25 0 7 0;
#X connect 25 0 22 0;
#X connect 30 0 10 1;
#X connect 32 0 33 0;
#X connect 33 0 34 0;
#X connect 34 0 12 0;
#X connect 36 0 37 1;
#X connect 36 0 38 0;
#X connect 37 0 36 0;
#X connect 38 0 40 0;
#X connect 38 1 41 0;
#X connect 39 0 44 0;
#X connect 39 0 56 0;
#X connect 40 0 39 0;
#X connect 41 0 39 0;
#X connect 41 1 39 1;
#X connect 42 0 45 0;
#X connect 43 0 42 0;
#X connect 44 0 43 0;
#X connect 44 1 42 1;
#X connect 45 1 51 0;
#X connect 47 0 48 0;
#X connect 47 0 50 0;
#X connect 48 0 47 1;
#X connect 48 0 52 1;
#X connect 49 0 52 0;
#X connect 50 0 49 1;
#X connect 51 0 49 0;
#X connect 51 1 47 0;
#X connect 52 0 50 1;
#X connect 52 0 17 0;
#X connect 53 0 47 1;
#X connect 53 0 37 1;
#X connect 53 0 55 0;
#X connect 56 0 59 1;
#X connect 56 1 59 0;
#X connect 57 1 53 0;
#X connect 59 0 62 0;
#X connect 60 0 63 0;
#X connect 61 0 63 1;
#X connect 62 0 60 0;
#X connect 62 1 61 0;
#X connect 63 0 57 0;
#X connect 64 0 20 0;
#X connect 64 1 20 0;
#X connect 64 2 19 0;
#X connect 65 0 20 0;
#X connect 66 0 24 0;
#X coords 0 -1 1 1 120 40 1 100 100;
#X restore -124 -41 pd 16counter;
#N canvas 375 125 1409 926 rksubnoiseloop1 0;
#X obj 55 1036 clip~ -1 1;
#X obj 23 338 vsl 15 64 0 1 0 1 empty empty empty 0 -9 0 10 -262144
-1 -1 686 1;
#X obj 43 338 vsl 15 64 0 1 0 1 empty empty empty 0 -9 0 10 -262144
-1 -1 503 1;
#X obj 60 338 vsl 15 64 0 1 0 1 empty empty empty 0 -9 0 10 -262144
-1 -1 36 1;
#X obj 77 338 vsl 15 64 0 1 0 1 empty empty empty 0 -9 0 10 -262144
-1 -1 201 1;
#X obj 94 338 vsl 15 64 0 1 0 1 empty empty empty 0 -9 0 10 -262144
-1 -1 295 1;
#X obj 111 338 vsl 15 64 0 1 0 1 empty empty empty 0 -9 0 10 -262144
-1 -1 467 1;
#X obj 128 338 vsl 15 64 0 1 0 1 empty empty empty 0 -9 0 10 -262144
-1 -1 461 1;
#X obj 6 338 vsl 15 64 0 1 0 1 empty empty empty 0 -9 0 10 -262144
-1 -1 3200 1;
#X obj 145 338 vsl 15 64 0 1 0 1 empty empty empty 0 -9 0 10 -262144
-1 -1 639 1;
#X obj 162 338 vsl 15 64 0 1 0 1 empty empty empty 0 -9 0 10 -262144
-1 -1 865 1;
#X obj 408 854 table \$0sctable1 515;
#N canvas 547 196 1081 773 cycle2table 0;
#X obj 42 15 inlet~;
#X obj 56 108 tabwrite~ \$0temptable;
#X obj 55 131 table \$0temptable 1024;
#X obj 353 46 until;
#X obj 353 74 f;
#X obj 384 76 + 1;
#X obj 392 173 tabread \$0temptable;
#X obj 356 99 mod 1023;
#X msg 352 22 1023;
#X obj 460 197 tabread \$0temptable;
#X obj 426 151 + 1;
#X obj 423 219 *;
#X obj 423 240 < 0;
#X obj 340 389 int;
#X obj 361 362 spigot;
#X obj 368 128 t f f f;
#X obj 425 418 int;
#X obj 197 500 until;
#X obj 197 528 f;
#X obj 228 530 + 1;
#X obj 250 277 t b b b;
#X obj 348 452 -;
#X obj 258 631 +;
#X obj 227 608 *;
#X obj 215 577 t f f;
#X obj 258 660 tabread4 \$0temptable;
#X obj 300 548 / 512;
#X obj 401 341 &&;
#X obj 428 323 == 0;
#X obj 451 386 spigot;
#X obj 493 359 &&;
#X obj 481 293 f;
#X obj 512 295 + 1;
#X msg 613 71 0;
#X obj 210 -40 t b b b b;
#X obj 480 232 moses 0.1;
#X obj 431 263 t f f;
#X obj 538 256 t b;
#X obj 230 551 mod 515;
#X msg 197 477 515;
#X obj 210 -63 inlet;
#X text 112 454 fill the singlecycletable;
#X text 269 -61 bang for getting a cycle;
#X obj 255 712 tabwrite \$0sctable1;
#X floatatom 434 473 5 0 0 0 - - -;
#X floatatom 369 505 5 0 0 0 - - -;
#X obj 512 334 == 2;
#X text 418 74 get 1st and 3rd 0-xing;
#X text 391 15 1024 samples should be enough for nice cycles;
#X connect 0 0 1 0;
#X connect 3 0 4 0;
#X connect 4 0 5 0;
#X connect 5 0 7 0;
#X connect 6 0 11 0;
#X connect 7 0 4 1;
#X connect 7 0 15 0;
#X connect 8 0 3 0;
#X connect 9 0 11 1;
#X connect 10 0 9 0;
#X connect 11 0 12 0;
#X connect 12 0 36 0;
#X connect 13 0 21 0;
#X connect 13 0 45 0;
#X connect 14 0 13 1;
#X connect 15 0 14 0;
#X connect 15 0 29 0;
#X connect 15 1 6 0;
#X connect 15 2 10 0;
#X connect 16 0 21 1;
#X connect 16 0 22 1;
#X connect 16 0 44 0;
#X connect 17 0 18 0;
#X connect 18 0 19 0;
#X connect 19 0 38 0;
#X connect 20 0 39 0;
#X connect 20 1 13 0;
#X connect 20 2 16 0;
#X connect 21 0 26 0;
#X connect 22 0 25 0;
#X connect 23 0 22 0;
#X connect 24 0 23 0;
#X connect 24 1 43 1;
#X connect 25 0 43 0;
#X connect 26 0 23 1;
#X connect 27 0 14 1;
#X connect 28 0 27 1;
#X connect 29 0 16 1;
#X connect 30 0 29 1;
#X connect 31 0 32 0;
#X connect 31 0 28 0;
#X connect 31 0 46 0;
#X connect 32 0 31 1;
#X connect 33 0 31 0;
#X connect 34 0 1 0;
#X connect 34 1 20 0;
#X connect 34 2 8 0;
#X connect 34 3 33 0;
#X connect 35 1 37 0;
#X connect 36 0 35 0;
#X connect 36 1 27 0;
#X connect 36 1 30 0;
#X connect 37 0 31 0;
#X connect 38 0 18 1;
#X connect 38 0 24 0;
#X connect 39 0 17 0;
#X connect 40 0 34 0;
#X connect 46 0 30 1;
#X restore 322 884 pd cycle2table;
#X obj -173 436 +;
#X obj -153 473 +;
#X obj -92 463 +;
#X obj -37 462 +;
#X obj 23 474 +;
#X obj 90 502 +;
#X obj 125 473 +;
#X obj -125 403 +;
#X obj 189 489 +;
#X obj 225 454 +;
#X obj 400 701 tabread \$0sctable1;
#X obj 427 404 until;
#X obj 427 432 f;
#X obj 465 433 + 1;
#X obj 410 655 +;
#X msg 361 294 bang;
#X obj 390 754 pack f f;
#X obj 393 580 t f f;
#X obj 446 731 * 1;
#X obj 408 679 mod 512;
#X obj 507 430 f;
#X obj 545 431 + 1;
#X obj 537 453 mod 512;
#X obj 179 338 vsl 15 64 0 1 0 1 empty empty empty 0 -9 0 10 -262144
-1 -1 599 1;
#X obj 294 492 +;
#X obj -299 701 line;
#X obj -299 679 pack f f;
#X obj 111 682 line;
#X obj 111 660 pack f f;
#X obj -156 685 line;
#X obj -156 663 pack f f;
#X obj -105 737 line;
#X obj -105 715 pack f f;
#X obj -215 639 line;
#X obj -212 619 pack f f;
#X obj 180 692 line;
#X obj 180 670 pack f f;
#X obj -69 676 line;
#X obj -69 654 pack f f;
#X obj -28 707 line;
#X obj -28 685 pack f f;
#X obj 9 732 line;
#X obj 9 710 pack f f;
#X obj 147 129 vsl 15 64 0 1 0 1 empty empty wamt 0 -9 0 10 -262144
-1 -1 2400 1;
#X obj 48 772 line;
#X obj 49 752 pack f f;
#X obj 146 782 line;
#X obj 146 760 pack f f;
#X obj -82 974 tabosc4~ \$0sctable1;
#X obj -113 909 mtof;
#X obj -92 948 +~;
#X obj -13 909 *~;
#X obj -119 871 + 12;
#X obj -36 1015 *~ 0.5;
#X obj 196 337 vsl 15 64 0 1 0 1 empty empty empty 0 -9 0 10 -262144
-1 -1 780 1;
#X obj 267 416 +;
#X obj 172 844 line;
#X obj 174 822 pack f f;
#X obj 160 873 * 3000;
#X obj 355 339 t b b b;
#X msg 503 796 \; \$1sctable1 normalize;
#X obj 501 775 \$0;
#N canvas 324 239 1146 810 subtractive_2osc_fm_synth 0;
#X obj -123 16 inlet;
#N canvas 4 82 821 537 sawpulseosc1 0;
#X obj 98 18 phasor~;
#X obj 160 127 wrap~;
#X obj 160 103 +~;
#X obj 120 207 -~;
#X obj 168 161 *~;
#X obj 136 241 +~;
#X obj 133 369 outlet~;
#X obj 94 -10 inlet~;
#X obj 205 7 inlet~;
#X obj 205 190 *~;
#X obj 369 5 inlet~;
#X obj 367 30 clip~ 0 1;
#X text 107 -36 freq;
#X text 212 -15 pw;
#X obj 136 273 -~ 0.5;
#X obj 152 310 *~ 2;
#X obj 203 33 clip~ 0.01 0.99;
#X text 372 -17 saw/pulse;
#X connect 0 0 3 0;
#X connect 0 0 2 0;
#X connect 1 0 4 0;
#X connect 2 0 1 0;
#X connect 3 0 5 0;
#X connect 4 0 3 1;
#X connect 5 0 14 0;
#X connect 7 0 0 0;
#X connect 8 0 16 0;
#X connect 9 0 5 1;
#X connect 10 0 11 0;
#X connect 11 0 9 1;
#X connect 11 0 4 1;
#X connect 14 0 15 0;
#X connect 15 0 6 0;
#X connect 16 0 2 1;
#X connect 16 0 9 0;
#X restore 139 381 pd sawpulseosc1;
#X obj -66 444 mtof;
#X obj 223 241 - 50;
#X obj 220 263 clip 0 100;
#X obj 222 296 / 100;
#N canvas 0 0 821 537 sawpulseosc1 0;
#X obj 98 18 phasor~;
#X obj 160 127 wrap~;
#X obj 160 103 +~;
#X obj 120 207 -~;
#X obj 168 161 *~;
#X obj 136 241 +~;
#X obj 133 369 outlet~;
#X obj 94 -10 inlet~;
#X obj 205 7 inlet~;
#X obj 205 190 *~;
#X obj 369 5 inlet~;
#X obj 367 30 clip~ 0 1;
#X text 107 -36 freq;
#X text 212 -15 pw;
#X obj 136 273 -~ 0.5;
#X obj 152 310 *~ 2;
#X obj 203 33 clip~ 0.01 0.99;
#X text 372 -17 saw/pulse;
#X connect 0 0 3 0;
#X connect 0 0 2 0;
#X connect 1 0 4 0;
#X connect 2 0 1 0;
#X connect 3 0 5 0;
#X connect 4 0 3 1;
#X connect 5 0 14 0;
#X connect 7 0 0 0;
#X connect 8 0 16 0;
#X connect 9 0 5 1;
#X connect 10 0 11 0;
#X connect 11 0 9 1;
#X connect 11 0 4 1;
#X connect 14 0 15 0;
#X connect 15 0 6 0;
#X connect 16 0 2 1;
#X connect 16 0 9 0;
#X restore 459 412 pd sawpulseosc1;
#X obj 380 344 mtof;
#X obj 615 260 - 50;
#X obj 612 282 clip 0 100;
#X obj 614 315 / 100;
#X obj 441 369 +~;
#X obj 288 410 *~;
#X obj 428 607 +~;
#X obj 454 555 *~;
#X obj 382 553 *~;
#X obj 371 498 * -1;
#X obj 377 530 + 1;
#X obj 429 658 vcf~ 5;
#X obj 507 562 mtof;
#X obj 577 594 / 10;
#X obj 571 616 + 1;
#X obj -122 142 sqrt;
#X obj -122 118 / 1000;
#X obj -122 95 + 1;
#X obj -121 166 * 128;
#X obj -21 49 sqrt;
#X obj -21 25 / 1000;
#X obj -21 2 + 1;
#X obj -20 73 * 128;
#X obj 366 436 / 200;
#X obj 386 462 + 0.25;
#X obj 523 246 / 200;
#X obj 160 299 / 200;
#X obj 512 535 + 40;
#X obj 427 716 outlet~;
#X obj -121 71 * 999;
#X obj 223 220 * 200;
#X obj 90 41 inlet;
#X obj 152 260 * 100;
#X obj 148 41 inlet;
#X obj 203 27 inlet;
#X obj 307 372 * 3000;
#X obj 365 411 * 100;
#X obj 256 41 inlet;
#X obj 311 42 inlet;
#X obj 368 42 inlet;
#X obj -17 -55 inlet;
#X obj 514 509 * 80;
#X obj 575 567 * 90;
#X obj -21 -23 * 999;
#X obj 479 42 inlet;
#X obj 530 42 inlet;
#X obj 523 210 * 100;
#X obj 615 239 * 200;
#X obj 122 505 *;
#X obj 124 467 t b f;
#X obj 122 526 mod 12;
#X obj 127 634 osc~;
#X text 183 549 subosc;
#X obj 170 635 osc~;
#X obj 118 607 mtof;
#X obj 179 600 mtof;
#X obj 134 579 -;
#X obj 178 579 +;
#X obj 764 56 inlet;
#X obj 763 84 * 100;
#X obj 766 121 / 400;
#X obj 125 549 + 24;
#X obj 135 663 *~ 0.25;
#X obj 62 742 outlet;
#X obj -119 193 float;
#X obj -19 100 float;
#X obj -354 130 inlet;
#X obj -305 130 inlet;
#X obj -339 218 -;
#X obj -322 186 t b f;
#X text -347 105 pmax/min;
#X obj -166 389 +;
#X obj -156 342 +;
#X obj -117 267 int;
#X obj -137 311 -;
#X obj -177 237 t f f f;
#X obj -186 279 mod;
#X obj -12 282 +;
#X obj -13 251 +;
#X obj 26 176 int;
#X obj 6 220 -;
#X obj -34 146 t f f f;
#X obj -43 188 mod;
#X obj -8 452 div 12;
#X obj 37 521 max 24;
#X obj -6 478 * 12;
#X obj 9 500 - 12;
#X connect 0 0 36 0;
#X connect 1 0 12 0;
#X connect 1 0 15 1;
#X connect 2 0 1 0;
#X connect 3 0 4 0;
#X connect 4 0 5 0;
#X connect 5 0 1 2;
#X connect 6 0 14 1;
#X connect 7 0 11 1;
#X connect 8 0 9 0;
#X connect 9 0 10 0;
#X connect 10 0 6 2;
#X connect 11 0 6 0;
#X connect 12 0 11 0;
#X connect 13 0 18 0;
#X connect 14 0 13 1;
#X connect 15 0 13 0;
#X connect 16 0 17 0;
#X connect 17 0 15 0;
#X connect 18 0 35 0;
#X connect 19 0 18 1;
#X connect 20 0 21 0;
#X connect 21 0 18 2;
#X connect 22 0 25 0;
#X connect 23 0 22 0;
#X connect 24 0 23 0;
#X connect 25 0 71 0;
#X connect 26 0 29 0;
#X connect 27 0 26 0;
#X connect 28 0 27 0;
#X connect 29 0 72 0;
#X connect 30 0 31 0;
#X connect 31 0 16 0;
#X connect 31 0 14 0;
#X connect 32 0 6 1;
#X connect 33 0 1 1;
#X connect 34 0 19 0;
#X connect 36 0 24 0;
#X connect 37 0 3 0;
#X connect 38 0 39 0;
#X connect 39 0 33 0;
#X connect 40 0 37 0;
#X connect 41 0 42 0;
#X connect 42 0 12 1;
#X connect 43 0 30 0;
#X connect 44 0 43 0;
#X connect 45 0 48 0;
#X connect 46 0 49 0;
#X connect 47 0 50 0;
#X connect 48 0 34 0;
#X connect 49 0 20 0;
#X connect 50 0 28 0;
#X connect 51 0 53 0;
#X connect 52 0 54 0;
#X connect 53 0 32 0;
#X connect 54 0 8 0;
#X connect 55 0 57 0;
#X connect 56 0 55 0;
#X connect 56 1 55 1;
#X connect 57 0 68 0;
#X connect 58 0 69 0;
#X connect 60 0 69 0;
#X connect 61 0 58 0;
#X connect 62 0 60 0;
#X connect 63 0 61 0;
#X connect 64 0 62 0;
#X connect 65 0 66 0;
#X connect 66 0 67 0;
#X connect 67 0 63 1;
#X connect 67 0 64 1;
#X connect 68 0 63 0;
#X connect 68 0 64 0;
#X connect 68 0 70 0;
#X connect 69 0 35 0;
#X connect 71 0 82 0;
#X connect 71 0 55 0;
#X connect 72 0 88 0;
#X connect 73 0 75 0;
#X connect 74 0 76 0;
#X connect 74 0 78 1;
#X connect 74 0 84 1;
#X connect 74 0 90 0;
#X connect 75 0 83 1;
#X connect 75 0 89 1;
#X connect 76 0 75 0;
#X connect 76 1 75 1;
#X connect 78 0 2 0;
#X connect 79 0 78 0;
#X connect 80 0 81 1;
#X connect 81 0 79 1;
#X connect 82 0 83 0;
#X connect 82 1 81 0;
#X connect 82 2 80 0;
#X connect 83 0 79 0;
#X connect 84 0 7 0;
#X connect 84 0 56 0;
#X connect 85 0 84 0;
#X connect 86 0 87 1;
#X connect 87 0 85 1;
#X connect 88 0 89 0;
#X connect 88 1 87 0;
#X connect 88 2 86 0;
#X connect 89 0 85 0;
#X connect 90 0 92 0;
#X connect 91 0 68 1;
#X connect 92 0 93 0;
#X connect 93 0 91 0;
#X restore -105 828 pd subtractive_2osc_fm_synth;
#X obj 424 607 + 1;
#X obj 248 594 float;
#X obj 250 548 clip 0 1;
#X obj 252 572 * 5000;
#X obj -231 350 spigot 1;
#X obj -161 356 spigot 1;
#X obj 409 313 f;
#X obj 439 315 + 1;
#X obj 429 343 mod;
#X obj -34 163 == 0;
#N canvas 5 86 450 300 awrp 0;
#X obj 142 72 inlet;
#X obj 142 223 outlet;
#X obj 163 142 int;
#X obj 137 108 t f f;
#X obj 140 172 -;
#X obj 150 194 abs;
#X connect 0 0 3 0;
#X connect 2 0 4 1;
#X connect 3 0 4 0;
#X connect 3 1 2 0;
#X connect 4 0 5 0;
#X connect 5 0 1 0;
#X restore -32 491 pd awrp;
#N canvas 5 86 450 300 awrp 0;
#X obj 142 72 inlet;
#X obj 142 223 outlet;
#X obj 163 142 int;
#X obj 137 108 t f f;
#X obj 140 172 -;
#X obj 140 196 abs;
#X connect 0 0 3 0;
#X connect 2 0 4 1;
#X connect 3 0 4 0;
#X connect 3 1 2 0;
#X connect 4 0 5 0;
#X connect 5 0 1 0;
#X restore -92 485 pd awrp;
#N canvas 5 86 450 300 awrp 0;
#X obj 142 72 inlet;
#X obj 142 223 outlet;
#X obj 163 142 int;
#X obj 137 108 t f f;
#X obj 140 172 -;
#X obj 150 194 abs;
#X connect 0 0 3 0;
#X connect 2 0 4 1;
#X connect 3 0 4 0;
#X connect 3 1 2 0;
#X connect 4 0 5 0;
#X connect 5 0 1 0;
#X restore 29 501 pd awrp;
#N canvas 5 86 450 300 awrp 0;
#X obj 142 72 inlet;
#X obj 142 223 outlet;
#X obj 163 142 int;
#X obj 137 108 t f f;
#X obj 140 172 -;
#X obj 150 194 abs;
#X connect 0 0 3 0;
#X connect 2 0 4 1;
#X connect 3 0 4 0;
#X connect 3 1 2 0;
#X connect 4 0 5 0;
#X connect 5 0 1 0;
#X restore 90 527 pd awrp;
#N canvas 5 86 450 300 awrp 0;
#X obj 142 72 inlet;
#X obj 142 223 outlet;
#X obj 163 142 int;
#X obj 137 108 t f f;
#X obj 140 172 -;
#X obj 150 194 abs;
#X connect 0 0 3 0;
#X connect 2 0 4 1;
#X connect 3 0 4 0;
#X connect 3 1 2 0;
#X connect 4 0 5 0;
#X connect 5 0 1 0;
#X restore 121 496 pd awrp;
#X obj 197 181 nbx 3 14 1 128 0 1 empty empty p-frq 0 -8 0 10 -262144
-1 -1 7 256;
#N canvas 5 86 450 300 awrp 0;
#X obj 142 72 inlet;
#X obj 142 223 outlet;
#X obj 163 142 int;
#X obj 137 108 t f f;
#X obj 140 172 -;
#X obj 140 196 abs;
#X connect 0 0 3 0;
#X connect 2 0 4 1;
#X connect 3 0 4 0;
#X connect 3 1 2 0;
#X connect 4 0 5 0;
#X connect 5 0 1 0;
#X restore -161 511 pd awrp;
#N canvas 5 86 450 300 awrp 0;
#X obj 142 72 inlet;
#X obj 142 223 outlet;
#X obj 163 142 int;
#X obj 137 108 t f f;
#X obj 140 172 -;
#X obj 150 194 abs;
#X connect 0 0 3 0;
#X connect 2 0 4 1;
#X connect 3 0 4 0;
#X connect 3 1 2 0;
#X connect 4 0 5 0;
#X connect 5 0 1 0;
#X restore 191 514 pd awrp;
#N canvas 5 86 450 300 awrp 0;
#X obj 142 72 inlet;
#X obj 142 223 outlet;
#X obj 163 142 int;
#X obj 137 108 t f f;
#X obj 140 172 -;
#X obj 150 194 abs;
#X connect 0 0 3 0;
#X connect 2 0 4 1;
#X connect 3 0 4 0;
#X connect 3 1 2 0;
#X connect 4 0 5 0;
#X connect 5 0 1 0;
#X restore 226 477 pd awrp;
#N canvas 5 86 450 300 awrp 0;
#X obj 142 72 inlet;
#X obj 142 223 outlet;
#X obj 163 142 int;
#X obj 137 108 t f f;
#X obj 140 172 -;
#X obj 150 194 abs;
#X connect 0 0 3 0;
#X connect 2 0 4 1;
#X connect 3 0 4 0;
#X connect 3 1 2 0;
#X connect 4 0 5 0;
#X connect 5 0 1 0;
#X restore 293 517 pd awrp;
#N canvas 5 86 450 300 awrp 0;
#X obj 142 72 inlet;
#X obj 142 223 outlet;
#X obj 163 142 int;
#X obj 137 108 t f f;
#X obj 140 172 -;
#X obj 150 194 abs;
#X connect 0 0 3 0;
#X connect 2 0 4 1;
#X connect 3 0 4 0;
#X connect 3 1 2 0;
#X connect 4 0 5 0;
#X connect 5 0 1 0;
#X restore 269 440 pd awrp;
#N canvas 5 86 450 300 awrp 0;
#X obj 142 72 inlet;
#X obj 142 223 outlet;
#X obj 163 142 int;
#X obj 137 108 t f f;
#X obj 140 172 -;
#X obj 140 196 abs;
#X connect 0 0 3 0;
#X connect 2 0 4 1;
#X connect 3 0 4 0;
#X connect 3 1 2 0;
#X connect 4 0 5 0;
#X connect 5 0 1 0;
#X restore -258 389 pd awrp;
#N canvas 5 86 450 300 awrp 0;
#X obj 142 72 inlet;
#X obj 142 223 outlet;
#X obj 163 142 int;
#X obj 137 108 t f f;
#X obj 140 172 -;
#X obj 140 196 abs;
#X connect 0 0 3 0;
#X connect 2 0 4 1;
#X connect 3 0 4 0;
#X connect 3 1 2 0;
#X connect 4 0 5 0;
#X connect 5 0 1 0;
#X restore -183 387 pd awrp;
#X obj -39 1072 outlet~;
#X obj 280 13 inlet;
#X obj 849 7 loadbang;
#X obj 363 150 moses 0.01;
#N canvas 13 261 1275 706 seq16 0;
#X obj -70 56 inlet;
#X obj -75 199 select 0 1 2 3 4 5 6 7 8 9 10 11 12 13 14 15;
#X obj -53 117 mod 16;
#X obj -96 271 int;
#X obj -67 270 int;
#X obj -6 269 int;
#X obj -36 268 int;
#X obj 26 271 int;
#X obj 55 270 int;
#X obj 116 269 int;
#X obj 86 268 int;
#X obj 151 268 int;
#X obj 180 267 int;
#X obj 241 266 int;
#X obj 211 265 int;
#X obj 273 268 int;
#X obj 302 267 int;
#X obj 363 266 int;
#X obj 333 265 int;
#X obj 312 103 route 0 1 2 3 4 5 6 7 8 9 10 11 12 13 14 15;
#X obj 33 62 inlet;
#X floatatom 278 167 3 0 128 0 - - -;
#X floatatom 303 167 3 0 128 0 - - -;
#X floatatom 328 167 3 0 128 0 - - -;
#X floatatom 353 167 3 0 128 0 - - -;
#X floatatom 381 167 3 0 128 0 - - -;
#X floatatom 406 167 3 0 128 0 - - -;
#X floatatom 431 167 3 0 128 0 - - -;
#X floatatom 456 167 3 0 128 0 - - -;
#X floatatom 484 167 3 0 128 0 - - -;
#X floatatom 509 167 3 0 128 0 - - -;
#X floatatom 534 167 3 0 128 0 - - -;
#X floatatom 559 167 3 0 128 0 - - -;
#X floatatom 587 167 3 0 128 0 - - -;
#X floatatom 612 167 3 0 128 0 - - -;
#X floatatom 637 167 3 0 128 0 - - -;
#X floatatom 662 167 3 0 128 0 - - -;
#X obj 338 19 inlet;
#X text -75 25 pos;
#X text 33 38 len;
#X text 338 0 stepset;
#X obj 470 437 outlet;
#X obj 419 377 select;
#X obj 73 133 - 1;
#X obj 207 383 outlet;
#X obj 208 358 / 128;
#X floatatom 403 422 5 0 0 0 - - -;
#X connect 0 0 2 0;
#X connect 1 0 3 0;
#X connect 1 1 4 0;
#X connect 1 2 6 0;
#X connect 1 3 5 0;
#X connect 1 4 7 0;
#X connect 1 5 8 0;
#X connect 1 6 10 0;
#X connect 1 7 9 0;
#X connect 1 8 11 0;
#X connect 1 9 12 0;
#X connect 1 10 14 0;
#X connect 1 11 13 0;
#X connect 1 12 15 0;
#X connect 1 13 16 0;
#X connect 1 14 18 0;
#X connect 1 15 17 0;
#X connect 2 0 1 0;
#X connect 2 0 42 0;
#X connect 3 0 45 0;
#X connect 4 0 45 0;
#X connect 5 0 45 0;
#X connect 6 0 45 0;
#X connect 7 0 45 0;
#X connect 8 0 45 0;
#X connect 9 0 45 0;
#X connect 10 0 45 0;
#X connect 11 0 45 0;
#X connect 12 0 45 0;
#X connect 13 0 45 0;
#X connect 14 0 45 0;
#X connect 15 0 45 0;
#X connect 16 0 45 0;
#X connect 17 0 45 0;
#X connect 18 0 45 0;
#X connect 19 0 21 0;
#X connect 19 1 22 0;
#X connect 19 2 23 0;
#X connect 19 3 24 0;
#X connect 19 4 25 0;
#X connect 19 5 26 0;
#X connect 19 6 27 0;
#X connect 19 7 28 0;
#X connect 19 8 29 0;
#X connect 19 9 30 0;
#X connect 19 10 31 0;
#X connect 19 11 32 0;
#X connect 19 12 33 0;
#X connect 19 13 34 0;
#X connect 19 14 35 0;
#X connect 19 15 36 0;
#X connect 20 0 2 1;
#X connect 20 0 43 0;
#X connect 21 0 3 1;
#X connect 22 0 4 1;
#X connect 23 0 6 1;
#X connect 24 0 5 1;
#X connect 25 0 7 1;
#X connect 26 0 8 1;
#X connect 27 0 10 1;
#X connect 28 0 9 1;
#X connect 29 0 11 1;
#X connect 30 0 12 1;
#X connect 31 0 14 1;
#X connect 32 0 13 1;
#X connect 33 0 15 1;
#X connect 34 0 16 1;
#X connect 35 0 18 1;
#X connect 36 0 17 1;
#X connect 37 0 19 0;
#X connect 42 0 41 0;
#X connect 43 0 42 1;
#X connect 43 0 46 0;
#X connect 45 0 44 0;
#X coords 0 0 1 1 410 40 0;
#X restore 362 113 pd seq16;
#X obj 105 158 nbx 3 14 2 16 0 1 empty empty sqlen 0 -8 0 10 -262144
-1 -1 16 256;
#X obj 173 129 vsl 15 64 0 1 0 1 empty empty ttr 0 -9 0 10 -262144
-1 -1 2700 1;
#X obj 197 149 nbx 3 14 1 128 0 1 empty empty scfrq 0 -8 0 10 -262144
-1 -1 3 256;
#X obj 477 244 f;
#X obj 515 245 + 1;
#X obj 507 267 mod 1;
#X obj 520 292 select 0;
#X text 362 558 waveform -> synth params;
#X text 31 309 synth params;
#X text 410 823 waveform;
#X text 27 944 waveform fm mod;
#X obj 590 352 until;
#X obj 590 380 f;
#X obj 628 381 + 1;
#X msg 588 326 16;
#X obj 622 403 mod 16;
#X obj 628 441 t f f;
#X obj 642 593 pack f f;
#X obj 664 489 tabread \$0sctable1;
#X obj 658 463 * 32;
#N canvas 5 86 450 300 awrp 0;
#X obj 142 72 inlet;
#X obj 142 223 outlet;
#X obj 163 142 int;
#X obj 137 108 t f f;
#X obj 140 172 -;
#X obj 140 196 abs;
#X connect 0 0 3 0;
#X connect 2 0 4 1;
#X connect 3 0 4 0;
#X connect 3 1 2 0;
#X connect 4 0 5 0;
#X connect 5 0 1 0;
#X restore 666 515 pd awrp;
#X obj 691 541 * 128;
#X obj 698 572 int;
#X obj 236 148 bng 15 250 50 0 empty empty empty 17 7 0 10 -262144
-1 -1;
#X obj 236 180 bng 15 250 50 0 empty empty empty 17 7 0 10 -262144
-1 -1;
#X obj -25 185 moses 0.1;
#X obj 104 128 nbx 3 14 1 128 0 1 empty empty llen 0 -8 0 10 -262144
-1 -1 4 256;
#X obj 464 33 f;
#X obj 502 34 + 1;
#X obj 494 56 mod 1;
#X obj 115 229 hsl 128 8 0 1 0 0 empty empty empty -2 -8 0 10 -262144
-1 -1 0 1;
#X obj 463 99 /;
#X msg 634 270 0.507937 0.108889 0.10381 0.00984127 0.193333 0.103492
0.215238 0.153175 0.226032 0.0625397 0.127937 0.0965079 0;
#X obj 634 209 list;
#X obj 495 80 select 0;
#X obj 222 116 bng 15 250 50 0 empty empty str 17 7 0 10 -258113 -1
-1;
#X text 694 112 store params and osc waveform for reset;
#X obj 866 377 until;
#X obj 866 405 f;
#X obj 904 406 + 1;
#X obj 922 493 tabread \$0sctable1;
#X msg 864 351 515;
#X obj 898 428 mod 515;
#X obj 886 452 t f f;
#X obj 925 516 tabwrite \$0presettable1;
#X obj 710 688 until;
#X obj 710 716 f;
#X obj 748 717 + 1;
#X msg 708 662 515;
#X obj 742 739 mod 515;
#X obj 730 763 t f f;
#X text 803 729 restore waveform;
#X obj 729 822 tabwrite \$0sctable1;
#X obj 727 799 tabread \$0presettable1;
#X obj 297 51 spigot;
#X obj 353 13 tgl 15 1 empty empty seq_on/off 17 7 0 10 -262144 -1
-1 1 1;
#X text 222 72 turn off for sound adjustment;
#N canvas 0 0 450 300 (subpatch) 0;
#X array \$0presettable1 515 float 1;
#A 0 0.0100276 0.0469921 0.0696417 0.0864603 0.115527 0.171939 0.225771
0.270312 0.317915 0.382124 0.441698 0.46736 0.468996 0.466994 0.469423
0.467046 0.465473 0.466641 0.466824 0.462463 0.448702 0.423162 0.387613
0.349027 0.327456 0.319846 0.317529 0.312983 0.30346 0.292782 0.283137
0.275299 0.26951 0.265454 0.254957 0.232481 0.200076 0.170924 0.145907
0.133265 0.135668 0.129009 0.123248 0.116548 0.105047 0.0874172 0.0702256
0.0550668 0.0421694 0.0317515 0.0258149 0.0260316 0.0282445 0.0270106
0.0193542 0.0118638 0.000350668 -0.0146017 -0.029502 -0.0493282 -0.0680881
-0.0871699 -0.108102 -0.127358 -0.142519 -0.153001 -0.158672 -0.1599
-0.158029 -0.162195 -0.172737 -0.184884 -0.193421 -0.199156 -0.209876
-0.225724 -0.239122 -0.25341 -0.269865 -0.287018 -0.30347 -0.321547
-0.336039 -0.3462 -0.353141 -0.358481 -0.36266 -0.363957 -0.36365 -0.365705
-0.37624 -0.385444 -0.391367 -0.396011 -0.402786 -0.410517 -0.417935
-0.424702 -0.430762 -0.434271 -0.438443 -0.443642 -0.448938 -0.453225
-0.455873 -0.463693 -0.476292 -0.487749 -0.497822 -0.51 -0.522869 -0.533738
-0.541821 -0.548523 -0.555469 -0.562969 -0.569918 -0.574894 -0.577487
-0.582962 -0.594075 -0.60302 -0.610576 -0.616718 -0.621251 -0.624258
-0.628169 -0.633591 -0.639223 -0.643673 -0.647787 -0.652427 -0.657116
-0.660824 -0.663606 -0.674687 -0.68777 -0.699767 -0.710748 -0.7203
-0.728435 -0.735278 -0.740954 -0.745501 -0.748971 -0.750928 -0.752121
-0.753909 -0.756698 -0.758299 -0.764125 -0.77648 -0.788381 -0.799109
-0.808392 -0.816278 -0.822908 -0.828378 -0.832732 -0.835996 -0.83819
-0.839334 -0.83944 -0.838502 -0.836179 -0.833279 -0.838156 -0.843698
-0.847646 -0.850402 -0.851558 -0.852524 -0.853775 -0.855298 -0.856724
-0.857192 -0.857598 -0.857976 -0.857733 -0.856298 -0.852688 -0.853281
-0.859444 -0.864313 -0.868716 -0.872592 -0.875857 -0.87842 -0.880175
-0.881075 -0.881085 -0.880168 -0.878272 -0.875356 -0.871399 -0.865921
-0.860008 -0.861869 -0.864843 -0.867889 -0.871664 -0.875817 -0.879878
-0.884065 -0.888224 -0.891785 -0.894315 -0.895623 -0.89572 -0.894699
-0.892591 -0.888582 -0.889223 -0.89463 -0.898142 -0.900599 -0.902017
-0.902379 -0.901644 -0.899789 -0.896143 -0.892053 -0.888616 -0.88574
-0.882037 -0.876378 -0.873983 -0.879096 -0.883466 -0.886782 -0.891437
-0.897835 -0.90278 -0.90658 -0.909264 -0.910897 -0.911582 -0.91148
-0.91067 -0.90917 -0.906754 -0.903505 -0.907686 -0.913183 -0.917568
-0.922805 -0.928772 -0.934323 -0.938788 -0.94201 -0.944298 -0.945655
-0.946103 -0.945648 -0.944302 -0.942172 -0.938683 -0.939345 -0.947013
-0.953727 -0.959817 -0.965008 -0.969216 -0.972522 -0.974932 -0.976456
-0.977096 -0.976849 -0.975721 -0.973388 -0.970102 -0.966182 -0.96283
-0.968909 -0.976758 -0.982972 -0.98805 -0.992261 -0.995565 -0.997958
-0.999438 -1 -0.999636 -0.998336 -0.996088 -0.992873 -0.988671 -0.982629
-0.980504 -0.984169 -0.986172 -0.98733 -0.987642 -0.987097 -0.98569
-0.983409 -0.980274 -0.976316 -0.971587 -0.966188 -0.960819 -0.956203
-0.952333 -0.949635 -0.954392 -0.959731 -0.963598 -0.966554 -0.968613
-0.969774 -0.970049 -0.969457 -0.968033 -0.965813 -0.962832 -0.959117
-0.954672 -0.949453 -0.942561 -0.940151 -0.943127 -0.944375 -0.94464
-0.943941 -0.942223 -0.93941 -0.935473 -0.930937 -0.927196 -0.924487
-0.921117 -0.91657 -0.910863 -0.903643 -0.896122 -0.896537 -0.897029
-0.895928 -0.893734 -0.890501 -0.886373 -0.881938 -0.877385 -0.872452
-0.866829 -0.860389 -0.853049 -0.844517 -0.834355 -0.832011 -0.834427
-0.837462 -0.839209 -0.839675 -0.83902 -0.83727 -0.834365 -0.830257
-0.824889 -0.818229 -0.810255 -0.800951 -0.790297 -0.777424 -0.767087
-0.76271 -0.755859 -0.747798 -0.741441 -0.737352 -0.732564 -0.727347
-0.722284 -0.717474 -0.712447 -0.706249 -0.698941 -0.690522 -0.680711
-0.66957 -0.66602 -0.664221 -0.661214 -0.658583 -0.659077 -0.662223
-0.66551 -0.666915 -0.66676 -0.665029 -0.661734 -0.656859 -0.650316
-0.64183 -0.63075 -0.624695 -0.628772 -0.635783 -0.641505 -0.645684
-0.648529 -0.649737 -0.649434 -0.648467 -0.646853 -0.643978 -0.638992
-0.631831 -0.622092 -0.611557 -0.604555 -0.606506 -0.608909 -0.610357
-0.61352 -0.617443 -0.620691 -0.622538 -0.622814 -0.621731 -0.619294
-0.61503 -0.61023 -0.60691 -0.605687 -0.601612 -0.600134 -0.603501
-0.603897 -0.601781 -0.598633 -0.596784 -0.597547 -0.597369 -0.594547
-0.591486 -0.590709 -0.591499 -0.590319 -0.586798 -0.580648 -0.572751
-0.571954 -0.571308 -0.568855 -0.565149 -0.560049 -0.553055 -0.54985
-0.551669 -0.553892 -0.554973 -0.554712 -0.552756 -0.548629 -0.541624
-0.541243 -0.542939 -0.541848 -0.538778 -0.541455 -0.545163 -0.547124
-0.547021 -0.545078 -0.543958 -0.542115 -0.5375 -0.529558 -0.518608
-0.50485 -0.49534 -0.495761 -0.491305 -0.484332 -0.475425 -0.465452
-0.456169 -0.447556 -0.438413 -0.428019 -0.416661 -0.406127 -0.394416
-0.381784 -0.36881 -0.354981 -0.347818 -0.340073 -0.327611 -0.313293
-0.302955 -0.299714 -0.301115 -0.302417 -0.300572 -0.29479 -0.285329
-0.272468 -0.256126 -0.235635 -0.217939 -0.204193 -0.19028 -0.168764
-0.149141 -0.131707 -0.112805 -0.0882906 -0.0621753 -0.0321321 0.00715171
0.0585335 0.115072 0.160053;
#X coords 0 1 514 -1 128 51 1 0 0;
#X restore 927 563 graph;
#X text 633 360 wave -> seq;
#X msg 600 220 0;
#X obj -114 288 route 0 1 2 3 4 5 6 7 8 9 10 11 12 13;
#X obj -80 71 unpack f f f f f f f f f f f f f;
#X obj 347 442 clip 0 1;
#X obj 610 41 pack f f f f f f f f f f f f f;
#X msg 633 246 set \$1 \$2 \$3 \$4 \$5 \$6 \$7 \$8 \$9 \$10 \$11 \$12
\$13;
#X msg 425 378 14;
#X obj 459 454 mod 14;
#X obj 344 465 * 3000;
#X obj 410 629 * 34;
#X obj 859 30 t b b;
#X text 263 615 param glide;
#X text 348 482 pitch glide;
#X text -229 -13 rekursive subtractive synth. the output wave influences
the synth-parameters and it is used for fm. the loop is not an exact
repetition \, only the start parameters are reset at the beginning
of the 'loop'.;
#X text -229 42 6/2011 martin brinkmann;
#X text -486 135 wamt: amount of influence on the synth-parameters
;
#X text -485 83 llen: lenght of the loop (multiples of sqlen);
#X text -485 99 sqlen: length of the trigger-sequencer for parameter
changes (1/16);
#X text -486 152 ttr: threshhold for triggering parameter changes;
#X text -485 168 scfrq: updatefrequency for getting single-cycles (nr
of triggers);
#X text -485 198 p-frq: updatefrequency for pitch changes;
#X text -485 218 str: store synth state for reset;
#X obj 103 211 nbx 3 14 0 127 0 1 empty empty pmin 0 -8 0 10 -262144
-1 -1 0 256;
#X obj 142 211 nbx 3 14 0 127 0 1 empty empty pmax 0 -8 0 10 -262144
-1 -1 103 256;
#X obj 184 210 hsl 64 15 0.01 1 1 1 empty empty fma -2 -8 0 10 -262144
-1 -1 4300 1;
#X obj -54 779 *;
#X text -486 236 fma: fm amount;
#X text -485 252 pmin/max: pitch range constraint;
#X obj 112 904 *~;
#X connect 0 0 12 0;
#X connect 1 0 13 1;
#X connect 1 0 39 0;
#X connect 1 0 167 1;
#X connect 2 0 14 1;
#X connect 2 0 43 0;
#X connect 2 0 167 2;
#X connect 3 0 15 1;
#X connect 3 0 45 0;
#X connect 3 0 167 3;
#X connect 4 0 16 1;
#X connect 4 0 51 0;
#X connect 4 0 167 4;
#X connect 5 0 17 1;
#X connect 5 0 53 0;
#X connect 5 0 167 5;
#X connect 6 0 18 1;
#X connect 6 0 55 0;
#X connect 6 0 167 6;
#X connect 7 0 19 1;
#X connect 7 0 58 0;
#X connect 7 0 167 7;
#X connect 8 0 20 1;
#X connect 8 0 47 0;
#X connect 8 0 167 0;
#X connect 9 0 21 1;
#X connect 9 0 41 0;
#X connect 9 0 167 8;
#X connect 10 0 22 1;
#X connect 10 0 49 0;
#X connect 10 0 167 9;
#X connect 13 0 97 0;
#X connect 14 0 92 0;
#X connect 15 0 87 0;
#X connect 16 0 86 0;
#X connect 17 0 88 0;
#X connect 18 0 89 0;
#X connect 19 0 90 0;
#X connect 20 0 98 0;
#X connect 21 0 93 0;
#X connect 22 0 94 0;
#X connect 23 0 31 0;
#X connect 24 0 25 0;
#X connect 25 0 26 0;
#X connect 26 0 170 0;
#X connect 27 0 32 0;
#X connect 28 0 72 0;
#X connect 29 0 164 0;
#X connect 30 0 29 0;
#X connect 30 1 76 0;
#X connect 31 0 29 1;
#X connect 32 0 23 0;
#X connect 33 0 34 0;
#X connect 34 0 35 0;
#X connect 35 0 33 1;
#X connect 35 0 27 1;
#X connect 36 0 37 1;
#X connect 36 0 60 0;
#X connect 36 0 167 10;
#X connect 37 0 95 0;
#X connect 38 0 75 2;
#X connect 39 0 38 0;
#X connect 40 0 75 10;
#X connect 41 0 40 0;
#X connect 42 0 75 4;
#X connect 43 0 42 0;
#X connect 44 0 75 5;
#X connect 45 0 44 0;
#X connect 46 0 75 3;
#X connect 47 0 46 0;
#X connect 48 0 75 11;
#X connect 49 0 48 0;
#X connect 50 0 188 0;
#X connect 51 0 50 0;
#X connect 52 0 75 7;
#X connect 53 0 52 0;
#X connect 54 0 75 8;
#X connect 55 0 54 0;
#X connect 56 0 31 1;
#X connect 57 0 75 9;
#X connect 58 0 57 0;
#X connect 59 0 75 12;
#X connect 60 0 59 0;
#X connect 61 0 66 0;
#X connect 62 0 63 0;
#X connect 63 0 61 0;
#X connect 64 0 63 1;
#X connect 65 0 62 0;
#X connect 66 0 0 0;
#X connect 66 0 99 0;
#X connect 67 0 68 1;
#X connect 67 0 70 0;
#X connect 67 0 167 11;
#X connect 68 0 96 0;
#X connect 69 0 71 0;
#X connect 70 0 69 0;
#X connect 71 0 191 0;
#X connect 72 0 74 0;
#X connect 72 1 169 0;
#X connect 72 1 33 0;
#X connect 72 2 12 1;
#X connect 72 2 82 0;
#X connect 74 0 73 0;
#X connect 75 0 65 0;
#X connect 75 1 64 0;
#X connect 75 1 66 0;
#X connect 76 0 172 0;
#X connect 77 0 70 1;
#X connect 77 0 49 1;
#X connect 77 0 60 1;
#X connect 77 0 41 1;
#X connect 77 0 58 1;
#X connect 77 0 55 1;
#X connect 77 0 51 1;
#X connect 77 0 45 1;
#X connect 78 0 79 0;
#X connect 79 0 77 0;
#X connect 80 0 1 0;
#X connect 81 0 8 0;
#X connect 82 0 83 0;
#X connect 83 0 84 0;
#X connect 84 0 82 1;
#X connect 84 0 85 0;
#X connect 85 0 81 1;
#X connect 85 0 80 1;
#X connect 85 0 129 0;
#X connect 86 0 4 0;
#X connect 87 0 3 0;
#X connect 88 0 5 0;
#X connect 89 0 6 0;
#X connect 90 0 7 0;
#X connect 91 0 84 1;
#X connect 92 0 2 0;
#X connect 93 0 9 0;
#X connect 94 0 10 0;
#X connect 95 0 36 0;
#X connect 96 0 67 0;
#X connect 97 0 80 0;
#X connect 98 0 81 0;
#X connect 100 0 158 0;
#X connect 101 0 173 0;
#X connect 102 1 28 0;
#X connect 103 0 102 0;
#X connect 103 1 107 0;
#X connect 103 1 131 0;
#X connect 104 0 103 1;
#X connect 105 0 102 1;
#X connect 106 0 109 1;
#X connect 107 0 108 0;
#X connect 108 0 109 0;
#X connect 109 0 107 1;
#X connect 109 0 110 0;
#X connect 110 0 118 0;
#X connect 110 0 127 0;
#X connect 115 0 116 0;
#X connect 116 0 117 0;
#X connect 117 0 119 0;
#X connect 118 0 115 0;
#X connect 119 0 116 1;
#X connect 119 0 120 0;
#X connect 120 0 121 0;
#X connect 120 1 123 0;
#X connect 121 0 103 2;
#X connect 122 0 124 0;
#X connect 123 0 122 0;
#X connect 124 0 125 0;
#X connect 125 0 126 0;
#X connect 126 0 121 1;
#X connect 129 1 128 0;
#X connect 130 0 133 1;
#X connect 130 0 135 1;
#X connect 131 0 132 0;
#X connect 132 0 133 0;
#X connect 133 0 131 1;
#X connect 133 0 135 0;
#X connect 133 0 138 0;
#X connect 135 0 134 0;
#X connect 136 0 165 0;
#X connect 137 0 168 0;
#X connect 138 0 136 0;
#X connect 138 0 152 0;
#X connect 138 0 163 0;
#X connect 139 0 137 0;
#X connect 139 0 145 0;
#X connect 141 0 142 0;
#X connect 142 0 143 0;
#X connect 143 0 146 0;
#X connect 144 0 148 0;
#X connect 145 0 141 0;
#X connect 146 0 142 1;
#X connect 146 0 147 0;
#X connect 147 0 144 0;
#X connect 147 1 148 1;
#X connect 149 0 150 0;
#X connect 150 0 151 0;
#X connect 151 0 153 0;
#X connect 152 0 149 0;
#X connect 153 0 150 1;
#X connect 153 0 154 0;
#X connect 154 0 157 0;
#X connect 154 1 156 1;
#X connect 157 0 156 0;
#X connect 158 0 103 0;
#X connect 159 0 158 1;
#X connect 163 0 107 1;
#X connect 163 0 82 1;
#X connect 163 0 33 1;
#X connect 163 0 25 1;
#X connect 164 0 13 0;
#X connect 164 1 14 0;
#X connect 164 2 15 0;
#X connect 164 3 16 0;
#X connect 164 4 17 0;
#X connect 164 5 18 0;
#X connect 164 6 19 0;
#X connect 164 7 20 0;
#X connect 164 8 21 0;
#X connect 164 9 22 0;
#X connect 164 10 37 0;
#X connect 164 11 68 0;
#X connect 164 12 78 0;
#X connect 164 13 166 0;
#X connect 165 0 8 0;
#X connect 165 1 1 0;
#X connect 165 2 2 0;
#X connect 165 3 3 0;
#X connect 165 4 4 0;
#X connect 165 5 5 0;
#X connect 165 6 6 0;
#X connect 165 7 7 0;
#X connect 165 8 9 0;
#X connect 165 9 10 0;
#X connect 165 10 36 0;
#X connect 165 11 67 0;
#X connect 166 0 171 0;
#X connect 167 0 137 1;
#X connect 168 0 136 0;
#X connect 169 0 24 0;
#X connect 170 0 25 1;
#X connect 170 0 30 0;
#X connect 171 0 39 1;
#X connect 171 0 47 1;
#X connect 172 0 27 0;
#X connect 173 0 118 0;
#X connect 173 1 152 0;
#X connect 185 0 75 1;
#X connect 186 0 75 0;
#X connect 187 0 188 1;
#X connect 187 0 191 1;
#X connect 188 0 75 6;
#X connect 191 0 64 1;
#X coords 0 -1 1 1 160 140 1 100 100;
#X restore -124 9 pd rksubnoiseloop1;
#X text 63 1 rekursive subtractive synth. the output wave influences
the synth-parameters and it is used for fm. the loop is not an exact
repetition \, only the start parameters are reset at the beginning
of the 'loop'.;
#N canvas 43 128 610 640 mym2schorus 0;
#X obj 23 59 inlet~;
#X obj 466 487 outlet~;
#X obj 295 500 outlet~;
#X obj 197 264 cos~;
#X obj 197 291 +~ 1;
#X obj 290 225 +~ 0.25;
#X obj 304 254 cos~;
#X obj 309 284 +~ 1;
#X obj 369 69 phasor~;
#X obj 354 -14 loadbang;
#X msg 355 20 0.8;
#X obj 145 407 vd~ \$0mychr1;
#X obj 298 371 vd~ \$0mychr1;
#X obj 311 318 *~ 0.3;
#X obj 418 232 cos~;
#X obj 423 262 +~ 1;
#X obj 412 349 vd~ \$0mychr1;
#X obj 425 296 *~ 0.3;
#X obj 24 101 delwrite~ \$0mychr1 100;
#X obj 404 203 +~ 0.5;
#X obj 522 250 cos~;
#X obj 527 280 +~ 1;
#X obj 516 367 vd~ \$0mychr1;
#X obj 508 221 +~ 0.75;
#X obj 530 315 *~ 0.31;
#X obj 194 318 *~ 0.31;
#X connect 0 0 18 0;
#X connect 3 0 4 0;
#X connect 4 0 25 0;
#X connect 5 0 6 0;
#X connect 6 0 7 0;
#X connect 7 0 13 0;
#X connect 8 0 3 0;
#X connect 8 0 5 0;
#X connect 8 0 19 0;
#X connect 8 0 23 0;
#X connect 9 0 10 0;
#X connect 10 0 8 0;
#X connect 11 0 2 0;
#X connect 12 0 1 0;
#X connect 13 0 12 0;
#X connect 14 0 15 0;
#X connect 15 0 17 0;
#X connect 16 0 2 0;
#X connect 17 0 16 0;
#X connect 19 0 14 0;
#X connect 20 0 21 0;
#X connect 21 0 24 0;
#X connect 22 0 1 0;
#X connect 23 0 20 0;
#X connect 24 0 22 0;
#X connect 25 0 11 0;
#X restore -150 270 pd mym2schorus;
#X text 64 117 wamt: amount of influence on the synth-parameters;
#X text 62 66 llen: lenght of the loop (multiples of sqlen);
#X text 63 82 sqlen: length of the trigger-sequencer for parameter
changes (1/16);
#X text 64 134 ttr: threshhold for triggering parameter changes;
#X text 65 150 scfrq: updatefrequency for getting single-cycles (nr
of triggers);
#X text 65 180 p-frq: updatefrequency for pitch changes;
#X text 65 199 str: store synth state for reset;
#X text 65 217 fma: fm amount;
#X text 66 233 pmin/max: pitch range constraint;
#X text 276 44 6/2011 martin brinkmann;
#X text 62 285 not easiely copy/pasteable \, i was too lazy to integrate
all the state-saving stuff into abstractions (12/2012);
#X connect 1 0 2 0;
#X connect 2 0 4 0;
#X connect 4 0 0 0;
#X connect 4 1 0 1;
