#N canvas 282 334 602 332 10;
#X obj -203 -4 dac~;
#X text -37 -191 the 'clix-generator' only \, kind of remake of my
old reaktor instrument. lfo-controlled resonant clicks;
#N canvas 226 128 705 703 rmcricket1v 0;
#X obj 137 429 phasor~;
#X obj 247 288 mtof;
#X obj 125 115 hsl 128 8 -10 20 0 1 empty empty p -9 3 1 8 -262144
-1 -1 5600 1;
#X obj 125 138 hsl 128 8 0 20 0 1 empty empty amt -21 5 0 8 -262144
-1 -1 1500 1;
#X obj 225 322 +;
#X obj 323 215 osc~;
#X obj 295 286 *;
#X obj 330 250 snapshot~;
#X obj 424 204 metro 5;
#X obj 424 169 loadbang;
#X obj 125 126 hsl 128 8 0.01 4 0 1 empty empty lfo -21 5 0 8 -262144
-1 -1 600 1;
#X obj 125 150 hsl 128 8 0 1 0 1 empty empty lvl -21 5 0 8 -262144
-1 -1 11600 1;
#X obj 138 454 *~;
#X obj 356 368 mtof;
#X obj 125 174 hsl 128 8 55 127 0 1 empty empty cut -21 3 1 8 -262144
-1 -1 8000 1;
#X obj 125 207 hsl 128 8 0 1000 0 1 empty empty amt -21 5 0 8 -262144
-1 -1 10500 1;
#X obj 384 444 +;
#X obj 430 314 osc~;
#X obj 428 419 *;
#X obj 437 349 snapshot~;
#X obj 125 196 hsl 128 8 0.01 4 0 1 empty empty lfo -21 5 0 8 -262144
-1 -1 700 1;
#X obj 125 185 hsl 128 8 0.05 0.99 0 1 empty empty res -21 5 0 8 -262144
-1 -1 9500 1;
#X obj 400 780 outlet~;
#X obj 446 386 - 0.5;
#X obj 370 475 clip 200 10000;
#X obj 513 508 mtof;
#X obj 125 222 hsl 128 8 0 127 0 1 empty empty p -9 3 1 8 -262144 -1
-1 8800 1;
#X obj 125 245 hsl 128 8 0 1000 0 1 empty empty amt -21 5 0 8 -262144
-1 -1 7100 1;
#X obj 504 543 +;
#X obj 589 435 osc~;
#X obj 574 520 *;
#X obj 596 470 snapshot~;
#X obj 125 233 hsl 128 8 0.01 4 0 1 empty empty lfo -21 5 0 8 -262144
-1 -1 2700 1;
#X obj 125 257 hsl 128 8 0 1 0 1 empty empty fxa -21 5 0 8 -262144
-1 -1 9900 1;
#X obj 498 612 *~;
#X obj 584 492 - 0.5;
#X obj 505 571 osc~;
#X obj 401 748 hip~ 5;
#X obj 398 602 - 1;
#X obj 413 633 * -1;
#X obj 419 673 +~;
#X obj 401 718 *~;
#N canvas 486 219 1076 837 hipass2p2zm 0;
#X obj -47 497 inlet~;
#X obj 128 927 outlet~;
#X text 391 24 resonance 0..1;
#X text 156 94 cutoff (hz);
#X text 572 141 c= tan(pi*cutf/samplerate);
#X obj 245 49 samplerate~;
#X text 91 160 c;
#X obj 137 290 sig~ 1;
#X obj 165 418 /~;
#X text 573 165 a1= 1/(1+res+c+c*c);
#X text 573 186 a2= -2*a1;
#X text 99 483 a2;
#X text 136 349 a1/a3;
#X text 574 205 b1= 2*(c*c-1)*a1;
#X text 256 428 b1;
#X text 384 379 b2;
#X obj 353 534 *~;
#X text 573 221 b2= (1-res*c+c*c)*a1;
#X obj 33 690 czero~;
#X obj 59 727 czero~;
#X obj 90 841 cpole~;
#X obj 129 888 cpole~;
#X obj 178 840 *~ -1;
#X obj 184 805 expr~ sqrt($v1);
#X obj -44 595 *~;
#X obj 128 704 *~ -0.5;
#X text 219 845 2nd pole = 1st mirrored on the x axis;
#X text 183 704 b1/2 (x pos);
#X obj 163 748 *~;
#X obj 183 781 -~;
#X text 217 666 pole position from coeffs:;
#X text 218 683 p=-b1/2+j*sqrt(b2-(b1/2)^2) (found somewhere on the
net...);
#X text 573 99 cookbook-like? (i cant remember where i got this from)
hp-filter;
#X obj 90 670 sig~ 0;
#X obj 73 646 sig~ 1;
#X text 44 625 zeros at fixed pos;
#X obj 67 26 inlet;
#X obj 348 25 inlet;
#X obj 108 128 * 3.14159;
#X obj 135 159 / 44100;
#X obj 140 186 expr tan($f1);
#X obj 351 169 -;
#X obj 346 114 t b f;
#X msg 342 136 1;
#X obj 354 86 float 0.5;
#X obj 355 62 t f b;
#X obj 352 203 * 1.41421;
#X obj 88 93 t f b;
#X obj 72 53 float 440;
#X obj 137 223 t f f;
#X obj 194 284 *;
#X obj 273 282 *;
#X obj 197 348 +;
#X obj 196 374 + 1;
#X obj 120 440 /;
#X msg 102 413 1;
#X obj 114 390 t b f;
#X obj 287 439 - 1;
#X obj 283 465 * 2;
#X obj 237 524 *~;
#X obj 411 430 -;
#X obj 406 375 t b f;
#X msg 402 397 1;
#X obj 410 326 *;
#X obj 397 485 +~;
#X connect 0 0 24 0;
#X connect 5 0 39 1;
#X connect 7 0 8 0;
#X connect 16 0 29 0;
#X connect 18 0 19 0;
#X connect 18 1 19 1;
#X connect 19 0 20 0;
#X connect 19 1 20 1;
#X connect 20 0 21 0;
#X connect 20 1 21 1;
#X connect 21 0 1 0;
#X connect 22 0 21 3;
#X connect 23 0 20 3;
#X connect 23 0 22 0;
#X connect 24 0 18 0;
#X connect 25 0 20 2;
#X connect 25 0 21 2;
#X connect 25 0 28 0;
#X connect 25 0 28 1;
#X connect 28 0 29 1;
#X connect 29 0 23 0;
#X connect 33 0 19 3;
#X connect 33 0 18 3;
#X connect 34 0 18 2;
#X connect 34 0 19 2;
#X connect 36 0 48 0;
#X connect 37 0 45 0;
#X connect 38 0 39 0;
#X connect 39 0 40 0;
#X connect 40 0 49 0;
#X connect 40 0 63 0;
#X connect 41 0 46 0;
#X connect 42 0 43 0;
#X connect 42 1 41 1;
#X connect 43 0 41 0;
#X connect 44 0 42 0;
#X connect 45 0 44 0;
#X connect 45 1 48 0;
#X connect 46 0 51 1;
#X connect 46 0 63 1;
#X connect 47 0 38 0;
#X connect 47 1 44 0;
#X connect 48 0 47 0;
#X connect 49 0 50 0;
#X connect 49 1 50 1;
#X connect 49 1 51 0;
#X connect 50 0 52 0;
#X connect 50 0 57 0;
#X connect 50 0 64 0;
#X connect 51 0 52 1;
#X connect 52 0 53 0;
#X connect 53 0 8 1;
#X connect 53 0 56 0;
#X connect 54 0 24 1;
#X connect 54 0 16 0;
#X connect 54 0 59 0;
#X connect 55 0 54 0;
#X connect 56 0 55 0;
#X connect 56 1 54 1;
#X connect 57 0 58 0;
#X connect 58 0 59 1;
#X connect 59 0 25 0;
#X connect 60 0 64 1;
#X connect 61 0 62 0;
#X connect 61 1 60 1;
#X connect 62 0 60 0;
#X connect 63 0 61 0;
#X connect 64 0 16 1;
#X restore 196 556 pd hipass2p2zm;
#N canvas 486 219 1076 837 hipass2p2zm 0;
#X obj -47 497 inlet~;
#X obj 128 927 outlet~;
#X text 391 24 resonance 0..1;
#X text 156 94 cutoff (hz);
#X text 572 141 c= tan(pi*cutf/samplerate);
#X obj 245 49 samplerate~;
#X text 91 160 c;
#X obj 137 290 sig~ 1;
#X obj 165 418 /~;
#X text 573 165 a1= 1/(1+res+c+c*c);
#X text 573 186 a2= -2*a1;
#X text 99 483 a2;
#X text 136 349 a1/a3;
#X text 574 205 b1= 2*(c*c-1)*a1;
#X text 256 428 b1;
#X text 384 379 b2;
#X obj 353 534 *~;
#X text 573 221 b2= (1-res*c+c*c)*a1;
#X obj 33 690 czero~;
#X obj 59 727 czero~;
#X obj 90 841 cpole~;
#X obj 129 888 cpole~;
#X obj 178 840 *~ -1;
#X obj 184 805 expr~ sqrt($v1);
#X obj -44 595 *~;
#X obj 128 704 *~ -0.5;
#X text 219 845 2nd pole = 1st mirrored on the x axis;
#X text 183 704 b1/2 (x pos);
#X obj 163 748 *~;
#X obj 183 781 -~;
#X text 217 666 pole position from coeffs:;
#X text 218 683 p=-b1/2+j*sqrt(b2-(b1/2)^2) (found somewhere on the
net...);
#X text 573 99 cookbook-like? (i cant remember where i got this from)
hp-filter;
#X obj 90 670 sig~ 0;
#X obj 73 646 sig~ 1;
#X text 44 625 zeros at fixed pos;
#X obj 67 26 inlet;
#X obj 348 25 inlet;
#X obj 108 128 * 3.14159;
#X obj 135 159 / 44100;
#X obj 140 186 expr tan($f1);
#X obj 351 169 -;
#X obj 346 114 t b f;
#X msg 342 136 1;
#X obj 354 86 float 0.5;
#X obj 355 62 t f b;
#X obj 352 203 * 1.41421;
#X obj 88 93 t f b;
#X obj 72 53 float 440;
#X obj 137 223 t f f;
#X obj 194 284 *;
#X obj 273 282 *;
#X obj 197 348 +;
#X obj 196 374 + 1;
#X obj 120 440 /;
#X msg 102 413 1;
#X obj 114 390 t b f;
#X obj 287 439 - 1;
#X obj 283 465 * 2;
#X obj 237 524 *~;
#X obj 411 430 -;
#X obj 406 375 t b f;
#X msg 402 397 1;
#X obj 410 326 *;
#X obj 397 485 +~;
#X connect 0 0 24 0;
#X connect 5 0 39 1;
#X connect 7 0 8 0;
#X connect 16 0 29 0;
#X connect 18 0 19 0;
#X connect 18 1 19 1;
#X connect 19 0 20 0;
#X connect 19 1 20 1;
#X connect 20 0 21 0;
#X connect 20 1 21 1;
#X connect 21 0 1 0;
#X connect 22 0 21 3;
#X connect 23 0 20 3;
#X connect 23 0 22 0;
#X connect 24 0 18 0;
#X connect 25 0 20 2;
#X connect 25 0 21 2;
#X connect 25 0 28 0;
#X connect 25 0 28 1;
#X connect 28 0 29 1;
#X connect 29 0 23 0;
#X connect 33 0 19 3;
#X connect 33 0 18 3;
#X connect 34 0 18 2;
#X connect 34 0 19 2;
#X connect 36 0 48 0;
#X connect 37 0 45 0;
#X connect 38 0 39 0;
#X connect 39 0 40 0;
#X connect 40 0 49 0;
#X connect 40 0 63 0;
#X connect 41 0 46 0;
#X connect 42 0 43 0;
#X connect 42 1 41 1;
#X connect 43 0 41 0;
#X connect 44 0 42 0;
#X connect 45 0 44 0;
#X connect 45 1 48 0;
#X connect 46 0 51 1;
#X connect 46 0 63 1;
#X connect 47 0 38 0;
#X connect 47 1 44 0;
#X connect 48 0 47 0;
#X connect 49 0 50 0;
#X connect 49 1 50 1;
#X connect 49 1 51 0;
#X connect 50 0 52 0;
#X connect 50 0 57 0;
#X connect 50 0 64 0;
#X connect 51 0 52 1;
#X connect 52 0 53 0;
#X connect 53 0 8 1;
#X connect 53 0 56 0;
#X connect 54 0 24 1;
#X connect 54 0 16 0;
#X connect 54 0 59 0;
#X connect 55 0 54 0;
#X connect 56 0 55 0;
#X connect 56 1 54 1;
#X connect 57 0 58 0;
#X connect 58 0 59 1;
#X connect 59 0 25 0;
#X connect 60 0 64 1;
#X connect 61 0 62 0;
#X connect 61 1 60 1;
#X connect 62 0 60 0;
#X connect 63 0 61 0;
#X connect 64 0 16 1;
#X restore 222 592 pd hipass2p2zm;
#X obj 235 161 hradio 10 1 1 2 empty empty 2p-4p -32 5 0 10 -262144
-1 -1 0;
#X obj 232 657 *~;
#X obj 185 605 *~;
#X obj 154 560 == 0;
#X connect 0 0 12 0;
#X connect 1 0 4 1;
#X connect 2 0 1 0;
#X connect 3 0 6 1;
#X connect 4 0 0 0;
#X connect 5 0 7 0;
#X connect 6 0 4 0;
#X connect 7 0 6 0;
#X connect 8 0 7 0;
#X connect 8 0 31 0;
#X connect 8 0 19 0;
#X connect 9 0 8 0;
#X connect 10 0 5 0;
#X connect 11 0 12 1;
#X connect 12 0 42 0;
#X connect 13 0 16 1;
#X connect 14 0 13 0;
#X connect 15 0 18 1;
#X connect 16 0 24 0;
#X connect 17 0 19 0;
#X connect 18 0 16 0;
#X connect 19 0 23 0;
#X connect 20 0 17 0;
#X connect 21 0 42 2;
#X connect 21 0 43 2;
#X connect 23 0 18 0;
#X connect 24 0 42 1;
#X connect 24 0 43 1;
#X connect 25 0 28 1;
#X connect 26 0 25 0;
#X connect 27 0 30 1;
#X connect 28 0 36 0;
#X connect 29 0 31 0;
#X connect 30 0 28 0;
#X connect 31 0 35 0;
#X connect 32 0 29 0;
#X connect 33 0 34 1;
#X connect 33 0 38 0;
#X connect 34 0 40 1;
#X connect 35 0 30 0;
#X connect 36 0 34 0;
#X connect 37 0 22 0;
#X connect 38 0 39 0;
#X connect 39 0 40 0;
#X connect 40 0 41 1;
#X connect 41 0 37 0;
#X connect 42 0 43 0;
#X connect 42 0 46 0;
#X connect 43 0 45 0;
#X connect 44 0 45 1;
#X connect 44 0 47 0;
#X connect 45 0 41 0;
#X connect 46 0 41 0;
#X connect 47 0 46 1;
#X coords 0 -1 1 1 160 170 1 100 100;
#X restore -203 -192 pd rmcricket1v;
#X connect 2 0 0 0;
#X connect 2 0 0 1;
