#N canvas 320 288 450 300 10;
#N canvas 131 80 1362 994 rot_speaker1 0;
#X obj 260 126 inlet~;
#X obj 444 979 outlet~;
#X obj 115 387 phasor~;
#X obj 114 417 cos~;
#X obj 114 443 +~ 1;
#X obj 140 620 *~;
#X obj 181 547 -~;
#X obj 152 497 sig~ 1;
#X obj 106 119 hsl 128 8 1 30 1 1 empty empty empty -2 -8 0 10 -262144
-1 -1 4500 1;
#X obj 292 491 snapshot~;
#X obj 531 85 loadbang;
#X msg 547 150 bang;
#X obj 541 195 metro 4;
#X obj 208 664 -;
#X obj 230 572 t b f;
#X obj 228 540 * 5000;
#X obj 137 694 lop~ 12000;
#X msg 205 611 12000;
#X obj 539 980 outlet~;
#N canvas 0 0 450 300 pan1 0;
#X obj 120 15 inlet;
#X obj 297 51 inlet~;
#X obj 256 225 outlet~;
#X obj 336 218 outlet~;
#X obj 251 149 *~;
#X obj 323 154 *~;
#X obj 276 122 + 1;
#X obj 335 113 * -1;
#X obj 208 75 * -1;
#X obj 160 42 clip 0 1;
#X connect 0 0 9 0;
#X connect 1 0 4 0;
#X connect 1 0 5 1;
#X connect 4 0 2 0;
#X connect 5 0 3 0;
#X connect 6 0 4 1;
#X connect 7 0 5 0;
#X connect 8 0 6 0;
#X connect 8 0 7 0;
#X connect 9 0 8 0;
#X restore 130 821 pd pan1;
#X obj 690 419 phasor~;
#X obj 689 449 cos~;
#X obj 689 475 +~ 1;
#X obj 715 652 *~;
#X obj 756 579 -~;
#X obj 727 529 sig~ 1;
#X obj 867 523 snapshot~;
#X obj 799 686 -;
#X obj 805 604 t b f;
#X obj 803 572 * 5000;
#X obj 712 726 lop~ 12000;
#X msg 780 643 12000;
#N canvas 0 0 450 300 pan1 0;
#X obj 120 15 inlet;
#X obj 297 51 inlet~;
#X obj 256 225 outlet~;
#X obj 336 218 outlet~;
#X obj 251 149 *~;
#X obj 323 154 *~;
#X obj 276 122 + 1;
#X obj 335 113 * -1;
#X obj 208 75 * -1;
#X obj 160 42 clip 0 1;
#X connect 0 0 9 0;
#X connect 1 0 4 0;
#X connect 1 0 5 1;
#X connect 4 0 2 0;
#X connect 5 0 3 0;
#X connect 6 0 4 1;
#X connect 7 0 5 0;
#X connect 8 0 6 0;
#X connect 8 0 7 0;
#X connect 9 0 8 0;
#X restore 705 853 pd pan1;
#X obj 233 219 *~ 0.5;
#X obj 540 492 lop~ 600;
#X obj -43 504 hip~ 600;
#X obj 149 257 random 1000;
#X obj 125 364 +;
#X obj 138 326 line;
#X msg 141 301 \$1 100;
#X obj 144 282 / 6000;
#X obj 539 241 random 1000;
#X obj 565 344 +;
#X obj 532 310 line;
#X msg 535 285 \$1 100;
#X obj 538 266 / 6000;
#X text -47 35 quick and dirty rotating speakers;
#X text 22 519 high;
#X text 581 529 low;
#X obj 265 723 * 0.05;
#X obj 264 747 + 0.495;
#X obj 840 755 * 0.1;
#X obj 839 779 + 0.49;
#X obj 208 496 *~ 0.2;
#X obj 52 505 *~ 1;
#X obj 628 537 *~ 1;
#X obj 783 528 *~ 0.15;
#X obj 375 669 abs_dly_rotating_speaker1;
#X connect 0 0 33 0;
#X connect 2 0 3 0;
#X connect 3 0 4 0;
#X connect 4 0 9 0;
#X connect 4 0 53 0;
#X connect 4 0 54 0;
#X connect 5 0 16 0;
#X connect 6 0 5 1;
#X connect 7 0 6 0;
#X connect 8 0 37 1;
#X connect 8 0 42 1;
#X connect 9 0 15 0;
#X connect 9 0 49 0;
#X connect 10 0 12 0;
#X connect 11 0 12 0;
#X connect 12 0 9 0;
#X connect 12 0 26 0;
#X connect 12 0 36 0;
#X connect 12 0 41 0;
#X connect 13 0 16 1;
#X connect 14 0 17 0;
#X connect 14 1 13 1;
#X connect 15 0 14 0;
#X connect 16 0 19 1;
#X connect 17 0 13 0;
#X connect 19 0 1 0;
#X connect 19 1 18 0;
#X connect 20 0 21 0;
#X connect 21 0 22 0;
#X connect 22 0 26 0;
#X connect 22 0 55 0;
#X connect 22 0 56 0;
#X connect 23 0 30 0;
#X connect 24 0 23 1;
#X connect 25 0 24 0;
#X connect 26 0 29 0;
#X connect 26 0 51 0;
#X connect 27 0 30 1;
#X connect 28 0 31 0;
#X connect 28 1 27 1;
#X connect 29 0 28 0;
#X connect 30 0 32 1;
#X connect 31 0 27 0;
#X connect 32 0 1 0;
#X connect 32 1 18 0;
#X connect 33 0 34 0;
#X connect 33 0 35 0;
#X connect 34 0 57 2;
#X connect 35 0 57 0;
#X connect 36 0 40 0;
#X connect 37 0 2 0;
#X connect 38 0 37 0;
#X connect 39 0 38 0;
#X connect 40 0 39 0;
#X connect 41 0 45 0;
#X connect 42 0 20 0;
#X connect 43 0 42 0;
#X connect 44 0 43 0;
#X connect 45 0 44 0;
#X connect 49 0 50 0;
#X connect 50 0 19 0;
#X connect 51 0 52 0;
#X connect 52 0 32 0;
#X connect 53 0 6 1;
#X connect 54 0 57 1;
#X connect 55 0 57 3;
#X connect 56 0 24 1;
#X connect 57 0 5 0;
#X connect 57 1 23 0;
#X coords 0 -1 1 1 140 30 1 100 100;
#X restore 40 60 pd rot_speaker1;
