#N canvas 93 136 1016 632 10;
#X obj 145 -140 loadbang;
#X obj 167 68 playlist all 400 205 {Helvetica 10 bold} white yellow
black red;
#X msg 132 -103 location /home/mnb/samplelib;
#X msg 156 -53 location /home/mnb/wave_wrk;
#X msg 176 -31 location ..;
#X msg 143 -76 location /home/mnb/archiv/sounds;
#X obj -313 276 dac~;
#N canvas 336 80 898 688 sample_cue_1m 0;
#X obj 604 43 loadbang;
#X obj 177 756 outlet~;
#X obj 742 116 inlet;
#X text 777 117 <-filename;
#X msg 686 169 set symbol \$1;
#X obj 663 144 t b a;
#X obj 340 103 bng 15 250 50 0 empty empty empty 17 7 0 10 -262144
-1 -1;
#X obj 646 86 openpanel;
#X symbolatom 203 105 22 0 0 0 - - -;
#X obj 150 599 abs_sampletrigger1;
#X obj 627 382 soundfiler;
#X msg 627 360 read -resize \$2 \$1oneshotsmpl;
#X obj 632 310 float;
#X obj 633 337 pack f s;
#X obj 293 18 inlet;
#X text 332 17 nr;
#X obj 294 44 select 1 2 3 4 5 6 7 8;
#X obj 142 139 bng 15 250 50 0 empty empty empty 17 7 0 10 -262144
-1 -1;
#X obj 103 123 nbx 5 14 0 100 0 1 empty empty empty 0 -8 0 10 -262144
-1 -1 0 256;
#X obj 92 435 / 100;
#X obj 90 458 *;
#X obj 56 481 float;
#X obj 111 376 t b f;
#X obj 93 405 +;
#X obj 103 140 nbx 3 14 0 99 0 1 empty empty empty 0 -8 0 10 -262144
-1 -1 0 256;
#X obj 110 355 / 10000;
#X obj 202 139 bng 15 250 50 0 empty empty empty 17 7 0 10 -262144
-1 -1;
#X obj 163 123 nbx 5 14 0 100 0 1 empty empty empty 0 -8 0 10 -262144
-1 -1 12 256;
#X obj 152 435 / 100;
#X obj 150 458 *;
#X obj 116 481 float;
#X obj 171 376 t b f;
#X obj 153 405 +;
#X obj 163 140 nbx 3 14 0 99 0 1 empty empty empty 0 -8 0 10 -262144
-1 -1 0 256;
#X obj 170 355 / 10000;
#X obj 262 139 bng 15 250 50 0 empty empty empty 17 7 0 10 -262144
-1 -1;
#X obj 223 123 nbx 5 14 0 100 0 1 empty empty empty 0 -8 0 10 -262144
-1 -1 24 256;
#X obj 212 435 / 100;
#X obj 210 458 *;
#X obj 176 481 float;
#X obj 231 376 t b f;
#X obj 213 405 +;
#X obj 223 140 nbx 3 14 0 99 0 1 empty empty empty 0 -8 0 10 -262144
-1 -1 0 256;
#X obj 230 355 / 10000;
#X obj 322 139 bng 15 250 50 0 empty empty empty 17 7 0 10 -262144
-1 -1;
#X obj 283 123 nbx 5 14 0 100 0 1 empty empty empty 0 -8 0 10 -262144
-1 -1 36 256;
#X obj 272 435 / 100;
#X obj 270 458 *;
#X obj 236 481 float;
#X obj 291 376 t b f;
#X obj 273 405 +;
#X obj 283 140 nbx 3 14 0 99 0 1 empty empty empty 0 -8 0 10 -262144
-1 -1 0 256;
#X obj 290 355 / 10000;
#X obj 382 139 bng 15 250 50 0 empty empty empty 17 7 0 10 -262144
-1 -1;
#X obj 343 123 nbx 5 14 0 100 0 1 empty empty empty 0 -8 0 10 -262144
-1 -1 48 256;
#X obj 332 435 / 100;
#X obj 330 458 *;
#X obj 296 481 float;
#X obj 351 376 t b f;
#X obj 333 405 +;
#X obj 343 140 nbx 3 14 0 99 0 1 empty empty empty 0 -8 0 10 -262144
-1 -1 0 256;
#X obj 350 355 / 10000;
#X obj 442 139 bng 15 250 50 0 empty empty empty 17 7 0 10 -262144
-1 -1;
#X obj 403 123 nbx 5 14 0 100 0 1 empty empty empty 0 -8 0 10 -262144
-1 -1 60 256;
#X obj 392 435 / 100;
#X obj 390 458 *;
#X obj 356 481 float;
#X obj 411 376 t b f;
#X obj 393 405 +;
#X obj 403 140 nbx 3 14 0 99 0 1 empty empty empty 0 -8 0 10 -262144
-1 -1 0 256;
#X obj 410 355 / 10000;
#X obj 502 139 bng 15 250 50 0 empty empty empty 17 7 0 10 -262144
-1 -1;
#X obj 463 123 nbx 5 14 0 100 0 1 empty empty empty 0 -8 0 10 -262144
-1 -1 72 256;
#X obj 452 435 / 100;
#X obj 450 458 *;
#X obj 416 481 float;
#X obj 471 376 t b f;
#X obj 453 405 +;
#X obj 463 140 nbx 3 14 0 99 0 1 empty empty empty 0 -8 0 10 -262144
-1 -1 0 256;
#X obj 470 355 / 10000;
#X obj 562 139 bng 15 250 50 0 empty empty empty 17 7 0 10 -262144
-1 -1;
#X obj 523 123 nbx 5 14 0 100 0 1 empty empty empty 0 -8 0 10 -262144
-1 -1 84 256;
#X obj 512 435 / 100;
#X obj 510 458 *;
#X obj 476 481 float;
#X obj 531 376 t b f;
#X obj 513 405 +;
#X obj 523 140 nbx 3 14 0 99 0 1 empty empty empty 0 -8 0 10 -262144
-1 -1 0 256;
#X obj 530 355 / 10000;
#X obj 637 266 t b b a;
#X obj 363 104 hsl 128 15 0 1 0 1 empty empty attack -2 8 0 10 -262144
-1 -1 0 1;
#X obj 178 731 *~;
#X msg 339 619 0;
#X obj 292 656 line~;
#X obj 269 697 *~;
#X obj 463 520 t f f;
#X obj 464 545 *;
#X obj 461 569 * 10000;
#X obj 277 618 pack 1 f;
#X obj 215 539 t b b f;
#X text 44 122 percent;
#X text 44 142 fine;
#X msg 603 196;
#X connect 0 0 102 0;
#X connect 2 0 5 0;
#X connect 4 0 102 0;
#X connect 5 0 102 0;
#X connect 5 1 4 0;
#X connect 6 0 7 0;
#X connect 7 0 5 0;
#X connect 9 0 91 0;
#X connect 9 1 12 1;
#X connect 10 0 20 1;
#X connect 10 0 29 1;
#X connect 10 0 38 1;
#X connect 10 0 47 1;
#X connect 10 0 56 1;
#X connect 10 0 65 1;
#X connect 10 0 74 1;
#X connect 10 0 83 1;
#X connect 11 0 10 0;
#X connect 12 0 13 0;
#X connect 13 0 11 0;
#X connect 14 0 16 0;
#X connect 16 0 17 0;
#X connect 16 1 26 0;
#X connect 16 2 35 0;
#X connect 16 3 44 0;
#X connect 16 4 53 0;
#X connect 16 5 62 0;
#X connect 16 6 71 0;
#X connect 16 7 80 0;
#X connect 17 0 21 0;
#X connect 18 0 23 0;
#X connect 19 0 20 0;
#X connect 20 0 21 1;
#X connect 21 0 99 0;
#X connect 22 0 23 0;
#X connect 22 1 23 1;
#X connect 23 0 19 0;
#X connect 24 0 25 0;
#X connect 25 0 22 0;
#X connect 26 0 30 0;
#X connect 27 0 32 0;
#X connect 28 0 29 0;
#X connect 29 0 30 1;
#X connect 30 0 99 0;
#X connect 31 0 32 0;
#X connect 31 1 32 1;
#X connect 32 0 28 0;
#X connect 33 0 34 0;
#X connect 34 0 31 0;
#X connect 35 0 39 0;
#X connect 36 0 41 0;
#X connect 37 0 38 0;
#X connect 38 0 39 1;
#X connect 39 0 99 0;
#X connect 40 0 41 0;
#X connect 40 1 41 1;
#X connect 41 0 37 0;
#X connect 42 0 43 0;
#X connect 43 0 40 0;
#X connect 44 0 48 0;
#X connect 45 0 50 0;
#X connect 46 0 47 0;
#X connect 47 0 48 1;
#X connect 48 0 99 0;
#X connect 49 0 50 0;
#X connect 49 1 50 1;
#X connect 50 0 46 0;
#X connect 51 0 52 0;
#X connect 52 0 49 0;
#X connect 53 0 57 0;
#X connect 54 0 59 0;
#X connect 55 0 56 0;
#X connect 56 0 57 1;
#X connect 57 0 99 0;
#X connect 58 0 59 0;
#X connect 58 1 59 1;
#X connect 59 0 55 0;
#X connect 60 0 61 0;
#X connect 61 0 58 0;
#X connect 62 0 66 0;
#X connect 63 0 68 0;
#X connect 64 0 65 0;
#X connect 65 0 66 1;
#X connect 66 0 99 0;
#X connect 67 0 68 0;
#X connect 67 1 68 1;
#X connect 68 0 64 0;
#X connect 69 0 70 0;
#X connect 70 0 67 0;
#X connect 71 0 75 0;
#X connect 72 0 77 0;
#X connect 73 0 74 0;
#X connect 74 0 75 1;
#X connect 75 0 99 0;
#X connect 76 0 77 0;
#X connect 76 1 77 1;
#X connect 77 0 73 0;
#X connect 78 0 79 0;
#X connect 79 0 76 0;
#X connect 80 0 84 0;
#X connect 81 0 86 0;
#X connect 82 0 83 0;
#X connect 83 0 84 1;
#X connect 84 0 99 0;
#X connect 85 0 86 0;
#X connect 85 1 86 1;
#X connect 86 0 82 0;
#X connect 87 0 88 0;
#X connect 88 0 85 0;
#X connect 89 0 87 0;
#X connect 89 0 81 0;
#X connect 89 0 78 0;
#X connect 89 0 72 0;
#X connect 89 0 69 0;
#X connect 89 0 63 0;
#X connect 89 0 54 0;
#X connect 89 0 60 0;
#X connect 89 0 45 0;
#X connect 89 0 51 0;
#X connect 89 0 36 0;
#X connect 89 0 42 0;
#X connect 89 0 27 0;
#X connect 89 0 33 0;
#X connect 89 0 18 0;
#X connect 89 0 24 0;
#X connect 89 1 12 0;
#X connect 89 2 13 1;
#X connect 90 0 95 0;
#X connect 91 0 1 0;
#X connect 92 0 93 0;
#X connect 93 0 94 1;
#X connect 93 0 94 0;
#X connect 94 0 91 1;
#X connect 95 0 96 0;
#X connect 95 1 96 1;
#X connect 96 0 97 0;
#X connect 97 0 98 1;
#X connect 98 0 93 0;
#X connect 99 0 98 0;
#X connect 99 1 92 0;
#X connect 99 2 9 0;
#X connect 102 0 8 0;
#X connect 102 0 89 0;
#X coords 0 -1 1 1 480 60 1 100 100;
#X restore -321 70 pd sample_cue_1m;
#X obj -311 234 *~ 0.5;
#X obj -260 -91 key;
#X obj -229 -101 select 113 119 101 114 116 122 117 105 97 115 100
102 103 104 106 107;
#X text -356 -110 qwertzui asdfghjk;
#X msg -229 -62 1;
#X msg -199 -62 2;
#X msg -169 -62 3;
#X msg -139 -63 4;
#X msg -110 -64 5;
#X msg -80 -64 6;
#X msg -51 -64 7;
#X msg -21 -65 8;
#X text -156 19 trigger 8 different startpoints in a sample;
#X obj -333 -82 notein;
#X obj -333 -49 stripnote;
#X connect 0 0 2 0;
#X connect 1 0 7 1;
#X connect 2 0 1 0;
#X connect 3 0 1 0;
#X connect 4 0 1 0;
#X connect 5 0 1 0;
#X connect 7 0 8 0;
#X connect 8 0 6 0;
#X connect 8 0 6 1;
#X connect 9 0 10 0;
#X connect 10 0 12 0;
#X connect 10 1 13 0;
#X connect 10 2 14 0;
#X connect 10 3 15 0;
#X connect 10 4 16 0;
#X connect 10 5 17 0;
#X connect 10 6 18 0;
#X connect 10 7 19 0;
#X connect 12 0 7 0;
#X connect 13 0 7 0;
#X connect 14 0 7 0;
#X connect 15 0 7 0;
#X connect 16 0 7 0;
#X connect 17 0 7 0;
#X connect 18 0 7 0;
#X connect 19 0 7 0;
#X connect 21 0 22 0;
#X connect 21 1 22 1;
#X connect 22 0 10 0;
