#N canvas 496 180 789 687 10;
#N canvas 358 146 1521 915 osp1 0;
#X obj 328 48 loadbang;
#X obj 71 491 outlet~;
#X obj 466 121 inlet;
#X text 501 122 <-filename;
#X msg 410 174 set symbol \$1;
#X obj 387 149 t b a;
#X obj 160 102 bng 15 250 50 0 empty empty empty 17 7 0 10 -262144
-1 -1;
#X obj 34 50 inlet;
#X text 73 49 pos;
#X obj 370 91 openpanel;
#X symbolatom 104 120 22 0 0 0 - - -;
#X obj 209 103 nbx 2 14 1 99 0 1 empty empty empty 0 -8 0 10 -262144
-1 -1 2 256;
#X obj 179 103 nbx 2 14 1 16 0 1 empty empty empty 0 -8 0 10 -262144
-1 -1 16 256;
#X obj 76 287 mod;
#X obj 76 348 select 0;
#X obj 107 135 hsl 128 8 0 1 0 0 empty empty empty -2 -8 0 10 -262144
-1 -1 10319 1;
#X text 135 51 bar len (1/16);
#X text 218 75 bars;
#X obj 200 218 *;
#X obj 207 189 t b f;
#X obj 178 281 /;
#X obj 169 248 mod;
#X obj 75 312 change;
#X obj 82 400 abs_sampletrigger1;
#X msg 327 201;
#X obj 339 385 soundfiler;
#X obj 360 271 t b a;
#X msg 340 359 read -resize \$2 \$1oneshotsmpl;
#X obj 354 302 float;
#X obj 349 333 pack f s;
#X connect 0 0 24 0;
#X connect 2 0 5 0;
#X connect 4 0 24 0;
#X connect 5 0 24 0;
#X connect 5 1 4 0;
#X connect 6 0 9 0;
#X connect 7 0 21 0;
#X connect 7 0 13 0;
#X connect 9 0 5 0;
#X connect 11 0 19 0;
#X connect 12 0 18 0;
#X connect 13 0 22 0;
#X connect 14 0 23 0;
#X connect 18 0 21 1;
#X connect 18 0 20 1;
#X connect 18 0 13 1;
#X connect 19 0 18 0;
#X connect 19 1 18 1;
#X connect 20 0 15 0;
#X connect 21 0 20 0;
#X connect 22 0 14 0;
#X connect 23 0 1 0;
#X connect 23 1 28 1;
#X connect 24 0 10 0;
#X connect 24 0 26 0;
#X connect 26 0 28 0;
#X connect 26 1 29 1;
#X connect 27 0 25 0;
#X connect 28 0 29 0;
#X connect 29 0 27 0;
#X coords 0 -1 1 1 140 45 1 100 100;
#X restore -124 -66 pd osp1;
#N canvas 218 81 1184 711 songpos96-16 0;
#X obj 318 440 + 1;
#X obj 267 436 float;
#X msg 206 296 1;
#X obj 218 321 /;
#X obj 209 273 t f f;
#X obj 228 344 * 15000;
#X obj 339 355 t b f;
#X obj 263 405 metro 125;
#X msg 340 329 -2;
#X obj 172 17 loadbang;
#X floatatom 126 113 5 30 300 0 bpm - -;
#X msg -2 85 set \$1;
#X msg 5 139 110;
#X obj 174 112 bng 15 250 50 0 empty empty empty 6 7 0 10 -261234 -1
-1;
#X obj 278 636 outlet;
#X obj 570 496 outlet;
#X text 618 497 bpm->;
#X obj 200 112 bng 15 50 20 0 empty empty empty 6 7 0 10 -204786 -1
-1;
#X obj 208 225 float;
#X obj 435 539 outlet;
#X text 144 343 1/16 in ms;
#X text 485 540 pos96->;
#X obj 259 373 / 6;
#X text 219 371 1/96;
#X obj 280 481 / 6;
#X obj 280 505 int;
#X obj 279 530 change;
#X obj 600 64 + 1;
#X obj 602 29 float;
#X obj 600 96 moses 2;
#X obj 600 155 timer;
#X obj 600 123 t b;
#X obj 648 122 t b b;
#X obj 653 243 /;
#X msg 623 221 60000;
#X obj 618 183 t b f;
#X obj 656 268 moses 10;
#X text 500 72 beatcounter;
#X obj 772 358 float;
#X obj 769 401 + 1;
#X obj 688 426 +;
#X obj 729 396 *;
#X obj 705 328 t f b;
#X obj 698 464 /;
#X msg 884 211 0;
#X text 499 302 mean (as seen on idafx blog);
#X obj 864 324 t f f;
#X obj 921 503 moses 0.1;
#X text 880 303 reset;
#X obj 870 366 /;
#X obj 849 431 < 0.75;
#X obj 903 435 > 1.25;
#X obj 869 391 t f f;
#X obj 877 471 ||;
#X obj 174 54 t b b b;
#X obj 43 -7 inlet;
#X obj 107 -11 inlet;
#X text 329 637 pos16->;
#X text 46 14 sync;
#X text 111 10 tap;
#X connect 0 0 1 1;
#X connect 0 0 24 0;
#X connect 0 0 19 0;
#X connect 1 0 0 0;
#X connect 2 0 3 0;
#X connect 3 0 5 0;
#X connect 4 0 2 0;
#X connect 4 1 3 1;
#X connect 5 0 22 0;
#X connect 6 0 7 0;
#X connect 6 1 1 0;
#X connect 7 0 1 0;
#X connect 8 0 6 0;
#X connect 9 0 54 0;
#X connect 10 0 11 0;
#X connect 10 0 18 1;
#X connect 11 0 12 0;
#X connect 12 0 10 0;
#X connect 13 0 8 0;
#X connect 13 0 18 0;
#X connect 17 0 28 0;
#X connect 18 0 4 0;
#X connect 18 0 15 0;
#X connect 22 0 7 1;
#X connect 24 0 25 0;
#X connect 25 0 26 0;
#X connect 26 0 14 0;
#X connect 27 0 28 1;
#X connect 27 0 29 0;
#X connect 28 0 27 0;
#X connect 29 0 31 0;
#X connect 29 1 32 0;
#X connect 30 0 35 0;
#X connect 30 0 46 0;
#X connect 31 0 30 0;
#X connect 32 0 30 0;
#X connect 32 1 30 1;
#X connect 33 0 36 0;
#X connect 34 0 33 0;
#X connect 35 0 34 0;
#X connect 35 1 33 1;
#X connect 36 1 42 0;
#X connect 38 0 39 0;
#X connect 38 0 41 0;
#X connect 39 0 38 1;
#X connect 39 0 43 1;
#X connect 40 0 43 0;
#X connect 41 0 40 1;
#X connect 42 0 40 0;
#X connect 42 1 38 0;
#X connect 43 0 41 1;
#X connect 43 0 10 0;
#X connect 44 0 38 1;
#X connect 44 0 28 1;
#X connect 46 0 49 1;
#X connect 46 1 49 0;
#X connect 47 1 44 0;
#X connect 49 0 52 0;
#X connect 50 0 53 0;
#X connect 51 0 53 1;
#X connect 52 0 50 0;
#X connect 52 1 51 0;
#X connect 53 0 47 0;
#X connect 54 0 13 0;
#X connect 54 1 13 0;
#X connect 54 2 12 0;
#X connect 55 0 13 0;
#X connect 56 0 17 0;
#X coords 0 -1 1 1 120 30 1 100 100;
#X restore -130 -122 pd songpos96-16;
#X connect 1 0 0 0;
