#N canvas 331 79 970 840 10;
#X obj -8 492 dac~;
#X obj 0 457 *~ 0.5;
#X obj -32 -298 loadbang;
#X obj -2 -138 playlist all 800 410 {Helvetica 10 bold} white yellow
black red;
#X msg 291 301 set \$1;
#X msg -27 -268 location /home/mnb/samplelib;
#X msg 9 -224 location /home/mnb/wave_wrk;
#X msg 28 -178 location ..;
#X msg -5 -245 location /home/mnb/archiv/sounds;
#X obj -12 406 readsf~;
#X msg 12 376 open \$1;
#X obj -11 350 t b a;
#X msg -25 374 1;
#X msg 70 405 set \$1;
#X msg 21 -203 location /home/mnb/sound_recordings;
#X msg 77 446;
#X msg 193 353;
#X connect 1 0 0 0;
#X connect 1 0 0 1;
#X connect 2 0 5 0;
#X connect 3 0 11 0;
#X connect 3 0 13 0;
#X connect 3 1 4 0;
#X connect 4 0 16 0;
#X connect 5 0 3 0;
#X connect 6 0 3 0;
#X connect 7 0 3 0;
#X connect 8 0 3 0;
#X connect 9 0 1 0;
#X connect 10 0 9 0;
#X connect 11 0 12 0;
#X connect 11 1 10 0;
#X connect 12 0 9 0;
#X connect 13 0 15 0;
#X connect 14 0 3 0;
