#N canvas 385 296 1171 596 10;
#X floatatom 9 65 5 0 0 0 - - -;
#X floatatom 400 78 5 0 0 0 - - -;
#N canvas 277 119 1474 918 scene_sq1 0;
#X obj 201 -107 route 0 1 2 3 4 5 6 7 8 9 10 11 12 13 14 15;
#X obj 54 16 bng 10 250 50 0 empty empty empty 17 7 0 10 -262144 -1
-262144;
#X obj 565 -252 * 6;
#X obj 1 26 cnv 8 95 8 empty empty empty 20 12 0 14 -99865 -66577 0
;
#X obj 97 26 cnv 8 94 8 empty empty empty 20 12 0 14 -191407 -66577
0;
#X obj 192 26 cnv 8 96 8 empty empty empty 20 12 0 14 -99865 -66577
0;
#X obj 289 26 cnv 8 95 8 empty empty empty 20 12 0 14 -191407 -66577
0;
#X obj 385 26 cnv 8 95 8 empty empty empty 20 12 0 14 -99865 -66577
0;
#X obj 481 26 cnv 8 96 8 empty empty empty 20 12 0 14 -191407 -66577
0;
#X obj 577 26 cnv 8 95 8 empty empty empty 20 12 0 14 -99865 -66577
0;
#X obj 673 26 cnv 8 95 8 empty empty empty 20 12 0 14 -191407 -66577
0;
#X msg 206 -133 \$1 pos \$2 \$3;
#X obj 517 -186 pack f f f;
#X obj 96 16 bng 10 250 50 0 empty empty empty 17 7 0 10 -262144 -1
-262144;
#X obj 132 16 bng 10 250 50 0 empty empty empty 17 7 0 10 -262144 -1
-262144;
#X obj 0 16 bng 10 250 50 0 empty empty empty 17 7 0 10 -262144 -1
-262144;
#X obj 130 3 bng 10 250 50 0 empty empty empty 17 7 0 10 -262144 -1
-262144;
#X obj 130 3 bng 10 250 50 0 empty empty empty 17 7 0 10 -262144 -1
-262144;
#X obj 130 3 bng 10 250 50 0 empty empty empty 17 7 0 10 -262144 -1
-262144;
#X obj 130 3 bng 10 250 50 0 empty empty empty 17 7 0 10 -262144 -1
-262144;
#X obj 130 3 bng 10 250 50 0 empty empty empty 17 7 0 10 -262144 -1
-262144;
#X obj 130 3 bng 10 250 50 0 empty empty empty 17 7 0 10 -262144 -1
-262144;
#X obj 130 3 bng 10 250 50 0 empty empty empty 17 7 0 10 -262144 -1
-262144;
#X obj 130 3 bng 10 250 50 0 empty empty empty 17 7 0 10 -262144 -1
-262144;
#X obj 130 3 bng 10 250 50 0 empty empty empty 17 7 0 10 -262144 -1
-262144;
#X obj 130 3 bng 10 250 50 0 empty empty empty 17 7 0 10 -262144 -1
-262144;
#X obj 130 3 bng 10 250 50 0 empty empty empty 17 7 0 10 -262144 -1
-262144;
#X msg -530 -400 0;
#X msg -500 -400 1;
#X msg -439 -400 3;
#X msg -469 -400 2;
#X msg -409 -400 4;
#X msg -379 -400 5;
#X msg -348 -400 6;
#X msg -319 -400 7;
#X msg -290 -400 8;
#X msg -260 -400 9;
#X msg -229 -400 10;
#X msg -199 -400 11;
#X msg -169 -400 12;
#X msg -139 -400 13;
#X msg -108 -400 14;
#X msg -79 -400 15;
#X obj 59 -321 int;
#X obj 83 -321 int;
#X obj 147 -355 route 0 1 2 3 4 5 6 7 8 9 10 11 12 13 14 15;
#X obj 108 -321 int;
#X obj 134 -321 int;
#X msg 202 -444 \$1 bang;
#X obj -92 -538 int;
#X obj 80 -388 route 0 1 2 3 4 5 6 7 8 9 10 11 12 13 14 15;
#X floatatom 629 2 5 1 16 0 - - -;
#X floatatom 724 2 5 0 128 0 - - -;
#X obj -37 -460 int;
#X obj -13 -430 pack f f;
#X obj 4 -497 t b f;
#X msg 733 -29 set \$1;
#X obj 161 -318 int;
#X obj 185 -318 int;
#X obj 210 -318 int;
#X obj 236 -318 int;
#X obj 264 -324 int;
#X obj 288 -324 int;
#X obj 313 -324 int;
#X obj 339 -324 int;
#X obj 366 -320 int;
#X obj 390 -320 int;
#X obj 415 -320 int;
#X obj 441 -320 int;
#X obj -126 -233 pack f f f f f f f f f f f f f f f f;
#X msg -126 -214 set \$1 \$2 \$3 \$4 \$5 \$6 \$7 \$8 \$9 \$10 \$11
\$12 \$13 \$14 \$15 \$16;
#X obj -111 -167 unpack f f f f f f f f f f f f f f f f;
#X msg 663 -133 set \$1;
#X text 598 0 nr;
#X text 688 0 pos;
#X obj 310 -551 int;
#X obj 341 -556 + 1;
#X obj 305 -581 until;
#X msg 350 -582 0;
#X obj 304 -609 t f b;
#X msg 268 -599 16;
#X msg -124 -191 6 9 16 22 0 -1 -1 -1 -1 -1 -1 -1 -1 -1 -1 -1;
#X obj -57 -373 loadbang;
#X obj -22 -349 t b b;
#X obj 492 -310 moses 0;
#X obj 303 -215 int;
#X obj 27 -546 - 1;
#X obj 764 -73 + 1;
#X obj 311 -526 t f f;
#X msg 597 -249 16;
#X obj 538 -285 t f b;
#X obj 36 16 bng 10 250 50 0 empty empty empty 17 7 0 10 -166441 -1
-262144;
#X obj 677 -165 + 1;
#X obj 582 -32 - 1;
#X msg 110 -112 \$1 color 0;
#X msg 102 -83 \$1 color 1;
#X obj -192 42 int;
#X obj -161 37 + 1;
#X obj -197 12 until;
#X msg -152 11 0;
#X obj -198 -16 t f b;
#X msg -201 -40 16;
#X obj -73 -492 t f b f;
#X obj 514 -518 int;
#X obj 546 -512 + 1;
#X obj 510 -540 until;
#X msg 556 -541 0;
#X obj 509 -568 t f b;
#X msg 534 -595 16;
#X obj 477 -702 inlet;
#X obj 598 -459 ==;
#X obj 511 -483 t f f;
#X obj 596 -300 outlet;
#X obj 598 -436 select 1;
#X obj 594 -373 int;
#X obj 307 -189 spigot 1;
#X obj 379 -208 spigot 0;
#X obj 557 -629 t b b f b;
#X msg 460 -600 1;
#X msg 467 -574 0;
#X msg 626 -583 1;
#X msg 659 -582 0;
#X obj 478 -683 mod;
#X obj 532 2 nbx 3 13 11 128 0 1 empty empty empty 0 -8 0 10 -262144
-1 -1 32 256;
#X text 506 0 len;
#X obj 4 31 hsl 762 8 0 127 0 0 empty empty empty -2 -8 0 10 -262144
-1 -1 10187 1;
#X obj 594 -350 + 1;
#X obj 711 3 bng 10 250 50 0 empty empty empty 17 7 0 10 -262144 -1
-1;
#X obj 758 3 bng 10 250 50 0 empty empty empty 17 7 0 10 -262144 -1
-1;
#X obj 815 -40 int;
#X obj 812 -17 + 1;
#X obj 810 64 int;
#X obj 807 87 - 1;
#X obj 727 58 moses 0;
#X obj 616 3 bng 10 250 50 0 empty empty empty 17 7 0 10 -262144 -1
-1;
#X obj 664 3 bng 10 250 50 0 empty empty empty 17 7 0 10 -262144 -1
-1;
#X obj 687 62 int;
#X obj 678 106 + 1;
#X obj 633 105 int;
#X obj 630 128 - 1;
#X obj 574 115 moses 1;
#X obj 727 -137 loadbang;
#X msg 724 -108 1;
#X obj 487 -276 t b b;
#X msg 511 -239 3;
#X obj 110 1 cnv 15 30 15 empty empty empty 20 12 0 14 -262144 -262144
0;
#X msg 479 -240 130;
#X text 518 -702 1/16 counter;
#X obj 745 -373 int;
#X obj 705 -397 t f b;
#X obj 677 -420 moses;
#X obj 704 -371 min;
#X obj 704 -444 + 1;
#X obj 787 -402 int;
#X obj 719 -350 change;
#X obj 843 -97 outlet;
#X obj 759 -282 int;
#X obj 761 -255 + 1;
#X obj 759 -316 t b;
#X obj 925 -357 int;
#X obj 883 -415 t f b;
#X obj 884 -355 min;
#X obj 837 -466 moses 0;
#X obj 878 -281 int;
#X obj 878 -261 + 1;
#X obj 882 -327 change;
#X obj 883 -304 t b;
#X text 852 -444 find min scene nr;
#X text 657 -462 find next higher nr;
#X text -396 -463 click->bang nr;
#X text -85 -148 store 2 msg/reatore from msg;
#X text 26 -343 scene pos memory;
#X text 278 -172 block ui while getting current;
#X text 548 -233 position bangs;
#X text -160 -24 bangs->white;
#X obj 743 -188 ==;
#X obj 846 -145 int;
#X obj 869 -234 int;
#X obj 797 -196 select 1;
#X obj 754 -167 change;
#X obj 764 -232 t f f;
#X text 710 -215 next nr greater or less;
#X text 108 -704 scene sequencer outputs a nr 1..16 at a position in
time 1..128 (for example 1/16 steps);
#X text 842 -82 next nr (only works if time moves forward);
#X text 591 -284 current nr output;
#X obj 796 33 clip 0 127;
#X obj 683 83 clip 0 15;
#X text 570 -647 find scene nr at current pos;
#X obj 593 -325 spigot 1;
#X obj 846 -123 spigot 1;
#X obj 454 3 tgl 10 1 empty empty out 17 7 0 10 -262144 -1 -1 1 1;
#X obj 959 185 outlet;
#X text 956 204 clicked scene nr;
#X obj -315 107 + 1;
#X connect 0 0 91 0;
#X connect 0 1 1 0;
#X connect 0 2 13 0;
#X connect 0 3 14 0;
#X connect 0 4 15 0;
#X connect 0 5 16 0;
#X connect 0 6 17 0;
#X connect 0 7 18 0;
#X connect 0 8 19 0;
#X connect 0 9 20 0;
#X connect 0 10 21 0;
#X connect 0 11 22 0;
#X connect 0 12 23 0;
#X connect 0 13 24 0;
#X connect 0 14 25 0;
#X connect 0 15 26 0;
#X connect 1 0 28 0;
#X connect 2 0 12 1;
#X connect 11 0 0 0;
#X connect 12 0 11 0;
#X connect 13 0 30 0;
#X connect 14 0 29 0;
#X connect 15 0 31 0;
#X connect 16 0 32 0;
#X connect 17 0 33 0;
#X connect 18 0 34 0;
#X connect 19 0 35 0;
#X connect 20 0 36 0;
#X connect 21 0 37 0;
#X connect 22 0 38 0;
#X connect 23 0 39 0;
#X connect 24 0 40 0;
#X connect 25 0 41 0;
#X connect 26 0 42 0;
#X connect 27 0 49 0;
#X connect 28 0 49 0;
#X connect 29 0 49 0;
#X connect 30 0 49 0;
#X connect 31 0 49 0;
#X connect 32 0 49 0;
#X connect 33 0 49 0;
#X connect 34 0 49 0;
#X connect 35 0 49 0;
#X connect 36 0 49 0;
#X connect 37 0 49 0;
#X connect 38 0 49 0;
#X connect 39 0 49 0;
#X connect 40 0 49 0;
#X connect 41 0 49 0;
#X connect 42 0 49 0;
#X connect 43 0 69 0;
#X connect 43 0 85 0;
#X connect 44 0 69 1;
#X connect 44 0 85 0;
#X connect 45 0 43 0;
#X connect 45 1 44 0;
#X connect 45 2 46 0;
#X connect 45 3 47 0;
#X connect 45 4 57 0;
#X connect 45 5 58 0;
#X connect 45 6 59 0;
#X connect 45 7 60 0;
#X connect 45 8 61 0;
#X connect 45 9 62 0;
#X connect 45 10 63 0;
#X connect 45 11 64 0;
#X connect 45 12 65 0;
#X connect 45 13 66 0;
#X connect 45 14 67 0;
#X connect 45 15 68 0;
#X connect 46 0 69 2;
#X connect 46 0 85 0;
#X connect 47 0 69 3;
#X connect 47 0 85 0;
#X connect 48 0 45 0;
#X connect 49 0 102 0;
#X connect 49 0 193 0;
#X connect 50 0 43 1;
#X connect 50 1 44 1;
#X connect 50 2 46 1;
#X connect 50 3 47 1;
#X connect 50 4 57 1;
#X connect 50 5 58 1;
#X connect 50 6 59 1;
#X connect 50 7 60 1;
#X connect 50 8 61 1;
#X connect 50 9 62 1;
#X connect 50 10 63 1;
#X connect 50 11 64 1;
#X connect 50 12 65 1;
#X connect 50 13 66 1;
#X connect 50 14 67 1;
#X connect 50 15 68 1;
#X connect 51 0 93 0;
#X connect 51 0 136 1;
#X connect 51 0 138 1;
#X connect 52 0 86 0;
#X connect 52 0 129 1;
#X connect 52 0 185 0;
#X connect 53 0 54 0;
#X connect 53 0 88 0;
#X connect 54 0 50 0;
#X connect 55 0 53 0;
#X connect 55 1 54 1;
#X connect 56 0 52 0;
#X connect 57 0 69 4;
#X connect 57 0 85 0;
#X connect 58 0 69 5;
#X connect 58 0 85 0;
#X connect 59 0 69 6;
#X connect 59 0 85 0;
#X connect 60 0 69 7;
#X connect 60 0 85 0;
#X connect 61 0 69 8;
#X connect 61 0 85 0;
#X connect 62 0 69 9;
#X connect 62 0 85 0;
#X connect 63 0 69 10;
#X connect 63 0 85 0;
#X connect 64 0 69 11;
#X connect 64 0 85 0;
#X connect 65 0 69 12;
#X connect 65 0 85 0;
#X connect 66 0 69 13;
#X connect 66 0 85 0;
#X connect 67 0 69 14;
#X connect 67 0 85 0;
#X connect 68 0 69 15;
#X connect 68 0 85 0;
#X connect 69 0 70 0;
#X connect 70 0 81 0;
#X connect 71 0 43 1;
#X connect 71 1 44 1;
#X connect 71 2 46 1;
#X connect 71 3 47 1;
#X connect 71 4 57 1;
#X connect 71 5 58 1;
#X connect 71 6 59 1;
#X connect 71 7 60 1;
#X connect 71 8 61 1;
#X connect 71 9 62 1;
#X connect 71 10 63 1;
#X connect 71 11 64 1;
#X connect 71 12 65 1;
#X connect 71 13 66 1;
#X connect 71 14 67 1;
#X connect 71 15 68 1;
#X connect 72 0 51 0;
#X connect 75 0 76 0;
#X connect 75 0 88 0;
#X connect 76 0 75 1;
#X connect 77 0 75 0;
#X connect 78 0 75 1;
#X connect 79 0 77 0;
#X connect 79 1 78 0;
#X connect 80 0 79 0;
#X connect 81 0 71 0;
#X connect 82 0 83 0;
#X connect 83 0 80 0;
#X connect 83 1 81 0;
#X connect 84 0 143 0;
#X connect 84 1 90 0;
#X connect 85 0 115 0;
#X connect 85 0 116 0;
#X connect 86 0 55 0;
#X connect 87 0 56 0;
#X connect 87 0 129 1;
#X connect 87 0 131 1;
#X connect 88 0 12 0;
#X connect 88 1 48 0;
#X connect 89 0 12 2;
#X connect 90 0 2 0;
#X connect 90 1 89 0;
#X connect 91 0 27 0;
#X connect 92 0 72 0;
#X connect 92 0 136 1;
#X connect 92 0 138 1;
#X connect 93 0 49 0;
#X connect 94 0 0 0;
#X connect 95 0 0 0;
#X connect 96 0 97 0;
#X connect 96 0 94 0;
#X connect 97 0 96 1;
#X connect 98 0 96 0;
#X connect 99 0 96 1;
#X connect 100 0 98 0;
#X connect 100 1 99 0;
#X connect 101 0 100 0;
#X connect 102 0 95 0;
#X connect 102 1 101 0;
#X connect 102 2 53 1;
#X connect 102 2 48 0;
#X connect 102 2 92 0;
#X connect 103 0 104 0;
#X connect 103 0 111 0;
#X connect 104 0 103 1;
#X connect 105 0 103 0;
#X connect 106 0 103 1;
#X connect 107 0 105 0;
#X connect 107 1 106 0;
#X connect 108 0 107 0;
#X connect 109 0 122 0;
#X connect 110 0 113 0;
#X connect 111 0 45 0;
#X connect 111 1 114 1;
#X connect 111 1 156 1;
#X connect 111 1 163 1;
#X connect 113 0 114 0;
#X connect 114 0 126 0;
#X connect 115 0 87 0;
#X connect 115 0 84 0;
#X connect 116 0 110 0;
#X connect 116 0 150 0;
#X connect 116 0 162 0;
#X connect 117 0 118 0;
#X connect 117 0 119 0;
#X connect 117 0 175 0;
#X connect 117 1 108 0;
#X connect 117 2 110 1;
#X connect 117 2 152 0;
#X connect 117 3 120 0;
#X connect 117 3 121 0;
#X connect 117 3 153 0;
#X connect 118 0 115 1;
#X connect 119 0 116 1;
#X connect 120 0 116 1;
#X connect 121 0 115 1;
#X connect 122 0 117 0;
#X connect 122 0 125 0;
#X connect 123 0 122 1;
#X connect 123 0 153 1;
#X connect 126 0 175 1;
#X connect 126 0 188 0;
#X connect 127 0 131 0;
#X connect 128 0 129 0;
#X connect 129 0 130 0;
#X connect 130 0 52 0;
#X connect 131 0 132 0;
#X connect 132 0 133 0;
#X connect 133 1 52 0;
#X connect 134 0 138 0;
#X connect 135 0 136 0;
#X connect 136 0 186 0;
#X connect 137 0 51 0;
#X connect 138 0 139 0;
#X connect 139 0 140 0;
#X connect 140 1 51 0;
#X connect 141 0 142 0;
#X connect 142 0 51 0;
#X connect 143 0 146 0;
#X connect 143 1 144 0;
#X connect 144 0 12 2;
#X connect 146 0 12 1;
#X connect 148 0 151 1;
#X connect 149 0 151 0;
#X connect 149 1 148 0;
#X connect 150 1 149 0;
#X connect 151 0 148 1;
#X connect 151 0 154 0;
#X connect 152 0 150 1;
#X connect 153 0 148 1;
#X connect 153 0 159 1;
#X connect 154 0 158 0;
#X connect 156 0 157 0;
#X connect 157 0 180 0;
#X connect 158 0 156 0;
#X connect 159 0 161 1;
#X connect 160 0 161 0;
#X connect 160 1 159 0;
#X connect 161 0 159 1;
#X connect 161 0 165 0;
#X connect 162 1 160 0;
#X connect 163 0 164 0;
#X connect 164 0 177 1;
#X connect 165 0 166 0;
#X connect 166 0 163 0;
#X connect 175 0 179 0;
#X connect 176 0 189 0;
#X connect 177 0 176 0;
#X connect 178 0 177 0;
#X connect 179 0 178 0;
#X connect 180 0 175 0;
#X connect 180 1 176 0;
#X connect 185 0 131 1;
#X connect 186 0 137 0;
#X connect 188 0 112 0;
#X connect 189 0 155 0;
#X connect 190 0 188 1;
#X connect 190 0 189 1;
#X connect 193 0 191 0;
#X coords 0 -1 1 1 770 40 1 0 0;
#X restore 9 -7 pd scene_sq1;
#N canvas 218 81 1184 711 songpos96-16 0;
#X obj 318 440 + 1;
#X obj 267 436 float;
#X msg 206 296 1;
#X obj 218 321 /;
#X obj 209 273 t f f;
#X obj 228 344 * 15000;
#X obj 339 355 t b f;
#X obj 263 405 metro 125;
#X msg 340 329 -2;
#X obj 172 17 loadbang;
#X floatatom 126 113 5 30 300 0 bpm - -;
#X msg -2 85 set \$1;
#X msg 5 139 110;
#X obj 174 112 bng 15 250 50 0 empty empty empty 6 7 0 10 -261234 -1
-1;
#X obj 278 636 outlet;
#X obj 570 496 outlet;
#X text 618 497 bpm->;
#X obj 200 112 bng 15 50 20 0 empty empty empty 6 7 0 10 -204786 -1
-1;
#X obj 208 225 float;
#X obj 435 539 outlet;
#X text 144 343 1/16 in ms;
#X text 485 540 pos96->;
#X obj 259 373 / 6;
#X text 219 371 1/96;
#X obj 280 481 / 6;
#X obj 280 505 int;
#X obj 279 530 change;
#X obj 600 64 + 1;
#X obj 602 29 float;
#X obj 600 96 moses 2;
#X obj 600 155 timer;
#X obj 600 123 t b;
#X obj 648 122 t b b;
#X obj 653 243 /;
#X msg 623 221 60000;
#X obj 618 183 t b f;
#X obj 656 268 moses 10;
#X text 500 72 beatcounter;
#X obj 772 358 float;
#X obj 769 401 + 1;
#X obj 688 426 +;
#X obj 729 396 *;
#X obj 705 328 t f b;
#X obj 698 464 /;
#X msg 884 211 0;
#X text 499 302 mean (as seen on idafx blog);
#X obj 864 324 t f f;
#X obj 921 503 moses 0.1;
#X text 880 303 reset;
#X obj 870 366 /;
#X obj 849 431 < 0.75;
#X obj 903 435 > 1.25;
#X obj 869 391 t f f;
#X obj 877 471 ||;
#X obj 174 54 t b b b;
#X obj 43 -7 inlet;
#X obj 107 -11 inlet;
#X text 329 637 pos16->;
#X text 46 14 sync;
#X text 111 10 tap;
#X connect 0 0 1 1;
#X connect 0 0 24 0;
#X connect 0 0 19 0;
#X connect 1 0 0 0;
#X connect 2 0 3 0;
#X connect 3 0 5 0;
#X connect 4 0 2 0;
#X connect 4 1 3 1;
#X connect 5 0 22 0;
#X connect 6 0 7 0;
#X connect 6 1 1 0;
#X connect 7 0 1 0;
#X connect 8 0 6 0;
#X connect 9 0 54 0;
#X connect 10 0 11 0;
#X connect 10 0 18 1;
#X connect 11 0 12 0;
#X connect 12 0 10 0;
#X connect 13 0 8 0;
#X connect 13 0 18 0;
#X connect 17 0 28 0;
#X connect 18 0 4 0;
#X connect 18 0 15 0;
#X connect 22 0 7 1;
#X connect 24 0 25 0;
#X connect 25 0 26 0;
#X connect 26 0 14 0;
#X connect 27 0 28 1;
#X connect 27 0 29 0;
#X connect 28 0 27 0;
#X connect 29 0 31 0;
#X connect 29 1 32 0;
#X connect 30 0 35 0;
#X connect 30 0 46 0;
#X connect 31 0 30 0;
#X connect 32 0 30 0;
#X connect 32 1 30 1;
#X connect 33 0 36 0;
#X connect 34 0 33 0;
#X connect 35 0 34 0;
#X connect 35 1 33 1;
#X connect 36 1 42 0;
#X connect 38 0 39 0;
#X connect 38 0 41 0;
#X connect 39 0 38 1;
#X connect 39 0 43 1;
#X connect 40 0 43 0;
#X connect 41 0 40 1;
#X connect 42 0 40 0;
#X connect 42 1 38 0;
#X connect 43 0 41 1;
#X connect 43 0 10 0;
#X connect 44 0 38 1;
#X connect 44 0 28 1;
#X connect 46 0 49 1;
#X connect 46 1 49 0;
#X connect 47 1 44 0;
#X connect 49 0 52 0;
#X connect 50 0 53 0;
#X connect 51 0 53 1;
#X connect 52 0 50 0;
#X connect 52 1 51 0;
#X connect 53 0 47 0;
#X connect 54 0 13 0;
#X connect 54 1 13 0;
#X connect 54 2 12 0;
#X connect 55 0 13 0;
#X connect 56 0 17 0;
#X coords 0 -1 1 1 120 30 1 100 100;
#X restore 8 -82 pd songpos96-16;
#X floatatom 774 70 5 0 0 0 - - -;
#X text 777 88 clicked nr;
#X text 403 94 next nr;
#X text 6 81 current nr;
#X connect 2 0 0 0;
#X connect 2 1 1 0;
#X connect 2 2 4 0;
#X connect 3 0 2 0;
