#N canvas 193 224 394 332 10;
#N canvas 739 202 779 694 singlecycles1 0;
#X obj 188 159 inlet~;
#X obj 270 536 outlet~;
#X obj 189 440 *~;
#X obj 230 402 line~;
#X obj 246 446 *~;
#X obj 279 412 line~;
#X msg 231 379 \$1 10;
#X msg 282 389 \$1 10;
#X obj 210 216 clip~ -1 1;
#X obj 234 356 != 0;
#X obj 270 356 == 0;
#X obj 269 513 hip~ 10;
#X obj 258 9 inlet;
#X obj 354 157 inlet;
#X obj 345 223 metro;
#X obj 354 190 t b f;
#X obj 105 113 nbx 5 14 10 10000 0 1 empty empty empty 0 -8 0 10 -262144
-1 -1 65.8128 256;
#X obj 188 53 mtof;
#X obj 163 113 nbx 5 14 20 1000 0 1 empty empty empty 0 -8 0 10 -262144
-1 -1 166 256;
#X obj 220 112 tgl 15 1 empty empty empty 17 7 0 10 -262144 -1 -1 1
1;
#X obj 324 248 spigot;
#X obj 449 137 inlet;
#X obj 157 281 abs_singcycles1;
#X text 452 121 sample start;
#X text 357 130 metro reset;
#X connect 0 0 8 0;
#X connect 2 0 11 0;
#X connect 3 0 2 1;
#X connect 4 0 11 0;
#X connect 5 0 4 1;
#X connect 6 0 3 0;
#X connect 7 0 5 0;
#X connect 8 0 22 0;
#X connect 9 0 6 0;
#X connect 10 0 7 0;
#X connect 11 0 1 0;
#X connect 12 0 17 0;
#X connect 13 0 15 0;
#X connect 14 0 20 0;
#X connect 15 0 14 0;
#X connect 15 1 14 1;
#X connect 16 0 22 2;
#X connect 17 0 16 0;
#X connect 18 0 15 0;
#X connect 19 0 20 1;
#X connect 20 0 22 1;
#X connect 21 0 22 1;
#X connect 22 0 2 0;
#X connect 22 1 4 0;
#X connect 22 2 9 0;
#X connect 22 2 10 0;
#X coords 0 -1 1 1 140 30 1 100 100;
#X restore 14 170 pd singlecycles1;
#X obj 1 261 dac~;
#X obj 79 98 notein;
#X obj 164 138 bng 15 250 50 0 empty empty empty 17 7 0 10 -262144
-1 -1;
#X obj -15 58 adc~;
#X obj -7 95 *~ 0.5;
#X obj 17 226 *~ 0.5;
#X connect 0 0 6 0;
#X connect 2 0 0 1;
#X connect 3 0 0 3;
#X connect 4 0 5 0;
#X connect 4 1 5 0;
#X connect 5 0 0 0;
#X connect 6 0 1 0;
#X connect 6 0 1 1;
