#N canvas 214 293 790 567 10;
#X obj 154 344 dac~;
#X obj 154 300 *~ 0.5;
#N canvas 299 465 461 482 tmbrstamp 0;
#X text 157 -57 timbrestamp from millers pd doc;
#X obj 33 271 outlet~;
#X obj -13 35 inlet~;
#X obj 73 36 inlet~;
#X obj 131 122 nbx 5 14 0 1e+37 0 1 empty empty sql -22 8 0 10 -262144
-1 -1 44 256;
#X text -23 9 signal in;
#X text 85 10 timbre in;
#X obj 33 192 abs_timbrestamp1;
#X connect 2 0 7 0;
#X connect 3 0 7 1;
#X connect 4 0 7 2;
#X connect 7 0 1 0;
#X coords 0 -1 1 1 100 40 1 100 100;
#X restore 155 244 pd tmbrstamp;
#X obj 272 165 adc~;
#X obj 86 148 phasor~;
#X obj 67 79 notein;
#X obj 76 117 mtof;
#X obj 92 176 -~ 0.5;
#X obj 92 206 *~ 2;
#X connect 1 0 0 0;
#X connect 2 0 1 0;
#X connect 3 0 2 1;
#X connect 4 0 7 0;
#X connect 5 0 6 0;
#X connect 6 0 4 0;
#X connect 7 0 8 0;
#X connect 8 0 2 0;
