#N canvas 592 317 469 318 10;
#N canvas 1 79 1629 743 triggercycles8 0;
#X obj 200 -9 inlet;
#X obj -370 501 outlet;
#X floatatom 102 117 4 -999 999 0 - - -;
#X msg -370 345 set \$1;
#X msg -358 320 0;
#X floatatom 102 135 3 0 999 0 - - -;
#X msg -489 353 set \$1;
#X msg -477 328 16;
#X obj 300 -1 loadbang;
#X obj -418 357 +;
#X obj -405 390 mod;
#X obj -179 510 outlet;
#X floatatom 136 117 4 -999 999 0 - - -;
#X msg -170 355 set \$1;
#X msg -158 330 2;
#X floatatom 136 135 3 0 999 0 - - -;
#X msg -289 363 set \$1;
#X msg -277 338 16;
#X obj -210 365 +;
#X obj -205 400 mod;
#X obj 19 503 outlet;
#X floatatom 170 117 4 -999 999 0 - - -;
#X msg 11 352 set \$1;
#X msg 23 327 4;
#X floatatom 170 135 3 0 999 0 - - -;
#X msg -96 359 set \$1;
#X msg -84 334 16;
#X obj -25 363 +;
#X obj -12 396 mod;
#X obj 209 498 outlet;
#X floatatom 204 117 4 -999 999 0 - - -;
#X msg 223 361 set \$1;
#X msg 237 336 9;
#X floatatom 204 135 3 0 999 0 - - -;
#X msg 104 369 set \$1;
#X msg 116 344 16;
#X obj 183 371 +;
#X obj 188 406 mod;
#X obj 417 489 outlet;
#X floatatom 238 117 4 -999 999 0 - - -;
#X msg 423 344 set \$1;
#X msg 435 319 8;
#X floatatom 238 135 3 0 999 0 - - -;
#X msg 304 352 set \$1;
#X msg 317 327 16;
#X obj 375 356 +;
#X obj 388 389 mod;
#X obj 610 485 outlet;
#X floatatom 272 117 4 -999 999 0 - - -;
#X msg 623 354 set \$1;
#X msg 635 329 10;
#X floatatom 272 135 3 0 999 0 - - -;
#X msg 504 362 set \$1;
#X msg 516 337 16;
#X obj 583 364 +;
#X obj 588 399 mod;
#X obj 811 499 outlet;
#X floatatom 306 117 4 -999 999 0 - - -;
#X msg 804 351 set \$1;
#X msg 816 326 12;
#X floatatom 306 135 3 0 999 0 - - -;
#X msg 697 358 set \$1;
#X msg 709 333 16;
#X obj 768 362 +;
#X obj 781 395 mod;
#X obj 1010 501 outlet;
#X floatatom 340 117 4 -999 999 0 - - -;
#X msg 1016 360 set \$1;
#X msg 1028 335 14;
#X floatatom 340 135 3 0 999 0 - - -;
#X msg 897 368 set \$1;
#X msg 909 343 16;
#X obj 976 370 +;
#X obj 981 405 mod;
#X obj -425 417 /;
#X obj 105 152 hsl 25 8 0 0.999 0 0 empty empty empty -2 -8 0 10 -262144
-1 -1 150 1;
#X obj -235 434 /;
#X obj 139 152 hsl 25 8 0 0.999 0 0 empty empty empty -2 -8 0 10 -262144
-1 -1 450 1;
#X obj -40 437 /;
#X obj 173 152 hsl 25 8 0 0.999 0 0 empty empty empty -2 -8 0 10 -262144
-1 -1 751 1;
#X obj 160 433 /;
#X obj 207 152 hsl 25 8 0 0.999 0 0 empty empty empty -2 -8 0 10 -262144
-1 -1 1502 1;
#X obj 356 424 /;
#X obj 241 152 hsl 25 8 0 0.999 0 0 empty empty empty -2 -8 0 10 -262144
-1 -1 1351 1;
#X obj 560 443 /;
#X obj 275 152 hsl 25 8 0 0.999 0 0 empty empty empty -2 -8 0 10 -262144
-1 -1 1652 1;
#X obj 755 432 /;
#X obj 309 152 hsl 25 8 0 0.999 0 0 empty empty empty -2 -8 0 10 -262144
-1 -1 1952 1;
#X obj 956 445 /;
#X obj 343 152 hsl 25 8 0 0.999 0 0 empty empty empty -2 -8 0 10 -262144
-1 -1 2252 1;
#X obj -386 452 select 0;
#X obj -185 456 select 0;
#X obj 3 448 select 0;
#X obj 199 457 select 0;
#X obj 386 456 select 0;
#X obj 602 451 select 0;
#X obj 791 447 select 0;
#X obj 1014 453 select 0;
#X connect 0 0 9 0;
#X connect 0 0 18 0;
#X connect 0 0 27 0;
#X connect 0 0 36 0;
#X connect 0 0 45 0;
#X connect 0 0 54 0;
#X connect 0 0 63 0;
#X connect 0 0 72 0;
#X connect 2 0 3 0;
#X connect 2 0 9 1;
#X connect 3 0 4 0;
#X connect 4 0 2 0;
#X connect 5 0 6 0;
#X connect 5 0 10 1;
#X connect 5 0 74 1;
#X connect 6 0 7 0;
#X connect 7 0 5 0;
#X connect 8 0 4 0;
#X connect 8 0 7 0;
#X connect 8 0 17 0;
#X connect 8 0 14 0;
#X connect 8 0 26 0;
#X connect 8 0 23 0;
#X connect 8 0 35 0;
#X connect 8 0 32 0;
#X connect 8 0 41 0;
#X connect 8 0 53 0;
#X connect 8 0 50 0;
#X connect 8 0 62 0;
#X connect 8 0 59 0;
#X connect 8 0 71 0;
#X connect 8 0 68 0;
#X connect 8 0 44 0;
#X connect 9 0 10 0;
#X connect 10 0 74 0;
#X connect 10 0 90 0;
#X connect 12 0 13 0;
#X connect 12 0 18 1;
#X connect 13 0 14 0;
#X connect 14 0 12 0;
#X connect 15 0 16 0;
#X connect 15 0 19 1;
#X connect 15 0 76 1;
#X connect 16 0 17 0;
#X connect 17 0 15 0;
#X connect 18 0 19 0;
#X connect 19 0 76 0;
#X connect 19 0 91 0;
#X connect 21 0 22 0;
#X connect 21 0 27 1;
#X connect 22 0 23 0;
#X connect 23 0 21 0;
#X connect 24 0 25 0;
#X connect 24 0 28 1;
#X connect 24 0 78 1;
#X connect 25 0 26 0;
#X connect 26 0 24 0;
#X connect 27 0 28 0;
#X connect 28 0 78 0;
#X connect 28 0 92 0;
#X connect 30 0 31 0;
#X connect 30 0 36 1;
#X connect 31 0 32 0;
#X connect 32 0 30 0;
#X connect 33 0 34 0;
#X connect 33 0 37 1;
#X connect 33 0 80 1;
#X connect 34 0 35 0;
#X connect 35 0 33 0;
#X connect 36 0 37 0;
#X connect 37 0 80 0;
#X connect 37 0 93 0;
#X connect 39 0 40 0;
#X connect 39 0 45 1;
#X connect 40 0 41 0;
#X connect 41 0 39 0;
#X connect 42 0 43 0;
#X connect 42 0 46 1;
#X connect 42 0 82 1;
#X connect 43 0 44 0;
#X connect 44 0 42 0;
#X connect 45 0 46 0;
#X connect 46 0 82 0;
#X connect 46 0 94 0;
#X connect 48 0 49 0;
#X connect 48 0 54 1;
#X connect 49 0 50 0;
#X connect 50 0 48 0;
#X connect 51 0 52 0;
#X connect 51 0 55 1;
#X connect 51 0 84 1;
#X connect 52 0 53 0;
#X connect 53 0 51 0;
#X connect 54 0 55 0;
#X connect 55 0 84 0;
#X connect 55 0 95 0;
#X connect 57 0 58 0;
#X connect 57 0 63 1;
#X connect 58 0 59 0;
#X connect 59 0 57 0;
#X connect 60 0 61 0;
#X connect 60 0 64 1;
#X connect 60 0 86 1;
#X connect 61 0 62 0;
#X connect 62 0 60 0;
#X connect 63 0 64 0;
#X connect 64 0 86 0;
#X connect 64 0 96 0;
#X connect 66 0 67 0;
#X connect 66 0 72 1;
#X connect 67 0 68 0;
#X connect 68 0 66 0;
#X connect 69 0 70 0;
#X connect 69 0 73 1;
#X connect 69 0 88 1;
#X connect 70 0 71 0;
#X connect 71 0 69 0;
#X connect 72 0 73 0;
#X connect 73 0 88 0;
#X connect 73 0 97 0;
#X connect 74 0 75 0;
#X connect 76 0 77 0;
#X connect 78 0 79 0;
#X connect 80 0 81 0;
#X connect 82 0 83 0;
#X connect 84 0 85 0;
#X connect 86 0 87 0;
#X connect 88 0 89 0;
#X connect 90 0 1 0;
#X connect 91 0 11 0;
#X connect 92 0 20 0;
#X connect 93 0 29 0;
#X connect 94 0 38 0;
#X connect 95 0 47 0;
#X connect 96 0 56 0;
#X connect 97 0 65 0;
#X coords 0 -1 1 1 272 65 1 100 100;
#X restore -14 -125 pd triggercycles8;
#N canvas 99 188 414 446 sine 0;
#X obj 122 265 osc~;
#X obj 121 243 mtof;
#X obj 132 159 inlet;
#X obj 138 183 t b b;
#X obj 201 271 line~;
#X obj 136 351 *~;
#X obj 177 314 clip~ 0 1;
#X obj 105 113 nbx 3 14 0 128 0 1 empty empty empty 0 -8 0 10 -262144
-1 -1 39 256;
#X obj 133 379 outlet~;
#X msg 216 215 100;
#X msg 139 214 0 500;
#X connect 0 0 5 0;
#X connect 1 0 0 0;
#X connect 2 0 3 0;
#X connect 3 0 10 0;
#X connect 3 1 9 0;
#X connect 4 0 6 0;
#X connect 5 0 8 0;
#X connect 6 0 5 1;
#X connect 7 0 1 0;
#X connect 9 0 4 0;
#X connect 10 0 4 0;
#X coords 0 -1 1 1 45 30 1 100 100;
#X restore -9 -34 pd sine;
#N canvas 94 151 482 450 saw 0;
#X obj 122 242 mtof;
#X obj 133 158 inlet;
#X obj 139 182 t b b;
#X obj 202 270 line~;
#X obj 137 350 *~;
#X obj 178 313 clip~ 0 1;
#X obj 105 113 nbx 3 14 0 128 0 1 empty empty empty 0 -8 0 10 -262144
-1 -1 52 256;
#X obj 134 378 outlet~;
#X msg 217 214 100;
#X obj 124 272 phasor~;
#X obj 124 295 -~ 0.5;
#X msg 141 213 0 100;
#X connect 0 0 9 0;
#X connect 1 0 2 0;
#X connect 2 0 11 0;
#X connect 2 1 8 0;
#X connect 3 0 5 0;
#X connect 4 0 7 0;
#X connect 5 0 4 1;
#X connect 6 0 0 0;
#X connect 8 0 3 0;
#X connect 9 0 10 0;
#X connect 10 0 4 0;
#X connect 11 0 3 0;
#X coords 0 -1 1 1 45 30 1 100 100;
#X restore 45 -29 pd saw;
#X obj 79 85 dac~;
#X obj 83 53 *~ 0.5;
#N canvas 558 438 450 300 click 0;
#X obj 29 43 inlet;
#X obj 26 263 outlet~;
#X obj 103 114 nbx 4 14 1 999 0 1 empty empty empty 0 -8 0 10 -262144
-1 -1 36 256;
#X obj 30 225 vline~;
#X msg 33 200 \$1 0 \, \$2 0 \, 0 \$3;
#X obj 32 172 pack -1 1 f;
#X obj 102 141 / 100;
#X obj 27 92 t f f;
#X obj 34 127 * -1;
#X connect 0 0 7 0;
#X connect 2 0 6 0;
#X connect 3 0 1 0;
#X connect 4 0 3 0;
#X connect 5 0 4 0;
#X connect 6 0 5 2;
#X connect 7 0 8 0;
#X connect 7 1 5 1;
#X connect 8 0 5 0;
#X coords 0 -1 1 1 50 30 1 100 100;
#X restore 107 -19 pd click;
#X msg 105 -43 1;
#N canvas 218 81 1184 711 songpos96-16 0;
#X obj 318 440 + 1;
#X obj 267 436 float;
#X msg 206 296 1;
#X obj 218 321 /;
#X obj 209 273 t f f;
#X obj 228 344 * 15000;
#X obj 339 355 t b f;
#X obj 263 405 metro 125;
#X msg 340 329 -2;
#X obj 172 17 loadbang;
#X floatatom 126 113 5 30 300 0 bpm - -;
#X msg -2 85 set \$1;
#X msg 5 139 110;
#X obj 174 112 bng 15 250 50 0 empty empty empty 6 7 0 10 -261234 -1
-1;
#X obj 278 636 outlet;
#X obj 570 496 outlet;
#X text 618 497 bpm->;
#X obj 200 112 bng 15 50 20 0 empty empty empty 6 7 0 10 -204786 -1
-1;
#X obj 208 225 float;
#X obj 435 539 outlet;
#X text 144 343 1/16 in ms;
#X text 485 540 pos96->;
#X obj 259 373 / 6;
#X text 219 371 1/96;
#X obj 280 481 / 6;
#X obj 280 505 int;
#X obj 279 530 change;
#X obj 600 64 + 1;
#X obj 602 29 float;
#X obj 600 96 moses 2;
#X obj 600 155 timer;
#X obj 600 123 t b;
#X obj 648 122 t b b;
#X obj 653 243 /;
#X msg 623 221 60000;
#X obj 618 183 t b f;
#X obj 656 268 moses 10;
#X text 500 72 beatcounter;
#X obj 772 358 float;
#X obj 769 401 + 1;
#X obj 688 426 +;
#X obj 729 396 *;
#X obj 705 328 t f b;
#X obj 698 464 /;
#X msg 884 211 0;
#X text 499 302 mean (as seen on idafx blog);
#X obj 864 324 t f f;
#X obj 921 503 moses 0.1;
#X text 880 303 reset;
#X obj 870 366 /;
#X obj 849 431 < 0.75;
#X obj 903 435 > 1.25;
#X obj 869 391 t f f;
#X obj 877 471 ||;
#X obj 174 54 t b b b;
#X obj 43 -7 inlet;
#X obj 107 -11 inlet;
#X text 329 637 pos16->;
#X text 46 14 sync;
#X text 111 10 tap;
#X connect 0 0 1 1;
#X connect 0 0 24 0;
#X connect 0 0 19 0;
#X connect 1 0 0 0;
#X connect 2 0 3 0;
#X connect 3 0 5 0;
#X connect 4 0 2 0;
#X connect 4 1 3 1;
#X connect 5 0 22 0;
#X connect 6 0 7 0;
#X connect 6 1 1 0;
#X connect 7 0 1 0;
#X connect 8 0 6 0;
#X connect 9 0 54 0;
#X connect 10 0 11 0;
#X connect 10 0 18 1;
#X connect 11 0 12 0;
#X connect 12 0 10 0;
#X connect 13 0 8 0;
#X connect 13 0 18 0;
#X connect 17 0 28 0;
#X connect 18 0 4 0;
#X connect 18 0 15 0;
#X connect 22 0 7 1;
#X connect 24 0 25 0;
#X connect 25 0 26 0;
#X connect 26 0 14 0;
#X connect 27 0 28 1;
#X connect 27 0 29 0;
#X connect 28 0 27 0;
#X connect 29 0 31 0;
#X connect 29 1 32 0;
#X connect 30 0 35 0;
#X connect 30 0 46 0;
#X connect 31 0 30 0;
#X connect 32 0 30 0;
#X connect 32 1 30 1;
#X connect 33 0 36 0;
#X connect 34 0 33 0;
#X connect 35 0 34 0;
#X connect 35 1 33 1;
#X connect 36 1 42 0;
#X connect 38 0 39 0;
#X connect 38 0 41 0;
#X connect 39 0 38 1;
#X connect 39 0 43 1;
#X connect 40 0 43 0;
#X connect 41 0 40 1;
#X connect 42 0 40 0;
#X connect 42 1 38 0;
#X connect 43 0 41 1;
#X connect 43 0 10 0;
#X connect 44 0 38 1;
#X connect 44 0 28 1;
#X connect 46 0 49 1;
#X connect 46 1 49 0;
#X connect 47 1 44 0;
#X connect 49 0 52 0;
#X connect 50 0 53 0;
#X connect 51 0 53 1;
#X connect 52 0 50 0;
#X connect 52 1 51 0;
#X connect 53 0 47 0;
#X connect 54 0 13 0;
#X connect 54 1 13 0;
#X connect 54 2 12 0;
#X connect 55 0 13 0;
#X connect 56 0 17 0;
#X coords 0 -1 1 1 120 30 1 100 100;
#X restore -20 -163 pd songpos96-16;
#X connect 0 0 1 0;
#X connect 0 0 6 0;
#X connect 0 1 2 0;
#X connect 0 2 6 0;
#X connect 0 3 6 0;
#X connect 1 0 4 0;
#X connect 2 0 4 0;
#X connect 4 0 3 0;
#X connect 4 0 3 1;
#X connect 5 0 4 0;
#X connect 6 0 5 0;
#X connect 7 0 0 0;
