#N canvas 392 241 873 463 10;
#X text 252 33 only one needed per patch;
#N canvas 0 50 592 473 midimono 0;
#X obj 179 125 stripnote;
#X obj 304 226 select;
#X obj 295 123 float;
#X obj 282 70 t b f;
#X obj 304 197 float;
#X obj 295 152 sel 0;
#X obj 246 226 / 127;
#X obj 175 8 notein;
#X obj 246 320 outlet;
#X msg 317 252 0;
#X obj 136 317 outlet;
#X text 273 47 taken from the pd doc-monosynth-example;
#X connect 0 0 1 1;
#X connect 0 0 10 0;
#X connect 1 0 9 0;
#X connect 2 0 5 0;
#X connect 3 0 2 0;
#X connect 3 1 4 1;
#X connect 4 0 1 0;
#X connect 5 0 4 0;
#X connect 5 1 6 0;
#X connect 6 0 8 0;
#X connect 7 0 0 0;
#X connect 7 0 3 0;
#X connect 7 1 0 1;
#X connect 7 1 2 1;
#X connect 9 0 8 0;
#X restore 51 -3 pd midimono;
#X obj -208 -7 bendin;
#X obj -86 54 +;
#X obj -209 16 - 8192;
#X obj -209 61 clip -1 1;
#X obj -209 40 / 8192;
#X msg -45 -3 bang;
#X obj -42 25 int;
#X obj -125 29 * 2;
#X text -140 10 bend range;
#X obj 46 277 dac~;
#X obj 52 221 *~ 0.5;
#N canvas 309 214 807 703 qwertz-keys 0;
#X msg -121 181 0;
#X msg -89 182 1;
#X msg -57 182 2;
#X msg -23 182 3;
#X msg 10 182 4;
#X msg 44 182 5;
#X msg 78 183 6;
#X msg 116 182 7;
#X msg 150 182 8;
#X msg 182 183 9;
#X msg 214 183 10;
#X msg 247 182 11;
#X msg 281 183 12;
#X msg 315 183 13;
#X msg 351 183 14;
#X msg 387 183 15;
#X msg 427 183 16;
#X obj -173 623 outlet;
#X obj 66 654 outlet;
#X obj -97 71 key;
#X obj -25 128 select 113 50 119 51 101 114 53 116 54 122 55 117 105
57 111 48 112;
#X obj 20 78 keyup;
#X obj 11 541 ==;
#X msg -121 468 1;
#X msg 87 593 0;
#X obj 12 568 moses 0.1;
#X obj -146 435 + 48;
#X obj 69 621 change;
#X text -3 111 q2w3er5t6z7ui9o0p \, 'upper manual';
#X text -3 17 monophonic qwertz keyboard. german keyboard layout. turn
key-auto-repeat off!;
#X msg 123 356 0;
#X msg 155 357 1;
#X msg 187 357 2;
#X msg 221 357 3;
#X msg 254 357 4;
#X msg 288 357 5;
#X msg 322 358 6;
#X msg 360 357 7;
#X msg 394 357 8;
#X msg 426 358 9;
#X msg 465 359 10;
#X msg 501 360 11;
#X obj 121 424 + 36;
#X floatatom -124 112 5 0 0 0 - - -;
#X text 321 297 ysxdcvgbhnjm \, 'lower manaul';
#X obj 172 317 select 121 115 120 100 99 118 103 98 104 110 106 109
;
#X connect 0 0 26 0;
#X connect 1 0 26 0;
#X connect 2 0 26 0;
#X connect 3 0 26 0;
#X connect 4 0 26 0;
#X connect 5 0 26 0;
#X connect 6 0 26 0;
#X connect 7 0 26 0;
#X connect 8 0 26 0;
#X connect 9 0 26 0;
#X connect 10 0 26 0;
#X connect 11 0 26 0;
#X connect 12 0 26 0;
#X connect 13 0 26 0;
#X connect 14 0 26 0;
#X connect 15 0 26 0;
#X connect 16 0 26 0;
#X connect 19 0 20 0;
#X connect 19 0 22 1;
#X connect 19 0 43 0;
#X connect 19 0 45 0;
#X connect 20 0 0 0;
#X connect 20 1 1 0;
#X connect 20 2 2 0;
#X connect 20 3 3 0;
#X connect 20 4 4 0;
#X connect 20 5 5 0;
#X connect 20 6 6 0;
#X connect 20 7 7 0;
#X connect 20 8 8 0;
#X connect 20 9 9 0;
#X connect 20 10 10 0;
#X connect 20 11 11 0;
#X connect 20 12 12 0;
#X connect 20 13 13 0;
#X connect 20 14 14 0;
#X connect 20 15 15 0;
#X connect 20 16 16 0;
#X connect 21 0 22 0;
#X connect 22 0 25 0;
#X connect 23 0 27 0;
#X connect 24 0 27 0;
#X connect 25 1 24 0;
#X connect 26 0 23 0;
#X connect 26 0 17 0;
#X connect 27 0 18 0;
#X connect 30 0 42 0;
#X connect 31 0 42 0;
#X connect 32 0 42 0;
#X connect 33 0 42 0;
#X connect 34 0 42 0;
#X connect 35 0 42 0;
#X connect 36 0 42 0;
#X connect 37 0 42 0;
#X connect 38 0 42 0;
#X connect 39 0 42 0;
#X connect 40 0 42 0;
#X connect 41 0 42 0;
#X connect 42 0 23 0;
#X connect 42 0 17 0;
#X connect 45 0 30 0;
#X connect 45 1 31 0;
#X connect 45 2 32 0;
#X connect 45 3 33 0;
#X connect 45 4 34 0;
#X connect 45 5 35 0;
#X connect 45 6 36 0;
#X connect 45 7 37 0;
#X connect 45 8 38 0;
#X connect 45 9 39 0;
#X connect 45 10 40 0;
#X connect 45 11 41 0;
#X restore 51 20 pd qwertz-keys;
#N canvas 0 50 780 696 synthwaves1 0;
#X obj 136 81 until;
#X obj 136 109 f;
#X obj 167 111 + 1;
#X obj 141 329 sin;
#X obj 140 306 * 6.28319;
#X obj 131 168 t f f;
#X obj 141 360 tabwrite \$0sinewave;
#X obj 138 27 loadbang;
#X obj 41 531 tabwrite \$0squarewave;
#X obj 49 412 mod 2;
#X obj 59 436 * 2;
#X obj 60 461 - 1;
#X obj 140 280 / 512;
#X obj 45 388 div 256;
#X obj 168 132 mod 515;
#X msg 138 54 515;
#X obj 36 558 table \$0squarewave 515;
#X obj 352 513 table \$0sawwave 515;
#X obj 529 633 table \$0triwave 515;
#X obj 126 388 table \$0sinewave 515;
#X obj 348 489 tabwrite \$0sawwave;
#X obj 340 397 mod 512;
#X obj 68 498 * -1;
#X obj 340 422 / 256;
#X obj 345 446 - 1;
#X obj 348 467 * -1;
#X obj 512 274 mod 512;
#X obj 528 602 tabwrite \$0triwave;
#X obj 606 360 * 2;
#X obj 603 386 - 1;
#X obj 526 412 *;
#X obj 513 301 t f f;
#X obj 524 438 / 512;
#X obj 600 337 < 256;
#X obj 548 464 -;
#X obj 567 489 * 4;
#X obj 566 522 + 3;
#X obj 401 212 + 128;
#X connect 0 0 1 0;
#X connect 1 0 2 0;
#X connect 1 0 5 0;
#X connect 2 0 14 0;
#X connect 3 0 6 0;
#X connect 4 0 3 0;
#X connect 5 0 12 0;
#X connect 5 0 13 0;
#X connect 5 0 21 0;
#X connect 5 0 37 0;
#X connect 5 1 6 1;
#X connect 5 1 8 1;
#X connect 5 1 20 1;
#X connect 5 1 27 1;
#X connect 7 0 15 0;
#X connect 9 0 10 0;
#X connect 10 0 11 0;
#X connect 11 0 22 0;
#X connect 12 0 4 0;
#X connect 13 0 9 0;
#X connect 14 0 1 1;
#X connect 15 0 0 0;
#X connect 21 0 23 0;
#X connect 22 0 8 0;
#X connect 23 0 24 0;
#X connect 24 0 25 0;
#X connect 25 0 20 0;
#X connect 26 0 31 0;
#X connect 28 0 29 0;
#X connect 29 0 30 1;
#X connect 30 0 32 0;
#X connect 31 0 30 0;
#X connect 31 1 33 0;
#X connect 32 0 34 0;
#X connect 33 0 28 0;
#X connect 33 0 34 1;
#X connect 34 0 35 0;
#X connect 35 0 36 0;
#X connect 36 0 27 0;
#X connect 37 0 26 0;
#X restore 254 53 pd synthwaves1;
#N canvas 167 115 918 860 twooscchord1 0;
#X obj 226 115 vsl 12 81 0.1 1 0 1 empty empty a 2 4 0 8 -262144 -1
-1 0 1;
#X obj 129 123 vradio 10 1 1 5 empty empty ok 1 -6 0 8 -262144 -1 -1
2;
#X obj -162 229 * 12;
#X obj -208 249 +;
#X obj 184 115 vsl 12 81 20 120 0 1 empty empty cf 2 4 0 8 -262144
-1 -1 4000 1;
#X obj 198 115 vsl 12 81 2 10 0 1 empty empty rs 2 4 0 8 -262144 -1
-1 1100 1;
#X obj 212 115 vsl 12 81 0 120 0 1 empty empty ev 2 4 0 8 -262144 -1
-1 3200 1;
#X obj -78 864 *~;
#X obj -224 133 inlet;
#X text -185 135 pitch;
#X obj -105 123 inlet;
#X text -62 124 gate;
#X obj -80 890 outlet~;
#X obj 107 388 *;
#X obj 130 189 tgl 10 1 empty empty ep 1 -6 0 8 -262144 -1 -1 0 -2
;
#X obj 139 387 + 1;
#X obj 139 357 t b f;
#X obj 218 259 *;
#X obj 217 308 * 10000;
#X obj 219 285 *;
#X obj 91 4 inlet;
#X obj 354 80 inlet;
#X text 403 79 env-mod 0..1;
#X text 135 3 cutoff-mod 0..1;
#X obj 354 101 clip 0 1;
#X obj 354 123 * 60;
#X obj 92 29 clip 0 1;
#X obj 92 51 * 60;
#X obj 105 287 +;
#X obj 109 255 t b f;
#X obj 159 292 +;
#X obj 154 254 t b f;
#X obj 156 115 vsl 12 81 0 0.95 0 1 empty empty gm 2 4 0 8 -262144
-1 -1 0 1;
#X obj 170 115 vsl 12 81 0 1 0 1 empty empty wv 2 4 0 8 -262144 -1
-1 2500 1;
#X obj -161 207 - 2;
#X obj 142 115 vsl 12 81 0 0.25 0 1 empty empty dt 2 4 0 8 -262144
-1 -1 2000 1;
#X obj -101 152 clip 0 1;
#X obj 240 115 vsl 12 81 0.1 1 0 1 empty empty d 2 4 0 8 -262144 -1
-1 5900 1;
#X obj 268 115 vsl 12 81 0.2 1 0 1 empty empty r 2 4 0 8 -262144 -1
-1 3100 1;
#X obj 254 115 vsl 12 81 0 1 0 1 empty empty s 2 4 0 8 -262144 -1 -1
1900 1;
#X obj 282 264 *;
#X obj 281 313 * 10000;
#X obj 283 290 *;
#X obj 341 269 *;
#X obj 340 318 * 10000;
#X obj 342 295 *;
#X obj -82 512 +~;
#X obj -77 484 *~;
#X obj -113 580 mtof~;
#N canvas 104 50 1108 856 adsr1 0;
#X obj -143 147 inlet;
#X msg 15 502 0;
#X obj 63 365 pack f f;
#X msg -148 457 0.677165 1;
#X msg 64 391 set \$1 \$2;
#X obj 125 589 >=;
#X msg 216 752 0.2375 3402.55;
#X obj 157 632 moses 0.001;
#X obj 150 406 pack f f;
#X msg 151 436 set \$1 \$2;
#X msg 170 319 bang;
#X msg 313 372 set 0 \$1;
#X msg -135 357 bang;
#X msg -136 523 0 676.52;
#X obj -145 184 clip 0 1;
#X obj -113 211 moses 0.001;
#X obj 15 538 line 0 1;
#X obj -20 376 t f f;
#X obj 9 720 spigot;
#X obj 228 693 delay 0;
#X obj -49 150 inlet;
#X text -8 150 att;
#X obj 22 153 inlet;
#X text 63 153 dec;
#X obj 93 150 inlet;
#X text 134 152 sus;
#X obj 170 152 inlet;
#X text 211 152 rel;
#X obj -95 781 outlet;
#X obj -3 199 t b f;
#X connect 0 0 14 0;
#X connect 1 0 16 0;
#X connect 2 0 4 0;
#X connect 3 0 16 0;
#X connect 4 0 3 0;
#X connect 5 0 7 0;
#X connect 6 0 18 0;
#X connect 7 1 19 0;
#X connect 8 0 9 0;
#X connect 9 0 6 0;
#X connect 10 0 8 0;
#X connect 11 0 13 0;
#X connect 12 0 13 0;
#X connect 13 0 16 0;
#X connect 14 0 15 0;
#X connect 14 0 18 1;
#X connect 15 0 12 0;
#X connect 15 1 2 0;
#X connect 15 1 17 0;
#X connect 16 0 5 0;
#X connect 16 0 28 0;
#X connect 17 0 3 0;
#X connect 17 1 5 1;
#X connect 17 1 1 0;
#X connect 18 0 16 0;
#X connect 19 0 6 0;
#X connect 20 0 2 1;
#X connect 20 0 29 0;
#X connect 22 0 10 0;
#X connect 22 0 8 1;
#X connect 24 0 10 0;
#X connect 24 0 8 0;
#X connect 26 0 11 0;
#X connect 29 0 2 0;
#X connect 29 1 2 1;
#X coords 0 0 1 1 120 160 0;
#X restore 172 425 pd adsr1;
#X obj -1 438 line~;
#X msg 18 412 \$1 1.6;
#X obj -114 542 clip~ 0 128;
#X text -246 32 needs osc-table (synthwaves) subpatch!;
#X obj -12 488 *~;
#N canvas 0 50 450 300 twooscs1 0;
#X obj 50 39 inlet;
#X obj 227 54 inlet;
#X obj 275 55 inlet;
#X obj 98 39 inlet;
#X text 58 14 pitch;
#X text 108 18 det;
#N canvas 0 136 1183 715 mod4osc1 0;
#X obj -3 28 phasor~;
#X obj -2 -6 inlet~;
#X obj 72 637 outlet~;
#X obj 66 392 +~ 1;
#X obj 370 200 inlet;
#X obj 22 193 *~;
#X obj 6 146 clip~ 0 0.5;
#X obj 117 169 clip~ 0.5 1;
#X obj 207 91 -;
#X obj 199 43 t b f;
#X msg 200 69 1;
#X obj 198 -32 inlet;
#X obj 132 76 / 2;
#X obj 131 102 + 0.5;
#X msg 224 207 1;
#X obj 226 183 t b f;
#X text 53 186 m;
#X obj 103 300 *~;
#X obj 238 233 -;
#X obj 252 267 /;
#X msg 287 159 1;
#X obj 289 135 t b f;
#X obj 301 185 -;
#X text 120 130 x1;
#X obj 209 144 *;
#X text 238 146 y1;
#X text 258 285 m2;
#X obj 115 252 -~;
#X text 141 254 b2;
#X text 206 213 ak;
#X text 323 160 gk;
#X obj 194 3 clip 0 0.99;
#X obj 66 366 *~ 512;
#X obj 18 507 *~;
#X obj 337 330 * -1;
#X obj 55 480 clip 0 1;
#X obj 51 538 *~;
#X obj 91 517 clip 0 1;
#X obj 82 566 *~;
#X obj 112 546 clip 0 1;
#X obj 99 600 *~;
#X obj 129 580 clip 0 1;
#X text 30 56 9 klasse geometrie...;
#N canvas 0 50 619 465 triangle01 0;
#X obj 262 148 * 2;
#X obj 254 184 - 1;
#X obj 229 201 *;
#X obj 216 90 t f f;
#X obj 193 26 inlet;
#X obj 263 404 outlet;
#X obj 299 114 < 0.5;
#X obj 267 246 -;
#X obj 272 282 + 1;
#X obj 283 322 * 2;
#X connect 0 0 1 0;
#X connect 1 0 2 1;
#X connect 2 0 7 0;
#X connect 3 0 2 0;
#X connect 3 1 6 0;
#X connect 4 0 3 0;
#X connect 6 0 0 0;
#X connect 6 0 7 1;
#X connect 7 0 8 0;
#X connect 8 0 9 0;
#X connect 9 0 5 0;
#X restore 157 413 pd triangle01;
#N canvas 0 50 619 465 triangle01 0;
#X obj 262 148 * 2;
#X obj 254 184 - 1;
#X obj 229 201 *;
#X obj 216 90 t f f;
#X obj 193 26 inlet;
#X obj 263 404 outlet;
#X obj 299 114 < 0.5;
#X obj 267 246 -;
#X obj 272 282 + 1;
#X obj 283 322 * 2;
#X connect 0 0 1 0;
#X connect 1 0 2 1;
#X connect 2 0 7 0;
#X connect 3 0 2 0;
#X connect 3 1 6 0;
#X connect 4 0 3 0;
#X connect 6 0 0 0;
#X connect 6 0 7 1;
#X connect 7 0 8 0;
#X connect 8 0 9 0;
#X connect 9 0 5 0;
#X restore 254 434 pd triangle01;
#X obj 195 376 + 0.5;
#X obj 268 390 + 1;
#X obj 311 397 + 1.5;
#N canvas 0 50 619 465 triangle01 0;
#X obj 262 148 * 2;
#X obj 254 184 - 1;
#X obj 229 201 *;
#X obj 216 90 t f f;
#X obj 193 26 inlet;
#X obj 263 404 outlet;
#X obj 299 114 < 0.5;
#X obj 267 246 -;
#X obj 272 282 + 1;
#X obj 283 322 * 2;
#X connect 0 0 1 0;
#X connect 1 0 2 1;
#X connect 2 0 7 0;
#X connect 3 0 2 0;
#X connect 3 1 6 0;
#X connect 4 0 3 0;
#X connect 6 0 0 0;
#X connect 6 0 7 1;
#X connect 7 0 8 0;
#X connect 8 0 9 0;
#X connect 9 0 5 0;
#X restore 284 465 pd triangle01;
#X obj 327 492 + 2;
#N canvas 0 50 619 465 triangle01 0;
#X obj 262 148 * 2;
#X obj 254 184 - 1;
#X obj 229 201 *;
#X obj 216 90 t f f;
#X obj 193 26 inlet;
#X obj 263 404 outlet;
#X obj 299 114 < 0.5;
#X obj 267 246 -;
#X obj 272 282 + 1;
#X obj 283 322 * 2;
#X connect 0 0 1 0;
#X connect 1 0 2 1;
#X connect 2 0 7 0;
#X connect 3 0 2 0;
#X connect 3 1 6 0;
#X connect 4 0 3 0;
#X connect 6 0 0 0;
#X connect 6 0 7 1;
#X connect 7 0 8 0;
#X connect 8 0 9 0;
#X connect 9 0 5 0;
#X restore 335 515 pd triangle01;
#X obj 364 232 * 1.5;
#X text 53 -4 freq;
#X text 414 199 wave;
#X text 241 -32 geom;
#X obj 65 439 tabread4~ \$0squarewave;
#X obj 122 474 tabread4~ \$0sawwave;
#X obj 173 514 tabread4~ \$0triwave;
#X obj 199 549 tabread4~ \$0sinewave;
#X connect 0 0 7 0;
#X connect 0 0 6 0;
#X connect 1 0 0 0;
#X connect 3 0 55 0;
#X connect 3 0 56 0;
#X connect 3 0 57 0;
#X connect 3 0 58 0;
#X connect 4 0 51 0;
#X connect 5 0 32 0;
#X connect 6 0 5 0;
#X connect 7 0 27 0;
#X connect 8 0 5 1;
#X connect 8 0 24 1;
#X connect 9 0 10 0;
#X connect 9 1 8 1;
#X connect 10 0 8 0;
#X connect 11 0 31 0;
#X connect 12 0 13 0;
#X connect 13 0 6 2;
#X connect 13 0 7 1;
#X connect 13 0 21 0;
#X connect 13 0 24 0;
#X connect 13 0 27 1;
#X connect 14 0 18 0;
#X connect 15 0 14 0;
#X connect 15 1 18 1;
#X connect 17 0 32 0;
#X connect 18 0 19 0;
#X connect 19 0 17 1;
#X connect 20 0 22 0;
#X connect 21 0 20 0;
#X connect 21 1 22 1;
#X connect 22 0 19 1;
#X connect 24 0 15 0;
#X connect 27 0 17 0;
#X connect 31 0 9 0;
#X connect 31 0 12 0;
#X connect 32 0 3 0;
#X connect 33 0 2 0;
#X connect 34 0 45 0;
#X connect 34 0 46 0;
#X connect 34 0 47 0;
#X connect 34 0 49 0;
#X connect 35 0 33 1;
#X connect 36 0 2 0;
#X connect 37 0 36 1;
#X connect 38 0 2 0;
#X connect 39 0 38 1;
#X connect 40 0 2 0;
#X connect 41 0 40 1;
#X connect 43 0 35 0;
#X connect 44 0 37 0;
#X connect 45 0 43 0;
#X connect 46 0 44 0;
#X connect 47 0 48 0;
#X connect 48 0 39 0;
#X connect 49 0 50 0;
#X connect 50 0 41 0;
#X connect 51 0 34 0;
#X connect 55 0 33 0;
#X connect 56 0 36 0;
#X connect 57 0 38 0;
#X connect 58 0 40 0;
#X restore 135 207 pd mod4osc1;
#X obj 118 176 mtof;
#N canvas 0 136 1183 715 mod4osc1 0;
#X obj -3 28 phasor~;
#X obj -2 -6 inlet~;
#X obj 72 637 outlet~;
#X obj 66 392 +~ 1;
#X obj 370 200 inlet;
#X obj 22 193 *~;
#X obj 6 146 clip~ 0 0.5;
#X obj 117 169 clip~ 0.5 1;
#X obj 207 91 -;
#X obj 199 43 t b f;
#X msg 200 69 1;
#X obj 198 -32 inlet;
#X obj 132 76 / 2;
#X obj 131 102 + 0.5;
#X msg 224 207 1;
#X obj 226 183 t b f;
#X text 53 186 m;
#X obj 103 300 *~;
#X obj 238 233 -;
#X obj 252 267 /;
#X msg 287 159 1;
#X obj 289 135 t b f;
#X obj 301 185 -;
#X text 120 130 x1;
#X obj 209 144 *;
#X text 238 146 y1;
#X text 258 285 m2;
#X obj 115 252 -~;
#X text 141 254 b2;
#X text 206 213 ak;
#X text 323 160 gk;
#X obj 194 3 clip 0 0.99;
#X obj 66 366 *~ 512;
#X obj 18 507 *~;
#X obj 337 330 * -1;
#X obj 55 480 clip 0 1;
#X obj 51 538 *~;
#X obj 91 517 clip 0 1;
#X obj 82 566 *~;
#X obj 112 546 clip 0 1;
#X obj 99 600 *~;
#X obj 129 580 clip 0 1;
#X text 30 56 9 klasse geometrie...;
#N canvas 0 50 619 465 triangle01 0;
#X obj 262 148 * 2;
#X obj 254 184 - 1;
#X obj 229 201 *;
#X obj 216 90 t f f;
#X obj 193 26 inlet;
#X obj 263 404 outlet;
#X obj 299 114 < 0.5;
#X obj 267 246 -;
#X obj 272 282 + 1;
#X obj 283 322 * 2;
#X connect 0 0 1 0;
#X connect 1 0 2 1;
#X connect 2 0 7 0;
#X connect 3 0 2 0;
#X connect 3 1 6 0;
#X connect 4 0 3 0;
#X connect 6 0 0 0;
#X connect 6 0 7 1;
#X connect 7 0 8 0;
#X connect 8 0 9 0;
#X connect 9 0 5 0;
#X restore 157 413 pd triangle01;
#N canvas 0 50 619 465 triangle01 0;
#X obj 262 148 * 2;
#X obj 254 184 - 1;
#X obj 229 201 *;
#X obj 216 90 t f f;
#X obj 193 26 inlet;
#X obj 263 404 outlet;
#X obj 299 114 < 0.5;
#X obj 267 246 -;
#X obj 272 282 + 1;
#X obj 283 322 * 2;
#X connect 0 0 1 0;
#X connect 1 0 2 1;
#X connect 2 0 7 0;
#X connect 3 0 2 0;
#X connect 3 1 6 0;
#X connect 4 0 3 0;
#X connect 6 0 0 0;
#X connect 6 0 7 1;
#X connect 7 0 8 0;
#X connect 8 0 9 0;
#X connect 9 0 5 0;
#X restore 254 434 pd triangle01;
#X obj 195 376 + 0.5;
#X obj 268 390 + 1;
#X obj 311 397 + 1.5;
#N canvas 0 50 619 465 triangle01 0;
#X obj 262 148 * 2;
#X obj 254 184 - 1;
#X obj 229 201 *;
#X obj 216 90 t f f;
#X obj 193 26 inlet;
#X obj 263 404 outlet;
#X obj 299 114 < 0.5;
#X obj 267 246 -;
#X obj 272 282 + 1;
#X obj 283 322 * 2;
#X connect 0 0 1 0;
#X connect 1 0 2 1;
#X connect 2 0 7 0;
#X connect 3 0 2 0;
#X connect 3 1 6 0;
#X connect 4 0 3 0;
#X connect 6 0 0 0;
#X connect 6 0 7 1;
#X connect 7 0 8 0;
#X connect 8 0 9 0;
#X connect 9 0 5 0;
#X restore 284 465 pd triangle01;
#X obj 327 492 + 2;
#N canvas 0 50 619 465 triangle01 0;
#X obj 262 148 * 2;
#X obj 254 184 - 1;
#X obj 229 201 *;
#X obj 216 90 t f f;
#X obj 193 26 inlet;
#X obj 263 404 outlet;
#X obj 299 114 < 0.5;
#X obj 267 246 -;
#X obj 272 282 + 1;
#X obj 283 322 * 2;
#X connect 0 0 1 0;
#X connect 1 0 2 1;
#X connect 2 0 7 0;
#X connect 3 0 2 0;
#X connect 3 1 6 0;
#X connect 4 0 3 0;
#X connect 6 0 0 0;
#X connect 6 0 7 1;
#X connect 7 0 8 0;
#X connect 8 0 9 0;
#X connect 9 0 5 0;
#X restore 335 515 pd triangle01;
#X obj 364 232 * 1.5;
#X text 53 -4 freq;
#X text 414 199 wave;
#X text 241 -32 geom;
#X obj 66 440 tabread4~ \$0squarewave;
#X obj 122 474 tabread4~ \$0sawwave;
#X obj 173 513 tabread4~ \$0triwave;
#X obj 198 549 tabread4~ \$0sinewave;
#X connect 0 0 7 0;
#X connect 0 0 6 0;
#X connect 1 0 0 0;
#X connect 3 0 55 0;
#X connect 3 0 56 0;
#X connect 3 0 57 0;
#X connect 3 0 58 0;
#X connect 4 0 51 0;
#X connect 5 0 32 0;
#X connect 6 0 5 0;
#X connect 7 0 27 0;
#X connect 8 0 5 1;
#X connect 8 0 24 1;
#X connect 9 0 10 0;
#X connect 9 1 8 1;
#X connect 10 0 8 0;
#X connect 11 0 31 0;
#X connect 12 0 13 0;
#X connect 13 0 6 2;
#X connect 13 0 7 1;
#X connect 13 0 21 0;
#X connect 13 0 24 0;
#X connect 13 0 27 1;
#X connect 14 0 18 0;
#X connect 15 0 14 0;
#X connect 15 1 18 1;
#X connect 17 0 32 0;
#X connect 18 0 19 0;
#X connect 19 0 17 1;
#X connect 20 0 22 0;
#X connect 21 0 20 0;
#X connect 21 1 22 1;
#X connect 22 0 19 1;
#X connect 24 0 15 0;
#X connect 27 0 17 0;
#X connect 31 0 9 0;
#X connect 31 0 12 0;
#X connect 32 0 3 0;
#X connect 33 0 2 0;
#X connect 34 0 45 0;
#X connect 34 0 46 0;
#X connect 34 0 47 0;
#X connect 34 0 49 0;
#X connect 35 0 33 1;
#X connect 36 0 2 0;
#X connect 37 0 36 1;
#X connect 38 0 2 0;
#X connect 39 0 38 1;
#X connect 40 0 2 0;
#X connect 41 0 40 1;
#X connect 43 0 35 0;
#X connect 44 0 37 0;
#X connect 45 0 43 0;
#X connect 46 0 44 0;
#X connect 47 0 48 0;
#X connect 48 0 39 0;
#X connect 49 0 50 0;
#X connect 50 0 41 0;
#X connect 51 0 34 0;
#X connect 55 0 33 0;
#X connect 56 0 36 0;
#X connect 57 0 38 0;
#X connect 58 0 40 0;
#X restore 48 209 pd mod4osc1;
#X obj 47 183 mtof;
#X obj 108 136 +;
#X obj 47 142 -;
#X obj 95 267 outlet~;
#X text 277 35 wave;
#X text 225 35 geom;
#X connect 0 0 11 0;
#X connect 0 0 10 0;
#X connect 1 0 8 1;
#X connect 1 0 6 1;
#X connect 2 0 8 2;
#X connect 2 0 6 2;
#X connect 3 0 11 1;
#X connect 3 0 10 1;
#X connect 6 0 12 0;
#X connect 7 0 6 0;
#X connect 8 0 12 0;
#X connect 9 0 8 0;
#X connect 10 0 7 0;
#X connect 11 0 9 0;
#X restore -240 314 pd twooscs1;
#X text -247 19 simple subtractive chord-synth (pd vanilla);
#X floatatom 103 137 3 0 12 0 - - -;
#X floatatom 103 161 3 0 12 0 - - -;
#X floatatom 103 185 3 0 12 0 - - -;
#X obj -67 55 loadbang;
#X msg -2 82 set \$1;
#X msg 7 106 3;
#X msg 7 132 set \$1;
#X msg 16 156 7;
#X msg 13 192 set \$1;
#X msg 22 216 10;
#X text 101 117 tp;
#N canvas 0 50 450 300 twooscs1 0;
#X obj 50 39 inlet;
#X obj 227 54 inlet;
#X obj 275 55 inlet;
#X obj 98 39 inlet;
#X text 58 14 pitch;
#X text 108 18 det;
#N canvas 0 136 1183 715 mod4osc1 0;
#X obj -3 28 phasor~;
#X obj -2 -6 inlet~;
#X obj 72 637 outlet~;
#X obj 66 392 +~ 1;
#X obj 370 200 inlet;
#X obj 22 193 *~;
#X obj 6 146 clip~ 0 0.5;
#X obj 117 169 clip~ 0.5 1;
#X obj 207 91 -;
#X obj 199 43 t b f;
#X msg 200 69 1;
#X obj 198 -32 inlet;
#X obj 132 76 / 2;
#X obj 131 102 + 0.5;
#X msg 224 207 1;
#X obj 226 183 t b f;
#X text 53 186 m;
#X obj 103 300 *~;
#X obj 238 233 -;
#X obj 252 267 /;
#X msg 287 159 1;
#X obj 289 135 t b f;
#X obj 301 185 -;
#X text 120 130 x1;
#X obj 209 144 *;
#X text 238 146 y1;
#X text 258 285 m2;
#X obj 115 252 -~;
#X text 141 254 b2;
#X text 206 213 ak;
#X text 323 160 gk;
#X obj 194 3 clip 0 0.99;
#X obj 66 366 *~ 512;
#X obj 18 507 *~;
#X obj 337 330 * -1;
#X obj 55 480 clip 0 1;
#X obj 51 538 *~;
#X obj 91 517 clip 0 1;
#X obj 82 566 *~;
#X obj 112 546 clip 0 1;
#X obj 99 600 *~;
#X obj 129 580 clip 0 1;
#X text 30 56 9 klasse geometrie...;
#N canvas 0 50 619 465 triangle01 0;
#X obj 262 148 * 2;
#X obj 254 184 - 1;
#X obj 229 201 *;
#X obj 216 90 t f f;
#X obj 193 26 inlet;
#X obj 263 404 outlet;
#X obj 299 114 < 0.5;
#X obj 267 246 -;
#X obj 272 282 + 1;
#X obj 283 322 * 2;
#X connect 0 0 1 0;
#X connect 1 0 2 1;
#X connect 2 0 7 0;
#X connect 3 0 2 0;
#X connect 3 1 6 0;
#X connect 4 0 3 0;
#X connect 6 0 0 0;
#X connect 6 0 7 1;
#X connect 7 0 8 0;
#X connect 8 0 9 0;
#X connect 9 0 5 0;
#X restore 157 413 pd triangle01;
#N canvas 0 50 619 465 triangle01 0;
#X obj 262 148 * 2;
#X obj 254 184 - 1;
#X obj 229 201 *;
#X obj 216 90 t f f;
#X obj 193 26 inlet;
#X obj 263 404 outlet;
#X obj 299 114 < 0.5;
#X obj 267 246 -;
#X obj 272 282 + 1;
#X obj 283 322 * 2;
#X connect 0 0 1 0;
#X connect 1 0 2 1;
#X connect 2 0 7 0;
#X connect 3 0 2 0;
#X connect 3 1 6 0;
#X connect 4 0 3 0;
#X connect 6 0 0 0;
#X connect 6 0 7 1;
#X connect 7 0 8 0;
#X connect 8 0 9 0;
#X connect 9 0 5 0;
#X restore 254 434 pd triangle01;
#X obj 195 376 + 0.5;
#X obj 268 390 + 1;
#X obj 311 397 + 1.5;
#N canvas 0 50 619 465 triangle01 0;
#X obj 262 148 * 2;
#X obj 254 184 - 1;
#X obj 229 201 *;
#X obj 216 90 t f f;
#X obj 193 26 inlet;
#X obj 263 404 outlet;
#X obj 299 114 < 0.5;
#X obj 267 246 -;
#X obj 272 282 + 1;
#X obj 283 322 * 2;
#X connect 0 0 1 0;
#X connect 1 0 2 1;
#X connect 2 0 7 0;
#X connect 3 0 2 0;
#X connect 3 1 6 0;
#X connect 4 0 3 0;
#X connect 6 0 0 0;
#X connect 6 0 7 1;
#X connect 7 0 8 0;
#X connect 8 0 9 0;
#X connect 9 0 5 0;
#X restore 284 465 pd triangle01;
#X obj 327 492 + 2;
#N canvas 0 50 619 465 triangle01 0;
#X obj 262 148 * 2;
#X obj 254 184 - 1;
#X obj 229 201 *;
#X obj 216 90 t f f;
#X obj 193 26 inlet;
#X obj 263 404 outlet;
#X obj 299 114 < 0.5;
#X obj 267 246 -;
#X obj 272 282 + 1;
#X obj 283 322 * 2;
#X connect 0 0 1 0;
#X connect 1 0 2 1;
#X connect 2 0 7 0;
#X connect 3 0 2 0;
#X connect 3 1 6 0;
#X connect 4 0 3 0;
#X connect 6 0 0 0;
#X connect 6 0 7 1;
#X connect 7 0 8 0;
#X connect 8 0 9 0;
#X connect 9 0 5 0;
#X restore 335 515 pd triangle01;
#X obj 364 232 * 1.5;
#X text 53 -4 freq;
#X text 414 199 wave;
#X text 241 -32 geom;
#X obj 65 439 tabread4~ \$0squarewave;
#X obj 122 474 tabread4~ \$0sawwave;
#X obj 173 514 tabread4~ \$0triwave;
#X obj 199 549 tabread4~ \$0sinewave;
#X connect 0 0 7 0;
#X connect 0 0 6 0;
#X connect 1 0 0 0;
#X connect 3 0 55 0;
#X connect 3 0 56 0;
#X connect 3 0 57 0;
#X connect 3 0 58 0;
#X connect 4 0 51 0;
#X connect 5 0 32 0;
#X connect 6 0 5 0;
#X connect 7 0 27 0;
#X connect 8 0 5 1;
#X connect 8 0 24 1;
#X connect 9 0 10 0;
#X connect 9 1 8 1;
#X connect 10 0 8 0;
#X connect 11 0 31 0;
#X connect 12 0 13 0;
#X connect 13 0 6 2;
#X connect 13 0 7 1;
#X connect 13 0 21 0;
#X connect 13 0 24 0;
#X connect 13 0 27 1;
#X connect 14 0 18 0;
#X connect 15 0 14 0;
#X connect 15 1 18 1;
#X connect 17 0 32 0;
#X connect 18 0 19 0;
#X connect 19 0 17 1;
#X connect 20 0 22 0;
#X connect 21 0 20 0;
#X connect 21 1 22 1;
#X connect 22 0 19 1;
#X connect 24 0 15 0;
#X connect 27 0 17 0;
#X connect 31 0 9 0;
#X connect 31 0 12 0;
#X connect 32 0 3 0;
#X connect 33 0 2 0;
#X connect 34 0 45 0;
#X connect 34 0 46 0;
#X connect 34 0 47 0;
#X connect 34 0 49 0;
#X connect 35 0 33 1;
#X connect 36 0 2 0;
#X connect 37 0 36 1;
#X connect 38 0 2 0;
#X connect 39 0 38 1;
#X connect 40 0 2 0;
#X connect 41 0 40 1;
#X connect 43 0 35 0;
#X connect 44 0 37 0;
#X connect 45 0 43 0;
#X connect 46 0 44 0;
#X connect 47 0 48 0;
#X connect 48 0 39 0;
#X connect 49 0 50 0;
#X connect 50 0 41 0;
#X connect 51 0 34 0;
#X connect 55 0 33 0;
#X connect 56 0 36 0;
#X connect 57 0 38 0;
#X connect 58 0 40 0;
#X restore 135 207 pd mod4osc1;
#X obj 118 176 mtof;
#N canvas 0 136 1183 715 mod4osc1 0;
#X obj -3 28 phasor~;
#X obj -2 -6 inlet~;
#X obj 72 637 outlet~;
#X obj 66 392 +~ 1;
#X obj 370 200 inlet;
#X obj 22 193 *~;
#X obj 6 146 clip~ 0 0.5;
#X obj 117 169 clip~ 0.5 1;
#X obj 207 91 -;
#X obj 199 43 t b f;
#X msg 200 69 1;
#X obj 198 -32 inlet;
#X obj 132 76 / 2;
#X obj 131 102 + 0.5;
#X msg 224 207 1;
#X obj 226 183 t b f;
#X text 53 186 m;
#X obj 103 300 *~;
#X obj 238 233 -;
#X obj 252 267 /;
#X msg 287 159 1;
#X obj 289 135 t b f;
#X obj 301 185 -;
#X text 120 130 x1;
#X obj 209 144 *;
#X text 238 146 y1;
#X text 258 285 m2;
#X obj 115 252 -~;
#X text 141 254 b2;
#X text 206 213 ak;
#X text 323 160 gk;
#X obj 194 3 clip 0 0.99;
#X obj 66 366 *~ 512;
#X obj 18 507 *~;
#X obj 337 330 * -1;
#X obj 55 480 clip 0 1;
#X obj 51 538 *~;
#X obj 91 517 clip 0 1;
#X obj 82 566 *~;
#X obj 112 546 clip 0 1;
#X obj 99 600 *~;
#X obj 129 580 clip 0 1;
#X text 30 56 9 klasse geometrie...;
#N canvas 0 50 619 465 triangle01 0;
#X obj 262 148 * 2;
#X obj 254 184 - 1;
#X obj 229 201 *;
#X obj 216 90 t f f;
#X obj 193 26 inlet;
#X obj 263 404 outlet;
#X obj 299 114 < 0.5;
#X obj 267 246 -;
#X obj 272 282 + 1;
#X obj 283 322 * 2;
#X connect 0 0 1 0;
#X connect 1 0 2 1;
#X connect 2 0 7 0;
#X connect 3 0 2 0;
#X connect 3 1 6 0;
#X connect 4 0 3 0;
#X connect 6 0 0 0;
#X connect 6 0 7 1;
#X connect 7 0 8 0;
#X connect 8 0 9 0;
#X connect 9 0 5 0;
#X restore 157 413 pd triangle01;
#N canvas 0 50 619 465 triangle01 0;
#X obj 262 148 * 2;
#X obj 254 184 - 1;
#X obj 229 201 *;
#X obj 216 90 t f f;
#X obj 193 26 inlet;
#X obj 263 404 outlet;
#X obj 299 114 < 0.5;
#X obj 267 246 -;
#X obj 272 282 + 1;
#X obj 283 322 * 2;
#X connect 0 0 1 0;
#X connect 1 0 2 1;
#X connect 2 0 7 0;
#X connect 3 0 2 0;
#X connect 3 1 6 0;
#X connect 4 0 3 0;
#X connect 6 0 0 0;
#X connect 6 0 7 1;
#X connect 7 0 8 0;
#X connect 8 0 9 0;
#X connect 9 0 5 0;
#X restore 254 434 pd triangle01;
#X obj 195 376 + 0.5;
#X obj 268 390 + 1;
#X obj 311 397 + 1.5;
#N canvas 0 50 619 465 triangle01 0;
#X obj 262 148 * 2;
#X obj 254 184 - 1;
#X obj 229 201 *;
#X obj 216 90 t f f;
#X obj 193 26 inlet;
#X obj 263 404 outlet;
#X obj 299 114 < 0.5;
#X obj 267 246 -;
#X obj 272 282 + 1;
#X obj 283 322 * 2;
#X connect 0 0 1 0;
#X connect 1 0 2 1;
#X connect 2 0 7 0;
#X connect 3 0 2 0;
#X connect 3 1 6 0;
#X connect 4 0 3 0;
#X connect 6 0 0 0;
#X connect 6 0 7 1;
#X connect 7 0 8 0;
#X connect 8 0 9 0;
#X connect 9 0 5 0;
#X restore 284 465 pd triangle01;
#X obj 327 492 + 2;
#N canvas 0 50 619 465 triangle01 0;
#X obj 262 148 * 2;
#X obj 254 184 - 1;
#X obj 229 201 *;
#X obj 216 90 t f f;
#X obj 193 26 inlet;
#X obj 263 404 outlet;
#X obj 299 114 < 0.5;
#X obj 267 246 -;
#X obj 272 282 + 1;
#X obj 283 322 * 2;
#X connect 0 0 1 0;
#X connect 1 0 2 1;
#X connect 2 0 7 0;
#X connect 3 0 2 0;
#X connect 3 1 6 0;
#X connect 4 0 3 0;
#X connect 6 0 0 0;
#X connect 6 0 7 1;
#X connect 7 0 8 0;
#X connect 8 0 9 0;
#X connect 9 0 5 0;
#X restore 335 515 pd triangle01;
#X obj 364 232 * 1.5;
#X text 53 -4 freq;
#X text 414 199 wave;
#X text 241 -32 geom;
#X obj 66 440 tabread4~ \$0squarewave;
#X obj 122 474 tabread4~ \$0sawwave;
#X obj 173 513 tabread4~ \$0triwave;
#X obj 198 549 tabread4~ \$0sinewave;
#X connect 0 0 7 0;
#X connect 0 0 6 0;
#X connect 1 0 0 0;
#X connect 3 0 55 0;
#X connect 3 0 56 0;
#X connect 3 0 57 0;
#X connect 3 0 58 0;
#X connect 4 0 51 0;
#X connect 5 0 32 0;
#X connect 6 0 5 0;
#X connect 7 0 27 0;
#X connect 8 0 5 1;
#X connect 8 0 24 1;
#X connect 9 0 10 0;
#X connect 9 1 8 1;
#X connect 10 0 8 0;
#X connect 11 0 31 0;
#X connect 12 0 13 0;
#X connect 13 0 6 2;
#X connect 13 0 7 1;
#X connect 13 0 21 0;
#X connect 13 0 24 0;
#X connect 13 0 27 1;
#X connect 14 0 18 0;
#X connect 15 0 14 0;
#X connect 15 1 18 1;
#X connect 17 0 32 0;
#X connect 18 0 19 0;
#X connect 19 0 17 1;
#X connect 20 0 22 0;
#X connect 21 0 20 0;
#X connect 21 1 22 1;
#X connect 22 0 19 1;
#X connect 24 0 15 0;
#X connect 27 0 17 0;
#X connect 31 0 9 0;
#X connect 31 0 12 0;
#X connect 32 0 3 0;
#X connect 33 0 2 0;
#X connect 34 0 45 0;
#X connect 34 0 46 0;
#X connect 34 0 47 0;
#X connect 34 0 49 0;
#X connect 35 0 33 1;
#X connect 36 0 2 0;
#X connect 37 0 36 1;
#X connect 38 0 2 0;
#X connect 39 0 38 1;
#X connect 40 0 2 0;
#X connect 41 0 40 1;
#X connect 43 0 35 0;
#X connect 44 0 37 0;
#X connect 45 0 43 0;
#X connect 46 0 44 0;
#X connect 47 0 48 0;
#X connect 48 0 39 0;
#X connect 49 0 50 0;
#X connect 50 0 41 0;
#X connect 51 0 34 0;
#X connect 55 0 33 0;
#X connect 56 0 36 0;
#X connect 57 0 38 0;
#X connect 58 0 40 0;
#X restore 48 209 pd mod4osc1;
#X obj 47 183 mtof;
#X obj 108 136 +;
#X obj 47 142 -;
#X obj 95 267 outlet~;
#X text 277 35 wave;
#X text 225 35 geom;
#X connect 0 0 11 0;
#X connect 0 0 10 0;
#X connect 1 0 8 1;
#X connect 1 0 6 1;
#X connect 2 0 8 2;
#X connect 2 0 6 2;
#X connect 3 0 11 1;
#X connect 3 0 10 1;
#X connect 6 0 12 0;
#X connect 7 0 6 0;
#X connect 8 0 12 0;
#X connect 9 0 8 0;
#X connect 10 0 7 0;
#X connect 11 0 9 0;
#X restore -219 350 pd twooscs1;
#X obj -145 319 +;
#X obj -250 456 *~ 0.25;
#N canvas 0 50 450 300 twooscs1 0;
#X obj 50 39 inlet;
#X obj 227 54 inlet;
#X obj 275 55 inlet;
#X obj 98 39 inlet;
#X text 58 14 pitch;
#X text 108 18 det;
#N canvas 0 136 1183 715 mod4osc1 0;
#X obj -3 28 phasor~;
#X obj -2 -6 inlet~;
#X obj 72 637 outlet~;
#X obj 66 392 +~ 1;
#X obj 370 200 inlet;
#X obj 22 193 *~;
#X obj 6 146 clip~ 0 0.5;
#X obj 117 169 clip~ 0.5 1;
#X obj 207 91 -;
#X obj 199 43 t b f;
#X msg 200 69 1;
#X obj 198 -32 inlet;
#X obj 132 76 / 2;
#X obj 131 102 + 0.5;
#X msg 224 207 1;
#X obj 226 183 t b f;
#X text 53 186 m;
#X obj 103 300 *~;
#X obj 238 233 -;
#X obj 252 267 /;
#X msg 287 159 1;
#X obj 289 135 t b f;
#X obj 301 185 -;
#X text 120 130 x1;
#X obj 209 144 *;
#X text 238 146 y1;
#X text 258 285 m2;
#X obj 115 252 -~;
#X text 141 254 b2;
#X text 206 213 ak;
#X text 323 160 gk;
#X obj 194 3 clip 0 0.99;
#X obj 66 366 *~ 512;
#X obj 18 507 *~;
#X obj 337 330 * -1;
#X obj 55 480 clip 0 1;
#X obj 51 538 *~;
#X obj 91 517 clip 0 1;
#X obj 82 566 *~;
#X obj 112 546 clip 0 1;
#X obj 99 600 *~;
#X obj 129 580 clip 0 1;
#X text 30 56 9 klasse geometrie...;
#N canvas 0 50 619 465 triangle01 0;
#X obj 262 148 * 2;
#X obj 254 184 - 1;
#X obj 229 201 *;
#X obj 216 90 t f f;
#X obj 193 26 inlet;
#X obj 263 404 outlet;
#X obj 299 114 < 0.5;
#X obj 267 246 -;
#X obj 272 282 + 1;
#X obj 283 322 * 2;
#X connect 0 0 1 0;
#X connect 1 0 2 1;
#X connect 2 0 7 0;
#X connect 3 0 2 0;
#X connect 3 1 6 0;
#X connect 4 0 3 0;
#X connect 6 0 0 0;
#X connect 6 0 7 1;
#X connect 7 0 8 0;
#X connect 8 0 9 0;
#X connect 9 0 5 0;
#X restore 157 413 pd triangle01;
#N canvas 0 50 619 465 triangle01 0;
#X obj 262 148 * 2;
#X obj 254 184 - 1;
#X obj 229 201 *;
#X obj 216 90 t f f;
#X obj 193 26 inlet;
#X obj 263 404 outlet;
#X obj 299 114 < 0.5;
#X obj 267 246 -;
#X obj 272 282 + 1;
#X obj 283 322 * 2;
#X connect 0 0 1 0;
#X connect 1 0 2 1;
#X connect 2 0 7 0;
#X connect 3 0 2 0;
#X connect 3 1 6 0;
#X connect 4 0 3 0;
#X connect 6 0 0 0;
#X connect 6 0 7 1;
#X connect 7 0 8 0;
#X connect 8 0 9 0;
#X connect 9 0 5 0;
#X restore 254 434 pd triangle01;
#X obj 195 376 + 0.5;
#X obj 268 390 + 1;
#X obj 311 397 + 1.5;
#N canvas 0 50 619 465 triangle01 0;
#X obj 262 148 * 2;
#X obj 254 184 - 1;
#X obj 229 201 *;
#X obj 216 90 t f f;
#X obj 193 26 inlet;
#X obj 263 404 outlet;
#X obj 299 114 < 0.5;
#X obj 267 246 -;
#X obj 272 282 + 1;
#X obj 283 322 * 2;
#X connect 0 0 1 0;
#X connect 1 0 2 1;
#X connect 2 0 7 0;
#X connect 3 0 2 0;
#X connect 3 1 6 0;
#X connect 4 0 3 0;
#X connect 6 0 0 0;
#X connect 6 0 7 1;
#X connect 7 0 8 0;
#X connect 8 0 9 0;
#X connect 9 0 5 0;
#X restore 284 465 pd triangle01;
#X obj 327 492 + 2;
#N canvas 0 50 619 465 triangle01 0;
#X obj 262 148 * 2;
#X obj 254 184 - 1;
#X obj 229 201 *;
#X obj 216 90 t f f;
#X obj 193 26 inlet;
#X obj 263 404 outlet;
#X obj 299 114 < 0.5;
#X obj 267 246 -;
#X obj 272 282 + 1;
#X obj 283 322 * 2;
#X connect 0 0 1 0;
#X connect 1 0 2 1;
#X connect 2 0 7 0;
#X connect 3 0 2 0;
#X connect 3 1 6 0;
#X connect 4 0 3 0;
#X connect 6 0 0 0;
#X connect 6 0 7 1;
#X connect 7 0 8 0;
#X connect 8 0 9 0;
#X connect 9 0 5 0;
#X restore 335 515 pd triangle01;
#X obj 364 232 * 1.5;
#X text 53 -4 freq;
#X text 414 199 wave;
#X text 241 -32 geom;
#X obj 65 439 tabread4~ \$0squarewave;
#X obj 122 474 tabread4~ \$0sawwave;
#X obj 173 514 tabread4~ \$0triwave;
#X obj 199 549 tabread4~ \$0sinewave;
#X connect 0 0 7 0;
#X connect 0 0 6 0;
#X connect 1 0 0 0;
#X connect 3 0 55 0;
#X connect 3 0 56 0;
#X connect 3 0 57 0;
#X connect 3 0 58 0;
#X connect 4 0 51 0;
#X connect 5 0 32 0;
#X connect 6 0 5 0;
#X connect 7 0 27 0;
#X connect 8 0 5 1;
#X connect 8 0 24 1;
#X connect 9 0 10 0;
#X connect 9 1 8 1;
#X connect 10 0 8 0;
#X connect 11 0 31 0;
#X connect 12 0 13 0;
#X connect 13 0 6 2;
#X connect 13 0 7 1;
#X connect 13 0 21 0;
#X connect 13 0 24 0;
#X connect 13 0 27 1;
#X connect 14 0 18 0;
#X connect 15 0 14 0;
#X connect 15 1 18 1;
#X connect 17 0 32 0;
#X connect 18 0 19 0;
#X connect 19 0 17 1;
#X connect 20 0 22 0;
#X connect 21 0 20 0;
#X connect 21 1 22 1;
#X connect 22 0 19 1;
#X connect 24 0 15 0;
#X connect 27 0 17 0;
#X connect 31 0 9 0;
#X connect 31 0 12 0;
#X connect 32 0 3 0;
#X connect 33 0 2 0;
#X connect 34 0 45 0;
#X connect 34 0 46 0;
#X connect 34 0 47 0;
#X connect 34 0 49 0;
#X connect 35 0 33 1;
#X connect 36 0 2 0;
#X connect 37 0 36 1;
#X connect 38 0 2 0;
#X connect 39 0 38 1;
#X connect 40 0 2 0;
#X connect 41 0 40 1;
#X connect 43 0 35 0;
#X connect 44 0 37 0;
#X connect 45 0 43 0;
#X connect 46 0 44 0;
#X connect 47 0 48 0;
#X connect 48 0 39 0;
#X connect 49 0 50 0;
#X connect 50 0 41 0;
#X connect 51 0 34 0;
#X connect 55 0 33 0;
#X connect 56 0 36 0;
#X connect 57 0 38 0;
#X connect 58 0 40 0;
#X restore 135 207 pd mod4osc1;
#X obj 118 176 mtof;
#N canvas 0 136 1183 715 mod4osc1 0;
#X obj -3 28 phasor~;
#X obj -2 -6 inlet~;
#X obj 72 637 outlet~;
#X obj 66 392 +~ 1;
#X obj 370 200 inlet;
#X obj 22 193 *~;
#X obj 6 146 clip~ 0 0.5;
#X obj 117 169 clip~ 0.5 1;
#X obj 207 91 -;
#X obj 199 43 t b f;
#X msg 200 69 1;
#X obj 198 -32 inlet;
#X obj 132 76 / 2;
#X obj 131 102 + 0.5;
#X msg 224 207 1;
#X obj 226 183 t b f;
#X text 53 186 m;
#X obj 103 300 *~;
#X obj 238 233 -;
#X obj 252 267 /;
#X msg 287 159 1;
#X obj 289 135 t b f;
#X obj 301 185 -;
#X text 120 130 x1;
#X obj 209 144 *;
#X text 238 146 y1;
#X text 258 285 m2;
#X obj 115 252 -~;
#X text 141 254 b2;
#X text 206 213 ak;
#X text 323 160 gk;
#X obj 194 3 clip 0 0.99;
#X obj 66 366 *~ 512;
#X obj 18 507 *~;
#X obj 337 330 * -1;
#X obj 55 480 clip 0 1;
#X obj 51 538 *~;
#X obj 91 517 clip 0 1;
#X obj 82 566 *~;
#X obj 112 546 clip 0 1;
#X obj 99 600 *~;
#X obj 129 580 clip 0 1;
#X text 30 56 9 klasse geometrie...;
#N canvas 0 50 619 465 triangle01 0;
#X obj 262 148 * 2;
#X obj 254 184 - 1;
#X obj 229 201 *;
#X obj 216 90 t f f;
#X obj 193 26 inlet;
#X obj 263 404 outlet;
#X obj 299 114 < 0.5;
#X obj 267 246 -;
#X obj 272 282 + 1;
#X obj 283 322 * 2;
#X connect 0 0 1 0;
#X connect 1 0 2 1;
#X connect 2 0 7 0;
#X connect 3 0 2 0;
#X connect 3 1 6 0;
#X connect 4 0 3 0;
#X connect 6 0 0 0;
#X connect 6 0 7 1;
#X connect 7 0 8 0;
#X connect 8 0 9 0;
#X connect 9 0 5 0;
#X restore 157 413 pd triangle01;
#N canvas 0 50 619 465 triangle01 0;
#X obj 262 148 * 2;
#X obj 254 184 - 1;
#X obj 229 201 *;
#X obj 216 90 t f f;
#X obj 193 26 inlet;
#X obj 263 404 outlet;
#X obj 299 114 < 0.5;
#X obj 267 246 -;
#X obj 272 282 + 1;
#X obj 283 322 * 2;
#X connect 0 0 1 0;
#X connect 1 0 2 1;
#X connect 2 0 7 0;
#X connect 3 0 2 0;
#X connect 3 1 6 0;
#X connect 4 0 3 0;
#X connect 6 0 0 0;
#X connect 6 0 7 1;
#X connect 7 0 8 0;
#X connect 8 0 9 0;
#X connect 9 0 5 0;
#X restore 254 434 pd triangle01;
#X obj 195 376 + 0.5;
#X obj 268 390 + 1;
#X obj 311 397 + 1.5;
#N canvas 0 50 619 465 triangle01 0;
#X obj 262 148 * 2;
#X obj 254 184 - 1;
#X obj 229 201 *;
#X obj 216 90 t f f;
#X obj 193 26 inlet;
#X obj 263 404 outlet;
#X obj 299 114 < 0.5;
#X obj 267 246 -;
#X obj 272 282 + 1;
#X obj 283 322 * 2;
#X connect 0 0 1 0;
#X connect 1 0 2 1;
#X connect 2 0 7 0;
#X connect 3 0 2 0;
#X connect 3 1 6 0;
#X connect 4 0 3 0;
#X connect 6 0 0 0;
#X connect 6 0 7 1;
#X connect 7 0 8 0;
#X connect 8 0 9 0;
#X connect 9 0 5 0;
#X restore 284 465 pd triangle01;
#X obj 327 492 + 2;
#N canvas 0 50 619 465 triangle01 0;
#X obj 262 148 * 2;
#X obj 254 184 - 1;
#X obj 229 201 *;
#X obj 216 90 t f f;
#X obj 193 26 inlet;
#X obj 263 404 outlet;
#X obj 299 114 < 0.5;
#X obj 267 246 -;
#X obj 272 282 + 1;
#X obj 283 322 * 2;
#X connect 0 0 1 0;
#X connect 1 0 2 1;
#X connect 2 0 7 0;
#X connect 3 0 2 0;
#X connect 3 1 6 0;
#X connect 4 0 3 0;
#X connect 6 0 0 0;
#X connect 6 0 7 1;
#X connect 7 0 8 0;
#X connect 8 0 9 0;
#X connect 9 0 5 0;
#X restore 335 515 pd triangle01;
#X obj 364 232 * 1.5;
#X text 53 -4 freq;
#X text 414 199 wave;
#X text 241 -32 geom;
#X obj 66 440 tabread4~ \$0squarewave;
#X obj 122 474 tabread4~ \$0sawwave;
#X obj 173 513 tabread4~ \$0triwave;
#X obj 198 549 tabread4~ \$0sinewave;
#X connect 0 0 7 0;
#X connect 0 0 6 0;
#X connect 1 0 0 0;
#X connect 3 0 55 0;
#X connect 3 0 56 0;
#X connect 3 0 57 0;
#X connect 3 0 58 0;
#X connect 4 0 51 0;
#X connect 5 0 32 0;
#X connect 6 0 5 0;
#X connect 7 0 27 0;
#X connect 8 0 5 1;
#X connect 8 0 24 1;
#X connect 9 0 10 0;
#X connect 9 1 8 1;
#X connect 10 0 8 0;
#X connect 11 0 31 0;
#X connect 12 0 13 0;
#X connect 13 0 6 2;
#X connect 13 0 7 1;
#X connect 13 0 21 0;
#X connect 13 0 24 0;
#X connect 13 0 27 1;
#X connect 14 0 18 0;
#X connect 15 0 14 0;
#X connect 15 1 18 1;
#X connect 17 0 32 0;
#X connect 18 0 19 0;
#X connect 19 0 17 1;
#X connect 20 0 22 0;
#X connect 21 0 20 0;
#X connect 21 1 22 1;
#X connect 22 0 19 1;
#X connect 24 0 15 0;
#X connect 27 0 17 0;
#X connect 31 0 9 0;
#X connect 31 0 12 0;
#X connect 32 0 3 0;
#X connect 33 0 2 0;
#X connect 34 0 45 0;
#X connect 34 0 46 0;
#X connect 34 0 47 0;
#X connect 34 0 49 0;
#X connect 35 0 33 1;
#X connect 36 0 2 0;
#X connect 37 0 36 1;
#X connect 38 0 2 0;
#X connect 39 0 38 1;
#X connect 40 0 2 0;
#X connect 41 0 40 1;
#X connect 43 0 35 0;
#X connect 44 0 37 0;
#X connect 45 0 43 0;
#X connect 46 0 44 0;
#X connect 47 0 48 0;
#X connect 48 0 39 0;
#X connect 49 0 50 0;
#X connect 50 0 41 0;
#X connect 51 0 34 0;
#X connect 55 0 33 0;
#X connect 56 0 36 0;
#X connect 57 0 38 0;
#X connect 58 0 40 0;
#X restore 48 209 pd mod4osc1;
#X obj 47 183 mtof;
#X obj 108 136 +;
#X obj 47 142 -;
#X obj 95 267 outlet~;
#X text 277 35 wave;
#X text 225 35 geom;
#X connect 0 0 11 0;
#X connect 0 0 10 0;
#X connect 1 0 8 1;
#X connect 1 0 6 1;
#X connect 2 0 8 2;
#X connect 2 0 6 2;
#X connect 3 0 11 1;
#X connect 3 0 10 1;
#X connect 6 0 12 0;
#X connect 7 0 6 0;
#X connect 8 0 12 0;
#X connect 9 0 8 0;
#X connect 10 0 7 0;
#X connect 11 0 9 0;
#X restore -201 392 pd twooscs1;
#X obj -127 361 +;
#N canvas 0 50 450 300 twooscs1 0;
#X obj 50 39 inlet;
#X obj 227 54 inlet;
#X obj 275 55 inlet;
#X obj 98 39 inlet;
#X text 58 14 pitch;
#X text 108 18 det;
#N canvas 0 136 1183 715 mod4osc1 0;
#X obj -3 28 phasor~;
#X obj -2 -6 inlet~;
#X obj 72 637 outlet~;
#X obj 66 392 +~ 1;
#X obj 370 200 inlet;
#X obj 22 193 *~;
#X obj 6 146 clip~ 0 0.5;
#X obj 117 169 clip~ 0.5 1;
#X obj 207 91 -;
#X obj 199 43 t b f;
#X msg 200 69 1;
#X obj 198 -32 inlet;
#X obj 132 76 / 2;
#X obj 131 102 + 0.5;
#X msg 224 207 1;
#X obj 226 183 t b f;
#X text 53 186 m;
#X obj 103 300 *~;
#X obj 238 233 -;
#X obj 252 267 /;
#X msg 287 159 1;
#X obj 289 135 t b f;
#X obj 301 185 -;
#X text 120 130 x1;
#X obj 209 144 *;
#X text 238 146 y1;
#X text 258 285 m2;
#X obj 115 252 -~;
#X text 141 254 b2;
#X text 206 213 ak;
#X text 323 160 gk;
#X obj 194 3 clip 0 0.99;
#X obj 66 366 *~ 512;
#X obj 18 507 *~;
#X obj 337 330 * -1;
#X obj 55 480 clip 0 1;
#X obj 51 538 *~;
#X obj 91 517 clip 0 1;
#X obj 82 566 *~;
#X obj 112 546 clip 0 1;
#X obj 99 600 *~;
#X obj 129 580 clip 0 1;
#X text 30 56 9 klasse geometrie...;
#N canvas 0 50 619 465 triangle01 0;
#X obj 262 148 * 2;
#X obj 254 184 - 1;
#X obj 229 201 *;
#X obj 216 90 t f f;
#X obj 193 26 inlet;
#X obj 263 404 outlet;
#X obj 299 114 < 0.5;
#X obj 267 246 -;
#X obj 272 282 + 1;
#X obj 283 322 * 2;
#X connect 0 0 1 0;
#X connect 1 0 2 1;
#X connect 2 0 7 0;
#X connect 3 0 2 0;
#X connect 3 1 6 0;
#X connect 4 0 3 0;
#X connect 6 0 0 0;
#X connect 6 0 7 1;
#X connect 7 0 8 0;
#X connect 8 0 9 0;
#X connect 9 0 5 0;
#X restore 157 413 pd triangle01;
#N canvas 0 50 619 465 triangle01 0;
#X obj 262 148 * 2;
#X obj 254 184 - 1;
#X obj 229 201 *;
#X obj 216 90 t f f;
#X obj 193 26 inlet;
#X obj 263 404 outlet;
#X obj 299 114 < 0.5;
#X obj 267 246 -;
#X obj 272 282 + 1;
#X obj 283 322 * 2;
#X connect 0 0 1 0;
#X connect 1 0 2 1;
#X connect 2 0 7 0;
#X connect 3 0 2 0;
#X connect 3 1 6 0;
#X connect 4 0 3 0;
#X connect 6 0 0 0;
#X connect 6 0 7 1;
#X connect 7 0 8 0;
#X connect 8 0 9 0;
#X connect 9 0 5 0;
#X restore 254 434 pd triangle01;
#X obj 195 376 + 0.5;
#X obj 268 390 + 1;
#X obj 311 397 + 1.5;
#N canvas 0 50 619 465 triangle01 0;
#X obj 262 148 * 2;
#X obj 254 184 - 1;
#X obj 229 201 *;
#X obj 216 90 t f f;
#X obj 193 26 inlet;
#X obj 263 404 outlet;
#X obj 299 114 < 0.5;
#X obj 267 246 -;
#X obj 272 282 + 1;
#X obj 283 322 * 2;
#X connect 0 0 1 0;
#X connect 1 0 2 1;
#X connect 2 0 7 0;
#X connect 3 0 2 0;
#X connect 3 1 6 0;
#X connect 4 0 3 0;
#X connect 6 0 0 0;
#X connect 6 0 7 1;
#X connect 7 0 8 0;
#X connect 8 0 9 0;
#X connect 9 0 5 0;
#X restore 284 465 pd triangle01;
#X obj 327 492 + 2;
#N canvas 0 50 619 465 triangle01 0;
#X obj 262 148 * 2;
#X obj 254 184 - 1;
#X obj 229 201 *;
#X obj 216 90 t f f;
#X obj 193 26 inlet;
#X obj 263 404 outlet;
#X obj 299 114 < 0.5;
#X obj 267 246 -;
#X obj 272 282 + 1;
#X obj 283 322 * 2;
#X connect 0 0 1 0;
#X connect 1 0 2 1;
#X connect 2 0 7 0;
#X connect 3 0 2 0;
#X connect 3 1 6 0;
#X connect 4 0 3 0;
#X connect 6 0 0 0;
#X connect 6 0 7 1;
#X connect 7 0 8 0;
#X connect 8 0 9 0;
#X connect 9 0 5 0;
#X restore 335 515 pd triangle01;
#X obj 364 232 * 1.5;
#X text 53 -4 freq;
#X text 414 199 wave;
#X text 241 -32 geom;
#X obj 65 439 tabread4~ \$0squarewave;
#X obj 122 474 tabread4~ \$0sawwave;
#X obj 173 514 tabread4~ \$0triwave;
#X obj 199 549 tabread4~ \$0sinewave;
#X connect 0 0 7 0;
#X connect 0 0 6 0;
#X connect 1 0 0 0;
#X connect 3 0 55 0;
#X connect 3 0 56 0;
#X connect 3 0 57 0;
#X connect 3 0 58 0;
#X connect 4 0 51 0;
#X connect 5 0 32 0;
#X connect 6 0 5 0;
#X connect 7 0 27 0;
#X connect 8 0 5 1;
#X connect 8 0 24 1;
#X connect 9 0 10 0;
#X connect 9 1 8 1;
#X connect 10 0 8 0;
#X connect 11 0 31 0;
#X connect 12 0 13 0;
#X connect 13 0 6 2;
#X connect 13 0 7 1;
#X connect 13 0 21 0;
#X connect 13 0 24 0;
#X connect 13 0 27 1;
#X connect 14 0 18 0;
#X connect 15 0 14 0;
#X connect 15 1 18 1;
#X connect 17 0 32 0;
#X connect 18 0 19 0;
#X connect 19 0 17 1;
#X connect 20 0 22 0;
#X connect 21 0 20 0;
#X connect 21 1 22 1;
#X connect 22 0 19 1;
#X connect 24 0 15 0;
#X connect 27 0 17 0;
#X connect 31 0 9 0;
#X connect 31 0 12 0;
#X connect 32 0 3 0;
#X connect 33 0 2 0;
#X connect 34 0 45 0;
#X connect 34 0 46 0;
#X connect 34 0 47 0;
#X connect 34 0 49 0;
#X connect 35 0 33 1;
#X connect 36 0 2 0;
#X connect 37 0 36 1;
#X connect 38 0 2 0;
#X connect 39 0 38 1;
#X connect 40 0 2 0;
#X connect 41 0 40 1;
#X connect 43 0 35 0;
#X connect 44 0 37 0;
#X connect 45 0 43 0;
#X connect 46 0 44 0;
#X connect 47 0 48 0;
#X connect 48 0 39 0;
#X connect 49 0 50 0;
#X connect 50 0 41 0;
#X connect 51 0 34 0;
#X connect 55 0 33 0;
#X connect 56 0 36 0;
#X connect 57 0 38 0;
#X connect 58 0 40 0;
#X restore 135 207 pd mod4osc1;
#X obj 118 176 mtof;
#N canvas 0 136 1183 715 mod4osc1 0;
#X obj -3 28 phasor~;
#X obj -2 -6 inlet~;
#X obj 72 637 outlet~;
#X obj 66 392 +~ 1;
#X obj 370 200 inlet;
#X obj 22 193 *~;
#X obj 6 146 clip~ 0 0.5;
#X obj 117 169 clip~ 0.5 1;
#X obj 207 91 -;
#X obj 199 43 t b f;
#X msg 200 69 1;
#X obj 198 -32 inlet;
#X obj 132 76 / 2;
#X obj 131 102 + 0.5;
#X msg 224 207 1;
#X obj 226 183 t b f;
#X text 53 186 m;
#X obj 103 300 *~;
#X obj 238 233 -;
#X obj 252 267 /;
#X msg 287 159 1;
#X obj 289 135 t b f;
#X obj 301 185 -;
#X text 120 130 x1;
#X obj 209 144 *;
#X text 238 146 y1;
#X text 258 285 m2;
#X obj 115 252 -~;
#X text 141 254 b2;
#X text 206 213 ak;
#X text 323 160 gk;
#X obj 194 3 clip 0 0.99;
#X obj 66 366 *~ 512;
#X obj 18 507 *~;
#X obj 337 330 * -1;
#X obj 55 480 clip 0 1;
#X obj 51 538 *~;
#X obj 91 517 clip 0 1;
#X obj 82 566 *~;
#X obj 112 546 clip 0 1;
#X obj 99 600 *~;
#X obj 129 580 clip 0 1;
#X text 30 56 9 klasse geometrie...;
#N canvas 0 50 619 465 triangle01 0;
#X obj 262 148 * 2;
#X obj 254 184 - 1;
#X obj 229 201 *;
#X obj 216 90 t f f;
#X obj 193 26 inlet;
#X obj 263 404 outlet;
#X obj 299 114 < 0.5;
#X obj 267 246 -;
#X obj 272 282 + 1;
#X obj 283 322 * 2;
#X connect 0 0 1 0;
#X connect 1 0 2 1;
#X connect 2 0 7 0;
#X connect 3 0 2 0;
#X connect 3 1 6 0;
#X connect 4 0 3 0;
#X connect 6 0 0 0;
#X connect 6 0 7 1;
#X connect 7 0 8 0;
#X connect 8 0 9 0;
#X connect 9 0 5 0;
#X restore 157 413 pd triangle01;
#N canvas 0 50 619 465 triangle01 0;
#X obj 262 148 * 2;
#X obj 254 184 - 1;
#X obj 229 201 *;
#X obj 216 90 t f f;
#X obj 193 26 inlet;
#X obj 263 404 outlet;
#X obj 299 114 < 0.5;
#X obj 267 246 -;
#X obj 272 282 + 1;
#X obj 283 322 * 2;
#X connect 0 0 1 0;
#X connect 1 0 2 1;
#X connect 2 0 7 0;
#X connect 3 0 2 0;
#X connect 3 1 6 0;
#X connect 4 0 3 0;
#X connect 6 0 0 0;
#X connect 6 0 7 1;
#X connect 7 0 8 0;
#X connect 8 0 9 0;
#X connect 9 0 5 0;
#X restore 254 434 pd triangle01;
#X obj 195 376 + 0.5;
#X obj 268 390 + 1;
#X obj 311 397 + 1.5;
#N canvas 0 50 619 465 triangle01 0;
#X obj 262 148 * 2;
#X obj 254 184 - 1;
#X obj 229 201 *;
#X obj 216 90 t f f;
#X obj 193 26 inlet;
#X obj 263 404 outlet;
#X obj 299 114 < 0.5;
#X obj 267 246 -;
#X obj 272 282 + 1;
#X obj 283 322 * 2;
#X connect 0 0 1 0;
#X connect 1 0 2 1;
#X connect 2 0 7 0;
#X connect 3 0 2 0;
#X connect 3 1 6 0;
#X connect 4 0 3 0;
#X connect 6 0 0 0;
#X connect 6 0 7 1;
#X connect 7 0 8 0;
#X connect 8 0 9 0;
#X connect 9 0 5 0;
#X restore 284 465 pd triangle01;
#X obj 327 492 + 2;
#N canvas 0 50 619 465 triangle01 0;
#X obj 262 148 * 2;
#X obj 254 184 - 1;
#X obj 229 201 *;
#X obj 216 90 t f f;
#X obj 193 26 inlet;
#X obj 263 404 outlet;
#X obj 299 114 < 0.5;
#X obj 267 246 -;
#X obj 272 282 + 1;
#X obj 283 322 * 2;
#X connect 0 0 1 0;
#X connect 1 0 2 1;
#X connect 2 0 7 0;
#X connect 3 0 2 0;
#X connect 3 1 6 0;
#X connect 4 0 3 0;
#X connect 6 0 0 0;
#X connect 6 0 7 1;
#X connect 7 0 8 0;
#X connect 8 0 9 0;
#X connect 9 0 5 0;
#X restore 335 515 pd triangle01;
#X obj 364 232 * 1.5;
#X text 53 -4 freq;
#X text 414 199 wave;
#X text 241 -32 geom;
#X obj 66 440 tabread4~ \$0squarewave;
#X obj 122 474 tabread4~ \$0sawwave;
#X obj 173 513 tabread4~ \$0triwave;
#X obj 198 549 tabread4~ \$0sinewave;
#X connect 0 0 7 0;
#X connect 0 0 6 0;
#X connect 1 0 0 0;
#X connect 3 0 55 0;
#X connect 3 0 56 0;
#X connect 3 0 57 0;
#X connect 3 0 58 0;
#X connect 4 0 51 0;
#X connect 5 0 32 0;
#X connect 6 0 5 0;
#X connect 7 0 27 0;
#X connect 8 0 5 1;
#X connect 8 0 24 1;
#X connect 9 0 10 0;
#X connect 9 1 8 1;
#X connect 10 0 8 0;
#X connect 11 0 31 0;
#X connect 12 0 13 0;
#X connect 13 0 6 2;
#X connect 13 0 7 1;
#X connect 13 0 21 0;
#X connect 13 0 24 0;
#X connect 13 0 27 1;
#X connect 14 0 18 0;
#X connect 15 0 14 0;
#X connect 15 1 18 1;
#X connect 17 0 32 0;
#X connect 18 0 19 0;
#X connect 19 0 17 1;
#X connect 20 0 22 0;
#X connect 21 0 20 0;
#X connect 21 1 22 1;
#X connect 22 0 19 1;
#X connect 24 0 15 0;
#X connect 27 0 17 0;
#X connect 31 0 9 0;
#X connect 31 0 12 0;
#X connect 32 0 3 0;
#X connect 33 0 2 0;
#X connect 34 0 45 0;
#X connect 34 0 46 0;
#X connect 34 0 47 0;
#X connect 34 0 49 0;
#X connect 35 0 33 1;
#X connect 36 0 2 0;
#X connect 37 0 36 1;
#X connect 38 0 2 0;
#X connect 39 0 38 1;
#X connect 40 0 2 0;
#X connect 41 0 40 1;
#X connect 43 0 35 0;
#X connect 44 0 37 0;
#X connect 45 0 43 0;
#X connect 46 0 44 0;
#X connect 47 0 48 0;
#X connect 48 0 39 0;
#X connect 49 0 50 0;
#X connect 50 0 41 0;
#X connect 51 0 34 0;
#X connect 55 0 33 0;
#X connect 56 0 36 0;
#X connect 57 0 38 0;
#X connect 58 0 40 0;
#X restore 48 209 pd mod4osc1;
#X obj 47 183 mtof;
#X obj 108 136 +;
#X obj 47 142 -;
#X obj 95 267 outlet~;
#X text 277 35 wave;
#X text 225 35 geom;
#X connect 0 0 11 0;
#X connect 0 0 10 0;
#X connect 1 0 8 1;
#X connect 1 0 6 1;
#X connect 2 0 8 2;
#X connect 2 0 6 2;
#X connect 3 0 11 1;
#X connect 3 0 10 1;
#X connect 6 0 12 0;
#X connect 7 0 6 0;
#X connect 8 0 12 0;
#X connect 9 0 8 0;
#X connect 10 0 7 0;
#X connect 11 0 9 0;
#X restore -164 424 pd twooscs1;
#X obj -87 394 +;
#X obj -168 637 / 10;
#X text -283 52 5/2010 \, 3/2013 martin brinkmann;
#N canvas 717 79 1076 1000 lopass2p2z 0;
#X obj -50 465 inlet~;
#X obj 129 919 outlet~;
#X obj 73 85 inlet~;
#X obj 87 200 sig~ 1;
#X obj 121 249 /~;
#X obj 219 59 samplerate~;
#X obj 110 376 sig~ 1;
#X obj 147 408 /~;
#X obj 214 340 +~;
#X obj 187 310 sig~ 1;
#X obj 251 318 *~;
#X obj 181 375 +~;
#X obj 112 295 *~;
#X text 41 361 a1/a3;
#X obj 222 407 sig~ 1;
#X obj 296 433 -~;
#X obj 299 457 *~ 2;
#X obj 286 506 *~;
#X obj 409 334 *~;
#X text 276 435 b1;
#X text 384 379 b2;
#X obj 361 397 sig~ 1;
#X obj 392 429 -~;
#X obj 377 512 *~;
#X text 99 246 c;
#X obj 397 462 +~;
#X obj 147 222 expr~ tan($v1);
#X obj 151 194 /~ 44100;
#X obj 129 153 *~ 3.14159;
#X text 408 73 resonance 0..1;
#X text 124 86 cutoff (hz);
#X text 420 186 a2= 2*a1 \, a3=a1;
#X text 420 150 c= 1/tan(pi*cutf/samplerate);
#X text 422 168 a1= 1/(1+res*c+c*c);
#X text 421 204 b1= 2*(1-c*c)*a1;
#X text 421 220 b2= (1-res*c+c*c)*a1;
#X obj 33 690 czero~;
#X obj 59 727 czero~;
#X obj 73 646 sig~ -1;
#X obj 90 670 sig~ 0;
#X obj 90 841 cpole~;
#X obj 129 888 cpole~;
#X obj 296 199 *~ 1.41421;
#X obj 307 148 -~;
#X obj 353 72 inlet~;
#X obj 279 94 sig~ 1;
#X text 28 627 zeros at fixed pos;
#X obj 178 840 *~ -1;
#X obj 184 805 expr~ sqrt($v1);
#X obj -44 595 *~;
#X obj 128 704 *~ -0.5;
#X text 219 845 2nd pole = 1st mirrored on the x axis;
#X text 183 704 b1/2 (x pos);
#X text 267 11 cookbook-like? (i cant remember where i got this from)
lp-filter;
#X obj 163 748 *~;
#X obj 183 781 -~;
#X text 217 666 pole position from coeffs:;
#X text 218 683 p=-b1/2+j*sqrt(b2-(b1/2)^2) (found somewhere on the
net...);
#X connect 0 0 49 0;
#X connect 2 0 28 0;
#X connect 3 0 4 0;
#X connect 4 0 10 0;
#X connect 4 0 12 0;
#X connect 4 0 12 1;
#X connect 4 0 18 0;
#X connect 5 0 27 1;
#X connect 6 0 7 0;
#X connect 7 0 17 1;
#X connect 7 0 23 0;
#X connect 7 0 49 1;
#X connect 8 0 11 1;
#X connect 9 0 8 0;
#X connect 10 0 8 1;
#X connect 11 0 7 1;
#X connect 12 0 11 0;
#X connect 12 0 15 1;
#X connect 12 0 25 1;
#X connect 14 0 15 0;
#X connect 15 0 16 0;
#X connect 16 0 17 0;
#X connect 17 0 50 0;
#X connect 18 0 22 1;
#X connect 21 0 22 0;
#X connect 22 0 25 0;
#X connect 23 0 55 0;
#X connect 25 0 23 1;
#X connect 26 0 4 1;
#X connect 27 0 26 0;
#X connect 28 0 27 0;
#X connect 36 0 37 0;
#X connect 36 1 37 1;
#X connect 37 0 40 0;
#X connect 37 1 40 1;
#X connect 38 0 36 2;
#X connect 38 0 37 2;
#X connect 39 0 37 3;
#X connect 39 0 36 3;
#X connect 40 0 41 0;
#X connect 40 1 41 1;
#X connect 41 0 1 0;
#X connect 42 0 10 1;
#X connect 42 0 18 1;
#X connect 43 0 42 0;
#X connect 44 0 43 1;
#X connect 45 0 43 0;
#X connect 47 0 41 3;
#X connect 48 0 40 3;
#X connect 48 0 47 0;
#X connect 49 0 36 0;
#X connect 50 0 40 2;
#X connect 50 0 41 2;
#X connect 50 0 54 0;
#X connect 50 0 54 1;
#X connect 54 0 55 1;
#X connect 55 0 48 0;
#X restore -269 704 pd lopass2p2z;
#N canvas 717 79 1076 1000 lopass2p2z 0;
#X obj -50 465 inlet~;
#X obj 129 919 outlet~;
#X obj 73 85 inlet~;
#X obj 87 200 sig~ 1;
#X obj 121 249 /~;
#X obj 219 59 samplerate~;
#X obj 110 376 sig~ 1;
#X obj 147 408 /~;
#X obj 214 340 +~;
#X obj 187 310 sig~ 1;
#X obj 251 318 *~;
#X obj 181 375 +~;
#X obj 112 295 *~;
#X text 41 361 a1/a3;
#X obj 222 407 sig~ 1;
#X obj 296 433 -~;
#X obj 299 457 *~ 2;
#X obj 286 506 *~;
#X obj 409 334 *~;
#X text 276 435 b1;
#X text 384 379 b2;
#X obj 361 397 sig~ 1;
#X obj 392 429 -~;
#X obj 377 512 *~;
#X text 99 246 c;
#X obj 397 462 +~;
#X obj 147 222 expr~ tan($v1);
#X obj 151 194 /~ 44100;
#X obj 129 153 *~ 3.14159;
#X text 408 73 resonance 0..1;
#X text 124 86 cutoff (hz);
#X text 420 186 a2= 2*a1 \, a3=a1;
#X text 420 150 c= 1/tan(pi*cutf/samplerate);
#X text 422 168 a1= 1/(1+res*c+c*c);
#X text 421 204 b1= 2*(1-c*c)*a1;
#X text 421 220 b2= (1-res*c+c*c)*a1;
#X obj 33 690 czero~;
#X obj 59 727 czero~;
#X obj 73 646 sig~ -1;
#X obj 90 670 sig~ 0;
#X obj 90 841 cpole~;
#X obj 129 888 cpole~;
#X obj 296 199 *~ 1.41421;
#X obj 307 148 -~;
#X obj 353 72 inlet~;
#X obj 279 94 sig~ 1;
#X text 28 627 zeros at fixed pos;
#X obj 178 840 *~ -1;
#X obj 184 805 expr~ sqrt($v1);
#X obj -44 595 *~;
#X obj 128 704 *~ -0.5;
#X text 219 845 2nd pole = 1st mirrored on the x axis;
#X text 183 704 b1/2 (x pos);
#X text 267 11 cookbook-like? (i cant remember where i got this from)
lp-filter;
#X obj 163 748 *~;
#X obj 183 781 -~;
#X text 217 666 pole position from coeffs:;
#X text 218 683 p=-b1/2+j*sqrt(b2-(b1/2)^2) (found somewhere on the
net...);
#X connect 0 0 49 0;
#X connect 2 0 28 0;
#X connect 3 0 4 0;
#X connect 4 0 10 0;
#X connect 4 0 12 0;
#X connect 4 0 12 1;
#X connect 4 0 18 0;
#X connect 5 0 27 1;
#X connect 6 0 7 0;
#X connect 7 0 17 1;
#X connect 7 0 23 0;
#X connect 7 0 49 1;
#X connect 8 0 11 1;
#X connect 9 0 8 0;
#X connect 10 0 8 1;
#X connect 11 0 7 1;
#X connect 12 0 11 0;
#X connect 12 0 15 1;
#X connect 12 0 25 1;
#X connect 14 0 15 0;
#X connect 15 0 16 0;
#X connect 16 0 17 0;
#X connect 17 0 50 0;
#X connect 18 0 22 1;
#X connect 21 0 22 0;
#X connect 22 0 25 0;
#X connect 23 0 55 0;
#X connect 25 0 23 1;
#X connect 26 0 4 1;
#X connect 27 0 26 0;
#X connect 28 0 27 0;
#X connect 36 0 37 0;
#X connect 36 1 37 1;
#X connect 37 0 40 0;
#X connect 37 1 40 1;
#X connect 38 0 36 2;
#X connect 38 0 37 2;
#X connect 39 0 37 3;
#X connect 39 0 36 3;
#X connect 40 0 41 0;
#X connect 40 1 41 1;
#X connect 41 0 1 0;
#X connect 42 0 10 1;
#X connect 42 0 18 1;
#X connect 43 0 42 0;
#X connect 44 0 43 1;
#X connect 45 0 43 0;
#X connect 47 0 41 3;
#X connect 48 0 40 3;
#X connect 48 0 47 0;
#X connect 49 0 36 0;
#X connect 50 0 40 2;
#X connect 50 0 41 2;
#X connect 50 0 54 0;
#X connect 50 0 54 1;
#X connect 54 0 55 1;
#X connect 55 0 48 0;
#X restore -254 736 pd lopass2p2z;
#X obj 260 101 hradio 10 1 1 2 empty empty 2p-4p -32 5 0 10 -262144
-1 -1 1;
#X obj -133 809 *~;
#X obj -289 779 *~;
#X obj -334 732 == 0;
#X connect 0 0 17 1;
#X connect 0 0 17 0;
#X connect 1 0 34 0;
#X connect 2 0 3 1;
#X connect 3 0 55 0;
#X connect 3 0 69 0;
#X connect 3 0 72 0;
#X connect 3 0 74 0;
#X connect 4 0 29 0;
#X connect 5 0 75 0;
#X connect 6 0 31 0;
#X connect 7 0 12 0;
#X connect 8 0 3 0;
#X connect 10 0 36 0;
#X connect 13 0 47 1;
#X connect 14 0 16 0;
#X connect 15 0 13 1;
#X connect 16 0 13 0;
#X connect 16 1 15 0;
#X connect 17 0 19 1;
#X connect 17 0 19 0;
#X connect 18 0 49 1;
#X connect 19 0 18 0;
#X connect 20 0 26 0;
#X connect 21 0 24 0;
#X connect 24 0 25 0;
#X connect 25 0 30 0;
#X connect 26 0 27 0;
#X connect 27 0 28 0;
#X connect 28 0 46 1;
#X connect 29 0 28 0;
#X connect 29 1 28 1;
#X connect 30 0 13 0;
#X connect 31 0 30 0;
#X connect 31 1 30 1;
#X connect 32 0 55 2;
#X connect 32 0 68 2;
#X connect 32 0 71 2;
#X connect 32 0 73 2;
#X connect 33 0 55 3;
#X connect 33 0 68 3;
#X connect 33 0 73 3;
#X connect 33 0 71 3;
#X connect 34 0 2 0;
#X connect 35 0 55 1;
#X connect 35 0 68 1;
#X connect 35 0 71 1;
#X connect 35 0 73 1;
#X connect 36 0 49 0;
#X connect 37 0 40 1;
#X connect 37 0 40 0;
#X connect 38 0 43 1;
#X connect 38 0 43 0;
#X connect 39 0 49 3;
#X connect 40 0 42 1;
#X connect 40 0 42 0;
#X connect 41 0 49 2;
#X connect 42 0 41 0;
#X connect 43 0 45 1;
#X connect 43 0 45 0;
#X connect 44 0 49 4;
#X connect 45 0 44 0;
#X connect 46 0 52 0;
#X connect 47 0 46 0;
#X connect 48 0 77 1;
#X connect 48 0 78 1;
#X connect 49 0 51 0;
#X connect 50 0 47 0;
#X connect 50 0 54 0;
#X connect 50 0 54 1;
#X connect 51 0 50 0;
#X connect 52 0 48 0;
#X connect 54 0 7 1;
#X connect 55 0 70 0;
#X connect 57 0 61 0;
#X connect 57 0 69 1;
#X connect 58 0 63 0;
#X connect 58 0 72 1;
#X connect 59 0 65 0;
#X connect 59 0 74 1;
#X connect 60 0 62 0;
#X connect 60 0 64 0;
#X connect 60 0 66 0;
#X connect 61 0 62 0;
#X connect 62 0 57 0;
#X connect 63 0 64 0;
#X connect 64 0 58 0;
#X connect 65 0 66 0;
#X connect 66 0 59 0;
#X connect 68 0 70 0;
#X connect 69 0 68 0;
#X connect 70 0 77 0;
#X connect 71 0 70 0;
#X connect 72 0 71 0;
#X connect 73 0 70 0;
#X connect 74 0 73 0;
#X connect 75 0 77 2;
#X connect 75 0 78 2;
#X connect 77 0 78 0;
#X connect 77 0 81 0;
#X connect 78 0 80 0;
#X connect 79 0 80 1;
#X connect 79 0 82 0;
#X connect 80 0 7 0;
#X connect 81 0 7 0;
#X connect 82 0 81 1;
#X coords 0 -1 1 1 182 100 1 100 100;
#X restore 54 91 pd twooscchord1;
#X connect 1 0 8 0;
#X connect 1 1 15 1;
#X connect 2 0 4 0;
#X connect 3 0 15 0;
#X connect 4 0 6 0;
#X connect 5 0 9 0;
#X connect 6 0 5 0;
#X connect 7 0 8 0;
#X connect 8 0 3 0;
#X connect 9 0 3 1;
#X connect 9 0 7 0;
#X connect 12 0 11 1;
#X connect 12 0 11 0;
#X connect 13 0 15 0;
#X connect 13 1 15 1;
#X connect 15 0 12 0;
