#N canvas 232 116 827 522 10;
#N canvas 293 84 1186 920 zynpadchord1 0;
#X obj 987 437 table \$0smp 262144;
#N canvas 18 93 502 495 profile 0;
#X obj 92 73 inlet;
#X obj 149 74 inlet;
#X obj 107 122 /;
#X obj 122 245 exp;
#X obj 127 279 /;
#X obj 110 170 *;
#X obj 120 345 outlet;
#X text 93 44 fi;
#X text 159 44 bwi;
#X obj 104 146 t f f;
#X obj 99 193 * -1;
#X msg 61 243 0;
#X obj 60 217 moses -14.72;
#X connect 0 0 2 0;
#X connect 1 0 2 1;
#X connect 1 0 4 1;
#X connect 2 0 9 0;
#X connect 3 0 4 0;
#X connect 4 0 6 0;
#X connect 5 0 10 0;
#X connect 9 0 5 0;
#X connect 9 1 5 1;
#X connect 10 0 12 0;
#X connect 11 0 6 0;
#X connect 12 0 11 0;
#X connect 12 1 3 0;
#X restore 682 908 pd profile;
#X obj 644 458 until;
#X obj 636 486 f;
#X obj 667 488 + 1;
#X obj 670 513 mod;
#X obj 657 430 t f f;
#X obj 909 484 until;
#X obj 909 512 f;
#X obj 940 514 + 1;
#X obj 950 536 mod;
#X obj 928 459 t f f;
#X obj 950 558 + 1;
#X obj 950 579 t b f;
#X obj 946 668 tabwrite \$0freqphase;
#N canvas 0 0 450 300 (subpatch) 0;
#X array \$0harmonics 32 float 1;
#A 0 0.98571 0.885711 0.964283 0.0285669 0.978574 0.242855 0.0642781
0.735713 0.342857 0.542853 0.142857 0.728569 0.0357062 0.435712 0.0642851
0.0928564 0.399998 0.0571423 0.292856 0.0928564 0.135713 0.0714279
0.0785707 0.17857 0.028571 0.149999 0.0285709 0.0571422 0.0428566 0.142853
0.0357103 0.157138;
#X coords 0 1 31 0 384 140 1 0 0;
#X restore 102 126 graph;
#X obj 730 581 - 1;
#X obj 667 741 *;
#X obj 748 527 / 1200;
#X obj 667 763 / 88200;
#X obj 774 714 until;
#X obj 774 742 f;
#X obj 805 744 + 1;
#X obj 815 766 mod;
#X obj 796 685 t f f;
#X obj 583 733 / 44100;
#X obj 679 883 -;
#X text 565 711 fi;
#X text 691 783 bwi;
#X obj 633 590 t b f f;
#X obj 743 965 tabread \$0freqamp;
#X obj 712 1004 +;
#X obj 712 946 *;
#X obj 810 796 t f f;
#X obj 712 1028 tabwrite \$0freqamp;
#X msg 711 499 2;
#X obj 732 559 pow;
#X msg 784 443 \; \$1freqamp const 0;
#X obj 765 411 \$0;
#X obj 813 563 samplerate~;
#X obj 810 587 * 2;
#X obj 570 251 nbx 3 14 1 600 0 1 empty empty harmonic_bw 0 -8 0 10
-262144 -1 -1 60 256;
#X obj 495 510 nbx 5 14 50 1000 0 0 empty empty freq 0 -8 0 10 -262144
-1 -1 220 256;
#X obj 670 713 * 440;
#X obj 583 660 * 440;
#X obj 493 251 nbx 3 14 1 128 0 1 empty empty nr_harmonics 0 -8 0 10
-262144 -1 -1 32 256;
#X obj 662 397 int;
#X obj 988 378 table \$0freqamp 262144;
#X obj 987 404 table \$0freqphase 262144;
#X msg 780 476 \; \$1freqphase const 0;
#X msg 794 664 131071;
#X msg 931 432 131071;
#X obj 826 349 \$0;
#X obj 834 370 pack f f;
#X obj 802 320 t b f;
#N canvas 1156 510 518 429 doifftstuff 0;
#X obj 53 -29 inlet;
#X obj 7 88 tabreceive~ \$0freqamp;
#X obj 165 92 tabreceive~ \$0freqphase;
#X obj 32 301 tabsend~ \$0smp;
#X obj 31 160 *~;
#X obj 114 123 cos~;
#X obj 156 149 cos~;
#X obj 123 166 *~;
#X obj 31 219 /~ 262144;
#X text 197 145 sin;
#X obj 397 44 bang~;
#X msg 47 13 0;
#X obj 30 194 rifft~;
#X obj 10 46 switch~ 262144 1 1;
#X obj 400 105 outlet;
#X obj 161 128 -~ 0.25;
#X obj 102 -19 loadbang;
#X connect 0 0 13 0;
#X connect 1 0 4 0;
#X connect 1 0 7 0;
#X connect 2 0 5 0;
#X connect 2 0 15 0;
#X connect 4 0 12 0;
#X connect 5 0 4 1;
#X connect 6 0 7 1;
#X connect 7 0 12 1;
#X connect 8 0 3 0;
#X connect 10 0 14 0;
#X connect 11 0 13 0;
#X connect 12 0 8 0;
#X connect 15 0 6 0;
#X connect 16 0 11 0;
#X restore 442 704 pd doifftstuff;
#X obj 759 916 *;
#X text 521 461 for nr of harmonics;
#X text 819 717 for 1/2 fft-size;
#X text 896 684 random phase values into array;
#X text 967 472 1/2 fft-size;
#X text 442 723 ifft for 1 block;
#X obj 700 854 / 262144;
#X text 751 942 'plot' profile-function in array \, scaled by amps
;
#X text 691 739 bw hz;
#X obj 892 548 nbx 5 14 0 99999 0 1 empty empty seed 0 -8 0 10 -262144
-1 -1 996 256;
#X msg 892 567 seed \$1;
#X obj 657 353 t b b b b b;
#X obj 950 602 random 65536;
#X obj 633 569 spigot 1;
#X obj 572 532 *;
#X obj 602 538 < 22050;
#X obj 631 518 / 2;
#X msg 680 549 1;
#X obj 346 827 until;
#X obj 346 855 f;
#X obj 377 857 + 1;
#X obj 387 879 mod;
#X obj 368 798 t f f;
#X obj 430 763 \$0;
#X msg 432 788 \; \$1smp normalize;
#X msg 366 778 262144;
#X obj 173 1012 table \$0smp1 262144;
#X obj 174 1032 table \$0smp2 262144;
#X obj 173 1052 table \$0smp3 262144;
#X obj 173 1072 table \$0smp4 262144;
#X obj 341 932 tabread \$0smp;
#X obj 364 906 t f f;
#X obj 316 1061 tabwrite \$0smp1;
#X obj 946 628 / 65536;
#X text 995 628 pd sin/cos 0..1;
#X msg 390 959 set \$1smp1;
#X msg 400 980 set \$1smp2;
#X obj 364 959 \$0;
#X obj 373 979 \$0;
#X obj 378 1002 \$0;
#X obj 383 1024 \$0;
#X msg 404 1002 set \$1smp3;
#X msg 415 1022 set \$1smp4;
#X text 400 569 do not compute harmonics above nyquiat;
#X obj 760 888 t f f;
#X text 212 833 copy to player-arrays;
#X obj 215 509 f;
#X obj 255 510 + 1;
#X obj 178 603 t b b;
#X obj 193 705 mtof;
#X obj 201 106 bng 15 250 50 0 empty empty empty 17 7 0 10 -258113
-1 -1;
#X obj 233 603 t b b;
#X obj 248 705 mtof;
#X obj 281 601 t b b;
#X obj 296 703 mtof;
#X obj 336 601 t b b;
#X obj 351 703 mtof;
#X obj 216 532 select 1 2 3 4;
#X msg 242 484 0;
#X obj 364 733 t b b b;
#X obj 227 445 t b b;
#X obj 531 878 /;
#X msg 517 855 262144;
#X obj 482 922 pow -1;
#X text 314 531 generate 4 samples;
#N canvas 523 219 670 816 doubleloopchanger1 0;
#X obj 0 44 inlet;
#X obj 109 -71 metro;
#X obj 164 -172 inlet;
#X obj 99 -125 loadbang;
#X msg 105 -96 bang;
#X obj 1 169 phasor~;
#X obj 9 262 tabread~ \$0smp1;
#X obj 5 240 *~ 262144;
#X obj 351 2 inlet;
#X obj 2 193 +~;
#X obj 4 217 wrap~;
#X obj 63 148 random 10000;
#X obj 63 170 / 10000;
#X obj 139 170 phasor~;
#X obj 143 241 *~ 262144;
#X obj 140 194 +~;
#X obj 142 218 wrap~;
#X obj 201 149 random 10000;
#X obj 201 171 / 10000;
#X text 356 -14 seed;
#X text 170 -188 length;
#X text 11 36 freq;
#X obj 109 -48 int;
#X obj 147 -47 + 1;
#X obj 153 -27 mod 2;
#X obj 121 43 select 0 1;
#X obj 187 349 line~;
#X obj 126 375 *~;
#X obj 25 332 line~;
#X obj 13 362 *~;
#X obj 53 400 +~;
#X obj 56 445 outlet~;
#X obj 159 -110 * 1000;
#X msg 267 234 0;
#X msg 73 227 1;
#X obj 187 118 t b;
#X obj 84 107 t b;
#X obj 147 263 tabread~ \$0smp1;
#X obj 167 84 pipe 1201;
#X obj 92 86 pipe 1201;
#X msg 163 289 0 1200;
#X msg 25 284 0 1200;
#X msg 85 285 1 800;
#X msg 221 289 1 800;
#X connect 0 0 5 0;
#X connect 0 0 13 0;
#X connect 1 0 22 0;
#X connect 2 0 32 0;
#X connect 3 0 4 0;
#X connect 4 0 1 0;
#X connect 4 0 34 0;
#X connect 4 0 33 0;
#X connect 5 0 9 0;
#X connect 6 0 29 0;
#X connect 7 0 6 0;
#X connect 8 0 11 0;
#X connect 8 0 17 0;
#X connect 9 0 10 0;
#X connect 10 0 7 0;
#X connect 11 0 12 0;
#X connect 12 0 9 1;
#X connect 13 0 15 0;
#X connect 14 0 37 0;
#X connect 15 0 16 0;
#X connect 16 0 14 0;
#X connect 17 0 18 0;
#X connect 18 0 15 1;
#X connect 22 0 23 0;
#X connect 23 0 24 0;
#X connect 24 0 22 1;
#X connect 24 0 25 0;
#X connect 25 0 43 0;
#X connect 25 0 41 0;
#X connect 25 0 39 0;
#X connect 25 1 40 0;
#X connect 25 1 42 0;
#X connect 25 1 38 0;
#X connect 26 0 27 1;
#X connect 27 0 30 1;
#X connect 28 0 29 1;
#X connect 29 0 30 0;
#X connect 30 0 31 0;
#X connect 32 0 1 1;
#X connect 33 0 26 0;
#X connect 34 0 28 0;
#X connect 35 0 17 0;
#X connect 36 0 11 0;
#X connect 37 0 27 0;
#X connect 38 0 35 0;
#X connect 39 0 36 0;
#X connect 40 0 26 0;
#X connect 41 0 28 0;
#X connect 42 0 28 0;
#X connect 43 0 26 0;
#X restore 534 983 pd doubleloopchanger1;
#N canvas 523 219 670 816 doubleloopchanger2 0;
#X obj 0 44 inlet;
#X obj 109 -71 metro;
#X obj 164 -172 inlet;
#X obj 99 -125 loadbang;
#X msg 105 -96 bang;
#X obj 1 169 phasor~;
#X obj 5 240 *~ 262144;
#X obj 351 2 inlet;
#X obj 2 193 +~;
#X obj 4 217 wrap~;
#X obj 63 148 random 10000;
#X obj 63 170 / 10000;
#X obj 139 170 phasor~;
#X obj 143 241 *~ 262144;
#X obj 140 194 +~;
#X obj 142 218 wrap~;
#X obj 201 149 random 10000;
#X obj 201 171 / 10000;
#X text 356 -14 seed;
#X text 170 -188 length;
#X text 5 28 freq;
#X obj 109 -48 int;
#X obj 147 -47 + 1;
#X obj 153 -27 mod 2;
#X obj 121 43 select 0 1;
#X obj 187 349 line~;
#X obj 126 375 *~;
#X obj 25 332 line~;
#X obj 13 362 *~;
#X obj 53 400 +~;
#X obj 56 445 outlet~;
#X obj 159 -110 * 1000;
#X msg 267 234 0;
#X msg 73 227 1;
#X obj 187 118 t b;
#X obj 84 107 t b;
#X obj 167 84 pipe 1201;
#X obj 92 86 pipe 1201;
#X msg 163 289 0 1200;
#X msg 25 284 0 1200;
#X msg 85 285 1 800;
#X msg 221 289 1 800;
#X obj 148 262 tabread~ \$0smp2;
#X obj 9 263 tabread~ \$0smp2;
#X connect 0 0 5 0;
#X connect 0 0 12 0;
#X connect 1 0 21 0;
#X connect 2 0 31 0;
#X connect 3 0 4 0;
#X connect 4 0 1 0;
#X connect 4 0 33 0;
#X connect 4 0 32 0;
#X connect 5 0 8 0;
#X connect 6 0 43 0;
#X connect 7 0 10 0;
#X connect 7 0 16 0;
#X connect 8 0 9 0;
#X connect 9 0 6 0;
#X connect 10 0 11 0;
#X connect 11 0 8 1;
#X connect 12 0 14 0;
#X connect 13 0 42 0;
#X connect 14 0 15 0;
#X connect 15 0 13 0;
#X connect 16 0 17 0;
#X connect 17 0 14 1;
#X connect 21 0 22 0;
#X connect 22 0 23 0;
#X connect 23 0 21 1;
#X connect 23 0 24 0;
#X connect 24 0 41 0;
#X connect 24 0 39 0;
#X connect 24 0 37 0;
#X connect 24 1 38 0;
#X connect 24 1 40 0;
#X connect 24 1 36 0;
#X connect 25 0 26 1;
#X connect 26 0 29 1;
#X connect 27 0 28 1;
#X connect 28 0 29 0;
#X connect 29 0 30 0;
#X connect 31 0 1 1;
#X connect 32 0 25 0;
#X connect 33 0 27 0;
#X connect 34 0 16 0;
#X connect 35 0 10 0;
#X connect 36 0 34 0;
#X connect 37 0 35 0;
#X connect 38 0 25 0;
#X connect 39 0 27 0;
#X connect 40 0 27 0;
#X connect 41 0 25 0;
#X connect 42 0 26 0;
#X connect 43 0 28 0;
#X restore 540 1006 pd doubleloopchanger2;
#N canvas 523 219 670 816 doubleloopchanger3 0;
#X obj 0 44 inlet;
#X obj 109 -71 metro;
#X obj 164 -172 inlet;
#X obj 99 -125 loadbang;
#X msg 105 -96 bang;
#X obj 1 169 phasor~;
#X obj 5 240 *~ 262144;
#X obj 351 2 inlet;
#X obj 2 193 +~;
#X obj 4 217 wrap~;
#X obj 63 148 random 10000;
#X obj 63 170 / 10000;
#X obj 139 170 phasor~;
#X obj 143 241 *~ 262144;
#X obj 140 194 +~;
#X obj 142 218 wrap~;
#X obj 201 149 random 10000;
#X obj 201 171 / 10000;
#X text 356 -14 seed;
#X text 170 -188 length;
#X text 11 36 freq;
#X obj 109 -48 int;
#X obj 147 -47 + 1;
#X obj 153 -27 mod 2;
#X obj 121 43 select 0 1;
#X obj 187 349 line~;
#X obj 126 375 *~;
#X obj 25 332 line~;
#X obj 13 362 *~;
#X obj 53 400 +~;
#X obj 56 445 outlet~;
#X obj 159 -110 * 1000;
#X msg 267 234 0;
#X msg 73 227 1;
#X obj 187 118 t b;
#X obj 84 107 t b;
#X obj 167 84 pipe 1201;
#X obj 92 86 pipe 1201;
#X msg 163 289 0 1200;
#X msg 25 284 0 1200;
#X msg 85 285 1 800;
#X msg 221 289 1 800;
#X obj 147 263 tabread~ \$0smp3;
#X obj 9 262 tabread~ \$0smp3;
#X connect 0 0 5 0;
#X connect 0 0 12 0;
#X connect 1 0 21 0;
#X connect 2 0 31 0;
#X connect 3 0 4 0;
#X connect 4 0 1 0;
#X connect 4 0 33 0;
#X connect 4 0 32 0;
#X connect 5 0 8 0;
#X connect 6 0 43 0;
#X connect 7 0 10 0;
#X connect 7 0 16 0;
#X connect 8 0 9 0;
#X connect 9 0 6 0;
#X connect 10 0 11 0;
#X connect 11 0 8 1;
#X connect 12 0 14 0;
#X connect 13 0 42 0;
#X connect 14 0 15 0;
#X connect 15 0 13 0;
#X connect 16 0 17 0;
#X connect 17 0 14 1;
#X connect 21 0 22 0;
#X connect 22 0 23 0;
#X connect 23 0 21 1;
#X connect 23 0 24 0;
#X connect 24 0 41 0;
#X connect 24 0 39 0;
#X connect 24 0 37 0;
#X connect 24 1 38 0;
#X connect 24 1 40 0;
#X connect 24 1 36 0;
#X connect 25 0 26 1;
#X connect 26 0 29 1;
#X connect 27 0 28 1;
#X connect 28 0 29 0;
#X connect 29 0 30 0;
#X connect 31 0 1 1;
#X connect 32 0 25 0;
#X connect 33 0 27 0;
#X connect 34 0 16 0;
#X connect 35 0 10 0;
#X connect 36 0 34 0;
#X connect 37 0 35 0;
#X connect 38 0 25 0;
#X connect 39 0 27 0;
#X connect 40 0 27 0;
#X connect 41 0 25 0;
#X connect 42 0 26 0;
#X connect 43 0 28 0;
#X restore 547 1027 pd doubleloopchanger3;
#N canvas 524 220 670 816 doubleloopchanger4 0;
#X obj 0 44 inlet;
#X obj 109 -71 metro;
#X obj 164 -172 inlet;
#X obj 99 -125 loadbang;
#X msg 105 -96 bang;
#X obj 1 169 phasor~;
#X obj 5 240 *~ 262144;
#X obj 351 2 inlet;
#X obj 2 193 +~;
#X obj 4 217 wrap~;
#X obj 63 148 random 10000;
#X obj 63 170 / 10000;
#X obj 139 170 phasor~;
#X obj 143 241 *~ 262144;
#X obj 140 194 +~;
#X obj 142 218 wrap~;
#X obj 201 149 random 10000;
#X obj 201 171 / 10000;
#X text 356 -14 seed;
#X text 170 -188 length;
#X text 5 28 freq;
#X obj 109 -48 int;
#X obj 147 -47 + 1;
#X obj 153 -27 mod 2;
#X obj 121 43 select 0 1;
#X obj 187 349 line~;
#X obj 126 375 *~;
#X obj 25 332 line~;
#X obj 13 362 *~;
#X obj 53 400 +~;
#X obj 56 445 outlet~;
#X obj 159 -110 * 1000;
#X msg 267 234 0;
#X msg 73 227 1;
#X obj 187 118 t b;
#X obj 84 107 t b;
#X obj 167 84 pipe 1201;
#X obj 92 86 pipe 1201;
#X msg 163 289 0 1200;
#X msg 25 284 0 1200;
#X msg 85 285 1 800;
#X msg 221 289 1 800;
#X obj 148 262 tabread~ \$0smp4;
#X obj 9 263 tabread~ \$0smp4;
#X connect 0 0 5 0;
#X connect 0 0 12 0;
#X connect 1 0 21 0;
#X connect 2 0 31 0;
#X connect 3 0 4 0;
#X connect 4 0 1 0;
#X connect 4 0 33 0;
#X connect 4 0 32 0;
#X connect 5 0 8 0;
#X connect 6 0 43 0;
#X connect 7 0 10 0;
#X connect 7 0 16 0;
#X connect 8 0 9 0;
#X connect 9 0 6 0;
#X connect 10 0 11 0;
#X connect 11 0 8 1;
#X connect 12 0 14 0;
#X connect 13 0 42 0;
#X connect 14 0 15 0;
#X connect 15 0 13 0;
#X connect 16 0 17 0;
#X connect 17 0 14 1;
#X connect 21 0 22 0;
#X connect 22 0 23 0;
#X connect 23 0 21 1;
#X connect 23 0 24 0;
#X connect 24 0 41 0;
#X connect 24 0 39 0;
#X connect 24 0 37 0;
#X connect 24 1 38 0;
#X connect 24 1 40 0;
#X connect 24 1 36 0;
#X connect 25 0 26 1;
#X connect 26 0 29 1;
#X connect 27 0 28 1;
#X connect 28 0 29 0;
#X connect 29 0 30 0;
#X connect 31 0 1 1;
#X connect 32 0 25 0;
#X connect 33 0 27 0;
#X connect 34 0 16 0;
#X connect 35 0 10 0;
#X connect 36 0 34 0;
#X connect 37 0 35 0;
#X connect 38 0 25 0;
#X connect 39 0 27 0;
#X connect 40 0 27 0;
#X connect 41 0 25 0;
#X connect 42 0 26 0;
#X connect 43 0 28 0;
#X restore 553 1050 pd doubleloopchanger4;
#X obj 488 126 nbx 3 14 0 127 0 1 empty empty empty 0 -8 0 10 -262144
-1 -1 36 256;
#X obj 526 126 nbx 3 14 -36 36 0 1 empty empty empty 0 -8 0 10 -262144
-1 -1 7 256;
#X obj 564 126 nbx 3 14 -36 36 0 1 empty empty empty 0 -8 0 10 -262144
-1 -1 15 256;
#X obj 602 126 nbx 3 14 -36 36 0 1 empty empty empty 0 -8 0 10 -262144
-1 -1 21 256;
#X obj 353 442 +;
#X obj 195 660 float;
#X obj 242 656 float;
#X obj 300 659 float;
#X obj 340 661 float;
#X obj 388 442 +;
#X obj 425 441 +;
#X obj 466 391 t b f;
#X obj 422 392 t b f;
#X obj 383 392 t b f;
#X text 489 110 pitch;
#X obj 501 1122 outlet~;
#X obj 559 1120 outlet~;
#X text 218 108 generate \, do not press while doing anything!;
#X obj 769 867 tabread \$0harmonics;
#X msg 835 392 \; \$1harmonics resize \$2;
#X text 607 251 cent;
#N canvas 0 0 450 300 pan1 0;
#X obj 120 15 inlet;
#X obj 297 51 inlet~;
#X obj 256 225 outlet~;
#X obj 336 218 outlet~;
#X obj 251 149 *~;
#X obj 323 154 *~;
#X obj 276 122 + 1;
#X obj 335 113 * -1;
#X obj 208 75 * -1;
#X obj 160 42 clip 0 1;
#X connect 0 0 9 0;
#X connect 1 0 4 0;
#X connect 1 0 5 1;
#X connect 4 0 2 0;
#X connect 5 0 3 0;
#X connect 6 0 4 1;
#X connect 7 0 5 0;
#X connect 8 0 6 0;
#X connect 8 0 7 0;
#X connect 9 0 8 0;
#X restore 419 1086 pd pan1;
#N canvas 0 0 450 300 pan1 0;
#X obj 120 15 inlet;
#X obj 297 51 inlet~;
#X obj 256 225 outlet~;
#X obj 336 218 outlet~;
#X obj 251 149 *~;
#X obj 323 154 *~;
#X obj 276 122 + 1;
#X obj 335 113 * -1;
#X obj 208 75 * -1;
#X obj 160 42 clip 0 1;
#X connect 0 0 9 0;
#X connect 1 0 4 0;
#X connect 1 0 5 1;
#X connect 4 0 2 0;
#X connect 5 0 3 0;
#X connect 6 0 4 1;
#X connect 7 0 5 0;
#X connect 8 0 6 0;
#X connect 8 0 7 0;
#X connect 9 0 8 0;
#X restore 471 1086 pd pan1;
#N canvas 0 0 450 300 pan1 0;
#X obj 120 15 inlet;
#X obj 297 51 inlet~;
#X obj 256 225 outlet~;
#X obj 336 218 outlet~;
#X obj 251 149 *~;
#X obj 323 154 *~;
#X obj 276 122 + 1;
#X obj 335 113 * -1;
#X obj 208 75 * -1;
#X obj 160 42 clip 0 1;
#X connect 0 0 9 0;
#X connect 1 0 4 0;
#X connect 1 0 5 1;
#X connect 4 0 2 0;
#X connect 5 0 3 0;
#X connect 6 0 4 1;
#X connect 7 0 5 0;
#X connect 8 0 6 0;
#X connect 8 0 7 0;
#X connect 9 0 8 0;
#X restore 525 1086 pd pan1;
#N canvas 0 0 450 300 pan1 0;
#X obj 120 15 inlet;
#X obj 297 51 inlet~;
#X obj 256 225 outlet~;
#X obj 336 218 outlet~;
#X obj 251 149 *~;
#X obj 323 154 *~;
#X obj 276 122 + 1;
#X obj 335 113 * -1;
#X obj 208 75 * -1;
#X obj 160 42 clip 0 1;
#X connect 0 0 9 0;
#X connect 1 0 4 0;
#X connect 1 0 5 1;
#X connect 4 0 2 0;
#X connect 5 0 3 0;
#X connect 6 0 4 1;
#X connect 7 0 5 0;
#X connect 8 0 6 0;
#X connect 8 0 7 0;
#X connect 9 0 8 0;
#X restore 577 1087 pd pan1;
#X obj 496 158 vsl 8 64 0 1 0 1 empty empty pan 0 -9 0 10 -262144 -1
-1 3600 1;
#X obj 535 157 vsl 8 64 0 1 0 1 empty empty pan 0 -9 0 10 -262144 -1
-1 2100 1;
#X obj 574 156 vsl 8 64 0 1 0 1 empty empty pan 0 -9 0 10 -262144 -1
-1 1800 1;
#X obj 612 157 vsl 8 64 0 1 0 1 empty empty pan 0 -9 0 10 -262144 -1
-1 3300 1;
#X text 676 97 (unoptimized) implementation of padsynth algorithmn.
precompute samples and randomized playback;
#X connect 1 0 32 0;
#X connect 2 0 3 0;
#X connect 3 0 4 0;
#X connect 4 0 5 0;
#X connect 4 0 69 0;
#X connect 4 0 70 0;
#X connect 5 0 3 1;
#X connect 6 0 2 0;
#X connect 6 1 5 1;
#X connect 7 0 8 0;
#X connect 8 0 9 0;
#X connect 9 0 10 0;
#X connect 10 0 8 1;
#X connect 10 0 12 0;
#X connect 11 0 7 0;
#X connect 11 1 10 1;
#X connect 12 0 13 0;
#X connect 13 0 68 0;
#X connect 13 1 14 1;
#X connect 16 0 17 1;
#X connect 17 0 19 0;
#X connect 18 0 36 1;
#X connect 19 0 1 1;
#X connect 20 0 21 0;
#X connect 21 0 22 0;
#X connect 22 0 23 0;
#X connect 23 0 21 1;
#X connect 23 0 33 0;
#X connect 24 0 20 0;
#X connect 24 1 23 1;
#X connect 25 0 26 1;
#X connect 26 0 1 0;
#X connect 29 0 50 0;
#X connect 29 1 44 0;
#X connect 29 1 143 0;
#X connect 29 2 43 0;
#X connect 30 0 31 1;
#X connect 31 0 34 0;
#X connect 32 0 31 0;
#X connect 33 0 62 0;
#X connect 33 1 30 0;
#X connect 33 1 34 1;
#X connect 35 0 36 0;
#X connect 36 0 16 0;
#X connect 38 0 37 0;
#X connect 38 0 49 0;
#X connect 39 0 25 1;
#X connect 39 0 40 0;
#X connect 39 0 72 0;
#X connect 39 0 117 1;
#X connect 40 0 19 1;
#X connect 41 0 18 0;
#X connect 41 0 35 0;
#X connect 42 0 43 1;
#X connect 42 0 44 1;
#X connect 42 0 70 1;
#X connect 43 0 17 0;
#X connect 44 0 25 0;
#X connect 45 0 46 1;
#X connect 45 0 54 0;
#X connect 46 0 6 0;
#X connect 50 0 24 0;
#X connect 51 0 11 0;
#X connect 52 0 53 0;
#X connect 53 0 144 0;
#X connect 54 0 52 0;
#X connect 54 1 53 1;
#X connect 55 0 115 0;
#X connect 56 0 32 1;
#X connect 62 0 26 0;
#X connect 65 0 66 0;
#X connect 66 0 68 0;
#X connect 66 0 121 2;
#X connect 66 0 122 2;
#X connect 66 0 123 2;
#X connect 66 0 124 2;
#X connect 67 0 55 0;
#X connect 67 0 118 0;
#X connect 67 1 46 0;
#X connect 67 2 51 0;
#X connect 67 2 39 0;
#X connect 67 3 38 0;
#X connect 67 4 73 0;
#X connect 68 0 89 0;
#X connect 69 0 29 0;
#X connect 70 0 71 0;
#X connect 71 0 69 1;
#X connect 72 0 71 1;
#X connect 73 0 69 1;
#X connect 74 0 75 0;
#X connect 75 0 76 0;
#X connect 76 0 77 0;
#X connect 77 0 75 1;
#X connect 77 0 87 0;
#X connect 78 0 74 0;
#X connect 78 1 77 1;
#X connect 79 0 80 0;
#X connect 81 0 78 0;
#X connect 86 0 88 0;
#X connect 87 0 86 0;
#X connect 87 1 88 1;
#X connect 89 0 14 0;
#X connect 91 0 88 0;
#X connect 92 0 88 0;
#X connect 93 0 91 0;
#X connect 94 0 92 0;
#X connect 95 0 97 0;
#X connect 96 0 98 0;
#X connect 97 0 88 0;
#X connect 98 0 88 0;
#X connect 100 0 56 0;
#X connect 100 1 56 1;
#X connect 102 0 103 0;
#X connect 103 0 102 1;
#X connect 103 0 113 0;
#X connect 104 0 67 0;
#X connect 104 1 93 0;
#X connect 104 1 130 0;
#X connect 105 0 42 0;
#X connect 106 0 116 0;
#X connect 107 0 67 0;
#X connect 107 1 94 0;
#X connect 107 1 131 0;
#X connect 108 0 42 0;
#X connect 109 0 67 0;
#X connect 109 1 95 0;
#X connect 109 1 132 0;
#X connect 110 0 42 0;
#X connect 111 0 67 0;
#X connect 111 1 96 0;
#X connect 111 1 133 0;
#X connect 112 0 42 0;
#X connect 113 0 104 0;
#X connect 113 1 107 0;
#X connect 113 2 109 0;
#X connect 113 3 111 0;
#X connect 114 0 102 1;
#X connect 115 0 102 0;
#X connect 115 1 81 0;
#X connect 115 2 79 0;
#X connect 116 0 102 0;
#X connect 116 1 114 0;
#X connect 116 1 65 0;
#X connect 117 0 119 0;
#X connect 117 0 121 1;
#X connect 117 0 122 1;
#X connect 117 0 123 1;
#X connect 117 0 124 1;
#X connect 118 0 117 0;
#X connect 119 0 121 0;
#X connect 119 0 122 0;
#X connect 119 0 123 0;
#X connect 119 0 124 0;
#X connect 121 0 146 1;
#X connect 122 0 147 1;
#X connect 123 0 148 1;
#X connect 124 0 149 1;
#X connect 125 0 129 0;
#X connect 125 0 130 0;
#X connect 125 0 134 0;
#X connect 125 0 135 0;
#X connect 126 0 138 0;
#X connect 127 0 137 0;
#X connect 128 0 136 0;
#X connect 129 0 131 0;
#X connect 130 0 105 0;
#X connect 131 0 108 0;
#X connect 132 0 110 0;
#X connect 133 0 112 0;
#X connect 134 0 132 0;
#X connect 135 0 133 0;
#X connect 136 0 135 0;
#X connect 136 1 135 1;
#X connect 137 0 134 0;
#X connect 137 1 134 1;
#X connect 138 0 129 0;
#X connect 138 1 129 1;
#X connect 143 0 100 0;
#X connect 146 0 140 0;
#X connect 146 1 141 0;
#X connect 147 0 140 0;
#X connect 147 1 141 0;
#X connect 148 0 140 0;
#X connect 148 1 141 0;
#X connect 149 0 140 0;
#X connect 149 1 141 0;
#X connect 150 0 146 0;
#X connect 151 0 147 0;
#X connect 152 0 148 0;
#X connect 153 0 149 0;
#X coords 0 -1 1 1 540 170 1 100 100;
#X restore -612 113 pd zynpadchord1;
#X obj -594 335 dac~;
#X connect 0 0 1 0;
#X connect 0 1 1 1;
