#N canvas 848 23 735 599 10;
#N canvas 144 58 949 740 implementation 1;
#X obj 232 156 lib/ipod_decode;
#X obj 410 53 table lp1;
#X obj 479 479 tabread4~ lp1;
#X obj 471 702 dac~;
#X obj 485 287 t f f;
#X obj 449 346 * 0;
#X obj 449 372 t f f;
#X obj 479 456 line~;
#X obj 47 213 metro;
#X obj 47 190 tgl 15 0 empty empty empty 0 -6 0 8 -262144 -1 -1 1 1
;
#X obj 47 251 float;
#X obj 91 251 % 16;
#X obj 91 230 + 1;
#X floatatom 209 307 5 0 0 0 - - -;
#X obj 426 288 r which;
#X obj 209 328 s newn;
#X obj 98 295 s trig;
#X floatatom 47 294 5 0 0 0 - - -;
#X obj 47 273 t f f;
#N canvas 164 326 867 842 output 0;
#X obj 77 140 sel 0 1 2 3 4 5 6 7;
#X obj 283 137 sel 0 1 2 3 4 5 6 7;
#X obj 227 134 - 8;
#X obj 90 18 inlet;
#X msg 259 513 \$1 \$2;
#X obj 234 46 inlet;
#X msg 77 169 #---------------;
#X msg 76 191 -#--------------;
#X msg 75 213 --#-------------;
#X msg 75 236 ---#------------;
#X msg 74 261 ----#-----------;
#X msg 75 286 -----#----------;
#X msg 75 308 ------#---------;
#X msg 75 331 -------#--------;
#X msg 283 172 --------#-------;
#X msg 282 199 ---------#------;
#X msg 282 225 ----------#-----;
#X msg 282 249 -----------#----;
#X msg 282 274 ------------#---;
#X msg 282 298 -------------#--;
#X msg 282 323 --------------#-;
#X msg 282 344 ---------------#;
#X obj 90 40 sel 15;
#X msg 57 62 //////////////////;
#X obj 59 98 print;
#X obj 223 549 print;
#X obj 135 384 print;
#X obj 245 425 print;
#X obj 451 59 inlet;
#X obj 269 83 spigot;
#X obj 319 41 loadbang;
#X msg 317 61 1;
#X connect 0 0 6 0;
#X connect 0 1 7 0;
#X connect 0 2 8 0;
#X connect 0 3 9 0;
#X connect 0 4 10 0;
#X connect 0 5 11 0;
#X connect 0 6 12 0;
#X connect 0 7 13 0;
#X connect 0 8 2 0;
#X connect 1 0 14 0;
#X connect 1 1 15 0;
#X connect 1 2 16 0;
#X connect 1 3 17 0;
#X connect 1 4 18 0;
#X connect 1 5 19 0;
#X connect 1 6 20 0;
#X connect 1 7 21 0;
#X connect 2 0 1 0;
#X connect 3 0 22 0;
#X connect 4 0 25 0;
#X connect 5 0 29 0;
#X connect 6 0 26 0;
#X connect 7 0 26 0;
#X connect 8 0 26 0;
#X connect 9 0 26 0;
#X connect 10 0 26 0;
#X connect 11 0 26 0;
#X connect 12 0 26 0;
#X connect 13 0 26 0;
#X connect 14 0 27 0;
#X connect 15 0 27 0;
#X connect 16 0 27 0;
#X connect 17 0 27 0;
#X connect 18 0 27 0;
#X connect 19 0 27 0;
#X connect 20 0 27 0;
#X connect 21 0 27 0;
#X connect 22 0 23 0;
#X connect 23 0 24 0;
#X connect 28 0 29 1;
#X connect 29 0 0 0;
#X connect 30 0 31 0;
#X connect 31 0 29 1;
#X restore 287 371 pd output;
#X obj 47 32 loadbang;
#X msg 63 61 \; pd dsp 1;
#X floatatom 77 192 5 0 0 0 - - -;
#N canvas 328 427 617 455 loader 0;
#X obj 192 412 outlet;
#X obj 72 170 soundfiler;
#X obj 72 211 / 44.1;
#X obj 72 190 / 16;
#X obj 305 57 loadbang;
#X obj 148 47 inlet;
#X obj 71 237 moses 50;
#X msg 85 341 -------#--------;
#X msg 263 209 read -resize loop3.wav lp3;
#X obj 153 173 soundfiler;
#X obj 153 214 / 44.1;
#X obj 153 193 / 16;
#X obj 152 240 moses 50;
#X obj 272 246 soundfiler;
#X obj 272 266 / 16;
#X obj 271 313 moses 50;
#X obj 395 262 soundfiler;
#X obj 395 303 / 44.1;
#X obj 395 282 / 16;
#X obj 394 329 moses 50;
#X obj 70 269 float;
#X obj 165 274 float;
#X obj 266 350 float;
#X obj 364 372 float;
#X obj 84 99 sel 0 1 2 3;
#X obj 299 77 t b b;
#X obj 272 287 / 44.1;
#X msg 264 123 read -resize loop0l.wav lp0;
#X msg 246 150 read -resize loop1l.wav lp1;
#X msg 260 176 read -resize loop2l.wav lp2;
#X connect 1 0 3 0;
#X connect 2 0 6 0;
#X connect 3 0 2 0;
#X connect 4 0 25 0;
#X connect 5 0 24 0;
#X connect 6 1 20 1;
#X connect 8 0 16 0;
#X connect 9 0 11 0;
#X connect 10 0 12 0;
#X connect 11 0 10 0;
#X connect 12 1 21 1;
#X connect 13 0 14 0;
#X connect 14 0 26 0;
#X connect 15 1 22 1;
#X connect 16 0 18 0;
#X connect 17 0 19 0;
#X connect 18 0 17 0;
#X connect 19 1 23 1;
#X connect 20 0 0 0;
#X connect 21 0 0 0;
#X connect 22 0 0 0;
#X connect 23 0 0 0;
#X connect 24 0 20 0;
#X connect 24 1 21 0;
#X connect 24 2 22 0;
#X connect 24 3 23 0;
#X connect 25 0 21 0;
#X connect 25 1 27 0;
#X connect 25 1 28 0;
#X connect 25 1 29 0;
#X connect 26 0 15 0;
#X connect 27 0 1 0;
#X connect 28 0 9 0;
#X connect 29 0 13 0;
#X restore 485 263 pd loader;
#N canvas 0 0 232 292 updown 0;
#X obj 114 163 % 16;
#X obj 60 136 float;
#X obj 33 81 t b b;
#X obj 91 82 t b b;
#X msg 60 105 -1;
#X msg 108 105 1;
#X obj 114 138 + 1;
#X obj 114 190 moses 0;
#X obj 32 12 inlet;
#X obj 89 11 inlet;
#X obj 96 239 outlet;
#X obj 32 48 sel 1;
#X obj 90 49 sel 1;
#X connect 0 0 7 0;
#X connect 1 0 6 0;
#X connect 2 0 1 0;
#X connect 2 1 4 0;
#X connect 3 0 1 0;
#X connect 3 1 5 0;
#X connect 4 0 6 1;
#X connect 5 0 6 1;
#X connect 6 0 0 0;
#X connect 7 1 1 1;
#X connect 7 1 10 0;
#X connect 8 0 11 0;
#X connect 9 0 12 0;
#X connect 11 0 2 0;
#X connect 12 0 3 0;
#X restore 202 222 pd updown;
#X floatatom 608 335 5 0 0 0 - - -;
#N canvas 179 308 560 491 env 0;
#X obj 170 240 *~;
#X obj 229 199 *~;
#X obj 231 171 line~;
#X msg 222 92 bang;
#X obj 245 120 del;
#X msg 206 138 1 2;
#X msg 245 142 0 2;
#X obj 261 92 - 4;
#X obj 189 38 inlet;
#X obj 260 38 inlet;
#X obj 169 283 outlet~;
#X obj 77 41 inlet~;
#X connect 0 0 10 0;
#X connect 1 0 0 1;
#X connect 2 0 1 0;
#X connect 2 0 1 1;
#X connect 3 0 4 0;
#X connect 4 0 6 0;
#X connect 5 0 2 0;
#X connect 6 0 2 0;
#X connect 7 0 4 1;
#X connect 8 0 5 0;
#X connect 8 0 3 0;
#X connect 9 0 7 0;
#X connect 11 0 0 0;
#X restore 479 523 pd env;
#X obj 608 312 float;
#X obj 653 313 + 1;
#X obj 410 32 table lp0;
#X obj 410 77 table lp2;
#X obj 410 101 table lp3;
#X msg 608 384 set \$1;
#X obj 608 355 makefilename lp%d;
#X obj 608 290 spigot;
#X obj 607 222 r trig;
#X msg 661 291 0;
#X msg 645 268 1;
#X msg 607 268 bang;
#X obj 116 327 r which;
#X obj 497 500 r trig;
#X floatatom 536 340 5 0 0 0 - - -;
#X floatatom 523 388 5 0 0 0 - - -;
#N canvas 52 379 463 446 m1 0;
#X obj 170 34 inlet;
#X obj 189 272 outlet;
#X obj 168 56 sel 0;
#X obj 189 221 float;
#X obj 50 69 inlet;
#X obj 50 414 outlet;
#X obj 50 177 spigot;
#X msg 114 110 1;
#X msg 120 143 0;
#X obj 195 120 print mode::;
#X msg 195 99 speed change;
#N canvas 0 0 234 294 ms2bpm 0;
#X obj 44 92 /;
#X obj 45 47 inlet;
#X obj 44 115 outlet;
#X msg 44 71 60000 \$1;
#X connect 0 0 2 0;
#X connect 1 0 3 0;
#X connect 3 0 0 0;
#X restore 50 358 pd ms2bpm;
#X obj 101 275 loadbang;
#X floatatom 219 201 5 0 0 0 - - -;
#X obj 254 274 send pod_bpm;
#X obj 49 382 / 2;
#X msg 100 296 120;
#X connect 0 0 2 0;
#X connect 2 0 3 0;
#X connect 2 0 10 0;
#X connect 2 0 7 0;
#X connect 2 1 8 0;
#X connect 3 0 1 0;
#X connect 4 0 6 0;
#X connect 6 0 11 0;
#X connect 6 0 13 0;
#X connect 6 0 14 0;
#X connect 7 0 6 1;
#X connect 8 0 6 1;
#X connect 10 0 9 0;
#X connect 11 0 15 0;
#X connect 12 0 16 0;
#X connect 13 0 3 1;
#X connect 15 0 5 0;
#X connect 16 0 11 0;
#X connect 16 0 13 0;
#X restore 148 101 pd m1;
#X obj 189 67 r wheel;
#X obj 289 191 s wheel;
#X obj 200 27 float;
#X obj 247 7 + 1;
#X obj 247 28 % 3;
#N canvas 212 345 459 442 m2 0;
#X obj 168 34 inlet;
#X obj 189 272 outlet;
#X obj 50 69 inlet;
#X obj 50 382 outlet;
#X obj 50 177 spigot;
#X msg 114 110 1;
#X msg 120 143 0;
#X obj 195 120 print mode::;
#X floatatom 219 201 5 0 0 0 - - -;
#X msg 195 99 pitch change;
#X obj 168 56 sel 1;
#X obj 74 242 /;
#X obj 73 263 send pod_depitch;
#X obj 189 221 float 100;
#X msg 69 216 100 \$1;
#X obj 48 335 * 3;
#X connect 0 0 10 0;
#X connect 2 0 4 0;
#X connect 4 0 8 0;
#X connect 4 0 14 0;
#X connect 4 0 15 0;
#X connect 5 0 4 1;
#X connect 6 0 4 1;
#X connect 8 0 13 1;
#X connect 9 0 7 0;
#X connect 10 0 9 0;
#X connect 10 0 5 0;
#X connect 10 0 13 0;
#X connect 10 1 6 0;
#X connect 11 0 12 0;
#X connect 13 0 1 0;
#X connect 14 0 11 0;
#X connect 15 0 3 0;
#X restore 198 100 pd m2;
#N canvas 20 381 463 446 m3 0;
#X obj 168 34 inlet;
#X obj 189 272 outlet;
#X obj 50 69 inlet;
#X obj 50 382 outlet;
#X obj 50 177 spigot;
#X msg 114 110 1;
#X msg 120 143 0;
#X obj 195 120 print mode::;
#X floatatom 219 201 5 0 0 0 - - -;
#X obj 189 221 float 300;
#X msg 195 99 flanger;
#X obj 168 56 sel 2;
#X obj 48 236 % 100;
#X obj 49 259 * 0.01;
#X obj 48 285 * -1;
#X obj 52 311 + 1;
#X connect 0 0 11 0;
#X connect 2 0 4 0;
#X connect 4 0 8 0;
#X connect 4 0 12 0;
#X connect 5 0 4 1;
#X connect 6 0 4 1;
#X connect 8 0 9 1;
#X connect 9 0 1 0;
#X connect 10 0 7 0;
#X connect 11 0 10 0;
#X connect 11 0 5 0;
#X connect 11 0 9 0;
#X connect 11 1 6 0;
#X connect 12 0 13 0;
#X connect 13 0 14 0;
#X connect 14 0 15 0;
#X connect 15 0 3 0;
#X restore 248 99 pd m3;
#X floatatom 605 498 5 0 0 0 - - -;
#X obj 609 546 + 1;
#X obj 653 334 % 3;
#X obj 116 375 s pod_seq;
#X obj 268 284 s pod_current;
#X obj 209 283 float;
#X obj 69 115 s pod_state;
#X obj 706 425 s pod_sample;
#X obj 116 350 pipe 200;
#X obj 47 367 sel 0;
#X obj 47 389 s pod_start;
#X obj 47 342 pipe 200;
#X obj 49 440 lib/ww 0;
#X obj 49 463 lib/ww 4;
#X obj 48 489 lib/ww 8;
#X obj 48 514 lib/ww 12;
#X obj 122 441 lib/ww 1;
#X obj 122 465 lib/ww 5;
#X obj 121 490 lib/ww 9;
#X obj 120 516 lib/ww 13;
#X obj 197 441 lib/ww 2;
#X obj 197 465 lib/ww 6;
#X obj 197 491 lib/ww 10;
#X obj 196 516 lib/ww 14;
#X obj 275 443 lib/ww 3;
#X obj 275 467 lib/ww 7;
#X obj 275 493 lib/ww 11;
#X obj 275 518 lib/ww 15;
#X floatatom 653 570 5 0 0 0 - - -;
#X obj 606 525 * 100;
#X obj 645 247 sel 1;
#X msg 293 80 bang;
#X obj 449 427 pack 0 300;
#X obj 449 401 + 300;
#X connect 0 0 24 0;
#X connect 0 1 24 1;
#X connect 0 2 56 0;
#X connect 0 3 81 0;
#X connect 0 4 45 0;
#X connect 0 5 82 0;
#X connect 2 0 26 0;
#X connect 4 0 5 1;
#X connect 4 0 41 0;
#X connect 4 1 26 2;
#X connect 5 0 6 0;
#X connect 6 0 84 0;
#X connect 6 1 7 0;
#X connect 7 0 2 0;
#X connect 8 0 10 0;
#X connect 9 0 8 0;
#X connect 10 0 12 0;
#X connect 10 0 18 0;
#X connect 11 0 10 1;
#X connect 12 0 11 0;
#X connect 13 0 15 0;
#X connect 14 0 5 0;
#X connect 17 0 62 0;
#X connect 18 0 17 0;
#X connect 18 1 16 0;
#X connect 20 0 21 0;
#X connect 20 0 9 0;
#X connect 20 0 46 0;
#X connect 22 0 8 1;
#X connect 23 0 4 0;
#X connect 24 0 56 1;
#X connect 24 0 55 0;
#X connect 25 0 23 0;
#X connect 25 0 33 0;
#X connect 25 0 58 0;
#X connect 26 0 3 0;
#X connect 26 0 3 1;
#X connect 27 0 28 0;
#X connect 27 0 25 0;
#X connect 28 0 53 0;
#X connect 32 0 2 0;
#X connect 33 0 32 0;
#X connect 34 0 27 0;
#X connect 34 0 36 0;
#X connect 35 0 38 0;
#X connect 36 0 34 1;
#X connect 37 0 34 1;
#X connect 38 0 34 0;
#X connect 39 0 59 0;
#X connect 40 0 26 1;
#X connect 42 0 83 1;
#X connect 43 0 22 0;
#X connect 43 1 0 0;
#X connect 44 0 43 0;
#X connect 44 0 49 0;
#X connect 44 0 50 0;
#X connect 46 0 47 0;
#X connect 46 0 43 1;
#X connect 46 0 49 1;
#X connect 46 0 50 1;
#X connect 46 0 57 0;
#X connect 47 0 48 0;
#X connect 48 0 46 1;
#X connect 49 0 42 0;
#X connect 49 1 0 0;
#X connect 50 0 51 0;
#X connect 50 1 0 0;
#X connect 51 0 80 0;
#X connect 52 0 79 0;
#X connect 53 0 27 1;
#X connect 56 0 13 0;
#X connect 59 0 54 0;
#X connect 60 0 61 0;
#X connect 62 0 60 0;
#X connect 80 0 52 0;
#X connect 81 0 37 0;
#X connect 82 0 46 0;
#X connect 83 0 7 0;
#X connect 84 0 83 0;
#X restore 43 130 pd implementation;
#X obj 3 1 cnv 15 160 107 empty empty empty 20 12 0 14 -233017 -66577
0;
#X obj 7 59 hradio 9 1 0 16 empty pod_seq empty 0 -6 0 8 -262144 -1
-1 5;
#X floatatom 96 8 5 0 0 0 - pod_bpm -;
#X text 7 8 bpm;
#X text 6 27 depitch;
#X floatatom 96 26 5 0 0 0 - pod_depitch -;
#X obj 7 75 hradio 8 1 0 3 empty pod_state empty 0 -6 0 8 -262144 -1
-1 0;
#X obj 7 47 hradio 9 1 0 16 empty pod_current empty 0 -6 0 8 -262144
-1 -1 0;
#X text 4 87 SLice (C) 2005;
#X obj 125 77 hradio 8 1 0 3 empty pod_sample empty 0 -6 0 8 -262144
-1 -1 0;
#X text 74 73 sample;
#X obj 62 12 bng 15 250 50 0 empty pod_start empty 0 -6 0 8 -262144
-1 -1;
