#N canvas 476 318 463 548 10;
#X obj 54 162 bng 15 250 50 0 empty empty empty 0 -6 0 8 -262144 -1
-1;
#X obj 237 91 tgl 15 0 empty empty empty 0 -6 0 8 -262144 -1 -1 0 1
;
#X obj 237 120 == 0;
#X obj 116 510 dac~;
#X obj 274 91 loadbang;
#X msg 274 120 1;
#X msg 274 149 \; pd dsp \$1;
#X obj 133 445 osc~;
#X obj 253 356 * 10;
#X obj 133 422 +~;
#X obj 116 469 *~;
#X obj 59 365 line~;
#X msg 114 333 0 800;
#X msg 59 334 0.5 10;
#X obj 218 318 * 0.5;
#X obj 218 295 mtof;
#X obj 218 355 osc~;
#X obj 217 378 *~ 80;
#X obj 137 47 lib/ipod_decode;
#X obj 14 94 sel 1;
#X obj 59 94 sel 1;
#X obj 99 96 sel 1;
#X obj 144 96 sel 1;
#X obj 138 298 del 2000;
#X obj 81 152 float 68;
#X obj 121 180 float 70;
#X obj 163 202 float 72;
#X obj 189 224 float 75;
#X connect 0 0 13 0;
#X connect 1 0 2 0;
#X connect 2 0 6 0;
#X connect 4 0 5 0;
#X connect 5 0 6 0;
#X connect 7 0 10 1;
#X connect 8 0 17 1;
#X connect 9 0 7 0;
#X connect 10 0 3 0;
#X connect 10 0 3 1;
#X connect 11 0 10 0;
#X connect 12 0 11 0;
#X connect 13 0 11 0;
#X connect 14 0 16 0;
#X connect 15 0 14 0;
#X connect 15 0 9 0;
#X connect 15 0 0 0;
#X connect 16 0 17 0;
#X connect 17 0 9 1;
#X connect 18 0 19 0;
#X connect 18 1 20 0;
#X connect 18 2 21 0;
#X connect 18 3 22 0;
#X connect 18 4 14 1;
#X connect 18 5 0 0;
#X connect 19 0 24 0;
#X connect 19 1 12 0;
#X connect 20 0 25 0;
#X connect 20 1 12 0;
#X connect 21 0 26 0;
#X connect 21 1 12 0;
#X connect 22 0 27 0;
#X connect 22 1 12 0;
#X connect 23 0 12 0;
#X connect 24 0 15 0;
#X connect 25 0 15 0;
#X connect 26 0 15 0;
#X connect 27 0 15 0;
