#N canvas 95 155 484 900 10;
#X obj -25 368 pix_texture;
#X obj 229 -171 hsl 128 15 0 1 0 1 empty empty empty -2 -6 0 8 -262144
-1 -1 0 1;
#X obj 233 -149 hsl 128 15 0 1 0 1 empty empty empty -2 -6 0 8 -262144
-1 -1 99 1;
#X obj -6 -364 gemwin;
#X msg 41 -360 0 \, destroy;
#X msg 3 -390 reset \, dimen 854 480 \, create \, 1;
#X obj 282 -333 hradio 15 1 1 4 empty empty empty 0 -8 0 10 -262144
-1 -1 0;
#X obj 114 -322 metro 40;
#X obj 203 -389 loadbang;
#N canvas 160 123 1504 680 faderbox-midi-controller-levels 0;
#X obj -265 197 outlet;
#X obj -266 105 ctlin 64;
#X obj -213 199 outlet;
#X obj 320 289 outlet;
#X obj 456 290 outlet;
#X obj 653 282 outlet;
#X obj 332 46 ctlin 73;
#X obj 465 66 ctlin 74;
#X obj -267 168 / 128;
#X obj -212 169 / 128;
#X obj 327 127 moses 64;
#X obj 375 200 / 8;
#X obj 376 177 - 64;
#X obj 374 224 + 1;
#X obj 304 150 t b b f;
#X msg 315 177 64;
#X obj 313 201 -;
#X obj 294 256 /;
#X msg 279 190 1;
#X obj 308 231 / 8;
#X obj 470 123 moses 64;
#X obj 518 196 / 8;
#X obj 519 173 - 64;
#X obj 517 220 + 1;
#X obj 447 146 t b b f;
#X msg 458 173 64;
#X obj 456 197 -;
#X obj 437 252 /;
#X msg 422 186 1;
#X obj 451 227 / 8;
#X obj 612 120 moses 64;
#X obj 660 193 / 8;
#X obj 661 170 - 64;
#X obj 659 217 + 1;
#X obj 589 143 t b b f;
#X msg 600 170 64;
#X obj 598 194 -;
#X obj 579 249 /;
#X msg 564 183 1;
#X obj 593 224 / 8;
#X obj -93 203 outlet;
#X obj -93 180 / 128;
#X obj 804 279 outlet;
#X obj 752 113 moses 64;
#X obj 811 190 / 8;
#X obj 812 167 - 64;
#X obj 810 214 + 1;
#X obj 740 140 t b b f;
#X msg 751 167 64;
#X obj 749 191 -;
#X obj 730 246 /;
#X msg 715 180 1;
#X obj 744 221 / 8;
#X obj -153 201 outlet;
#X obj -152 171 / 128;
#X obj -207 107 ctlin 65;
#X obj -147 109 ctlin 66;
#X obj -87 111 ctlin 67;
#X obj 597 61 ctlin 75;
#X obj 750 75 ctlin 76;
#X connect 1 0 8 0;
#X connect 6 0 10 0;
#X connect 7 0 20 0;
#X connect 8 0 0 0;
#X connect 9 0 2 0;
#X connect 10 0 14 0;
#X connect 10 1 12 0;
#X connect 11 0 13 0;
#X connect 12 0 11 0;
#X connect 13 0 3 0;
#X connect 14 0 18 0;
#X connect 14 1 15 0;
#X connect 14 2 16 1;
#X connect 15 0 16 0;
#X connect 16 0 19 0;
#X connect 17 0 3 0;
#X connect 18 0 17 0;
#X connect 19 0 17 1;
#X connect 20 0 24 0;
#X connect 20 1 22 0;
#X connect 21 0 23 0;
#X connect 22 0 21 0;
#X connect 23 0 4 0;
#X connect 24 0 28 0;
#X connect 24 1 25 0;
#X connect 24 2 26 1;
#X connect 25 0 26 0;
#X connect 26 0 29 0;
#X connect 27 0 4 0;
#X connect 28 0 27 0;
#X connect 29 0 27 1;
#X connect 30 0 34 0;
#X connect 30 1 32 0;
#X connect 31 0 33 0;
#X connect 32 0 31 0;
#X connect 33 0 5 0;
#X connect 34 0 38 0;
#X connect 34 1 35 0;
#X connect 34 2 36 1;
#X connect 35 0 36 0;
#X connect 36 0 39 0;
#X connect 37 0 5 0;
#X connect 38 0 37 0;
#X connect 39 0 37 1;
#X connect 41 0 40 0;
#X connect 43 0 47 0;
#X connect 43 1 45 0;
#X connect 44 0 46 0;
#X connect 45 0 44 0;
#X connect 46 0 42 0;
#X connect 47 0 51 0;
#X connect 47 1 48 0;
#X connect 47 2 49 1;
#X connect 48 0 49 0;
#X connect 49 0 52 0;
#X connect 50 0 42 0;
#X connect 51 0 50 0;
#X connect 52 0 50 1;
#X connect 54 0 53 0;
#X connect 55 0 9 0;
#X connect 56 0 54 0;
#X connect 57 0 41 0;
#X connect 58 0 30 0;
#X connect 59 0 43 0;
#X restore 173 -220 pd faderbox-midi-controller-levels;
#X obj 237 -128 hsl 128 15 0 1 0 1 empty empty empty -2 -6 0 8 -262144
-1 -1 0 1;
#X obj 83 377 pix_texture;
#X obj 196 384 pix_texture;
#X obj 23 -314 openpanel;
#X msg 118 -356 symbol /home/mnb/misc_wrk/videoloops;
#X obj 241 -109 hsl 128 15 0 1 0 1 empty empty empty -2 -6 0 8 -262144
-1 -1 0 1;
#X obj 303 388 pix_texture;
#X obj 71 -168 bng 15 250 50 0 empty empty empty 17 7 0 10 -262144
-1 -1;
#X obj 176 -172 nbx 4 14 0 10 0 1 empty empty empty 0 -8 0 10 -262144
-1 -1 1 256;
#X obj 180 -150 nbx 4 14 0 10 0 1 empty empty empty 0 -8 0 10 -262144
-1 -1 1 256;
#X obj 184 -129 nbx 4 14 0 10 0 1 empty empty empty 0 -8 0 10 -262144
-1 -1 1 256;
#X obj 188 -109 nbx 4 14 0 10 0 1 empty empty empty 0 -8 0 10 -262144
-1 -1 1 256;
#X obj -18 -217 vsl 15 64 0 1 0 1 empty empty empty 0 -9 0 10 -262144
-1 -1 0 0;
#X obj 3 -217 vsl 15 64 0 1 0 1 empty empty empty 0 -9 0 10 -262144
-1 -1 0 0;
#X obj 23 -217 vsl 15 64 0 1 0 1 empty empty empty 0 -9 0 10 -262144
-1 -1 0 0;
#X msg -23 159 1 1 1 0 0 0 1 1 1 1 1 1;
#N canvas 327 279 750 628 a_c_s_rgb_l 0;
#X obj -116 598 outlet;
#X obj -136 229 inlet;
#X obj 138 31 loadbang;
#X msg 116 70 0;
#X obj -134 485 alpha;
#X obj -134 463 pix_alpha;
#X obj -68 241 inlet;
#X obj -91 346 pix_contrast;
#X obj 103 118 vsl 15 64 0 1 0 1 empty empty empty 0 -9 0 10 -262144
-1 -1 6300 0;
#X obj 120 118 vsl 15 64 0 1 0 1 empty empty empty 0 -9 0 10 -262144
-1 -1 6300 0;
#X obj 137 118 vsl 15 64 0 1 0 1 empty empty empty 0 -9 0 10 -262144
-1 -1 6300 0;
#X obj 60 316 t b f;
#X obj 100 316 t b f;
#X obj 38 339 pack 1 1 1;
#X obj 159 118 vsl 15 64 0 1 0 1 empty empty empty 0 -9 0 10 -262144
-1 -1 0 0;
#X obj 176 118 vsl 15 64 0 1 0 1 empty empty empty 0 -9 0 10 -262144
-1 -1 0 0;
#X obj 193 118 vsl 15 64 0 1 0 1 empty empty empty 0 -9 0 10 -262144
-1 -1 0 0;
#X obj 220 376 t b f;
#X obj 260 376 t b f;
#X obj 198 399 pack 0 0 0;
#X obj 102 190 nbx 3 14 0 10 0 1 empty empty empty 0 -8 0 10 -262144
-1 -1 1 256;
#X obj 142 190 nbx 3 14 0 10 0 1 empty empty empty 0 -8 0 10 -262144
-1 -1 1 256;
#X obj 257 32 inlet;
#X obj 159 466 float;
#X obj 195 102 bng 12 250 50 0 empty empty empty 17 7 0 10 -262144
-1 -1;
#X obj 208 563 outlet;
#X text -133 199 pix;
#X text -71 212 alpha;
#X text 258 8 preset;
#X obj 106 208 hsl 80 15 0 1 0 1 empty empty empty -2 -8 0 10 -262144
-1 -1 7900 0;
#X obj 106 225 hsl 80 15 0 1 0 1 empty empty empty -2 -8 0 10 -262144
-1 -1 7900 0;
#X obj 106 242 hsl 80 15 0 1 0 1 empty empty empty -2 -8 0 10 -262144
-1 -1 7900 0;
#X obj -41 494 t b f;
#X obj -1 494 t b f;
#X obj -63 519 pack 1 1 1;
#X obj -114 565 color;
#X obj 184 61 unpack f f f f f f f f f f f f;
#X obj 184 498 pack f f f f f f f f f f f f;
#X msg 200 525 set \$1 \$2 \$3 \$4 \$5 \$6 \$7 \$8 \$9 \$10 \$11 \$12
;
#X connect 1 0 7 0;
#X connect 2 0 3 0;
#X connect 3 0 5 2;
#X connect 4 0 35 0;
#X connect 5 0 4 0;
#X connect 6 0 5 1;
#X connect 7 0 5 0;
#X connect 8 0 13 0;
#X connect 8 0 23 1;
#X connect 9 0 11 0;
#X connect 9 0 37 1;
#X connect 10 0 12 0;
#X connect 10 0 37 2;
#X connect 11 0 13 0;
#X connect 11 1 13 1;
#X connect 12 0 13 0;
#X connect 12 1 13 2;
#X connect 13 0 5 3;
#X connect 14 0 19 0;
#X connect 14 0 37 3;
#X connect 15 0 17 0;
#X connect 15 0 37 4;
#X connect 16 0 18 0;
#X connect 16 0 37 5;
#X connect 17 0 19 0;
#X connect 17 1 19 1;
#X connect 18 0 19 0;
#X connect 18 1 19 2;
#X connect 19 0 5 4;
#X connect 20 0 7 1;
#X connect 20 0 37 6;
#X connect 21 0 7 2;
#X connect 21 0 37 7;
#X connect 22 0 36 0;
#X connect 23 0 37 0;
#X connect 24 0 23 0;
#X connect 29 0 37 8;
#X connect 29 0 34 0;
#X connect 30 0 37 9;
#X connect 30 0 32 0;
#X connect 31 0 37 10;
#X connect 31 0 33 0;
#X connect 32 0 34 0;
#X connect 32 1 34 1;
#X connect 33 0 34 0;
#X connect 33 1 34 2;
#X connect 34 0 35 1;
#X connect 35 0 0 0;
#X connect 36 0 8 0;
#X connect 36 1 9 0;
#X connect 36 2 10 0;
#X connect 36 3 14 0;
#X connect 36 4 15 0;
#X connect 36 5 16 0;
#X connect 36 6 20 0;
#X connect 36 7 21 0;
#X connect 36 8 29 0;
#X connect 36 9 30 0;
#X connect 36 10 31 0;
#X connect 37 0 38 0;
#X connect 38 0 25 0;
#X coords 0 -1 1 1 110 160 1 100 100;
#X restore -30 -21 pd a_c_s_rgb_l;
#X obj 97 -263 == 0;
#X obj 63 -239 spigot;
#X obj 166 -250 spigot;
#X obj 200 -274 == 1;
#X obj 249 -245 spigot;
#X obj 283 -269 == 2;
#X obj 339 -245 spigot;
#X obj 373 -269 == 3;
#X msg -12 183 1 1 1 0 0 0 1 1 1 1 1 1;
#N canvas 327 279 750 628 a_c_s_rgb_l 0;
#X obj -116 598 outlet;
#X obj -136 229 inlet;
#X obj 138 31 loadbang;
#X msg 116 70 0;
#X obj -134 485 alpha;
#X obj -134 463 pix_alpha;
#X obj -68 241 inlet;
#X obj -91 346 pix_contrast;
#X obj 103 118 vsl 15 64 0 1 0 1 empty empty empty 0 -9 0 10 -262144
-1 -1 6300 0;
#X obj 120 118 vsl 15 64 0 1 0 1 empty empty empty 0 -9 0 10 -262144
-1 -1 6300 0;
#X obj 137 118 vsl 15 64 0 1 0 1 empty empty empty 0 -9 0 10 -262144
-1 -1 6300 0;
#X obj 60 316 t b f;
#X obj 100 316 t b f;
#X obj 38 339 pack 1 1 1;
#X obj 159 118 vsl 15 64 0 1 0 1 empty empty empty 0 -9 0 10 -262144
-1 -1 0 0;
#X obj 176 118 vsl 15 64 0 1 0 1 empty empty empty 0 -9 0 10 -262144
-1 -1 0 0;
#X obj 193 118 vsl 15 64 0 1 0 1 empty empty empty 0 -9 0 10 -262144
-1 -1 0 0;
#X obj 220 376 t b f;
#X obj 260 376 t b f;
#X obj 198 399 pack 0 0 0;
#X obj 102 190 nbx 3 14 0 10 0 1 empty empty empty 0 -8 0 10 -262144
-1 -1 1 256;
#X obj 142 190 nbx 3 14 0 10 0 1 empty empty empty 0 -8 0 10 -262144
-1 -1 1 256;
#X obj 257 32 inlet;
#X obj 159 466 float;
#X obj 195 102 bng 12 250 50 0 empty empty empty 17 7 0 10 -262144
-1 -1;
#X obj 208 563 outlet;
#X text -133 199 pix;
#X text -71 212 alpha;
#X text 258 8 preset;
#X obj 106 208 hsl 80 15 0 1 0 1 empty empty empty -2 -8 0 10 -262144
-1 -1 7900 0;
#X obj 106 225 hsl 80 15 0 1 0 1 empty empty empty -2 -8 0 10 -262144
-1 -1 7900 0;
#X obj 106 242 hsl 80 15 0 1 0 1 empty empty empty -2 -8 0 10 -262144
-1 -1 7900 0;
#X obj -41 494 t b f;
#X obj -1 494 t b f;
#X obj -63 519 pack 1 1 1;
#X obj -114 565 color;
#X obj 184 61 unpack f f f f f f f f f f f f;
#X obj 184 498 pack f f f f f f f f f f f f;
#X msg 200 525 set \$1 \$2 \$3 \$4 \$5 \$6 \$7 \$8 \$9 \$10 \$11 \$12
;
#X connect 1 0 7 0;
#X connect 2 0 3 0;
#X connect 3 0 5 2;
#X connect 4 0 35 0;
#X connect 5 0 4 0;
#X connect 6 0 5 1;
#X connect 7 0 5 0;
#X connect 8 0 13 0;
#X connect 8 0 23 1;
#X connect 9 0 11 0;
#X connect 9 0 37 1;
#X connect 10 0 12 0;
#X connect 10 0 37 2;
#X connect 11 0 13 0;
#X connect 11 1 13 1;
#X connect 12 0 13 0;
#X connect 12 1 13 2;
#X connect 13 0 5 3;
#X connect 14 0 19 0;
#X connect 14 0 37 3;
#X connect 15 0 17 0;
#X connect 15 0 37 4;
#X connect 16 0 18 0;
#X connect 16 0 37 5;
#X connect 17 0 19 0;
#X connect 17 1 19 1;
#X connect 18 0 19 0;
#X connect 18 1 19 2;
#X connect 19 0 5 4;
#X connect 20 0 7 1;
#X connect 20 0 37 6;
#X connect 21 0 7 2;
#X connect 21 0 37 7;
#X connect 22 0 36 0;
#X connect 23 0 37 0;
#X connect 24 0 23 0;
#X connect 29 0 37 8;
#X connect 29 0 34 0;
#X connect 30 0 37 9;
#X connect 30 0 32 0;
#X connect 31 0 37 10;
#X connect 31 0 33 0;
#X connect 32 0 34 0;
#X connect 32 1 34 1;
#X connect 33 0 34 0;
#X connect 33 1 34 2;
#X connect 34 0 35 1;
#X connect 35 0 0 0;
#X connect 36 0 8 0;
#X connect 36 1 9 0;
#X connect 36 2 10 0;
#X connect 36 3 14 0;
#X connect 36 4 15 0;
#X connect 36 5 16 0;
#X connect 36 6 20 0;
#X connect 36 7 21 0;
#X connect 36 8 29 0;
#X connect 36 9 30 0;
#X connect 36 10 31 0;
#X connect 37 0 38 0;
#X connect 38 0 25 0;
#X coords 0 -1 1 1 110 160 1 100 100;
#X restore 89 -10 pd a_c_s_rgb_l;
#X msg 6 207 1 1 1 0 0 0 1 1 1 1 1 1;
#N canvas 327 279 750 628 a_c_s_rgb_l 0;
#X obj -116 598 outlet;
#X obj -136 229 inlet;
#X obj 138 31 loadbang;
#X msg 116 70 0;
#X obj -134 485 alpha;
#X obj -134 463 pix_alpha;
#X obj -68 241 inlet;
#X obj -91 346 pix_contrast;
#X obj 103 118 vsl 15 64 0 1 0 1 empty empty empty 0 -9 0 10 -262144
-1 -1 6300 0;
#X obj 120 118 vsl 15 64 0 1 0 1 empty empty empty 0 -9 0 10 -262144
-1 -1 6300 0;
#X obj 137 118 vsl 15 64 0 1 0 1 empty empty empty 0 -9 0 10 -262144
-1 -1 6300 0;
#X obj 60 316 t b f;
#X obj 100 316 t b f;
#X obj 38 339 pack 1 1 1;
#X obj 159 118 vsl 15 64 0 1 0 1 empty empty empty 0 -9 0 10 -262144
-1 -1 0 0;
#X obj 176 118 vsl 15 64 0 1 0 1 empty empty empty 0 -9 0 10 -262144
-1 -1 0 0;
#X obj 193 118 vsl 15 64 0 1 0 1 empty empty empty 0 -9 0 10 -262144
-1 -1 0 0;
#X obj 220 376 t b f;
#X obj 260 376 t b f;
#X obj 198 399 pack 0 0 0;
#X obj 102 190 nbx 3 14 0 10 0 1 empty empty empty 0 -8 0 10 -262144
-1 -1 1 256;
#X obj 142 190 nbx 3 14 0 10 0 1 empty empty empty 0 -8 0 10 -262144
-1 -1 1 256;
#X obj 257 32 inlet;
#X obj 159 466 float;
#X obj 195 102 bng 12 250 50 0 empty empty empty 17 7 0 10 -262144
-1 -1;
#X obj 208 563 outlet;
#X text -133 199 pix;
#X text -71 212 alpha;
#X text 258 8 preset;
#X obj 106 208 hsl 80 15 0 1 0 1 empty empty empty -2 -8 0 10 -262144
-1 -1 7900 0;
#X obj 106 225 hsl 80 15 0 1 0 1 empty empty empty -2 -8 0 10 -262144
-1 -1 7900 0;
#X obj 106 242 hsl 80 15 0 1 0 1 empty empty empty -2 -8 0 10 -262144
-1 -1 7900 0;
#X obj -41 494 t b f;
#X obj -1 494 t b f;
#X obj -63 519 pack 1 1 1;
#X obj -114 565 color;
#X obj 184 61 unpack f f f f f f f f f f f f;
#X obj 184 498 pack f f f f f f f f f f f f;
#X msg 200 525 set \$1 \$2 \$3 \$4 \$5 \$6 \$7 \$8 \$9 \$10 \$11 \$12
;
#X connect 1 0 7 0;
#X connect 2 0 3 0;
#X connect 3 0 5 2;
#X connect 4 0 35 0;
#X connect 5 0 4 0;
#X connect 6 0 5 1;
#X connect 7 0 5 0;
#X connect 8 0 13 0;
#X connect 8 0 23 1;
#X connect 9 0 11 0;
#X connect 9 0 37 1;
#X connect 10 0 12 0;
#X connect 10 0 37 2;
#X connect 11 0 13 0;
#X connect 11 1 13 1;
#X connect 12 0 13 0;
#X connect 12 1 13 2;
#X connect 13 0 5 3;
#X connect 14 0 19 0;
#X connect 14 0 37 3;
#X connect 15 0 17 0;
#X connect 15 0 37 4;
#X connect 16 0 18 0;
#X connect 16 0 37 5;
#X connect 17 0 19 0;
#X connect 17 1 19 1;
#X connect 18 0 19 0;
#X connect 18 1 19 2;
#X connect 19 0 5 4;
#X connect 20 0 7 1;
#X connect 20 0 37 6;
#X connect 21 0 7 2;
#X connect 21 0 37 7;
#X connect 22 0 36 0;
#X connect 23 0 37 0;
#X connect 24 0 23 0;
#X connect 29 0 37 8;
#X connect 29 0 34 0;
#X connect 30 0 37 9;
#X connect 30 0 32 0;
#X connect 31 0 37 10;
#X connect 31 0 33 0;
#X connect 32 0 34 0;
#X connect 32 1 34 1;
#X connect 33 0 34 0;
#X connect 33 1 34 2;
#X connect 34 0 35 1;
#X connect 35 0 0 0;
#X connect 36 0 8 0;
#X connect 36 1 9 0;
#X connect 36 2 10 0;
#X connect 36 3 14 0;
#X connect 36 4 15 0;
#X connect 36 5 16 0;
#X connect 36 6 20 0;
#X connect 36 7 21 0;
#X connect 36 8 29 0;
#X connect 36 9 30 0;
#X connect 36 10 31 0;
#X connect 37 0 38 0;
#X connect 38 0 25 0;
#X coords 0 -1 1 1 110 160 1 100 100;
#X restore 206 -7 pd a_c_s_rgb_l;
#X msg 27 229 1 1 1 0 0 0 1 1 1 1 1 1;
#N canvas 327 279 750 628 a_c_s_rgb_l 0;
#X obj -116 598 outlet;
#X obj -136 229 inlet;
#X obj 138 31 loadbang;
#X msg 116 70 0;
#X obj -134 485 alpha;
#X obj -134 463 pix_alpha;
#X obj -68 241 inlet;
#X obj -91 346 pix_contrast;
#X obj 103 118 vsl 15 64 0 1 0 1 empty empty empty 0 -9 0 10 -262144
-1 -1 6300 0;
#X obj 120 118 vsl 15 64 0 1 0 1 empty empty empty 0 -9 0 10 -262144
-1 -1 6300 0;
#X obj 137 118 vsl 15 64 0 1 0 1 empty empty empty 0 -9 0 10 -262144
-1 -1 6300 0;
#X obj 60 316 t b f;
#X obj 100 316 t b f;
#X obj 38 339 pack 1 1 1;
#X obj 159 118 vsl 15 64 0 1 0 1 empty empty empty 0 -9 0 10 -262144
-1 -1 0 0;
#X obj 176 118 vsl 15 64 0 1 0 1 empty empty empty 0 -9 0 10 -262144
-1 -1 0 0;
#X obj 193 118 vsl 15 64 0 1 0 1 empty empty empty 0 -9 0 10 -262144
-1 -1 0 0;
#X obj 220 376 t b f;
#X obj 260 376 t b f;
#X obj 198 399 pack 0 0 0;
#X obj 102 190 nbx 3 14 0 10 0 1 empty empty empty 0 -8 0 10 -262144
-1 -1 1 256;
#X obj 142 190 nbx 3 14 0 10 0 1 empty empty empty 0 -8 0 10 -262144
-1 -1 1 256;
#X obj 257 32 inlet;
#X obj 159 466 float;
#X obj 195 102 bng 12 250 50 0 empty empty empty 17 7 0 10 -262144
-1 -1;
#X obj 208 563 outlet;
#X text -133 199 pix;
#X text -71 212 alpha;
#X text 258 8 preset;
#X obj 106 208 hsl 80 15 0 1 0 1 empty empty empty -2 -8 0 10 -262144
-1 -1 7900 0;
#X obj 106 225 hsl 80 15 0 1 0 1 empty empty empty -2 -8 0 10 -262144
-1 -1 7900 0;
#X obj 106 242 hsl 80 15 0 1 0 1 empty empty empty -2 -8 0 10 -262144
-1 -1 7900 0;
#X obj -41 494 t b f;
#X obj -1 494 t b f;
#X obj -63 519 pack 1 1 1;
#X obj -114 565 color;
#X obj 184 61 unpack f f f f f f f f f f f f;
#X obj 184 498 pack f f f f f f f f f f f f;
#X msg 200 525 set \$1 \$2 \$3 \$4 \$5 \$6 \$7 \$8 \$9 \$10 \$11 \$12
;
#X connect 1 0 7 0;
#X connect 2 0 3 0;
#X connect 3 0 5 2;
#X connect 4 0 35 0;
#X connect 5 0 4 0;
#X connect 6 0 5 1;
#X connect 7 0 5 0;
#X connect 8 0 13 0;
#X connect 8 0 23 1;
#X connect 9 0 11 0;
#X connect 9 0 37 1;
#X connect 10 0 12 0;
#X connect 10 0 37 2;
#X connect 11 0 13 0;
#X connect 11 1 13 1;
#X connect 12 0 13 0;
#X connect 12 1 13 2;
#X connect 13 0 5 3;
#X connect 14 0 19 0;
#X connect 14 0 37 3;
#X connect 15 0 17 0;
#X connect 15 0 37 4;
#X connect 16 0 18 0;
#X connect 16 0 37 5;
#X connect 17 0 19 0;
#X connect 17 1 19 1;
#X connect 18 0 19 0;
#X connect 18 1 19 2;
#X connect 19 0 5 4;
#X connect 20 0 7 1;
#X connect 20 0 37 6;
#X connect 21 0 7 2;
#X connect 21 0 37 7;
#X connect 22 0 36 0;
#X connect 23 0 37 0;
#X connect 24 0 23 0;
#X connect 29 0 37 8;
#X connect 29 0 34 0;
#X connect 30 0 37 9;
#X connect 30 0 32 0;
#X connect 31 0 37 10;
#X connect 31 0 33 0;
#X connect 32 0 34 0;
#X connect 32 1 34 1;
#X connect 33 0 34 0;
#X connect 33 1 34 2;
#X connect 34 0 35 1;
#X connect 35 0 0 0;
#X connect 36 0 8 0;
#X connect 36 1 9 0;
#X connect 36 2 10 0;
#X connect 36 3 14 0;
#X connect 36 4 15 0;
#X connect 36 5 16 0;
#X connect 36 6 20 0;
#X connect 36 7 21 0;
#X connect 36 8 29 0;
#X connect 36 9 30 0;
#X connect 36 10 31 0;
#X connect 37 0 38 0;
#X connect 38 0 25 0;
#X coords 0 -1 1 1 110 160 1 100 100;
#X restore 323 -1 pd a_c_s_rgb_l;
#X text -17 -241 bg color;
#X text 74 -188 reset pos;
#X text 174 -191 speed;
#X text 277 -194 blend;
#X obj -25 391 rectangle 8 4.5;
#X obj 83 400 rectangle 8 4.5;
#X obj 196 407 rectangle 8 4.5;
#X obj 303 412 rectangle 8 4.5;
#N canvas 81 540 927 373 sfx 0;
#X obj 54 55 inlet;
#X obj 130 358 outlet;
#X obj 152 103 nbx 4 14 0 100 0 1 empty empty empty 0 -8 0 10 -262144
-1 -1 10 256;
#X obj 40 253 spigot;
#X obj 87 201 == 0;
#X obj 103 122 hradio 15 1 1 6 empty empty empty 0 -8 0 10 -262144
-1 -1 0;
#X obj 114 283 pix_motionblur;
#X obj 165 172 / 100;
#X obj 108 248 spigot;
#X obj 143 216 == 1;
#X obj 269 244 spigot;
#X obj 304 212 == 2;
#X obj 259 280 pix_backlight;
#X obj 362 276 pix_posterize;
#X obj 360 228 spigot;
#X obj 395 196 == 3;
#X obj 362 248 pix_yuv;
#X obj 360 304 pix_rgba;
#X obj 463 272 pix_movement;
#X obj 469 234 spigot;
#X obj 504 202 == 4;
#X obj 590 279 pix_kaleidoscope;
#X obj 592 244 spigot;
#X obj 627 212 == 5;
#X obj 678 228 int;
#X obj 683 193 * 10;
#X connect 0 0 3 0;
#X connect 0 0 8 0;
#X connect 0 0 10 0;
#X connect 0 0 14 0;
#X connect 0 0 19 0;
#X connect 0 0 22 0;
#X connect 2 0 7 0;
#X connect 3 0 1 0;
#X connect 4 0 3 1;
#X connect 5 0 4 0;
#X connect 5 0 9 0;
#X connect 5 0 11 0;
#X connect 5 0 15 0;
#X connect 5 0 20 0;
#X connect 5 0 23 0;
#X connect 6 0 1 0;
#X connect 7 0 6 1;
#X connect 7 0 12 1;
#X connect 7 0 13 1;
#X connect 7 0 18 1;
#X connect 7 0 25 0;
#X connect 8 0 6 0;
#X connect 9 0 8 1;
#X connect 10 0 12 0;
#X connect 11 0 10 1;
#X connect 12 0 1 0;
#X connect 13 0 17 0;
#X connect 14 0 16 0;
#X connect 15 0 14 1;
#X connect 16 0 13 0;
#X connect 17 0 1 0;
#X connect 18 0 1 0;
#X connect 19 0 18 0;
#X connect 20 0 19 1;
#X connect 21 0 1 0;
#X connect 22 0 21 0;
#X connect 23 0 22 1;
#X connect 24 0 21 1;
#X connect 25 0 24 0;
#X coords 0 -1 1 1 100 40 1 100 100;
#X restore -27 -68 pd sfx;
#N canvas 83 539 927 373 sfx 0;
#X obj 54 55 inlet;
#X obj 130 358 outlet;
#X obj 152 103 nbx 4 14 0 100 0 1 empty empty empty 0 -8 0 10 -262144
-1 -1 10 256;
#X obj 40 253 spigot;
#X obj 87 201 == 0;
#X obj 103 122 hradio 15 1 1 6 empty empty empty 0 -8 0 10 -262144
-1 -1 0;
#X obj 114 283 pix_motionblur;
#X obj 165 172 / 100;
#X obj 108 248 spigot;
#X obj 143 216 == 1;
#X obj 269 244 spigot;
#X obj 304 212 == 2;
#X obj 259 280 pix_backlight;
#X obj 362 276 pix_posterize;
#X obj 360 228 spigot;
#X obj 395 196 == 3;
#X obj 362 248 pix_yuv;
#X obj 360 304 pix_rgba;
#X obj 463 272 pix_movement;
#X obj 469 234 spigot;
#X obj 504 202 == 4;
#X obj 590 279 pix_kaleidoscope;
#X obj 592 244 spigot;
#X obj 627 212 == 5;
#X obj 678 228 int;
#X obj 683 193 * 10;
#X connect 0 0 3 0;
#X connect 0 0 8 0;
#X connect 0 0 10 0;
#X connect 0 0 14 0;
#X connect 0 0 19 0;
#X connect 0 0 22 0;
#X connect 2 0 7 0;
#X connect 3 0 1 0;
#X connect 4 0 3 1;
#X connect 5 0 4 0;
#X connect 5 0 9 0;
#X connect 5 0 11 0;
#X connect 5 0 15 0;
#X connect 5 0 20 0;
#X connect 5 0 23 0;
#X connect 6 0 1 0;
#X connect 7 0 6 1;
#X connect 7 0 12 1;
#X connect 7 0 13 1;
#X connect 7 0 18 1;
#X connect 7 0 25 0;
#X connect 8 0 6 0;
#X connect 9 0 8 1;
#X connect 10 0 12 0;
#X connect 11 0 10 1;
#X connect 12 0 1 0;
#X connect 13 0 17 0;
#X connect 14 0 16 0;
#X connect 15 0 14 1;
#X connect 16 0 13 0;
#X connect 17 0 1 0;
#X connect 18 0 1 0;
#X connect 19 0 18 0;
#X connect 20 0 19 1;
#X connect 21 0 1 0;
#X connect 22 0 21 0;
#X connect 23 0 22 1;
#X connect 24 0 21 1;
#X connect 25 0 24 0;
#X coords 0 -1 1 1 100 40 1 100 100;
#X restore 83 -62 pd sfx;
#N canvas 83 539 927 373 sfx 0;
#X obj 54 55 inlet;
#X obj 130 358 outlet;
#X obj 152 103 nbx 4 14 0 100 0 1 empty empty empty 0 -8 0 10 -262144
-1 -1 10 256;
#X obj 40 253 spigot;
#X obj 87 201 == 0;
#X obj 103 122 hradio 15 1 1 6 empty empty empty 0 -8 0 10 -262144
-1 -1 0;
#X obj 114 283 pix_motionblur;
#X obj 165 172 / 100;
#X obj 108 248 spigot;
#X obj 143 216 == 1;
#X obj 269 244 spigot;
#X obj 304 212 == 2;
#X obj 259 280 pix_backlight;
#X obj 362 276 pix_posterize;
#X obj 360 228 spigot;
#X obj 395 196 == 3;
#X obj 362 248 pix_yuv;
#X obj 360 304 pix_rgba;
#X obj 463 272 pix_movement;
#X obj 469 234 spigot;
#X obj 504 202 == 4;
#X obj 590 279 pix_kaleidoscope;
#X obj 592 244 spigot;
#X obj 627 212 == 5;
#X obj 678 228 int;
#X obj 683 193 * 10;
#X connect 0 0 3 0;
#X connect 0 0 8 0;
#X connect 0 0 10 0;
#X connect 0 0 14 0;
#X connect 0 0 19 0;
#X connect 0 0 22 0;
#X connect 2 0 7 0;
#X connect 3 0 1 0;
#X connect 4 0 3 1;
#X connect 5 0 4 0;
#X connect 5 0 9 0;
#X connect 5 0 11 0;
#X connect 5 0 15 0;
#X connect 5 0 20 0;
#X connect 5 0 23 0;
#X connect 6 0 1 0;
#X connect 7 0 6 1;
#X connect 7 0 12 1;
#X connect 7 0 13 1;
#X connect 7 0 18 1;
#X connect 7 0 25 0;
#X connect 8 0 6 0;
#X connect 9 0 8 1;
#X connect 10 0 12 0;
#X connect 11 0 10 1;
#X connect 12 0 1 0;
#X connect 13 0 17 0;
#X connect 14 0 16 0;
#X connect 15 0 14 1;
#X connect 16 0 13 0;
#X connect 17 0 1 0;
#X connect 18 0 1 0;
#X connect 19 0 18 0;
#X connect 20 0 19 1;
#X connect 21 0 1 0;
#X connect 22 0 21 0;
#X connect 23 0 22 1;
#X connect 24 0 21 1;
#X connect 25 0 24 0;
#X coords 0 -1 1 1 100 40 1 100 100;
#X restore 190 -58 pd sfx;
#N canvas 83 539 927 373 sfx 0;
#X obj 54 55 inlet;
#X obj 130 358 outlet;
#X obj 152 103 nbx 4 14 0 100 0 1 empty empty empty 0 -8 0 10 -262144
-1 -1 10 256;
#X obj 40 253 spigot;
#X obj 87 201 == 0;
#X obj 103 122 hradio 15 1 1 6 empty empty empty 0 -8 0 10 -262144
-1 -1 0;
#X obj 114 283 pix_motionblur;
#X obj 165 172 / 100;
#X obj 108 248 spigot;
#X obj 143 216 == 1;
#X obj 269 244 spigot;
#X obj 304 212 == 2;
#X obj 259 280 pix_backlight;
#X obj 362 276 pix_posterize;
#X obj 360 228 spigot;
#X obj 395 196 == 3;
#X obj 362 248 pix_yuv;
#X obj 360 304 pix_rgba;
#X obj 463 272 pix_movement;
#X obj 469 234 spigot;
#X obj 504 202 == 4;
#X obj 590 279 pix_kaleidoscope;
#X obj 592 244 spigot;
#X obj 627 212 == 5;
#X obj 678 228 int;
#X obj 683 193 * 10;
#X connect 0 0 3 0;
#X connect 0 0 8 0;
#X connect 0 0 10 0;
#X connect 0 0 14 0;
#X connect 0 0 19 0;
#X connect 0 0 22 0;
#X connect 2 0 7 0;
#X connect 3 0 1 0;
#X connect 4 0 3 1;
#X connect 5 0 4 0;
#X connect 5 0 9 0;
#X connect 5 0 11 0;
#X connect 5 0 15 0;
#X connect 5 0 20 0;
#X connect 5 0 23 0;
#X connect 6 0 1 0;
#X connect 7 0 6 1;
#X connect 7 0 12 1;
#X connect 7 0 13 1;
#X connect 7 0 18 1;
#X connect 7 0 25 0;
#X connect 8 0 6 0;
#X connect 9 0 8 1;
#X connect 10 0 12 0;
#X connect 11 0 10 1;
#X connect 12 0 1 0;
#X connect 13 0 17 0;
#X connect 14 0 16 0;
#X connect 15 0 14 1;
#X connect 16 0 13 0;
#X connect 17 0 1 0;
#X connect 18 0 1 0;
#X connect 19 0 18 0;
#X connect 20 0 19 1;
#X connect 21 0 1 0;
#X connect 22 0 21 0;
#X connect 23 0 22 1;
#X connect 24 0 21 1;
#X connect 25 0 24 0;
#X coords 0 -1 1 1 100 40 1 100 100;
#X restore 305 -52 pd sfx;
#N canvas 413 360 625 597 videoplayer3 0;
#X obj 47 -23 inlet;
#X obj 168 24 inlet;
#X obj 10 481 outlet;
#X obj 40 296 unpack 0 0 0;
#X msg 38 221 open \$1;
#X obj 5 265 pix_film;
#X obj -27 102 + 1;
#X obj -27 127 mod 25;
#X obj -26 79 float;
#X obj -35 159 change;
#X msg -19 49 0;
#X obj 10 457 pix_rgba;
#X obj 46 66 gemhead 3;
#X obj -21 356 spigot 0;
#X obj 26 324 > 0;
#X text 211 27 filename;
#X obj -33 -9 inlet;
#X text 1 -12 reset;
#X text 85 -23 clockbang;
#X obj -83 -40 loadbang;
#X obj 97 4 inlet;
#X text 129 1 speed;
#X msg 185 167 set symbol \$1;
#X obj 11 431 pix_mix;
#X obj 84 183 wrap;
#X obj -25 391 pix_delay 10;
#X obj 145 232 t b f;
#X msg 136 257 1;
#X obj 153 283 /;
#X obj 150 314 * 0.75;
#X obj 142 347 int;
#X floatatom 86 337 5 0 0 0 - - -;
#X obj -10 206 + 1;
#X msg 185 189;
#X connect 0 0 8 0;
#X connect 1 0 4 0;
#X connect 1 0 22 0;
#X connect 3 0 14 0;
#X connect 3 0 31 0;
#X connect 3 0 7 1;
#X connect 4 0 5 0;
#X connect 5 0 13 0;
#X connect 5 1 3 0;
#X connect 6 0 7 0;
#X connect 6 0 8 1;
#X connect 6 0 24 0;
#X connect 7 0 9 0;
#X connect 8 0 6 0;
#X connect 9 0 32 0;
#X connect 10 0 8 1;
#X connect 11 0 2 0;
#X connect 12 0 5 0;
#X connect 13 0 25 0;
#X connect 13 0 23 1;
#X connect 14 0 13 1;
#X connect 16 0 10 0;
#X connect 19 0 10 0;
#X connect 19 0 33 0;
#X connect 20 0 6 1;
#X connect 20 0 26 0;
#X connect 22 0 33 0;
#X connect 23 0 11 0;
#X connect 24 0 23 2;
#X connect 25 0 23 0;
#X connect 26 0 27 0;
#X connect 26 1 28 1;
#X connect 27 0 28 0;
#X connect 28 0 29 0;
#X connect 29 0 30 0;
#X connect 30 0 25 1;
#X connect 32 0 5 1;
#X connect 33 0 4 0;
#X restore -25 -93 pd videoplayer3;
#N canvas 1 86 450 300 colorbg2 0;
#X obj 166 -94 rectangle 16 9;
#X obj 165 -116 color;
#X obj 165 -147 gemhead 2;
#X obj 232 -216 inlet;
#X text 357 -215 rgba;
#X obj 272 -216 inlet;
#X obj 312 -215 inlet;
#X obj 254 -186 t b f;
#X obj 308 -184 t b f;
#X obj 227 -151 pack 1 1 1 1;
#X connect 1 0 0 0;
#X connect 2 0 1 0;
#X connect 3 0 9 0;
#X connect 5 0 7 0;
#X connect 6 0 8 0;
#X connect 7 0 9 0;
#X connect 7 1 9 1;
#X connect 8 0 9 0;
#X connect 8 1 9 2;
#X connect 9 0 1 1;
#X restore -21 -134 pd colorbg2;
#N canvas 411 361 625 597 videoplayer5 0;
#X obj 47 -23 inlet;
#X obj 168 24 inlet;
#X obj 10 481 outlet;
#X obj 40 296 unpack 0 0 0;
#X msg 38 221 open \$1;
#X obj 5 265 pix_film;
#X obj -27 102 + 1;
#X obj -27 127 mod 25;
#X obj -26 79 float;
#X obj -35 159 change;
#X msg -19 49 0;
#X obj 10 457 pix_rgba;
#X obj -21 356 spigot 0;
#X obj 26 324 > 0;
#X text 211 27 filename;
#X obj -33 -9 inlet;
#X text 1 -12 reset;
#X text 85 -23 clockbang;
#X obj -83 -40 loadbang;
#X obj 97 4 inlet;
#X text 129 1 speed;
#X msg 185 167 set symbol \$1;
#X obj 11 431 pix_mix;
#X obj 84 183 wrap;
#X obj -25 391 pix_delay 10;
#X obj 145 232 t b f;
#X msg 136 257 1;
#X obj 153 283 /;
#X obj 150 314 * 0.75;
#X obj 142 347 int;
#X floatatom 86 337 5 0 0 0 - - -;
#X obj -10 206 + 1;
#X msg 185 189;
#X obj 46 66 gemhead 5;
#X connect 0 0 8 0;
#X connect 1 0 4 0;
#X connect 1 0 21 0;
#X connect 3 0 13 0;
#X connect 3 0 30 0;
#X connect 3 0 7 1;
#X connect 4 0 5 0;
#X connect 5 0 12 0;
#X connect 5 1 3 0;
#X connect 6 0 7 0;
#X connect 6 0 8 1;
#X connect 6 0 23 0;
#X connect 7 0 9 0;
#X connect 8 0 6 0;
#X connect 9 0 31 0;
#X connect 10 0 8 1;
#X connect 11 0 2 0;
#X connect 12 0 24 0;
#X connect 12 0 22 1;
#X connect 13 0 12 1;
#X connect 15 0 10 0;
#X connect 18 0 10 0;
#X connect 18 0 32 0;
#X connect 19 0 6 1;
#X connect 19 0 25 0;
#X connect 21 0 32 0;
#X connect 22 0 11 0;
#X connect 23 0 22 2;
#X connect 24 0 22 0;
#X connect 25 0 26 0;
#X connect 25 1 27 1;
#X connect 26 0 27 0;
#X connect 27 0 28 0;
#X connect 28 0 29 0;
#X connect 29 0 24 1;
#X connect 31 0 5 1;
#X connect 32 0 4 0;
#X connect 33 0 5 0;
#X restore 184 -82 pd videoplayer5;
#N canvas 413 360 625 597 videoplayer4 0;
#X obj 47 -23 inlet;
#X obj 168 24 inlet;
#X obj 10 481 outlet;
#X obj 40 296 unpack 0 0 0;
#X msg 38 221 open \$1;
#X obj 5 265 pix_film;
#X obj -27 102 + 1;
#X obj -27 127 mod 25;
#X obj -26 79 float;
#X obj -35 159 change;
#X msg -19 49 0;
#X obj 10 457 pix_rgba;
#X obj -21 356 spigot 0;
#X obj 26 324 > 0;
#X text 211 27 filename;
#X obj -33 -9 inlet;
#X text 1 -12 reset;
#X text 85 -23 clockbang;
#X obj -83 -40 loadbang;
#X obj 97 4 inlet;
#X text 129 1 speed;
#X msg 185 167 set symbol \$1;
#X obj 11 431 pix_mix;
#X obj 84 183 wrap;
#X obj -25 391 pix_delay 10;
#X obj 145 232 t b f;
#X msg 136 257 1;
#X obj 153 283 /;
#X obj 150 314 * 0.75;
#X obj 142 347 int;
#X floatatom 86 337 5 0 0 0 - - -;
#X obj -10 206 + 1;
#X msg 185 189;
#X obj 46 66 gemhead 4;
#X connect 0 0 8 0;
#X connect 1 0 4 0;
#X connect 1 0 21 0;
#X connect 3 0 13 0;
#X connect 3 0 30 0;
#X connect 3 0 7 1;
#X connect 4 0 5 0;
#X connect 5 0 12 0;
#X connect 5 1 3 0;
#X connect 6 0 7 0;
#X connect 6 0 8 1;
#X connect 6 0 23 0;
#X connect 7 0 9 0;
#X connect 8 0 6 0;
#X connect 9 0 31 0;
#X connect 10 0 8 1;
#X connect 11 0 2 0;
#X connect 12 0 24 0;
#X connect 12 0 22 1;
#X connect 13 0 12 1;
#X connect 15 0 10 0;
#X connect 18 0 10 0;
#X connect 18 0 32 0;
#X connect 19 0 6 1;
#X connect 19 0 25 0;
#X connect 21 0 32 0;
#X connect 22 0 11 0;
#X connect 23 0 22 2;
#X connect 24 0 22 0;
#X connect 25 0 26 0;
#X connect 25 1 27 1;
#X connect 26 0 27 0;
#X connect 27 0 28 0;
#X connect 28 0 29 0;
#X connect 29 0 24 1;
#X connect 31 0 5 1;
#X connect 32 0 4 0;
#X connect 33 0 5 0;
#X restore 79 -91 pd videoplayer4;
#N canvas 411 361 625 597 videoplayer6 0;
#X obj 47 -23 inlet;
#X obj 168 24 inlet;
#X obj 10 481 outlet;
#X obj 40 296 unpack 0 0 0;
#X msg 38 221 open \$1;
#X obj 5 265 pix_film;
#X obj -27 102 + 1;
#X obj -27 127 mod 25;
#X obj -26 79 float;
#X obj -35 159 change;
#X msg -19 49 0;
#X obj 10 457 pix_rgba;
#X obj -21 356 spigot 0;
#X obj 26 324 > 0;
#X text 211 27 filename;
#X obj -33 -9 inlet;
#X text 1 -12 reset;
#X text 85 -23 clockbang;
#X obj -83 -40 loadbang;
#X obj 97 4 inlet;
#X text 129 1 speed;
#X msg 185 167 set symbol \$1;
#X obj 11 431 pix_mix;
#X obj 84 183 wrap;
#X obj -25 391 pix_delay 10;
#X obj 145 232 t b f;
#X msg 136 257 1;
#X obj 153 283 /;
#X obj 150 314 * 0.75;
#X obj 142 347 int;
#X floatatom 86 337 5 0 0 0 - - -;
#X obj -10 206 + 1;
#X msg 185 189;
#X obj 46 66 gemhead 6;
#X connect 0 0 8 0;
#X connect 1 0 4 0;
#X connect 1 0 21 0;
#X connect 3 0 13 0;
#X connect 3 0 30 0;
#X connect 3 0 7 1;
#X connect 4 0 5 0;
#X connect 5 0 12 0;
#X connect 5 1 3 0;
#X connect 6 0 7 0;
#X connect 6 0 8 1;
#X connect 6 0 23 0;
#X connect 7 0 9 0;
#X connect 8 0 6 0;
#X connect 9 0 31 0;
#X connect 10 0 8 1;
#X connect 11 0 2 0;
#X connect 12 0 24 0;
#X connect 12 0 22 1;
#X connect 13 0 12 1;
#X connect 15 0 10 0;
#X connect 18 0 10 0;
#X connect 18 0 32 0;
#X connect 19 0 6 1;
#X connect 19 0 25 0;
#X connect 21 0 32 0;
#X connect 22 0 11 0;
#X connect 23 0 22 2;
#X connect 24 0 22 0;
#X connect 25 0 26 0;
#X connect 25 1 27 1;
#X connect 26 0 27 0;
#X connect 27 0 28 0;
#X connect 28 0 29 0;
#X connect 29 0 24 1;
#X connect 31 0 5 1;
#X connect 32 0 4 0;
#X connect 33 0 5 0;
#X restore 303 -76 pd videoplayer6;
#X text 192 -318 4 chan trivial gem video mixer with fx.;
#X text 191 -304 2012 martin brinkmann;
#X connect 0 0 45 0;
#X connect 1 0 26 1;
#X connect 2 0 36 1;
#X connect 4 0 3 0;
#X connect 5 0 3 0;
#X connect 6 0 27 0;
#X connect 6 0 30 0;
#X connect 6 0 32 0;
#X connect 6 0 34 0;
#X connect 7 0 53 1;
#X connect 7 0 55 1;
#X connect 7 0 56 1;
#X connect 7 0 57 1;
#X connect 8 0 7 0;
#X connect 9 0 1 0;
#X connect 9 1 2 0;
#X connect 9 2 10 0;
#X connect 9 3 15 0;
#X connect 9 4 18 0;
#X connect 9 5 19 0;
#X connect 9 6 20 0;
#X connect 9 7 21 0;
#X connect 10 0 38 1;
#X connect 11 0 46 0;
#X connect 12 0 47 0;
#X connect 13 0 28 0;
#X connect 13 0 29 0;
#X connect 13 0 31 0;
#X connect 13 0 33 0;
#X connect 14 0 13 0;
#X connect 15 0 40 1;
#X connect 16 0 48 0;
#X connect 17 0 53 0;
#X connect 17 0 55 0;
#X connect 17 0 56 0;
#X connect 17 0 57 0;
#X connect 18 0 53 2;
#X connect 19 0 56 2;
#X connect 20 0 55 2;
#X connect 21 0 57 2;
#X connect 22 0 54 0;
#X connect 23 0 54 1;
#X connect 24 0 54 2;
#X connect 25 0 26 2;
#X connect 26 0 0 0;
#X connect 26 1 25 0;
#X connect 27 0 28 1;
#X connect 28 0 53 3;
#X connect 29 0 56 3;
#X connect 30 0 29 1;
#X connect 31 0 55 3;
#X connect 32 0 31 1;
#X connect 33 0 57 3;
#X connect 34 0 33 1;
#X connect 35 0 36 2;
#X connect 36 0 11 0;
#X connect 36 1 35 0;
#X connect 37 0 38 2;
#X connect 38 0 12 0;
#X connect 38 1 37 0;
#X connect 39 0 40 2;
#X connect 40 0 16 0;
#X connect 40 1 39 0;
#X connect 49 0 26 0;
#X connect 50 0 36 0;
#X connect 51 0 38 0;
#X connect 52 0 40 0;
#X connect 53 0 49 0;
#X connect 55 0 51 0;
#X connect 56 0 50 0;
#X connect 57 0 52 0;
