#N canvas -1 5 1009 703 12;
#X obj 247 189 radiobut 30 1 0 16 empty empty empty 8 -8 0 8 -62784
-258699 -258699 10;
#X obj 247 222 toggle 30 0 empty empty empty 20 8 0 8 -44926 -258699
-1 0 1;
#X obj 277 222 toggle 30 0 empty empty empty 20 8 0 8 -44926 -258699
-1 0 1;
#X obj 307 222 toggle 30 0 empty empty empty 20 8 0 8 -44926 -258699
-1 0 1;
#X obj 337 222 toggle 30 0 empty empty empty 20 8 0 8 -44926 -258699
-1 0 1;
#X obj 367 222 toggle 30 0 empty empty empty 20 8 0 8 -44926 -258699
-1 0 1;
#X obj 397 222 toggle 30 0 empty empty empty 20 8 0 8 -44926 -258699
-1 0 1;
#X obj 427 222 toggle 30 0 empty empty empty 20 8 0 8 -44926 -258699
-1 0 1;
#X obj 457 222 toggle 30 0 empty empty empty 20 8 0 8 -44926 -258699
-1 0 1;
#X obj 487 222 toggle 30 0 empty empty empty 20 8 0 8 -44926 -258699
-1 0 1;
#X obj 517 222 toggle 30 0 empty empty empty 20 8 0 8 -44926 -258699
-1 0 1;
#X obj 547 222 toggle 30 0 empty empty empty 20 8 0 8 -44926 -258699
-1 0 1;
#X obj 577 222 toggle 30 0 empty empty empty 20 8 0 8 -44926 -258699
-1 0 1;
#X obj 607 222 toggle 30 0 empty empty empty 20 8 0 8 -44926 -258699
-1 0 1;
#X obj 637 222 toggle 30 0 empty empty empty 20 8 0 8 -44926 -258699
-1 0 1;
#X obj 667 222 toggle 30 0 empty empty empty 20 8 0 8 -44926 -258699
-1 0 1;
#X obj 697 222 toggle 30 0 empty empty empty 20 8 0 8 -44926 -258699
-1 0 1;
#X obj 247 163 r beat;
#X obj 33 366 s init;
#X obj 247 87 radiobut 30 1 0 10 empty empty empty 8 -8 0 8 -241291
-258699 -1 0;
#X obj 51 280 s bar;
#N canvas 363 191 624 424 clock 0;
#X obj 100 192 int;
#X obj 155 176 + 1;
#X floatatom 191 235 0 0 0;
#X obj 74 150 metro 120;
#X floatatom 176 83 0 0 0;
#X obj 191 207 mod 16;
#X obj 190 264 s beat;
#X obj 39 26 inlet;
#X obj 344 24 inlet;
#X obj 316 182 int;
#X obj 401 23 inlet;
#X obj 163 25 inlet;
#X obj 230 24 inlet;
#X msg 233 83 0;
#X obj 217 354 outlet;
#X obj 492 288 int;
#X obj 535 268 + 1;
#X obj 329 323 int;
#X obj 372 303 - 1;
#X obj 372 336 moses 0;
#X obj 454 24 inlet;
#X obj 508 23 inlet;
#X obj 131 350 spigot;
#X msg 498 216 bang;
#X text 535 211 next bar;
#X text 406 303 last bar;
#X obj 69 289 select 15;
#X connect 0 0 1 0;
#X connect 1 0 5 0;
#X connect 2 0 0 1;
#X connect 2 0 6 0;
#X connect 2 0 26 0;
#X connect 3 0 0 0;
#X connect 4 0 3 1;
#X connect 5 0 2 0;
#X connect 7 0 3 0;
#X connect 8 0 17 0;
#X connect 9 0 14 0;
#X connect 9 0 15 1;
#X connect 9 0 17 1;
#X connect 10 0 15 0;
#X connect 11 0 4 0;
#X connect 12 0 13 0;
#X connect 13 0 5 0;
#X connect 13 0 9 0;
#X connect 15 0 16 0;
#X connect 16 0 9 0;
#X connect 17 0 18 0;
#X connect 18 0 19 0;
#X connect 19 0 13 0;
#X connect 19 1 9 0;
#X connect 20 0 9 0;
#X connect 21 0 22 1;
#X connect 22 0 23 0;
#X connect 23 0 15 0;
#X connect 26 0 22 0;
#X restore 51 217 pd clock;
#X obj 51 55 toggle 20 0 empty empty start/stop 20 8 0 8 -241291 -258699
-1 1 1;
#X floatatom 60 83 0 0 0;
#X text 90 83 tempo;
#X obj 70 107 bng 20 250 50 0 empty empty reset 30 10 0 8 -241291 -258699
-1;
#X floatatom 51 242 0 0 0;
#X obj 80 146 bng 20 250 50 0 empty empty empty 30 10 0 8 -241291 -258699
-1;
#X obj 105 146 bng 20 250 50 0 empty empty empty 30 10 0 8 -241291
-258699 -1;
#X text 81 124 << >>;
#X floatatom 113 173 0 0 0;
#X text 146 174 setbar;
#X text 134 145 skipbar;
#X obj 33 13 loadbang;
#X obj 123 197 toggle 20 0 empty empty empty 20 8 0 8 -241291 -258699
-1 0 1;
#X text 145 200 link bar;
#X floatatom 247 129 0 0 0;
#X floatatom 695 150 0 0 0;
#X text 243 62 CURRENT INSTRUMENT;
#X text 56 35 CLOCK;
#X floatatom 754 630 0 0 0;
#N canvas 159 26 497 268 output 0;
#X obj 338 160 t b;
#X obj 338 110 f;
#X obj 338 60 inlet;
#X text 344 29 mute;
#X obj 338 185 f;
#X msg 425 178 0;
#X msg 338 85 bang;
#X obj 338 135 moses 1;
#X obj 425 153 t b f;
#X obj 397 117 moses 1;
#X obj 83 148 dbtorms;
#X obj 397 92 r master-lvl;
#X obj 83 42 r master-lvl;
#X obj 338 210 s master-lvl;
#X obj 22 181 inlet~;
#X obj 199 41 inlet;
#X text 199 18 level;
#X obj 199 100 s master-lvl;
#X msg 96 65 set \$1;
#X obj 96 89 outlet;
#X msg 214 64 \; pd dsp 1;
#X obj 83 194 line~;
#X obj 22 212 *~;
#X obj 22 241 dac~;
#X obj 83 171 pack 0 50;
#X text 20 158 audio;
#X text 93 110 show level;
#X connect 0 0 4 0;
#X connect 1 0 7 0;
#X connect 2 0 6 0;
#X connect 4 0 13 0;
#X connect 5 0 13 0;
#X connect 6 0 1 0;
#X connect 7 0 0 0;
#X connect 7 1 8 0;
#X connect 8 0 5 0;
#X connect 9 1 4 1;
#X connect 10 0 24 0;
#X connect 11 0 1 1;
#X connect 11 0 9 0;
#X connect 12 0 10 0;
#X connect 12 0 18 0;
#X connect 14 0 22 0;
#X connect 15 0 17 0;
#X connect 15 0 20 0;
#X connect 18 0 19 0;
#X connect 21 0 22 1;
#X connect 22 0 23 0;
#X connect 22 0 23 1;
#X connect 24 0 21 0;
#X restore 706 655 pd output;
#X msg 812 655 MUTE;
#X text 820 633 <-- output amplitude;
#X obj 792 604 loadbang;
#X obj 493 411 instruments -------------;
#X msg 33 338 bang;
#X floatatom 238 279 0 0 0;
#X floatatom 270 279 0 0 0;
#X floatatom 302 279 0 0 0;
#X floatatom 334 279 0 0 0;
#X floatatom 366 279 0 0 0;
#X floatatom 398 279 0 0 0;
#X floatatom 430 279 0 0 0;
#X floatatom 463 279 0 0 0;
#X floatatom 495 279 0 0 0;
#X floatatom 527 279 0 0 0;
#X floatatom 559 279 0 0 0;
#X floatatom 591 279 0 0 0;
#X floatatom 623 279 0 0 0;
#X floatatom 655 279 0 0 0;
#X floatatom 687 279 0 0 0;
#X floatatom 719 279 0 0 0;
#X text 233 299 extended note info;
#X obj 17 391 s sampleinit;
#X obj 717 520 instruments2 -------;
#X msg 735 201 1;
#X msg 771 201 0;
#X obj 735 174 bng 20 250 50 0 empty empty empty 20 8 0 8 -241291 -258699
-1;
#X obj 303 162 sequencetable;
#X obj 723 84 s copybar;
#X obj 723 56 bng 20 250 50 0 empty empty empty 20 8 0 8 -241291 -258699
-1;
#X obj 723 111 bng 20 250 50 0 empty empty empty 20 8 0 8 -241291 -258699
-1;
#X text 608 153 INSTRUMENT;
#X obj 248 254 sequence a--------------------------------------------------
;
#X msg 787 631 94;
#X text 757 173 CLEAR PATTERN;
#X text 26 451 Use yellow/red radio to select instrument;
#X text 27 470 Use light blue toggles to set triggers;
#X text 28 486 You can edit toggles to send extended info;
#X text 25 502 You can clear \, copy and paste individual patterns
;
#X text 27 520 Use link bar toggle to cycle on a bar or progress;
#X text 25 537 Open sequencetable box to clear whole track or save
the table array;
#X text 26 570 Each instrument uses sampleplayer patch with different
creation arguments;
#X text 27 423 NOTES;
#X text 23 601 You could use extended info to control pitch e.t.c.
;
#X text 23 624 tom@nullpointer.co.uk;
#X text 23 638 www.nullpointer.co.uk;
#X text 703 410 <--sampleplayers are in here;
#X text 745 54 COPY PATTERN;
#X text 747 109 PASTE PATTERN;
#X text 728 228 <-- set pattern with these toggles;
#X text 242 12 DRUM MACHINE;
#X text 242 14 _____________;
#X connect 1 0 74 0;
#X connect 2 0 74 1;
#X connect 3 0 74 2;
#X connect 4 0 74 3;
#X connect 5 0 74 4;
#X connect 6 0 74 5;
#X connect 7 0 74 6;
#X connect 8 0 74 7;
#X connect 9 0 74 8;
#X connect 10 0 74 9;
#X connect 11 0 74 10;
#X connect 12 0 74 11;
#X connect 13 0 74 12;
#X connect 14 0 74 13;
#X connect 15 0 74 14;
#X connect 16 0 74 15;
#X connect 17 0 0 0;
#X connect 19 0 36 0;
#X connect 21 0 26 0;
#X connect 22 0 21 0;
#X connect 23 0 21 1;
#X connect 25 0 21 2;
#X connect 26 0 20 0;
#X connect 27 0 21 3;
#X connect 28 0 21 4;
#X connect 30 0 21 5;
#X connect 33 0 46 0;
#X connect 33 0 25 0;
#X connect 34 0 21 6;
#X connect 36 0 37 0;
#X connect 37 0 74 16;
#X connect 40 0 41 1;
#X connect 41 0 40 0;
#X connect 42 0 41 2;
#X connect 44 0 75 0;
#X connect 45 0 41 0;
#X connect 45 1 41 0;
#X connect 45 2 41 0;
#X connect 45 3 41 0;
#X connect 45 4 41 0;
#X connect 46 0 18 0;
#X connect 46 0 64 0;
#X connect 47 0 1 0;
#X connect 48 0 74 1;
#X connect 49 0 74 2;
#X connect 50 0 74 3;
#X connect 51 0 74 4;
#X connect 52 0 74 5;
#X connect 53 0 74 6;
#X connect 54 0 74 7;
#X connect 55 0 74 8;
#X connect 56 0 74 9;
#X connect 57 0 74 10;
#X connect 58 0 74 11;
#X connect 59 0 74 12;
#X connect 60 0 74 13;
#X connect 61 0 74 14;
#X connect 62 0 74 15;
#X connect 65 0 41 0;
#X connect 65 1 41 0;
#X connect 65 2 41 0;
#X connect 65 3 41 0;
#X connect 65 4 41 0;
#X connect 66 0 1 0;
#X connect 66 0 2 0;
#X connect 66 0 3 0;
#X connect 66 0 4 0;
#X connect 66 0 5 0;
#X connect 66 0 6 0;
#X connect 66 0 7 0;
#X connect 66 0 8 0;
#X connect 66 0 9 0;
#X connect 66 0 10 0;
#X connect 66 0 11 0;
#X connect 66 0 12 0;
#X connect 66 0 13 0;
#X connect 66 0 14 0;
#X connect 66 0 15 0;
#X connect 66 0 16 0;
#X connect 66 0 67 0;
#X connect 67 0 1 0;
#X connect 67 0 2 0;
#X connect 67 0 3 0;
#X connect 67 0 4 0;
#X connect 67 0 5 0;
#X connect 67 0 6 0;
#X connect 67 0 7 0;
#X connect 67 0 8 0;
#X connect 67 0 9 0;
#X connect 67 0 10 0;
#X connect 67 0 11 0;
#X connect 67 0 12 0;
#X connect 67 0 13 0;
#X connect 67 0 14 0;
#X connect 67 0 15 0;
#X connect 67 0 16 0;
#X connect 68 0 66 0;
#X connect 71 0 70 0;
#X connect 72 0 74 17;
#X connect 74 0 1 0;
#X connect 74 0 47 0;
#X connect 74 1 2 0;
#X connect 74 1 48 0;
#X connect 74 2 3 0;
#X connect 74 2 49 0;
#X connect 74 3 4 0;
#X connect 74 3 50 0;
#X connect 74 4 5 0;
#X connect 74 4 51 0;
#X connect 74 5 6 0;
#X connect 74 5 52 0;
#X connect 74 6 7 0;
#X connect 74 6 53 0;
#X connect 74 7 8 0;
#X connect 74 7 54 0;
#X connect 74 8 9 0;
#X connect 74 8 55 0;
#X connect 74 9 10 0;
#X connect 74 9 56 0;
#X connect 74 10 11 0;
#X connect 74 10 57 0;
#X connect 74 11 12 0;
#X connect 74 11 58 0;
#X connect 74 12 13 0;
#X connect 74 12 59 0;
#X connect 74 13 14 0;
#X connect 74 13 60 0;
#X connect 74 14 15 0;
#X connect 74 14 61 0;
#X connect 74 15 16 0;
#X connect 74 15 62 0;
#X connect 75 0 40 0;
