#N canvas 0 0 1009 703 12;
#X obj 186 109 bng 25 250 50 0 empty empty play 30 10 0 8 -258699 -241291
-1;
#X obj 216 132 bng 25 250 50 0 empty empty load 30 10 0 8 -258699 -241291
-1;
#X symbolatom 268 651 50 0 0;
#X obj 186 86 r channel1;
#X obj 99 192 sampleplayer 1;
#X msg 213 166 samples/BD01.WAV;
#X obj 99 220 outlet~;
#X obj 63 27 r sampleinit;
#X floatatom 25 148 5 0 0;
#X text 20 130 length;
#X floatatom 26 171 5 0 0;
#X text 19 189 volume;
#X floatatom 73 148 5 0 0;
#X floatatom 122 148 5 0 0;
#X text 122 128 pitch;
#X text 74 129 start;
#X obj 206 220 s lastload;
#X obj 268 621 r lastload;
#X msg 63 100 1;
#X msg 25 100 440;
#X obj 311 374 bng 25 250 50 0 empty empty play 30 10 0 8 -258699 -241291
-1;
#X obj 341 397 bng 25 250 50 0 empty empty load 30 10 0 8 -258699 -241291
-1;
#X obj 224 485 outlet~;
#X obj 188 292 r sampleinit;
#X floatatom 150 413 5 0 0;
#X text 145 395 length;
#X floatatom 151 436 5 0 0;
#X text 144 454 volume;
#X floatatom 198 413 5 0 0;
#X floatatom 247 413 5 0 0;
#X text 247 393 pitch;
#X text 199 394 start;
#X obj 331 485 s lastload;
#X msg 188 365 1;
#X msg 150 365 440;
#X obj 224 457 sampleplayer 2;
#X obj 311 351 r channel2;
#X obj 521 149 bng 25 250 50 0 empty empty play 30 10 0 8 -258699 -241291
-1;
#X obj 551 172 bng 25 250 50 0 empty empty load 30 10 0 8 -258699 -241291
-1;
#X obj 434 260 outlet~;
#X obj 398 67 r sampleinit;
#X floatatom 360 188 5 0 0;
#X text 355 170 length;
#X floatatom 361 211 5 0 0;
#X text 354 229 volume;
#X floatatom 408 188 5 0 0;
#X floatatom 457 188 5 0 0;
#X text 457 168 pitch;
#X text 409 169 start;
#X obj 541 260 s lastload;
#X msg 398 140 1;
#X msg 360 140 440;
#X obj 434 232 sampleplayer 3;
#X obj 521 126 r channel3;
#X obj 675 386 bng 25 250 50 0 empty empty play 30 10 0 8 -258699 -241291
-1;
#X obj 705 409 bng 25 250 50 0 empty empty load 30 10 0 8 -258699 -241291
-1;
#X obj 588 497 outlet~;
#X obj 552 304 r sampleinit;
#X floatatom 514 425 5 0 0;
#X text 509 407 length;
#X floatatom 515 448 5 0 0;
#X text 508 466 volume;
#X floatatom 562 425 5 0 0;
#X floatatom 611 425 5 0 0;
#X text 611 405 pitch;
#X text 563 406 start;
#X obj 695 497 s lastload;
#X msg 552 377 1;
#X msg 514 377 440;
#X obj 675 363 r channel4;
#X obj 588 469 sampleplayer 4;
#X obj 788 91 bng 25 250 50 0 empty empty play 30 10 0 8 -258699 -241291
-1;
#X obj 818 114 bng 25 250 50 0 empty empty load 30 10 0 8 -258699 -241291
-1;
#X obj 701 202 outlet~;
#X obj 665 9 r sampleinit;
#X floatatom 627 130 5 0 0;
#X text 622 112 length;
#X floatatom 628 153 5 0 0;
#X text 621 171 volume;
#X floatatom 675 130 5 0 0;
#X floatatom 724 130 5 0 0;
#X text 724 110 pitch;
#X text 676 111 start;
#X obj 808 202 s lastload;
#X msg 665 82 1;
#X msg 627 82 440;
#X obj 701 174 sampleplayer 5;
#X obj 788 68 r channel5;
#X msg 100 100 100;
#X msg 435 140 100;
#X msg 589 377 100;
#X msg 225 365 100;
#X msg 702 82 100;
#X msg 338 431 samples/SD01.WAV;
#X msg 548 206 samples/CLHAT1.WAV;
#X msg 702 443 samples/OPHAT1.WAV;
#X msg 815 148 samples/SHAKE1.WAV;
#X text 438 600 pitch is based at 100 as natural playback speed;
#X text 438 617 load samples with bang and copy path into loader message
;
#X connect 0 0 4 4;
#X connect 1 0 4 5;
#X connect 3 0 0 0;
#X connect 4 0 6 0;
#X connect 4 1 16 0;
#X connect 5 0 4 6;
#X connect 7 0 5 0;
#X connect 7 0 19 0;
#X connect 7 0 18 0;
#X connect 7 0 88 0;
#X connect 8 0 4 1;
#X connect 10 0 4 0;
#X connect 12 0 4 2;
#X connect 13 0 4 3;
#X connect 17 0 2 0;
#X connect 18 0 12 0;
#X connect 19 0 8 0;
#X connect 20 0 35 4;
#X connect 21 0 35 5;
#X connect 23 0 93 0;
#X connect 23 0 34 0;
#X connect 23 0 33 0;
#X connect 23 0 91 0;
#X connect 24 0 35 1;
#X connect 26 0 35 0;
#X connect 28 0 35 2;
#X connect 29 0 35 3;
#X connect 33 0 28 0;
#X connect 34 0 24 0;
#X connect 35 0 22 0;
#X connect 35 1 32 0;
#X connect 36 0 20 0;
#X connect 37 0 52 4;
#X connect 38 0 52 5;
#X connect 40 0 94 0;
#X connect 40 0 51 0;
#X connect 40 0 50 0;
#X connect 40 0 89 0;
#X connect 41 0 52 1;
#X connect 43 0 52 0;
#X connect 45 0 52 2;
#X connect 46 0 52 3;
#X connect 50 0 45 0;
#X connect 51 0 41 0;
#X connect 52 0 39 0;
#X connect 52 1 49 0;
#X connect 53 0 37 0;
#X connect 54 0 70 4;
#X connect 55 0 70 5;
#X connect 57 0 68 0;
#X connect 57 0 67 0;
#X connect 57 0 90 0;
#X connect 57 0 95 0;
#X connect 58 0 70 1;
#X connect 60 0 70 0;
#X connect 62 0 70 2;
#X connect 63 0 70 3;
#X connect 67 0 62 0;
#X connect 68 0 58 0;
#X connect 69 0 54 0;
#X connect 70 0 56 0;
#X connect 70 1 66 0;
#X connect 71 0 86 4;
#X connect 72 0 86 5;
#X connect 74 0 96 0;
#X connect 74 0 85 0;
#X connect 74 0 84 0;
#X connect 74 0 92 0;
#X connect 75 0 86 1;
#X connect 77 0 86 0;
#X connect 79 0 86 2;
#X connect 80 0 86 3;
#X connect 84 0 79 0;
#X connect 85 0 75 0;
#X connect 86 0 73 0;
#X connect 86 1 83 0;
#X connect 87 0 71 0;
#X connect 88 0 13 0;
#X connect 89 0 46 0;
#X connect 90 0 63 0;
#X connect 91 0 29 0;
#X connect 92 0 80 0;
#X connect 93 0 35 6;
#X connect 94 0 52 6;
#X connect 95 0 70 6;
#X connect 96 0 86 6;
