#N canvas 9 -2 1009 703 12;
#X obj 6 -29 inlet;
#X obj 52 -29 inlet;
#X obj 99 -29 inlet;
#X obj 146 -29 inlet;
#X obj 192 -29 inlet;
#X obj 239 -28 inlet;
#X obj 286 -28 inlet;
#X obj 333 -29 inlet;
#X obj 381 -30 inlet;
#X obj 428 -27 inlet;
#X obj 480 -27 inlet;
#X obj 526 -27 inlet;
#X obj 573 -27 inlet;
#X obj 618 -27 inlet;
#X obj 666 -27 inlet;
#X obj 714 -28 inlet;
#X msg 6 19 0;
#X obj 429 82 + 0;
#X msg 54 19 1;
#X msg 99 18 2;
#X msg 143 19 3;
#X msg 193 17 4;
#X msg 238 18 5;
#X msg 286 18 6;
#X msg 333 18 7;
#X msg 381 17 8;
#X msg 428 19 9;
#X msg 480 21 10;
#X obj 234 85 + 0;
#X msg 533 21 11;
#X msg 574 21 12;
#X msg 623 19 13;
#X msg 667 17 14;
#X msg 710 13 15;
#X text 152 111 RECORDING;
#X obj 12 476 outlet;
#X msg 41 423 0;
#X msg 462 332 bang;
#X obj 12 423 + 0;
#X obj 65 529 outlet;
#X obj 65 476 + 0;
#X obj 118 582 outlet;
#X obj 118 529 + 0;
#X obj 171 635 outlet;
#X obj 171 582 + 0;
#X obj 228 471 outlet;
#X obj 228 418 + 0;
#X obj 281 524 outlet;
#X obj 281 471 + 0;
#X obj 334 577 outlet;
#X obj 334 524 + 0;
#X obj 387 630 outlet;
#X obj 387 577 + 0;
#X obj 464 463 outlet;
#X obj 464 410 + 0;
#X obj 517 516 outlet;
#X obj 517 463 + 0;
#X obj 570 569 outlet;
#X obj 570 516 + 0;
#X obj 623 622 outlet;
#X obj 623 569 + 0;
#X obj 661 463 outlet;
#X obj 661 410 + 0;
#X obj 714 516 outlet;
#X obj 714 463 + 0;
#X obj 767 569 outlet;
#X obj 767 516 + 0;
#X obj 820 622 outlet;
#X obj 820 569 + 0;
#X msg 94 476 1;
#X msg 147 529 2;
#X msg 200 582 3;
#X msg 257 418 4;
#X msg 310 471 5;
#X msg 363 524 6;
#X msg 416 577 7;
#X msg 493 410 8;
#X msg 545 463 9;
#X msg 599 516 10;
#X msg 652 569 11;
#X msg 690 410 12;
#X msg 743 463 13;
#X msg 796 516 14;
#X msg 849 569 15;
#X obj 794 -25 inlet;
#X text 152 87 note info;
#X text 321 84 step position;
#X obj 562 106 r bar;
#X obj 562 173 * 20;
#X floatatom 562 250 5 0 0;
#X text 683 80 CURRENT INSTRUMENT;
#X obj 562 207 + 0;
#X text 258 209 adjust for current instrument channel;
#X text 226 174 set to pattern start/20 slots per pattern;
#X obj 794 40 * 4000;
#X text 574 63 4000 means 200 bars per instrument;
#X floatatom 794 14 5 0 0;
#X msg 629 88 bang;
#X obj 562 139 int;
#N canvas 0 0 863 652 playback 0;
#X obj 116 8 r beat;
#X floatatom 116 39 5 0 0;
#X obj 18 236 select 0;
#X text 34 9 PLAYBACK;
#X obj 18 187 + 0;
#X obj 554 26 inlet;
#X obj 77 263 s channel1;
#X text 601 27 bar adjuster;
#X obj 175 184 + 0;
#X obj 175 152 + 4000;
#X obj 332 184 + 0;
#X obj 332 151 + 8000;
#X obj 488 183 + 0;
#X obj 488 150 + 12000;
#X obj 175 236 select 0;
#X obj 234 263 s channel2;
#X obj 332 236 select 0;
#X obj 391 263 s channel3;
#X obj 488 236 select 0;
#X obj 547 263 s channel4;
#X obj 644 183 + 0;
#X obj 644 236 select 0;
#X obj 702 262 s channel5;
#X obj 644 151 + 16000;
#X obj 20 411 select 0;
#X obj 177 359 + 0;
#X obj 334 359 + 0;
#X obj 490 358 + 0;
#X obj 177 411 select 0;
#X obj 334 411 select 0;
#X obj 490 411 select 0;
#X obj 646 358 + 0;
#X obj 646 411 select 0;
#X obj 79 438 s channel6;
#X obj 236 438 s channel7;
#X obj 393 438 s channel8;
#X obj 549 438 s channel9;
#X obj 704 437 s channel10;
#X obj 21 358 + 0;
#X obj 21 326 + 20000;
#X obj 177 327 + 24000;
#X obj 334 326 + 28000;
#X obj 490 325 + 32000;
#X obj 646 326 + 36000;
#X obj 18 211 tabread seq;
#X obj 20 386 tabread seq;
#X obj 175 211 tabread seq;
#X obj 177 386 tabread seq;
#X obj 333 211 tabread seq;
#X obj 334 386 tabread seq;
#X obj 488 211 tabread seq;
#X obj 489 386 tabread seq;
#X obj 648 386 tabread seq;
#X obj 644 211 tabread seq;
#X connect 0 0 1 0;
#X connect 1 0 4 0;
#X connect 1 0 9 0;
#X connect 1 0 11 0;
#X connect 1 0 13 0;
#X connect 1 0 23 0;
#X connect 1 0 39 0;
#X connect 1 0 40 0;
#X connect 1 0 41 0;
#X connect 1 0 42 0;
#X connect 1 0 43 0;
#X connect 2 1 6 0;
#X connect 4 0 44 0;
#X connect 5 0 4 1;
#X connect 5 0 8 1;
#X connect 5 0 10 1;
#X connect 5 0 12 1;
#X connect 5 0 20 1;
#X connect 5 0 38 1;
#X connect 5 0 25 1;
#X connect 5 0 26 1;
#X connect 5 0 27 1;
#X connect 5 0 31 1;
#X connect 8 0 46 0;
#X connect 9 0 8 0;
#X connect 10 0 48 0;
#X connect 11 0 10 0;
#X connect 12 0 50 0;
#X connect 13 0 12 0;
#X connect 14 1 15 0;
#X connect 16 1 17 0;
#X connect 18 1 19 0;
#X connect 20 0 53 0;
#X connect 21 1 22 0;
#X connect 23 0 20 0;
#X connect 24 1 33 0;
#X connect 25 0 47 0;
#X connect 26 0 49 0;
#X connect 27 0 51 0;
#X connect 28 1 34 0;
#X connect 29 1 35 0;
#X connect 30 1 36 0;
#X connect 31 0 52 0;
#X connect 32 1 37 0;
#X connect 38 0 45 0;
#X connect 39 0 38 0;
#X connect 40 0 25 0;
#X connect 41 0 26 0;
#X connect 42 0 27 0;
#X connect 43 0 31 0;
#X connect 44 0 2 0;
#X connect 45 0 24 0;
#X connect 46 0 14 0;
#X connect 47 0 28 0;
#X connect 48 0 16 0;
#X connect 49 0 29 0;
#X connect 50 0 18 0;
#X connect 51 0 30 0;
#X connect 52 0 32 0;
#X connect 53 0 21 0;
#X restore 304 307 pd playback;
#X obj 620 116 delay 5;
#X obj 234 112 tabwrite seq;
#X obj 12 449 tabread seq;
#X obj 65 502 tabread seq;
#X obj 118 555 tabread seq;
#X obj 171 608 tabread seq;
#X obj 281 497 tabread seq;
#X obj 228 444 tabread seq;
#X obj 334 550 tabread seq;
#X obj 387 603 tabread seq;
#X obj 464 436 tabread seq;
#X obj 517 489 tabread seq;
#X obj 570 542 tabread seq;
#X obj 623 595 tabread seq;
#X obj 661 436 tabread seq;
#X obj 714 489 tabread seq;
#X obj 767 542 tabread seq;
#X obj 820 595 tabread seq;
#X obj 850 -27 inlet;
#X obj 869 201 * 20;
#X floatatom 869 259 5 0 0;
#X obj 869 230 + 0;
#N canvas 94 91 1009 703 copypaste 0;
#X obj 257 12 inlet;
#X msg 48 125 0;
#X obj 19 125 + 0;
#X obj 19 151 tabread seq;
#X obj 19 182 tabwrite seq;
#X msg 622 50 bang;
#X obj 774 21 delay 5;
#X obj 111 125 r barstart;
#X obj 111 151 + 0;
#X msg 409 43 bang;
#X obj 198 128 + 0;
#X obj 198 154 tabread seq;
#X obj 198 185 tabwrite seq;
#X obj 290 128 r barstart;
#X obj 290 154 + 1;
#X msg 227 128 1;
#X obj 379 128 + 0;
#X obj 379 154 tabread seq;
#X obj 379 185 tabwrite seq;
#X obj 471 128 r barstart;
#X obj 559 128 + 0;
#X obj 559 154 tabread seq;
#X obj 559 185 tabwrite seq;
#X obj 651 128 r barstart;
#X obj 736 129 + 0;
#X obj 736 155 tabread seq;
#X obj 736 186 tabwrite seq;
#X obj 828 129 r barstart;
#X obj 471 154 + 2;
#X msg 408 128 2;
#X msg 590 129 3;
#X obj 651 154 + 3;
#X msg 767 130 4;
#X obj 828 155 + 4;
#X obj 779 65 s redraw;
#X obj 23 256 + 0;
#X obj 23 282 tabread seq;
#X obj 23 313 tabwrite seq;
#X obj 115 256 r barstart;
#X obj 202 259 + 0;
#X obj 202 285 tabread seq;
#X obj 202 316 tabwrite seq;
#X obj 294 259 r barstart;
#X obj 383 259 + 0;
#X obj 383 285 tabread seq;
#X obj 383 316 tabwrite seq;
#X obj 475 259 r barstart;
#X obj 563 259 + 0;
#X obj 563 285 tabread seq;
#X obj 563 316 tabwrite seq;
#X obj 655 259 r barstart;
#X obj 740 260 + 0;
#X obj 740 286 tabread seq;
#X obj 740 317 tabwrite seq;
#X obj 832 260 r barstart;
#X msg 52 256 5;
#X obj 115 282 + 5;
#X msg 231 259 6;
#X obj 294 286 + 6;
#X msg 412 259 7;
#X obj 475 285 + 7;
#X msg 594 260 8;
#X obj 655 285 + 8;
#X msg 771 261 9;
#X obj 832 286 + 9;
#X obj 23 381 tabread seq;
#X obj 23 412 tabwrite seq;
#X obj 115 355 r barstart;
#X obj 202 358 + 0;
#X obj 202 384 tabread seq;
#X obj 202 415 tabwrite seq;
#X obj 294 358 r barstart;
#X obj 383 358 + 0;
#X obj 383 384 tabread seq;
#X obj 383 415 tabwrite seq;
#X obj 475 358 r barstart;
#X obj 563 358 + 0;
#X obj 563 384 tabread seq;
#X obj 563 415 tabwrite seq;
#X obj 655 358 r barstart;
#X obj 740 359 + 0;
#X obj 740 385 tabread seq;
#X obj 740 416 tabwrite seq;
#X obj 832 359 r barstart;
#X obj 23 355 + 0;
#X msg 52 355 10;
#X obj 115 381 + 10;
#X msg 231 358 11;
#X obj 294 385 + 11;
#X msg 412 358 12;
#X obj 475 384 + 12;
#X msg 594 359 13;
#X obj 655 384 + 13;
#X msg 771 360 14;
#X obj 832 385 + 14;
#X obj 499 498 + 0;
#X obj 499 524 tabread seq;
#X obj 499 555 tabwrite seq;
#X obj 591 498 r barstart;
#X msg 530 499 15;
#X obj 591 524 + 15;
#X connect 0 0 2 1;
#X connect 0 0 9 0;
#X connect 0 0 10 1;
#X connect 0 0 16 1;
#X connect 0 0 20 1;
#X connect 0 0 24 1;
#X connect 0 0 35 1;
#X connect 0 0 39 1;
#X connect 0 0 43 1;
#X connect 0 0 47 1;
#X connect 0 0 51 1;
#X connect 0 0 84 1;
#X connect 0 0 68 1;
#X connect 0 0 72 1;
#X connect 0 0 76 1;
#X connect 0 0 80 1;
#X connect 0 0 95 1;
#X connect 1 0 2 0;
#X connect 2 0 3 0;
#X connect 3 0 4 0;
#X connect 5 0 1 0;
#X connect 5 0 6 0;
#X connect 5 0 15 0;
#X connect 5 0 29 0;
#X connect 5 0 30 0;
#X connect 5 0 32 0;
#X connect 5 0 55 0;
#X connect 5 0 57 0;
#X connect 5 0 59 0;
#X connect 5 0 61 0;
#X connect 5 0 63 0;
#X connect 5 0 85 0;
#X connect 5 0 87 0;
#X connect 5 0 89 0;
#X connect 5 0 91 0;
#X connect 5 0 93 0;
#X connect 5 0 99 0;
#X connect 6 0 34 0;
#X connect 7 0 8 0;
#X connect 8 0 4 1;
#X connect 9 0 5 0;
#X connect 10 0 11 0;
#X connect 11 0 12 0;
#X connect 13 0 14 0;
#X connect 14 0 12 1;
#X connect 15 0 10 0;
#X connect 16 0 17 0;
#X connect 17 0 18 0;
#X connect 19 0 28 0;
#X connect 20 0 21 0;
#X connect 21 0 22 0;
#X connect 23 0 31 0;
#X connect 24 0 25 0;
#X connect 25 0 26 0;
#X connect 27 0 33 0;
#X connect 28 0 18 1;
#X connect 29 0 16 0;
#X connect 30 0 20 0;
#X connect 31 0 22 1;
#X connect 32 0 24 0;
#X connect 33 0 26 1;
#X connect 35 0 36 0;
#X connect 36 0 37 0;
#X connect 38 0 56 0;
#X connect 39 0 40 0;
#X connect 40 0 41 0;
#X connect 42 0 58 0;
#X connect 43 0 44 0;
#X connect 44 0 45 0;
#X connect 46 0 60 0;
#X connect 47 0 48 0;
#X connect 48 0 49 0;
#X connect 50 0 62 0;
#X connect 51 0 52 0;
#X connect 52 0 53 0;
#X connect 54 0 64 0;
#X connect 55 0 35 0;
#X connect 56 0 37 1;
#X connect 57 0 39 0;
#X connect 58 0 41 1;
#X connect 59 0 43 0;
#X connect 60 0 45 1;
#X connect 61 0 47 0;
#X connect 62 0 49 1;
#X connect 63 0 51 0;
#X connect 64 0 53 1;
#X connect 65 0 66 0;
#X connect 67 0 86 0;
#X connect 68 0 69 0;
#X connect 69 0 70 0;
#X connect 71 0 88 0;
#X connect 72 0 73 0;
#X connect 73 0 74 0;
#X connect 75 0 90 0;
#X connect 76 0 77 0;
#X connect 77 0 78 0;
#X connect 79 0 92 0;
#X connect 80 0 81 0;
#X connect 81 0 82 0;
#X connect 83 0 94 0;
#X connect 84 0 65 0;
#X connect 85 0 84 0;
#X connect 86 0 66 1;
#X connect 87 0 68 0;
#X connect 88 0 70 1;
#X connect 89 0 72 0;
#X connect 90 0 74 1;
#X connect 91 0 76 0;
#X connect 92 0 78 1;
#X connect 93 0 80 0;
#X connect 94 0 82 1;
#X connect 95 0 96 0;
#X connect 96 0 97 0;
#X connect 98 0 100 0;
#X connect 99 0 95 0;
#X connect 100 0 97 1;
#X restore 850 314 pd copypaste;
#X text 505 332 write out values to screen;
#X obj 31 398 r barstart;
#X obj 562 287 s barstart;
#X obj 105 449 r barstart;
#X obj 158 502 r barstart;
#X obj 211 554 r barstart;
#X obj 246 391 r barstart;
#X obj 321 444 r barstart;
#X obj 375 496 r barstart;
#X obj 427 549 r barstart;
#X obj 483 385 r barstart;
#X obj 557 435 r barstart;
#X obj 611 489 r barstart;
#X obj 665 541 r barstart;
#X obj 680 385 r barstart;
#X obj 754 436 r barstart;
#X obj 809 488 r barstart;
#X obj 860 543 r barstart;
#X msg 462 305 bang;
#X obj 445 257 r redraw;
#X obj 869 173 int;
#X obj 889 148 r bar;
#X obj 869 116 r copybar;
#X text 856 94 generate copy point;
#X obj 850 286 int;
#X connect 0 0 16 0;
#X connect 0 0 28 0;
#X connect 1 0 18 0;
#X connect 1 0 28 0;
#X connect 2 0 19 0;
#X connect 2 0 28 0;
#X connect 3 0 20 0;
#X connect 3 0 28 0;
#X connect 4 0 21 0;
#X connect 4 0 28 0;
#X connect 5 0 22 0;
#X connect 5 0 28 0;
#X connect 6 0 23 0;
#X connect 6 0 28 0;
#X connect 7 0 24 0;
#X connect 7 0 28 0;
#X connect 8 0 25 0;
#X connect 8 0 28 0;
#X connect 9 0 26 0;
#X connect 9 0 28 0;
#X connect 10 0 27 0;
#X connect 10 0 28 0;
#X connect 11 0 29 0;
#X connect 11 0 28 0;
#X connect 12 0 30 0;
#X connect 12 0 28 0;
#X connect 13 0 31 0;
#X connect 13 0 28 0;
#X connect 14 0 32 0;
#X connect 14 0 28 0;
#X connect 15 0 33 0;
#X connect 15 0 28 0;
#X connect 16 0 17 0;
#X connect 17 0 101 1;
#X connect 18 0 17 0;
#X connect 19 0 17 0;
#X connect 20 0 17 0;
#X connect 21 0 17 0;
#X connect 22 0 17 0;
#X connect 23 0 17 0;
#X connect 24 0 17 0;
#X connect 25 0 17 0;
#X connect 26 0 17 0;
#X connect 27 0 17 0;
#X connect 28 0 101 0;
#X connect 29 0 17 0;
#X connect 30 0 17 0;
#X connect 31 0 17 0;
#X connect 32 0 17 0;
#X connect 33 0 17 0;
#X connect 36 0 38 0;
#X connect 36 0 69 0;
#X connect 37 0 36 0;
#X connect 37 0 72 0;
#X connect 37 0 76 0;
#X connect 37 0 80 0;
#X connect 38 0 102 0;
#X connect 40 0 103 0;
#X connect 42 0 104 0;
#X connect 44 0 105 0;
#X connect 46 0 107 0;
#X connect 48 0 106 0;
#X connect 50 0 108 0;
#X connect 52 0 109 0;
#X connect 54 0 110 0;
#X connect 56 0 111 0;
#X connect 58 0 112 0;
#X connect 60 0 113 0;
#X connect 62 0 114 0;
#X connect 64 0 115 0;
#X connect 66 0 116 0;
#X connect 68 0 117 0;
#X connect 69 0 40 0;
#X connect 69 0 70 0;
#X connect 70 0 42 0;
#X connect 70 0 71 0;
#X connect 71 0 44 0;
#X connect 72 0 46 0;
#X connect 72 0 73 0;
#X connect 73 0 48 0;
#X connect 73 0 74 0;
#X connect 74 0 50 0;
#X connect 74 0 75 0;
#X connect 75 0 52 0;
#X connect 76 0 54 0;
#X connect 76 0 77 0;
#X connect 77 0 56 0;
#X connect 77 0 78 0;
#X connect 78 0 58 0;
#X connect 78 0 79 0;
#X connect 79 0 60 0;
#X connect 80 0 62 0;
#X connect 80 0 81 0;
#X connect 81 0 64 0;
#X connect 81 0 82 0;
#X connect 82 0 66 0;
#X connect 82 0 83 0;
#X connect 83 0 68 0;
#X connect 84 0 96 0;
#X connect 87 0 98 0;
#X connect 88 0 91 0;
#X connect 88 0 99 0;
#X connect 89 0 17 1;
#X connect 89 0 125 0;
#X connect 89 0 141 0;
#X connect 91 0 89 0;
#X connect 94 0 97 0;
#X connect 94 0 91 1;
#X connect 94 0 121 1;
#X connect 96 0 94 0;
#X connect 97 0 100 0;
#X connect 98 0 88 0;
#X connect 100 0 98 0;
#X connect 102 0 35 0;
#X connect 103 0 39 0;
#X connect 104 0 41 0;
#X connect 105 0 43 0;
#X connect 106 0 47 0;
#X connect 107 0 45 0;
#X connect 108 0 49 0;
#X connect 109 0 51 0;
#X connect 110 0 53 0;
#X connect 111 0 55 0;
#X connect 112 0 57 0;
#X connect 113 0 59 0;
#X connect 114 0 61 0;
#X connect 115 0 63 0;
#X connect 116 0 65 0;
#X connect 117 0 67 0;
#X connect 118 0 147 0;
#X connect 119 0 121 0;
#X connect 120 0 147 1;
#X connect 121 0 120 0;
#X connect 124 0 38 1;
#X connect 126 0 40 1;
#X connect 127 0 42 1;
#X connect 128 0 44 1;
#X connect 129 0 46 1;
#X connect 130 0 48 1;
#X connect 131 0 50 1;
#X connect 132 0 52 1;
#X connect 133 0 54 1;
#X connect 134 0 56 1;
#X connect 135 0 58 1;
#X connect 136 0 60 1;
#X connect 137 0 62 1;
#X connect 138 0 64 1;
#X connect 139 0 66 1;
#X connect 140 0 68 1;
#X connect 141 0 37 0;
#X connect 142 0 141 0;
#X connect 143 0 119 0;
#X connect 144 0 143 1;
#X connect 145 0 143 0;
#X connect 147 0 122 0;
