#N canvas 16 55 1226 862 10;
#X obj 517 567 soundoutput;
#N canvas 0 27 991 631 seq1 0;
#X obj 5 -45 inlet;
#X obj 289 412 outlet;
#X obj 5 201 select 0 1 2 3 4 5 6 7 8 9 10 11 12 13 14 15;
#X floatatom 225 135 3 0 128 0 - - -;
#X obj 11 61 mod 16;
#X floatatom 250 135 3 0 128 0 - - -;
#X floatatom 275 135 3 0 128 0 - - -;
#X floatatom 300 135 3 0 128 0 - - -;
#X floatatom 328 135 3 0 128 0 - - -;
#X floatatom 353 135 3 0 128 0 - - -;
#X floatatom 378 135 3 0 128 0 - - -;
#X floatatom 403 135 3 0 128 0 - - -;
#X floatatom 431 135 3 0 128 0 - - -;
#X floatatom 456 135 3 0 128 0 - - -;
#X floatatom 481 135 3 0 128 0 - - -;
#X floatatom 506 135 3 0 128 0 - - -;
#X floatatom 534 135 3 0 128 0 - - -;
#X floatatom 559 135 3 0 128 0 - - -;
#X floatatom 584 135 3 0 128 0 - - -;
#X floatatom 609 135 3 0 128 0 - - -;
#X obj -16 273 int;
#X obj 13 272 int;
#X obj 74 271 int;
#X obj 44 270 int;
#X obj 106 273 int;
#X obj 135 272 int;
#X obj 196 271 int;
#X obj 166 270 int;
#X obj 231 270 int;
#X obj 260 269 int;
#X obj 321 268 int;
#X obj 291 267 int;
#X obj 353 270 int;
#X obj 382 269 int;
#X obj 443 268 int;
#X obj 413 267 int;
#X obj 127 -3 + 11;
#X obj 221 -63 inlet;
#X obj 221 -34 random 6;
#X text 266 -65 len-randomize;
#X obj 331 28 pack f f;
#X obj 247 71 route 0 1 2 3 4 5 6 7 8 9 10 11 12 13 14 15;
#X obj 380 -73 inlet;
#X obj 647 -72 inlet;
#X msg 638 -49 0;
#X text 691 -72 clear;
#X obj 746 266 outlet;
#X text 424 -73 step set;
#X obj 335 -8 int;
#X obj 360 -47 t b f;
#X obj 288 372 / 128;
#X connect 0 0 4 0;
#X connect 2 0 20 0;
#X connect 2 1 21 0;
#X connect 2 2 23 0;
#X connect 2 3 22 0;
#X connect 2 4 24 0;
#X connect 2 5 25 0;
#X connect 2 6 27 0;
#X connect 2 7 26 0;
#X connect 2 8 28 0;
#X connect 2 9 29 0;
#X connect 2 10 31 0;
#X connect 2 11 30 0;
#X connect 2 12 32 0;
#X connect 2 13 33 0;
#X connect 2 14 35 0;
#X connect 2 15 34 0;
#X connect 3 0 20 1;
#X connect 4 0 2 0;
#X connect 4 0 48 1;
#X connect 5 0 21 1;
#X connect 6 0 23 1;
#X connect 7 0 22 1;
#X connect 8 0 24 1;
#X connect 9 0 25 1;
#X connect 10 0 27 1;
#X connect 11 0 26 1;
#X connect 12 0 28 1;
#X connect 13 0 29 1;
#X connect 14 0 31 1;
#X connect 15 0 30 1;
#X connect 16 0 32 1;
#X connect 17 0 33 1;
#X connect 18 0 35 1;
#X connect 19 0 34 1;
#X connect 20 0 50 0;
#X connect 21 0 50 0;
#X connect 22 0 50 0;
#X connect 23 0 50 0;
#X connect 24 0 50 0;
#X connect 25 0 50 0;
#X connect 26 0 50 0;
#X connect 27 0 50 0;
#X connect 28 0 50 0;
#X connect 29 0 50 0;
#X connect 30 0 50 0;
#X connect 31 0 50 0;
#X connect 32 0 50 0;
#X connect 33 0 50 0;
#X connect 34 0 50 0;
#X connect 35 0 50 0;
#X connect 36 0 4 1;
#X connect 36 0 46 0;
#X connect 37 0 38 0;
#X connect 38 0 36 0;
#X connect 40 0 41 0;
#X connect 41 0 3 0;
#X connect 41 1 5 0;
#X connect 41 2 6 0;
#X connect 41 3 7 0;
#X connect 41 4 8 0;
#X connect 41 5 9 0;
#X connect 41 6 10 0;
#X connect 41 7 11 0;
#X connect 41 8 12 0;
#X connect 41 9 13 0;
#X connect 41 10 14 0;
#X connect 41 11 15 0;
#X connect 41 12 16 0;
#X connect 41 13 17 0;
#X connect 41 14 18 0;
#X connect 41 15 19 0;
#X connect 42 0 49 0;
#X connect 43 0 44 0;
#X connect 44 0 3 0;
#X connect 44 0 5 0;
#X connect 44 0 6 0;
#X connect 44 0 7 0;
#X connect 44 0 8 0;
#X connect 44 0 9 0;
#X connect 44 0 10 0;
#X connect 44 0 11 0;
#X connect 44 0 12 0;
#X connect 44 0 13 0;
#X connect 44 0 14 0;
#X connect 44 0 15 0;
#X connect 44 0 16 0;
#X connect 44 0 17 0;
#X connect 44 0 18 0;
#X connect 44 0 19 0;
#X connect 48 0 40 0;
#X connect 49 0 48 0;
#X connect 49 1 40 1;
#X connect 49 1 50 0;
#X connect 50 0 1 0;
#X coords 0 0 1 1 410 40 0;
#X restore 15 -169 pd seq1;
#X msg 88 -471 bang;
#X obj 423 -451 r #accelerate;
#X obj 423 -422 unpack 0 0 0;
#N canvas 161 73 739 534 speedchangedetect 0;
#X obj 153 -521 t f b;
#X obj 154 -442 -;
#X obj 181 -469 float;
#X obj 140 -345 > 0.1;
#X obj 142 -315 moses 0.1;
#X obj 146 -410 abs;
#X obj 213 -160 outlet;
#X obj 150 -559 inlet;
#X text 204 -502 speed;
#X text 196 -558 <- events;
#X obj 274 -481 inlet;
#X text 315 -480 <-threshhold 0..1;
#X obj 218 -284 *;
#X obj 143 -386 t f f;
#X obj 220 -201 clip 0 127;
#X obj 220 -242 * 100;
#X connect 0 0 1 0;
#X connect 0 0 2 1;
#X connect 0 1 2 0;
#X connect 1 0 5 0;
#X connect 2 0 1 1;
#X connect 3 0 4 0;
#X connect 4 1 12 0;
#X connect 5 0 13 0;
#X connect 7 0 0 0;
#X connect 10 0 3 1;
#X connect 12 0 15 0;
#X connect 13 0 3 0;
#X connect 13 1 12 1;
#X connect 14 0 6 0;
#X connect 15 0 14 0;
#X restore 324 -286 pd speedchangedetect;
#X obj -4 -367 t b b;
#N canvas 161 73 739 534 speedchangedetect 0;
#X obj 153 -521 t f b;
#X obj 154 -442 -;
#X obj 181 -469 float;
#X obj 140 -345 > 0.1;
#X obj 142 -315 moses 0.1;
#X obj 146 -410 abs;
#X obj 213 -160 outlet;
#X obj 150 -559 inlet;
#X text 204 -502 speed;
#X text 196 -558 <- events;
#X obj 274 -481 inlet;
#X text 315 -480 <-threshhold 0..1;
#X obj 218 -284 *;
#X obj 143 -386 t f f;
#X obj 220 -201 clip 0 127;
#X obj 220 -242 * 100;
#X connect 0 0 1 0;
#X connect 0 0 2 1;
#X connect 0 1 2 0;
#X connect 1 0 5 0;
#X connect 2 0 1 1;
#X connect 3 0 4 0;
#X connect 4 1 12 0;
#X connect 5 0 13 0;
#X connect 7 0 0 0;
#X connect 10 0 3 1;
#X connect 12 0 15 0;
#X connect 13 0 3 0;
#X connect 13 1 12 1;
#X connect 14 0 6 0;
#X connect 15 0 14 0;
#X restore 622 -248 pd speedchangedetect;
#N canvas 0 27 991 631 seq2 0;
#X obj 5 -45 inlet;
#X obj 289 412 outlet;
#X obj 5 201 select 0 1 2 3 4 5 6 7 8 9 10 11 12 13 14 15;
#X floatatom 225 135 3 0 128 0 - - -;
#X obj 11 61 mod 16;
#X floatatom 250 135 3 0 128 0 - - -;
#X floatatom 275 135 3 0 128 0 - - -;
#X floatatom 300 135 3 0 128 0 - - -;
#X floatatom 328 135 3 0 128 0 - - -;
#X floatatom 353 135 3 0 128 0 - - -;
#X floatatom 378 135 3 0 128 0 - - -;
#X floatatom 403 135 3 0 128 0 - - -;
#X floatatom 431 135 3 0 128 0 - - -;
#X floatatom 456 135 3 0 128 0 - - -;
#X floatatom 481 135 3 0 128 0 - - -;
#X floatatom 506 135 3 0 128 0 - - -;
#X floatatom 534 135 3 0 128 0 - - -;
#X floatatom 559 135 3 0 128 0 - - -;
#X floatatom 584 135 3 0 128 0 - - -;
#X floatatom 609 135 3 0 128 0 - - -;
#X obj -16 273 int;
#X obj 13 272 int;
#X obj 74 271 int;
#X obj 44 270 int;
#X obj 106 273 int;
#X obj 135 272 int;
#X obj 196 271 int;
#X obj 166 270 int;
#X obj 231 270 int;
#X obj 260 269 int;
#X obj 321 268 int;
#X obj 291 267 int;
#X obj 353 270 int;
#X obj 382 269 int;
#X obj 443 268 int;
#X obj 413 267 int;
#X obj 127 -3 + 11;
#X obj 221 -63 inlet;
#X obj 221 -34 random 6;
#X text 266 -65 len-randomize;
#X obj 331 28 pack f f;
#X obj 247 71 route 0 1 2 3 4 5 6 7 8 9 10 11 12 13 14 15;
#X obj 380 -73 inlet;
#X obj 567 -74 inlet;
#X msg 638 -49 0;
#X text 611 -74 clear;
#X obj 750 342 outlet;
#X text 424 -73 step set;
#X obj 335 -8 int;
#X obj 360 -47 t b f;
#X obj 288 372 / 128;
#X connect 0 0 4 0;
#X connect 2 0 20 0;
#X connect 2 1 21 0;
#X connect 2 2 23 0;
#X connect 2 3 22 0;
#X connect 2 4 24 0;
#X connect 2 5 25 0;
#X connect 2 6 27 0;
#X connect 2 7 26 0;
#X connect 2 8 28 0;
#X connect 2 9 29 0;
#X connect 2 10 31 0;
#X connect 2 11 30 0;
#X connect 2 12 32 0;
#X connect 2 13 33 0;
#X connect 2 14 35 0;
#X connect 2 15 34 0;
#X connect 3 0 20 1;
#X connect 4 0 2 0;
#X connect 4 0 48 1;
#X connect 5 0 21 1;
#X connect 6 0 23 1;
#X connect 7 0 22 1;
#X connect 8 0 24 1;
#X connect 9 0 25 1;
#X connect 10 0 27 1;
#X connect 11 0 26 1;
#X connect 12 0 28 1;
#X connect 13 0 29 1;
#X connect 14 0 31 1;
#X connect 15 0 30 1;
#X connect 16 0 32 1;
#X connect 17 0 33 1;
#X connect 18 0 35 1;
#X connect 19 0 34 1;
#X connect 20 0 50 0;
#X connect 21 0 50 0;
#X connect 22 0 50 0;
#X connect 23 0 50 0;
#X connect 24 0 50 0;
#X connect 25 0 50 0;
#X connect 26 0 50 0;
#X connect 27 0 50 0;
#X connect 28 0 50 0;
#X connect 29 0 50 0;
#X connect 30 0 50 0;
#X connect 31 0 50 0;
#X connect 32 0 50 0;
#X connect 33 0 50 0;
#X connect 34 0 50 0;
#X connect 35 0 50 0;
#X connect 36 0 4 1;
#X connect 36 0 46 0;
#X connect 37 0 38 0;
#X connect 38 0 36 0;
#X connect 40 0 41 0;
#X connect 41 0 3 0;
#X connect 41 1 5 0;
#X connect 41 2 6 0;
#X connect 41 3 7 0;
#X connect 41 4 8 0;
#X connect 41 5 9 0;
#X connect 41 6 10 0;
#X connect 41 7 11 0;
#X connect 41 8 12 0;
#X connect 41 9 13 0;
#X connect 41 10 14 0;
#X connect 41 11 15 0;
#X connect 41 12 16 0;
#X connect 41 13 17 0;
#X connect 41 14 18 0;
#X connect 41 15 19 0;
#X connect 42 0 49 0;
#X connect 43 0 44 0;
#X connect 44 0 3 0;
#X connect 44 0 5 0;
#X connect 44 0 6 0;
#X connect 44 0 7 0;
#X connect 44 0 8 0;
#X connect 44 0 9 0;
#X connect 44 0 10 0;
#X connect 44 0 11 0;
#X connect 44 0 12 0;
#X connect 44 0 13 0;
#X connect 44 0 14 0;
#X connect 44 0 15 0;
#X connect 44 0 16 0;
#X connect 44 0 17 0;
#X connect 44 0 18 0;
#X connect 44 0 19 0;
#X connect 48 0 40 0;
#X connect 49 0 48 0;
#X connect 49 1 40 1;
#X connect 49 1 50 0;
#X connect 50 0 1 0;
#X coords 0 0 1 1 410 40 0;
#X restore 499 -197 pd seq2;
#N canvas 161 73 739 534 speedchangedetect 0;
#X obj 153 -521 t f b;
#X obj 154 -442 -;
#X obj 181 -469 float;
#X obj 140 -345 > 0.1;
#X obj 142 -315 moses 0.1;
#X obj 146 -410 abs;
#X obj 213 -160 outlet;
#X obj 150 -559 inlet;
#X text 204 -502 speed;
#X text 196 -558 <- events;
#X obj 274 -481 inlet;
#X text 315 -480 <-threshhold 0..1;
#X obj 218 -284 *;
#X obj 143 -386 t f f;
#X obj 220 -201 clip 0 127;
#X obj 220 -242 * 100;
#X connect 0 0 1 0;
#X connect 0 0 2 1;
#X connect 0 1 2 0;
#X connect 1 0 5 0;
#X connect 2 0 1 1;
#X connect 3 0 4 0;
#X connect 4 1 12 0;
#X connect 5 0 13 0;
#X connect 7 0 0 0;
#X connect 10 0 3 1;
#X connect 12 0 15 0;
#X connect 13 0 3 0;
#X connect 13 1 12 1;
#X connect 14 0 6 0;
#X connect 15 0 14 0;
#X restore 998 -236 pd speedchangedetect;
#N canvas 139 0 885 632 fmdrum1 0;
#X obj 185 542 *~;
#X obj 162 213 *~;
#X obj 140 420 osc~;
#X msg 233 138 1;
#X obj 233 408 *~;
#X obj 174 -86 inlet;
#X text 350 695 <- to fm bus;
#X text 99 233 quadratic pitch/amp env;
#X obj 288 227 *~;
#X msg 357 141 1;
#X text 298 251 amp env;
#X obj 150 669 outlet~;
#X obj 291 692 outlet~;
#X obj 185 183 vline~;
#X obj 310 195 vline~;
#X obj 161 -1 t f b b;
#X obj 299 54 t b b;
#X obj -27 56 moses 0.001;
#X obj 271 596 *~ 0.9;
#X obj 141 489 clip~ -1 1;
#X obj 141 461 *~ 3;
#X obj 144 385 +~ 55;
#X text 70 369 pitch;
#X obj 145 338 *~ 110;
#X text 197 337 pitch mod;
#X msg 171 137 0 67;
#X msg 297 141 0 151;
#X text 180 109 attack;
#X text 310 117 decay;
#X text 43 472 clipped sine;
#X obj 48 -93 inlet;
#X obj 40 7 random 20;
#X obj 48 312 + 40;
#X msg 371 73 set 0 \$1;
#X obj 372 -24 random 100;
#X obj 371 11 + 60;
#X connect 0 0 18 0;
#X connect 0 0 11 0;
#X connect 1 0 23 0;
#X connect 2 0 20 0;
#X connect 3 0 13 0;
#X connect 4 0 0 1;
#X connect 5 0 15 0;
#X connect 5 0 16 0;
#X connect 8 0 4 1;
#X connect 9 0 14 0;
#X connect 13 0 1 1;
#X connect 13 0 1 0;
#X connect 14 0 8 1;
#X connect 14 0 8 0;
#X connect 15 0 17 0;
#X connect 15 1 25 0;
#X connect 15 2 3 0;
#X connect 16 0 26 0;
#X connect 16 1 9 0;
#X connect 17 1 4 0;
#X connect 18 0 12 0;
#X connect 19 0 0 0;
#X connect 20 0 19 0;
#X connect 21 0 2 0;
#X connect 23 0 21 0;
#X connect 25 0 13 0;
#X connect 26 0 14 0;
#X connect 30 0 31 0;
#X connect 30 0 34 0;
#X connect 31 0 32 0;
#X connect 32 0 21 1;
#X connect 33 0 26 0;
#X connect 34 0 35 0;
#X connect 35 0 33 0;
#X coords 0 0 1 1 150 110 0;
#X restore 60 -91 pd fmdrum1;
#X obj 9 -140 moses 0.01;
#X obj 499 -171 moses 0.01;
#N canvas 0 27 991 631 seq3 0;
#X obj 5 -45 inlet;
#X obj 289 412 outlet;
#X obj 5 201 select 0 1 2 3 4 5 6 7 8 9 10 11 12 13 14 15;
#X floatatom 225 135 3 0 128 0 - - -;
#X obj 11 61 mod 16;
#X floatatom 250 135 3 0 128 0 - - -;
#X floatatom 275 135 3 0 128 0 - - -;
#X floatatom 300 135 3 0 128 0 - - -;
#X floatatom 328 135 3 0 128 0 - - -;
#X floatatom 353 135 3 0 128 0 - - -;
#X floatatom 378 135 3 0 128 0 - - -;
#X floatatom 403 135 3 0 128 0 - - -;
#X floatatom 431 135 3 0 128 0 - - -;
#X floatatom 456 135 3 0 128 0 - - -;
#X floatatom 481 135 3 0 128 0 - - -;
#X floatatom 506 135 3 0 128 0 - - -;
#X floatatom 534 135 3 0 128 0 - - -;
#X floatatom 559 135 3 0 128 0 - - -;
#X floatatom 584 135 3 0 128 0 - - -;
#X floatatom 609 135 3 0 128 0 - - -;
#X obj -16 273 int;
#X obj 13 272 int;
#X obj 74 271 int;
#X obj 44 270 int;
#X obj 106 273 int;
#X obj 135 272 int;
#X obj 196 271 int;
#X obj 166 270 int;
#X obj 231 270 int;
#X obj 260 269 int;
#X obj 321 268 int;
#X obj 291 267 int;
#X obj 353 270 int;
#X obj 382 269 int;
#X obj 443 268 int;
#X obj 413 267 int;
#X obj 127 -3 + 11;
#X obj 221 -63 inlet;
#X obj 221 -34 random 6;
#X text 266 -65 len-randomize;
#X obj 331 28 pack f f;
#X obj 247 71 route 0 1 2 3 4 5 6 7 8 9 10 11 12 13 14 15;
#X obj 380 -73 inlet;
#X obj 567 -74 inlet;
#X msg 638 -49 0;
#X text 611 -74 clear;
#X obj 667 298 outlet;
#X text 424 -73 step set;
#X obj 335 -8 int;
#X obj 360 -47 t b f;
#X obj 288 372 / 128;
#X connect 0 0 4 0;
#X connect 2 0 20 0;
#X connect 2 1 21 0;
#X connect 2 2 23 0;
#X connect 2 3 22 0;
#X connect 2 4 24 0;
#X connect 2 5 25 0;
#X connect 2 6 27 0;
#X connect 2 7 26 0;
#X connect 2 8 28 0;
#X connect 2 9 29 0;
#X connect 2 10 31 0;
#X connect 2 11 30 0;
#X connect 2 12 32 0;
#X connect 2 13 33 0;
#X connect 2 14 35 0;
#X connect 2 15 34 0;
#X connect 3 0 20 1;
#X connect 4 0 2 0;
#X connect 4 0 48 1;
#X connect 5 0 21 1;
#X connect 6 0 23 1;
#X connect 7 0 22 1;
#X connect 8 0 24 1;
#X connect 9 0 25 1;
#X connect 10 0 27 1;
#X connect 11 0 26 1;
#X connect 12 0 28 1;
#X connect 13 0 29 1;
#X connect 14 0 31 1;
#X connect 15 0 30 1;
#X connect 16 0 32 1;
#X connect 17 0 33 1;
#X connect 18 0 35 1;
#X connect 19 0 34 1;
#X connect 20 0 50 0;
#X connect 21 0 50 0;
#X connect 22 0 50 0;
#X connect 23 0 50 0;
#X connect 24 0 50 0;
#X connect 25 0 50 0;
#X connect 26 0 50 0;
#X connect 27 0 50 0;
#X connect 28 0 50 0;
#X connect 29 0 50 0;
#X connect 30 0 50 0;
#X connect 31 0 50 0;
#X connect 32 0 50 0;
#X connect 33 0 50 0;
#X connect 34 0 50 0;
#X connect 35 0 50 0;
#X connect 36 0 4 1;
#X connect 36 0 46 0;
#X connect 37 0 38 0;
#X connect 38 0 36 0;
#X connect 40 0 41 0;
#X connect 41 0 3 0;
#X connect 41 1 5 0;
#X connect 41 2 6 0;
#X connect 41 3 7 0;
#X connect 41 4 8 0;
#X connect 41 5 9 0;
#X connect 41 6 10 0;
#X connect 41 7 11 0;
#X connect 41 8 12 0;
#X connect 41 9 13 0;
#X connect 41 10 14 0;
#X connect 41 11 15 0;
#X connect 41 12 16 0;
#X connect 41 13 17 0;
#X connect 41 14 18 0;
#X connect 41 15 19 0;
#X connect 42 0 49 0;
#X connect 43 0 44 0;
#X connect 44 0 3 0;
#X connect 44 0 5 0;
#X connect 44 0 6 0;
#X connect 44 0 7 0;
#X connect 44 0 8 0;
#X connect 44 0 9 0;
#X connect 44 0 10 0;
#X connect 44 0 11 0;
#X connect 44 0 12 0;
#X connect 44 0 13 0;
#X connect 44 0 14 0;
#X connect 44 0 15 0;
#X connect 44 0 16 0;
#X connect 44 0 17 0;
#X connect 44 0 18 0;
#X connect 44 0 19 0;
#X connect 48 0 40 0;
#X connect 49 0 48 0;
#X connect 49 1 40 1;
#X connect 49 1 50 0;
#X connect 50 0 1 0;
#X coords 0 0 1 1 410 40 0;
#X restore 885 -173 pd seq3;
#X obj 857 -138 moses 0.01;
#X msg 598 119 bang;
#X obj 551 -53 +;
#X obj 540 7 int;
#X obj 550 -24 t b f;
#X msg 553 -79 1;
#X msg 488 15 0;
#X obj 538 94 moses 0.1;
#X obj 540 72 change;
#N canvas 0 0 505 422 envfollow 0;
#X obj 99 181 inlet~;
#X obj 106 314 clip~ 0 1;
#X obj 108 351 outlet~;
#X text 168 259 cutoff controls speed;
#X text 183 229 simple env follower(ish);
#X obj 96 223 *~;
#X obj 103 280 *~ 7;
#X obj 99 251 lop~ 2;
#X connect 0 0 5 0;
#X connect 0 0 5 1;
#X connect 1 0 2 0;
#X connect 5 0 7 0;
#X connect 6 0 1 0;
#X connect 7 0 6 0;
#X restore 539 322 pd envfollow;
#X obj 540 350 *~ 1000;
#X obj 516 379 vcf~ 5;
#N canvas 215 109 809 633 mod-delay1 0;
#X obj 94 269 inlet~;
#X obj 166 699 outlet~;
#X obj 5 419 +~;
#X obj 166 669 +~;
#X text 38 495 <- unique name for delayline! ->;
#X obj 150 357 clip~ 1 2000;
#X obj 148 298 +~;
#X obj 325 -17 inlet;
#X floatatom 256 47 5 0 0 0 - - -;
#X obj 286 93 pow -1;
#X obj 286 116 / 4;
#X obj 300 160 * 60000;
#X text 366 -16 <- bpm in;
#X obj 148 326 -~;
#X obj -141 498 delwrite~ \$0mddll1 2000;
#X obj 272 494 vd~ \$0mddll1;
#X obj 145 145 osc~ 1.67;
#X obj 145 173 *~ 35;
#X obj 340 223 * -0.06;
#X obj 131 451 *~ 0.44;
#X text 192 451 fb;
#X obj 116 631 *~ 0.8;
#X obj 223 629 *~ 0.2;
#X text 281 632 wet;
#X text 169 634 dry;
#X obj 299 139 * 3;
#X obj 348 196 / 3;
#X text 377 198 1/16 steps;
#X text 347 136 1/16 steps;
#X text 401 228 fine;
#X text 141 123 lfo;
#X obj 379 65 random 4;
#X obj 383 92 + 1;
#X obj 355 21 t f b;
#X connect 0 0 2 0;
#X connect 0 0 21 0;
#X connect 2 0 14 0;
#X connect 3 0 1 0;
#X connect 5 0 15 0;
#X connect 6 0 13 0;
#X connect 7 0 33 0;
#X connect 9 0 10 0;
#X connect 10 0 25 0;
#X connect 11 0 6 0;
#X connect 11 0 26 0;
#X connect 13 0 5 0;
#X connect 15 0 19 0;
#X connect 15 0 22 0;
#X connect 16 0 17 0;
#X connect 17 0 6 1;
#X connect 18 0 13 1;
#X connect 19 0 2 1;
#X connect 21 0 3 0;
#X connect 22 0 3 1;
#X connect 25 0 11 0;
#X connect 26 0 18 0;
#X connect 31 0 32 0;
#X connect 32 0 25 1;
#X connect 32 0 26 1;
#X connect 33 0 8 0;
#X connect 33 0 9 0;
#X connect 33 1 31 0;
#X coords 0 0 1 1 160 110 0;
#X restore 537 433 pd mod-delay1;
#X text 367 347 filter and distortion;
#X obj 526 297 clip~ -1 1;
#N canvas 70 55 617 493 distortion 0;
#X obj -81 94 inlet~;
#X obj -77 305 /~;
#X obj -79 378 outlet~;
#N canvas 0 0 450 300 myaudioabs 0;
#X obj 58 154 clip~ -1 0;
#X obj 141 154 clip~ 0 1;
#X obj 96 63 inlet~;
#X obj 71 184 *~ -1;
#X obj 106 229 +~;
#X obj 105 269 outlet~;
#X connect 0 0 3 0;
#X connect 1 0 4 1;
#X connect 2 0 0 0;
#X connect 2 0 1 0;
#X connect 3 0 4 0;
#X connect 4 0 5 0;
#X restore -34 194 pd myaudioabs;
#X obj -79 128 *~ 13;
#X obj -40 243 +~ 0.4;
#X connect 0 0 4 0;
#X connect 1 0 2 0;
#X connect 3 0 5 0;
#X connect 4 0 1 0;
#X connect 4 0 3 0;
#X connect 5 0 1 1;
#X coords 0 0 1 1 160 40 0;
#X restore 516 404 pd distortion;
#X obj 543 503 clip~ -1 1;
#X obj 541 476 hip~ 10;
#N canvas 0 0 450 300 tlock 0;
#X obj 69 84 inlet;
#X obj 212 237 outlet;
#X obj 102 238 delay 30;
#X obj 64 207 t b b a;
#X msg 109 132 1;
#X obj 41 167 spigot 1;
#X msg 159 133 0;
#X obj 245 88 inlet;
#X connect 0 0 5 0;
#X connect 2 0 4 0;
#X connect 3 0 6 0;
#X connect 3 1 2 0;
#X connect 3 2 1 0;
#X connect 4 0 5 1;
#X connect 5 0 3 0;
#X connect 6 0 5 1;
#X connect 7 0 2 1;
#X restore 959 -206 pd tlock;
#N canvas 0 0 450 300 tlock 0;
#X obj 69 84 inlet;
#X obj 212 237 outlet;
#X obj 102 238 delay 30;
#X obj 64 207 t b b a;
#X msg 109 132 1;
#X obj 41 167 spigot 1;
#X msg 159 133 0;
#X obj 245 88 inlet;
#X connect 0 0 5 0;
#X connect 2 0 4 0;
#X connect 3 0 6 0;
#X connect 3 1 2 0;
#X connect 3 2 1 0;
#X connect 4 0 5 1;
#X connect 5 0 3 0;
#X connect 6 0 5 1;
#X connect 7 0 2 1;
#X restore 592 -226 pd tlock;
#N canvas 0 0 450 300 tlock 0;
#X obj 69 84 inlet;
#X obj 212 237 outlet;
#X obj 102 238 delay 30;
#X obj 64 207 t b b a;
#X msg 109 132 1;
#X obj 41 167 spigot 1;
#X msg 159 133 0;
#X obj 245 88 inlet;
#X connect 0 0 5 0;
#X connect 2 0 4 0;
#X connect 3 0 6 0;
#X connect 3 1 2 0;
#X connect 3 2 1 0;
#X connect 4 0 5 1;
#X connect 5 0 3 0;
#X connect 6 0 5 1;
#X connect 7 0 2 1;
#X restore 305 -252 pd tlock;
#X text 635 -14 count steps and clear seqs;
#N canvas 139 0 885 632 fmdrum3 0;
#X obj 159 539 *~;
#X obj 180 256 *~;
#X msg 251 181 1;
#X obj 233 408 *~;
#X obj 405 -65 inlet;
#X obj 134 407 +~;
#X text 529 468 <-fm in;
#X text 117 276 quadratic pitch/amp env;
#X obj 306 270 *~;
#X msg 375 184 1;
#X text 316 294 amp env;
#X obj 480 468 inlet~;
#X obj 200 709 outlet~;
#X obj 203 226 vline~;
#X obj 328 238 vline~;
#X obj 179 42 t f b b;
#X obj 317 97 t b b;
#X obj 101 79 moses 0.001;
#X obj 133 433 osc~;
#X obj 133 487 clip~ -1 1;
#X obj 132 459 *~ 2;
#X obj 451 495 *~ 2800;
#X obj 135 373 +~ 82;
#X obj 144 337 *~ 1567;
#X msg 196 174 0 36;
#X msg 315 196 0 141;
#X obj 48 277 random 50;
#X obj -18 -4 inlet;
#X msg 394 89 set 0 \$1;
#X obj 48 309 + 60;
#X obj 400 65 + 100;
#X obj 401 44 random 80;
#X connect 0 0 12 0;
#X connect 1 0 23 0;
#X connect 2 0 13 0;
#X connect 3 0 0 1;
#X connect 4 0 15 0;
#X connect 4 0 16 0;
#X connect 5 0 18 0;
#X connect 8 0 3 1;
#X connect 9 0 14 0;
#X connect 11 0 21 0;
#X connect 13 0 1 1;
#X connect 13 0 1 0;
#X connect 14 0 8 1;
#X connect 14 0 8 0;
#X connect 15 0 17 0;
#X connect 15 1 24 0;
#X connect 15 2 2 0;
#X connect 16 0 25 0;
#X connect 16 1 9 0;
#X connect 17 1 3 0;
#X connect 18 0 20 0;
#X connect 19 0 0 0;
#X connect 20 0 19 0;
#X connect 21 0 5 1;
#X connect 22 0 5 0;
#X connect 23 0 22 0;
#X connect 24 0 13 0;
#X connect 25 0 14 0;
#X connect 26 0 29 0;
#X connect 27 0 26 0;
#X connect 27 0 31 0;
#X connect 28 0 25 0;
#X connect 29 0 22 1;
#X connect 30 0 28 0;
#X connect 31 0 30 0;
#X coords 0 0 1 1 150 110 0;
#X restore 715 -69 pd fmdrum3;
#N canvas 139 0 885 632 fmdrum2 0;
#X obj 155 527 *~;
#X obj 143 212 *~;
#X msg 214 137 1;
#X obj 233 408 *~;
#X obj 218 -61 inlet;
#X obj 134 407 +~;
#X text 414 702 <- to fm bus;
#X text 529 468 <-fm in;
#X text 80 232 quadratic pitch/amp env;
#X obj 269 226 *~;
#X msg 338 140 1;
#X text 279 250 amp env;
#X obj 480 468 inlet~;
#X obj 200 709 outlet~;
#X obj 355 699 outlet~;
#X obj 166 182 vline~;
#X obj 291 194 vline~;
#X obj 142 -2 t f b b;
#X obj 280 53 t b b;
#X obj 64 35 moses 0.001;
#X obj 135 429 osc~;
#X obj 140 495 clip~ -1 1;
#X obj 450 495 *~ 2500;
#X obj 335 603 *~ 0.6;
#X obj 137 376 +~ 104;
#X text 73 382 pitch;
#X obj 134 458 *~ 2;
#X text 39 477 clipped sine;
#X obj 144 340 *~ 466;
#X text 200 340 pitch amt;
#X msg 138 138 0 4;
#X msg 278 152 0 108;
#X obj 44 307 random 50;
#X obj 46 337 + 80;
#X obj -18 -4 inlet;
#X msg 394 89 set 0 \$1;
#X obj 400 65 + 30;
#X obj 401 44 random 80;
#X connect 0 0 13 0;
#X connect 0 0 23 0;
#X connect 1 0 28 0;
#X connect 2 0 15 0;
#X connect 3 0 0 1;
#X connect 4 0 17 0;
#X connect 4 0 18 0;
#X connect 5 0 20 0;
#X connect 9 0 3 1;
#X connect 10 0 16 0;
#X connect 12 0 22 0;
#X connect 15 0 1 1;
#X connect 15 0 1 0;
#X connect 16 0 9 1;
#X connect 16 0 9 0;
#X connect 17 0 19 0;
#X connect 17 1 30 0;
#X connect 17 2 2 0;
#X connect 18 0 31 0;
#X connect 18 1 10 0;
#X connect 19 1 3 0;
#X connect 20 0 26 0;
#X connect 21 0 0 0;
#X connect 22 0 5 1;
#X connect 23 0 14 0;
#X connect 24 0 5 0;
#X connect 26 0 21 0;
#X connect 28 0 24 0;
#X connect 30 0 15 0;
#X connect 31 0 16 0;
#X connect 32 0 33 0;
#X connect 33 0 24 1;
#X connect 34 0 32 0;
#X connect 34 0 37 0;
#X connect 35 0 31 0;
#X connect 36 0 35 0;
#X connect 37 0 36 0;
#X coords 0 0 1 1 150 110 0;
#X restore 416 -70 pd fmdrum2;
#N canvas 311 117 713 632 beatcounter 0;
#X obj 326 486 + 1;
#X obj 275 482 float;
#X msg 206 296 1;
#X obj 218 321 /;
#X obj 209 273 t f f;
#X obj 228 344 * 15000;
#X obj 353 306 t b f;
#X obj 266 448 metro 125;
#X msg 348 270 -2;
#X text 189 444 1/16 in ms;
#X floatatom 250 138 3 30 300 0 - - -;
#X text 248 116 bpm;
#X obj 326 534 outlet;
#X obj 440 233 outlet;
#X text 488 234 bpm->;
#X text 377 535 pos->;
#X obj 130 69 t b b b;
#X obj 234 86 + 70;
#X obj 133 32 inlet;
#X obj 232 60 random 70;
#X connect 0 0 1 1;
#X connect 0 0 12 0;
#X connect 1 0 0 0;
#X connect 2 0 3 0;
#X connect 3 0 5 0;
#X connect 4 0 2 0;
#X connect 4 1 3 1;
#X connect 5 0 7 1;
#X connect 6 0 7 0;
#X connect 6 1 1 0;
#X connect 7 0 1 0;
#X connect 8 0 6 0;
#X connect 10 0 4 0;
#X connect 10 0 13 0;
#X connect 16 0 8 0;
#X connect 16 1 10 0;
#X connect 16 2 19 0;
#X connect 17 0 10 0;
#X connect 18 0 16 0;
#X connect 19 0 17 0;
#X coords 0 0 1 1 120 40 0;
#X restore 153 -330 pd beatcounter;
#X obj 24 -497 loadbang;
#X msg 882 136 bang;
#X obj 835 -36 +;
#X obj 824 24 int;
#X obj 834 -7 t b f;
#X msg 837 -62 1;
#X msg 772 32 0;
#X obj 822 111 moses 0.1;
#X obj 824 89 change;
#X obj 542 37 > 8;
#X obj 826 54 > 8;
#X msg 1095 130 bang;
#X obj 1048 -42 +;
#X obj 1037 18 int;
#X obj 1047 -13 t b f;
#X msg 1050 -68 1;
#X msg 985 26 0;
#X obj 1035 105 moses 0.1;
#X obj 1037 83 change;
#X obj 1039 46 > 8;
#X msg 463 -311 0.6;
#X msg 752 -277 0.6;
#X msg 1138 -267 0.6;
#X msg 699 -393 300;
#X connect 1 0 11 0;
#X connect 2 0 38 0;
#X connect 2 0 6 0;
#X connect 2 0 59 0;
#X connect 2 0 60 0;
#X connect 2 0 61 0;
#X connect 2 0 62 0;
#X connect 2 0 10 0;
#X connect 2 0 37 0;
#X connect 2 0 36 0;
#X connect 3 0 4 0;
#X connect 4 0 5 0;
#X connect 4 1 7 0;
#X connect 4 2 9 0;
#X connect 5 0 34 0;
#X connect 6 0 1 1;
#X connect 6 0 8 1;
#X connect 6 0 13 1;
#X connect 6 1 1 3;
#X connect 6 1 8 3;
#X connect 6 1 13 3;
#X connect 7 0 33 0;
#X connect 8 0 12 0;
#X connect 9 0 32 0;
#X connect 10 0 28 0;
#X connect 10 1 37 2;
#X connect 11 1 10 1;
#X connect 12 1 37 1;
#X connect 13 0 14 0;
#X connect 14 1 36 1;
#X connect 15 0 1 3;
#X connect 16 0 18 0;
#X connect 17 0 16 1;
#X connect 17 0 48 0;
#X connect 18 0 17 0;
#X connect 18 1 17 1;
#X connect 19 0 16 0;
#X connect 20 0 17 0;
#X connect 21 1 20 0;
#X connect 21 1 15 0;
#X connect 22 0 21 0;
#X connect 23 0 24 0;
#X connect 24 0 25 1;
#X connect 25 0 29 0;
#X connect 26 0 31 0;
#X connect 28 0 23 0;
#X connect 28 0 25 0;
#X connect 29 0 26 0;
#X connect 30 0 0 0;
#X connect 30 0 0 1;
#X connect 31 0 30 0;
#X connect 32 0 13 2;
#X connect 32 0 54 0;
#X connect 33 0 8 2;
#X connect 33 0 44 0;
#X connect 34 0 1 2;
#X connect 34 0 19 0;
#X connect 36 0 28 0;
#X connect 37 0 28 0;
#X connect 37 1 36 2;
#X connect 38 0 1 0;
#X connect 38 0 8 0;
#X connect 38 0 13 0;
#X connect 38 1 26 1;
#X connect 39 0 2 0;
#X connect 40 0 8 3;
#X connect 41 0 43 0;
#X connect 42 0 41 1;
#X connect 42 0 49 0;
#X connect 43 0 42 0;
#X connect 43 1 42 1;
#X connect 44 0 41 0;
#X connect 45 0 42 0;
#X connect 46 1 45 0;
#X connect 46 1 40 0;
#X connect 47 0 46 0;
#X connect 48 0 22 0;
#X connect 49 0 47 0;
#X connect 50 0 13 3;
#X connect 51 0 53 0;
#X connect 52 0 51 1;
#X connect 52 0 58 0;
#X connect 53 0 52 0;
#X connect 53 1 52 1;
#X connect 54 0 51 0;
#X connect 55 0 52 0;
#X connect 56 1 55 0;
#X connect 56 1 50 0;
#X connect 57 0 56 0;
#X connect 58 0 57 0;
#X connect 59 0 5 1;
#X connect 60 0 7 1;
#X connect 61 0 9 1;
#X connect 62 0 34 1;
#X connect 62 0 33 1;
#X connect 62 0 32 1;
