#N canvas 70 22 671 647 12;
#N canvas 10 158 999 614 mixermixermixermixer 0;
#X obj 705 290 outlet~;
#X obj 643 290 outlet~;
#X obj 388 294 outlet~;
#X obj 204 297 outlet~;
#X obj 11 115 *~;
#X obj 26 142 *~;
#X obj 55 115 *~;
#X obj 76 143 *~;
#X obj 108 116 *~;
#X obj 131 144 *~;
#X obj 193 144 *~;
#X obj 251 143 *~;
#X obj 170 116 *~;
#X obj 228 115 *~;
#X obj 292 115 *~;
#X obj 315 143 *~;
#X obj 32 81 inlet~;
#X obj 137 80 inlet~;
#X obj 250 80 inlet~;
#X obj 208 -179 vsl 20 128 0 1 0 0 empty empty empty 0 -8 0 8 -262144
-1 -1 0 1;
#X obj 148 3 - 1;
#X obj 176 3 * -1;
#X obj 128 52 *;
#X obj 155 52 *;
#X obj 181 52 *;
#X obj 208 52 *;
#X msg 160 25 bang;
#X obj 308 -190 vsl 20 128 0 1 0 0 empty empty empty 0 -8 0 8 -262144
-1 -1 0 1;
#X obj 265 3 - 1;
#X obj 293 3 * -1;
#X obj 237 52 *;
#X obj 264 52 *;
#X obj 290 52 *;
#X obj 317 52 *;
#X msg 277 25 bang;
#X obj 89 -176 vsl 20 128 0 1 0 0 empty empty empty 0 -8 0 8 -262144
-1 -1 0 1;
#X obj 44 3 - 1;
#X obj 72 3 * -1;
#X obj 16 52 *;
#X obj 43 52 *;
#X obj 69 52 *;
#X obj 96 52 *;
#X msg 53 26 bang;
#X obj 348 115 *~;
#X obj 371 143 *~;
#X obj 410 115 *~;
#X obj 434 143 *~;
#X obj 348 78 inlet~;
#X obj 427 -176 vsl 20 128 0 1 0 0 empty empty empty 0 -8 0 8 -262144
-1 -1 0 1;
#X obj 381 3 - 1;
#X obj 409 3 * -1;
#X obj 353 52 *;
#X obj 380 52 *;
#X obj 406 52 *;
#X obj 433 52 *;
#X msg 393 25 bang;
#X obj 24 -25 r s1v;
#X obj 71 -25 r s1p;
#X obj 136 -24 r s2v;
#X obj 182 -24 r s2p;
#X obj 257 -22 r s3v;
#X obj 303 -22 r s3p;
#X obj 364 -21 r s4v;
#X obj 410 -21 r s4p;
#X obj 461 117 *~;
#X obj 476 144 *~;
#X obj 505 117 *~;
#X obj 526 145 *~;
#X obj 558 118 *~;
#X obj 581 146 *~;
#X obj 643 146 *~;
#X obj 701 145 *~;
#X obj 620 118 *~;
#X obj 678 117 *~;
#X obj 742 117 *~;
#X obj 765 145 *~;
#X obj 475 80 inlet~;
#X obj 583 79 inlet~;
#X obj 700 79 inlet~;
#X obj 658 -177 vsl 20 128 0 1 0 0 empty empty empty 0 -8 0 8 -262144
-1 -1 0 1;
#X obj 598 5 - 1;
#X obj 626 5 * -1;
#X obj 578 54 *;
#X obj 605 54 *;
#X obj 631 54 *;
#X obj 658 54 *;
#X msg 610 27 bang;
#X obj 758 -188 vsl 20 128 0 1 0 0 empty empty empty 0 -8 0 8 -262144
-1 -1 0 1;
#X obj 715 5 - 1;
#X obj 743 5 * -1;
#X obj 687 54 *;
#X obj 714 54 *;
#X obj 740 54 *;
#X obj 767 54 *;
#X msg 727 27 bang;
#X obj 539 -174 vsl 20 128 0 1 0 0 empty empty empty 0 -8 0 8 -262144
-1 -1 0 1;
#X obj 494 5 - 1;
#X obj 522 5 * -1;
#X obj 466 54 *;
#X obj 493 54 *;
#X obj 519 54 *;
#X obj 546 54 *;
#X msg 503 28 bang;
#X obj 798 117 *~;
#X obj 821 145 *~;
#X obj 860 117 *~;
#X obj 884 145 *~;
#X obj 827 81 inlet~;
#X obj 877 -174 vsl 20 128 0 1 0 0 empty empty empty 0 -8 0 8 -262144
-1 -1 0 1;
#X obj 831 5 - 1;
#X obj 859 5 * -1;
#X obj 803 54 *;
#X obj 830 54 *;
#X obj 856 54 *;
#X obj 883 54 *;
#X msg 843 27 bang;
#X obj 474 -24 r s5v;
#X obj 521 -24 r s5p;
#X obj 582 -23 r s6v;
#X obj 631 -22 r s6p;
#X obj 707 -20 r s7v;
#X obj 753 -20 r s7p;
#X obj 814 -19 r s8v;
#X obj 860 -19 r s8p;
#X connect 4 0 3 0;
#X connect 5 0 1 0;
#X connect 6 0 2 0;
#X connect 7 0 0 0;
#X connect 8 0 3 0;
#X connect 9 0 1 0;
#X connect 10 0 0 0;
#X connect 11 0 1 0;
#X connect 12 0 2 0;
#X connect 13 0 3 0;
#X connect 14 0 2 0;
#X connect 15 0 0 0;
#X connect 16 0 4 0;
#X connect 16 0 5 0;
#X connect 16 0 6 0;
#X connect 16 0 7 0;
#X connect 17 0 8 0;
#X connect 17 0 9 0;
#X connect 17 0 12 0;
#X connect 17 0 10 0;
#X connect 18 0 11 0;
#X connect 18 0 13 0;
#X connect 18 0 14 0;
#X connect 18 0 15 1;
#X connect 19 0 24 0;
#X connect 19 0 25 0;
#X connect 20 0 21 0;
#X connect 21 0 22 1;
#X connect 21 0 24 1;
#X connect 22 0 8 1;
#X connect 23 0 12 1;
#X connect 24 0 9 1;
#X connect 25 0 10 1;
#X connect 26 0 22 0;
#X connect 26 0 23 0;
#X connect 26 0 24 0;
#X connect 26 0 25 0;
#X connect 27 0 32 0;
#X connect 27 0 33 0;
#X connect 28 0 29 0;
#X connect 29 0 30 1;
#X connect 29 0 32 1;
#X connect 30 0 13 1;
#X connect 31 0 14 1;
#X connect 32 0 11 1;
#X connect 33 0 15 1;
#X connect 34 0 30 0;
#X connect 34 0 31 0;
#X connect 34 0 32 0;
#X connect 34 0 33 0;
#X connect 35 0 40 0;
#X connect 35 0 41 0;
#X connect 36 0 37 0;
#X connect 37 0 38 1;
#X connect 37 0 40 1;
#X connect 38 0 4 1;
#X connect 39 0 6 1;
#X connect 40 0 5 1;
#X connect 41 0 7 1;
#X connect 42 0 38 0;
#X connect 42 0 39 0;
#X connect 42 0 40 0;
#X connect 42 0 41 0;
#X connect 43 0 3 0;
#X connect 44 0 1 0;
#X connect 45 0 2 0;
#X connect 46 0 0 0;
#X connect 47 0 43 0;
#X connect 47 0 44 0;
#X connect 47 0 45 0;
#X connect 47 0 46 0;
#X connect 48 0 53 0;
#X connect 48 0 54 0;
#X connect 49 0 50 0;
#X connect 50 0 51 1;
#X connect 50 0 53 1;
#X connect 51 0 43 1;
#X connect 52 0 45 1;
#X connect 53 0 44 1;
#X connect 54 0 46 1;
#X connect 55 0 51 0;
#X connect 55 0 52 0;
#X connect 55 0 53 0;
#X connect 55 0 54 0;
#X connect 56 0 38 0;
#X connect 56 0 39 0;
#X connect 57 0 36 0;
#X connect 57 0 42 0;
#X connect 57 0 39 1;
#X connect 57 0 41 1;
#X connect 58 0 22 0;
#X connect 58 0 23 0;
#X connect 59 0 20 0;
#X connect 59 0 26 0;
#X connect 59 0 23 1;
#X connect 59 0 25 1;
#X connect 60 0 30 0;
#X connect 60 0 31 0;
#X connect 61 0 28 0;
#X connect 61 0 34 0;
#X connect 61 0 31 1;
#X connect 61 0 33 1;
#X connect 62 0 51 0;
#X connect 62 0 52 0;
#X connect 63 0 49 0;
#X connect 63 0 55 0;
#X connect 63 0 52 1;
#X connect 63 0 54 1;
#X connect 64 0 3 0;
#X connect 65 0 1 0;
#X connect 66 0 2 0;
#X connect 67 0 0 0;
#X connect 68 0 3 0;
#X connect 69 0 1 0;
#X connect 70 0 0 0;
#X connect 71 0 1 0;
#X connect 72 0 2 0;
#X connect 73 0 3 0;
#X connect 74 0 2 0;
#X connect 75 0 0 0;
#X connect 76 0 64 0;
#X connect 76 0 65 0;
#X connect 76 0 66 0;
#X connect 76 0 67 0;
#X connect 77 0 68 0;
#X connect 77 0 69 0;
#X connect 77 0 72 0;
#X connect 77 0 70 0;
#X connect 78 0 71 0;
#X connect 78 0 73 0;
#X connect 78 0 74 0;
#X connect 78 0 75 0;
#X connect 79 0 84 0;
#X connect 79 0 85 0;
#X connect 80 0 81 0;
#X connect 81 0 82 1;
#X connect 81 0 84 1;
#X connect 82 0 68 1;
#X connect 83 0 72 1;
#X connect 84 0 69 1;
#X connect 85 0 70 1;
#X connect 86 0 82 0;
#X connect 86 0 83 0;
#X connect 86 0 84 0;
#X connect 86 0 85 0;
#X connect 87 0 92 0;
#X connect 87 0 93 0;
#X connect 88 0 89 0;
#X connect 89 0 90 1;
#X connect 89 0 92 1;
#X connect 90 0 73 1;
#X connect 91 0 74 1;
#X connect 92 0 71 1;
#X connect 93 0 75 1;
#X connect 94 0 90 0;
#X connect 94 0 91 0;
#X connect 94 0 92 0;
#X connect 94 0 93 0;
#X connect 95 0 100 0;
#X connect 95 0 101 0;
#X connect 96 0 97 0;
#X connect 97 0 98 1;
#X connect 97 0 100 1;
#X connect 98 0 64 1;
#X connect 99 0 66 1;
#X connect 100 0 65 1;
#X connect 101 0 67 1;
#X connect 102 0 98 0;
#X connect 102 0 99 0;
#X connect 102 0 100 0;
#X connect 102 0 101 0;
#X connect 103 0 3 0;
#X connect 104 0 1 0;
#X connect 105 0 2 0;
#X connect 106 0 0 0;
#X connect 107 0 103 0;
#X connect 107 0 104 0;
#X connect 107 0 105 0;
#X connect 107 0 106 0;
#X connect 108 0 113 0;
#X connect 108 0 114 0;
#X connect 109 0 110 0;
#X connect 110 0 111 1;
#X connect 110 0 113 1;
#X connect 111 0 103 1;
#X connect 112 0 105 1;
#X connect 113 0 104 1;
#X connect 114 0 106 1;
#X connect 115 0 111 0;
#X connect 115 0 112 0;
#X connect 115 0 113 0;
#X connect 115 0 114 0;
#X connect 116 0 98 0;
#X connect 116 0 99 0;
#X connect 117 0 96 0;
#X connect 117 0 102 0;
#X connect 117 0 99 1;
#X connect 117 0 101 1;
#X connect 118 0 82 0;
#X connect 118 0 83 0;
#X connect 119 0 80 0;
#X connect 119 0 86 0;
#X connect 119 0 83 1;
#X connect 119 0 85 1;
#X connect 120 0 90 0;
#X connect 120 0 91 0;
#X connect 121 0 88 0;
#X connect 121 0 94 0;
#X connect 121 0 91 1;
#X connect 121 0 93 1;
#X connect 122 0 111 0;
#X connect 122 0 112 0;
#X connect 123 0 109 0;
#X connect 123 0 115 0;
#X connect 123 0 112 1;
#X connect 123 0 114 1;
#X restore 449 501 pd mixermixermixermixer;
#N canvas 0 0 450 300 graph1 0;
#X array s2 38912 float 2;
#X coords 0 1 38912 -1 200 40 1;
#X restore 57 91 graph;
#N canvas 0 0 450 300 graph1 0;
#X array s3 16384 float 2;
#X coords 0 1 16384 -1 200 40 1;
#X restore 56 166 graph;
#N canvas 0 0 450 300 graph1 0;
#X array s4 26624 float 2;
#X coords 0 1 26624 -1 200 40 1;
#X restore 55 242 graph;
#N canvas 0 0 450 300 graph1 0;
#X array s1 38912 float 2;
#X coords 0 1 38912 -1 200 40 1;
#X restore 58 16 graph;
#N canvas 0 0 450 300 graph1 0;
#X array s6 30720 float 2;
#X coords 0 1 30720 -1 200 40 1;
#X restore 53 393 graph;
#N canvas 0 0 450 300 graph1 0;
#X array s7 47104 float 2;
#X coords 0 1 47104 -1 200 40 1;
#X restore 52 468 graph;
#N canvas 0 0 450 300 graph1 0;
#X array s8 18432 float 2;
#X coords 0 1 18432 -1 200 40 1;
#X restore 51 543 graph;
#N canvas 0 0 450 300 graph1 0;
#X array s5 22528 float 2;
#X coords 0 1 22528 -1 200 40 1;
#X restore 54 318 graph;
#X obj 61 56 hsl 195 10 0 1 0 1 l1 l1 empty -2 -6 0 8 -262144 -1 -1
0 0;
#X obj 61 66 hsl 195 10 0 1 0 1 r1 r1 empty -2 -6 0 8 -262144 -1 -1
19400 0;
#X obj 60 131 hsl 195 10 0 1 0 1 l2 l2 empty -2 -6 0 8 -262144 -1 -1
0 0;
#X obj 60 141 hsl 195 10 0 1 0 1 r2 r2 empty -2 -6 0 8 -262144 -1 -1
19400 0;
#X obj 59 206 hsl 195 10 0 1 0 1 l3 l3 empty -2 -6 0 8 -262144 -1 -1
0 0;
#X obj 59 216 hsl 195 10 0 1 0 1 r3 r3 empty -2 -6 0 8 -262144 -1 -1
19400 0;
#X obj 58 282 hsl 195 10 0 1 0 1 l4 l4 empty -2 -6 0 8 -262144 -1 -1
0 0;
#X obj 58 292 hsl 195 10 0 1 0 1 r4 r4 empty -2 -6 0 8 -262144 -1 -1
19400 0;
#X obj 57 358 hsl 195 10 0 1 0 1 l5 l5 empty -2 -6 0 8 -262144 -1 -1
0 0;
#X obj 57 368 hsl 195 10 0 1 0 1 r5 r5 empty -2 -6 0 8 -262144 -1 -1
19400 0;
#X obj 56 433 hsl 195 10 0 1 0 1 l6 l6 empty -2 -6 0 8 -262144 -1 -1
0 0;
#X obj 56 443 hsl 195 10 0 1 0 1 r6 r6 empty -2 -6 0 8 -262144 -1 -1
19400 0;
#X obj 55 508 hsl 195 10 0 1 0 1 l7 l7 empty -2 -6 0 8 -262144 -1 -1
0 0;
#X obj 55 518 hsl 195 10 0 1 0 1 r7 r7 empty -2 -6 0 8 -262144 -1 -1
19400 0;
#X obj 54 583 hsl 195 10 0 1 0 1 l8 l8 empty -2 -6 0 8 -262144 -1 -1
0 0;
#X obj 54 593 hsl 195 10 0 1 0 1 r8 r8 empty -2 -6 0 8 -262144 -1 -1
19400 0;
#X obj 0 17 bng 50 250 50 0 hit1 play1 empty 0 -6 0 8 -262144 -1 -1
;
#X obj 0 93 bng 50 250 50 0 hit2 play2 empty 0 -6 0 8 -262144 -1 -1
;
#X obj -1 168 bng 50 250 50 0 hit3 play3 empty 0 -6 0 8 -262144 -1
-1;
#X obj -1 244 bng 50 250 50 0 hit4 play4 empty 0 -6 0 8 -262144 -1
-1;
#X obj -2 320 bng 50 250 50 0 hit5 play5 empty 0 -6 0 8 -262144 -1
-1;
#X obj -3 398 bng 50 250 50 0 hit6 play6 empty 0 -6 0 8 -262144 -1
-1;
#X obj -5 471 bng 50 250 50 0 hit7 play7 empty 0 -6 0 8 -262144 -1
-1;
#X obj -5 544 bng 50 250 50 0 hit8 play8 empty 0 -6 0 8 -262144 -1
-1;
#N canvas 431 79 558 408 loader 0;
#X obj 5 58 soundfiler;
#X obj 5 83 s ss1;
#X obj 5 6 r loadsamples;
#X obj 184 56 soundfiler;
#X obj 184 81 s ss2;
#X obj 4 133 soundfiler;
#X obj 4 158 s ss3;
#X msg 5 32 read -resize 1.wav s1;
#X msg 184 31 read -resize 2.wav s2;
#X msg 4 108 read -resize 3.wav s3;
#X obj 184 133 soundfiler;
#X obj 184 158 s ss4;
#X msg 184 108 read -resize 4.wav s4;
#X obj 4 209 soundfiler;
#X obj 183 207 soundfiler;
#X obj 3 284 soundfiler;
#X obj 183 284 soundfiler;
#X msg 4 183 read -resize 5.wav s5;
#X obj 4 234 s ss5;
#X obj 3 309 s ss7;
#X msg 3 259 read -resize 7.wav s7;
#X msg 183 182 read -resize 6.wav s6;
#X obj 183 232 s ss6;
#X msg 183 259 read -resize 8.wav s8;
#X obj 183 309 s ss8;
#X connect 0 0 1 0;
#X connect 2 0 7 0;
#X connect 2 0 8 0;
#X connect 2 0 9 0;
#X connect 2 0 17 0;
#X connect 2 0 20 0;
#X connect 2 0 12 0;
#X connect 2 0 21 0;
#X connect 2 0 23 0;
#X connect 3 0 4 0;
#X connect 5 0 6 0;
#X connect 7 0 0 0;
#X connect 8 0 3 0;
#X connect 9 0 5 0;
#X connect 10 0 11 0;
#X connect 12 0 10 0;
#X connect 13 0 18 0;
#X connect 14 0 22 0;
#X connect 15 0 19 0;
#X connect 16 0 24 0;
#X connect 17 0 13 0;
#X connect 20 0 15 0;
#X connect 21 0 14 0;
#X connect 23 0 16 0;
#X restore 484 391 pd loader;
#X obj 458 601 dac~;
#X obj 258 18 vsl 15 55 0 5 0 1 s1sp rs1sp empty 0 -8 0 8 -262144 -1
-1 2721 1;
#N canvas 322 246 368 268 loadbang 0;
#X obj 8 8 loadbang;
#X msg 80 56 0;
#X msg 45 56 1;
#X msg 10 58 0;
#X msg 116 55 1;
#X obj 10 31 del 10;
#X obj 93 93 s r1;
#X obj 39 92 s l1;
#X obj 159 26 del 500;
#X obj 159 52 s loadsamples;
#X obj 9 179 s loads1mn;
#X msg 9 153 36;
#X obj 95 179 s loads2mn;
#X obj 181 179 s loads3mn;
#X msg 95 153 38;
#X msg 181 153 40;
#X obj 9 119 del 1000;
#X obj 267 179 s loads4mn;
#X msg 267 153 41;
#X obj 10 229 s loads5mn;
#X obj 96 229 s loads6mn;
#X obj 182 229 s loads7mn;
#X obj 268 229 s loads8mn;
#X msg 10 204 43;
#X msg 96 204 45;
#X msg 182 204 47;
#X msg 268 204 48;
#X connect 0 0 1 0;
#X connect 0 0 4 0;
#X connect 0 0 5 0;
#X connect 0 0 8 0;
#X connect 0 0 16 0;
#X connect 1 0 7 0;
#X connect 2 0 6 0;
#X connect 3 0 7 0;
#X connect 4 0 6 0;
#X connect 5 0 2 0;
#X connect 5 0 3 0;
#X connect 8 0 9 0;
#X connect 11 0 10 0;
#X connect 14 0 12 0;
#X connect 15 0 13 0;
#X connect 16 0 11 0;
#X connect 16 0 14 0;
#X connect 16 0 15 0;
#X connect 16 0 18 0;
#X connect 16 0 23 0;
#X connect 16 0 24 0;
#X connect 16 0 25 0;
#X connect 16 0 26 0;
#X connect 18 0 17 0;
#X connect 23 0 19 0;
#X connect 24 0 20 0;
#X connect 25 0 21 0;
#X connect 26 0 22 0;
#X restore 469 224 pd loadbang;
#X msg 274 16 1;
#X floatatom 274 56 3 0 0 0 - s1sp -;
#X msg 274 36 1;
#X obj 257 93 vsl 15 55 0 5 0 1 s2sp empty empty 0 -8 0 8 -262144 -1
-1 1080 1;
#X msg 272 91 1;
#X floatatom 272 131 3 0 0 0 - s2sp -;
#X obj 256 168 vsl 15 55 0 5 0 1 s3sp empty empty 0 -8 0 8 -262144
-1 -1 1080 1;
#X msg 271 166 1;
#X floatatom 271 206 0 0 0 0 - s3sp -;
#X msg 271 186 1;
#X obj 255 244 vsl 15 55 0 5 0 1 s4sp empty empty 0 -8 0 8 -262144
-1 -1 1080 1;
#X msg 270 242 1;
#X floatatom 270 282 0 0 0 0 - s4sp -;
#X msg 270 262 1;
#X obj 254 320 vsl 15 55 0 5 0 1 s5sp empty empty 0 -8 0 8 -262144
-1 -1 1080 1;
#X msg 269 318 1;
#X floatatom 269 358 0 0 0 0 - s5sp -;
#X msg 269 338 1;
#X obj 253 395 vsl 15 55 0 5 0 1 s6sp empty empty 0 -8 0 8 -262144
-1 -1 1080 1;
#X msg 268 393 1;
#X floatatom 268 433 0 0 0 0 - s6sp -;
#X msg 268 413 1;
#X obj 252 470 vsl 15 55 0 5 0 1 s7sp empty empty 0 -8 0 8 -262144
-1 -1 1080 1;
#X msg 267 468 1;
#X floatatom 267 508 0 0 0 0 - s7sp -;
#X msg 267 488 1;
#X obj 251 545 vsl 15 55 0 5 0 1 s8sp empty empty 0 -8 0 8 -262144
-1 -1 1080 1;
#X msg 266 543 1;
#X floatatom 266 583 0 0 0 0 - s8sp -;
#X msg 266 563 1;
#X floatatom 344 17 3 0 0 0 - loads1mn s1mn;
#N canvas 15 30 1002 272 midi 0;
#X obj 5 5 notein;
#X obj 5 71 r s1mn;
#X obj 5 95 select 36;
#X floatatom 96 24 5 0 0 0 - - -;
#X obj 5 119 s play1;
#X obj 5 30 stripnote;
#X obj 84 71 r s2mn;
#X obj 162 71 r s3mn;
#X obj 240 71 r s4mn;
#X obj 84 119 s play2;
#X obj 162 119 s play3;
#X obj 240 119 s play4;
#X obj 84 95 select 38;
#X obj 162 95 select 40;
#X obj 240 95 select 41;
#X obj 5 147 r s5mn;
#X obj 84 147 r s6mn;
#X obj 162 147 r s7mn;
#X obj 240 147 r s8mn;
#X obj 240 195 s play8;
#X obj 162 196 s play7;
#X obj 84 195 s play6;
#X obj 5 196 s play5;
#X obj 5 171 select 43;
#X obj 84 171 select 45;
#X obj 162 171 select 47;
#X obj 240 171 select 48;
#X obj 318 68 s s1sp;
#X obj 318 92 s rs1sp;
#X obj 522 148 ctlin;
#X floatatom 540 189 5 0 0 0 - - -;
#X obj 318 20 ctlin 7 1;
#X obj 393 20 ctlin 10 1;
#X obj 476 20 ctlin 40 1;
#X obj 558 20 ctlin 91 1;
#X obj 641 20 ctlin 92 1;
#X obj 725 20 ctlin 93 1;
#X obj 809 20 ctlin 94 1;
#X obj 893 20 ctlin 96 1;
#X obj 396 69 s s2sp;
#X obj 396 92 s rs2sp;
#X obj 318 45 / 127;
#X obj 396 45 / 127;
#X obj 366 44 * 5;
#X connect 0 0 5 0;
#X connect 0 1 5 1;
#X connect 1 0 2 1;
#X connect 2 0 4 0;
#X connect 5 0 3 0;
#X connect 5 0 12 0;
#X connect 5 0 13 0;
#X connect 5 0 14 0;
#X connect 5 0 2 0;
#X connect 5 0 23 0;
#X connect 5 0 24 0;
#X connect 5 0 25 0;
#X connect 5 0 26 0;
#X connect 6 0 12 1;
#X connect 7 0 13 1;
#X connect 8 0 14 1;
#X connect 12 0 9 0;
#X connect 13 0 10 0;
#X connect 14 0 11 0;
#X connect 15 0 23 1;
#X connect 16 0 24 1;
#X connect 17 0 25 1;
#X connect 18 0 26 1;
#X connect 23 0 22 0;
#X connect 24 0 21 0;
#X connect 25 0 20 0;
#X connect 26 0 19 0;
#X connect 29 1 30 0;
#X connect 31 0 41 0;
#X connect 32 0 42 0;
#X connect 41 0 43 0;
#X connect 42 0 39 0;
#X connect 42 0 40 0;
#X connect 43 0 27 0;
#X connect 43 0 28 0;
#X restore 484 89 pd midi;
#X obj 308 18 vsl 30 45 0.001 1 1 1 s1v empty empty 0 -8 0 8 -262144
-1 -1 4400 1;
#X obj 311 66 hsl 25 10 0 1 0 1 s1p empty empty -2 -6 0 8 -262144 -1
-1 800 1;
#X floatatom 344 92 3 0 0 0 - loads2mn s2mn;
#X floatatom 345 166 3 0 0 0 - loads3mn s3mn;
#X floatatom 344 242 3 0 0 0 - loads4mn s4mn;
#X floatatom 343 318 3 0 0 0 - loads5mn s5mn;
#X floatatom 343 392 3 0 0 0 - loads6mn s6mn;
#X floatatom 344 467 3 0 0 0 - loads7mn s7mn;
#X floatatom 344 543 3 0 0 0 - loads8mn s8mn;
#X obj 308 93 vsl 30 45 0.001 1 1 1 s2v empty empty 0 -8 0 8 -262144
-1 -1 4400 1;
#X obj 311 141 hsl 25 10 0 1 0 1 s2p empty empty -2 -6 0 8 -262144
-1 -1 1900 1;
#X msg 345 131 0.5;
#X obj 309 168 vsl 30 45 0.001 1 1 1 s3v empty empty 0 -8 0 8 -262144
-1 -1 4400 1;
#X obj 312 216 hsl 25 10 0 1 0 1 s3p empty empty -2 -6 0 8 -262144
-1 -1 1600 1;
#X msg 346 206 0.5;
#X obj 309 244 vsl 30 45 0.001 1 1 1 s4v empty empty 0 -8 0 8 -262144
-1 -1 4400 1;
#X obj 312 292 hsl 25 10 0 1 0 1 s4p empty empty -2 -6 0 8 -262144
-1 -1 0 1;
#X msg 346 282 0.5;
#X obj 308 320 vsl 30 45 0.001 1 1 1 s5v empty empty 0 -8 0 8 -262144
-1 -1 4400 1;
#X obj 311 368 hsl 25 10 0 1 0 1 s5p empty empty -2 -6 0 8 -262144
-1 -1 2400 1;
#X msg 345 358 0.5;
#X obj 308 394 vsl 30 45 0.001 1 1 1 s6v empty empty 0 -8 0 8 -262144
-1 -1 4400 1;
#X obj 311 442 hsl 25 10 0 1 0 1 s6p empty empty -2 -6 0 8 -262144
-1 -1 600 1;
#X msg 345 432 0.5;
#X obj 309 469 vsl 30 45 0.001 1 1 1 s7v empty empty 0 -8 0 8 -262144
-1 -1 4400 1;
#X obj 312 517 hsl 25 10 0 1 0 1 s7p empty empty -2 -6 0 8 -262144
-1 -1 2400 1;
#X msg 346 507 0.5;
#X obj 309 545 vsl 30 45 0.001 1 1 1 s8v empty empty 0 -8 0 8 -262144
-1 -1 4400 1;
#X obj 312 593 hsl 25 10 0 1 0 1 s8p empty empty -2 -6 0 8 -262144
-1 -1 2400 1;
#X msg 346 583 0.5;
#X msg 345 56 0.5;
#N canvas 0 53 607 600 tabreads 0;
#X obj 51 153 pack;
#X obj 8 227 tabread4~ s1;
#X floatatom 27 32 0 0 0 0 - - -;
#X floatatom 63 32 0 0 0 0 - - -;
#X obj 8 179 list;
#X obj 22 8 r l1;
#X obj 15 84 bng 15 250 50 0 play1 empty empty 0 -6 0 8 -262144 -1
-1;
#X obj 8 251 outlet~;
#X obj 61 8 r r1;
#X obj 46 105 *;
#X obj 75 81 *;
#X obj 43 56 r ss1;
#X obj 20 60 bng 15 250 50 0 empty empty empty 0 -6 0 8 -262144 -1
-1;
#X obj 5 153 t b b;
#X obj 75 105 -;
#X obj 89 130 / 44.1;
#X obj 8 203 line~;
#X obj 45 178 pack 0 0;
#X obj 5 129 r hit1;
#X obj 89 56 r s1sp;
#X obj 88 154 / 1;
#X obj 59 130 f 0;
#X obj 189 153 pack;
#X floatatom 165 32 0 0 0 0 - - -;
#X floatatom 201 32 0 0 0 0 - - -;
#X obj 146 179 list;
#X obj 153 84 bng 15 250 50 0 play2 empty empty 0 -6 0 8 -262144 -1
-1;
#X obj 72 251 outlet~;
#X obj 184 105 *;
#X obj 213 81 *;
#X obj 158 60 bng 15 250 50 0 empty empty empty 0 -6 0 8 -262144 -1
-1;
#X obj 143 153 t b b;
#X obj 213 105 -;
#X obj 227 130 / 44.1;
#X obj 146 203 line~;
#X obj 183 178 pack 0 0;
#X obj 226 154 / 1;
#X obj 197 130 f 0;
#X obj 160 8 r l2;
#X obj 199 8 r r2;
#X obj 181 56 r ss2;
#X obj 227 56 r s2sp;
#X obj 143 129 r hit2;
#X obj 146 227 tabread4~ s2;
#X obj 332 154 pack;
#X floatatom 308 33 0 0 0 0 - - -;
#X floatatom 344 33 0 0 0 0 - - -;
#X obj 289 180 list;
#X obj 296 85 bng 15 250 50 0 play3 empty empty 0 -6 0 8 -262144 -1
-1;
#X obj 133 251 outlet~;
#X obj 327 106 *;
#X obj 356 82 *;
#X obj 301 61 bng 15 250 50 0 empty empty empty 0 -6 0 8 -262144 -1
-1;
#X obj 286 154 t b b;
#X obj 356 106 -;
#X obj 370 131 / 44.1;
#X obj 289 204 line~;
#X obj 326 179 pack 0 0;
#X obj 369 155 / 1;
#X obj 340 131 f 0;
#X obj 303 9 r l3;
#X obj 342 9 r r3;
#X obj 324 57 r ss3;
#X obj 370 57 r s3sp;
#X obj 286 130 r hit3;
#X obj 289 228 tabread4~ s3;
#X obj 469 154 pack;
#X floatatom 445 33 0 0 0 0 - - -;
#X floatatom 481 33 0 0 0 0 - - -;
#X obj 426 180 list;
#X obj 433 85 bng 15 250 50 0 play4 empty empty 0 -6 0 8 -262144 -1
-1;
#X obj 194 251 outlet~;
#X obj 464 106 *;
#X obj 493 82 *;
#X obj 438 61 bng 15 250 50 0 empty empty empty 0 -6 0 8 -262144 -1
-1;
#X obj 423 154 t b b;
#X obj 493 106 -;
#X obj 507 131 / 44.1;
#X obj 426 204 line~;
#X obj 463 179 pack 0 0;
#X obj 506 155 / 1;
#X obj 477 131 f 0;
#X obj 440 9 r l4;
#X obj 479 9 r r4;
#X obj 461 57 r ss4;
#X obj 507 57 r s4sp;
#X obj 423 130 r hit4;
#X obj 426 228 tabread4~ s4;
#X obj 51 429 pack;
#X floatatom 27 308 0 0 0 0 - - -;
#X floatatom 63 308 0 0 0 0 - - -;
#X obj 8 455 list;
#X obj 15 360 bng 15 250 50 0 play5 empty empty 0 -6 0 8 -262144 -1
-1;
#X obj 276 530 outlet~;
#X obj 46 381 *;
#X obj 75 357 *;
#X obj 20 336 bng 15 250 50 0 empty empty empty 0 -6 0 8 -262144 -1
-1;
#X obj 5 429 t b b;
#X obj 75 381 -;
#X obj 89 406 / 44.1;
#X obj 8 479 line~;
#X obj 45 454 pack 0 0;
#X obj 88 430 / 1;
#X obj 59 406 f 0;
#X obj 189 429 pack;
#X floatatom 165 308 0 0 0 0 - - -;
#X floatatom 201 308 0 0 0 0 - - -;
#X obj 146 455 list;
#X obj 153 360 bng 15 250 50 0 play6 empty empty 0 -6 0 8 -262144 -1
-1;
#X obj 353 529 outlet~;
#X obj 184 381 *;
#X obj 213 357 *;
#X obj 158 336 bng 15 250 50 0 empty empty empty 0 -6 0 8 -262144 -1
-1;
#X obj 143 429 t b b;
#X obj 213 381 -;
#X obj 227 406 / 44.1;
#X obj 146 479 line~;
#X obj 183 454 pack 0 0;
#X obj 226 430 / 1;
#X obj 197 406 f 0;
#X obj 332 430 pack;
#X floatatom 308 309 0 0 0 0 - - -;
#X floatatom 344 309 0 0 0 0 - - -;
#X obj 289 456 list;
#X obj 296 361 bng 15 250 50 0 play7 empty empty 0 -6 0 8 -262144 -1
-1;
#X obj 420 528 outlet~;
#X obj 327 382 *;
#X obj 356 358 *;
#X obj 301 337 bng 15 250 50 0 empty empty empty 0 -6 0 8 -262144 -1
-1;
#X obj 286 430 t b b;
#X obj 356 382 -;
#X obj 370 407 / 44.1;
#X obj 289 480 line~;
#X obj 326 455 pack 0 0;
#X obj 369 431 / 1;
#X obj 340 407 f 0;
#X obj 469 430 pack;
#X floatatom 445 309 0 0 0 0 - - -;
#X floatatom 481 309 0 0 0 0 - - -;
#X obj 426 456 list;
#X obj 433 361 bng 15 250 50 0 play8 empty empty 0 -6 0 8 -262144 -1
-1;
#X obj 483 528 outlet~;
#X obj 464 382 *;
#X obj 493 358 *;
#X obj 438 337 bng 15 250 50 0 empty empty empty 0 -6 0 8 -262144 -1
-1;
#X obj 423 430 t b b;
#X obj 493 382 -;
#X obj 507 407 / 44.1;
#X obj 426 480 line~;
#X obj 463 455 pack 0 0;
#X obj 506 431 / 1;
#X obj 477 407 f 0;
#X obj 22 284 r l5;
#X obj 61 284 r r5;
#X obj 43 332 r ss5;
#X obj 89 332 r s5sp;
#X obj 8 503 tabread4~ s5;
#X obj 426 504 tabread4~ s8;
#X obj 507 333 r s8sp;
#X obj 461 333 r ss8;
#X obj 479 285 r r8;
#X obj 440 285 r l8;
#X obj 342 285 r r7;
#X obj 303 285 r l7;
#X obj 324 333 r ss7;
#X obj 370 333 r s7sp;
#X obj 289 504 tabread4~ s7;
#X obj 146 503 tabread4~ s6;
#X obj 227 332 r s6sp;
#X obj 181 332 r ss6;
#X obj 199 284 r r6;
#X obj 160 284 r l6;
#X obj 5 405 r hit5;
#X obj 143 405 r hit6;
#X obj 286 406 r hit7;
#X obj 423 406 r hit8;
#X connect 0 0 4 1;
#X connect 1 0 7 0;
#X connect 2 0 9 0;
#X connect 3 0 10 0;
#X connect 4 0 16 0;
#X connect 5 0 2 0;
#X connect 5 0 12 0;
#X connect 8 0 3 0;
#X connect 8 0 12 0;
#X connect 9 0 14 1;
#X connect 9 0 21 1;
#X connect 10 0 0 0;
#X connect 10 0 14 0;
#X connect 11 0 10 1;
#X connect 11 0 9 1;
#X connect 11 0 12 0;
#X connect 12 0 3 0;
#X connect 12 0 2 0;
#X connect 13 0 4 0;
#X connect 13 1 21 0;
#X connect 14 0 15 0;
#X connect 15 0 20 0;
#X connect 16 0 1 0;
#X connect 17 0 16 0;
#X connect 18 0 13 0;
#X connect 19 0 20 1;
#X connect 19 0 12 0;
#X connect 20 0 0 1;
#X connect 21 0 17 0;
#X connect 22 0 25 1;
#X connect 23 0 28 0;
#X connect 24 0 29 0;
#X connect 25 0 34 0;
#X connect 28 0 32 1;
#X connect 28 0 37 1;
#X connect 29 0 22 0;
#X connect 29 0 32 0;
#X connect 30 0 24 0;
#X connect 30 0 23 0;
#X connect 31 0 25 0;
#X connect 31 1 37 0;
#X connect 32 0 33 0;
#X connect 33 0 36 0;
#X connect 34 0 43 0;
#X connect 35 0 34 0;
#X connect 36 0 22 1;
#X connect 37 0 35 0;
#X connect 38 0 23 0;
#X connect 38 0 30 0;
#X connect 39 0 24 0;
#X connect 39 0 30 0;
#X connect 40 0 29 1;
#X connect 40 0 28 1;
#X connect 40 0 30 0;
#X connect 41 0 36 1;
#X connect 41 0 30 0;
#X connect 42 0 31 0;
#X connect 43 0 27 0;
#X connect 44 0 47 1;
#X connect 45 0 50 0;
#X connect 46 0 51 0;
#X connect 47 0 56 0;
#X connect 50 0 54 1;
#X connect 50 0 59 1;
#X connect 51 0 44 0;
#X connect 51 0 54 0;
#X connect 52 0 46 0;
#X connect 52 0 45 0;
#X connect 53 0 47 0;
#X connect 53 1 59 0;
#X connect 54 0 55 0;
#X connect 55 0 58 0;
#X connect 56 0 65 0;
#X connect 57 0 56 0;
#X connect 58 0 44 1;
#X connect 59 0 57 0;
#X connect 60 0 45 0;
#X connect 60 0 52 0;
#X connect 61 0 46 0;
#X connect 61 0 52 0;
#X connect 62 0 51 1;
#X connect 62 0 50 1;
#X connect 62 0 52 0;
#X connect 63 0 58 1;
#X connect 63 0 52 0;
#X connect 64 0 53 0;
#X connect 65 0 49 0;
#X connect 66 0 69 1;
#X connect 67 0 72 0;
#X connect 68 0 73 0;
#X connect 69 0 78 0;
#X connect 72 0 76 1;
#X connect 72 0 81 1;
#X connect 73 0 66 0;
#X connect 73 0 76 0;
#X connect 74 0 68 0;
#X connect 74 0 67 0;
#X connect 75 0 69 0;
#X connect 75 1 81 0;
#X connect 76 0 77 0;
#X connect 77 0 80 0;
#X connect 78 0 87 0;
#X connect 79 0 78 0;
#X connect 80 0 66 1;
#X connect 81 0 79 0;
#X connect 82 0 67 0;
#X connect 82 0 74 0;
#X connect 83 0 68 0;
#X connect 83 0 74 0;
#X connect 84 0 73 1;
#X connect 84 0 72 1;
#X connect 84 0 74 0;
#X connect 85 0 80 1;
#X connect 85 0 74 0;
#X connect 86 0 75 0;
#X connect 87 0 71 0;
#X connect 88 0 91 1;
#X connect 89 0 94 0;
#X connect 90 0 95 0;
#X connect 91 0 100 0;
#X connect 94 0 98 1;
#X connect 94 0 103 1;
#X connect 95 0 88 0;
#X connect 95 0 98 0;
#X connect 96 0 90 0;
#X connect 96 0 89 0;
#X connect 97 0 91 0;
#X connect 97 1 103 0;
#X connect 98 0 99 0;
#X connect 99 0 102 0;
#X connect 100 0 156 0;
#X connect 101 0 100 0;
#X connect 102 0 88 1;
#X connect 103 0 101 0;
#X connect 104 0 107 1;
#X connect 105 0 110 0;
#X connect 106 0 111 0;
#X connect 107 0 116 0;
#X connect 110 0 114 1;
#X connect 110 0 119 1;
#X connect 111 0 104 0;
#X connect 111 0 114 0;
#X connect 112 0 106 0;
#X connect 112 0 105 0;
#X connect 113 0 107 0;
#X connect 113 1 119 0;
#X connect 114 0 115 0;
#X connect 115 0 118 0;
#X connect 116 0 167 0;
#X connect 117 0 116 0;
#X connect 118 0 104 1;
#X connect 119 0 117 0;
#X connect 120 0 123 1;
#X connect 121 0 126 0;
#X connect 122 0 127 0;
#X connect 123 0 132 0;
#X connect 126 0 130 1;
#X connect 126 0 135 1;
#X connect 127 0 120 0;
#X connect 127 0 130 0;
#X connect 128 0 122 0;
#X connect 128 0 121 0;
#X connect 129 0 123 0;
#X connect 129 1 135 0;
#X connect 130 0 131 0;
#X connect 131 0 134 0;
#X connect 132 0 166 0;
#X connect 133 0 132 0;
#X connect 134 0 120 1;
#X connect 135 0 133 0;
#X connect 136 0 139 1;
#X connect 137 0 142 0;
#X connect 138 0 143 0;
#X connect 139 0 148 0;
#X connect 142 0 146 1;
#X connect 142 0 151 1;
#X connect 143 0 136 0;
#X connect 143 0 146 0;
#X connect 144 0 138 0;
#X connect 144 0 137 0;
#X connect 145 0 139 0;
#X connect 145 1 151 0;
#X connect 146 0 147 0;
#X connect 147 0 150 0;
#X connect 148 0 157 0;
#X connect 149 0 148 0;
#X connect 150 0 136 1;
#X connect 151 0 149 0;
#X connect 152 0 89 0;
#X connect 152 0 96 0;
#X connect 153 0 90 0;
#X connect 153 0 96 0;
#X connect 154 0 95 1;
#X connect 154 0 94 1;
#X connect 154 0 96 0;
#X connect 155 0 102 1;
#X connect 155 0 96 0;
#X connect 156 0 93 0;
#X connect 157 0 141 0;
#X connect 158 0 150 1;
#X connect 158 0 144 0;
#X connect 159 0 143 1;
#X connect 159 0 142 1;
#X connect 159 0 144 0;
#X connect 160 0 138 0;
#X connect 160 0 144 0;
#X connect 161 0 137 0;
#X connect 161 0 144 0;
#X connect 162 0 122 0;
#X connect 162 0 128 0;
#X connect 163 0 121 0;
#X connect 163 0 128 0;
#X connect 164 0 127 1;
#X connect 164 0 126 1;
#X connect 164 0 128 0;
#X connect 165 0 134 1;
#X connect 165 0 128 0;
#X connect 166 0 125 0;
#X connect 167 0 109 0;
#X connect 168 0 118 1;
#X connect 168 0 112 0;
#X connect 169 0 111 1;
#X connect 169 0 110 1;
#X connect 169 0 112 0;
#X connect 170 0 106 0;
#X connect 170 0 112 0;
#X connect 171 0 105 0;
#X connect 171 0 112 0;
#X connect 172 0 97 0;
#X connect 173 0 113 0;
#X connect 174 0 129 0;
#X connect 175 0 145 0;
#X restore 478 439 pd tabreads;
#X msg 272 111 1;
#X obj 407 441 vsl 15 128 0 1 0 1 empty empty empty 0 -8 0 8 -262144
-1 -1 7900 1;
#X obj 484 549 *~;
#X obj 453 549 *~;
#X text 381 16 midinote;
#X text 381 55 pancenter;
#X text 281 -3 speed 1X;
#X connect 0 0 104 0;
#X connect 0 1 103 0;
#X connect 37 0 35 0;
#X connect 37 0 39 0;
#X connect 39 0 35 0;
#X connect 41 0 40 0;
#X connect 41 0 101 0;
#X connect 44 0 43 0;
#X connect 44 0 46 0;
#X connect 46 0 43 0;
#X connect 48 0 47 0;
#X connect 48 0 50 0;
#X connect 50 0 47 0;
#X connect 52 0 51 0;
#X connect 52 0 54 0;
#X connect 54 0 51 0;
#X connect 56 0 55 0;
#X connect 56 0 58 0;
#X connect 58 0 55 0;
#X connect 60 0 59 0;
#X connect 60 0 62 0;
#X connect 62 0 59 0;
#X connect 64 0 63 0;
#X connect 64 0 66 0;
#X connect 66 0 63 0;
#X connect 80 0 79 0;
#X connect 83 0 82 0;
#X connect 86 0 85 0;
#X connect 89 0 88 0;
#X connect 92 0 91 0;
#X connect 95 0 94 0;
#X connect 98 0 97 0;
#X connect 99 0 70 0;
#X connect 100 0 0 0;
#X connect 100 1 0 1;
#X connect 100 2 0 2;
#X connect 100 3 0 3;
#X connect 100 4 0 4;
#X connect 100 5 0 5;
#X connect 100 6 0 6;
#X connect 100 7 0 7;
#X connect 101 0 40 0;
#X connect 102 0 104 1;
#X connect 102 0 103 1;
#X connect 103 0 34 1;
#X connect 104 0 34 0;
