#N canvas 218 14 611 450 12;
#X obj 81 57 unpack;
#X obj 6 57 moses 1;
#X obj 18 130 mtof;
#X obj 5 6 adc~ 1;
#X floatatom 17 160 0 0 0 0 - - -;
#X obj 157 39 vsl 15 128 0 1 0 1 empty empty volume 0 -8 0 8 -262144
-1 -1 6700 1;
#X obj 199 29 env~;
#X floatatom 246 102 5 0 0 0 - - -;
#X obj 199 53 dbtorms;
#X floatatom 199 101 5 0 0 0 - - -;
#X obj 199 77 moses 0.05;
#X msg 246 123 1;
#X msg 199 122 0;
#X floatatom 138 232 5 0 0 0 - - -;
#X msg 218 150 bang;
#X obj 358 42 vsl 15 128 0 100 0 1 empty empty envelope_time 0 -8 0
8 -262144 -1 -1 12700 1;
#X obj 305 22 vsl 15 128 0 1 0 1 empty empty cutoff_amplitude 0 -8
0 8 -262144 -1 -1 100 1;
#X floatatom 80 83 5 0 0 0 - - -;
#X obj 138 208 *;
#X floatatom 305 157 5 0 0 0 - - -;
#X obj 217 263 pack 0 0;
#X obj 217 216 route 1;
#X obj 217 192 pack;
#X floatatom 217 240 5 0 0 0 - - -;
#X obj 393 252 route 1;
#X obj 393 228 pack;
#X floatatom 393 279 5 0 0 0 - - -;
#X msg 393 197 1;
#X obj 393 174 metro 10;
#X obj 393 140 tgl 15 1 empty empty empty 0 -6 0 8 -262144 -1 -1 1
1;
#X obj 470 252 route 1;
#X obj 470 228 pack;
#X floatatom 470 279 5 0 0 0 - - -;
#X msg 470 197 1;
#X obj 470 174 metro 10;
#X obj 470 140 tgl 15 1 empty empty empty 0 -6 0 8 -262144 -1 -1 1
1;
#X text 433 101 lock:;
#X text 392 118 pitch;
#X text 463 118 amplitude;
#X obj 4 82 moses 30;
#X obj 4 106 moses 100;
#X obj 5 30 fiddle~ 2048;
#X obj 217 285 line 0 10;
#X obj 81 130 s pfnote;
#X obj 126 106 int;
#N canvas 62 25 633 441 midiout 0;
#X obj 234 392 noteout;
#X obj 255 26 r pfamp;
#X obj 265 79 * 100;
#X obj 525 19 vsl 15 128 1 127 0 0 empty empty empty 0 -8 0 8 -262144
-1 -1 0 1;
#X obj 549 155 int;
#X floatatom 549 189 5 0 0 0 - - -;
#X obj 549 18 vsl 15 128 1 16 0 0 empty empty empty 0 -8 0 8 -262144
-1 -1 0 1;
#X floatatom 263 106 5 0 0 0 - - -;
#X obj 22 88 f;
#X msg 267 170 bang;
#X floatatom 22 114 5 0 0 0 - - -;
#X obj 258 135 select 0;
#X msg 258 208 0;
#X obj 33 271 f;
#X obj 25 218 t f f;
#X msg 26 244 bang;
#X obj 348 399 print;
#X obj 348 370 pack 0 0 0;
#X obj 18 164 select;
#X obj 22 136 t f f;
#X obj 143 41 pack 0 0;
#X obj 143 70 route 0;
#X text 74 154 separates out repeat notes;
#X obj 280 55 f;
#X obj 44 42 print;
#X obj 7 8 r pfnote2;
#X connect 1 0 2 0;
#X connect 1 0 23 1;
#X connect 2 0 7 0;
#X connect 3 0 2 1;
#X connect 4 0 5 0;
#X connect 5 0 0 2;
#X connect 5 0 17 2;
#X connect 6 0 4 0;
#X connect 7 0 11 0;
#X connect 7 0 20 0;
#X connect 8 0 10 0;
#X connect 8 0 0 0;
#X connect 9 0 8 0;
#X connect 9 0 5 0;
#X connect 10 0 19 0;
#X connect 11 0 9 0;
#X connect 11 0 12 0;
#X connect 11 1 9 0;
#X connect 11 1 0 1;
#X connect 11 1 17 1;
#X connect 12 0 0 1;
#X connect 12 0 17 1;
#X connect 13 0 0 0;
#X connect 13 0 17 0;
#X connect 14 0 13 1;
#X connect 14 1 12 0;
#X connect 14 1 15 0;
#X connect 15 0 13 0;
#X connect 17 0 16 0;
#X connect 18 1 14 0;
#X connect 19 0 18 1;
#X connect 19 1 18 0;
#X connect 20 0 21 0;
#X connect 25 0 8 1;
#X restore 362 379 pd midiout;
#X obj 473 310 s pfamp;
#N canvas 336 17 649 457 midiout2 0;
#X obj 234 392 noteout;
#X obj 7 8 r pfnote;
#X obj 323 9 r pfamp;
#X obj 420 251 * 100;
#X obj 546 73 vsl 15 128 1 127 0 0 empty empty empty 0 -8 0 8 -262144
-1 -1 0 1;
#X obj 569 208 int;
#X floatatom 569 242 5 0 0 0 - - -;
#X obj 570 71 vsl 15 128 1 16 0 0 empty empty empty 0 -8 0 8 -262144
-1 -1 0 1;
#X obj 348 399 print;
#X obj 350 327 pack 0 0 0;
#X msg 311 213 0;
#X obj 320 75 select;
#X obj 323 47 t f f;
#X text 379 46 cancels repeated 1 & 0;
#X obj 4 90 select;
#X obj 7 62 t f f;
#X text 62 47 cancels extra rounded numbers;
#X obj 145 150 pack 0 0;
#X obj 143 175 route 0 1;
#X obj 9 293 ==;
#X obj 346 120 route 0 1;
#X msg 346 149 0;
#X msg 379 149 1;
#X floatatom 47 118 5 0 0 0 - - -;
#X obj 47 208 f;
#X msg 47 183 bang;
#X obj 47 158 t f f;
#X floatatom 47 233 5 0 0 0 - - -;
#X obj 54 281 pack 0 0;
#X obj 103 211 pack;
#X msg 136 98 bang;
#X obj 208 250 pack 0 1;
#X obj 224 342 unpack;
#X obj 423 392 noteout;
#X obj 391 354 unpack 0 0 0;
#X obj 409 226 int;
#X obj 69 322 notein;
#X obj 67 349 pack 0 0 0;
#X obj 68 377 print;
#X connect 1 0 15 0;
#X connect 2 0 12 0;
#X connect 4 0 35 0;
#X connect 5 0 6 0;
#X connect 6 0 9 2;
#X connect 7 0 5 0;
#X connect 9 0 8 0;
#X connect 9 0 34 0;
#X connect 11 1 20 0;
#X connect 11 1 17 0;
#X connect 12 0 11 1;
#X connect 12 1 11 0;
#X connect 14 1 23 0;
#X connect 14 1 17 1;
#X connect 14 1 30 0;
#X connect 15 0 14 1;
#X connect 15 1 14 0;
#X connect 17 0 18 0;
#X connect 18 0 28 0;
#X connect 18 1 31 0;
#X connect 20 0 21 0;
#X connect 20 1 22 0;
#X connect 23 0 26 0;
#X connect 24 0 27 0;
#X connect 25 0 24 0;
#X connect 26 0 24 1;
#X connect 26 1 25 0;
#X connect 27 0 28 0;
#X connect 28 0 32 0;
#X connect 30 0 17 0;
#X connect 31 0 32 0;
#X connect 32 0 9 0;
#X connect 32 1 9 1;
#X connect 34 0 33 0;
#X connect 34 1 33 1;
#X connect 34 2 33 2;
#X connect 35 0 31 1;
#X connect 36 0 37 0;
#X connect 36 1 37 1;
#X connect 36 2 37 2;
#X connect 37 0 38 0;
#X restore 457 380 pd midiout2;
#X obj 81 105 + 0.5;
#X obj 174 178 * 10;
#X msg 130 182 bang;
#N canvas 26 3 836 543 synth 0;
#X obj 28 11 inlet;
#X obj 14 171 hip~ 5;
#X obj 14 147 *~;
#X obj 14 197 dac~;
#X obj 14 121 osc~;
#X obj 14 68 pack;
#X obj 14 94 line 0 10;
#X obj 66 35 vsl 15 50 0 100 0 0 empty empty empty 0 -8 0 8 -262144
-1 -1 600 1;
#X obj 100 167 *~;
#X obj 100 88 pack;
#X obj 100 114 line 0 10;
#X obj 167 39 vsl 15 50 0 100 0 0 empty empty empty 0 -8 0 8 -262144
-1 -1 600 1;
#X obj 100 141 phasor~;
#X obj 14 42 / 2;
#X obj 100 191 lop~ 5;
#X obj 163 192 hsl 128 15 0 1000 0 0 empty empty empty -2 -6 0 8 -262144
-1 -1 2700 1;
#X obj 359 228 *;
#X obj 384 109 env~;
#X floatatom 180 159 5 0 0 0 - - -;
#X obj 239 24 inlet;
#X obj 118 11 line;
#X obj 234 95 pack 0 100;
#X obj 341 48 vsl 15 50 0 1000 0 0 empty empty empty 0 -8 0 8 -262144
-1 -1 2200 1;
#X obj 445 154 vsl 15 128 0 1000 0 0 empty empty empty 0 -8 0 8 -262144
-1 -1 12700 1;
#X floatatom 384 64 5 0 0 0 - - -;
#X floatatom 317 207 5 0 0 0 - - -;
#X obj 367 160 dbtorms;
#X obj 384 85 osc~;
#X connect 0 0 13 0;
#X connect 0 0 9 0;
#X connect 1 0 3 0;
#X connect 1 0 3 1;
#X connect 2 0 1 0;
#X connect 4 0 2 0;
#X connect 5 0 6 0;
#X connect 6 0 4 0;
#X connect 7 0 5 1;
#X connect 8 0 14 0;
#X connect 9 0 10 0;
#X connect 10 0 12 0;
#X connect 11 0 9 1;
#X connect 12 0 8 0;
#X connect 13 0 5 0;
#X connect 14 0 3 0;
#X connect 14 0 3 1;
#X connect 15 0 14 1;
#X connect 16 0 14 1;
#X connect 17 0 16 0;
#X connect 17 0 26 0;
#X connect 19 0 8 1;
#X connect 19 0 21 0;
#X connect 20 0 8 1;
#X connect 20 0 2 1;
#X connect 21 0 20 0;
#X connect 22 0 21 1;
#X connect 23 0 16 1;
#X connect 24 0 27 0;
#X connect 26 0 25 0;
#X connect 27 0 17 0;
#X restore 238 351 pd synth;
#X connect 0 0 1 0;
#X connect 1 1 17 0;
#X connect 1 1 39 0;
#X connect 2 0 4 0;
#X connect 2 0 22 1;
#X connect 3 0 6 0;
#X connect 3 0 41 0;
#X connect 5 0 18 0;
#X connect 6 0 8 0;
#X connect 7 0 11 0;
#X connect 8 0 10 0;
#X connect 8 0 49 0;
#X connect 9 0 12 0;
#X connect 10 0 9 0;
#X connect 10 1 7 0;
#X connect 11 0 14 0;
#X connect 11 0 22 0;
#X connect 11 0 31 1;
#X connect 12 0 14 0;
#X connect 12 0 22 0;
#X connect 12 0 31 1;
#X connect 13 0 51 1;
#X connect 14 0 18 0;
#X connect 15 0 20 1;
#X connect 16 0 10 1;
#X connect 16 0 19 0;
#X connect 17 0 48 0;
#X connect 18 0 13 0;
#X connect 20 0 42 0;
#X connect 21 0 23 0;
#X connect 22 0 21 0;
#X connect 23 0 25 1;
#X connect 24 0 26 0;
#X connect 25 0 24 0;
#X connect 26 0 51 0;
#X connect 27 0 25 0;
#X connect 28 0 27 0;
#X connect 29 0 28 0;
#X connect 30 0 32 0;
#X connect 31 0 30 0;
#X connect 32 0 20 0;
#X connect 32 0 46 0;
#X connect 33 0 31 0;
#X connect 34 0 33 0;
#X connect 35 0 34 0;
#X connect 39 1 40 0;
#X connect 40 0 2 0;
#X connect 41 2 0 0;
#X connect 42 0 18 1;
#X connect 44 0 43 0;
#X connect 48 0 44 0;
#X connect 49 0 18 1;
#X connect 49 0 50 0;
#X connect 50 0 18 0;
