#N canvas 113 29 718 454 12;
#X obj 87 202 phasor~;
#X obj 87 230 *~;
#X obj 90 314 dac~;
#X floatatom 16 1 0 0 0 0 - - -;
#X obj 19 27 *;
#X msg 87 148 bang;
#X obj 88 176 /;
#X obj 85 86 hsl 595 15 0 1 0 1 empty empty empty -2 -6 0 8 -262144
-1 -1 59400 1;
#N canvas 0 22 450 300 graph5 0;
#X array loop 75600 float 2;
#X coords 0 1 75600 -1 600 50 1;
#X restore 82 27 graph;
#X obj 89 286 *~;
#X obj 17 -24 soundfiler;
#X obj 88 259 tabread4~ loop;
#X msg 17 -57 read -resize 111loopc.wav loop;
#X msg 109 -26 read -resize untitled.wav loop;
#X obj 39 198 vsl 15 128 0 1 0 0 empty empty empty 0 -8 0 8 -262144
-1 -1 6300 1;
#X obj 505 249 ctlin;
#X floatatom 507 284 5 0 0 0 - - -;
#X floatatom 465 285 5 0 0 0 - - -;
#X floatatom 557 287 5 0 0 0 - - -;
#X obj 11 142 ctlin 18;
#X obj 18 169 / 127;
#X obj 222 290 pack 0 0;
#X obj 233 271 hsl 50 15 0 5000 0 0 empty empty empty -2 -6 0 8 -262144
-1 -1 0 1;
#X obj 222 315 line 0 10;
#N canvas 408 189 106 131 glide 0;
#X obj 11 8 ctlin 19;
#X obj 11 32 / 127;
#X obj 12 83 outlet;
#X obj 11 57 * 5000;
#X connect 0 0 1 0;
#X connect 1 0 3 0;
#X connect 3 0 2 0;
#X restore 230 245 pd glide;
#N canvas 524 146 426 464 midinotein 0;
#X obj 81 32 stripnote;
#X obj 109 282 mtof;
#X floatatom 109 307 0 0 0 0 - - -;
#X obj 109 332 outlet;
#X obj 287 15 bendin;
#X obj 287 39 / 8192;
#X obj 288 84 * 1;
#X obj 354 16 inlet;
#X obj 288 61 - 1;
#X obj 109 186 + 0;
#X msg 288 108 bang;
#X msg 327 84 bang;
#X obj 57 130 inlet;
#X msg 58 156 bang;
#X obj 109 159 + 0;
#X obj 9 10 inlet;
#X floatatom 109 212 5 0 0 0 - - -;
#X floatatom 11 34 5 0 0 0 - - -;
#X obj 13 79 /;
#X msg 4 55 1;
#X floatatom 5 102 5 0 0 0 - - -;
#X obj 8 129 ftom;
#X floatatom 8 155 5 0 0 0 - - -;
#X obj 109 257 +;
#X floatatom 172 224 5 0 0 0 - - -;
#X obj 109 233 - 60;
#X text 171 200 midinote center;
#X obj 173 248 inlet;
#X obj 81 7 notein;
#X floatatom 163 30 5 0 0 0 - - -;
#X connect 0 0 14 0;
#X connect 1 0 2 0;
#X connect 2 0 3 0;
#X connect 4 0 5 0;
#X connect 5 0 8 0;
#X connect 6 0 9 1;
#X connect 6 0 10 0;
#X connect 7 0 6 1;
#X connect 7 0 11 0;
#X connect 8 0 6 0;
#X connect 9 0 16 0;
#X connect 10 0 9 0;
#X connect 11 0 6 0;
#X connect 12 0 13 0;
#X connect 12 0 14 1;
#X connect 13 0 14 0;
#X connect 14 0 9 0;
#X connect 15 0 17 0;
#X connect 16 0 25 0;
#X connect 17 0 18 1;
#X connect 17 0 19 0;
#X connect 18 0 20 0;
#X connect 19 0 18 0;
#X connect 20 0 21 0;
#X connect 21 0 22 0;
#X connect 22 0 23 1;
#X connect 23 0 1 0;
#X connect 24 0 25 1;
#X connect 25 0 23 0;
#X connect 27 0 24 0;
#X connect 28 0 0 0;
#X connect 28 1 0 1;
#X connect 28 2 29 0;
#X restore 222 220 pd midinotein;
#X msg 34 60 bang;
#N canvas 503 6 324 293 tune 0;
#X obj 13 46 outlet;
#X obj 50 226 outlet;
#X obj 22 143 unpack;
#X obj 21 89 r~ tunein;
#X floatatom 19 168 5 0 0 0 - - -;
#X obj 72 143 notein;
#X floatatom 76 168 5 0 0 0 - - -;
#X obj 14 15 hsl 128 15 -30 30 0 0 empty empty empty -2 -6 0 8 -262144
-1 -1 6350 1;
#X floatatom 74 196 5 0 0 0 - - -;
#X obj 34 195 -;
#X obj 168 87 bng 30 250 50 0 empty empty empty 0 -6 0 8 -262144 -1
-1;
#X obj 183 122 pack set 0;
#X obj 152 144 f;
#X obj 175 170 -;
#X text 206 89 autotune;
#X obj 168 51 inlet;
#X msg 156 20 0;
#X obj 233 15 inlet;
#X obj 22 116 fiddle~ 5048;
#X connect 2 0 4 0;
#X connect 3 0 18 0;
#X connect 4 0 9 0;
#X connect 5 0 6 0;
#X connect 6 0 9 1;
#X connect 7 0 0 0;
#X connect 7 0 12 1;
#X connect 8 0 11 1;
#X connect 8 0 13 1;
#X connect 9 0 8 0;
#X connect 9 0 1 0;
#X connect 10 0 11 0;
#X connect 10 0 12 0;
#X connect 12 0 13 0;
#X connect 13 0 7 0;
#X connect 15 0 10 0;
#X connect 16 0 7 0;
#X connect 17 0 16 0;
#X connect 18 2 2 0;
#X restore 222 194 pd tune;
#N canvas 504 97 301 221 bendrange 0;
#X obj 10 7 inlet;
#X obj 13 94 int;
#X obj 64 8 inlet;
#X obj 13 69 route 1 0;
#X obj 65 40 pack;
#X obj 33 127 outlet;
#X msg 12 41 bang;
#X connect 0 0 4 1;
#X connect 0 0 6 0;
#X connect 1 0 5 0;
#X connect 2 0 4 0;
#X connect 3 0 1 0;
#X connect 3 1 5 0;
#X connect 4 0 3 0;
#X connect 6 0 4 0;
#X restore 351 176 pd bendrange;
#X obj 354 154 hsl 128 15 0 24 0 1 empty empty empty -2 -6 0 8 -262144
-1 -1 1400 1;
#X obj 454 179 tgl 15 1 empty empty empty 0 -6 0 8 -262144 -1 -1 1
1;
#X floatatom 351 202 5 0 0 0 - - -;
#X obj 123 286 s~ tunein;
#X obj 419 -60 adc~;
#X obj 486 -60 bng 30 250 50 0 empty empty empty 0 -6 0 8 -262144 -1
-1;
#X obj 222 160 bng 30 250 50 0 empty empty empty 0 -6 0 8 -262144 -1
-1;
#X floatatom 288 194 5 0 0 0 - - -;
#X obj 171 106 ctlin 17;
#X obj 124 107 / 127;
#X obj 14 86 / 44100;
#X floatatom 61 109 5 0 0 0 - - -;
#X obj 273 175 bng 15 250 50 0 empty empty empty 0 -6 0 8 -262144 -1
-1;
#X obj 623 -53 vsl 15 50 0 1 0 1 empty empty empty 0 -8 0 8 -262144
-1 -1 4900 1;
#X obj 422 -33 *~;
#X floatatom 334 242 5 0 0 0 - - -;
#X text 333 220 midinote center;
#X obj 422 -8 tabwrite~ loop;
#X text 522 -62 record input;
#X text 202 139 autotune;
#X text 257 157 tune to c4;
#X connect 0 0 1 0;
#X connect 1 0 11 0;
#X connect 3 0 4 1;
#X connect 3 0 4 0;
#X connect 3 0 26 0;
#X connect 3 0 39 0;
#X connect 4 0 1 1;
#X connect 5 0 6 0;
#X connect 6 0 0 0;
#X connect 7 0 6 1;
#X connect 7 0 5 0;
#X connect 7 0 4 0;
#X connect 9 0 2 0;
#X connect 9 0 2 1;
#X connect 10 0 3 0;
#X connect 11 0 9 0;
#X connect 11 0 32 0;
#X connect 12 0 10 0;
#X connect 13 0 10 0;
#X connect 14 0 9 1;
#X connect 15 0 17 0;
#X connect 15 1 16 0;
#X connect 15 2 18 0;
#X connect 19 0 20 0;
#X connect 20 0 14 0;
#X connect 21 0 23 0;
#X connect 22 0 21 1;
#X connect 23 0 6 0;
#X connect 24 0 22 0;
#X connect 25 0 21 0;
#X connect 26 0 7 0;
#X connect 27 0 25 1;
#X connect 27 1 36 0;
#X connect 28 0 31 0;
#X connect 29 0 28 0;
#X connect 30 0 28 1;
#X connect 31 0 25 3;
#X connect 33 0 43 0;
#X connect 33 1 43 0;
#X connect 34 0 46 0;
#X connect 35 0 27 0;
#X connect 37 0 38 0;
#X connect 38 0 7 0;
#X connect 38 0 26 0;
#X connect 39 0 40 0;
#X connect 40 0 25 0;
#X connect 41 0 27 1;
#X connect 42 0 43 1;
#X connect 43 0 46 0;
#X connect 44 0 25 2;
