#N canvas 212 26 410 366 12;
#X obj 80 4 bng 150 250 50 0 red redin empty 0 -6 0 8 -261689 -258699
-1;
#X obj 230 4 bng 150 250 50 0 blue bluein empty 0 -6 0 8 -228992 -62784
-1;
#X obj 80 154 bng 150 250 50 0 green greenin empty 0 -6 0 8 -225271
-24198 -1;
#X obj 230 154 bng 150 250 50 0 yellow yellowin empty 0 -6 0 8 -262131
-241291 -1;
#X obj 23 45 bng 40 250 50 0 start startin START! 0 -6 0 8 -24198 -225271
-1;
#X obj 22 101 bng 40 250 50 0 stop stopin STOP! 0 -6 0 8 -258699 -261689
-1;
#X floatatom 55 8 2 0 0 0 level level hshs;
#N canvas 496 340 454 304 secrets 0;
#N canvas 512 68 124 117 mixer 0;
#X obj 5 5 inlet~;
#X obj 5 83 dac~ 1 2;
#X obj 58 5 inlet;
#X obj 19 33 moses 0.011;
#X msg 58 57 0;
#X obj 5 57 *~ 0.5;
#X connect 0 0 5 0;
#X connect 2 0 3 0;
#X connect 3 0 4 0;
#X connect 3 1 5 1;
#X connect 4 0 5 1;
#X connect 5 0 1 0;
#X connect 5 0 1 1;
#X restore 60 140 pd mixer;
#N canvas 254 229 436 227 assign 0;
#X obj 11 10 r red;
#X obj 11 166 mtof;
#X msg 41 128 60;
#X obj 168 10 r green;
#X obj 89 10 r blue;
#X obj 246 9 r yellow;
#X msg 194 128 64;
#X msg 270 127 62;
#X obj 11 188 outlet;
#X msg 111 128 55;
#X obj 222 59 tgl 15 0 empty playgreen empty 0 -6 0 8 -262144 -1 -1
1 1;
#X obj 168 102 route 0 1;
#X obj 168 79 pack;
#X obj 168 56 f;
#X obj 168 33 t b f;
#X obj 223 173 outlet;
#X obj 126 59 tgl 15 0 empty playblue empty 0 -6 0 8 -262144 -1 -1
1 1;
#X obj 89 102 route 0 1;
#X obj 89 79 pack;
#X obj 89 56 f;
#X obj 89 33 t b f;
#X obj 11 102 route 0 1;
#X obj 11 79 pack;
#X obj 11 56 f;
#X obj 11 33 t b f;
#X obj 246 101 route 0 1;
#X obj 246 78 pack;
#X obj 246 55 f;
#X obj 246 32 t b f;
#X obj 45 58 tgl 15 0 empty playred empty 0 -6 0 8 -262144 -1 -1 1
1;
#X obj 282 58 tgl 15 0 empty playyellow empty 0 -6 0 8 -262144 -1 -1
1 1;
#X obj 276 151 delay 2000;
#X obj 325 33 1;
#X obj 325 55 s playred;
#X obj 325 78 s playblue;
#X obj 325 124 s playyellow;
#X obj 325 101 s playgreen;
#X obj 276 175 s stop;
#X obj 325 9 delay 2000;
#X connect 0 0 24 0;
#X connect 1 0 8 0;
#X connect 2 0 1 0;
#X connect 3 0 14 0;
#X connect 4 0 20 0;
#X connect 5 0 28 0;
#X connect 6 0 1 0;
#X connect 7 0 1 0;
#X connect 9 0 1 0;
#X connect 10 0 13 1;
#X connect 11 0 15 0;
#X connect 11 0 31 0;
#X connect 11 1 6 0;
#X connect 12 0 11 0;
#X connect 13 0 12 0;
#X connect 14 0 13 0;
#X connect 14 1 12 1;
#X connect 16 0 19 1;
#X connect 17 0 15 0;
#X connect 17 0 31 0;
#X connect 17 1 9 0;
#X connect 18 0 17 0;
#X connect 19 0 18 0;
#X connect 20 0 19 0;
#X connect 20 1 18 1;
#X connect 21 0 15 0;
#X connect 21 0 31 0;
#X connect 21 1 2 0;
#X connect 22 0 21 0;
#X connect 23 0 22 0;
#X connect 24 0 23 0;
#X connect 24 1 22 1;
#X connect 25 0 15 0;
#X connect 25 0 31 0;
#X connect 25 1 7 0;
#X connect 26 0 25 0;
#X connect 27 0 26 0;
#X connect 28 0 27 0;
#X connect 28 1 26 1;
#X connect 29 0 23 1;
#X connect 30 0 27 1;
#X connect 31 0 37 0;
#X connect 31 0 38 0;
#X connect 32 0 33 0;
#X connect 32 0 34 0;
#X connect 32 0 36 0;
#X connect 32 0 35 0;
#X connect 38 0 32 0;
#X restore 4 52 pd assign;
#X obj 4 75 t f f;
#N canvas 19 82 460 407 selector 0;
#X obj 11 319 s redin;
#X obj 72 319 s bluein;
#X obj 11 344 s greenin;
#X obj 88 344 s yellowin;
#X obj 157 209 s pause;
#N canvas 0 0 466 316 graph1 0;
#X array memory 15 float 2;
#X coords 0 3.5 15 -0.5 200 140 1;
#X restore 227 206 graph;
#X obj 11 294 select 0 1 2 3;
#X obj 235 2 r start;
#X obj 235 118 random 4;
#X msg 235 26 1;
#X obj 328 142 f;
#X obj 278 142 t f b;
#X obj 278 166 tabwrite memory;
#X obj 235 95 t b b;
#X obj 284 95 f;
#X obj 235 49 t f f;
#X msg 305 118 0;
#X obj 314 95 + 1;
#X obj 343 95 select 16;
#X obj 314 72 t f f;
#X obj 347 119 - 1;
#X obj 11 1 r start;
#X obj 11 94 metro;
#X obj 56 94 r tempo;
#X obj 11 141 f;
#X obj 82 156 + 1;
#X obj 11 271 tabread memory;
#X msg 11 71 1;
#X obj 95 24 r stop;
#X msg 63 47 0;
#X obj 122 115 r level;
#X obj 11 190 select;
#X obj 11 24 delay 700;
#X floatatom 56 117 5 0 0 0 - - -;
#X floatatom 133 278 5 0 0 0 - - -;
#X floatatom 74 249 5 0 0 0 - - -;
#X obj 11 47 t b b;
#X floatatom 120 147 5 0 0 0 - - -;
#X msg 157 187 1;
#X obj 211 29 bng 15 250 50 0 empty empty empty 0 -6 0 8 -262144 -1
-1;
#X obj 11 166 t f f;
#X obj 11 247 f;
#X obj 11 214 t b b;
#X obj 149 24 r pause;
#X msg 48 138 0;
#X obj 171 147 - 1;
#X obj 149 48 select 0 1;
#X obj 235 72 metro 1;
#X connect 6 0 0 0;
#X connect 6 1 1 0;
#X connect 6 2 2 0;
#X connect 6 3 3 0;
#X connect 7 0 9 0;
#X connect 8 0 11 0;
#X connect 9 0 15 0;
#X connect 10 0 12 1;
#X connect 11 0 12 0;
#X connect 11 1 10 0;
#X connect 13 0 8 0;
#X connect 13 1 14 0;
#X connect 14 0 19 0;
#X connect 15 0 47 0;
#X connect 15 1 14 1;
#X connect 16 0 47 0;
#X connect 17 0 14 1;
#X connect 18 0 16 0;
#X connect 18 1 20 0;
#X connect 19 0 17 0;
#X connect 19 1 18 0;
#X connect 20 0 10 1;
#X connect 21 0 32 0;
#X connect 22 0 24 0;
#X connect 23 0 22 1;
#X connect 23 0 33 0;
#X connect 24 0 25 0;
#X connect 24 0 40 0;
#X connect 25 0 24 1;
#X connect 26 0 6 0;
#X connect 26 0 34 0;
#X connect 27 0 22 0;
#X connect 28 0 29 0;
#X connect 29 0 22 0;
#X connect 30 0 37 0;
#X connect 30 0 45 0;
#X connect 31 0 38 0;
#X connect 31 0 42 0;
#X connect 31 1 26 0;
#X connect 32 0 36 0;
#X connect 36 0 27 0;
#X connect 36 1 44 0;
#X connect 38 0 4 0;
#X connect 40 0 31 0;
#X connect 40 1 41 1;
#X connect 41 0 26 0;
#X connect 42 0 29 0;
#X connect 42 1 41 0;
#X connect 43 0 39 0;
#X connect 43 0 46 0;
#X connect 44 0 24 1;
#X connect 45 0 31 1;
#X connect 46 0 32 0;
#X connect 46 1 29 0;
#X connect 47 0 13 0;
#X coords 0 0 1 1 85 60 0;
#X restore 5 6 pd selector;
#X floatatom 99 7 0 0 1000 0 - tempoin tempo;
#N canvas 32 69 936 314 game 0;
#X obj 7 7 r start;
#X obj 17 102 s level;
#X msg 17 78 1;
#X obj 7 -56 loadbang;
#X msg 7 -33 \; pd dsp 1;
#X obj 128 -50 r pause;
#X obj 136 77 s playred;
#X obj 136 100 s playblue;
#X obj 136 146 s playyellow;
#X obj 136 123 s playgreen;
#X obj 188 45 0;
#X obj 77 54 1;
#X obj 141 45 s ask;
#X obj 421 97 tabread memory;
#X obj 273 -54 r ask;
#X obj 790 43 r level;
#X floatatom 800 71 2 0 0 0 - - -;
#X obj 421 121 select 0 1 2 3;
#X msg 517 144 1;
#X msg 485 144 1;
#X msg 453 144 1;
#X msg 421 144 1;
#X obj 421 190 s playred;
#X obj 498 190 s playblue;
#X obj 421 213 s playgreen;
#X obj 514 213 s playyellow;
#X obj 69 6 r stop;
#X obj 627 111 select;
#X obj 550 -54 r red;
#X obj 627 65 pack;
#X msg 141 21 1;
#X obj 627 88 route 0 1;
#X obj 627 41 f;
#X obj 627 18 t b f;
#X obj 594 -54 r blue;
#X obj 648 -54 r green;
#X obj 709 -54 r yellow;
#X msg 550 -6 0;
#X msg 595 -6 1;
#X msg 710 -6 3;
#X msg 649 -5 2;
#X obj 273 -30 t f f;
#X obj 772 209 s level;
#X obj 772 140 f;
#X obj 772 187 + 1;
#X msg 627 157 0;
#X obj 127 -2 f;
#X obj 127 -25 t f f;
#X obj 175 -25 select 1 0;
#X obj 627 204 s pause;
#X obj 253 21 1;
#X obj 272 -6 select 0 1;
#X floatatom 318 -52 5 0 0 0 - - -;
#X obj 836 149 s remain;
#X obj 436 -53 r level;
#X obj 365 -53 r remain;
#X obj 438 -7 -;
#X obj 468 -7 * -1;
#X obj 391 91 f;
#X floatatom 385 -29 5 0 0 0 - - -;
#X floatatom 449 -30 5 0 0 0 - - -;
#X msg 7 125 0;
#X obj 2 156 s ask;
#X obj 48 156 s pause;
#X msg 52 78 0;
#X msg 517 167 0;
#X msg 485 167 0;
#X msg 453 167 0;
#X msg 421 167 0;
#X obj 365 -8 select 0;
#X obj 423 73 s pause;
#X msg 423 25 0;
#X obj 220 44 s ask;
#X msg 220 21 0;
#X obj 7 54 delay 50;
#X obj 175 21 t b b;
#X obj 175 -2 delay 500;
#X obj 688 180 s remain;
#X obj 627 134 t b b b;
#X msg 660 157 0;
#X obj 673 18 unpack;
#X obj 727 18 select;
#X obj 782 18 r remain;
#X obj 727 43 f;
#X obj 727 67 - 1;
#X obj 695 157 delay 100;
#X obj 851 91 f;
#X obj 851 43 r pause;
#X floatatom 503 -29 5 0 0 0 - - -;
#X obj 550 65 pack;
#X obj 550 88 route 0 1;
#X obj 550 41 f;
#X obj 550 18 t b f;
#X obj 302 18 select 0;
#X msg 302 43 0;
#X obj 788 114 f;
#X obj 727 90 t b f;
#X obj 336 43 r pause;
#X obj 348 67 f;
#X obj 352 91 pack;
#X obj 302 67 t b f;
#X obj 291 91 route 1;
#X obj 851 67 select 1;
#X obj 727 114 delay 5;
#N canvas 0 0 145 141 /SUBPATCH/ 0;
#X obj 7 8 inlet;
#X obj 8 104 outlet;
#X obj 32 58 pack;
#X obj 53 8 r winner;
#X obj 53 32 f;
#X obj 7 32 t b f;
#X obj 8 81 route 0;
#X connect 0 0 5 0;
#X connect 2 0 6 0;
#X connect 3 0 4 1;
#X connect 4 0 2 0;
#X connect 5 0 4 0;
#X connect 5 1 2 1;
#X connect 6 0 1 0;
#X restore 550 -30 pd;
#N canvas 0 0 145 141 Pd 0;
#X obj 7 8 inlet;
#X obj 8 104 outlet;
#X obj 32 58 pack;
#X obj 53 8 r winner;
#X obj 53 32 f;
#X obj 7 32 t b f;
#X obj 8 81 route 0;
#X connect 0 0 5 0;
#X connect 2 0 6 0;
#X connect 3 0 4 1;
#X connect 4 0 2 0;
#X connect 5 0 4 0;
#X connect 5 1 2 1;
#X connect 6 0 1 0;
#X restore 594 -30 pd;
#N canvas 0 0 145 141 Pd 0;
#X obj 7 8 inlet;
#X obj 8 104 outlet;
#X obj 32 58 pack;
#X obj 53 8 r winner;
#X obj 53 32 f;
#X obj 7 32 t b f;
#X obj 8 81 route 0;
#X connect 0 0 5 0;
#X connect 2 0 6 0;
#X connect 3 0 4 1;
#X connect 4 0 2 0;
#X connect 5 0 4 0;
#X connect 5 1 2 1;
#X connect 6 0 1 0;
#X restore 649 -29 pd;
#N canvas 0 0 145 141 /SUBPATCH/ 0;
#X obj 7 8 inlet;
#X obj 8 104 outlet;
#X obj 32 58 pack;
#X obj 53 8 r winner;
#X obj 53 32 f;
#X obj 7 32 t b f;
#X obj 8 81 route 0;
#X connect 0 0 5 0;
#X connect 2 0 6 0;
#X connect 3 0 4 1;
#X connect 4 0 2 0;
#X connect 5 0 4 0;
#X connect 5 1 2 1;
#X connect 6 0 1 0;
#X restore 710 -29 pd;
#X msg 12 30 0;
#X obj 45 30 s winner;
#N canvas 0 0 145 141 /SUBPATCH/ 0;
#X obj 7 8 inlet;
#X obj 8 104 outlet;
#X obj 32 58 pack;
#X obj 53 8 r winner;
#X obj 53 32 f;
#X obj 7 32 t b f;
#X obj 8 81 route 0;
#X connect 0 0 5 0;
#X connect 2 0 6 0;
#X connect 3 0 4 1;
#X connect 4 0 2 0;
#X connect 5 0 4 0;
#X connect 5 1 2 1;
#X connect 6 0 1 0;
#X restore 772 163 pd;
#N canvas 0 0 198 203 a 0;
#X obj 16 74 pack;
#X obj 16 28 t b f;
#X obj 16 51 f;
#X obj 67 120 unpack;
#X obj 16 120 s win;
#X obj 54 50 r level;
#X obj 16 4 inlet;
#X obj 107 145 outlet;
#X obj 16 97 route 15;
#X connect 0 0 8 0;
#X connect 1 0 2 0;
#X connect 1 1 0 1;
#X connect 2 0 0 0;
#X connect 3 1 7 0;
#X connect 5 0 2 1;
#X connect 6 0 1 0;
#X connect 8 0 4 0;
#X connect 8 1 3 0;
#X restore 423 49 pd a;
#N canvas 0 0 194 199 a 0;
#X obj 16 74 pack;
#X obj 16 28 t b f;
#X obj 16 51 f;
#X obj 67 120 unpack;
#X obj 16 120 s win;
#X obj 54 50 r level;
#X obj 16 4 inlet;
#X obj 107 145 outlet;
#X obj 16 97 route 15;
#X connect 0 0 8 0;
#X connect 1 0 2 0;
#X connect 1 1 0 1;
#X connect 2 0 0 0;
#X connect 3 1 7 0;
#X connect 5 0 2 1;
#X connect 6 0 1 0;
#X connect 8 0 4 0;
#X connect 8 1 3 0;
#X restore 627 181 pd a;
#X connect 0 0 74 0;
#X connect 0 0 108 0;
#X connect 2 0 1 0;
#X connect 3 0 4 0;
#X connect 3 0 11 0;
#X connect 5 0 47 0;
#X connect 10 0 6 0;
#X connect 10 0 7 0;
#X connect 10 0 8 0;
#X connect 10 0 9 0;
#X connect 11 0 6 0;
#X connect 11 0 7 0;
#X connect 11 0 8 0;
#X connect 11 0 9 0;
#X connect 13 0 17 0;
#X connect 13 0 27 1;
#X connect 13 0 81 1;
#X connect 14 0 41 0;
#X connect 14 0 52 0;
#X connect 15 0 43 1;
#X connect 15 0 16 0;
#X connect 15 0 86 1;
#X connect 17 0 21 0;
#X connect 17 0 68 0;
#X connect 17 1 20 0;
#X connect 17 1 67 0;
#X connect 17 2 19 0;
#X connect 17 2 66 0;
#X connect 17 3 18 0;
#X connect 17 3 65 0;
#X connect 18 0 25 0;
#X connect 19 0 24 0;
#X connect 20 0 23 0;
#X connect 21 0 22 0;
#X connect 26 0 11 0;
#X connect 26 0 64 0;
#X connect 27 0 78 0;
#X connect 28 0 104 0;
#X connect 29 0 31 0;
#X connect 30 0 12 0;
#X connect 31 1 27 0;
#X connect 31 2 80 0;
#X connect 32 0 29 0;
#X connect 33 0 32 0;
#X connect 33 1 29 1;
#X connect 34 0 105 0;
#X connect 35 0 106 0;
#X connect 36 0 107 0;
#X connect 37 0 92 0;
#X connect 38 0 92 0;
#X connect 39 0 92 0;
#X connect 40 0 92 0;
#X connect 41 0 91 1;
#X connect 41 1 51 0;
#X connect 43 0 110 0;
#X connect 44 0 42 0;
#X connect 45 0 112 0;
#X connect 47 0 48 0;
#X connect 47 1 46 1;
#X connect 48 0 46 0;
#X connect 48 0 76 0;
#X connect 48 1 73 0;
#X connect 48 1 50 0;
#X connect 50 0 8 0;
#X connect 50 0 9 0;
#X connect 50 0 7 0;
#X connect 50 0 6 0;
#X connect 51 1 58 0;
#X connect 54 0 56 1;
#X connect 54 0 60 0;
#X connect 55 0 59 0;
#X connect 55 0 69 0;
#X connect 56 0 57 0;
#X connect 57 0 88 0;
#X connect 57 0 93 0;
#X connect 58 0 13 0;
#X connect 61 0 62 0;
#X connect 61 0 63 0;
#X connect 64 0 62 0;
#X connect 65 0 23 0;
#X connect 65 0 22 0;
#X connect 65 0 24 0;
#X connect 66 0 23 0;
#X connect 66 0 22 0;
#X connect 66 0 25 0;
#X connect 67 0 22 0;
#X connect 67 0 24 0;
#X connect 67 0 25 0;
#X connect 68 0 24 0;
#X connect 68 0 25 0;
#X connect 68 0 23 0;
#X connect 69 0 71 0;
#X connect 69 1 56 0;
#X connect 69 1 32 1;
#X connect 71 0 111 0;
#X connect 73 0 72 0;
#X connect 74 0 2 0;
#X connect 74 0 61 0;
#X connect 75 0 30 0;
#X connect 75 1 10 0;
#X connect 76 0 75 0;
#X connect 78 0 45 0;
#X connect 78 1 79 0;
#X connect 78 2 85 0;
#X connect 79 0 77 0;
#X connect 80 1 81 0;
#X connect 81 0 83 0;
#X connect 82 0 83 1;
#X connect 83 0 84 0;
#X connect 84 0 96 0;
#X connect 85 0 43 0;
#X connect 86 0 53 0;
#X connect 87 0 102 0;
#X connect 89 0 90 0;
#X connect 90 1 33 0;
#X connect 91 0 89 0;
#X connect 92 0 91 0;
#X connect 92 1 89 1;
#X connect 93 0 94 0;
#X connect 93 1 58 0;
#X connect 94 0 100 0;
#X connect 95 0 53 0;
#X connect 96 0 103 0;
#X connect 96 1 95 1;
#X connect 97 0 98 1;
#X connect 98 0 99 0;
#X connect 99 0 101 0;
#X connect 100 0 98 0;
#X connect 100 1 99 1;
#X connect 101 0 58 1;
#X connect 102 0 86 0;
#X connect 103 0 95 0;
#X connect 104 0 37 0;
#X connect 105 0 38 0;
#X connect 106 0 40 0;
#X connect 107 0 39 0;
#X connect 108 0 109 0;
#X connect 110 0 44 0;
#X connect 111 0 70 0;
#X connect 112 0 49 0;
#X restore 5 29 pd game;
#N canvas 0 0 260 272 tone 0;
#X obj 17 119 osc~;
#X obj 17 143 *~;
#X obj 17 87 inlet;
#X obj 60 115 pack f 5;
#X obj 60 146 line~;
#X obj 73 20 inlet;
#X obj 17 212 outlet~;
#X obj 72 68 delay 800;
#X msg 79 91 1;
#X msg 109 91 0;
#X obj 131 21 r tempo;
#X obj 17 185 *~ 1;
#X obj 59 173 r fail;
#X obj 73 45 bang;
#X obj 132 44 / 1.2;
#X obj 180 52 r ask;
#X obj 167 82 select 1;
#X msg 164 110 300;
#X connect 0 0 1 0;
#X connect 1 0 11 0;
#X connect 2 0 0 0;
#X connect 3 0 4 0;
#X connect 4 0 1 1;
#X connect 5 0 13 0;
#X connect 7 0 9 0;
#X connect 8 0 3 0;
#X connect 9 0 3 0;
#X connect 10 0 14 0;
#X connect 11 0 6 0;
#X connect 12 0 11 1;
#X connect 13 0 7 0;
#X connect 13 0 8 0;
#X connect 14 0 7 1;
#X connect 15 0 16 0;
#X connect 16 0 17 0;
#X connect 17 0 7 1;
#X restore 4 98 pd tone;
#N canvas 476 393 277 242 badtone 0;
#X obj 11 16 *~;
#X obj 94 93 pack f 5;
#X obj 94 116 line~;
#X obj 121 21 inlet;
#X obj 10 49 outlet~;
#X msg 143 69 0;
#X msg 113 69 0.7;
#X obj 50 17 *~;
#X obj 11 -8 osc~ 160.1;
#X obj 185 22 bang;
#X obj 143 117 * -1;
#X obj 143 141 + 0.7;
#X obj 143 168 s fail;
#X obj 126 44 delay 1500;
#X obj 98 -8 osc~ 145;
#X connect 0 0 4 0;
#X connect 1 0 2 0;
#X connect 2 0 7 1;
#X connect 2 0 0 1;
#X connect 3 0 9 0;
#X connect 3 0 6 0;
#X connect 5 0 1 0;
#X connect 5 0 10 0;
#X connect 6 0 1 0;
#X connect 6 0 10 0;
#X connect 7 0 4 0;
#X connect 8 0 0 0;
#X connect 9 0 13 0;
#X connect 10 0 11 0;
#X connect 11 0 12 0;
#X connect 13 0 5 0;
#X connect 14 0 7 0;
#X restore 71 75 pd badtone;
#N canvas 0 0 290 209 tempo 0;
#X obj 21 57 * -1;
#X obj 21 33 - 1;
#X obj 21 81 + 15;
#X obj 21 153 s tempo;
#X obj 21 9 r level;
#X obj 92 125 s tempoin;
#X obj 21 104 * 50;
#X obj 21 128 + 300;
#X connect 0 0 2 0;
#X connect 1 0 0 0;
#X connect 2 0 6 0;
#X connect 4 0 1 0;
#X connect 6 0 7 0;
#X connect 7 0 3 0;
#X connect 7 0 5 0;
#X restore 68 30 pd tempo;
#N canvas 222 184 281 301 winner 0;
#N canvas 0 0 466 316 graph1 0;
#X array win 7 float 3;
#A 0 0 3 2 0 1 3 0;
#X coords 0 0 1 1 100 70 0;
#X restore 127 253 graph;
#X obj 97 195 s redin;
#X obj 158 195 s bluein;
#X obj 97 220 s greenin;
#X obj 174 220 s yellowin;
#X obj 97 170 select 0 1 2 3;
#X obj 17 18 r win;
#X obj 16 216 f;
#X obj 23 239 + 1;
#X msg 45 216 0;
#X obj 16 170 t b b;
#X obj 19 262 select 6;
#X msg 53 239 0;
#X obj 97 147 tabread win;
#X obj 16 193 metro 130;
#X obj 150 52 s playred;
#X obj 150 75 s playblue;
#X obj 150 121 s playyellow;
#X obj 150 98 s playgreen;
#X msg 69 116 1;
#X obj 17 41 bang;
#X obj 16 147 delay 500;
#X obj 57 88 delay 400;
#X floatatom 199 260 0 0 0 0 - winner -;
#X msg 63 40 1;
#X obj 63 63 s winner;
#X obj 63 17 delay 1;
#X connect 5 0 1 0;
#X connect 5 1 2 0;
#X connect 5 2 3 0;
#X connect 5 3 4 0;
#X connect 6 0 20 0;
#X connect 7 0 8 0;
#X connect 7 0 11 0;
#X connect 7 0 13 0;
#X connect 8 0 7 1;
#X connect 9 0 7 1;
#X connect 10 0 14 0;
#X connect 10 1 9 0;
#X connect 11 0 12 0;
#X connect 12 0 14 0;
#X connect 13 0 5 0;
#X connect 14 0 7 0;
#X connect 19 0 15 0;
#X connect 19 0 16 0;
#X connect 19 0 18 0;
#X connect 19 0 17 0;
#X connect 20 0 21 0;
#X connect 20 0 22 0;
#X connect 20 0 26 0;
#X connect 21 0 10 0;
#X connect 22 0 19 0;
#X connect 24 0 25 0;
#X connect 26 0 24 0;
#X restore 80 52 pd winner;
#X obj 89 108 r volume;
#X connect 1 0 2 0;
#X connect 1 1 7 0;
#X connect 2 0 6 1;
#X connect 2 1 6 0;
#X connect 6 0 0 0;
#X connect 7 0 0 0;
#X connect 10 0 0 1;
#X restore 23 312 pd secrets;
#X obj 25 162 vsl 30 128 0.01 1 1 1 volume volll volume 0 -8 0 8 -262144
-1 -1 5600 1;
