#N canvas 20 22 951 701 12;
#X msg 292 516 bang;
#X obj 307 643 dac~;
#X floatatom 19 69 0 0 0 0 - - -;
#X obj 14 480 pack;
#N canvas 0 22 381 272 stepsequencer 0;
#X obj 29 140 f;
#X obj 59 140 + 1;
#X obj 29 113 metro 500;
#X floatatom 29 168 5 0 0 0 - - -;
#X msg 91 141 1;
#X obj 125 141 select 16;
#X floatatom 203 143 2 8 32 0 - - -;
#X floatatom 225 65 5 40 240 0 - - -;
#X obj 120 113 /;
#X msg 120 67 bang;
#X obj 153 113 / 60000;
#X msg 118 38 1;
#X obj 120 90 1;
#X msg 151 38 2;
#X msg 215 38 4;
#X msg 178 62 bang;
#X msg 183 38 3;
#X obj 28 198 outlet;
#X obj 161 11 inlet tempo;
#X obj 12 10 inlet start;
#X obj 35 31 inlet stop;
#X obj 227 106 inlet steps;
#X obj 184 87 * 4;
#X connect 0 0 1 0;
#X connect 0 0 3 0;
#X connect 0 0 5 0;
#X connect 1 0 0 1;
#X connect 2 0 0 0;
#X connect 3 0 17 0;
#X connect 4 0 0 1;
#X connect 5 0 4 0;
#X connect 6 0 5 1;
#X connect 7 0 9 0;
#X connect 7 0 22 0;
#X connect 8 0 2 1;
#X connect 9 0 12 0;
#X connect 10 0 8 1;
#X connect 11 0 15 0;
#X connect 11 0 22 1;
#X connect 12 0 8 0;
#X connect 13 0 15 0;
#X connect 13 0 22 1;
#X connect 14 0 15 0;
#X connect 14 0 22 1;
#X connect 15 0 7 0;
#X connect 16 0 15 0;
#X connect 16 0 22 1;
#X connect 18 0 7 0;
#X connect 19 0 2 0;
#X connect 20 0 2 0;
#X connect 20 0 0 0;
#X connect 21 0 6 0;
#X connect 22 0 10 0;
#X restore 295 333 pd stepsequencer;
#X obj 310 405 bng 15 50 50 0 empty empty empty 0 -6 0 8 -262144 -1
-1;
#X obj 295 405 bng 15 50 50 0 empty empty empty 0 -6 0 8 -262144 -1
-1;
#X obj 340 405 bng 15 50 50 0 empty empty empty 0 -6 0 8 -262144 -1
-1;
#X obj 325 405 bng 15 50 50 0 empty empty empty 0 -6 0 8 -262144 -1
-1;
#X obj 370 405 bng 15 50 50 0 empty empty empty 0 -6 0 8 -262144 -1
-1;
#X obj 355 405 bng 15 50 50 0 empty empty empty 0 -6 0 8 -262144 -1
-1;
#X obj 400 405 bng 15 50 50 0 empty empty empty 0 -6 0 8 -262144 -1
-1;
#X obj 385 405 bng 15 50 50 0 empty empty empty 0 -6 0 8 -262144 -1
-1;
#X obj 430 405 bng 15 50 50 0 empty empty empty 0 -6 0 8 -262144 -1
-1;
#X obj 415 405 bng 15 50 50 0 empty empty empty 0 -6 0 8 -262144 -1
-1;
#X obj 460 405 bng 15 50 50 0 empty empty empty 0 -6 0 8 -262144 -1
-1;
#X obj 445 405 bng 15 50 50 0 empty empty empty 0 -6 0 8 -262144 -1
-1;
#X obj 490 405 bng 15 50 50 0 empty empty empty 0 -6 0 8 -262144 -1
-1;
#X obj 475 405 bng 15 50 50 0 empty empty empty 0 -6 0 8 -262144 -1
-1;
#X obj 520 405 bng 15 50 50 0 empty empty empty 0 -6 0 8 -262144 -1
-1;
#X obj 505 405 bng 15 50 50 0 empty empty empty 0 -6 0 8 -262144 -1
-1;
#X obj 295 362 select 1 2 3 4 5 6 7 8 9 10 11 12 13 14 15 16 17 18
19 20 21 22 23 24 25 26 27 28 29 30 31 32;
#X obj 550 405 bng 15 50 50 0 empty empty empty 0 -6 0 8 -262144 -1
-1;
#X obj 535 405 bng 15 50 50 0 empty empty empty 0 -6 0 8 -262144 -1
-1;
#X obj 580 405 bng 15 50 50 0 empty empty empty 0 -6 0 8 -262144 -1
-1;
#X obj 565 405 bng 15 50 50 0 empty empty empty 0 -6 0 8 -262144 -1
-1;
#X obj 610 405 bng 15 50 50 0 empty empty empty 0 -6 0 8 -262144 -1
-1;
#X obj 595 405 bng 15 50 50 0 empty empty empty 0 -6 0 8 -262144 -1
-1;
#X obj 640 405 bng 15 50 50 0 empty empty empty 0 -6 0 8 -262144 -1
-1;
#X obj 625 405 bng 15 50 50 0 empty empty empty 0 -6 0 8 -262144 -1
-1;
#X obj 670 405 bng 15 50 50 0 empty empty empty 0 -6 0 8 -262144 -1
-1;
#X obj 655 405 bng 15 50 50 0 empty empty empty 0 -6 0 8 -262144 -1
-1;
#X obj 700 405 bng 15 50 50 0 empty empty empty 0 -6 0 8 -262144 -1
-1;
#X obj 685 405 bng 15 50 50 0 empty empty empty 0 -6 0 8 -262144 -1
-1;
#X obj 730 405 bng 15 50 50 0 empty empty empty 0 -6 0 8 -262144 -1
-1;
#X obj 715 405 bng 15 50 50 0 empty empty empty 0 -6 0 8 -262144 -1
-1;
#X obj 760 405 bng 15 50 50 0 empty empty empty 0 -6 0 8 -262144 -1
-1;
#X obj 745 405 bng 15 50 50 0 empty empty empty 0 -6 0 8 -262144 -1
-1;
#X obj 295 312 bng 15 250 50 0 empty empty empty 0 -6 0 8 -262144 -1
-1;
#X msg 330 308 0;
#X floatatom 375 308 3 0 0 0 - - -;
#X floatatom 430 307 2 8 32 0 - - -;
#X obj 153 640 tabread4~ loop1;
#N canvas 0 22 450 300 graph5 0;
#X array loop1 325662 float 2;
#X coords 0 1 325662 -1 600 50 1;
#X restore 151 63 graph;
#X msg 19 8 read -resize 111loopc.wav loop1;
#X msg 297 7 read -resize untitled.wav loop1;
#X obj 75 644 *~;
#X obj 62 665 hsl 128 15 0 1 0 0 empty empty empty -2 -6 0 8 -262144
-1 -1 0 1;
#X obj 154 118 hsl 595 15 0 1 0 1 empty empty empty -2 -6 0 8 -262144
-1 -1 3700 0;
#X obj 122 115 *;
#X obj 19 41 soundfiler;
#X obj 19 102 / 44100;
#X floatatom 21 135 5 0 0 0 - - -;
#X obj 14 502 tabplay~ loop1;
#X obj 154 133 hsl 595 15 0 1 0 1 empty empty empty -2 -6 0 8 -262144
-1 -1 6200 0;
#X obj 122 138 *;
#X obj 87 138 -;
#X msg 81 114 bang;
#X obj 154 165 hsl 595 15 0 1 0 1 empty empty empty -2 -6 0 8 -262144
-1 -1 49600 0;
#X obj 122 162 *;
#X obj 154 179 hsl 595 15 0 1 0 1 empty empty empty -2 -6 0 8 -262144
-1 -1 52500 0;
#X obj 122 185 *;
#X obj 87 185 -;
#X msg 81 161 bang;
#X obj 43 455 f;
#X obj 14 455 f;
#X obj 15 563 pack;
#X obj 15 585 tabplay~ loop1;
#X obj 44 538 f;
#X obj 14 538 f;
#X msg 355 515 bang;
#X obj 143 570 pack;
#X obj 143 592 tabplay~ loop1;
#X obj 172 545 f;
#X obj 143 545 f;
#X obj 266 575 pack;
#X obj 266 597 tabplay~ loop1;
#X obj 295 550 f;
#X obj 266 550 f;
#X obj 392 579 pack;
#X obj 392 601 tabplay~ loop1;
#X obj 421 554 f;
#X obj 392 554 f;
#X obj 518 580 pack;
#X obj 518 602 tabplay~ loop1;
#X obj 547 555 f;
#X obj 518 555 f;
#X obj 646 579 pack;
#X obj 646 601 tabplay~ loop1;
#X obj 675 554 f;
#X obj 646 554 f;
#X obj 776 580 pack;
#X obj 776 602 tabplay~ loop1;
#X obj 805 555 f;
#X obj 776 555 f;
#X msg 407 514 bang;
#X msg 470 513 bang;
#X msg 522 514 bang;
#X msg 585 513 bang;
#X msg 637 512 bang;
#X msg 700 511 bang;
#X obj 154 214 hsl 595 15 0 1 0 1 empty empty empty -2 -6 0 8 -262144
-1 -1 22800 0;
#X obj 122 211 *;
#X obj 154 229 hsl 595 15 0 1 0 1 empty empty empty -2 -6 0 8 -262144
-1 -1 25800 0;
#X obj 122 234 *;
#X obj 87 234 -;
#X msg 81 210 bang;
#X obj 154 261 hsl 595 15 0 1 0 1 empty empty empty -2 -6 0 8 -262144
-1 -1 35900 0;
#X obj 122 258 *;
#X obj 154 276 hsl 595 15 0 1 0 1 empty empty empty -2 -6 0 8 -262144
-1 -1 37400 0;
#X obj 122 281 *;
#X obj 87 281 -;
#X msg 81 257 bang;
#X obj 768 33 tabwrite~ loop1;
#X obj 752 7 adc~;
#X msg 804 9 bang;
#X msg 505 36 read -resize ascend.wav loop1;
#X msg 296 33 write -wave new loop1;
#X text 197 663 volume;
#X text 374 290 tempo;
#X text 450 308 # of steps;
#X text 275 292 start;
#X text 327 290 stop;
#X connect 0 0 64 0;
#X connect 0 0 65 0;
#X connect 2 0 49 1;
#X connect 2 0 51 0;
#X connect 2 0 55 1;
#X connect 2 0 59 1;
#X connect 2 0 61 1;
#X connect 2 0 102 1;
#X connect 2 0 104 1;
#X connect 2 0 108 1;
#X connect 2 0 110 1;
#X connect 3 0 53 0;
#X connect 4 0 21 0;
#X connect 6 0 0 0;
#X connect 10 0 0 0;
#X connect 11 0 96 0;
#X connect 12 0 96 0;
#X connect 13 0 95 0;
#X connect 13 0 70 0;
#X connect 14 0 95 0;
#X connect 15 0 0 0;
#X connect 16 0 95 0;
#X connect 20 0 96 0;
#X connect 21 0 6 0;
#X connect 21 1 5 0;
#X connect 21 2 8 0;
#X connect 21 3 7 0;
#X connect 21 4 10 0;
#X connect 21 5 9 0;
#X connect 21 6 12 0;
#X connect 21 7 11 0;
#X connect 21 8 14 0;
#X connect 21 9 13 0;
#X connect 21 10 16 0;
#X connect 21 11 15 0;
#X connect 21 12 18 0;
#X connect 21 13 17 0;
#X connect 21 14 20 0;
#X connect 21 15 19 0;
#X connect 21 16 23 0;
#X connect 21 17 22 0;
#X connect 21 18 25 0;
#X connect 21 19 24 0;
#X connect 21 20 27 0;
#X connect 21 21 26 0;
#X connect 21 22 29 0;
#X connect 21 23 28 0;
#X connect 21 24 31 0;
#X connect 21 25 30 0;
#X connect 21 26 33 0;
#X connect 21 27 32 0;
#X connect 21 28 35 0;
#X connect 21 29 34 0;
#X connect 21 30 37 0;
#X connect 21 31 36 0;
#X connect 38 0 4 0;
#X connect 39 0 4 1;
#X connect 40 0 4 2;
#X connect 41 0 4 3;
#X connect 42 0 46 0;
#X connect 44 0 50 0;
#X connect 45 0 50 0;
#X connect 46 0 1 0;
#X connect 46 0 1 1;
#X connect 47 0 46 1;
#X connect 48 0 49 0;
#X connect 49 0 56 1;
#X connect 49 0 57 0;
#X connect 49 0 65 1;
#X connect 50 0 2 0;
#X connect 51 0 52 0;
#X connect 53 0 1 0;
#X connect 53 0 1 1;
#X connect 54 0 55 0;
#X connect 55 0 56 0;
#X connect 56 0 64 0;
#X connect 57 0 56 0;
#X connect 58 0 59 0;
#X connect 59 0 62 1;
#X connect 59 0 63 0;
#X connect 59 0 69 1;
#X connect 60 0 61 0;
#X connect 61 0 62 0;
#X connect 62 0 68 0;
#X connect 63 0 62 0;
#X connect 64 0 3 1;
#X connect 65 0 3 0;
#X connect 66 0 67 0;
#X connect 67 0 1 1;
#X connect 68 0 66 1;
#X connect 69 0 66 0;
#X connect 70 0 68 0;
#X connect 70 0 69 0;
#X connect 71 0 72 0;
#X connect 72 0 1 0;
#X connect 72 0 1 1;
#X connect 73 0 71 1;
#X connect 74 0 71 0;
#X connect 75 0 76 0;
#X connect 76 0 1 0;
#X connect 77 0 75 1;
#X connect 78 0 75 0;
#X connect 79 0 80 0;
#X connect 81 0 79 1;
#X connect 82 0 79 0;
#X connect 83 0 84 0;
#X connect 85 0 83 1;
#X connect 86 0 83 0;
#X connect 87 0 88 0;
#X connect 89 0 87 1;
#X connect 90 0 87 0;
#X connect 91 0 92 0;
#X connect 93 0 91 1;
#X connect 94 0 91 0;
#X connect 95 0 74 0;
#X connect 95 0 73 0;
#X connect 96 0 78 0;
#X connect 96 0 77 0;
#X connect 97 0 82 0;
#X connect 97 0 81 0;
#X connect 98 0 86 0;
#X connect 98 0 85 0;
#X connect 99 0 90 0;
#X connect 99 0 89 0;
#X connect 100 0 94 0;
#X connect 100 0 93 0;
#X connect 101 0 102 0;
#X connect 102 0 105 1;
#X connect 102 0 106 0;
#X connect 102 0 74 1;
#X connect 103 0 104 0;
#X connect 104 0 105 0;
#X connect 105 0 73 1;
#X connect 106 0 105 0;
#X connect 107 0 108 0;
#X connect 108 0 111 1;
#X connect 108 0 112 0;
#X connect 108 0 78 1;
#X connect 109 0 110 0;
#X connect 110 0 111 0;
#X connect 111 0 77 1;
#X connect 112 0 111 0;
#X connect 114 0 113 0;
#X connect 115 0 113 0;
#X connect 116 0 50 0;
#X connect 117 0 50 0;
