#N canvas 139 78 976 680 10;
#N canvas 0 0 450 300 cell 0;
#X obj 12 51 inlet;
#X floatatom 132 116 3 0 128 0 trsh - -;
#X msg 148 32 set \$1;
#X msg 148 60 2;
#X obj 103 9 loadbang;
#X obj 183 269 outlet;
#X obj 161 126 bng 15 250 50 0 empty empty empty 17 7 0 10 -262144
-1 -1;
#X floatatom 132 133 3 0 128 0 val - -;
#X obj 12 171 int;
#X obj 50 131 + 1;
#X obj 48 208 >=;
#X obj 49 229 moses 0.1;
#X msg 12 87 bang;
#X msg 64 82 -1;
#X obj 159 169 delay 1;
#X connect 0 0 12 0;
#X connect 1 0 2 0;
#X connect 1 0 10 1;
#X connect 2 0 3 0;
#X connect 3 0 1 0;
#X connect 4 0 3 0;
#X connect 6 0 14 0;
#X connect 8 0 9 0;
#X connect 8 0 10 0;
#X connect 8 0 7 0;
#X connect 9 0 8 1;
#X connect 10 0 11 0;
#X connect 11 1 6 0;
#X connect 11 1 13 0;
#X connect 12 0 8 0;
#X connect 13 0 8 0;
#X connect 14 0 5 0;
#X coords 0 -1 1 1 80 50 1 100 100;
#X restore 202 74 pd cell;
#N canvas 0 0 450 300 cell 0;
#X obj 12 51 inlet;
#X floatatom 132 116 3 0 128 0 trsh - -;
#X msg 148 32 set \$1;
#X msg 148 60 5;
#X obj 103 9 loadbang;
#X obj 183 269 outlet;
#X obj 161 126 bng 15 250 50 0 empty empty empty 17 7 0 10 -262144
-1 -1;
#X floatatom 132 133 3 0 128 0 val - -;
#X obj 12 171 int;
#X obj 50 131 + 1;
#X obj 48 208 >=;
#X obj 49 229 moses 0.1;
#X msg 12 87 bang;
#X msg 64 82 -1;
#X obj 159 169 delay 1;
#X connect 0 0 12 0;
#X connect 1 0 2 0;
#X connect 1 0 10 1;
#X connect 2 0 3 0;
#X connect 3 0 1 0;
#X connect 4 0 3 0;
#X connect 6 0 14 0;
#X connect 8 0 9 0;
#X connect 8 0 10 0;
#X connect 8 0 7 0;
#X connect 9 0 8 1;
#X connect 10 0 11 0;
#X connect 11 1 6 0;
#X connect 11 1 13 0;
#X connect 12 0 8 0;
#X connect 13 0 8 0;
#X connect 14 0 5 0;
#X coords 0 -1 1 1 80 50 1 100 100;
#X restore 79 130 pd cell;
#N canvas 0 0 450 300 cell 0;
#X obj 12 51 inlet;
#X floatatom 132 116 3 0 128 0 trsh - -;
#X msg 148 32 set \$1;
#X msg 148 60 7;
#X obj 103 9 loadbang;
#X obj 183 269 outlet;
#X obj 161 126 bng 15 250 50 0 empty empty empty 17 7 0 10 -262144
-1 -1;
#X floatatom 132 133 3 0 128 0 val - -;
#X obj 12 171 int;
#X obj 50 131 + 1;
#X obj 48 208 >=;
#X obj 49 229 moses 0.1;
#X msg 12 87 bang;
#X msg 64 82 -1;
#X obj 159 169 delay 1;
#X connect 0 0 12 0;
#X connect 1 0 2 0;
#X connect 1 0 10 1;
#X connect 2 0 3 0;
#X connect 3 0 1 0;
#X connect 4 0 3 0;
#X connect 6 0 14 0;
#X connect 8 0 9 0;
#X connect 8 0 10 0;
#X connect 8 0 7 0;
#X connect 9 0 8 1;
#X connect 10 0 11 0;
#X connect 11 1 6 0;
#X connect 11 1 13 0;
#X connect 12 0 8 0;
#X connect 13 0 8 0;
#X connect 14 0 5 0;
#X coords 0 -1 1 1 80 50 1 100 100;
#X restore 220 161 pd cell;
#N canvas 0 0 450 300 cell 0;
#X obj 12 51 inlet;
#X floatatom 132 116 3 0 128 0 trsh - -;
#X msg 148 32 set \$1;
#X msg 148 60 2;
#X obj 103 9 loadbang;
#X obj 183 269 outlet;
#X obj 161 126 bng 15 250 50 0 empty empty empty 17 7 0 10 -262144
-1 -1;
#X floatatom 132 133 3 0 128 0 val - -;
#X obj 12 171 int;
#X obj 50 131 + 1;
#X obj 48 208 >=;
#X obj 49 229 moses 0.1;
#X msg 12 87 bang;
#X msg 64 82 -1;
#X obj 159 169 delay 1;
#X connect 0 0 12 0;
#X connect 1 0 2 0;
#X connect 1 0 10 1;
#X connect 2 0 3 0;
#X connect 3 0 1 0;
#X connect 4 0 3 0;
#X connect 6 0 14 0;
#X connect 8 0 9 0;
#X connect 8 0 10 0;
#X connect 8 0 7 0;
#X connect 9 0 8 1;
#X connect 10 0 11 0;
#X connect 11 1 6 0;
#X connect 11 1 13 0;
#X connect 12 0 8 0;
#X connect 13 0 8 0;
#X connect 14 0 5 0;
#X coords 0 -1 1 1 80 50 1 100 100;
#X restore -33 43 pd cell;
#N canvas 0 0 450 300 cell 0;
#X obj 12 51 inlet;
#X floatatom 132 116 3 0 128 0 trsh - -;
#X msg 148 32 set \$1;
#X msg 148 60 4;
#X obj 103 9 loadbang;
#X obj 183 269 outlet;
#X obj 161 126 bng 15 250 50 0 empty empty empty 17 7 0 10 -262144
-1 -1;
#X floatatom 132 133 3 0 128 0 val - -;
#X obj 12 171 int;
#X obj 50 131 + 1;
#X obj 48 208 >=;
#X obj 49 229 moses 0.1;
#X msg 12 87 bang;
#X msg 64 82 -1;
#X obj 159 169 delay 1;
#X connect 0 0 12 0;
#X connect 1 0 2 0;
#X connect 1 0 10 1;
#X connect 2 0 3 0;
#X connect 3 0 1 0;
#X connect 4 0 3 0;
#X connect 6 0 14 0;
#X connect 8 0 9 0;
#X connect 8 0 10 0;
#X connect 8 0 7 0;
#X connect 9 0 8 1;
#X connect 10 0 11 0;
#X connect 11 1 6 0;
#X connect 11 1 13 0;
#X connect 12 0 8 0;
#X connect 13 0 8 0;
#X connect 14 0 5 0;
#X coords 0 -1 1 1 80 50 1 100 100;
#X restore 1 216 pd cell;
#N canvas 0 0 450 300 cell 0;
#X obj 12 51 inlet;
#X floatatom 132 116 3 0 128 0 trsh - -;
#X msg 148 32 set \$1;
#X msg 148 60 2;
#X obj 103 9 loadbang;
#X obj 183 269 outlet;
#X obj 161 126 bng 15 250 50 0 empty empty empty 17 7 0 10 -262144
-1 -1;
#X floatatom 132 133 3 0 128 0 val - -;
#X obj 12 171 int;
#X obj 50 131 + 1;
#X obj 48 208 >=;
#X obj 49 229 moses 0.1;
#X msg 12 87 bang;
#X msg 64 82 -1;
#X obj 159 169 delay 1;
#X connect 0 0 12 0;
#X connect 1 0 2 0;
#X connect 1 0 10 1;
#X connect 2 0 3 0;
#X connect 3 0 1 0;
#X connect 4 0 3 0;
#X connect 6 0 14 0;
#X connect 8 0 9 0;
#X connect 8 0 10 0;
#X connect 8 0 7 0;
#X connect 9 0 8 1;
#X connect 10 0 11 0;
#X connect 11 1 6 0;
#X connect 11 1 13 0;
#X connect 12 0 8 0;
#X connect 13 0 8 0;
#X connect 14 0 5 0;
#X coords 0 -1 1 1 80 50 1 100 100;
#X restore 216 247 pd cell;
#N canvas 0 0 450 300 cell 0;
#X obj 12 51 inlet;
#X floatatom 132 116 3 0 128 0 trsh - -;
#X msg 148 32 set \$1;
#X msg 148 60 3;
#X obj 103 9 loadbang;
#X obj 183 269 outlet;
#X obj 161 126 bng 15 250 50 0 empty empty empty 17 7 0 10 -262144
-1 -1;
#X floatatom 132 133 3 0 128 0 val - -;
#X obj 12 171 int;
#X obj 50 131 + 1;
#X obj 48 208 >=;
#X obj 49 229 moses 0.1;
#X msg 12 87 bang;
#X msg 64 82 -1;
#X obj 159 169 delay 1;
#X connect 0 0 12 0;
#X connect 1 0 2 0;
#X connect 1 0 10 1;
#X connect 2 0 3 0;
#X connect 3 0 1 0;
#X connect 4 0 3 0;
#X connect 6 0 14 0;
#X connect 8 0 9 0;
#X connect 8 0 10 0;
#X connect 8 0 7 0;
#X connect 9 0 8 1;
#X connect 10 0 11 0;
#X connect 11 1 6 0;
#X connect 11 1 13 0;
#X connect 12 0 8 0;
#X connect 13 0 8 0;
#X connect 14 0 5 0;
#X coords 0 -1 1 1 80 50 1 100 100;
#X restore 104 244 pd cell;
#N canvas 0 0 450 300 cell 0;
#X obj 12 51 inlet;
#X floatatom 132 116 3 0 128 0 trsh - -;
#X msg 148 32 set \$1;
#X msg 148 60 3;
#X obj 103 9 loadbang;
#X obj 183 269 outlet;
#X obj 161 126 bng 15 250 50 0 empty empty empty 17 7 0 10 -262144
-1 -1;
#X floatatom 132 133 3 0 128 0 val - -;
#X obj 12 171 int;
#X obj 50 131 + 1;
#X obj 48 208 >=;
#X obj 49 229 moses 0.1;
#X msg 12 87 bang;
#X msg 64 82 -1;
#X obj 159 169 delay 1;
#X connect 0 0 12 0;
#X connect 1 0 2 0;
#X connect 1 0 10 1;
#X connect 2 0 3 0;
#X connect 3 0 1 0;
#X connect 4 0 3 0;
#X connect 6 0 14 0;
#X connect 8 0 9 0;
#X connect 8 0 10 0;
#X connect 8 0 7 0;
#X connect 9 0 8 1;
#X connect 10 0 11 0;
#X connect 11 1 6 0;
#X connect 11 1 13 0;
#X connect 12 0 8 0;
#X connect 13 0 8 0;
#X connect 14 0 5 0;
#X coords 0 -1 1 1 80 50 1 100 100;
#X restore 88 38 pd cell;
#X obj 397 585 dac~;
#N canvas 168 57 885 883 fmdrum1 0;
#X msg 409 152 0 \$1;
#X floatatom 395 124 5 0 0 0 - - -;
#X obj 157 462 *~;
#X obj 393 234 *~;
#X obj 144 337 *~;
#X floatatom 173 272 5 0 0 0 - - -;
#X obj 141 431 osc~;
#X obj 135 371 +~;
#X floatatom 37 246 5 0 0 0 - - -;
#X msg 464 159 1;
#X obj 233 408 *~;
#X obj 405 -65 inlet;
#X obj 106 139 hsl 128 8 0 127 0 1 empty empty p-amt 2 4 0 8 -262144
-1 -1 5200 1;
#X obj 173 247 mtof;
#X obj 106 150 hsl 128 8 0 127 0 1 empty empty pitch 2 4 0 8 -262144
-1 -1 3000 1;
#X obj 37 219 mtof;
#X obj 106 127 hsl 128 8 1.27 800 1 1 empty empty p-dec 2 4 0 8 -262144
-1 -1 7700 1;
#X obj 258 217 * 2;
#X obj 261 242 - 1;
#X obj 166 302 *;
#X msg 196 221 bang;
#X obj 134 407 +~;
#X obj 107 163 hsl 128 8 0 1 0 1 empty empty fm-mod 2 4 0 8 -225271
-1 -1 5700 1;
#X obj 450 495 *~;
#X obj 107 174 hsl 128 8 0 1 0 1 empty empty fm-send 2 4 0 8 -225271
-1 -1 12700 1;
#X obj 335 603 *~;
#X obj 239 117 vsl 8 80 0 1 0 1 empty empty l 2 8 0 8 -262144 -1 -1
5700 1;
#X obj 200 647 *~;
#X obj 507 610 *~;
#X text 600 703 <- to rm bus;
#X text 414 702 <- to fm bus;
#X text 529 468 <-fm in;
#X obj 190 513 *~;
#X text 596 541 <-rm in;
#X obj 107 187 hsl 128 8 0 1 0 1 empty empty rm-mod 2 4 0 8 -261689
-1 -1 1900 1;
#X obj 107 198 hsl 128 8 0 1 0 1 empty empty rm-send 2 4 0 8 -261689
-1 -1 12100 1;
#X text 330 254 quadratic pitch/amp env;
#X obj 144 561 +~;
#X obj 122 532 *~;
#X obj 173 536 *~;
#X obj 99 483 -;
#X msg 65 420 1;
#X obj 231 104 hradio 8 1 1 2 empty empty pol -18 4 0 8 -262144 -1
-1 0;
#X msg 528 174 0 \$1;
#X floatatom 528 146 5 0 0 0 - - -;
#X obj 519 248 *~;
#X msg 588 162 1;
#X obj 482 87 +;
#X msg 491 12 0;
#X text 529 272 amp env;
#X obj 106 115 hsl 128 8 1.27 800 1 1 empty empty decay 2 4 0 8 -262144
-1 -1 12000 1;
#X obj 443 440 * 8000;
#X obj 480 468 inlet~;
#X obj 549 539 inlet~;
#X obj 200 709 outlet~;
#X obj 355 699 outlet~;
#X obj 538 702 outlet~;
#X obj 416 204 vline~;
#X obj 541 216 vline~;
#X obj 392 20 t f b b;
#X obj 530 75 t b b;
#X obj 314 57 moses 0.001;
#X connect 0 0 57 0;
#X connect 1 0 0 0;
#X connect 2 0 32 0;
#X connect 2 0 38 1;
#X connect 3 0 4 0;
#X connect 4 0 7 1;
#X connect 5 0 19 0;
#X connect 6 0 2 0;
#X connect 7 0 21 0;
#X connect 8 0 7 0;
#X connect 9 0 57 0;
#X connect 10 0 2 1;
#X connect 11 0 48 0;
#X connect 11 0 59 0;
#X connect 11 0 60 0;
#X connect 12 0 13 0;
#X connect 13 0 5 0;
#X connect 14 0 15 0;
#X connect 15 0 8 0;
#X connect 16 0 1 0;
#X connect 17 0 18 0;
#X connect 18 0 19 1;
#X connect 18 0 20 0;
#X connect 19 0 4 1;
#X connect 20 0 5 0;
#X connect 21 0 6 0;
#X connect 22 0 51 0;
#X connect 23 0 21 1;
#X connect 24 0 25 1;
#X connect 25 0 55 0;
#X connect 26 0 27 1;
#X connect 27 0 54 0;
#X connect 28 0 56 0;
#X connect 32 0 39 1;
#X connect 34 0 39 0;
#X connect 34 0 40 1;
#X connect 34 0 41 0;
#X connect 35 0 28 1;
#X connect 37 0 27 0;
#X connect 37 0 25 0;
#X connect 37 0 28 0;
#X connect 38 0 37 0;
#X connect 39 0 37 1;
#X connect 40 0 38 0;
#X connect 41 0 40 0;
#X connect 42 0 17 0;
#X connect 43 0 58 0;
#X connect 44 0 43 0;
#X connect 45 0 10 1;
#X connect 46 0 58 0;
#X connect 47 0 44 0;
#X connect 48 0 47 0;
#X connect 50 0 47 1;
#X connect 51 0 23 1;
#X connect 52 0 23 0;
#X connect 53 0 32 1;
#X connect 57 0 3 1;
#X connect 57 0 3 0;
#X connect 58 0 45 1;
#X connect 58 0 45 0;
#X connect 59 0 61 0;
#X connect 59 1 1 0;
#X connect 59 2 9 0;
#X connect 60 0 44 0;
#X connect 60 1 46 0;
#X connect 61 1 10 0;
#X coords 0 -1 1 1 150 110 1 100 100;
#X restore 504 314 pd fmdrum1;
#N canvas 168 57 885 883 fmdrum1 0;
#X msg 409 152 0 \$1;
#X floatatom 395 124 5 0 0 0 - - -;
#X obj 157 462 *~;
#X obj 393 234 *~;
#X obj 144 337 *~;
#X floatatom 173 272 5 0 0 0 - - -;
#X obj 141 431 osc~;
#X obj 135 371 +~;
#X floatatom 37 246 5 0 0 0 - - -;
#X msg 464 159 1;
#X obj 233 408 *~;
#X obj 405 -65 inlet;
#X obj 106 139 hsl 128 8 0 127 0 1 empty empty p-amt 2 4 0 8 -262144
-1 -1 2800 1;
#X obj 173 247 mtof;
#X obj 106 150 hsl 128 8 0 127 0 1 empty empty pitch 2 4 0 8 -262144
-1 -1 6100 1;
#X obj 37 219 mtof;
#X obj 106 127 hsl 128 8 1.27 800 1 1 empty empty p-dec 2 4 0 8 -262144
-1 -1 5600 1;
#X obj 258 217 * 2;
#X obj 261 242 - 1;
#X obj 166 302 *;
#X msg 196 221 bang;
#X obj 134 407 +~;
#X obj 107 163 hsl 128 8 0 1 0 1 empty empty fm-mod 2 4 0 8 -225271
-1 -1 11800 1;
#X obj 450 495 *~;
#X obj 107 174 hsl 128 8 0 1 0 1 empty empty fm-send 2 4 0 8 -225271
-1 -1 12700 1;
#X obj 335 603 *~;
#X obj 239 117 vsl 8 80 0 1 0 1 empty empty l 2 8 0 8 -262144 -1 -1
4600 1;
#X obj 200 647 *~;
#X obj 507 610 *~;
#X text 600 703 <- to rm bus;
#X text 414 702 <- to fm bus;
#X text 529 468 <-fm in;
#X obj 190 513 *~;
#X text 596 541 <-rm in;
#X obj 107 187 hsl 128 8 0 1 0 1 empty empty rm-mod 2 4 0 8 -261689
-1 -1 2700 1;
#X obj 107 198 hsl 128 8 0 1 0 1 empty empty rm-send 2 4 0 8 -261689
-1 -1 10900 1;
#X text 330 254 quadratic pitch/amp env;
#X obj 144 561 +~;
#X obj 122 532 *~;
#X obj 173 536 *~;
#X obj 99 483 -;
#X msg 65 420 1;
#X obj 231 104 hradio 8 1 1 2 empty empty pol -18 4 0 8 -262144 -1
-1 1;
#X msg 528 174 0 \$1;
#X floatatom 528 146 5 0 0 0 - - -;
#X obj 519 248 *~;
#X msg 588 162 1;
#X obj 482 87 +;
#X msg 491 12 0;
#X text 529 272 amp env;
#X obj 106 115 hsl 128 8 1.27 800 1 1 empty empty decay 2 4 0 8 -262144
-1 -1 11500 1;
#X obj 443 440 * 8000;
#X obj 480 468 inlet~;
#X obj 549 539 inlet~;
#X obj 200 709 outlet~;
#X obj 355 699 outlet~;
#X obj 538 702 outlet~;
#X obj 416 204 vline~;
#X obj 541 216 vline~;
#X obj 392 20 t f b b;
#X obj 530 75 t b b;
#X obj 314 57 moses 0.001;
#X connect 0 0 57 0;
#X connect 1 0 0 0;
#X connect 2 0 32 0;
#X connect 2 0 38 1;
#X connect 3 0 4 0;
#X connect 4 0 7 1;
#X connect 5 0 19 0;
#X connect 6 0 2 0;
#X connect 7 0 21 0;
#X connect 8 0 7 0;
#X connect 9 0 57 0;
#X connect 10 0 2 1;
#X connect 11 0 48 0;
#X connect 11 0 59 0;
#X connect 11 0 60 0;
#X connect 12 0 13 0;
#X connect 13 0 5 0;
#X connect 14 0 15 0;
#X connect 15 0 8 0;
#X connect 16 0 1 0;
#X connect 17 0 18 0;
#X connect 18 0 19 1;
#X connect 18 0 20 0;
#X connect 19 0 4 1;
#X connect 20 0 5 0;
#X connect 21 0 6 0;
#X connect 22 0 51 0;
#X connect 23 0 21 1;
#X connect 24 0 25 1;
#X connect 25 0 55 0;
#X connect 26 0 27 1;
#X connect 27 0 54 0;
#X connect 28 0 56 0;
#X connect 32 0 39 1;
#X connect 34 0 39 0;
#X connect 34 0 40 1;
#X connect 34 0 41 0;
#X connect 35 0 28 1;
#X connect 37 0 27 0;
#X connect 37 0 25 0;
#X connect 37 0 28 0;
#X connect 38 0 37 0;
#X connect 39 0 37 1;
#X connect 40 0 38 0;
#X connect 41 0 40 0;
#X connect 42 0 17 0;
#X connect 43 0 58 0;
#X connect 44 0 43 0;
#X connect 45 0 10 1;
#X connect 46 0 58 0;
#X connect 47 0 44 0;
#X connect 48 0 47 0;
#X connect 50 0 47 1;
#X connect 51 0 23 1;
#X connect 52 0 23 0;
#X connect 53 0 32 1;
#X connect 57 0 3 1;
#X connect 57 0 3 0;
#X connect 58 0 45 1;
#X connect 58 0 45 0;
#X connect 59 0 61 0;
#X connect 59 1 1 0;
#X connect 59 2 9 0;
#X connect 60 0 44 0;
#X connect 60 1 46 0;
#X connect 61 1 10 0;
#X coords 0 -1 1 1 150 110 1 100 100;
#X restore 714 92 pd fmdrum1;
#N canvas 168 57 885 883 fmdrum1 0;
#X msg 409 152 0 \$1;
#X floatatom 395 124 5 0 0 0 - - -;
#X obj 157 462 *~;
#X obj 393 234 *~;
#X obj 144 337 *~;
#X floatatom 173 272 5 0 0 0 - - -;
#X obj 141 431 osc~;
#X obj 135 371 +~;
#X floatatom 37 246 5 0 0 0 - - -;
#X msg 464 159 1;
#X obj 233 408 *~;
#X obj 405 -65 inlet;
#X obj 106 139 hsl 128 8 0 127 0 1 empty empty p-amt 2 4 0 8 -262144
-1 -1 2600 1;
#X obj 173 247 mtof;
#X obj 106 150 hsl 128 8 0 127 0 1 empty empty pitch 2 4 0 8 -262144
-1 -1 8400 1;
#X obj 37 219 mtof;
#X obj 106 127 hsl 128 8 1.27 800 1 1 empty empty p-dec 2 4 0 8 -262144
-1 -1 5800 1;
#X obj 258 217 * 2;
#X obj 261 242 - 1;
#X obj 166 302 *;
#X msg 196 221 bang;
#X obj 134 407 +~;
#X obj 107 163 hsl 128 8 0 1 0 1 empty empty fm-mod 2 4 0 8 -225271
-1 -1 11900 1;
#X obj 450 495 *~;
#X obj 107 174 hsl 128 8 0 1 0 1 empty empty fm-send 2 4 0 8 -225271
-1 -1 8700 1;
#X obj 335 603 *~;
#X obj 239 117 vsl 8 80 0 1 0 1 empty empty l 2 8 0 8 -262144 -1 -1
6300 1;
#X obj 200 647 *~;
#X obj 507 610 *~;
#X text 600 703 <- to rm bus;
#X text 414 702 <- to fm bus;
#X text 529 468 <-fm in;
#X obj 190 513 *~;
#X text 596 541 <-rm in;
#X obj 107 187 hsl 128 8 0 1 0 1 empty empty rm-mod 2 4 0 8 -261689
-1 -1 8500 1;
#X obj 107 198 hsl 128 8 0 1 0 1 empty empty rm-send 2 4 0 8 -261689
-1 -1 0 1;
#X text 330 254 quadratic pitch/amp env;
#X obj 144 561 +~;
#X obj 122 532 *~;
#X obj 173 536 *~;
#X obj 99 483 -;
#X msg 65 420 1;
#X obj 231 104 hradio 8 1 1 2 empty empty pol -18 4 0 8 -262144 -1
-1 0;
#X msg 528 174 0 \$1;
#X floatatom 528 146 5 0 0 0 - - -;
#X obj 519 248 *~;
#X msg 588 162 1;
#X obj 482 87 +;
#X msg 491 12 0;
#X text 529 272 amp env;
#X obj 106 115 hsl 128 8 1.27 800 1 1 empty empty decay 2 4 0 8 -262144
-1 -1 11900 1;
#X obj 443 440 * 8000;
#X obj 480 468 inlet~;
#X obj 549 539 inlet~;
#X obj 200 709 outlet~;
#X obj 355 699 outlet~;
#X obj 538 702 outlet~;
#X obj 416 204 vline~;
#X obj 541 216 vline~;
#X obj 392 20 t f b b;
#X obj 530 75 t b b;
#X obj 314 57 moses 0.001;
#X connect 0 0 57 0;
#X connect 1 0 0 0;
#X connect 2 0 32 0;
#X connect 2 0 38 1;
#X connect 3 0 4 0;
#X connect 4 0 7 1;
#X connect 5 0 19 0;
#X connect 6 0 2 0;
#X connect 7 0 21 0;
#X connect 8 0 7 0;
#X connect 9 0 57 0;
#X connect 10 0 2 1;
#X connect 11 0 48 0;
#X connect 11 0 59 0;
#X connect 11 0 60 0;
#X connect 12 0 13 0;
#X connect 13 0 5 0;
#X connect 14 0 15 0;
#X connect 15 0 8 0;
#X connect 16 0 1 0;
#X connect 17 0 18 0;
#X connect 18 0 19 1;
#X connect 18 0 20 0;
#X connect 19 0 4 1;
#X connect 20 0 5 0;
#X connect 21 0 6 0;
#X connect 22 0 51 0;
#X connect 23 0 21 1;
#X connect 24 0 25 1;
#X connect 25 0 55 0;
#X connect 26 0 27 1;
#X connect 27 0 54 0;
#X connect 28 0 56 0;
#X connect 32 0 39 1;
#X connect 34 0 39 0;
#X connect 34 0 40 1;
#X connect 34 0 41 0;
#X connect 35 0 28 1;
#X connect 37 0 27 0;
#X connect 37 0 25 0;
#X connect 37 0 28 0;
#X connect 38 0 37 0;
#X connect 39 0 37 1;
#X connect 40 0 38 0;
#X connect 41 0 40 0;
#X connect 42 0 17 0;
#X connect 43 0 58 0;
#X connect 44 0 43 0;
#X connect 45 0 10 1;
#X connect 46 0 58 0;
#X connect 47 0 44 0;
#X connect 48 0 47 0;
#X connect 50 0 47 1;
#X connect 51 0 23 1;
#X connect 52 0 23 0;
#X connect 53 0 32 1;
#X connect 57 0 3 1;
#X connect 57 0 3 0;
#X connect 58 0 45 1;
#X connect 58 0 45 0;
#X connect 59 0 61 0;
#X connect 59 1 1 0;
#X connect 59 2 9 0;
#X connect 60 0 44 0;
#X connect 60 1 46 0;
#X connect 61 1 10 0;
#X coords 0 -1 1 1 150 110 1 100 100;
#X restore 367 39 pd fmdrum1;
#N canvas 168 57 885 883 fmdrum1 0;
#X msg 409 152 0 \$1;
#X floatatom 395 124 5 0 0 0 - - -;
#X obj 157 462 *~;
#X obj 393 234 *~;
#X obj 144 337 *~;
#X floatatom 173 272 5 0 0 0 - - -;
#X obj 141 431 osc~;
#X obj 135 371 +~;
#X floatatom 37 246 5 0 0 0 - - -;
#X msg 464 159 1;
#X obj 233 408 *~;
#X obj 405 -65 inlet;
#X obj 106 139 hsl 128 8 0 127 0 1 empty empty p-amt 2 4 0 8 -262144
-1 -1 4400 1;
#X obj 173 247 mtof;
#X obj 106 150 hsl 128 8 0 127 0 1 empty empty pitch 2 4 0 8 -262144
-1 -1 4200 1;
#X obj 37 219 mtof;
#X obj 106 127 hsl 128 8 1.27 800 1 1 empty empty p-dec 2 4 0 8 -262144
-1 -1 9800 1;
#X obj 258 217 * 2;
#X obj 261 242 - 1;
#X obj 166 302 *;
#X msg 196 221 bang;
#X obj 134 407 +~;
#X obj 107 163 hsl 128 8 0 1 0 1 empty empty fm-mod 2 4 0 8 -225271
-1 -1 4600 1;
#X obj 450 495 *~;
#X obj 107 174 hsl 128 8 0 1 0 1 empty empty fm-send 2 4 0 8 -225271
-1 -1 12700 1;
#X obj 335 603 *~;
#X obj 239 117 vsl 8 80 0 1 0 1 empty empty l 2 8 0 8 -262144 -1 -1
4900 1;
#X obj 200 647 *~;
#X obj 507 610 *~;
#X text 600 703 <- to rm bus;
#X text 414 702 <- to fm bus;
#X text 529 468 <-fm in;
#X obj 190 513 *~;
#X text 596 541 <-rm in;
#X obj 107 187 hsl 128 8 0 1 0 1 empty empty rm-mod 2 4 0 8 -261689
-1 -1 3300 1;
#X obj 107 198 hsl 128 8 0 1 0 1 empty empty rm-send 2 4 0 8 -261689
-1 -1 0 1;
#X text 330 254 quadratic pitch/amp env;
#X obj 144 561 +~;
#X obj 122 532 *~;
#X obj 173 536 *~;
#X obj 99 483 -;
#X msg 65 420 1;
#X obj 231 104 hradio 8 1 1 2 empty empty pol -18 4 0 8 -262144 -1
-1 0;
#X msg 528 174 0 \$1;
#X floatatom 528 146 5 0 0 0 - - -;
#X obj 519 248 *~;
#X msg 588 162 1;
#X obj 482 87 +;
#X msg 491 12 0;
#X text 529 272 amp env;
#X obj 106 115 hsl 128 8 1.27 800 1 1 empty empty decay 2 4 0 8 -262144
-1 -1 8200 1;
#X obj 443 440 * 8000;
#X obj 480 468 inlet~;
#X obj 549 539 inlet~;
#X obj 200 709 outlet~;
#X obj 355 699 outlet~;
#X obj 538 702 outlet~;
#X obj 416 204 vline~;
#X obj 541 216 vline~;
#X obj 392 20 t f b b;
#X obj 530 75 t b b;
#X obj 314 57 moses 0.001;
#X connect 0 0 57 0;
#X connect 1 0 0 0;
#X connect 2 0 32 0;
#X connect 2 0 38 1;
#X connect 3 0 4 0;
#X connect 4 0 7 1;
#X connect 5 0 19 0;
#X connect 6 0 2 0;
#X connect 7 0 21 0;
#X connect 8 0 7 0;
#X connect 9 0 57 0;
#X connect 10 0 2 1;
#X connect 11 0 48 0;
#X connect 11 0 59 0;
#X connect 11 0 60 0;
#X connect 12 0 13 0;
#X connect 13 0 5 0;
#X connect 14 0 15 0;
#X connect 15 0 8 0;
#X connect 16 0 1 0;
#X connect 17 0 18 0;
#X connect 18 0 19 1;
#X connect 18 0 20 0;
#X connect 19 0 4 1;
#X connect 20 0 5 0;
#X connect 21 0 6 0;
#X connect 22 0 51 0;
#X connect 23 0 21 1;
#X connect 24 0 25 1;
#X connect 25 0 55 0;
#X connect 26 0 27 1;
#X connect 27 0 54 0;
#X connect 28 0 56 0;
#X connect 32 0 39 1;
#X connect 34 0 39 0;
#X connect 34 0 40 1;
#X connect 34 0 41 0;
#X connect 35 0 28 1;
#X connect 37 0 27 0;
#X connect 37 0 25 0;
#X connect 37 0 28 0;
#X connect 38 0 37 0;
#X connect 39 0 37 1;
#X connect 40 0 38 0;
#X connect 41 0 40 0;
#X connect 42 0 17 0;
#X connect 43 0 58 0;
#X connect 44 0 43 0;
#X connect 45 0 10 1;
#X connect 46 0 58 0;
#X connect 47 0 44 0;
#X connect 48 0 47 0;
#X connect 50 0 47 1;
#X connect 51 0 23 1;
#X connect 52 0 23 0;
#X connect 53 0 32 1;
#X connect 57 0 3 1;
#X connect 57 0 3 0;
#X connect 58 0 45 1;
#X connect 58 0 45 0;
#X connect 59 0 61 0;
#X connect 59 1 1 0;
#X connect 59 2 9 0;
#X connect 60 0 44 0;
#X connect 60 1 46 0;
#X connect 61 1 10 0;
#X coords 0 -1 1 1 150 110 1 100 100;
#X restore 539 67 pd fmdrum1;
#N canvas 168 57 885 883 fmdrum1 0;
#X msg 409 152 0 \$1;
#X floatatom 395 124 5 0 0 0 - - -;
#X obj 157 462 *~;
#X obj 393 234 *~;
#X obj 144 337 *~;
#X floatatom 173 272 5 0 0 0 - - -;
#X obj 141 431 osc~;
#X obj 135 371 +~;
#X floatatom 37 246 5 0 0 0 - - -;
#X msg 464 159 1;
#X obj 233 408 *~;
#X obj 405 -65 inlet;
#X obj 106 139 hsl 128 8 0 127 0 1 empty empty p-amt 2 4 0 8 -262144
-1 -1 8500 1;
#X obj 173 247 mtof;
#X obj 106 150 hsl 128 8 0 127 0 1 empty empty pitch 2 4 0 8 -262144
-1 -1 3400 1;
#X obj 37 219 mtof;
#X obj 106 127 hsl 128 8 1.27 800 1 1 empty empty p-dec 2 4 0 8 -262144
-1 -1 11300 1;
#X obj 258 217 * 2;
#X obj 261 242 - 1;
#X obj 166 302 *;
#X msg 196 221 bang;
#X obj 134 407 +~;
#X obj 107 163 hsl 128 8 0 1 0 1 empty empty fm-mod 2 4 0 8 -225271
-1 -1 12700 1;
#X obj 450 495 *~;
#X obj 107 174 hsl 128 8 0 1 0 1 empty empty fm-send 2 4 0 8 -225271
-1 -1 9700 1;
#X obj 335 603 *~;
#X obj 239 117 vsl 8 80 0 1 0 1 empty empty l 2 8 0 8 -262144 -1 -1
4600 1;
#X obj 200 647 *~;
#X obj 507 610 *~;
#X text 600 703 <- to rm bus;
#X text 414 702 <- to fm bus;
#X text 529 468 <-fm in;
#X obj 190 513 *~;
#X text 596 541 <-rm in;
#X obj 107 187 hsl 128 8 0 1 0 1 empty empty rm-mod 2 4 0 8 -261689
-1 -1 4600 1;
#X obj 107 198 hsl 128 8 0 1 0 1 empty empty rm-send 2 4 0 8 -261689
-1 -1 10900 1;
#X text 330 254 quadratic pitch/amp env;
#X obj 144 561 +~;
#X obj 122 532 *~;
#X obj 173 536 *~;
#X obj 99 483 -;
#X msg 65 420 1;
#X obj 231 104 hradio 8 1 1 2 empty empty pol -18 4 0 8 -262144 -1
-1 0;
#X msg 528 174 0 \$1;
#X floatatom 528 146 5 0 0 0 - - -;
#X obj 519 248 *~;
#X msg 588 162 1;
#X obj 482 87 +;
#X msg 491 12 0;
#X text 529 272 amp env;
#X obj 106 115 hsl 128 8 1.27 800 1 1 empty empty decay 2 4 0 8 -262144
-1 -1 12300 1;
#X obj 443 440 * 8000;
#X obj 480 468 inlet~;
#X obj 549 539 inlet~;
#X obj 200 709 outlet~;
#X obj 355 699 outlet~;
#X obj 538 702 outlet~;
#X obj 416 204 vline~;
#X obj 541 216 vline~;
#X obj 392 20 t f b b;
#X obj 530 75 t b b;
#X obj 314 57 moses 0.001;
#X connect 0 0 57 0;
#X connect 1 0 0 0;
#X connect 2 0 32 0;
#X connect 2 0 38 1;
#X connect 3 0 4 0;
#X connect 4 0 7 1;
#X connect 5 0 19 0;
#X connect 6 0 2 0;
#X connect 7 0 21 0;
#X connect 8 0 7 0;
#X connect 9 0 57 0;
#X connect 10 0 2 1;
#X connect 11 0 48 0;
#X connect 11 0 59 0;
#X connect 11 0 60 0;
#X connect 12 0 13 0;
#X connect 13 0 5 0;
#X connect 14 0 15 0;
#X connect 15 0 8 0;
#X connect 16 0 1 0;
#X connect 17 0 18 0;
#X connect 18 0 19 1;
#X connect 18 0 20 0;
#X connect 19 0 4 1;
#X connect 20 0 5 0;
#X connect 21 0 6 0;
#X connect 22 0 51 0;
#X connect 23 0 21 1;
#X connect 24 0 25 1;
#X connect 25 0 55 0;
#X connect 26 0 27 1;
#X connect 27 0 54 0;
#X connect 28 0 56 0;
#X connect 32 0 39 1;
#X connect 34 0 39 0;
#X connect 34 0 40 1;
#X connect 34 0 41 0;
#X connect 35 0 28 1;
#X connect 37 0 27 0;
#X connect 37 0 25 0;
#X connect 37 0 28 0;
#X connect 38 0 37 0;
#X connect 39 0 37 1;
#X connect 40 0 38 0;
#X connect 41 0 40 0;
#X connect 42 0 17 0;
#X connect 43 0 58 0;
#X connect 44 0 43 0;
#X connect 45 0 10 1;
#X connect 46 0 58 0;
#X connect 47 0 44 0;
#X connect 48 0 47 0;
#X connect 50 0 47 1;
#X connect 51 0 23 1;
#X connect 52 0 23 0;
#X connect 53 0 32 1;
#X connect 57 0 3 1;
#X connect 57 0 3 0;
#X connect 58 0 45 1;
#X connect 58 0 45 0;
#X connect 59 0 61 0;
#X connect 59 1 1 0;
#X connect 59 2 9 0;
#X connect 60 0 44 0;
#X connect 60 1 46 0;
#X connect 61 1 10 0;
#X coords 0 -1 1 1 150 110 1 100 100;
#X restore 700 313 pd fmdrum1;
#N canvas 168 57 885 883 fmdrum1 0;
#X msg 409 152 0 \$1;
#X floatatom 395 124 5 0 0 0 - - -;
#X obj 157 462 *~;
#X obj 393 234 *~;
#X obj 144 337 *~;
#X floatatom 173 272 5 0 0 0 - - -;
#X obj 141 431 osc~;
#X obj 135 371 +~;
#X floatatom 37 246 5 0 0 0 - - -;
#X msg 464 159 1;
#X obj 233 408 *~;
#X obj 405 -65 inlet;
#X obj 106 139 hsl 128 8 0 127 0 1 empty empty p-amt 2 4 0 8 -262144
-1 -1 3700 1;
#X obj 173 247 mtof;
#X obj 106 150 hsl 128 8 0 127 0 1 empty empty pitch 2 4 0 8 -262144
-1 -1 10600 1;
#X obj 37 219 mtof;
#X obj 106 127 hsl 128 8 1.27 800 1 1 empty empty p-dec 2 4 0 8 -262144
-1 -1 5900 1;
#X obj 258 217 * 2;
#X obj 261 242 - 1;
#X obj 166 302 *;
#X msg 196 221 bang;
#X obj 134 407 +~;
#X obj 107 163 hsl 128 8 0 1 0 1 empty empty fm-mod 2 4 0 8 -225271
-1 -1 6900 1;
#X obj 450 495 *~;
#X obj 107 174 hsl 128 8 0 1 0 1 empty empty fm-send 2 4 0 8 -225271
-1 -1 12700 1;
#X obj 335 603 *~;
#X obj 239 117 vsl 8 80 0 1 0 1 empty empty l 2 8 0 8 -262144 -1 -1
2900 1;
#X obj 200 647 *~;
#X obj 507 610 *~;
#X text 600 703 <- to rm bus;
#X text 414 702 <- to fm bus;
#X text 529 468 <-fm in;
#X obj 190 513 *~;
#X text 596 541 <-rm in;
#X obj 107 187 hsl 128 8 0 1 0 1 empty empty rm-mod 2 4 0 8 -261689
-1 -1 5200 1;
#X obj 107 198 hsl 128 8 0 1 0 1 empty empty rm-send 2 4 0 8 -261689
-1 -1 12300 1;
#X text 330 254 quadratic pitch/amp env;
#X obj 144 561 +~;
#X obj 122 532 *~;
#X obj 173 536 *~;
#X obj 99 483 -;
#X msg 65 420 1;
#X obj 231 104 hradio 8 1 1 2 empty empty pol -18 4 0 8 -262144 -1
-1 0;
#X msg 528 174 0 \$1;
#X floatatom 528 146 5 0 0 0 - - -;
#X obj 519 248 *~;
#X msg 588 162 1;
#X obj 482 87 +;
#X msg 491 12 0;
#X text 529 272 amp env;
#X obj 106 115 hsl 128 8 1.27 800 1 1 empty empty decay 2 4 0 8 -262144
-1 -1 12200 1;
#X obj 443 440 * 8000;
#X obj 480 468 inlet~;
#X obj 549 539 inlet~;
#X obj 200 709 outlet~;
#X obj 355 699 outlet~;
#X obj 538 702 outlet~;
#X obj 416 204 vline~;
#X obj 541 216 vline~;
#X obj 392 20 t f b b;
#X obj 530 75 t b b;
#X obj 314 57 moses 0.001;
#X connect 0 0 57 0;
#X connect 1 0 0 0;
#X connect 2 0 32 0;
#X connect 2 0 38 1;
#X connect 3 0 4 0;
#X connect 4 0 7 1;
#X connect 5 0 19 0;
#X connect 6 0 2 0;
#X connect 7 0 21 0;
#X connect 8 0 7 0;
#X connect 9 0 57 0;
#X connect 10 0 2 1;
#X connect 11 0 48 0;
#X connect 11 0 59 0;
#X connect 11 0 60 0;
#X connect 12 0 13 0;
#X connect 13 0 5 0;
#X connect 14 0 15 0;
#X connect 15 0 8 0;
#X connect 16 0 1 0;
#X connect 17 0 18 0;
#X connect 18 0 19 1;
#X connect 18 0 20 0;
#X connect 19 0 4 1;
#X connect 20 0 5 0;
#X connect 21 0 6 0;
#X connect 22 0 51 0;
#X connect 23 0 21 1;
#X connect 24 0 25 1;
#X connect 25 0 55 0;
#X connect 26 0 27 1;
#X connect 27 0 54 0;
#X connect 28 0 56 0;
#X connect 32 0 39 1;
#X connect 34 0 39 0;
#X connect 34 0 40 1;
#X connect 34 0 41 0;
#X connect 35 0 28 1;
#X connect 37 0 27 0;
#X connect 37 0 25 0;
#X connect 37 0 28 0;
#X connect 38 0 37 0;
#X connect 39 0 37 1;
#X connect 40 0 38 0;
#X connect 41 0 40 0;
#X connect 42 0 17 0;
#X connect 43 0 58 0;
#X connect 44 0 43 0;
#X connect 45 0 10 1;
#X connect 46 0 58 0;
#X connect 47 0 44 0;
#X connect 48 0 47 0;
#X connect 50 0 47 1;
#X connect 51 0 23 1;
#X connect 52 0 23 0;
#X connect 53 0 32 1;
#X connect 57 0 3 1;
#X connect 57 0 3 0;
#X connect 58 0 45 1;
#X connect 58 0 45 0;
#X connect 59 0 61 0;
#X connect 59 1 1 0;
#X connect 59 2 9 0;
#X connect 60 0 44 0;
#X connect 60 1 46 0;
#X connect 61 1 10 0;
#X coords 0 -1 1 1 150 110 1 100 100;
#X restore 352 168 pd fmdrum1;
#N canvas 168 57 885 883 fmdrum1 0;
#X msg 409 152 0 \$1;
#X floatatom 395 124 5 0 0 0 - - -;
#X obj 157 462 *~;
#X obj 393 234 *~;
#X obj 144 337 *~;
#X floatatom 173 272 5 0 0 0 - - -;
#X obj 141 431 osc~;
#X obj 135 371 +~;
#X floatatom 37 246 5 0 0 0 - - -;
#X msg 464 159 1;
#X obj 233 408 *~;
#X obj 405 -65 inlet;
#X obj 106 139 hsl 128 8 0 127 0 1 empty empty p-amt 2 4 0 8 -262144
-1 -1 6800 1;
#X obj 173 247 mtof;
#X obj 106 150 hsl 128 8 0 127 0 1 empty empty pitch 2 4 0 8 -262144
-1 -1 5200 1;
#X obj 37 219 mtof;
#X obj 106 127 hsl 128 8 1.27 800 1 1 empty empty p-dec 2 4 0 8 -262144
-1 -1 6200 1;
#X obj 258 217 * 2;
#X obj 261 242 - 1;
#X obj 166 302 *;
#X msg 196 221 bang;
#X obj 134 407 +~;
#X obj 107 163 hsl 128 8 0 1 0 1 empty empty fm-mod 2 4 0 8 -225271
-1 -1 11800 1;
#X obj 450 495 *~;
#X obj 107 174 hsl 128 8 0 1 0 1 empty empty fm-send 2 4 0 8 -225271
-1 -1 12700 1;
#X obj 335 603 *~;
#X obj 239 117 vsl 8 80 0 1 0 1 empty empty l 2 8 0 8 -262144 -1 -1
3100 1;
#X obj 200 647 *~;
#X obj 507 610 *~;
#X text 600 703 <- to rm bus;
#X text 414 702 <- to fm bus;
#X text 529 468 <-fm in;
#X obj 190 513 *~;
#X text 596 541 <-rm in;
#X obj 107 187 hsl 128 8 0 1 0 1 empty empty rm-mod 2 4 0 8 -261689
-1 -1 6100 1;
#X obj 107 198 hsl 128 8 0 1 0 1 empty empty rm-send 2 4 0 8 -261689
-1 -1 8900 1;
#X text 330 254 quadratic pitch/amp env;
#X obj 144 561 +~;
#X obj 122 532 *~;
#X obj 173 536 *~;
#X obj 99 483 -;
#X msg 65 420 1;
#X obj 231 104 hradio 8 1 1 2 empty empty pol -18 4 0 8 -262144 -1
-1 0;
#X msg 528 174 0 \$1;
#X floatatom 528 146 5 0 0 0 - - -;
#X obj 519 248 *~;
#X msg 588 162 1;
#X obj 482 87 +;
#X msg 491 12 0;
#X text 529 272 amp env;
#X obj 106 115 hsl 128 8 1.27 800 1 1 empty empty decay 2 4 0 8 -262144
-1 -1 11900 1;
#X obj 443 440 * 8000;
#X obj 480 468 inlet~;
#X obj 549 539 inlet~;
#X obj 200 709 outlet~;
#X obj 355 699 outlet~;
#X obj 538 702 outlet~;
#X obj 416 204 vline~;
#X obj 541 216 vline~;
#X obj 392 20 t f b b;
#X obj 530 75 t b b;
#X obj 314 57 moses 0.001;
#X connect 0 0 57 0;
#X connect 1 0 0 0;
#X connect 2 0 32 0;
#X connect 2 0 38 1;
#X connect 3 0 4 0;
#X connect 4 0 7 1;
#X connect 5 0 19 0;
#X connect 6 0 2 0;
#X connect 7 0 21 0;
#X connect 8 0 7 0;
#X connect 9 0 57 0;
#X connect 10 0 2 1;
#X connect 11 0 48 0;
#X connect 11 0 59 0;
#X connect 11 0 60 0;
#X connect 12 0 13 0;
#X connect 13 0 5 0;
#X connect 14 0 15 0;
#X connect 15 0 8 0;
#X connect 16 0 1 0;
#X connect 17 0 18 0;
#X connect 18 0 19 1;
#X connect 18 0 20 0;
#X connect 19 0 4 1;
#X connect 20 0 5 0;
#X connect 21 0 6 0;
#X connect 22 0 51 0;
#X connect 23 0 21 1;
#X connect 24 0 25 1;
#X connect 25 0 55 0;
#X connect 26 0 27 1;
#X connect 27 0 54 0;
#X connect 28 0 56 0;
#X connect 32 0 39 1;
#X connect 34 0 39 0;
#X connect 34 0 40 1;
#X connect 34 0 41 0;
#X connect 35 0 28 1;
#X connect 37 0 27 0;
#X connect 37 0 25 0;
#X connect 37 0 28 0;
#X connect 38 0 37 0;
#X connect 39 0 37 1;
#X connect 40 0 38 0;
#X connect 41 0 40 0;
#X connect 42 0 17 0;
#X connect 43 0 58 0;
#X connect 44 0 43 0;
#X connect 45 0 10 1;
#X connect 46 0 58 0;
#X connect 47 0 44 0;
#X connect 48 0 47 0;
#X connect 50 0 47 1;
#X connect 51 0 23 1;
#X connect 52 0 23 0;
#X connect 53 0 32 1;
#X connect 57 0 3 1;
#X connect 57 0 3 0;
#X connect 58 0 45 1;
#X connect 58 0 45 0;
#X connect 59 0 61 0;
#X connect 59 1 1 0;
#X connect 59 2 9 0;
#X connect 60 0 44 0;
#X connect 60 1 46 0;
#X connect 61 1 10 0;
#X coords 0 -1 1 1 150 110 1 100 100;
#X restore 557 186 pd fmdrum1;
#X msg 101 301 1;
#X msg 225 216 1;
#N canvas 0 0 450 300 cell 0;
#X obj 12 51 inlet;
#X floatatom 132 116 3 0 128 0 trsh - -;
#X msg 148 32 set \$1;
#X msg 148 60 5;
#X obj 103 9 loadbang;
#X obj 183 269 outlet;
#X obj 161 126 bng 15 250 50 0 empty empty empty 17 7 0 10 -262144
-1 -1;
#X floatatom 132 133 3 0 128 0 val - -;
#X obj 12 171 int;
#X obj 50 131 + 1;
#X obj 48 208 >=;
#X obj 49 229 moses 0.1;
#X msg 12 87 bang;
#X msg 64 82 -1;
#X obj 159 169 delay 1;
#X connect 0 0 12 0;
#X connect 1 0 2 0;
#X connect 1 0 10 1;
#X connect 2 0 3 0;
#X connect 3 0 1 0;
#X connect 4 0 3 0;
#X connect 6 0 14 0;
#X connect 8 0 9 0;
#X connect 8 0 10 0;
#X connect 8 0 7 0;
#X connect 9 0 8 1;
#X connect 10 0 11 0;
#X connect 11 1 6 0;
#X connect 11 1 13 0;
#X connect 12 0 8 0;
#X connect 13 0 8 0;
#X connect 14 0 5 0;
#X coords 0 -1 1 1 80 50 1 100 100;
#X restore 148 323 pd cell;
#X msg 140 385 1;
#N canvas 0 0 450 300 cell 0;
#X obj 12 51 inlet;
#X floatatom 132 116 3 0 128 0 trsh - -;
#X msg 148 32 set \$1;
#X msg 148 60 3;
#X obj 103 9 loadbang;
#X obj 183 269 outlet;
#X obj 161 126 bng 15 250 50 0 empty empty empty 17 7 0 10 -262144
-1 -1;
#X floatatom 132 133 3 0 128 0 val - -;
#X obj 12 171 int;
#X obj 50 131 + 1;
#X obj 48 208 >=;
#X obj 49 229 moses 0.1;
#X msg 12 87 bang;
#X msg 64 82 -1;
#X obj 159 169 delay 1;
#X connect 0 0 12 0;
#X connect 1 0 2 0;
#X connect 1 0 10 1;
#X connect 2 0 3 0;
#X connect 3 0 1 0;
#X connect 4 0 3 0;
#X connect 6 0 14 0;
#X connect 8 0 9 0;
#X connect 8 0 10 0;
#X connect 8 0 7 0;
#X connect 9 0 8 1;
#X connect 10 0 11 0;
#X connect 11 1 6 0;
#X connect 11 1 13 0;
#X connect 12 0 8 0;
#X connect 13 0 8 0;
#X connect 14 0 5 0;
#X coords 0 -1 1 1 80 50 1 100 100;
#X restore -21 334 pd cell;
#N canvas 316 258 649 492 beatdelay2 0;
#X obj 26 93 inlet~;
#X obj 172 67 inlet;
#X obj 186 458 outlet~;
#X floatatom 189 143 5 0 0 0 - - -;
#X obj 29 15 hradio 12 1 1 8 empty empty 1/16 -25 6 0 8 -262144 -1
-1 6;
#X obj 188 162 pow -1;
#X obj 254 156 + 1;
#X obj 188 185 / 4;
#X obj 201 208 *;
#X obj 212 236 * 60000;
#X obj 14 182 +~;
#X obj 55 155 *~;
#X obj 28 34 hsl 96 8 0 0.95 0 1 empty empty fb -16 5 0 8 -262144 -1
-1 6400 1;
#X text 215 66 <- bpm in;
#X obj 180 8 loadbang;
#X floatatom 255 127 5 0 0 0 - - -;
#X obj 124 95 t b b;
#X obj 28 47 hsl 96 8 0 1 0 1 empty empty d/w -22 5 0 8 -262144 -1
-1 4400 1;
#X obj 184 424 +~;
#X obj 206 394 *~;
#X obj 134 392 *~;
#X obj -1 297 * -1;
#X obj 3 328 + 1;
#X text 300 4 beatsynced delay with feedback;
#X text 3 270 <- unique name for delayline! ->;
#X obj -131 267 delwrite~ \$0bdl2 2000;
#X obj 232 269 vd~ \$0bdl2;
#X connect 0 0 10 0;
#X connect 0 0 20 1;
#X connect 1 0 3 0;
#X connect 3 0 5 0;
#X connect 4 0 15 0;
#X connect 4 0 16 0;
#X connect 5 0 7 0;
#X connect 6 0 8 1;
#X connect 7 0 8 0;
#X connect 8 0 9 0;
#X connect 9 0 26 0;
#X connect 10 0 25 0;
#X connect 11 0 10 1;
#X connect 12 0 11 1;
#X connect 14 0 16 0;
#X connect 15 0 6 0;
#X connect 16 0 3 0;
#X connect 16 1 15 0;
#X connect 17 0 19 0;
#X connect 17 0 21 0;
#X connect 18 0 2 0;
#X connect 19 0 18 1;
#X connect 20 0 18 0;
#X connect 21 0 22 0;
#X connect 22 0 20 0;
#X connect 26 0 11 0;
#X connect 26 0 19 1;
#X coords 0 -1 1 1 130 60 1 0 0;
#X restore 744 221 pd beatdelay2;
#N canvas 316 258 649 492 beatdelay1 0;
#X obj 26 93 inlet~;
#X obj 172 67 inlet;
#X obj 186 458 outlet~;
#X floatatom 189 143 5 0 0 0 - - -;
#X obj 29 15 hradio 12 1 1 8 empty empty 1/16 -25 6 0 8 -262144 -1
-1 4;
#X obj 188 162 pow -1;
#X obj 254 156 + 1;
#X obj 188 185 / 4;
#X obj 201 208 *;
#X obj 212 236 * 60000;
#X obj 14 182 +~;
#X obj 55 155 *~;
#X obj 28 34 hsl 96 8 0 0.95 0 1 empty empty fb -16 5 0 8 -262144 -1
-1 8700 1;
#X text 215 66 <- bpm in;
#X obj 180 8 loadbang;
#X floatatom 255 127 5 0 0 0 - - -;
#X obj 124 95 t b b;
#X obj 28 47 hsl 96 8 0 1 0 1 empty empty d/w -22 5 0 8 -262144 -1
-1 4500 1;
#X obj 184 424 +~;
#X obj 206 394 *~;
#X obj 134 392 *~;
#X obj -1 297 * -1;
#X obj 3 328 + 1;
#X text 300 4 beatsynced delay with feedback;
#X text 3 270 <- unique name for delayline! ->;
#X obj -131 266 delwrite~ \$0bdl1 2000;
#X obj 230 273 vd~ \$0bdl1;
#X connect 0 0 10 0;
#X connect 0 0 20 1;
#X connect 1 0 3 0;
#X connect 3 0 5 0;
#X connect 4 0 15 0;
#X connect 4 0 16 0;
#X connect 5 0 7 0;
#X connect 6 0 8 1;
#X connect 7 0 8 0;
#X connect 8 0 9 0;
#X connect 9 0 26 0;
#X connect 10 0 25 0;
#X connect 11 0 10 1;
#X connect 12 0 11 1;
#X connect 14 0 16 0;
#X connect 15 0 6 0;
#X connect 16 0 3 0;
#X connect 16 1 15 0;
#X connect 17 0 19 0;
#X connect 17 0 21 0;
#X connect 18 0 2 0;
#X connect 19 0 18 1;
#X connect 20 0 18 0;
#X connect 21 0 22 0;
#X connect 22 0 20 0;
#X connect 26 0 11 0;
#X connect 26 0 19 1;
#X coords 0 -1 1 1 130 60 1 0 0;
#X restore 672 -14 pd beatdelay1;
#X msg 500 -22 120;
#X obj 154 11 metro 125;
#N canvas 0 0 450 300 cell 0;
#X obj 12 51 inlet;
#X floatatom 132 116 3 0 128 0 trsh - -;
#X msg 148 32 set \$1;
#X msg 148 60 4;
#X obj 103 9 loadbang;
#X obj 183 269 outlet;
#X obj 161 126 bng 15 250 50 0 empty empty empty 17 7 0 10 -262144
-1 -1;
#X floatatom 132 133 3 0 128 0 val - -;
#X obj 12 171 int;
#X obj 50 131 + 1;
#X obj 48 208 >=;
#X obj 49 229 moses 0.1;
#X msg 12 87 bang;
#X msg 64 82 -1;
#X obj 159 169 delay 1;
#X connect 0 0 12 0;
#X connect 1 0 2 0;
#X connect 1 0 10 1;
#X connect 2 0 3 0;
#X connect 3 0 1 0;
#X connect 4 0 3 0;
#X connect 6 0 14 0;
#X connect 8 0 9 0;
#X connect 8 0 10 0;
#X connect 8 0 7 0;
#X connect 9 0 8 1;
#X connect 10 0 11 0;
#X connect 11 1 6 0;
#X connect 11 1 13 0;
#X connect 12 0 8 0;
#X connect 13 0 8 0;
#X connect 14 0 5 0;
#X coords 0 -1 1 1 80 50 1 100 100;
#X restore -44 120 pd cell;
#N canvas 16 89 790 312 fix-pan-mix8 0;
#X obj 30 39 inlet~;
#X obj 101 41 inlet~;
#X obj 95 227 outlet~;
#X obj 224 230 outlet~;
#X obj 186 42 inlet~;
#X obj 269 44 inlet~;
#X obj 354 42 inlet~;
#X obj 430 44 inlet~;
#X obj 504 44 inlet~;
#X obj 579 47 inlet~;
#N canvas 0 0 450 300 pan1 0;
#X obj 120 15 inlet;
#X obj 297 51 inlet~;
#X obj 256 225 outlet~;
#X obj 336 218 outlet~;
#X obj 251 149 *~;
#X obj 323 154 *~;
#X obj 276 122 + 1;
#X obj 335 113 * -1;
#X obj 208 75 * -1;
#X obj 160 42 clip 0 1;
#X connect 0 0 9 0;
#X connect 1 0 4 0;
#X connect 1 0 5 1;
#X connect 4 0 2 0;
#X connect 5 0 3 0;
#X connect 6 0 4 1;
#X connect 7 0 5 0;
#X connect 8 0 6 0;
#X connect 8 0 7 0;
#X connect 9 0 8 0;
#X restore 22 105 pd pan1;
#N canvas 0 0 450 300 pan1 0;
#X obj 120 15 inlet;
#X obj 297 51 inlet~;
#X obj 256 225 outlet~;
#X obj 336 218 outlet~;
#X obj 251 149 *~;
#X obj 323 154 *~;
#X obj 276 122 + 1;
#X obj 335 113 * -1;
#X obj 208 75 * -1;
#X obj 160 42 clip 0 1;
#X connect 0 0 9 0;
#X connect 1 0 4 0;
#X connect 1 0 5 1;
#X connect 4 0 2 0;
#X connect 5 0 3 0;
#X connect 6 0 4 1;
#X connect 7 0 5 0;
#X connect 8 0 6 0;
#X connect 8 0 7 0;
#X connect 9 0 8 0;
#X restore 102 110 pd pan1;
#N canvas 0 0 450 300 pan1 0;
#X obj 120 15 inlet;
#X obj 297 51 inlet~;
#X obj 256 225 outlet~;
#X obj 336 218 outlet~;
#X obj 251 149 *~;
#X obj 323 154 *~;
#X obj 276 122 + 1;
#X obj 335 113 * -1;
#X obj 208 75 * -1;
#X obj 160 42 clip 0 1;
#X connect 0 0 9 0;
#X connect 1 0 4 0;
#X connect 1 0 5 1;
#X connect 4 0 2 0;
#X connect 5 0 3 0;
#X connect 6 0 4 1;
#X connect 7 0 5 0;
#X connect 8 0 6 0;
#X connect 8 0 7 0;
#X connect 9 0 8 0;
#X restore 183 101 pd pan1;
#X msg 170 75 0.5;
#N canvas 0 0 450 300 pan1 0;
#X obj 120 15 inlet;
#X obj 297 51 inlet~;
#X obj 256 225 outlet~;
#X obj 336 218 outlet~;
#X obj 251 149 *~;
#X obj 323 154 *~;
#X obj 276 122 + 1;
#X obj 335 113 * -1;
#X obj 208 75 * -1;
#X obj 160 42 clip 0 1;
#X connect 0 0 9 0;
#X connect 1 0 4 0;
#X connect 1 0 5 1;
#X connect 4 0 2 0;
#X connect 5 0 3 0;
#X connect 6 0 4 1;
#X connect 7 0 5 0;
#X connect 8 0 6 0;
#X connect 8 0 7 0;
#X connect 9 0 8 0;
#X restore 261 112 pd pan1;
#N canvas 0 0 450 300 pan1 0;
#X obj 120 15 inlet;
#X obj 297 51 inlet~;
#X obj 256 225 outlet~;
#X obj 336 218 outlet~;
#X obj 251 149 *~;
#X obj 323 154 *~;
#X obj 276 122 + 1;
#X obj 335 113 * -1;
#X obj 208 75 * -1;
#X obj 160 42 clip 0 1;
#X connect 0 0 9 0;
#X connect 1 0 4 0;
#X connect 1 0 5 1;
#X connect 4 0 2 0;
#X connect 5 0 3 0;
#X connect 6 0 4 1;
#X connect 7 0 5 0;
#X connect 8 0 6 0;
#X connect 8 0 7 0;
#X connect 9 0 8 0;
#X restore 341 108 pd pan1;
#N canvas 0 0 450 300 pan1 0;
#X obj 120 15 inlet;
#X obj 297 51 inlet~;
#X obj 256 225 outlet~;
#X obj 336 218 outlet~;
#X obj 251 149 *~;
#X obj 323 154 *~;
#X obj 276 122 + 1;
#X obj 335 113 * -1;
#X obj 208 75 * -1;
#X obj 160 42 clip 0 1;
#X connect 0 0 9 0;
#X connect 1 0 4 0;
#X connect 1 0 5 1;
#X connect 4 0 2 0;
#X connect 5 0 3 0;
#X connect 6 0 4 1;
#X connect 7 0 5 0;
#X connect 8 0 6 0;
#X connect 8 0 7 0;
#X connect 9 0 8 0;
#X restore 436 102 pd pan1;
#N canvas 0 0 450 300 pan1 0;
#X obj 120 15 inlet;
#X obj 297 51 inlet~;
#X obj 256 225 outlet~;
#X obj 336 218 outlet~;
#X obj 251 149 *~;
#X obj 323 154 *~;
#X obj 276 122 + 1;
#X obj 335 113 * -1;
#X obj 208 75 * -1;
#X obj 160 42 clip 0 1;
#X connect 0 0 9 0;
#X connect 1 0 4 0;
#X connect 1 0 5 1;
#X connect 4 0 2 0;
#X connect 5 0 3 0;
#X connect 6 0 4 1;
#X connect 7 0 5 0;
#X connect 8 0 6 0;
#X connect 8 0 7 0;
#X connect 9 0 8 0;
#X restore 508 103 pd pan1;
#N canvas 0 0 450 300 pan1 0;
#X obj 120 15 inlet;
#X obj 297 51 inlet~;
#X obj 256 225 outlet~;
#X obj 336 218 outlet~;
#X obj 251 149 *~;
#X obj 323 154 *~;
#X obj 276 122 + 1;
#X obj 335 113 * -1;
#X obj 208 75 * -1;
#X obj 160 42 clip 0 1;
#X connect 0 0 9 0;
#X connect 1 0 4 0;
#X connect 1 0 5 1;
#X connect 4 0 2 0;
#X connect 5 0 3 0;
#X connect 6 0 4 1;
#X connect 7 0 5 0;
#X connect 8 0 6 0;
#X connect 8 0 7 0;
#X connect 9 0 8 0;
#X restore 587 102 pd pan1;
#X obj 316 11 loadbang;
#X msg 92 79 0.53;
#X msg 338 77 0.6;
#X msg 261 78 0.4;
#X msg 423 77 0.65;
#X msg 11 76 0.45;
#X msg 574 76 0.3;
#X msg 501 75 0.7;
#X connect 0 0 10 1;
#X connect 1 0 11 1;
#X connect 4 0 12 1;
#X connect 5 0 14 1;
#X connect 6 0 15 1;
#X connect 7 0 16 1;
#X connect 8 0 17 1;
#X connect 9 0 18 1;
#X connect 10 0 2 0;
#X connect 10 1 3 0;
#X connect 11 0 2 0;
#X connect 11 1 3 0;
#X connect 12 0 2 0;
#X connect 12 1 3 0;
#X connect 13 0 12 0;
#X connect 14 0 2 0;
#X connect 14 1 3 0;
#X connect 15 0 2 0;
#X connect 15 1 3 0;
#X connect 16 0 2 0;
#X connect 16 1 3 0;
#X connect 17 0 2 0;
#X connect 17 1 3 0;
#X connect 18 0 2 0;
#X connect 18 1 3 0;
#X connect 19 0 24 0;
#X connect 19 0 20 0;
#X connect 19 0 13 0;
#X connect 19 0 22 0;
#X connect 19 0 21 0;
#X connect 19 0 23 0;
#X connect 19 0 26 0;
#X connect 19 0 25 0;
#X connect 20 0 11 0;
#X connect 21 0 15 0;
#X connect 22 0 14 0;
#X connect 23 0 16 0;
#X connect 24 0 10 0;
#X connect 25 0 18 0;
#X connect 26 0 17 0;
#X restore 393 552 pd fix-pan-mix8;
#N canvas 316 258 649 492 beatdelay3 0;
#X obj 26 93 inlet~;
#X obj 172 67 inlet;
#X obj 186 458 outlet~;
#X floatatom 189 143 5 0 0 0 - - -;
#X obj 29 15 hradio 12 1 1 8 empty empty 1/16 -25 6 0 8 -262144 -1
-1 2;
#X obj 188 162 pow -1;
#X obj 254 156 + 1;
#X obj 188 185 / 4;
#X obj 201 208 *;
#X obj 212 236 * 60000;
#X obj 14 182 +~;
#X obj 55 155 *~;
#X obj 28 34 hsl 96 8 0 0.95 0 1 empty empty fb -16 5 0 8 -262144 -1
-1 600 1;
#X text 215 66 <- bpm in;
#X obj 180 8 loadbang;
#X floatatom 255 127 5 0 0 0 - - -;
#X obj 124 95 t b b;
#X obj 28 47 hsl 96 8 0 1 0 1 empty empty d/w -22 5 0 8 -262144 -1
-1 8100 1;
#X obj 184 424 +~;
#X obj 206 394 *~;
#X obj 134 392 *~;
#X obj -1 297 * -1;
#X obj 3 328 + 1;
#X text 300 4 beatsynced delay with feedback;
#X text 3 270 <- unique name for delayline! ->;
#X obj -130 267 delwrite~ \$0bdl3 2000;
#X obj 231 274 vd~ \$0bdl3;
#X connect 0 0 10 0;
#X connect 0 0 20 1;
#X connect 1 0 3 0;
#X connect 3 0 5 0;
#X connect 4 0 15 0;
#X connect 4 0 16 0;
#X connect 5 0 7 0;
#X connect 6 0 8 1;
#X connect 7 0 8 0;
#X connect 8 0 9 0;
#X connect 9 0 26 0;
#X connect 10 0 25 0;
#X connect 11 0 10 1;
#X connect 12 0 11 1;
#X connect 14 0 16 0;
#X connect 15 0 6 0;
#X connect 16 0 3 0;
#X connect 16 1 15 0;
#X connect 17 0 19 0;
#X connect 17 0 21 0;
#X connect 18 0 2 0;
#X connect 19 0 18 1;
#X connect 20 0 18 0;
#X connect 21 0 22 0;
#X connect 22 0 20 0;
#X connect 26 0 11 0;
#X connect 26 0 19 1;
#X coords 0 -1 1 1 130 60 1 0 0;
#X restore 462 436 pd beatdelay3;
#N canvas 316 258 649 492 beatdelay4 0;
#X obj 26 93 inlet~;
#X obj 172 67 inlet;
#X obj 186 458 outlet~;
#X floatatom 189 143 5 0 0 0 - - -;
#X obj 29 15 hradio 12 1 1 8 empty empty 1/16 -25 6 0 8 -262144 -1
-1 3;
#X obj 188 162 pow -1;
#X obj 254 156 + 1;
#X obj 188 185 / 4;
#X obj 201 208 *;
#X obj 212 236 * 60000;
#X obj 14 182 +~;
#X obj 55 155 *~;
#X obj 28 34 hsl 96 8 0 0.95 0 1 empty empty fb -16 5 0 8 -262144 -1
-1 2200 1;
#X text 215 66 <- bpm in;
#X obj 180 8 loadbang;
#X floatatom 255 127 5 0 0 0 - - -;
#X obj 124 95 t b b;
#X obj 28 47 hsl 96 8 0 1 0 1 empty empty d/w -22 5 0 8 -262144 -1
-1 3500 1;
#X obj 184 424 +~;
#X obj 206 394 *~;
#X obj 134 392 *~;
#X obj -1 297 * -1;
#X obj 3 328 + 1;
#X text 300 4 beatsynced delay with feedback;
#X text 3 270 <- unique name for delayline! ->;
#X obj -131 268 delwrite~ \$0bdl4 2000;
#X obj 231 275 vd~ \$0bdl4;
#X connect 0 0 10 0;
#X connect 0 0 20 1;
#X connect 1 0 3 0;
#X connect 3 0 5 0;
#X connect 4 0 15 0;
#X connect 4 0 16 0;
#X connect 5 0 7 0;
#X connect 6 0 8 1;
#X connect 7 0 8 0;
#X connect 8 0 9 0;
#X connect 9 0 26 0;
#X connect 10 0 25 0;
#X connect 11 0 10 1;
#X connect 12 0 11 1;
#X connect 14 0 16 0;
#X connect 15 0 6 0;
#X connect 16 0 3 0;
#X connect 16 1 15 0;
#X connect 17 0 19 0;
#X connect 17 0 21 0;
#X connect 18 0 2 0;
#X connect 19 0 18 1;
#X connect 20 0 18 0;
#X connect 21 0 22 0;
#X connect 22 0 20 0;
#X connect 26 0 11 0;
#X connect 26 0 19 1;
#X coords 0 -1 1 1 130 60 1 0 0;
#X restore 618 443 pd beatdelay4;
#X msg 218 302 0.8;
#X msg -21 390 0.9;
#X msg 215 130 0.75;
#X msg 100 193 0.6;
#X msg 0 272 0.9;
#N canvas 168 57 885 883 fmdrum1 0;
#X msg 409 152 0 \$1;
#X floatatom 395 124 5 0 0 0 - - -;
#X obj 157 462 *~;
#X obj 393 234 *~;
#X obj 144 337 *~;
#X floatatom 173 272 5 0 0 0 - - -;
#X obj 141 431 osc~;
#X obj 135 371 +~;
#X floatatom 37 246 5 0 0 0 - - -;
#X msg 464 159 1;
#X obj 233 408 *~;
#X obj 405 -65 inlet;
#X obj 106 139 hsl 128 8 0 127 0 1 empty empty p-amt 2 4 0 8 -262144
-1 -1 9300 1;
#X obj 173 247 mtof;
#X obj 106 150 hsl 128 8 0 127 0 1 empty empty pitch 2 4 0 8 -262144
-1 -1 7500 1;
#X obj 37 219 mtof;
#X obj 106 127 hsl 128 8 1.27 800 1 1 empty empty p-dec 2 4 0 8 -262144
-1 -1 4300 1;
#X obj 258 217 * 2;
#X obj 261 242 - 1;
#X obj 166 302 *;
#X msg 196 221 bang;
#X obj 134 407 +~;
#X obj 107 163 hsl 128 8 0 1 0 1 empty empty fm-mod 2 4 0 8 -225271
-1 -1 8800 1;
#X obj 450 495 *~;
#X obj 107 174 hsl 128 8 0 1 0 1 empty empty fm-send 2 4 0 8 -225271
-1 -1 11400 1;
#X obj 335 603 *~;
#X obj 239 117 vsl 8 80 0 1 0 1 empty empty l 2 8 0 8 -262144 -1 -1
3800 1;
#X obj 200 647 *~;
#X obj 507 610 *~;
#X text 600 703 <- to rm bus;
#X text 414 702 <- to fm bus;
#X text 529 468 <-fm in;
#X obj 190 513 *~;
#X text 596 541 <-rm in;
#X obj 107 187 hsl 128 8 0 1 0 1 empty empty rm-mod 2 4 0 8 -261689
-1 -1 5300 1;
#X obj 107 198 hsl 128 8 0 1 0 1 empty empty rm-send 2 4 0 8 -261689
-1 -1 0 1;
#X text 330 254 quadratic pitch/amp env;
#X obj 144 561 +~;
#X obj 122 532 *~;
#X obj 173 536 *~;
#X obj 99 483 -;
#X msg 65 420 1;
#X obj 231 104 hradio 8 1 1 2 empty empty pol -18 4 0 8 -262144 -1
-1 1;
#X msg 528 174 0 \$1;
#X floatatom 528 146 5 0 0 0 - - -;
#X obj 519 248 *~;
#X msg 588 162 1;
#X obj 482 87 +;
#X msg 491 12 0;
#X text 529 272 amp env;
#X obj 106 115 hsl 128 8 1.27 800 1 1 empty empty decay 2 4 0 8 -262144
-1 -1 11800 1;
#X obj 443 440 * 8000;
#X obj 480 468 inlet~;
#X obj 549 539 inlet~;
#X obj 200 709 outlet~;
#X obj 355 699 outlet~;
#X obj 538 702 outlet~;
#X obj 416 204 vline~;
#X obj 541 216 vline~;
#X obj 392 20 t f b b;
#X obj 530 75 t b b;
#X obj 314 57 moses 0.001;
#X connect 0 0 57 0;
#X connect 1 0 0 0;
#X connect 2 0 32 0;
#X connect 2 0 38 1;
#X connect 3 0 4 0;
#X connect 4 0 7 1;
#X connect 5 0 19 0;
#X connect 6 0 2 0;
#X connect 7 0 21 0;
#X connect 8 0 7 0;
#X connect 9 0 57 0;
#X connect 10 0 2 1;
#X connect 11 0 48 0;
#X connect 11 0 59 0;
#X connect 11 0 60 0;
#X connect 12 0 13 0;
#X connect 13 0 5 0;
#X connect 14 0 15 0;
#X connect 15 0 8 0;
#X connect 16 0 1 0;
#X connect 17 0 18 0;
#X connect 18 0 19 1;
#X connect 18 0 20 0;
#X connect 19 0 4 1;
#X connect 20 0 5 0;
#X connect 21 0 6 0;
#X connect 22 0 51 0;
#X connect 23 0 21 1;
#X connect 24 0 25 1;
#X connect 25 0 55 0;
#X connect 26 0 27 1;
#X connect 27 0 54 0;
#X connect 28 0 56 0;
#X connect 32 0 39 1;
#X connect 34 0 39 0;
#X connect 34 0 40 1;
#X connect 34 0 41 0;
#X connect 35 0 28 1;
#X connect 37 0 27 0;
#X connect 37 0 25 0;
#X connect 37 0 28 0;
#X connect 38 0 37 0;
#X connect 39 0 37 1;
#X connect 40 0 38 0;
#X connect 41 0 40 0;
#X connect 42 0 17 0;
#X connect 43 0 58 0;
#X connect 44 0 43 0;
#X connect 45 0 10 1;
#X connect 46 0 58 0;
#X connect 47 0 44 0;
#X connect 48 0 47 0;
#X connect 50 0 47 1;
#X connect 51 0 23 1;
#X connect 52 0 23 0;
#X connect 53 0 32 1;
#X connect 57 0 3 1;
#X connect 57 0 3 0;
#X connect 58 0 45 1;
#X connect 58 0 45 0;
#X connect 59 0 61 0;
#X connect 59 1 1 0;
#X connect 59 2 9 0;
#X connect 60 0 44 0;
#X connect 60 1 46 0;
#X connect 61 1 10 0;
#X coords 0 -1 1 1 150 110 1 100 100;
#X restore 335 310 pd fmdrum1;
#X msg -49 178 0.7;
#X msg 414 -7 1;
#X obj 378 13 /;
#X obj 456 4 t f f;
#X obj 316 5 * 15000;
#X obj 295 -23 loadbang;
#X obj 221 -13 t b b;
#X text -62 -8 8/2008 martin brinkmann;
#X text -65 -53 just a quick idea of some kind of mixture between a
cellular automaton and a neuronal-net-like thing. plays 8 fm-drums
with mutual modulation.;
#X text -73 414 every 'cell' has a counter which is increased through
banging \, and a threshhold which causes the counter to reset and send
a bang.;
#X connect 0 0 2 0;
#X connect 0 0 4 0;
#X connect 0 0 31 0;
#X connect 0 0 18 0;
#X connect 0 0 20 0;
#X connect 1 0 0 0;
#X connect 1 0 4 0;
#X connect 1 0 6 0;
#X connect 1 0 32 0;
#X connect 2 0 1 0;
#X connect 2 0 5 0;
#X connect 2 0 6 0;
#X connect 2 0 17 0;
#X connect 2 0 25 0;
#X connect 3 0 0 0;
#X connect 3 0 1 0;
#X connect 4 0 2 0;
#X connect 4 0 33 0;
#X connect 4 0 18 0;
#X connect 5 0 3 0;
#X connect 5 0 29 0;
#X connect 5 0 20 0;
#X connect 5 0 6 0;
#X connect 6 0 0 0;
#X connect 6 0 2 0;
#X connect 6 0 16 0;
#X connect 6 0 18 0;
#X connect 6 0 25 0;
#X connect 7 0 3 0;
#X connect 7 0 18 0;
#X connect 7 0 5 0;
#X connect 7 0 2 0;
#X connect 9 0 27 0;
#X connect 10 0 28 0;
#X connect 10 1 22 0;
#X connect 10 1 21 0;
#X connect 10 1 34 1;
#X connect 10 2 11 2;
#X connect 11 0 26 0;
#X connect 11 1 9 1;
#X connect 11 2 13 2;
#X connect 12 0 26 1;
#X connect 12 1 11 1;
#X connect 12 1 13 1;
#X connect 12 1 21 0;
#X connect 13 0 26 5;
#X connect 13 1 9 1;
#X connect 14 0 26 2;
#X connect 14 1 13 1;
#X connect 14 2 11 2;
#X connect 15 0 26 3;
#X connect 15 0 34 2;
#X connect 15 1 14 1;
#X connect 15 1 13 2;
#X connect 16 0 14 0;
#X connect 17 0 15 0;
#X connect 18 0 19 0;
#X connect 18 0 7 0;
#X connect 18 0 3 0;
#X connect 19 0 11 0;
#X connect 20 0 30 0;
#X connect 20 0 1 0;
#X connect 20 0 25 0;
#X connect 20 0 7 0;
#X connect 20 0 0 0;
#X connect 21 0 9 1;
#X connect 21 0 14 1;
#X connect 21 0 15 2;
#X connect 21 0 34 1;
#X connect 22 0 12 1;
#X connect 22 0 15 1;
#X connect 22 0 34 1;
#X connect 23 0 22 1;
#X connect 23 0 21 1;
#X connect 23 0 27 1;
#X connect 23 0 28 1;
#X connect 23 0 38 0;
#X connect 24 0 7 0;
#X connect 25 0 5 0;
#X connect 25 0 6 0;
#X connect 25 0 0 0;
#X connect 25 0 35 0;
#X connect 25 0 7 0;
#X connect 26 0 8 0;
#X connect 26 1 8 1;
#X connect 27 0 26 4;
#X connect 28 0 26 6;
#X connect 29 0 9 0;
#X connect 30 0 10 0;
#X connect 30 0 15 0;
#X connect 31 0 10 0;
#X connect 32 0 13 0;
#X connect 33 0 12 0;
#X connect 34 0 26 7;
#X connect 34 1 11 1;
#X connect 35 0 34 0;
#X connect 36 0 37 0;
#X connect 37 0 39 0;
#X connect 38 0 36 0;
#X connect 38 1 37 1;
#X connect 39 0 24 1;
#X connect 40 0 41 0;
#X connect 41 0 24 0;
#X connect 41 1 23 0;
