#N canvas 142 97 461 416 10;
#X obj 33 8 inlet;
#X obj 166 7 inlet;
#X obj 123 315 outlet;
#X obj 54 200 &&;
#X obj 43 122 t f f;
#X obj 43 98 float;
#X obj 93 251 &&;
#X obj 164 35 t b f;
#X obj 183 211 &&;
#X obj 178 139 t f f;
#X obj 21 164 >= \$1;
#X obj 75 165 <= \$3;
#X obj 160 172 >= \$2;
#X obj 215 173 <= \$4;
#X text 262 143 rect: x1 y1 x2 y2;
#X obj 123 286 int;
#X obj 126 89 delay 1;
#X connect 0 0 5 0;
#X connect 0 0 16 0;
#X connect 1 0 7 0;
#X connect 1 0 16 0;
#X connect 3 0 6 0;
#X connect 4 0 10 0;
#X connect 4 1 11 0;
#X connect 5 0 4 0;
#X connect 6 0 15 1;
#X connect 7 0 5 0;
#X connect 7 1 9 0;
#X connect 8 0 6 1;
#X connect 9 0 12 0;
#X connect 9 1 13 0;
#X connect 10 0 3 0;
#X connect 11 0 3 1;
#X connect 12 0 8 0;
#X connect 13 0 8 1;
#X connect 15 0 2 0;
#X connect 16 0 15 0;
