#N canvas 219 39 1545 854 10;
#X obj 213 214 random 2;
#X obj 179 179 delay;
#X obj 220 236 select 0 1;
#X obj 216 -48 loadbang;
#X msg 217 -22 bang;
#X obj 188 98 t b b;
#X obj 234 132 random 6000;
#X obj 234 154 + 4000;
#X obj 283 198 * 0.5;
#X obj 339 198 * 0.666;
#X obj 250 287 delay;
#X obj 323 266 delay;
#X obj 351 318 delay;
#N canvas 57 101 544 557 random4klang 0;
#X obj 115 -170 inlet;
#X obj 105 61 +;
#X obj -41 266 outlet;
#X obj 32 113 mod 12;
#X obj 89 302 outlet;
#X obj 129 137 mod 12;
#X obj 192 328 outlet;
#X obj 216 166 mod 12;
#X obj 199 103 +;
#X obj 292 346 outlet;
#X obj 339 185 mod 12;
#X obj 317 147 +;
#X obj 63 -16 random 2;
#X obj 133 -9 random 2;
#X obj 221 10 random 2;
#X obj 329 11 random 2;
#X obj 41 14 + 2;
#X obj 137 21 + 2;
#X obj 225 40 + 2;
#X obj 331 39 + 2;
#X obj 22 142 +;
#X obj 133 176 +;
#X obj 215 206 +;
#X obj 329 209 +;
#X obj -75 107 random 2;
#X obj -37 225 +;
#X obj 60 -84 t b b b b b b;
#X obj 79 258 +;
#X obj 189 289 +;
#X obj 308 309 +;
#X obj -98 -95 inlet;
#X obj -41 -67 random 12;
#X obj -49 -21 mod 12;
#X obj -53 5 +;
#X obj -41 -171 inlet;
#X obj -50 59 t b f;
#X obj -45 -139 t b b;
#X obj -46 -45 * 7;
#X obj -51 37 + 12;
#X obj -73 164 * 12;
#X obj -72 134 + 1;
#X connect 0 0 26 0;
#X connect 1 0 5 0;
#X connect 1 0 8 0;
#X connect 3 0 20 0;
#X connect 5 0 21 0;
#X connect 7 0 22 0;
#X connect 8 0 7 0;
#X connect 8 0 11 0;
#X connect 10 0 23 0;
#X connect 11 0 10 0;
#X connect 12 0 16 0;
#X connect 13 0 17 0;
#X connect 14 0 18 0;
#X connect 15 0 19 0;
#X connect 16 0 3 0;
#X connect 16 0 1 0;
#X connect 17 0 1 1;
#X connect 18 0 8 1;
#X connect 19 0 11 1;
#X connect 20 0 25 1;
#X connect 21 0 27 1;
#X connect 22 0 28 1;
#X connect 23 0 29 1;
#X connect 24 0 40 0;
#X connect 25 0 2 0;
#X connect 26 0 25 0;
#X connect 26 1 33 0;
#X connect 26 2 12 0;
#X connect 26 3 13 0;
#X connect 26 4 14 0;
#X connect 26 5 15 0;
#X connect 27 0 4 0;
#X connect 28 0 6 0;
#X connect 29 0 9 0;
#X connect 30 0 33 1;
#X connect 31 0 37 0;
#X connect 32 0 33 0;
#X connect 33 0 38 0;
#X connect 34 0 36 0;
#X connect 35 0 20 0;
#X connect 35 0 21 0;
#X connect 35 0 22 0;
#X connect 35 0 23 0;
#X connect 35 1 20 1;
#X connect 35 1 21 1;
#X connect 35 1 22 1;
#X connect 35 1 23 1;
#X connect 36 0 24 0;
#X connect 36 1 31 0;
#X connect 37 0 32 0;
#X connect 38 0 35 0;
#X connect 39 0 25 0;
#X connect 39 0 27 0;
#X connect 39 0 28 0;
#X connect 39 0 29 0;
#X connect 40 0 39 0;
#X restore 10 168 pd random4klang;
#X obj -27 96 random 12;
#X obj 54 93 t b b;
#X obj 449 269 delay;
#X obj 485 207 * 0.25;
#X obj 522 263 delay;
#X obj 564 214 * 0.25;
#X obj 126 357 int;
#X obj 167 375 int;
#X obj 200 364 int;
#X obj 241 385 int;
#X obj 592 264 delay;
#X obj 624 222 * 0.2;
#X obj 414 206 * 0.02;
#X obj 506 330 random 2;
#X obj 489 373 select 0 1;
#X obj 305 374 random 200;
#X obj 365 135 /;
#X obj 395 105 + 12;
#X obj 322 66 t f b;
#X obj 462 452 delread~ \$0clkdel1;
#X obj 455 417 int;
#X obj -8 212 mod 12;
#X obj 14 263 +;
#X obj 51 221 mod 12;
#X obj 73 272 +;
#X obj 109 223 mod 12;
#X obj 131 274 +;
#X obj 159 219 mod 12;
#X obj 181 270 +;
#X obj 427 393 * 4;
#X obj 265 454 delwrite~ \$0clkdel1 4000;
#X obj 129 145 delay 1;
#X obj -7 235 + 24;
#X obj 53 244 + 24;
#X obj 112 246 + 24;
#X obj 160 243 + 24;
#N canvas 0 60 839 714 resonator1 0;
#X obj 130 384 inlet~;
#X obj 230 555 outlet~;
#X obj 117 126 hsl 96 8 0.6 0.999 1 1 empty empty fb -15 4 0 8 -262144
-1 -1 9000 1;
#X obj 117 114 hsl 96 8 75 127 1 1 empty empty dp -15 4 0 8 -262144
-1 -1 0 1;
#X obj 200 421 mtof;
#X obj 315 376 mtof;
#X msg 266 371 1000;
#X obj 287 411 /;
#X obj 334 67 inlet;
#N canvas 192 258 839 634 delayline 0;
#X obj 125 281 inlet~;
#X obj 418 525 outlet~;
#X obj 199 507 +~;
#X obj 228 478 *~;
#X obj 29 267 block~ 1;
#X obj 355 374 lop~;
#X obj 399 289 inlet;
#X obj 288 277 inlet;
#X obj 215 266 inlet;
#X obj 304 342 vd~ \$0tpres1;
#X obj 203 530 delwrite~ \$0tpres1 500;
#X connect 0 0 2 0;
#X connect 2 0 10 0;
#X connect 3 0 2 1;
#X connect 5 0 3 1;
#X connect 6 0 5 1;
#X connect 7 0 9 0;
#X connect 8 0 3 0;
#X connect 9 0 1 0;
#X connect 9 0 5 0;
#X restore 231 494 pd delayline;
#X obj 386 141 - 63;
#X obj 387 164 / 64;
#X obj 283 230 t b f;
#X obj 302 445 +;
#X obj 388 186 - 1;
#X obj 387 209 abs;
#X obj 321 344 float;
#X obj 341 302 t b b f;
#X obj 384 238 *;
#X obj 378 261 * -0.2;
#X obj 192 -70 inlet;
#X obj 181 -39 random 30;
#X obj 172 -11 95;
#X connect 0 0 9 0;
#X connect 2 0 9 1;
#X connect 3 0 4 0;
#X connect 3 0 10 0;
#X connect 4 0 9 3;
#X connect 5 0 7 1;
#X connect 6 0 7 0;
#X connect 7 0 13 0;
#X connect 8 0 12 0;
#X connect 9 0 1 0;
#X connect 10 0 11 0;
#X connect 11 0 14 0;
#X connect 12 0 6 0;
#X connect 12 1 16 0;
#X connect 13 0 9 2;
#X connect 14 0 15 0;
#X connect 15 0 18 1;
#X connect 15 0 18 0;
#X connect 16 0 5 0;
#X connect 17 0 6 0;
#X connect 17 1 16 0;
#X connect 17 2 13 1;
#X connect 18 0 19 0;
#X connect 19 0 17 0;
#X connect 20 0 21 0;
#X connect 21 0 22 0;
#X connect 22 0 3 0;
#X coords 0 -1 1 1 140 40 1 100 100;
#X restore -123 508 pd resonator1;
#N canvas 0 60 839 714 resonator2 0;
#X obj 130 384 inlet~;
#X obj 230 555 outlet~;
#X obj 117 126 hsl 96 8 0.6 0.999 1 1 empty empty fb -15 4 0 8 -262144
-1 -1 9000 1;
#X obj 117 114 hsl 96 8 75 127 1 1 empty empty dp -15 4 0 8 -262144
-1 -1 5546 1;
#X obj 200 421 mtof;
#X obj 315 376 mtof;
#X msg 266 371 1000;
#X obj 287 411 /;
#X obj 334 67 inlet;
#N canvas 192 258 839 634 delayline 0;
#X obj 125 281 inlet~;
#X obj 418 525 outlet~;
#X obj 199 507 +~;
#X obj 228 478 *~;
#X obj 29 267 block~ 1;
#X obj 355 374 lop~;
#X obj 399 289 inlet;
#X obj 288 277 inlet;
#X obj 215 266 inlet;
#X obj 304 342 vd~ \$0tpres2;
#X obj 205 528 delwrite~ \$0tpres2 500;
#X connect 0 0 2 0;
#X connect 2 0 10 0;
#X connect 3 0 2 1;
#X connect 5 0 3 1;
#X connect 6 0 5 1;
#X connect 7 0 9 0;
#X connect 8 0 3 0;
#X connect 9 0 1 0;
#X connect 9 0 5 0;
#X restore 231 494 pd delayline;
#X obj 386 141 - 63;
#X obj 387 164 / 64;
#X obj 283 230 t b f;
#X obj 302 445 +;
#X obj 388 186 - 1;
#X obj 387 209 abs;
#X obj 321 344 float;
#X obj 341 302 t b b f;
#X obj 384 238 *;
#X obj 378 261 * -0.2;
#X obj 189 -7 inlet;
#X obj 178 24 random 35;
#X obj 169 52 + 90;
#X connect 0 0 9 0;
#X connect 2 0 9 1;
#X connect 3 0 4 0;
#X connect 3 0 10 0;
#X connect 4 0 9 3;
#X connect 5 0 7 1;
#X connect 6 0 7 0;
#X connect 7 0 13 0;
#X connect 8 0 12 0;
#X connect 9 0 1 0;
#X connect 10 0 11 0;
#X connect 11 0 14 0;
#X connect 12 0 6 0;
#X connect 12 1 16 0;
#X connect 13 0 9 2;
#X connect 14 0 15 0;
#X connect 15 0 18 1;
#X connect 15 0 18 0;
#X connect 16 0 5 0;
#X connect 17 0 6 0;
#X connect 17 1 16 0;
#X connect 17 2 13 1;
#X connect 18 0 19 0;
#X connect 19 0 17 0;
#X connect 20 0 21 0;
#X connect 21 0 22 0;
#X connect 22 0 3 0;
#X coords 0 -1 1 1 140 40 1 100 100;
#X restore -84 570 pd resonator2;
#N canvas 0 60 839 714 resonator3 0;
#X obj 130 384 inlet~;
#X obj 230 555 outlet~;
#X obj 117 126 hsl 96 8 0.6 0.999 1 1 empty empty fb -15 4 0 8 -262144
-1 -1 9000 1;
#X obj 117 114 hsl 96 8 75 127 1 1 empty empty dp -15 4 0 8 -262144
-1 -1 7866 1;
#X obj 200 421 mtof;
#X obj 315 376 mtof;
#X msg 266 371 1000;
#X obj 287 411 /;
#X obj 334 67 inlet;
#N canvas 192 258 839 634 delayline 0;
#X obj 125 281 inlet~;
#X obj 418 525 outlet~;
#X obj 199 507 +~;
#X obj 228 478 *~;
#X obj 29 267 block~ 1;
#X obj 355 374 lop~;
#X obj 399 289 inlet;
#X obj 288 277 inlet;
#X obj 215 266 inlet;
#X obj 305 342 vd~ \$0tpres3;
#X obj 204 530 delwrite~ \$0tpres3 500;
#X connect 0 0 2 0;
#X connect 2 0 10 0;
#X connect 3 0 2 1;
#X connect 5 0 3 1;
#X connect 6 0 5 1;
#X connect 7 0 9 0;
#X connect 8 0 3 0;
#X connect 9 0 1 0;
#X connect 9 0 5 0;
#X restore 231 494 pd delayline;
#X obj 386 141 - 63;
#X obj 387 164 / 64;
#X obj 283 230 t b f;
#X obj 302 445 +;
#X obj 388 186 - 1;
#X obj 387 209 abs;
#X obj 321 344 float;
#X obj 341 302 t b b f;
#X obj 384 238 *;
#X obj 378 261 * -0.2;
#X obj 189 -7 inlet;
#X obj 179 24 random 30;
#X obj 169 52 + 95;
#X connect 0 0 9 0;
#X connect 2 0 9 1;
#X connect 3 0 4 0;
#X connect 3 0 10 0;
#X connect 4 0 9 3;
#X connect 5 0 7 1;
#X connect 6 0 7 0;
#X connect 7 0 13 0;
#X connect 8 0 12 0;
#X connect 9 0 1 0;
#X connect 10 0 11 0;
#X connect 11 0 14 0;
#X connect 12 0 6 0;
#X connect 12 1 16 0;
#X connect 13 0 9 2;
#X connect 14 0 15 0;
#X connect 15 0 18 1;
#X connect 15 0 18 0;
#X connect 16 0 5 0;
#X connect 17 0 6 0;
#X connect 17 1 16 0;
#X connect 17 2 13 1;
#X connect 18 0 19 0;
#X connect 19 0 17 0;
#X connect 20 0 21 0;
#X connect 21 0 22 0;
#X connect 22 0 3 0;
#X coords 0 -1 1 1 140 40 1 100 100;
#X restore -58 629 pd resonator3;
#N canvas 213 391 665 482 fix-pan-mix4 0;
#X obj 41 38 inlet~;
#X obj 109 41 inlet~;
#X obj 55 225 outlet~;
#X obj 180 226 outlet~;
#X obj 201 37 inlet~;
#X obj 293 42 inlet~;
#N canvas 0 0 450 300 pan1 0;
#X obj 120 15 inlet;
#X obj 297 51 inlet~;
#X obj 256 225 outlet~;
#X obj 336 218 outlet~;
#X obj 251 149 *~;
#X obj 323 154 *~;
#X obj 276 122 + 1;
#X obj 335 113 * -1;
#X obj 208 75 * -1;
#X obj 160 42 clip 0 1;
#X connect 0 0 9 0;
#X connect 1 0 4 0;
#X connect 1 0 5 1;
#X connect 4 0 2 0;
#X connect 5 0 3 0;
#X connect 6 0 4 1;
#X connect 7 0 5 0;
#X connect 8 0 6 0;
#X connect 8 0 7 0;
#X connect 9 0 8 0;
#X restore 22 105 pd pan1;
#X msg 9 79 0.52;
#N canvas 0 0 450 300 pan1 0;
#X obj 120 15 inlet;
#X obj 297 51 inlet~;
#X obj 256 225 outlet~;
#X obj 336 218 outlet~;
#X obj 251 149 *~;
#X obj 323 154 *~;
#X obj 276 122 + 1;
#X obj 335 113 * -1;
#X obj 208 75 * -1;
#X obj 160 42 clip 0 1;
#X connect 0 0 9 0;
#X connect 1 0 4 0;
#X connect 1 0 5 1;
#X connect 4 0 2 0;
#X connect 5 0 3 0;
#X connect 6 0 4 1;
#X connect 7 0 5 0;
#X connect 8 0 6 0;
#X connect 8 0 7 0;
#X connect 9 0 8 0;
#X restore 102 110 pd pan1;
#X msg 91 78 0.415;
#N canvas 0 0 450 300 pan1 0;
#X obj 120 15 inlet;
#X obj 297 51 inlet~;
#X obj 256 225 outlet~;
#X obj 336 218 outlet~;
#X obj 251 149 *~;
#X obj 323 154 *~;
#X obj 276 122 + 1;
#X obj 335 113 * -1;
#X obj 208 75 * -1;
#X obj 160 42 clip 0 1;
#X connect 0 0 9 0;
#X connect 1 0 4 0;
#X connect 1 0 5 1;
#X connect 4 0 2 0;
#X connect 5 0 3 0;
#X connect 6 0 4 1;
#X connect 7 0 5 0;
#X connect 8 0 6 0;
#X connect 8 0 7 0;
#X connect 9 0 8 0;
#X restore 183 101 pd pan1;
#X msg 170 75 0.545;
#N canvas 0 0 450 300 pan1 0;
#X obj 120 15 inlet;
#X obj 297 51 inlet~;
#X obj 256 225 outlet~;
#X obj 336 218 outlet~;
#X obj 251 149 *~;
#X obj 323 154 *~;
#X obj 276 122 + 1;
#X obj 335 113 * -1;
#X obj 208 75 * -1;
#X obj 160 42 clip 0 1;
#X connect 0 0 9 0;
#X connect 1 0 4 0;
#X connect 1 0 5 1;
#X connect 4 0 2 0;
#X connect 5 0 3 0;
#X connect 6 0 4 1;
#X connect 7 0 5 0;
#X connect 8 0 6 0;
#X connect 8 0 7 0;
#X connect 9 0 8 0;
#X restore 261 112 pd pan1;
#X msg 260 78 0.385;
#X obj 179 -171 t b b;
#X obj -11 -82 random 100;
#X obj -8 -61 / 400;
#X msg -6 -4 set \$1;
#X obj -7 -36 + 0.375;
#X obj 87 -80 random 100;
#X obj 90 -59 / 400;
#X msg 92 -2 set \$1;
#X obj 91 -34 + 0.375;
#X obj 178 -72 random 100;
#X obj 181 -51 / 400;
#X msg 183 6 set \$1;
#X obj 182 -26 + 0.375;
#X obj 273 -68 random 100;
#X obj 276 -47 / 400;
#X msg 278 10 set \$1;
#X obj 277 -22 + 0.375;
#X obj 174 -212 loadbang;
#X connect 0 0 6 1;
#X connect 1 0 8 1;
#X connect 4 0 10 1;
#X connect 5 0 12 1;
#X connect 6 0 2 0;
#X connect 6 1 3 0;
#X connect 7 0 6 0;
#X connect 8 0 2 0;
#X connect 8 1 3 0;
#X connect 9 0 8 0;
#X connect 10 0 2 0;
#X connect 10 1 3 0;
#X connect 11 0 10 0;
#X connect 12 0 2 0;
#X connect 12 1 3 0;
#X connect 13 0 12 0;
#X connect 14 0 7 0;
#X connect 14 0 9 0;
#X connect 14 0 11 0;
#X connect 14 0 13 0;
#X connect 14 1 15 0;
#X connect 14 1 19 0;
#X connect 14 1 23 0;
#X connect 14 1 27 0;
#X connect 15 0 16 0;
#X connect 16 0 18 0;
#X connect 17 0 7 0;
#X connect 18 0 17 0;
#X connect 19 0 20 0;
#X connect 20 0 22 0;
#X connect 21 0 9 0;
#X connect 22 0 21 0;
#X connect 23 0 24 0;
#X connect 24 0 26 0;
#X connect 25 0 11 0;
#X connect 26 0 25 0;
#X connect 27 0 28 0;
#X connect 28 0 30 0;
#X connect 29 0 13 0;
#X connect 30 0 29 0;
#X connect 31 0 14 0;
#X restore 146 901 pd fix-pan-mix4;
#N canvas 0 60 839 714 resonator4 0;
#X obj 130 384 inlet~;
#X obj 230 555 outlet~;
#X obj 117 126 hsl 96 8 0.6 0.999 1 1 empty empty fb -15 4 0 8 -262144
-1 -1 9000 1;
#X obj 117 114 hsl 96 8 75 127 1 1 empty empty dp -15 4 0 8 -262144
-1 -1 7710 1;
#X obj 200 421 mtof;
#X obj 315 376 mtof;
#X msg 266 371 1000;
#X obj 287 411 /;
#X obj 334 67 inlet;
#N canvas 192 258 839 634 delayline 0;
#X obj 125 281 inlet~;
#X obj 418 525 outlet~;
#X obj 199 507 +~;
#X obj 228 478 *~;
#X obj 29 267 block~ 1;
#X obj 355 374 lop~;
#X obj 399 289 inlet;
#X obj 288 277 inlet;
#X obj 215 266 inlet;
#X obj 305 342 vd~ \$0tpres4;
#X obj 204 530 delwrite~ \$0tpres4 500;
#X connect 0 0 2 0;
#X connect 2 0 10 0;
#X connect 3 0 2 1;
#X connect 5 0 3 1;
#X connect 6 0 5 1;
#X connect 7 0 9 0;
#X connect 8 0 3 0;
#X connect 9 0 1 0;
#X connect 9 0 5 0;
#X restore 231 494 pd delayline;
#X obj 386 141 - 63;
#X obj 387 164 / 64;
#X obj 283 230 t b f;
#X obj 302 445 +;
#X obj 388 186 - 1;
#X obj 387 209 abs;
#X obj 321 344 float;
#X obj 341 302 t b b f;
#X obj 384 238 *;
#X obj 378 261 * -0.2;
#X obj 189 -7 inlet;
#X obj 178 24 random 35;
#X obj 169 52 + 90;
#X connect 0 0 9 0;
#X connect 2 0 9 1;
#X connect 3 0 4 0;
#X connect 3 0 10 0;
#X connect 4 0 9 3;
#X connect 5 0 7 1;
#X connect 6 0 7 0;
#X connect 7 0 13 0;
#X connect 8 0 12 0;
#X connect 9 0 1 0;
#X connect 10 0 11 0;
#X connect 11 0 14 0;
#X connect 12 0 6 0;
#X connect 12 1 16 0;
#X connect 13 0 9 2;
#X connect 14 0 15 0;
#X connect 15 0 18 1;
#X connect 15 0 18 0;
#X connect 16 0 5 0;
#X connect 17 0 6 0;
#X connect 17 1 16 0;
#X connect 17 2 13 1;
#X connect 18 0 19 0;
#X connect 19 0 17 0;
#X connect 20 0 21 0;
#X connect 21 0 22 0;
#X connect 22 0 3 0;
#X coords 0 -1 1 1 140 40 1 100 100;
#X restore -40 697 pd resonator4;
#X obj 377 75 random 12;
#X obj 419 736 / 100;
#X obj 408 758 clip 0 1;
#X obj 408 835 -;
#X msg 404 814 1;
#X obj 408 787 t b f;
#X obj -73 467 *~;
#X obj 378 854 *;
#X obj 447 660 env~;
#X obj 424 711 line;
#N canvas 101 241 690 525 autopan 0;
#X obj 105 118 hsl 128 8 0.1 30 1 1 empty empty lfo 132 5 0 8 -262144
-1 -1 4645 1;
#X obj 105 129 hsl 128 8 0 0.5 0 1 empty empty dp 132 5 0 8 -262144
-1 -1 2500 1;
#X obj -19 204 osc~;
#X obj -14 241 *~;
#X obj -63 475 outlet~;
#X obj 62 476 outlet~;
#X obj 116 294 inlet~;
#N canvas 0 0 450 300 pan1 0;
#X obj 297 51 inlet~;
#X obj 256 225 outlet~;
#X obj 336 218 outlet~;
#X obj 251 149 *~;
#X obj 323 154 *~;
#X obj 160 42 clip~ 0 1;
#X obj 120 15 inlet~;
#X obj 208 75 *~ -1;
#X obj 276 122 +~ 1;
#X obj 335 113 *~ -1;
#X connect 0 0 3 0;
#X connect 0 0 4 1;
#X connect 3 0 1 0;
#X connect 4 0 2 0;
#X connect 5 0 7 0;
#X connect 6 0 5 0;
#X connect 7 0 8 0;
#X connect 7 0 9 0;
#X connect 8 0 3 1;
#X connect 9 0 4 0;
#X restore -22 368 pd pan1;
#X obj -17 281 +~ 0.5;
#X obj 166 38 inlet;
#X obj 169 64 random 100;
#X obj 291 41 + 8;
#X obj 297 77 / 108;
#X connect 0 0 2 0;
#X connect 1 0 3 1;
#X connect 2 0 3 0;
#X connect 3 0 8 0;
#X connect 6 0 7 1;
#X connect 7 0 4 0;
#X connect 7 1 5 0;
#X connect 8 0 7 0;
#X connect 9 0 10 0;
#X connect 10 0 11 0;
#X connect 11 0 12 0;
#X connect 12 0 0 0;
#X coords 0 -1 1 1 150 40 1 100 100;
#X restore 564 531 pd autopan;
#X obj 719 282 select 0;
#N canvas 101 241 690 525 autopan 0;
#X obj 105 118 hsl 128 8 0.1 30 1 1 empty empty lfo 132 5 0 8 -262144
-1 -1 1206 1;
#X obj 105 129 hsl 128 8 0 0.5 0 1 empty empty dp 132 5 0 8 -262144
-1 -1 2900 1;
#X obj -19 204 osc~;
#X obj -14 241 *~;
#X obj -63 475 outlet~;
#X obj 62 476 outlet~;
#X obj 116 294 inlet~;
#N canvas 0 0 450 300 pan1 0;
#X obj 297 51 inlet~;
#X obj 256 225 outlet~;
#X obj 336 218 outlet~;
#X obj 251 149 *~;
#X obj 323 154 *~;
#X obj 160 42 clip~ 0 1;
#X obj 120 15 inlet~;
#X obj 208 75 *~ -1;
#X obj 276 122 +~ 1;
#X obj 335 113 *~ -1;
#X connect 0 0 3 0;
#X connect 0 0 4 1;
#X connect 3 0 1 0;
#X connect 4 0 2 0;
#X connect 5 0 7 0;
#X connect 6 0 5 0;
#X connect 7 0 8 0;
#X connect 7 0 9 0;
#X connect 8 0 3 1;
#X connect 9 0 4 0;
#X restore -22 368 pd pan1;
#X obj -17 281 +~ 0.5;
#X obj 166 38 inlet;
#X obj 169 64 random 100;
#X obj 291 41 + 8;
#X obj 297 77 / 128;
#X connect 0 0 2 0;
#X connect 1 0 3 1;
#X connect 2 0 3 0;
#X connect 3 0 8 0;
#X connect 6 0 7 1;
#X connect 7 0 4 0;
#X connect 7 1 5 0;
#X connect 8 0 7 0;
#X connect 9 0 10 0;
#X connect 10 0 11 0;
#X connect 11 0 12 0;
#X connect 12 0 0 0;
#X coords 0 -1 1 1 150 40 1 100 100;
#X restore 177 608 pd autopan;
#X obj -100 298 noise~;
#X obj -93 425 lop~ 200;
#X obj 703 258 random 11;
#N canvas 0 81 979 632 dualdelay1m 0;
#X obj -84 383 inlet~;
#X obj 331 212 inlet;
#X obj 382 316 pow -1;
#X obj 382 339 / 4;
#X obj 395 362 *;
#X obj 396 387 * 60000;
#X obj 232 440 +~;
#X obj 257 367 *~;
#X text 369 215 <- bpm in;
#X obj 520 953 outlet~;
#X obj 364 667 *;
#X obj 366 697 * 60000;
#X obj 173 641 +~;
#X obj 209 616 *~;
#X obj 41 90 vsl 8 100 20 120 0 1 empty empty cut 0 110 1 8 -233017
-1 -1 5900 1;
#X obj 68 324 mtof;
#X obj 517 883 +~;
#X obj 510 516 *~;
#X obj 525 546 +~;
#X obj 559 520 *~;
#X obj 378 779 *~;
#X obj 393 809 +~;
#X obj 415 786 *~;
#X obj 40 296 +;
#X obj 159 268 +;
#X obj 513 37 inlet;
#X text 559 38 <- sync-in;
#X text 403 151 1 beatsynced delay for high - and one for low frequencies
;
#X obj 243 479 delwrite~ \$0ddl-hl 2000;
#X obj 148 699 delwrite~ \$0ddl-ll 2000;
#X text 560 424 <-unique delaybuffer name!;
#X text 13 443 unique delaybuffer name! ->;
#X text -82 696 unique delaybuffer name2! ->;
#X text 513 734 <-unique delaybuffer name2!;
#X obj 158 583 vcf~;
#X obj 2 383 hip~;
#X obj 106 538 lop~;
#X obj 26 415 vcf~;
#X obj 120 498 mtof;
#X obj 104 470 + 24;
#X obj 428 423 delread~ \$0ddl-hl;
#X obj 386 732 delread~ \$0ddl-ll;
#X obj 658 195 t b b;
#X obj 675 30 inlet;
#X obj 461 240 random 8;
#X obj 460 264 + 1;
#X obj 566 256 random 8;
#X obj 565 280 + 1;
#X obj 664 55 t b b;
#X obj 378 272 int;
#X floatatom 472 388 5 0 0 0 - - -;
#X floatatom 571 312 5 0 0 0 - - -;
#X msg 201 233 6;
#N canvas 187 182 588 521 rndline1 0;
#X obj 166 290 pack;
#X obj 130 135 random 1000;
#X obj 130 156 / 1000;
#X obj 135 361 ==;
#X obj 159 324 line;
#X obj 241 187 exp;
#X obj 236 159 / 100;
#X obj 93 16 inlet;
#X text 139 18 start;
#X obj 251 413 outlet;
#X obj 90 396 moses 0.1;
#X obj 98 43 t b b;
#X obj 34 454 delay 1000;
#X obj 244 210 int;
#X obj 234 134 random 950;
#X obj 196 264 + 300;
#X obj 313 334 +;
#X obj 333 238 random 950;
#X connect 0 0 4 0;
#X connect 1 0 2 0;
#X connect 2 0 0 0;
#X connect 2 0 3 1;
#X connect 3 0 10 0;
#X connect 4 0 9 0;
#X connect 4 0 3 0;
#X connect 5 0 13 0;
#X connect 6 0 5 0;
#X connect 7 0 11 0;
#X connect 10 1 12 0;
#X connect 11 0 1 0;
#X connect 11 0 14 0;
#X connect 11 1 17 0;
#X connect 12 0 11 0;
#X connect 13 0 15 0;
#X connect 13 0 16 0;
#X connect 13 0 17 1;
#X connect 14 0 6 0;
#X connect 15 0 0 1;
#X connect 16 0 12 1;
#X connect 17 0 16 1;
#X restore 80 152 pd rndline1;
#N canvas 187 182 588 521 rndline2 0;
#X obj 166 290 pack;
#X obj 130 135 random 1000;
#X obj 130 156 / 1000;
#X obj 135 361 ==;
#X obj 159 324 line;
#X obj 241 187 exp;
#X obj 236 159 / 100;
#X obj 93 16 inlet;
#X text 139 18 start;
#X obj 251 413 outlet;
#X obj 90 396 moses 0.1;
#X obj 98 43 t b b;
#X obj 34 454 delay 1000;
#X obj 244 210 int;
#X obj 234 134 random 950;
#X obj 196 264 + 300;
#X obj 313 334 +;
#X obj 333 238 random 950;
#X connect 0 0 4 0;
#X connect 1 0 2 0;
#X connect 2 0 0 0;
#X connect 2 0 3 1;
#X connect 3 0 10 0;
#X connect 4 0 9 0;
#X connect 4 0 3 0;
#X connect 5 0 13 0;
#X connect 6 0 5 0;
#X connect 7 0 11 0;
#X connect 10 1 12 0;
#X connect 11 0 1 0;
#X connect 11 0 14 0;
#X connect 11 1 17 0;
#X connect 12 0 11 0;
#X connect 13 0 15 0;
#X connect 13 0 16 0;
#X connect 13 0 17 1;
#X connect 14 0 6 0;
#X connect 15 0 0 1;
#X connect 16 0 12 1;
#X connect 17 0 16 1;
#X restore -71 235 pd rndline2;
#X obj -62 266 * 40;
#X obj 118 204 * 4;
#X msg 765 274 0.7;
#X msg 815 268 0.3;
#X msg 714 291 0.6;
#X obj 487 326 ==;
#X obj 526 205 t b b;
#X obj 465 349 +;
#X obj 455 297 t f f;
#X connect 0 0 35 0;
#X connect 0 0 36 0;
#X connect 1 0 49 0;
#X connect 2 0 3 0;
#X connect 3 0 4 0;
#X connect 3 0 10 0;
#X connect 4 0 5 0;
#X connect 5 0 40 0;
#X connect 6 0 17 1;
#X connect 6 0 28 0;
#X connect 7 0 6 1;
#X connect 10 0 11 0;
#X connect 11 0 41 0;
#X connect 12 0 20 1;
#X connect 12 0 29 0;
#X connect 13 0 12 1;
#X connect 14 0 23 1;
#X connect 15 0 37 1;
#X connect 15 0 34 1;
#X connect 15 0 35 1;
#X connect 16 0 9 0;
#X connect 17 0 18 0;
#X connect 18 0 16 1;
#X connect 19 0 18 1;
#X connect 20 0 21 0;
#X connect 21 0 16 0;
#X connect 22 0 21 1;
#X connect 23 0 15 0;
#X connect 23 0 39 0;
#X connect 24 0 34 2;
#X connect 24 0 37 2;
#X connect 25 0 42 0;
#X connect 34 0 12 0;
#X connect 35 0 37 0;
#X connect 36 0 34 0;
#X connect 37 0 6 0;
#X connect 38 0 36 1;
#X connect 39 0 38 0;
#X connect 40 0 7 0;
#X connect 40 0 19 0;
#X connect 41 0 13 0;
#X connect 41 0 22 0;
#X connect 42 0 14 0;
#X connect 42 1 57 0;
#X connect 42 1 58 0;
#X connect 42 1 59 0;
#X connect 43 0 48 0;
#X connect 44 0 45 0;
#X connect 45 0 63 0;
#X connect 46 0 47 0;
#X connect 47 0 10 1;
#X connect 47 0 51 0;
#X connect 47 0 60 1;
#X connect 48 0 49 0;
#X connect 48 0 53 0;
#X connect 48 0 54 0;
#X connect 48 1 52 0;
#X connect 48 1 53 0;
#X connect 48 1 54 0;
#X connect 48 1 61 0;
#X connect 49 0 2 0;
#X connect 52 0 24 1;
#X connect 53 0 56 0;
#X connect 54 0 55 0;
#X connect 55 0 23 0;
#X connect 56 0 24 0;
#X connect 57 0 19 1;
#X connect 57 0 22 1;
#X connect 58 0 17 0;
#X connect 58 0 20 0;
#X connect 59 0 7 1;
#X connect 59 0 13 1;
#X connect 60 0 62 1;
#X connect 61 0 44 0;
#X connect 61 1 46 0;
#X connect 62 0 4 1;
#X connect 62 0 50 0;
#X connect 63 0 62 0;
#X connect 63 1 60 0;
#X coords 0 0 1 1 250 135 0;
#X restore 642 959 pd dualdelay1m;
#X obj 305 400 + 200;
#X obj 779 600 t b f;
#X obj 1026 739 tabwrite~ \$0sample1;
#X obj 808 734 line~;
#X msg 776 702 0.2;
#X msg 870 710 1 3200;
#X msg 755 659 set \$1;
#X obj 800 783 tabread4~ \$0sample1;
#X obj 883 593 - 1;
#X obj 883 618 * -1;
#X msg 876 682 set 1 \$1;
#X obj 882 641 * 4000;
#X obj 1036 706 clip~ -1 1;
#X obj 817 645 t b b;
#X obj 1019 663 metro 4000;
#X obj 1043 769 table \$0sample1 176400;
#X obj 802 759 *~ 176400;
#X obj 752 569 / 100;
#X obj 745 543 random 100;
#X obj 743 507 metro 500;
#X obj 779 843 *~;
#X obj 802 811 *~ 2;
#X obj 697 845 *~ 2;
#X obj 438 503 hip~ 800;
#N canvas 141 119 824 735 bufferfx1s 0;
#X obj 189 736 outlet~;
#X obj -72 256 inlet~;
#X obj 181 428 phasor~;
#X obj 179 504 *~;
#X obj 276 408 /;
#X obj 272 334 t b f;
#X obj 78 319 metro 500;
#X obj 16 63 loadbang;
#X msg 166 355 1;
#X obj 76 345 t b b;
#X msg 58 366 start;
#X msg 107 365 stop;
#X obj 233 271 + 3;
#X obj 135 263 line;
#X msg 134 232 \$1 20;
#X obj 244 230 line;
#X msg 244 204 \$1 20;
#X msg 245 373 44100;
#X obj 106 115 hsl 128 8 30 1000 0 1 empty empty update -2 5 0 10 -262144
-1 -1 11760 1;
#X obj 106 127 hsl 128 8 3 70 0 1 empty empty length -2 5 0 10 -262144
-1 -1 157 1;
#X obj 148 37 inlet;
#X obj 148 62 * 7.8;
#X obj 242 39 inlet;
#X obj -39 536 table \$0bufferfx1r 44100;
#X obj -31 506 table \$0bufferfx1l 44100;
#X obj -19 412 tabwrite~ \$0bufferfx1l;
#X obj 178 533 tabread4~ \$0bufferfx1l;
#X obj -26 207 inlet~;
#X obj 286 744 outlet~;
#X obj 17 455 tabwrite~ \$0bufferfx1r;
#X obj 248 572 tabread4~ \$0bufferfx1r;
#X obj 207 706 +~;
#X obj 245 686 *~;
#X obj 179 679 *~;
#X obj 202 620 * -1;
#X obj 200 644 + 1;
#X obj 309 714 +~;
#X obj 354 687 *~;
#X obj 284 691 *~;
#X obj 343 39 inlet;
#X obj 106 139 hsl 128 8 0 1 0 1 empty empty dry/wet -2 5 0 10 -262144
-1 -1 7414 1;
#X connect 1 0 25 0;
#X connect 1 0 33 1;
#X connect 2 0 3 0;
#X connect 3 0 26 0;
#X connect 3 0 30 0;
#X connect 4 0 3 1;
#X connect 5 0 17 0;
#X connect 5 1 4 1;
#X connect 6 0 8 0;
#X connect 6 0 9 0;
#X connect 7 0 6 0;
#X connect 8 0 2 1;
#X connect 9 0 10 0;
#X connect 9 1 11 0;
#X connect 10 0 25 0;
#X connect 10 0 29 0;
#X connect 11 0 25 0;
#X connect 11 0 29 0;
#X connect 12 0 5 0;
#X connect 12 0 2 0;
#X connect 13 0 6 1;
#X connect 14 0 13 0;
#X connect 15 0 12 0;
#X connect 16 0 15 0;
#X connect 17 0 4 0;
#X connect 18 0 14 0;
#X connect 19 0 16 0;
#X connect 20 0 21 0;
#X connect 21 0 18 0;
#X connect 22 0 19 0;
#X connect 26 0 32 1;
#X connect 27 0 29 0;
#X connect 27 0 38 0;
#X connect 30 0 37 1;
#X connect 31 0 0 0;
#X connect 32 0 31 1;
#X connect 33 0 31 0;
#X connect 34 0 35 0;
#X connect 35 0 33 0;
#X connect 35 0 38 1;
#X connect 36 0 28 0;
#X connect 37 0 36 1;
#X connect 38 0 36 0;
#X connect 39 0 40 0;
#X connect 40 0 37 0;
#X connect 40 0 34 0;
#X connect 40 0 32 0;
#X coords 0 -1 1 1 140 50 1 100 100;
#X restore 372 1078 pd bufferfx1s;
#X obj 435 978 random 128;
#N canvas 70 55 473 398 dist1s 0;
#X obj 20 96 inlet~;
#X obj 16 239 /~;
#X obj 44 180 abs~;
#X obj 59 212 +~;
#X obj 23 133 *~;
#X obj 20 276 outlet~;
#X obj 126 115 hsl 128 8 1 5 0 1 empty empty empty -2 -6 0 8 -262144
-1 -1 11300 1;
#X obj 126 129 hsl 128 8 0.1 0.8 0 1 empty empty empty -2 -6 0 8 -262144
-1 -1 10000 1;
#X obj -63 93 inlet~;
#X obj -67 236 /~;
#X obj -39 177 abs~;
#X obj -24 209 +~;
#X obj -60 130 *~;
#X obj -65 277 outlet~;
#X text 101 181 needs pd >=0.42-5 or zexy;
#X connect 0 0 4 0;
#X connect 1 0 5 0;
#X connect 2 0 3 0;
#X connect 3 0 1 1;
#X connect 4 0 1 0;
#X connect 4 0 2 0;
#X connect 6 0 4 1;
#X connect 6 0 12 1;
#X connect 7 0 3 1;
#X connect 7 0 11 1;
#X connect 8 0 12 0;
#X connect 9 0 13 0;
#X connect 10 0 11 0;
#X connect 11 0 9 1;
#X connect 12 0 9 0;
#X connect 12 0 10 0;
#X coords 0 -1 1 1 160 40 1 100 100;
#X restore 89 965 pd dist1s;
#N canvas 70 55 473 398 dist1 0;
#X obj 126 115 hsl 128 8 1 5 0 1 empty empty empty -2 -6 0 8 -262144
-1 -1 5173 1;
#X obj 126 129 hsl 128 8 0.1 0.8 0 1 empty empty empty -2 -6 0 8 -262144
-1 -1 11700 1;
#X obj -63 93 inlet~;
#X obj -67 236 /~;
#X obj -39 177 abs~;
#X obj -24 209 +~;
#X obj -60 130 *~;
#X obj -65 277 outlet~;
#X text 101 181 needs pd >=0.42-5 or zexy;
#X connect 0 0 6 1;
#X connect 1 0 5 1;
#X connect 2 0 6 0;
#X connect 3 0 7 0;
#X connect 4 0 5 0;
#X connect 5 0 3 1;
#X connect 6 0 3 0;
#X connect 6 0 4 0;
#X coords 0 -1 1 1 160 40 1 100 100;
#X restore 170 516 pd dist1;
#N canvas 101 241 690 525 autopan 0;
#X obj 105 118 hsl 128 8 0.1 30 1 1 empty empty lfo 132 5 0 8 -262144
-1 -1 4746 1;
#X obj 105 129 hsl 128 8 0 0.5 0 1 empty empty dp 132 5 0 8 -262144
-1 -1 2500 1;
#X obj -19 204 osc~;
#X obj -14 241 *~;
#X obj -63 475 outlet~;
#X obj 62 476 outlet~;
#X obj 116 294 inlet~;
#N canvas 0 0 450 300 pan1 0;
#X obj 297 51 inlet~;
#X obj 256 225 outlet~;
#X obj 336 218 outlet~;
#X obj 251 149 *~;
#X obj 323 154 *~;
#X obj 160 42 clip~ 0 1;
#X obj 120 15 inlet~;
#X obj 208 75 *~ -1;
#X obj 276 122 +~ 1;
#X obj 335 113 *~ -1;
#X connect 0 0 3 0;
#X connect 0 0 4 1;
#X connect 3 0 1 0;
#X connect 4 0 2 0;
#X connect 5 0 7 0;
#X connect 6 0 5 0;
#X connect 7 0 8 0;
#X connect 7 0 9 0;
#X connect 8 0 3 1;
#X connect 9 0 4 0;
#X restore -22 368 pd pan1;
#X obj -17 281 +~ 0.5;
#X obj 166 38 inlet;
#X obj 169 64 random 100;
#X obj 291 41 + 8;
#X obj 297 77 / 108;
#X connect 0 0 2 0;
#X connect 1 0 3 1;
#X connect 2 0 3 0;
#X connect 3 0 8 0;
#X connect 6 0 7 1;
#X connect 7 0 4 0;
#X connect 7 1 5 0;
#X connect 8 0 7 0;
#X connect 9 0 10 0;
#X connect 10 0 11 0;
#X connect 11 0 12 0;
#X connect 12 0 0 0;
#X coords 0 -1 1 1 150 40 1 100 100;
#X restore 693 1015 pd autopan;
#N canvas 0 0 488 588 sine1 0;
#X obj 109 64 inlet;
#X obj 319 105 inlet;
#X obj 153 395 outlet~;
#X obj 109 104 t b b;
#X obj 227 82 inlet;
#X obj 141 178 osc~;
#X obj 156 343 *~;
#X obj 220 217 line~;
#X obj 210 251 *~;
#X obj 223 119 mtof;
#X msg 201 185 1;
#X obj 250 189 pack 0 f;
#X obj 282 401 outlet~;
#X obj 285 349 *~;
#X obj 208 283 lop~ 50;
#X connect 0 0 3 0;
#X connect 1 0 11 1;
#X connect 3 0 11 0;
#X connect 3 1 10 0;
#X connect 4 0 9 0;
#X connect 5 0 6 0;
#X connect 5 0 13 0;
#X connect 6 0 2 0;
#X connect 7 0 8 1;
#X connect 7 0 8 0;
#X connect 8 0 13 1;
#X connect 8 0 14 0;
#X connect 9 0 5 0;
#X connect 10 0 7 0;
#X connect 11 0 7 0;
#X connect 13 0 12 0;
#X connect 14 0 6 1;
#X restore 188 459 pd sine1;
#X obj 42 394 *~ 0.2;
#N canvas 29 134 448 456 moddelay 0;
#X obj 274 402 outlet~;
#X obj 25 18 inlet~;
#X obj 269 342 vd~ \$0mddelay;
#X obj 90 218 +~;
#X obj 115 195 *~;
#X obj 59 257 delwrite~ \$0mddelay 2000;
#X obj 322 92 block~ 1;
#X obj 353 293 inlet~;
#X obj 233 28 inlet~;
#X connect 1 0 3 0;
#X connect 2 0 0 0;
#X connect 2 0 4 0;
#X connect 3 0 5 0;
#X connect 4 0 3 1;
#X connect 7 0 2 0;
#X connect 8 0 4 1;
#X restore 693 1134 pd moddelay;
#N canvas 1297 205 588 521 rndline 0;
#X obj 166 290 pack;
#X obj 67 81 random 1000;
#X obj 79 208 / 1000;
#X obj 135 361 ==;
#X obj 159 324 line;
#X obj 241 187 exp;
#X obj 236 159 / 100;
#X obj 49 -10 inlet;
#X text 102 -16 start;
#X obj 251 413 outlet;
#X obj 90 396 moses 0.1;
#X obj 74 437 delay 1000;
#X obj 241 213 int;
#X obj 234 134 random 950;
#X obj 313 334 +;
#X obj 338 268 random 950;
#X obj 264 236 t f f;
#X obj 54 22 t b b b;
#X obj 89 140 +;
#X obj 95 173 mod 1000;
#X obj 126 146 int;
#X obj 68 104 + 200;
#X obj 196 264 + 200;
#X connect 0 0 4 0;
#X connect 1 0 21 0;
#X connect 2 0 0 0;
#X connect 2 0 3 1;
#X connect 3 0 10 0;
#X connect 4 0 9 0;
#X connect 4 0 3 0;
#X connect 5 0 12 0;
#X connect 6 0 5 0;
#X connect 7 0 17 0;
#X connect 10 1 11 0;
#X connect 11 0 17 0;
#X connect 12 0 16 0;
#X connect 12 0 22 0;
#X connect 13 0 6 0;
#X connect 14 0 11 1;
#X connect 15 0 14 1;
#X connect 16 0 14 0;
#X connect 16 1 15 1;
#X connect 17 0 1 0;
#X connect 17 1 13 0;
#X connect 17 2 15 0;
#X connect 18 0 19 0;
#X connect 19 0 2 0;
#X connect 19 0 20 0;
#X connect 20 0 18 1;
#X connect 21 0 18 0;
#X connect 22 0 0 1;
#X restore 1036 876 pd rndline;
#X obj 1018 913 * 2;
#X obj 997 951 - 1;
#X obj 1061 935 * 2;
#X obj 1049 963 - 1;
#X msg 1043 830 bang;
#N canvas 101 241 690 525 autopan 0;
#X obj 105 118 hsl 128 8 0.1 30 1 1 empty empty lfo 132 5 0 8 -262144
-1 -1 2799 1;
#X obj 105 129 hsl 128 8 0 0.5 0 1 empty empty dp 132 5 0 8 -262144
-1 -1 2500 1;
#X obj -19 204 osc~;
#X obj -14 241 *~;
#X obj -63 475 outlet~;
#X obj 62 476 outlet~;
#X obj 116 294 inlet~;
#N canvas 0 0 450 300 pan1 0;
#X obj 297 51 inlet~;
#X obj 256 225 outlet~;
#X obj 336 218 outlet~;
#X obj 251 149 *~;
#X obj 323 154 *~;
#X obj 160 42 clip~ 0 1;
#X obj 120 15 inlet~;
#X obj 208 75 *~ -1;
#X obj 276 122 +~ 1;
#X obj 335 113 *~ -1;
#X connect 0 0 3 0;
#X connect 0 0 4 1;
#X connect 3 0 1 0;
#X connect 4 0 2 0;
#X connect 5 0 7 0;
#X connect 6 0 5 0;
#X connect 7 0 8 0;
#X connect 7 0 9 0;
#X connect 8 0 3 1;
#X connect 9 0 4 0;
#X restore -22 368 pd pan1;
#X obj -17 281 +~ 0.5;
#X obj 166 38 inlet;
#X obj 169 64 random 100;
#X obj 291 41 + 8;
#X obj 297 77 / 128;
#X connect 0 0 2 0;
#X connect 1 0 3 1;
#X connect 2 0 3 0;
#X connect 3 0 8 0;
#X connect 6 0 7 1;
#X connect 7 0 4 0;
#X connect 7 1 5 0;
#X connect 8 0 7 0;
#X connect 9 0 10 0;
#X connect 10 0 11 0;
#X connect 11 0 12 0;
#X connect 12 0 0 0;
#X coords 0 -1 1 1 150 40 1 100 100;
#X restore 690 1160 pd autopan;
#N canvas 1297 205 588 521 rndline 0;
#X obj 166 290 pack;
#X obj 67 81 random 1000;
#X obj 79 208 / 1000;
#X obj 135 361 ==;
#X obj 159 324 line;
#X obj 241 187 exp;
#X obj 236 159 / 100;
#X obj 49 -10 inlet;
#X text 102 -16 start;
#X obj 251 413 outlet;
#X obj 90 396 moses 0.1;
#X obj 74 437 delay 1000;
#X obj 241 213 int;
#X obj 234 134 random 950;
#X obj 313 334 +;
#X obj 338 268 random 950;
#X obj 264 236 t f f;
#X obj 54 22 t b b b;
#X obj 89 140 +;
#X obj 95 173 mod 1000;
#X obj 126 146 int;
#X obj 68 104 + 200;
#X obj 196 264 + 200;
#X connect 0 0 4 0;
#X connect 1 0 21 0;
#X connect 2 0 0 0;
#X connect 2 0 3 1;
#X connect 3 0 10 0;
#X connect 4 0 9 0;
#X connect 4 0 3 0;
#X connect 5 0 12 0;
#X connect 6 0 5 0;
#X connect 7 0 17 0;
#X connect 10 1 11 0;
#X connect 11 0 17 0;
#X connect 12 0 16 0;
#X connect 12 0 22 0;
#X connect 13 0 6 0;
#X connect 14 0 11 1;
#X connect 15 0 14 1;
#X connect 16 0 14 0;
#X connect 16 1 15 1;
#X connect 17 0 1 0;
#X connect 17 1 13 0;
#X connect 17 2 15 0;
#X connect 18 0 19 0;
#X connect 19 0 2 0;
#X connect 19 0 20 0;
#X connect 20 0 18 1;
#X connect 21 0 18 0;
#X connect 22 0 0 1;
#X restore 1071 906 pd rndline;
#X obj -90 385 *~;
#X obj -33 329 osc~;
#X obj -104 202 random 100;
#X obj -70 257 + 0.01;
#X obj -105 228 / 500;
#X obj -42 356 +~ 1.3;
#X obj -99 325 *~ 0.05;
#X msg 457 688 \$1 300;
#N canvas 0 0 450 300 lfo1 0;
#X obj -7 -13 metro 5;
#X obj 24 11 osc~;
#X obj 24 50 snapshot~;
#X obj 24 145 *;
#X obj -17 -43 loadbang;
#X msg 67 -45 bang;
#X obj 19 182 outlet;
#X obj 24 114 * 1;
#X obj 107 117 hsl 128 8 0.01 1 0 1 empty empty empty -2 -8 0 10 -262144
-1 -1 641 1;
#X obj 107 129 hsl 128 8 0 1 0 1 empty empty empty -2 -8 0 10 -262144
-1 -1 2000 1;
#X obj 137 -6 inlet;
#X connect 0 0 2 0;
#X connect 1 0 2 0;
#X connect 2 0 7 0;
#X connect 3 0 6 0;
#X connect 4 0 0 0;
#X connect 5 0 0 0;
#X connect 7 0 3 0;
#X connect 8 0 1 0;
#X connect 9 0 3 1;
#X connect 10 0 8 0;
#X coords 0 -1 1 1 140 40 1 100 100;
#X restore 816 894 pd lfo1;
#X obj 861 815 random 100;
#X obj 860 841 / 600;
#X obj 854 867 + 0.02;
#X obj 813 938 + 0.7;
#X obj 173 576 *~ 0.5;
#X obj 1153 968 clip -1 1;
#X msg 1138 1057 \$1 20;
#X obj 1131 1095 line~;
#X obj 1140 1028 * 800;
#X obj 1137 1002 + 1.001;
#X obj 957 1002 + 1;
#X obj 967 975 clip -1 1;
#X obj 956 1024 / 4;
#X obj 953 1044 + 0.5;
#X obj 916 1070 clip 0.4 0.9;
#X text 497 0 3/2011 martin brinkmann;
#X obj 495 1001 random 100;
#X obj 494 1046 + 3;
#X obj 500 1022 / 100;
#X obj 523 1235 dac~;
#X connect 0 0 2 0;
#X connect 1 0 0 0;
#X connect 1 0 20 0;
#X connect 1 0 101 0;
#X connect 1 0 45 0;
#X connect 1 0 52 1;
#X connect 2 0 10 0;
#X connect 2 1 11 0;
#X connect 3 0 4 0;
#X connect 4 0 5 0;
#X connect 4 0 14 0;
#X connect 4 0 15 0;
#X connect 4 0 29 0;
#X connect 4 0 65 1;
#X connect 4 0 67 1;
#X connect 4 0 71 3;
#X connect 4 0 86 0;
#X connect 4 0 91 0;
#X connect 4 0 100 1;
#X connect 4 0 109 0;
#X connect 4 0 114 0;
#X connect 5 0 1 0;
#X connect 5 1 6 0;
#X connect 6 0 7 0;
#X connect 7 0 1 1;
#X connect 7 0 8 0;
#X connect 7 0 9 0;
#X connect 7 0 17 0;
#X connect 7 0 19 0;
#X connect 7 0 25 0;
#X connect 7 0 26 0;
#X connect 7 0 32 0;
#X connect 8 0 10 1;
#X connect 9 0 11 1;
#X connect 10 0 16 0;
#X connect 10 0 22 0;
#X connect 10 0 101 0;
#X connect 10 0 29 0;
#X connect 10 0 97 0;
#X connect 10 0 50 1;
#X connect 10 0 54 1;
#X connect 11 0 12 0;
#X connect 11 0 23 0;
#X connect 11 0 101 0;
#X connect 11 0 29 0;
#X connect 11 0 97 0;
#X connect 11 0 52 1;
#X connect 11 0 137 0;
#X connect 12 0 16 0;
#X connect 12 0 21 0;
#X connect 12 0 101 0;
#X connect 12 0 50 1;
#X connect 13 0 35 0;
#X connect 13 0 50 2;
#X connect 13 1 37 0;
#X connect 13 1 51 2;
#X connect 13 2 39 0;
#X connect 13 2 52 2;
#X connect 13 3 41 0;
#X connect 13 3 54 2;
#X connect 14 0 13 0;
#X connect 14 0 36 1;
#X connect 14 0 38 1;
#X connect 14 0 40 1;
#X connect 14 0 42 1;
#X connect 15 0 13 1;
#X connect 15 1 13 2;
#X connect 16 0 18 0;
#X connect 16 0 22 0;
#X connect 16 0 101 0;
#X connect 16 0 97 0;
#X connect 17 0 16 1;
#X connect 18 0 23 0;
#X connect 18 0 24 0;
#X connect 18 0 101 0;
#X connect 18 0 27 0;
#X connect 18 0 29 0;
#X connect 18 0 51 1;
#X connect 19 0 18 1;
#X connect 20 0 101 1;
#X connect 21 0 101 1;
#X connect 22 0 101 1;
#X connect 23 0 101 1;
#X connect 24 0 101 0;
#X connect 24 0 70 0;
#X connect 24 0 97 0;
#X connect 24 0 51 1;
#X connect 24 0 54 1;
#X connect 24 0 121 0;
#X connect 25 0 24 1;
#X connect 26 0 12 1;
#X connect 27 0 28 0;
#X connect 28 0 12 0;
#X connect 28 1 1 0;
#X connect 29 0 72 0;
#X connect 30 0 43 0;
#X connect 30 0 71 1;
#X connect 30 0 71 2;
#X connect 31 0 30 1;
#X connect 32 0 30 0;
#X connect 32 1 55 0;
#X connect 33 0 95 0;
#X connect 34 0 33 0;
#X connect 34 0 91 1;
#X connect 35 0 46 0;
#X connect 36 0 20 1;
#X connect 37 0 47 0;
#X connect 38 0 21 1;
#X connect 39 0 48 0;
#X connect 40 0 22 1;
#X connect 41 0 49 0;
#X connect 42 0 23 1;
#X connect 43 0 34 0;
#X connect 45 0 1 0;
#X connect 46 0 36 0;
#X connect 47 0 38 0;
#X connect 48 0 40 0;
#X connect 49 0 42 0;
#X connect 50 0 53 0;
#X connect 51 0 53 1;
#X connect 52 0 53 2;
#X connect 53 0 63 0;
#X connect 53 0 71 0;
#X connect 53 0 94 0;
#X connect 53 0 98 0;
#X connect 53 0 103 0;
#X connect 53 1 63 0;
#X connect 53 1 71 0;
#X connect 53 1 84 0;
#X connect 53 1 94 0;
#X connect 53 1 98 1;
#X connect 53 1 103 0;
#X connect 54 0 53 3;
#X connect 55 0 31 0;
#X connect 56 0 57 0;
#X connect 57 0 60 0;
#X connect 58 0 62 1;
#X connect 58 0 62 0;
#X connect 59 0 58 0;
#X connect 60 0 59 0;
#X connect 60 1 58 1;
#X connect 61 0 50 0;
#X connect 61 0 51 0;
#X connect 61 0 52 0;
#X connect 61 0 54 0;
#X connect 62 0 61 1;
#X connect 63 0 119 0;
#X connect 64 0 56 0;
#X connect 65 0 140 0;
#X connect 65 1 140 1;
#X connect 66 0 4 0;
#X connect 67 0 96 0;
#X connect 67 1 96 1;
#X connect 68 0 118 0;
#X connect 69 0 61 0;
#X connect 70 0 66 0;
#X connect 71 0 96 0;
#X connect 71 0 96 1;
#X connect 71 0 100 0;
#X connect 71 0 103 0;
#X connect 72 0 101 2;
#X connect 73 0 85 0;
#X connect 73 1 78 0;
#X connect 73 1 80 0;
#X connect 75 0 88 0;
#X connect 76 0 75 0;
#X connect 77 0 75 0;
#X connect 78 0 76 0;
#X connect 79 0 93 0;
#X connect 79 0 95 0;
#X connect 80 0 81 0;
#X connect 81 0 83 0;
#X connect 82 0 77 0;
#X connect 83 0 82 0;
#X connect 84 0 74 0;
#X connect 85 0 77 0;
#X connect 85 1 76 0;
#X connect 86 0 74 0;
#X connect 88 0 79 0;
#X connect 89 0 73 0;
#X connect 90 0 89 0;
#X connect 91 0 90 0;
#X connect 92 0 71 0;
#X connect 93 0 92 1;
#X connect 94 0 92 0;
#X connect 95 0 65 0;
#X connect 95 0 63 0;
#X connect 95 0 102 0;
#X connect 96 0 140 0;
#X connect 96 1 140 1;
#X connect 97 0 96 2;
#X connect 98 0 96 0;
#X connect 98 1 96 1;
#X connect 99 0 125 0;
#X connect 100 0 140 0;
#X connect 100 1 140 1;
#X connect 101 0 63 0;
#X connect 101 0 84 0;
#X connect 101 0 92 0;
#X connect 101 0 99 0;
#X connect 101 1 44 0;
#X connect 102 0 61 0;
#X connect 103 0 110 0;
#X connect 104 0 105 0;
#X connect 105 0 106 0;
#X connect 106 0 132 0;
#X connect 107 0 108 0;
#X connect 108 0 126 0;
#X connect 109 0 104 0;
#X connect 109 0 110 1;
#X connect 109 0 111 0;
#X connect 110 0 140 0;
#X connect 110 1 140 1;
#X connect 111 0 107 0;
#X connect 112 0 69 0;
#X connect 113 0 117 0;
#X connect 114 0 116 0;
#X connect 115 0 113 0;
#X connect 116 0 115 0;
#X connect 117 0 112 1;
#X connect 118 0 112 0;
#X connect 119 0 64 0;
#X connect 120 0 124 0;
#X connect 121 0 122 0;
#X connect 122 0 123 0;
#X connect 123 0 120 0;
#X connect 124 0 96 4;
#X connect 125 0 67 0;
#X connect 126 0 130 0;
#X connect 127 0 128 0;
#X connect 128 0 103 2;
#X connect 129 0 127 0;
#X connect 130 0 129 0;
#X connect 131 0 133 0;
#X connect 132 0 131 0;
#X connect 133 0 134 0;
#X connect 134 0 135 0;
#X connect 135 0 103 1;
#X connect 137 0 139 0;
#X connect 138 0 96 3;
#X connect 139 0 138 0;
