#N canvas 345 241 747 617 10;
#N canvas 0 0 866 890 plink 0;
#X obj 289 479 mtof;
#X floatatom 704 580 5 0 0 0 - - -;
#X obj 256 606 pack f f f f;
#X obj 146 512 +;
#X obj 132 568 int;
#X obj 142 537 t b f;
#X msg 91 475 1;
#X obj 110 653 moses 0.1;
#X msg 97 548 0;
#X obj 291 392 clip -1 1;
#X obj 369 377 clip -1 1;
#X obj 377 412 + 1;
#N canvas 161 73 739 534 speedchangedetect 0;
#X obj 153 -521 t f b;
#X obj 154 -442 -;
#X obj 181 -469 float;
#X obj 140 -345 > 0.1;
#X obj 142 -315 moses 0.1;
#X obj 146 -410 abs;
#X obj 213 -160 outlet;
#X obj 150 -559 inlet;
#X text 204 -502 speed;
#X text 196 -558 <- events;
#X obj 274 -481 inlet;
#X text 315 -480 <-threshhold 0..1;
#X obj 218 -284 *;
#X obj 143 -386 t f f;
#X obj 220 -201 clip 0 127;
#X obj 220 -242 * 100;
#X connect 0 0 1 0;
#X connect 0 0 2 1;
#X connect 0 1 2 0;
#X connect 1 0 5 0;
#X connect 2 0 1 1;
#X connect 3 0 4 0;
#X connect 4 1 12 0;
#X connect 5 0 13 0;
#X connect 7 0 0 0;
#X connect 10 0 3 1;
#X connect 12 0 15 0;
#X connect 13 0 3 0;
#X connect 13 1 12 1;
#X connect 14 0 6 0;
#X connect 15 0 14 0;
#X restore 128 424 pd speedchangedetect;
#N canvas 161 73 739 534 speedchangedetect 0;
#X obj 153 -521 t f b;
#X obj 154 -442 -;
#X obj 181 -469 float;
#X obj 140 -345 > 0.1;
#X obj 142 -315 moses 0.1;
#X obj 146 -410 abs;
#X obj 213 -160 outlet;
#X obj 150 -559 inlet;
#X text 204 -502 speed;
#X text 196 -558 <- events;
#X obj 274 -481 inlet;
#X text 315 -480 <-threshhold 0..1;
#X obj 218 -284 *;
#X obj 143 -386 t f f;
#X obj 220 -201 clip 0 127;
#X obj 220 -242 * 100;
#X connect 0 0 1 0;
#X connect 0 0 2 1;
#X connect 0 1 2 0;
#X connect 1 0 5 0;
#X connect 2 0 1 1;
#X connect 3 0 4 0;
#X connect 4 1 12 0;
#X connect 5 0 13 0;
#X connect 7 0 0 0;
#X connect 10 0 3 1;
#X connect 12 0 15 0;
#X connect 13 0 3 0;
#X connect 13 1 12 1;
#X connect 14 0 6 0;
#X connect 15 0 14 0;
#X restore 69 351 pd speedchangedetect;
#N canvas 161 73 739 534 speedchangedetect 0;
#X obj 153 -521 t f b;
#X obj 154 -442 -;
#X obj 181 -469 float;
#X obj 140 -345 > 0.1;
#X obj 142 -315 moses 0.1;
#X obj 146 -410 abs;
#X obj 213 -160 outlet;
#X obj 150 -559 inlet;
#X text 204 -502 speed;
#X text 196 -558 <- events;
#X obj 274 -481 inlet;
#X text 315 -480 <-threshhold 0..1;
#X obj 218 -284 *;
#X obj 143 -386 t f f;
#X obj 220 -201 clip 0 127;
#X obj 220 -242 * 100;
#X connect 0 0 1 0;
#X connect 0 0 2 1;
#X connect 0 1 2 0;
#X connect 1 0 5 0;
#X connect 2 0 1 1;
#X connect 3 0 4 0;
#X connect 4 1 12 0;
#X connect 5 0 13 0;
#X connect 7 0 0 0;
#X connect 10 0 3 1;
#X connect 12 0 15 0;
#X connect 13 0 3 0;
#X connect 13 1 12 1;
#X connect 14 0 6 0;
#X connect 15 0 14 0;
#X restore 34 311 pd speedchangedetect;
#X msg 222 277 0.05;
#X obj 258 657 route 0 1 2 3 4 5 6 7 8 9 10 11 12 13 14 15 16 17 18
19 20 21 22 23;
#X obj 111 627 > 23;
#N canvas 0 28 1172 829 4tap-delay 0;
#X obj 635 806 outlet~;
#X obj 821 811 outlet~;
#X obj 2 419 inlet~;
#X obj 114 630 +~;
#X obj 290 873 *~;
#X obj 198 802 hsl 96 8 0 0.95 0 1 empty empty fb -16 5 0 8 -262144
-1 -1 1900 1;
#X text 132 654 <- unique name for delaylines! ->;
#X obj 527 473 hsl 41 8 0 -1 0 1 empty empty pan -21 4 0 8 -262144
-1 -1 3680 1;
#X obj 460 536 *~;
#X obj 517 535 *~;
#X obj 485 509 + 1;
#X obj 517 507 * -1;
#X obj 540 785 +~;
#X obj 660 465 hsl 41 8 0 -1 0 1 empty empty pan -21 4 0 8 -262144
-1 -1 2880 1;
#X obj 595 522 *~;
#X obj 652 521 *~;
#X obj 611 500 + 1;
#X obj 652 495 * -1;
#X obj 800 447 hsl 41 8 0 -1 0 1 empty empty pan -21 4 0 8 -262144
-1 -1 2320 1;
#X obj 744 516 *~;
#X obj 801 515 *~;
#X obj 760 494 + 1;
#X obj 801 486 * -1;
#X obj 945 458 hsl 41 8 0 -1 0 1 empty empty pan -21 4 0 8 -262144
-1 -1 640 1;
#X obj 884 515 *~;
#X obj 941 514 *~;
#X obj 900 493 + 1;
#X obj 935 487 * -1;
#X obj 44 80 random 100;
#X obj 44 107 * -0.01;
#X obj 219 18 inlet;
#X obj 17 139 random 100;
#X obj 17 166 * -0.01;
#X obj 8 215 random 100;
#X obj 8 242 * -0.01;
#X obj 11 282 random 100;
#X obj 11 309 * -0.01;
#X obj -21 655 delwrite~ \$0bmtdl1 2000;
#X obj -24 701 delwrite~ \$0bmtdl2 2000;
#X obj -24 737 delwrite~ \$0bmtdl3 2000;
#X obj -26 774 delwrite~ \$0bmtdl4 2000;
#X obj 370 656 delread~ \$0bmtdl1;
#X obj 363 699 delread~ \$0bmtdl2;
#X obj 364 736 delread~ \$0bmtdl3;
#X obj 365 773 delread~ \$0bmtdl4;
#X obj 303 237 + 100;
#X obj 278 172 random 200;
#X obj 390 288 +;
#X obj 371 208 random 200;
#X obj 466 327 +;
#X obj 465 244 random 200;
#X obj 532 358 +;
#X obj 543 276 random 200;
#X obj 259 131 t b b b b;
#X obj 439 462 *~ 0.45;
#X obj 579 457 *~ 0.45;
#X obj 730 463 *~ 0.45;
#X obj 854 465 *~ 0.45;
#X floatatom 336 300 5 0 0 0 - - -;
#X floatatom 399 321 5 0 0 0 - - -;
#X floatatom 468 356 5 0 0 0 - - -;
#X floatatom 545 395 5 0 0 0 - - -;
#X obj 32 473 *~ 0.1;
#X connect 2 0 62 0;
#X connect 3 0 37 0;
#X connect 4 0 3 1;
#X connect 5 0 4 1;
#X connect 7 0 10 0;
#X connect 7 0 11 0;
#X connect 8 0 12 0;
#X connect 8 0 0 0;
#X connect 9 0 12 1;
#X connect 9 0 1 0;
#X connect 10 0 8 1;
#X connect 11 0 9 0;
#X connect 12 0 4 0;
#X connect 13 0 17 0;
#X connect 13 0 16 0;
#X connect 14 0 12 0;
#X connect 14 0 0 0;
#X connect 15 0 12 1;
#X connect 15 0 1 0;
#X connect 16 0 14 1;
#X connect 17 0 15 0;
#X connect 18 0 22 0;
#X connect 18 0 21 0;
#X connect 19 0 12 0;
#X connect 19 0 0 0;
#X connect 20 0 12 1;
#X connect 20 0 1 0;
#X connect 21 0 19 1;
#X connect 22 0 20 0;
#X connect 23 0 27 0;
#X connect 23 0 26 0;
#X connect 24 0 12 0;
#X connect 24 0 0 0;
#X connect 25 0 12 1;
#X connect 25 0 1 0;
#X connect 26 0 24 1;
#X connect 27 0 25 0;
#X connect 28 0 29 0;
#X connect 29 0 7 0;
#X connect 30 0 28 0;
#X connect 30 0 31 0;
#X connect 30 0 33 0;
#X connect 30 0 35 0;
#X connect 30 0 53 0;
#X connect 31 0 32 0;
#X connect 32 0 13 0;
#X connect 33 0 34 0;
#X connect 34 0 18 0;
#X connect 35 0 36 0;
#X connect 36 0 23 0;
#X connect 41 0 38 0;
#X connect 41 0 54 0;
#X connect 42 0 39 0;
#X connect 42 0 55 0;
#X connect 43 0 40 0;
#X connect 43 0 56 0;
#X connect 44 0 57 0;
#X connect 45 0 41 0;
#X connect 45 0 47 1;
#X connect 45 0 58 0;
#X connect 46 0 45 0;
#X connect 47 0 49 1;
#X connect 47 0 42 0;
#X connect 47 0 59 0;
#X connect 48 0 47 0;
#X connect 49 0 51 1;
#X connect 49 0 43 0;
#X connect 49 0 60 0;
#X connect 50 0 49 0;
#X connect 51 0 44 0;
#X connect 51 0 61 0;
#X connect 52 0 51 0;
#X connect 53 0 52 0;
#X connect 53 1 50 0;
#X connect 53 2 48 0;
#X connect 53 3 46 0;
#X connect 54 0 8 0;
#X connect 54 0 9 1;
#X connect 55 0 14 0;
#X connect 55 0 15 1;
#X connect 56 0 19 0;
#X connect 56 0 20 1;
#X connect 57 0 24 0;
#X connect 57 0 25 1;
#X connect 62 0 3 0;
#X coords 0 0 1 1 140 250 0;
#X restore 264 1050 pd 4tap-delay;
#X msg 361 969 bang;
#N canvas 0 0 450 300 distri 0;
#X obj 147 43 inlet~;
#X obj 75 202 outlet~;
#X obj 220 194 outlet~;
#X obj 194 142 *~ 0.3;
#X obj 136 82 clip~ -1 1;
#X connect 0 0 4 0;
#X connect 3 0 2 0;
#X connect 4 0 1 0;
#X connect 4 0 3 0;
#X restore 565 987 pd distri;
#N canvas 0 0 450 300 distri 0;
#X obj 132 45 inlet~;
#X obj 75 202 outlet~;
#X obj 220 194 outlet~;
#X obj 193 143 *~ 0.3;
#X obj 136 82 clip~ -1 1;
#X connect 0 0 4 0;
#X connect 3 0 2 0;
#X connect 4 0 3 0;
#X connect 4 0 1 0;
#X restore 123 983 pd distri;
#N canvas 0 28 1172 829 4tap-delayb 0;
#X obj 635 806 outlet~;
#X obj 821 811 outlet~;
#X obj 50 420 inlet~;
#X obj 114 630 +~;
#X obj 290 873 *~;
#X obj 198 802 hsl 96 8 0 0.95 0 1 empty empty fb -16 5 0 8 -262144
-1 -1 2200 1;
#X text 132 654 <- unique name for delaylines! ->;
#X obj 527 473 hsl 41 8 0 -1 0 1 empty empty pan -21 4 0 8 -262144
-1 -1 3160 1;
#X obj 460 536 *~;
#X obj 517 535 *~;
#X obj 485 509 + 1;
#X obj 517 507 * -1;
#X obj 540 785 +~;
#X obj 660 465 hsl 41 8 0 -1 0 1 empty empty pan -21 4 0 8 -262144
-1 -1 560 1;
#X obj 595 522 *~;
#X obj 652 521 *~;
#X obj 611 500 + 1;
#X obj 652 495 * -1;
#X obj 800 447 hsl 41 8 0 -1 0 1 empty empty pan -21 4 0 8 -262144
-1 -1 3440 1;
#X obj 744 516 *~;
#X obj 801 515 *~;
#X obj 760 494 + 1;
#X obj 801 486 * -1;
#X obj 945 458 hsl 41 8 0 -1 0 1 empty empty pan -21 4 0 8 -262144
-1 -1 760 1;
#X obj 884 515 *~;
#X obj 941 514 *~;
#X obj 900 493 + 1;
#X obj 935 487 * -1;
#X obj 44 80 random 100;
#X obj 44 107 * -0.01;
#X obj 219 18 inlet;
#X obj 17 139 random 100;
#X obj 17 166 * -0.01;
#X obj 8 215 random 100;
#X obj 8 242 * -0.01;
#X obj 11 282 random 100;
#X obj 11 309 * -0.01;
#X obj 303 237 + 100;
#X obj 278 172 random 200;
#X obj 390 288 +;
#X obj 371 208 random 200;
#X obj 466 327 +;
#X obj 465 244 random 200;
#X obj 532 358 +;
#X obj 543 276 random 200;
#X obj 259 131 t b b b b;
#X obj 439 462 *~ 0.45;
#X obj 579 457 *~ 0.45;
#X obj 730 463 *~ 0.45;
#X obj 854 465 *~ 0.45;
#X floatatom 336 300 5 0 0 0 - - -;
#X floatatom 399 321 5 0 0 0 - - -;
#X floatatom 468 356 5 0 0 0 - - -;
#X floatatom 545 395 5 0 0 0 - - -;
#X obj 32 473 *~ 0.1;
#X obj -20 655 delwrite~ \$0bmtdl1b 2000;
#X obj -22 700 delwrite~ \$0bmtdl2b 2000;
#X obj -22 736 delwrite~ \$0bmtdl3b 2000;
#X obj -26 776 delwrite~ \$0bmtdl4b 2000;
#X obj 370 657 delread~ \$0bmtdl1b;
#X obj 361 698 delread~ \$0bmtdl2b;
#X obj 363 735 delread~ \$0bmtdl3b;
#X obj 364 773 delread~ \$0bmtdl4b;
#X connect 2 0 54 0;
#X connect 3 0 55 0;
#X connect 4 0 3 1;
#X connect 5 0 4 1;
#X connect 7 0 10 0;
#X connect 7 0 11 0;
#X connect 8 0 12 0;
#X connect 8 0 0 0;
#X connect 9 0 12 1;
#X connect 9 0 1 0;
#X connect 10 0 8 1;
#X connect 11 0 9 0;
#X connect 12 0 4 0;
#X connect 13 0 17 0;
#X connect 13 0 16 0;
#X connect 14 0 12 0;
#X connect 14 0 0 0;
#X connect 15 0 12 1;
#X connect 15 0 1 0;
#X connect 16 0 14 1;
#X connect 17 0 15 0;
#X connect 18 0 22 0;
#X connect 18 0 21 0;
#X connect 19 0 12 0;
#X connect 19 0 0 0;
#X connect 20 0 12 1;
#X connect 20 0 1 0;
#X connect 21 0 19 1;
#X connect 22 0 20 0;
#X connect 23 0 27 0;
#X connect 23 0 26 0;
#X connect 24 0 12 0;
#X connect 24 0 0 0;
#X connect 25 0 12 1;
#X connect 25 0 1 0;
#X connect 26 0 24 1;
#X connect 27 0 25 0;
#X connect 28 0 29 0;
#X connect 29 0 7 0;
#X connect 30 0 28 0;
#X connect 30 0 31 0;
#X connect 30 0 33 0;
#X connect 30 0 35 0;
#X connect 30 0 45 0;
#X connect 31 0 32 0;
#X connect 32 0 13 0;
#X connect 33 0 34 0;
#X connect 34 0 18 0;
#X connect 35 0 36 0;
#X connect 36 0 23 0;
#X connect 37 0 39 1;
#X connect 37 0 50 0;
#X connect 37 0 59 0;
#X connect 38 0 37 0;
#X connect 39 0 41 1;
#X connect 39 0 51 0;
#X connect 39 0 60 0;
#X connect 40 0 39 0;
#X connect 41 0 43 1;
#X connect 41 0 52 0;
#X connect 41 0 61 0;
#X connect 42 0 41 0;
#X connect 43 0 53 0;
#X connect 43 0 62 0;
#X connect 44 0 43 0;
#X connect 45 0 44 0;
#X connect 45 1 42 0;
#X connect 45 2 40 0;
#X connect 45 3 38 0;
#X connect 46 0 8 0;
#X connect 46 0 9 1;
#X connect 47 0 14 0;
#X connect 47 0 15 1;
#X connect 48 0 19 0;
#X connect 48 0 20 1;
#X connect 49 0 24 0;
#X connect 49 0 25 1;
#X connect 54 0 3 0;
#X connect 59 0 46 0;
#X connect 59 0 56 0;
#X connect 60 0 47 0;
#X connect 60 0 57 0;
#X connect 61 0 48 0;
#X connect 61 0 58 0;
#X connect 62 0 49 0;
#X coords 0 0 1 1 140 250 0;
#X restore 403 1076 pd 4tap-delayb;
#X obj 292 422 * 64;
#X obj 292 450 + 64;
#X obj 143 765 sinegrain;
#X obj 598 1221 send~ plinkfm1;
#X obj 96 879 sinegrain;
#X obj 227 765 sinegrain;
#X obj 308 765 sinegrain;
#X obj 393 765 sinegrain;
#X obj 474 766 sinegrain;
#X obj 560 765 sinegrain;
#X obj 639 764 sinegrain;
#X obj 723 762 sinegrain;
#X obj 149 823 sinegrain;
#X obj 233 823 sinegrain;
#X obj 314 823 sinegrain;
#X obj 399 823 sinegrain;
#X obj 483 823 sinegrain;
#X obj 564 823 sinegrain;
#X obj 644 824 sinegrain;
#X obj 729 820 sinegrain;
#X obj 180 879 sinegrain;
#X obj 261 879 sinegrain;
#X obj 346 878 sinegrain;
#X obj 428 878 sinegrain;
#X obj 507 881 sinegrain;
#X obj 591 880 sinegrain;
#X obj 676 876 sinegrain;
#X obj 661 1040 clip~ -0.5 0.5;
#X obj 595 1174 delread~ \$0fmdel1;
#X obj 592 1151 + 100;
#X obj 592 1127 random 400;
#X obj 745 1141 delwrite~ \$0fmdel1 500;
#X obj 699 491 random 200;
#X obj 622 1077 lop~ 250;
#X obj 596 1196 *~ 5000;
#X obj 291 362 * 0.5;
#X obj 372 456 * 0.24;
#X obj 708 525 + 50;
#X obj 475 403 clip -1 1;
#X obj 383 559 + 0.5;
#X obj 458 475 * 0.25;
#X obj 324 1186 outlet~;
#X obj 419 1186 outlet~;
#X obj 840 860 inlet~;
#X obj 113 124 vsl 15 128 -2 2 0 0 empty empty empty 0 -9 0 10 -262144
-1 -1 0 1;
#X obj 76 14 inlet;
#X obj 133 124 vsl 15 128 -2 2 0 0 empty empty empty 0 -9 0 10 -262144
-1 -1 0 1;
#X obj 149 11 inlet;
#X obj 153 124 vsl 15 128 -2 2 0 0 empty empty empty 0 -9 0 10 -262144
-1 -1 0 1;
#X obj 208 11 inlet;
#X obj 642 176 t b;
#X obj 582 115 loadbang;
#X msg 673 125 bang;
#X connect 0 0 2 1;
#X connect 1 0 25 1;
#X connect 1 0 27 1;
#X connect 1 0 28 1;
#X connect 1 0 29 1;
#X connect 1 0 30 1;
#X connect 1 0 31 1;
#X connect 1 0 32 1;
#X connect 1 0 33 1;
#X connect 1 0 34 1;
#X connect 1 0 35 1;
#X connect 1 0 36 1;
#X connect 1 0 37 1;
#X connect 1 0 38 1;
#X connect 1 0 39 1;
#X connect 1 0 40 1;
#X connect 1 0 41 1;
#X connect 1 0 42 1;
#X connect 1 0 43 1;
#X connect 1 0 44 1;
#X connect 1 0 45 1;
#X connect 1 0 46 1;
#X connect 1 0 47 1;
#X connect 1 0 48 1;
#X connect 1 0 49 1;
#X connect 2 0 16 0;
#X connect 3 0 5 0;
#X connect 4 0 3 1;
#X connect 4 0 2 0;
#X connect 4 0 17 0;
#X connect 5 0 4 0;
#X connect 5 1 4 1;
#X connect 6 0 3 0;
#X connect 7 1 8 0;
#X connect 8 0 4 0;
#X connect 9 0 23 0;
#X connect 10 0 11 0;
#X connect 11 0 59 0;
#X connect 12 0 6 0;
#X connect 13 0 6 0;
#X connect 14 0 6 0;
#X connect 15 0 14 1;
#X connect 15 0 13 1;
#X connect 15 0 12 1;
#X connect 16 0 25 0;
#X connect 16 1 28 0;
#X connect 16 2 29 0;
#X connect 16 3 30 0;
#X connect 16 4 31 0;
#X connect 16 5 32 0;
#X connect 16 6 33 0;
#X connect 16 7 34 0;
#X connect 16 8 35 0;
#X connect 16 9 36 0;
#X connect 16 10 37 0;
#X connect 16 11 38 0;
#X connect 16 12 39 0;
#X connect 16 13 40 0;
#X connect 16 14 41 0;
#X connect 16 15 42 0;
#X connect 16 16 27 0;
#X connect 16 17 43 0;
#X connect 16 18 44 0;
#X connect 16 19 45 0;
#X connect 16 20 46 0;
#X connect 16 21 47 0;
#X connect 16 22 48 0;
#X connect 16 23 49 0;
#X connect 17 0 7 0;
#X connect 18 0 64 0;
#X connect 18 1 56 0;
#X connect 18 1 65 0;
#X connect 19 0 18 1;
#X connect 19 0 22 1;
#X connect 19 0 53 0;
#X connect 20 0 22 0;
#X connect 20 0 56 0;
#X connect 20 1 65 0;
#X connect 21 0 18 0;
#X connect 21 0 56 0;
#X connect 21 1 64 0;
#X connect 22 0 64 0;
#X connect 22 1 56 0;
#X connect 22 1 65 0;
#X connect 23 0 24 0;
#X connect 24 0 0 0;
#X connect 25 0 21 0;
#X connect 25 1 20 0;
#X connect 27 0 21 0;
#X connect 27 1 20 0;
#X connect 28 0 21 0;
#X connect 28 1 20 0;
#X connect 29 0 21 0;
#X connect 29 1 20 0;
#X connect 30 0 21 0;
#X connect 30 1 20 0;
#X connect 31 0 21 0;
#X connect 31 1 20 0;
#X connect 32 0 21 0;
#X connect 32 1 20 0;
#X connect 33 0 21 0;
#X connect 33 1 20 0;
#X connect 34 0 21 0;
#X connect 34 1 20 0;
#X connect 35 0 21 0;
#X connect 35 1 20 0;
#X connect 36 0 21 0;
#X connect 36 1 20 0;
#X connect 37 0 21 0;
#X connect 37 1 20 0;
#X connect 38 0 21 0;
#X connect 38 1 20 0;
#X connect 39 0 21 0;
#X connect 39 1 20 0;
#X connect 40 0 21 0;
#X connect 40 1 20 0;
#X connect 41 0 21 0;
#X connect 41 1 20 0;
#X connect 42 0 21 0;
#X connect 42 1 20 0;
#X connect 43 0 21 0;
#X connect 43 1 20 0;
#X connect 44 0 21 0;
#X connect 44 1 20 0;
#X connect 45 0 21 0;
#X connect 45 1 20 0;
#X connect 46 0 21 0;
#X connect 46 1 20 0;
#X connect 47 0 21 0;
#X connect 47 1 20 0;
#X connect 48 0 21 0;
#X connect 48 1 20 0;
#X connect 49 0 21 0;
#X connect 49 1 20 0;
#X connect 50 0 56 0;
#X connect 51 0 57 0;
#X connect 52 0 51 0;
#X connect 53 0 52 0;
#X connect 55 0 60 0;
#X connect 56 0 54 0;
#X connect 57 0 26 0;
#X connect 58 0 9 0;
#X connect 59 0 2 2;
#X connect 60 0 1 0;
#X connect 61 0 63 0;
#X connect 62 0 2 3;
#X connect 63 0 62 0;
#X connect 66 0 50 0;
#X connect 67 0 10 0;
#X connect 67 0 14 0;
#X connect 68 0 67 0;
#X connect 69 0 13 0;
#X connect 69 0 58 0;
#X connect 70 0 69 0;
#X connect 71 0 61 0;
#X connect 71 0 12 0;
#X connect 72 0 71 0;
#X connect 73 0 15 0;
#X connect 73 0 19 0;
#X connect 73 0 55 0;
#X connect 74 0 73 0;
#X connect 75 0 73 0;
#X coords 0 -1 1 1 80 160 1 100 100;
#X restore 54 -125 pd plink;
#X obj 75 74 dac~;
#X obj 199 -210 adc~;
#X msg 39 -241 disconnect;
#X msg 11 -290 discover;
#X obj 29 -212 wiimote;
#X obj 45 -150 unpack 0 0 0;
#X msg 30 -264 reportAcceleration 1;
#X obj 87 -290 loadbang;
#X obj 200 -169 +~;
#X text 244 -262 pd version of the rjdj scene called 'plink'. create
soundparticles by shaking the wiimote (or using the sliders \, your
midi-controler \, whatever) sound input used for fm modulation;
#X text 247 -206 06/2009 martin brinkmann;
#X obj 30 -189 route acceleration;
#X text 251 -188 10/2011 changes for using with wiimote 0.3.2;
#X connect 0 0 1 0;
#X connect 0 1 1 1;
#X connect 2 0 9 0;
#X connect 2 1 9 1;
#X connect 3 0 5 0;
#X connect 4 0 5 0;
#X connect 5 0 12 0;
#X connect 6 0 0 0;
#X connect 6 1 0 1;
#X connect 6 2 0 2;
#X connect 7 0 5 0;
#X connect 8 0 7 0;
#X connect 9 0 0 3;
#X connect 12 0 6 0;
