#N canvas 4 4 597 315 10;
#X obj 218 198 f 0;
#X obj 255 198 + 1;
#X obj 127 148 t b b;
#X obj 3 69 inlet start-stop;
#X text 220 179 each step is previous step plus one;
#X obj 127 125 metro 125;
#X obj 127 277 outlet bangs;
#X obj 218 277 outlet time;
#X obj 286 67 inlet period;
#X text 235 254 outlet time;
#X text 130 250 outlet bangs;
#X text 156 19 counting timebase;
#X text 388 68 inlets start/stop and period;
#X connect 0 0 1 0;
#X connect 0 0 7 0;
#X connect 1 0 0 1;
#X connect 2 0 6 0;
#X connect 2 1 0 0;
#X connect 3 0 5 0;
#X connect 5 0 2 0;
#X connect 8 0 5 1;
