#N canvas 571 291 588 461 10;
#N canvas 473 356 622 647 whitenoisegen 0;
#X obj 88 114 noise~;
#X obj 135 172 bp~, f 6;
#X floatatom 171 73 5 0 0 0 - - -, f 5;
#X floatatom 199 159 5 0 0 0 - - -, f 5;
#X obj 171 44 inlet;
#X obj 65 526 outlet~;
#X obj 419 521 outlet~;
#X text 223 44 range 0..1;
#X obj 171 99 * 8000;
#X obj 414 221 delwrite~ delay1 70;
#X obj 415 244 delread~ delay1 70;
#X obj 235 305 *~ 0.6;
#X obj 189 350 delread~ delay2 600;
#X obj 188 270 delwrite~ delay2 600;
#X obj 216 385 *~ 0.4;
#X obj 70 76 loadbang;
#X connect 0 0 1 0;
#X connect 1 0 9 0;
#X connect 1 0 13 0;
#X connect 1 0 5 0;
#X connect 2 0 8 0;
#X connect 3 0 1 2;
#X connect 4 0 2 0;
#X connect 8 0 1 1;
#X connect 10 0 6 0;
#X connect 11 0 13 0;
#X connect 12 0 11 0;
#X connect 12 0 14 0;
#X connect 14 0 5 0;
#X connect 14 0 6 0;
#X connect 15 0 0 0;
#X restore 56 206 pd whitenoisegen;
#X obj 23 15 receive fromGUI;
#X obj 23 47 list trim;
#X obj 56 173 route /whitenoise;
#X obj 134 335 dac~;
#N canvas 1 83 563 584 clicktrack 1;
#X obj 311 201 print;
#X obj 349 52 stepsequencer;
#X obj 124 295 dac~;
#X obj 24 43 osc~ 440;
#X obj 39 208 *~;
#X obj 62 175 line~;
#X obj 62 135 1 0;
#X obj 142 142 0 1;
#X obj 141 115 delay 1;
#X obj 40 242 lop~;
#X floatatom 85 215 5 0 0 0 - - -, f 5;
#X obj 334 84 mod 4;
#X obj 305 114 == 0;
#X floatatom 73 85 5 0 0 0 - - -, f 5;
#X connect 1 0 11 0;
#X connect 3 0 4 0;
#X connect 4 0 9 0;
#X connect 5 0 4 1;
#X connect 6 0 5 0;
#X connect 7 0 5 0;
#X connect 8 0 7 0;
#X connect 9 0 2 0;
#X connect 9 0 2 1;
#X connect 10 0 9 1;
#X connect 11 0 12 0;
#X connect 12 0 0 0;
#X connect 12 0 13 0;
#X connect 13 0 6 0;
#X connect 13 0 8 0;
#X restore 245 176 pd clicktrack;
#X connect 0 0 4 0;
#X connect 0 1 4 1;
#X connect 1 0 2 0;
#X connect 2 0 3 0;
#X connect 3 0 0 0;
