#N canvas 629 137 550 384 10;
#X obj 83 88 A-timebase;
#X obj 83 40 tgl 15 0 empty empty empty 17 7 0 10 -262144 -1 -1 0 1
;
#X obj 178 117 mod;
#X obj 266 22 hsl 128 15 1 8 0 0 empty empty bars -2 -8 0 10 -262144
-1 -1 400 1;
#X obj 260 81 int;
#X obj 260 97 * 16;
#X floatatom 260 114 5 0 0 0 - - -, f 5;
#X obj 178 170 outlet steps;
#X connect 0 1 2 0;
#X connect 1 0 0 0;
#X connect 2 0 7 0;
#X connect 3 0 4 0;
#X connect 4 0 5 0;
#X connect 5 0 6 0;
#X connect 6 0 2 1;
