#N canvas 154 255 863 552 10;
#X obj 72 338 dac~;
#X obj 67 61 noise~;
#X obj 57 108 *~;
#X obj 63 83 *~ 0.001;
#N canvas 214 108 1400 904 feedbackroom1 0;
#X obj -90 411 abs~;
#X obj -86 434 clip~ 0 1;
#X obj -90 457 *~;
#X obj -74 525 lop~;
#X obj 106 194 hsl 128 15 0.001 10 1 1 empty empty speed -2 8 0 10
-262144 -1 -1 1300 1;
#X obj 366 -340 inlet~;
#X obj 106 178 hsl 128 15 0 100 0 1 empty empty mod -2 8 0 10 -262144
-1 -1 4200 1;
#X obj 483 -131 *~;
#X obj 107 141 hsl 128 15 0 10 0 1 empty empty feedback -2 8 0 10 -262144
-1 -1 2847 0;
#X obj 393 -151 +~;
#X obj 443 -188 *~;
#X obj 336 -192 *~;
#X obj 344 -242 * -1;
#X obj 344 -218 + 1;
#X obj 245 141 hsl 128 15 0 1 0 1 empty empty room_d/w -2 8 0 10 -262144
-1 -1 4166 0;
#X obj -119 580 vd~ \$0del1l;
#X obj -147 321 delread~ \$0del1l;
#X obj -106 342 delread~ \$0del1r;
#X obj 711 -126 +~;
#X obj 732 -157 *~;
#X obj 701 -148 *~;
#X obj 717 -208 * -1;
#X obj 717 -184 + 1;
#X obj 696 -104 *~;
#X obj -82 491 *~;
#X obj 278 761 *~ 0.2;
#X obj 451 762 *~ 0.2;
#X obj 250 869 outlet~;
#X obj 461 873 outlet~;
#X obj 106 210 hsl 128 15 0 1 0 1 empty empty pan -2 8 0 10 -262144
-1 -1 9300 1;
#N canvas 1 84 450 300 normalizer1 0;
#X obj 93 104 /~;
#X obj 75 45 sig~ 1;
#X obj 144 219 *~;
#X obj 98 186 clip~ 0 1;
#X obj 160 58 inlet~;
#X obj 144 248 outlet~;
#X obj 93 130 abs~;
#X text 149 16 scale signales > -1..1;
#X connect 0 0 6 0;
#X connect 1 0 0 0;
#X connect 2 0 5 0;
#X connect 3 0 2 0;
#X connect 4 0 0 1;
#X connect 4 0 2 1;
#X connect 6 0 3 0;
#X restore 252 846 pd normalizer1;
#N canvas 1 85 450 300 normalizer1 0;
#X obj 93 104 /~;
#X obj 75 45 sig~ 1;
#X obj 144 219 *~;
#X obj 98 186 clip~ 0 1;
#X obj 160 58 inlet~;
#X obj 144 248 outlet~;
#X obj 93 130 abs~;
#X text 149 16 scale signales > -1..1;
#X connect 0 0 6 0;
#X connect 1 0 0 0;
#X connect 2 0 5 0;
#X connect 3 0 2 0;
#X connect 4 0 0 1;
#X connect 4 0 2 1;
#X connect 6 0 3 0;
#X restore 463 852 pd normalizer1;
#N canvas 213 232 667 548 xfader 0;
#X obj 22 339 outlet~;
#X obj 21 257 +~;
#X obj 43 227 *~;
#X obj -19 230 *~;
#X obj -12 175 * -1;
#X obj -12 199 + 1;
#X obj -83 121 inlet~;
#X obj 60 128 inlet~;
#X obj 280 -125 inlet;
#X connect 1 0 0 0;
#X connect 2 0 1 1;
#X connect 3 0 1 0;
#X connect 4 0 5 0;
#X connect 5 0 3 1;
#X connect 6 0 3 0;
#X connect 7 0 2 0;
#X connect 8 0 4 0;
#X connect 8 0 2 1;
#X coords 0 548 1 547 90 25 0;
#X restore -93 373 pd xfader;
#X obj -43 579 vd~ \$0del1r;
#X obj 183 406 abs~;
#X obj 187 429 clip~ 0 1;
#X obj 183 452 *~;
#X obj 199 520 lop~;
#X obj 242 194 hsl 128 15 0.001 10 1 1 empty empty empty -2 -8 0 10
-262144 -1 -1 6400 1;
#X obj 242 178 hsl 128 15 0 100 0 1 empty empty empty -2 -8 0 10 -262144
-1 -1 4227 1;
#X obj 154 575 vd~ \$0del1l;
#X obj 126 316 delread~ \$0del1l;
#X obj 167 337 delread~ \$0del1r;
#X obj 191 486 *~;
#X obj 242 210 hsl 128 15 0 1 0 1 empty empty empty -2 -8 0 10 -262144
-1 -1 3800 1;
#N canvas 213 232 667 548 xfader 0;
#X obj 22 339 outlet~;
#X obj 21 257 +~;
#X obj 43 227 *~;
#X obj -19 230 *~;
#X obj -12 175 * -1;
#X obj -12 199 + 1;
#X obj -83 121 inlet~;
#X obj 60 128 inlet~;
#X obj 280 -125 inlet;
#X connect 1 0 0 0;
#X connect 2 0 1 1;
#X connect 3 0 1 0;
#X connect 4 0 5 0;
#X connect 5 0 3 1;
#X connect 6 0 3 0;
#X connect 7 0 2 0;
#X connect 8 0 4 0;
#X connect 8 0 2 1;
#X coords 0 548 1 547 90 25 0;
#X restore 180 368 pd xfader;
#X obj 230 574 vd~ \$0del1r;
#X obj 409 405 abs~;
#X obj 413 428 clip~ 0 1;
#X obj 409 451 *~;
#X obj 425 519 lop~;
#X obj 378 194 hsl 128 15 0.001 10 1 1 empty empty empty -2 -8 0 10
-262144 -1 -1 10900 1;
#X obj 378 178 hsl 128 15 0 100 0 1 empty empty empty -2 -8 0 10 -262144
-1 -1 10200 1;
#X obj 380 574 vd~ \$0del1l;
#X obj 352 315 delread~ \$0del1l;
#X obj 393 336 delread~ \$0del1r;
#X obj 417 485 *~;
#X obj 378 210 hsl 128 15 0 1 0 1 empty empty empty -2 -8 0 10 -262144
-1 -1 7000 1;
#N canvas 213 232 667 548 xfader 0;
#X obj 22 339 outlet~;
#X obj 21 257 +~;
#X obj 43 227 *~;
#X obj -19 230 *~;
#X obj -12 175 * -1;
#X obj -12 199 + 1;
#X obj -83 121 inlet~;
#X obj 60 128 inlet~;
#X obj 280 -125 inlet;
#X connect 1 0 0 0;
#X connect 2 0 1 1;
#X connect 3 0 1 0;
#X connect 4 0 5 0;
#X connect 5 0 3 1;
#X connect 6 0 3 0;
#X connect 7 0 2 0;
#X connect 8 0 4 0;
#X connect 8 0 2 1;
#X coords 0 548 1 547 90 25 0;
#X restore 406 367 pd xfader;
#X obj 456 573 vd~ \$0del1r;
#X obj 620 403 abs~;
#X obj 624 426 clip~ 0 1;
#X obj 620 449 *~;
#X obj 636 517 lop~;
#X obj 515 194 hsl 128 15 0.001 10 1 1 empty empty empty -2 -8 0 10
-262144 -1 -1 9100 1;
#X obj 515 178 hsl 128 15 0 100 0 1 empty empty empty -2 -8 0 10 -262144
-1 -1 6200 1;
#X obj 591 572 vd~ \$0del1l;
#X obj 563 313 delread~ \$0del1l;
#X obj 604 334 delread~ \$0del1r;
#X obj 628 483 *~;
#X obj 515 210 hsl 128 15 0 1 0 1 empty empty empty -2 -8 0 10 -262144
-1 -1 7700 1;
#N canvas 213 232 667 548 xfader 0;
#X obj 22 339 outlet~;
#X obj 21 257 +~;
#X obj 43 227 *~;
#X obj -19 230 *~;
#X obj -12 175 * -1;
#X obj -12 199 + 1;
#X obj -83 121 inlet~;
#X obj 60 128 inlet~;
#X obj 280 -125 inlet;
#X connect 1 0 0 0;
#X connect 2 0 1 1;
#X connect 3 0 1 0;
#X connect 4 0 5 0;
#X connect 5 0 3 1;
#X connect 6 0 3 0;
#X connect 7 0 2 0;
#X connect 8 0 4 0;
#X connect 8 0 2 1;
#X coords 0 548 1 547 90 25 0;
#X restore 617 365 pd xfader;
#X obj 667 571 vd~ \$0del1r;
#X obj 803 406 abs~;
#X obj 807 429 clip~ 0 1;
#X obj 803 452 *~;
#X obj 819 520 lop~;
#X obj 651 194 hsl 128 15 0.001 10 1 1 empty empty empty -2 -8 0 10
-262144 -1 -1 3600 1;
#X obj 651 178 hsl 128 15 0 100 0 1 empty empty empty -2 -8 0 10 -262144
-1 -1 900 1;
#X obj 774 575 vd~ \$0del1l;
#X obj 746 316 delread~ \$0del1l;
#X obj 787 337 delread~ \$0del1r;
#X obj 811 486 *~;
#X obj 651 210 hsl 128 15 0 1 0 1 empty empty empty -2 -8 0 10 -262144
-1 -1 4800 1;
#N canvas 213 232 667 548 xfader 0;
#X obj 22 339 outlet~;
#X obj 21 257 +~;
#X obj 43 227 *~;
#X obj -19 230 *~;
#X obj -12 175 * -1;
#X obj -12 199 + 1;
#X obj -83 121 inlet~;
#X obj 60 128 inlet~;
#X obj 280 -125 inlet;
#X connect 1 0 0 0;
#X connect 2 0 1 1;
#X connect 3 0 1 0;
#X connect 4 0 5 0;
#X connect 5 0 3 1;
#X connect 6 0 3 0;
#X connect 7 0 2 0;
#X connect 8 0 4 0;
#X connect 8 0 2 1;
#X coords 0 548 1 547 90 25 0;
#X restore 800 368 pd xfader;
#X obj 850 574 vd~ \$0del1r;
#X obj 461 -244 abs_platereverb1;
#X obj 383 130 hsl 128 8 220.5 22050 1 1 empty empty damping -2 5 0
10 -262144 -1 -1 7900 1;
#X obj 383 141 hsl 128 8 0 1 0 1 empty empty decay -2 5 0 10 -262144
-1 -1 9800 1;
#X obj 383 108 hsl 128 8 0 250 0 1 empty empty predelay -2 5 0 10 -262144
-1 -1 2500 1;
#X obj 383 119 hsl 128 8 220.5 22050 1 1 empty empty bandwidth -2 5
0 10 -262144 -1 -1 10000 1;
#X obj 520 119 hsl 128 8 0 1 0 1 empty empty input_diffusion_2 -2 5
0 10 -262144 -1 -1 6100 1;
#X obj 520 108 hsl 128 8 0 1 0 1 empty empty input_diffusion_1 -2 5
0 10 -262144 -1 -1 2400 1;
#X obj 520 141 hsl 128 8 0 1 0 1 empty empty decay_diffusion_2 -2 5
0 10 -262144 -1 -1 5900 1;
#X obj 520 130 hsl 128 8 0 1 0 1 empty empty decay_diffusion_1 -2 5
0 10 -262144 -1 -1 8900 1;
#X obj 656 108 hsl 128 8 0 5 0 1 empty empty excursion -2 5 0 10 -262144
-1 -1 6700 1;
#N canvas 1 82 450 300 normalizer1s 0;
#X obj 93 104 /~;
#X obj 75 45 sig~ 1;
#X obj 134 221 *~;
#X obj 98 162 clip~ 0 1;
#X obj 160 58 inlet~;
#X obj 134 250 outlet~;
#X obj 93 130 abs~;
#X text 149 16 scale signales > -1..1;
#X obj 231 114 /~;
#X obj 272 231 *~;
#X obj 236 172 clip~ 0 1;
#X obj 298 68 inlet~;
#X obj 272 260 outlet~;
#X obj 231 140 abs~;
#X connect 0 0 6 0;
#X connect 1 0 0 0;
#X connect 1 0 8 0;
#X connect 2 0 5 0;
#X connect 3 0 2 0;
#X connect 4 0 0 1;
#X connect 4 0 2 1;
#X connect 6 0 3 0;
#X connect 8 0 13 0;
#X connect 9 0 12 0;
#X connect 10 0 9 0;
#X connect 11 0 8 1;
#X connect 11 0 9 1;
#X connect 13 0 10 0;
#X restore 550 -67 pd normalizer1s;
#X obj 70 673 *~ 0.5;
#X obj 90 741 env~ 16384 8192;
#X obj 10 173 float;
#X obj -30 175 float;
#X obj 53 795 select 1;
#X obj 119 795 select 1;
#X obj 166 -5 line;
#X obj 6 218 + 0.05;
#X obj 118 770 < 55;
#X msg 157 -32 \$1 100;
#X obj 611 46 delwrite~ \$0del1l 2000;
#X obj 753 33 delwrite~ \$0del1r 2000;
#X obj 446 542 +~;
#X obj 397 162 nbx 5 14 0 250 0 1 empty empty empty 0 -8 0 10 -262144
-1 -1 17.97 256;
#X obj 205 542 +~;
#X obj 261 162 nbx 5 14 0 250 0 1 empty empty empty 0 -8 0 10 -262144
-1 -1 12.05 256;
#X obj -45 547 +~;
#X obj 125 162 nbx 5 14 0 250 0 1 empty empty del -22 8 0 10 -262144
-1 -1 11.98 256;
#X obj 640 540 +~;
#X obj 534 161 nbx 5 14 0 250 0 1 empty empty empty 0 -8 0 10 -262144
-1 -1 5.97 256;
#X obj 846 541 +~;
#X obj 669 161 nbx 5 14 0 250 0 1 empty empty empty 0 -8 0 10 -262144
-1 -1 24.04 256;
#X obj 251 -281 catch~ \$0delaysuml;
#X obj 654 -278 catch~ \$0delaysumr;
#X obj 286 789 throw~ \$0delaysuml;
#X obj 466 786 throw~ \$0delaysumr;
#X obj 62 767 > 70;
#X obj 142 124 nbx 3 14 10 99 0 1 empty empty empty 0 -8 0 10 -262144
-1 -1 79 256;
#X obj 182 124 nbx 3 14 1 89 0 1 empty empty empty 0 -8 0 10 -262144
-1 -1 14 256;
#X obj 129 537 -;
#X obj 140 514 t b f;
#X obj 123 599 clip 10 99;
#X obj -38 217 - 0.05;
#X obj 28 95 spigot;
#X obj 122 124 tgl 15 1 empty empty empty 17 7 0 10 -262144 -1 -1 1
1;
#X obj 595 755 *~ 0.2;
#X obj 407 -282 hip~ 10;
#X obj 257 69 metro 1000;
#X obj 282 124 nbx 4 14 20 1000 0 1 empty empty empty 0 -8 0 10 -262144
-1 -1 218 256;
#X obj 332 124 nbx 3 14 0 100 0 1 empty empty empty 0 -8 0 10 -262144
-1 -1 38 256;
#X obj 259 124 tgl 15 1 empty empty empty 17 7 0 10 -262144 -1 -1 1
1;
#X msg 255 36 bang;
#X obj 220 11 select 0 1;
#X msg 215 39 stop;
#X obj 359 -9 float;
#X obj 318 -128 random 1000;
#X obj 330 -35 *;
#X obj 333 15 +;
#X obj 313 -11 t b f;
#X obj 366 -33 / 100;
#X obj 320 -87 - 500;
#X obj 325 -58 / 10000;
#X floatatom 114 834 5 0 0 0 - - -;
#X obj 355 34 pack f f;
#X obj 362 54 line;
#X obj 385 12 / 2;
#X obj 656 124 hsl 128 15 5 22500 1 1 empty empty hp -2 8 0 10 -262144
-1 -1 3900 1;
#X obj 580 -37 hip~;
#X obj 596 -4 lop~;
#X obj 656 143 hsl 128 15 5 22500 1 1 empty empty lp -2 8 0 10 -262144
-1 -1 8700 1;
#X obj 634 -38 hip~;
#X obj 650 -5 lop~;
#X text -198 -295 5 delays with env mod and feedback+ reverb and filter
generate noise \, melodies and stuff.;
#X text -198 -262 1/2014 martin brinkmann;
#X text 256 110 randomwalk;
#X text 120 111 autolevel;
#X text 459 148 platereverb;
#X connect 0 0 1 0;
#X connect 1 0 2 1;
#X connect 1 0 2 0;
#X connect 2 0 24 0;
#X connect 3 0 113 0;
#X connect 4 0 3 1;
#X connect 5 0 11 0;
#X connect 5 0 20 0;
#X connect 5 0 133 0;
#X connect 6 0 24 1;
#X connect 7 0 96 0;
#X connect 8 0 99 1;
#X connect 8 0 100 1;
#X connect 8 0 106 0;
#X connect 9 0 7 0;
#X connect 10 0 9 1;
#X connect 11 0 9 0;
#X connect 12 0 13 0;
#X connect 13 0 11 1;
#X connect 14 0 10 1;
#X connect 14 0 12 0;
#X connect 14 0 19 1;
#X connect 14 0 21 0;
#X connect 14 0 141 1;
#X connect 15 0 25 0;
#X connect 15 0 132 0;
#X connect 16 0 32 0;
#X connect 17 0 32 1;
#X connect 18 0 23 0;
#X connect 19 0 18 1;
#X connect 20 0 18 0;
#X connect 21 0 22 0;
#X connect 22 0 20 1;
#X connect 23 0 96 1;
#X connect 24 0 3 0;
#X connect 25 0 30 0;
#X connect 25 0 121 0;
#X connect 26 0 31 0;
#X connect 26 0 122 0;
#X connect 29 0 32 2;
#X connect 30 0 27 0;
#X connect 30 0 97 0;
#X connect 31 0 28 0;
#X connect 31 0 97 0;
#X connect 32 0 0 0;
#X connect 33 0 26 0;
#X connect 33 0 132 0;
#X connect 34 0 35 0;
#X connect 35 0 36 1;
#X connect 35 0 36 0;
#X connect 36 0 43 0;
#X connect 37 0 111 0;
#X connect 38 0 37 1;
#X connect 39 0 43 1;
#X connect 40 0 25 0;
#X connect 40 0 132 0;
#X connect 41 0 45 0;
#X connect 42 0 45 1;
#X connect 43 0 37 0;
#X connect 44 0 45 2;
#X connect 45 0 34 0;
#X connect 46 0 26 0;
#X connect 46 0 132 0;
#X connect 47 0 48 0;
#X connect 48 0 49 1;
#X connect 48 0 49 0;
#X connect 49 0 56 0;
#X connect 50 0 109 0;
#X connect 51 0 50 1;
#X connect 52 0 56 1;
#X connect 53 0 25 0;
#X connect 53 0 132 0;
#X connect 54 0 58 0;
#X connect 55 0 58 1;
#X connect 56 0 50 0;
#X connect 57 0 58 2;
#X connect 58 0 47 0;
#X connect 59 0 26 0;
#X connect 59 0 132 0;
#X connect 60 0 61 0;
#X connect 61 0 62 1;
#X connect 61 0 62 0;
#X connect 62 0 69 0;
#X connect 63 0 115 0;
#X connect 64 0 63 1;
#X connect 65 0 69 1;
#X connect 66 0 25 0;
#X connect 66 0 132 0;
#X connect 67 0 71 0;
#X connect 68 0 71 1;
#X connect 69 0 63 0;
#X connect 70 0 71 2;
#X connect 71 0 60 0;
#X connect 72 0 26 0;
#X connect 72 0 132 0;
#X connect 73 0 74 0;
#X connect 74 0 75 1;
#X connect 74 0 75 0;
#X connect 75 0 82 0;
#X connect 76 0 117 0;
#X connect 77 0 76 1;
#X connect 78 0 82 1;
#X connect 79 0 25 0;
#X connect 79 0 132 0;
#X connect 80 0 84 0;
#X connect 81 0 84 1;
#X connect 82 0 76 0;
#X connect 83 0 84 2;
#X connect 84 0 73 0;
#X connect 85 0 26 0;
#X connect 85 0 132 0;
#X connect 86 0 10 0;
#X connect 86 1 19 0;
#X connect 87 0 86 5;
#X connect 88 0 86 6;
#X connect 89 0 86 1;
#X connect 90 0 86 2;
#X connect 91 0 86 4;
#X connect 92 0 86 3;
#X connect 93 0 86 8;
#X connect 94 0 86 7;
#X connect 95 0 86 9;
#X connect 96 0 154 0;
#X connect 96 1 157 0;
#X connect 97 0 98 0;
#X connect 98 0 105 0;
#X connect 98 0 123 0;
#X connect 98 0 149 0;
#X connect 99 0 104 0;
#X connect 100 0 129 0;
#X connect 101 0 100 0;
#X connect 102 0 99 0;
#X connect 103 0 23 1;
#X connect 103 0 7 1;
#X connect 104 0 130 0;
#X connect 105 0 102 0;
#X connect 106 0 103 0;
#X connect 109 0 53 0;
#X connect 109 0 59 0;
#X connect 110 0 109 1;
#X connect 111 0 46 0;
#X connect 111 0 40 0;
#X connect 112 0 111 1;
#X connect 113 0 33 0;
#X connect 113 0 15 0;
#X connect 114 0 113 1;
#X connect 115 0 72 0;
#X connect 115 0 66 0;
#X connect 116 0 115 1;
#X connect 117 0 85 0;
#X connect 117 0 79 0;
#X connect 118 0 117 1;
#X connect 119 0 11 0;
#X connect 120 0 20 0;
#X connect 123 0 101 0;
#X connect 124 0 123 1;
#X connect 124 0 126 0;
#X connect 125 0 127 0;
#X connect 126 0 128 0;
#X connect 127 0 126 0;
#X connect 127 1 126 1;
#X connect 128 0 105 1;
#X connect 129 0 130 0;
#X connect 130 0 8 0;
#X connect 131 0 130 1;
#X connect 132 0 133 0;
#X connect 133 0 86 0;
#X connect 134 0 142 0;
#X connect 135 0 134 1;
#X connect 135 0 152 0;
#X connect 136 0 146 0;
#X connect 137 0 139 0;
#X connect 138 0 134 0;
#X connect 139 0 140 0;
#X connect 139 1 138 0;
#X connect 140 0 134 0;
#X connect 141 0 144 0;
#X connect 142 0 147 0;
#X connect 143 0 145 0;
#X connect 144 0 150 0;
#X connect 145 0 141 0;
#X connect 145 1 144 1;
#X connect 146 0 143 1;
#X connect 147 0 148 0;
#X connect 148 0 143 0;
#X connect 150 0 151 0;
#X connect 151 0 14 0;
#X connect 152 0 150 1;
#X connect 153 0 154 1;
#X connect 153 0 157 1;
#X connect 154 0 155 0;
#X connect 155 0 107 0;
#X connect 156 0 155 1;
#X connect 156 0 158 1;
#X connect 157 0 158 0;
#X connect 158 0 108 0;
#X coords 0 -1 1 1 690 130 1 100 100;
#X restore 52 140 pd feedbackroom1;
#X text 163 97 1/2014 martin brinkmann;
#X text 161 35 a kind of simple room simulation with platereverb and
5 feedbackdelaylines. leave autolevel on for (mostly) nice feedback-sounds.
manually play feedback for slightly more interresting sounds \, and
turn up feedback (and turn down room) for roaring tin-cans.;
#X connect 1 0 3 0;
#X connect 2 0 4 0;
#X connect 3 0 2 0;
#X connect 3 0 2 1;
#X connect 4 0 0 0;
#X connect 4 1 0 1;
