#N canvas 187 373 715 440 10;
#X obj -28 173 dac~;
#N canvas 224 46 961 852 16counter 0;
#X obj 318 440 + 1;
#X obj 267 436 float;
#X obj 272 622 mod 2;
#X obj 210 672 delay 0;
#X obj 260 651 *;
#X msg 206 296 1;
#X obj 218 321 /;
#X obj 209 273 t f f;
#X obj 228 344 * 15000;
#X obj 339 355 t b f;
#X obj 263 405 metro 125;
#X obj 182 578 *;
#X obj 268 596 t b f f;
#X obj 136 130 hsl 80 8 0 0.4 0 1 empty empty swing -33 4 0 10 -262144
-1 -1 0 1;
#X msg 340 329 -2;
#X obj 251 700 int;
#X obj 172 17 loadbang;
#X floatatom 126 113 5 30 300 0 bpm - -;
#X msg -2 85 set \$1;
#X msg 5 139 100;
#X obj 174 112 bng 15 250 50 0 empty empty empty 6 7 0 10 -261234 -1
-1;
#X obj 253 737 outlet;
#X obj 570 496 outlet;
#X text 618 497 bpm->;
#X obj 200 112 bng 15 50 20 0 empty empty empty 6 7 0 10 -204786 -1
-1;
#X obj 208 225 float;
#X obj 435 539 outlet;
#X text 144 343 1/16 in ms;
#X text 485 540 pos96->;
#X text 178 628 swing;
#X obj 259 373 / 6;
#X text 219 371 1/96;
#X obj 343 481 / 6;
#X obj 343 505 int;
#X obj 342 530 change;
#X text 304 738 pos16swing->;
#X obj 600 64 + 1;
#X obj 602 29 float;
#X obj 600 96 moses 2;
#X obj 600 155 timer;
#X obj 600 123 t b;
#X obj 648 122 t b b;
#X obj 653 243 /;
#X msg 623 221 60000;
#X obj 618 183 t b f;
#X obj 656 268 moses 10;
#X text 500 72 beatcounter;
#X obj 772 358 float;
#X obj 769 401 + 1;
#X obj 688 426 +;
#X obj 729 396 *;
#X obj 705 328 t f b;
#X obj 698 464 /;
#X msg 884 211 0;
#X text 499 302 mean (as seen on idafx blog);
#X obj 906 259 bng 15 250 50 0 empty empty empty 17 7 0 10 -262144
-1 -1;
#X obj 864 324 t f f;
#X obj 921 503 moses 0.1;
#X text 880 303 reset;
#X obj 870 366 /;
#X obj 849 431 < 0.75;
#X obj 903 435 > 1.25;
#X obj 869 391 t f f;
#X obj 877 471 ||;
#X obj 174 54 t b b b;
#X obj 43 -7 inlet;
#X obj 107 -11 inlet;
#X connect 0 0 1 1;
#X connect 0 0 32 0;
#X connect 0 0 26 0;
#X connect 1 0 0 0;
#X connect 2 0 4 0;
#X connect 3 0 15 0;
#X connect 4 0 3 1;
#X connect 5 0 6 0;
#X connect 6 0 8 0;
#X connect 7 0 5 0;
#X connect 7 1 6 1;
#X connect 8 0 11 1;
#X connect 8 0 30 0;
#X connect 9 0 10 0;
#X connect 9 1 1 0;
#X connect 10 0 1 0;
#X connect 11 0 4 1;
#X connect 12 0 3 0;
#X connect 12 1 2 0;
#X connect 12 2 15 1;
#X connect 13 0 11 0;
#X connect 14 0 9 0;
#X connect 15 0 21 0;
#X connect 16 0 64 0;
#X connect 17 0 18 0;
#X connect 17 0 25 1;
#X connect 18 0 19 0;
#X connect 19 0 17 0;
#X connect 20 0 14 0;
#X connect 20 0 25 0;
#X connect 24 0 37 0;
#X connect 25 0 7 0;
#X connect 25 0 22 0;
#X connect 30 0 10 1;
#X connect 32 0 33 0;
#X connect 33 0 34 0;
#X connect 34 0 12 0;
#X connect 36 0 37 1;
#X connect 36 0 38 0;
#X connect 37 0 36 0;
#X connect 38 0 40 0;
#X connect 38 1 41 0;
#X connect 39 0 44 0;
#X connect 39 0 56 0;
#X connect 40 0 39 0;
#X connect 41 0 39 0;
#X connect 41 1 39 1;
#X connect 42 0 45 0;
#X connect 43 0 42 0;
#X connect 44 0 43 0;
#X connect 44 1 42 1;
#X connect 45 1 51 0;
#X connect 47 0 48 0;
#X connect 47 0 50 0;
#X connect 48 0 47 1;
#X connect 48 0 52 1;
#X connect 49 0 52 0;
#X connect 50 0 49 1;
#X connect 51 0 49 0;
#X connect 51 1 47 0;
#X connect 52 0 50 1;
#X connect 52 0 17 0;
#X connect 53 0 47 1;
#X connect 53 0 37 1;
#X connect 53 0 55 0;
#X connect 56 0 59 1;
#X connect 56 1 59 0;
#X connect 57 1 53 0;
#X connect 59 0 62 0;
#X connect 60 0 63 0;
#X connect 61 0 63 1;
#X connect 62 0 60 0;
#X connect 62 1 61 0;
#X connect 63 0 57 0;
#X connect 64 0 20 0;
#X connect 64 1 20 0;
#X connect 64 2 19 0;
#X connect 65 0 20 0;
#X connect 66 0 24 0;
#X coords 0 -1 1 1 120 40 1 100 100;
#X restore -42 -129 pd 16counter;
#N canvas 44 132 704 644 mym2schorus 0;
#X obj 23 59 inlet~;
#X obj 466 487 outlet~;
#X obj 295 500 outlet~;
#X obj 197 264 cos~;
#X obj 197 291 +~ 1;
#X obj 290 225 +~ 0.25;
#X obj 304 254 cos~;
#X obj 309 284 +~ 1;
#X obj 369 69 phasor~;
#X obj 354 -14 loadbang;
#X msg 355 20 0.8;
#X obj 145 407 vd~ \$0mychr1;
#X obj 298 371 vd~ \$0mychr1;
#X obj 311 318 *~ 0.3;
#X obj 418 232 cos~;
#X obj 423 262 +~ 1;
#X obj 412 349 vd~ \$0mychr1;
#X obj 425 296 *~ 0.3;
#X obj 24 101 delwrite~ \$0mychr1 100;
#X obj 404 203 +~ 0.5;
#X obj 522 250 cos~;
#X obj 527 280 +~ 1;
#X obj 516 367 vd~ \$0mychr1;
#X obj 508 221 +~ 0.75;
#X obj 530 315 *~ 0.31;
#X obj 194 318 *~ 0.31;
#X connect 0 0 18 0;
#X connect 3 0 4 0;
#X connect 4 0 25 0;
#X connect 5 0 6 0;
#X connect 6 0 7 0;
#X connect 7 0 13 0;
#X connect 8 0 3 0;
#X connect 8 0 5 0;
#X connect 8 0 19 0;
#X connect 8 0 23 0;
#X connect 9 0 10 0;
#X connect 10 0 8 0;
#X connect 11 0 2 0;
#X connect 12 0 1 0;
#X connect 13 0 12 0;
#X connect 14 0 15 0;
#X connect 15 0 17 0;
#X connect 16 0 2 0;
#X connect 17 0 16 0;
#X connect 19 0 14 0;
#X connect 20 0 21 0;
#X connect 21 0 24 0;
#X connect 22 0 1 0;
#X connect 23 0 20 0;
#X connect 24 0 22 0;
#X connect 25 0 11 0;
#X restore -43 131 pd mym2schorus;
#N canvas 416 149 1047 823 randrezloop1 0;
#X obj 55 629 *~;
#X obj 75 754 outlet~;
#X obj -7 102 inlet;
#X obj -5 285 div;
#X obj 256 117 nbx 7 14 1 1e+37 0 1 empty empty seed 0 -8 0 10 -262144
-1 -1 3683.71 256;
#X obj 103 160 nbx 3 14 1 64 0 1 empty empty spd1 0 -8 0 10 -262144
-1 -1 5 256;
#N canvas 6 90 450 300 rndish-sp 0;
#X obj 72 42 inlet;
#X obj 151 -77 inlet;
#X obj 105 277 outlet;
#X obj 101 80 *;
#X obj 131 164 sqrt;
#X obj 108 197 +;
#X obj 111 114 t f f;
#X text 77 15 sp;
#X obj 108 235 sin;
#X obj 157 41 +;
#X obj 191 14 /;
#X msg 179 -14 1;
#X obj 164 -50 t f b f;
#X text 165 -102 seed;
#X connect 0 0 3 0;
#X connect 1 0 12 0;
#X connect 3 0 6 0;
#X connect 4 0 5 1;
#X connect 5 0 8 0;
#X connect 6 0 5 0;
#X connect 6 1 4 0;
#X connect 8 0 2 0;
#X connect 9 0 3 1;
#X connect 10 0 9 1;
#X connect 11 0 10 0;
#X connect 12 0 9 0;
#X connect 12 1 11 0;
#X connect 12 2 10 1;
#X restore -13 319 pd rndish-sp;
#X obj 127 294 div;
#X obj 141 160 nbx 3 14 1 64 0 1 empty empty spd2 0 -8 0 10 -262144
-1 -1 3 256;
#N canvas 6 90 450 300 rndish-sp 0;
#X obj 72 42 inlet;
#X obj 151 -77 inlet;
#X obj 105 277 outlet;
#X obj 101 80 *;
#X obj 131 164 sqrt;
#X obj 108 197 +;
#X obj 111 114 t f f;
#X text 77 15 sp;
#X obj 108 235 sin;
#X obj 157 41 +;
#X obj 191 14 /;
#X msg 179 -14 1;
#X obj 164 -50 t f b f;
#X text 165 -102 seed;
#X connect 0 0 3 0;
#X connect 1 0 12 0;
#X connect 3 0 6 0;
#X connect 4 0 5 1;
#X connect 5 0 8 0;
#X connect 6 0 5 0;
#X connect 6 1 4 0;
#X connect 8 0 2 0;
#X connect 9 0 3 1;
#X connect 10 0 9 1;
#X connect 11 0 10 0;
#X connect 12 0 9 0;
#X connect 12 1 11 0;
#X connect 12 2 10 1;
#X restore 157 351 pd rndish-sp;
#X obj 242 287 div;
#X obj 179 160 nbx 3 14 1 64 0 1 empty empty spd3 0 -8 0 10 -262144
-1 -1 6 256;
#N canvas 7 94 450 300 rndish-sp 0;
#X obj 72 42 inlet;
#X obj 151 -77 inlet;
#X obj 105 277 outlet;
#X obj 101 80 *;
#X obj 131 164 sqrt;
#X obj 108 197 +;
#X obj 111 114 t f f;
#X text 77 15 sp;
#X obj 108 235 sin;
#X obj 157 41 +;
#X obj 191 14 /;
#X msg 179 -14 1;
#X obj 164 -50 t f b f;
#X text 165 -102 seed;
#X connect 0 0 3 0;
#X connect 1 0 12 0;
#X connect 3 0 6 0;
#X connect 4 0 5 1;
#X connect 5 0 8 0;
#X connect 6 0 5 0;
#X connect 6 1 4 0;
#X connect 8 0 2 0;
#X connect 9 0 3 1;
#X connect 10 0 9 1;
#X connect 11 0 10 0;
#X connect 12 0 9 0;
#X connect 12 1 11 0;
#X connect 12 2 10 1;
#X restore 255 336 pd rndish-sp;
#N canvas 436 307 450 300 limit 0;
#X obj 40 31 inlet~;
#X obj 40 234 outlet~;
#X obj 41 199 /~;
#X obj 75 174 clip~ 1 32000;
#X obj 79 136 lop~ 100;
#X obj 76 108 abs~;
#X connect 0 0 2 0;
#X connect 0 0 5 0;
#X connect 2 0 1 0;
#X connect 3 0 2 1;
#X connect 4 0 3 0;
#X connect 5 0 4 0;
#X restore 55 653 pd limit;
#X obj 223 160 nbx 4 14 -128 128 0 1 empty empty tp 0 -8 0 10 -262144
-1 -1 0 256;
#X obj 202 127 nbx 4 14 3 1024 0 1 empty empty len(1/16) 0 -8 0 10
-262144 -1 -1 32 256;
#X obj 4 156 mod;
#X obj -3 235 +;
#X obj 103 127 nbx 4 14 0 1024 0 1 empty empty st(len) 0 -8 0 10 -262144
-1 -1 0 256;
#X obj 43 162 *;
#X obj 339 115 vsl 8 56 0.01 1 0 1 empty empty empty 0 -9 0 10 -262144
-1 -1 1500 1;
#X obj 563 592 *;
#X obj 80 720 *~;
#X obj 56 686 hip~ 12;
#N canvas 158 488 450 300 rgb 0;
#X obj 64 54 inlet;
#X obj 141 56 inlet;
#X obj 207 57 inlet;
#X text 69 29 red;
#X text 139 31 green;
#X text 211 31 blue;
#X obj 207 103 t b f;
#X obj 141 161 +;
#X obj 141 186 t b f;
#X obj 141 217 +;
#X obj 64 80 * -65536;
#X obj 141 81 * -256;
#X obj 207 81 * -1;
#X obj 141 248 - 1;
#X obj 139 271 outlet;
#X connect 0 0 10 0;
#X connect 1 0 11 0;
#X connect 2 0 12 0;
#X connect 6 0 7 0;
#X connect 6 1 7 1;
#X connect 7 0 8 0;
#X connect 8 0 9 0;
#X connect 8 1 9 1;
#X connect 9 0 13 0;
#X connect 10 0 9 0;
#X connect 11 0 7 0;
#X connect 12 0 6 0;
#X connect 13 0 14 0;
#X restore 732 613 pd rgb;
#X obj 277 139 cnv 15 30 30 empty \$0monochrome empty 20 12 0 14 -113853
-262144 0;
#X msg 745 717 \; \$1monochrome color \$2 0;
#X obj 745 689 pack f f;
#X obj 740 658 \$0;
#X obj 732 635 t b f;
#X obj 622 520 * 128;
#X obj 623 549 + 128;
#X obj 623 572 clip 0 255;
#X obj 738 520 * 128;
#X obj 739 549 + 128;
#X obj 739 572 clip 0 255;
#X obj 832 520 * 128;
#X obj 833 549 + 128;
#X obj 833 572 clip 0 255;
#X obj 152 127 nbx 4 14 0 1024 0 1 empty empty st(1/16) 0 -8 0 10 -262144
-1 -1 16 256;
#X obj 16 214 +;
#X obj 65 183 t b f;
#N canvas 700 108 1139 747 presets 0;
#X obj 79 53 inlet;
#X obj 781 744 outlet;
#X obj 718 74 inlet;
#X text 82 29 store;
#X text 718 54 recall;
#X obj 237 143 route 0 1 2 3 4 5 6 7 8 9 10 11 12 13 14 15;
#X msg 237 208 2 0 16 243 4 6 7 0 0.28 0.236364;
#X msg 254 275 13 22 32 538 3 10 7 -12 0.298 0;
#X msg 296 335 12 24 40 897 7 4 9 44 0.316 0.0545455;
#X msg 328 394 69 10 16 69.61 3 8 4 0 0.388 0.145455;
#X obj 615 143 select 0 1 2 3 4 5 6 7 8 9 10 11 12 13 14 15;
#X msg 373 456 0 4 20 1103.41 4 6 8 -32 0.244 0.309091;
#X msg 415 516 0 0 16 1062.41 3 4 7 0 0.91 0.436364;
#X msg 447 575 10 10 20 2198 3 2 4 31 0.388 0.381818;
#X msg 478 620 71 16 24 2072 4 2 5 0 0.208 0.218182;
#X msg 610 217 0 22 32 5663.23 3 7 8 0 0.424 0.181818;
#X msg 655 279 0 16 32 3683.71 5 3 6 0 0.28 0.0363636;
#X msg 697 339 5 0 24 563.67 2 6 1 0 0.172 0.0181818;
#X msg 729 398 21 0 20 2562.12 11 2 3 32 0.244 0.0181818;
#X msg 759 448 2 1 16 1093 1 3 2 0 0.316 1;
#X msg 804 510 3 0 24 1553.23 5 4 6 -6 0.514 0.0909091;
#X msg 846 570 25 0 24 1832 7 8 3 0 0.352 0.945455;
#X msg 878 629 1 5 32 22105.9 2 7 3 0 0.28 0;
#X msg 210 98 \$1 set \$2 \$3 \$4 \$5 \$6 \$7 \$8 \$9 \$10 \$11;
#X connect 0 0 23 0;
#X connect 2 0 10 0;
#X connect 5 0 6 0;
#X connect 5 1 7 0;
#X connect 5 2 8 0;
#X connect 5 3 9 0;
#X connect 5 4 11 0;
#X connect 5 5 12 0;
#X connect 5 6 13 0;
#X connect 5 7 14 0;
#X connect 5 8 15 0;
#X connect 5 9 16 0;
#X connect 5 10 17 0;
#X connect 5 11 18 0;
#X connect 5 12 19 0;
#X connect 5 13 20 0;
#X connect 5 14 21 0;
#X connect 5 15 22 0;
#X connect 6 0 1 0;
#X connect 7 0 1 0;
#X connect 8 0 1 0;
#X connect 9 0 1 0;
#X connect 10 0 6 0;
#X connect 10 1 7 0;
#X connect 10 2 8 0;
#X connect 10 3 9 0;
#X connect 10 4 11 0;
#X connect 10 5 12 0;
#X connect 10 6 13 0;
#X connect 10 7 14 0;
#X connect 10 8 15 0;
#X connect 10 9 16 0;
#X connect 10 10 17 0;
#X connect 10 11 18 0;
#X connect 10 12 19 0;
#X connect 10 13 20 0;
#X connect 10 14 21 0;
#X connect 10 15 22 0;
#X connect 11 0 1 0;
#X connect 12 0 1 0;
#X connect 13 0 1 0;
#X connect 14 0 1 0;
#X connect 15 0 1 0;
#X connect 16 0 1 0;
#X connect 17 0 1 0;
#X connect 18 0 1 0;
#X connect 19 0 1 0;
#X connect 20 0 1 0;
#X connect 21 0 1 0;
#X connect 22 0 1 0;
#X connect 23 0 5 0;
#X restore 491 168 pd presets;
#X obj 354 159 bng 15 250 50 0 empty empty empty 17 7 0 10 -258113
-1 -1;
#X obj 354 113 bng 15 250 50 0 empty empty empty 17 7 0 10 -4034 -1
-1;
#X obj 485 78 float;
#X obj 663 80 float;
#X obj 350 137 nbx 2 14 0 15 0 1 empty empty empty 0 -8 0 10 -262144
-1 -1 9 256;
#X obj 190 178 hsl 128 8 0 1 0 0 empty empty empty -2 -8 0 10 -262144
-1 -1 2778 1;
#X obj 86 235 /;
#X obj 270 74 t b f;
#X text 493 50 7/2011 martin brinkmann;
#N canvas 306 153 896 797 resonator_a 0;
#X obj -4 706 outlet~;
#X obj 298 20 inlet;
#X obj 203 187 +;
#X obj 298 45 t b f;
#X obj 204 165 float;
#X obj -86 68 inlet;
#X obj 96 122 inlet;
#X obj 205 83 inlet;
#X obj 204 104 + 0.8;
#X obj 202 131 * 50;
#X text 204 62 pitch;
#X text 297 -3 tp (semitones);
#X text 75 23 inputs -1..1;
#X obj -264 68 inlet;
#X obj -157 100 inlet;
#X obj -197 76 inlet;
#N canvas 7 94 839 714 resonator1 0;
#X obj -38 317 inlet~;
#X obj 230 555 outlet~;
#X obj 200 421 mtof;
#X obj 315 376 mtof;
#X msg 266 371 1000;
#X obj 287 411 /;
#X obj 83 60 inlet;
#N canvas 195 270 839 634 delayline 0;
#X obj 125 281 inlet~;
#X obj 418 525 outlet~;
#X obj 199 507 +~;
#X obj 228 478 *~;
#X obj 29 267 block~ 1;
#X obj 355 374 lop~;
#X obj 399 289 inlet;
#X obj 288 277 inlet;
#X obj 215 266 inlet;
#X obj 204 528 delwrite~ \$0tpresa1 500;
#X obj 304 342 vd~ \$0tpresa1;
#X connect 0 0 2 0;
#X connect 2 0 9 0;
#X connect 3 0 2 1;
#X connect 5 0 3 1;
#X connect 6 0 5 1;
#X connect 7 0 10 0;
#X connect 8 0 3 0;
#X connect 10 0 1 0;
#X connect 10 0 5 0;
#X restore 231 494 pd delayline;
#X obj 386 141 - 63;
#X obj 387 164 / 64;
#X obj 274 263 t b f;
#X obj 302 445 +;
#X obj 388 186 - 1;
#X obj 387 209 abs;
#X obj 321 344 float;
#X obj 341 302 t b b f;
#X obj 384 238 *;
#X obj 378 261 * -0.2;
#X obj 155 35 inlet;
#X obj 281 33 inlet;
#X obj 279 69 clip 75 127;
#X obj 154 67 clip 0.6 0.999;
#X connect 0 0 7 0;
#X connect 2 0 7 3;
#X connect 3 0 5 1;
#X connect 4 0 5 0;
#X connect 5 0 11 0;
#X connect 6 0 10 0;
#X connect 7 0 1 0;
#X connect 8 0 9 0;
#X connect 9 0 12 0;
#X connect 10 0 4 0;
#X connect 10 1 14 0;
#X connect 11 0 7 2;
#X connect 12 0 13 0;
#X connect 13 0 16 1;
#X connect 13 0 16 0;
#X connect 14 0 3 0;
#X connect 15 0 4 0;
#X connect 15 1 14 0;
#X connect 15 2 11 1;
#X connect 16 0 17 0;
#X connect 17 0 15 0;
#X connect 18 0 21 0;
#X connect 19 0 20 0;
#X connect 20 0 2 0;
#X connect 20 0 8 0;
#X connect 21 0 7 1;
#X coords 0 714 1 713 140 40 0;
#X restore -10 653 pd resonator1;
#X text 100 104 dp;
#X text -85 47 fb;
#X obj -82 369 * 0.3999;
#X obj 96 154 * 26;
#X obj -81 399 + 0.6;
#X obj 108 217 + 101;
#X obj -150 565 *~;
#X obj -232 266 phasor~;
#X obj -249 164 *;
#X obj -234 236 * 20;
#X obj -252 95 + 1;
#X obj -251 121 * 0.5;
#X obj -84 115 + 1;
#X obj -97 140 * 0.5;
#X obj -157 123 + 1;
#X obj -156 149 * 0.5;
#X obj -161 190 *;
#X obj -158 224 * 150;
#X obj -156 319 hip~;
#X obj -309 437 noise~;
#X obj -282 508 samphold~;
#X obj -227 461 phasor~;
#X obj -211 417 * 22050;
#X obj -221 389 *;
#X obj -224 320 + 1;
#X obj -223 346 * 0.5;
#X obj -62 175 *;
#X obj -62 258 -;
#X msg -63 235 1;
#X obj -60 205 t b f;
#X obj 441 -17 inlet;
#X text 442 -31 fbcurve (tonality);
#X obj -64 302 *;
#X obj -30 302 *;
#X obj 4 216 t b f;
#X msg -2 245 1;
#X obj -9 164 clip 0.0001 1;
#X obj -52 336 +;
#X obj -11 194 t f f;
#X obj 5 273 -;
#X connect 1 0 3 0;
#X connect 2 0 16 1;
#X connect 3 0 4 0;
#X connect 3 1 2 1;
#X connect 4 0 2 0;
#X connect 5 0 29 0;
#X connect 6 0 20 0;
#X connect 7 0 8 0;
#X connect 8 0 9 0;
#X connect 9 0 4 0;
#X connect 13 0 27 0;
#X connect 14 0 31 0;
#X connect 15 0 41 0;
#X connect 16 0 0 0;
#X connect 19 0 21 0;
#X connect 20 0 22 0;
#X connect 21 0 16 2;
#X connect 22 0 16 3;
#X connect 23 0 16 0;
#X connect 24 0 35 0;
#X connect 25 0 26 0;
#X connect 26 0 24 0;
#X connect 27 0 28 0;
#X connect 28 0 25 1;
#X connect 28 0 25 0;
#X connect 29 0 30 0;
#X connect 30 0 43 1;
#X connect 30 0 43 0;
#X connect 30 0 49 0;
#X connect 31 0 32 0;
#X connect 32 0 33 1;
#X connect 32 0 33 0;
#X connect 33 0 34 0;
#X connect 34 0 35 1;
#X connect 35 0 23 1;
#X connect 36 0 37 0;
#X connect 37 0 23 0;
#X connect 38 0 37 1;
#X connect 39 0 38 0;
#X connect 40 0 39 0;
#X connect 41 0 42 0;
#X connect 42 0 40 1;
#X connect 42 0 40 0;
#X connect 43 0 46 0;
#X connect 44 0 50 0;
#X connect 45 0 44 0;
#X connect 46 0 45 0;
#X connect 46 1 44 1;
#X connect 47 0 53 0;
#X connect 49 0 54 0;
#X connect 50 0 54 1;
#X connect 51 0 52 0;
#X connect 51 1 56 1;
#X connect 52 0 56 0;
#X connect 53 0 55 0;
#X connect 54 0 19 0;
#X connect 55 0 49 1;
#X connect 55 1 51 0;
#X connect 56 0 50 1;
#X restore 4 591 pd resonator_a;
#N canvas 648 469 991 480 4random 0;
#N canvas 6 90 450 300 rndish 0;
#X obj 72 42 inlet;
#X obj 135 42 inlet;
#X obj 105 277 outlet;
#X obj 101 80 *;
#X obj 131 164 sqrt;
#X obj 108 197 +;
#X obj 111 114 t f f;
#X text 150 17 irrational nr/seed;
#X text 77 15 sp;
#X obj 108 235 sin;
#X connect 0 0 3 0;
#X connect 1 0 3 1;
#X connect 3 0 6 0;
#X connect 4 0 5 1;
#X connect 5 0 9 0;
#X connect 6 0 5 0;
#X connect 6 1 4 0;
#X connect 9 0 2 0;
#X restore 37 209 pd rndish;
#X obj 17 269 outlet;
#X obj 144 -81 inlet;
#X obj 267 122 sqrt;
#X msg 267 98 5;
#X obj 345 123 sqrt;
#X msg 345 99 7;
#X obj 180 131 sqrt;
#X msg 180 107 3;
#X obj 108 133 sqrt;
#X msg 108 109 2;
#X obj 373 -63 loadbang;
#X obj 109 160 * 100;
#X obj 180 158 * 100;
#N canvas 5 86 450 300 rndish 0;
#X obj 72 42 inlet;
#X obj 135 42 inlet;
#X obj 105 277 outlet;
#X obj 101 80 *;
#X obj 131 164 sqrt;
#X obj 108 197 +;
#X obj 111 114 t f f;
#X text 150 17 irrational nr/seed;
#X text 77 15 sp;
#X obj 108 235 sin;
#X connect 0 0 3 0;
#X connect 1 0 3 1;
#X connect 3 0 6 0;
#X connect 4 0 5 1;
#X connect 5 0 9 0;
#X connect 6 0 5 0;
#X connect 6 1 4 0;
#X connect 9 0 2 0;
#X restore 142 206 pd rndish;
#X obj 141 267 outlet;
#X text 194 -77 sp;
#N canvas 5 86 450 300 rndish 0;
#X obj 72 42 inlet;
#X obj 135 42 inlet;
#X obj 105 277 outlet;
#X obj 101 80 *;
#X obj 131 164 sqrt;
#X obj 108 197 +;
#X obj 111 114 t f f;
#X text 150 17 irrational nr/seed;
#X text 77 15 sp;
#X obj 108 235 sin;
#X connect 0 0 3 0;
#X connect 1 0 3 1;
#X connect 3 0 6 0;
#X connect 4 0 5 1;
#X connect 5 0 9 0;
#X connect 6 0 5 0;
#X connect 6 1 4 0;
#X connect 9 0 2 0;
#X restore 231 205 pd rndish;
#X obj 264 152 * 100;
#X obj 346 154 * 100;
#N canvas 5 86 450 300 rndish 0;
#X obj 72 42 inlet;
#X obj 135 42 inlet;
#X obj 105 277 outlet;
#X obj 101 80 *;
#X obj 131 164 sqrt;
#X obj 108 197 +;
#X obj 111 114 t f f;
#X text 150 17 irrational nr/seed;
#X text 77 15 sp;
#X obj 108 235 sin;
#X connect 0 0 3 0;
#X connect 1 0 3 1;
#X connect 3 0 6 0;
#X connect 4 0 5 1;
#X connect 5 0 9 0;
#X connect 6 0 5 0;
#X connect 6 1 4 0;
#X connect 9 0 2 0;
#X restore 327 212 pd rndish;
#X obj 240 272 outlet;
#X obj 334 270 outlet;
#X connect 0 0 1 0;
#X connect 2 0 0 0;
#X connect 2 0 14 0;
#X connect 2 0 17 0;
#X connect 2 0 20 0;
#X connect 3 0 18 0;
#X connect 4 0 3 0;
#X connect 5 0 19 0;
#X connect 6 0 5 0;
#X connect 7 0 13 0;
#X connect 8 0 7 0;
#X connect 9 0 12 0;
#X connect 10 0 9 0;
#X connect 11 0 10 0;
#X connect 11 0 8 0;
#X connect 11 0 4 0;
#X connect 11 0 6 0;
#X connect 12 0 0 1;
#X connect 13 0 14 1;
#X connect 14 0 15 0;
#X connect 17 0 21 0;
#X connect 18 0 17 1;
#X connect 19 0 20 1;
#X connect 20 0 22 0;
#X restore 42 437 pd 4random;
#N canvas 648 469 991 480 4random 0;
#N canvas 6 90 450 300 rndish 0;
#X obj 72 42 inlet;
#X obj 135 42 inlet;
#X obj 105 277 outlet;
#X obj 101 80 *;
#X obj 131 164 sqrt;
#X obj 108 197 +;
#X obj 111 114 t f f;
#X text 150 17 irrational nr/seed;
#X text 77 15 sp;
#X obj 108 235 sin;
#X connect 0 0 3 0;
#X connect 1 0 3 1;
#X connect 3 0 6 0;
#X connect 4 0 5 1;
#X connect 5 0 9 0;
#X connect 6 0 5 0;
#X connect 6 1 4 0;
#X connect 9 0 2 0;
#X restore 37 209 pd rndish;
#X obj 17 269 outlet;
#X obj 144 -81 inlet;
#X obj 267 122 sqrt;
#X msg 267 98 5;
#X obj 345 123 sqrt;
#X msg 345 99 7;
#X obj 180 131 sqrt;
#X msg 180 107 3;
#X obj 108 133 sqrt;
#X msg 108 109 2;
#X obj 373 -63 loadbang;
#X obj 109 160 * 100;
#X obj 180 158 * 100;
#N canvas 5 86 450 300 rndish 0;
#X obj 72 42 inlet;
#X obj 135 42 inlet;
#X obj 105 277 outlet;
#X obj 101 80 *;
#X obj 131 164 sqrt;
#X obj 108 197 +;
#X obj 111 114 t f f;
#X text 150 17 irrational nr/seed;
#X text 77 15 sp;
#X obj 108 235 sin;
#X connect 0 0 3 0;
#X connect 1 0 3 1;
#X connect 3 0 6 0;
#X connect 4 0 5 1;
#X connect 5 0 9 0;
#X connect 6 0 5 0;
#X connect 6 1 4 0;
#X connect 9 0 2 0;
#X restore 142 206 pd rndish;
#X obj 141 267 outlet;
#X text 194 -77 sp;
#N canvas 5 86 450 300 rndish 0;
#X obj 72 42 inlet;
#X obj 135 42 inlet;
#X obj 105 277 outlet;
#X obj 101 80 *;
#X obj 131 164 sqrt;
#X obj 108 197 +;
#X obj 111 114 t f f;
#X text 150 17 irrational nr/seed;
#X text 77 15 sp;
#X obj 108 235 sin;
#X connect 0 0 3 0;
#X connect 1 0 3 1;
#X connect 3 0 6 0;
#X connect 4 0 5 1;
#X connect 5 0 9 0;
#X connect 6 0 5 0;
#X connect 6 1 4 0;
#X connect 9 0 2 0;
#X restore 231 205 pd rndish;
#X obj 264 152 * 100;
#X obj 346 154 * 100;
#N canvas 5 86 450 300 rndish 0;
#X obj 72 42 inlet;
#X obj 135 42 inlet;
#X obj 105 277 outlet;
#X obj 101 80 *;
#X obj 131 164 sqrt;
#X obj 108 197 +;
#X obj 111 114 t f f;
#X text 150 17 irrational nr/seed;
#X text 77 15 sp;
#X obj 108 235 sin;
#X connect 0 0 3 0;
#X connect 1 0 3 1;
#X connect 3 0 6 0;
#X connect 4 0 5 1;
#X connect 5 0 9 0;
#X connect 6 0 5 0;
#X connect 6 1 4 0;
#X connect 9 0 2 0;
#X restore 327 212 pd rndish;
#X obj 240 272 outlet;
#X obj 334 270 outlet;
#X connect 0 0 1 0;
#X connect 2 0 0 0;
#X connect 2 0 14 0;
#X connect 2 0 17 0;
#X connect 2 0 20 0;
#X connect 3 0 18 0;
#X connect 4 0 3 0;
#X connect 5 0 19 0;
#X connect 6 0 5 0;
#X connect 7 0 13 0;
#X connect 8 0 7 0;
#X connect 9 0 12 0;
#X connect 10 0 9 0;
#X connect 11 0 10 0;
#X connect 11 0 8 0;
#X connect 11 0 4 0;
#X connect 11 0 6 0;
#X connect 12 0 0 1;
#X connect 13 0 14 1;
#X connect 14 0 15 0;
#X connect 17 0 21 0;
#X connect 18 0 17 1;
#X connect 19 0 20 1;
#X connect 20 0 22 0;
#X restore 132 437 pd 4random;
#N canvas 306 153 896 797 resonator_b 0;
#X obj -4 706 outlet~;
#X obj 315 22 inlet;
#X obj 220 189 +;
#X obj 315 47 t b f;
#X obj 221 167 float;
#X obj -86 68 inlet;
#X obj 113 124 inlet;
#X obj 222 85 inlet;
#X obj 221 106 + 0.8;
#X obj 219 133 * 50;
#X text 221 64 pitch;
#X text 314 -1 tp (semitones);
#X text 92 25 inputs -1..1;
#X obj -264 68 inlet;
#X obj -157 100 inlet;
#X obj -197 76 inlet;
#X text 117 106 dp;
#X text -85 47 fb;
#X obj -79 373 * 0.3999;
#X obj 113 156 * 26;
#X obj -68 408 + 0.6;
#X obj 125 219 + 101;
#X obj -150 565 *~;
#X obj -232 266 phasor~;
#X obj -249 164 *;
#X obj -234 236 * 20;
#X obj -252 95 + 1;
#X obj -251 121 * 0.5;
#X obj -84 115 + 1;
#X obj -87 141 * 0.5;
#X obj -157 123 + 1;
#X obj -156 149 * 0.5;
#X obj -161 190 *;
#X obj -158 224 * 150;
#X obj -156 319 hip~;
#X obj -309 437 noise~;
#X obj -282 508 samphold~;
#X obj -227 461 phasor~;
#X obj -211 417 * 22050;
#X obj -221 389 *;
#X obj -224 320 + 1;
#X obj -223 346 * 0.5;
#N canvas 8 98 839 714 resonator2 0;
#X obj -38 317 inlet~;
#X obj 230 555 outlet~;
#X obj 200 421 mtof;
#X obj 315 376 mtof;
#X msg 266 371 1000;
#X obj 287 411 /;
#X obj 83 60 inlet;
#N canvas 195 270 839 634 delayline 0;
#X obj 125 281 inlet~;
#X obj 418 525 outlet~;
#X obj 199 507 +~;
#X obj 228 478 *~;
#X obj 29 267 block~ 1;
#X obj 355 374 lop~;
#X obj 399 289 inlet;
#X obj 288 277 inlet;
#X obj 215 266 inlet;
#X obj 304 342 vd~ \$0tpresb1;
#X obj 203 531 delwrite~ \$0tpresb1 500;
#X connect 0 0 2 0;
#X connect 2 0 10 0;
#X connect 3 0 2 1;
#X connect 5 0 3 1;
#X connect 6 0 5 1;
#X connect 7 0 9 0;
#X connect 8 0 3 0;
#X connect 9 0 1 0;
#X connect 9 0 5 0;
#X restore 231 494 pd delayline;
#X obj 386 141 - 63;
#X obj 387 164 / 64;
#X obj 274 263 t b f;
#X obj 302 445 +;
#X obj 388 186 - 1;
#X obj 387 209 abs;
#X obj 321 344 float;
#X obj 341 302 t b b f;
#X obj 384 238 *;
#X obj 378 261 * -0.2;
#X obj 155 35 inlet;
#X obj 281 33 inlet;
#X obj 279 69 clip 75 127;
#X obj 154 67 clip 0.6 0.999;
#X connect 0 0 7 0;
#X connect 2 0 7 3;
#X connect 3 0 5 1;
#X connect 4 0 5 0;
#X connect 5 0 11 0;
#X connect 6 0 10 0;
#X connect 7 0 1 0;
#X connect 8 0 9 0;
#X connect 9 0 12 0;
#X connect 10 0 4 0;
#X connect 10 1 14 0;
#X connect 11 0 7 2;
#X connect 12 0 13 0;
#X connect 13 0 16 1;
#X connect 13 0 16 0;
#X connect 14 0 3 0;
#X connect 15 0 4 0;
#X connect 15 1 14 0;
#X connect 15 2 11 1;
#X connect 16 0 17 0;
#X connect 17 0 15 0;
#X connect 18 0 21 0;
#X connect 19 0 20 0;
#X connect 20 0 2 0;
#X connect 20 0 8 0;
#X connect 21 0 7 1;
#X coords 0 714 1 713 140 40 0;
#X restore -10 653 pd resonator2;
#X obj -62 170 *;
#X obj -64 248 -;
#X msg -65 225 1;
#X obj -68 197 t b f;
#X obj -70 303 *;
#X obj -33 304 *;
#X obj 0 209 t b f;
#X msg -6 238 1;
#X obj -13 157 clip 0.0001 1;
#X obj -56 329 +;
#X obj -15 187 t f f;
#X obj 441 -17 inlet;
#X text 442 -31 fbcurve (tonality);
#X obj 4 268 -;
#X connect 1 0 3 0;
#X connect 2 0 42 1;
#X connect 3 0 4 0;
#X connect 3 1 2 1;
#X connect 4 0 2 0;
#X connect 5 0 28 0;
#X connect 6 0 19 0;
#X connect 7 0 8 0;
#X connect 8 0 9 0;
#X connect 9 0 4 0;
#X connect 13 0 26 0;
#X connect 14 0 30 0;
#X connect 15 0 40 0;
#X connect 18 0 20 0;
#X connect 19 0 21 0;
#X connect 20 0 42 2;
#X connect 21 0 42 3;
#X connect 22 0 42 0;
#X connect 23 0 34 0;
#X connect 24 0 25 0;
#X connect 25 0 23 0;
#X connect 26 0 27 0;
#X connect 27 0 24 1;
#X connect 27 0 24 0;
#X connect 28 0 29 0;
#X connect 29 0 43 1;
#X connect 29 0 43 0;
#X connect 29 0 47 0;
#X connect 30 0 31 0;
#X connect 31 0 32 1;
#X connect 31 0 32 0;
#X connect 32 0 33 0;
#X connect 33 0 34 1;
#X connect 34 0 22 1;
#X connect 35 0 36 0;
#X connect 36 0 22 0;
#X connect 37 0 36 1;
#X connect 38 0 37 0;
#X connect 39 0 38 0;
#X connect 40 0 41 0;
#X connect 41 0 39 1;
#X connect 41 0 39 0;
#X connect 42 0 0 0;
#X connect 43 0 46 0;
#X connect 44 0 48 0;
#X connect 45 0 44 0;
#X connect 46 0 45 0;
#X connect 46 1 44 1;
#X connect 47 0 52 0;
#X connect 48 0 52 1;
#X connect 49 0 50 0;
#X connect 49 1 56 1;
#X connect 50 0 56 0;
#X connect 51 0 53 0;
#X connect 52 0 18 0;
#X connect 53 0 47 1;
#X connect 53 1 49 0;
#X connect 54 0 51 0;
#X connect 56 0 48 1;
#X restore 158 588 pd resonator_b;
#N canvas 648 469 991 480 4random 0;
#N canvas 6 90 450 300 rndish 0;
#X obj 72 42 inlet;
#X obj 135 42 inlet;
#X obj 105 277 outlet;
#X obj 101 80 *;
#X obj 131 164 sqrt;
#X obj 108 197 +;
#X obj 111 114 t f f;
#X text 150 17 irrational nr/seed;
#X text 77 15 sp;
#X obj 108 235 sin;
#X connect 0 0 3 0;
#X connect 1 0 3 1;
#X connect 3 0 6 0;
#X connect 4 0 5 1;
#X connect 5 0 9 0;
#X connect 6 0 5 0;
#X connect 6 1 4 0;
#X connect 9 0 2 0;
#X restore 37 209 pd rndish;
#X obj 17 269 outlet;
#X obj 144 -81 inlet;
#X obj 267 122 sqrt;
#X msg 267 98 5;
#X obj 345 123 sqrt;
#X msg 345 99 7;
#X obj 180 131 sqrt;
#X msg 180 107 3;
#X obj 108 133 sqrt;
#X msg 108 109 2;
#X obj 373 -63 loadbang;
#X obj 109 160 * 100;
#X obj 180 158 * 100;
#N canvas 5 86 450 300 rndish 0;
#X obj 72 42 inlet;
#X obj 135 42 inlet;
#X obj 105 277 outlet;
#X obj 101 80 *;
#X obj 131 164 sqrt;
#X obj 108 197 +;
#X obj 111 114 t f f;
#X text 150 17 irrational nr/seed;
#X text 77 15 sp;
#X obj 108 235 sin;
#X connect 0 0 3 0;
#X connect 1 0 3 1;
#X connect 3 0 6 0;
#X connect 4 0 5 1;
#X connect 5 0 9 0;
#X connect 6 0 5 0;
#X connect 6 1 4 0;
#X connect 9 0 2 0;
#X restore 142 206 pd rndish;
#X obj 141 267 outlet;
#X text 194 -77 sp;
#N canvas 5 86 450 300 rndish 0;
#X obj 72 42 inlet;
#X obj 135 42 inlet;
#X obj 105 277 outlet;
#X obj 101 80 *;
#X obj 131 164 sqrt;
#X obj 108 197 +;
#X obj 111 114 t f f;
#X text 150 17 irrational nr/seed;
#X text 77 15 sp;
#X obj 108 235 sin;
#X connect 0 0 3 0;
#X connect 1 0 3 1;
#X connect 3 0 6 0;
#X connect 4 0 5 1;
#X connect 5 0 9 0;
#X connect 6 0 5 0;
#X connect 6 1 4 0;
#X connect 9 0 2 0;
#X restore 231 205 pd rndish;
#X obj 264 152 * 100;
#X obj 346 154 * 100;
#N canvas 5 86 450 300 rndish 0;
#X obj 72 42 inlet;
#X obj 135 42 inlet;
#X obj 105 277 outlet;
#X obj 101 80 *;
#X obj 131 164 sqrt;
#X obj 108 197 +;
#X obj 111 114 t f f;
#X text 150 17 irrational nr/seed;
#X text 77 15 sp;
#X obj 108 235 sin;
#X connect 0 0 3 0;
#X connect 1 0 3 1;
#X connect 3 0 6 0;
#X connect 4 0 5 1;
#X connect 5 0 9 0;
#X connect 6 0 5 0;
#X connect 6 1 4 0;
#X connect 9 0 2 0;
#X restore 327 212 pd rndish;
#X obj 240 272 outlet;
#X obj 334 270 outlet;
#X connect 0 0 1 0;
#X connect 2 0 0 0;
#X connect 2 0 14 0;
#X connect 2 0 17 0;
#X connect 2 0 20 0;
#X connect 3 0 18 0;
#X connect 4 0 3 0;
#X connect 5 0 19 0;
#X connect 6 0 5 0;
#X connect 7 0 13 0;
#X connect 8 0 7 0;
#X connect 9 0 12 0;
#X connect 10 0 9 0;
#X connect 11 0 10 0;
#X connect 11 0 8 0;
#X connect 11 0 4 0;
#X connect 11 0 6 0;
#X connect 12 0 0 1;
#X connect 13 0 14 1;
#X connect 14 0 15 0;
#X connect 17 0 21 0;
#X connect 18 0 17 1;
#X connect 19 0 20 1;
#X connect 20 0 22 0;
#X restore 252 445 pd 4random;
#X text 491 16 randomloopgenerator \, like madloop \, but with a different
synthesis-method (resonator based);
#X obj 329 115 vsl 8 56 1 0 0 1 empty empty empty 0 -9 0 10 -262144
-1 -1 5300 1;
#X obj 139 -37 unpack f f f f f f f f f f;
#X obj 301 215 pack f f f f f f f f f f f;
#X connect 0 0 13 0;
#X connect 2 0 16 0;
#X connect 3 0 6 0;
#X connect 4 0 6 1;
#X connect 4 0 9 1;
#X connect 4 0 12 1;
#X connect 4 0 60 4;
#X connect 5 0 3 1;
#X connect 5 0 60 5;
#X connect 6 0 53 0;
#X connect 6 0 36 0;
#X connect 7 0 9 0;
#X connect 8 0 7 1;
#X connect 8 0 60 6;
#X connect 9 0 54 0;
#X connect 9 0 30 0;
#X connect 10 0 12 0;
#X connect 11 0 10 1;
#X connect 11 0 60 7;
#X connect 12 0 56 0;
#X connect 12 0 33 0;
#X connect 13 0 23 0;
#X connect 14 0 52 6;
#X connect 14 0 55 6;
#X connect 14 0 60 8;
#X connect 15 0 49 1;
#X connect 15 0 50 0;
#X connect 15 0 60 3;
#X connect 16 0 17 0;
#X connect 16 0 49 0;
#X connect 17 0 3 0;
#X connect 17 0 7 0;
#X connect 17 0 10 0;
#X connect 18 0 19 0;
#X connect 18 0 60 1;
#X connect 19 0 40 0;
#X connect 20 0 21 1;
#X connect 20 0 21 0;
#X connect 20 0 60 9;
#X connect 21 0 22 1;
#X connect 22 0 1 0;
#X connect 23 0 22 0;
#X connect 24 0 29 0;
#X connect 27 0 26 0;
#X connect 28 0 27 0;
#X connect 29 0 28 0;
#X connect 29 1 27 1;
#X connect 30 0 31 0;
#X connect 31 0 32 0;
#X connect 32 0 24 0;
#X connect 33 0 34 0;
#X connect 34 0 35 0;
#X connect 35 0 24 1;
#X connect 36 0 37 0;
#X connect 37 0 38 0;
#X connect 38 0 24 2;
#X connect 39 0 41 0;
#X connect 39 0 60 2;
#X connect 40 0 17 1;
#X connect 41 0 40 0;
#X connect 41 1 40 1;
#X connect 42 0 59 0;
#X connect 43 0 45 0;
#X connect 44 0 46 0;
#X connect 45 0 60 0;
#X connect 46 0 42 1;
#X connect 47 0 45 1;
#X connect 47 0 46 1;
#X connect 49 0 48 0;
#X connect 50 0 18 0;
#X connect 50 1 19 1;
#X connect 50 1 16 1;
#X connect 52 0 0 0;
#X connect 53 0 52 0;
#X connect 53 1 52 1;
#X connect 53 2 52 4;
#X connect 53 3 52 5;
#X connect 54 0 52 2;
#X connect 54 1 52 3;
#X connect 54 2 55 0;
#X connect 54 3 55 1;
#X connect 55 0 0 1;
#X connect 56 0 55 2;
#X connect 56 1 55 3;
#X connect 56 2 55 4;
#X connect 56 3 55 5;
#X connect 58 0 60 10;
#X connect 58 0 52 7;
#X connect 58 0 55 7;
#X connect 59 0 18 0;
#X connect 59 1 39 0;
#X connect 59 2 15 0;
#X connect 59 3 4 0;
#X connect 59 4 5 0;
#X connect 59 5 8 0;
#X connect 59 6 11 0;
#X connect 59 7 14 0;
#X connect 59 8 20 0;
#X connect 59 9 58 0;
#X connect 60 0 42 0;
#X coords 0 -1 1 1 280 90 1 100 100;
#X restore -42 -66 pd randrezloop1;
#X text 250 -64 randomloopgenerator \, like madloop \, but with a different
synthesis-method (resonator based);
#X connect 1 0 3 0;
#X connect 2 0 0 0;
#X connect 2 1 0 1;
#X connect 3 0 2 0;
