#N canvas 152 404 618 361 10;
#X obj 148 17 inlet fileArray;
#X obj 265 17 inlet envArray;
#X obj 148 104 s \$0-fileArr;
#X obj 196 195 r \$0-fileArr;
#X obj 265 103 s \$0-envArr;
#X obj 211 215 r \$0-envArr;
#X obj 11 260 s \$0-grain1;
#X obj 252 323 outlet~;
#X obj 36 238 s \$0-grain2;
#X obj 11 15 inlet startDurPitch;
#X obj 374 18 inlet envLength;
#X obj 226 236 r \$0-envLgt;
#X obj 374 41 s \$0-envLgt;
#X obj 312 195 r \$0-fileArr;
#X obj 327 215 r \$0-envArr;
#X obj 342 237 r \$0-envLgt;
#X obj 297 174 r \$0-grain2;
#X obj 181 174 r \$0-grain1;
#X obj 233 46 loadbang;
#X obj 166 79 symbol \$1;
#X obj 291 79 symbol \$2;
#X obj 181 260 64grain~;
#X obj 297 260 64grain~;
#X obj 11 177 route 0 1;
#X obj 11 82 f;
#X obj 41 82 + 1;
#X obj 11 102 mod 2;
#X obj 11 123 list;
#X obj 11 40 t bang list;
#X connect 0 0 2 0;
#X connect 1 0 4 0;
#X connect 3 0 21 1;
#X connect 5 0 21 2;
#X connect 9 0 28 0;
#X connect 10 0 12 0;
#X connect 11 0 21 3;
#X connect 13 0 22 1;
#X connect 14 0 22 2;
#X connect 15 0 22 3;
#X connect 16 0 22 0;
#X connect 17 0 21 0;
#X connect 18 0 19 0;
#X connect 18 0 20 0;
#X connect 19 0 2 0;
#X connect 20 0 4 0;
#X connect 21 0 7 0;
#X connect 22 0 7 0;
#X connect 23 0 6 0;
#X connect 23 1 8 0;
#X connect 24 0 25 0;
#X connect 24 0 26 0;
#X connect 25 0 24 1;
#X connect 26 0 27 0;
#X connect 27 0 23 0;
#X connect 28 0 24 0;
#X connect 28 1 27 1;
