#N canvas 120 92 867 520 10;
#X obj 46 -45 inlet number;
#X obj 51 157 sel 0 1 2 3 4 5;
#N canvas 5 22 450 506 triangular 0;
#X obj 62 -38 f 256;
#X obj 34 36 until;
#X obj 95 81 + 1;
#X obj 66 81 f 0;
#X obj 62 -8 t f b f;
#X msg 81 36 0;
#X obj 106 265 abs;
#X obj 106 239 -;
#X obj 147 217 / 2;
#X obj 67 239 / 2;
#X obj 11 265 2;
#X obj 67 295 -;
#X obj 64 114 t b b f b f;
#X obj 50 327 *;
#X obj 147 187 f;
#X obj 67 214 f;
#X obj 11 290 /;
#X obj 50 368 outlet value;
#X obj 127 368 outlet index;
#X obj 27 -93 inlet go;
#X obj 89 -93 inlet size;
#X obj 27 -69 t b;
#X connect 0 0 4 0;
#X connect 1 0 3 0;
#X connect 2 0 3 1;
#X connect 3 0 2 0;
#X connect 3 0 12 0;
#X connect 4 0 1 0;
#X connect 4 1 5 0;
#X connect 4 2 14 1;
#X connect 5 0 3 1;
#X connect 6 0 11 1;
#X connect 7 0 6 0;
#X connect 8 0 7 1;
#X connect 9 0 11 0;
#X connect 10 0 16 0;
#X connect 11 0 13 1;
#X connect 12 0 10 0;
#X connect 12 1 15 0;
#X connect 12 2 7 0;
#X connect 12 3 14 0;
#X connect 12 4 18 0;
#X connect 13 0 17 0;
#X connect 14 0 8 0;
#X connect 14 0 15 1;
#X connect 15 0 9 0;
#X connect 15 0 16 1;
#X connect 16 0 13 0;
#X connect 19 0 21 0;
#X connect 20 0 0 1;
#X connect 21 0 0 0;
#X restore 50 342 pd triangular;
#X obj 244 89 f;
#X msg 326 114 resize \$1;
#X obj 259 11 loadbang;
#X msg 18 77 0;
#N canvas 54 29 585 590 gaussian 0;
#X obj 31 -25 f 256;
#X obj -1 49 until;
#X obj 60 94 + 1;
#X obj 31 94 f 0;
#X obj 31 5 t f b f;
#X msg 46 49 0;
#X obj 14 426 pow;
#X obj 113 160 f;
#X obj 46 393 * -1;
#X obj 46 364 *;
#X obj 44 240 /;
#X obj 44 274 - 0.5;
#X obj 46 304 *;
#X obj -28 393 2.71828;
#X obj 29 125 t b f b b f;
#X obj 145 160 f 20;
#X obj 31 -100 inlet bang;
#X obj 111 -100 inlet size;
#X obj 14 459 outlet val;
#X obj 132 458 outlet pos;
#X obj 189 -100 inlet sigma;
#X obj 140 -74 t b f;
#X obj 58 -50 f;
#X text 225 -75 0 <= sigma <= 20;
#X obj 166 -53 expr if ($f1 >= 500 || $f1 < 0 \, 500 \, $f1);
#X obj 31 -50 t b;
#X connect 0 0 4 0;
#X connect 1 0 3 0;
#X connect 2 0 3 1;
#X connect 3 0 2 0;
#X connect 3 0 14 0;
#X connect 4 0 1 0;
#X connect 4 1 5 0;
#X connect 4 2 7 1;
#X connect 5 0 3 1;
#X connect 6 0 18 0;
#X connect 7 0 10 1;
#X connect 8 0 6 1;
#X connect 9 0 8 0;
#X connect 10 0 11 0;
#X connect 11 0 12 1;
#X connect 11 0 12 0;
#X connect 12 0 9 0;
#X connect 13 0 6 0;
#X connect 14 0 13 0;
#X connect 14 1 10 0;
#X connect 14 2 7 0;
#X connect 14 3 15 0;
#X connect 14 4 19 0;
#X connect 15 0 9 1;
#X connect 16 0 25 0;
#X connect 17 0 22 0;
#X connect 20 0 21 0;
#X connect 21 0 22 0;
#X connect 21 1 24 0;
#X connect 22 0 0 1;
#X connect 24 0 15 1;
#X connect 25 0 0 0;
#X restore 65 274 pd gaussian;
#X obj 404 -25 inlet sigma;
#X text 404 -45 only for gaussian;
#X msg 17 56 1;
#X obj 51 133 f;
#X obj 69 86 t b;
#X obj 69 110 del 1;
#X obj 474 43 == 1;
#X obj 474 66 sel 1;
#X obj 474 19 f;
#X obj 404 -3 t f b;
#X obj 244 -44 inlet size;
#X obj 238 435 tabwrite \$1;
#X obj 51 7 r \$0-envChoice;
#X obj 46 -23 s \$0-envChoice;
#X obj 69 27 r \$0-envSize;
#X obj 84 47 r \$0-redrawGauss;
#X obj 244 137 s \$0-envSize;
#X obj 404 18 s \$0-sigma;
#X obj 474 87 s \$0-redrawGauss;
#X obj 489 -6 r \$0-envChoice;
#X obj 96 230 r \$0-envSize;
#X obj 128 250 r \$0-sigma;
#X obj 125 315 r \$0-envSize;
#X obj 326 136 s \$1;
#X msg 259 40 256;
#X text 204 114 length;
#N canvas 25 110 450 588 trapezoid 0;
#X obj 62 -38 f 256;
#X obj 34 36 until;
#X obj 95 81 + 1;
#X obj 66 81 f 0;
#X obj 62 -8 t f b f;
#X msg 81 36 0;
#X obj 106 265 abs;
#X obj 106 239 -;
#X obj 147 217 / 2;
#X obj 67 239 / 2;
#X obj 11 265 2;
#X obj 67 295 -;
#X obj 64 114 t b b f b f;
#X obj 50 327 *;
#X obj 147 187 f;
#X obj 67 214 f;
#X obj 11 290 /;
#X obj 50 411 outlet value;
#X obj 130 412 outlet index;
#X obj 34 -118 inlet go;
#X obj 92 -118 inlet size;
#X obj 289 -125 inlet slope;
#X obj 50 380 clip 0 1;
#X obj 289 -104 t b f;
#X obj 92 -58 f;
#X obj 50 351 * 2;
#X connect 0 0 4 0;
#X connect 1 0 3 0;
#X connect 2 0 3 1;
#X connect 3 0 2 0;
#X connect 3 0 12 0;
#X connect 4 0 1 0;
#X connect 4 1 5 0;
#X connect 4 2 14 1;
#X connect 5 0 3 1;
#X connect 6 0 11 1;
#X connect 7 0 6 0;
#X connect 8 0 7 1;
#X connect 9 0 11 0;
#X connect 10 0 16 0;
#X connect 11 0 13 1;
#X connect 12 0 10 0;
#X connect 12 1 15 0;
#X connect 12 2 7 0;
#X connect 12 3 14 0;
#X connect 12 4 18 0;
#X connect 13 0 25 0;
#X connect 14 0 8 0;
#X connect 14 0 15 1;
#X connect 15 0 9 0;
#X connect 15 0 16 1;
#X connect 16 0 13 0;
#X connect 19 0 0 0;
#X connect 20 0 24 0;
#X connect 21 0 23 0;
#X connect 22 0 17 0;
#X connect 23 0 24 0;
#X connect 23 1 25 1;
#X connect 24 0 0 1;
#X connect 25 0 22 0;
#X restore 237 255 pd trapezoid;
#X obj 271 208 r \$0-envSize;
#X obj 714 62 sel 1;
#X obj 714 15 f;
#X obj 644 -7 t f b;
#X obj 729 -10 r \$0-envChoice;
#X text 646 -49 only for trapezoid;
#X obj 644 14 s \$0-slope;
#X obj 303 228 r \$0-slope;
#X obj 644 -29 inlet slope;
#X obj 714 39 == 2;
#X obj 714 83 s \$0-redrawtrapezoid;
#X obj 101 70 r \$0-redrawtrapezoid;
#N canvas 488 55 287 514 hann 0;
#X obj 29 66 f 256;
#X obj 1 140 until;
#X obj 62 185 + 1;
#X obj 33 213 t b f b b f;
#X obj 33 342 1;
#X obj 47 370 -;
#X obj 47 397 * 0.5;
#X obj 62 342 cos;
#X obj 62 316 /;
#X obj 62 291 *;
#X obj 77 267 * 3.1415;
#X obj 77 246 2;
#X obj 133 267 f;
#X obj 33 185 f 0;
#X obj 29 96 t f b f;
#X msg 48 140 0;
#X obj 137 476 outlet pos;
#X obj 47 476 outlet val;
#X obj 29 11 inlet bang;
#X obj 29 42 t b;
#X obj 100 11 inlet size;
#X connect 0 0 14 0;
#X connect 1 0 13 0;
#X connect 2 0 13 1;
#X connect 3 0 4 0;
#X connect 3 1 9 0;
#X connect 3 2 11 0;
#X connect 3 3 12 0;
#X connect 3 4 16 0;
#X connect 4 0 5 0;
#X connect 5 0 6 0;
#X connect 6 0 17 0;
#X connect 7 0 5 1;
#X connect 8 0 7 0;
#X connect 9 0 8 0;
#X connect 10 0 9 1;
#X connect 11 0 10 0;
#X connect 12 0 8 1;
#X connect 13 0 2 0;
#X connect 13 0 3 0;
#X connect 14 0 1 0;
#X connect 14 1 15 0;
#X connect 14 2 12 1;
#X connect 15 0 13 1;
#X connect 18 0 19 0;
#X connect 19 0 0 0;
#X connect 20 0 0 1;
#X restore 455 215 pd hann;
#X obj 494 189 r \$0-envSize;
#X connect 0 0 21 0;
#X connect 1 0 2 0;
#X connect 1 1 7 0;
#X connect 1 2 34 0;
#X connect 1 3 47 0;
#X connect 2 0 19 0;
#X connect 2 1 19 1;
#X connect 3 0 4 0;
#X connect 3 0 24 0;
#X connect 4 0 31 0;
#X connect 5 0 32 0;
#X connect 6 0 11 0;
#X connect 7 0 19 0;
#X connect 7 1 19 1;
#X connect 8 0 17 0;
#X connect 10 0 11 0;
#X connect 11 0 1 0;
#X connect 12 0 13 0;
#X connect 13 0 11 0;
#X connect 14 0 15 0;
#X connect 15 0 26 0;
#X connect 16 0 14 0;
#X connect 17 0 25 0;
#X connect 17 1 16 0;
#X connect 18 0 3 0;
#X connect 20 0 11 0;
#X connect 22 0 12 0;
#X connect 23 0 12 0;
#X connect 27 0 16 1;
#X connect 28 0 7 1;
#X connect 29 0 7 2;
#X connect 30 0 2 1;
#X connect 32 0 3 0;
#X connect 34 0 19 0;
#X connect 34 1 19 1;
#X connect 35 0 34 1;
#X connect 36 0 45 0;
#X connect 37 0 44 0;
#X connect 38 0 41 0;
#X connect 38 1 37 0;
#X connect 39 0 37 1;
#X connect 42 0 34 2;
#X connect 43 0 38 0;
#X connect 44 0 36 0;
#X connect 46 0 12 0;
#X connect 47 0 19 0;
#X connect 47 1 19 1;
#X connect 48 0 47 1;
