#N canvas 335 404 450 300 10;
#X obj 208 36 inlet pan;
#X text 192 19 -45 45 to be compatible with motex pan;
#X obj 94 156 *~ 0.707107;
#X obj 182 156 *~ 0.707107;
#X obj 94 187 outlet~ L;
#X obj 182 187 outlet~ R;
#X obj 94 36 inlet~ sig;
#X obj 208 62 expr ($f1 / -90) + 0.5;
#X obj 157 101 expr sqrt($f1);
#X obj 245 82 expr (sqrt(1-$f1));
#X text 94 223 equal root power compatible with motex pan~;
#X connect 0 0 7 0;
#X connect 2 0 4 0;
#X connect 3 0 5 0;
#X connect 6 0 2 0;
#X connect 6 0 3 0;
#X connect 7 0 8 0;
#X connect 7 0 9 0;
#X connect 8 0 2 1;
#X connect 9 0 3 1;
