#N canvas 252 217 340 260 10;
#X obj 32 226 outlet;
#X obj 178 10 loadbang;
#X obj 109 34 inlet min;
#X obj 195 35 inlet max;
#X obj 32 34 inlet bang;
#X obj 109 95 t f b f;
#X obj 32 152 random;
#X obj 32 200 + \$1;
#X obj 195 94 f \$2;
#X obj 127 124 - \$1;
#X connect 1 0 8 0;
#X connect 2 0 5 0;
#X connect 3 0 8 0;
#X connect 4 0 6 0;
#X connect 5 0 7 1;
#X connect 5 1 9 0;
#X connect 5 2 9 1;
#X connect 6 0 7 0;
#X connect 7 0 0 0;
#X connect 8 0 9 0;
#X connect 9 0 6 1;
