#N canvas 134 63 1056 830 10;
#X obj 270 450 soundoutput;
#X obj 243 -263 mtof;
#X floatatom 658 -162 5 0 0 0 - - -;
#X obj 210 -136 pack f f f f;
#X obj 100 -230 +;
#X obj 86 -174 int;
#X obj 96 -205 t b f;
#X msg 45 -267 1;
#X obj 64 -89 moses 0.1;
#X msg 51 -194 0;
#X obj 245 -350 clip -1 1;
#X obj 596 -566 loadbang;
#X obj 323 -365 clip -1 1;
#X obj 331 -330 + 1;
#X obj 233 -559 r #accelerate;
#N canvas 161 73 739 534 speedchangedetect 0;
#X obj 153 -521 t f b;
#X obj 154 -442 -;
#X obj 181 -469 float;
#X obj 140 -345 > 0.1;
#X obj 142 -315 moses 0.1;
#X obj 146 -410 abs;
#X obj 213 -160 outlet;
#X obj 150 -559 inlet;
#X text 204 -502 speed;
#X text 196 -558 <- events;
#X obj 274 -481 inlet;
#X text 315 -480 <-threshhold 0..1;
#X obj 218 -284 *;
#X obj 143 -386 t f f;
#X obj 220 -201 clip 0 127;
#X obj 220 -242 * 100;
#X connect 0 0 1 0;
#X connect 0 0 2 1;
#X connect 0 1 2 0;
#X connect 1 0 5 0;
#X connect 2 0 1 1;
#X connect 3 0 4 0;
#X connect 4 1 12 0;
#X connect 5 0 13 0;
#X connect 7 0 0 0;
#X connect 10 0 3 1;
#X connect 12 0 15 0;
#X connect 13 0 3 0;
#X connect 13 1 12 1;
#X connect 14 0 6 0;
#X connect 15 0 14 0;
#X restore 82 -318 pd speedchangedetect;
#N canvas 161 73 739 534 speedchangedetect 0;
#X obj 153 -521 t f b;
#X obj 154 -442 -;
#X obj 181 -469 float;
#X obj 140 -345 > 0.1;
#X obj 142 -315 moses 0.1;
#X obj 146 -410 abs;
#X obj 213 -160 outlet;
#X obj 150 -559 inlet;
#X text 204 -502 speed;
#X text 196 -558 <- events;
#X obj 274 -481 inlet;
#X text 315 -480 <-threshhold 0..1;
#X obj 218 -284 *;
#X obj 143 -386 t f f;
#X obj 220 -201 clip 0 127;
#X obj 220 -242 * 100;
#X connect 0 0 1 0;
#X connect 0 0 2 1;
#X connect 0 1 2 0;
#X connect 1 0 5 0;
#X connect 2 0 1 1;
#X connect 3 0 4 0;
#X connect 4 1 12 0;
#X connect 5 0 13 0;
#X connect 7 0 0 0;
#X connect 10 0 3 1;
#X connect 12 0 15 0;
#X connect 13 0 3 0;
#X connect 13 1 12 1;
#X connect 14 0 6 0;
#X connect 15 0 14 0;
#X restore 23 -391 pd speedchangedetect;
#N canvas 161 73 739 534 speedchangedetect 0;
#X obj 153 -521 t f b;
#X obj 154 -442 -;
#X obj 181 -469 float;
#X obj 140 -345 > 0.1;
#X obj 142 -315 moses 0.1;
#X obj 146 -410 abs;
#X obj 213 -160 outlet;
#X obj 150 -559 inlet;
#X text 204 -502 speed;
#X text 196 -558 <- events;
#X obj 274 -481 inlet;
#X text 315 -480 <-threshhold 0..1;
#X obj 218 -284 *;
#X obj 143 -386 t f f;
#X obj 220 -201 clip 0 127;
#X obj 220 -242 * 100;
#X connect 0 0 1 0;
#X connect 0 0 2 1;
#X connect 0 1 2 0;
#X connect 1 0 5 0;
#X connect 2 0 1 1;
#X connect 3 0 4 0;
#X connect 4 1 12 0;
#X connect 5 0 13 0;
#X connect 7 0 0 0;
#X connect 10 0 3 1;
#X connect 12 0 15 0;
#X connect 13 0 3 0;
#X connect 13 1 12 1;
#X connect 14 0 6 0;
#X connect 15 0 14 0;
#X restore -12 -431 pd speedchangedetect;
#X msg 176 -465 0.05;
#X obj 212 -85 route 0 1 2 3 4 5 6 7 8 9 10 11 12 13 14 15 16 17 18
19 20 21 22 23;
#X obj 65 -115 > 23;
#N canvas 0 28 1172 829 4tap-delay 0;
#X obj 635 806 outlet~;
#X obj 821 811 outlet~;
#X obj 2 419 inlet~;
#X obj 114 630 +~;
#X obj 290 873 *~;
#X obj 198 802 hsl 96 8 0 0.95 0 1 empty empty fb -16 5 0 8 -262144
-1 -1 1900 1;
#X text 132 654 <- unique name for delaylines! ->;
#X obj 527 473 hsl 41 8 0 -1 0 1 empty empty pan -21 4 0 8 -262144
-1 -1 2280 1;
#X obj 460 536 *~;
#X obj 517 535 *~;
#X obj 485 509 + 1;
#X obj 517 507 * -1;
#X obj 540 785 +~;
#X obj 660 465 hsl 41 8 0 -1 0 1 empty empty pan -21 4 0 8 -262144
-1 -1 3320 1;
#X obj 595 522 *~;
#X obj 652 521 *~;
#X obj 611 500 + 1;
#X obj 652 495 * -1;
#X obj 800 447 hsl 41 8 0 -1 0 1 empty empty pan -21 4 0 8 -262144
-1 -1 3040 1;
#X obj 744 516 *~;
#X obj 801 515 *~;
#X obj 760 494 + 1;
#X obj 801 486 * -1;
#X obj 945 458 hsl 41 8 0 -1 0 1 empty empty pan -21 4 0 8 -262144
-1 -1 3840 1;
#X obj 884 515 *~;
#X obj 941 514 *~;
#X obj 900 493 + 1;
#X obj 935 487 * -1;
#X obj 44 80 random 100;
#X obj 44 107 * -0.01;
#X obj 219 18 inlet;
#X obj 17 139 random 100;
#X obj 17 166 * -0.01;
#X obj 8 215 random 100;
#X obj 8 242 * -0.01;
#X obj 11 282 random 100;
#X obj 11 309 * -0.01;
#X obj -21 655 delwrite~ \$0bmtdl1 2000;
#X obj -24 701 delwrite~ \$0bmtdl2 2000;
#X obj -24 737 delwrite~ \$0bmtdl3 2000;
#X obj -26 774 delwrite~ \$0bmtdl4 2000;
#X obj 370 656 delread~ \$0bmtdl1;
#X obj 363 699 delread~ \$0bmtdl2;
#X obj 364 736 delread~ \$0bmtdl3;
#X obj 365 773 delread~ \$0bmtdl4;
#X obj 303 237 + 100;
#X obj 278 172 random 200;
#X obj 390 288 +;
#X obj 371 208 random 200;
#X obj 466 327 +;
#X obj 465 244 random 200;
#X obj 532 358 +;
#X obj 543 276 random 200;
#X obj 259 131 t b b b b;
#X obj 439 462 *~ 0.45;
#X obj 579 457 *~ 0.45;
#X obj 730 463 *~ 0.45;
#X obj 854 465 *~ 0.45;
#X floatatom 336 300 5 0 0 0 - - -;
#X floatatom 399 321 5 0 0 0 - - -;
#X floatatom 468 356 5 0 0 0 - - -;
#X floatatom 545 395 5 0 0 0 - - -;
#X obj 32 473 *~ 0.1;
#X connect 2 0 62 0;
#X connect 3 0 37 0;
#X connect 4 0 3 1;
#X connect 5 0 4 1;
#X connect 7 0 10 0;
#X connect 7 0 11 0;
#X connect 8 0 12 0;
#X connect 8 0 0 0;
#X connect 9 0 12 1;
#X connect 9 0 1 0;
#X connect 10 0 8 1;
#X connect 11 0 9 0;
#X connect 12 0 4 0;
#X connect 13 0 17 0;
#X connect 13 0 16 0;
#X connect 14 0 12 0;
#X connect 14 0 0 0;
#X connect 15 0 12 1;
#X connect 15 0 1 0;
#X connect 16 0 14 1;
#X connect 17 0 15 0;
#X connect 18 0 22 0;
#X connect 18 0 21 0;
#X connect 19 0 12 0;
#X connect 19 0 0 0;
#X connect 20 0 12 1;
#X connect 20 0 1 0;
#X connect 21 0 19 1;
#X connect 22 0 20 0;
#X connect 23 0 27 0;
#X connect 23 0 26 0;
#X connect 24 0 12 0;
#X connect 24 0 0 0;
#X connect 25 0 12 1;
#X connect 25 0 1 0;
#X connect 26 0 24 1;
#X connect 27 0 25 0;
#X connect 28 0 29 0;
#X connect 29 0 7 0;
#X connect 30 0 28 0;
#X connect 30 0 31 0;
#X connect 30 0 33 0;
#X connect 30 0 35 0;
#X connect 30 0 53 0;
#X connect 31 0 32 0;
#X connect 32 0 13 0;
#X connect 33 0 34 0;
#X connect 34 0 18 0;
#X connect 35 0 36 0;
#X connect 36 0 23 0;
#X connect 41 0 38 0;
#X connect 41 0 54 0;
#X connect 42 0 39 0;
#X connect 42 0 55 0;
#X connect 43 0 40 0;
#X connect 43 0 56 0;
#X connect 44 0 57 0;
#X connect 45 0 41 0;
#X connect 45 0 47 1;
#X connect 45 0 58 0;
#X connect 46 0 45 0;
#X connect 47 0 49 1;
#X connect 47 0 42 0;
#X connect 47 0 59 0;
#X connect 48 0 47 0;
#X connect 49 0 51 1;
#X connect 49 0 43 0;
#X connect 49 0 60 0;
#X connect 50 0 49 0;
#X connect 51 0 44 0;
#X connect 51 0 61 0;
#X connect 52 0 51 0;
#X connect 53 0 52 0;
#X connect 53 1 50 0;
#X connect 53 2 48 0;
#X connect 53 3 46 0;
#X connect 54 0 8 0;
#X connect 54 0 9 1;
#X connect 55 0 14 0;
#X connect 55 0 15 1;
#X connect 56 0 19 0;
#X connect 56 0 20 1;
#X connect 57 0 24 0;
#X connect 57 0 25 1;
#X connect 62 0 3 0;
#X coords 0 0 1 1 140 250 0;
#X restore 218 308 pd 4tap-delay;
#X msg 315 227 bang;
#N canvas 0 0 450 300 distri 0;
#X obj 147 43 inlet~;
#X obj 75 202 outlet~;
#X obj 220 194 outlet~;
#X obj 194 142 *~ 0.3;
#X obj 136 82 clip~ -1 1;
#X connect 0 0 4 0;
#X connect 3 0 2 0;
#X connect 4 0 1 0;
#X connect 4 0 3 0;
#X restore 519 245 pd distri;
#N canvas 0 0 450 300 distri 0;
#X obj 132 45 inlet~;
#X obj 75 202 outlet~;
#X obj 220 194 outlet~;
#X obj 193 143 *~ 0.3;
#X obj 136 82 clip~ -1 1;
#X connect 0 0 4 0;
#X connect 3 0 2 0;
#X connect 4 0 3 0;
#X connect 4 0 1 0;
#X restore 77 241 pd distri;
#N canvas 0 28 1172 829 4tap-delayb 0;
#X obj 635 806 outlet~;
#X obj 821 811 outlet~;
#X obj 50 420 inlet~;
#X obj 114 630 +~;
#X obj 290 873 *~;
#X obj 198 802 hsl 96 8 0 0.95 0 1 empty empty fb -16 5 0 8 -262144
-1 -1 2200 1;
#X text 132 654 <- unique name for delaylines! ->;
#X obj 527 473 hsl 41 8 0 -1 0 1 empty empty pan -21 4 0 8 -262144
-1 -1 1680 1;
#X obj 460 536 *~;
#X obj 517 535 *~;
#X obj 485 509 + 1;
#X obj 517 507 * -1;
#X obj 540 785 +~;
#X obj 660 465 hsl 41 8 0 -1 0 1 empty empty pan -21 4 0 8 -262144
-1 -1 1360 1;
#X obj 595 522 *~;
#X obj 652 521 *~;
#X obj 611 500 + 1;
#X obj 652 495 * -1;
#X obj 800 447 hsl 41 8 0 -1 0 1 empty empty pan -21 4 0 8 -262144
-1 -1 3720 1;
#X obj 744 516 *~;
#X obj 801 515 *~;
#X obj 760 494 + 1;
#X obj 801 486 * -1;
#X obj 945 458 hsl 41 8 0 -1 0 1 empty empty pan -21 4 0 8 -262144
-1 -1 680 1;
#X obj 884 515 *~;
#X obj 941 514 *~;
#X obj 900 493 + 1;
#X obj 935 487 * -1;
#X obj 44 80 random 100;
#X obj 44 107 * -0.01;
#X obj 219 18 inlet;
#X obj 17 139 random 100;
#X obj 17 166 * -0.01;
#X obj 8 215 random 100;
#X obj 8 242 * -0.01;
#X obj 11 282 random 100;
#X obj 11 309 * -0.01;
#X obj 303 237 + 100;
#X obj 278 172 random 200;
#X obj 390 288 +;
#X obj 371 208 random 200;
#X obj 466 327 +;
#X obj 465 244 random 200;
#X obj 532 358 +;
#X obj 543 276 random 200;
#X obj 259 131 t b b b b;
#X obj 439 462 *~ 0.45;
#X obj 579 457 *~ 0.45;
#X obj 730 463 *~ 0.45;
#X obj 854 465 *~ 0.45;
#X floatatom 336 300 5 0 0 0 - - -;
#X floatatom 399 321 5 0 0 0 - - -;
#X floatatom 468 356 5 0 0 0 - - -;
#X floatatom 545 395 5 0 0 0 - - -;
#X obj 32 473 *~ 0.1;
#X obj -20 655 delwrite~ \$0bmtdl1b 2000;
#X obj -22 700 delwrite~ \$0bmtdl2b 2000;
#X obj -22 736 delwrite~ \$0bmtdl3b 2000;
#X obj -26 776 delwrite~ \$0bmtdl4b 2000;
#X obj 370 657 delread~ \$0bmtdl1b;
#X obj 361 698 delread~ \$0bmtdl2b;
#X obj 363 735 delread~ \$0bmtdl3b;
#X obj 364 773 delread~ \$0bmtdl4b;
#X connect 2 0 54 0;
#X connect 3 0 55 0;
#X connect 4 0 3 1;
#X connect 5 0 4 1;
#X connect 7 0 10 0;
#X connect 7 0 11 0;
#X connect 8 0 12 0;
#X connect 8 0 0 0;
#X connect 9 0 12 1;
#X connect 9 0 1 0;
#X connect 10 0 8 1;
#X connect 11 0 9 0;
#X connect 12 0 4 0;
#X connect 13 0 17 0;
#X connect 13 0 16 0;
#X connect 14 0 12 0;
#X connect 14 0 0 0;
#X connect 15 0 12 1;
#X connect 15 0 1 0;
#X connect 16 0 14 1;
#X connect 17 0 15 0;
#X connect 18 0 22 0;
#X connect 18 0 21 0;
#X connect 19 0 12 0;
#X connect 19 0 0 0;
#X connect 20 0 12 1;
#X connect 20 0 1 0;
#X connect 21 0 19 1;
#X connect 22 0 20 0;
#X connect 23 0 27 0;
#X connect 23 0 26 0;
#X connect 24 0 12 0;
#X connect 24 0 0 0;
#X connect 25 0 12 1;
#X connect 25 0 1 0;
#X connect 26 0 24 1;
#X connect 27 0 25 0;
#X connect 28 0 29 0;
#X connect 29 0 7 0;
#X connect 30 0 28 0;
#X connect 30 0 31 0;
#X connect 30 0 33 0;
#X connect 30 0 35 0;
#X connect 30 0 45 0;
#X connect 31 0 32 0;
#X connect 32 0 13 0;
#X connect 33 0 34 0;
#X connect 34 0 18 0;
#X connect 35 0 36 0;
#X connect 36 0 23 0;
#X connect 37 0 39 1;
#X connect 37 0 50 0;
#X connect 37 0 59 0;
#X connect 38 0 37 0;
#X connect 39 0 41 1;
#X connect 39 0 51 0;
#X connect 39 0 60 0;
#X connect 40 0 39 0;
#X connect 41 0 43 1;
#X connect 41 0 52 0;
#X connect 41 0 61 0;
#X connect 42 0 41 0;
#X connect 43 0 53 0;
#X connect 43 0 62 0;
#X connect 44 0 43 0;
#X connect 45 0 44 0;
#X connect 45 1 42 0;
#X connect 45 2 40 0;
#X connect 45 3 38 0;
#X connect 46 0 8 0;
#X connect 46 0 9 1;
#X connect 47 0 14 0;
#X connect 47 0 15 1;
#X connect 48 0 19 0;
#X connect 48 0 20 1;
#X connect 49 0 24 0;
#X connect 49 0 25 1;
#X connect 54 0 3 0;
#X connect 59 0 46 0;
#X connect 59 0 56 0;
#X connect 60 0 47 0;
#X connect 60 0 57 0;
#X connect 61 0 48 0;
#X connect 61 0 58 0;
#X connect 62 0 49 0;
#X coords 0 0 1 1 140 250 0;
#X restore 357 334 pd 4tap-delayb;
#X obj 246 -320 * 64;
#X obj 246 -292 + 64;
#X obj 97 23 sinegrain;
#X obj 552 479 send~ plinkfm1;
#X obj 719 166 soundinput;
#X obj 705 195 +~;
#X obj 50 137 sinegrain;
#X obj 181 23 sinegrain;
#X obj 262 23 sinegrain;
#X obj 347 23 sinegrain;
#X obj 428 24 sinegrain;
#X obj 514 23 sinegrain;
#X obj 593 22 sinegrain;
#X obj 677 20 sinegrain;
#X obj 103 81 sinegrain;
#X obj 187 81 sinegrain;
#X obj 268 81 sinegrain;
#X obj 353 81 sinegrain;
#X obj 437 81 sinegrain;
#X obj 518 81 sinegrain;
#X obj 598 82 sinegrain;
#X obj 683 78 sinegrain;
#X obj 134 137 sinegrain;
#X obj 215 137 sinegrain;
#X obj 300 136 sinegrain;
#X obj 382 136 sinegrain;
#X obj 461 139 sinegrain;
#X obj 545 138 sinegrain;
#X obj 630 134 sinegrain;
#X obj 235 -534 unpack 0 0 0;
#X obj 615 298 clip~ -0.5 0.5;
#X obj 549 432 delread~ \$0fmdel1;
#X obj 546 409 + 100;
#X obj 546 385 random 400;
#X obj 699 399 delwrite~ \$0fmdel1 500;
#X obj 653 -251 random 200;
#X obj 576 335 lop~ 250;
#X obj 550 454 *~ 5000;
#X obj 245 -380 * 0.5;
#X obj 326 -286 * 0.24;
#X obj 662 -217 + 50;
#X obj 429 -339 clip -1 1;
#X obj 337 -183 + 0.5;
#X obj 412 -267 * 0.25;
#X connect 1 0 3 1;
#X connect 2 0 28 1;
#X connect 2 0 32 1;
#X connect 2 0 33 1;
#X connect 2 0 34 1;
#X connect 2 0 35 1;
#X connect 2 0 36 1;
#X connect 2 0 37 1;
#X connect 2 0 38 1;
#X connect 2 0 39 1;
#X connect 2 0 40 1;
#X connect 2 0 41 1;
#X connect 2 0 42 1;
#X connect 2 0 43 1;
#X connect 2 0 44 1;
#X connect 2 0 45 1;
#X connect 2 0 46 1;
#X connect 2 0 47 1;
#X connect 2 0 48 1;
#X connect 2 0 49 1;
#X connect 2 0 50 1;
#X connect 2 0 51 1;
#X connect 2 0 52 1;
#X connect 2 0 53 1;
#X connect 2 0 54 1;
#X connect 3 0 19 0;
#X connect 4 0 6 0;
#X connect 5 0 4 1;
#X connect 5 0 3 0;
#X connect 5 0 20 0;
#X connect 6 0 5 0;
#X connect 6 1 5 1;
#X connect 7 0 4 0;
#X connect 8 1 9 0;
#X connect 9 0 5 0;
#X connect 10 0 26 0;
#X connect 11 0 18 0;
#X connect 11 0 22 0;
#X connect 11 0 61 0;
#X connect 12 0 13 0;
#X connect 13 0 65 0;
#X connect 14 0 55 0;
#X connect 15 0 7 0;
#X connect 16 0 7 0;
#X connect 17 0 7 0;
#X connect 18 0 17 1;
#X connect 18 0 16 1;
#X connect 18 0 15 1;
#X connect 19 0 28 0;
#X connect 19 1 33 0;
#X connect 19 2 34 0;
#X connect 19 3 35 0;
#X connect 19 4 36 0;
#X connect 19 5 37 0;
#X connect 19 6 38 0;
#X connect 19 7 39 0;
#X connect 19 8 40 0;
#X connect 19 9 41 0;
#X connect 19 10 42 0;
#X connect 19 11 43 0;
#X connect 19 12 44 0;
#X connect 19 13 45 0;
#X connect 19 14 46 0;
#X connect 19 15 47 0;
#X connect 19 16 32 0;
#X connect 19 17 48 0;
#X connect 19 18 49 0;
#X connect 19 19 50 0;
#X connect 19 20 51 0;
#X connect 19 21 52 0;
#X connect 19 22 53 0;
#X connect 19 23 54 0;
#X connect 20 0 8 0;
#X connect 21 0 0 0;
#X connect 21 1 0 1;
#X connect 21 1 62 0;
#X connect 22 0 21 1;
#X connect 22 0 25 1;
#X connect 22 0 59 0;
#X connect 23 0 25 0;
#X connect 23 0 62 0;
#X connect 23 1 0 1;
#X connect 24 0 21 0;
#X connect 24 0 62 0;
#X connect 24 1 0 0;
#X connect 25 0 0 0;
#X connect 25 1 0 1;
#X connect 25 1 62 0;
#X connect 26 0 27 0;
#X connect 27 0 1 0;
#X connect 28 0 24 0;
#X connect 28 1 23 0;
#X connect 30 0 31 0;
#X connect 30 1 31 1;
#X connect 31 0 56 0;
#X connect 32 0 24 0;
#X connect 32 1 23 0;
#X connect 33 0 24 0;
#X connect 33 1 23 0;
#X connect 34 0 24 0;
#X connect 34 1 23 0;
#X connect 35 0 24 0;
#X connect 35 1 23 0;
#X connect 36 0 24 0;
#X connect 36 1 23 0;
#X connect 37 0 24 0;
#X connect 37 1 23 0;
#X connect 38 0 24 0;
#X connect 38 1 23 0;
#X connect 39 0 24 0;
#X connect 39 1 23 0;
#X connect 40 0 24 0;
#X connect 40 1 23 0;
#X connect 41 0 24 0;
#X connect 41 1 23 0;
#X connect 42 0 24 0;
#X connect 42 1 23 0;
#X connect 43 0 24 0;
#X connect 43 1 23 0;
#X connect 44 0 24 0;
#X connect 44 1 23 0;
#X connect 45 0 24 0;
#X connect 45 1 23 0;
#X connect 46 0 24 0;
#X connect 46 1 23 0;
#X connect 47 0 24 0;
#X connect 47 1 23 0;
#X connect 48 0 24 0;
#X connect 48 1 23 0;
#X connect 49 0 24 0;
#X connect 49 1 23 0;
#X connect 50 0 24 0;
#X connect 50 1 23 0;
#X connect 51 0 24 0;
#X connect 51 1 23 0;
#X connect 52 0 24 0;
#X connect 52 1 23 0;
#X connect 53 0 24 0;
#X connect 53 1 23 0;
#X connect 54 0 24 0;
#X connect 54 1 23 0;
#X connect 55 0 12 0;
#X connect 55 0 17 0;
#X connect 55 1 16 0;
#X connect 55 1 64 0;
#X connect 55 2 15 0;
#X connect 55 2 67 0;
#X connect 56 0 62 0;
#X connect 57 0 63 0;
#X connect 58 0 57 0;
#X connect 59 0 58 0;
#X connect 61 0 66 0;
#X connect 62 0 60 0;
#X connect 63 0 29 0;
#X connect 64 0 10 0;
#X connect 65 0 3 2;
#X connect 66 0 2 0;
#X connect 67 0 69 0;
#X connect 68 0 3 3;
#X connect 69 0 68 0;
