#N canvas 318 488 310 208 10;
#X obj 39 82 f;
#X obj 72 82 + 1;
#X msg 39 61 0;
#X msg 40 124 bang;
#X obj 39 104 moses \$1;
#X obj 23 147 delay \$2;
#X obj 23 170 outlet;
#X obj 14 8 inlet;
#X msg 13 29 bang;
#X obj 116 13 inlet;
#X obj 164 14 inlet;
#X text 54 8 trig;
#X text 119 30 num;
#X text 163 31 delay;
#X text 137 114 generates a series of bangs when banged.;
#X obj 90 170 outlet;
#X text 137 169 done;
#X connect 0 0 1 0;
#X connect 0 0 4 0;
#X connect 1 0 0 1;
#X connect 2 0 0 0;
#X connect 3 0 5 0;
#X connect 4 0 3 0;
#X connect 4 1 15 0;
#X connect 5 0 0 0;
#X connect 5 0 6 0;
#X connect 7 0 8 0;
#X connect 8 0 2 0;
#X connect 9 0 4 1;
#X connect 10 0 5 1;
