#N canvas 159 168 363 372 10;
#X msg 46 187 set \$1;
#X obj 70 33 inlet;
#X obj 46 163 clip 0 \$2;
#X obj 139 95 clip 0 \$2;
#X obj 46 231 outlet;
#X obj 145 34 inlet;
#X text 46 283 an external control.;
#X text 44 333 jason plumb :: noisybox.net;
#X text 7 16 input from pd ctrl;
#X text 152 18 max value limit;
#X text 45 311 creation arg 2 = max controller value;
#X obj 152 184 change;
#X msg 152 204 range 0 \$1;
#X text 46 271 pd UI control synchronized with;
#X obj 46 120 t f b;
#X obj 145 55 t f f b f;
#X obj 152 162 f \$2;
#X text 47 259 midi helper to keep a;
#X text 45 300 creation arg 1 = midi controller number;
#X obj 45 97 ctlin \$1;
#X obj 139 120 ctlout \$1;
#X connect 0 0 4 0;
#X connect 1 0 3 0;
#X connect 2 0 0 0;
#X connect 3 0 20 0;
#X connect 5 0 15 0;
#X connect 11 0 12 0;
#X connect 12 0 4 0;
#X connect 14 0 2 0;
#X connect 14 1 16 0;
#X connect 15 0 2 2;
#X connect 15 1 3 2;
#X connect 15 2 16 0;
#X connect 15 3 16 1;
#X connect 16 0 11 0;
#X connect 19 0 14 0;
