#N canvas 578 26 364 387 10;
#X obj 122 85 timer;
#X floatatom 135 135 5 0 0 0 - - -;
#X msg 122 60 bang;
#X msg 181 36 bang;
#X obj 186 60 metro 1000;
#X msg 219 35 stop;
#X obj 122 155 t f f f;
#N canvas 66 170 329 264 hours 0;
#X obj 27 22 inlet;
#X obj 18 231 outlet;
#X obj 29 56 / 60;
#X obj 26 85 / 60;
#X obj 23 117 int;
#X obj 192 228 outlet;
#X obj 173 61 moses 10;
#X msg 225 90 set %d;
#X msg 167 89 set 0%d;
#X obj 154 120 makefilename;
#X obj 154 38 t f f;
#X connect 0 0 2 0;
#X connect 2 0 3 0;
#X connect 3 0 4 0;
#X connect 4 0 1 0;
#X connect 4 0 10 0;
#X connect 6 0 8 0;
#X connect 6 1 7 0;
#X connect 7 0 9 0;
#X connect 8 0 9 0;
#X connect 9 0 5 0;
#X connect 10 0 9 0;
#X connect 10 1 6 0;
#X restore 188 192 pd hours;
#X obj 122 110 / 1000;
#N canvas 0 0 450 300 mins 0;
#X obj 19 33 inlet;
#X text 28 16 secs;
#X text 99 18 hrs;
#X obj 93 37 inlet;
#X obj 95 66 * 60;
#X obj 96 93 * 60;
#X obj 79 116 -;
#X obj 78 202 outlet;
#X obj 77 180 int;
#X obj 77 158 / 60;
#X obj 216 124 moses 10;
#X obj 197 183 makefilename;
#X obj 197 101 t f f;
#X msg 294 151 set %d;
#X msg 210 152 set 0%d;
#X obj 196 211 outlet;
#X connect 0 0 6 0;
#X connect 3 0 4 0;
#X connect 4 0 5 0;
#X connect 5 0 6 1;
#X connect 6 0 9 0;
#X connect 8 0 7 0;
#X connect 8 0 12 0;
#X connect 9 0 8 0;
#X connect 10 0 14 0;
#X connect 10 1 13 0;
#X connect 11 0 15 0;
#X connect 12 0 11 0;
#X connect 12 1 10 0;
#X connect 13 0 11 0;
#X connect 14 0 11 0;
#X restore 144 215 pd mins;
#N canvas 0 0 450 300 secs 0;
#X obj 45 25 inlet;
#X obj 149 31 inlet;
#X obj 241 29 inlet;
#X obj 241 54 * 60;
#X obj 242 81 * 60;
#X obj 240 112 -;
#X obj 160 139 -;
#X obj 159 108 * 60;
#X obj 163 193 int;
#X obj 163 241 outlet;
#X obj 311 149 moses 10;
#X obj 292 208 makefilename;
#X obj 292 126 t f f;
#X msg 389 176 set %d;
#X msg 305 177 set 0%d;
#X obj 291 236 outlet;
#X connect 0 0 5 0;
#X connect 1 0 7 0;
#X connect 2 0 3 0;
#X connect 3 0 4 0;
#X connect 4 0 5 1;
#X connect 5 0 6 0;
#X connect 6 0 8 0;
#X connect 7 0 6 1;
#X connect 8 0 9 0;
#X connect 8 0 12 0;
#X connect 10 0 14 0;
#X connect 10 1 13 0;
#X connect 11 0 15 0;
#X connect 12 0 11 0;
#X connect 12 1 10 0;
#X connect 13 0 11 0;
#X connect 14 0 11 0;
#X restore 122 239 pd secs;
#X obj 239 259 makefilename;
#X msg 239 236 set \$1:%s;
#X obj 184 309 makefilename;
#X msg 184 286 set \$1:%s;
#X obj 10 7 cnv 15 70 40 empty empty empty 20 12 0 14 -245490 -66577
0;
#X symbolatom 13 29 9 0 0 0 - - -;
#X obj 13 11 bng 15 250 50 0 empty empty empty 17 7 0 10 -24198 -1
-1;
#X obj 30 11 bng 15 250 50 0 empty empty empty 17 7 0 10 -262131 -1
-1;
#X obj 47 11 bng 15 250 50 0 empty empty empty 17 7 0 9 -258699 -1
-1;
#X obj 184 340 outlet;
#X msg 198 136 0;
#X obj 198 108 loadbang;
#X obj 89 2 inlet;
#X obj 130 2 inlet;
#X obj 170 3 inlet;
#X connect 0 0 8 0;
#X connect 2 0 0 0;
#X connect 3 0 4 0;
#X connect 4 0 0 1;
#X connect 5 0 4 0;
#X connect 6 0 10 0;
#X connect 6 1 9 0;
#X connect 6 2 7 0;
#X connect 7 0 9 1;
#X connect 7 0 10 2;
#X connect 7 1 12 0;
#X connect 8 0 6 0;
#X connect 8 0 1 0;
#X connect 9 0 10 1;
#X connect 9 1 11 0;
#X connect 10 1 13 0;
#X connect 11 0 14 0;
#X connect 12 0 11 0;
#X connect 13 0 16 0;
#X connect 13 0 20 0;
#X connect 14 0 13 0;
#X connect 17 0 3 0;
#X connect 18 0 5 0;
#X connect 19 0 2 0;
#X connect 21 0 6 0;
#X connect 22 0 21 0;
#X connect 23 0 17 0;
#X connect 24 0 18 0;
#X connect 25 0 19 0;
#X coords 0 -1 1 1 72 44 1 9 6;
