#N canvas 59 68 590 294 10;
#X obj 81 187 plugin~ bandpass_iir;
#X msg 19 170 print;
#X msg 81 122 control #1 \$1;
#X obj 81 25 inlet;
#X floatatom 81 102 5 0 0 0 - - -;
#X text 80 8 freq (hz);
#X msg 200 122 control #2 \$1;
#X obj 200 27 inlet;
#X floatatom 200 103 5 0 0 0 - - -;
#X text 198 11 bandwidth (hz);
#X obj 81 80 clip 4.41 19845;
#X obj 200 79 clip 4.41 19845;
#X obj 316 28 inlet;
#X floatatom 316 104 5 0 0 0 - - -;
#X msg 316 123 control #3 \$1;
#X obj 316 80 clip 1 10;
#X text 314 12 stages (basically q?);
#X obj 25 25 inlet~;
#X text 23 10 audio;
#X obj 216 227 outlet~;
#X text 292 162 Glame LADSPA plugin. into pd by jason.plumb www.noisybox.net
nice tight bandpass \, but costs CPU at higher Q;
#X obj 485 165 \$1;
#X obj 484 211 \$3;
#X obj 485 187 \$2;
#X obj 456 124 loadbang;
#X connect 0 1 19 0;
#X connect 1 0 0 0;
#X connect 2 0 0 0;
#X connect 3 0 10 0;
#X connect 4 0 2 0;
#X connect 6 0 0 0;
#X connect 7 0 11 0;
#X connect 8 0 6 0;
#X connect 10 0 4 0;
#X connect 11 0 8 0;
#X connect 12 0 15 0;
#X connect 13 0 14 0;
#X connect 14 0 0 0;
#X connect 15 0 13 0;
#X connect 17 0 0 1;
#X connect 21 0 10 0;
#X connect 22 0 15 0;
#X connect 23 0 11 0;
#X connect 24 0 21 0;
#X connect 24 0 23 0;
#X connect 24 0 22 0;
