#N canvas 0 511 471 276 10;
#X msg 18 163 print;
#X obj 207 227 outlet~;
#X msg 65 139 control #1 \$1;
#X obj 64 42 inlet;
#X floatatom 64 119 10 0 0 0 - - -;
#X obj 187 28 inlet;
#X floatatom 187 122 5 0 0 0 - - -;
#X msg 188 142 control #2 \$1;
#X text 184 53;
#X obj 66 180 plugin~ disintegrator;
#X obj 187 53 clip 0 100;
#X obj 187 80 - 50;
#X obj 187 100 / 50;
#X obj 64 70 clip 0 100;
#X obj 64 93 / 100;
#X text 56 25 probability;
#X obj 9 41 inlet~;
#X text 229 175 probability based disintegrator;
#X obj 284 29 loadbang;
#X obj 285 52 \$1;
#X obj 285 73 \$2;
#X text 183 10 multiplier;
#X connect 0 0 9 0;
#X connect 2 0 9 0;
#X connect 3 0 13 0;
#X connect 4 0 2 0;
#X connect 5 0 10 0;
#X connect 6 0 7 0;
#X connect 7 0 9 0;
#X connect 9 1 1 0;
#X connect 10 0 11 0;
#X connect 11 0 12 0;
#X connect 12 0 6 0;
#X connect 13 0 14 0;
#X connect 14 0 4 0;
#X connect 16 0 9 1;
#X connect 18 0 19 0;
#X connect 18 0 20 0;
#X connect 19 0 13 0;
#X connect 20 0 10 0;
