#N canvas 0 0 349 233 10;
#X msg 10 137 print;
#X msg 104 126 control #1 \$1;
#X obj 103 29 inlet;
#X floatatom 103 106 5 0 0 0 - - -;
#X obj 103 79 / 100;
#X obj 103 57 clip 0.5 2;
#X obj 201 181 outlet~;
#X text 103 12 pitch (0.5-2);
#X obj 30 29 inlet~;
#X text 28 13 audio;
#X obj 65 154 plugin~ pitchScaleHQ;
#X obj 240 40 \$1;
#X obj 239 17 loadbang;
#X connect 0 0 10 0;
#X connect 1 0 10 0;
#X connect 2 0 5 0;
#X connect 3 0 1 0;
#X connect 4 0 3 0;
#X connect 5 0 4 0;
#X connect 8 0 10 1;
#X connect 10 1 6 0;
#X connect 11 0 5 0;
#X connect 12 0 11 0;
