#N canvas 137 363 444 316 10;
#X obj 123 13 ctlin;
#X obj 123 90 spigot;
#X msg 160 60 1;
#X msg 199 60 0;
#X obj 22 75 -;
#X obj 119 181 +;
#X obj 123 111 / 127;
#X obj 123 153 *;
#X obj 119 213 outlet;
#X obj 22 17 loadbang;
#X obj 160 39 select \$1;
#X obj 63 47 \$2;
#X obj 22 46 \$3;
#X connect 0 0 1 0;
#X connect 0 2 10 0;
#X connect 1 0 6 0;
#X connect 2 0 1 1;
#X connect 3 0 1 1;
#X connect 4 0 7 1;
#X connect 5 0 8 0;
#X connect 6 0 7 0;
#X connect 7 0 5 0;
#X connect 9 0 11 0;
#X connect 9 0 12 0;
#X connect 10 0 2 0;
#X connect 10 1 3 0;
#X connect 11 0 4 1;
#X connect 11 0 5 1;
#X connect 11 0 8 0;
#X connect 12 0 4 0;
