#N canvas 117 35 1059 830 10;
#X obj -356 496 soundoutput;
#N canvas 0 28 1172 829 4tap-delay 0;
#X obj 635 806 outlet~;
#X obj 821 811 outlet~;
#X obj 2 419 inlet~;
#X obj 114 630 +~;
#X obj 290 873 *~;
#X obj 198 802 hsl 96 8 0 0.95 0 1 empty empty fb -16 5 0 8 -262144
-1 -1 1900 1;
#X text 132 654 <- unique name for delaylines! ->;
#X obj 527 473 hsl 41 8 0 -1 0 1 empty empty pan -21 4 0 8 -262144
-1 -1 2960 1;
#X obj 460 536 *~;
#X obj 517 535 *~;
#X obj 485 509 + 1;
#X obj 517 507 * -1;
#X obj 540 785 +~;
#X obj 660 465 hsl 41 8 0 -1 0 1 empty empty pan -21 4 0 8 -262144
-1 -1 3680 1;
#X obj 595 522 *~;
#X obj 652 521 *~;
#X obj 611 500 + 1;
#X obj 652 495 * -1;
#X obj 800 447 hsl 41 8 0 -1 0 1 empty empty pan -21 4 0 8 -262144
-1 -1 2880 1;
#X obj 744 516 *~;
#X obj 801 515 *~;
#X obj 760 494 + 1;
#X obj 801 486 * -1;
#X obj 945 458 hsl 41 8 0 -1 0 1 empty empty pan -21 4 0 8 -262144
-1 -1 3640 1;
#X obj 884 515 *~;
#X obj 941 514 *~;
#X obj 900 493 + 1;
#X obj 935 487 * -1;
#X obj 44 80 random 100;
#X obj 44 107 * -0.01;
#X obj 245 67 inlet;
#X obj 17 139 random 100;
#X obj 17 166 * -0.01;
#X obj 8 215 random 100;
#X obj 8 242 * -0.01;
#X obj 11 282 random 100;
#X obj 11 309 * -0.01;
#X obj -21 655 delwrite~ \$0bmtdl1 2000;
#X obj -24 701 delwrite~ \$0bmtdl2 2000;
#X obj -24 737 delwrite~ \$0bmtdl3 2000;
#X obj -26 774 delwrite~ \$0bmtdl4 2000;
#X obj 370 656 delread~ \$0bmtdl1;
#X obj 363 699 delread~ \$0bmtdl2;
#X obj 364 736 delread~ \$0bmtdl3;
#X obj 365 773 delread~ \$0bmtdl4;
#X obj 303 237 + 100;
#X obj 278 172 random 200;
#X obj 390 288 +;
#X obj 371 208 random 200;
#X obj 466 327 +;
#X obj 465 244 random 200;
#X obj 532 358 +;
#X obj 543 276 random 200;
#X obj 259 131 t b b b b;
#X obj 439 462 *~ 0.45;
#X obj 579 457 *~ 0.45;
#X obj 730 463 *~ 0.45;
#X obj 854 465 *~ 0.45;
#X floatatom 336 300 5 0 0 0 - - -;
#X floatatom 399 321 5 0 0 0 - - -;
#X floatatom 468 356 5 0 0 0 - - -;
#X floatatom 545 395 5 0 0 0 - - -;
#X obj 391 -56 inlet;
#X msg 38 45 seed \$1;
#X obj 39 21 + 34;
#X msg -32 82 seed \$1;
#X msg -66 156 seed \$1;
#X msg -68 244 seed \$1;
#X msg 351 130 seed \$1;
#X msg 425 167 seed \$1;
#X obj -32 58 + 35;
#X obj -65 132 + 36;
#X obj -67 220 + 37;
#X obj 353 106 + 38;
#X obj 425 143 + 39;
#X msg 498 210 seed \$1;
#X msg 579 238 seed \$1;
#X obj 498 186 + 40;
#X obj 579 214 + 41;
#X obj 32 473 *~ 0.15;
#X connect 2 0 79 0;
#X connect 3 0 37 0;
#X connect 4 0 3 1;
#X connect 5 0 4 1;
#X connect 7 0 10 0;
#X connect 7 0 11 0;
#X connect 8 0 12 0;
#X connect 8 0 0 0;
#X connect 9 0 12 1;
#X connect 9 0 1 0;
#X connect 10 0 8 1;
#X connect 11 0 9 0;
#X connect 12 0 4 0;
#X connect 13 0 17 0;
#X connect 13 0 16 0;
#X connect 14 0 12 0;
#X connect 14 0 0 0;
#X connect 15 0 12 1;
#X connect 15 0 1 0;
#X connect 16 0 14 1;
#X connect 17 0 15 0;
#X connect 18 0 22 0;
#X connect 18 0 21 0;
#X connect 19 0 12 0;
#X connect 19 0 0 0;
#X connect 20 0 12 1;
#X connect 20 0 1 0;
#X connect 21 0 19 1;
#X connect 22 0 20 0;
#X connect 23 0 27 0;
#X connect 23 0 26 0;
#X connect 24 0 12 0;
#X connect 24 0 0 0;
#X connect 25 0 12 1;
#X connect 25 0 1 0;
#X connect 26 0 24 1;
#X connect 27 0 25 0;
#X connect 28 0 29 0;
#X connect 29 0 7 0;
#X connect 30 0 28 0;
#X connect 30 0 31 0;
#X connect 30 0 33 0;
#X connect 30 0 35 0;
#X connect 30 0 53 0;
#X connect 31 0 32 0;
#X connect 32 0 13 0;
#X connect 33 0 34 0;
#X connect 34 0 18 0;
#X connect 35 0 36 0;
#X connect 36 0 23 0;
#X connect 41 0 38 0;
#X connect 41 0 54 0;
#X connect 42 0 39 0;
#X connect 42 0 55 0;
#X connect 43 0 40 0;
#X connect 43 0 56 0;
#X connect 44 0 57 0;
#X connect 45 0 41 0;
#X connect 45 0 47 1;
#X connect 45 0 58 0;
#X connect 46 0 45 0;
#X connect 47 0 49 1;
#X connect 47 0 42 0;
#X connect 47 0 59 0;
#X connect 48 0 47 0;
#X connect 49 0 51 1;
#X connect 49 0 43 0;
#X connect 49 0 60 0;
#X connect 50 0 49 0;
#X connect 51 0 44 0;
#X connect 51 0 61 0;
#X connect 52 0 51 0;
#X connect 53 0 52 0;
#X connect 53 1 50 0;
#X connect 53 2 48 0;
#X connect 53 3 46 0;
#X connect 54 0 8 0;
#X connect 54 0 9 1;
#X connect 55 0 14 0;
#X connect 55 0 15 1;
#X connect 56 0 19 0;
#X connect 56 0 20 1;
#X connect 57 0 24 0;
#X connect 57 0 25 1;
#X connect 62 0 73 0;
#X connect 62 0 74 0;
#X connect 62 0 77 0;
#X connect 62 0 78 0;
#X connect 62 0 64 0;
#X connect 62 0 70 0;
#X connect 62 0 71 0;
#X connect 62 0 72 0;
#X connect 63 0 28 0;
#X connect 64 0 63 0;
#X connect 65 0 31 0;
#X connect 66 0 33 0;
#X connect 67 0 35 0;
#X connect 68 0 46 0;
#X connect 69 0 48 0;
#X connect 70 0 65 0;
#X connect 71 0 66 0;
#X connect 72 0 67 0;
#X connect 73 0 68 0;
#X connect 74 0 69 0;
#X connect 75 0 50 0;
#X connect 76 0 52 0;
#X connect 77 0 75 0;
#X connect 78 0 76 0;
#X connect 79 0 3 0;
#X coords 0 0 1 1 140 250 0;
#X restore -407 451 pd 4tap-delay;
#N canvas 0 0 450 300 distri 0;
#X obj 132 45 inlet~;
#X obj 75 202 outlet~;
#X obj 220 194 outlet~;
#X obj 136 82 clip~ -1 1;
#X obj 192 143 *~ 0.25;
#X connect 0 0 3 0;
#X connect 3 0 1 0;
#X connect 3 0 4 0;
#X connect 4 0 2 0;
#X restore -363 399 pd distri;
#X msg 203 -282 bang;
#X msg -117 -306 bang;
#X msg -15 -243 bang;
#X msg -152 -218 bang;
#X obj -333 -557 r #accelerate;
#X obj -330 -531 unpack 0 0 0;
#X obj -348 -480 clip -1 1;
#X obj -246 -463 clip -1 1;
#X msg -366 -272 set \$1;
#X obj -299 -238 t b b b;
#X msg 127 -105 bang;
#X msg 27 -333 bang;
#X msg -363 -431 bang;
#X obj -340 -394 t b b;
#X obj -369 -300 random 999999;
#X obj 36 -553 r #touch;
#X msg -358 -217 56087;
#X obj 39 -492 unpack f f f;
#X obj 37 -521 route down;
#X obj -148 -411 moses 0.1;
#X obj -31 -357 moses 0.1;
#X obj 153 -302 moses 0.1;
#X obj 268 -125 moses 0.1;
#X text 352 -137 new seed;
#X text -93 -455 reset;
#X obj -170 -331 moses 0.1;
#X obj -69 -284 moses 0.1;
#X obj 115 -229 moses 0.1;
#X obj -145 -437 inrect 0 0 107 107;
#X obj -234 -246 moses 0.1;
#X obj 123 -20 moses 0.1;
#N canvas 311 117 713 632 counter 0;
#X obj 278 497 + 1;
#X obj 227 493 float;
#X msg 206 296 1;
#X obj 218 321 /;
#X obj 209 273 t f f;
#X obj 228 344 * 15000;
#X obj 353 306 t b f;
#X obj 218 459 metro 125;
#X msg 348 270 -2;
#X text 141 455 1/16 in ms;
#X floatatom 250 138 3 30 300 0 - - -;
#X text 248 116 bpm;
#X obj 255 548 outlet;
#X obj 498 203 outlet;
#X text 546 204 bpm->;
#X text 306 549 pos->;
#X obj 130 69 t b b b;
#X obj 234 86 + 70;
#X obj 133 32 inlet;
#X obj 232 60 random 70;
#X obj 277 -43 inlet;
#X msg 265 15 seed \$1;
#X obj 270 -17 + 49;
#X connect 0 0 1 1;
#X connect 0 0 12 0;
#X connect 1 0 0 0;
#X connect 2 0 3 0;
#X connect 3 0 5 0;
#X connect 4 0 2 0;
#X connect 4 1 3 1;
#X connect 5 0 7 1;
#X connect 6 0 7 0;
#X connect 6 1 1 0;
#X connect 7 0 1 0;
#X connect 8 0 6 0;
#X connect 10 0 4 0;
#X connect 10 0 13 0;
#X connect 16 0 8 0;
#X connect 16 1 10 0;
#X connect 16 2 19 0;
#X connect 17 0 10 0;
#X connect 18 0 16 0;
#X connect 19 0 17 0;
#X connect 20 0 22 0;
#X connect 21 0 19 0;
#X connect 22 0 21 0;
#X coords 0 0 1 1 120 40 0;
#X restore -619 -603 pd counter;
#X obj -478 -35 line~;
#X obj -428 237 *~;
#X msg -494 -64 \$1;
#X obj -497 -100 t b f;
#X obj -477 -10 *~;
#X obj -414 200 clip~ -1 1;
#X obj -409 172 *~ -12;
#X obj -687 -377 + 11;
#X obj -689 -403 random 6;
#X obj -656 -22 line~;
#X msg -672 -51 \$1;
#X obj -642 -81 t b f;
#X obj -667 5 *~;
#X obj -612 220 *~;
#X obj -592 190 clip~ -1 1;
#X obj -569 164 *~ -12;
#N canvas 0 137 1204 618 seq2 0;
#X obj 5 -45 inlet;
#X obj 289 412 outlet;
#X obj -75 199 select 0 1 2 3 4 5 6 7 8 9 10 11 12 13 14 15;
#X floatatom 278 171 3 0 128 0 - - -;
#X obj 35 47 mod 16;
#X floatatom 303 171 3 0 128 0 - - -;
#X floatatom 328 171 3 0 128 0 - - -;
#X floatatom 353 171 3 0 128 0 - - -;
#X floatatom 381 171 3 0 128 0 - - -;
#X floatatom 406 171 3 0 128 0 - - -;
#X floatatom 431 171 3 0 128 0 - - -;
#X floatatom 456 171 3 0 128 0 - - -;
#X floatatom 484 171 3 0 128 0 - - -;
#X floatatom 509 171 3 0 128 0 - - -;
#X floatatom 534 171 3 0 128 0 - - -;
#X floatatom 559 171 3 0 128 0 - - -;
#X floatatom 587 171 3 0 128 0 - - -;
#X floatatom 612 171 3 0 128 0 - - -;
#X floatatom 637 171 3 0 128 0 - - -;
#X floatatom 701 125 3 0 128 0 - - -;
#X obj 290 372 / 128;
#X obj -96 271 int;
#X obj -67 270 int;
#X obj -6 269 int;
#X obj -36 268 int;
#X obj 26 271 int;
#X obj 55 270 int;
#X obj 116 269 int;
#X obj 86 268 int;
#X obj 151 268 int;
#X obj 180 267 int;
#X obj 241 266 int;
#X obj 211 265 int;
#X obj 273 268 int;
#X obj 302 267 int;
#X obj 363 266 int;
#X obj 333 265 int;
#X obj 221 -63 inlet;
#X obj 322 61 random 16;
#X obj 337 -48 t b b;
#X obj 335 92 pack f f;
#X obj 335 126 route 0 1 2 3 4 5 6 7 8 9 10 11 12 13 14 15;
#X obj 380 -73 inlet;
#X text 424 -72 random-step set;
#X obj 576 -75 inlet;
#X msg 638 -49 0;
#X text 611 -74 clear;
#X obj 410 47 random 100;
#X obj 409 70 + 28;
#X text 265 -65 len;
#X obj 1059 -121 inlet;
#X msg 282 18 seed \$1;
#X obj 275 -4 + 45;
#X msg 356 18 seed \$1;
#X obj 349 -4 + 46;
#X obj 733 10 random 16;
#X obj 748 -99 t b b;
#X obj 748 81 pack f f;
#X obj 791 -124 inlet;
#X msg 693 -33 seed \$1;
#X obj 686 -55 + 45;
#X msg 767 -33 seed \$1;
#X obj 760 -55 + 46;
#X text 834 -123 random-step/pause set;
#X obj 827 -9 random 128;
#X obj 826 15 - 64;
#X obj 828 36 clip 0 64;
#X obj 828 60 * 2;
#X connect 0 0 4 0;
#X connect 2 0 21 0;
#X connect 2 1 22 0;
#X connect 2 2 24 0;
#X connect 2 3 23 0;
#X connect 2 4 25 0;
#X connect 2 5 26 0;
#X connect 2 6 28 0;
#X connect 2 7 27 0;
#X connect 2 8 29 0;
#X connect 2 9 30 0;
#X connect 2 10 32 0;
#X connect 2 11 31 0;
#X connect 2 12 33 0;
#X connect 2 13 34 0;
#X connect 2 14 36 0;
#X connect 2 15 35 0;
#X connect 3 0 21 1;
#X connect 4 0 2 0;
#X connect 5 0 22 1;
#X connect 6 0 24 1;
#X connect 7 0 23 1;
#X connect 8 0 25 1;
#X connect 9 0 26 1;
#X connect 10 0 28 1;
#X connect 11 0 27 1;
#X connect 12 0 29 1;
#X connect 13 0 30 1;
#X connect 14 0 32 1;
#X connect 15 0 31 1;
#X connect 16 0 33 1;
#X connect 17 0 34 1;
#X connect 18 0 36 1;
#X connect 19 0 35 1;
#X connect 20 0 1 0;
#X connect 21 0 20 0;
#X connect 22 0 20 0;
#X connect 23 0 20 0;
#X connect 24 0 20 0;
#X connect 25 0 20 0;
#X connect 26 0 20 0;
#X connect 27 0 20 0;
#X connect 28 0 20 0;
#X connect 29 0 20 0;
#X connect 30 0 20 0;
#X connect 31 0 20 0;
#X connect 32 0 20 0;
#X connect 33 0 20 0;
#X connect 34 0 20 0;
#X connect 35 0 20 0;
#X connect 36 0 20 0;
#X connect 37 0 4 1;
#X connect 38 0 40 0;
#X connect 39 0 38 0;
#X connect 39 1 47 0;
#X connect 40 0 41 0;
#X connect 41 0 3 0;
#X connect 41 1 5 0;
#X connect 41 2 6 0;
#X connect 41 3 7 0;
#X connect 41 4 8 0;
#X connect 41 5 9 0;
#X connect 41 6 10 0;
#X connect 41 7 11 0;
#X connect 41 8 12 0;
#X connect 41 9 13 0;
#X connect 41 10 14 0;
#X connect 41 11 15 0;
#X connect 41 12 16 0;
#X connect 41 13 17 0;
#X connect 41 14 18 0;
#X connect 41 15 19 0;
#X connect 42 0 39 0;
#X connect 44 0 45 0;
#X connect 45 0 3 0;
#X connect 45 0 5 0;
#X connect 45 0 6 0;
#X connect 45 0 7 0;
#X connect 45 0 8 0;
#X connect 45 0 9 0;
#X connect 45 0 10 0;
#X connect 45 0 11 0;
#X connect 45 0 12 0;
#X connect 45 0 13 0;
#X connect 45 0 14 0;
#X connect 45 0 15 0;
#X connect 45 0 16 0;
#X connect 45 0 17 0;
#X connect 45 0 18 0;
#X connect 45 0 19 0;
#X connect 47 0 48 0;
#X connect 48 0 40 1;
#X connect 50 0 52 0;
#X connect 50 0 54 0;
#X connect 50 0 60 0;
#X connect 50 0 62 0;
#X connect 51 0 38 0;
#X connect 52 0 51 0;
#X connect 53 0 47 0;
#X connect 54 0 53 0;
#X connect 55 0 57 0;
#X connect 56 0 55 0;
#X connect 56 1 64 0;
#X connect 57 0 41 0;
#X connect 58 0 56 0;
#X connect 59 0 55 0;
#X connect 60 0 59 0;
#X connect 61 0 64 0;
#X connect 62 0 61 0;
#X connect 64 0 65 0;
#X connect 65 0 66 0;
#X connect 66 0 67 0;
#X connect 67 0 57 1;
#X coords 0 0 1 1 410 40 0;
#X restore -517 -147 pd seq2;
#N canvas 0 137 1193 615 seq1 0;
#X obj 5 -45 inlet;
#X obj 289 412 outlet;
#X obj -75 199 select 0 1 2 3 4 5 6 7 8 9 10 11 12 13 14 15;
#X floatatom 278 167 3 0 128 0 - - -;
#X obj 35 47 mod 16;
#X floatatom 303 167 3 0 128 0 - - -;
#X floatatom 328 167 3 0 128 0 - - -;
#X floatatom 353 167 3 0 128 0 - - -;
#X floatatom 381 167 3 0 128 0 - - -;
#X floatatom 406 167 3 0 128 0 - - -;
#X floatatom 431 167 3 0 128 0 - - -;
#X floatatom 456 167 3 0 128 0 - - -;
#X floatatom 484 167 3 0 128 0 - - -;
#X floatatom 509 167 3 0 128 0 - - -;
#X floatatom 534 167 3 0 128 0 - - -;
#X floatatom 559 167 3 0 128 0 - - -;
#X floatatom 587 167 3 0 128 0 - - -;
#X floatatom 612 167 3 0 128 0 - - -;
#X floatatom 637 167 3 0 128 0 - - -;
#X floatatom 662 167 3 0 128 0 - - -;
#X obj 290 372 / 128;
#X obj -96 271 int;
#X obj -67 270 int;
#X obj -6 269 int;
#X obj -36 268 int;
#X obj 26 271 int;
#X obj 55 270 int;
#X obj 116 269 int;
#X obj 86 268 int;
#X obj 151 268 int;
#X obj 180 267 int;
#X obj 241 266 int;
#X obj 211 265 int;
#X obj 273 268 int;
#X obj 302 267 int;
#X obj 363 266 int;
#X obj 333 265 int;
#X obj 221 -63 inlet;
#X obj 259 70 random 16;
#X obj 351 -43 t b b;
#X obj 335 88 pack f f;
#X obj 337 111 route 0 1 2 3 4 5 6 7 8 9 10 11 12 13 14 15;
#X obj 380 -73 inlet;
#X text 424 -72 random-step set;
#X obj 576 -75 inlet;
#X msg 638 -49 0;
#X text 619 -83 clear;
#X obj 414 52 random 100;
#X obj 422 75 + 28;
#X text 265 -65 len;
#X msg 251 38 seed \$1;
#X obj 256 7 + 47;
#X msg 424 20 seed \$1;
#X obj 429 -11 + 48;
#X obj 861 -109 inlet;
#X obj 715 9 random 16;
#X obj 730 -100 t b b;
#X obj 730 80 pack f f;
#X obj 772 -128 inlet;
#X msg 677 -29 seed \$1;
#X msg 749 -34 seed \$1;
#X text 817 -131 random-step/pause set;
#X obj 809 -10 random 128;
#X obj 808 14 - 64;
#X obj 810 35 clip 0 64;
#X obj 810 59 * 2;
#X obj 670 -51 + 47;
#X obj 740 -55 + 48;
#X connect 0 0 4 0;
#X connect 2 0 21 0;
#X connect 2 1 22 0;
#X connect 2 2 24 0;
#X connect 2 3 23 0;
#X connect 2 4 25 0;
#X connect 2 5 26 0;
#X connect 2 6 28 0;
#X connect 2 7 27 0;
#X connect 2 8 29 0;
#X connect 2 9 30 0;
#X connect 2 10 32 0;
#X connect 2 11 31 0;
#X connect 2 12 33 0;
#X connect 2 13 34 0;
#X connect 2 14 36 0;
#X connect 2 15 35 0;
#X connect 3 0 21 1;
#X connect 4 0 2 0;
#X connect 5 0 22 1;
#X connect 6 0 24 1;
#X connect 7 0 23 1;
#X connect 8 0 25 1;
#X connect 9 0 26 1;
#X connect 10 0 28 1;
#X connect 11 0 27 1;
#X connect 12 0 29 1;
#X connect 13 0 30 1;
#X connect 14 0 32 1;
#X connect 15 0 31 1;
#X connect 16 0 33 1;
#X connect 17 0 34 1;
#X connect 18 0 36 1;
#X connect 19 0 35 1;
#X connect 20 0 1 0;
#X connect 21 0 20 0;
#X connect 22 0 20 0;
#X connect 23 0 20 0;
#X connect 24 0 20 0;
#X connect 25 0 20 0;
#X connect 26 0 20 0;
#X connect 27 0 20 0;
#X connect 28 0 20 0;
#X connect 29 0 20 0;
#X connect 30 0 20 0;
#X connect 31 0 20 0;
#X connect 32 0 20 0;
#X connect 33 0 20 0;
#X connect 34 0 20 0;
#X connect 35 0 20 0;
#X connect 36 0 20 0;
#X connect 37 0 4 1;
#X connect 38 0 40 0;
#X connect 39 0 38 0;
#X connect 39 1 47 0;
#X connect 40 0 41 0;
#X connect 41 0 3 0;
#X connect 41 1 5 0;
#X connect 41 2 6 0;
#X connect 41 3 7 0;
#X connect 41 4 8 0;
#X connect 41 5 9 0;
#X connect 41 6 10 0;
#X connect 41 7 11 0;
#X connect 41 8 12 0;
#X connect 41 9 13 0;
#X connect 41 10 14 0;
#X connect 41 11 15 0;
#X connect 41 12 16 0;
#X connect 41 13 17 0;
#X connect 41 14 18 0;
#X connect 41 15 19 0;
#X connect 42 0 39 0;
#X connect 44 0 45 0;
#X connect 45 0 3 0;
#X connect 45 0 5 0;
#X connect 45 0 6 0;
#X connect 45 0 7 0;
#X connect 45 0 8 0;
#X connect 45 0 9 0;
#X connect 45 0 10 0;
#X connect 45 0 11 0;
#X connect 45 0 12 0;
#X connect 45 0 13 0;
#X connect 45 0 14 0;
#X connect 45 0 15 0;
#X connect 45 0 16 0;
#X connect 45 0 17 0;
#X connect 45 0 18 0;
#X connect 45 0 19 0;
#X connect 47 0 48 0;
#X connect 48 0 40 1;
#X connect 50 0 38 0;
#X connect 51 0 50 0;
#X connect 52 0 47 0;
#X connect 53 0 52 0;
#X connect 54 0 53 0;
#X connect 54 0 51 0;
#X connect 54 0 67 0;
#X connect 54 0 66 0;
#X connect 55 0 57 0;
#X connect 56 0 55 0;
#X connect 56 1 62 0;
#X connect 57 0 41 0;
#X connect 58 0 56 0;
#X connect 59 0 55 0;
#X connect 60 0 62 0;
#X connect 62 0 63 0;
#X connect 63 0 64 0;
#X connect 64 0 65 0;
#X connect 65 0 57 1;
#X connect 66 0 59 0;
#X connect 67 0 60 0;
#X coords 0 0 1 1 410 40 0;
#X restore -699 -135 pd seq1;
#X msg -97 -477 bang;
#X obj -596 -396 t b b;
#X obj -671 -236 until;
#X obj -534 -223 until;
#X obj -536 -246 + 5;
#N canvas 42 124 815 685 mym2schorus 0;
#X obj 23 59 inlet~;
#X obj 466 487 outlet~;
#X obj 295 500 outlet~;
#X obj 197 264 cos~;
#X obj 197 291 +~ 1;
#X obj 290 225 +~ 0.25;
#X obj 304 254 cos~;
#X obj 309 284 +~ 1;
#X obj 369 69 phasor~;
#X obj 354 -14 loadbang;
#X obj 145 407 vd~ \$0mychr1;
#X obj 298 371 vd~ \$0mychr1;
#X obj 418 232 cos~;
#X obj 423 262 +~ 1;
#X obj 412 349 vd~ \$0mychr1;
#X obj 24 101 delwrite~ \$0mychr1 100;
#X obj 404 203 +~ 0.5;
#X obj 522 250 cos~;
#X obj 527 280 +~ 1;
#X obj 516 367 vd~ \$0mychr1;
#X obj 508 221 +~ 0.75;
#X msg 355 20 0.7;
#X obj 424 296 *~ 0.32;
#X obj 530 315 *~ 0.29;
#X obj 194 318 *~ 0.33;
#X obj 312 318 *~ 0.28;
#X obj 240 451 *~ 0.5;
#X obj 417 430 *~ 0.5;
#X connect 0 0 15 0;
#X connect 3 0 4 0;
#X connect 4 0 24 0;
#X connect 5 0 6 0;
#X connect 6 0 7 0;
#X connect 7 0 25 0;
#X connect 8 0 3 0;
#X connect 8 0 5 0;
#X connect 8 0 16 0;
#X connect 8 0 20 0;
#X connect 9 0 21 0;
#X connect 10 0 26 0;
#X connect 11 0 27 0;
#X connect 12 0 13 0;
#X connect 13 0 22 0;
#X connect 14 0 26 0;
#X connect 16 0 12 0;
#X connect 17 0 18 0;
#X connect 18 0 23 0;
#X connect 19 0 27 0;
#X connect 20 0 17 0;
#X connect 21 0 8 0;
#X connect 22 0 14 0;
#X connect 23 0 19 0;
#X connect 24 0 10 0;
#X connect 25 0 11 0;
#X connect 26 0 2 0;
#X connect 27 0 1 0;
#X restore -295 450 pd mym2schorus;
#X obj -410 -88 +;
#X obj -406 -31 * 24;
#X obj -420 -7 int;
#X obj -503 -392 == 0;
#X obj -520 -423 mod 16;
#X obj -490 -365 moses 0.1;
#X obj -420 -332 t b;
#X obj -585 -76 float;
#X obj -462 -458 abs;
#X obj -404 137 hip~ 2000;
#X obj -555 135 lop~ 100;
#X obj -243 -436 * -1;
#X obj 275 -168 inrect 215 215 320 320;
#X obj -32 -381 inrect 108 0 214 107;
#X obj 153 -331 inrect 215 0 320 107;
#X obj -188 -361 inrect 0 108 107 214;
#X obj -70 -308 inrect 108 108 214 214;
#X obj 119 -255 inrect 215 108 320 214;
#X obj -234 -277 inrect 0 215 107 320;
#X obj 122 -44 inrect 108 215 214 320;
#X msg -628 -691 bang;
#X obj -246 115 hip~ 10;
#X obj -246 -500 + 0.3;
#N canvas 14 83 1009 636 dualdelay1m 0;
#X obj -84 383 inlet~;
#X obj 331 212 inlet;
#X obj 382 316 pow -1;
#X obj 382 339 / 4;
#X obj 395 362 *;
#X obj 396 387 * 60000;
#X obj 232 440 +~;
#X obj 257 367 *~;
#X text 369 215 <- bpm in;
#X obj 530 998 outlet~;
#X obj 364 667 *;
#X obj 366 697 * 60000;
#X obj 173 641 +~;
#X obj 209 616 *~;
#X obj 41 90 vsl 8 100 20 120 0 1 empty empty cut 0 110 1 8 -233017
-1 -1 4300 1;
#X obj 68 324 mtof;
#X obj 597 863 +~;
#X obj 510 516 *~;
#X obj 525 546 +~;
#X obj 559 520 *~;
#X obj 378 779 *~;
#X obj 393 809 +~;
#X obj 415 786 *~;
#X obj 40 296 +;
#X obj 159 268 +;
#X obj 531 964 +~;
#X obj 553 934 *~;
#X obj 483 932 *~;
#X obj 513 37 inlet;
#X text 559 38 <- sync-in;
#X text 403 151 1 beatsynced delay for high - and one for low frequencies
;
#X obj 243 479 delwrite~ \$0ddl-hl 2000;
#X obj 148 699 delwrite~ \$0ddl-ll 2000;
#X text 560 424 <-unique delaybuffer name!;
#X text 13 443 unique delaybuffer name! ->;
#X text -82 696 unique delaybuffer name2! ->;
#X text 513 734 <-unique delaybuffer name2!;
#X obj 158 583 vcf~;
#X obj 2 383 hip~;
#X obj 106 538 lop~;
#X obj 26 415 vcf~;
#X obj 120 498 mtof;
#X obj 104 470 + 24;
#X obj 428 423 delread~ \$0ddl-hl;
#X obj 386 732 delread~ \$0ddl-ll;
#X obj 658 195 t b b;
#X obj 675 30 inlet;
#X obj 461 240 random 8;
#X obj 460 264 + 1;
#X obj 566 256 random 8;
#X obj 565 280 + 1;
#X obj 664 55 t b b;
#X obj 378 272 int;
#X floatatom 472 388 5 0 0 0 - - -;
#X floatatom 571 312 5 0 0 0 - - -;
#X msg 201 233 6;
#N canvas 187 182 588 521 rndline1 0;
#X obj 166 290 pack;
#X obj 130 135 random 1000;
#X obj 130 156 / 1000;
#X obj 135 361 ==;
#X obj 159 324 line;
#X obj 241 187 exp;
#X obj 236 159 / 100;
#X obj 93 16 inlet;
#X text 139 18 start;
#X obj 251 413 outlet;
#X obj 90 396 moses 0.1;
#X obj 98 43 t b b;
#X obj 34 454 delay 1000;
#X obj 244 210 int;
#X obj 234 134 random 950;
#X obj 196 264 + 300;
#X obj 313 334 +;
#X obj 333 238 random 950;
#X connect 0 0 4 0;
#X connect 1 0 2 0;
#X connect 2 0 0 0;
#X connect 2 0 3 1;
#X connect 3 0 10 0;
#X connect 4 0 9 0;
#X connect 4 0 3 0;
#X connect 5 0 13 0;
#X connect 6 0 5 0;
#X connect 7 0 11 0;
#X connect 10 1 12 0;
#X connect 11 0 1 0;
#X connect 11 0 14 0;
#X connect 11 1 17 0;
#X connect 12 0 11 0;
#X connect 13 0 15 0;
#X connect 13 0 16 0;
#X connect 13 0 17 1;
#X connect 14 0 6 0;
#X connect 15 0 0 1;
#X connect 16 0 12 1;
#X connect 17 0 16 1;
#X restore 80 152 pd rndline1;
#N canvas 187 182 588 521 rndline2 0;
#X obj 166 290 pack;
#X obj 130 135 random 1000;
#X obj 130 156 / 1000;
#X obj 135 361 ==;
#X obj 159 324 line;
#X obj 241 187 exp;
#X obj 236 159 / 100;
#X obj 93 16 inlet;
#X text 139 18 start;
#X obj 251 413 outlet;
#X obj 90 396 moses 0.1;
#X obj 98 43 t b b;
#X obj 34 454 delay 1000;
#X obj 244 210 int;
#X obj 234 134 random 950;
#X obj 196 264 + 300;
#X obj 313 334 +;
#X obj 333 238 random 950;
#X connect 0 0 4 0;
#X connect 1 0 2 0;
#X connect 2 0 0 0;
#X connect 2 0 3 1;
#X connect 3 0 10 0;
#X connect 4 0 9 0;
#X connect 4 0 3 0;
#X connect 5 0 13 0;
#X connect 6 0 5 0;
#X connect 7 0 11 0;
#X connect 10 1 12 0;
#X connect 11 0 1 0;
#X connect 11 0 14 0;
#X connect 11 1 17 0;
#X connect 12 0 11 0;
#X connect 13 0 15 0;
#X connect 13 0 16 0;
#X connect 13 0 17 1;
#X connect 14 0 6 0;
#X connect 15 0 0 1;
#X connect 16 0 12 1;
#X connect 17 0 16 1;
#X restore -71 235 pd rndline2;
#X obj -62 266 * 40;
#X obj 118 204 * 4;
#X msg 777 267 0.7;
#X msg 815 268 0.3;
#X msg 735 295 0.6;
#X obj 487 326 ==;
#X obj 526 205 t b b;
#X obj 465 349 +;
#X msg 737 62 bang;
#X obj 455 297 t f f;
#X obj 820 50 inlet;
#X msg 576 228 seed \$1;
#X obj 577 204 + 32;
#X msg 462 206 seed \$1;
#X obj 463 183 + 33;
#X msg 543 898 0.5;
#X msg 425 898 0.5;
#X connect 0 0 27 1;
#X connect 0 0 38 0;
#X connect 0 0 39 0;
#X connect 1 0 52 0;
#X connect 2 0 3 0;
#X connect 3 0 4 0;
#X connect 3 0 10 0;
#X connect 4 0 5 0;
#X connect 5 0 43 0;
#X connect 6 0 17 1;
#X connect 6 0 31 0;
#X connect 7 0 6 1;
#X connect 10 0 11 0;
#X connect 11 0 44 0;
#X connect 12 0 20 1;
#X connect 12 0 32 0;
#X connect 13 0 12 1;
#X connect 14 0 23 1;
#X connect 15 0 40 1;
#X connect 15 0 37 1;
#X connect 15 0 38 1;
#X connect 16 0 26 1;
#X connect 17 0 18 0;
#X connect 18 0 16 1;
#X connect 19 0 18 1;
#X connect 20 0 21 0;
#X connect 21 0 16 0;
#X connect 22 0 21 1;
#X connect 23 0 15 0;
#X connect 23 0 42 0;
#X connect 24 0 37 2;
#X connect 24 0 40 2;
#X connect 25 0 9 0;
#X connect 26 0 25 1;
#X connect 27 0 25 0;
#X connect 28 0 45 0;
#X connect 37 0 12 0;
#X connect 38 0 40 0;
#X connect 39 0 37 0;
#X connect 40 0 6 0;
#X connect 41 0 39 1;
#X connect 42 0 41 0;
#X connect 43 0 7 0;
#X connect 43 0 19 0;
#X connect 44 0 13 0;
#X connect 44 0 22 0;
#X connect 45 0 14 0;
#X connect 45 1 74 0;
#X connect 45 1 73 0;
#X connect 45 1 60 0;
#X connect 45 1 61 0;
#X connect 45 1 62 0;
#X connect 46 0 51 0;
#X connect 47 0 48 0;
#X connect 48 0 67 0;
#X connect 49 0 50 0;
#X connect 50 0 10 1;
#X connect 50 0 54 0;
#X connect 50 0 63 1;
#X connect 51 0 52 0;
#X connect 51 0 56 0;
#X connect 51 0 57 0;
#X connect 51 1 55 0;
#X connect 51 1 56 0;
#X connect 51 1 57 0;
#X connect 51 1 64 0;
#X connect 52 0 2 0;
#X connect 55 0 24 1;
#X connect 56 0 59 0;
#X connect 57 0 58 0;
#X connect 58 0 23 0;
#X connect 59 0 24 0;
#X connect 60 0 19 1;
#X connect 60 0 22 1;
#X connect 61 0 17 0;
#X connect 61 0 20 0;
#X connect 62 0 7 1;
#X connect 62 0 13 1;
#X connect 63 0 65 1;
#X connect 64 0 47 0;
#X connect 64 1 49 0;
#X connect 65 0 4 1;
#X connect 65 0 53 0;
#X connect 66 0 51 0;
#X connect 67 0 65 0;
#X connect 67 1 63 0;
#X connect 68 0 70 0;
#X connect 68 0 72 0;
#X connect 69 0 49 0;
#X connect 70 0 69 0;
#X connect 71 0 47 0;
#X connect 72 0 71 0;
#X connect 73 0 26 0;
#X connect 74 0 27 0;
#X coords 0 0 1 1 250 135 0;
#X restore -297 421 pd dualdelay1m;
#X msg 153 24 bang;
#X obj -686 -456 + 42;
#X msg -686 -435 seed \$1;
#X msg -658 -309 seed \$1;
#X obj -658 -330 + 43;
#X msg -568 -302 seed \$1;
#X obj -568 -323 + 44;
#X obj -512 -694 loadbang;
#X msg -521 -634 56087;
#X obj -586 -663 t b b b;
#X msg -394 -678 847052;
#X obj -537 -271 random 11;
#X obj -673 -260 + 3;
#X obj -672 -277 random 5;
#N canvas 40 31 1208 886 random_synth_2rjdj 0;
#X obj 279 935 *~;
#X obj 337 934 *~;
#X obj 309 972 +~;
#X obj 381 917 +;
#X obj 305 1068 /~;
#X obj 380 944 clip 1 2;
#X obj 259 809 random 100;
#X obj 260 831 / 100;
#X msg 321 845 bang;
#X obj 377 828 random 100;
#X obj 377 849 / 100;
#X obj 717 1242 mtof~;
#X obj 745 1156 +~;
#X obj 635 1134 *~;
#X obj 655 1033 random 64;
#X obj 655 1056 + 1;
#X obj 833 1160 random 128;
#X obj 833 1184 / 32;
#X obj 730 1083 random 100;
#X obj 731 1105 + 20;
#X text 719 987 filter;
#X text 333 759 mixer;
#X obj 794 995 line~;
#X obj 792 901 random 128;
#X obj 792 924 / 128;
#X obj 789 1127 *~;
#X obj 892 1037 random 2;
#X obj 893 1058 - 1;
#X obj 893 1081 * 40;
#X obj 794 960 pack;
#X obj 299 882 float;
#X obj 377 876 float;
#X obj 74 518 phasor~;
#X obj 75 866 hip~ 5;
#X obj 148 663 *~;
#X obj 104 687 *~;
#X obj 257 637 -;
#X msg 257 610 1;
#X obj 111 759 +~;
#X obj -59 745 *~;
#X obj 116 814 *~;
#X obj 50 764 -;
#X msg 27 737 1;
#X obj 76 834 +~;
#X obj 48 714 t b f;
#X obj 118 364 random 100;
#X obj 118 408 / 100;
#X obj 118 386 - 50;
#X obj 75 435 +;
#X obj 172 254 t b b;
#X obj 178 747 random 100;
#X obj 178 769 / 100;
#X obj 276 542 random 100;
#X obj 274 565 / 100;
#X obj 208 351 random 100;
#X obj 206 374 / 100;
#X obj 559 531 phasor~;
#X obj 552 808 hip~ 5;
#X obj 642 641 *~;
#X obj 586 638 *~;
#X obj 722 606 -;
#X msg 727 580 1;
#X obj 614 667 +~;
#X obj 525 458 +~;
#X obj 548 506 mtof~;
#X obj 486 692 *~;
#X obj 580 747 *~;
#X obj 565 693 -;
#X msg 536 672 1;
#X obj 555 780 +~;
#X obj 538 640 t b f;
#X obj 588 334 random 100;
#X obj 588 378 / 100;
#X obj 588 356 - 50;
#X obj 566 409 +;
#X obj 619 261 t b b;
#X obj 675 693 random 100;
#X obj 658 714 / 100;
#X obj 735 513 random 100;
#X obj 733 536 / 100;
#X obj 694 322 random 100;
#X obj 692 344 / 100;
#X msg 62 306 seed \$1;
#X msg 140 338 seed \$1;
#X msg 208 323 seed \$1;
#X msg 282 518 seed \$1;
#X msg 180 722 seed \$1;
#X msg 530 267 seed \$1;
#X msg 613 310 seed \$1;
#X msg 696 299 seed \$1;
#X msg 736 488 seed \$1;
#X msg 709 669 seed \$1;
#X msg 281 784 seed \$1;
#X msg 401 796 seed \$1;
#X msg 641 1007 seed \$1;
#X msg 795 877 seed \$1;
#X msg 890 892 seed \$1;
#X msg 745 1058 seed \$1;
#X msg 895 1008 seed \$1;
#X msg 836 1136 seed \$1;
#X msg 472 300 seed \$1;
#X obj 467 347 clip 30 100;
#X obj 465 376 - 30;
#X obj 379 549 line~;
#X obj 337 387 random 128;
#X obj 335 416 / 128;
#X obj 379 506 pack;
#X msg 344 363 seed \$1;
#X msg 404 433 seed \$1;
#X obj 386 575 *~;
#X msg 267 210 bang;
#X msg 644 200 bang;
#X msg 307 272 bang;
#X msg 363 681 bang;
#X msg 845 746 bang;
#X obj 164 514 clip~ 0.05 0.95;
#X obj 165 452 +~;
#X obj -34 416 *~;
#X msg -186 242 seed \$1;
#X obj -186 266 random 20;
#X msg -8 299 seed \$1;
#X obj -17 324 random 100;
#X obj -20 390 / 200;
#X obj -20 350 clip 20 100;
#X obj -20 370 - 20;
#X text -95 379 pwm;
#X text 363 594 fm-amt;
#X obj 793 380 *~;
#X msg 841 223 seed \$1;
#X obj 841 247 random 20;
#X msg 959 251 seed \$1;
#X obj 950 276 random 100;
#X obj 941 349 / 200;
#X obj 947 302 clip 20 100;
#X obj 947 322 - 20;
#X text 796 347 pwm;
#X obj 664 411 +~;
#X obj 619 467 clip~ 0.05 0.95;
#X obj 553 1312 *~;
#X msg 483 1127 seed \$1;
#X obj 475 1154 random 20;
#X msg 583 1194 seed \$1;
#X obj 575 1218 random 100;
#X obj 573 1240 clip 20 100;
#X obj 573 1261 - 20;
#X obj 742 1216 clip~ 1 130;
#X obj 730 1188 +~;
#X obj 573 1283 / 2;
#X obj 399 458 random 2000;
#X obj 875 919 random 2000;
#X obj -178 94 inlet;
#X obj -187 219 + 1;
#X obj -2 274 + 2;
#X obj 63 282 + 3;
#X obj 139 315 + 4;
#X obj 209 301 + 5;
#X obj 285 497 + 6;
#X text -135 94 <-seed;
#X obj 182 701 + 7;
#X obj 283 764 + 8;
#X obj 403 776 + 9;
#X obj 349 343 + 10;
#X obj 404 409 + 11;
#X obj 477 278 + 12;
#X obj 530 246 + 13;
#X obj 616 290 + 14;
#X obj 698 278 + 15;
#X obj 842 199 + 16;
#X obj 964 226 + 17;
#X obj 737 468 + 18;
#X obj 712 643 + 19;
#X obj 484 1104 + 20;
#X obj 589 1168 + 21;
#X obj 642 987 + 22;
#X obj 744 1035 + 23;
#X obj 796 852 + 24;
#X obj 888 871 + 25;
#X obj 900 986 + 26;
#X obj 838 1115 + 27;
#X obj 661 1564 outlet~;
#X obj 267 189 inlet;
#X text 306 187 <- osc1;
#X obj 304 240 inlet;
#X text 350 242 <- fm;
#X obj 371 654 inlet;
#X text 411 652 <- mix;
#X obj 634 172 inlet;
#X text 673 170 <- osc2;
#X obj 873 717 inlet;
#X text 885 753 <- fliter;
#X msg 455 202 1;
#X msg 510 214 0;
#X obj 931 1291 snapshot~;
#X obj 462 950 *;
#X obj 501 403 +~;
#X obj 506 434 *~;
#X obj 442 1189 +~;
#X obj 413 1162 / 20;
#X obj 417 481 *;
#X obj 840 943 *;
#X obj 291 1026 +~;
#X obj 223 965 *~;
#X obj 197 933 / 25;
#X obj 528 909 hsl 128 8 0 5 0 1 empty empty fb-am -34 4 0 10 -262144
-1 -1 3500 1;
#X obj 866 137 hsl 128 8 0.1 2 0 1 empty empty ev-sp -34 4 0 10 -262144
-1 -1 3000 1;
#X obj 1000 396 hip~ 5;
#X obj 1037 433 clip~ -1 1;
#X msg 984 479 bang;
#X text 1058 403 lfo wave;
#X obj 989 576 tabwrite~ \$0lfowavbuffer;
#X obj 989 601 table \$0lfowavbuffer 515;
#X obj 386 1272 tabosc4~ \$0lfowavbuffer;
#X obj 1075 351 inlet;
#X obj -200 359 tabosc4~ \$0lfowavbuffer;
#X obj 774 320 tabosc4~ \$0lfowavbuffer;
#X obj 1074 460 lop~ 200;
#X obj 1022 545 +~;
#X obj 933 506 *~;
#X obj 1047 510 *~;
#X obj 980 22 hsl 80 8 0 1 0 1 empty empty lf-t -34 4 0 10 -262144
-1 -1 5500 1;
#X obj 898 105 -;
#X msg 871 78 1;
#X obj 902 48 t b f;
#X obj 703 1322 vcf~;
#X obj 677 1280 vcf~;
#X obj 737 1133 +~;
#X obj -19 -12 inlet;
#X obj -81 463 * 50;
#X obj -84 490 + 12;
#X obj -86 433 inlet;
#X obj 791 1369 env~;
#X obj 784 1343 hip~ 200;
#X obj 685 1499 /~;
#X obj 798 1417 line;
#X msg 794 1395 \$1 200;
#X obj 791 1453 - 90;
#X obj 788 1477 clip 1 20;
#X obj 103 576 *~ 1000;
#X obj 107 626 clip~ -1 1;
#X obj 47 544 cos~;
#X obj 96 601 +~;
#X obj 144 546 *~ 999;
#X obj 588 558 *~ 1000;
#X obj 618 609 clip~ -1 1;
#X obj 523 557 cos~;
#X obj 589 578 +~;
#X obj 615 500 *~ 999;
#X text 291 88 random controled simple subtractive synth 2 osc + fm
+ lp-filter +lfos and feedback 11/2006 \, 6/2008 \, 1/2009 martin brinkmann
;
#X obj 394 1245 clip~ 0.001 21;
#X obj 772 300 clip~ 0.001 21;
#X obj -201 319 clip~ 0.001 21;
#X obj 1014 1394 inlet~;
#X obj 884 443 osc~ 43.066;
#X text -197 536 sin/saw/pulse osc 1;
#X text 581 442 sin/saw/pulse osc 2;
#X obj 60 331 random 100;
#X obj 534 292 random 100;
#X obj 522 484 +~;
#X obj 63 495 mtof~;
#X obj 36 470 +~;
#X obj -239 111 inlet;
#X text -237 88 tp;
#X obj 1027 734 mtof;
#X obj 1024 683 mod 12;
#X obj 1030 843 *~;
#X obj 1091 786 *~ 0.25;
#X obj 659 1161 +~;
#X obj 1014 771 +~;
#X obj 466 324 random 100;
#X obj 1008 807 osc~;
#X obj 1070 821 +~ 0.4;
#X obj 1099 750 tabosc4~ \$0lfowavbuffer;
#X msg 1132 655 seed \$1;
#X obj 1133 677 random 500;
#X obj 1133 700 + 50;
#X obj 1119 723 / 550;
#X obj 1131 634 + 29;
#X obj 189 1213 *~ 0.25;
#X obj 189 1190 tabosc4~ \$0lfowavbuffer;
#X msg 194 1092 seed \$1;
#X obj 196 1116 random 500;
#X obj 197 1139 + 50;
#X obj 198 1164 / 550;
#X obj 191 1065 + 30;
#X obj 186 1234 +~ 0.75;
#X obj 531 846 *~;
#X obj -20 1100 *~ 0.25;
#X obj -20 1077 tabosc4~ \$0lfowavbuffer;
#X msg -15 979 seed \$1;
#X obj -13 1003 random 500;
#X obj -12 1026 + 50;
#X obj -11 1051 / 550;
#X obj -23 1121 +~ 0.75;
#X obj -21 954 + 31;
#X obj 77 906 *~;
#X obj 779 1564 delwrite~ \$0-rnsubdel1 3000;
#X obj 1222 911 inlet;
#X obj 1210 945 pow -1;
#X obj 1193 974 / 4;
#X obj 1009 1167 * 60000;
#X text 1260 914 <- bpm in;
#X msg 1148 1074 seed \$1;
#X obj 1020 1133 * 1;
#X obj 967 1223 delread~ \$0-rnsubdel1;
#X obj 1149 1120 + 1;
#X obj 1149 1096 random 7;
#X obj 1148 1051 + 50;
#X obj 674 1527 clip~ -1 1;
#X obj 1027 709 + 36;
#X obj 11 88 clip 0.1 2;
#X obj -10 66 -;
#X obj -169 292 *~;
#X msg -30 39 1;
#X obj -23 16 t b f;
#X obj 406 1219 *~;
#X obj 795 272 *~;
#X obj 1009 1464 outlet~;
#X connect 0 0 2 0;
#X connect 1 0 2 1;
#X connect 2 0 200 1;
#X connect 3 0 5 0;
#X connect 4 0 13 0;
#X connect 5 0 4 1;
#X connect 6 0 7 0;
#X connect 7 0 30 0;
#X connect 8 0 30 0;
#X connect 9 0 10 0;
#X connect 10 0 31 0;
#X connect 11 0 223 1;
#X connect 11 0 224 1;
#X connect 11 0 316 0;
#X connect 12 0 146 1;
#X connect 13 0 266 0;
#X connect 14 0 15 0;
#X connect 15 0 13 1;
#X connect 16 0 17 0;
#X connect 17 0 223 2;
#X connect 17 0 224 2;
#X connect 18 0 19 0;
#X connect 19 0 225 0;
#X connect 22 0 25 0;
#X connect 23 0 24 0;
#X connect 24 0 29 0;
#X connect 25 0 12 1;
#X connect 26 0 27 0;
#X connect 27 0 28 0;
#X connect 28 0 25 1;
#X connect 29 0 22 0;
#X connect 30 0 3 0;
#X connect 30 0 0 1;
#X connect 31 0 3 1;
#X connect 31 0 8 0;
#X connect 31 0 1 1;
#X connect 32 0 35 0;
#X connect 32 0 239 0;
#X connect 33 0 294 0;
#X connect 34 0 38 1;
#X connect 35 0 38 0;
#X connect 36 0 34 1;
#X connect 37 0 36 0;
#X connect 38 0 40 0;
#X connect 39 0 43 0;
#X connect 40 0 43 1;
#X connect 41 0 39 1;
#X connect 42 0 41 0;
#X connect 43 0 33 0;
#X connect 43 0 109 0;
#X connect 44 0 42 0;
#X connect 44 1 41 1;
#X connect 45 0 47 0;
#X connect 46 0 48 1;
#X connect 47 0 46 0;
#X connect 48 0 259 1;
#X connect 49 0 255 0;
#X connect 49 1 45 0;
#X connect 50 0 51 0;
#X connect 51 0 44 0;
#X connect 51 0 40 1;
#X connect 52 0 53 0;
#X connect 53 0 35 1;
#X connect 53 0 36 1;
#X connect 53 0 37 0;
#X connect 54 0 55 0;
#X connect 55 0 116 1;
#X connect 56 0 59 0;
#X connect 56 0 244 0;
#X connect 57 0 285 0;
#X connect 58 0 62 1;
#X connect 59 0 62 0;
#X connect 60 0 58 1;
#X connect 61 0 60 0;
#X connect 62 0 66 0;
#X connect 63 0 257 1;
#X connect 64 0 56 0;
#X connect 65 0 69 0;
#X connect 66 0 69 1;
#X connect 67 0 65 1;
#X connect 68 0 67 0;
#X connect 69 0 57 0;
#X connect 70 0 68 0;
#X connect 70 1 67 1;
#X connect 71 0 73 0;
#X connect 72 0 74 1;
#X connect 73 0 72 0;
#X connect 74 0 63 1;
#X connect 74 0 263 0;
#X connect 75 0 256 0;
#X connect 75 1 71 0;
#X connect 76 0 77 0;
#X connect 77 0 70 0;
#X connect 77 0 66 1;
#X connect 78 0 79 0;
#X connect 79 0 59 1;
#X connect 79 0 60 1;
#X connect 79 0 61 0;
#X connect 80 0 81 0;
#X connect 81 0 136 0;
#X connect 82 0 255 0;
#X connect 83 0 45 0;
#X connect 84 0 54 0;
#X connect 85 0 52 0;
#X connect 86 0 50 0;
#X connect 87 0 256 0;
#X connect 88 0 71 0;
#X connect 89 0 80 0;
#X connect 90 0 78 0;
#X connect 91 0 76 0;
#X connect 92 0 6 0;
#X connect 93 0 9 0;
#X connect 94 0 14 0;
#X connect 95 0 23 0;
#X connect 96 0 149 0;
#X connect 97 0 18 0;
#X connect 98 0 26 0;
#X connect 99 0 16 0;
#X connect 100 0 268 0;
#X connect 101 0 102 0;
#X connect 102 0 194 1;
#X connect 103 0 109 1;
#X connect 104 0 105 0;
#X connect 105 0 106 0;
#X connect 106 0 103 0;
#X connect 107 0 104 0;
#X connect 108 0 148 0;
#X connect 109 0 195 0;
#X connect 110 0 49 0;
#X connect 110 0 54 0;
#X connect 110 0 52 0;
#X connect 110 0 50 0;
#X connect 110 0 121 0;
#X connect 110 0 119 0;
#X connect 111 0 75 0;
#X connect 111 0 80 0;
#X connect 111 0 76 0;
#X connect 111 0 78 0;
#X connect 111 0 129 0;
#X connect 111 0 131 0;
#X connect 112 0 104 0;
#X connect 112 0 148 0;
#X connect 112 0 192 0;
#X connect 112 0 268 0;
#X connect 113 0 9 0;
#X connect 113 0 6 0;
#X connect 113 0 305 0;
#X connect 114 0 23 0;
#X connect 114 0 14 0;
#X connect 114 0 18 0;
#X connect 114 0 16 0;
#X connect 114 0 26 0;
#X connect 114 0 140 0;
#X connect 114 0 142 0;
#X connect 114 0 149 0;
#X connect 114 0 192 0;
#X connect 115 0 241 0;
#X connect 116 0 115 0;
#X connect 117 0 116 0;
#X connect 118 0 119 0;
#X connect 119 0 311 0;
#X connect 120 0 121 0;
#X connect 121 0 123 0;
#X connect 122 0 117 1;
#X connect 123 0 124 0;
#X connect 124 0 122 0;
#X connect 127 0 136 1;
#X connect 128 0 129 0;
#X connect 129 0 315 1;
#X connect 130 0 131 0;
#X connect 131 0 133 0;
#X connect 132 0 127 1;
#X connect 133 0 134 0;
#X connect 134 0 132 0;
#X connect 136 0 137 0;
#X connect 137 0 246 0;
#X connect 138 0 146 0;
#X connect 139 0 140 0;
#X connect 140 0 196 1;
#X connect 141 0 142 0;
#X connect 142 0 143 0;
#X connect 143 0 144 0;
#X connect 144 0 147 0;
#X connect 145 0 11 0;
#X connect 146 0 145 0;
#X connect 147 0 138 1;
#X connect 148 0 198 0;
#X connect 149 0 199 0;
#X connect 150 0 151 0;
#X connect 150 0 152 0;
#X connect 150 0 153 0;
#X connect 150 0 154 0;
#X connect 150 0 155 0;
#X connect 150 0 156 0;
#X connect 150 0 158 0;
#X connect 150 0 159 0;
#X connect 150 0 160 0;
#X connect 150 0 161 0;
#X connect 150 0 162 0;
#X connect 150 0 163 0;
#X connect 150 0 164 0;
#X connect 150 0 165 0;
#X connect 150 0 166 0;
#X connect 150 0 167 0;
#X connect 150 0 168 0;
#X connect 150 0 169 0;
#X connect 150 0 170 0;
#X connect 150 0 171 0;
#X connect 150 0 172 0;
#X connect 150 0 173 0;
#X connect 150 0 174 0;
#X connect 150 0 175 0;
#X connect 150 0 176 0;
#X connect 150 0 177 0;
#X connect 150 0 178 0;
#X connect 150 0 190 0;
#X connect 150 0 276 0;
#X connect 150 0 283 0;
#X connect 150 0 293 0;
#X connect 150 0 306 0;
#X connect 151 0 118 0;
#X connect 152 0 120 0;
#X connect 153 0 82 0;
#X connect 154 0 83 0;
#X connect 155 0 84 0;
#X connect 156 0 85 0;
#X connect 158 0 86 0;
#X connect 159 0 92 0;
#X connect 160 0 93 0;
#X connect 161 0 107 0;
#X connect 162 0 108 0;
#X connect 163 0 100 0;
#X connect 164 0 87 0;
#X connect 165 0 88 0;
#X connect 166 0 89 0;
#X connect 167 0 128 0;
#X connect 168 0 130 0;
#X connect 169 0 90 0;
#X connect 170 0 91 0;
#X connect 171 0 139 0;
#X connect 172 0 141 0;
#X connect 173 0 94 0;
#X connect 174 0 97 0;
#X connect 175 0 95 0;
#X connect 176 0 96 0;
#X connect 177 0 98 0;
#X connect 178 0 99 0;
#X connect 180 0 110 0;
#X connect 182 0 112 0;
#X connect 184 0 113 0;
#X connect 186 0 111 0;
#X connect 188 0 114 0;
#X connect 190 0 32 1;
#X connect 190 0 56 1;
#X connect 190 0 191 0;
#X connect 190 0 211 1;
#X connect 190 0 213 1;
#X connect 190 0 214 1;
#X connect 191 0 103 0;
#X connect 191 0 22 0;
#X connect 192 0 193 0;
#X connect 193 0 194 0;
#X connect 193 0 197 0;
#X connect 194 0 195 1;
#X connect 195 0 63 0;
#X connect 196 0 314 1;
#X connect 197 0 196 0;
#X connect 198 0 106 1;
#X connect 199 0 29 1;
#X connect 200 0 4 0;
#X connect 201 0 200 0;
#X connect 202 0 201 0;
#X connect 203 0 193 1;
#X connect 203 0 202 0;
#X connect 204 0 198 1;
#X connect 204 0 199 1;
#X connect 205 0 206 0;
#X connect 206 0 215 0;
#X connect 207 0 209 0;
#X connect 207 0 273 0;
#X connect 207 0 280 0;
#X connect 207 0 289 0;
#X connect 211 0 138 0;
#X connect 212 0 207 0;
#X connect 213 0 117 0;
#X connect 214 0 127 0;
#X connect 215 0 218 0;
#X connect 216 0 209 0;
#X connect 217 0 216 0;
#X connect 218 0 216 1;
#X connect 219 0 222 0;
#X connect 219 0 218 1;
#X connect 220 0 217 1;
#X connect 221 0 220 0;
#X connect 222 0 221 0;
#X connect 222 1 220 1;
#X connect 223 0 205 0;
#X connect 223 0 231 0;
#X connect 223 0 232 0;
#X connect 224 0 223 0;
#X connect 225 0 12 0;
#X connect 226 0 313 0;
#X connect 227 0 228 0;
#X connect 228 0 225 1;
#X connect 229 0 227 0;
#X connect 230 0 234 0;
#X connect 231 0 230 0;
#X connect 232 0 307 0;
#X connect 233 0 235 0;
#X connect 234 0 233 0;
#X connect 235 0 236 0;
#X connect 236 0 232 1;
#X connect 237 0 240 0;
#X connect 238 0 34 0;
#X connect 239 0 237 0;
#X connect 239 0 39 0;
#X connect 240 0 238 0;
#X connect 241 0 240 1;
#X connect 242 0 245 0;
#X connect 243 0 58 0;
#X connect 244 0 242 0;
#X connect 244 0 65 0;
#X connect 245 0 243 0;
#X connect 246 0 245 1;
#X connect 248 0 211 0;
#X connect 249 0 214 0;
#X connect 250 0 213 0;
#X connect 251 0 295 0;
#X connect 252 0 217 0;
#X connect 255 0 48 0;
#X connect 256 0 74 0;
#X connect 257 0 64 0;
#X connect 258 0 32 0;
#X connect 259 0 258 0;
#X connect 260 0 257 0;
#X connect 260 0 259 0;
#X connect 260 0 267 0;
#X connect 262 0 267 1;
#X connect 263 0 308 0;
#X connect 264 0 232 0;
#X connect 265 0 270 0;
#X connect 266 0 224 0;
#X connect 267 0 269 0;
#X connect 268 0 101 0;
#X connect 269 0 264 0;
#X connect 270 0 264 1;
#X connect 271 0 265 0;
#X connect 272 0 273 0;
#X connect 273 0 274 0;
#X connect 274 0 275 0;
#X connect 275 0 271 0;
#X connect 276 0 272 0;
#X connect 277 0 284 0;
#X connect 278 0 277 0;
#X connect 279 0 280 0;
#X connect 280 0 281 0;
#X connect 281 0 282 0;
#X connect 282 0 278 0;
#X connect 283 0 279 0;
#X connect 284 0 285 1;
#X connect 285 0 1 0;
#X connect 286 0 292 0;
#X connect 287 0 286 0;
#X connect 288 0 289 0;
#X connect 289 0 290 0;
#X connect 290 0 291 0;
#X connect 291 0 287 0;
#X connect 292 0 294 1;
#X connect 293 0 288 0;
#X connect 294 0 0 0;
#X connect 296 0 297 0;
#X connect 297 0 298 0;
#X connect 298 0 302 0;
#X connect 299 0 303 0;
#X connect 301 0 305 0;
#X connect 302 0 299 0;
#X connect 303 0 192 0;
#X connect 303 0 201 1;
#X connect 304 0 302 1;
#X connect 305 0 304 0;
#X connect 306 0 301 0;
#X connect 307 0 179 0;
#X connect 307 0 295 0;
#X connect 308 0 262 0;
#X connect 309 0 311 1;
#X connect 309 0 314 0;
#X connect 309 0 315 0;
#X connect 310 0 309 0;
#X connect 311 0 250 0;
#X connect 312 0 310 0;
#X connect 313 0 312 0;
#X connect 313 1 310 1;
#X connect 314 0 248 0;
#X connect 315 0 249 0;
#X coords 0 0 1 1 170 100 0;
#X restore -411 58 pd random_synth_2rjdj;
#X obj -400 -59 - 1;
#X obj -209 148 *~;
#X obj -175 118 line~;
#X msg -121 80 0;
#X obj -155 52 t b b;
#X msg -172 79 1 400;
#X obj -74 10 soundinput;
#X msg -634 -52 0 50;
#X msg -451 -67 0 35;
#X obj -70 111 *~ 0.5;
#N canvas 97 146 1090 619 mode 0;
#X obj -19 -8 inlet;
#X text -21 -30 in;
#X obj 8 367 select 1 3 5 7 10;
#X msg -1 414 1;
#X msg 75 418 0;
#X obj -11 529 +;
#X text 37 346 ionisch;
#X msg 159 404 1;
#X msg 231 401 0;
#X text 199 339 aeolisch;
#X obj 168 358 select 1 4 6 9 11;
#X obj -14 568 outlet;
#X obj 20 96 mod 12;
#X obj 81 187 pack f f;
#X obj 217 77 inlet;
#X obj 85 157 int;
#X obj 66 129 t b f;
#X obj 17 54 + 60;
#X obj -16 22 t f f;
#X text 225 53 type;
#X msg 319 404 1;
#X msg 391 404 0;
#X text 333 337 lydisch;
#X obj 327 357 select 1 3 5 8 10;
#X msg 478 403 1;
#X msg 559 403 0;
#X text 494 338 mixolydisch;
#X obj 485 358 select 1 3 6 8 11;
#X msg 639 406 1;
#X msg 711 406 0;
#X text 659 335 dorisch;
#X obj 647 361 select 1 4 6 8 11;
#X msg 781 407 1;
#X msg 853 407 0;
#X text 801 336 lokrisch;
#X obj 790 363 select 2 4 7 9 11;
#X msg 927 405 1;
#X msg 999 405 0;
#X text 947 334 phrygisch;
#X obj 273 242 route 0 1 2 3 4 5 6;
#X obj 936 362 select 2 4 6 9 11;
#X connect 0 0 18 0;
#X connect 2 0 3 0;
#X connect 2 1 3 0;
#X connect 2 2 3 0;
#X connect 2 3 3 0;
#X connect 2 4 3 0;
#X connect 2 5 4 0;
#X connect 3 0 5 1;
#X connect 4 0 5 1;
#X connect 5 0 11 0;
#X connect 7 0 5 1;
#X connect 8 0 5 1;
#X connect 10 0 7 0;
#X connect 10 1 7 0;
#X connect 10 2 7 0;
#X connect 10 3 7 0;
#X connect 10 4 7 0;
#X connect 10 5 8 0;
#X connect 12 0 16 0;
#X connect 13 0 39 0;
#X connect 14 0 15 1;
#X connect 15 0 13 0;
#X connect 16 0 15 0;
#X connect 16 1 13 1;
#X connect 17 0 12 0;
#X connect 18 0 5 0;
#X connect 18 1 17 0;
#X connect 20 0 5 1;
#X connect 21 0 5 1;
#X connect 23 0 20 0;
#X connect 23 1 20 0;
#X connect 23 2 20 0;
#X connect 23 3 20 0;
#X connect 23 4 20 0;
#X connect 23 5 21 0;
#X connect 24 0 5 1;
#X connect 25 0 5 1;
#X connect 27 0 24 0;
#X connect 27 1 24 0;
#X connect 27 2 24 0;
#X connect 27 3 24 0;
#X connect 27 4 24 0;
#X connect 27 5 25 0;
#X connect 28 0 5 1;
#X connect 29 0 5 1;
#X connect 31 0 28 0;
#X connect 31 1 28 0;
#X connect 31 2 28 0;
#X connect 31 3 28 0;
#X connect 31 4 28 0;
#X connect 31 5 29 0;
#X connect 32 0 5 1;
#X connect 33 0 5 1;
#X connect 35 0 32 0;
#X connect 35 1 32 0;
#X connect 35 2 32 0;
#X connect 35 3 32 0;
#X connect 35 4 32 0;
#X connect 35 5 33 0;
#X connect 36 0 5 1;
#X connect 37 0 5 1;
#X connect 39 0 2 0;
#X connect 39 1 10 0;
#X connect 39 2 23 0;
#X connect 39 3 27 0;
#X connect 39 4 31 0;
#X connect 39 5 35 0;
#X connect 39 6 40 0;
#X connect 40 0 36 0;
#X connect 40 1 36 0;
#X connect 40 2 36 0;
#X connect 40 3 36 0;
#X connect 40 4 36 0;
#X connect 40 5 37 0;
#X restore -418 19 pd mode;
#X msg -263 -109 seed \$1;
#X obj -262 -129 + 51;
#X obj -291 -81 random 7;
#X obj -31 467 tabwrite~ \$0sample1;
#X obj -30 489 table \$0sample1 88200;
#X obj -199 313 *~ 88200;
#X obj -198 288 line~;
#X msg -230 256 0.664062;
#X msg -128 265 1 1343.75;
#X msg -251 213 set \$1;
#X obj -704 -111 moses 0.01;
#X obj -524 -124 moses 0.01;
#X obj -585 45 moses 0.1;
#X obj 8 154 metro 4000;
#X msg 77 58 seed \$1;
#X obj 78 37 + 52;
#X obj 76 101 + 2;
#X obj 75 125 * 1000;
#X obj -200 336 tabread4~ \$0sample1;
#X obj 74 79 random 15;
#X obj 21 216 env~;
#X obj -12 361 /~;
#X obj -115 148 - 1;
#X obj -115 173 * -1;
#X msg -122 237 set 1 \$1;
#X obj -116 196 * 4000;
#X obj 27 242 dbtorms;
#X obj -37 423 clip~ -1 1;
#X obj -198 199 t b b;
#X floatatom -555 21 5 0 0 0 - - -;
#X obj 11 336 clip 0.03 1;
#X obj -280 366 *~ 0.5;
#X obj 27 264 * 2;
#X obj -524 75 delay 1;
#X obj -38 397 vcf~ 5;
#X obj 20 312 line;
#X msg 24 288 \$1 100;
#X obj -584 -5 >;
#X connect 1 0 0 0;
#X connect 1 1 0 1;
#X connect 2 0 1 0;
#X connect 2 1 82 0;
#X connect 3 0 97 4;
#X connect 4 0 97 7;
#X connect 4 0 52 4;
#X connect 5 0 97 5;
#X connect 6 0 97 6;
#X connect 6 0 51 4;
#X connect 7 0 8 0;
#X connect 8 0 9 0;
#X connect 8 1 81 0;
#X connect 9 0 97 3;
#X connect 10 0 70 0;
#X connect 11 0 19 0;
#X connect 11 0 91 0;
#X connect 12 0 19 0;
#X connect 12 1 3 0;
#X connect 12 1 4 0;
#X connect 12 1 5 0;
#X connect 12 1 6 0;
#X connect 12 1 14 0;
#X connect 12 1 13 0;
#X connect 12 1 83 0;
#X connect 12 1 43 0;
#X connect 12 1 54 0;
#X connect 12 2 19 0;
#X connect 12 2 3 0;
#X connect 12 2 5 0;
#X connect 12 2 6 0;
#X connect 12 2 4 0;
#X connect 12 2 14 0;
#X connect 12 2 13 0;
#X connect 12 2 83 0;
#X connect 12 2 43 0;
#X connect 12 2 54 0;
#X connect 13 0 97 10;
#X connect 13 0 51 4;
#X connect 14 0 97 8;
#X connect 15 0 16 0;
#X connect 16 0 12 0;
#X connect 16 0 102 0;
#X connect 16 0 111 0;
#X connect 16 0 122 0;
#X connect 16 1 17 0;
#X connect 16 1 128 0;
#X connect 17 0 11 0;
#X connect 18 0 21 0;
#X connect 19 0 97 1;
#X connect 19 0 84 0;
#X connect 19 0 87 0;
#X connect 19 0 89 0;
#X connect 19 0 51 5;
#X connect 19 0 52 5;
#X connect 19 0 110 0;
#X connect 19 0 119 1;
#X connect 19 0 124 0;
#X connect 20 1 31 0;
#X connect 20 1 71 0;
#X connect 20 1 72 0;
#X connect 20 1 73 0;
#X connect 20 1 74 0;
#X connect 20 1 75 0;
#X connect 20 1 76 0;
#X connect 20 1 77 0;
#X connect 20 1 78 0;
#X connect 20 2 31 1;
#X connect 20 2 71 1;
#X connect 20 2 72 1;
#X connect 20 2 73 1;
#X connect 20 2 74 1;
#X connect 20 2 75 1;
#X connect 20 2 76 1;
#X connect 20 2 77 1;
#X connect 20 2 78 1;
#X connect 21 0 20 0;
#X connect 22 1 12 0;
#X connect 23 1 14 0;
#X connect 24 1 3 0;
#X connect 25 1 15 0;
#X connect 28 1 4 0;
#X connect 29 1 5 0;
#X connect 30 1 13 0;
#X connect 31 0 22 0;
#X connect 32 1 6 0;
#X connect 33 1 83 0;
#X connect 34 0 51 0;
#X connect 34 0 52 0;
#X connect 34 0 63 0;
#X connect 34 1 82 1;
#X connect 34 1 82 2;
#X connect 34 1 97 11;
#X connect 35 0 39 0;
#X connect 35 0 39 1;
#X connect 36 0 2 0;
#X connect 37 0 35 0;
#X connect 38 0 106 0;
#X connect 38 0 66 0;
#X connect 38 1 37 0;
#X connect 38 1 118 0;
#X connect 38 1 131 0;
#X connect 39 0 36 0;
#X connect 39 0 97 9;
#X connect 40 0 36 1;
#X connect 41 0 40 0;
#X connect 42 0 51 1;
#X connect 42 0 52 1;
#X connect 43 0 42 0;
#X connect 44 0 47 0;
#X connect 44 0 47 1;
#X connect 45 0 44 0;
#X connect 46 0 105 0;
#X connect 46 1 45 0;
#X connect 47 0 48 0;
#X connect 47 0 97 9;
#X connect 48 0 2 0;
#X connect 49 0 48 1;
#X connect 50 0 49 0;
#X connect 51 0 120 0;
#X connect 51 0 146 1;
#X connect 52 0 119 0;
#X connect 52 0 146 0;
#X connect 53 0 12 0;
#X connect 54 0 94 0;
#X connect 54 0 96 0;
#X connect 54 1 51 3;
#X connect 54 1 52 3;
#X connect 55 0 52 2;
#X connect 56 0 51 2;
#X connect 57 0 56 0;
#X connect 58 0 0 0;
#X connect 58 1 0 1;
#X connect 59 0 98 0;
#X connect 60 0 61 1;
#X connect 61 0 67 0;
#X connect 61 0 108 0;
#X connect 62 0 64 0;
#X connect 63 0 62 0;
#X connect 64 1 65 0;
#X connect 65 0 61 0;
#X connect 66 0 59 0;
#X connect 67 0 63 1;
#X connect 68 0 41 0;
#X connect 69 0 50 0;
#X connect 70 0 97 2;
#X connect 71 0 25 0;
#X connect 72 0 23 0;
#X connect 73 0 24 0;
#X connect 74 0 28 0;
#X connect 75 0 29 0;
#X connect 76 0 30 0;
#X connect 77 0 32 0;
#X connect 78 0 33 0;
#X connect 79 0 92 0;
#X connect 80 0 99 0;
#X connect 81 0 10 0;
#X connect 82 0 58 0;
#X connect 83 0 54 0;
#X connect 84 0 85 0;
#X connect 85 0 43 0;
#X connect 86 0 96 0;
#X connect 87 0 86 0;
#X connect 88 0 94 0;
#X connect 89 0 88 0;
#X connect 90 0 92 0;
#X connect 91 0 34 1;
#X connect 91 0 82 4;
#X connect 91 0 1 2;
#X connect 92 0 15 0;
#X connect 92 1 34 0;
#X connect 92 1 91 0;
#X connect 92 2 82 3;
#X connect 92 2 1 1;
#X connect 94 0 57 0;
#X connect 95 0 55 0;
#X connect 96 0 95 0;
#X connect 97 0 80 0;
#X connect 97 0 69 0;
#X connect 97 0 68 0;
#X connect 97 1 143 1;
#X connect 98 0 60 0;
#X connect 99 0 2 0;
#X connect 100 0 99 1;
#X connect 101 0 100 0;
#X connect 102 0 103 0;
#X connect 102 1 101 0;
#X connect 103 0 100 0;
#X connect 104 0 107 0;
#X connect 104 1 107 0;
#X connect 105 0 44 0;
#X connect 106 0 35 0;
#X connect 107 0 97 9;
#X connect 107 0 129 0;
#X connect 107 0 130 0;
#X connect 108 0 97 0;
#X connect 109 0 111 0;
#X connect 110 0 109 0;
#X connect 111 0 108 1;
#X connect 114 0 127 0;
#X connect 115 0 114 0;
#X connect 116 0 115 0;
#X connect 117 0 115 0;
#X connect 118 0 116 0;
#X connect 119 1 46 0;
#X connect 119 1 66 0;
#X connect 120 1 38 0;
#X connect 120 1 59 1;
#X connect 121 1 142 0;
#X connect 122 0 112 0;
#X connect 123 0 128 0;
#X connect 124 0 123 0;
#X connect 125 0 126 0;
#X connect 126 0 122 1;
#X connect 127 0 97 9;
#X connect 127 0 140 0;
#X connect 128 0 125 0;
#X connect 129 0 135 0;
#X connect 130 0 143 0;
#X connect 131 0 132 0;
#X connect 132 0 134 0;
#X connect 133 0 117 0;
#X connect 134 0 133 0;
#X connect 135 0 141 0;
#X connect 136 0 112 0;
#X connect 137 0 117 0;
#X connect 137 1 116 0;
#X connect 139 0 130 1;
#X connect 140 0 2 0;
#X connect 141 0 145 0;
#X connect 142 0 137 0;
#X connect 143 0 136 0;
#X connect 144 0 139 0;
#X connect 145 0 144 0;
#X connect 146 0 121 0;
#X connect 146 0 138 0;
