#N canvas 314 91 1045 959 10;
#X obj 186 111 metro 250;
#X obj 343 811 unpack f f;
#X obj 237 326 / 100;
#X obj 225 43 pow -1;
#X obj 235 65 / 4;
#X obj 240 89 * 60000;
#X obj 125 -8 nbx 5 14 0 300 0 1 empty empty empty 0 -8 0 10 -262144
-1 -1 92 256;
#X obj 242 307 nbx 3 14 1 99 0 1 empty empty empty 0 -8 0 10 -262144
-1 -1 66 256;
#N canvas 217 104 1409 952 bigplayer1 0;
#X obj 240 255 soundfiler;
#X obj 378 160 int;
#X msg 403 138 0;
#X obj 406 164 + 1;
#X obj 240 279 t b;
#X obj -115 -23 inlet;
#X obj -56 -23 inlet;
#X obj 184 29 t b f;
#X obj -228 854 outlet~;
#X obj -116 150 pack 0 0 0;
#X obj -115 10 pack f f;
#X obj 106 117 hsl 100 8 1 1000 1 1 empty empty attack 2 4 0 10 -262144
-258113 -1 0 1;
#X obj 106 129 hsl 100 8 30 3000 1 1 empty empty release 2 4 0 10 -262144
-258113 -1 3900 1;
#X obj 240 190 pack s s f f;
#X obj 338 65 t b b b;
#X msg 573 -98 symbol /home/mnb/samplelib/mis_neatonk_piano/;
#X obj -94 113 clip 0 87;
#X msg 456 65 148587__neatonk__piano-med-b0.wav \, 148554__neatonk__piano-med-c1.wav
\, 148277__neatonk__piano-med-db1.wav \, 148606__neatonk__piano-med-d1.wav
\, 148570__neatonk__piano-med-eb1.wav \, 148573__neatonk__piano-med-e1.wav
\, 148568__neatonk__piano-med-f1.wav \, 148596__neatonk__piano-med-gb1.wav
\, 148567__neatonk__piano-med-g1.wav \, 148535__neatonk__piano-med-ab1.wav
\, 148534__neatonk__piano-med-a1.wav \, 148559__neatonk__piano-med-bb1.wav
\, 148586__neatonk__piano-med-b1.wav \, 148601__neatonk__piano-med-c2.wav
\, 148276__neatonk__piano-med-db2.wav \, 148594__neatonk__piano-med-d2.wav
\, 148597__neatonk__piano-med-eb2.wav \, 148555__neatonk__piano-med-e2.wav
\, 148599__neatonk__piano-med-f2.wav \, 148578__neatonk__piano-med-gb2.wav
\, 148549__neatonk__piano-med-g2.wav \, 148540__neatonk__piano-med-ab2.wav
\, 148533__neatonk__piano-med-a2.wav \, 148560__neatonk__piano-med-bb2.wav
\, 148585__neatonk__piano-med-b2.wav \, 148600__neatonk__piano-med-c3.wav
\, 148271__neatonk__piano-med-db3.wav \, 148593__neatonk__piano-med-d3.wav
\, 148592__neatonk__piano-med-eb3.wav \, 148556__neatonk__piano-med-e3.wav
\, 148598__neatonk__piano-med-f3.wav \, 148544__neatonk__piano-med-gb3.wav
\, 148547__neatonk__piano-med-g3.wav \, 148539__neatonk__piano-med-ab3.wav
\, 148532__neatonk__piano-med-a3.wav \, 148565__neatonk__piano-med-bb3.wav
\, 148584__neatonk__piano-med-b3.wav \, 148603__neatonk__piano-med-c4.wav
\, 148270__neatonk__piano-med-db4.wav \, 148551__neatonk__piano-med-d4.wav
\, 148588__neatonk__piano-med-eb4.wav \, 148557__neatonk__piano-med-e4.wav
\, 148569__neatonk__piano-med-f4.wav \, 148576__neatonk__piano-med-gb4.wav
\, 148548__neatonk__piano-med-g4.wav \, 148583__neatonk__piano-med-ab4.wav
\, 148531__neatonk__piano-med-a4.wav \, 148566__neatonk__piano-med-bb4.wav
\, 148590__neatonk__piano-med-b4.wav \, 148602__neatonk__piano-med-c5.wav
\, 148273__neatonk__piano-med-db5.wav \, 148552__neatonk__piano-med-d5.wav
\, 148574__neatonk__piano-med-eb5.wav \, 148558__neatonk__piano-med-e5.wav
\, 148571__neatonk__piano-med-f5.wav \, 148545__neatonk__piano-med-gb5.wav
\, 148595__neatonk__piano-med-g5.wav \, 148582__neatonk__piano-med-ab5.wav
\, 148538__neatonk__piano-med-a5.wav \, 148563__neatonk__piano-med-bb5.wav
\, 148589__neatonk__piano-med-b5.wav \, 148605__neatonk__piano-med-c6.wav
\, 148272__neatonk__piano-med-db6.wav \, 148275__neatonk__piano-med-d6.wav
\, 148579__neatonk__piano-med-eb6.wav \, 148575__neatonk__piano-med-e6.wav
\, 148591__neatonk__piano-med-f6.wav \, 148541__neatonk__piano-med-gb6.wav
\, 148542__neatonk__piano-med-g6.wav \, 148581__neatonk__piano-med-ab6.wav
\, 148537__neatonk__piano-med-a6.wav \, 148564__neatonk__piano-med-bb6.wav
\, 148561__neatonk__piano-med-b6.wav \, 148604__neatonk__piano-med-c7.wav
\, 148550__neatonk__piano-med-db7.wav \, 148274__neatonk__piano-med-d7.wav
\, 148543__neatonk__piano-med-eb7.wav \, 148577__neatonk__piano-med-e7.wav
\, 148572__neatonk__piano-med-f7.wav \, 148546__neatonk__piano-med-g7.wav
\, 148580__neatonk__piano-med-ab7.wav \, 148536__neatonk__piano-med-a7.wav
\, 148553__neatonk__piano-med-bb7.wav \, 148562__neatonk__piano-med-b7.wav
\, 148607__neatonk__piano-med-c8.wav;
#X obj -96 70 - 24;
#X text -58 68 shift low c to 0 \, transpose;
#X text 587 8 about 88 samples;
#X obj -116 35 poly 24 1;
#X text -173 352 24 note polyphony should be enough...;
#X obj -270 175 route 1 2 3 4 5 6 7 8 9 10 11 12 13 14 15 16 17 18
19 20 21 22 23 24;
#X msg 240 218 read -resize \$2\$1 \$3sp\$4 \$3spr\$4;
#X obj -219 478 abs_bigplayer1voice;
#X obj -64 849 outlet~;
#X obj -283 387 abs_bigplayer1voice;
#X obj -140 387 abs_bigplayer1voice;
#X obj -259 418 abs_bigplayer1voice;
#X obj -243 447 abs_bigplayer1voice;
#X obj -119 419 abs_bigplayer1voice;
#X obj -100 447 abs_bigplayer1voice;
#X obj -76 478 abs_bigplayer1voice;
#X obj -10 386 abs_bigplayer1voice;
#X obj 133 386 abs_bigplayer1voice;
#X obj 14 417 abs_bigplayer1voice;
#X obj 30 446 abs_bigplayer1voice;
#X obj 54 477 abs_bigplayer1voice;
#X obj 154 418 abs_bigplayer1voice;
#X obj 173 446 abs_bigplayer1voice;
#X obj 197 477 abs_bigplayer1voice;
#X obj -36 542 abs_bigplayer1voice;
#X obj 102 544 abs_bigplayer1voice;
#X obj -16 575 abs_bigplayer1voice;
#X obj 5 604 abs_bigplayer1voice;
#X obj 23 635 abs_bigplayer1voice;
#X obj 123 576 abs_bigplayer1voice;
#X obj 145 606 abs_bigplayer1voice;
#X obj 166 635 abs_bigplayer1voice;
#X obj 184 3 abs_bigplayer1tables;
#X obj -227 817 *~ 0.5;
#X obj -63 803 *~ 0.5;
#X text -116 -45 pitch \, velocity;
#X text 50 -35 stereo tabplay sampleplayer for up to 88 samples asigned
to 88 keys (a complete piano). 2013 martin brinkmann;
#X text 457 34 samplelist for neatonk piano available from freesounds.
e1 needs trimming and some names are mixed up from f7 on(?);
#X obj 557 -48 spigot 1;
#X obj 718 -39 spigot 0;
#X obj 472 -118 hradio 15 1 1 2 empty empty empty 0 -8 0 10 -262144
-1 -1 0;
#X obj 466 -79 == 0;
#X obj 500 -79 == 1;
#X msg 762 67 148477__neatonk__piano-loud-b0.wav \, 148427__neatonk__piano-loud-c1.wav
\, 148517__neatonk__piano-loud-db1.wav \, 148425__neatonk__piano-loud-d1.wav
\, 148497__neatonk__piano-loud-eb1.wav \, 148527__neatonk__piano-loud-e1.wav
\, 148492__neatonk__piano-loud-f1.wav \, 148440__neatonk__piano-loud-gb1.wav
\, 148502__neatonk__piano-loud-g1.wav \, 148490__neatonk__piano-loud-ab1.wav
\, 148483__neatonk__piano-loud-a1.wav \, 148423__neatonk__piano-loud-bb1.wav
\, 148476__neatonk__piano-loud-b1.wav \, 148430__neatonk__piano-loud-c2.wav
\, 148518__neatonk__piano-loud-db2.wav \, 148511__neatonk__piano-loud-d2.wav
\, 148498__neatonk__piano-loud-eb2.wav \, 148526__neatonk__piano-loud-e2.wav
\, 148499__neatonk__piano-loud-f2.wav \, 148441__neatonk__piano-loud-gb2.wav
\, 148501__neatonk__piano-loud-g2.wav \, 148489__neatonk__piano-loud-ab2.wav
\, 148482__neatonk__piano-loud-a2.wav \, 148424__neatonk__piano-loud-bb2.wav
\, 148475__neatonk__piano-loud-b2.wav \, 148429__neatonk__piano-loud-c3.wav
\, 148519__neatonk__piano-loud-db3.wav \, 148512__neatonk__piano-loud-d3.wav
\, 148495__neatonk__piano-loud-eb3.wav \, 148525__neatonk__piano-loud-e3.wav
\, 148500__neatonk__piano-loud-f3.wav \, 148442__neatonk__piano-loud-gb3.wav
\, 148504__neatonk__piano-loud-g3.wav \, 148474__neatonk__piano-loud-ab3.wav
\, 148481__neatonk__piano-loud-a3.wav \, 148407__neatonk__piano-loud-bb3.wav
\, 148480__neatonk__piano-loud-b3.wav \, 148432__neatonk__piano-loud-c4.wav
\, 148520__neatonk__piano-loud-db4.wav \, 148513__neatonk__piano-loud-d4.wav
\, 148496__neatonk__piano-loud-eb4.wav \, 148524__neatonk__piano-loud-e4.wav
\, 148506__neatonk__piano-loud-f4.wav \, 148435__neatonk__piano-loud-gb4.wav
\, 148503__neatonk__piano-loud-g4.wav \, 148473__neatonk__piano-loud-ab4.wav
\, 148488__neatonk__piano-loud-a4.wav \, 148408__neatonk__piano-loud-bb4.wav
\, 148479__neatonk__piano-loud-b4.wav \, 148431__neatonk__piano-loud-c5.wav
\, 148530__neatonk__piano-loud-db5.wav \, 148514__neatonk__piano-loud-d5.wav
\, 148493__neatonk__piano-loud-eb5.wav \, 148523__neatonk__piano-loud-e5.wav
\, 148505__neatonk__piano-loud-f5.wav \, 148436__neatonk__piano-loud-gb5.wav
\, 148510__neatonk__piano-loud-g5.wav \, 148472__neatonk__piano-loud-ab5.wav
\, 148487__neatonk__piano-loud-a5.wav \, 148401__neatonk__piano-loud-bb5.wav
\, 148405__neatonk__piano-loud-b5.wav \, 148434__neatonk__piano-loud-c6.wav
\, 148529__neatonk__piano-loud-db6.wav \, 148515__neatonk__piano-loud-d6.wav
\, 148494__neatonk__piano-loud-eb6.wav \, 148522__neatonk__piano-loud-e6.wav
\, 148508__neatonk__piano-loud-f6.wav \, 148437__neatonk__piano-loud-gb6.wav
\, 148509__neatonk__piano-loud-g6.wav \, 148471__neatonk__piano-loud-ab6.wav
\, 148486__neatonk__piano-loud-a6.wav \, 148402__neatonk__piano-loud-bb6.wav
\, 148406__neatonk__piano-loud-b6.wav \, 148433__neatonk__piano-loud-c7.wav
\, 148528__neatonk__piano-loud-db7.wav \, 148516__neatonk__piano-loud-d7.wav
\, 148491__neatonk__piano-loud-eb7.wav \, 148521__neatonk__piano-loud-e7.wav
\, 148507__neatonk__piano-loud-f7.wav \, 148438__neatonk__piano-loud-gb7.wav
\, 148439__neatonk__piano-loud-g7.wav \, 148478__neatonk__piano-loud-ab7.wav
\, 148485__neatonk__piano-loud-a7.wav \, 148428__neatonk__piano-loud-bb7.wav
\, 148403__neatonk__piano-loud-b7.wav \, 148426__neatonk__piano-loud-c8.wav
;
#X obj 444 -119 bng 15 250 50 0 empty empty empty 17 7 0 10 -262144
-1 -1;
#X text 822 46 bright (loud) version;
#X text 569 -116 sample path \, adjust to your needs;
#X connect 0 0 4 0;
#X connect 1 0 3 0;
#X connect 1 0 13 3;
#X connect 2 0 1 1;
#X connect 3 0 1 1;
#X connect 4 0 1 0;
#X connect 5 0 10 0;
#X connect 6 0 10 1;
#X connect 7 0 14 0;
#X connect 7 1 13 2;
#X connect 7 1 25 0;
#X connect 7 1 27 0;
#X connect 7 1 28 0;
#X connect 7 1 29 0;
#X connect 7 1 30 0;
#X connect 7 1 31 0;
#X connect 7 1 32 0;
#X connect 7 1 33 0;
#X connect 7 1 34 0;
#X connect 7 1 35 0;
#X connect 7 1 36 0;
#X connect 7 1 37 0;
#X connect 7 1 38 0;
#X connect 7 1 39 0;
#X connect 7 1 40 0;
#X connect 7 1 41 0;
#X connect 7 1 42 0;
#X connect 7 1 43 0;
#X connect 7 1 44 0;
#X connect 7 1 45 0;
#X connect 7 1 46 0;
#X connect 7 1 47 0;
#X connect 7 1 48 0;
#X connect 7 1 49 0;
#X connect 9 0 23 0;
#X connect 10 0 21 0;
#X connect 11 0 25 2;
#X connect 11 0 27 2;
#X connect 11 0 28 2;
#X connect 11 0 29 2;
#X connect 11 0 30 2;
#X connect 11 0 31 2;
#X connect 11 0 32 2;
#X connect 11 0 33 2;
#X connect 11 0 34 2;
#X connect 11 0 35 2;
#X connect 11 0 36 2;
#X connect 11 0 37 2;
#X connect 11 0 38 2;
#X connect 11 0 39 2;
#X connect 11 0 40 2;
#X connect 11 0 41 2;
#X connect 11 0 42 2;
#X connect 11 0 43 2;
#X connect 11 0 44 2;
#X connect 11 0 45 2;
#X connect 11 0 46 2;
#X connect 11 0 47 2;
#X connect 11 0 48 2;
#X connect 11 0 49 2;
#X connect 12 0 25 3;
#X connect 12 0 27 3;
#X connect 12 0 28 3;
#X connect 12 0 29 3;
#X connect 12 0 30 3;
#X connect 12 0 31 3;
#X connect 12 0 32 3;
#X connect 12 0 33 3;
#X connect 12 0 34 3;
#X connect 12 0 35 3;
#X connect 12 0 36 3;
#X connect 12 0 37 3;
#X connect 12 0 38 3;
#X connect 12 0 39 3;
#X connect 12 0 40 3;
#X connect 12 0 41 3;
#X connect 12 0 42 3;
#X connect 12 0 43 3;
#X connect 12 0 44 3;
#X connect 12 0 45 3;
#X connect 12 0 46 3;
#X connect 12 0 47 3;
#X connect 12 0 48 3;
#X connect 12 0 49 3;
#X connect 13 0 24 0;
#X connect 14 0 56 0;
#X connect 14 0 57 0;
#X connect 14 1 2 0;
#X connect 14 2 15 0;
#X connect 15 0 13 1;
#X connect 16 0 9 1;
#X connect 17 0 13 0;
#X connect 18 0 16 0;
#X connect 21 0 9 0;
#X connect 21 1 18 0;
#X connect 21 2 9 2;
#X connect 23 0 27 1;
#X connect 23 1 29 1;
#X connect 23 2 30 1;
#X connect 23 3 25 1;
#X connect 23 4 28 1;
#X connect 23 5 31 1;
#X connect 23 6 32 1;
#X connect 23 7 33 1;
#X connect 23 8 34 1;
#X connect 23 9 36 1;
#X connect 23 10 37 1;
#X connect 23 11 38 1;
#X connect 23 12 35 1;
#X connect 23 13 39 1;
#X connect 23 14 40 1;
#X connect 23 15 41 1;
#X connect 23 16 42 1;
#X connect 23 17 44 1;
#X connect 23 18 45 1;
#X connect 23 19 46 1;
#X connect 23 20 43 1;
#X connect 23 21 47 1;
#X connect 23 22 48 1;
#X connect 23 23 49 1;
#X connect 24 0 0 0;
#X connect 25 0 51 0;
#X connect 25 1 52 0;
#X connect 27 0 51 0;
#X connect 27 1 52 0;
#X connect 28 0 51 0;
#X connect 28 1 52 0;
#X connect 29 0 51 0;
#X connect 29 1 52 0;
#X connect 30 0 51 0;
#X connect 30 1 52 0;
#X connect 31 0 51 0;
#X connect 31 1 52 0;
#X connect 32 0 51 0;
#X connect 32 1 52 0;
#X connect 33 0 51 0;
#X connect 33 1 52 0;
#X connect 34 0 51 0;
#X connect 34 1 52 0;
#X connect 35 0 51 0;
#X connect 35 1 52 0;
#X connect 36 0 51 0;
#X connect 36 1 52 0;
#X connect 37 0 51 0;
#X connect 37 1 52 0;
#X connect 38 0 51 0;
#X connect 38 1 52 0;
#X connect 39 0 51 0;
#X connect 39 1 52 0;
#X connect 40 0 51 0;
#X connect 40 1 52 0;
#X connect 41 0 51 0;
#X connect 41 1 52 0;
#X connect 42 0 51 0;
#X connect 42 1 52 0;
#X connect 43 0 51 0;
#X connect 43 1 52 0;
#X connect 44 0 51 0;
#X connect 44 1 52 0;
#X connect 45 0 51 0;
#X connect 45 1 52 0;
#X connect 46 0 51 0;
#X connect 46 1 52 0;
#X connect 47 0 51 0;
#X connect 47 1 52 0;
#X connect 48 0 51 0;
#X connect 48 1 52 0;
#X connect 49 0 51 0;
#X connect 49 1 52 0;
#X connect 50 0 7 0;
#X connect 51 0 8 0;
#X connect 52 0 26 0;
#X connect 56 0 17 0;
#X connect 57 0 61 0;
#X connect 58 0 59 0;
#X connect 58 0 60 0;
#X connect 59 0 56 1;
#X connect 60 0 57 1;
#X connect 61 0 13 0;
#X connect 62 0 14 0;
#X coords 0 -1 1 1 110 40 1 100 100;
#X restore 438 477 pd bigplayer1;
#X floatatom 201 252 5 0 0 0 - - -;
#X floatatom 103 396 5 0 0 0 - - -;
#X obj 312 183 / 100;
#X obj 316 163 nbx 3 14 1 99 0 1 empty empty empty 0 -8 0 10 -262144
-1 -1 78 256;
#X obj 184 23 t b f;
#X obj 172 518 / 100;
#X obj 173 495 nbx 3 14 1 99 0 1 empty empty empty 0 -8 0 10 -262144
-1 -1 76 256;
#X msg 19 -51 bang;
#X obj -44 37 loadbang;
#X obj 688 75 nbx 2 14 0 7 0 1 empty empty empty 0 -8 0 10 -262144
-1 -1 2 256;
#X obj 747 29 nbx 2 14 0 11 0 1 empty empty empty 0 -8 0 10 -262144
-1 -1 8 256;
#X obj 698 96 pack f f;
#X obj 745 49 t b f;
#X obj 96 545 abs_mono_minimal_random_seq1;
#X obj 257 208 abs_mono_minimal_random_seq1;
#X obj 152 361 abs_mono_minimal_random_seq1;
#X obj 154 636 int;
#X obj 193 643 + 1;
#X obj 154 615 select 0;
#X obj 222 645 nbx 3 14 1 9999 0 1 empty empty empty 0 -8 0 10 -262144
-1 -1 39 256;
#X obj 181 667 mod;
#X floatatom 145 670 5 0 0 0 - - -;
#X obj 94 579 t b f;
#X msg 96 608 0;
#X floatatom 43 570 5 0 0 0 - - -;
#X obj 104 688 / 100;
#X obj 105 665 nbx 3 14 1 99 0 1 empty empty empty 0 -8 0 10 -262144
-1 -1 75 256;
#X obj 6 724 abs_mono_minimal_random_seq1;
#X obj 64 815 int;
#X obj 103 822 + 1;
#X obj 64 794 select 0;
#X obj 132 824 nbx 3 14 1 9999 0 1 empty empty empty 0 -8 0 10 -262144
-1 -1 39 256;
#X obj 91 846 mod;
#X floatatom 51 844 5 0 0 0 - - -;
#X obj 4 758 t b f;
#X msg 6 787 0;
#X floatatom -42 754 5 0 0 0 - - -;
#X obj 507 857 dac~;
#X obj 119 852 select 0;
#X obj 213 674 select 0;
#X obj 219 446 int;
#X obj 258 453 + 1;
#X obj 219 425 select 0;
#X obj 287 455 nbx 3 14 1 9999 0 1 empty empty empty 0 -8 0 10 -262144
-1 -1 22 256;
#X obj 246 477 mod;
#X floatatom 212 478 5 0 0 0 - - -;
#X obj 159 389 t b f;
#X msg 161 418 0;
#X obj 273 482 select 0;
#X obj 308 291 int;
#X obj 347 298 + 1;
#X obj 321 270 select 0;
#X obj 376 300 nbx 3 14 1 9999 0 1 empty empty empty 0 -8 0 10 -262144
-1 -1 17 256;
#X obj 335 322 mod;
#X floatatom 300 324 5 0 0 0 - - -;
#X obj 265 237 t b f;
#X msg 272 269 0;
#X obj 363 330 select 0;
#X obj 197 163 bng 15 250 50 0 empty empty empty 17 7 0 10 -262144
-1 -1;
#X obj 117 314 bng 15 250 50 0 empty empty empty 17 7 0 10 -262144
-1 -1;
#X obj 44 491 bng 15 250 50 0 empty empty empty 17 7 0 10 -262144 -1
-1;
#X obj -2 676 bng 15 250 50 0 empty empty empty 17 7 0 10 -262144 -1
-1;
#X obj 429 113 unpack f f f f;
#X msg 385 68 -12 0 12 24;
#X msg 418 46 -12 0 0 24;
#X msg 303 49 -12 0 12 12;
#X msg 474 70 -12 12 24 24;
#X obj 555 -31 random 4;
#X obj 555 -8 select 0;
#X obj 330 -39 bng 15 250 50 0 empty empty empty 17 7 0 10 -262144
-1 -1;
#X obj 749 7 random 12;
#X obj 676 28 random 7;
#X msg 494 43 -12 -12 0 24;
#X obj 332 17 select 0 1 2 3 4;
#X obj 331 -5 random 5;
#X obj 254 178 + 50;
#X obj 177 319 + 50;
#X obj 107 509 + 50;
#X obj 43 681 + 50;
#X obj 120 -30 + 60;
#X obj 116 -52 random 70;
#X obj 177 295 random 30;
#X obj 107 485 random 30;
#X obj 43 657 random 30;
#X obj 252 152 random 30;
#X obj 399 376 + 16;
#X obj 399 354 random 24;
#X obj 308 528 + 16;
#X obj 308 506 random 24;
#X obj 280 704 + 16;
#X obj 280 682 random 24;
#X obj 177 883 + 16;
#X obj 177 861 random 24;
#X text 543 341 four layers of monophonic random sequencers play simple
patterns with slight random variatons;
#X text 435 449 needs pianosamples from freesound.org;
#X obj 930 477 tgl 15 1 empty empty empty 17 7 0 10 -262144 -1 -1 0
1;
#X obj 742 551 spigot 0;
#X obj 807 551 spigot 0;
#N canvas 40 125 730 647 mym2schorus2 0;
#X obj 23 59 inlet~;
#X obj 466 487 outlet~;
#X obj 295 500 outlet~;
#X obj 197 264 cos~;
#X obj 197 291 +~ 1;
#X obj 290 225 +~ 0.25;
#X obj 304 254 cos~;
#X obj 309 284 +~ 1;
#X obj 369 69 phasor~;
#X obj 354 -14 loadbang;
#X msg 355 20 0.8;
#X obj 311 318 *~ 0.3;
#X obj 418 232 cos~;
#X obj 423 262 +~ 1;
#X obj 425 296 *~ 0.3;
#X obj 404 203 +~ 0.5;
#X obj 522 250 cos~;
#X obj 527 280 +~ 1;
#X obj 508 221 +~ 0.75;
#X obj 530 315 *~ 0.31;
#X obj 194 318 *~ 0.31;
#X obj 24 101 delwrite~ \$0mychr2 100;
#X obj 166 370 vd~ \$0mychr2;
#X obj 299 370 vd~ \$0mychr2;
#X obj 412 349 vd~ \$0mychr2;
#X obj 516 367 vd~ \$0mychr2;
#X connect 0 0 21 0;
#X connect 3 0 4 0;
#X connect 4 0 20 0;
#X connect 5 0 6 0;
#X connect 6 0 7 0;
#X connect 7 0 11 0;
#X connect 8 0 3 0;
#X connect 8 0 5 0;
#X connect 8 0 15 0;
#X connect 8 0 18 0;
#X connect 9 0 10 0;
#X connect 10 0 8 0;
#X connect 11 0 23 0;
#X connect 12 0 13 0;
#X connect 13 0 14 0;
#X connect 14 0 24 0;
#X connect 15 0 12 0;
#X connect 16 0 17 0;
#X connect 17 0 19 0;
#X connect 18 0 16 0;
#X connect 19 0 25 0;
#X connect 20 0 22 0;
#X connect 22 0 2 0;
#X connect 23 0 1 0;
#X connect 24 0 2 0;
#X connect 25 0 1 0;
#X restore 741 762 pd mym2schorus2;
#N canvas 219 124 1574 922 two_ops1p 0;
#X obj 240 118 vsl 12 81 0.1 1 0 1 empty empty a 2 4 0 8 -262144 -1
-1 400 1;
#X obj 254 118 vsl 12 81 0.1 1 0 1 empty empty d 2 4 0 8 -262144 -1
-1 4000 1;
#X obj 282 118 vsl 12 81 0.2 1 0 1 empty empty r 2 4 0 8 -262144 -1
-1 1500 1;
#X obj 268 118 vsl 12 81 0 1 0 1 empty empty s 2 4 0 8 -262144 -1 -1
1600 1;
#X obj 117 121 vradio 15 1 1 5 empty empty empty 0 -8 0 10 -262144
-1 -1 0;
#X obj -319 1029 outlet~;
#X obj -137 204 select 0 1 2 3 4;
#X msg -187 225 0 1 0 1 1 0;
#X msg -167 250 0.5 1.5 0 2 1 0;
#X msg -131 300 0 0.5 0.75 1 2 1;
#X msg -152 278 0 0.5 0.75 0.5 2 1;
#X msg -93 320 0.5 1 0 1 1 0;
#X obj 223 121 vradio 15 1 1 5 empty empty empty 0 -8 0 10 -262144
-1 -1 0;
#X obj 166 207 hsl 128 10 0 1 0 1 empty empty fm 0 6 0 10 -262144 -1
-1 7000 1;
#X obj 104 204 nbx 5 14 0.25 16 0 1 empty empty empty 0 -8 0 10 -262144
-1 -1 12 256;
#X obj 134 118 vsl 12 81 0.1 1 0 1 empty empty a 2 4 0 8 -262144 -1
-1 200 1;
#X obj 148 118 vsl 12 81 0.1 1 0 1 empty empty d 2 4 0 8 -262144 -1
-1 2000 1;
#X obj 176 118 vsl 12 81 0.2 1 0 1 empty empty r 2 4 0 8 -262144 -1
-1 600 1;
#X obj 162 118 vsl 12 81 0 1 0 1 empty empty s 2 4 0 8 -262144 -1 -1
1200 1;
#X obj 103 118 vsl 12 81 0 0.5 0 1 empty empty fb 2 4 0 8 -262144 -1
-1 4000 1;
#X obj 209 118 vsl 12 81 0 0.5 0 1 empty empty fb 2 4 0 8 -262144 -1
-1 1500 1;
#X obj 194 118 vsl 10 81 0 1 0 1 empty empty b 2 4 0 8 -262144 -1 -1
8000 1;
#X obj 212 103 hsl 80 10 -1 1 0 1 empty empty kt 0 6 0 10 -262144 -1
-1 3400 1;
#X obj -140 344 list;
#X obj -14 360 select 0 1 2 3 4;
#X msg -51 387 0 1 0 1 1 0;
#X msg -31 412 0.5 1.5 0 2 1 0;
#X msg 5 462 0 0.5 0.75 1 2 1;
#X msg -16 440 0 0.5 0.75 0.5 2 1;
#X msg 43 482 0.5 1 0 1 1 0;
#X obj -4 506 list;
#X obj -305 359 +;
#X obj -486 55 - 8192;
#X obj -486 100 clip -1 1;
#X obj -486 79 / 8192;
#X obj -339 330 int;
#X obj -484 129 * 2;
#X text -455 130 bend range;
#X obj -322 83 pack 0 0;
#X obj -317 302 unpack 0 0;
#X obj -344 145 pack 0 0 0;
#X obj -484 154 t b f;
#X obj -377 418 +;
#X obj -411 389 int;
#X obj -389 361 unpack 0 0;
#X obj -397 524 +;
#X obj -431 495 int;
#X obj -409 467 unpack 0 0;
#X obj -469 583 +;
#X obj -503 554 int;
#X obj -481 526 unpack 0 0;
#X obj -412 6 inlet;
#X obj -364 6 inlet;
#X obj -298 7 inlet;
#X obj 142 343 pack f f f f;
#X obj 136 321 float;
#X obj 157 267 t b f;
#X obj 199 279 t b f;
#X obj 241 291 t b f;
#N canvas 241 83 1172 851 two_ops_1_synth_voice 0;
#X obj -291 214 inlet;
#X obj -345 450 mtof;
#X obj -244 213 inlet;
#X obj 295 440 *;
#X obj 294 489 * 10000;
#X obj 296 466 *;
#X obj -244 236 clip 0 1;
#X obj 355 445 *;
#X obj 354 494 * 10000;
#X obj 356 471 *;
#X obj 403 467 *;
#X obj 402 516 * 10000;
#X obj 404 493 *;
#N canvas 100 80 1108 856 adsr1 0;
#X obj -143 147 inlet;
#X msg 15 502 0;
#X obj 63 365 pack f f;
#X msg -148 457 0.679688 4.42051;
#X msg 64 391 set \$1 \$2;
#X obj 125 589 >=;
#X msg 216 752 0.2 915.063;
#X obj 157 632 moses 0.001;
#X obj 150 406 pack f f;
#X msg 151 436 set \$1 \$2;
#X msg 170 319 bang;
#X msg 313 372 set 0 \$1;
#X msg -135 357 bang;
#X msg -136 523 0 150.062;
#X obj -145 184 clip 0 1;
#X obj -113 211 moses 0.001;
#X obj 18 565 line 0 1;
#X obj -20 376 t f f;
#X obj 9 720 spigot;
#X obj 228 693 delay 0;
#X obj -49 150 inlet;
#X text -8 150 att;
#X obj 22 153 inlet;
#X text 63 153 dec;
#X obj 93 150 inlet;
#X text 134 152 sus;
#X obj 170 152 inlet;
#X text 211 152 rel;
#X obj -95 781 outlet;
#X obj -3 199 t b f;
#X connect 0 0 14 0;
#X connect 1 0 16 0;
#X connect 2 0 4 0;
#X connect 3 0 16 0;
#X connect 4 0 3 0;
#X connect 5 0 7 0;
#X connect 6 0 18 0;
#X connect 7 1 19 0;
#X connect 8 0 9 0;
#X connect 9 0 6 0;
#X connect 10 0 8 0;
#X connect 11 0 13 0;
#X connect 12 0 13 0;
#X connect 13 0 16 0;
#X connect 14 0 15 0;
#X connect 14 0 18 1;
#X connect 15 0 12 0;
#X connect 15 1 2 0;
#X connect 15 1 17 0;
#X connect 16 0 5 0;
#X connect 16 0 28 0;
#X connect 17 0 3 0;
#X connect 17 1 5 1;
#X connect 17 1 1 0;
#X connect 18 0 16 0;
#X connect 19 0 6 0;
#X connect 20 0 2 1;
#X connect 20 0 29 0;
#X connect 22 0 10 0;
#X connect 22 0 8 1;
#X connect 24 0 10 0;
#X connect 24 0 8 0;
#X connect 26 0 11 0;
#X connect 29 0 2 0;
#X connect 29 1 2 1;
#X coords 0 0 1 1 120 160 0;
#X restore 309 569 pd adsr1;
#X text -294 199 pitch;
#X obj -82 816 *~;
#X obj -95 943 outlet~;
#X text -241 200 gate;
#X obj 310 611 line~;
#X msg 311 588 \$1 1.6;
#X obj -114 516 *;
#X obj -72 557 *;
#X obj -215 550 *;
#X obj -81 581 *;
#X obj -5 317 *;
#X obj -21 368 * 10000;
#X obj -19 345 *;
#X obj 30 338 *;
#X obj 29 387 * 10000;
#X obj 31 364 *;
#X obj 80 349 *;
#X obj 79 398 * 10000;
#X obj 81 375 *;
#N canvas 102 79 1108 856 adsr1 0;
#X obj -143 147 inlet;
#X msg 15 502 0;
#X obj 63 365 pack f f;
#X msg -148 457 0.679688 2.25188;
#X msg 64 391 set \$1 \$2;
#X obj 125 589 >=;
#X msg 216 752 0.15 111.566;
#X obj 157 632 moses 0.001;
#X obj 150 406 pack f f;
#X msg 151 436 set \$1 \$2;
#X msg 170 319 bang;
#X msg 313 372 set 0 \$1;
#X msg -135 357 bang;
#X msg -136 523 0 45.6976;
#X obj -145 184 clip 0 1;
#X obj -113 211 moses 0.001;
#X obj 18 565 line 0 1;
#X obj -20 376 t f f;
#X obj 9 720 spigot;
#X obj 228 693 delay 0;
#X obj -49 150 inlet;
#X text -8 150 att;
#X obj 22 153 inlet;
#X text 63 153 dec;
#X obj 93 150 inlet;
#X text 134 152 sus;
#X obj 170 152 inlet;
#X text 211 152 rel;
#X obj -95 781 outlet;
#X obj -3 199 t b f;
#X connect 0 0 14 0;
#X connect 1 0 16 0;
#X connect 2 0 4 0;
#X connect 3 0 16 0;
#X connect 4 0 3 0;
#X connect 5 0 7 0;
#X connect 6 0 18 0;
#X connect 7 1 19 0;
#X connect 8 0 9 0;
#X connect 9 0 6 0;
#X connect 10 0 8 0;
#X connect 11 0 13 0;
#X connect 12 0 13 0;
#X connect 13 0 16 0;
#X connect 14 0 15 0;
#X connect 14 0 18 1;
#X connect 15 0 12 0;
#X connect 15 1 2 0;
#X connect 15 1 17 0;
#X connect 16 0 5 0;
#X connect 16 0 28 0;
#X connect 17 0 3 0;
#X connect 17 1 5 1;
#X connect 17 1 1 0;
#X connect 18 0 16 0;
#X connect 19 0 6 0;
#X connect 20 0 2 1;
#X connect 20 0 29 0;
#X connect 22 0 10 0;
#X connect 22 0 8 1;
#X connect 24 0 10 0;
#X connect 24 0 8 0;
#X connect 26 0 11 0;
#X connect 29 0 2 0;
#X connect 29 1 2 1;
#X coords 0 0 1 1 120 160 0;
#X restore 12 486 pd adsr1;
#X obj 13 528 line~;
#X msg 14 505 \$1 1.6;
#X obj -119 768 abs_fm_op1;
#X obj -146 693 *~;
#X obj -167 662 *~;
#X obj -209 587 abs_fm_op1;
#X obj -24 573 *~;
#X obj 291 637 *~;
#X obj 58 671 *;
#X obj -96 916 +~;
#X obj -74 886 *~;
#X obj -136 889 *~;
#X obj -129 834 * -1;
#X obj -129 858 + 1;
#X obj -259 315 / 128;
#X obj -260 346 *;
#X text -291 157 2op fm voice;
#X obj -73 210 inlet;
#X text -77 187 fb1 0..0.5;
#X obj -9 211 inlet;
#X obj -124 215 inlet;
#X text -126 198 ratio;
#X obj -190 214 inlet;
#X text -191 195 keytrack;
#X obj 102 202 inlet;
#X obj 42 274 unpack f f f f;
#X obj 169 200 inlet;
#X text 170 186 balance;
#X obj 227 201 inlet;
#X text 226 188 fm;
#X text 100 187 adsr1 list;
#X text -2 191 waveparams1 list;
#X obj 288 199 inlet;
#X obj 354 199 inlet;
#X obj 463 198 inlet;
#X text 284 176 fb2 0..0.5;
#X text 361 179 waveparams2 list;
#X text 461 183 adsr2 list;
#X obj 444 286 unpack f f f f;
#X obj -115 664 +~;
#X obj -117 623 *~;
#X connect 0 0 1 0;
#X connect 0 0 48 0;
#X connect 1 0 22 0;
#X connect 1 0 36 0;
#X connect 2 0 6 0;
#X connect 3 0 5 1;
#X connect 3 0 5 0;
#X connect 4 0 13 1;
#X connect 5 0 4 0;
#X connect 6 0 13 0;
#X connect 6 0 33 0;
#X connect 7 0 9 1;
#X connect 7 0 9 0;
#X connect 8 0 13 2;
#X connect 9 0 8 0;
#X connect 10 0 12 1;
#X connect 10 0 12 0;
#X connect 11 0 13 4;
#X connect 12 0 11 0;
#X connect 13 0 19 0;
#X connect 15 0 44 0;
#X connect 18 0 41 0;
#X connect 18 0 41 1;
#X connect 19 0 18 0;
#X connect 20 0 39 3;
#X connect 21 0 23 1;
#X connect 21 0 23 0;
#X connect 22 0 39 0;
#X connect 23 0 73 1;
#X connect 23 0 74 1;
#X connect 24 0 26 1;
#X connect 24 0 26 0;
#X connect 25 0 33 1;
#X connect 26 0 25 0;
#X connect 27 0 29 1;
#X connect 27 0 29 0;
#X connect 28 0 33 2;
#X connect 29 0 28 0;
#X connect 30 0 32 1;
#X connect 30 0 32 0;
#X connect 31 0 33 4;
#X connect 32 0 31 0;
#X connect 33 0 35 0;
#X connect 34 0 40 0;
#X connect 34 0 40 1;
#X connect 35 0 34 0;
#X connect 36 0 15 0;
#X connect 37 0 36 1;
#X connect 38 0 37 0;
#X connect 38 0 45 0;
#X connect 39 0 38 0;
#X connect 40 0 38 1;
#X connect 41 0 15 1;
#X connect 42 0 36 3;
#X connect 43 0 16 0;
#X connect 44 0 43 1;
#X connect 45 0 43 0;
#X connect 46 0 47 0;
#X connect 47 0 45 1;
#X connect 48 0 49 0;
#X connect 49 0 74 0;
#X connect 51 0 20 1;
#X connect 51 0 20 0;
#X connect 53 0 39 2;
#X connect 54 0 22 1;
#X connect 56 0 49 1;
#X connect 58 0 59 0;
#X connect 59 0 24 1;
#X connect 59 0 24 0;
#X connect 59 1 27 1;
#X connect 59 1 27 0;
#X connect 59 2 33 3;
#X connect 59 3 30 1;
#X connect 59 3 30 0;
#X connect 60 0 44 1;
#X connect 60 0 46 0;
#X connect 62 0 21 1;
#X connect 62 0 21 0;
#X connect 66 0 42 1;
#X connect 66 0 42 0;
#X connect 67 0 36 2;
#X connect 68 0 72 0;
#X connect 72 0 3 1;
#X connect 72 0 3 0;
#X connect 72 1 7 1;
#X connect 72 1 7 0;
#X connect 72 2 13 3;
#X connect 72 3 10 1;
#X connect 72 3 10 0;
#X connect 73 0 37 1;
#X connect 74 0 73 0;
#X coords 0 851 1 850 200 120 0;
#X restore -345 844 pd two_ops_1_synth_voice;
#X obj 290 360 pack f f f f;
#X obj 284 338 float;
#X obj 305 284 t b f;
#X obj 347 296 t b f;
#X obj 389 308 t b f;
#N canvas 243 82 1172 851 two_ops_1_synth_voice 0;
#X obj -291 214 inlet;
#X obj -345 450 mtof;
#X obj -244 213 inlet;
#X obj 295 440 *;
#X obj 294 489 * 10000;
#X obj 296 466 *;
#X obj -244 236 clip 0 1;
#X obj 355 445 *;
#X obj 354 494 * 10000;
#X obj 356 471 *;
#X obj 403 467 *;
#X obj 402 516 * 10000;
#X obj 404 493 *;
#N canvas 100 80 1108 856 adsr1 0;
#X obj -143 147 inlet;
#X msg 15 502 0;
#X obj 63 365 pack f f;
#X msg -148 457 0.328125 4.42051;
#X msg 64 391 set \$1 \$2;
#X obj 125 589 >=;
#X msg 216 752 0.2 915.063;
#X obj 157 632 moses 0.001;
#X obj 150 406 pack f f;
#X msg 151 436 set \$1 \$2;
#X msg 170 319 bang;
#X msg 313 372 set 0 \$1;
#X msg -135 357 bang;
#X msg -136 523 0 150.062;
#X obj -145 184 clip 0 1;
#X obj -113 211 moses 0.001;
#X obj 18 565 line 0 1;
#X obj -20 376 t f f;
#X obj 9 720 spigot;
#X obj 228 693 delay 0;
#X obj -49 150 inlet;
#X text -8 150 att;
#X obj 22 153 inlet;
#X text 63 153 dec;
#X obj 93 150 inlet;
#X text 134 152 sus;
#X obj 170 152 inlet;
#X text 211 152 rel;
#X obj -95 781 outlet;
#X obj -3 199 t b f;
#X connect 0 0 14 0;
#X connect 1 0 16 0;
#X connect 2 0 4 0;
#X connect 3 0 16 0;
#X connect 4 0 3 0;
#X connect 5 0 7 0;
#X connect 6 0 18 0;
#X connect 7 1 19 0;
#X connect 8 0 9 0;
#X connect 9 0 6 0;
#X connect 10 0 8 0;
#X connect 11 0 13 0;
#X connect 12 0 13 0;
#X connect 13 0 16 0;
#X connect 14 0 15 0;
#X connect 14 0 18 1;
#X connect 15 0 12 0;
#X connect 15 1 2 0;
#X connect 15 1 17 0;
#X connect 16 0 5 0;
#X connect 16 0 28 0;
#X connect 17 0 3 0;
#X connect 17 1 5 1;
#X connect 17 1 1 0;
#X connect 18 0 16 0;
#X connect 19 0 6 0;
#X connect 20 0 2 1;
#X connect 20 0 29 0;
#X connect 22 0 10 0;
#X connect 22 0 8 1;
#X connect 24 0 10 0;
#X connect 24 0 8 0;
#X connect 26 0 11 0;
#X connect 29 0 2 0;
#X connect 29 1 2 1;
#X coords 0 0 1 1 120 160 0;
#X restore 309 569 pd adsr1;
#X text -294 199 pitch;
#X obj -82 816 *~;
#X obj -95 943 outlet~;
#X text -241 200 gate;
#X obj 310 611 line~;
#X msg 311 588 \$1 1.6;
#X obj -114 516 *;
#X obj -72 557 *;
#X obj -215 550 *;
#X obj -81 581 *;
#X obj -5 317 *;
#X obj -21 368 * 10000;
#X obj -19 345 *;
#X obj 30 338 *;
#X obj 29 387 * 10000;
#X obj 31 364 *;
#X obj 80 349 *;
#X obj 79 398 * 10000;
#X obj 81 375 *;
#N canvas 102 79 1108 856 adsr1 0;
#X obj -143 147 inlet;
#X msg 15 502 0;
#X obj 63 365 pack f f;
#X msg -148 457 0.328125 2.25188;
#X msg 64 391 set \$1 \$2;
#X obj 125 589 >=;
#X msg 216 752 0.15 111.566;
#X obj 157 632 moses 0.001;
#X obj 150 406 pack f f;
#X msg 151 436 set \$1 \$2;
#X msg 170 319 bang;
#X msg 313 372 set 0 \$1;
#X msg -135 357 bang;
#X msg -136 523 0 45.6976;
#X obj -145 184 clip 0 1;
#X obj -113 211 moses 0.001;
#X obj 18 565 line 0 1;
#X obj -20 376 t f f;
#X obj 9 720 spigot;
#X obj 228 693 delay 0;
#X obj -49 150 inlet;
#X text -8 150 att;
#X obj 22 153 inlet;
#X text 63 153 dec;
#X obj 93 150 inlet;
#X text 134 152 sus;
#X obj 170 152 inlet;
#X text 211 152 rel;
#X obj -95 781 outlet;
#X obj -3 199 t b f;
#X connect 0 0 14 0;
#X connect 1 0 16 0;
#X connect 2 0 4 0;
#X connect 3 0 16 0;
#X connect 4 0 3 0;
#X connect 5 0 7 0;
#X connect 6 0 18 0;
#X connect 7 1 19 0;
#X connect 8 0 9 0;
#X connect 9 0 6 0;
#X connect 10 0 8 0;
#X connect 11 0 13 0;
#X connect 12 0 13 0;
#X connect 13 0 16 0;
#X connect 14 0 15 0;
#X connect 14 0 18 1;
#X connect 15 0 12 0;
#X connect 15 1 2 0;
#X connect 15 1 17 0;
#X connect 16 0 5 0;
#X connect 16 0 28 0;
#X connect 17 0 3 0;
#X connect 17 1 5 1;
#X connect 17 1 1 0;
#X connect 18 0 16 0;
#X connect 19 0 6 0;
#X connect 20 0 2 1;
#X connect 20 0 29 0;
#X connect 22 0 10 0;
#X connect 22 0 8 1;
#X connect 24 0 10 0;
#X connect 24 0 8 0;
#X connect 26 0 11 0;
#X connect 29 0 2 0;
#X connect 29 1 2 1;
#X coords 0 0 1 1 120 160 0;
#X restore 12 486 pd adsr1;
#X obj 13 528 line~;
#X msg 14 505 \$1 1.6;
#X obj -119 768 abs_fm_op1;
#X obj -146 693 *~;
#X obj -167 662 *~;
#X obj -209 587 abs_fm_op1;
#X obj -24 573 *~;
#X obj 291 637 *~;
#X obj 58 671 *;
#X obj -96 916 +~;
#X obj -74 886 *~;
#X obj -136 889 *~;
#X obj -129 834 * -1;
#X obj -129 858 + 1;
#X obj -259 315 / 128;
#X obj -260 346 *;
#X text -291 157 2op fm voice;
#X obj -73 210 inlet;
#X text -77 187 fb1 0..0.5;
#X obj -9 211 inlet;
#X obj -124 215 inlet;
#X text -126 198 ratio;
#X obj -190 214 inlet;
#X text -191 195 keytrack;
#X obj 102 202 inlet;
#X obj 42 274 unpack f f f f;
#X obj 169 200 inlet;
#X text 170 186 balance;
#X obj 227 201 inlet;
#X text 226 188 fm;
#X text 100 187 adsr1 list;
#X text -2 191 waveparams1 list;
#X obj 288 199 inlet;
#X obj 354 199 inlet;
#X obj 463 198 inlet;
#X text 284 176 fb2 0..0.5;
#X text 361 179 waveparams2 list;
#X text 461 183 adsr2 list;
#X obj 444 286 unpack f f f f;
#X obj -115 664 +~;
#X obj -117 623 *~;
#X connect 0 0 1 0;
#X connect 0 0 48 0;
#X connect 1 0 22 0;
#X connect 1 0 36 0;
#X connect 2 0 6 0;
#X connect 3 0 5 1;
#X connect 3 0 5 0;
#X connect 4 0 13 1;
#X connect 5 0 4 0;
#X connect 6 0 13 0;
#X connect 6 0 33 0;
#X connect 7 0 9 1;
#X connect 7 0 9 0;
#X connect 8 0 13 2;
#X connect 9 0 8 0;
#X connect 10 0 12 1;
#X connect 10 0 12 0;
#X connect 11 0 13 4;
#X connect 12 0 11 0;
#X connect 13 0 19 0;
#X connect 15 0 44 0;
#X connect 18 0 41 0;
#X connect 18 0 41 1;
#X connect 19 0 18 0;
#X connect 20 0 39 3;
#X connect 21 0 23 1;
#X connect 21 0 23 0;
#X connect 22 0 39 0;
#X connect 23 0 73 1;
#X connect 23 0 74 1;
#X connect 24 0 26 1;
#X connect 24 0 26 0;
#X connect 25 0 33 1;
#X connect 26 0 25 0;
#X connect 27 0 29 1;
#X connect 27 0 29 0;
#X connect 28 0 33 2;
#X connect 29 0 28 0;
#X connect 30 0 32 1;
#X connect 30 0 32 0;
#X connect 31 0 33 4;
#X connect 32 0 31 0;
#X connect 33 0 35 0;
#X connect 34 0 40 0;
#X connect 34 0 40 1;
#X connect 35 0 34 0;
#X connect 36 0 15 0;
#X connect 37 0 36 1;
#X connect 38 0 37 0;
#X connect 38 0 45 0;
#X connect 39 0 38 0;
#X connect 40 0 38 1;
#X connect 41 0 15 1;
#X connect 42 0 36 3;
#X connect 43 0 16 0;
#X connect 44 0 43 1;
#X connect 45 0 43 0;
#X connect 46 0 47 0;
#X connect 47 0 45 1;
#X connect 48 0 49 0;
#X connect 49 0 74 0;
#X connect 51 0 20 1;
#X connect 51 0 20 0;
#X connect 53 0 39 2;
#X connect 54 0 22 1;
#X connect 56 0 49 1;
#X connect 58 0 59 0;
#X connect 59 0 24 1;
#X connect 59 0 24 0;
#X connect 59 1 27 1;
#X connect 59 1 27 0;
#X connect 59 2 33 3;
#X connect 59 3 30 1;
#X connect 59 3 30 0;
#X connect 60 0 44 1;
#X connect 60 0 46 0;
#X connect 62 0 21 1;
#X connect 62 0 21 0;
#X connect 66 0 42 1;
#X connect 66 0 42 0;
#X connect 67 0 36 2;
#X connect 68 0 72 0;
#X connect 72 0 3 1;
#X connect 72 0 3 0;
#X connect 72 1 7 1;
#X connect 72 1 7 0;
#X connect 72 2 13 3;
#X connect 72 3 10 1;
#X connect 72 3 10 0;
#X connect 73 0 37 1;
#X connect 74 0 73 0;
#X coords 0 851 1 850 200 120 0;
#X restore -185 846 pd two_ops_1_synth_voice;
#X obj -325 109 poly 4 1;
#N canvas 243 82 1172 851 two_ops_1_synth_voice 0;
#X obj -291 214 inlet;
#X obj -345 450 mtof;
#X obj -244 213 inlet;
#X obj 295 440 *;
#X obj 294 489 * 10000;
#X obj 296 466 *;
#X obj -244 236 clip 0 1;
#X obj 355 445 *;
#X obj 354 494 * 10000;
#X obj 356 471 *;
#X obj 403 467 *;
#X obj 402 516 * 10000;
#X obj 404 493 *;
#N canvas 100 80 1108 856 adsr1 0;
#X obj -143 147 inlet;
#X msg 15 502 0;
#X obj 63 365 pack f f;
#X msg -148 457 0 4.42051;
#X msg 64 391 set \$1 \$2;
#X obj 125 589 >=;
#X msg 216 752 0.2 915.063;
#X obj 157 632 moses 0.001;
#X obj 150 406 pack f f;
#X msg 151 436 set \$1 \$2;
#X msg 170 319 bang;
#X msg 313 372 set 0 \$1;
#X msg -135 357 bang;
#X msg -136 523 0 150.062;
#X obj -145 184 clip 0 1;
#X obj -113 211 moses 0.001;
#X obj 18 565 line 0 1;
#X obj -20 376 t f f;
#X obj 9 720 spigot;
#X obj 228 693 delay 0;
#X obj -49 150 inlet;
#X text -8 150 att;
#X obj 22 153 inlet;
#X text 63 153 dec;
#X obj 93 150 inlet;
#X text 134 152 sus;
#X obj 170 152 inlet;
#X text 211 152 rel;
#X obj -95 781 outlet;
#X obj -3 199 t b f;
#X connect 0 0 14 0;
#X connect 1 0 16 0;
#X connect 2 0 4 0;
#X connect 3 0 16 0;
#X connect 4 0 3 0;
#X connect 5 0 7 0;
#X connect 6 0 18 0;
#X connect 7 1 19 0;
#X connect 8 0 9 0;
#X connect 9 0 6 0;
#X connect 10 0 8 0;
#X connect 11 0 13 0;
#X connect 12 0 13 0;
#X connect 13 0 16 0;
#X connect 14 0 15 0;
#X connect 14 0 18 1;
#X connect 15 0 12 0;
#X connect 15 1 2 0;
#X connect 15 1 17 0;
#X connect 16 0 5 0;
#X connect 16 0 28 0;
#X connect 17 0 3 0;
#X connect 17 1 5 1;
#X connect 17 1 1 0;
#X connect 18 0 16 0;
#X connect 19 0 6 0;
#X connect 20 0 2 1;
#X connect 20 0 29 0;
#X connect 22 0 10 0;
#X connect 22 0 8 1;
#X connect 24 0 10 0;
#X connect 24 0 8 0;
#X connect 26 0 11 0;
#X connect 29 0 2 0;
#X connect 29 1 2 1;
#X coords 0 0 1 1 120 160 0;
#X restore 309 569 pd adsr1;
#X text -294 199 pitch;
#X obj -82 816 *~;
#X obj -95 943 outlet~;
#X text -241 200 gate;
#X obj 310 611 line~;
#X msg 311 588 \$1 1.6;
#X obj -114 516 *;
#X obj -72 557 *;
#X obj -215 550 *;
#X obj -81 581 *;
#X obj -5 317 *;
#X obj -21 368 * 10000;
#X obj -19 345 *;
#X obj 30 338 *;
#X obj 29 387 * 10000;
#X obj 31 364 *;
#X obj 80 349 *;
#X obj 79 398 * 10000;
#X obj 81 375 *;
#N canvas 102 79 1108 856 adsr1 0;
#X obj -143 147 inlet;
#X msg 15 502 0;
#X obj 63 365 pack f f;
#X msg -148 457 0 2.25188;
#X msg 64 391 set \$1 \$2;
#X obj 125 589 >=;
#X msg 216 752 0.15 111.566;
#X obj 157 632 moses 0.001;
#X obj 150 406 pack f f;
#X msg 151 436 set \$1 \$2;
#X msg 170 319 bang;
#X msg 313 372 set 0 \$1;
#X msg -135 357 bang;
#X msg -136 523 0 45.6976;
#X obj -145 184 clip 0 1;
#X obj -113 211 moses 0.001;
#X obj 18 565 line 0 1;
#X obj -20 376 t f f;
#X obj 9 720 spigot;
#X obj 228 693 delay 0;
#X obj -49 150 inlet;
#X text -8 150 att;
#X obj 22 153 inlet;
#X text 63 153 dec;
#X obj 93 150 inlet;
#X text 134 152 sus;
#X obj 170 152 inlet;
#X text 211 152 rel;
#X obj -95 781 outlet;
#X obj -3 199 t b f;
#X connect 0 0 14 0;
#X connect 1 0 16 0;
#X connect 2 0 4 0;
#X connect 3 0 16 0;
#X connect 4 0 3 0;
#X connect 5 0 7 0;
#X connect 6 0 18 0;
#X connect 7 1 19 0;
#X connect 8 0 9 0;
#X connect 9 0 6 0;
#X connect 10 0 8 0;
#X connect 11 0 13 0;
#X connect 12 0 13 0;
#X connect 13 0 16 0;
#X connect 14 0 15 0;
#X connect 14 0 18 1;
#X connect 15 0 12 0;
#X connect 15 1 2 0;
#X connect 15 1 17 0;
#X connect 16 0 5 0;
#X connect 16 0 28 0;
#X connect 17 0 3 0;
#X connect 17 1 5 1;
#X connect 17 1 1 0;
#X connect 18 0 16 0;
#X connect 19 0 6 0;
#X connect 20 0 2 1;
#X connect 20 0 29 0;
#X connect 22 0 10 0;
#X connect 22 0 8 1;
#X connect 24 0 10 0;
#X connect 24 0 8 0;
#X connect 26 0 11 0;
#X connect 29 0 2 0;
#X connect 29 1 2 1;
#X coords 0 0 1 1 120 160 0;
#X restore 12 486 pd adsr1;
#X obj 13 528 line~;
#X msg 14 505 \$1 1.6;
#X obj -119 768 abs_fm_op1;
#X obj -146 693 *~;
#X obj -167 662 *~;
#X obj -209 587 abs_fm_op1;
#X obj -24 573 *~;
#X obj 291 637 *~;
#X obj 58 671 *;
#X obj -96 916 +~;
#X obj -74 886 *~;
#X obj -136 889 *~;
#X obj -129 834 * -1;
#X obj -129 858 + 1;
#X obj -259 315 / 128;
#X obj -260 346 *;
#X text -291 157 2op fm voice;
#X obj -73 210 inlet;
#X text -77 187 fb1 0..0.5;
#X obj -9 211 inlet;
#X obj -124 215 inlet;
#X text -126 198 ratio;
#X obj -190 214 inlet;
#X text -191 195 keytrack;
#X obj 102 202 inlet;
#X obj 42 274 unpack f f f f;
#X obj 169 200 inlet;
#X text 170 186 balance;
#X obj 227 201 inlet;
#X text 226 188 fm;
#X text 100 187 adsr1 list;
#X text -2 191 waveparams1 list;
#X obj 288 199 inlet;
#X obj 354 199 inlet;
#X obj 463 198 inlet;
#X text 284 176 fb2 0..0.5;
#X text 361 179 waveparams2 list;
#X text 461 183 adsr2 list;
#X obj 444 286 unpack f f f f;
#X obj -115 664 +~;
#X obj -117 623 *~;
#X connect 0 0 1 0;
#X connect 0 0 48 0;
#X connect 1 0 22 0;
#X connect 1 0 36 0;
#X connect 2 0 6 0;
#X connect 3 0 5 1;
#X connect 3 0 5 0;
#X connect 4 0 13 1;
#X connect 5 0 4 0;
#X connect 6 0 13 0;
#X connect 6 0 33 0;
#X connect 7 0 9 1;
#X connect 7 0 9 0;
#X connect 8 0 13 2;
#X connect 9 0 8 0;
#X connect 10 0 12 1;
#X connect 10 0 12 0;
#X connect 11 0 13 4;
#X connect 12 0 11 0;
#X connect 13 0 19 0;
#X connect 15 0 44 0;
#X connect 18 0 41 0;
#X connect 18 0 41 1;
#X connect 19 0 18 0;
#X connect 20 0 39 3;
#X connect 21 0 23 1;
#X connect 21 0 23 0;
#X connect 22 0 39 0;
#X connect 23 0 73 1;
#X connect 23 0 74 1;
#X connect 24 0 26 1;
#X connect 24 0 26 0;
#X connect 25 0 33 1;
#X connect 26 0 25 0;
#X connect 27 0 29 1;
#X connect 27 0 29 0;
#X connect 28 0 33 2;
#X connect 29 0 28 0;
#X connect 30 0 32 1;
#X connect 30 0 32 0;
#X connect 31 0 33 4;
#X connect 32 0 31 0;
#X connect 33 0 35 0;
#X connect 34 0 40 0;
#X connect 34 0 40 1;
#X connect 35 0 34 0;
#X connect 36 0 15 0;
#X connect 37 0 36 1;
#X connect 38 0 37 0;
#X connect 38 0 45 0;
#X connect 39 0 38 0;
#X connect 40 0 38 1;
#X connect 41 0 15 1;
#X connect 42 0 36 3;
#X connect 43 0 16 0;
#X connect 44 0 43 1;
#X connect 45 0 43 0;
#X connect 46 0 47 0;
#X connect 47 0 45 1;
#X connect 48 0 49 0;
#X connect 49 0 74 0;
#X connect 51 0 20 1;
#X connect 51 0 20 0;
#X connect 53 0 39 2;
#X connect 54 0 22 1;
#X connect 56 0 49 1;
#X connect 58 0 59 0;
#X connect 59 0 24 1;
#X connect 59 0 24 0;
#X connect 59 1 27 1;
#X connect 59 1 27 0;
#X connect 59 2 33 3;
#X connect 59 3 30 1;
#X connect 59 3 30 0;
#X connect 60 0 44 1;
#X connect 60 0 46 0;
#X connect 62 0 21 1;
#X connect 62 0 21 0;
#X connect 66 0 42 1;
#X connect 66 0 42 0;
#X connect 67 0 36 2;
#X connect 68 0 72 0;
#X connect 72 0 3 1;
#X connect 72 0 3 0;
#X connect 72 1 7 1;
#X connect 72 1 7 0;
#X connect 72 2 13 3;
#X connect 72 3 10 1;
#X connect 72 3 10 0;
#X connect 73 0 37 1;
#X connect 74 0 73 0;
#X coords 0 851 1 850 200 120 0;
#X restore -26 844 pd two_ops_1_synth_voice;
#N canvas 241 83 1172 851 two_ops_1_synth_voice 0;
#X obj -291 214 inlet;
#X obj -345 450 mtof;
#X obj -244 213 inlet;
#X obj 295 440 *;
#X obj 294 489 * 10000;
#X obj 296 466 *;
#X obj -244 236 clip 0 1;
#X obj 355 445 *;
#X obj 354 494 * 10000;
#X obj 356 471 *;
#X obj 403 467 *;
#X obj 402 516 * 10000;
#X obj 404 493 *;
#N canvas 100 80 1108 856 adsr1 0;
#X obj -143 147 inlet;
#X msg 15 502 0;
#X obj 63 365 pack f f;
#X msg -148 457 0 4.42051;
#X msg 64 391 set \$1 \$2;
#X obj 125 589 >=;
#X msg 216 752 0.2 915.063;
#X obj 157 632 moses 0.001;
#X obj 150 406 pack f f;
#X msg 151 436 set \$1 \$2;
#X msg 170 319 bang;
#X msg 313 372 set 0 \$1;
#X msg -135 357 bang;
#X msg -136 523 0 150.062;
#X obj -145 184 clip 0 1;
#X obj -113 211 moses 0.001;
#X obj 18 565 line 0 1;
#X obj -20 376 t f f;
#X obj 9 720 spigot;
#X obj 228 693 delay 0;
#X obj -49 150 inlet;
#X text -8 150 att;
#X obj 22 153 inlet;
#X text 63 153 dec;
#X obj 93 150 inlet;
#X text 134 152 sus;
#X obj 170 152 inlet;
#X text 211 152 rel;
#X obj -95 781 outlet;
#X obj -3 199 t b f;
#X connect 0 0 14 0;
#X connect 1 0 16 0;
#X connect 2 0 4 0;
#X connect 3 0 16 0;
#X connect 4 0 3 0;
#X connect 5 0 7 0;
#X connect 6 0 18 0;
#X connect 7 1 19 0;
#X connect 8 0 9 0;
#X connect 9 0 6 0;
#X connect 10 0 8 0;
#X connect 11 0 13 0;
#X connect 12 0 13 0;
#X connect 13 0 16 0;
#X connect 14 0 15 0;
#X connect 14 0 18 1;
#X connect 15 0 12 0;
#X connect 15 1 2 0;
#X connect 15 1 17 0;
#X connect 16 0 5 0;
#X connect 16 0 28 0;
#X connect 17 0 3 0;
#X connect 17 1 5 1;
#X connect 17 1 1 0;
#X connect 18 0 16 0;
#X connect 19 0 6 0;
#X connect 20 0 2 1;
#X connect 20 0 29 0;
#X connect 22 0 10 0;
#X connect 22 0 8 1;
#X connect 24 0 10 0;
#X connect 24 0 8 0;
#X connect 26 0 11 0;
#X connect 29 0 2 0;
#X connect 29 1 2 1;
#X coords 0 0 1 1 120 160 0;
#X restore 309 569 pd adsr1;
#X text -294 199 pitch;
#X obj -82 816 *~;
#X obj -95 943 outlet~;
#X text -241 200 gate;
#X obj 310 611 line~;
#X msg 311 588 \$1 1.6;
#X obj -114 516 *;
#X obj -72 557 *;
#X obj -215 550 *;
#X obj -81 581 *;
#X obj -5 317 *;
#X obj -21 368 * 10000;
#X obj -19 345 *;
#X obj 30 338 *;
#X obj 29 387 * 10000;
#X obj 31 364 *;
#X obj 80 349 *;
#X obj 79 398 * 10000;
#X obj 81 375 *;
#N canvas 102 79 1108 856 adsr1 0;
#X obj -143 147 inlet;
#X msg 15 502 0;
#X obj 63 365 pack f f;
#X msg -148 457 0 2.25188;
#X msg 64 391 set \$1 \$2;
#X obj 125 589 >=;
#X msg 216 752 0.15 111.566;
#X obj 157 632 moses 0.001;
#X obj 150 406 pack f f;
#X msg 151 436 set \$1 \$2;
#X msg 170 319 bang;
#X msg 313 372 set 0 \$1;
#X msg -135 357 bang;
#X msg -136 523 0 45.6976;
#X obj -145 184 clip 0 1;
#X obj -113 211 moses 0.001;
#X obj 18 565 line 0 1;
#X obj -20 376 t f f;
#X obj 9 720 spigot;
#X obj 228 693 delay 0;
#X obj -49 150 inlet;
#X text -8 150 att;
#X obj 22 153 inlet;
#X text 63 153 dec;
#X obj 93 150 inlet;
#X text 134 152 sus;
#X obj 170 152 inlet;
#X text 211 152 rel;
#X obj -95 781 outlet;
#X obj -3 199 t b f;
#X connect 0 0 14 0;
#X connect 1 0 16 0;
#X connect 2 0 4 0;
#X connect 3 0 16 0;
#X connect 4 0 3 0;
#X connect 5 0 7 0;
#X connect 6 0 18 0;
#X connect 7 1 19 0;
#X connect 8 0 9 0;
#X connect 9 0 6 0;
#X connect 10 0 8 0;
#X connect 11 0 13 0;
#X connect 12 0 13 0;
#X connect 13 0 16 0;
#X connect 14 0 15 0;
#X connect 14 0 18 1;
#X connect 15 0 12 0;
#X connect 15 1 2 0;
#X connect 15 1 17 0;
#X connect 16 0 5 0;
#X connect 16 0 28 0;
#X connect 17 0 3 0;
#X connect 17 1 5 1;
#X connect 17 1 1 0;
#X connect 18 0 16 0;
#X connect 19 0 6 0;
#X connect 20 0 2 1;
#X connect 20 0 29 0;
#X connect 22 0 10 0;
#X connect 22 0 8 1;
#X connect 24 0 10 0;
#X connect 24 0 8 0;
#X connect 26 0 11 0;
#X connect 29 0 2 0;
#X connect 29 1 2 1;
#X coords 0 0 1 1 120 160 0;
#X restore 12 486 pd adsr1;
#X obj 13 528 line~;
#X msg 14 505 \$1 1.6;
#X obj -119 768 abs_fm_op1;
#X obj -146 693 *~;
#X obj -167 662 *~;
#X obj -209 587 abs_fm_op1;
#X obj -24 573 *~;
#X obj 291 637 *~;
#X obj 58 671 *;
#X obj -96 916 +~;
#X obj -74 886 *~;
#X obj -136 889 *~;
#X obj -129 834 * -1;
#X obj -129 858 + 1;
#X obj -259 315 / 128;
#X obj -260 346 *;
#X text -291 157 2op fm voice;
#X obj -73 210 inlet;
#X text -77 187 fb1 0..0.5;
#X obj -9 211 inlet;
#X obj -124 215 inlet;
#X text -126 198 ratio;
#X obj -190 214 inlet;
#X text -191 195 keytrack;
#X obj 102 202 inlet;
#X obj 42 274 unpack f f f f;
#X obj 169 200 inlet;
#X text 170 186 balance;
#X obj 227 201 inlet;
#X text 226 188 fm;
#X text 100 187 adsr1 list;
#X text -2 191 waveparams1 list;
#X obj 288 199 inlet;
#X obj 354 199 inlet;
#X obj 463 198 inlet;
#X text 284 176 fb2 0..0.5;
#X text 361 179 waveparams2 list;
#X text 461 183 adsr2 list;
#X obj 444 286 unpack f f f f;
#X obj -115 664 +~;
#X obj -117 623 *~;
#X connect 0 0 1 0;
#X connect 0 0 48 0;
#X connect 1 0 22 0;
#X connect 1 0 36 0;
#X connect 2 0 6 0;
#X connect 3 0 5 1;
#X connect 3 0 5 0;
#X connect 4 0 13 1;
#X connect 5 0 4 0;
#X connect 6 0 13 0;
#X connect 6 0 33 0;
#X connect 7 0 9 1;
#X connect 7 0 9 0;
#X connect 8 0 13 2;
#X connect 9 0 8 0;
#X connect 10 0 12 1;
#X connect 10 0 12 0;
#X connect 11 0 13 4;
#X connect 12 0 11 0;
#X connect 13 0 19 0;
#X connect 15 0 44 0;
#X connect 18 0 41 0;
#X connect 18 0 41 1;
#X connect 19 0 18 0;
#X connect 20 0 39 3;
#X connect 21 0 23 1;
#X connect 21 0 23 0;
#X connect 22 0 39 0;
#X connect 23 0 73 1;
#X connect 23 0 74 1;
#X connect 24 0 26 1;
#X connect 24 0 26 0;
#X connect 25 0 33 1;
#X connect 26 0 25 0;
#X connect 27 0 29 1;
#X connect 27 0 29 0;
#X connect 28 0 33 2;
#X connect 29 0 28 0;
#X connect 30 0 32 1;
#X connect 30 0 32 0;
#X connect 31 0 33 4;
#X connect 32 0 31 0;
#X connect 33 0 35 0;
#X connect 34 0 40 0;
#X connect 34 0 40 1;
#X connect 35 0 34 0;
#X connect 36 0 15 0;
#X connect 37 0 36 1;
#X connect 38 0 37 0;
#X connect 38 0 45 0;
#X connect 39 0 38 0;
#X connect 40 0 38 1;
#X connect 41 0 15 1;
#X connect 42 0 36 3;
#X connect 43 0 16 0;
#X connect 44 0 43 1;
#X connect 45 0 43 0;
#X connect 46 0 47 0;
#X connect 47 0 45 1;
#X connect 48 0 49 0;
#X connect 49 0 74 0;
#X connect 51 0 20 1;
#X connect 51 0 20 0;
#X connect 53 0 39 2;
#X connect 54 0 22 1;
#X connect 56 0 49 1;
#X connect 58 0 59 0;
#X connect 59 0 24 1;
#X connect 59 0 24 0;
#X connect 59 1 27 1;
#X connect 59 1 27 0;
#X connect 59 2 33 3;
#X connect 59 3 30 1;
#X connect 59 3 30 0;
#X connect 60 0 44 1;
#X connect 60 0 46 0;
#X connect 62 0 21 1;
#X connect 62 0 21 0;
#X connect 66 0 42 1;
#X connect 66 0 42 0;
#X connect 67 0 36 2;
#X connect 68 0 72 0;
#X connect 72 0 3 1;
#X connect 72 0 3 0;
#X connect 72 1 7 1;
#X connect 72 1 7 0;
#X connect 72 2 13 3;
#X connect 72 3 10 1;
#X connect 72 3 10 0;
#X connect 73 0 37 1;
#X connect 74 0 73 0;
#X coords 0 851 1 850 200 120 0;
#X restore 134 846 pd two_ops_1_synth_voice;
#X obj 378 406 float;
#X text -408 -13 pitch;
#X text -366 -14 gate;
#X text -299 -10 bend;
#X obj -249 5 inlet;
#X text -244 -12 mod;
#X obj 104 -2 inlet;
#X text 102 -18 preset;
#X obj 401 546 outlet;
#X obj 301 202 bng 15 250 50 0 empty empty v 5 8 0 10 -262144 -1 -1
;
#X text 398 564 preset;
#X obj 297 113 vsl 10 81 -1 1 0 1 empty empty m1 1 4 0 8 -262144 -1
-1 3100 1;
#X obj 99 36 unpack f f f f f f f f f f f f f f f f f f;
#X obj 308 113 vsl 10 81 -0.5 0.5 0 1 empty empty m2 1 4 0 8 -262144
-1 -1 3000 1;
#X obj 398 442 pack f f f f f f f f f f f f f f f f f f;
#X msg 400 477 set \$1 \$2 \$3 \$4 \$5 \$6 \$7 \$8 \$9 \$10 \$11 \$12
\$13 \$14 \$15 \$16 \$17 \$18;
#X obj -244 69 t b f;
#X obj -267 479 *;
#X obj -280 500 +;
#X obj -172 71 *;
#X obj -176 98 *;
#X obj -247 42 / 128;
#X obj -95 68 *;
#X obj -99 95 *;
#X obj -209 419 *;
#X obj -238 471 +;
#X obj -238 499 clip 0 0.5;
#X obj -169 469 +;
#X obj -169 497 clip 0 0.5;
#X text -300 449 fm mod;
#X text -214 448 fb mod;
#N canvas 241 83 1172 851 two_ops_1_synth_voice 0;
#X obj -291 214 inlet;
#X obj -345 450 mtof;
#X obj -244 213 inlet;
#X obj 295 440 *;
#X obj 294 489 * 10000;
#X obj 296 466 *;
#X obj -244 236 clip 0 1;
#X obj 355 445 *;
#X obj 354 494 * 10000;
#X obj 356 471 *;
#X obj 403 467 *;
#X obj 402 516 * 10000;
#X obj 404 493 *;
#N canvas 100 80 1108 856 adsr1 0;
#X obj -143 147 inlet;
#X msg 15 502 0;
#X obj 63 365 pack f f;
#X msg -148 457 0.921875 4.42051;
#X msg 64 391 set \$1 \$2;
#X obj 125 589 >=;
#X msg 216 752 0.2 915.063;
#X obj 157 632 moses 0.001;
#X obj 150 406 pack f f;
#X msg 151 436 set \$1 \$2;
#X msg 170 319 bang;
#X msg 313 372 set 0 \$1;
#X msg -135 357 bang;
#X msg -136 523 0 150.062;
#X obj -145 184 clip 0 1;
#X obj -113 211 moses 0.001;
#X obj 18 565 line 0 1;
#X obj -20 376 t f f;
#X obj 9 720 spigot;
#X obj 228 693 delay 0;
#X obj -49 150 inlet;
#X text -8 150 att;
#X obj 22 153 inlet;
#X text 63 153 dec;
#X obj 93 150 inlet;
#X text 134 152 sus;
#X obj 170 152 inlet;
#X text 211 152 rel;
#X obj -95 781 outlet;
#X obj -3 199 t b f;
#X connect 0 0 14 0;
#X connect 1 0 16 0;
#X connect 2 0 4 0;
#X connect 3 0 16 0;
#X connect 4 0 3 0;
#X connect 5 0 7 0;
#X connect 6 0 18 0;
#X connect 7 1 19 0;
#X connect 8 0 9 0;
#X connect 9 0 6 0;
#X connect 10 0 8 0;
#X connect 11 0 13 0;
#X connect 12 0 13 0;
#X connect 13 0 16 0;
#X connect 14 0 15 0;
#X connect 14 0 18 1;
#X connect 15 0 12 0;
#X connect 15 1 2 0;
#X connect 15 1 17 0;
#X connect 16 0 5 0;
#X connect 16 0 28 0;
#X connect 17 0 3 0;
#X connect 17 1 5 1;
#X connect 17 1 1 0;
#X connect 18 0 16 0;
#X connect 19 0 6 0;
#X connect 20 0 2 1;
#X connect 20 0 29 0;
#X connect 22 0 10 0;
#X connect 22 0 8 1;
#X connect 24 0 10 0;
#X connect 24 0 8 0;
#X connect 26 0 11 0;
#X connect 29 0 2 0;
#X connect 29 1 2 1;
#X coords 0 0 1 1 120 160 0;
#X restore 309 569 pd adsr1;
#X text -294 199 pitch;
#X obj -82 816 *~;
#X obj -95 943 outlet~;
#X text -241 200 gate;
#X obj 310 611 line~;
#X msg 311 588 \$1 1.6;
#X obj -114 516 *;
#X obj -72 557 *;
#X obj -215 550 *;
#X obj -81 581 *;
#X obj -5 317 *;
#X obj -21 368 * 10000;
#X obj -19 345 *;
#X obj 30 338 *;
#X obj 29 387 * 10000;
#X obj 31 364 *;
#X obj 80 349 *;
#X obj 79 398 * 10000;
#X obj 81 375 *;
#N canvas 102 79 1108 856 adsr1 0;
#X obj -143 147 inlet;
#X msg 15 502 0;
#X obj 63 365 pack f f;
#X msg -148 457 0.921875 2.25188;
#X msg 64 391 set \$1 \$2;
#X obj 125 589 >=;
#X msg 216 752 0.15 111.566;
#X obj 157 632 moses 0.001;
#X obj 150 406 pack f f;
#X msg 151 436 set \$1 \$2;
#X msg 170 319 bang;
#X msg 313 372 set 0 \$1;
#X msg -135 357 bang;
#X msg -136 523 0 45.6976;
#X obj -145 184 clip 0 1;
#X obj -113 211 moses 0.001;
#X obj 18 565 line 0 1;
#X obj -20 376 t f f;
#X obj 9 720 spigot;
#X obj 228 693 delay 0;
#X obj -49 150 inlet;
#X text -8 150 att;
#X obj 22 153 inlet;
#X text 63 153 dec;
#X obj 93 150 inlet;
#X text 134 152 sus;
#X obj 170 152 inlet;
#X text 211 152 rel;
#X obj -95 781 outlet;
#X obj -3 199 t b f;
#X connect 0 0 14 0;
#X connect 1 0 16 0;
#X connect 2 0 4 0;
#X connect 3 0 16 0;
#X connect 4 0 3 0;
#X connect 5 0 7 0;
#X connect 6 0 18 0;
#X connect 7 1 19 0;
#X connect 8 0 9 0;
#X connect 9 0 6 0;
#X connect 10 0 8 0;
#X connect 11 0 13 0;
#X connect 12 0 13 0;
#X connect 13 0 16 0;
#X connect 14 0 15 0;
#X connect 14 0 18 1;
#X connect 15 0 12 0;
#X connect 15 1 2 0;
#X connect 15 1 17 0;
#X connect 16 0 5 0;
#X connect 16 0 28 0;
#X connect 17 0 3 0;
#X connect 17 1 5 1;
#X connect 17 1 1 0;
#X connect 18 0 16 0;
#X connect 19 0 6 0;
#X connect 20 0 2 1;
#X connect 20 0 29 0;
#X connect 22 0 10 0;
#X connect 22 0 8 1;
#X connect 24 0 10 0;
#X connect 24 0 8 0;
#X connect 26 0 11 0;
#X connect 29 0 2 0;
#X connect 29 1 2 1;
#X coords 0 0 1 1 120 160 0;
#X restore 12 486 pd adsr1;
#X obj 13 528 line~;
#X msg 14 505 \$1 1.6;
#X obj -119 768 abs_fm_op1;
#X obj -146 693 *~;
#X obj -167 662 *~;
#X obj -209 587 abs_fm_op1;
#X obj -24 573 *~;
#X obj 291 637 *~;
#X obj 58 671 *;
#X obj -96 916 +~;
#X obj -74 886 *~;
#X obj -136 889 *~;
#X obj -129 834 * -1;
#X obj -129 858 + 1;
#X obj -259 315 / 128;
#X obj -260 346 *;
#X text -291 157 2op fm voice;
#X obj -73 210 inlet;
#X text -77 187 fb1 0..0.5;
#X obj -9 211 inlet;
#X obj -124 215 inlet;
#X text -126 198 ratio;
#X obj -190 214 inlet;
#X text -191 195 keytrack;
#X obj 102 202 inlet;
#X obj 42 274 unpack f f f f;
#X obj 169 200 inlet;
#X text 170 186 balance;
#X obj 227 201 inlet;
#X text 226 188 fm;
#X text 100 187 adsr1 list;
#X text -2 191 waveparams1 list;
#X obj 288 199 inlet;
#X obj 354 199 inlet;
#X obj 463 198 inlet;
#X text 284 176 fb2 0..0.5;
#X text 361 179 waveparams2 list;
#X text 461 183 adsr2 list;
#X obj 444 286 unpack f f f f;
#X obj -115 664 +~;
#X obj -117 623 *~;
#X connect 0 0 1 0;
#X connect 0 0 48 0;
#X connect 1 0 22 0;
#X connect 1 0 36 0;
#X connect 2 0 6 0;
#X connect 3 0 5 1;
#X connect 3 0 5 0;
#X connect 4 0 13 1;
#X connect 5 0 4 0;
#X connect 6 0 13 0;
#X connect 6 0 33 0;
#X connect 7 0 9 1;
#X connect 7 0 9 0;
#X connect 8 0 13 2;
#X connect 9 0 8 0;
#X connect 10 0 12 1;
#X connect 10 0 12 0;
#X connect 11 0 13 4;
#X connect 12 0 11 0;
#X connect 13 0 19 0;
#X connect 15 0 44 0;
#X connect 18 0 41 0;
#X connect 18 0 41 1;
#X connect 19 0 18 0;
#X connect 20 0 39 3;
#X connect 21 0 23 1;
#X connect 21 0 23 0;
#X connect 22 0 39 0;
#X connect 23 0 73 1;
#X connect 23 0 74 1;
#X connect 24 0 26 1;
#X connect 24 0 26 0;
#X connect 25 0 33 1;
#X connect 26 0 25 0;
#X connect 27 0 29 1;
#X connect 27 0 29 0;
#X connect 28 0 33 2;
#X connect 29 0 28 0;
#X connect 30 0 32 1;
#X connect 30 0 32 0;
#X connect 31 0 33 4;
#X connect 32 0 31 0;
#X connect 33 0 35 0;
#X connect 34 0 40 0;
#X connect 34 0 40 1;
#X connect 35 0 34 0;
#X connect 36 0 15 0;
#X connect 37 0 36 1;
#X connect 38 0 37 0;
#X connect 38 0 45 0;
#X connect 39 0 38 0;
#X connect 40 0 38 1;
#X connect 41 0 15 1;
#X connect 42 0 36 3;
#X connect 43 0 16 0;
#X connect 44 0 43 1;
#X connect 45 0 43 0;
#X connect 46 0 47 0;
#X connect 47 0 45 1;
#X connect 48 0 49 0;
#X connect 49 0 74 0;
#X connect 51 0 20 1;
#X connect 51 0 20 0;
#X connect 53 0 39 2;
#X connect 54 0 22 1;
#X connect 56 0 49 1;
#X connect 58 0 59 0;
#X connect 59 0 24 1;
#X connect 59 0 24 0;
#X connect 59 1 27 1;
#X connect 59 1 27 0;
#X connect 59 2 33 3;
#X connect 59 3 30 1;
#X connect 59 3 30 0;
#X connect 60 0 44 1;
#X connect 60 0 46 0;
#X connect 62 0 21 1;
#X connect 62 0 21 0;
#X connect 66 0 42 1;
#X connect 66 0 42 0;
#X connect 67 0 36 2;
#X connect 68 0 72 0;
#X connect 72 0 3 1;
#X connect 72 0 3 0;
#X connect 72 1 7 1;
#X connect 72 1 7 0;
#X connect 72 2 13 3;
#X connect 72 3 10 1;
#X connect 72 3 10 0;
#X connect 73 0 37 1;
#X connect 74 0 73 0;
#X coords 0 851 1 850 200 120 0;
#X restore -660 842 pd two_ops_1_synth_voice;
#N canvas 241 83 1172 851 two_ops_1_synth_voice 0;
#X obj -291 214 inlet;
#X obj -345 450 mtof;
#X obj -244 213 inlet;
#X obj 295 440 *;
#X obj 294 489 * 10000;
#X obj 296 466 *;
#X obj -244 236 clip 0 1;
#X obj 355 445 *;
#X obj 354 494 * 10000;
#X obj 356 471 *;
#X obj 403 467 *;
#X obj 402 516 * 10000;
#X obj 404 493 *;
#N canvas 100 80 1108 856 adsr1 0;
#X obj -143 147 inlet;
#X msg 15 502 0;
#X obj 63 365 pack f f;
#X msg -148 457 0.515625 4.42051;
#X msg 64 391 set \$1 \$2;
#X obj 125 589 >=;
#X msg 216 752 0.2 915.063;
#X obj 157 632 moses 0.001;
#X obj 150 406 pack f f;
#X msg 151 436 set \$1 \$2;
#X msg 170 319 bang;
#X msg 313 372 set 0 \$1;
#X msg -135 357 bang;
#X msg -136 523 0 150.062;
#X obj -145 184 clip 0 1;
#X obj -113 211 moses 0.001;
#X obj 18 565 line 0 1;
#X obj -20 376 t f f;
#X obj 9 720 spigot;
#X obj 228 693 delay 0;
#X obj -49 150 inlet;
#X text -8 150 att;
#X obj 22 153 inlet;
#X text 63 153 dec;
#X obj 93 150 inlet;
#X text 134 152 sus;
#X obj 170 152 inlet;
#X text 211 152 rel;
#X obj -95 781 outlet;
#X obj -3 199 t b f;
#X connect 0 0 14 0;
#X connect 1 0 16 0;
#X connect 2 0 4 0;
#X connect 3 0 16 0;
#X connect 4 0 3 0;
#X connect 5 0 7 0;
#X connect 6 0 18 0;
#X connect 7 1 19 0;
#X connect 8 0 9 0;
#X connect 9 0 6 0;
#X connect 10 0 8 0;
#X connect 11 0 13 0;
#X connect 12 0 13 0;
#X connect 13 0 16 0;
#X connect 14 0 15 0;
#X connect 14 0 18 1;
#X connect 15 0 12 0;
#X connect 15 1 2 0;
#X connect 15 1 17 0;
#X connect 16 0 5 0;
#X connect 16 0 28 0;
#X connect 17 0 3 0;
#X connect 17 1 5 1;
#X connect 17 1 1 0;
#X connect 18 0 16 0;
#X connect 19 0 6 0;
#X connect 20 0 2 1;
#X connect 20 0 29 0;
#X connect 22 0 10 0;
#X connect 22 0 8 1;
#X connect 24 0 10 0;
#X connect 24 0 8 0;
#X connect 26 0 11 0;
#X connect 29 0 2 0;
#X connect 29 1 2 1;
#X coords 0 0 1 1 120 160 0;
#X restore 309 569 pd adsr1;
#X text -294 199 pitch;
#X obj -82 816 *~;
#X obj -95 943 outlet~;
#X text -241 200 gate;
#X obj 310 611 line~;
#X msg 311 588 \$1 1.6;
#X obj -114 516 *;
#X obj -72 557 *;
#X obj -215 550 *;
#X obj -81 581 *;
#X obj -5 317 *;
#X obj -21 368 * 10000;
#X obj -19 345 *;
#X obj 30 338 *;
#X obj 29 387 * 10000;
#X obj 31 364 *;
#X obj 80 349 *;
#X obj 79 398 * 10000;
#X obj 81 375 *;
#N canvas 102 79 1108 856 adsr1 0;
#X obj -143 147 inlet;
#X msg 15 502 0;
#X obj 63 365 pack f f;
#X msg -148 457 0.515625 2.25188;
#X msg 64 391 set \$1 \$2;
#X obj 125 589 >=;
#X msg 216 752 0.15 111.566;
#X obj 157 632 moses 0.001;
#X obj 150 406 pack f f;
#X msg 151 436 set \$1 \$2;
#X msg 170 319 bang;
#X msg 313 372 set 0 \$1;
#X msg -135 357 bang;
#X msg -136 523 0 45.6976;
#X obj -145 184 clip 0 1;
#X obj -113 211 moses 0.001;
#X obj 18 565 line 0 1;
#X obj -20 376 t f f;
#X obj 9 720 spigot;
#X obj 228 693 delay 0;
#X obj -49 150 inlet;
#X text -8 150 att;
#X obj 22 153 inlet;
#X text 63 153 dec;
#X obj 93 150 inlet;
#X text 134 152 sus;
#X obj 170 152 inlet;
#X text 211 152 rel;
#X obj -95 781 outlet;
#X obj -3 199 t b f;
#X connect 0 0 14 0;
#X connect 1 0 16 0;
#X connect 2 0 4 0;
#X connect 3 0 16 0;
#X connect 4 0 3 0;
#X connect 5 0 7 0;
#X connect 6 0 18 0;
#X connect 7 1 19 0;
#X connect 8 0 9 0;
#X connect 9 0 6 0;
#X connect 10 0 8 0;
#X connect 11 0 13 0;
#X connect 12 0 13 0;
#X connect 13 0 16 0;
#X connect 14 0 15 0;
#X connect 14 0 18 1;
#X connect 15 0 12 0;
#X connect 15 1 2 0;
#X connect 15 1 17 0;
#X connect 16 0 5 0;
#X connect 16 0 28 0;
#X connect 17 0 3 0;
#X connect 17 1 5 1;
#X connect 17 1 1 0;
#X connect 18 0 16 0;
#X connect 19 0 6 0;
#X connect 20 0 2 1;
#X connect 20 0 29 0;
#X connect 22 0 10 0;
#X connect 22 0 8 1;
#X connect 24 0 10 0;
#X connect 24 0 8 0;
#X connect 26 0 11 0;
#X connect 29 0 2 0;
#X connect 29 1 2 1;
#X coords 0 0 1 1 120 160 0;
#X restore 12 486 pd adsr1;
#X obj 13 528 line~;
#X msg 14 505 \$1 1.6;
#X obj -119 768 abs_fm_op1;
#X obj -146 693 *~;
#X obj -167 662 *~;
#X obj -209 587 abs_fm_op1;
#X obj -24 573 *~;
#X obj 291 637 *~;
#X obj 58 671 *;
#X obj -96 916 +~;
#X obj -74 886 *~;
#X obj -136 889 *~;
#X obj -129 834 * -1;
#X obj -129 858 + 1;
#X obj -259 315 / 128;
#X obj -260 346 *;
#X text -291 157 2op fm voice;
#X obj -73 210 inlet;
#X text -77 187 fb1 0..0.5;
#X obj -9 211 inlet;
#X obj -124 215 inlet;
#X text -126 198 ratio;
#X obj -190 214 inlet;
#X text -191 195 keytrack;
#X obj 102 202 inlet;
#X obj 42 274 unpack f f f f;
#X obj 169 200 inlet;
#X text 170 186 balance;
#X obj 227 201 inlet;
#X text 226 188 fm;
#X text 100 187 adsr1 list;
#X text -2 191 waveparams1 list;
#X obj 288 199 inlet;
#X obj 354 199 inlet;
#X obj 463 198 inlet;
#X text 284 176 fb2 0..0.5;
#X text 361 179 waveparams2 list;
#X text 461 183 adsr2 list;
#X obj 444 286 unpack f f f f;
#X obj -115 664 +~;
#X obj -117 623 *~;
#X connect 0 0 1 0;
#X connect 0 0 48 0;
#X connect 1 0 22 0;
#X connect 1 0 36 0;
#X connect 2 0 6 0;
#X connect 3 0 5 1;
#X connect 3 0 5 0;
#X connect 4 0 13 1;
#X connect 5 0 4 0;
#X connect 6 0 13 0;
#X connect 6 0 33 0;
#X connect 7 0 9 1;
#X connect 7 0 9 0;
#X connect 8 0 13 2;
#X connect 9 0 8 0;
#X connect 10 0 12 1;
#X connect 10 0 12 0;
#X connect 11 0 13 4;
#X connect 12 0 11 0;
#X connect 13 0 19 0;
#X connect 15 0 44 0;
#X connect 18 0 41 0;
#X connect 18 0 41 1;
#X connect 19 0 18 0;
#X connect 20 0 39 3;
#X connect 21 0 23 1;
#X connect 21 0 23 0;
#X connect 22 0 39 0;
#X connect 23 0 73 1;
#X connect 23 0 74 1;
#X connect 24 0 26 1;
#X connect 24 0 26 0;
#X connect 25 0 33 1;
#X connect 26 0 25 0;
#X connect 27 0 29 1;
#X connect 27 0 29 0;
#X connect 28 0 33 2;
#X connect 29 0 28 0;
#X connect 30 0 32 1;
#X connect 30 0 32 0;
#X connect 31 0 33 4;
#X connect 32 0 31 0;
#X connect 33 0 35 0;
#X connect 34 0 40 0;
#X connect 34 0 40 1;
#X connect 35 0 34 0;
#X connect 36 0 15 0;
#X connect 37 0 36 1;
#X connect 38 0 37 0;
#X connect 38 0 45 0;
#X connect 39 0 38 0;
#X connect 40 0 38 1;
#X connect 41 0 15 1;
#X connect 42 0 36 3;
#X connect 43 0 16 0;
#X connect 44 0 43 1;
#X connect 45 0 43 0;
#X connect 46 0 47 0;
#X connect 47 0 45 1;
#X connect 48 0 49 0;
#X connect 49 0 74 0;
#X connect 51 0 20 1;
#X connect 51 0 20 0;
#X connect 53 0 39 2;
#X connect 54 0 22 1;
#X connect 56 0 49 1;
#X connect 58 0 59 0;
#X connect 59 0 24 1;
#X connect 59 0 24 0;
#X connect 59 1 27 1;
#X connect 59 1 27 0;
#X connect 59 2 33 3;
#X connect 59 3 30 1;
#X connect 59 3 30 0;
#X connect 60 0 44 1;
#X connect 60 0 46 0;
#X connect 62 0 21 1;
#X connect 62 0 21 0;
#X connect 66 0 42 1;
#X connect 66 0 42 0;
#X connect 67 0 36 2;
#X connect 68 0 72 0;
#X connect 72 0 3 1;
#X connect 72 0 3 0;
#X connect 72 1 7 1;
#X connect 72 1 7 0;
#X connect 72 2 13 3;
#X connect 72 3 10 1;
#X connect 72 3 10 0;
#X connect 73 0 37 1;
#X connect 74 0 73 0;
#X coords 0 851 1 850 200 120 0;
#X restore -500 844 pd two_ops_1_synth_voice;
#X obj -346 173 route 1 2 3 4 5 6;
#X obj -542 650 +;
#X obj -570 621 int;
#X obj -554 593 unpack 0 0;
#X obj -616 709 +;
#X obj -650 680 int;
#X obj -628 652 unpack 0 0;
#X text -122 2 2013 martin brinkmann;
#X text -123 -19 2op 6 voice fm synth;
#X obj -313 54 / 128;
#X obj -319 1004 *~ 0.33;
#X connect 0 0 61 0;
#X connect 0 0 83 9;
#X connect 1 0 62 0;
#X connect 1 0 83 10;
#X connect 2 0 64 0;
#X connect 2 0 83 12;
#X connect 3 0 63 0;
#X connect 3 0 83 11;
#X connect 4 0 6 0;
#X connect 4 0 83 1;
#X connect 6 0 7 0;
#X connect 6 1 8 0;
#X connect 6 2 10 0;
#X connect 6 3 9 0;
#X connect 6 4 11 0;
#X connect 7 0 23 0;
#X connect 8 0 23 0;
#X connect 9 0 23 0;
#X connect 10 0 23 0;
#X connect 11 0 23 0;
#X connect 12 0 24 0;
#X connect 12 0 83 8;
#X connect 13 0 83 15;
#X connect 13 0 87 0;
#X connect 14 0 59 3;
#X connect 14 0 65 3;
#X connect 14 0 67 3;
#X connect 14 0 68 3;
#X connect 14 0 83 14;
#X connect 14 0 100 3;
#X connect 14 0 101 3;
#X connect 15 0 55 0;
#X connect 15 0 83 2;
#X connect 16 0 56 0;
#X connect 16 0 83 3;
#X connect 17 0 58 0;
#X connect 17 0 83 5;
#X connect 18 0 57 0;
#X connect 18 0 83 4;
#X connect 19 0 69 1;
#X connect 19 0 94 0;
#X connect 20 0 83 7;
#X connect 20 0 96 0;
#X connect 21 0 59 7;
#X connect 21 0 65 7;
#X connect 21 0 67 7;
#X connect 21 0 68 7;
#X connect 21 0 83 6;
#X connect 21 0 100 7;
#X connect 21 0 101 7;
#X connect 22 0 59 2;
#X connect 22 0 65 2;
#X connect 22 0 67 2;
#X connect 22 0 68 2;
#X connect 22 0 83 13;
#X connect 22 0 100 2;
#X connect 22 0 101 2;
#X connect 23 0 59 5;
#X connect 23 0 65 5;
#X connect 23 0 67 5;
#X connect 23 0 68 5;
#X connect 23 0 100 5;
#X connect 23 0 101 5;
#X connect 24 0 25 0;
#X connect 24 1 26 0;
#X connect 24 2 28 0;
#X connect 24 3 27 0;
#X connect 24 4 29 0;
#X connect 25 0 30 0;
#X connect 26 0 30 0;
#X connect 27 0 30 0;
#X connect 28 0 30 0;
#X connect 29 0 30 0;
#X connect 30 0 59 10;
#X connect 30 0 65 10;
#X connect 30 0 67 10;
#X connect 30 0 68 10;
#X connect 30 0 100 10;
#X connect 30 0 101 10;
#X connect 31 0 68 0;
#X connect 32 0 34 0;
#X connect 33 0 36 0;
#X connect 34 0 33 0;
#X connect 35 0 31 0;
#X connect 36 0 41 0;
#X connect 38 0 66 0;
#X connect 39 0 35 0;
#X connect 39 1 68 1;
#X connect 40 0 102 0;
#X connect 41 0 35 0;
#X connect 41 0 43 0;
#X connect 41 0 46 0;
#X connect 41 0 49 0;
#X connect 41 0 104 0;
#X connect 41 0 107 0;
#X connect 41 1 31 1;
#X connect 41 1 42 1;
#X connect 41 1 45 1;
#X connect 41 1 48 1;
#X connect 41 1 103 1;
#X connect 41 1 106 1;
#X connect 42 0 67 0;
#X connect 43 0 42 0;
#X connect 44 0 43 0;
#X connect 44 1 67 1;
#X connect 45 0 65 0;
#X connect 46 0 45 0;
#X connect 47 0 46 0;
#X connect 47 1 65 1;
#X connect 48 0 59 0;
#X connect 49 0 48 0;
#X connect 50 0 49 0;
#X connect 50 1 59 1;
#X connect 51 0 38 0;
#X connect 52 0 111 0;
#X connect 53 0 32 0;
#X connect 54 0 59 6;
#X connect 54 0 65 6;
#X connect 54 0 67 6;
#X connect 54 0 68 6;
#X connect 54 0 100 6;
#X connect 54 0 101 6;
#X connect 55 0 54 0;
#X connect 56 0 55 0;
#X connect 56 1 54 1;
#X connect 57 0 55 0;
#X connect 57 1 54 2;
#X connect 58 0 55 0;
#X connect 58 1 54 3;
#X connect 59 0 112 0;
#X connect 60 0 59 11;
#X connect 60 0 65 11;
#X connect 60 0 67 11;
#X connect 60 0 68 11;
#X connect 60 0 100 11;
#X connect 60 0 101 11;
#X connect 61 0 60 0;
#X connect 62 0 61 0;
#X connect 62 1 60 1;
#X connect 63 0 61 0;
#X connect 63 1 60 2;
#X connect 64 0 61 0;
#X connect 64 1 60 3;
#X connect 65 0 112 0;
#X connect 66 0 40 0;
#X connect 66 1 40 1;
#X connect 66 2 40 2;
#X connect 67 0 112 0;
#X connect 68 0 112 0;
#X connect 69 0 83 0;
#X connect 73 0 90 0;
#X connect 75 0 81 0;
#X connect 78 0 69 0;
#X connect 80 0 83 16;
#X connect 80 0 88 1;
#X connect 80 0 88 0;
#X connect 80 0 89 0;
#X connect 81 0 19 0;
#X connect 81 1 4 0;
#X connect 81 2 15 0;
#X connect 81 3 16 0;
#X connect 81 4 18 0;
#X connect 81 5 17 0;
#X connect 81 6 21 0;
#X connect 81 7 20 0;
#X connect 81 8 12 0;
#X connect 81 9 0 0;
#X connect 81 10 1 0;
#X connect 81 11 3 0;
#X connect 81 12 2 0;
#X connect 81 13 22 0;
#X connect 81 14 14 0;
#X connect 81 15 13 0;
#X connect 81 16 80 0;
#X connect 81 17 82 0;
#X connect 82 0 83 17;
#X connect 82 0 91 1;
#X connect 82 0 91 0;
#X connect 82 0 92 0;
#X connect 83 0 84 0;
#X connect 84 0 77 0;
#X connect 85 0 87 0;
#X connect 85 0 94 0;
#X connect 85 0 96 0;
#X connect 85 1 86 0;
#X connect 85 1 93 0;
#X connect 86 0 87 1;
#X connect 87 0 59 8;
#X connect 87 0 65 8;
#X connect 87 0 67 8;
#X connect 87 0 68 8;
#X connect 87 0 100 8;
#X connect 87 0 101 8;
#X connect 88 0 89 1;
#X connect 89 0 86 1;
#X connect 90 0 85 0;
#X connect 91 0 92 1;
#X connect 92 0 93 1;
#X connect 93 0 94 1;
#X connect 93 0 96 1;
#X connect 94 0 95 0;
#X connect 95 0 59 4;
#X connect 95 0 65 4;
#X connect 95 0 67 4;
#X connect 95 0 68 4;
#X connect 95 0 100 4;
#X connect 95 0 101 4;
#X connect 96 0 97 0;
#X connect 97 0 59 9;
#X connect 97 0 65 9;
#X connect 97 0 67 9;
#X connect 97 0 68 9;
#X connect 97 0 100 9;
#X connect 97 0 101 9;
#X connect 100 0 112 0;
#X connect 101 0 112 0;
#X connect 102 0 108 0;
#X connect 102 1 105 0;
#X connect 102 2 50 0;
#X connect 102 3 47 0;
#X connect 102 4 44 0;
#X connect 102 5 39 0;
#X connect 103 0 101 0;
#X connect 104 0 103 0;
#X connect 105 0 104 0;
#X connect 105 1 101 1;
#X connect 106 0 100 0;
#X connect 107 0 106 0;
#X connect 108 0 107 0;
#X connect 108 1 100 1;
#X connect 111 0 38 1;
#X connect 112 0 5 0;
#X coords 0 -1 1 1 220 120 1 100 100;
#X restore 741 593 pd two_ops1p;
#X obj 741 728 *~ 0.3;
#X obj 374 593 spigot 1;
#X obj 438 593 spigot 1;
#X obj 697 511 != 1;
#X text 551 478 or use a fm-piano like sound \, if no decent samples
available;
#N canvas 496 164 968 862 mrev 0;
#X obj -15 90 inlet~;
#X obj 35 271 outlet~;
#X obj 147 271 outlet~;
#X text 106 62 reverb from the pd doc (see comments there);
#X obj 128 114 hsl 64 8 0 100 0 1 empty empty fb -25 5 0 10 -262144
-1 -1 1700 1;
#X obj 61 196 abs_reverb1;
#X connect 0 0 5 0;
#X connect 4 0 5 1;
#X connect 5 0 1 0;
#X connect 5 1 2 0;
#X coords 0 -1 1 1 100 25 1 100 100;
#X restore 517 649 pd mrev;
#X obj 518 621 *~ 0.05;
#X text 542 369 1 \, 2/2014 martin brinkmann;
#X connect 0 0 22 1;
#X connect 0 0 23 1;
#X connect 0 0 24 1;
#X connect 0 0 36 1;
#X connect 1 0 105 0;
#X connect 1 0 110 0;
#X connect 1 1 106 0;
#X connect 1 1 111 0;
#X connect 2 0 24 3;
#X connect 3 0 4 0;
#X connect 4 0 5 0;
#X connect 5 0 0 1;
#X connect 6 0 13 0;
#X connect 6 0 22 2;
#X connect 6 0 23 2;
#X connect 6 0 24 2;
#X connect 6 0 36 2;
#X connect 7 0 2 0;
#X connect 8 0 46 0;
#X connect 8 0 115 0;
#X connect 8 1 46 1;
#X connect 8 1 115 0;
#X connect 11 0 23 3;
#X connect 12 0 11 0;
#X connect 13 0 0 0;
#X connect 13 1 3 0;
#X connect 14 0 22 3;
#X connect 15 0 14 0;
#X connect 16 0 67 0;
#X connect 16 0 68 0;
#X connect 16 0 69 0;
#X connect 16 0 70 0;
#X connect 16 0 80 0;
#X connect 16 0 79 0;
#X connect 16 0 83 0;
#X connect 16 0 89 0;
#X connect 17 0 16 0;
#X connect 18 0 20 0;
#X connect 19 0 21 0;
#X connect 20 0 22 5;
#X connect 20 0 23 5;
#X connect 20 0 24 5;
#X connect 20 0 36 5;
#X connect 21 0 18 0;
#X connect 21 1 20 1;
#X connect 22 0 31 0;
#X connect 22 0 33 0;
#X connect 22 1 1 0;
#X connect 22 2 27 0;
#X connect 23 0 9 0;
#X connect 23 0 64 0;
#X connect 23 1 1 0;
#X connect 23 2 60 0;
#X connect 24 0 10 0;
#X connect 24 0 55 0;
#X connect 24 1 1 0;
#X connect 24 2 51 0;
#X connect 25 0 26 0;
#X connect 26 0 29 0;
#X connect 27 0 25 0;
#X connect 28 0 29 1;
#X connect 29 0 25 1;
#X connect 29 0 30 0;
#X connect 29 0 48 0;
#X connect 31 0 32 0;
#X connect 32 0 25 1;
#X connect 34 0 36 3;
#X connect 35 0 34 0;
#X connect 36 0 43 0;
#X connect 36 0 45 0;
#X connect 36 1 1 0;
#X connect 36 2 39 0;
#X connect 37 0 38 0;
#X connect 38 0 41 0;
#X connect 39 0 37 0;
#X connect 40 0 41 1;
#X connect 41 0 37 1;
#X connect 41 0 42 0;
#X connect 41 0 47 0;
#X connect 43 0 44 0;
#X connect 44 0 37 1;
#X connect 47 0 70 0;
#X connect 48 0 69 0;
#X connect 49 0 50 0;
#X connect 50 0 53 0;
#X connect 51 0 49 0;
#X connect 52 0 53 1;
#X connect 53 0 49 1;
#X connect 53 0 54 0;
#X connect 53 0 57 0;
#X connect 55 0 56 0;
#X connect 56 0 49 1;
#X connect 57 0 68 0;
#X connect 58 0 59 0;
#X connect 59 0 62 0;
#X connect 60 0 58 0;
#X connect 61 0 62 1;
#X connect 62 0 58 1;
#X connect 62 0 63 0;
#X connect 62 0 66 0;
#X connect 64 0 65 0;
#X connect 65 0 58 1;
#X connect 66 0 67 0;
#X connect 67 0 23 0;
#X connect 67 0 76 0;
#X connect 67 0 93 0;
#X connect 67 0 95 0;
#X connect 68 0 24 0;
#X connect 68 0 76 0;
#X connect 68 0 90 0;
#X connect 68 0 97 0;
#X connect 69 0 22 0;
#X connect 69 0 76 0;
#X connect 69 0 91 0;
#X connect 69 0 99 0;
#X connect 70 0 36 0;
#X connect 70 0 76 0;
#X connect 70 0 92 0;
#X connect 70 0 101 0;
#X connect 71 0 23 4;
#X connect 71 1 24 4;
#X connect 71 2 22 4;
#X connect 71 3 36 4;
#X connect 72 0 71 0;
#X connect 73 0 71 0;
#X connect 74 0 71 0;
#X connect 75 0 71 0;
#X connect 76 0 77 0;
#X connect 77 0 78 0;
#X connect 78 0 83 0;
#X connect 79 0 19 0;
#X connect 80 0 18 0;
#X connect 81 0 71 0;
#X connect 82 0 74 0;
#X connect 82 1 72 0;
#X connect 82 2 73 0;
#X connect 82 3 75 0;
#X connect 82 4 81 0;
#X connect 83 0 82 0;
#X connect 84 0 12 0;
#X connect 85 0 7 0;
#X connect 86 0 15 0;
#X connect 87 0 35 0;
#X connect 88 0 6 0;
#X connect 89 0 88 0;
#X connect 90 0 85 0;
#X connect 91 0 86 0;
#X connect 92 0 87 0;
#X connect 93 0 84 0;
#X connect 94 0 61 0;
#X connect 95 0 94 0;
#X connect 96 0 52 0;
#X connect 97 0 96 0;
#X connect 98 0 28 0;
#X connect 99 0 98 0;
#X connect 100 0 40 0;
#X connect 101 0 100 0;
#X connect 104 0 105 1;
#X connect 104 0 106 1;
#X connect 104 0 112 0;
#X connect 105 0 108 0;
#X connect 106 0 108 1;
#X connect 107 0 46 0;
#X connect 107 1 46 1;
#X connect 108 0 109 0;
#X connect 109 0 107 0;
#X connect 109 0 115 0;
#X connect 110 0 8 0;
#X connect 111 0 8 1;
#X connect 112 0 111 1;
#X connect 112 0 110 1;
#X connect 114 0 46 0;
#X connect 114 1 46 1;
#X connect 115 0 114 0;
