#N canvas 417 315 715 440 10;
#N canvas 381 177 1047 823 madloop1 0;
#X obj 68 633 *~;
#X obj 75 754 outlet~;
#N canvas 646 461 994 480 eightrandom 0;
#N canvas 6 90 450 300 rndish 0;
#X obj 72 42 inlet;
#X obj 135 42 inlet;
#X obj 105 277 outlet;
#X obj 101 80 *;
#X obj 131 164 sqrt;
#X obj 108 197 +;
#X obj 111 114 t f f;
#X text 150 17 irrational nr/seed;
#X text 77 15 sp;
#X obj 108 235 sin;
#X connect 0 0 3 0;
#X connect 1 0 3 1;
#X connect 3 0 6 0;
#X connect 4 0 5 1;
#X connect 5 0 9 0;
#X connect 6 0 5 0;
#X connect 6 1 4 0;
#X connect 9 0 2 0;
#X restore 37 209 pd rndish;
#X obj 17 269 outlet;
#X obj 144 -81 inlet;
#X obj 267 122 sqrt;
#X msg 267 98 5;
#X obj 345 123 sqrt;
#X msg 345 99 7;
#X obj 180 131 sqrt;
#X msg 180 107 3;
#X obj 108 133 sqrt;
#X msg 108 109 2;
#X obj 373 -63 loadbang;
#X obj 109 160 * 100;
#X obj 180 158 * 100;
#N canvas 5 86 450 300 rndish 0;
#X obj 72 42 inlet;
#X obj 135 42 inlet;
#X obj 105 277 outlet;
#X obj 101 80 *;
#X obj 131 164 sqrt;
#X obj 108 197 +;
#X obj 111 114 t f f;
#X text 150 17 irrational nr/seed;
#X text 77 15 sp;
#X obj 108 235 sin;
#X connect 0 0 3 0;
#X connect 1 0 3 1;
#X connect 3 0 6 0;
#X connect 4 0 5 1;
#X connect 5 0 9 0;
#X connect 6 0 5 0;
#X connect 6 1 4 0;
#X connect 9 0 2 0;
#X restore 142 206 pd rndish;
#X obj 141 267 outlet;
#X text 194 -77 sp;
#N canvas 5 86 450 300 rndish 0;
#X obj 72 42 inlet;
#X obj 135 42 inlet;
#X obj 105 277 outlet;
#X obj 101 80 *;
#X obj 131 164 sqrt;
#X obj 108 197 +;
#X obj 111 114 t f f;
#X text 150 17 irrational nr/seed;
#X text 77 15 sp;
#X obj 108 235 sin;
#X connect 0 0 3 0;
#X connect 1 0 3 1;
#X connect 3 0 6 0;
#X connect 4 0 5 1;
#X connect 5 0 9 0;
#X connect 6 0 5 0;
#X connect 6 1 4 0;
#X connect 9 0 2 0;
#X restore 231 205 pd rndish;
#X obj 264 152 * 100;
#X obj 346 154 * 100;
#N canvas 5 86 450 300 rndish 0;
#X obj 72 42 inlet;
#X obj 135 42 inlet;
#X obj 105 277 outlet;
#X obj 101 80 *;
#X obj 131 164 sqrt;
#X obj 108 197 +;
#X obj 111 114 t f f;
#X text 150 17 irrational nr/seed;
#X text 77 15 sp;
#X obj 108 235 sin;
#X connect 0 0 3 0;
#X connect 1 0 3 1;
#X connect 3 0 6 0;
#X connect 4 0 5 1;
#X connect 5 0 9 0;
#X connect 6 0 5 0;
#X connect 6 1 4 0;
#X connect 9 0 2 0;
#X restore 327 212 pd rndish;
#X obj 240 272 outlet;
#X obj 334 270 outlet;
#N canvas 5 86 450 300 rndish 0;
#X obj 72 42 inlet;
#X obj 135 42 inlet;
#X obj 105 277 outlet;
#X obj 101 80 *;
#X obj 131 164 sqrt;
#X obj 108 197 +;
#X obj 111 114 t f f;
#X text 150 17 irrational nr/seed;
#X text 77 15 sp;
#X obj 108 235 sin;
#X connect 0 0 3 0;
#X connect 1 0 3 1;
#X connect 3 0 6 0;
#X connect 4 0 5 1;
#X connect 5 0 9 0;
#X connect 6 0 5 0;
#X connect 6 1 4 0;
#X connect 9 0 2 0;
#X restore 432 211 pd rndish;
#X obj 412 271 outlet;
#X obj 651 119 sqrt;
#X obj 729 120 sqrt;
#X obj 557 122 sqrt;
#X obj 460 136 sqrt;
#X obj 461 163 * 100;
#X obj 557 149 * 100;
#N canvas 5 86 450 300 rndish 0;
#X obj 72 42 inlet;
#X obj 135 42 inlet;
#X obj 105 277 outlet;
#X obj 101 80 *;
#X obj 131 164 sqrt;
#X obj 108 197 +;
#X obj 111 114 t f f;
#X text 150 17 irrational nr/seed;
#X text 77 15 sp;
#X obj 108 235 sin;
#X connect 0 0 3 0;
#X connect 1 0 3 1;
#X connect 3 0 6 0;
#X connect 4 0 5 1;
#X connect 5 0 9 0;
#X connect 6 0 5 0;
#X connect 6 1 4 0;
#X connect 9 0 2 0;
#X restore 537 208 pd rndish;
#X obj 536 269 outlet;
#N canvas 5 86 450 300 rndish 0;
#X obj 72 42 inlet;
#X obj 135 42 inlet;
#X obj 105 277 outlet;
#X obj 101 80 *;
#X obj 131 164 sqrt;
#X obj 108 197 +;
#X obj 111 114 t f f;
#X text 150 17 irrational nr/seed;
#X text 77 15 sp;
#X obj 108 235 sin;
#X connect 0 0 3 0;
#X connect 1 0 3 1;
#X connect 3 0 6 0;
#X connect 4 0 5 1;
#X connect 5 0 9 0;
#X connect 6 0 5 0;
#X connect 6 1 4 0;
#X connect 9 0 2 0;
#X restore 626 207 pd rndish;
#X obj 648 149 * 100;
#X obj 730 151 * 100;
#N canvas 5 86 450 300 rndish 0;
#X obj 72 42 inlet;
#X obj 135 42 inlet;
#X obj 105 277 outlet;
#X obj 101 80 *;
#X obj 131 164 sqrt;
#X obj 108 197 +;
#X obj 111 114 t f f;
#X text 150 17 irrational nr/seed;
#X text 77 15 sp;
#X obj 108 235 sin;
#X connect 0 0 3 0;
#X connect 1 0 3 1;
#X connect 3 0 6 0;
#X connect 4 0 5 1;
#X connect 5 0 9 0;
#X connect 6 0 5 0;
#X connect 6 1 4 0;
#X connect 9 0 2 0;
#X restore 722 214 pd rndish;
#X obj 635 274 outlet;
#X obj 729 272 outlet;
#X msg 460 112 11;
#X msg 557 98 13;
#X msg 651 95 17;
#X msg 729 96 23;
#X connect 0 0 1 0;
#X connect 2 0 0 0;
#X connect 2 0 14 0;
#X connect 2 0 17 0;
#X connect 2 0 20 0;
#X connect 2 0 23 0;
#X connect 2 0 31 0;
#X connect 2 0 33 0;
#X connect 2 0 36 0;
#X connect 3 0 18 0;
#X connect 4 0 3 0;
#X connect 5 0 19 0;
#X connect 6 0 5 0;
#X connect 7 0 13 0;
#X connect 8 0 7 0;
#X connect 9 0 12 0;
#X connect 10 0 9 0;
#X connect 11 0 10 0;
#X connect 11 0 8 0;
#X connect 11 0 4 0;
#X connect 11 0 6 0;
#X connect 11 0 39 0;
#X connect 11 0 40 0;
#X connect 11 0 41 0;
#X connect 11 0 42 0;
#X connect 12 0 0 1;
#X connect 13 0 14 1;
#X connect 14 0 15 0;
#X connect 17 0 21 0;
#X connect 18 0 17 1;
#X connect 19 0 20 1;
#X connect 20 0 22 0;
#X connect 23 0 24 0;
#X connect 25 0 34 0;
#X connect 26 0 35 0;
#X connect 27 0 30 0;
#X connect 28 0 29 0;
#X connect 29 0 23 1;
#X connect 30 0 31 1;
#X connect 31 0 32 0;
#X connect 33 0 37 0;
#X connect 34 0 33 1;
#X connect 35 0 36 1;
#X connect 36 0 38 0;
#X connect 39 0 28 0;
#X connect 40 0 27 0;
#X connect 41 0 25 0;
#X connect 42 0 26 0;
#X restore 42 437 pd eightrandom;
#X obj -7 102 inlet;
#N canvas 298 121 896 797 noisefmsyncoscillator_a 0;
#N canvas 0 29 555 432 cubicshaper 0;
#X obj 42 70 inlet~;
#X obj 55 210 *~;
#X obj 70 235 *~;
#X obj 169 314 +~;
#X obj 90 265 *~;
#X obj 124 72 inlet~;
#X obj 158 225 *~;
#X obj 178 255 *~;
#X obj 214 69 inlet~;
#X obj 274 261 *~;
#X obj 310 75 inlet~;
#X obj 215 354 +~;
#X text 35 50 audio in;
#X text 128 53 a;
#X text 231 52 b;
#X text 325 55 c;
#X text 191 17 cubic audio shaper;
#X obj 216 388 outlet~;
#X connect 0 0 1 0;
#X connect 0 0 1 1;
#X connect 0 0 2 1;
#X connect 0 0 6 1;
#X connect 0 0 6 0;
#X connect 0 0 9 0;
#X connect 1 0 2 0;
#X connect 2 0 4 0;
#X connect 3 0 11 0;
#X connect 4 0 3 0;
#X connect 5 0 4 1;
#X connect 6 0 7 0;
#X connect 7 0 3 1;
#X connect 8 0 7 1;
#X connect 9 0 11 1;
#X connect 10 0 9 1;
#X connect 11 0 17 0;
#X restore 111 415 pd cubicshaper;
#N canvas 0 29 555 432 cubicshaper 0;
#X obj 42 70 inlet~;
#X obj 55 210 *~;
#X obj 70 235 *~;
#X obj 169 314 +~;
#X obj 90 265 *~;
#X obj 124 72 inlet~;
#X obj 158 225 *~;
#X obj 178 255 *~;
#X obj 214 69 inlet~;
#X obj 274 261 *~;
#X obj 310 75 inlet~;
#X obj 215 354 +~;
#X text 35 50 audio in;
#X text 128 53 a;
#X text 231 52 b;
#X text 325 55 c;
#X text 191 17 cubic audio shaper;
#X obj 216 388 outlet~;
#X connect 0 0 1 0;
#X connect 0 0 1 1;
#X connect 0 0 2 1;
#X connect 0 0 6 1;
#X connect 0 0 6 0;
#X connect 0 0 9 0;
#X connect 1 0 2 0;
#X connect 2 0 4 0;
#X connect 3 0 11 0;
#X connect 4 0 3 0;
#X connect 5 0 4 1;
#X connect 6 0 7 0;
#X connect 7 0 3 1;
#X connect 8 0 7 1;
#X connect 9 0 11 1;
#X connect 10 0 9 1;
#X connect 11 0 17 0;
#X restore 170 491 pd cubicshaper;
#N canvas 0 29 555 432 cubicshaper 0;
#X obj 42 70 inlet~;
#X obj 55 210 *~;
#X obj 70 235 *~;
#X obj 169 314 +~;
#X obj 90 265 *~;
#X obj 124 72 inlet~;
#X obj 158 225 *~;
#X obj 178 255 *~;
#X obj 214 69 inlet~;
#X obj 274 261 *~;
#X obj 310 75 inlet~;
#X obj 215 354 +~;
#X text 35 50 audio in;
#X text 128 53 a;
#X text 231 52 b;
#X text 325 55 c;
#X text 191 17 cubic audio shaper;
#X obj 216 388 outlet~;
#X connect 0 0 1 0;
#X connect 0 0 1 1;
#X connect 0 0 2 1;
#X connect 0 0 6 1;
#X connect 0 0 6 0;
#X connect 0 0 9 0;
#X connect 1 0 2 0;
#X connect 2 0 4 0;
#X connect 3 0 11 0;
#X connect 4 0 3 0;
#X connect 5 0 4 1;
#X connect 6 0 7 0;
#X connect 7 0 3 1;
#X connect 8 0 7 1;
#X connect 9 0 11 1;
#X connect 10 0 9 1;
#X connect 11 0 17 0;
#X restore 213 651 pd cubicshaper;
#X obj 164 678 *~;
#X obj -62 149 osc~;
#X obj 35 189 phasor~;
#X obj 47 295 -~ 0.5;
#X obj 67 214 samphold~;
#X obj 47 240 -~;
#X obj 47 266 wrap~;
#X obj 27 378 cos~;
#X obj 214 677 outlet~;
#X obj 133 116 catch~ \$0-oscasync;
#X obj 95 94 throw~ \$0-oscasync;
#X obj 34 167 mtof;
#X obj 24 350 +~;
#X obj -89 209 *~;
#X obj -63 128 mtof;
#X obj -225 -23 inlet;
#X obj 24 143 +;
#X obj -225 2 t b f;
#X obj 21 121 float;
#X obj -63 172 *~ 0.5;
#X obj 129 162 clip~ -1 0;
#X obj 128 183 *~ -1;
#X obj 129 141 *~ 10000;
#X obj -146 101 inlet;
#X obj -144 124 wrap;
#X text -145 80 mod a;
#X obj -64 66 inlet;
#X obj -64 98 * 30;
#X text -60 48 mod p;
#X obj 27 23 inlet;
#X obj 26 44 + 0.8;
#X obj 27 76 * 50;
#X text 27 4 pitch;
#X text -182 -23 tp (semitones);
#X text 144 12 inputs -1..1;
#X obj 235 157 inlet;
#X obj 266 181 inlet;
#X obj 294 208 inlet;
#X obj 360 227 inlet;
#X obj 391 251 inlet;
#X obj 419 278 inlet;
#X obj 470 323 inlet;
#X obj 501 347 inlet;
#X obj 529 374 inlet;
#X text 421 181 shapers;
#X connect 0 0 1 0;
#X connect 0 0 3 0;
#X connect 1 0 2 0;
#X connect 2 0 3 1;
#X connect 2 0 11 0;
#X connect 3 0 13 0;
#X connect 4 0 22 0;
#X connect 5 0 7 0;
#X connect 5 0 8 0;
#X connect 6 0 15 1;
#X connect 7 0 8 1;
#X connect 8 0 9 0;
#X connect 9 0 6 0;
#X connect 10 0 0 0;
#X connect 12 0 25 0;
#X connect 14 0 5 0;
#X connect 15 0 10 0;
#X connect 16 0 15 0;
#X connect 17 0 4 0;
#X connect 18 0 20 0;
#X connect 19 0 14 0;
#X connect 20 0 21 0;
#X connect 20 1 19 1;
#X connect 21 0 19 0;
#X connect 22 0 16 1;
#X connect 23 0 24 0;
#X connect 24 0 7 1;
#X connect 25 0 23 0;
#X connect 26 0 27 0;
#X connect 27 0 16 0;
#X connect 29 0 30 0;
#X connect 30 0 17 0;
#X connect 32 0 33 0;
#X connect 33 0 34 0;
#X connect 34 0 21 0;
#X connect 38 0 0 1;
#X connect 39 0 0 2;
#X connect 40 0 0 3;
#X connect 41 0 1 1;
#X connect 42 0 1 2;
#X connect 43 0 1 3;
#X connect 44 0 2 1;
#X connect 45 0 2 2;
#X connect 46 0 2 3;
#X restore 4 591 pd noisefmsyncoscillator_a;
#N canvas 299 125 896 797 noisefmsyncoscillator_b 0;
#N canvas 0 29 555 432 cubicshaper 0;
#X obj 42 70 inlet~;
#X obj 55 210 *~;
#X obj 70 235 *~;
#X obj 169 314 +~;
#X obj 90 265 *~;
#X obj 124 72 inlet~;
#X obj 158 225 *~;
#X obj 178 255 *~;
#X obj 214 69 inlet~;
#X obj 274 261 *~;
#X obj 310 75 inlet~;
#X obj 215 354 +~;
#X text 35 50 audio in;
#X text 128 53 a;
#X text 231 52 b;
#X text 325 55 c;
#X text 191 17 cubic audio shaper;
#X obj 216 388 outlet~;
#X connect 0 0 1 0;
#X connect 0 0 1 1;
#X connect 0 0 2 1;
#X connect 0 0 6 1;
#X connect 0 0 6 0;
#X connect 0 0 9 0;
#X connect 1 0 2 0;
#X connect 2 0 4 0;
#X connect 3 0 11 0;
#X connect 4 0 3 0;
#X connect 5 0 4 1;
#X connect 6 0 7 0;
#X connect 7 0 3 1;
#X connect 8 0 7 1;
#X connect 9 0 11 1;
#X connect 10 0 9 1;
#X connect 11 0 17 0;
#X restore 110 429 pd cubicshaper;
#N canvas 0 29 555 432 cubicshaper 0;
#X obj 42 70 inlet~;
#X obj 55 210 *~;
#X obj 70 235 *~;
#X obj 169 314 +~;
#X obj 90 265 *~;
#X obj 124 72 inlet~;
#X obj 158 225 *~;
#X obj 178 255 *~;
#X obj 214 69 inlet~;
#X obj 274 261 *~;
#X obj 310 75 inlet~;
#X obj 215 354 +~;
#X text 35 50 audio in;
#X text 128 53 a;
#X text 231 52 b;
#X text 325 55 c;
#X text 191 17 cubic audio shaper;
#X obj 216 388 outlet~;
#X connect 0 0 1 0;
#X connect 0 0 1 1;
#X connect 0 0 2 1;
#X connect 0 0 6 1;
#X connect 0 0 6 0;
#X connect 0 0 9 0;
#X connect 1 0 2 0;
#X connect 2 0 4 0;
#X connect 3 0 11 0;
#X connect 4 0 3 0;
#X connect 5 0 4 1;
#X connect 6 0 7 0;
#X connect 7 0 3 1;
#X connect 8 0 7 1;
#X connect 9 0 11 1;
#X connect 10 0 9 1;
#X connect 11 0 17 0;
#X restore 166 505 pd cubicshaper;
#N canvas 0 29 555 432 cubicshaper 0;
#X obj 42 70 inlet~;
#X obj 55 210 *~;
#X obj 70 235 *~;
#X obj 169 314 +~;
#X obj 90 265 *~;
#X obj 124 72 inlet~;
#X obj 158 225 *~;
#X obj 178 255 *~;
#X obj 214 69 inlet~;
#X obj 274 261 *~;
#X obj 310 75 inlet~;
#X obj 215 354 +~;
#X text 35 50 audio in;
#X text 128 53 a;
#X text 231 52 b;
#X text 325 55 c;
#X text 191 17 cubic audio shaper;
#X obj 216 388 outlet~;
#X connect 0 0 1 0;
#X connect 0 0 1 1;
#X connect 0 0 2 1;
#X connect 0 0 6 1;
#X connect 0 0 6 0;
#X connect 0 0 9 0;
#X connect 1 0 2 0;
#X connect 2 0 4 0;
#X connect 3 0 11 0;
#X connect 4 0 3 0;
#X connect 5 0 4 1;
#X connect 6 0 7 0;
#X connect 7 0 3 1;
#X connect 8 0 7 1;
#X connect 9 0 11 1;
#X connect 10 0 9 1;
#X connect 11 0 17 0;
#X restore 213 651 pd cubicshaper;
#X obj 53 671 *~;
#X obj -62 149 osc~;
#X obj 22 189 phasor~;
#X obj 47 295 -~ 0.5;
#X obj 67 214 samphold~;
#X obj 47 240 -~;
#X obj 47 266 wrap~;
#X obj 27 378 cos~;
#X obj 225 731 outlet~;
#X obj 21 167 mtof;
#X obj 24 350 +~;
#X obj -89 209 *~;
#X obj -63 128 mtof;
#X obj -225 -23 inlet;
#X obj 24 143 +;
#X obj -225 2 t b f;
#X obj 21 121 float;
#X obj -63 172 *~ 0.5;
#X obj 129 162 clip~ -1 0;
#X obj 128 183 *~ -1;
#X obj 129 141 *~ 10000;
#X obj -146 101 inlet;
#X obj -144 124 wrap;
#X text -145 80 mod a;
#X obj -64 66 inlet;
#X obj -64 98 * 30;
#X text -60 48 mod p;
#X obj 27 23 inlet;
#X obj 26 44 + 0.8;
#X obj 27 76 * 50;
#X text 27 4 pitch;
#X text -182 -23 tp (semitones);
#X text 144 12 inputs -1..1;
#X obj 235 157 inlet;
#X obj 266 181 inlet;
#X obj 294 208 inlet;
#X obj 360 227 inlet;
#X obj 391 251 inlet;
#X obj 419 278 inlet;
#X obj 470 323 inlet;
#X obj 501 347 inlet;
#X obj 529 374 inlet;
#X text 421 181 shapers;
#X obj 133 111 catch~ \$0-oscbsync;
#X obj 96 86 throw~ \$0-oscbsync;
#X connect 0 0 1 0;
#X connect 0 0 3 0;
#X connect 1 0 2 0;
#X connect 2 0 3 1;
#X connect 2 0 11 0;
#X connect 3 0 47 0;
#X connect 4 0 20 0;
#X connect 5 0 7 0;
#X connect 5 0 8 0;
#X connect 6 0 13 1;
#X connect 7 0 8 1;
#X connect 8 0 9 0;
#X connect 9 0 6 0;
#X connect 10 0 0 0;
#X connect 12 0 5 0;
#X connect 13 0 10 0;
#X connect 14 0 13 0;
#X connect 15 0 4 0;
#X connect 16 0 18 0;
#X connect 17 0 12 0;
#X connect 18 0 19 0;
#X connect 18 1 17 1;
#X connect 19 0 17 0;
#X connect 20 0 14 1;
#X connect 21 0 22 0;
#X connect 22 0 7 1;
#X connect 23 0 21 0;
#X connect 24 0 25 0;
#X connect 25 0 14 0;
#X connect 27 0 28 0;
#X connect 28 0 15 0;
#X connect 30 0 31 0;
#X connect 31 0 32 0;
#X connect 32 0 19 0;
#X connect 36 0 0 1;
#X connect 37 0 0 2;
#X connect 38 0 0 3;
#X connect 39 0 1 1;
#X connect 40 0 1 2;
#X connect 41 0 1 3;
#X connect 42 0 2 1;
#X connect 43 0 2 2;
#X connect 44 0 2 3;
#X connect 46 0 23 0;
#X restore 233 594 pd noisefmsyncoscillator_b;
#N canvas 645 457 994 480 eightrandom 0;
#N canvas 5 86 450 300 rndish 0;
#X obj 72 42 inlet;
#X obj 135 42 inlet;
#X obj 105 277 outlet;
#X obj 101 80 *;
#X obj 131 164 sqrt;
#X obj 108 197 +;
#X obj 111 114 t f f;
#X text 150 17 irrational nr/seed;
#X text 77 15 sp;
#X obj 108 235 sin;
#X connect 0 0 3 0;
#X connect 1 0 3 1;
#X connect 3 0 6 0;
#X connect 4 0 5 1;
#X connect 5 0 9 0;
#X connect 6 0 5 0;
#X connect 6 1 4 0;
#X connect 9 0 2 0;
#X restore 37 209 pd rndish;
#X obj 17 269 outlet;
#X obj 144 -81 inlet;
#X obj 267 122 sqrt;
#X msg 267 98 5;
#X obj 345 123 sqrt;
#X msg 345 99 7;
#X obj 180 131 sqrt;
#X msg 180 107 3;
#X obj 108 133 sqrt;
#X msg 108 109 2;
#X obj 373 -63 loadbang;
#X obj 109 160 * 100;
#X obj 180 158 * 100;
#N canvas 5 86 450 300 rndish 0;
#X obj 72 42 inlet;
#X obj 135 42 inlet;
#X obj 105 277 outlet;
#X obj 101 80 *;
#X obj 131 164 sqrt;
#X obj 108 197 +;
#X obj 111 114 t f f;
#X text 150 17 irrational nr/seed;
#X text 77 15 sp;
#X obj 108 235 sin;
#X connect 0 0 3 0;
#X connect 1 0 3 1;
#X connect 3 0 6 0;
#X connect 4 0 5 1;
#X connect 5 0 9 0;
#X connect 6 0 5 0;
#X connect 6 1 4 0;
#X connect 9 0 2 0;
#X restore 142 206 pd rndish;
#X obj 141 267 outlet;
#X text 194 -77 sp;
#N canvas 5 86 450 300 rndish 0;
#X obj 72 42 inlet;
#X obj 135 42 inlet;
#X obj 105 277 outlet;
#X obj 101 80 *;
#X obj 131 164 sqrt;
#X obj 108 197 +;
#X obj 111 114 t f f;
#X text 150 17 irrational nr/seed;
#X text 77 15 sp;
#X obj 108 235 sin;
#X connect 0 0 3 0;
#X connect 1 0 3 1;
#X connect 3 0 6 0;
#X connect 4 0 5 1;
#X connect 5 0 9 0;
#X connect 6 0 5 0;
#X connect 6 1 4 0;
#X connect 9 0 2 0;
#X restore 231 205 pd rndish;
#X obj 264 152 * 100;
#X obj 346 154 * 100;
#N canvas 5 86 450 300 rndish 0;
#X obj 72 42 inlet;
#X obj 135 42 inlet;
#X obj 105 277 outlet;
#X obj 101 80 *;
#X obj 131 164 sqrt;
#X obj 108 197 +;
#X obj 111 114 t f f;
#X text 150 17 irrational nr/seed;
#X text 77 15 sp;
#X obj 108 235 sin;
#X connect 0 0 3 0;
#X connect 1 0 3 1;
#X connect 3 0 6 0;
#X connect 4 0 5 1;
#X connect 5 0 9 0;
#X connect 6 0 5 0;
#X connect 6 1 4 0;
#X connect 9 0 2 0;
#X restore 327 212 pd rndish;
#X obj 240 272 outlet;
#X obj 334 270 outlet;
#N canvas 5 86 450 300 rndish 0;
#X obj 72 42 inlet;
#X obj 135 42 inlet;
#X obj 105 277 outlet;
#X obj 101 80 *;
#X obj 131 164 sqrt;
#X obj 108 197 +;
#X obj 111 114 t f f;
#X text 150 17 irrational nr/seed;
#X text 77 15 sp;
#X obj 108 235 sin;
#X connect 0 0 3 0;
#X connect 1 0 3 1;
#X connect 3 0 6 0;
#X connect 4 0 5 1;
#X connect 5 0 9 0;
#X connect 6 0 5 0;
#X connect 6 1 4 0;
#X connect 9 0 2 0;
#X restore 432 211 pd rndish;
#X obj 412 271 outlet;
#X obj 651 119 sqrt;
#X obj 729 120 sqrt;
#X obj 557 122 sqrt;
#X obj 460 136 sqrt;
#X obj 461 163 * 100;
#X obj 557 149 * 100;
#N canvas 5 86 450 300 rndish 0;
#X obj 72 42 inlet;
#X obj 135 42 inlet;
#X obj 105 277 outlet;
#X obj 101 80 *;
#X obj 131 164 sqrt;
#X obj 108 197 +;
#X obj 111 114 t f f;
#X text 150 17 irrational nr/seed;
#X text 77 15 sp;
#X obj 108 235 sin;
#X connect 0 0 3 0;
#X connect 1 0 3 1;
#X connect 3 0 6 0;
#X connect 4 0 5 1;
#X connect 5 0 9 0;
#X connect 6 0 5 0;
#X connect 6 1 4 0;
#X connect 9 0 2 0;
#X restore 537 208 pd rndish;
#X obj 536 269 outlet;
#N canvas 5 86 450 300 rndish 0;
#X obj 72 42 inlet;
#X obj 135 42 inlet;
#X obj 105 277 outlet;
#X obj 101 80 *;
#X obj 131 164 sqrt;
#X obj 108 197 +;
#X obj 111 114 t f f;
#X text 150 17 irrational nr/seed;
#X text 77 15 sp;
#X obj 108 235 sin;
#X connect 0 0 3 0;
#X connect 1 0 3 1;
#X connect 3 0 6 0;
#X connect 4 0 5 1;
#X connect 5 0 9 0;
#X connect 6 0 5 0;
#X connect 6 1 4 0;
#X connect 9 0 2 0;
#X restore 626 207 pd rndish;
#X obj 648 149 * 100;
#X obj 730 151 * 100;
#N canvas 5 86 450 300 rndish 0;
#X obj 72 42 inlet;
#X obj 135 42 inlet;
#X obj 105 277 outlet;
#X obj 101 80 *;
#X obj 131 164 sqrt;
#X obj 108 197 +;
#X obj 111 114 t f f;
#X text 150 17 irrational nr/seed;
#X text 77 15 sp;
#X obj 108 235 sin;
#X connect 0 0 3 0;
#X connect 1 0 3 1;
#X connect 3 0 6 0;
#X connect 4 0 5 1;
#X connect 5 0 9 0;
#X connect 6 0 5 0;
#X connect 6 1 4 0;
#X connect 9 0 2 0;
#X restore 722 214 pd rndish;
#X obj 635 274 outlet;
#X obj 729 272 outlet;
#X msg 460 112 11;
#X msg 557 98 13;
#X msg 651 95 17;
#X msg 729 96 23;
#X connect 0 0 1 0;
#X connect 2 0 0 0;
#X connect 2 0 14 0;
#X connect 2 0 17 0;
#X connect 2 0 20 0;
#X connect 2 0 23 0;
#X connect 2 0 31 0;
#X connect 2 0 33 0;
#X connect 2 0 36 0;
#X connect 3 0 18 0;
#X connect 4 0 3 0;
#X connect 5 0 19 0;
#X connect 6 0 5 0;
#X connect 7 0 13 0;
#X connect 8 0 7 0;
#X connect 9 0 12 0;
#X connect 10 0 9 0;
#X connect 11 0 10 0;
#X connect 11 0 8 0;
#X connect 11 0 4 0;
#X connect 11 0 6 0;
#X connect 11 0 39 0;
#X connect 11 0 40 0;
#X connect 11 0 41 0;
#X connect 11 0 42 0;
#X connect 12 0 0 1;
#X connect 13 0 14 1;
#X connect 14 0 15 0;
#X connect 17 0 21 0;
#X connect 18 0 17 1;
#X connect 19 0 20 1;
#X connect 20 0 22 0;
#X connect 23 0 24 0;
#X connect 25 0 34 0;
#X connect 26 0 35 0;
#X connect 27 0 30 0;
#X connect 28 0 29 0;
#X connect 29 0 23 1;
#X connect 30 0 31 1;
#X connect 31 0 32 0;
#X connect 33 0 37 0;
#X connect 34 0 33 1;
#X connect 35 0 36 1;
#X connect 36 0 38 0;
#X connect 39 0 28 0;
#X connect 40 0 27 0;
#X connect 41 0 25 0;
#X connect 42 0 26 0;
#X restore 72 519 pd eightrandom;
#N canvas 646 461 994 480 eightrandom 0;
#N canvas 5 86 450 300 rndish 0;
#X obj 72 42 inlet;
#X obj 135 42 inlet;
#X obj 105 277 outlet;
#X obj 101 80 *;
#X obj 131 164 sqrt;
#X obj 108 197 +;
#X obj 111 114 t f f;
#X text 150 17 irrational nr/seed;
#X text 77 15 sp;
#X obj 108 235 sin;
#X connect 0 0 3 0;
#X connect 1 0 3 1;
#X connect 3 0 6 0;
#X connect 4 0 5 1;
#X connect 5 0 9 0;
#X connect 6 0 5 0;
#X connect 6 1 4 0;
#X connect 9 0 2 0;
#X restore 37 209 pd rndish;
#X obj 17 269 outlet;
#X obj 144 -81 inlet;
#X obj 267 122 sqrt;
#X msg 267 98 5;
#X obj 345 123 sqrt;
#X msg 345 99 7;
#X obj 180 131 sqrt;
#X msg 180 107 3;
#X obj 108 133 sqrt;
#X msg 108 109 2;
#X obj 373 -63 loadbang;
#X obj 109 160 * 100;
#X obj 180 158 * 100;
#N canvas 5 86 450 300 rndish 0;
#X obj 72 42 inlet;
#X obj 135 42 inlet;
#X obj 105 277 outlet;
#X obj 101 80 *;
#X obj 131 164 sqrt;
#X obj 108 197 +;
#X obj 111 114 t f f;
#X text 150 17 irrational nr/seed;
#X text 77 15 sp;
#X obj 108 235 sin;
#X connect 0 0 3 0;
#X connect 1 0 3 1;
#X connect 3 0 6 0;
#X connect 4 0 5 1;
#X connect 5 0 9 0;
#X connect 6 0 5 0;
#X connect 6 1 4 0;
#X connect 9 0 2 0;
#X restore 142 206 pd rndish;
#X obj 141 267 outlet;
#X text 194 -77 sp;
#N canvas 5 86 450 300 rndish 0;
#X obj 72 42 inlet;
#X obj 135 42 inlet;
#X obj 105 277 outlet;
#X obj 101 80 *;
#X obj 131 164 sqrt;
#X obj 108 197 +;
#X obj 111 114 t f f;
#X text 150 17 irrational nr/seed;
#X text 77 15 sp;
#X obj 108 235 sin;
#X connect 0 0 3 0;
#X connect 1 0 3 1;
#X connect 3 0 6 0;
#X connect 4 0 5 1;
#X connect 5 0 9 0;
#X connect 6 0 5 0;
#X connect 6 1 4 0;
#X connect 9 0 2 0;
#X restore 231 205 pd rndish;
#X obj 264 152 * 100;
#X obj 346 154 * 100;
#N canvas 5 86 450 300 rndish 0;
#X obj 72 42 inlet;
#X obj 135 42 inlet;
#X obj 105 277 outlet;
#X obj 101 80 *;
#X obj 131 164 sqrt;
#X obj 108 197 +;
#X obj 111 114 t f f;
#X text 150 17 irrational nr/seed;
#X text 77 15 sp;
#X obj 108 235 sin;
#X connect 0 0 3 0;
#X connect 1 0 3 1;
#X connect 3 0 6 0;
#X connect 4 0 5 1;
#X connect 5 0 9 0;
#X connect 6 0 5 0;
#X connect 6 1 4 0;
#X connect 9 0 2 0;
#X restore 327 212 pd rndish;
#X obj 240 272 outlet;
#X obj 334 270 outlet;
#N canvas 5 86 450 300 rndish 0;
#X obj 72 42 inlet;
#X obj 135 42 inlet;
#X obj 105 277 outlet;
#X obj 101 80 *;
#X obj 131 164 sqrt;
#X obj 108 197 +;
#X obj 111 114 t f f;
#X text 150 17 irrational nr/seed;
#X text 77 15 sp;
#X obj 108 235 sin;
#X connect 0 0 3 0;
#X connect 1 0 3 1;
#X connect 3 0 6 0;
#X connect 4 0 5 1;
#X connect 5 0 9 0;
#X connect 6 0 5 0;
#X connect 6 1 4 0;
#X connect 9 0 2 0;
#X restore 432 211 pd rndish;
#X obj 412 271 outlet;
#X obj 651 119 sqrt;
#X obj 729 120 sqrt;
#X obj 557 122 sqrt;
#X obj 460 136 sqrt;
#X obj 461 163 * 100;
#X obj 557 149 * 100;
#N canvas 5 86 450 300 rndish 0;
#X obj 72 42 inlet;
#X obj 135 42 inlet;
#X obj 105 277 outlet;
#X obj 101 80 *;
#X obj 131 164 sqrt;
#X obj 108 197 +;
#X obj 111 114 t f f;
#X text 150 17 irrational nr/seed;
#X text 77 15 sp;
#X obj 108 235 sin;
#X connect 0 0 3 0;
#X connect 1 0 3 1;
#X connect 3 0 6 0;
#X connect 4 0 5 1;
#X connect 5 0 9 0;
#X connect 6 0 5 0;
#X connect 6 1 4 0;
#X connect 9 0 2 0;
#X restore 537 208 pd rndish;
#X obj 536 269 outlet;
#N canvas 5 86 450 300 rndish 0;
#X obj 72 42 inlet;
#X obj 135 42 inlet;
#X obj 105 277 outlet;
#X obj 101 80 *;
#X obj 131 164 sqrt;
#X obj 108 197 +;
#X obj 111 114 t f f;
#X text 150 17 irrational nr/seed;
#X text 77 15 sp;
#X obj 108 235 sin;
#X connect 0 0 3 0;
#X connect 1 0 3 1;
#X connect 3 0 6 0;
#X connect 4 0 5 1;
#X connect 5 0 9 0;
#X connect 6 0 5 0;
#X connect 6 1 4 0;
#X connect 9 0 2 0;
#X restore 626 207 pd rndish;
#X obj 648 149 * 100;
#X obj 730 151 * 100;
#N canvas 5 86 450 300 rndish 0;
#X obj 72 42 inlet;
#X obj 135 42 inlet;
#X obj 105 277 outlet;
#X obj 101 80 *;
#X obj 131 164 sqrt;
#X obj 108 197 +;
#X obj 111 114 t f f;
#X text 150 17 irrational nr/seed;
#X text 77 15 sp;
#X obj 108 235 sin;
#X connect 0 0 3 0;
#X connect 1 0 3 1;
#X connect 3 0 6 0;
#X connect 4 0 5 1;
#X connect 5 0 9 0;
#X connect 6 0 5 0;
#X connect 6 1 4 0;
#X connect 9 0 2 0;
#X restore 722 214 pd rndish;
#X obj 635 274 outlet;
#X obj 729 272 outlet;
#X msg 460 112 11;
#X msg 557 98 13;
#X msg 651 95 17;
#X msg 729 96 23;
#X connect 0 0 1 0;
#X connect 2 0 0 0;
#X connect 2 0 14 0;
#X connect 2 0 17 0;
#X connect 2 0 20 0;
#X connect 2 0 23 0;
#X connect 2 0 31 0;
#X connect 2 0 33 0;
#X connect 2 0 36 0;
#X connect 3 0 18 0;
#X connect 4 0 3 0;
#X connect 5 0 19 0;
#X connect 6 0 5 0;
#X connect 7 0 13 0;
#X connect 8 0 7 0;
#X connect 9 0 12 0;
#X connect 10 0 9 0;
#X connect 11 0 10 0;
#X connect 11 0 8 0;
#X connect 11 0 4 0;
#X connect 11 0 6 0;
#X connect 11 0 39 0;
#X connect 11 0 40 0;
#X connect 11 0 41 0;
#X connect 11 0 42 0;
#X connect 12 0 0 1;
#X connect 13 0 14 1;
#X connect 14 0 15 0;
#X connect 17 0 21 0;
#X connect 18 0 17 1;
#X connect 19 0 20 1;
#X connect 20 0 22 0;
#X connect 23 0 24 0;
#X connect 25 0 34 0;
#X connect 26 0 35 0;
#X connect 27 0 30 0;
#X connect 28 0 29 0;
#X connect 29 0 23 1;
#X connect 30 0 31 1;
#X connect 31 0 32 0;
#X connect 33 0 37 0;
#X connect 34 0 33 1;
#X connect 35 0 36 1;
#X connect 36 0 38 0;
#X connect 39 0 28 0;
#X connect 40 0 27 0;
#X connect 41 0 25 0;
#X connect 42 0 26 0;
#X restore 278 453 pd eightrandom;
#X obj -5 285 div;
#X obj 261 117 nbx 7 14 1 1e+37 0 1 empty empty seed 0 -8 0 10 -262144
-1 -1 1207 256;
#X obj 103 160 nbx 3 14 1 64 0 1 empty empty spd1 0 -8 0 10 -262144
-1 -1 6 256;
#N canvas 6 90 450 300 rndish-sp 0;
#X obj 72 42 inlet;
#X obj 151 -77 inlet;
#X obj 105 277 outlet;
#X obj 101 80 *;
#X obj 131 164 sqrt;
#X obj 108 197 +;
#X obj 111 114 t f f;
#X text 77 15 sp;
#X obj 108 235 sin;
#X obj 157 41 +;
#X obj 191 14 /;
#X msg 179 -14 1;
#X obj 164 -50 t f b f;
#X text 165 -102 seed;
#X connect 0 0 3 0;
#X connect 1 0 12 0;
#X connect 3 0 6 0;
#X connect 4 0 5 1;
#X connect 5 0 8 0;
#X connect 6 0 5 0;
#X connect 6 1 4 0;
#X connect 8 0 2 0;
#X connect 9 0 3 1;
#X connect 10 0 9 1;
#X connect 11 0 10 0;
#X connect 12 0 9 0;
#X connect 12 1 11 0;
#X connect 12 2 10 1;
#X restore -13 319 pd rndish-sp;
#X obj 127 294 div;
#X obj 141 160 nbx 3 14 1 64 0 1 empty empty spd2 0 -8 0 10 -262144
-1 -1 1 256;
#N canvas 6 90 450 300 rndish-sp 0;
#X obj 72 42 inlet;
#X obj 151 -77 inlet;
#X obj 105 277 outlet;
#X obj 101 80 *;
#X obj 131 164 sqrt;
#X obj 108 197 +;
#X obj 111 114 t f f;
#X text 77 15 sp;
#X obj 108 235 sin;
#X obj 157 41 +;
#X obj 191 14 /;
#X msg 179 -14 1;
#X obj 164 -50 t f b f;
#X text 165 -102 seed;
#X connect 0 0 3 0;
#X connect 1 0 12 0;
#X connect 3 0 6 0;
#X connect 4 0 5 1;
#X connect 5 0 8 0;
#X connect 6 0 5 0;
#X connect 6 1 4 0;
#X connect 8 0 2 0;
#X connect 9 0 3 1;
#X connect 10 0 9 1;
#X connect 11 0 10 0;
#X connect 12 0 9 0;
#X connect 12 1 11 0;
#X connect 12 2 10 1;
#X restore 157 351 pd rndish-sp;
#X obj 242 287 div;
#X obj 179 160 nbx 3 14 1 64 0 1 empty empty spd3 0 -8 0 10 -262144
-1 -1 2 256;
#N canvas 6 90 450 300 rndish-sp 0;
#X obj 72 42 inlet;
#X obj 151 -77 inlet;
#X obj 105 277 outlet;
#X obj 101 80 *;
#X obj 131 164 sqrt;
#X obj 108 197 +;
#X obj 111 114 t f f;
#X text 77 15 sp;
#X obj 108 235 sin;
#X obj 157 41 +;
#X obj 191 14 /;
#X msg 179 -14 1;
#X obj 164 -50 t f b f;
#X text 165 -102 seed;
#X connect 0 0 3 0;
#X connect 1 0 12 0;
#X connect 3 0 6 0;
#X connect 4 0 5 1;
#X connect 5 0 8 0;
#X connect 6 0 5 0;
#X connect 6 1 4 0;
#X connect 8 0 2 0;
#X connect 9 0 3 1;
#X connect 10 0 9 1;
#X connect 11 0 10 0;
#X connect 12 0 9 0;
#X connect 12 1 11 0;
#X connect 12 2 10 1;
#X restore 255 336 pd rndish-sp;
#N canvas 436 307 450 300 limit 0;
#X obj 40 31 inlet~;
#X obj 40 234 outlet~;
#X obj 41 199 /~;
#X obj 75 174 clip~ 1 32000;
#X obj 79 136 lop~ 100;
#X obj 76 108 abs~;
#X connect 0 0 2 0;
#X connect 0 0 5 0;
#X connect 2 0 1 0;
#X connect 3 0 2 1;
#X connect 4 0 3 0;
#X connect 5 0 4 0;
#X restore 69 665 pd limit;
#X obj 223 160 nbx 4 14 -128 128 0 1 empty empty tp 0 -8 0 10 -262144
-1 -1 0 256;
#X obj 208 127 nbx 4 14 3 1024 0 1 empty empty len(1/16) 0 -8 0 10
-262144 -1 -1 16 256;
#X obj 4 156 mod;
#X obj -3 235 +;
#X obj 103 127 nbx 4 14 0 1024 0 1 empty empty st(len) 0 -8 0 10 -262144
-1 -1 22 256;
#X obj 43 162 *;
#X obj 334 115 vsl 15 56 0.01 1 0 1 empty empty empty 0 -9 0 10 -262144
-1 -1 2100 1;
#X obj 563 592 *;
#X obj 80 720 *~;
#X obj 69 690 hip~ 12;
#N canvas 158 488 450 300 rgb 0;
#X obj 64 54 inlet;
#X obj 141 56 inlet;
#X obj 207 57 inlet;
#X text 69 29 red;
#X text 139 31 green;
#X text 211 31 blue;
#X obj 207 103 t b f;
#X obj 141 161 +;
#X obj 141 186 t b f;
#X obj 141 217 +;
#X obj 64 80 * -65536;
#X obj 141 81 * -256;
#X obj 207 81 * -1;
#X obj 141 248 - 1;
#X obj 139 271 outlet;
#X connect 0 0 10 0;
#X connect 1 0 11 0;
#X connect 2 0 12 0;
#X connect 6 0 7 0;
#X connect 6 1 7 1;
#X connect 7 0 8 0;
#X connect 8 0 9 0;
#X connect 8 1 9 1;
#X connect 9 0 13 0;
#X connect 10 0 9 0;
#X connect 11 0 7 0;
#X connect 12 0 6 0;
#X connect 13 0 14 0;
#X restore 732 613 pd rgb;
#X obj 284 139 cnv 15 30 30 empty \$0monochrome empty 20 12 0 14 -19900
-262144 0;
#X msg 745 717 \; \$1monochrome color \$2 0;
#X obj 745 689 pack f f;
#X obj 740 658 \$0;
#X obj 732 635 t b f;
#X obj 622 520 * 128;
#X obj 623 549 + 128;
#X obj 623 572 clip 0 255;
#X obj 738 520 * 128;
#X obj 739 549 + 128;
#X obj 739 572 clip 0 255;
#X obj 832 520 * 128;
#X obj 833 549 + 128;
#X obj 833 572 clip 0 255;
#X obj 153 127 nbx 4 14 0 1024 0 1 empty empty st(1/16) 0 -8 0 10 -262144
-1 -1 8 256;
#X obj 16 214 +;
#X obj 65 183 t b f;
#X obj 139 -37 unpack f f f f f f f f f;
#X obj 301 215 pack f f f f f f f f f f;
#N canvas 699 104 1139 747 presets 0;
#X obj 79 53 inlet;
#X obj 781 744 outlet;
#X obj 718 74 inlet;
#X text 82 29 store;
#X text 718 54 recall;
#X obj 237 143 route 0 1 2 3 4 5 6 7 8 9 10 11 12 13 14 15;
#X msg 237 208 9 0 16 781 3 7 5 0 0.19;
#X msg 254 275 6 11 24 738.39 5 5 2 34 0.154;
#X msg 210 98 \$1 set \$2 \$3 \$4 \$5 \$6 \$7 \$8 \$9 \$10;
#X msg 296 335 8 3 32 69.69 5 6 7 0 0.208;
#X msg 328 394 2 0 24 1713.55 3 4 5 0 0.172;
#X obj 615 143 select 0 1 2 3 4 5 6 7 8 9 10 11 12 13 14 15;
#X msg 373 456 32 4 20 2107.41 4 6 8 -7 0.442;
#X msg 415 516 6 16 24 1150 10 6 7 13 0.37;
#X msg 447 575 42 0 16 2152 8 2 5 0 0.208;
#X msg 478 620 5 20 32 1004.44 7 4 5 -7 0.154;
#X msg 610 217 52 0 32 365.17 5 6 2 12 0.19;
#X msg 655 279 13 0 40 490.68 3 2 4 -27 0.262;
#X msg 697 339 29 8 20 716.64 3 7 1 45 0.118;
#X msg 729 398 20 0 48 798 12 5 4 0 0.208;
#X msg 759 448 19 13 16 1093 5 2 4 -23 0.316;
#X msg 804 510 22 8 16 1207 6 1 2 0 0.388;
#X msg 846 570 24 8 16 2040 5 2 3 0 0.172;
#X msg 878 629 36 22 32 22936 2 7 3 19 0.244;
#X connect 0 0 8 0;
#X connect 2 0 11 0;
#X connect 5 0 6 0;
#X connect 5 1 7 0;
#X connect 5 2 9 0;
#X connect 5 3 10 0;
#X connect 5 4 12 0;
#X connect 5 5 13 0;
#X connect 5 6 14 0;
#X connect 5 7 15 0;
#X connect 5 8 16 0;
#X connect 5 9 17 0;
#X connect 5 10 18 0;
#X connect 5 11 19 0;
#X connect 5 12 20 0;
#X connect 5 13 21 0;
#X connect 5 14 22 0;
#X connect 5 15 23 0;
#X connect 6 0 1 0;
#X connect 7 0 1 0;
#X connect 8 0 5 0;
#X connect 9 0 1 0;
#X connect 10 0 1 0;
#X connect 11 0 6 0;
#X connect 11 1 7 0;
#X connect 11 2 9 0;
#X connect 11 3 10 0;
#X connect 11 4 12 0;
#X connect 11 5 13 0;
#X connect 11 6 14 0;
#X connect 11 7 15 0;
#X connect 11 8 16 0;
#X connect 11 9 17 0;
#X connect 11 10 18 0;
#X connect 11 11 19 0;
#X connect 11 12 20 0;
#X connect 11 13 21 0;
#X connect 11 14 22 0;
#X connect 11 15 23 0;
#X connect 12 0 1 0;
#X connect 13 0 1 0;
#X connect 14 0 1 0;
#X connect 15 0 1 0;
#X connect 16 0 1 0;
#X connect 17 0 1 0;
#X connect 18 0 1 0;
#X connect 19 0 1 0;
#X connect 20 0 1 0;
#X connect 21 0 1 0;
#X connect 22 0 1 0;
#X connect 23 0 1 0;
#X restore 491 168 pd presets;
#X obj 355 159 bng 15 250 50 0 empty empty empty 17 7 0 10 -258113
-1 -1;
#X obj 355 113 bng 15 250 50 0 empty empty empty 17 7 0 10 -4034 -1
-1;
#X obj 485 78 float;
#X obj 663 80 float;
#X obj 351 137 nbx 2 14 0 15 0 1 empty empty empty 0 -8 0 10 -262144
-1 -1 13 256;
#X obj 190 178 hsl 128 8 0 1 0 0 empty empty empty -2 -8 0 10 -262144
-1 -1 2381 1;
#X obj 86 235 /;
#X obj 270 74 t b f;
#X text 515 31 7/2011 martin brinkmann;
#X text 515 -1 random noise-synth loop. based on my 'animated version'
of jon annings 'madbox'-reaktor-ensemble;
#X connect 0 0 18 0;
#X connect 2 0 4 1;
#X connect 2 1 4 2;
#X connect 2 2 4 3;
#X connect 2 3 5 4;
#X connect 2 4 5 5;
#X connect 2 5 5 6;
#X connect 2 6 5 7;
#X connect 2 7 5 8;
#X connect 3 0 21 0;
#X connect 4 0 0 0;
#X connect 5 0 0 1;
#X connect 6 0 4 4;
#X connect 6 1 4 5;
#X connect 6 2 4 6;
#X connect 6 3 4 7;
#X connect 6 4 4 8;
#X connect 6 5 4 9;
#X connect 6 6 4 10;
#X connect 6 7 4 11;
#X connect 7 0 5 1;
#X connect 7 1 5 2;
#X connect 7 2 5 3;
#X connect 7 3 5 9;
#X connect 7 4 5 10;
#X connect 7 5 5 11;
#X connect 7 6 5 12;
#X connect 7 7 4 12;
#X connect 8 0 11 0;
#X connect 9 0 11 1;
#X connect 9 0 14 1;
#X connect 9 0 17 1;
#X connect 9 0 48 4;
#X connect 10 0 8 1;
#X connect 10 0 48 5;
#X connect 11 0 2 0;
#X connect 11 0 35 0;
#X connect 12 0 14 0;
#X connect 13 0 12 1;
#X connect 13 0 48 6;
#X connect 14 0 6 0;
#X connect 14 0 38 0;
#X connect 15 0 17 0;
#X connect 16 0 15 1;
#X connect 16 0 48 7;
#X connect 17 0 7 0;
#X connect 17 0 41 0;
#X connect 18 0 28 0;
#X connect 19 0 4 0;
#X connect 19 0 5 0;
#X connect 19 0 48 8;
#X connect 20 0 48 3;
#X connect 20 0 56 1;
#X connect 20 0 57 0;
#X connect 21 0 22 0;
#X connect 21 0 56 0;
#X connect 22 0 8 0;
#X connect 22 0 12 0;
#X connect 22 0 15 0;
#X connect 23 0 24 0;
#X connect 23 0 48 1;
#X connect 24 0 45 0;
#X connect 25 0 26 1;
#X connect 25 0 26 0;
#X connect 25 0 48 9;
#X connect 26 0 27 1;
#X connect 27 0 1 0;
#X connect 28 0 27 0;
#X connect 29 0 34 0;
#X connect 32 0 31 0;
#X connect 33 0 32 0;
#X connect 34 0 33 0;
#X connect 34 1 32 1;
#X connect 35 0 36 0;
#X connect 36 0 37 0;
#X connect 37 0 29 0;
#X connect 38 0 39 0;
#X connect 39 0 40 0;
#X connect 40 0 29 1;
#X connect 41 0 42 0;
#X connect 42 0 43 0;
#X connect 43 0 29 2;
#X connect 44 0 46 0;
#X connect 44 0 48 2;
#X connect 45 0 22 1;
#X connect 46 0 45 0;
#X connect 46 1 45 1;
#X connect 47 0 23 0;
#X connect 47 1 44 0;
#X connect 47 2 20 0;
#X connect 47 3 9 0;
#X connect 47 4 10 0;
#X connect 47 5 13 0;
#X connect 47 6 16 0;
#X connect 47 7 19 0;
#X connect 47 8 25 0;
#X connect 48 0 49 0;
#X connect 49 0 47 0;
#X connect 50 0 52 0;
#X connect 51 0 53 0;
#X connect 52 0 48 0;
#X connect 53 0 49 1;
#X connect 54 0 52 1;
#X connect 54 0 53 1;
#X connect 56 0 55 0;
#X connect 57 0 23 0;
#X connect 57 1 24 1;
#X connect 57 1 21 1;
#X coords 0 -1 1 1 280 90 1 100 100;
#X restore -42 -66 pd madloop1;
#X obj -28 173 dac~;
#N canvas 224 46 961 852 16counter 0;
#X obj 318 440 + 1;
#X obj 267 436 float;
#X obj 272 622 mod 2;
#X obj 210 672 delay 0;
#X obj 260 651 *;
#X msg 206 296 1;
#X obj 218 321 /;
#X obj 209 273 t f f;
#X obj 228 344 * 15000;
#X obj 339 355 t b f;
#X obj 263 405 metro 125;
#X obj 182 578 *;
#X obj 268 596 t b f f;
#X obj 136 130 hsl 80 8 0 0.4 0 1 empty empty swing -33 4 0 10 -262144
-1 -1 0 1;
#X msg 340 329 -2;
#X obj 251 700 int;
#X obj 172 17 loadbang;
#X floatatom 126 113 5 30 300 0 bpm - -;
#X msg -2 85 set \$1;
#X msg 5 139 110;
#X obj 174 112 bng 15 250 50 0 empty empty empty 6 7 0 10 -261234 -1
-1;
#X obj 253 737 outlet;
#X obj 570 496 outlet;
#X text 618 497 bpm->;
#X obj 200 112 bng 15 50 20 0 empty empty empty 6 7 0 10 -204786 -1
-1;
#X obj 208 225 float;
#X obj 435 539 outlet;
#X text 144 343 1/16 in ms;
#X text 485 540 pos96->;
#X text 178 628 swing;
#X obj 259 373 / 6;
#X text 219 371 1/96;
#X obj 343 481 / 6;
#X obj 343 505 int;
#X obj 342 530 change;
#X text 304 738 pos16swing->;
#X obj 600 64 + 1;
#X obj 602 29 float;
#X obj 600 96 moses 2;
#X obj 600 155 timer;
#X obj 600 123 t b;
#X obj 648 122 t b b;
#X obj 653 243 /;
#X msg 623 221 60000;
#X obj 618 183 t b f;
#X obj 656 268 moses 10;
#X text 500 72 beatcounter;
#X obj 772 358 float;
#X obj 769 401 + 1;
#X obj 688 426 +;
#X obj 729 396 *;
#X obj 705 328 t f b;
#X obj 698 464 /;
#X msg 884 211 0;
#X text 499 302 mean (as seen on idafx blog);
#X obj 906 259 bng 15 250 50 0 empty empty empty 17 7 0 10 -262144
-1 -1;
#X obj 864 324 t f f;
#X obj 921 503 moses 0.1;
#X text 880 303 reset;
#X obj 870 366 /;
#X obj 849 431 < 0.75;
#X obj 903 435 > 1.25;
#X obj 869 391 t f f;
#X obj 877 471 ||;
#X obj 174 54 t b b b;
#X obj 43 -7 inlet;
#X obj 107 -11 inlet;
#X connect 0 0 1 1;
#X connect 0 0 32 0;
#X connect 0 0 26 0;
#X connect 1 0 0 0;
#X connect 2 0 4 0;
#X connect 3 0 15 0;
#X connect 4 0 3 1;
#X connect 5 0 6 0;
#X connect 6 0 8 0;
#X connect 7 0 5 0;
#X connect 7 1 6 1;
#X connect 8 0 11 1;
#X connect 8 0 30 0;
#X connect 9 0 10 0;
#X connect 9 1 1 0;
#X connect 10 0 1 0;
#X connect 11 0 4 1;
#X connect 12 0 3 0;
#X connect 12 1 2 0;
#X connect 12 2 15 1;
#X connect 13 0 11 0;
#X connect 14 0 9 0;
#X connect 15 0 21 0;
#X connect 16 0 64 0;
#X connect 17 0 18 0;
#X connect 17 0 25 1;
#X connect 18 0 19 0;
#X connect 19 0 17 0;
#X connect 20 0 14 0;
#X connect 20 0 25 0;
#X connect 24 0 37 0;
#X connect 25 0 7 0;
#X connect 25 0 22 0;
#X connect 30 0 10 1;
#X connect 32 0 33 0;
#X connect 33 0 34 0;
#X connect 34 0 12 0;
#X connect 36 0 37 1;
#X connect 36 0 38 0;
#X connect 37 0 36 0;
#X connect 38 0 40 0;
#X connect 38 1 41 0;
#X connect 39 0 44 0;
#X connect 39 0 56 0;
#X connect 40 0 39 0;
#X connect 41 0 39 0;
#X connect 41 1 39 1;
#X connect 42 0 45 0;
#X connect 43 0 42 0;
#X connect 44 0 43 0;
#X connect 44 1 42 1;
#X connect 45 1 51 0;
#X connect 47 0 48 0;
#X connect 47 0 50 0;
#X connect 48 0 47 1;
#X connect 48 0 52 1;
#X connect 49 0 52 0;
#X connect 50 0 49 1;
#X connect 51 0 49 0;
#X connect 51 1 47 0;
#X connect 52 0 50 1;
#X connect 52 0 17 0;
#X connect 53 0 47 1;
#X connect 53 0 37 1;
#X connect 53 0 55 0;
#X connect 56 0 59 1;
#X connect 56 1 59 0;
#X connect 57 1 53 0;
#X connect 59 0 62 0;
#X connect 60 0 63 0;
#X connect 61 0 63 1;
#X connect 62 0 60 0;
#X connect 62 1 61 0;
#X connect 63 0 57 0;
#X connect 64 0 20 0;
#X connect 64 1 20 0;
#X connect 64 2 19 0;
#X connect 65 0 20 0;
#X connect 66 0 24 0;
#X coords 0 -1 1 1 120 40 1 100 100;
#X restore -42 -129 pd 16counter;
#N canvas 44 132 704 644 mym2schorus 0;
#X obj 23 59 inlet~;
#X obj 466 487 outlet~;
#X obj 295 500 outlet~;
#X obj 197 264 cos~;
#X obj 197 291 +~ 1;
#X obj 290 225 +~ 0.25;
#X obj 304 254 cos~;
#X obj 309 284 +~ 1;
#X obj 369 69 phasor~;
#X obj 354 -14 loadbang;
#X msg 355 20 0.8;
#X obj 145 407 vd~ \$0mychr1;
#X obj 298 371 vd~ \$0mychr1;
#X obj 311 318 *~ 0.3;
#X obj 418 232 cos~;
#X obj 423 262 +~ 1;
#X obj 412 349 vd~ \$0mychr1;
#X obj 425 296 *~ 0.3;
#X obj 24 101 delwrite~ \$0mychr1 100;
#X obj 404 203 +~ 0.5;
#X obj 522 250 cos~;
#X obj 527 280 +~ 1;
#X obj 516 367 vd~ \$0mychr1;
#X obj 508 221 +~ 0.75;
#X obj 530 315 *~ 0.31;
#X obj 194 318 *~ 0.31;
#X connect 0 0 18 0;
#X connect 3 0 4 0;
#X connect 4 0 25 0;
#X connect 5 0 6 0;
#X connect 6 0 7 0;
#X connect 7 0 13 0;
#X connect 8 0 3 0;
#X connect 8 0 5 0;
#X connect 8 0 19 0;
#X connect 8 0 23 0;
#X connect 9 0 10 0;
#X connect 10 0 8 0;
#X connect 11 0 2 0;
#X connect 12 0 1 0;
#X connect 13 0 12 0;
#X connect 14 0 15 0;
#X connect 15 0 17 0;
#X connect 16 0 2 0;
#X connect 17 0 16 0;
#X connect 19 0 14 0;
#X connect 20 0 21 0;
#X connect 21 0 24 0;
#X connect 22 0 1 0;
#X connect 23 0 20 0;
#X connect 24 0 22 0;
#X connect 25 0 11 0;
#X restore -43 131 pd mym2schorus;
#X text 244 -74 random noise-synth loop. based on my 'animated version'
of jon annings 'madbox'-reaktor-ensemble \, without the 'fx-cosmetics'
though. (just use your own filters and delays) \, 16 presets.;
#X connect 0 0 3 0;
#X connect 2 0 0 0;
#X connect 3 0 1 0;
#X connect 3 1 1 1;
