#N canvas 266 162 1084 809 10;
#X obj 34 504 osc~;
#X obj 83 629 *~;
#X obj 515 178 delay 2050;
#X obj 515 200 t b b;
#X msg 520 261 -1;
#X obj 630 257 f \$1;
#X obj 34 237 pack f 0;
#X obj 349 514 *~;
#X obj 349 537 *~;
#X obj 339 341 sqrt;
#X text 387 520 Using a quartic curve for more natural sounding attack
and release \, as in D07.additive.pd;
#N canvas 297 37 802 717 gliss-traj 0;
#X obj 37 28 inlet;
#X obj 37 50 t b b b;
#X obj 50 575 outlet~;
#X obj 50 459 pack f f f;
#X msg 50 481 0 \, \$1 \$2 \$3;
#X obj 160 342 + 500;
#X obj 371 570 inlet;
#X msg 371 592 stop \, 0;
#X text 289 633 Stop the trajectory if this voice is killed;
#X obj 50 531 vline~;
#X obj 50 416 / 100;
#X obj 427 349 + 250;
#X obj 538 289 t b f;
#X obj 498 267 -;
#X obj 498 289 + 1;
#X obj 277 280 t b f;
#X obj 237 258 -;
#X obj 237 280 + 1;
#X obj 281 438 t b f;
#X obj 226 411 -;
#X obj 226 472 + 1;
#X obj 226 450 * 100;
#X obj 312 464 * 100;
#X obj 50 369 random 701;
#X obj 160 318 random 1001;
#X obj 427 327 random 1001;
#X obj 50 394 + 350;
#N canvas 118 71 450 300 get-gliss-dur-range 0;
#X obj 80 49 r \$2-martha-gliss-dur-range;
#X obj 130 117 unpack f f;
#X obj 73 75 t l l;
#X obj 42 116 unpack f f;
#X obj 42 138 max;
#X obj 130 139 min;
#X obj 42 160 outlet;
#X obj 131 163 outlet;
#X connect 0 0 2 0;
#X connect 1 0 5 0;
#X connect 1 1 5 1;
#X connect 2 0 3 0;
#X connect 2 1 1 0;
#X connect 3 0 4 0;
#X connect 3 1 4 1;
#X connect 4 0 6 0;
#X connect 5 0 7 0;
#X restore 237 231 pd get-gliss-dur-range;
#N canvas 200 229 450 300 get-gliss-onset-delay-range 0;
#X obj 130 117 unpack f f;
#X obj 73 75 t l l;
#X obj 42 116 unpack f f;
#X obj 42 138 max;
#X obj 130 139 min;
#X obj 42 160 outlet;
#X obj 131 163 outlet;
#X obj 80 49 r \$2-martha-gliss-onset-delay-range;
#X connect 0 0 4 0;
#X connect 0 1 4 1;
#X connect 1 0 2 0;
#X connect 1 1 0 0;
#X connect 2 0 3 0;
#X connect 2 1 3 1;
#X connect 3 0 5 0;
#X connect 4 0 6 0;
#X connect 7 0 1 0;
#X restore 498 242 pd get-gliss-onset-delay-range;
#N canvas 166 242 450 300 get-gliss-range 0;
#X obj 130 117 unpack f f;
#X obj 73 75 t l l;
#X obj 42 116 unpack f f;
#X obj 42 138 max;
#X obj 130 139 min;
#X obj 42 160 outlet;
#X obj 131 163 outlet;
#X obj 80 49 r \$2-martha-gliss-range;
#X connect 0 0 4 0;
#X connect 0 1 4 1;
#X connect 1 0 2 0;
#X connect 1 1 0 0;
#X connect 2 0 3 0;
#X connect 2 1 3 1;
#X connect 3 0 5 0;
#X connect 4 0 6 0;
#X connect 7 0 1 0;
#X restore 226 385 pd get-gliss-range;
#X floatatom 398 183 10 0 0 0 - - -, f 10;
#X floatatom 308 183 10 0 0 0 - - -, f 10;
#X floatatom 642 216 10 0 0 0 - - -, f 10;
#X floatatom 552 216 10 0 0 0 - - -, f 10;
#X floatatom 447 428 10 0 0 0 - - -, f 10;
#X floatatom 357 428 10 0 0 0 - - -, f 10;
#X connect 0 0 1 0;
#X connect 1 0 23 0;
#X connect 1 1 24 0;
#X connect 1 2 25 0;
#X connect 3 0 4 0;
#X connect 4 0 9 0;
#X connect 5 0 3 1;
#X connect 6 0 7 0;
#X connect 7 0 9 0;
#X connect 9 0 2 0;
#X connect 10 0 3 0;
#X connect 11 0 3 2;
#X connect 12 0 13 0;
#X connect 12 1 13 1;
#X connect 12 1 11 1;
#X connect 13 0 14 0;
#X connect 14 0 25 1;
#X connect 15 0 16 0;
#X connect 15 1 16 1;
#X connect 15 1 5 1;
#X connect 16 0 17 0;
#X connect 17 0 24 1;
#X connect 18 0 19 0;
#X connect 18 1 19 1;
#X connect 18 1 22 0;
#X connect 19 0 21 0;
#X connect 20 0 23 1;
#X connect 21 0 20 0;
#X connect 22 0 26 1;
#X connect 23 0 26 0;
#X connect 24 0 5 0;
#X connect 25 0 11 0;
#X connect 26 0 10 0;
#X connect 27 0 16 0;
#X connect 27 0 31 0;
#X connect 27 1 15 0;
#X connect 27 1 30 0;
#X connect 28 0 13 0;
#X connect 28 0 33 0;
#X connect 28 1 12 0;
#X connect 28 1 32 0;
#X connect 29 0 19 0;
#X connect 29 0 35 0;
#X connect 29 1 18 0;
#X connect 29 1 34 0;
#X restore 84 404 pd gliss-traj;
#X obj 34 426 +~;
#N canvas 0 22 776 503 tremolo 0;
#X obj 93 88 inlet~;
#X obj 97 403 outlet~;
#X obj 616 106 inlet;
#X obj 280 317 osc~;
#X obj 280 339 +~ 1;
#X obj 280 361 *~ 0.5;
#X obj 114 304 *~;
#X obj 616 128 t b b;
#X msg 320 283 0;
#X text 360 287 Set phase to beginning of cosine cycle at the onset
so it's a 1 ready to drop to 0;
#X obj 369 136 t b f;
#X obj 329 114 -;
#X obj 249 220 random 21;
#X obj 249 262 + 0;
#X obj 404 170 * 100;
#X obj 249 284 / 100;
#X obj 329 136 * 100;
#X obj 329 158 + 1;
#N canvas 118 71 450 300 get-tremolo-rate-range 0;
#X obj 130 117 unpack f f;
#X obj 73 75 t l l;
#X obj 42 116 unpack f f;
#X obj 42 138 max;
#X obj 130 139 min;
#X obj 42 160 outlet;
#X obj 131 163 outlet;
#X obj 80 49 r \$2-martha-tremolo-rate-range;
#X connect 0 0 4 0;
#X connect 0 1 4 1;
#X connect 1 0 2 0;
#X connect 1 1 0 0;
#X connect 2 0 3 0;
#X connect 2 1 3 1;
#X connect 3 0 5 0;
#X connect 4 0 6 0;
#X connect 7 0 1 0;
#X restore 328 51 pd get-tremolo-rate-range;
#X floatatom 484 88 10 0 0 0 - - -, f 10;
#X floatatom 394 88 10 0 0 0 - - -, f 10;
#X connect 0 0 6 0;
#X connect 2 0 7 0;
#X connect 3 0 4 0;
#X connect 4 0 5 0;
#X connect 5 0 6 1;
#X connect 6 0 1 0;
#X connect 7 0 12 0;
#X connect 7 1 8 0;
#X connect 8 0 3 1;
#X connect 10 0 11 0;
#X connect 10 1 11 1;
#X connect 10 1 14 0;
#X connect 11 0 16 0;
#X connect 12 0 13 0;
#X connect 13 0 15 0;
#X connect 14 0 13 1;
#X connect 15 0 3 0;
#X connect 16 0 17 0;
#X connect 17 0 12 1;
#X connect 18 0 11 0;
#X connect 18 0 20 0;
#X connect 18 1 10 0;
#X connect 18 1 19 0;
#X restore 349 571 pd tremolo;
#X obj 34 348 +~;
#N canvas 573 235 427 298 transpo 0;
#X obj 51 46 inlet;
#X obj 51 98 random 8;
#X obj 51 173 sig~;
#X obj 51 195 outlet~;
#X text 139 84 Assumes an 8-element transpo table;
#X obj 51 120 tabread \$2-martha-transpo-values;
#X connect 0 0 1 0;
#X connect 1 0 5 0;
#X connect 2 0 3 0;
#X connect 5 0 2 0;
#X restore 67 322 pd transpo;
#X obj 34 448 mtof~;
#X obj 34 286 ftom~;
#X obj 34 264 vline~;
#X obj 349 473 vline~;
#X msg 444 415 0 \$1;
#X obj 602 177 + 50;
#N canvas 160 219 781 466 get-attack-time 0;
#X obj 289 83 t b f;
#X obj 249 61 -;
#X obj 249 83 + 1;
#X obj 139 170 + 5;
#X obj 146 63 inlet;
#X obj 133 120 random 100;
#X obj 43 47 inlet~;
#X obj 50 296 *~;
#X obj 39 368 outlet~;
#X obj 139 221 vline~;
#X obj 139 243 *~;
#X obj 139 265 *~;
#X msg 139 192 0 \, 1 \$1;
#N canvas 118 71 450 300 get-attack-time-range 0;
#X obj 130 117 unpack f f;
#X obj 73 75 t l l;
#X obj 42 116 unpack f f;
#X obj 42 138 max;
#X obj 130 139 min;
#X obj 42 160 outlet;
#X obj 131 163 outlet;
#X obj 80 49 r \$2-martha-attack-time-range;
#X connect 0 0 4 0;
#X connect 0 1 4 1;
#X connect 1 0 2 0;
#X connect 1 1 0 0;
#X connect 2 0 3 0;
#X connect 2 1 3 1;
#X connect 3 0 5 0;
#X connect 4 0 6 0;
#X connect 7 0 1 0;
#X restore 249 24 pd get-attack-time-range;
#X floatatom 450 56 10 0 0 0 - - -, f 10;
#X floatatom 360 56 10 0 0 0 - - -, f 10;
#X connect 0 0 1 0;
#X connect 0 1 1 1;
#X connect 0 1 3 1;
#X connect 1 0 2 0;
#X connect 2 0 5 1;
#X connect 3 0 12 0;
#X connect 4 0 5 0;
#X connect 5 0 3 0;
#X connect 6 0 7 0;
#X connect 7 0 8 0;
#X connect 9 0 10 0;
#X connect 9 0 10 1;
#X connect 10 0 11 0;
#X connect 10 0 11 1;
#X connect 11 0 7 1;
#X connect 12 0 9 0;
#X connect 13 0 1 0;
#X connect 13 0 15 0;
#X connect 13 1 0 0;
#X connect 13 1 14 0;
#X restore 92 679 pd get-attack-time;
#N canvas 0 22 597 308 get-release-time 0;
#X obj 233 107 t b f;
#X obj 193 85 -;
#X obj 193 107 + 1;
#X obj 122 189 outlet;
#X obj 90 87 inlet;
#X obj 122 167 + 500;
#X obj 122 145 random 1000;
#N canvas 118 71 450 300 get-release-time-range 0;
#X obj 130 117 unpack f f;
#X obj 73 75 t l l;
#X obj 42 116 unpack f f;
#X obj 42 138 max;
#X obj 130 139 min;
#X obj 42 160 outlet;
#X obj 131 163 outlet;
#X obj 80 49 r \$2-martha-release-time-range;
#X connect 0 0 4 0;
#X connect 0 1 4 1;
#X connect 1 0 2 0;
#X connect 1 1 0 0;
#X connect 2 0 3 0;
#X connect 2 1 3 1;
#X connect 3 0 5 0;
#X connect 4 0 6 0;
#X connect 7 0 1 0;
#X restore 193 52 pd get-release-time-range;
#X floatatom 413 96 10 0 0 0 - - -, f 10;
#X floatatom 323 96 10 0 0 0 - - -, f 10;
#X connect 0 0 1 0;
#X connect 0 1 1 1;
#X connect 0 1 5 1;
#X connect 1 0 2 0;
#X connect 2 0 6 1;
#X connect 4 0 6 0;
#X connect 5 0 3 0;
#X connect 6 0 5 0;
#X connect 7 0 1 0;
#X connect 7 0 9 0;
#X connect 7 1 0 0;
#X connect 7 1 8 0;
#X restore 444 380 pd get-release-time;
#X obj 213 443 t b f b;
#X obj 339 375 pack f 5;
#X obj 457 105 t b b;
#X obj 92 191 swap 1;
#X obj 92 212 -;
#X obj 166 99 t b f b;
#X obj 19 186 spigot;
#N canvas 365 89 1178 657 freq-new 0;
#X obj 132 369 swap 1;
#X obj 132 390 -;
#X obj 176 541 outlet;
#X text 564 109 if pitchify is OFF \, simply pass thru the new frequency
;
#X obj 500 246 f \$1;
#X obj 488 330 i;
#X obj 500 270 t f f;
#X obj 283 120 f;
#X obj 288 173 spigot;
#X obj 79 375 spigot;
#X obj 414 387 mtof;
#X obj 438 457 *;
#X obj 542 327 + 1;
#X obj 413 330 f;
#X obj 288 194 t b b f;
#X obj 418 532 f;
#X obj 487 309 / 12;
#X obj 542 306 % 12;
#X obj 194 512 f;
#X obj 377 484 moses 12000;
#X obj 451 506 t b;
#X text 496 490 If the harmonic ends up being over 12kHz \, forget
the pitch scheme and just go with the regular frequency.;
#X obj 302 74 f \$1;
#X obj 146 42 t f f b b;
#X text 565 42 if pitchify switch is ON \, find this abstraction's
pitch from the table of 13 values. find out which harmonic it is and
tune it;
#X obj 705 566 outlet;
#X text 750 602 amp scalar;
#X floatatom 375 157 5 0 0 0 - - -, f 5;
#X msg 524 555 1;
#X text 753 542 amp scalar so that harmonics are 1/N amplitude. cuts
annoying high freqs being too loud;
#X obj 79 396 t f b;
#X obj 667 389 t b f;
#X msg 667 410 1;
#X obj 667 431 /;
#X obj 712 415 pow 0.5;
#X obj 302 96 tabread \$2-martha-pitchify-switches;
#X obj 146 21 r \$2-martha-freq-new-\$1;
#X obj 415 365 tabread \$2-martha-pitchify-pitches;
#X obj 785 340 r \$2-martha-pitchify-spec-env-curve;
#X text 557 250 each group of 12 oscillators is tuned to harmonics
of a common fundamental stored in a table of 8 mIDI pitches;
#X connect 0 0 1 0;
#X connect 0 1 1 1;
#X connect 1 0 9 1;
#X connect 4 0 6 0;
#X connect 5 0 13 1;
#X connect 6 0 16 0;
#X connect 6 1 17 0;
#X connect 7 0 8 1;
#X connect 7 0 0 0;
#X connect 8 0 14 0;
#X connect 9 0 30 0;
#X connect 10 0 11 0;
#X connect 11 0 19 0;
#X connect 12 0 11 1;
#X connect 12 0 31 0;
#X connect 13 0 37 0;
#X connect 14 0 13 0;
#X connect 14 1 4 0;
#X connect 14 2 15 1;
#X connect 15 0 18 0;
#X connect 16 0 5 0;
#X connect 17 0 12 0;
#X connect 18 0 2 0;
#X connect 19 0 18 0;
#X connect 19 1 20 0;
#X connect 20 0 15 0;
#X connect 20 0 28 0;
#X connect 22 0 35 0;
#X connect 23 0 9 0;
#X connect 23 1 8 0;
#X connect 23 2 7 0;
#X connect 23 3 22 0;
#X connect 27 0 14 0;
#X connect 28 0 25 0;
#X connect 30 0 2 0;
#X connect 30 1 28 0;
#X connect 31 0 32 0;
#X connect 31 1 34 0;
#X connect 32 0 33 0;
#X connect 33 0 25 0;
#X connect 34 0 33 1;
#X connect 35 0 7 1;
#X connect 36 0 23 0;
#X connect 37 0 10 0;
#X connect 38 0 34 1;
#X restore 166 73 pd freq-new;
#X obj 339 313 sqrt;
#X obj 339 292 * 1;
#X obj 20 102 t f b;
#X obj 92 149 f \$1;
#X text 539 109 Ramp the volume down over a random amount of time within
the specified limits \, and just after that amount of time \, update
the voice assignment table to indicate this voice is free (-1).;
#X text 692 356 Unused for now \, but may be useful;
#X text 518 19 \$1: voice ID number;
#X text 518 39 \$2: dollar-zero of the parent patch;
#X obj 21 40 r \$2-martha-freq-update-\$1;
#X obj 457 83 r \$2-martha-kill-\$1;
#X obj 520 290 tabwrite \$2-martha-voiceAssts;
#X obj 735 386 r \$2-martha-peak-idx-\$1;
#X obj 274 239 r \$2-martha-amp-update-\$1;
#X obj 92 171 tabread \$2-martha-pitchify-switches;
#X obj 92 734 throw~ \$2-martha-sum-bus;
#X obj 212 421 r \$2-martha-amp-new-\$1;
#X obj 753 213 r \$2-martha-killall;
#X obj 753 235 t b b;
#X obj 753 257 delay 300;
#X msg 781 281 0 250;
#X obj 34 370 +~;
#X obj 156 306 r \$2-martha-transpo;
#X obj 156 328 pack f 40;
#X obj 156 350 line~;
#X connect 0 0 1 0;
#X connect 1 0 22 0;
#X connect 2 0 3 0;
#X connect 3 0 4 0;
#X connect 3 1 5 0;
#X connect 3 1 11 1;
#X connect 4 0 42 0;
#X connect 5 0 42 1;
#X connect 6 0 18 0;
#X connect 7 0 8 0;
#X connect 7 0 8 1;
#X connect 8 0 13 0;
#X connect 9 0 25 0;
#X connect 11 0 12 1;
#X connect 12 0 16 0;
#X connect 13 0 1 1;
#X connect 14 0 52 0;
#X connect 15 0 14 1;
#X connect 16 0 0 0;
#X connect 17 0 14 0;
#X connect 18 0 17 0;
#X connect 19 0 7 0;
#X connect 19 0 7 1;
#X connect 20 0 19 0;
#X connect 21 0 2 1;
#X connect 22 0 46 0;
#X connect 23 0 20 0;
#X connect 23 0 21 0;
#X connect 24 0 13 1;
#X connect 24 1 33 0;
#X connect 24 2 22 1;
#X connect 25 0 19 0;
#X connect 26 0 2 0;
#X connect 26 1 23 0;
#X connect 27 0 28 0;
#X connect 27 1 28 1;
#X connect 28 0 30 1;
#X connect 29 0 11 0;
#X connect 29 1 6 0;
#X connect 29 2 15 0;
#X connect 30 0 6 0;
#X connect 31 0 29 0;
#X connect 31 1 33 1;
#X connect 32 0 9 0;
#X connect 33 0 32 0;
#X connect 34 0 30 0;
#X connect 34 1 35 0;
#X connect 35 0 45 0;
#X connect 40 0 34 0;
#X connect 41 0 26 0;
#X connect 44 0 33 0;
#X connect 45 0 27 0;
#X connect 47 0 24 0;
#X connect 48 0 49 0;
#X connect 49 0 50 0;
#X connect 49 1 51 0;
#X connect 50 0 3 0;
#X connect 51 0 19 0;
#X connect 52 0 12 0;
#X connect 53 0 54 0;
#X connect 54 0 55 0;
#X connect 55 0 52 1;
