#N canvas 487 122 769 724 10;
#N canvas 0 262 794 592 enveloping 0;
#X obj 287 216 *~;
#X obj 408 363 vline~;
#X obj 409 193 f;
#X obj 408 245 sqrt;
#X obj 408 266 sqrt;
#X obj 408 384 *~;
#X obj 408 405 *~;
#X obj 408 307 pack f f f;
#X obj 51 214 *~;
#X obj 58 128 inlet~;
#X obj 274 134 inlet~;
#X obj 57 481 outlet~;
#X obj 293 483 outlet~;
#X obj 482 242 -;
#X obj 433 163 dbtorms;
#X msg 408 330 0 \, \$1 10 \, 0 \$3 \$2;
#X obj 492 203 t f b;
#X msg 536 232 50;
#X text 572 232 Fade time;
#X msg 537 402 stop \, 0 50;
#X obj 399 109 r \$1-streamstretch-env-trig-\$2;
#X obj 433 141 r \$1-streamstretch-amp-\$2;
#X obj 492 170 r \$1-streamstretch-dur-\$2;
#X obj 537 380 r \$1-streamstretch-reader-kill-\$2;
#X connect 0 0 12 0;
#X connect 1 0 5 0;
#X connect 1 0 5 1;
#X connect 2 0 3 0;
#X connect 3 0 4 0;
#X connect 4 0 7 0;
#X connect 5 0 6 0;
#X connect 5 0 6 1;
#X connect 6 0 0 1;
#X connect 6 0 8 1;
#X connect 7 0 15 0;
#X connect 8 0 11 0;
#X connect 9 0 8 0;
#X connect 10 0 0 0;
#X connect 13 0 7 1;
#X connect 14 0 2 1;
#X connect 15 0 1 0;
#X connect 16 0 13 0;
#X connect 16 1 17 0;
#X connect 17 0 13 1;
#X connect 17 0 7 2;
#X connect 19 0 1 0;
#X connect 20 0 2 0;
#X connect 21 0 14 0;
#X connect 22 0 16 0;
#X connect 23 0 19 0;
#X restore 519 546 pd enveloping;
#N canvas 201 67 887 749 table-scrub-guts 0;
#X obj 19 641 *~;
#X obj 156 280 f;
#X obj 196 643 *~;
#X obj 157 203 bang~;
#X obj 198 282 +;
#X obj 331 213 *;
#X obj 184 418 +;
#X obj 144 394 t f f;
#X msg 18 471 \$1 \, \$2 \$3;
#X text 219 342 reading location (samples);
#X obj 52 545 / 4;
#X obj 365 432 *;
#X obj 505 380 + 69;
#X obj 506 401 mtof;
#X obj 506 423 / 440;
#X obj 400 432 t b f;
#X obj 19 667 outlet~;
#X obj 196 668 outlet~;
#X text 432 459 stretched window size (samples);
#X floatatom 122 95 5 0 0 0 - - -, f 5;
#X obj 103 136 / 4;
#X obj 194 368 / 2;
#X obj 157 368 -;
#X text 230 365 back up 1/2 window;
#X obj 17 545 -~;
#X text 337 16 Read two windows out of the recorded sample \, one 1/4
ahead of the other. The mid point of the front window is specified
by "location". If "speed" is nonzero \, "location" automatically precesses.
;
#X obj 520 640 * -0.5;
#X text 87 550 "back" window 1/4 cycle behind "front" one;
#X text 138 133 computation period (msec) for overlap of 4;
#X text 175 94 msec in a window;
#X obj 529 587 f;
#X text 362 193 loop to precess the location according;
#X text 361 209 to the "speed" parameter.;
#X text 497 495 "rewind" control takes us;
#X text 500 513 to a location depending on;
#X text 500 532 stretched window size.;
#X obj 103 67 / 44.1;
#X obj 529 614 / 44.1;
#X obj 17 443 pack f f f;
#X obj 157 342 * 44.1;
#X text 495 318 desired transposition;
#X obj 18 499 vline~;
#X floatatom 354 461 10 0 0 0 - - -, f 10;
#X msg 250 523 set \$1;
#X obj 195 585 tabread4~;
#X obj 18 585 tabread4~;
#X obj 503 359 / 100;
#X text 550 360 transpo in 100ths of a semitone (cents);
#X obj 103 39 r \$1-streamstretch-window-size;
#X obj 331 165 r \$1-streamstretch-speed-\$2;
#X obj 170 235 r \$1-streamstretch-location-\$2;
#X obj 503 337 r \$1-streamstretch-transpo-\$2;
#X obj 290 403 r \$1-streamstretch-window-size;
#X obj 529 555 r \$1-streamstretch-rewind-\$2;
#X obj 219 612 tabreceive~ \$1-streamstretch-hann;
#X obj 250 496 r \$1-streamstretch-array-\$2;
#X msg 529 691 \; \$2-streamstretch-location-\$3 \$1;
#X obj 529 670 pack f \$1 \$2;
#X connect 0 0 16 0;
#X connect 1 0 4 0;
#X connect 1 0 39 0;
#X connect 2 0 17 0;
#X connect 3 0 1 0;
#X connect 4 0 1 1;
#X connect 5 0 4 1;
#X connect 6 0 38 1;
#X connect 7 0 38 0;
#X connect 7 1 6 0;
#X connect 8 0 41 0;
#X connect 10 0 24 1;
#X connect 11 0 30 1;
#X connect 11 0 10 0;
#X connect 11 0 6 1;
#X connect 11 0 21 0;
#X connect 11 0 42 0;
#X connect 12 0 13 0;
#X connect 13 0 14 0;
#X connect 14 0 15 0;
#X connect 15 0 11 0;
#X connect 15 1 11 1;
#X connect 20 0 5 1;
#X connect 20 0 38 2;
#X connect 21 0 22 1;
#X connect 22 0 7 0;
#X connect 24 0 45 0;
#X connect 26 0 57 0;
#X connect 30 0 37 0;
#X connect 36 0 20 0;
#X connect 36 0 19 0;
#X connect 37 0 26 0;
#X connect 38 0 8 0;
#X connect 39 0 22 0;
#X connect 41 0 24 0;
#X connect 41 0 44 0;
#X connect 43 0 44 0;
#X connect 43 0 45 0;
#X connect 44 0 2 0;
#X connect 45 0 0 0;
#X connect 46 0 12 0;
#X connect 48 0 36 0;
#X connect 49 0 5 0;
#X connect 50 0 1 1;
#X connect 51 0 46 0;
#X connect 52 0 11 0;
#X connect 53 0 30 0;
#X connect 54 0 2 1;
#X connect 54 0 0 1;
#X connect 55 0 43 0;
#X connect 57 0 56 0;
#X restore 519 483 pd table-scrub-guts;
#X obj 75 282 t b b f;
#X obj 489 603 outlet~;
#X obj 617 606 outlet~;
#X text 254 249 transpo \, amp \, array \, speed \, duration;
#X obj 97 243 unpack f f s f;
#X obj 375 290 / 44.1;
#X obj 345 343 /;
#X obj 302 280 t b f;
#X obj 302 312 f, f 4;
#X obj 215 280 / 100;
#N canvas 295 311 566 296 kill-command 0;
#X obj -213 65 delay 50;
#X text -151 41 wait 50ms for the enveloping to ramp down to 0 \, then
do all this rewind stuff.;
#X obj -214 13 r \$1-streamstretch-reader-kill-\$2;
#X msg -213 204 \; \$1-streamstretch-speed-\$2 0 \; \$1-streamstretch-transpo-\$2 0 \;
\$1-streamstretch-rewind-\$2 bang \; \$1-streamstretch-suppress-\$2 1 \;;
#X obj -213 135 pack \$1 \$2;
#X connect 0 0 4 0;
#X connect 2 0 0 0;
#X connect 4 0 3 0;
#X restore 571 251 pd kill-command;
#X obj 99 62 t l b;
#X text 184 191 suppress triggers if the voice is busy;
#N canvas 988 272 425 388 switch-on-off 0;
#X obj 77 264 switch~;
#X obj 169 160 loadbang;
#X msg 169 187 0;
#X msg 122 188 1;
#X obj 64 112 + 100;
#X obj 64 134 delay;
#X obj 77 75 t f b;
#X obj 181 225 f;
#X obj 181 247 t b f;
#X msg 181 269 1;
#X obj 181 291 -;
#X obj 225 242 tgl 15 0 empty empty empty 17 7 0 10 -262144 -1 -1 0
1;
#X obj 77 42 r \$1-streamstretch-dur-\$2;
#X obj 181 317 s \$1-streamstretch-suppress-\$2;
#X connect 1 0 2 0;
#X connect 2 0 0 0;
#X connect 2 0 7 0;
#X connect 3 0 0 0;
#X connect 3 0 7 0;
#X connect 4 0 5 0;
#X connect 5 0 2 0;
#X connect 6 0 4 0;
#X connect 6 1 3 0;
#X connect 7 0 8 0;
#X connect 7 0 11 0;
#X connect 8 0 9 0;
#X connect 8 1 10 1;
#X connect 9 0 10 0;
#X connect 10 0 13 0;
#X connect 12 0 6 0;
#X restore 571 231 pd switch-on-off;
#N canvas 456 93 450 300 init 0;
#X obj 58 42 loadbang;
#X msg 58 109 \; \$1-streamstretch-speed-\$2 0 \; \$1-streamstretch-transpo-\$2 0 \; \$1-streamstretch-rewind-\$2
bang \;;
#X obj 58 80 pack \$1 \$2;
#X connect 0 0 2 0;
#X connect 2 0 1 0;
#X restore 571 211 pd init;
#X obj 173 135 f;
#X obj 97 189 spigot 1;
#X text 249 61 Suppress is set when pv-dur goes through in [pd switch-on-off]
\, suppression stops automatically when the switch goes off after pv-dur
ms.;
#X obj 99 40 r \$1-streamstretch-reader-trig-\$2;
#X obj 194 110 r \$1-streamstretch-suppress-\$2;
#X obj 345 377 s \$1-streamstretch-dur-\$2;
#X obj 268 406 s \$1-streamstretch-speed-\$2;
#X obj 240 441 s \$1-streamstretch-array-\$2;
#X obj 207 485 s \$1-streamstretch-amp-\$2;
#X obj 162 528 s \$1-streamstretch-transpo-\$2;
#X obj 125 561 s \$1-streamstretch-rewind-\$2;
#X obj 87 597 s \$1-streamstretch-env-trig-\$2;
#X obj 375 268 r \$1-streamstretch-samp-len;
#X connect 0 0 3 0;
#X connect 0 1 4 0;
#X connect 1 0 0 0;
#X connect 1 1 0 1;
#X connect 2 0 28 0;
#X connect 2 1 27 0;
#X connect 2 2 26 0;
#X connect 6 0 2 0;
#X connect 6 1 25 0;
#X connect 6 2 24 0;
#X connect 6 3 11 0;
#X connect 7 0 10 1;
#X connect 8 0 22 0;
#X connect 9 0 10 0;
#X connect 9 1 8 1;
#X connect 10 0 8 0;
#X connect 11 0 9 0;
#X connect 11 0 23 0;
#X connect 13 0 18 0;
#X connect 13 1 17 0;
#X connect 17 0 18 1;
#X connect 18 0 6 0;
#X connect 20 0 13 0;
#X connect 21 0 17 1;
#X connect 29 0 7 0;
