#N canvas 260 166 1119 843 10;
#X obj 29 -135 inlet;
#X obj 138 244 vline~;
#X obj 35 207 vline~;
#X obj 217 120 pack f f f;
#X msg 220 145 1 \$2 \$1 \, 0 \$2 \$3;
#X obj -71 -8 /;
#X msg -84 -34 1;
#X obj -98 -72 t b f;
#X obj 174 71 random 64;
#X obj 177 96 *;
#X msg 58 144 0;
#X text 220 103 random-sub-frame-delay \, ramp \, length;
#X obj 21 320 wrap~;
#X obj 27 236 +~;
#X text 24 -152 trigger;
#X obj 7 514 outlet~;
#X obj 98 -158 inlet;
#X obj 265 -178 inlet;
#X obj 185 -46 +;
#X obj 6 475 *~;
#X obj 290 -68 inlet;
#X text 289 -86 ramp (0..0.5);
#X obj 447 -43 inlet;
#X obj 401 37 / 10000;
#X obj 568 -25 inlet;
#X obj 649 -36 inlet;
#X obj 263 15 *;
#X obj 276 71 -;
#X obj 228 -36 t f f;
#X obj 288 44 * 2;
#X obj 22 344 *~;
#X text 281 163 amp env;
#X text 5 169 playback ramp;
#X msg 554 286 1.05946;
#X obj 566 315 pow;
#X obj 631 124 *;
#X obj 617 206 +;
#X obj 660 68 * 48;
#X obj 555 339 clip 0.125 4;
#X obj 659 98 - 24;
#X obj 580 257 t b f;
#X text 566 -42 tp (semi);
#X text 651 -54 p rand (0..1);
#X obj 662 44 / 1000;
#X text 633 338 2 pitch factor;
#X obj 632 185 * -1;
#X obj 39 -52 t b b b;
#X obj 663 20 random 1000;
#X obj 401 12 random 10000;
#X obj 400 57 *;
#X obj 176 -128 / 10000;
#X obj 157 -155 random 10000;
#X obj 205 -99 *;
#X text 264 -194 len rnd(0..1);
#X text 94 -175 length(0..1);
#X obj 106 154 pack f f f;
#X msg 105 178 \$3 \$2 \$1;
#X obj 6 -4 /;
#X obj 69 66 * 1000;
#X obj 87 93 *;
#X obj 111 118 *;
#X text 19 116 tp->speed only;
#X text 50 66 ms;
#X text 684 2 rnd tp;
#X text 299 66 len - up down;
#X text 0 -68 random \, env-init+random \, trigger;
#X text 351 -154 particle (grain) with local memory;
#X obj -361 107 inlet~;
#X obj -287 -44 inlet;
#X text -333 -67 start sampling;
#X obj -122 -128 samplerate~;
#X obj -67 -210 loadbang;
#X obj -66 -187 t b b;
#X msg -121 335 set \$2grainbuffer\$1;
#X obj -78 59 \$0;
#X obj -143 -27 + 1;
#X obj -177 -50 int;
#X obj -158 7 mod 2;
#X obj -126 79 pack 0 f;
#X obj -126 56 int;
#X obj -280 345 tabwrite~ \$0grainbuffer0;
#X obj 19 371 tabread4~ \$0grainbuffer0;
#X obj -304 406 tabwrite~ \$0grainbuffer1;
#X obj -288 -20 t b b;
#X obj -292 123 select 0 1;
#X obj -292 89 int;
#X text 445 -61 age rnd (0..1);
#X obj -350 222 vline~;
#X obj -372 260 *~;
#X text 239 388 4 sec grain mem at 44.1 \, doublebuffering;
#X obj 241 405 table \$0grainbuffer0 176400;
#X obj 241 425 table \$0grainbuffer1 176400;
#X msg -35 -83 176400;
#X msg -348 193 1 20 \, 0 20 3960;
#X connect 0 0 46 0;
#X connect 1 0 19 1;
#X connect 2 0 13 0;
#X connect 3 0 4 0;
#X connect 4 0 1 0;
#X connect 5 0 9 1;
#X connect 6 0 5 0;
#X connect 7 0 6 0;
#X connect 7 0 57 0;
#X connect 7 1 5 1;
#X connect 7 1 57 1;
#X connect 8 0 9 0;
#X connect 9 0 3 0;
#X connect 9 0 55 0;
#X connect 10 0 2 0;
#X connect 10 0 1 0;
#X connect 12 0 30 0;
#X connect 13 0 12 0;
#X connect 16 0 18 1;
#X connect 17 0 52 1;
#X connect 18 0 55 2;
#X connect 18 0 59 0;
#X connect 19 0 15 0;
#X connect 20 0 26 1;
#X connect 22 0 49 1;
#X connect 23 0 49 0;
#X connect 24 0 45 0;
#X connect 25 0 35 1;
#X connect 26 0 3 1;
#X connect 26 0 29 0;
#X connect 27 0 3 2;
#X connect 28 0 27 0;
#X connect 28 1 26 0;
#X connect 29 0 27 1;
#X connect 30 0 81 0;
#X connect 33 0 34 0;
#X connect 34 0 38 0;
#X connect 35 0 36 0;
#X connect 36 0 40 0;
#X connect 37 0 39 0;
#X connect 38 0 60 1;
#X connect 39 0 35 0;
#X connect 40 0 33 0;
#X connect 40 1 34 1;
#X connect 43 0 37 0;
#X connect 45 0 36 1;
#X connect 46 0 8 0;
#X connect 46 1 10 0;
#X connect 46 1 48 0;
#X connect 46 1 51 0;
#X connect 46 2 47 0;
#X connect 46 2 79 0;
#X connect 47 0 43 0;
#X connect 48 0 23 0;
#X connect 49 0 13 1;
#X connect 50 0 52 0;
#X connect 51 0 50 0;
#X connect 52 0 18 0;
#X connect 55 0 56 0;
#X connect 56 0 2 0;
#X connect 57 0 58 0;
#X connect 58 0 59 1;
#X connect 59 0 60 0;
#X connect 59 0 28 0;
#X connect 60 0 55 1;
#X connect 67 0 88 0;
#X connect 68 0 83 0;
#X connect 70 0 7 0;
#X connect 71 0 72 0;
#X connect 72 0 70 0;
#X connect 72 1 92 0;
#X connect 72 1 74 0;
#X connect 73 0 81 0;
#X connect 74 0 78 1;
#X connect 75 0 77 0;
#X connect 76 0 75 0;
#X connect 77 0 76 1;
#X connect 77 0 79 1;
#X connect 77 0 85 1;
#X connect 78 0 73 0;
#X connect 79 0 78 0;
#X connect 81 0 19 0;
#X connect 83 0 76 0;
#X connect 83 1 85 0;
#X connect 83 1 93 0;
#X connect 84 0 80 0;
#X connect 84 1 82 0;
#X connect 85 0 84 0;
#X connect 87 0 88 1;
#X connect 88 0 82 0;
#X connect 88 0 80 0;
#X connect 92 0 57 0;
#X connect 92 0 30 1;
#X connect 93 0 87 0;
