#N canvas 87 0 337 689 12;
#N canvas 181 8 973 670 eigthbandfilter 0;
#X obj 199 262 inlet~;
#X obj 648 409 +~;
#X obj 493 408 +~;
#X obj 297 415 +~;
#X obj 128 421 +~;
#X obj 506 452 +~;
#X obj 217 456 +~;
#X obj 370 501 +~;
#X obj 374 566 outlet~;
#X obj 377 531 *~;
#X obj 791 460 line~;
#X obj 819 141 inlet level;
#X obj 793 433 pack f 30;
#X obj 409 259 inlet time;
#X text 45 598 inlets band-bpf: inlet~ amp freq q time order;
#X obj 13 61 r \$1-bflsf1;
#X obj 201 61 r \$1-bflsf3;
#X obj 108 61 r \$1-bflsf2;
#X obj 294 61 r \$1-bflsf4;
#X obj 385 62 r \$1-bflsf5;
#X obj 477 62 r \$1-bflsf6;
#X obj 572 63 r \$1-bflsf7;
#X obj 664 63 r \$1-bflsf8;
#X obj 25 94 mtof;
#X obj 221 97 mtof;
#X obj 308 95 mtof;
#X obj 401 95 mtof;
#X obj 497 98 mtof;
#X obj 588 96 mtof;
#X obj 687 97 mtof;
#X obj 128 95 mtof;
#X obj 86 181 r \$1-bflsa1;
#X obj 274 181 r \$1-bflsa3;
#X obj 181 181 r \$1-bflsa2;
#X obj 367 181 r \$1-bflsa4;
#X obj 458 182 r \$1-bflsa5;
#X obj 550 182 r \$1-bflsa6;
#X obj 645 183 r \$1-bflsa7;
#X obj 737 183 r \$1-bflsa8;
#X obj 50 155 r \$1-bflsq1;
#X obj 233 155 r \$1-bflsq3;
#X obj 140 155 r \$1-bflsq2;
#X obj 326 155 r \$1-bflsq4;
#X obj 417 156 r \$1-bflsq5;
#X obj 509 156 r \$1-bflsq6;
#X obj 604 157 r \$1-bflsq7;
#X obj 696 157 r \$1-bflsq8;
#X obj 78 360 band-bpf;
#X obj 91 210 r \$1-bflso1;
#X obj 186 210 r \$1-bflso2;
#X obj 279 210 r \$1-bflso3;
#X obj 372 210 r \$1-bflso4;
#X obj 463 211 r \$1-bflso5;
#X obj 555 211 r \$1-bflso6;
#X obj 650 212 r \$1-bflso7;
#X obj 742 212 r \$1-bflso8;
#X obj 257 354 band-bpf;
#X obj 169 363 band-bpf;
#X obj 349 356 band-bpf;
#X obj 451 354 band-bpf;
#X obj 527 353 band-bpf;
#X obj 626 355 band-bpf;
#X obj 712 363 band-bpf;
#X connect 0 0 47 0;
#X connect 0 0 56 0;
#X connect 0 0 57 0;
#X connect 0 0 58 0;
#X connect 0 0 59 0;
#X connect 0 0 60 0;
#X connect 0 0 61 0;
#X connect 0 0 62 0;
#X connect 1 0 5 1;
#X connect 2 0 5 0;
#X connect 3 0 6 1;
#X connect 4 0 6 0;
#X connect 5 0 7 1;
#X connect 6 0 7 0;
#X connect 7 0 9 0;
#X connect 9 0 8 0;
#X connect 10 0 9 1;
#X connect 11 0 12 0;
#X connect 12 0 10 0;
#X connect 13 0 47 4;
#X connect 13 0 12 1;
#X connect 13 0 56 4;
#X connect 13 0 57 4;
#X connect 13 0 58 4;
#X connect 13 0 59 4;
#X connect 13 0 60 4;
#X connect 13 0 61 4;
#X connect 13 0 62 4;
#X connect 15 0 23 0;
#X connect 16 0 24 0;
#X connect 17 0 30 0;
#X connect 18 0 25 0;
#X connect 19 0 26 0;
#X connect 20 0 27 0;
#X connect 21 0 28 0;
#X connect 22 0 29 0;
#X connect 23 0 47 2;
#X connect 24 0 56 2;
#X connect 25 0 58 2;
#X connect 26 0 59 2;
#X connect 27 0 60 2;
#X connect 28 0 61 2;
#X connect 29 0 62 2;
#X connect 30 0 57 2;
#X connect 31 0 47 1;
#X connect 32 0 56 1;
#X connect 33 0 57 1;
#X connect 34 0 58 1;
#X connect 35 0 59 1;
#X connect 36 0 60 1;
#X connect 37 0 61 1;
#X connect 38 0 62 1;
#X connect 39 0 47 3;
#X connect 40 0 56 3;
#X connect 41 0 57 3;
#X connect 42 0 58 3;
#X connect 43 0 59 3;
#X connect 44 0 60 3;
#X connect 45 0 61 3;
#X connect 46 0 62 3;
#X connect 47 0 4 0;
#X connect 48 0 47 5;
#X connect 49 0 57 5;
#X connect 50 0 56 5;
#X connect 51 0 58 5;
#X connect 52 0 59 5;
#X connect 53 0 60 5;
#X connect 54 0 61 5;
#X connect 55 0 62 5;
#X connect 56 0 3 0;
#X connect 57 0 4 1;
#X connect 58 0 3 1;
#X connect 59 0 2 0;
#X connect 60 0 2 1;
#X connect 61 0 1 0;
#X connect 62 0 1 1;
#X restore 380 437 pd eigthbandfilter;
#X obj 380 389 inlet~;
#X obj 381 485 outlet~;
#X obj 575 401 r \$1-bflslev;
#X obj 623 336 s \$1-bflrq;
#X obj 418 333 s \$1-bflrlev;
#X obj 620 257 inlet q;
#X obj 414 272 inlet lev;
#X obj 622 282 * 0.393;
#X obj 621 307 + 0.1;
#X obj 419 299 / 127;
#X obj 454 396 r \$1-bflstime;
#X obj 405 625 r \$1-bflsq;
#X obj 494 625 r \$1-bflso;
#X obj 518 336 s \$1-bflrtime;
#X text 579 624 -> deze algemene schuivers niet naar presets sturen
(zinloos);
#N canvas 0 0 638 312 globalfaders 0;
#X obj 249 22 r \$1-bflsq;
#X obj 44 69 s \$1-bflrq1;
#X obj 168 68 s \$1-bflrq3;
#X obj 289 68 s \$1-bflrq5;
#X obj 407 69 s \$1-bflrq7;
#X obj 465 92 s \$1-bflrq8;
#X obj 346 93 s \$1-bflrq6;
#X obj 228 93 s \$1-bflrq4;
#X obj 108 93 s \$1-bflrq2;
#X obj 264 139 r \$1-bflso;
#X obj 59 186 s \$1-bflro1;
#X obj 183 185 s \$1-bflro3;
#X obj 304 185 s \$1-bflro5;
#X obj 422 186 s \$1-bflro7;
#X obj 480 209 s \$1-bflro8;
#X obj 361 210 s \$1-bflro6;
#X obj 243 210 s \$1-bflro4;
#X obj 123 210 s \$1-bflro2;
#X connect 0 0 1 0;
#X connect 0 0 8 0;
#X connect 0 0 2 0;
#X connect 0 0 7 0;
#X connect 0 0 3 0;
#X connect 0 0 6 0;
#X connect 0 0 4 0;
#X connect 0 0 5 0;
#X connect 9 0 10 0;
#X connect 9 0 17 0;
#X connect 9 0 11 0;
#X connect 9 0 16 0;
#X connect 9 0 12 0;
#X connect 9 0 15 0;
#X connect 9 0 13 0;
#X connect 9 0 14 0;
#X restore 606 543 pd globalfaders;
#N canvas 126 0 1088 737 save_preset_array 0;
#X obj 102 481 f;
#X obj 151 497 f;
#X obj 39 433 f;
#X obj 81 460 f;
#X obj 83 109 until;
#X obj 62 173 + 1;
#X obj 89 142 f 0;
#X obj 79 42 bng 15 250 50 0 empty empty empty 17 7 0 10 -262144 -1
-1;
#X obj 421 1030 r openpreset;
#X obj 163 32 r savepreset;
#X obj 345 1123 until;
#X obj 322 1182 + 1;
#X obj 349 1151 f 0;
#N canvas 66 44 1148 706 router_1inxout 0;
#X obj 231 27 inlet one;
#X obj 339 23 inlet route123;
#X obj 309 82 pack;
#X obj 246 472 s \$1-bflrf7;
#X obj 291 497 s \$1-bflra7;
#X obj 303 524 s \$1-bflro7;
#X obj 338 546 s \$1-bflrq7;
#X obj 376 471 s \$1-bflrf8;
#X obj 437 493 s \$1-bflra8;
#X obj 459 516 s \$1-bflro8;
#X obj 492 535 s \$1-bflrq8;
#X obj 105 250 s \$1-bflra1;
#X obj 77 227 s \$1-bflrf1;
#X obj 152 299 s \$1-bflrq1;
#X obj 116 277 s \$1-bflro1;
#X obj 254 259 s \$1-bflra2;
#X obj 229 238 s \$1-bflrf2;
#X obj 295 305 s \$1-bflrq2;
#X obj 276 282 s \$1-bflro2;
#X obj 367 252 s \$1-bflra3;
#X obj 328 232 s \$1-bflrf3;
#X obj 406 301 s \$1-bflrq3;
#X obj 388 275 s \$1-bflro3;
#X obj 452 226 s \$1-bflrf4;
#X obj 473 249 s \$1-bflra4;
#X obj 485 276 s \$1-bflro4;
#X obj 520 298 s \$1-bflrq4;
#X obj 540 190 s \$1-bflrf5;
#X obj 558 219 s \$1-bflra5;
#X obj 580 242 s \$1-bflro5;
#X obj 615 266 s \$1-bflrq5;
#X obj 50 461 s \$1-bflrf6;
#X obj 89 481 s \$1-bflra6;
#X obj 98 505 s \$1-bflro6;
#X obj 141 530 s \$1-bflrq6;
#X obj 197 121 route 1 2 3 4 5 6 7 8 9 10 11 12 13 14 15 16 17 18 19
20;
#X obj 563 498 s \$1-bflrlev;
#X obj 520 472 s \$1-bflrtime;
#X obj 271 56 mod 48;
#X obj 240 373 route 21 22 23 24 25 26 27 28 29 30 31 32 33 34 35 36
37 38 39 40 41 42;
#X text 508 432 time niet in presets om overgangen tussen preset mogelijk
te maken;
#X connect 0 0 38 0;
#X connect 1 0 2 1;
#X connect 2 0 35 0;
#X connect 2 0 39 0;
#X connect 35 0 12 0;
#X connect 35 1 11 0;
#X connect 35 2 14 0;
#X connect 35 3 13 0;
#X connect 35 4 16 0;
#X connect 35 5 15 0;
#X connect 35 6 18 0;
#X connect 35 7 17 0;
#X connect 35 8 20 0;
#X connect 35 9 19 0;
#X connect 35 10 22 0;
#X connect 35 11 21 0;
#X connect 35 12 23 0;
#X connect 35 13 24 0;
#X connect 35 14 25 0;
#X connect 35 15 26 0;
#X connect 35 16 27 0;
#X connect 35 17 28 0;
#X connect 35 18 29 0;
#X connect 35 19 30 0;
#X connect 38 0 2 0;
#X connect 39 0 31 0;
#X connect 39 1 32 0;
#X connect 39 2 33 0;
#X connect 39 3 34 0;
#X connect 39 4 3 0;
#X connect 39 5 4 0;
#X connect 39 6 5 0;
#X connect 39 7 6 0;
#X connect 39 8 7 0;
#X connect 39 9 8 0;
#X connect 39 10 9 0;
#X connect 39 11 10 0;
#X connect 39 13 36 0;
#X restore 253 1270 pd router_1inxout;
#X obj 211 106 f 0;
#X obj 335 24 r presetnr;
#X obj 437 1112 f 0;
#X obj 345 1210 t f f;
#X obj 85 201 t f f;
#X obj 586 1034 bng 15 250 50 0 empty empty empty 17 7 0 10 -262144
-1 -1;
#N canvas 0 0 454 304 (subpatch) 0;
#X array \$1-bflpreset 1440 float 2;
#X coords 0 30000 1440 -1 200 140 1;
#X restore 524 132 graph;
#X obj 256 204 symbol;
#X obj 357 183 symbol;
#X obj 299 245 pack s s;
#X obj 356 153 r namepreset;
#X obj 248 155 f \$1;
#X msg 273 272 \; \$1 write presets/\$2-\$1.txt;
#X obj 168 57 t b b b;
#X obj 566 1153 symbol;
#X obj 606 1180 pack s s;
#X obj 677 1107 r namepreset;
#X obj 512 1103 f \$1;
#X obj 669 1143 symbol;
#X msg 600 1211 \; \$1 read presets/\$2-\$1.txt;
#X obj 420 1071 t b b b;
#X obj 357 486 f;
#X obj 292 469 f;
#X obj 318 489 f;
#X obj 378 404 f;
#X obj 484 452 f;
#X obj 447 440 f;
#X obj 538 505 f;
#X obj 576 532 f;
#X text 405 1282 -> !!! nog aanpassen per 56;
#X text 579 54 max 56 parameters/waarden voor array/presets;
#X text 174 83 -> !!! per 56;
#X text 130 240 -> !!! per 56;
#X text 503 25 !!!onderaan nog aanpassen als er echt 56 waarden zijn!!!
;
#X obj 49 548 f;
#X obj 148 543 f;
#X obj 289 527 f;
#X obj 402 531 f;
#X obj 463 543 f;
#X obj 96 401 r \$1-bflsa1;
#X obj 38 373 r \$1-bflsf1;
#X obj 143 450 r \$1-bflsq1;
#X obj 107 428 r \$1-bflso1;
#X obj 312 427 r \$1-bflsa2;
#X obj 251 405 r \$1-bflsf2;
#X obj 386 354 r \$1-bflsq2;
#X obj 334 450 r \$1-bflso2;
#X obj 505 430 r \$1-bflsa3;
#X obj 454 408 r \$1-bflsf3;
#X obj 565 474 r \$1-bflsq3;
#X obj 522 453 r \$1-bflso3;
#X obj 19 597 f;
#X obj 458 927 f;
#X msg 247 182 \$1-bflpreset;
#X obj 31 1061 tabwrite \$1-bflpreset;
#X obj 380 1241 tabread \$1-bflpreset;
#X msg 525 1129 \$1-bflpreset;
#X text 386 60 -> !!! per 72;
#X obj 669 472 f;
#X obj 705 485 f;
#X obj 603 422 f;
#X obj 638 442 f;
#X obj 678 522 f;
#X obj 612 365 r \$1-bflsf4;
#X obj 641 389 r \$1-bflsa4;
#X obj 672 413 r \$1-bflso4;
#X obj 721 446 r \$1-bflsq4;
#X obj 840 460 f;
#X obj 786 419 f;
#X obj 812 439 f;
#X obj 868 466 f;
#X obj 779 473 f;
#X obj 745 355 r \$1-bflsf5;
#X obj 806 377 r \$1-bflsa5;
#X obj 828 400 r \$1-bflso5;
#X obj 887 423 r \$1-bflsq5;
#X obj 285 311 select 1 2 3 4 5 6 7 8 9 10 11 12 13 14 15 16 17 18
19 20;
#X obj 250 590 select 21 22 23 24 25 26 27 28 29 30 31 32 33 34 35
36 37 38 39 40;
#X obj 73 693 f;
#X obj 36 681 f;
#X obj 111 749 f;
#X obj 138 774 f;
#X obj 102 809 f;
#X obj 43 649 r \$1-bflsf6;
#X obj 82 669 r \$1-bflsa6;
#X obj 119 695 r \$1-bflso6;
#X obj 153 722 r \$1-bflsq6;
#X obj 276 804 f;
#X obj 325 820 f;
#X obj 206 756 f;
#X obj 255 783 f;
#X obj 223 834 f;
#X obj 230 699 r \$1-bflsf7;
#X obj 270 724 r \$1-bflsa7;
#X obj 282 751 r \$1-bflso7;
#X obj 317 773 r \$1-bflsq7;
#X obj 499 800 f;
#X obj 445 759 f;
#X obj 471 779 f;
#X obj 520 823 f;
#X obj 452 866 f;
#X obj 404 695 r \$1-bflsf8;
#X obj 465 717 r \$1-bflsa8;
#X obj 487 740 r \$1-bflso8;
#X obj 528 773 r \$1-bflsq8;
#X obj 336 49 * 48;
#X obj 334 72 - 48;
#X msg 138 83 48;
#X obj 66 274 mod 48;
#X msg 378 1100 48;
#X obj 652 752 r \$1-bflstime;
#X obj 695 778 r \$1-bflslev;
#X obj 634 793 f;
#X obj 655 816 f;
#X obj 587 859 f;
#X connect 0 0 49 0;
#X connect 1 0 49 0;
#X connect 2 0 48 0;
#X connect 3 0 49 0;
#X connect 4 0 6 0;
#X connect 5 0 6 1;
#X connect 5 0 18 0;
#X connect 6 0 5 0;
#X connect 7 0 4 0;
#X connect 8 0 34 0;
#X connect 9 0 27 0;
#X connect 10 0 12 0;
#X connect 11 0 12 1;
#X connect 11 0 17 0;
#X connect 12 0 11 0;
#X connect 14 0 6 1;
#X connect 15 0 119 0;
#X connect 16 0 12 1;
#X connect 17 0 13 0;
#X connect 17 1 69 0;
#X connect 18 0 122 0;
#X connect 18 1 68 1;
#X connect 19 0 34 0;
#X connect 21 0 23 0;
#X connect 22 0 23 1;
#X connect 23 0 26 0;
#X connect 24 0 22 0;
#X connect 25 0 67 0;
#X connect 27 0 25 0;
#X connect 27 1 121 0;
#X connect 27 2 14 0;
#X connect 28 0 29 0;
#X connect 29 0 33 0;
#X connect 30 0 32 0;
#X connect 31 0 70 0;
#X connect 32 0 29 1;
#X connect 34 0 123 0;
#X connect 34 1 16 0;
#X connect 34 2 31 0;
#X connect 35 0 50 0;
#X connect 36 0 50 0;
#X connect 37 0 50 0;
#X connect 38 0 51 0;
#X connect 39 0 52 0;
#X connect 40 0 52 0;
#X connect 41 0 52 0;
#X connect 42 0 52 0;
#X connect 48 0 65 0;
#X connect 49 0 65 0;
#X connect 50 0 65 0;
#X connect 51 0 65 0;
#X connect 52 0 65 0;
#X connect 53 0 3 1;
#X connect 54 0 2 1;
#X connect 55 0 1 1;
#X connect 56 0 0 1;
#X connect 57 0 37 1;
#X connect 58 0 36 1;
#X connect 59 0 38 1;
#X connect 60 0 35 1;
#X connect 61 0 39 1;
#X connect 62 0 40 1;
#X connect 63 0 42 1;
#X connect 64 0 41 1;
#X connect 65 0 68 0;
#X connect 66 0 68 0;
#X connect 67 0 21 0;
#X connect 69 0 13 1;
#X connect 70 0 28 0;
#X connect 72 0 76 0;
#X connect 73 0 76 0;
#X connect 74 0 76 0;
#X connect 75 0 76 0;
#X connect 76 0 65 0;
#X connect 77 0 74 1;
#X connect 78 0 75 1;
#X connect 79 0 72 1;
#X connect 80 0 73 1;
#X connect 81 0 85 0;
#X connect 82 0 85 0;
#X connect 83 0 85 0;
#X connect 84 0 85 0;
#X connect 85 0 65 0;
#X connect 86 0 82 1;
#X connect 87 0 83 1;
#X connect 88 0 81 1;
#X connect 89 0 84 1;
#X connect 90 0 2 0;
#X connect 90 1 3 0;
#X connect 90 2 0 0;
#X connect 90 3 1 0;
#X connect 90 4 36 0;
#X connect 90 5 37 0;
#X connect 90 6 35 0;
#X connect 90 7 38 0;
#X connect 90 8 40 0;
#X connect 90 9 39 0;
#X connect 90 10 41 0;
#X connect 90 11 42 0;
#X connect 90 12 74 0;
#X connect 90 13 75 0;
#X connect 90 14 72 0;
#X connect 90 15 73 0;
#X connect 90 16 82 0;
#X connect 90 17 83 0;
#X connect 90 18 81 0;
#X connect 90 19 84 0;
#X connect 91 0 93 0;
#X connect 91 1 92 0;
#X connect 91 2 94 0;
#X connect 91 3 95 0;
#X connect 91 4 103 0;
#X connect 91 5 104 0;
#X connect 91 6 101 0;
#X connect 91 7 102 0;
#X connect 91 8 111 0;
#X connect 91 9 112 0;
#X connect 91 10 110 0;
#X connect 91 11 113 0;
#X connect 91 12 126 0;
#X connect 91 13 127 0;
#X connect 92 0 96 0;
#X connect 93 0 96 0;
#X connect 94 0 96 0;
#X connect 95 0 96 0;
#X connect 96 0 66 0;
#X connect 97 0 93 1;
#X connect 98 0 92 1;
#X connect 99 0 94 1;
#X connect 100 0 95 1;
#X connect 101 0 105 0;
#X connect 102 0 105 0;
#X connect 103 0 105 0;
#X connect 104 0 105 0;
#X connect 105 0 66 0;
#X connect 106 0 103 1;
#X connect 107 0 104 1;
#X connect 108 0 101 1;
#X connect 109 0 102 1;
#X connect 110 0 114 0;
#X connect 111 0 114 0;
#X connect 112 0 114 0;
#X connect 113 0 114 0;
#X connect 114 0 66 0;
#X connect 115 0 111 1;
#X connect 116 0 112 1;
#X connect 117 0 110 1;
#X connect 118 0 113 1;
#X connect 119 0 120 0;
#X connect 120 0 14 1;
#X connect 120 0 16 1;
#X connect 121 0 4 0;
#X connect 122 0 90 0;
#X connect 122 0 91 0;
#X connect 123 0 10 0;
#X connect 124 0 126 1;
#X connect 125 0 127 1;
#X connect 126 0 128 0;
#X connect 127 0 128 0;
#X connect 128 0 66 0;
#X restore 424 543 pd save_preset_array;
#X obj 711 330 s \$1-bflro;
#X obj 516 293 * 236.22;
#X obj 707 289 / 31.75;
#X obj 705 255 inlet o;
#X obj 509 265 inlet time;
#N canvas 418 286 694 396 randomizer 0;
#X obj 36 29 hsl 128 15 0 127 0 0 \$1-bflsrandom \$1-bflrrandom randomizer
-2 -8 0 10 -262144 -1 -1 0 1;
#X obj 177 28 tgl 15 0 \$1-bflsra \$1-bflrra a 3 -8 0 10 -262144 -1
-1 0 1;
#X obj 174 64 r \$1-bflsra;
#X obj 199 28 tgl 15 0 \$1-bflsrf \$1-bflrrf f 3 -8 0 10 -262144 -1
-1 0 1;
#X obj 219 28 tgl 15 0 \$1-bflsrq \$1-bflrrq q 3 -8 0 10 -262144 -1
-1 0 1;
#X obj 237 28 tgl 15 0 \$1-bflsro \$1-bflrro o 3 -8 0 10 -262144 -1
-1 0 1;
#X obj 20 68 r \$1-bflsrandom;
#X text 24 223 hoe hoger randomize \, naar hoe meer schuivers random
waarden toegevoegd worden (dus ook hoe meer metro of oscillators aangezet
worden);
#X text 21 108 eigenlijk 3 randomize parameters: bereik van de random
getallen \, tempo van de random getallen en aantal schuivers;
#X text 23 162 kiezen om voor deze 3 parameters 1 schuiver (vanaf 1/3
wordt volgende parameter beinvloed \, ...) \, 2 schuivers of 3 te gebruiken
;
#X restore 599 517 pd randomizer;
#X obj 745 510 f \$1;
#X obj 745 561 symbol;
#X msg 745 586 \; \$1 vis 1;
#X obj 743 487 r \$1-bflsextraoptions;
#N canvas 258 58 943 860 printallreceives 0;
#X obj 35 63 f \$1;
#X obj 33 6 bng 15 250 50 0 empty empty empty 17 7 0 10 -262144 -1
-1;
#X msg 776 205 \$1-bflra1;
#X msg 903 327 \$1-bflrf1;
#X msg 683 432 \$1-bflrq1;
#X msg 739 610 \$1-bflro1;
#X obj 20 159 t f f f f f f f f f;
#X msg 511 203 \$1-bflra4;
#X msg 603 205 \$1-bflra3;
#X msg 686 204 \$1-bflra2;
#X msg 395 206 \$1-bflra5;
#X msg 279 200 \$1-bflra6;
#X msg 169 199 \$1-bflra7;
#X msg 30 197 \$1-bflra8;
#X obj 26 262 t f f f f f f f f f;
#X obj 20 399 t f f f f f f f f f;
#X obj 7 567 t f f f f f f f f f;
#X msg 778 328 \$1-bflrf2;
#X msg 653 328 \$1-bflrf3;
#X msg 530 329 \$1-bflrf4;
#X msg 406 329 \$1-bflrf5;
#X msg 275 331 \$1-bflrf6;
#X msg 151 330 \$1-bflrf7;
#X msg 35 326 \$1-bflrf8;
#X msg 544 436 \$1-bflrq2;
#X msg 458 441 \$1-bflrq3;
#X msg 372 442 \$1-bflrq4;
#X msg 279 445 \$1-bflrq5;
#X msg 200 450 \$1-bflrq6;
#X msg 115 448 \$1-bflrq7;
#X msg 36 450 \$1-bflrq8;
#X msg 651 615 \$1-bflro2;
#X msg 534 615 \$1-bflro3;
#X msg 453 616 \$1-bflro4;
#X msg 346 621 \$1-bflro5;
#X msg 266 621 \$1-bflro6;
#X msg 117 607 \$1-bflro7;
#X msg 30 607 \$1-bflro8;
#X obj 36 87 t f f;
#X obj 10 21 r \$1-printreceives;
#X obj 166 21 r \$1-bflprintreceives;
#X obj 92 136 print start;
#X obj 17 825 print end;
#X obj 25 687 t f f f f f f f f f;
#X msg 179 725 \$1-bflrq;
#X msg 70 725 \$1-bflro;
#X msg 491 731 \$1-bflrlev;
#X msg 318 728 \$1-bflrtime;
#X msg 91 109 names of receives in [8band-filter \$1]............>>
;
#X msg 16 799 <<.............................[8band-filter \$1];
#X obj 168 225 print a7[0-1];
#X obj 29 223 print a8[0-1];
#X obj 278 226 print a6[0-1];
#X obj 385 228 print a5[0-1];
#X obj 682 263 print a2[0-1];
#X obj 601 236 print a3[0-1];
#X obj 492 230 print a4[0-1];
#X obj 775 231 print a1[0-1];
#X obj 902 353 print f1[0-127];
#X obj 777 354 print f2[0-127];
#X obj 652 354 print f3[0-127];
#X obj 529 355 print f4[0-127];
#X obj 405 355 print f5[0-127];
#X obj 274 357 print f6[0-127];
#X obj 149 356 print f7[0-127];
#X obj 34 352 print f8[0-127];
#X obj 682 458 print q1[0.1-50];
#X obj 545 460 print q2[0.1-50];
#X obj 442 493 print q3[0.1-50];
#X obj 374 467 print q4[0.1-50];
#X obj 247 503 print q5[0.1-50];
#X obj 225 478 print q6[0.1-50];
#X obj 107 505 print q7[0.1-50];
#X obj 30 483 print q8[0.1-50];
#X obj 738 636 print o1[0-4];
#X obj 686 659 print o2[0-4];
#X obj 524 642 print o3[0-4];
#X obj 472 665 print o4[0-4];
#X obj 348 648 print o5[0-4];
#X obj 297 671 print o6[0-4];
#X obj 110 632 print o7[0-4];
#X obj 41 659 print o8[0-4];
#X obj 69 751 print O[0-4];
#X obj 178 751 print Q[0.1-50];
#X obj 317 754 print time[20-30000];
#X obj 490 757 print level[0-1];
#X connect 0 0 38 0;
#X connect 1 0 0 0;
#X connect 2 0 57 0;
#X connect 3 0 58 0;
#X connect 4 0 66 0;
#X connect 5 0 74 0;
#X connect 6 0 14 0;
#X connect 6 1 13 0;
#X connect 6 2 12 0;
#X connect 6 3 11 0;
#X connect 6 4 10 0;
#X connect 6 5 7 0;
#X connect 6 6 8 0;
#X connect 6 7 9 0;
#X connect 6 8 2 0;
#X connect 7 0 56 0;
#X connect 8 0 55 0;
#X connect 9 0 54 0;
#X connect 10 0 53 0;
#X connect 11 0 52 0;
#X connect 12 0 50 0;
#X connect 13 0 51 0;
#X connect 14 0 15 0;
#X connect 14 1 23 0;
#X connect 14 2 22 0;
#X connect 14 3 21 0;
#X connect 14 4 20 0;
#X connect 14 5 19 0;
#X connect 14 6 18 0;
#X connect 14 7 17 0;
#X connect 14 8 3 0;
#X connect 15 0 16 0;
#X connect 15 1 30 0;
#X connect 15 2 29 0;
#X connect 15 3 28 0;
#X connect 15 4 27 0;
#X connect 15 5 26 0;
#X connect 15 6 25 0;
#X connect 15 7 24 0;
#X connect 15 8 4 0;
#X connect 16 0 43 0;
#X connect 16 1 37 0;
#X connect 16 2 36 0;
#X connect 16 3 35 0;
#X connect 16 4 34 0;
#X connect 16 5 33 0;
#X connect 16 6 32 0;
#X connect 16 7 31 0;
#X connect 16 8 5 0;
#X connect 17 0 59 0;
#X connect 18 0 60 0;
#X connect 19 0 61 0;
#X connect 20 0 62 0;
#X connect 21 0 63 0;
#X connect 22 0 64 0;
#X connect 23 0 65 0;
#X connect 24 0 67 0;
#X connect 25 0 68 0;
#X connect 26 0 69 0;
#X connect 27 0 70 0;
#X connect 28 0 71 0;
#X connect 29 0 72 0;
#X connect 30 0 73 0;
#X connect 31 0 75 0;
#X connect 32 0 76 0;
#X connect 33 0 77 0;
#X connect 34 0 78 0;
#X connect 35 0 79 0;
#X connect 36 0 80 0;
#X connect 37 0 81 0;
#X connect 38 0 6 0;
#X connect 38 1 48 0;
#X connect 39 0 0 0;
#X connect 40 0 0 0;
#X connect 43 4 49 0;
#X connect 43 5 45 0;
#X connect 43 6 44 0;
#X connect 43 7 47 0;
#X connect 43 8 46 0;
#X connect 44 0 83 0;
#X connect 45 0 82 0;
#X connect 46 0 85 0;
#X connect 47 0 84 0;
#X connect 48 0 41 0;
#X connect 49 0 42 0;
#X restore 420 517 pd printallreceives;
#N canvas 335 33 859 875 foutmelding 0;
#X obj 87 38 loadbang;
#X obj 79 83 f \$1;
#X obj 73 111 select 0;
#X msg 75 197 \; \$1 vis 1;
#X msg 74 142 36;
#X text 151 150 ascii-code voor $;
#X text 197 199 als er geen argument is \, noemt de subpatch vreemd
genoeg niet pd 0-warning maar wel pd \$1-warning;
#X text 129 80 als er geen argument is geeft f \$1 een 0;
#X obj 154 336 del 100;
#X msg 319 355 1;
#X obj 238 405 spigot;
#X obj 342 453 spigot;
#X obj 409 425 == 0;
#X obj 338 423 r 8band-filter;
#X obj 240 489 s 8band-filter;
#X obj 208 305 t b b b;
#X obj 314 389 t f f;
#X obj 241 429 del 150;
#X obj 239 460 f \$1;
#X msg 169 357 0;
#X obj 378 506 == \$1;
#X obj 455 604 > 1;
#X obj 341 478 t f f;
#X obj 391 568 f 0;
#X obj 390 538 select 1;
#X obj 330 541 spigot;
#X obj 459 569 + 1;
#X obj 336 602 == \$1;
#X obj 396 628 &&;
#X obj 158 628 print pop;
#X text 487 604 groter dan 1 want vergelijking et zichzelf levert sowieso
al 1 op en dan met ev. zelfde object met identiek argument levert 2
op!;
#X obj 396 656 select 1;
#X obj 396 678 f \$1;
#X obj 398 768 symbol;
#X msg 396 795 \; \$1 vis 1;
#X obj 363 706 t f f;
#X obj 92 820 symbol;
#X obj 170 872 print;
#X obj 326 662 bng 15 250 50 0 empty empty empty 17 7 0 10 -262144
-1 -1;
#X msg 173 839 !!! these two abunch objects have the same argument
number: [8band-filter \$1];
#X text 406 346 alleen net gecreerde object verstuurt waarde;
#X text 398 372 bij eerder gemaakte objecten staat spigot voor receive
open;
#N canvas 670 470 308 138 \$1-8band-filterwarning 0;
#X obj -1 0 cnv 15 320 150 empty empty empty 20 12 0 14 -258699 -66577
0;
#X text 11 32 You forgot to add an unique number;
#X text 11 78 when you created this abunch object;
#X restore 349 165 pd \$1-8band-filterwarning;
#N canvas 856 445 327 127 \$1-8band-filtersameargument 0;
#X obj -1 0 cnv 15 330 150 empty empty empty 20 12 0 14 -258699 -66577
0;
#X msg 393 108;
#X text 314 243 is used already!!;
#X obj 344 35 inlet;
#X symbolatom 351 77 10 0 0 0 - - -;
#X obj 98 40 cnv 15 60 20 empty empty empty 20 12 0 14 -233017 -66577
0;
#X text 24 40 Create an unique number for this;
#X text 102 69 abunch object.;
#X connect 3 0 1 0;
#X connect 3 0 4 0;
#X restore 541 770 pd \$1-8band-filtersameargument;
#X msg 397 738 pd-\$1-8band-filtersameargument;
#X obj 74 171 makefilename pd-%c1-8band-filterwarning;
#X connect 0 0 1 0;
#X connect 0 0 15 0;
#X connect 1 0 2 0;
#X connect 2 0 4 0;
#X connect 4 0 45 0;
#X connect 8 0 19 0;
#X connect 9 0 16 0;
#X connect 10 0 17 0;
#X connect 11 0 22 0;
#X connect 12 0 11 1;
#X connect 13 0 11 0;
#X connect 15 0 8 0;
#X connect 15 1 10 0;
#X connect 15 2 9 0;
#X connect 16 0 10 1;
#X connect 16 1 12 0;
#X connect 17 0 18 0;
#X connect 18 0 14 0;
#X connect 19 0 16 0;
#X connect 20 0 24 0;
#X connect 20 0 25 1;
#X connect 21 0 28 1;
#X connect 22 0 25 0;
#X connect 22 1 20 0;
#X connect 23 0 26 0;
#X connect 24 0 23 0;
#X connect 25 0 27 0;
#X connect 26 0 23 1;
#X connect 26 0 21 0;
#X connect 27 0 28 0;
#X connect 28 0 31 0;
#X connect 31 0 32 0;
#X connect 32 0 35 0;
#X connect 33 0 34 0;
#X connect 35 0 44 0;
#X connect 35 1 39 0;
#X connect 38 0 32 0;
#X connect 39 0 37 0;
#X connect 44 0 33 0;
#X connect 45 0 3 0;
#X restore 598 568 pd foutmelding;
#X msg 746 535 pd-\$1-8filterextra;
#N canvas 647 370 389 183 \$1-8filterextra 0;
#X obj 8 72 bng 15 250 50 0 \$1-printreceives empty print_all_receives
17 7 0 10 -262144 -1 -1;
#X obj 7 13 bng 15 250 50 0 \$1-bflprintreceives empty print_names_of_receives
17 7 0 10 -262144 -1 -1;
#X text 65 32 (of this '8band-filter' object);
#X text 66 91 (of all objects in open files);
#X obj 11 125 tgl 15 0 \$1-bflston \$1-bflrton open_time_fader_in_presets
17 7 0 10 -262144 -1 -1 0 1;
#X restore 422 570 pd \$1-8filterextra;
#N canvas 744 585 566 199 needsound 0;
#X obj 22 34 r soundfileyesno;
#X msg 18 67 0;
#X obj 22 138 s answersoundfile;
#X text 63 65 0 = this abunch object doesn't need a sound file (store
in a preset file) \, 1 = it does;
#X connect 0 0 1 0;
#X connect 1 0 2 0;
#X restore 598 600 pd needsound;
#X obj -3 -6 cnv 15 350 750 empty empty empty 50 12 0 10 -258699 -143491
0;
#X obj 17 21 vsl 15 128 0 1 0 0 \$1-bflsa1 \$1-bflra1 a1 0 -9 0 10
-262144 -1 -1 2200 1;
#X obj 43 22 vsl 15 128 0 1 0 0 \$1-bflsa2 \$1-bflra2 a2 0 -9 0 10
-262144 -1 -1 0 1;
#X obj 73 22 vsl 15 128 0 1 0 0 \$1-bflsa3 \$1-bflra3 a3 0 -9 0 10
-262144 -1 -1 2500 1;
#X obj 101 22 vsl 15 128 0 1 0 0 \$1-bflsa4 \$1-bflra4 a4 0 -9 0 10
-262144 -1 -1 700 1;
#X obj 132 22 vsl 15 128 0 1 0 0 \$1-bflsa5 \$1-bflra5 a5 0 -9 0 10
-262144 -1 -1 1400 1;
#X obj 161 22 vsl 15 128 0 1 0 0 \$1-bflsa6 \$1-bflra6 a6 0 -9 0 10
-262144 -1 -1 245 1;
#X obj 187 22 vsl 15 128 0 1 0 0 \$1-bflsa7 \$1-bflra7 a7 0 -9 0 10
-262144 -1 -1 0 1;
#X obj 213 22 vsl 15 128 0 1 0 0 \$1-bflsa8 \$1-bflra8 a8 0 -9 0 10
-262144 -1 -1 8000 1;
#X obj 264 360 vsl 15 128 0.1 50 0 0 \$1-bflsq \$1-bflrq Q 2 -12 0
10 -262144 -1 -1 738 1;
#X obj 265 23 vsl 15 128 0 1 0 0 \$1-bflslev \$1-bflrlev level -10
-12 0 10 -262144 -1 -1 3800 1;
#X obj 16 186 vsl 15 128 0 127 0 0 \$1-bflsf1 \$1-bflrf1 f1 0 -9 0
10 -262144 -1 -1 7774 1;
#X obj 42 187 vsl 15 128 0 127 0 0 \$1-bflsf2 \$1-bflrf2 f2 0 -9 0
10 -262144 -1 -1 6500 1;
#X obj 72 187 vsl 15 128 0 127 0 0 \$1-bflsf3 \$1-bflrf3 f3 0 -9 0
10 -262144 -1 -1 8258 1;
#X obj 100 187 vsl 15 128 0 127 0 0 \$1-bflsf4 \$1-bflrf4 f4 0 -9 0
10 -262144 -1 -1 9200 1;
#X obj 131 187 vsl 15 128 0 127 0 0 \$1-bflsf5 \$1-bflrf5 f5 0 -9 0
10 -262144 -1 -1 6200 1;
#X obj 160 187 vsl 15 128 0 127 0 0 \$1-bflsf6 \$1-bflrf6 f6 0 -9 0
10 -262144 -1 -1 9456 1;
#X obj 186 187 vsl 15 128 0 127 0 0 \$1-bflsf7 \$1-bflrf7 f7 0 -9 0
10 -262144 -1 -1 7170 1;
#X obj 213 187 vsl 15 128 0 127 0 0 \$1-bflsf8 \$1-bflrf8 f8 0 -9 0
10 -262144 -1 -1 4900 1;
#X obj 15 360 vsl 15 128 0.1 50 0 0 \$1-bflsq1 \$1-bflrq1 q1 0 -9 0
10 -262144 -1 -1 1800 1;
#X obj 41 361 vsl 15 128 0.1 50 0 0 \$1-bflsq2 \$1-bflrq2 q2 0 -9 0
10 -262144 -1 -1 1638 1;
#X obj 71 361 vsl 15 128 0.1 50 0 0 \$1-bflsq3 \$1-bflrq3 q3 0 -9 0
10 -262144 -1 -1 7338 1;
#X obj 99 361 vsl 15 128 0.1 50 0 0 \$1-bflsq4 \$1-bflrq4 q4 0 -9 0
10 -262144 -1 -1 5638 1;
#X obj 130 361 vsl 15 128 0.1 50 0 0 \$1-bflsq5 \$1-bflrq5 q5 0 -9
0 10 -262144 -1 -1 10738 1;
#X obj 159 361 vsl 15 128 0.1 50 0 0 \$1-bflsq6 \$1-bflrq6 q6 0 -9
0 10 -262144 -1 -1 9938 1;
#X obj 185 361 vsl 15 128 0.1 50 0 0 \$1-bflsq7 \$1-bflrq7 q7 0 -9
0 10 -262144 -1 -1 4338 1;
#X obj 212 361 vsl 15 128 0.1 50 0 0 \$1-bflsq8 \$1-bflrq8 q8 0 -9
0 10 -262144 -1 -1 10838 1;
#X obj 261 516 vsl 15 128 0 4 0 0 \$1-bflso \$1-bflro O 0 -9 0 10 -262144
-1 -1 0 1;
#X obj 264 188 vsl 15 128 20 30020 0 0 \$1-bflstime \$1-bflrtime time
-10 -9 0 10 -262144 -1 -1 5413 1;
#X obj 212 517 vsl 15 128 0 4 0 0 \$1-bflso8 \$1-bflro8 O8 0 -9 0 10
-262144 -1 -1 12700 1;
#X obj 14 514 vsl 15 128 0 4 0 0 \$1-bflso1 \$1-bflro1 O1 0 -9 0 10
-262144 -1 -1 4700 1;
#X obj 43 514 vsl 15 128 0 4 0 0 \$1-bflso2 \$1-bflro2 O2 0 -9 0 10
-262144 -1 -1 1600 1;
#X obj 74 514 vsl 15 128 0 4 0 0 \$1-bflso3 \$1-bflro3 O3 0 -9 0 10
-262144 -1 -1 4100 1;
#X obj 103 514 vsl 15 128 0 4 0 0 \$1-bflso4 \$1-bflro4 O4 0 -9 0 10
-262144 -1 -1 3000 1;
#X obj 130 515 vsl 15 128 0 4 0 0 \$1-bflso5 \$1-bflro5 O5 0 -9 0 10
-262144 -1 -1 4000 1;
#X obj 162 516 vsl 15 128 0 4 0 0 \$1-bflso6 \$1-bflro6 O6 0 -9 0 10
-262144 -1 -1 5200 1;
#X obj 188 516 vsl 15 128 0 4 0 0 \$1-bflso7 \$1-bflro7 O7 0 -9 0 10
-262144 -1 -1 6700 1;
#X obj 251 320 nbx 5 14 -1e+037 1e+037 0 0 empty empty empty 0 -8 0
10 -86277 -260097 -1 12806.6 256;
#X obj 67 659 bng 10 250 50 0 \$1-bflsextraoptions empty extra_options
17 4 0 10 -262144 -1 -1;
#X obj 14 318 nbx 2 14 -1e+037 1e+037 0 0 empty empty empty 0 -8 0
10 -86277 -260097 -1 77.74 256;
#X obj 217 318 nbx 2 14 -1e+037 1e+037 0 0 empty empty empty 0 -8 0
10 -86277 -260097 -1 49 256;
#X obj 188 318 nbx 2 14 -1e+037 1e+037 0 0 empty empty empty 0 -8 0
10 -86277 -260097 -1 71.7 256;
#X obj 159 318 nbx 2 14 -1e+037 1e+037 0 0 empty empty empty 0 -8 0
10 -86277 -260097 -1 94.56 256;
#X obj 130 318 nbx 2 14 -1e+037 1e+037 0 0 empty empty empty 0 -8 0
10 -86277 -260097 -1 62 256;
#X obj 101 318 nbx 2 14 -1e+037 1e+037 0 0 empty empty empty 0 -8 0
10 -86277 -260097 -1 92 256;
#X obj 72 318 nbx 2 14 -1e+037 1e+037 0 0 empty empty empty 0 -8 0
10 -86277 -260097 -1 82.58 256;
#X obj 43 318 nbx 2 14 -1e+037 1e+037 0 0 empty empty empty 0 -8 0
10 -86277 -260097 -1 65 256;
#N canvas 67 504 283 166 printname 0;
#X obj 54 6 r printallnames;
#X obj 54 87 symbol;
#X obj 54 112 s rallnames;
#X msg 123 58 8band-filter;
#X msg 32 56 band-bpf;
#X obj 68 31 t b b;
#X connect 0 0 5 0;
#X connect 1 0 2 0;
#X connect 3 0 1 0;
#X connect 4 0 1 0;
#X connect 5 0 4 0;
#X connect 5 1 3 0;
#X restore 419 596 pd printname;
#N canvas 450 104 588 321 presetsnew 0;
#X obj 210 58 r savepresetn;
#X obj 203 119 t b b b;
#N canvas 76 0 1041 709 name-sends-normal 0;
#N canvas 0 0 450 300 (subpatch) 0;
#X array \$1-bflbetween 36 float 2;
#X coords 0 10000 36 -10000 20 20 1;
#X restore 15 676 graph;
#X obj 393 587 tabwrite \$1-bflbetween;
#X obj 428 286 unpack f f;
#X obj 97 179 pack f 3;
#X obj 134 201 pack f 4;
#X obj 185 223 pack f 5;
#X obj 235 178 pack f 6;
#X obj 272 200 pack f 7;
#X obj 323 222 pack f 8;
#X obj 367 179 pack f 9;
#X obj 404 201 pack f 10;
#X obj 448 222 pack f 11;
#X obj 507 179 pack f 12;
#X obj 544 201 pack f 13;
#X obj 591 221 pack f 14;
#X obj 664 179 pack f 15;
#X obj 701 201 pack f 16;
#X obj 753 224 pack f 17;
#X obj 797 179 pack f 18;
#X obj 834 202 pack f 19;
#X obj 883 226 pack f 20;
#X obj 438 505 unpack f f;
#X obj 98 426 pack f 21;
#X obj 135 448 pack f 22;
#X obj 186 470 pack f 23;
#X obj 236 425 pack f 24;
#X obj 273 447 pack f 25;
#X obj 324 469 pack f 26;
#X obj 368 426 pack f 27;
#X obj 405 448 pack f 28;
#X obj 449 469 pack f 29;
#X obj 508 426 pack f 30;
#X obj 545 448 pack f 31;
#X obj 596 469 pack f 32;
#X obj 665 426 pack f 33;
#X obj 702 448 pack f 34;
#X obj 754 471 pack f 35;
#X obj 6 61 pack f 1;
#X obj 40 118 pack f 2;
#X obj 882 491 pack f 36;
#X text 38 678 -> adjust size if necessary (standard size = 109);
#X obj 146 111 r \$1-bflsa1;
#X obj 139 82 r \$1-bflsf1;
#X obj 268 93 r \$1-bflsq1;
#X obj 157 138 r \$1-bflso1;
#X obj 362 137 r \$1-bflsa2;
#X obj 301 115 r \$1-bflsf2;
#X obj 434 112 r \$1-bflsq2;
#X obj 405 88 r \$1-bflso2;
#X obj 521 86 r \$1-bflsa3;
#X obj 472 134 r \$1-bflsf3;
#X obj 581 130 r \$1-bflsq3;
#X obj 538 109 r \$1-bflso3;
#X obj 662 75 r \$1-bflsf4;
#X obj 691 99 r \$1-bflsa4;
#X obj 722 123 r \$1-bflso4;
#X obj 757 146 r \$1-bflsq4;
#X obj 831 59 r \$1-bflsf5;
#X obj 856 87 r \$1-bflsa5;
#X obj 37 317 r \$1-bflso5;
#X obj 77 340 r \$1-bflsq5;
#X obj 153 319 r \$1-bflsf6;
#X obj 192 339 r \$1-bflsa6;
#X obj 229 365 r \$1-bflso6;
#X obj 340 369 r \$1-bflsf7;
#X obj 380 394 r \$1-bflsa7;
#X obj 457 317 r \$1-bflso7;
#X obj 492 339 r \$1-bflsq7;
#X obj 514 365 r \$1-bflsf8;
#X obj 615 319 r \$1-bflsa8;
#X obj 637 342 r \$1-bflso8;
#X obj 678 375 r \$1-bflsq8;
#X obj 83 52 r \$1-bflstime;
#X obj 788 312 r \$1-bflslev;
#X obj 329 347 r \$1-bflsq6;
#X connect 2 0 1 0;
#X connect 2 1 1 1;
#X connect 3 0 2 0;
#X connect 4 0 2 0;
#X connect 5 0 2 0;
#X connect 6 0 2 0;
#X connect 7 0 2 0;
#X connect 8 0 2 0;
#X connect 9 0 2 0;
#X connect 10 0 2 0;
#X connect 11 0 2 0;
#X connect 12 0 2 0;
#X connect 13 0 2 0;
#X connect 14 0 2 0;
#X connect 15 0 2 0;
#X connect 16 0 2 0;
#X connect 17 0 2 0;
#X connect 18 0 2 0;
#X connect 19 0 2 0;
#X connect 20 0 2 0;
#X connect 21 0 1 0;
#X connect 21 1 1 1;
#X connect 22 0 21 0;
#X connect 23 0 21 0;
#X connect 24 0 21 0;
#X connect 25 0 21 0;
#X connect 26 0 21 0;
#X connect 27 0 21 0;
#X connect 28 0 21 0;
#X connect 29 0 21 0;
#X connect 30 0 21 0;
#X connect 31 0 21 0;
#X connect 32 0 21 0;
#X connect 33 0 21 0;
#X connect 34 0 21 0;
#X connect 35 0 21 0;
#X connect 36 0 21 0;
#X connect 37 0 21 0;
#X connect 38 0 21 0;
#X connect 39 0 21 0;
#X connect 41 0 4 0;
#X connect 42 0 3 0;
#X connect 43 0 6 0;
#X connect 44 0 5 0;
#X connect 45 0 8 0;
#X connect 46 0 7 0;
#X connect 47 0 10 0;
#X connect 48 0 9 0;
#X connect 49 0 12 0;
#X connect 50 0 11 0;
#X connect 51 0 14 0;
#X connect 52 0 13 0;
#X connect 53 0 15 0;
#X connect 54 0 16 0;
#X connect 55 0 17 0;
#X connect 56 0 18 0;
#X connect 57 0 19 0;
#X connect 58 0 20 0;
#X connect 59 0 22 0;
#X connect 60 0 23 0;
#X connect 61 0 24 0;
#X connect 62 0 25 0;
#X connect 63 0 26 0;
#X connect 64 0 28 0;
#X connect 65 0 29 0;
#X connect 66 0 30 0;
#X connect 67 0 31 0;
#X connect 68 0 32 0;
#X connect 69 0 33 0;
#X connect 70 0 34 0;
#X connect 71 0 35 0;
#X connect 72 0 38 0;
#X connect 73 0 36 0;
#X connect 74 0 27 0;
#X restore 75 27 pd name-sends-normal;
#X obj 223 196 s toextfile;
#N canvas 199 168 560 404 normal 0;
#X obj 278 134 f \$1;
#X obj 237 278 symbol;
#X obj 42 268 list prepend add2;
#X obj 42 293 list trim;
#X obj 188 51 t b b b b b;
#X obj 154 135 f 0;
#X obj 193 135 + 1;
#X msg 181 103 0;
#X msg 240 196 bflrx\$1;
#X obj 237 222 pack s f;
#X msg 237 249 \$2-\$1;
#X obj 131 102 until;
#X obj 193 161 t f f;
#X obj 21 193 tabread \$1-bflbetween;
#X text 151 77 -> aanpassen! aantal op te slagen floats;
#X obj 180 16 inlet;
#X obj 229 345 outlet;
#X msg 235 311 add2 () norm 0 0 \$1;
#X obj 111 76 f 35;
#X connect 0 0 9 1;
#X connect 1 0 17 0;
#X connect 2 0 3 0;
#X connect 3 0 16 0;
#X connect 4 3 18 0;
#X connect 4 4 0 0;
#X connect 4 4 7 0;
#X connect 5 0 6 0;
#X connect 6 0 5 1;
#X connect 6 0 12 0;
#X connect 7 0 5 1;
#X connect 8 0 9 0;
#X connect 9 0 10 0;
#X connect 10 0 1 0;
#X connect 11 0 5 0;
#X connect 12 0 13 0;
#X connect 12 1 8 0;
#X connect 13 0 2 0;
#X connect 15 0 4 0;
#X connect 17 0 16 0;
#X connect 18 0 11 0;
#X restore 217 153 pd normal;
#X text 179 152 !!->;
#X text 212 245 !!->;
#N canvas 123 0 1083 670 receive-normal 0;
#X obj 24 26 r \$1-bflrx3;
#X obj 54 46 r \$1-bflrx4;
#X obj 85 66 r \$1-bflrx5;
#X obj 196 19 r \$1-bflrx6;
#X obj 226 39 r \$1-bflrx7;
#X obj 257 59 r \$1-bflrx8;
#X obj 364 16 r \$1-bflrx9;
#X obj 382 37 r \$1-bflrx10;
#X obj 416 58 r \$1-bflrx11;
#X obj 523 33 r \$1-bflrx12;
#X obj 553 53 r \$1-bflrx13;
#X obj 584 73 r \$1-bflrx14;
#X obj 703 33 r \$1-bflrx15;
#X obj 733 53 r \$1-bflrx16;
#X obj 764 73 r \$1-bflrx17;
#X obj 863 33 r \$1-bflrx18;
#X obj 893 53 r \$1-bflrx19;
#X obj 924 73 r \$1-bflrx20;
#X obj 39 395 r \$1-bflrx21;
#X obj 69 415 r \$1-bflrx22;
#X obj 87 438 r \$1-bflrx23;
#X obj 219 395 r \$1-bflrx24;
#X obj 249 415 r \$1-bflrx25;
#X obj 280 435 r \$1-bflrx26;
#X obj 399 395 r \$1-bflrx27;
#X obj 429 415 r \$1-bflrx28;
#X obj 460 435 r \$1-bflrx29;
#X obj 549 395 r \$1-bflrx30;
#X obj 579 415 r \$1-bflrx31;
#X obj 610 435 r \$1-bflrx32;
#X obj 719 395 r \$1-bflrx33;
#X obj 749 415 r \$1-bflrx34;
#X obj 780 435 r \$1-bflrx35;
#X obj 58 676 r \$1-bflrx37;
#X obj 88 696 r \$1-bflrx38;
#X obj 119 716 r \$1-bflrx39;
#X obj 248 676 r \$1-bflrx40;
#X obj 278 696 r \$1-bflrx41;
#X obj 309 716 r \$1-bflrx42;
#N canvas 30 18 246 218 cmp 0;
#X obj 42 65 list split 1;
#X obj 88 119 ==;
#X obj 43 151 spigot;
#X obj 43 176 outlet;
#X obj 42 28 inlet;
#X obj 110 30 r \$1-bflarg2;
#X connect 0 0 2 0;
#X connect 0 1 1 0;
#X connect 1 0 2 1;
#X connect 2 0 3 0;
#X connect 4 0 0 0;
#X connect 5 0 1 1;
#X restore 22 90 pd cmp;
#N canvas 355 32 246 300 cmp 0;
#X obj 42 65 list split 1;
#X obj 88 119 ==;
#X obj 43 151 spigot;
#X obj 43 176 outlet;
#X obj 42 28 inlet;
#X obj 110 30 r \$1-bflarg2;
#X connect 0 0 2 0;
#X connect 0 1 1 0;
#X connect 1 0 2 1;
#X connect 2 0 3 0;
#X connect 4 0 0 0;
#X connect 5 0 1 1;
#X restore 42 115 pd cmp;
#N canvas 0 0 246 300 cmp 0;
#X obj 42 65 list split 1;
#X obj 88 119 ==;
#X obj 43 151 spigot;
#X obj 43 176 outlet;
#X obj 42 28 inlet;
#X obj 110 30 r \$1-bflarg2;
#X connect 0 0 2 0;
#X connect 0 1 1 0;
#X connect 1 0 2 1;
#X connect 2 0 3 0;
#X connect 4 0 0 0;
#X connect 5 0 1 1;
#X restore 59 143 pd cmp;
#N canvas 0 0 246 300 cmp 0;
#X obj 42 65 list split 1;
#X obj 88 119 ==;
#X obj 43 151 spigot;
#X obj 43 176 outlet;
#X obj 42 28 inlet;
#X obj 110 30 r \$1-bflarg2;
#X connect 0 0 2 0;
#X connect 0 1 1 0;
#X connect 1 0 2 1;
#X connect 2 0 3 0;
#X connect 4 0 0 0;
#X connect 5 0 1 1;
#X restore 172 90 pd cmp;
#N canvas 0 0 246 300 cmp 0;
#X obj 42 65 list split 1;
#X obj 88 119 ==;
#X obj 43 151 spigot;
#X obj 43 176 outlet;
#X obj 42 28 inlet;
#X obj 110 30 r \$1-bflarg2;
#X connect 0 0 2 0;
#X connect 0 1 1 0;
#X connect 1 0 2 1;
#X connect 2 0 3 0;
#X connect 4 0 0 0;
#X connect 5 0 1 1;
#X restore 192 115 pd cmp;
#N canvas 308 15 246 215 cmp 0;
#X obj 42 65 list split 1;
#X obj 88 119 ==;
#X obj 43 151 spigot;
#X obj 43 176 outlet;
#X obj 42 28 inlet;
#X obj 110 30 r \$1-bflarg2;
#X connect 0 0 2 0;
#X connect 0 1 1 0;
#X connect 1 0 2 1;
#X connect 2 0 3 0;
#X connect 4 0 0 0;
#X connect 5 0 1 1;
#X restore 209 143 pd cmp;
#N canvas 0 0 246 300 cmp 0;
#X obj 42 65 list split 1;
#X obj 88 119 ==;
#X obj 43 151 spigot;
#X obj 43 176 outlet;
#X obj 42 28 inlet;
#X obj 110 30 r \$1-bflarg2;
#X connect 0 0 2 0;
#X connect 0 1 1 0;
#X connect 1 0 2 1;
#X connect 2 0 3 0;
#X connect 4 0 0 0;
#X connect 5 0 1 1;
#X restore 362 80 pd cmp;
#N canvas 0 0 246 300 cmp 0;
#X obj 42 65 list split 1;
#X obj 88 119 ==;
#X obj 43 151 spigot;
#X obj 43 176 outlet;
#X obj 42 28 inlet;
#X obj 110 30 r \$1-bflarg2;
#X connect 0 0 2 0;
#X connect 0 1 1 0;
#X connect 1 0 2 1;
#X connect 2 0 3 0;
#X connect 4 0 0 0;
#X connect 5 0 1 1;
#X restore 382 105 pd cmp;
#N canvas 0 0 246 300 cmp 0;
#X obj 42 65 list split 1;
#X obj 88 119 ==;
#X obj 43 151 spigot;
#X obj 43 176 outlet;
#X obj 42 28 inlet;
#X obj 110 30 r \$1-bflarg2;
#X connect 0 0 2 0;
#X connect 0 1 1 0;
#X connect 1 0 2 1;
#X connect 2 0 3 0;
#X connect 4 0 0 0;
#X connect 5 0 1 1;
#X restore 399 133 pd cmp;
#N canvas 0 0 246 300 cmp 0;
#X obj 42 65 list split 1;
#X obj 88 119 ==;
#X obj 43 151 spigot;
#X obj 43 176 outlet;
#X obj 42 28 inlet;
#X obj 110 30 r \$1-bflarg2;
#X connect 0 0 2 0;
#X connect 0 1 1 0;
#X connect 1 0 2 1;
#X connect 2 0 3 0;
#X connect 4 0 0 0;
#X connect 5 0 1 1;
#X restore 542 110 pd cmp;
#N canvas 0 0 246 300 cmp 0;
#X obj 42 65 list split 1;
#X obj 88 119 ==;
#X obj 43 151 spigot;
#X obj 43 176 outlet;
#X obj 42 28 inlet;
#X obj 110 30 r \$1-bflarg2;
#X connect 0 0 2 0;
#X connect 0 1 1 0;
#X connect 1 0 2 1;
#X connect 2 0 3 0;
#X connect 4 0 0 0;
#X connect 5 0 1 1;
#X restore 562 135 pd cmp;
#N canvas 0 0 246 300 cmp 0;
#X obj 42 65 list split 1;
#X obj 88 119 ==;
#X obj 43 151 spigot;
#X obj 43 176 outlet;
#X obj 42 28 inlet;
#X obj 110 30 r \$1-bflarg2;
#X connect 0 0 2 0;
#X connect 0 1 1 0;
#X connect 1 0 2 1;
#X connect 2 0 3 0;
#X connect 4 0 0 0;
#X connect 5 0 1 1;
#X restore 579 163 pd cmp;
#N canvas 0 0 246 300 cmp 0;
#X obj 42 65 list split 1;
#X obj 88 119 ==;
#X obj 43 151 spigot;
#X obj 43 176 outlet;
#X obj 42 28 inlet;
#X obj 110 30 r \$1-bflarg2;
#X connect 0 0 2 0;
#X connect 0 1 1 0;
#X connect 1 0 2 1;
#X connect 2 0 3 0;
#X connect 4 0 0 0;
#X connect 5 0 1 1;
#X restore 692 110 pd cmp;
#N canvas 0 0 246 300 cmp 0;
#X obj 42 65 list split 1;
#X obj 88 119 ==;
#X obj 43 151 spigot;
#X obj 43 176 outlet;
#X obj 42 28 inlet;
#X obj 110 30 r \$1-bflarg2;
#X connect 0 0 2 0;
#X connect 0 1 1 0;
#X connect 1 0 2 1;
#X connect 2 0 3 0;
#X connect 4 0 0 0;
#X connect 5 0 1 1;
#X restore 712 135 pd cmp;
#N canvas 0 0 246 300 cmp 0;
#X obj 42 65 list split 1;
#X obj 88 119 ==;
#X obj 43 151 spigot;
#X obj 43 176 outlet;
#X obj 42 28 inlet;
#X obj 110 30 r \$1-bflarg2;
#X connect 0 0 2 0;
#X connect 0 1 1 0;
#X connect 1 0 2 1;
#X connect 2 0 3 0;
#X connect 4 0 0 0;
#X connect 5 0 1 1;
#X restore 729 163 pd cmp;
#N canvas 0 0 246 300 cmp 0;
#X obj 42 65 list split 1;
#X obj 88 119 ==;
#X obj 43 151 spigot;
#X obj 43 176 outlet;
#X obj 42 28 inlet;
#X obj 110 30 r \$1-bflarg2;
#X connect 0 0 2 0;
#X connect 0 1 1 0;
#X connect 1 0 2 1;
#X connect 2 0 3 0;
#X connect 4 0 0 0;
#X connect 5 0 1 1;
#X restore 882 100 pd cmp;
#N canvas 0 0 246 300 cmp 0;
#X obj 42 65 list split 1;
#X obj 88 119 ==;
#X obj 43 151 spigot;
#X obj 43 176 outlet;
#X obj 42 28 inlet;
#X obj 110 30 r \$1-bflarg2;
#X connect 0 0 2 0;
#X connect 0 1 1 0;
#X connect 1 0 2 1;
#X connect 2 0 3 0;
#X connect 4 0 0 0;
#X connect 5 0 1 1;
#X restore 902 125 pd cmp;
#N canvas 0 0 246 300 cmp 0;
#X obj 42 65 list split 1;
#X obj 88 119 ==;
#X obj 43 151 spigot;
#X obj 43 176 outlet;
#X obj 42 28 inlet;
#X obj 110 30 r \$1-bflarg2;
#X connect 0 0 2 0;
#X connect 0 1 1 0;
#X connect 1 0 2 1;
#X connect 2 0 3 0;
#X connect 4 0 0 0;
#X connect 5 0 1 1;
#X restore 919 153 pd cmp;
#X obj 68 243 s \$1-bflra1;
#X obj 40 220 s \$1-bflrf1;
#X obj 168 206 s \$1-bflrq1;
#X obj 79 270 s \$1-bflro1;
#X obj 217 252 s \$1-bflra2;
#X obj 192 231 s \$1-bflrf2;
#X obj 402 226 s \$1-bflrq2;
#X obj 383 203 s \$1-bflro2;
#X obj 564 223 s \$1-bflra3;
#X obj 409 249 s \$1-bflrf3;
#X obj 603 272 s \$1-bflrq3;
#X obj 585 246 s \$1-bflro3;
#X obj 691 215 s \$1-bflrf4;
#X obj 712 238 s \$1-bflra4;
#X obj 724 265 s \$1-bflro4;
#X obj 873 195 s \$1-bflrq4;
#X obj 899 216 s \$1-bflrf5;
#X obj 917 245 s \$1-bflra5;
#X obj 49 565 s \$1-bflro5;
#X obj 84 589 s \$1-bflrq5;
#X obj 110 617 s \$1-bflrf6;
#X obj 361 542 s \$1-bflrf7;
#X obj 380 568 s \$1-bflra7;
#X obj 418 594 s \$1-bflro7;
#X obj 537 574 s \$1-bflrq7;
#X obj 553 599 s \$1-bflrf8;
#X obj 614 621 s \$1-bflra8;
#X obj 690 575 s \$1-bflro8;
#X obj 723 594 s \$1-bflrq8;
#X obj 188 546 s \$1-bflra6;
#X obj 205 572 s \$1-bflro6;
#X obj 231 599 s \$1-bflrq6;
#X obj 743 612 s \$1-bflrlev;
#X obj 912 594 s \$1-bflrtime;
#X obj 911 559 spigot;
#N canvas 30 18 246 218 cmp 0;
#X obj 42 65 list split 1;
#X obj 88 119 ==;
#X obj 43 151 spigot;
#X obj 43 176 outlet;
#X obj 42 28 inlet;
#X obj 110 30 r \$1-bflarg2;
#X connect 0 0 2 0;
#X connect 0 1 1 0;
#X connect 1 0 2 1;
#X connect 2 0 3 0;
#X connect 4 0 0 0;
#X connect 5 0 1 1;
#X restore 32 470 pd cmp;
#N canvas 355 32 246 300 cmp 0;
#X obj 42 65 list split 1;
#X obj 88 119 ==;
#X obj 43 151 spigot;
#X obj 43 176 outlet;
#X obj 42 28 inlet;
#X obj 110 30 r \$1-bflarg2;
#X connect 0 0 2 0;
#X connect 0 1 1 0;
#X connect 1 0 2 1;
#X connect 2 0 3 0;
#X connect 4 0 0 0;
#X connect 5 0 1 1;
#X restore 52 495 pd cmp;
#N canvas 0 0 246 300 cmp 0;
#X obj 42 65 list split 1;
#X obj 88 119 ==;
#X obj 43 151 spigot;
#X obj 43 176 outlet;
#X obj 42 28 inlet;
#X obj 110 30 r \$1-bflarg2;
#X connect 0 0 2 0;
#X connect 0 1 1 0;
#X connect 1 0 2 1;
#X connect 2 0 3 0;
#X connect 4 0 0 0;
#X connect 5 0 1 1;
#X restore 69 523 pd cmp;
#N canvas 0 0 246 300 cmp 0;
#X obj 42 65 list split 1;
#X obj 88 119 ==;
#X obj 43 151 spigot;
#X obj 43 176 outlet;
#X obj 42 28 inlet;
#X obj 110 30 r \$1-bflarg2;
#X connect 0 0 2 0;
#X connect 0 1 1 0;
#X connect 1 0 2 1;
#X connect 2 0 3 0;
#X connect 4 0 0 0;
#X connect 5 0 1 1;
#X restore 182 470 pd cmp;
#N canvas 0 0 246 300 cmp 0;
#X obj 42 65 list split 1;
#X obj 88 119 ==;
#X obj 43 151 spigot;
#X obj 43 176 outlet;
#X obj 42 28 inlet;
#X obj 110 30 r \$1-bflarg2;
#X connect 0 0 2 0;
#X connect 0 1 1 0;
#X connect 1 0 2 1;
#X connect 2 0 3 0;
#X connect 4 0 0 0;
#X connect 5 0 1 1;
#X restore 202 495 pd cmp;
#N canvas 308 15 246 215 cmp 0;
#X obj 42 65 list split 1;
#X obj 88 119 ==;
#X obj 43 151 spigot;
#X obj 43 176 outlet;
#X obj 42 28 inlet;
#X obj 110 30 r \$1-bflarg2;
#X connect 0 0 2 0;
#X connect 0 1 1 0;
#X connect 1 0 2 1;
#X connect 2 0 3 0;
#X connect 4 0 0 0;
#X connect 5 0 1 1;
#X restore 219 523 pd cmp;
#N canvas 0 0 246 300 cmp 0;
#X obj 42 65 list split 1;
#X obj 88 119 ==;
#X obj 43 151 spigot;
#X obj 43 176 outlet;
#X obj 42 28 inlet;
#X obj 110 30 r \$1-bflarg2;
#X connect 0 0 2 0;
#X connect 0 1 1 0;
#X connect 1 0 2 1;
#X connect 2 0 3 0;
#X connect 4 0 0 0;
#X connect 5 0 1 1;
#X restore 372 460 pd cmp;
#N canvas 0 0 246 300 cmp 0;
#X obj 42 65 list split 1;
#X obj 88 119 ==;
#X obj 43 151 spigot;
#X obj 43 176 outlet;
#X obj 42 28 inlet;
#X obj 110 30 r \$1-bflarg2;
#X connect 0 0 2 0;
#X connect 0 1 1 0;
#X connect 1 0 2 1;
#X connect 2 0 3 0;
#X connect 4 0 0 0;
#X connect 5 0 1 1;
#X restore 392 485 pd cmp;
#N canvas 0 0 246 300 cmp 0;
#X obj 42 65 list split 1;
#X obj 88 119 ==;
#X obj 43 151 spigot;
#X obj 43 176 outlet;
#X obj 42 28 inlet;
#X obj 110 30 r \$1-bflarg2;
#X connect 0 0 2 0;
#X connect 0 1 1 0;
#X connect 1 0 2 1;
#X connect 2 0 3 0;
#X connect 4 0 0 0;
#X connect 5 0 1 1;
#X restore 409 513 pd cmp;
#N canvas 0 0 246 300 cmp 0;
#X obj 42 65 list split 1;
#X obj 88 119 ==;
#X obj 43 151 spigot;
#X obj 43 176 outlet;
#X obj 42 28 inlet;
#X obj 110 30 r \$1-bflarg2;
#X connect 0 0 2 0;
#X connect 0 1 1 0;
#X connect 1 0 2 1;
#X connect 2 0 3 0;
#X connect 4 0 0 0;
#X connect 5 0 1 1;
#X restore 550 489 pd cmp;
#N canvas 0 0 246 300 cmp 0;
#X obj 42 65 list split 1;
#X obj 88 119 ==;
#X obj 43 151 spigot;
#X obj 43 176 outlet;
#X obj 42 28 inlet;
#X obj 110 30 r \$1-bflarg2;
#X connect 0 0 2 0;
#X connect 0 1 1 0;
#X connect 1 0 2 1;
#X connect 2 0 3 0;
#X connect 4 0 0 0;
#X connect 5 0 1 1;
#X restore 571 508 pd cmp;
#N canvas 0 0 246 300 cmp 0;
#X obj 42 65 list split 1;
#X obj 88 119 ==;
#X obj 43 151 spigot;
#X obj 43 176 outlet;
#X obj 42 28 inlet;
#X obj 110 30 r \$1-bflarg2;
#X connect 0 0 2 0;
#X connect 0 1 1 0;
#X connect 1 0 2 1;
#X connect 2 0 3 0;
#X connect 4 0 0 0;
#X connect 5 0 1 1;
#X restore 589 543 pd cmp;
#N canvas 0 0 246 300 cmp 0;
#X obj 42 65 list split 1;
#X obj 88 119 ==;
#X obj 43 151 spigot;
#X obj 43 176 outlet;
#X obj 42 28 inlet;
#X obj 110 30 r \$1-bflarg2;
#X connect 0 0 2 0;
#X connect 0 1 1 0;
#X connect 1 0 2 1;
#X connect 2 0 3 0;
#X connect 4 0 0 0;
#X connect 5 0 1 1;
#X restore 702 490 pd cmp;
#N canvas 0 0 246 300 cmp 0;
#X obj 42 65 list split 1;
#X obj 88 119 ==;
#X obj 43 151 spigot;
#X obj 43 176 outlet;
#X obj 42 28 inlet;
#X obj 110 30 r \$1-bflarg2;
#X connect 0 0 2 0;
#X connect 0 1 1 0;
#X connect 1 0 2 1;
#X connect 2 0 3 0;
#X connect 4 0 0 0;
#X connect 5 0 1 1;
#X restore 722 515 pd cmp;
#N canvas 0 0 246 300 cmp 0;
#X obj 42 65 list split 1;
#X obj 88 119 ==;
#X obj 43 151 spigot;
#X obj 43 176 outlet;
#X obj 42 28 inlet;
#X obj 110 30 r \$1-bflarg2;
#X connect 0 0 2 0;
#X connect 0 1 1 0;
#X connect 1 0 2 1;
#X connect 2 0 3 0;
#X connect 4 0 0 0;
#X connect 5 0 1 1;
#X restore 739 543 pd cmp;
#N canvas 0 0 246 300 cmp 0;
#X obj 42 65 list split 1;
#X obj 88 119 ==;
#X obj 43 151 spigot;
#X obj 43 176 outlet;
#X obj 42 28 inlet;
#X obj 110 30 r \$1-bflarg2;
#X connect 0 0 2 0;
#X connect 0 1 1 0;
#X connect 1 0 2 1;
#X connect 2 0 3 0;
#X connect 4 0 0 0;
#X connect 5 0 1 1;
#X restore 892 480 pd cmp;
#N canvas 0 0 246 300 cmp 0;
#X obj 42 65 list split 1;
#X obj 88 119 ==;
#X obj 43 151 spigot;
#X obj 43 176 outlet;
#X obj 42 28 inlet;
#X obj 110 30 r \$1-bflarg2;
#X connect 0 0 2 0;
#X connect 0 1 1 0;
#X connect 1 0 2 1;
#X connect 2 0 3 0;
#X connect 4 0 0 0;
#X connect 5 0 1 1;
#X restore 912 505 pd cmp;
#X obj 956 526 r \$1-bflston;
#X obj 879 395 r \$1-bflrx1;
#X obj 909 415 r \$1-bflrx2;
#X connect 0 0 39 0;
#X connect 1 0 40 0;
#X connect 2 0 41 0;
#X connect 3 0 42 0;
#X connect 4 0 43 0;
#X connect 5 0 44 0;
#X connect 6 0 45 0;
#X connect 7 0 46 0;
#X connect 8 0 47 0;
#X connect 9 0 48 0;
#X connect 10 0 49 0;
#X connect 11 0 50 0;
#X connect 12 0 51 0;
#X connect 13 0 52 0;
#X connect 14 0 53 0;
#X connect 15 0 54 0;
#X connect 16 0 55 0;
#X connect 17 0 56 0;
#X connect 18 0 92 0;
#X connect 19 0 93 0;
#X connect 20 0 94 0;
#X connect 21 0 95 0;
#X connect 22 0 96 0;
#X connect 23 0 97 0;
#X connect 24 0 98 0;
#X connect 25 0 99 0;
#X connect 26 0 100 0;
#X connect 27 0 101 0;
#X connect 28 0 102 0;
#X connect 29 0 103 0;
#X connect 30 0 104 0;
#X connect 31 0 105 0;
#X connect 32 0 106 0;
#X connect 39 0 58 0;
#X connect 40 0 57 0;
#X connect 41 0 60 0;
#X connect 42 0 59 0;
#X connect 43 0 62 0;
#X connect 44 0 61 0;
#X connect 45 0 64 0;
#X connect 46 0 63 0;
#X connect 47 0 66 0;
#X connect 48 0 65 0;
#X connect 49 0 68 0;
#X connect 50 0 67 0;
#X connect 51 0 69 0;
#X connect 52 0 70 0;
#X connect 53 0 71 0;
#X connect 54 0 72 0;
#X connect 55 0 73 0;
#X connect 56 0 74 0;
#X connect 91 0 90 0;
#X connect 92 0 75 0;
#X connect 93 0 76 0;
#X connect 94 0 77 0;
#X connect 95 0 86 0;
#X connect 96 0 87 0;
#X connect 97 0 88 0;
#X connect 98 0 78 0;
#X connect 99 0 79 0;
#X connect 100 0 80 0;
#X connect 101 0 81 0;
#X connect 102 0 82 0;
#X connect 103 0 83 0;
#X connect 104 0 84 0;
#X connect 105 0 85 0;
#X connect 106 0 89 0;
#X connect 108 0 91 0;
#X connect 109 0 91 1;
#X connect 111 0 108 0;
#X restore 251 246 pd receive-normal;
#X text 32 27 !!->;
#N canvas 0 0 246 300 cmp 0;
#X obj 42 65 list split 1;
#X obj 88 119 ==;
#X obj 43 151 spigot;
#X obj 43 176 outlet;
#X obj 42 28 inlet;
#X obj 157 64 inlet;
#X connect 0 0 2 0;
#X connect 0 1 1 0;
#X connect 1 0 2 1;
#X connect 2 0 3 0;
#X connect 4 0 0 0;
#X connect 5 0 1 1;
#X restore 209 94 pd cmp;
#X obj 458 12 loadbang;
#X obj 458 37 f \$2;
#X obj 458 85 s \$1-bflarg2;
#X text 61 274 toggle 'read_time_fader_from_presets' is not saved in
the presets;
#X connect 0 0 9 0;
#X connect 1 1 4 0;
#X connect 4 0 3 0;
#X connect 9 0 1 0;
#X connect 10 0 11 0;
#X connect 11 0 9 1;
#X connect 11 0 12 0;
#X restore 603 491 pd presetsnew;
#N canvas 519 71 501 254 init 0;
#X obj 340 154 s \$1-bflrton;
#X obj 162 159 s \$1-bflrq;
#X obj 232 38 loadbang;
#X msg 169 99 50;
#X obj 57 159 s \$1-bflrtime;
#X obj 250 153 s \$1-bflro;
#X msg 275 117 0;
#X msg 190 127 3;
#X msg 338 109 1;
#X connect 2 0 3 0;
#X connect 2 0 7 0;
#X connect 2 0 6 0;
#X connect 2 0 8 0;
#X connect 3 0 4 0;
#X connect 6 0 5 0;
#X connect 7 0 1 0;
#X connect 8 0 0 0;
#X restore 609 464 pd init;
#X connect 0 0 2 0;
#X connect 1 0 0 0;
#X connect 3 0 0 2;
#X connect 6 0 8 0;
#X connect 7 0 10 0;
#X connect 8 0 9 0;
#X connect 9 0 4 0;
#X connect 10 0 5 0;
#X connect 11 0 0 1;
#X connect 19 0 14 0;
#X connect 20 0 18 0;
#X connect 21 0 20 0;
#X connect 22 0 19 0;
#X connect 24 0 30 0;
#X connect 25 0 26 0;
#X connect 27 0 24 0;
#X connect 30 0 25 0;
#X connect 44 0 72 0;
#X connect 45 0 79 0;
#X connect 46 0 78 0;
#X connect 47 0 77 0;
#X connect 48 0 76 0;
#X connect 49 0 75 0;
#X connect 50 0 74 0;
#X connect 51 0 73 0;
#X connect 61 0 70 0;
