#N canvas 326 54 776 637 12;
#X obj 320 101 r \$1-addsams1;
#X obj 293 73 r \$1-addsaam1;
#X obj 450 101 r \$1-addshms1;
#X obj 423 73 r \$1-addsham1;
#X obj 181 91 r \$1-addsnr1;
#X obj 194 118 r \$1-addspn1;
#X obj 482 123 r \$1-addsrel1;
#X obj 306 239 r \$1-addsams2;
#X obj 279 211 r \$1-addsaam2;
#X obj 436 239 r \$1-addshms2;
#X obj 409 211 r \$1-addsham2;
#X obj 167 229 r \$1-addsnr2;
#X obj 180 256 r \$1-addspn2;
#X obj 468 261 r \$1-addsrel2;
#X obj 333 353 r \$1-addsams3;
#X obj 306 325 r \$1-addsaam3;
#X obj 463 353 r \$1-addshms3;
#X obj 436 325 r \$1-addsham3;
#X obj 194 343 r \$1-addsnr3;
#X obj 207 370 r \$1-addspn3;
#X obj 495 375 r \$1-addsrel3;
#X obj 357 472 r \$1-addsams4;
#X obj 330 444 r \$1-addsaam4;
#X obj 487 472 r \$1-addshms4;
#X obj 460 444 r \$1-addsham4;
#X obj 218 462 r \$1-addsnr4;
#X obj 231 489 r \$1-addspn4;
#X obj 519 494 r \$1-addsrel4;
#X obj 173 1068 *~ 1;
#X obj 383 585 r \$1-addsams5;
#X obj 356 557 r \$1-addsaam5;
#X obj 513 585 r \$1-addshms5;
#X obj 486 557 r \$1-addsham5;
#X obj 244 575 r \$1-addsnr5;
#X obj 257 602 r \$1-addspn5;
#X obj 545 607 r \$1-addsrel5;
#X obj 384 709 r \$1-addsams6;
#X obj 357 681 r \$1-addsaam6;
#X obj 514 709 r \$1-addshms6;
#X obj 487 681 r \$1-addsham6;
#X obj 245 699 r \$1-addsnr6;
#X obj 258 726 r \$1-addspn6;
#X obj 546 731 r \$1-addsrel6;
#X obj 403 833 r \$1-addsams7;
#X obj 376 805 r \$1-addsaam7;
#X obj 533 833 r \$1-addshms7;
#X obj 506 805 r \$1-addsham7;
#X obj 264 823 r \$1-addsnr7;
#X obj 277 850 r \$1-addspn7;
#X obj 565 855 r \$1-addsrel7;
#X obj 395 959 r \$1-addsams8;
#X obj 368 931 r \$1-addsaam8;
#X obj 525 959 r \$1-addshms8;
#X obj 498 931 r \$1-addsham8;
#X obj 256 949 r \$1-addsnr8;
#X obj 269 976 r \$1-addspn8;
#X obj 557 981 r \$1-addsrel8;
#X obj 50 139 f;
#X obj 102 137 f;
#X obj 50 95 inlet f;
#X obj 112 96 inlet v;
#X text 249 1099 owv 8 amplitudes ts 0 en 1;
#X obj 150 191 harmonicahr \$1;
#X obj 176 1099 *~ 0.4;
#X obj 131 305 harmonicahr \$1;
#X obj 158 419 harmonicahr \$1;
#X obj 182 538 harmonicahr \$1;
#X obj 208 651 harmonicahr \$1;
#X obj 209 775 harmonicahr \$1;
#X obj 228 899 harmonicahr \$1;
#X obj 220 1025 harmonicahr \$1;
#X connect 0 0 62 5;
#X connect 1 0 62 4;
#X connect 2 0 62 7;
#X connect 3 0 62 6;
#X connect 4 0 62 2;
#X connect 5 0 62 3;
#X connect 6 0 62 8;
#X connect 7 0 64 5;
#X connect 8 0 64 4;
#X connect 9 0 64 7;
#X connect 10 0 64 6;
#X connect 11 0 64 2;
#X connect 12 0 64 3;
#X connect 13 0 64 8;
#X connect 14 0 65 5;
#X connect 15 0 65 4;
#X connect 16 0 65 7;
#X connect 17 0 65 6;
#X connect 18 0 65 2;
#X connect 19 0 65 3;
#X connect 20 0 65 8;
#X connect 21 0 66 5;
#X connect 22 0 66 4;
#X connect 23 0 66 7;
#X connect 24 0 66 6;
#X connect 25 0 66 2;
#X connect 26 0 66 3;
#X connect 27 0 66 8;
#X connect 28 0 63 0;
#X connect 29 0 67 5;
#X connect 30 0 67 4;
#X connect 31 0 67 7;
#X connect 32 0 67 6;
#X connect 33 0 67 2;
#X connect 34 0 67 3;
#X connect 35 0 67 8;
#X connect 36 0 68 5;
#X connect 37 0 68 4;
#X connect 38 0 68 7;
#X connect 39 0 68 6;
#X connect 40 0 68 2;
#X connect 41 0 68 3;
#X connect 42 0 68 8;
#X connect 43 0 69 5;
#X connect 44 0 69 4;
#X connect 45 0 69 7;
#X connect 46 0 69 6;
#X connect 47 0 69 2;
#X connect 48 0 69 3;
#X connect 49 0 69 8;
#X connect 50 0 70 5;
#X connect 51 0 70 4;
#X connect 52 0 70 7;
#X connect 53 0 70 6;
#X connect 54 0 70 2;
#X connect 55 0 70 3;
#X connect 56 0 70 8;
#X connect 57 0 62 0;
#X connect 57 0 64 0;
#X connect 57 0 65 0;
#X connect 57 0 66 0;
#X connect 57 0 67 0;
#X connect 57 0 68 0;
#X connect 57 0 69 0;
#X connect 57 0 70 0;
#X connect 58 0 62 1;
#X connect 58 0 64 1;
#X connect 58 0 65 1;
#X connect 58 0 66 1;
#X connect 58 0 67 1;
#X connect 58 0 68 1;
#X connect 58 0 69 1;
#X connect 58 0 70 1;
#X connect 59 0 57 0;
#X connect 60 0 58 0;
