#N canvas 304 177 934 754 12;
#X obj 33 209 inlet~;
#X obj 93 461 inlet a1;
#X obj 367 97 inlet q;
#X obj 338 656 *~;
#X obj 399 576 line~;
#X obj 401 549 pack f 30;
#X obj 370 150 line;
#X obj 229 78 inlet f;
#X obj 233 139 line;
#X obj 632 51 inlet time;
#X obj 367 124 pack f 30;
#X obj 340 688 outlet~;
#X obj 790 94 inlet order;
#X obj 201 402 bp~;
#X obj 74 308 bp~;
#X obj 77 350 *~;
#X obj 231 443 *~;
#X obj 547 498 bp~;
#X obj 568 535 *~;
#X obj 381 457 bp~;
#X obj 397 493 *~;
#X obj 122 211 min 1;
#X obj 120 312 line~;
#X obj 270 240 max 0;
#X obj 265 322 line~;
#X obj 270 212 min 2;
#X obj 269 271 expr 1-abs($f1-1);
#X obj 427 209 min 3;
#X obj 427 237 max 1;
#X obj 427 274 expr 1-abs($f1-2);
#X obj 428 323 line~;
#X obj 579 323 line~;
#X obj 578 209 min 4;
#X obj 578 237 max 2;
#X obj 578 274 expr 1-abs($f1-3);
#X obj 724 324 line~;
#X obj 723 210 min 5;
#X obj 723 238 max 3;
#X obj 723 275 expr 1-abs($f1-4);
#X obj 710 543 bp~;
#X obj 742 574 *~;
#X obj 121 239 max -1;
#X obj 121 264 expr 1-abs($f1);
#X obj 118 289 pack f 30;
#X obj 271 296 pack f 30;
#X obj 431 299 pack f 30;
#X obj 580 298 pack f 30;
#X obj 727 299 pack f 30;
#X obj 227 105 pack f 30;
#X connect 0 0 14 0;
#X connect 1 0 5 0;
#X connect 2 0 10 0;
#X connect 3 0 11 0;
#X connect 4 0 3 1;
#X connect 5 0 4 0;
#X connect 6 0 14 2;
#X connect 6 0 13 2;
#X connect 6 0 19 2;
#X connect 6 0 17 2;
#X connect 6 0 39 2;
#X connect 7 0 48 0;
#X connect 8 0 14 1;
#X connect 8 0 13 1;
#X connect 8 0 19 1;
#X connect 8 0 17 1;
#X connect 8 0 39 1;
#X connect 9 0 5 1;
#X connect 9 0 10 1;
#X connect 9 0 44 1;
#X connect 9 0 45 1;
#X connect 9 0 46 1;
#X connect 9 0 47 1;
#X connect 9 0 43 1;
#X connect 9 0 48 1;
#X connect 10 0 6 0;
#X connect 12 0 36 0;
#X connect 12 0 32 0;
#X connect 12 0 27 0;
#X connect 12 0 25 0;
#X connect 12 0 21 0;
#X connect 13 0 16 0;
#X connect 13 0 19 0;
#X connect 14 0 15 0;
#X connect 14 0 13 0;
#X connect 15 0 3 0;
#X connect 16 0 3 0;
#X connect 17 0 18 0;
#X connect 17 0 39 0;
#X connect 18 0 3 0;
#X connect 19 0 20 0;
#X connect 19 0 17 0;
#X connect 20 0 3 0;
#X connect 21 0 41 0;
#X connect 22 0 15 1;
#X connect 23 0 26 0;
#X connect 24 0 16 1;
#X connect 25 0 23 0;
#X connect 26 0 44 0;
#X connect 27 0 28 0;
#X connect 28 0 29 0;
#X connect 29 0 45 0;
#X connect 30 0 20 1;
#X connect 31 0 18 1;
#X connect 32 0 33 0;
#X connect 33 0 34 0;
#X connect 34 0 46 0;
#X connect 35 0 40 1;
#X connect 36 0 37 0;
#X connect 37 0 38 0;
#X connect 38 0 47 0;
#X connect 39 0 40 0;
#X connect 40 0 3 0;
#X connect 41 0 42 0;
#X connect 42 0 43 0;
#X connect 43 0 22 0;
#X connect 44 0 24 0;
#X connect 45 0 30 0;
#X connect 46 0 31 0;
#X connect 47 0 35 0;
#X connect 48 0 8 0;
