#N canvas 0 292 390 149 12;
#X obj 6 250 outlet;
#X obj 81 250 outlet per2;
#X obj 200 244 outlet per3;
#X obj 312 245 outlet per4;
#X obj 412 250 outlet per5;
#X obj 514 247 outlet per6;
#N canvas 375 84 683 482 clock 0;
#X obj 57 436 outlet;
#X obj 132 436 outlet per2;
#X obj 251 430 outlet per3;
#X obj 363 431 outlet per4;
#X obj 460 428 outlet per5;
#X obj 558 428 outlet per6;
#X obj 55 149 metro 500;
#X obj 115 223 f 0;
#X obj 119 254 + 1;
#X obj 132 302 mod 2;
#X obj 208 305 mod 3;
#X obj 163 154 select 0;
#X msg 162 180 -1;
#X obj 303 310 mod 4;
#X obj 446 308 mod 5;
#X obj 535 308 mod 6;
#X obj 215 59 t b f;
#X obj 213 35 / 60;
#X obj 141 27 loadbang;
#X msg 137 53 1000;
#X obj 210 87 /;
#X obj 210 9 r \$1-clostempo;
#X obj 20 27 r \$1-closstart;
#X obj 129 327 select 0;
#X obj 246 336 select 0;
#X obj 354 336 select 0;
#X obj 442 333 select 0;
#X obj 539 331 select 0;
#X obj 20 378 moses 0.5;
#X obj 53 267 f;
#X obj 205 230 * 2;
#X obj 277 226 * 3;
#X obj 389 233 * 4;
#X obj 513 253 * 5;
#X obj 605 259 * 6;
#X obj 131 365 f;
#X obj 251 370 f;
#X obj 356 378 f;
#X obj 446 381 f;
#X obj 543 382 f;
#X obj 305 111 s \$1-clorms;
#X obj 499 152 symbol;
#X obj 491 103 f \$1;
#X obj 56 57 t f f f;
#X obj 490 79 bang;
#X msg 490 130 \$1-clorstart;
#X connect 6 0 7 0;
#X connect 6 0 29 0;
#X connect 7 0 8 0;
#X connect 8 0 7 1;
#X connect 8 0 9 0;
#X connect 8 0 10 0;
#X connect 8 0 13 0;
#X connect 8 0 14 0;
#X connect 8 0 15 0;
#X connect 9 0 23 0;
#X connect 10 0 24 0;
#X connect 11 0 12 0;
#X connect 11 1 44 0;
#X connect 12 0 7 1;
#X connect 13 0 25 0;
#X connect 14 0 26 0;
#X connect 15 0 27 0;
#X connect 16 0 20 0;
#X connect 16 1 20 1;
#X connect 17 0 16 0;
#X connect 18 0 19 0;
#X connect 19 0 20 0;
#X connect 20 0 6 1;
#X connect 20 0 29 1;
#X connect 20 0 30 0;
#X connect 20 0 31 0;
#X connect 20 0 32 0;
#X connect 20 0 33 0;
#X connect 20 0 34 0;
#X connect 20 0 40 0;
#X connect 21 0 17 0;
#X connect 22 0 43 0;
#X connect 23 0 35 0;
#X connect 24 0 36 0;
#X connect 25 0 37 0;
#X connect 26 0 38 0;
#X connect 27 0 39 0;
#X connect 28 0 0 0;
#X connect 28 0 1 0;
#X connect 28 0 2 0;
#X connect 28 0 3 0;
#X connect 28 0 4 0;
#X connect 28 0 5 0;
#X connect 29 0 0 0;
#X connect 30 0 35 1;
#X connect 31 0 36 1;
#X connect 32 0 37 1;
#X connect 33 0 38 1;
#X connect 34 0 39 1;
#X connect 35 0 1 0;
#X connect 36 0 2 0;
#X connect 37 0 3 0;
#X connect 38 0 4 0;
#X connect 39 0 5 0;
#X connect 41 0 0 0;
#X connect 41 0 1 0;
#X connect 41 0 2 0;
#X connect 41 0 3 0;
#X connect 41 0 4 0;
#X connect 41 0 5 0;
#X connect 42 0 45 0;
#X connect 43 0 28 0;
#X connect 43 1 6 0;
#X connect 43 2 11 0;
#X connect 44 0 42 0;
#X connect 45 0 41 0;
#X restore 275 196 pd clock;
#X obj 529 33 r \$1-clostempo;
#N canvas 188 38 1004 568 save_preset_array 0;
#X obj 19 403 inlet gui1;
#X obj 112 405 inlet gui2;
#X obj 197 403 inlet gui3;
#X obj 290 405 inlet gui4;
#X obj 204 438 f;
#X obj 285 440 f;
#X obj 25 443 f;
#X obj 106 445 f;
#X obj 83 109 until;
#X obj 62 173 + 1;
#X obj 89 142 f 0;
#X obj 60 332 select 1 2 3 4 5 6 7 8 9 10;
#X obj 571 505 r openpreset;
#X obj 165 12 r savepreset;
#X obj 21 825 outlet gui1;
#X obj 112 827 outlet gui2;
#X obj 201 827 outlet gui3;
#X obj 293 827 outlet gui4;
#X obj 495 598 until;
#X obj 472 657 + 1;
#X obj 499 626 f 0;
#N canvas 52 160 1048 298 router_1inxout 0;
#X obj 231 27 inlet one;
#X obj 339 23 inlet route123;
#X obj 35 211 outlet one;
#X obj 124 210 outlet two;
#X obj 218 211 outlet three;
#X obj 323 211 outlet four;
#X obj 415 210 outlet five;
#X obj 510 211 outlet six;
#X obj 599 210 outlet seven;
#X obj 700 213 outlet eigth;
#X obj 805 212 outlet nine;
#X obj 897 211 outlet ten;
#X obj 360 124 route 1 2 3 4 5 6 7 8 9 10;
#X obj 361 83 pack;
#X obj 296 57 mod 12;
#X connect 0 0 14 0;
#X connect 1 0 13 1;
#X connect 12 0 2 0;
#X connect 12 1 3 0;
#X connect 12 2 4 0;
#X connect 12 3 5 0;
#X connect 12 4 6 0;
#X connect 12 5 7 0;
#X connect 12 6 8 0;
#X connect 12 7 9 0;
#X connect 12 8 10 0;
#X connect 12 9 11 0;
#X connect 13 0 12 0;
#X connect 14 0 13 0;
#X restore 336 767 pd router_1inxout;
#X obj 211 106 f 0;
#X obj 335 24 r presetnr;
#X obj 336 49 * 12;
#X obj 334 72 - 12;
#X obj 587 587 f 0;
#X obj 495 685 t f f;
#X obj 85 201 t f f;
#X obj 736 509 bng 15 250 50 0 empty empty empty 17 7 0 10 -262144
-1 -1;
#N canvas 0 0 450 300 (subpatch) 0;
#X array \$1-clopreset 240 float 2;
#X coords 0 1200 239 -1 200 140 1;
#X restore 524 132 graph;
#X floatatom 419 697 5 0 0 0 - - -;
#X floatatom 297 741 5 0 0 0 - - -;
#X obj 66 240 mod 12;
#X text 386 60 -> !!! per 12;
#X text 130 240 -> !!! per 12;
#X text 612 775 -> !!! hierin ook per 12;
#X msg 133 82 12;
#X text 174 83 -> !!! per 12;
#X text 579 54 max 12 parameters/waarden voor array/presets;
#X obj 302 204 symbol;
#X obj 403 183 symbol;
#X obj 345 245 pack s s;
#X obj 402 153 r namepreset;
#X obj 294 155 f \$1;
#X msg 319 272 \; \$1 write presets/\$2-\$1.txt;
#X obj 170 37 t b b b;
#X obj 716 628 symbol;
#X obj 756 655 pack s s;
#X obj 827 582 r namepreset;
#X obj 662 578 f \$1;
#X obj 819 618 symbol;
#X msg 750 686 \; \$1 read presets/\$2-\$1.txt;
#X obj 570 546 t b b b;
#X msg 528 575 12;
#X obj 375 403 inlet gui2;
#X obj 460 401 inlet gui3;
#X obj 553 403 inlet gui4;
#X obj 467 436 f;
#X obj 548 438 f;
#X obj 369 443 f;
#X obj 397 827 outlet gui2;
#X obj 486 827 outlet gui3;
#X obj 578 827 outlet gui4;
#X msg 293 182 \$1-clopreset;
#X obj 259 551 tabwrite \$1-clopreset;
#X msg 675 604 \$1-clopreset;
#X obj 450 737 tabread \$1-clopreset;
#X connect 0 0 6 1;
#X connect 1 0 7 1;
#X connect 2 0 4 1;
#X connect 3 0 5 1;
#X connect 4 0 65 0;
#X connect 5 0 65 0;
#X connect 6 0 65 0;
#X connect 7 0 65 0;
#X connect 8 0 10 0;
#X connect 9 0 10 1;
#X connect 9 0 28 0;
#X connect 10 0 9 0;
#X connect 11 0 6 0;
#X connect 11 1 7 0;
#X connect 11 2 4 0;
#X connect 11 3 5 0;
#X connect 11 4 60 0;
#X connect 11 5 58 0;
#X connect 11 6 59 0;
#X connect 12 0 53 0;
#X connect 13 0 46 0;
#X connect 18 0 20 0;
#X connect 19 0 20 1;
#X connect 19 0 27 0;
#X connect 19 0 31 0;
#X connect 20 0 19 0;
#X connect 21 0 14 0;
#X connect 21 1 15 0;
#X connect 21 2 16 0;
#X connect 21 3 17 0;
#X connect 21 4 61 0;
#X connect 21 5 62 0;
#X connect 21 6 63 0;
#X connect 22 0 10 1;
#X connect 23 0 24 0;
#X connect 24 0 25 0;
#X connect 25 0 22 1;
#X connect 25 0 26 1;
#X connect 26 0 20 1;
#X connect 27 0 21 0;
#X connect 27 1 67 0;
#X connect 28 0 33 0;
#X connect 28 1 65 1;
#X connect 29 0 53 0;
#X connect 33 0 11 0;
#X connect 37 0 8 0;
#X connect 40 0 42 0;
#X connect 41 0 42 1;
#X connect 42 0 45 0;
#X connect 43 0 41 0;
#X connect 44 0 64 0;
#X connect 46 0 44 0;
#X connect 46 1 37 0;
#X connect 46 2 22 0;
#X connect 47 0 48 0;
#X connect 48 0 52 0;
#X connect 49 0 51 0;
#X connect 50 0 66 0;
#X connect 51 0 48 1;
#X connect 53 0 54 0;
#X connect 53 1 26 0;
#X connect 53 2 50 0;
#X connect 54 0 18 0;
#X connect 55 0 60 1;
#X connect 56 0 58 1;
#X connect 57 0 59 1;
#X connect 58 0 65 0;
#X connect 59 0 65 0;
#X connect 60 0 65 0;
#X connect 64 0 40 0;
#X connect 66 0 47 0;
#X connect 67 0 21 1;
#X connect 67 0 32 0;
#X restore 526 66 pd save_preset_array;
#X obj 528 96 s \$1-clortempo;
#X obj 403 39 inlet start;
#X obj 403 65 > 0;
#X obj 403 93 s \$1-clorstart;
#X obj 71 406 bng 10 250 50 0 \$1-closextraoptions empty extra_options
17 7 0 8 -262144 -1 -1;
#N canvas 452 452 837 423 printallreceives 0;
#X obj 35 63 f \$1;
#X obj 33 6 bng 15 250 50 0 empty empty empty 17 7 0 10 -262144 -1
-1;
#X obj 70 173 t f f f f f f f f f;
#X obj 36 87 t f f;
#X obj 166 21 r \$1-cloprintreceives;
#X obj 92 136 print start;
#X obj 49 370 print end;
#X msg 91 109 names of receives in [clock \$1]...................>>
;
#X msg 631 240 \$1-clorclo;
#X msg 518 267 \$1-clorglide;
#X msg 48 344 <<.........................................[clock \$1]
;
#X msg 331 279 \$1-clorglt;
#X msg 184 276 \$1-clorfreq;
#X msg 45 278 \$1-clorlev;
#X obj 44 304 print level[0-1];
#X obj 179 304 print pitch[0-127];
#X obj 332 302 print glide_time[0-xxx];
#X obj 525 302 print glide[0-1];
#X obj 634 266 print wave_selector[0-5];
#X obj 10 21 r printreceives;
#X connect 0 0 3 0;
#X connect 1 0 0 0;
#X connect 2 0 10 0;
#X connect 2 4 13 0;
#X connect 2 5 12 0;
#X connect 2 6 11 0;
#X connect 2 7 9 0;
#X connect 2 8 8 0;
#X connect 3 0 2 0;
#X connect 3 1 7 0;
#X connect 4 0 0 0;
#X connect 7 0 5 0;
#X connect 8 0 18 0;
#X connect 9 0 17 0;
#X connect 10 0 6 0;
#X connect 11 0 16 0;
#X connect 12 0 15 0;
#X connect 13 0 14 0;
#X connect 19 0 0 0;
#X restore 32 375 pd printallreceives;
#N canvas 792 487 421 157 \$1-clockextra 0;
#X obj 8 72 bng 15 250 50 0 printreceives empty print_all_receives
17 7 0 10 -262144 -1 -1;
#X obj 7 13 bng 15 250 50 0 \$1-cloprintreceives empty print_names_of_receives
17 7 0 10 -262144 -1 -1;
#X text 66 91 (of all objects in open files);
#X text 65 32 (of this 'clock' object);
#X restore 48 345 pd \$1-clockextra;
#X obj 230 335 f \$1;
#X obj 230 386 symbol;
#X msg 230 411 \; \$1 vis 1;
#X obj 228 312 r \$1-closextraoptions;
#X msg 231 360 pd-\$1-clockextra;
#N canvas 335 33 859 875 foutmelding 0;
#X obj 87 38 loadbang;
#X obj 79 83 f \$1;
#X obj 73 111 select 0;
#X msg 75 197 \; \$1 vis 1;
#X msg 74 142 36;
#X text 151 150 ascii-code voor $;
#X text 197 199 als er geen argument is \, noemt de subpatch vreemd
genoeg niet pd 0-warning maar wel pd \$1-warning;
#X text 129 80 als er geen argument is geeft f \$1 een 0;
#X obj 154 336 del 100;
#X msg 319 355 1;
#X obj 238 405 spigot;
#X obj 342 453 spigot;
#X obj 409 425 == 0;
#X obj 338 423 r clock;
#X obj 240 489 s clock;
#X obj 208 305 t b b b;
#X obj 314 389 t f f;
#X obj 241 429 del 150;
#X obj 239 460 f \$1;
#X msg 169 357 0;
#X obj 378 506 == \$1;
#X obj 455 604 > 1;
#X obj 341 478 t f f;
#X obj 391 568 f 0;
#X obj 390 538 select 1;
#X obj 330 541 spigot;
#X obj 459 569 + 1;
#X obj 336 602 == \$1;
#X obj 396 628 &&;
#X obj 158 628 print pop;
#X text 487 604 groter dan 1 want vergelijking et zichzelf levert sowieso
al 1 op en dan met ev. zelfde object met identiek argument levert 2
op!;
#X obj 396 656 select 1;
#X obj 396 678 f \$1;
#X obj 398 768 symbol;
#X msg 396 795 \; \$1 vis 1;
#X obj 363 706 t f f;
#X obj 92 820 symbol;
#X obj 170 872 print;
#X obj 326 662 bng 15 250 50 0 empty empty empty 17 7 0 10 -262144
-1 -1;
#X msg 173 839 !!! these two abunch objects have the same argument
number: [clock \$1];
#X text 406 346 alleen net gecreerde object verstuurt waarde;
#X text 398 372 bij eerder gemaakte objecten staat spigot voor receive
open;
#N canvas 670 470 308 138 \$1-clockwarning 0;
#X obj -1 0 cnv 15 320 150 empty empty empty 20 12 0 14 -258699 -66577
0;
#X text 11 32 You forgot to add an unique number;
#X text 11 78 when you created this abunch object;
#X restore 349 165 pd \$1-clockwarning;
#N canvas 856 445 327 127 \$1-clocksameargument 0;
#X obj -1 0 cnv 15 330 150 empty empty empty 20 12 0 14 -258699 -66577
0;
#X msg 393 108;
#X text 314 243 is used already!!;
#X obj 344 35 inlet;
#X symbolatom 351 77 10 0 0 0 - - -;
#X obj 98 40 cnv 15 60 20 empty empty empty 20 12 0 14 -233017 -66577
0;
#X text 24 40 Create an unique number for this;
#X text 102 69 abunch object.;
#X connect 3 0 1 0;
#X connect 3 0 4 0;
#X restore 541 770 pd \$1-clocksameargument;
#X msg 397 738 pd-\$1-clocksameargument;
#X obj 74 171 makefilename pd-%c1-clockwarning;
#X connect 0 0 1 0;
#X connect 0 0 15 0;
#X connect 1 0 2 0;
#X connect 2 0 4 0;
#X connect 4 0 45 0;
#X connect 8 0 19 0;
#X connect 9 0 16 0;
#X connect 10 0 17 0;
#X connect 11 0 22 0;
#X connect 12 0 11 1;
#X connect 13 0 11 0;
#X connect 15 0 8 0;
#X connect 15 1 10 0;
#X connect 15 2 9 0;
#X connect 16 0 10 1;
#X connect 16 1 12 0;
#X connect 17 0 18 0;
#X connect 18 0 14 0;
#X connect 19 0 16 0;
#X connect 20 0 24 0;
#X connect 20 0 25 1;
#X connect 21 0 28 1;
#X connect 22 0 25 0;
#X connect 22 1 20 0;
#X connect 23 0 26 0;
#X connect 24 0 23 0;
#X connect 25 0 27 0;
#X connect 26 0 23 1;
#X connect 26 0 21 0;
#X connect 27 0 28 0;
#X connect 28 0 31 0;
#X connect 31 0 32 0;
#X connect 32 0 35 0;
#X connect 33 0 34 0;
#X connect 35 0 44 0;
#X connect 35 1 39 0;
#X connect 38 0 32 0;
#X connect 39 0 37 0;
#X connect 44 0 33 0;
#X connect 45 0 3 0;
#X restore 63 320 pd foutmelding;
#X obj 527 317 tgl 15 0 closou1 clorou1 * 17 7 0 10 -262144 -1 -1 0
1;
#X obj 549 505 s clorou1;
#X msg 497 453 label /;
#X msg 576 453 label *;
#X obj 522 372 t f f;
#X obj 524 345 r closou1;
#X obj 558 397 select 0 1;
#X obj 420 421 spigot;
#N canvas 744 585 566 199 needsound 0;
#X obj 22 34 r soundfileyesno;
#X msg 18 67 0;
#X obj 22 138 s answersoundfile;
#X text 63 65 0 = this abunch object doesn't need a sound file (store
in a preset file) \, 1 = it does;
#X connect 0 0 1 0;
#X connect 1 0 2 0;
#X restore 83 295 pd needsound;
#X obj -1 -1 cnv 15 400 150 empty empty empty 20 12 0 14 -142067 -66577
0;
#X obj 22 41 tgl 30 0 \$1-closstart \$1-clorstart start -5 -8 0 10
-262144 -1 -1 0 1;
#X obj 25 79 hsl 256 15 30 1053 0 1 \$1-clostempo \$1-clortempo tempo
260 8 0 10 -262144 -1 -1 5254 1;
#X obj 22 96 nbx 5 14 -1e+037 1e+037 0 0 empty empty bpm 57 7 0 10
-86277 -260097 -86277 240.778 256;
#X obj 101 96 nbx 6 14 -1e+037 1e+037 0 0 eet \$1-clorms ms 67 7 0
10 -86277 -260097 -86277 249.192 256;
#N canvas 540 309 293 166 printname 0;
#X obj 53 34 r printallnames;
#X obj 53 107 symbol;
#X obj 53 132 s rallnames;
#X msg 53 72 clock;
#X connect 0 0 3 0;
#X connect 1 0 2 0;
#X connect 3 0 1 0;
#X restore 83 424 pd printname;
#N canvas 10 184 588 284 presetsnew 0;
#X obj 210 58 r savepresetn;
#X obj 203 119 t b b b;
#N canvas 146 55 974 392 name-sends-normal 0;
#N canvas 0 0 450 300 (subpatch) 0;
#X array \$1-clobetween 8 float 2;
#X coords 0 10000 8 -10000 20 20 1;
#X restore 15 236 graph;
#X obj 392 282 tabwrite \$1-clobetween;
#X obj 438 235 unpack f f;
#X obj 98 156 pack f 1;
#X obj 135 178 pack f 2;
#X obj 186 200 pack f 3;
#X obj 236 155 pack f 4;
#X obj 273 177 pack f 5;
#X obj 324 199 pack f 6;
#X obj 368 156 pack f 7;
#X obj 405 178 pack f 8;
#X obj 449 199 pack f 9;
#X obj 508 156 pack f 10;
#X obj 545 178 pack f 11;
#X obj 596 199 pack f 12;
#X obj 665 156 pack f 13;
#X obj 702 178 pack f 14;
#X obj 754 201 pack f 15;
#X obj 798 156 pack f 16;
#X obj 835 179 pack f 17;
#X obj 884 203 pack f 18;
#X text 38 238 -> adjust size if necessary (standard size = 109);
#X obj 83 99 r \$1-clostempo;
#X connect 2 0 1 0;
#X connect 2 1 1 1;
#X connect 3 0 2 0;
#X connect 4 0 2 0;
#X connect 5 0 2 0;
#X connect 6 0 2 0;
#X connect 7 0 2 0;
#X connect 8 0 2 0;
#X connect 9 0 2 0;
#X connect 10 0 2 0;
#X connect 11 0 2 0;
#X connect 12 0 2 0;
#X connect 13 0 2 0;
#X connect 14 0 2 0;
#X connect 15 0 2 0;
#X connect 16 0 2 0;
#X connect 17 0 2 0;
#X connect 18 0 2 0;
#X connect 19 0 2 0;
#X connect 20 0 2 0;
#X connect 22 0 3 0;
#X restore 75 27 pd name-sends-normal;
#X obj 223 196 s toextfile;
#N canvas 636 185 560 404 normal 0;
#X obj 278 134 f \$1;
#X obj 237 278 symbol;
#X obj 42 268 list prepend add2;
#X obj 42 293 list trim;
#X obj 167 43 t b b b b b;
#X obj 154 135 f 0;
#X obj 193 135 + 1;
#X msg 181 103 0;
#X msg 240 196 clorx\$1;
#X obj 237 222 pack s f;
#X msg 237 249 \$2-\$1;
#X obj 131 102 until;
#X obj 193 161 t f f;
#X obj 21 193 tabread \$1-clobetween;
#X text 151 77 -> aanpassen! aantal op te slagen floats;
#X obj 180 16 inlet;
#X obj 229 345 outlet;
#X msg 235 311 add2 () norm 0 0 \$1;
#X obj 111 76 f 1;
#X connect 0 0 9 1;
#X connect 1 0 17 0;
#X connect 2 0 3 0;
#X connect 3 0 16 0;
#X connect 4 3 18 0;
#X connect 4 4 0 0;
#X connect 4 4 7 0;
#X connect 5 0 6 0;
#X connect 6 0 5 1;
#X connect 6 0 12 0;
#X connect 7 0 5 1;
#X connect 8 0 9 0;
#X connect 9 0 10 0;
#X connect 10 0 1 0;
#X connect 11 0 5 0;
#X connect 12 0 13 0;
#X connect 12 1 8 0;
#X connect 13 0 2 0;
#X connect 15 0 4 0;
#X connect 17 0 16 0;
#X connect 18 0 11 0;
#X restore 217 153 pd normal;
#X text 179 152 !!->;
#X text 212 245 !!->;
#N canvas 49 0 1083 332 receive-normal 0;
#X obj 24 26 r \$1-clorx1;
#X obj 54 46 r \$1-clorx2;
#X obj 85 66 r \$1-clorx3;
#X obj 196 19 r \$1-clorx4;
#X obj 226 39 r \$1-clorx5;
#X obj 257 59 r \$1-clorx6;
#X obj 364 16 r \$1-clorx7;
#X obj 382 37 r \$1-clorx8;
#X obj 416 58 r \$1-clorx9;
#X obj 523 33 r \$1-clorx10;
#X obj 553 53 r \$1-clorx11;
#X obj 584 73 r \$1-clorx12;
#X obj 703 33 r \$1-clorx13;
#X obj 733 53 r \$1-clorx14;
#X obj 764 73 r \$1-clorx15;
#X obj 863 33 r \$1-clorx16;
#X obj 893 53 r \$1-clorx17;
#X obj 924 73 r \$1-clorx18;
#X text 667 236 ^ hier aanvullen ^;
#N canvas 30 18 246 218 cmp 0;
#X obj 42 65 list split 1;
#X obj 88 119 ==;
#X obj 43 151 spigot;
#X obj 43 176 outlet;
#X obj 42 28 inlet;
#X obj 110 30 r \$1-cloarg2;
#X connect 0 0 2 0;
#X connect 0 1 1 0;
#X connect 1 0 2 1;
#X connect 2 0 3 0;
#X connect 4 0 0 0;
#X connect 5 0 1 1;
#X restore 22 100 pd cmp;
#N canvas 355 32 246 300 cmp 0;
#X obj 42 65 list split 1;
#X obj 88 119 ==;
#X obj 43 151 spigot;
#X obj 43 176 outlet;
#X obj 42 28 inlet;
#X obj 110 30 r \$1-cloarg2;
#X connect 0 0 2 0;
#X connect 0 1 1 0;
#X connect 1 0 2 1;
#X connect 2 0 3 0;
#X connect 4 0 0 0;
#X connect 5 0 1 1;
#X restore 42 125 pd cmp;
#N canvas 0 0 246 300 cmp 0;
#X obj 42 65 list split 1;
#X obj 88 119 ==;
#X obj 43 151 spigot;
#X obj 43 176 outlet;
#X obj 42 28 inlet;
#X obj 110 30 r \$1-cloarg2;
#X connect 0 0 2 0;
#X connect 0 1 1 0;
#X connect 1 0 2 1;
#X connect 2 0 3 0;
#X connect 4 0 0 0;
#X connect 5 0 1 1;
#X restore 59 153 pd cmp;
#N canvas 0 0 246 300 cmp 0;
#X obj 42 65 list split 1;
#X obj 88 119 ==;
#X obj 43 151 spigot;
#X obj 43 176 outlet;
#X obj 42 28 inlet;
#X obj 110 30 r \$1-cloarg2;
#X connect 0 0 2 0;
#X connect 0 1 1 0;
#X connect 1 0 2 1;
#X connect 2 0 3 0;
#X connect 4 0 0 0;
#X connect 5 0 1 1;
#X restore 172 100 pd cmp;
#N canvas 0 0 246 300 cmp 0;
#X obj 42 65 list split 1;
#X obj 88 119 ==;
#X obj 43 151 spigot;
#X obj 43 176 outlet;
#X obj 42 28 inlet;
#X obj 110 30 r \$1-cloarg2;
#X connect 0 0 2 0;
#X connect 0 1 1 0;
#X connect 1 0 2 1;
#X connect 2 0 3 0;
#X connect 4 0 0 0;
#X connect 5 0 1 1;
#X restore 192 125 pd cmp;
#N canvas 308 15 246 215 cmp 0;
#X obj 42 65 list split 1;
#X obj 88 119 ==;
#X obj 43 151 spigot;
#X obj 43 176 outlet;
#X obj 42 28 inlet;
#X obj 110 30 r \$1-cloarg2;
#X connect 0 0 2 0;
#X connect 0 1 1 0;
#X connect 1 0 2 1;
#X connect 2 0 3 0;
#X connect 4 0 0 0;
#X connect 5 0 1 1;
#X restore 209 153 pd cmp;
#N canvas 0 0 246 300 cmp 0;
#X obj 42 65 list split 1;
#X obj 88 119 ==;
#X obj 43 151 spigot;
#X obj 43 176 outlet;
#X obj 42 28 inlet;
#X obj 110 30 r \$1-cloarg2;
#X connect 0 0 2 0;
#X connect 0 1 1 0;
#X connect 1 0 2 1;
#X connect 2 0 3 0;
#X connect 4 0 0 0;
#X connect 5 0 1 1;
#X restore 362 100 pd cmp;
#N canvas 0 0 246 300 cmp 0;
#X obj 42 65 list split 1;
#X obj 88 119 ==;
#X obj 43 151 spigot;
#X obj 43 176 outlet;
#X obj 42 28 inlet;
#X obj 110 30 r \$1-cloarg2;
#X connect 0 0 2 0;
#X connect 0 1 1 0;
#X connect 1 0 2 1;
#X connect 2 0 3 0;
#X connect 4 0 0 0;
#X connect 5 0 1 1;
#X restore 382 125 pd cmp;
#N canvas 0 0 246 300 cmp 0;
#X obj 42 65 list split 1;
#X obj 88 119 ==;
#X obj 43 151 spigot;
#X obj 43 176 outlet;
#X obj 42 28 inlet;
#X obj 110 30 r \$1-cloarg2;
#X connect 0 0 2 0;
#X connect 0 1 1 0;
#X connect 1 0 2 1;
#X connect 2 0 3 0;
#X connect 4 0 0 0;
#X connect 5 0 1 1;
#X restore 399 153 pd cmp;
#N canvas 0 0 246 300 cmp 0;
#X obj 42 65 list split 1;
#X obj 88 119 ==;
#X obj 43 151 spigot;
#X obj 43 176 outlet;
#X obj 42 28 inlet;
#X obj 110 30 r \$1-cloarg2;
#X connect 0 0 2 0;
#X connect 0 1 1 0;
#X connect 1 0 2 1;
#X connect 2 0 3 0;
#X connect 4 0 0 0;
#X connect 5 0 1 1;
#X restore 542 110 pd cmp;
#N canvas 0 0 246 300 cmp 0;
#X obj 42 65 list split 1;
#X obj 88 119 ==;
#X obj 43 151 spigot;
#X obj 43 176 outlet;
#X obj 42 28 inlet;
#X obj 110 30 r \$1-cloarg2;
#X connect 0 0 2 0;
#X connect 0 1 1 0;
#X connect 1 0 2 1;
#X connect 2 0 3 0;
#X connect 4 0 0 0;
#X connect 5 0 1 1;
#X restore 562 135 pd cmp;
#N canvas 0 0 246 300 cmp 0;
#X obj 42 65 list split 1;
#X obj 88 119 ==;
#X obj 43 151 spigot;
#X obj 43 176 outlet;
#X obj 42 28 inlet;
#X obj 110 30 r \$1-cloarg2;
#X connect 0 0 2 0;
#X connect 0 1 1 0;
#X connect 1 0 2 1;
#X connect 2 0 3 0;
#X connect 4 0 0 0;
#X connect 5 0 1 1;
#X restore 579 163 pd cmp;
#N canvas 0 0 246 300 cmp 0;
#X obj 42 65 list split 1;
#X obj 88 119 ==;
#X obj 43 151 spigot;
#X obj 43 176 outlet;
#X obj 42 28 inlet;
#X obj 110 30 r \$1-cloarg2;
#X connect 0 0 2 0;
#X connect 0 1 1 0;
#X connect 1 0 2 1;
#X connect 2 0 3 0;
#X connect 4 0 0 0;
#X connect 5 0 1 1;
#X restore 692 110 pd cmp;
#N canvas 0 0 246 300 cmp 0;
#X obj 42 65 list split 1;
#X obj 88 119 ==;
#X obj 43 151 spigot;
#X obj 43 176 outlet;
#X obj 42 28 inlet;
#X obj 110 30 r \$1-cloarg2;
#X connect 0 0 2 0;
#X connect 0 1 1 0;
#X connect 1 0 2 1;
#X connect 2 0 3 0;
#X connect 4 0 0 0;
#X connect 5 0 1 1;
#X restore 712 135 pd cmp;
#N canvas 0 0 246 300 cmp 0;
#X obj 42 65 list split 1;
#X obj 88 119 ==;
#X obj 43 151 spigot;
#X obj 43 176 outlet;
#X obj 42 28 inlet;
#X obj 110 30 r \$1-cloarg2;
#X connect 0 0 2 0;
#X connect 0 1 1 0;
#X connect 1 0 2 1;
#X connect 2 0 3 0;
#X connect 4 0 0 0;
#X connect 5 0 1 1;
#X restore 729 163 pd cmp;
#N canvas 0 0 246 300 cmp 0;
#X obj 42 65 list split 1;
#X obj 88 119 ==;
#X obj 43 151 spigot;
#X obj 43 176 outlet;
#X obj 42 28 inlet;
#X obj 110 30 r \$1-cloarg2;
#X connect 0 0 2 0;
#X connect 0 1 1 0;
#X connect 1 0 2 1;
#X connect 2 0 3 0;
#X connect 4 0 0 0;
#X connect 5 0 1 1;
#X restore 882 100 pd cmp;
#N canvas 0 0 246 300 cmp 0;
#X obj 42 65 list split 1;
#X obj 88 119 ==;
#X obj 43 151 spigot;
#X obj 43 176 outlet;
#X obj 42 28 inlet;
#X obj 110 30 r \$1-cloarg2;
#X connect 0 0 2 0;
#X connect 0 1 1 0;
#X connect 1 0 2 1;
#X connect 2 0 3 0;
#X connect 4 0 0 0;
#X connect 5 0 1 1;
#X restore 902 125 pd cmp;
#N canvas 0 0 246 300 cmp 0;
#X obj 42 65 list split 1;
#X obj 88 119 ==;
#X obj 43 151 spigot;
#X obj 43 176 outlet;
#X obj 42 28 inlet;
#X obj 110 30 r \$1-cloarg2;
#X connect 0 0 2 0;
#X connect 0 1 1 0;
#X connect 1 0 2 1;
#X connect 2 0 3 0;
#X connect 4 0 0 0;
#X connect 5 0 1 1;
#X restore 919 153 pd cmp;
#X obj 22 198 s \$1-clortempo;
#X connect 0 0 19 0;
#X connect 1 0 20 0;
#X connect 2 0 21 0;
#X connect 3 0 22 0;
#X connect 4 0 23 0;
#X connect 5 0 24 0;
#X connect 6 0 25 0;
#X connect 7 0 26 0;
#X connect 8 0 27 0;
#X connect 9 0 28 0;
#X connect 10 0 29 0;
#X connect 11 0 30 0;
#X connect 12 0 31 0;
#X connect 13 0 32 0;
#X connect 14 0 33 0;
#X connect 15 0 34 0;
#X connect 16 0 35 0;
#X connect 17 0 36 0;
#X connect 19 0 37 0;
#X restore 251 246 pd receive-normal;
#X text 32 27 !!->;
#N canvas 0 0 246 300 cmp 0;
#X obj 42 65 list split 1;
#X obj 88 119 ==;
#X obj 43 151 spigot;
#X obj 43 176 outlet;
#X obj 42 28 inlet;
#X obj 157 64 inlet;
#X connect 0 0 2 0;
#X connect 0 1 1 0;
#X connect 1 0 2 1;
#X connect 2 0 3 0;
#X connect 4 0 0 0;
#X connect 5 0 1 1;
#X restore 209 94 pd cmp;
#X obj 458 12 loadbang;
#X obj 458 37 f \$2;
#X obj 458 85 s \$1-cloarg2;
#X connect 0 0 9 0;
#X connect 1 1 4 0;
#X connect 4 0 3 0;
#X connect 9 0 1 0;
#X connect 10 0 11 0;
#X connect 11 0 9 1;
#X connect 11 0 12 0;
#X restore 77 448 pd presetsnew;
#X connect 6 0 0 0;
#X connect 6 1 1 0;
#X connect 6 2 2 0;
#X connect 6 3 3 0;
#X connect 6 4 4 0;
#X connect 6 5 5 0;
#X connect 7 0 8 0;
#X connect 8 0 9 0;
#X connect 10 0 11 0;
#X connect 11 0 12 0;
#X connect 16 0 20 0;
#X connect 17 0 18 0;
#X connect 19 0 16 0;
#X connect 20 0 17 0;
#X connect 24 0 23 0;
#X connect 25 0 23 0;
#X connect 26 0 29 1;
#X connect 26 1 28 0;
#X connect 27 0 26 0;
#X connect 28 0 24 0;
#X connect 28 1 25 0;
#X connect 33 0 34 0;
