#N canvas 99 166 245 207 12;
#N canvas 595 92 466 478 crackle 0;
#X obj 116 152 / 44.1;
#X obj 108 399 vline~;
#X obj 108 426 outlet~;
#X obj 174 94 samplerate~;
#X obj 137 68 t f b;
#X obj 51 244 f;
#X text 131 9 aantal samples;
#X obj 42 193 spigot;
#X obj 159 194 spigot;
#X obj 225 125 == 0;
#X obj 95 280 t b f b;
#X msg 143 326 1;
#X msg 88 340 0;
#X obj 90 312 del;
#X floatatom 259 185 5 0 0 0 - - -;
#X obj 158 123 * 0.001;
#X obj 42 126 r \$1-crasgo;
#X obj 137 30 r \$1-craslen;
#X obj 306 85 r \$1-crastrig;
#X connect 0 0 5 1;
#X connect 0 0 8 0;
#X connect 1 0 2 0;
#X connect 3 0 15 0;
#X connect 4 0 0 0;
#X connect 4 1 3 0;
#X connect 5 0 10 0;
#X connect 7 0 5 0;
#X connect 8 0 10 0;
#X connect 9 0 7 1;
#X connect 10 0 13 0;
#X connect 10 1 13 1;
#X connect 10 2 11 0;
#X connect 11 0 1 0;
#X connect 12 0 1 0;
#X connect 13 0 12 0;
#X connect 15 0 0 1;
#X connect 15 0 14 0;
#X connect 16 0 7 0;
#X connect 17 0 4 0;
#X connect 18 0 8 1;
#X connect 18 0 9 0;
#X restore 24 282 pd crackle;
#X obj 46 437 outlet~;
#X obj 335 127 s \$1-crargo;
#X obj 426 59 s \$1-crarlen;
#X obj 427 28 inlet length;
#X obj 335 19 inlet go;
#X obj 118 370 line~;
#X obj 118 283 r \$1-craslev;
#X obj 538 73 s \$1-crarlev;
#X obj 46 394 *~;
#X msg 118 341 \$1 50;
#X obj 118 312 dbtorms;
#X obj 538 23 inlet level;
#X obj 335 60 > 0;
#X obj 335 90 select 1;
#X obj 537 47 * 0.787;
#N canvas 441 217 838 362 printallreceives 0;
#X obj 35 63 f \$1;
#X obj 33 6 bng 15 250 50 0 empty empty empty 17 7 0 10 -262144 -1
-1;
#X obj 20 159 t f f f f f f f f f;
#X obj 36 87 t f f;
#X obj 10 21 r \$1-printreceives;
#X obj 166 21 r \$1-craprintreceives;
#X obj 92 136 print start;
#X obj 60 340 print end;
#X msg 59 314 <<.............................[crackle \$1];
#X msg 91 109 names of receives in [crackle \$1]............>>;
#X msg 289 217 \$1-crargo;
#X msg 583 211 \$1-crarlen;
#X msg 408 209 \$1-crartrig;
#X msg 132 215 \$1-crarlev;
#X obj 131 241 print level[0-100];
#X obj 288 243 print go[>0];
#X obj 582 237 print length[0-127];
#X obj 407 235 print length/go[0-1];
#X connect 0 0 3 0;
#X connect 1 0 0 0;
#X connect 2 0 8 0;
#X connect 2 5 13 0;
#X connect 2 6 10 0;
#X connect 2 7 12 0;
#X connect 2 8 11 0;
#X connect 3 0 2 0;
#X connect 3 1 9 0;
#X connect 4 0 0 0;
#X connect 5 0 0 0;
#X connect 8 0 7 0;
#X connect 9 0 6 0;
#X connect 10 0 15 0;
#X connect 11 0 16 0;
#X connect 12 0 17 0;
#X connect 13 0 14 0;
#X restore 361 243 pd printallreceives;
#X obj 529 235 f \$1;
#X obj 529 286 symbol;
#X msg 529 311 \; \$1 vis 1;
#X obj 527 212 r \$1-crasextraoptions;
#N canvas 587 329 397 137 \$1-crackleextra 0;
#X obj 8 72 bng 15 250 50 0 \$1-printreceives empty print_all_receives
17 7 0 10 -262144 -1 -1;
#X obj 7 13 bng 15 250 50 0 \$1-craprintreceives empty print_names_of_receives
17 7 0 10 -262144 -1 -1;
#X text 66 91 (of all objects in open files);
#X text 65 32 (of this 'crackle' object);
#X restore 368 205 pd \$1-crackleextra;
#X msg 530 260 pd-\$1-crackleextra;
#N canvas 335 33 859 875 foutmelding 0;
#X obj 87 38 loadbang;
#X obj 79 83 f \$1;
#X obj 73 111 select 0;
#X msg 75 197 \; \$1 vis 1;
#X msg 74 142 36;
#X text 151 150 ascii-code voor $;
#X text 197 199 als er geen argument is \, noemt de subpatch vreemd
genoeg niet pd 0-warning maar wel pd \$1-warning;
#X text 129 80 als er geen argument is geeft f \$1 een 0;
#X obj 154 336 del 100;
#X msg 319 355 1;
#X obj 238 405 spigot;
#X obj 342 453 spigot;
#X obj 409 425 == 0;
#X obj 338 423 r crackle;
#X obj 240 489 s crackle;
#X obj 208 305 t b b b;
#X obj 314 389 t f f;
#X obj 241 429 del 150;
#X obj 239 460 f \$1;
#X msg 169 357 0;
#X obj 378 506 == \$1;
#X obj 455 604 > 1;
#X obj 341 478 t f f;
#X obj 391 568 f 0;
#X obj 390 538 select 1;
#X obj 330 541 spigot;
#X obj 459 569 + 1;
#X obj 336 602 == \$1;
#X obj 396 628 &&;
#X obj 158 628 print pop;
#X text 487 604 groter dan 1 want vergelijking et zichzelf levert sowieso
al 1 op en dan met ev. zelfde object met identiek argument levert 2
op!;
#X obj 396 656 select 1;
#X obj 396 678 f \$1;
#X obj 398 768 symbol;
#X msg 396 795 \; \$1 vis 1;
#X obj 363 706 t f f;
#X obj 92 820 symbol;
#X obj 170 872 print;
#X obj 326 662 bng 15 250 50 0 empty empty empty 17 7 0 10 -262144
-1 -1;
#X msg 173 839 !!! these two abunch objects have the same argument
number: [crackle \$1];
#X text 406 346 alleen net gecreerde object verstuurt waarde;
#X text 398 372 bij eerder gemaakte objecten staat spigot voor receive
open;
#N canvas 670 470 308 138 \$1-cracklewarning 0;
#X obj -1 0 cnv 15 320 150 empty empty empty 20 12 0 14 -258699 -66577
0;
#X text 11 32 You forgot to add an unique number;
#X text 11 78 when you created this abunch object;
#X restore 349 165 pd \$1-cracklewarning;
#N canvas 856 445 343 143 \$1-cracklesameargument 0;
#X obj -1 0 cnv 15 330 150 empty empty empty 20 12 0 14 -258699 -66577
0;
#X msg 393 108;
#X text 314 243 is used already!!;
#X obj 344 35 inlet;
#X symbolatom 351 77 10 0 0 0 - - -;
#X obj 98 40 cnv 15 60 20 empty empty empty 20 12 0 14 -233017 -66577
0;
#X text 24 40 Create an unique number for this;
#X text 102 69 abunch object.;
#X connect 3 0 1 0;
#X connect 3 0 4 0;
#X restore 541 770 pd \$1-cracklesameargument;
#X msg 397 738 pd-\$1-cracklesameargument;
#X obj 74 171 makefilename pd-%c1-cracklewarning;
#X connect 0 0 1 0;
#X connect 0 0 15 0;
#X connect 1 0 2 0;
#X connect 2 0 4 0;
#X connect 4 0 45 0;
#X connect 8 0 19 0;
#X connect 9 0 16 0;
#X connect 10 0 17 0;
#X connect 11 0 22 0;
#X connect 12 0 11 1;
#X connect 13 0 11 0;
#X connect 15 0 8 0;
#X connect 15 1 10 0;
#X connect 15 2 9 0;
#X connect 16 0 10 1;
#X connect 16 1 12 0;
#X connect 17 0 18 0;
#X connect 18 0 14 0;
#X connect 19 0 16 0;
#X connect 20 0 24 0;
#X connect 20 0 25 1;
#X connect 21 0 28 1;
#X connect 22 0 25 0;
#X connect 22 1 20 0;
#X connect 23 0 26 0;
#X connect 24 0 23 0;
#X connect 25 0 27 0;
#X connect 26 0 23 1;
#X connect 26 0 21 0;
#X connect 27 0 28 0;
#X connect 28 0 31 0;
#X connect 31 0 32 0;
#X connect 32 0 35 0;
#X connect 33 0 34 0;
#X connect 35 0 44 0;
#X connect 35 1 39 0;
#X connect 38 0 32 0;
#X connect 39 0 37 0;
#X connect 44 0 33 0;
#X connect 45 0 3 0;
#X restore 363 276 pd foutmelding;
#N canvas 744 585 566 199 needsound 0;
#X obj 22 34 r soundfileyesno;
#X msg 18 67 0;
#X obj 22 138 s answersoundfile;
#X text 63 65 0 = this abunch object doesn't need a sound file (store
in a preset file) \, 1 = it does;
#X connect 0 0 1 0;
#X connect 1 0 2 0;
#X restore 361 302 pd needsound;
#X obj -3 -4 cnv 15 320 210 empty empty empty 50 12 0 10 -258699 -143491
0;
#X obj 28 23 vsl 15 128 0 127 0 0 \$1-craslen \$1-crarlen length -7
-10 0 10 -262144 -1 -1 0 1;
#X obj 88 53 bng 15 250 50 0 \$1-crasgo \$1-crargo go 17 7 0 10 -262144
-1 -1;
#X text 61 85 trigger:;
#X obj 65 107 tgl 15 1 \$1-crastrig \$1-crartrig length/go 17 7 0 10
-262144 -1 -1 0 1;
#X obj 29 154 nbx 5 14 -1e+037 1e+037 0 0 empty empty empty 0 -8 0
10 -86277 -260097 -1 0 256;
#X obj 152 23 vsl 15 128 0 100 0 0 \$1-craslev \$1-crarlev level -7
-10 0 10 -262144 -1 -1 0 1;
#X obj 152 155 nbx 5 14 -1e+037 1e+037 0 0 empty empty empty 0 -8 0
10 -86277 -260097 -1 0 256;
#X obj 51 177 bng 10 250 50 0 \$1-crasextraoptions empty extra_options
17 7 0 8 -262144 -1 -1;
#N canvas 37 291 450 166 printname 0;
#X obj 54 33 r printallnames;
#X obj 54 87 symbol;
#X obj 54 112 s rallnames;
#X msg 54 62 crackle;
#X connect 0 0 3 0;
#X connect 1 0 2 0;
#X connect 3 0 1 0;
#X restore 361 333 pd printname;
#N canvas 758 153 450 300 presets 0;
#X obj 48 83 r \$1-craslen;
#X obj 150 62 r \$1-crastrig;
#X obj 140 195 s \$1-crartrig;
#X obj 113 219 s \$1-crarlen;
#N canvas 54 40 980 816 save_preset_array 0;
#X obj 19 403 inlet gui1;
#X obj 112 405 inlet gui2;
#X obj 197 403 inlet gui3;
#X obj 290 405 inlet gui4;
#X obj 376 406 inlet gui15;
#X obj 469 408 inlet gui6;
#X obj 380 439 f;
#X obj 461 441 f;
#X obj 204 438 f;
#X obj 285 440 f;
#X obj 25 443 f;
#X obj 106 445 f;
#X obj 83 109 until;
#X obj 62 173 + 1;
#X floatatom 101 291 5 0 0 0 - - -;
#X obj 89 142 f 0;
#X obj 79 42 bng 15 250 50 0 empty empty empty 17 7 0 10 -262144 -1
-1;
#X obj 60 332 select 1 2 3 4 5 6 7 8 9 10;
#X obj 571 505 r openpreset;
#X obj 163 32 r savepreset;
#X obj 21 825 outlet gui1;
#X obj 112 827 outlet gui2;
#X obj 201 827 outlet gui3;
#X obj 293 827 outlet gui4;
#X obj 475 827 outlet gui6;
#X obj 384 827 outlet gui5;
#X obj 495 598 until;
#X obj 472 657 + 1;
#X obj 499 626 f 0;
#N canvas 52 160 1048 298 router_1inxout 0;
#X obj 231 27 inlet one;
#X obj 339 23 inlet route123;
#X obj 35 211 outlet one;
#X obj 124 210 outlet two;
#X obj 218 211 outlet three;
#X obj 323 211 outlet four;
#X obj 415 210 outlet five;
#X obj 510 211 outlet six;
#X obj 599 210 outlet seven;
#X obj 700 213 outlet eigth;
#X obj 805 212 outlet nine;
#X obj 897 211 outlet ten;
#X obj 360 124 route 1 2 3 4 5 6 7 8 9 10;
#X obj 361 83 pack;
#X obj 296 57 mod 12;
#X connect 0 0 14 0;
#X connect 1 0 13 1;
#X connect 12 0 2 0;
#X connect 12 1 3 0;
#X connect 12 2 4 0;
#X connect 12 3 5 0;
#X connect 12 4 6 0;
#X connect 12 5 7 0;
#X connect 12 6 8 0;
#X connect 12 7 9 0;
#X connect 12 8 10 0;
#X connect 12 9 11 0;
#X connect 13 0 12 0;
#X connect 14 0 13 0;
#X restore 459 776 pd router_1inxout;
#X obj 211 106 f 0;
#X obj 335 24 r presetnr;
#X obj 336 49 * 12;
#X obj 334 72 - 12;
#X obj 587 587 f 0;
#X obj 495 685 t f f;
#X obj 85 201 t f f;
#X obj 736 509 bng 15 250 50 0 empty empty empty 17 7 0 10 -262144
-1 -1;
#N canvas 0 0 450 300 (subpatch) 0;
#X array \$1-crapreset 240 float 3;
#A 0 0 28 0 0 0 0 0 0 0 0 0 0 0 64 64.5079 0 0 0 0 93.6508 4 0 0 0
0 127 0 0 0 0 0 15.873 3 0 0 0 0 57 64.5079 0 0 0 0 0.283465 0.275591
32.7118 0.84252 0 0 0 0.795276 1 0 0.181102 0.299213 0.00787402 0 0.492913
0.0629921 0 0 0 0 0 0 0 0 0 0 0 0 0 0 0 0 0 0 0 0 0 0 0 0 0 0 0 0 0
0 0 0 0 0 0 0 0 0 0 0 0 0 0 0 0 0 0 0 0 0 0 0 0 0 0 0 0 0 0 0 0 0 0
0 0 0 0 0 0 0 0 0 0 0 0 0 0 0 0 0 0 0 0 0 0 0 0 0 0 0 0 0 0 0 0 0 0
0 0 0 0 0 0 0 0 0 0 0 0 0 0 0 0 0 0 0 0 0 0 0 0 0 0 0 0 0 0 0 0 0 0
0 0 0 0 0 0 0 0 0 0 0 0 0 0 0 0 0 0 0 0 0 0 0 0 0 0 0 0 0 0 0 0 0 0
0 0 0 0 0 0 0 0 0 0 0 0 0 0 0 0;
#X coords 0 200 239 -1 200 140 1;
#X restore 524 132 graph;
#X floatatom 395 706 5 0 0 0 - - -;
#X floatatom 361 753 5 0 0 0 - - -;
#X obj 66 240 mod 12;
#X text 386 60 -> !!! per 12;
#X text 130 240 -> !!! per 12;
#X text 612 775 -> !!! hierin ook per 12;
#X msg 138 83 12;
#X text 174 83 -> !!! per 12;
#X text 579 54 max 12 parameters/waarden voor array/presets;
#X obj 256 204 symbol;
#X obj 367 183 symbol;
#X obj 299 245 pack s s;
#X obj 356 153 r namepreset;
#X obj 248 155 f \$1;
#X msg 273 272 \; \$1 write presets/\$2-\$1.txt;
#X obj 168 57 t b b b;
#X obj 716 628 symbol;
#X obj 756 655 pack s s;
#X obj 827 582 r namepreset;
#X obj 662 578 f \$1;
#X obj 819 618 symbol;
#X msg 750 686 \; \$1 read presets/\$2-\$1.txt;
#X obj 570 546 t b b b;
#X msg 528 575 12;
#X msg 247 182 \$1-crapreset;
#X obj 259 551 tabwrite \$1-crapreset;
#X msg 675 604 \$1-crapreset;
#X obj 449 736 tabread \$1-crapreset;
#X connect 0 0 10 1;
#X connect 1 0 11 1;
#X connect 2 0 8 1;
#X connect 3 0 9 1;
#X connect 4 0 6 1;
#X connect 5 0 7 1;
#X connect 6 0 64 0;
#X connect 7 0 64 0;
#X connect 8 0 64 0;
#X connect 9 0 64 0;
#X connect 10 0 64 0;
#X connect 11 0 64 0;
#X connect 12 0 15 0;
#X connect 13 0 15 1;
#X connect 13 0 36 0;
#X connect 15 0 13 0;
#X connect 16 0 12 0;
#X connect 17 0 10 0;
#X connect 17 1 11 0;
#X connect 17 2 8 0;
#X connect 17 3 9 0;
#X connect 17 4 6 0;
#X connect 17 5 7 0;
#X connect 18 0 61 0;
#X connect 19 0 54 0;
#X connect 26 0 28 0;
#X connect 27 0 28 1;
#X connect 27 0 35 0;
#X connect 28 0 27 0;
#X connect 29 0 20 0;
#X connect 29 1 21 0;
#X connect 29 2 22 0;
#X connect 29 3 23 0;
#X connect 29 4 25 0;
#X connect 29 5 24 0;
#X connect 30 0 15 1;
#X connect 31 0 32 0;
#X connect 32 0 33 0;
#X connect 33 0 30 1;
#X connect 33 0 34 1;
#X connect 34 0 28 1;
#X connect 35 0 29 0;
#X connect 35 1 66 0;
#X connect 36 0 41 0;
#X connect 36 1 14 0;
#X connect 36 1 64 1;
#X connect 37 0 61 0;
#X connect 41 0 17 0;
#X connect 45 0 12 0;
#X connect 48 0 50 0;
#X connect 49 0 50 1;
#X connect 50 0 53 0;
#X connect 51 0 49 0;
#X connect 52 0 63 0;
#X connect 54 0 52 0;
#X connect 54 1 45 0;
#X connect 54 2 30 0;
#X connect 55 0 56 0;
#X connect 56 0 60 0;
#X connect 57 0 59 0;
#X connect 58 0 65 0;
#X connect 59 0 56 1;
#X connect 61 0 62 0;
#X connect 61 1 34 0;
#X connect 61 2 58 0;
#X connect 62 0 26 0;
#X connect 63 0 48 0;
#X connect 65 0 55 0;
#X connect 66 0 29 1;
#X restore 71 130 pd save_preset_array;
#X obj 181 86 r \$1-craslev;
#X obj 175 169 s \$1-crarlev;
#X connect 0 0 4 0;
#X connect 1 0 4 1;
#X connect 4 0 3 0;
#X connect 4 1 2 0;
#X connect 4 2 6 0;
#X connect 5 0 4 2;
#X restore 364 359 pd presets;
#N canvas 473 232 588 284 presetsnew 0;
#X obj 210 58 r savepresetn;
#X obj 203 119 t b b b;
#N canvas 122 0 1041 709 name-sends-normal 0;
#N canvas 0 0 450 300 (subpatch) 0;
#X array \$1-crabetween 8 float 2;
#X coords 0 10000 8 -10000 20 20 1;
#X restore 15 236 graph;
#X obj 387 1166 tabwrite \$1-crabetween;
#X obj 438 235 unpack f f;
#X obj 98 156 pack f 1;
#X obj 135 178 pack f 2;
#X obj 186 200 pack f 3;
#X obj 236 155 pack f 4;
#X obj 273 177 pack f 5;
#X obj 324 199 pack f 6;
#X obj 368 156 pack f 7;
#X obj 405 178 pack f 8;
#X obj 449 199 pack f 9;
#X obj 508 156 pack f 10;
#X obj 545 178 pack f 11;
#X obj 596 199 pack f 12;
#X obj 665 156 pack f 13;
#X obj 702 178 pack f 14;
#X obj 754 201 pack f 15;
#X obj 798 156 pack f 16;
#X obj 835 179 pack f 17;
#X obj 884 203 pack f 18;
#X obj 438 505 unpack f f;
#X obj 98 426 pack f 19;
#X obj 135 448 pack f 20;
#X obj 186 470 pack f 21;
#X obj 236 425 pack f 22;
#X obj 273 447 pack f 23;
#X obj 324 469 pack f 24;
#X obj 368 426 pack f 25;
#X obj 405 448 pack f 26;
#X obj 449 469 pack f 27;
#X obj 508 426 pack f 28;
#X obj 545 448 pack f 29;
#X obj 596 469 pack f 30;
#X obj 665 426 pack f 31;
#X obj 702 448 pack f 32;
#X obj 754 471 pack f 33;
#X obj 798 426 pack f 34;
#X obj 835 449 pack f 35;
#X obj 886 470 pack f 36;
#X obj 438 635 unpack f f;
#X obj 98 556 pack f 37;
#X obj 135 578 pack f 38;
#X obj 186 600 pack f 39;
#X obj 236 555 pack f 40;
#X obj 273 577 pack f 41;
#X obj 324 599 pack f 42;
#X obj 368 556 pack f 43;
#X obj 405 578 pack f 44;
#X obj 449 599 pack f 45;
#X obj 508 556 pack f 46;
#X obj 545 578 pack f 47;
#X obj 596 599 pack f 48;
#X obj 665 556 pack f 49;
#X obj 702 578 pack f 50;
#X obj 754 601 pack f 51;
#X obj 798 556 pack f 52;
#X obj 835 579 pack f 53;
#X obj 886 600 pack f 54;
#X obj 438 755 unpack f f;
#X obj 98 676 pack f 55;
#X obj 135 698 pack f 56;
#X obj 186 720 pack f 57;
#X obj 236 675 pack f 58;
#X obj 273 697 pack f 59;
#X obj 324 719 pack f 60;
#X obj 368 676 pack f 61;
#X obj 405 698 pack f 62;
#X obj 449 719 pack f 63;
#X obj 508 676 pack f 64;
#X obj 545 698 pack f 65;
#X obj 596 719 pack f 66;
#X obj 665 676 pack f 67;
#X obj 702 698 pack f 68;
#X obj 754 721 pack f 69;
#X obj 798 676 pack f 70;
#X obj 835 699 pack f 71;
#X obj 886 720 pack f 72;
#X obj 438 935 unpack f f;
#X obj 98 856 pack f 73;
#X obj 135 878 pack f 74;
#X obj 186 900 pack f 75;
#X obj 236 855 pack f 76;
#X obj 273 877 pack f 77;
#X obj 324 899 pack f 78;
#X obj 368 856 pack f 79;
#X obj 405 878 pack f 80;
#X obj 449 899 pack f 81;
#X obj 508 856 pack f 82;
#X obj 545 878 pack f 83;
#X obj 596 899 pack f 84;
#X obj 665 856 pack f 85;
#X obj 702 878 pack f 86;
#X obj 754 901 pack f 87;
#X obj 801 852 pack f 88;
#X obj 835 879 pack f 89;
#X obj 886 900 pack f 90;
#X obj 438 1135 unpack f f;
#X obj 98 1056 pack f 91;
#X obj 135 1078 pack f 92;
#X obj 186 1100 pack f 93;
#X obj 236 1055 pack f 94;
#X obj 273 1077 pack f 95;
#X obj 324 1099 pack f 96;
#X obj 368 1056 pack f 97;
#X obj 405 1078 pack f 98;
#X obj 449 1099 pack f 99;
#X obj 508 1056 pack f 100;
#X obj 545 1078 pack f 101;
#X obj 596 1099 pack f 102;
#X obj 665 1056 pack f 103;
#X obj 702 1078 pack f 104;
#X obj 754 1101 pack f 105;
#X obj 798 1056 pack f 106;
#X obj 835 1079 pack f 107;
#X obj 886 1100 pack f 108;
#X text 38 238 -> adjust size if necessary (standard size = 109);
#X obj 43 60 r \$1-craslen;
#X obj 145 39 r \$1-crastrig;
#X obj 176 63 r \$1-craslev;
#X connect 2 0 1 0;
#X connect 2 1 1 1;
#X connect 3 0 2 0;
#X connect 4 0 2 0;
#X connect 5 0 2 0;
#X connect 6 0 2 0;
#X connect 7 0 2 0;
#X connect 8 0 2 0;
#X connect 9 0 2 0;
#X connect 10 0 2 0;
#X connect 11 0 2 0;
#X connect 12 0 2 0;
#X connect 13 0 2 0;
#X connect 14 0 2 0;
#X connect 15 0 2 0;
#X connect 16 0 2 0;
#X connect 17 0 2 0;
#X connect 18 0 2 0;
#X connect 19 0 2 0;
#X connect 20 0 2 0;
#X connect 21 0 1 0;
#X connect 21 1 1 1;
#X connect 22 0 21 0;
#X connect 23 0 21 0;
#X connect 24 0 21 0;
#X connect 25 0 21 0;
#X connect 26 0 21 0;
#X connect 27 0 21 0;
#X connect 28 0 21 0;
#X connect 29 0 21 0;
#X connect 30 0 21 0;
#X connect 31 0 21 0;
#X connect 32 0 21 0;
#X connect 33 0 21 0;
#X connect 34 0 21 0;
#X connect 35 0 21 0;
#X connect 36 0 21 0;
#X connect 37 0 21 0;
#X connect 38 0 21 0;
#X connect 39 0 21 0;
#X connect 40 0 1 0;
#X connect 40 1 1 1;
#X connect 41 0 40 0;
#X connect 42 0 40 0;
#X connect 43 0 40 0;
#X connect 44 0 40 0;
#X connect 45 0 40 0;
#X connect 46 0 40 0;
#X connect 47 0 40 0;
#X connect 48 0 40 0;
#X connect 49 0 40 0;
#X connect 50 0 40 0;
#X connect 51 0 40 0;
#X connect 52 0 40 0;
#X connect 53 0 40 0;
#X connect 54 0 40 0;
#X connect 55 0 40 0;
#X connect 56 0 40 0;
#X connect 57 0 40 0;
#X connect 58 0 40 0;
#X connect 59 0 1 0;
#X connect 59 1 1 1;
#X connect 60 0 59 0;
#X connect 61 0 59 0;
#X connect 62 0 59 0;
#X connect 63 0 59 0;
#X connect 64 0 59 0;
#X connect 65 0 59 0;
#X connect 66 0 59 0;
#X connect 67 0 59 0;
#X connect 68 0 59 0;
#X connect 69 0 59 0;
#X connect 70 0 59 0;
#X connect 71 0 59 0;
#X connect 72 0 59 0;
#X connect 73 0 59 0;
#X connect 74 0 59 0;
#X connect 75 0 59 0;
#X connect 76 0 59 0;
#X connect 77 0 59 0;
#X connect 78 0 1 0;
#X connect 78 1 1 1;
#X connect 79 0 78 0;
#X connect 80 0 78 0;
#X connect 81 0 78 0;
#X connect 82 0 78 0;
#X connect 83 0 78 0;
#X connect 84 0 78 0;
#X connect 85 0 78 0;
#X connect 86 0 78 0;
#X connect 87 0 78 0;
#X connect 88 0 78 0;
#X connect 89 0 78 0;
#X connect 90 0 78 0;
#X connect 91 0 78 0;
#X connect 92 0 78 0;
#X connect 93 0 78 0;
#X connect 94 0 78 0;
#X connect 95 0 78 0;
#X connect 96 0 78 0;
#X connect 97 0 1 0;
#X connect 97 1 1 1;
#X connect 98 0 97 0;
#X connect 99 0 97 0;
#X connect 100 0 97 0;
#X connect 101 0 97 0;
#X connect 102 0 97 0;
#X connect 103 0 97 0;
#X connect 104 0 97 0;
#X connect 105 0 97 0;
#X connect 106 0 97 0;
#X connect 107 0 97 0;
#X connect 108 0 97 0;
#X connect 109 0 97 0;
#X connect 110 0 97 0;
#X connect 111 0 97 0;
#X connect 112 0 97 0;
#X connect 113 0 97 0;
#X connect 114 0 97 0;
#X connect 115 0 97 0;
#X connect 117 0 3 0;
#X connect 118 0 4 0;
#X connect 119 0 5 0;
#X restore 75 27 pd name-sends-normal;
#X obj 223 196 s toextfile;
#N canvas 636 185 560 404 normal 0;
#X obj 278 134 f \$1;
#X obj 237 278 symbol;
#X obj 42 268 list prepend add2;
#X obj 42 293 list trim;
#X obj 188 51 t b b b b b;
#X obj 154 135 f 0;
#X obj 193 135 + 1;
#X msg 181 103 0;
#X msg 240 196 crarx\$1;
#X obj 237 222 pack s f;
#X msg 237 249 \$2-\$1;
#X obj 131 102 until;
#X obj 193 161 t f f;
#X obj 21 193 tabread \$1-crabetween;
#X text 151 77 -> aanpassen! aantal op te slagen floats;
#X obj 180 16 inlet;
#X obj 229 345 outlet;
#X msg 235 311 add2 () norm 0 0 \$1;
#X obj 111 76 f 3;
#X connect 0 0 9 1;
#X connect 1 0 17 0;
#X connect 2 0 3 0;
#X connect 3 0 16 0;
#X connect 4 3 18 0;
#X connect 4 4 0 0;
#X connect 4 4 7 0;
#X connect 5 0 6 0;
#X connect 6 0 5 1;
#X connect 6 0 12 0;
#X connect 7 0 5 1;
#X connect 8 0 9 0;
#X connect 9 0 10 0;
#X connect 10 0 1 0;
#X connect 11 0 5 0;
#X connect 12 0 13 0;
#X connect 12 1 8 0;
#X connect 13 0 2 0;
#X connect 15 0 4 0;
#X connect 17 0 16 0;
#X connect 18 0 11 0;
#X restore 217 153 pd normal;
#X text 179 152 !!->;
#X text 212 245 !!->;
#N canvas 49 0 519 530 receive-normal 0;
#X obj 24 26 r \$1-crarx1;
#X obj 54 46 r \$1-crarx2;
#X obj 85 66 r \$1-crarx3;
#X obj 196 19 r \$1-crarx4;
#X obj 226 39 r \$1-crarx5;
#X obj 257 59 r \$1-crarx6;
#X obj 364 16 r \$1-crarx7;
#X obj 382 37 r \$1-crarx8;
#X obj 416 58 r \$1-crarx9;
#X obj 523 33 r \$1-crarx10;
#X obj 553 53 r \$1-crarx11;
#X obj 584 73 r \$1-crarx12;
#X obj 703 33 r \$1-crarx13;
#X obj 733 53 r \$1-crarx14;
#X obj 764 73 r \$1-crarx15;
#X obj 863 33 r \$1-crarx16;
#X obj 893 53 r \$1-crarx17;
#X obj 924 73 r \$1-crarx18;
#X obj 33 293 r \$1-crarx19;
#X obj 63 313 r \$1-crarx20;
#X obj 94 333 r \$1-crarx21;
#X obj 213 293 r \$1-crarx22;
#X obj 243 313 r \$1-crarx23;
#X obj 274 333 r \$1-crarx24;
#N canvas 30 18 246 218 cmp 0;
#X obj 42 65 list split 1;
#X obj 88 119 ==;
#X obj 43 151 spigot;
#X obj 43 176 outlet;
#X obj 42 28 inlet;
#X obj 110 30 r \$1-craarg2;
#X connect 0 0 2 0;
#X connect 0 1 1 0;
#X connect 1 0 2 1;
#X connect 2 0 3 0;
#X connect 4 0 0 0;
#X connect 5 0 1 1;
#X restore 22 100 pd cmp;
#N canvas 355 32 246 300 cmp 0;
#X obj 42 65 list split 1;
#X obj 88 119 ==;
#X obj 43 151 spigot;
#X obj 43 176 outlet;
#X obj 42 28 inlet;
#X obj 110 30 r \$1-craarg2;
#X connect 0 0 2 0;
#X connect 0 1 1 0;
#X connect 1 0 2 1;
#X connect 2 0 3 0;
#X connect 4 0 0 0;
#X connect 5 0 1 1;
#X restore 42 125 pd cmp;
#N canvas 0 0 246 300 cmp 0;
#X obj 42 65 list split 1;
#X obj 88 119 ==;
#X obj 43 151 spigot;
#X obj 43 176 outlet;
#X obj 42 28 inlet;
#X obj 110 30 r \$1-craarg2;
#X connect 0 0 2 0;
#X connect 0 1 1 0;
#X connect 1 0 2 1;
#X connect 2 0 3 0;
#X connect 4 0 0 0;
#X connect 5 0 1 1;
#X restore 59 153 pd cmp;
#N canvas 0 0 246 300 cmp 0;
#X obj 42 65 list split 1;
#X obj 88 119 ==;
#X obj 43 151 spigot;
#X obj 43 176 outlet;
#X obj 42 28 inlet;
#X obj 110 30 r \$1-craarg2;
#X connect 0 0 2 0;
#X connect 0 1 1 0;
#X connect 1 0 2 1;
#X connect 2 0 3 0;
#X connect 4 0 0 0;
#X connect 5 0 1 1;
#X restore 172 100 pd cmp;
#N canvas 0 0 246 300 cmp 0;
#X obj 42 65 list split 1;
#X obj 88 119 ==;
#X obj 43 151 spigot;
#X obj 43 176 outlet;
#X obj 42 28 inlet;
#X obj 110 30 r \$1-craarg2;
#X connect 0 0 2 0;
#X connect 0 1 1 0;
#X connect 1 0 2 1;
#X connect 2 0 3 0;
#X connect 4 0 0 0;
#X connect 5 0 1 1;
#X restore 192 125 pd cmp;
#N canvas 308 15 246 215 cmp 0;
#X obj 42 65 list split 1;
#X obj 88 119 ==;
#X obj 43 151 spigot;
#X obj 43 176 outlet;
#X obj 42 28 inlet;
#X obj 110 30 r \$1-craarg2;
#X connect 0 0 2 0;
#X connect 0 1 1 0;
#X connect 1 0 2 1;
#X connect 2 0 3 0;
#X connect 4 0 0 0;
#X connect 5 0 1 1;
#X restore 209 153 pd cmp;
#N canvas 0 0 246 300 cmp 0;
#X obj 42 65 list split 1;
#X obj 88 119 ==;
#X obj 43 151 spigot;
#X obj 43 176 outlet;
#X obj 42 28 inlet;
#X obj 110 30 r \$1-craarg2;
#X connect 0 0 2 0;
#X connect 0 1 1 0;
#X connect 1 0 2 1;
#X connect 2 0 3 0;
#X connect 4 0 0 0;
#X connect 5 0 1 1;
#X restore 362 100 pd cmp;
#N canvas 0 0 246 300 cmp 0;
#X obj 42 65 list split 1;
#X obj 88 119 ==;
#X obj 43 151 spigot;
#X obj 43 176 outlet;
#X obj 42 28 inlet;
#X obj 110 30 r \$1-craarg2;
#X connect 0 0 2 0;
#X connect 0 1 1 0;
#X connect 1 0 2 1;
#X connect 2 0 3 0;
#X connect 4 0 0 0;
#X connect 5 0 1 1;
#X restore 382 125 pd cmp;
#N canvas 0 0 246 300 cmp 0;
#X obj 42 65 list split 1;
#X obj 88 119 ==;
#X obj 43 151 spigot;
#X obj 43 176 outlet;
#X obj 42 28 inlet;
#X obj 110 30 r \$1-craarg2;
#X connect 0 0 2 0;
#X connect 0 1 1 0;
#X connect 1 0 2 1;
#X connect 2 0 3 0;
#X connect 4 0 0 0;
#X connect 5 0 1 1;
#X restore 399 153 pd cmp;
#N canvas 0 0 246 300 cmp 0;
#X obj 42 65 list split 1;
#X obj 88 119 ==;
#X obj 43 151 spigot;
#X obj 43 176 outlet;
#X obj 42 28 inlet;
#X obj 110 30 r \$1-craarg2;
#X connect 0 0 2 0;
#X connect 0 1 1 0;
#X connect 1 0 2 1;
#X connect 2 0 3 0;
#X connect 4 0 0 0;
#X connect 5 0 1 1;
#X restore 542 110 pd cmp;
#N canvas 0 0 246 300 cmp 0;
#X obj 42 65 list split 1;
#X obj 88 119 ==;
#X obj 43 151 spigot;
#X obj 43 176 outlet;
#X obj 42 28 inlet;
#X obj 110 30 r \$1-craarg2;
#X connect 0 0 2 0;
#X connect 0 1 1 0;
#X connect 1 0 2 1;
#X connect 2 0 3 0;
#X connect 4 0 0 0;
#X connect 5 0 1 1;
#X restore 562 135 pd cmp;
#N canvas 0 0 246 300 cmp 0;
#X obj 42 65 list split 1;
#X obj 88 119 ==;
#X obj 43 151 spigot;
#X obj 43 176 outlet;
#X obj 42 28 inlet;
#X obj 110 30 r \$1-craarg2;
#X connect 0 0 2 0;
#X connect 0 1 1 0;
#X connect 1 0 2 1;
#X connect 2 0 3 0;
#X connect 4 0 0 0;
#X connect 5 0 1 1;
#X restore 579 163 pd cmp;
#N canvas 0 0 246 300 cmp 0;
#X obj 42 65 list split 1;
#X obj 88 119 ==;
#X obj 43 151 spigot;
#X obj 43 176 outlet;
#X obj 42 28 inlet;
#X obj 110 30 r \$1-craarg2;
#X connect 0 0 2 0;
#X connect 0 1 1 0;
#X connect 1 0 2 1;
#X connect 2 0 3 0;
#X connect 4 0 0 0;
#X connect 5 0 1 1;
#X restore 692 110 pd cmp;
#N canvas 0 0 246 300 cmp 0;
#X obj 42 65 list split 1;
#X obj 88 119 ==;
#X obj 43 151 spigot;
#X obj 43 176 outlet;
#X obj 42 28 inlet;
#X obj 110 30 r \$1-craarg2;
#X connect 0 0 2 0;
#X connect 0 1 1 0;
#X connect 1 0 2 1;
#X connect 2 0 3 0;
#X connect 4 0 0 0;
#X connect 5 0 1 1;
#X restore 712 135 pd cmp;
#N canvas 0 0 246 300 cmp 0;
#X obj 42 65 list split 1;
#X obj 88 119 ==;
#X obj 43 151 spigot;
#X obj 43 176 outlet;
#X obj 42 28 inlet;
#X obj 110 30 r \$1-craarg2;
#X connect 0 0 2 0;
#X connect 0 1 1 0;
#X connect 1 0 2 1;
#X connect 2 0 3 0;
#X connect 4 0 0 0;
#X connect 5 0 1 1;
#X restore 729 163 pd cmp;
#N canvas 0 0 246 300 cmp 0;
#X obj 42 65 list split 1;
#X obj 88 119 ==;
#X obj 43 151 spigot;
#X obj 43 176 outlet;
#X obj 42 28 inlet;
#X obj 110 30 r \$1-craarg2;
#X connect 0 0 2 0;
#X connect 0 1 1 0;
#X connect 1 0 2 1;
#X connect 2 0 3 0;
#X connect 4 0 0 0;
#X connect 5 0 1 1;
#X restore 882 100 pd cmp;
#N canvas 0 0 246 300 cmp 0;
#X obj 42 65 list split 1;
#X obj 88 119 ==;
#X obj 43 151 spigot;
#X obj 43 176 outlet;
#X obj 42 28 inlet;
#X obj 110 30 r \$1-craarg2;
#X connect 0 0 2 0;
#X connect 0 1 1 0;
#X connect 1 0 2 1;
#X connect 2 0 3 0;
#X connect 4 0 0 0;
#X connect 5 0 1 1;
#X restore 902 125 pd cmp;
#N canvas 0 0 246 300 cmp 0;
#X obj 42 65 list split 1;
#X obj 88 119 ==;
#X obj 43 151 spigot;
#X obj 43 176 outlet;
#X obj 42 28 inlet;
#X obj 110 30 r \$1-craarg2;
#X connect 0 0 2 0;
#X connect 0 1 1 0;
#X connect 1 0 2 1;
#X connect 2 0 3 0;
#X connect 4 0 0 0;
#X connect 5 0 1 1;
#X restore 919 153 pd cmp;
#N canvas 30 18 246 218 cmp 0;
#X obj 42 65 list split 1;
#X obj 88 119 ==;
#X obj 43 151 spigot;
#X obj 43 176 outlet;
#X obj 42 28 inlet;
#X obj 110 30 r \$1-craarg2;
#X connect 0 0 2 0;
#X connect 0 1 1 0;
#X connect 1 0 2 1;
#X connect 2 0 3 0;
#X connect 4 0 0 0;
#X connect 5 0 1 1;
#X restore 32 370 pd cmp;
#N canvas 355 32 246 300 cmp 0;
#X obj 42 65 list split 1;
#X obj 88 119 ==;
#X obj 43 151 spigot;
#X obj 43 176 outlet;
#X obj 42 28 inlet;
#X obj 110 30 r \$1-craarg2;
#X connect 0 0 2 0;
#X connect 0 1 1 0;
#X connect 1 0 2 1;
#X connect 2 0 3 0;
#X connect 4 0 0 0;
#X connect 5 0 1 1;
#X restore 52 395 pd cmp;
#N canvas 0 0 246 300 cmp 0;
#X obj 42 65 list split 1;
#X obj 88 119 ==;
#X obj 43 151 spigot;
#X obj 43 176 outlet;
#X obj 42 28 inlet;
#X obj 110 30 r \$1-craarg2;
#X connect 0 0 2 0;
#X connect 0 1 1 0;
#X connect 1 0 2 1;
#X connect 2 0 3 0;
#X connect 4 0 0 0;
#X connect 5 0 1 1;
#X restore 69 423 pd cmp;
#N canvas 0 0 246 300 cmp 0;
#X obj 42 65 list split 1;
#X obj 88 119 ==;
#X obj 43 151 spigot;
#X obj 43 176 outlet;
#X obj 42 28 inlet;
#X obj 110 30 r \$1-craarg2;
#X connect 0 0 2 0;
#X connect 0 1 1 0;
#X connect 1 0 2 1;
#X connect 2 0 3 0;
#X connect 4 0 0 0;
#X connect 5 0 1 1;
#X restore 182 370 pd cmp;
#N canvas 0 0 246 300 cmp 0;
#X obj 42 65 list split 1;
#X obj 88 119 ==;
#X obj 43 151 spigot;
#X obj 43 176 outlet;
#X obj 42 28 inlet;
#X obj 110 30 r \$1-craarg2;
#X connect 0 0 2 0;
#X connect 0 1 1 0;
#X connect 1 0 2 1;
#X connect 2 0 3 0;
#X connect 4 0 0 0;
#X connect 5 0 1 1;
#X restore 202 395 pd cmp;
#N canvas 308 15 246 215 cmp 0;
#X obj 42 65 list split 1;
#X obj 88 119 ==;
#X obj 43 151 spigot;
#X obj 43 176 outlet;
#X obj 42 28 inlet;
#X obj 110 30 r \$1-craarg2;
#X connect 0 0 2 0;
#X connect 0 1 1 0;
#X connect 1 0 2 1;
#X connect 2 0 3 0;
#X connect 4 0 0 0;
#X connect 5 0 1 1;
#X restore 219 423 pd cmp;
#X obj 57 210 s \$1-crartrig;
#X obj 30 234 s \$1-crarlen;
#X obj 92 184 s \$1-crarlev;
#X connect 0 0 24 0;
#X connect 1 0 25 0;
#X connect 2 0 26 0;
#X connect 3 0 27 0;
#X connect 4 0 28 0;
#X connect 5 0 29 0;
#X connect 6 0 30 0;
#X connect 7 0 31 0;
#X connect 8 0 32 0;
#X connect 9 0 33 0;
#X connect 10 0 34 0;
#X connect 11 0 35 0;
#X connect 12 0 36 0;
#X connect 13 0 37 0;
#X connect 14 0 38 0;
#X connect 15 0 39 0;
#X connect 16 0 40 0;
#X connect 17 0 41 0;
#X connect 18 0 42 0;
#X connect 19 0 43 0;
#X connect 20 0 44 0;
#X connect 21 0 45 0;
#X connect 22 0 46 0;
#X connect 23 0 47 0;
#X connect 24 0 49 0;
#X connect 25 0 48 0;
#X connect 26 0 50 0;
#X restore 251 246 pd receive-normal;
#X text 32 27 !!->;
#N canvas 0 0 246 300 cmp 0;
#X obj 42 65 list split 1;
#X obj 88 119 ==;
#X obj 43 151 spigot;
#X obj 43 176 outlet;
#X obj 42 28 inlet;
#X obj 157 64 inlet;
#X connect 0 0 2 0;
#X connect 0 1 1 0;
#X connect 1 0 2 1;
#X connect 2 0 3 0;
#X connect 4 0 0 0;
#X connect 5 0 1 1;
#X restore 209 94 pd cmp;
#X obj 458 12 loadbang;
#X obj 458 37 f \$2;
#X obj 458 85 s \$1-craarg2;
#X connect 0 0 9 0;
#X connect 1 1 4 0;
#X connect 4 0 3 0;
#X connect 9 0 1 0;
#X connect 10 0 11 0;
#X connect 11 0 9 1;
#X connect 11 0 12 0;
#X restore 359 386 pd presetsnew;
#X connect 0 0 9 0;
#X connect 4 0 3 0;
#X connect 5 0 13 0;
#X connect 6 0 9 1;
#X connect 7 0 11 0;
#X connect 9 0 1 0;
#X connect 10 0 6 0;
#X connect 11 0 10 0;
#X connect 12 0 15 0;
#X connect 13 0 14 0;
#X connect 14 0 2 0;
#X connect 15 0 8 0;
#X connect 17 0 22 0;
#X connect 18 0 19 0;
#X connect 20 0 17 0;
#X connect 22 0 18 0;
#X connect 26 0 30 0;
#X connect 31 0 32 0;
