#N canvas 51 5 459 261 12;
#X text 55 528 maximum minimum average reset;
#X obj 31 357 inlet;
#X text 53 544 eigenlijk bij loadbang gegevens over X en Y grootte
van array doorgeven aan;
#X obj 284 419 bng 10 250 50 0 \$1-esosextraoptions empty extra_options
17 7 0 8 -262144 -1 -1;
#N canvas 452 452 837 423 printallreceives 0;
#X obj 35 63 f \$1;
#X obj 33 6 bng 15 250 50 0 empty empty empty 17 7 0 10 -262144 -1
-1;
#X obj 70 173 t f f f f f f f f f;
#X obj 36 87 t f f;
#X obj 166 21 r \$1-esoprintreceives;
#X obj 92 136 print start;
#X obj 49 370 print end;
#X msg 91 109 names of receives in [e-scope \$1]...................>>
;
#X msg 631 240 \$1-esorwav;
#X msg 518 267 \$1-esorglide;
#X msg 48 344 <<.........................................[e-scope \$1]
;
#X msg 331 279 \$1-esorglt;
#X msg 184 276 \$1-esorfreq;
#X msg 45 278 \$1-esorlev;
#X obj 44 304 print level[0-1];
#X obj 179 304 print pitch[0-127];
#X obj 332 302 print glide_time[0-xxx];
#X obj 525 302 print glide[0-1];
#X obj 634 266 print wave_selector[0-5];
#X obj 10 21 r printreceives;
#X connect 0 0 3 0;
#X connect 1 0 0 0;
#X connect 2 0 10 0;
#X connect 2 4 13 0;
#X connect 2 5 12 0;
#X connect 2 6 11 0;
#X connect 2 7 9 0;
#X connect 2 8 8 0;
#X connect 3 0 2 0;
#X connect 3 1 7 0;
#X connect 4 0 0 0;
#X connect 7 0 5 0;
#X connect 8 0 18 0;
#X connect 9 0 17 0;
#X connect 10 0 6 0;
#X connect 11 0 16 0;
#X connect 12 0 15 0;
#X connect 13 0 14 0;
#X connect 19 0 0 0;
#X restore 257 390 pd printallreceives;
#N canvas 792 487 421 157 \$1-e-scopeextra 0;
#X obj 8 72 bng 15 250 50 0 printreceives empty print_all_receives
17 7 0 10 -262144 -1 -1;
#X obj 7 13 bng 15 250 50 0 \$1-esoprintreceives empty print_names_of_receives
17 7 0 10 -262144 -1 -1;
#X text 66 91 (of all objects in open files);
#X text 65 32 (of this 'e-scope' object);
#X restore 275 448 pd \$1-e-scopeextra;
#X obj 432 388 f \$1;
#X obj 432 439 symbol;
#X msg 432 464 \; \$1 vis 1;
#X obj 430 365 r \$1-esosextraoptions;
#X msg 433 413 pd-\$1-e-scopeextra;
#N canvas 335 33 859 875 foutmelding 0;
#X obj 87 38 loadbang;
#X obj 79 83 f \$1;
#X obj 73 111 select 0;
#X msg 75 197 \; \$1 vis 1;
#X msg 74 142 36;
#X text 151 150 ascii-code voor $;
#X text 197 199 als er geen argument is \, noemt de subpatch vreemd
genoeg niet pd 0-warning maar wel pd \$1-warning;
#X text 129 80 als er geen argument is geeft f \$1 een 0;
#X obj 154 336 del 100;
#X msg 319 355 1;
#X obj 238 405 spigot;
#X obj 342 453 spigot;
#X obj 409 425 == 0;
#X obj 338 423 r e-scope;
#X obj 240 489 s e-scope;
#X obj 208 305 t b b b;
#X obj 314 389 t f f;
#X obj 241 429 del 150;
#X obj 239 460 f \$1;
#X msg 169 357 0;
#X obj 378 506 == \$1;
#X obj 455 604 > 1;
#X obj 341 478 t f f;
#X obj 391 568 f 0;
#X obj 390 538 select 1;
#X obj 330 541 spigot;
#X obj 459 569 + 1;
#X obj 336 602 == \$1;
#X obj 396 628 &&;
#X obj 158 628 print pop;
#X text 487 604 groter dan 1 want vergelijking et zichzelf levert sowieso
al 1 op en dan met ev. zelfde object met identiek argument levert 2
op!;
#X obj 396 656 select 1;
#X obj 396 678 f \$1;
#X obj 398 768 symbol;
#X msg 396 795 \; \$1 vis 1;
#X obj 363 706 t f f;
#X obj 92 820 symbol;
#X obj 170 872 print;
#X obj 326 662 bng 15 250 50 0 empty empty empty 17 7 0 10 -262144
-1 -1;
#X msg 173 839 !!! these two abunch objects have the same argument
number: [e-scope \$1];
#X text 406 346 alleen net gecreerde object verstuurt waarde;
#X text 398 372 bij eerder gemaakte objecten staat spigot voor receive
open;
#N canvas 670 470 308 138 \$1-e-scopewarning 0;
#X obj -1 0 cnv 15 320 150 empty empty empty 20 12 0 14 -258699 -66577
0;
#X text 11 32 You forgot to add an unique number;
#X text 11 78 when you created this abunch object;
#X restore 349 165 pd \$1-e-scopewarning;
#N canvas 856 445 327 127 \$1-e-scopesameargument 0;
#X obj -1 0 cnv 15 330 150 empty empty empty 20 12 0 14 -258699 -66577
0;
#X msg 393 108;
#X text 314 243 is used already!!;
#X obj 344 35 inlet;
#X symbolatom 351 77 10 0 0 0 - - -;
#X obj 98 40 cnv 15 60 20 empty empty empty 20 12 0 14 -233017 -66577
0;
#X text 24 40 Create an unique number for this;
#X text 102 69 abunch object.;
#X connect 3 0 1 0;
#X connect 3 0 4 0;
#X restore 541 770 pd \$1-e-scopesameargument;
#X msg 397 738 pd-\$1-e-scopesameargument;
#X obj 74 171 makefilename pd-%c1-e-scopewarning;
#X connect 0 0 1 0;
#X connect 0 0 15 0;
#X connect 1 0 2 0;
#X connect 2 0 4 0;
#X connect 4 0 45 0;
#X connect 8 0 19 0;
#X connect 9 0 16 0;
#X connect 10 0 17 0;
#X connect 11 0 22 0;
#X connect 12 0 11 1;
#X connect 13 0 11 0;
#X connect 15 0 8 0;
#X connect 15 1 10 0;
#X connect 15 2 9 0;
#X connect 16 0 10 1;
#X connect 16 1 12 0;
#X connect 17 0 18 0;
#X connect 18 0 14 0;
#X connect 19 0 16 0;
#X connect 20 0 24 0;
#X connect 20 0 25 1;
#X connect 21 0 28 1;
#X connect 22 0 25 0;
#X connect 22 1 20 0;
#X connect 23 0 26 0;
#X connect 24 0 23 0;
#X connect 25 0 27 0;
#X connect 26 0 23 1;
#X connect 26 0 21 0;
#X connect 27 0 28 0;
#X connect 28 0 31 0;
#X connect 31 0 32 0;
#X connect 32 0 35 0;
#X connect 33 0 34 0;
#X connect 35 0 44 0;
#X connect 35 1 39 0;
#X connect 38 0 32 0;
#X connect 39 0 37 0;
#X connect 44 0 33 0;
#X connect 45 0 3 0;
#X restore 289 473 pd foutmelding;
#N canvas 744 585 566 199 needsound 0;
#X obj 22 34 r soundfileyesno;
#X msg 18 67 0;
#X obj 22 138 s answersoundfile;
#X text 63 65 0 = this abunch object doesn't need a sound file (store
in a preset file) \, 1 = it does;
#X connect 0 0 1 0;
#X connect 1 0 2 0;
#X restore 308 499 pd needsound;
#N canvas 742 56 450 300 presets 0;
#N canvas 113 16 1155 642 save_preset_array 0;
#X obj 19 403 inlet gui1;
#X obj 112 405 inlet gui2;
#X obj 197 403 inlet gui3;
#X obj 290 405 inlet gui4;
#X obj 376 406 inlet gui15;
#X obj 469 408 inlet gui6;
#X obj 554 406 inlet gui7;
#X obj 647 408 inlet gui8;
#X obj 732 408 inlet gui9;
#X obj 825 410 inlet gui10;
#X obj 743 446 f;
#X obj 824 448 f;
#X obj 566 443 f;
#X obj 647 445 f;
#X obj 380 439 f;
#X obj 461 441 f;
#X obj 204 438 f;
#X obj 285 440 f;
#X obj 25 443 f;
#X obj 106 445 f;
#X obj 83 109 until;
#X obj 62 173 + 1;
#X obj 89 142 f 0;
#X obj 79 42 bng 15 250 50 0 empty empty empty 17 7 0 10 -262144 -1
-1;
#X obj 571 505 r openpreset;
#X obj 162 18 r savepreset;
#X obj 21 825 outlet gui1;
#X obj 112 827 outlet gui2;
#X obj 201 827 outlet gui3;
#X obj 293 827 outlet gui4;
#X obj 475 827 outlet gui6;
#X obj 384 827 outlet gui5;
#X obj 567 827 outlet gui7;
#X obj 658 827 outlet gui8;
#X obj 748 827 outlet gui9;
#X obj 840 826 outlet gui10;
#X obj 437 619 until;
#X obj 414 678 + 1;
#X obj 441 647 f 0;
#N canvas 45 153 1064 314 router_1inxout 0;
#X obj 231 27 inlet one;
#X obj 339 23 inlet route123;
#X obj 35 211 outlet one;
#X obj 124 210 outlet two;
#X obj 218 211 outlet three;
#X obj 323 211 outlet four;
#X obj 415 210 outlet five;
#X obj 510 211 outlet six;
#X obj 599 210 outlet seven;
#X obj 700 213 outlet eigth;
#X obj 805 212 outlet nine;
#X obj 897 211 outlet ten;
#X obj 361 83 pack;
#X obj 296 57 mod 12;
#X obj 919 239 outlet nine;
#X obj 1011 238 outlet ten;
#X obj 696 86 route 1 2 3 4 5 6 7 8 9 10 11;
#X obj 58 77 route 1 2;
#X obj 961 138 unpack;
#X connect 0 0 13 0;
#X connect 1 0 12 1;
#X connect 12 0 16 0;
#X connect 13 0 12 0;
#X connect 16 0 2 0;
#X connect 16 1 3 0;
#X connect 16 2 4 0;
#X connect 16 3 5 0;
#X connect 16 4 6 0;
#X connect 16 5 7 0;
#X connect 16 6 8 0;
#X connect 16 7 9 0;
#X connect 16 8 10 0;
#X connect 16 9 11 0;
#X connect 16 10 14 0;
#X connect 16 11 18 0;
#X connect 18 1 15 0;
#X restore 340 771 pd router_1inxout;
#X obj 211 106 f 0;
#X obj 335 24 r presetnr;
#X obj 336 49 * 12;
#X obj 334 72 - 12;
#X obj 529 608 f 0;
#X obj 437 706 t f f;
#X obj 85 201 t f f;
#N canvas 0 0 450 300 (subpatch) 0;
#X array \$1-esopreset 601 float 2;
#X coords 0 200 601 -1 200 140 1;
#X restore 591 131 graph;
#X obj 66 240 mod 12;
#X text 386 60 -> !!! per 12;
#X text 130 240 -> !!! per 12;
#X text 511 773 -> !!! hierin ook per 12;
#X msg 133 82 12;
#X text 174 83 -> !!! per 12;
#X text 579 54 max 12 parameters/waarden voor array/presets;
#X obj 302 204 symbol;
#X obj 403 183 symbol;
#X obj 345 245 pack s s;
#X obj 402 153 r namepreset;
#X obj 294 155 f \$1;
#X obj 167 43 t b b b;
#X obj 512 567 t b b b;
#X text 130 312 -> !!! per 12;
#X obj 716 628 symbol;
#X obj 756 655 pack s s;
#X obj 827 582 r namepreset;
#X obj 662 578 f \$1;
#X obj 152 163 print bng;
#X obj 819 618 symbol;
#X msg 319 272 \; \$1 write presets/\$2-\$1.txt;
#X msg 750 686 \; \$1 read presets/\$2-\$1.txt;
#X msg 470 596 12;
#X obj 931 444 f;
#X obj 1012 446 f;
#X obj 920 406 inlet gui11;
#X obj 1013 408 inlet gui12;
#X obj 940 828 outlet gui9;
#X obj 1032 827 outlet gui10;
#X obj 56 331 select 1 2 3 4 5 6 7 8 9 10 11;
#X obj 979 379 bang;
#X msg 294 182 \$1-esopreset;
#X obj 225 534 tabwrite \$1-esopreset;
#X msg 675 604 \$1-esopreset;
#X obj 449 736 tabread \$1-esopreset;
#X obj 553 538 spigot;
#X obj 693 506 r \$1-esosnopr;
#X connect 0 0 18 1;
#X connect 1 0 19 1;
#X connect 2 0 16 1;
#X connect 3 0 17 1;
#X connect 4 0 14 1;
#X connect 5 0 15 1;
#X connect 6 0 12 1;
#X connect 7 0 13 1;
#X connect 8 0 10 1;
#X connect 9 0 11 1;
#X connect 10 0 81 0;
#X connect 11 0 81 0;
#X connect 12 0 81 0;
#X connect 13 0 81 0;
#X connect 14 0 81 0;
#X connect 15 0 81 0;
#X connect 16 0 81 0;
#X connect 17 0 81 0;
#X connect 18 0 81 0;
#X connect 19 0 81 0;
#X connect 20 0 22 0;
#X connect 21 0 22 1;
#X connect 21 0 46 0;
#X connect 22 0 21 0;
#X connect 23 0 20 0;
#X connect 24 0 84 0;
#X connect 25 0 60 0;
#X connect 36 0 38 0;
#X connect 37 0 38 1;
#X connect 37 0 45 0;
#X connect 38 0 37 0;
#X connect 39 0 26 0;
#X connect 39 1 27 0;
#X connect 39 2 28 0;
#X connect 39 3 29 0;
#X connect 39 4 31 0;
#X connect 39 5 30 0;
#X connect 39 6 32 0;
#X connect 39 7 33 0;
#X connect 39 8 34 0;
#X connect 39 9 35 0;
#X connect 39 10 76 0;
#X connect 39 11 77 0;
#X connect 40 0 22 1;
#X connect 41 0 42 0;
#X connect 42 0 43 0;
#X connect 43 0 40 1;
#X connect 43 0 44 1;
#X connect 44 0 38 1;
#X connect 45 0 39 0;
#X connect 45 1 83 0;
#X connect 46 0 48 0;
#X connect 46 1 81 1;
#X connect 48 0 78 0;
#X connect 52 0 20 0;
#X connect 55 0 57 0;
#X connect 56 0 57 1;
#X connect 57 0 69 0;
#X connect 58 0 56 0;
#X connect 59 0 80 0;
#X connect 60 0 59 0;
#X connect 60 0 67 0;
#X connect 60 1 52 0;
#X connect 60 2 40 0;
#X connect 61 0 71 0;
#X connect 61 1 44 0;
#X connect 61 2 66 0;
#X connect 63 0 64 0;
#X connect 64 0 70 0;
#X connect 65 0 68 0;
#X connect 66 0 82 0;
#X connect 68 0 64 1;
#X connect 71 0 36 0;
#X connect 72 0 81 0;
#X connect 73 0 81 0;
#X connect 74 0 72 1;
#X connect 75 0 73 1;
#X connect 78 0 18 0;
#X connect 78 1 19 0;
#X connect 78 2 16 0;
#X connect 78 3 17 0;
#X connect 78 4 14 0;
#X connect 78 5 15 0;
#X connect 78 6 12 0;
#X connect 78 7 13 0;
#X connect 78 8 10 0;
#X connect 78 9 11 0;
#X connect 78 10 72 0;
#X connect 78 11 79 0;
#X connect 79 0 73 0;
#X connect 80 0 55 0;
#X connect 82 0 63 0;
#X connect 83 0 39 1;
#X connect 84 0 61 0;
#X connect 85 0 84 1;
#X restore 97 146 pd save_preset_array;
#X obj 226 41 r \$1-esostrig;
#X obj 35 21 r \$1-esosymin;
#X obj 59 43 r \$1-esosymax;
#X obj 90 62 r \$1-esosxmax;
#X obj 208 19 r \$1-esostmp;
#X obj 43 182 s \$1-esorymin;
#X obj 67 204 s \$1-esorymax;
#X obj 98 223 s \$1-esorxmax;
#X obj 196 189 s \$1-esortmp;
#X obj 221 212 s \$1-esortrig;
#X obj 257 235 s \$1-esorext;
#X obj 276 107 r \$1-esoson;
#X obj 248 60 r \$1-esosext;
#X text 274 89 on/off niet in preset;
#X connect 0 0 6 0;
#X connect 0 1 7 0;
#X connect 0 2 8 0;
#X connect 0 3 9 0;
#X connect 0 4 10 0;
#X connect 0 5 11 0;
#X connect 1 0 0 4;
#X connect 2 0 0 0;
#X connect 3 0 0 1;
#X connect 4 0 0 2;
#X connect 5 0 0 3;
#X connect 13 0 0 5;
#X restore 301 361 pd presets;
#N canvas 754 100 450 300 save-txt 0;
#X obj 197 120 f \$1;
#X obj 207 169 symbol;
#X obj 124 203 pack s s;
#X msg 125 236 \; \$2 write \$1.txt;
#X obj 174 45 t b b;
#X obj 141 14 bng 15 250 50 0 empty empty empty 17 7 0 10 -262144 -1
-1;
#X obj 145 84 savepanel;
#X msg 198 147 \$1-esoview;
#X obj 172 14 r \$1-esossave;
#X connect 0 0 7 0;
#X connect 1 0 2 1;
#X connect 2 0 3 0;
#X connect 4 0 6 0;
#X connect 4 1 0 0;
#X connect 5 0 4 0;
#X connect 6 0 2 0;
#X connect 7 0 1 0;
#X connect 8 0 4 0;
#X restore 149 465 pd save-txt;
#N canvas 0 0 593 300 xyminmaxview 0;
#X obj 38 76 t f b;
#X obj 118 100 f \$1;
#X obj 118 151 symbol;
#X obj 32 185 pack f s;
#X msg 31 213 \; \$2 resize \$1;
#N canvas 504 71 257 446 na500msdoorlaten 0;
#X obj 106 144 + 1;
#X obj 62 146 f 0;
#X obj 53 90 metro 1;
#X msg 126 84 0;
#X obj 88 200 > 500;
#X obj 63 316 spigot;
#X obj 39 287 f;
#X obj 16 49 t b f b;
#X obj 33 253 select 1;
#X obj 88 225 t f f;
#X msg 142 286 0;
#X obj 16 8 inlet;
#X text 162 203 500 ms;
#X obj 62 351 outlet;
#X connect 0 0 1 1;
#X connect 0 0 4 0;
#X connect 1 0 0 0;
#X connect 2 0 1 0;
#X connect 3 0 1 1;
#X connect 4 0 9 0;
#X connect 5 0 13 0;
#X connect 6 0 5 0;
#X connect 7 0 2 0;
#X connect 7 1 6 1;
#X connect 7 2 3 0;
#X connect 8 0 6 0;
#X connect 8 0 10 0;
#X connect 9 0 8 0;
#X connect 9 1 5 1;
#X connect 10 0 2 0;
#X connect 11 0 7 0;
#X restore 41 46 pd na500msdoorlaten;
#X msg 117 125 \$1-esoview;
#X obj 42 23 r \$1-esosxmax;
#X obj 224 76 t f b;
#X obj 280 102 f \$1;
#X obj 280 153 symbol;
#N canvas 504 71 253 442 na500msdoorlaten 0;
#X obj 106 144 + 1;
#X obj 62 146 f 0;
#X obj 53 90 metro 1;
#X msg 126 84 0;
#X obj 88 200 > 500;
#X obj 63 316 spigot;
#X obj 39 287 f;
#X obj 16 49 t b f b;
#X obj 33 253 select 1;
#X obj 88 225 t f f;
#X msg 142 286 0;
#X obj 16 8 inlet;
#X text 162 203 500 ms;
#X obj 62 351 outlet;
#X connect 0 0 1 1;
#X connect 0 0 4 0;
#X connect 1 0 0 0;
#X connect 2 0 1 0;
#X connect 3 0 1 1;
#X connect 4 0 9 0;
#X connect 5 0 13 0;
#X connect 6 0 5 0;
#X connect 7 0 2 0;
#X connect 7 1 6 1;
#X connect 7 2 3 0;
#X connect 8 0 6 0;
#X connect 8 0 10 0;
#X connect 9 0 8 0;
#X connect 9 1 5 1;
#X connect 10 0 2 0;
#X connect 11 0 7 0;
#X restore 219 51 pd na500msdoorlaten;
#X obj 221 25 r \$1-esosymax;
#X obj 416 78 t f b;
#X obj 472 104 f \$1;
#X obj 472 155 symbol;
#N canvas 504 71 253 442 na500msdoorlaten 0;
#X obj 106 144 + 1;
#X obj 62 146 f 0;
#X obj 53 90 metro 1;
#X msg 126 84 0;
#X obj 88 200 > 500;
#X obj 63 316 spigot;
#X obj 39 287 f;
#X obj 16 49 t b f b;
#X obj 33 253 select 1;
#X obj 88 225 t f f;
#X msg 142 286 0;
#X obj 16 8 inlet;
#X text 162 203 500 ms;
#X obj 62 351 outlet;
#X connect 0 0 1 1;
#X connect 0 0 4 0;
#X connect 1 0 0 0;
#X connect 2 0 1 0;
#X connect 3 0 1 1;
#X connect 4 0 9 0;
#X connect 5 0 13 0;
#X connect 6 0 5 0;
#X connect 7 0 2 0;
#X connect 7 1 6 1;
#X connect 7 2 3 0;
#X connect 8 0 6 0;
#X connect 8 0 10 0;
#X connect 9 0 8 0;
#X connect 9 1 5 1;
#X connect 10 0 2 0;
#X connect 11 0 7 0;
#X restore 411 53 pd na500msdoorlaten;
#X obj 412 26 r \$1-esosymin;
#X msg 279 127 \$1-esoview;
#X msg 471 129 \$1-esoview;
#X obj 194 187 pack f s f f;
#X obj 386 189 pack f s f f;
#X msg 190 212 \; \$2 bounds 0 \$1 \$4 \$3;
#X msg 382 214 \; \$2 bounds 0 \$3 \$4 \$1;
#X connect 0 0 3 0;
#X connect 0 1 1 0;
#X connect 1 0 6 0;
#X connect 2 0 3 1;
#X connect 3 0 4 0;
#X connect 5 0 0 0;
#X connect 5 0 20 3;
#X connect 5 0 21 3;
#X connect 6 0 2 0;
#X connect 7 0 5 0;
#X connect 8 0 20 0;
#X connect 8 1 9 0;
#X connect 9 0 18 0;
#X connect 10 0 20 1;
#X connect 11 0 8 0;
#X connect 11 0 21 2;
#X connect 12 0 11 0;
#X connect 13 0 21 0;
#X connect 13 1 14 0;
#X connect 14 0 19 0;
#X connect 15 0 21 1;
#X connect 16 0 13 0;
#X connect 16 0 20 2;
#X connect 17 0 16 0;
#X connect 18 0 10 0;
#X connect 19 0 15 0;
#X connect 20 0 22 0;
#X connect 21 0 23 0;
#X restore 118 437 pd xyminmaxview;
#N canvas 265 10 672 697 scope 0;
#X obj 179 500 r \$1-esosxmax;
#X obj 25 26 inlet;
#X obj 35 630 tabwrite \$1-esoview;
#X obj 142 504 + 1;
#X obj 89 504 f -1;
#X obj 41 600 f;
#X obj 115 571 t b f;
#X obj 25 257 t b f;
#X obj 100 339 metro 100;
#X obj 111 534 mod 100;
#X obj 100 457 spigot;
#X obj 7 477 spigot;
#X obj 86 126 == 0;
#X obj 188 27 r \$1-esostrig;
#X obj 109 305 r \$1-esostmp;
#X obj 313 483 r \$1-esosres;
#X msg 246 462 -1;
#X obj 92 29 r \$1-esoson;
#X obj 119 160 &&;
#X obj 174 71 t b f;
#X obj 91 59 t f f f;
#X text 369 255 reset;
#X text 329 462 clear;
#X obj 313 529 f \$1;
#X msg 313 554 \$1-esoview;
#X obj 313 580 symbol;
#X obj 113 370 r \$1-esosext;
#X obj 116 422 == 0;
#X obj 163 459 spigot;
#X obj 223 301 inlet ext-clock;
#X obj 392 34 r \$1-esosext;
#X obj 217 403 select 0 1;
#X obj 219 373 > 1;
#X obj 360 380 b;
#X obj 219 344 route float symbol;
#X obj 374 587 r \$1-esosymin;
#X obj 313 620 pack s f;
#X msg 313 652 \; \$1 const \$2;
#X obj 314 505 t b b;
#X floatatom 207 559 5 0 0 0 - - -;
#X obj 514 79 select 1;
#X obj 133 255 &&;
#X text 414 440 als ext aan \, dan on/off uit en dus ook interne klok
uit;
#X text 411 404 als on/off aan: als ext uit en trig = 1 \, int klok
aan;
#X obj 335 157 == 0;
#X obj 180 226 f;
#X obj 361 277 select 1;
#X obj 512 105 0;
#X obj 514 135 s \$1-esoron;
#X obj 121 186 t b f b;
#X obj 54 189 &&;
#X obj 341 114 f;
#X obj 379 86 t b f f;
#X connect 0 0 9 1;
#X connect 1 0 7 0;
#X connect 3 0 4 1;
#X connect 3 0 9 0;
#X connect 4 0 3 0;
#X connect 5 0 2 0;
#X connect 6 0 5 0;
#X connect 6 1 2 1;
#X connect 7 0 11 0;
#X connect 7 1 5 1;
#X connect 8 0 10 0;
#X connect 9 0 6 0;
#X connect 10 0 4 0;
#X connect 11 0 4 0;
#X connect 12 0 50 1;
#X connect 13 0 19 0;
#X connect 14 0 8 1;
#X connect 15 0 38 0;
#X connect 16 0 4 1;
#X connect 17 0 20 0;
#X connect 17 0 51 1;
#X connect 18 0 49 0;
#X connect 19 0 18 0;
#X connect 19 0 50 0;
#X connect 19 1 18 1;
#X connect 19 1 12 0;
#X connect 20 0 50 0;
#X connect 20 1 18 0;
#X connect 20 2 46 0;
#X connect 23 0 24 0;
#X connect 24 0 25 0;
#X connect 25 0 36 0;
#X connect 26 0 27 0;
#X connect 26 0 28 1;
#X connect 27 0 10 1;
#X connect 28 0 4 0;
#X connect 29 0 34 0;
#X connect 30 0 52 0;
#X connect 31 0 16 0;
#X connect 31 1 28 0;
#X connect 32 0 31 0;
#X connect 33 0 16 0;
#X connect 34 0 32 0;
#X connect 34 1 33 0;
#X connect 35 0 36 1;
#X connect 36 0 37 0;
#X connect 38 0 16 0;
#X connect 38 1 23 0;
#X connect 40 0 47 0;
#X connect 41 0 8 0;
#X connect 44 0 45 1;
#X connect 45 0 41 1;
#X connect 46 0 16 0;
#X connect 47 0 48 0;
#X connect 49 1 41 0;
#X connect 49 2 45 0;
#X connect 50 0 11 1;
#X connect 51 0 20 0;
#X connect 52 0 51 0;
#X connect 52 2 44 0;
#X restore 27 388 pd scope;
#N canvas 508 88 450 303 init 0;
#X obj 252 172 s \$1-esorxmax;
#X obj 108 144 s \$1-esortrig;
#X obj 139 116 s \$1-esorymax;
#X obj 88 186 s \$1-esorymin;
#X msg 52 82 100;
#X msg 96 102 0;
#X obj 97 21 loadbang;
#X obj 36 214 s \$1-esortmp;
#X obj 104 48 t b b;
#X msg 257 92 100;
#X obj 152 214 s \$1-esornopr;
#X obj 276 209 s \$1-esorext;
#X obj 61 264 r \$1-esoson;
#X msg 159 87 127;
#X connect 4 0 7 0;
#X connect 5 0 1 0;
#X connect 5 0 3 0;
#X connect 5 0 10 0;
#X connect 5 0 11 0;
#X connect 6 0 8 0;
#X connect 8 0 13 0;
#X connect 8 0 5 0;
#X connect 8 0 4 0;
#X connect 8 1 9 0;
#X connect 9 0 0 0;
#X connect 13 0 2 0;
#X restore 170 497 pd init;
#X obj 76 298 inlet onoff;
#X obj 182 301 inlet ext-clock;
#X obj 75 331 > 0;
#X obj 83 358 s \$1-esoron;
#X obj -1 1 cnv 15 460 260 empty empty empty 20 12 0 14 -142067 -66577
0;
#X obj 321 174 vradio 15 1 0 2 \$1-esostrig \$1-esortrig empty 0 -8
0 10 -262144 -1 -1 0;
#X text 341 171 event=trigger;
#X text 340 189 clock=trigger;
#N canvas 0 0 450 300 (subpatch) 0;
#X array \$1-esoview 100 float 0;
#X coords 0 127 100 0 300 150 1;
#X restore 16 23 graph;
#X obj 320 21 cnv 15 60 150 empty empty Y-view 1 70 0 10 -233017 -66577
0;
#X obj 324 146 nbx 5 14 -1e+037 1e+037 0 0 \$1-esosymin \$1-esorymin
min 0 -8 0 10 -262144 -1 -1 0 256;
#X obj 322 34 nbx 5 14 -1e+037 1e+037 0 0 \$1-esosymax \$1-esorymax
max 0 -8 0 10 -262144 -1 -1 127 256;
#X obj 16 175 cnv 15 300 30 empty empty X-view 110 12 0 10 -233017
-66577 0;
#X obj 253 187 nbx 5 14 -1e+037 1e+037 0 0 \$1-esosxmax \$1-esorxmax
max 0 -8 0 10 -262144 -1 -1 100 256;
#X obj 392 151 nbx 5 14 -1e+037 1e+037 0 0 \$1-esostmp \$1-esortmp
clock_speed 0 -8 0 8 -262144 -1 -1 100 256;
#X obj 395 62 bng 15 250 50 0 \$1-esosres \$1-esorres clear 20 7 0
8 -262144 -1 -1;
#X obj 19 207 tgl 15 0 \$1-esosnopr \$1-esornopr presets_on_off 17
7 0 10 -262144 -1 -1 0 1;
#X obj 212 212 bng 15 250 50 0 \$1-esossave \$1-esorsave save_as_txt
17 7 0 10 -262144 -1 -1;
#X obj 393 31 tgl 15 0 \$1-esoson \$1-esoron on_off 17 7 0 10 -262144
-1 -1 0 1;
#X obj 322 212 tgl 15 0 \$1-esosext \$1-esorext ext_clock 17 7 0 10
-262144 -1 -1 0 1;
#X obj 607 100 nbx 5 14 -1e+037 1e+037 0 0 empty empty empty 0 -8 0
10 -262144 -1 -1 0 256;
#N canvas 500 13 735 312 maximum 0;
#X msg 435 66 -10000;
#X obj 459 148 max;
#X obj 405 13 loadbang;
#X obj 461 180 t f f;
#X floatatom 458 229 5 0 0 0 - - -;
#X obj 105 64 inlet;
#X text 490 67 very small initial value;
#X obj 120 154 t f f;
#X floatatom 117 203 5 0 0 0 - - -;
#X msg 174 71 100000;
#X obj 118 122 min;
#X text 228 71 very high initial value;
#X text 117 230 minimum;
#X text 458 247 maximum;
#X obj 113 12 r \$1-esosres;
#X connect 0 0 1 1;
#X connect 1 0 3 0;
#X connect 2 0 0 0;
#X connect 2 0 9 0;
#X connect 3 0 4 0;
#X connect 3 1 1 1;
#X connect 5 0 1 0;
#X connect 5 0 10 0;
#X connect 7 0 8 0;
#X connect 7 1 10 1;
#X connect 9 0 10 1;
#X connect 10 0 7 0;
#X connect 14 0 9 0;
#X connect 14 0 0 0;
#X restore 53 485 pd maximum;
#N canvas 540 309 293 166 printname 0;
#X obj 54 37 r printallnames;
#X obj 54 107 symbol;
#X obj 54 132 s rallnames;
#X msg 54 72 e-scope;
#X connect 0 0 3 0;
#X connect 1 0 2 0;
#X connect 3 0 1 0;
#X restore 308 522 pd printname;
#N canvas 14 355 588 284 presetsnew 0;
#X obj 210 58 r savepresetn;
#X obj 203 119 t b b b;
#N canvas 30 156 883 470 arraypresets 0;
#X obj 50 178 until;
#X obj 187 183 f \$1;
#X obj 187 233 symbol;
#X obj 50 203 f -1;
#X obj 50 228 + 1;
#X msg 127 167 -1;
#X msg 283 368 add2 \$1;
#X obj 93 -5 inlet;
#X obj 69 267 tabread \$1-esoay;
#X obj 47 102 r \$1-esossize;
#X obj 50 146 f;
#X obj 357 419 outlet;
#X text 41 83 !! size of array;
#X msg 401 367 add2 () arr 0 0 \$1;
#X obj 93 33 t b b b b b b b b;
#X obj 340 178 until;
#X obj 477 183 f \$1;
#X obj 477 233 symbol;
#X obj 340 203 f -1;
#X obj 340 228 + 1;
#X msg 417 167 -1;
#X obj 359 267 tabread \$1-esoay;
#X obj 337 102 r \$1-esossize;
#X obj 340 146 f;
#X text 572 208 !!;
#X text 504 267 !!;
#X obj 630 178 until;
#X obj 767 183 f \$1;
#X obj 767 233 symbol;
#X obj 630 203 f -1;
#X obj 630 228 + 1;
#X msg 707 167 -1;
#X obj 649 267 tabread \$1-esoay;
#X obj 627 102 r \$1-esossize;
#X obj 630 146 f;
#X text 862 208 !!;
#X text 794 267 !!;
#X text 331 84 !! size of array2;
#X text 621 83 !! size of array3;
#X msg 477 208 \$1-esoray2;
#X msg 187 208 \$1-esoray1;
#X msg 767 208 \$1-esoray3;
#X text 234 186 provisionary;
#X text 285 208 name;
#X text 214 267 !!;
#X text 127 289 original array that is saved in presets;
#X connect 0 0 3 0;
#X connect 1 0 40 0;
#X connect 2 0 13 0;
#X connect 3 0 4 0;
#X connect 4 0 3 1;
#X connect 4 0 8 0;
#X connect 5 0 3 1;
#X connect 6 0 11 0;
#X connect 7 0 14 0;
#X connect 8 0 6 0;
#X connect 9 0 10 1;
#X connect 10 0 0 0;
#X connect 13 0 11 0;
#X connect 14 6 10 0;
#X connect 14 7 1 0;
#X connect 14 7 5 0;
#X connect 15 0 18 0;
#X connect 16 0 39 0;
#X connect 17 0 13 0;
#X connect 18 0 19 0;
#X connect 19 0 18 1;
#X connect 19 0 21 0;
#X connect 20 0 18 1;
#X connect 21 0 6 0;
#X connect 22 0 23 1;
#X connect 23 0 15 0;
#X connect 26 0 29 0;
#X connect 27 0 41 0;
#X connect 28 0 13 0;
#X connect 29 0 30 0;
#X connect 30 0 29 1;
#X connect 30 0 32 0;
#X connect 31 0 29 1;
#X connect 32 0 6 0;
#X connect 33 0 34 1;
#X connect 34 0 26 0;
#X connect 39 0 17 0;
#X connect 40 0 2 0;
#X connect 41 0 28 0;
#X restore 46 154 pd arraypresets;
#N canvas 117 78 1041 319 name-sends-normal 0;
#N canvas 0 0 450 300 (subpatch) 0;
#X array \$1-esobetween 12 float 2;
#X coords 0 10000 12 -10000 20 20 1;
#X restore 15 236 graph;
#X obj 393 550 tabwrite \$1-esobetween;
#X obj 438 235 unpack f f;
#X obj 98 156 pack f 1;
#X obj 135 178 pack f 2;
#X obj 186 200 pack f 3;
#X obj 236 155 pack f 4;
#X obj 273 177 pack f 5;
#X obj 324 199 pack f 6;
#X obj 368 156 pack f 7;
#X obj 405 178 pack f 8;
#X obj 449 199 pack f 9;
#X obj 508 156 pack f 10;
#X obj 545 178 pack f 11;
#X obj 596 199 pack f 12;
#X obj 665 156 pack f 13;
#X obj 702 178 pack f 14;
#X obj 754 201 pack f 15;
#X obj 798 156 pack f 16;
#X obj 835 179 pack f 17;
#X obj 884 203 pack f 18;
#X obj 438 505 unpack f f;
#X obj 98 426 pack f 19;
#X obj 135 448 pack f 20;
#X obj 186 470 pack f 21;
#X obj 236 425 pack f 22;
#X obj 273 447 pack f 23;
#X obj 324 469 pack f 24;
#X obj 368 426 pack f 25;
#X obj 405 448 pack f 26;
#X obj 449 469 pack f 27;
#X obj 508 426 pack f 28;
#X obj 545 448 pack f 29;
#X obj 596 469 pack f 30;
#X obj 665 426 pack f 31;
#X obj 702 448 pack f 32;
#X obj 754 471 pack f 33;
#X obj 798 426 pack f 34;
#X obj 835 449 pack f 35;
#X obj 886 470 pack f 36;
#X text 38 238 -> adjust size if necessary (standard size = 109);
#X obj 246 81 r \$1-esostrig;
#X obj 55 61 r \$1-esosymin;
#X obj 79 83 r \$1-esosymax;
#X obj 110 102 r \$1-esosxmax;
#X obj 228 59 r \$1-esostmp;
#X obj 268 100 r \$1-esosext;
#X connect 2 0 1 0;
#X connect 2 1 1 1;
#X connect 3 0 2 0;
#X connect 4 0 2 0;
#X connect 5 0 2 0;
#X connect 6 0 2 0;
#X connect 7 0 2 0;
#X connect 8 0 2 0;
#X connect 9 0 2 0;
#X connect 10 0 2 0;
#X connect 11 0 2 0;
#X connect 12 0 2 0;
#X connect 13 0 2 0;
#X connect 14 0 2 0;
#X connect 15 0 2 0;
#X connect 16 0 2 0;
#X connect 17 0 2 0;
#X connect 18 0 2 0;
#X connect 19 0 2 0;
#X connect 20 0 2 0;
#X connect 21 0 1 0;
#X connect 21 1 1 1;
#X connect 22 0 21 0;
#X connect 23 0 21 0;
#X connect 24 0 21 0;
#X connect 25 0 21 0;
#X connect 26 0 21 0;
#X connect 27 0 21 0;
#X connect 28 0 21 0;
#X connect 29 0 21 0;
#X connect 30 0 21 0;
#X connect 31 0 21 0;
#X connect 32 0 21 0;
#X connect 33 0 21 0;
#X connect 34 0 21 0;
#X connect 35 0 21 0;
#X connect 36 0 21 0;
#X connect 37 0 21 0;
#X connect 38 0 21 0;
#X connect 39 0 21 0;
#X connect 41 0 7 0;
#X connect 42 0 3 0;
#X connect 43 0 4 0;
#X connect 44 0 5 0;
#X connect 45 0 6 0;
#X connect 46 0 8 0;
#X restore 75 27 pd name-sends-normal;
#X obj 223 196 s toextfile;
#N canvas 636 185 560 404 normal 0;
#X obj 278 134 f \$1;
#X obj 237 278 symbol;
#X obj 42 268 list prepend add2;
#X obj 42 293 list trim;
#X obj 188 51 t b b b b b;
#X obj 154 135 f 0;
#X obj 193 135 + 1;
#X msg 181 103 0;
#X msg 240 196 esorx\$1;
#X obj 237 222 pack s f;
#X msg 237 249 \$2-\$1;
#X obj 131 102 until;
#X obj 193 161 t f f;
#X obj 21 193 tabread \$1-esobetween;
#X text 151 77 -> aanpassen! aantal op te slagen floats;
#X obj 180 16 inlet;
#X obj 229 345 outlet;
#X msg 235 311 add2 () norm 0 0 \$1;
#X obj 111 76 f 6;
#X connect 0 0 9 1;
#X connect 1 0 17 0;
#X connect 2 0 3 0;
#X connect 3 0 16 0;
#X connect 4 3 18 0;
#X connect 4 4 0 0;
#X connect 4 4 7 0;
#X connect 5 0 6 0;
#X connect 6 0 5 1;
#X connect 6 0 12 0;
#X connect 7 0 5 1;
#X connect 8 0 9 0;
#X connect 9 0 10 0;
#X connect 10 0 1 0;
#X connect 11 0 5 0;
#X connect 12 0 13 0;
#X connect 12 1 8 0;
#X connect 13 0 2 0;
#X connect 15 0 4 0;
#X connect 17 0 16 0;
#X connect 18 0 11 0;
#X restore 217 153 pd normal;
#X text 179 152 !!->;
#X text 212 245 !!->;
#N canvas 49 0 1083 339 receive-normal 0;
#X obj 24 26 r \$1-esorx1;
#X obj 54 46 r \$1-esorx2;
#X obj 85 66 r \$1-esorx3;
#X obj 196 19 r \$1-esorx4;
#X obj 226 39 r \$1-esorx5;
#X obj 257 59 r \$1-esorx6;
#X obj 364 16 r \$1-esorx7;
#X obj 382 37 r \$1-esorx8;
#X obj 416 58 r \$1-esorx9;
#X obj 523 33 r \$1-esorx10;
#X obj 553 53 r \$1-esorx11;
#X obj 584 73 r \$1-esorx12;
#X obj 703 33 r \$1-esorx13;
#X obj 733 53 r \$1-esorx14;
#X obj 764 73 r \$1-esorx15;
#X obj 863 33 r \$1-esorx16;
#X obj 893 53 r \$1-esorx17;
#X obj 924 73 r \$1-esorx18;
#X obj 33 293 r \$1-esorx19;
#X obj 63 313 r \$1-esorx20;
#X obj 94 333 r \$1-esorx21;
#X obj 213 293 r \$1-esorx22;
#X obj 243 313 r \$1-esorx23;
#X obj 274 333 r \$1-esorx24;
#X obj 393 293 r \$1-esorx25;
#X obj 423 313 r \$1-esorx26;
#X obj 454 333 r \$1-esorx27;
#X obj 543 293 r \$1-esorx28;
#X obj 573 313 r \$1-esorx29;
#X obj 604 333 r \$1-esorx30;
#X obj 713 293 r \$1-esorx31;
#X obj 743 313 r \$1-esorx32;
#X obj 774 333 r \$1-esorx33;
#X obj 873 293 r \$1-esorx34;
#X obj 903 313 r \$1-esorx35;
#X obj 934 333 r \$1-esorx36;
#X text 667 236 ^ hier aanvullen ^;
#N canvas 30 18 246 218 cmp 0;
#X obj 42 65 list split 1;
#X obj 88 119 ==;
#X obj 43 151 spigot;
#X obj 43 176 outlet;
#X obj 42 28 inlet;
#X obj 110 30 r \$1-esoarg2;
#X connect 0 0 2 0;
#X connect 0 1 1 0;
#X connect 1 0 2 1;
#X connect 2 0 3 0;
#X connect 4 0 0 0;
#X connect 5 0 1 1;
#X restore 22 100 pd cmp;
#N canvas 355 32 246 300 cmp 0;
#X obj 42 65 list split 1;
#X obj 88 119 ==;
#X obj 43 151 spigot;
#X obj 43 176 outlet;
#X obj 42 28 inlet;
#X obj 110 30 r \$1-esoarg2;
#X connect 0 0 2 0;
#X connect 0 1 1 0;
#X connect 1 0 2 1;
#X connect 2 0 3 0;
#X connect 4 0 0 0;
#X connect 5 0 1 1;
#X restore 42 125 pd cmp;
#N canvas 0 0 246 300 cmp 0;
#X obj 42 65 list split 1;
#X obj 88 119 ==;
#X obj 43 151 spigot;
#X obj 43 176 outlet;
#X obj 42 28 inlet;
#X obj 110 30 r \$1-esoarg2;
#X connect 0 0 2 0;
#X connect 0 1 1 0;
#X connect 1 0 2 1;
#X connect 2 0 3 0;
#X connect 4 0 0 0;
#X connect 5 0 1 1;
#X restore 59 153 pd cmp;
#N canvas 0 0 246 300 cmp 0;
#X obj 42 65 list split 1;
#X obj 88 119 ==;
#X obj 43 151 spigot;
#X obj 43 176 outlet;
#X obj 42 28 inlet;
#X obj 110 30 r \$1-esoarg2;
#X connect 0 0 2 0;
#X connect 0 1 1 0;
#X connect 1 0 2 1;
#X connect 2 0 3 0;
#X connect 4 0 0 0;
#X connect 5 0 1 1;
#X restore 172 100 pd cmp;
#N canvas 0 0 246 300 cmp 0;
#X obj 42 65 list split 1;
#X obj 88 119 ==;
#X obj 43 151 spigot;
#X obj 43 176 outlet;
#X obj 42 28 inlet;
#X obj 110 30 r \$1-esoarg2;
#X connect 0 0 2 0;
#X connect 0 1 1 0;
#X connect 1 0 2 1;
#X connect 2 0 3 0;
#X connect 4 0 0 0;
#X connect 5 0 1 1;
#X restore 192 125 pd cmp;
#N canvas 308 15 246 215 cmp 0;
#X obj 42 65 list split 1;
#X obj 88 119 ==;
#X obj 43 151 spigot;
#X obj 43 176 outlet;
#X obj 42 28 inlet;
#X obj 110 30 r \$1-esoarg2;
#X connect 0 0 2 0;
#X connect 0 1 1 0;
#X connect 1 0 2 1;
#X connect 2 0 3 0;
#X connect 4 0 0 0;
#X connect 5 0 1 1;
#X restore 209 153 pd cmp;
#N canvas 0 0 246 300 cmp 0;
#X obj 42 65 list split 1;
#X obj 88 119 ==;
#X obj 43 151 spigot;
#X obj 43 176 outlet;
#X obj 42 28 inlet;
#X obj 110 30 r \$1-esoarg2;
#X connect 0 0 2 0;
#X connect 0 1 1 0;
#X connect 1 0 2 1;
#X connect 2 0 3 0;
#X connect 4 0 0 0;
#X connect 5 0 1 1;
#X restore 362 100 pd cmp;
#N canvas 0 0 246 300 cmp 0;
#X obj 42 65 list split 1;
#X obj 88 119 ==;
#X obj 43 151 spigot;
#X obj 43 176 outlet;
#X obj 42 28 inlet;
#X obj 110 30 r \$1-esoarg2;
#X connect 0 0 2 0;
#X connect 0 1 1 0;
#X connect 1 0 2 1;
#X connect 2 0 3 0;
#X connect 4 0 0 0;
#X connect 5 0 1 1;
#X restore 382 125 pd cmp;
#N canvas 0 0 246 300 cmp 0;
#X obj 42 65 list split 1;
#X obj 88 119 ==;
#X obj 43 151 spigot;
#X obj 43 176 outlet;
#X obj 42 28 inlet;
#X obj 110 30 r \$1-esoarg2;
#X connect 0 0 2 0;
#X connect 0 1 1 0;
#X connect 1 0 2 1;
#X connect 2 0 3 0;
#X connect 4 0 0 0;
#X connect 5 0 1 1;
#X restore 399 153 pd cmp;
#N canvas 0 0 246 300 cmp 0;
#X obj 42 65 list split 1;
#X obj 88 119 ==;
#X obj 43 151 spigot;
#X obj 43 176 outlet;
#X obj 42 28 inlet;
#X obj 110 30 r \$1-esoarg2;
#X connect 0 0 2 0;
#X connect 0 1 1 0;
#X connect 1 0 2 1;
#X connect 2 0 3 0;
#X connect 4 0 0 0;
#X connect 5 0 1 1;
#X restore 542 110 pd cmp;
#N canvas 0 0 246 300 cmp 0;
#X obj 42 65 list split 1;
#X obj 88 119 ==;
#X obj 43 151 spigot;
#X obj 43 176 outlet;
#X obj 42 28 inlet;
#X obj 110 30 r \$1-esoarg2;
#X connect 0 0 2 0;
#X connect 0 1 1 0;
#X connect 1 0 2 1;
#X connect 2 0 3 0;
#X connect 4 0 0 0;
#X connect 5 0 1 1;
#X restore 562 135 pd cmp;
#N canvas 0 0 246 300 cmp 0;
#X obj 42 65 list split 1;
#X obj 88 119 ==;
#X obj 43 151 spigot;
#X obj 43 176 outlet;
#X obj 42 28 inlet;
#X obj 110 30 r \$1-esoarg2;
#X connect 0 0 2 0;
#X connect 0 1 1 0;
#X connect 1 0 2 1;
#X connect 2 0 3 0;
#X connect 4 0 0 0;
#X connect 5 0 1 1;
#X restore 579 163 pd cmp;
#N canvas 0 0 246 300 cmp 0;
#X obj 42 65 list split 1;
#X obj 88 119 ==;
#X obj 43 151 spigot;
#X obj 43 176 outlet;
#X obj 42 28 inlet;
#X obj 110 30 r \$1-esoarg2;
#X connect 0 0 2 0;
#X connect 0 1 1 0;
#X connect 1 0 2 1;
#X connect 2 0 3 0;
#X connect 4 0 0 0;
#X connect 5 0 1 1;
#X restore 692 110 pd cmp;
#N canvas 0 0 246 300 cmp 0;
#X obj 42 65 list split 1;
#X obj 88 119 ==;
#X obj 43 151 spigot;
#X obj 43 176 outlet;
#X obj 42 28 inlet;
#X obj 110 30 r \$1-esoarg2;
#X connect 0 0 2 0;
#X connect 0 1 1 0;
#X connect 1 0 2 1;
#X connect 2 0 3 0;
#X connect 4 0 0 0;
#X connect 5 0 1 1;
#X restore 712 135 pd cmp;
#N canvas 0 0 246 300 cmp 0;
#X obj 42 65 list split 1;
#X obj 88 119 ==;
#X obj 43 151 spigot;
#X obj 43 176 outlet;
#X obj 42 28 inlet;
#X obj 110 30 r \$1-esoarg2;
#X connect 0 0 2 0;
#X connect 0 1 1 0;
#X connect 1 0 2 1;
#X connect 2 0 3 0;
#X connect 4 0 0 0;
#X connect 5 0 1 1;
#X restore 729 163 pd cmp;
#N canvas 0 0 246 300 cmp 0;
#X obj 42 65 list split 1;
#X obj 88 119 ==;
#X obj 43 151 spigot;
#X obj 43 176 outlet;
#X obj 42 28 inlet;
#X obj 110 30 r \$1-esoarg2;
#X connect 0 0 2 0;
#X connect 0 1 1 0;
#X connect 1 0 2 1;
#X connect 2 0 3 0;
#X connect 4 0 0 0;
#X connect 5 0 1 1;
#X restore 882 100 pd cmp;
#N canvas 0 0 246 300 cmp 0;
#X obj 42 65 list split 1;
#X obj 88 119 ==;
#X obj 43 151 spigot;
#X obj 43 176 outlet;
#X obj 42 28 inlet;
#X obj 110 30 r \$1-esoarg2;
#X connect 0 0 2 0;
#X connect 0 1 1 0;
#X connect 1 0 2 1;
#X connect 2 0 3 0;
#X connect 4 0 0 0;
#X connect 5 0 1 1;
#X restore 902 125 pd cmp;
#N canvas 0 0 246 300 cmp 0;
#X obj 42 65 list split 1;
#X obj 88 119 ==;
#X obj 43 151 spigot;
#X obj 43 176 outlet;
#X obj 42 28 inlet;
#X obj 110 30 r \$1-esoarg2;
#X connect 0 0 2 0;
#X connect 0 1 1 0;
#X connect 1 0 2 1;
#X connect 2 0 3 0;
#X connect 4 0 0 0;
#X connect 5 0 1 1;
#X restore 919 153 pd cmp;
#N canvas 30 18 246 218 cmp 0;
#X obj 42 65 list split 1;
#X obj 88 119 ==;
#X obj 43 151 spigot;
#X obj 43 176 outlet;
#X obj 42 28 inlet;
#X obj 110 30 r \$1-esoarg2;
#X connect 0 0 2 0;
#X connect 0 1 1 0;
#X connect 1 0 2 1;
#X connect 2 0 3 0;
#X connect 4 0 0 0;
#X connect 5 0 1 1;
#X restore 32 370 pd cmp;
#N canvas 355 32 246 300 cmp 0;
#X obj 42 65 list split 1;
#X obj 88 119 ==;
#X obj 43 151 spigot;
#X obj 43 176 outlet;
#X obj 42 28 inlet;
#X obj 110 30 r \$1-esoarg2;
#X connect 0 0 2 0;
#X connect 0 1 1 0;
#X connect 1 0 2 1;
#X connect 2 0 3 0;
#X connect 4 0 0 0;
#X connect 5 0 1 1;
#X restore 52 395 pd cmp;
#N canvas 0 0 246 300 cmp 0;
#X obj 42 65 list split 1;
#X obj 88 119 ==;
#X obj 43 151 spigot;
#X obj 43 176 outlet;
#X obj 42 28 inlet;
#X obj 110 30 r \$1-esoarg2;
#X connect 0 0 2 0;
#X connect 0 1 1 0;
#X connect 1 0 2 1;
#X connect 2 0 3 0;
#X connect 4 0 0 0;
#X connect 5 0 1 1;
#X restore 69 423 pd cmp;
#N canvas 0 0 246 300 cmp 0;
#X obj 42 65 list split 1;
#X obj 88 119 ==;
#X obj 43 151 spigot;
#X obj 43 176 outlet;
#X obj 42 28 inlet;
#X obj 110 30 r \$1-esoarg2;
#X connect 0 0 2 0;
#X connect 0 1 1 0;
#X connect 1 0 2 1;
#X connect 2 0 3 0;
#X connect 4 0 0 0;
#X connect 5 0 1 1;
#X restore 182 370 pd cmp;
#N canvas 0 0 246 300 cmp 0;
#X obj 42 65 list split 1;
#X obj 88 119 ==;
#X obj 43 151 spigot;
#X obj 43 176 outlet;
#X obj 42 28 inlet;
#X obj 110 30 r \$1-esoarg2;
#X connect 0 0 2 0;
#X connect 0 1 1 0;
#X connect 1 0 2 1;
#X connect 2 0 3 0;
#X connect 4 0 0 0;
#X connect 5 0 1 1;
#X restore 202 395 pd cmp;
#N canvas 308 15 246 215 cmp 0;
#X obj 42 65 list split 1;
#X obj 88 119 ==;
#X obj 43 151 spigot;
#X obj 43 176 outlet;
#X obj 42 28 inlet;
#X obj 110 30 r \$1-esoarg2;
#X connect 0 0 2 0;
#X connect 0 1 1 0;
#X connect 1 0 2 1;
#X connect 2 0 3 0;
#X connect 4 0 0 0;
#X connect 5 0 1 1;
#X restore 219 423 pd cmp;
#N canvas 0 0 246 300 cmp 0;
#X obj 42 65 list split 1;
#X obj 88 119 ==;
#X obj 43 151 spigot;
#X obj 43 176 outlet;
#X obj 42 28 inlet;
#X obj 110 30 r \$1-esoarg2;
#X connect 0 0 2 0;
#X connect 0 1 1 0;
#X connect 1 0 2 1;
#X connect 2 0 3 0;
#X connect 4 0 0 0;
#X connect 5 0 1 1;
#X restore 372 370 pd cmp;
#N canvas 0 0 246 300 cmp 0;
#X obj 42 65 list split 1;
#X obj 88 119 ==;
#X obj 43 151 spigot;
#X obj 43 176 outlet;
#X obj 42 28 inlet;
#X obj 110 30 r \$1-esoarg2;
#X connect 0 0 2 0;
#X connect 0 1 1 0;
#X connect 1 0 2 1;
#X connect 2 0 3 0;
#X connect 4 0 0 0;
#X connect 5 0 1 1;
#X restore 392 395 pd cmp;
#N canvas 0 0 246 300 cmp 0;
#X obj 42 65 list split 1;
#X obj 88 119 ==;
#X obj 43 151 spigot;
#X obj 43 176 outlet;
#X obj 42 28 inlet;
#X obj 110 30 r \$1-esoarg2;
#X connect 0 0 2 0;
#X connect 0 1 1 0;
#X connect 1 0 2 1;
#X connect 2 0 3 0;
#X connect 4 0 0 0;
#X connect 5 0 1 1;
#X restore 409 423 pd cmp;
#N canvas 0 0 246 300 cmp 0;
#X obj 42 65 list split 1;
#X obj 88 119 ==;
#X obj 43 151 spigot;
#X obj 43 176 outlet;
#X obj 42 28 inlet;
#X obj 110 30 r \$1-esoarg2;
#X connect 0 0 2 0;
#X connect 0 1 1 0;
#X connect 1 0 2 1;
#X connect 2 0 3 0;
#X connect 4 0 0 0;
#X connect 5 0 1 1;
#X restore 552 380 pd cmp;
#N canvas 0 0 246 300 cmp 0;
#X obj 42 65 list split 1;
#X obj 88 119 ==;
#X obj 43 151 spigot;
#X obj 43 176 outlet;
#X obj 42 28 inlet;
#X obj 110 30 r \$1-esoarg2;
#X connect 0 0 2 0;
#X connect 0 1 1 0;
#X connect 1 0 2 1;
#X connect 2 0 3 0;
#X connect 4 0 0 0;
#X connect 5 0 1 1;
#X restore 572 405 pd cmp;
#N canvas 0 0 246 300 cmp 0;
#X obj 42 65 list split 1;
#X obj 88 119 ==;
#X obj 43 151 spigot;
#X obj 43 176 outlet;
#X obj 42 28 inlet;
#X obj 110 30 r \$1-esoarg2;
#X connect 0 0 2 0;
#X connect 0 1 1 0;
#X connect 1 0 2 1;
#X connect 2 0 3 0;
#X connect 4 0 0 0;
#X connect 5 0 1 1;
#X restore 589 433 pd cmp;
#N canvas 0 0 246 300 cmp 0;
#X obj 42 65 list split 1;
#X obj 88 119 ==;
#X obj 43 151 spigot;
#X obj 43 176 outlet;
#X obj 42 28 inlet;
#X obj 110 30 r \$1-esoarg2;
#X connect 0 0 2 0;
#X connect 0 1 1 0;
#X connect 1 0 2 1;
#X connect 2 0 3 0;
#X connect 4 0 0 0;
#X connect 5 0 1 1;
#X restore 702 380 pd cmp;
#N canvas 0 0 246 300 cmp 0;
#X obj 42 65 list split 1;
#X obj 88 119 ==;
#X obj 43 151 spigot;
#X obj 43 176 outlet;
#X obj 42 28 inlet;
#X obj 110 30 r \$1-esoarg2;
#X connect 0 0 2 0;
#X connect 0 1 1 0;
#X connect 1 0 2 1;
#X connect 2 0 3 0;
#X connect 4 0 0 0;
#X connect 5 0 1 1;
#X restore 722 405 pd cmp;
#N canvas 0 0 246 300 cmp 0;
#X obj 42 65 list split 1;
#X obj 88 119 ==;
#X obj 43 151 spigot;
#X obj 43 176 outlet;
#X obj 42 28 inlet;
#X obj 110 30 r \$1-esoarg2;
#X connect 0 0 2 0;
#X connect 0 1 1 0;
#X connect 1 0 2 1;
#X connect 2 0 3 0;
#X connect 4 0 0 0;
#X connect 5 0 1 1;
#X restore 739 433 pd cmp;
#N canvas 0 0 246 300 cmp 0;
#X obj 42 65 list split 1;
#X obj 88 119 ==;
#X obj 43 151 spigot;
#X obj 43 176 outlet;
#X obj 42 28 inlet;
#X obj 110 30 r \$1-esoarg2;
#X connect 0 0 2 0;
#X connect 0 1 1 0;
#X connect 1 0 2 1;
#X connect 2 0 3 0;
#X connect 4 0 0 0;
#X connect 5 0 1 1;
#X restore 892 370 pd cmp;
#N canvas 0 0 246 300 cmp 0;
#X obj 42 65 list split 1;
#X obj 88 119 ==;
#X obj 43 151 spigot;
#X obj 43 176 outlet;
#X obj 42 28 inlet;
#X obj 110 30 r \$1-esoarg2;
#X connect 0 0 2 0;
#X connect 0 1 1 0;
#X connect 1 0 2 1;
#X connect 2 0 3 0;
#X connect 4 0 0 0;
#X connect 5 0 1 1;
#X restore 912 395 pd cmp;
#N canvas 0 0 246 300 cmp 0;
#X obj 42 65 list split 1;
#X obj 88 119 ==;
#X obj 43 151 spigot;
#X obj 43 176 outlet;
#X obj 42 28 inlet;
#X obj 110 30 r \$1-esoarg2;
#X connect 0 0 2 0;
#X connect 0 1 1 0;
#X connect 1 0 2 1;
#X connect 2 0 3 0;
#X connect 4 0 0 0;
#X connect 5 0 1 1;
#X restore 929 423 pd cmp;
#X obj 43 182 s \$1-esorymin;
#X obj 67 204 s \$1-esorymax;
#X obj 98 223 s \$1-esorxmax;
#X obj 196 189 s \$1-esortmp;
#X obj 221 212 s \$1-esortrig;
#X obj 257 235 s \$1-esorext;
#X connect 0 0 37 0;
#X connect 1 0 38 0;
#X connect 2 0 39 0;
#X connect 3 0 40 0;
#X connect 4 0 41 0;
#X connect 5 0 42 0;
#X connect 6 0 43 0;
#X connect 7 0 44 0;
#X connect 8 0 45 0;
#X connect 9 0 46 0;
#X connect 10 0 47 0;
#X connect 11 0 48 0;
#X connect 12 0 49 0;
#X connect 13 0 50 0;
#X connect 14 0 51 0;
#X connect 15 0 52 0;
#X connect 16 0 53 0;
#X connect 17 0 54 0;
#X connect 18 0 55 0;
#X connect 19 0 56 0;
#X connect 20 0 57 0;
#X connect 21 0 58 0;
#X connect 22 0 59 0;
#X connect 23 0 60 0;
#X connect 24 0 61 0;
#X connect 25 0 62 0;
#X connect 26 0 63 0;
#X connect 27 0 64 0;
#X connect 28 0 65 0;
#X connect 29 0 66 0;
#X connect 30 0 67 0;
#X connect 31 0 68 0;
#X connect 32 0 69 0;
#X connect 33 0 70 0;
#X connect 34 0 71 0;
#X connect 35 0 72 0;
#X connect 37 0 73 0;
#X connect 38 0 74 0;
#X connect 39 0 75 0;
#X connect 40 0 76 0;
#X connect 41 0 77 0;
#X connect 42 0 78 0;
#X restore 251 246 pd receive-normal;
#X text 4 153 !!->;
#X text 32 27 !!->;
#N canvas 0 0 246 300 cmp 0;
#X obj 42 65 list split 1;
#X obj 88 119 ==;
#X obj 43 151 spigot;
#X obj 43 176 outlet;
#X obj 42 28 inlet;
#X obj 157 64 inlet;
#X connect 0 0 2 0;
#X connect 0 1 1 0;
#X connect 1 0 2 1;
#X connect 2 0 3 0;
#X connect 4 0 0 0;
#X connect 5 0 1 1;
#X restore 209 94 pd cmp;
#X obj 458 12 loadbang;
#X obj 458 37 f \$2;
#X obj 458 85 s \$1-esoarg2;
#N canvas 623 236 565 271 receive-array 0;
#X obj 46 18 r \$1-esoray1;
#X obj 47 181 list prepend 0;
#X obj 47 206 send \$1-esoay;
#X obj 157 67 list split 1;
#X obj 95 122 ==;
#X obj 175 95 r \$1-esoarg2;
#X obj 47 156 spigot;
#X obj 46 43 t l l;
#X obj 41 72 list split 1;
#X text 169 180 drop the list at index 0 of the array;
#X text 166 205 !! adjust this name of the original saved array;
#X connect 0 0 7 0;
#X connect 1 0 2 0;
#X connect 3 0 4 0;
#X connect 4 0 6 1;
#X connect 5 0 4 1;
#X connect 6 0 1 0;
#X connect 7 0 8 0;
#X connect 7 1 3 0;
#X connect 8 1 6 0;
#X restore 62 248 pd receive-array;
#X text 12 249 !! ->;
#X connect 0 0 11 0;
#X connect 1 1 5 0;
#X connect 2 0 4 0;
#X connect 5 0 4 0;
#X connect 11 0 1 0;
#X connect 12 0 13 0;
#X connect 13 0 11 1;
#X connect 13 0 14 0;
#X restore 283 337 pd presetsnew;
#X connect 1 0 16 0;
#X connect 1 0 39 0;
#X connect 6 0 10 0;
#X connect 7 0 8 0;
#X connect 9 0 6 0;
#X connect 10 0 7 0;
#X connect 18 0 20 0;
#X connect 19 0 16 1;
#X connect 20 0 21 0;
