#N canvas 276 34 661 471 12;
#X obj 80 159 keyboard-azerty 1;
#X obj 26 204 waves 1;
#X obj 493 30 presets ex2f;
#X obj 77 354 phaser 1;
#X obj 28 238 lowhigh-filter 1;
#X obj 28 271 envelopes 1;
#X obj 25 308 matrix4 1;
#X obj 28 388 sound-out 1;
#X text 167 238 -> filter;
#X text 15 31 A simple synthesizer with percussion sounds produced
by filtering noise.;
#X text 225 158 -> the keyboard controls the 'pitch' fader in 'lowhigh-filter'
and sends velocities to 'envelopes';
#X text 94 203 -> noise;
#X text 124 271 -> amplitude envelope;
#X text 108 307 -> in preset 1 the sound from inlet 1 is sent to outlet
1 \, in preset 2 to outlet 2;
#X text 153 351 -> phaser effect for outlet 2 of 'matrix4';
#X text 27 425 <1> Open preset 1 \, 2 or 3 and play on your computer
keyboard;
#X connect 0 0 4 1;
#X connect 0 1 5 1;
#X connect 1 0 4 0;
#X connect 3 0 7 0;
#X connect 3 0 7 1;
#X connect 4 0 5 0;
#X connect 5 0 6 0;
#X connect 6 0 7 0;
#X connect 6 0 7 1;
#X connect 6 1 3 0;
