#N canvas 211 154 689 336 12;
#X obj 138 210 old-vocoder 1;
#X obj 91 55 adc~;
#X obj 144 54 play-file 1;
#X obj 448 115 presets ex2p;
#X obj 139 142 matrix4 1;
#X obj 139 268 sound-out 1;
#X obj 281 32 notein;
#X obj 194 82 waves 1;
#X obj 280 76 crynth 1;
#X connect 0 0 5 0;
#X connect 0 0 5 1;
#X connect 1 0 4 1;
#X connect 2 0 4 0;
#X connect 4 0 0 0;
#X connect 4 1 0 1;
#X connect 6 0 8 0;
#X connect 6 1 8 1;
#X connect 7 0 4 2;
#X connect 8 0 4 3;
