#N canvas 106 177 349 376 12;
#N canvas 168 37 983 641 sample 0;
#X obj 188 233 soundfiler;
#X obj 78 462 samplerate~;
#N canvas 78 359 589 492 samplespresets 0;
#X obj 29 33 r savepreset;
#X obj 244 105 symbol;
#X obj 245 77 inlet namesample;
#X obj 55 188 s fromfiles;
#X obj 33 117 symbol;
#X obj 30 63 f \$1;
#X obj 54 150 pack s s;
#X text 256 153 zie uitleg in presets abstraction;
#X text 33 232 samfile wordt plffile (play-file) of sapfile (sampler
file);
#X text 122 89 !!! aanpassen;
#X msg 29 90 \$1-grlfile;
#X obj 70 315 bng 15 250 50 0 empty empty empty 17 7 0 10 -262144 -1
-1;
#X obj 61 436 pack s s;
#X obj 82 346 f \$1;
#N canvas 206 223 806 394 list-12s 0;
#X text 74 4 subpatch based on the abstraction list-12s from list-abs
;
#X msg 327 196 set %s;
#X obj 235 244 t a;
#X obj 118 252 makefilename %s;
#X obj 96 62 t b a b;
#X obj 96 283 symbol;
#X msg 142 22 a b c d 1 2;
#X obj 118 158 route symbol float;
#X obj 118 186 symbol;
#X obj 178 190 makefilename %d;
#X obj 96 21 inlet;
#X obj 96 313 outlet;
#X obj 395 192 makefilename 1%s%%s;
#X msg 395 228 set set \, adddollsym \$1;
#X msg 235 265 set \$1 %s;
#N canvas 0 0 537 411 drip 0;
#X obj 64 206 list split 1;
#X obj 64 123 until;
#X obj 64 181 list append;
#X obj 194 206 bang;
#X text 146 90 First store list \, then start the loop;
#X text 163 118 "until" bangs its output until told to stop by a "bang"
to its right inlet.;
#X text 182 160 Store the remaining list.;
#X text 239 205 third outlet of "split" tells us to stop.;
#X obj 64 243 outlet;
#X obj 64 57 inlet;
#X text 237 44 From list-help.pd;
#X obj 143 243 outlet;
#X obj 64 86 t b a;
#X connect 0 0 8 0;
#X connect 0 1 2 1;
#X connect 0 2 3 0;
#X connect 0 2 11 0;
#X connect 1 0 2 0;
#X connect 2 0 0 0;
#X connect 3 0 1 1;
#X connect 9 0 12 0;
#X connect 12 0 1 0;
#X connect 12 1 2 1;
#X restore 118 123 pd drip;
#X obj 503 100 makefilename %c;
#X msg 503 78 32;
#X text 539 79 SPACE as ascii;
#X obj 503 54 loadbang;
#X obj 395 165 symbol;
#X connect 1 0 3 0;
#X connect 2 0 14 0;
#X connect 3 0 2 0;
#X connect 3 0 5 1;
#X connect 4 0 5 0;
#X connect 4 1 15 0;
#X connect 4 2 1 0;
#X connect 5 0 11 0;
#X connect 6 0 4 0;
#X connect 7 0 8 0;
#X connect 7 1 9 0;
#X connect 8 0 3 0;
#X connect 9 0 3 0;
#X connect 10 0 4 0;
#X connect 12 0 13 0;
#X connect 13 0 14 0;
#X connect 14 0 3 0;
#X connect 15 0 7 0;
#X connect 16 0 20 0;
#X connect 17 0 16 0;
#X connect 19 0 17 0;
#X connect 20 0 12 0;
#X restore 62 405 pd list-12s;
#X msg 71 477 \$1 \$2;
#X text 120 477 verwijdert 'symbol' bij printen...;
#X obj 88 297 r printallsoundfiles;
#X obj 62 513 print ....;
#X obj 106 317 r \$1-grlprintsoundfiles;
#X msg 71 371 used file in [grain-live \$1]:;
#X connect 0 0 5 0;
#X connect 1 0 6 1;
#X connect 1 0 12 1;
#X connect 2 0 1 0;
#X connect 4 0 6 0;
#X connect 5 0 10 0;
#X connect 6 0 3 0;
#X connect 10 0 4 0;
#X connect 11 0 13 0;
#X connect 12 0 15 0;
#X connect 13 0 20 0;
#X connect 14 0 12 0;
#X connect 15 0 18 0;
#X connect 17 0 13 0;
#X connect 19 0 13 0;
#X connect 20 0 14 0;
#X restore 408 199 pd samplespresets;
#X obj 181 136 openpanel;
#X obj 271 108 f \$1;
#X obj 274 157 symbol;
#X obj 189 187 pack s s;
#X text 388 132 !!aanpassen;
#X msg 190 211 read -resize \$1 \$2;
#X text 429 7 !!aanpassen;
#X text 326 30 !!aanpassen;
#X obj 426 50 symbol;
#X obj 213 76 t b b b;
#X obj 417 73 t b s b;
#X text 438 176 !!aanpassen;
#X obj 210 29 r \$1-grlsopen;
#X obj 424 25 r \$1-grlfile;
#X msg 272 131 \$1-grlsample;
#X obj 201 528 s \$1-grlnrsamples;
#X obj 61 521 s \$1-grlsamrate;
#X obj 260 256 inlet extnrsamples;
#X obj 715 79 inlet extsamname;
#X obj 413 232 r \$1-grlsuse;
#X obj 757 434 s \$1-grlruse;
#X obj 265 364 spigot;
#X obj 370 317 == 0;
#X obj 369 359 spigot;
#X obj 439 328 f;
#X obj 204 337 f;
#X obj 417 256 t f f;
#X obj 273 297 select 0 1;
#X obj 563 371 spigot;
#X obj 667 366 spigot;
#X obj 576 285 select 0 1;
#X obj 553 332 symbol;
#X obj 683 320 symbol;
#X obj 529 462 print samname;
#X obj 597 433 s \$1-grlsamname;
#X obj 88 406 bng 15 250 50 0 empty empty empty 17 7 0 10 -262144 -1
-1;
#X obj 163 391 loadbang;
#X obj 202 501 *;
#X obj 198 465 t b f;
#X obj 188 431 r \$1-grlxarraysec;
#X text 339 432 lengte van tabel in seconden;
#X connect 0 0 24 0;
#X connect 0 0 28 1;
#X connect 1 0 19 0;
#X connect 1 0 40 0;
#X connect 3 0 6 0;
#X connect 3 0 2 0;
#X connect 4 0 17 0;
#X connect 5 0 6 1;
#X connect 6 0 8 0;
#X connect 8 0 0 0;
#X connect 11 0 13 0;
#X connect 12 1 3 0;
#X connect 12 2 4 0;
#X connect 13 1 6 0;
#X connect 13 1 2 0;
#X connect 13 2 4 0;
#X connect 15 0 12 0;
#X connect 16 0 11 0;
#X connect 17 0 5 0;
#X connect 17 0 34 0;
#X connect 20 0 27 1;
#X connect 20 0 26 0;
#X connect 21 0 35 0;
#X connect 22 0 29 0;
#X connect 25 0 24 1;
#X connect 25 0 31 1;
#X connect 27 0 26 0;
#X connect 28 0 24 0;
#X connect 29 0 30 0;
#X connect 29 0 33 0;
#X connect 29 1 25 0;
#X connect 29 1 26 1;
#X connect 29 1 32 1;
#X connect 30 0 28 0;
#X connect 30 1 27 0;
#X connect 31 0 37 0;
#X connect 32 0 37 0;
#X connect 33 0 34 0;
#X connect 33 1 35 0;
#X connect 34 0 31 0;
#X connect 35 0 32 0;
#X connect 38 0 1 0;
#X connect 39 0 1 0;
#X connect 40 0 18 0;
#X connect 41 0 40 0;
#X connect 41 1 40 1;
#X connect 42 0 41 0;
#X restore 669 361 pd sample;
#X obj 8 521 r \$1-grlson;
#X obj 102 537 r \$1-grlstempo;
#X obj 24 730 select 0 1 2 3 4 5 6 7 8 9 10 11 12 13 14 15 16 17 18
19 20;
#X obj 246 1051 outlet~;
#X text 73 973 aanpasbaar maken aan aantal stemmen;
#X obj 20 829 grl \$1;
#N canvas 4 68 542 374 randommetro 0;
#X obj 88 96 metro 500;
#X obj 266 168 random;
#X obj 275 236 * 0.01;
#X obj 277 265 *;
#X obj 274 297 +;
#X obj 278 207 -;
#X obj 319 178 * 0.5;
#X obj 326 143 * 2;
#X obj 69 32 inlet metroon;
#X obj 181 35 inlet tempo;
#X obj 307 37 inlet randomness;
#X text 309 15 randomness O -> 100;
#X obj 102 293 outlet;
#X obj 100 138 t b b;
#N canvas 0 0 462 312 bpmtoms 0;
#X obj 99 101 inlet;
#X obj 102 214 outlet;
#X obj 100 158 expr (60/$f1)*1000;
#X floatatom 159 105 5 0 0 0 - - -;
#X floatatom 167 218 5 0 0 0 - - -;
#X connect 0 0 2 0;
#X connect 2 0 1 0;
#X connect 2 0 4 0;
#X connect 3 0 2 0;
#X restore 176 313 pd bpmtoms;
#X obj 176 340 s \$1-grlsbpm;
#X connect 0 0 13 0;
#X connect 1 0 5 0;
#X connect 2 0 3 0;
#X connect 3 0 4 0;
#X connect 4 0 0 1;
#X connect 4 0 14 0;
#X connect 5 0 2 0;
#X connect 6 0 5 1;
#X connect 7 0 6 0;
#X connect 7 0 1 1;
#X connect 8 0 0 0;
#X connect 9 0 0 1;
#X connect 9 0 3 1;
#X connect 9 0 4 1;
#X connect 9 0 14 0;
#X connect 10 0 7 0;
#X connect 13 0 12 0;
#X connect 13 1 1 0;
#X connect 14 0 15 0;
#X restore 25 576 pd randommetro;
#X obj 228 538 r \$1-grlsrndtem;
#X obj 246 1023 hip~ 20;
#X obj 354 970 pack f 50;
#X obj 351 992 line~;
#X obj 242 998 *~;
#X obj 349 916 r \$1-grlslev;
#X obj 490 21 inlet onoff;
#X obj 487 75 t f f;
#X obj 487 50 / 127;
#X obj 483 104 > 0;
#X obj 476 131 s \$1-grlron;
#X obj 527 209 s \$1-grlrlev;
#X obj 522 180 * 100;
#X text 473 155 hiertussen soort adsr;
#N canvas 394 113 876 559 nrvoices 0;
#X obj 39 33 r \$1-grlstempo;
#X obj 162 29 r \$1-grlslen;
#X obj 111 353 /;
#X obj 90 263 t b f;
#X obj 110 406 int;
#X obj 93 453 s \$1-grlnrvoices;
#X text 64 10 hoofdformule: length/tempo in ms;
#X obj 100 112 r \$1-grlsrndtem;
#X text 231 116 ts 0 en 100 (%);
#X obj 100 140 * 0.01;
#X obj 102 169 *;
#X obj 110 380 + 1;
#X text 140 392 altijd naar boven afronden;
#X floatatom 243 479 5 0 0 0 - - -;
#X floatatom 144 245 5 0 0 0 - - -;
#X floatatom 246 452 5 0 0 0 - - -;
#X text 332 10 \, wel eerst minimum tempo berekenen bij bepaalde tempo-randomize
waarde en max length berekenen bij bepaalde length-randomize;
#X obj 92 228 -;
#X floatatom 154 203 5 0 0 0 - - -;
#X obj 32 58 t f b f;
#X obj 95 197 t b f;
#X obj 437 194 *;
#X obj 465 94 r \$1-grlsrndlen;
#X text 365 307 x + (x*grlsrndlen) = maximale waarde bij randomizen
van length (zie grov abstraction);
#X obj 418 263 +;
#X obj 411 96 t f f;
#X obj 437 223 t b f;
#X obj 459 160 t b f;
#X floatatom 464 270 5 0 0 0 - - -;
#X floatatom 437 392 5 0 0 0 - - -;
#X obj 101 492 outlet;
#X obj 305 457 outlet use_tempo;
#X text 440 454 tempo - aantal ms dat nodig is voor randomize;
#X connect 0 0 19 0;
#X connect 1 0 25 0;
#X connect 2 0 11 0;
#X connect 3 0 2 0;
#X connect 3 1 2 1;
#X connect 4 0 5 0;
#X connect 4 0 30 0;
#X connect 7 0 9 0;
#X connect 9 0 10 0;
#X connect 10 0 20 0;
#X connect 11 0 4 0;
#X connect 17 0 3 0;
#X connect 17 0 31 0;
#X connect 19 0 17 0;
#X connect 19 1 10 0;
#X connect 19 2 10 1;
#X connect 20 0 17 0;
#X connect 20 1 17 1;
#X connect 21 0 26 0;
#X connect 22 0 27 0;
#X connect 24 0 2 0;
#X connect 25 0 24 0;
#X connect 25 1 21 0;
#X connect 26 0 24 0;
#X connect 26 1 24 1;
#X connect 27 0 21 0;
#X connect 27 1 21 1;
#X restore 365 581 pd nrvoices;
#N canvas 58 192 1033 436 allpresets 0;
#X obj 36 35 r \$1-grlson;
#X obj 430 24 r \$1-grlspos;
#X obj 117 80 r \$1-grlstempo;
#X obj 617 53 r \$1-grlsatt;
#X obj 629 76 r \$1-grlsdec;
#X obj 219 28 r \$1-grlsrndtem;
#X obj 443 51 r \$1-grlsrndpos;
#X obj 81 57 r \$1-grlslev;
#X obj 259 53 r \$1-grlslen;
#X obj 285 75 r \$1-grlsrndlen;
#X obj 41 324 s \$1-grlron;
#X obj 63 346 s \$1-grlrlev;
#X obj 90 373 s \$1-grlrtempo;
#X obj 209 323 s \$1-grlrrndtem;
#X obj 240 349 s \$1-grlrlen;
#X obj 375 324 s \$1-grlrpos;
#X obj 405 346 s \$1-grlrrndpos;
#X obj 597 364 s \$1-grlrdec;
#X obj 566 341 s \$1-grlratt;
#X obj 253 375 s \$1-grlrrndlen;
#N canvas 134 181 1167 654 save_preset_arrrrrrrrrrrrrrrrray 0;
#X obj 26 359 inlet gui1;
#X obj 73 387 inlet gui2;
#X obj 150 353 inlet gui3;
#X obj 189 391 inlet gui4;
#X obj 272 360 inlet gui15;
#X obj 308 392 inlet gui6;
#X obj 391 361 inlet gui7;
#X obj 433 399 inlet gui8;
#X obj 508 360 inlet gui9;
#X obj 550 401 inlet gui10;
#X obj 519 398 f;
#X obj 549 439 f;
#X obj 403 398 f;
#X obj 433 436 f;
#X obj 276 393 f;
#X obj 300 425 f;
#X obj 157 388 f;
#X obj 184 426 f;
#X obj 32 399 f;
#X obj 67 427 f;
#X obj 83 109 until;
#X obj 62 173 + 1;
#X obj 89 142 f 0;
#X obj 79 42 bng 15 250 50 0 empty empty empty 17 7 0 10 -262144 -1
-1;
#X obj 571 505 r openpreset;
#X obj 162 18 r savepreset;
#X obj 85 830 outlet gui1;
#X obj 125 850 outlet gui2;
#X obj 201 827 outlet gui3;
#X obj 219 849 outlet gui4;
#X obj 330 851 outlet gui6;
#X obj 313 828 outlet gui5;
#X obj 411 830 outlet gui7;
#X obj 461 853 outlet gui8;
#X obj 507 829 outlet gui9;
#X obj 557 850 outlet gui10;
#X obj 495 598 until;
#X obj 472 657 + 1;
#X obj 499 626 f 0;
#X obj 211 106 f 0;
#X obj 335 24 r presetnr;
#X obj 587 587 f 0;
#X obj 495 685 t f f;
#X obj 85 201 t f f;
#X obj 736 509 bng 15 250 50 0 empty empty empty 17 7 0 10 -262144
-1 -1;
#N canvas 0 0 450 300 (subpatch) 0;
#X array \$1-grlpreset 720 float 2;
#X coords 0 200 720 -1 200 140 1;
#X restore 591 131 graph;
#X text 386 60 -> !!! per 12;
#X text 130 240 -> !!! per 12;
#X text 680 742 -> !!! hierin ook per 12;
#X text 174 83 -> !!! per 12;
#X text 579 54 max 12 parameters/waarden voor array/presets;
#X obj 302 204 symbol;
#X obj 403 183 symbol;
#X obj 345 245 pack s s;
#X obj 402 153 r namepreset;
#X obj 294 155 f \$1;
#X obj 167 43 t b b b;
#X obj 570 546 t b b b;
#X text 807 297 -> !!! per 12;
#X obj 716 628 symbol;
#X obj 756 655 pack s s;
#X obj 827 582 r namepreset;
#X obj 662 578 f \$1;
#X obj 152 163 print bng;
#X obj 819 618 symbol;
#X msg 319 272 \; \$1 write presets/\$2-\$1.txt;
#X msg 750 686 \; \$1 read presets/\$2-\$1.txt;
#X msg 294 182 \$1-grlpreset;
#X obj 332 516 tabwrite \$1-grlpreset;
#X msg 675 604 \$1-grlpreset;
#X obj 449 736 tabread \$1-grlpreset;
#X obj 645 403 f;
#X obj 674 442 f;
#X obj 675 404 inlet gui12;
#X obj 634 365 inlet gui11;
#X msg 133 82 36;
#X obj 336 49 * 36;
#X obj 334 72 - 36;
#X obj 66 240 mod 36;
#X msg 528 575 36;
#N canvas 52 160 1064 314 router_1inxouuuuuuuuuuuuuuuuuuuuuut 0;
#X obj 231 27 inlet one;
#X obj 339 23 inlet route123;
#X obj 35 211 outlet one;
#X obj 82 236 outlet two;
#X obj 126 212 outlet three;
#X obj 171 237 outlet four;
#X obj 229 212 outlet five;
#X obj 268 238 outlet six;
#X obj 323 211 outlet seven;
#X obj 358 237 outlet eigth;
#X obj 426 212 outlet nine;
#X obj 466 237 outlet ten;
#X obj 361 83 pack;
#X obj 296 57 mod 36;
#X obj 526 211 outlet elf;
#X obj 551 235 outlet twa;
#X obj 612 210 outlet der;
#X obj 638 234 outlet veert;
#X obj 712 209 outlet vijft;
#X obj 741 233 outlet zest;
#X obj 923 71 unpack;
#X obj 302 116 route 1 2 3 4 5 6 7 8 9 10 11 12 13 14 15 16 17 18;
#X obj 822 208 outlet zevent;
#X obj 851 232 outlet achtt;
#X connect 0 0 13 0;
#X connect 1 0 12 1;
#X connect 12 0 21 0;
#X connect 13 0 12 0;
#X connect 21 0 2 0;
#X connect 21 1 3 0;
#X connect 21 2 4 0;
#X connect 21 3 5 0;
#X connect 21 4 6 0;
#X connect 21 5 7 0;
#X connect 21 6 8 0;
#X connect 21 7 9 0;
#X connect 21 8 10 0;
#X connect 21 9 11 0;
#X connect 21 10 14 0;
#X connect 21 11 15 0;
#X connect 21 12 16 0;
#X connect 21 13 17 0;
#X connect 21 14 18 0;
#X connect 21 15 19 0;
#X connect 21 16 22 0;
#X connect 21 17 23 0;
#X restore 444 773 pd router_1inxouuuuuuuuuuuuuuuuuuuuuut;
#X obj 603 827 outlet gui11;
#X obj 661 849 outlet gui12;
#X obj 715 828 outlet gui13;
#X obj 765 849 outlet gui14;
#X obj 811 826 outlet gui15;
#X obj 869 848 outlet gui16;
#X obj 783 404 f;
#X obj 813 445 f;
#X obj 909 409 f;
#X obj 938 448 f;
#X obj 772 366 inlet gui13;
#X obj 814 407 inlet gui14;
#X obj 898 371 inlet gui15;
#X obj 939 410 inlet gui16;
#X obj 251 319 select 1 2 3 4 5 6 7 8 9 10 11 12 13 14 15 16 17 18
;
#X obj 1035 408 f;
#X obj 1064 447 f;
#X obj 1024 370 inlet gui17;
#X obj 1065 409 inlet gui18;
#X obj 928 824 outlet gui17;
#X obj 986 846 outlet gui18;
#X connect 0 0 18 1;
#X connect 1 0 19 1;
#X connect 2 0 16 1;
#X connect 3 0 17 1;
#X connect 4 0 14 1;
#X connect 5 0 15 1;
#X connect 6 0 12 1;
#X connect 7 0 13 1;
#X connect 8 0 10 1;
#X connect 9 0 11 1;
#X connect 10 0 68 0;
#X connect 11 0 68 0;
#X connect 12 0 68 0;
#X connect 13 0 68 0;
#X connect 14 0 68 0;
#X connect 15 0 68 0;
#X connect 16 0 68 0;
#X connect 17 0 68 0;
#X connect 18 0 68 0;
#X connect 19 0 68 0;
#X connect 20 0 22 0;
#X connect 21 0 22 1;
#X connect 21 0 43 0;
#X connect 22 0 21 0;
#X connect 23 0 20 0;
#X connect 24 0 57 0;
#X connect 25 0 56 0;
#X connect 36 0 38 0;
#X connect 37 0 38 1;
#X connect 37 0 42 0;
#X connect 38 0 37 0;
#X connect 39 0 22 1;
#X connect 40 0 76 0;
#X connect 41 0 38 1;
#X connect 42 0 80 0;
#X connect 42 1 70 0;
#X connect 43 0 78 0;
#X connect 43 1 68 1;
#X connect 44 0 57 0;
#X connect 51 0 53 0;
#X connect 52 0 53 1;
#X connect 53 0 65 0;
#X connect 54 0 52 0;
#X connect 55 0 67 0;
#X connect 56 0 55 0;
#X connect 56 0 63 0;
#X connect 56 1 75 0;
#X connect 56 2 39 0;
#X connect 57 0 79 0;
#X connect 57 1 41 0;
#X connect 57 2 62 0;
#X connect 59 0 60 0;
#X connect 60 0 66 0;
#X connect 61 0 64 0;
#X connect 62 0 69 0;
#X connect 64 0 60 1;
#X connect 67 0 51 0;
#X connect 69 0 59 0;
#X connect 70 0 80 1;
#X connect 71 0 68 0;
#X connect 72 0 68 0;
#X connect 73 0 72 1;
#X connect 74 0 71 1;
#X connect 75 0 20 0;
#X connect 76 0 77 0;
#X connect 77 0 39 1;
#X connect 77 0 41 1;
#X connect 78 0 95 0;
#X connect 79 0 36 0;
#X connect 80 0 26 0;
#X connect 80 1 27 0;
#X connect 80 2 28 0;
#X connect 80 3 29 0;
#X connect 80 4 31 0;
#X connect 80 5 30 0;
#X connect 80 6 32 0;
#X connect 80 7 33 0;
#X connect 80 8 34 0;
#X connect 80 9 35 0;
#X connect 80 10 81 0;
#X connect 80 11 82 0;
#X connect 80 12 83 0;
#X connect 80 13 84 0;
#X connect 80 14 85 0;
#X connect 80 15 86 0;
#X connect 80 16 100 0;
#X connect 80 17 101 0;
#X connect 87 0 68 0;
#X connect 88 0 68 0;
#X connect 89 0 68 0;
#X connect 90 0 68 0;
#X connect 91 0 87 1;
#X connect 92 0 88 1;
#X connect 93 0 89 1;
#X connect 94 0 90 1;
#X connect 95 0 18 0;
#X connect 95 1 19 0;
#X connect 95 2 16 0;
#X connect 95 3 17 0;
#X connect 95 4 14 0;
#X connect 95 5 15 0;
#X connect 95 6 12 0;
#X connect 95 7 13 0;
#X connect 95 8 10 0;
#X connect 95 9 11 0;
#X connect 95 10 71 0;
#X connect 95 11 72 0;
#X connect 95 12 87 0;
#X connect 95 13 88 0;
#X connect 95 14 89 0;
#X connect 95 15 90 0;
#X connect 95 16 96 0;
#X connect 95 17 97 0;
#X connect 96 0 68 0;
#X connect 97 0 68 0;
#X connect 98 0 96 1;
#X connect 99 0 97 1;
#X restore 349 204 pd save_preset_arrrrrrrrrrrrrrrrray;
#X obj 791 59 r \$1-grlsautorec;
#X obj 723 341 s \$1-grlrautorec;
#X obj 771 39 r \$1-grlsuse;
#X obj 689 321 s \$1-grlruse;
#X obj 813 79 r \$1-grlsden;
#X obj 762 364 s \$1-grlrden;
#X obj 593 32 r \$1-grlsrndp;
#X obj 470 75 r \$1-grlsp;
#X obj 423 370 s \$1-grlrp;
#X obj 537 320 s \$1-grlrrndp;
#X obj 944 38 r \$1-grlsorip;
#X obj 857 309 s \$1-grlrorip;
#X obj 955 57 r \$1-grlsfrz;
#X obj 898 330 s \$1-grlrfrz;
#X connect 0 0 20 0;
#X connect 1 0 20 6;
#X connect 2 0 20 2;
#X connect 3 0 20 10;
#X connect 4 0 20 11;
#X connect 5 0 20 3;
#X connect 6 0 20 7;
#X connect 7 0 20 1;
#X connect 8 0 20 4;
#X connect 9 0 20 5;
#X connect 20 0 10 0;
#X connect 20 1 11 0;
#X connect 20 2 12 0;
#X connect 20 3 13 0;
#X connect 20 4 14 0;
#X connect 20 5 19 0;
#X connect 20 6 15 0;
#X connect 20 7 16 0;
#X connect 20 8 29 0;
#X connect 20 9 30 0;
#X connect 20 10 18 0;
#X connect 20 11 17 0;
#X connect 20 12 24 0;
#X connect 20 13 22 0;
#X connect 20 14 26 0;
#X connect 20 15 32 0;
#X connect 20 16 34 0;
#X connect 21 0 20 13;
#X connect 23 0 20 12;
#X connect 25 0 20 14;
#X connect 27 0 20 9;
#X connect 28 0 20 8;
#X connect 31 0 20 15;
#X connect 33 0 20 16;
#X restore 670 328 pd allpresets;
#N canvas 385 179 649 516 init 0;
#X obj 123 227 s \$1-grlron;
#X obj 93 201 s \$1-grlrlev;
#X obj 70 254 s \$1-grlrtempo;
#X obj 181 275 s \$1-grlrrndtem;
#X obj 258 165 s \$1-grlrlen;
#X obj 134 158 s \$1-grlrpos;
#X obj 260 244 s \$1-grlrrndpos;
#X obj 340 288 s \$1-grlrdec;
#X obj 228 307 s \$1-grlratt;
#X msg 234 78 0;
#X msg 77 130 90;
#X msg 192 79 0.2;
#X obj 208 203 s \$1-grlrrndlen;
#X msg 290 66 150;
#X obj 123 355 s \$1-grlrautorec;
#X obj 170 381 s \$1-grlruse;
#X obj 437 171 s \$1-grlrden;
#X msg 408 113 1;
#X obj 203 13 loadbang;
#X obj 510 290 s \$1-grlrorip;
#X msg 479 66 69;
#X obj 300 19 t b b b;
#X obj 350 214 s \$1-grlrrndp;
#X obj 510 129 s \$1-grlrp;
#X obj 336 72 del 50;
#X msg 129 111 250;
#X msg 308 423 5;
#X obj 312 456 s \$1-grlxarraysec;
#X text 346 424 length of array for delay in seconds;
#X connect 9 0 0 0;
#X connect 9 0 3 0;
#X connect 9 0 6 0;
#X connect 9 0 12 0;
#X connect 9 0 14 0;
#X connect 9 0 15 0;
#X connect 9 0 22 0;
#X connect 10 0 1 0;
#X connect 10 0 2 0;
#X connect 11 0 8 0;
#X connect 11 0 7 0;
#X connect 13 0 4 0;
#X connect 17 0 16 0;
#X connect 18 0 21 0;
#X connect 20 0 19 0;
#X connect 20 0 23 0;
#X connect 21 0 24 0;
#X connect 21 1 20 0;
#X connect 21 1 13 0;
#X connect 21 1 9 0;
#X connect 21 1 11 0;
#X connect 21 1 25 0;
#X connect 21 1 10 0;
#X connect 21 1 26 0;
#X connect 21 2 17 0;
#X connect 24 0 17 0;
#X connect 25 0 5 0;
#X connect 26 0 27 0;
#X restore 669 274 pd init;
#X obj 482 291 f \$1;
#X obj 478 343 symbol;
#X msg 478 368 \; \$1 vis 1;
#X obj 727 21 inlet pos;
#X obj 736 76 * 0.787;
#X obj 735 105 s \$1-grlrpos;
#X obj 621 22 inlet tmp;
#X obj 552 57 inlet lev;
#X obj 672 48 inlet rtmp;
#X obj 777 46 inlet rpos;
#X obj 614 103 s \$1-grlrtempo;
#X obj 598 130 s \$1-grlrrndtem;
#X obj 813 133 s \$1-grlrlen;
#X obj 818 179 s \$1-grlrrndlen;
#X obj 551 87 * 0.787;
#X obj 670 78 * 0.787;
#X obj 635 59 * 4;
#X obj 766 129 / 256;
#X obj 719 157 s \$1-grlrrndpos;
#X obj 812 21 inlet len;
#X obj 804 75 * 4;
#X obj 838 106 + 2;
#X obj 866 47 inlet rlen;
#X obj 966 73 / 256;
#X obj 381 529 loadbang;
#X obj 32 548 t f f;
#X msg 372 552 20;
#X obj 481 266 r \$1-grlsextraoptions;
#X msg 479 317 pd-\$1-extragrainlive;
#N canvas 726 456 437 147 \$1-extragrainlive 0;
#X obj 17 299 tgl 15 0 empty empty play_sync_with_ext_clock 17 7 0
10 -262144 -1 -1 0 1;
#X text 45 276 ---werkt nog niet / not working yet---:;
#X obj 24 71 bng 15 250 50 0 printreceives empty print_all_receives
17 7 0 10 -262144 -1 -1;
#X obj 22 22 bng 15 250 50 0 \$1-grlprintreceives empty print_names_of_receives
17 7 0 10 -262144 -1 -1;
#X text 77 92 (of all objects in open files);
#X text 76 45 (of this 'grain-live' object);
#X restore 481 411 pd \$1-extragrainlive;
#X obj 352 943 / 100;
#N canvas 400 44 600 683 density1 0;
#X obj 59 388 f -1;
#X obj 119 389 + 1;
#X text 262 24 max voices;
#X text 430 45 active voices;
#X text 222 57 density;
#X obj 293 171 *;
#X obj 177 131 t f f;
#X obj 339 113 t b f;
#X obj 305 232 select 1;
#X obj 182 332 f;
#X text 34 626 if density*active_voices > max voices \, then density
= maxvoices/active voices;
#X obj 341 284 /;
#X obj 338 309 int;
#X floatatom 221 362 5 0 0 0 - - -;
#X floatatom 399 204 5 0 0 0 - - -;
#X floatatom 434 256 5 0 0 0 - - -;
#X obj 295 202 <;
#X obj 352 257 bang;
#X obj 156 366 max 1;
#X obj 11 275 inlet bangmetro;
#X obj 76 26 inlet density;
#X obj 292 42 inlet maxvoices;
#X obj 425 19 inlet activevoices;
#X obj 54 528 outlet;
#X floatatom 308 350 5 0 0 0 - - -;
#X obj 185 431 outlet density-adjusted;
#X text 209 381 density = 1 -> per 1 tellen;
#X text 203 397 density 1 = densiteit 0;
#X text 42 565 density is adjusted to the number of active voices \,
density is always clipped to maximum number of voices / number of active
voices.;
#X obj 176 77 + 1;
#X obj 76 53 moses 1.00001;
#X obj 175 106 int;
#X text 170 493 to avoid huge numbers in pd density2;
#X obj 54 490 mod 100000;
#X connect 0 0 1 0;
#X connect 0 0 33 0;
#X connect 1 0 0 1;
#X connect 5 0 16 0;
#X connect 6 0 5 0;
#X connect 6 1 9 1;
#X connect 7 0 5 0;
#X connect 7 1 5 1;
#X connect 7 1 11 1;
#X connect 8 0 9 0;
#X connect 8 1 17 0;
#X connect 9 0 18 0;
#X connect 11 0 12 0;
#X connect 12 0 9 0;
#X connect 16 0 8 0;
#X connect 17 0 11 0;
#X connect 18 0 1 1;
#X connect 18 0 25 0;
#X connect 19 0 0 0;
#X connect 20 0 30 0;
#X connect 21 0 16 1;
#X connect 21 0 11 0;
#X connect 22 0 7 0;
#X connect 29 0 31 0;
#X connect 30 0 31 0;
#X connect 30 1 29 0;
#X connect 31 0 6 0;
#X connect 33 0 23 0;
#X restore 25 654 pd density1;
#X obj 192 571 r \$1-grlsden;
#N canvas 19 39 1006 871 density2 0;
#X obj 31 26 inlet counter;
#N canvas 221 295 1108 358 router_1inxout 0;
#X obj 231 27 inlet one;
#X obj 339 23 inlet route123;
#X obj 34 211 outlet one;
#X obj 128 211 outlet two;
#X obj 216 215 outlet three;
#X obj 320 212 outlet four;
#X obj 414 209 outlet five;
#X obj 510 212 outlet six;
#X obj 599 208 outlet seven;
#X obj 705 210 outlet eigth;
#X obj 807 215 outlet nine;
#X obj 908 213 outlet ten;
#X obj 278 109 pack;
#X obj 248 83 f;
#X obj 231 52 t b f;
#X text 330 45 inlet two deosn't trigger;
#X obj 432 105 route 1 2 3 4 5 6 7 8 9 10;
#X text 493 78 als inlet 2 = 3 \, dan in1 naar out1 out2 out3 enz...
;
#X connect 0 0 14 0;
#X connect 1 0 13 1;
#X connect 12 0 16 0;
#X connect 13 0 12 0;
#X connect 14 0 13 0;
#X connect 14 1 12 1;
#X connect 16 0 2 0;
#X connect 16 1 3 0;
#X connect 16 1 2 0;
#X connect 16 2 4 0;
#X connect 16 2 2 0;
#X connect 16 2 3 0;
#X connect 16 3 5 0;
#X connect 16 3 2 0;
#X connect 16 3 3 0;
#X connect 16 3 4 0;
#X connect 16 4 6 0;
#X connect 16 4 2 0;
#X connect 16 4 3 0;
#X connect 16 4 4 0;
#X connect 16 4 5 0;
#X connect 16 5 7 0;
#X connect 16 5 2 0;
#X connect 16 5 3 0;
#X connect 16 5 4 0;
#X connect 16 5 5 0;
#X connect 16 5 6 0;
#X connect 16 6 8 0;
#X connect 16 6 2 0;
#X connect 16 6 3 0;
#X connect 16 6 4 0;
#X connect 16 6 5 0;
#X connect 16 6 6 0;
#X connect 16 6 7 0;
#X connect 16 7 9 0;
#X connect 16 7 2 0;
#X connect 16 7 3 0;
#X connect 16 7 4 0;
#X connect 16 7 5 0;
#X connect 16 7 6 0;
#X connect 16 7 7 0;
#X connect 16 7 8 0;
#X connect 16 8 10 0;
#X connect 16 8 2 0;
#X connect 16 8 3 0;
#X connect 16 8 4 0;
#X connect 16 8 5 0;
#X connect 16 8 6 0;
#X connect 16 8 7 0;
#X connect 16 8 8 0;
#X connect 16 8 9 0;
#X connect 16 9 7 0;
#X connect 16 9 8 0;
#X connect 16 9 9 0;
#X connect 16 9 11 0;
#X connect 16 9 2 0;
#X connect 16 9 3 0;
#X connect 16 9 4 0;
#X connect 16 9 5 0;
#X connect 16 9 6 0;
#X connect 16 9 10 0;
#X restore 58 215 pd router_1inxout;
#X obj 796 382 r \$1-grlstempo;
#X obj 682 21 r \$1-grlnrvoices;
#X obj 89 262 + 1;
#X obj 148 255 + 2;
#X obj 182 256 + 3;
#X obj 240 261 + 4;
#X obj 329 266 + 5;
#X obj 373 268 + 6;
#X obj 424 268 + 7;
#X obj 462 265 + 8;
#X obj 516 265 + 9;
#X text 674 430 max. variatie in tijd door density;
#X obj 102 610 pipe;
#X obj 150 608 pipe;
#X obj 175 497 random;
#X obj 233 608 pipe;
#X obj 234 498 random;
#X obj 279 610 pipe;
#X obj 292 497 random;
#X obj 335 609 pipe;
#X obj 350 498 random;
#X obj 395 609 pipe;
#X obj 408 496 random;
#X obj 452 608 pipe;
#X obj 467 497 random;
#X obj 512 610 pipe;
#X obj 525 495 random;
#X obj 569 609 pipe;
#X obj 584 498 random;
#X obj 537 419 t f b;
#X obj 485 416 t f b;
#X obj 436 418 t f b;
#X obj 384 415 t f b;
#X obj 335 419 t f b;
#X obj 191 413 t f b;
#X obj 289 418 t f b;
#X obj 146 410 t f b;
#X obj 98 410 t f b;
#X obj 264 720 outlet;
#X obj 544 163 s \$1-grlactvoices;
#X obj 425 659 inlet maxvoices;
#X obj 541 52 t b f;
#X obj 487 192 r \$1-grlsden;
#X obj 649 347 t b f;
#X obj 485 219 f;
#X obj 549 134 int;
#N canvas 747 28 349 439 fil 0;
#X obj 12 28 inlet;
#X obj 38 393 outlet;
#X obj 203 14 inlet;
#X obj 113 322 spigot;
#X obj 37 324 spigot;
#X obj 130 165 spigot;
#X obj 152 132 == 0;
#X obj 202 141 * 100;
#X obj 134 281 < 0;
#X text 116 103 !!!;
#X obj 238 80 int;
#X obj 216 107 -;
#X obj 198 47 t f f;
#X obj 134 246 random 100;
#X obj 135 205 t f b;
#X obj 77 104 >= 9;
#X connect 0 0 4 0;
#X connect 0 0 5 0;
#X connect 2 0 12 0;
#X connect 2 0 15 0;
#X connect 3 0 1 0;
#X connect 4 0 1 0;
#X connect 5 0 14 0;
#X connect 6 0 5 1;
#X connect 7 0 8 1;
#X connect 8 0 3 1;
#X connect 10 0 11 1;
#X connect 11 0 7 0;
#X connect 12 0 11 0;
#X connect 12 1 10 0;
#X connect 13 0 8 0;
#X connect 14 0 3 0;
#X connect 14 1 13 0;
#X connect 15 0 4 1;
#X connect 15 0 6 0;
#X restore 483 333 pd fil;
#N canvas 747 28 349 439 fil 0;
#X obj 12 28 inlet;
#X obj 38 393 outlet;
#X obj 203 14 inlet;
#X obj 113 322 spigot;
#X obj 37 324 spigot;
#X obj 130 165 spigot;
#X obj 152 132 == 0;
#X obj 202 141 * 100;
#X obj 134 281 < 0;
#X text 116 103 !!!;
#X obj 238 80 int;
#X obj 216 107 -;
#X obj 198 47 t f f;
#X obj 134 246 random 100;
#X obj 135 205 t f b;
#X obj 76 104 >= 8;
#X connect 0 0 4 0;
#X connect 0 0 5 0;
#X connect 2 0 12 0;
#X connect 2 0 15 0;
#X connect 3 0 1 0;
#X connect 4 0 1 0;
#X connect 5 0 14 0;
#X connect 6 0 5 1;
#X connect 7 0 8 1;
#X connect 8 0 3 1;
#X connect 10 0 11 1;
#X connect 11 0 7 0;
#X connect 12 0 11 0;
#X connect 12 1 10 0;
#X connect 13 0 8 0;
#X connect 14 0 3 0;
#X connect 14 1 13 0;
#X connect 15 0 4 1;
#X connect 15 0 6 0;
#X restore 418 327 pd fil;
#N canvas 747 28 349 439 fil 0;
#X obj 12 28 inlet;
#X obj 38 393 outlet;
#X obj 203 14 inlet;
#X obj 113 322 spigot;
#X obj 37 324 spigot;
#X obj 130 165 spigot;
#X obj 152 132 == 0;
#X obj 202 141 * 100;
#X obj 134 281 < 0;
#X text 116 103 !!!;
#X obj 238 80 int;
#X obj 216 107 -;
#X obj 198 47 t f f;
#X obj 134 246 random 100;
#X obj 135 205 t f b;
#X obj 76 104 >= 7;
#X connect 0 0 4 0;
#X connect 0 0 5 0;
#X connect 2 0 12 0;
#X connect 2 0 15 0;
#X connect 3 0 1 0;
#X connect 4 0 1 0;
#X connect 5 0 14 0;
#X connect 6 0 5 1;
#X connect 7 0 8 1;
#X connect 8 0 3 1;
#X connect 10 0 11 1;
#X connect 11 0 7 0;
#X connect 12 0 11 0;
#X connect 12 1 10 0;
#X connect 13 0 8 0;
#X connect 14 0 3 0;
#X connect 14 1 13 0;
#X connect 15 0 4 1;
#X connect 15 0 6 0;
#X restore 361 328 pd fil;
#N canvas 747 28 349 439 fil 0;
#X obj 12 28 inlet;
#X obj 38 393 outlet;
#X obj 203 14 inlet;
#X obj 113 322 spigot;
#X obj 37 324 spigot;
#X obj 130 165 spigot;
#X obj 152 132 == 0;
#X obj 202 141 * 100;
#X obj 134 281 < 0;
#X text 116 103 !!!;
#X obj 238 80 int;
#X obj 216 107 -;
#X obj 198 47 t f f;
#X obj 134 246 random 100;
#X obj 135 205 t f b;
#X obj 76 104 >= 6;
#X connect 0 0 4 0;
#X connect 0 0 5 0;
#X connect 2 0 12 0;
#X connect 2 0 15 0;
#X connect 3 0 1 0;
#X connect 4 0 1 0;
#X connect 5 0 14 0;
#X connect 6 0 5 1;
#X connect 7 0 8 1;
#X connect 8 0 3 1;
#X connect 10 0 11 1;
#X connect 11 0 7 0;
#X connect 12 0 11 0;
#X connect 12 1 10 0;
#X connect 13 0 8 0;
#X connect 14 0 3 0;
#X connect 14 1 13 0;
#X connect 15 0 4 1;
#X connect 15 0 6 0;
#X restore 302 333 pd fil;
#N canvas 51 269 357 447 fil 0;
#X obj 12 28 inlet;
#X obj 38 393 outlet;
#X obj 203 14 inlet;
#X obj 113 322 spigot;
#X obj 37 324 spigot;
#X obj 130 165 spigot;
#X obj 152 132 == 0;
#X obj 202 141 * 100;
#X obj 134 281 < 0;
#X text 116 103 !!!;
#X obj 238 80 int;
#X obj 216 107 -;
#X obj 198 47 t f f;
#X obj 134 246 random 100;
#X obj 135 205 t f b;
#X obj 76 104 >= 3;
#X connect 0 0 4 0;
#X connect 0 0 5 0;
#X connect 2 0 12 0;
#X connect 2 0 15 0;
#X connect 3 0 1 0;
#X connect 4 0 1 0;
#X connect 5 0 14 0;
#X connect 6 0 5 1;
#X connect 7 0 8 1;
#X connect 8 0 3 1;
#X connect 10 0 11 1;
#X connect 11 0 7 0;
#X connect 12 0 11 0;
#X connect 12 1 10 0;
#X connect 13 0 8 0;
#X connect 14 0 3 0;
#X connect 14 1 13 0;
#X connect 15 0 4 1;
#X connect 15 0 6 0;
#X restore 124 338 pd fil;
#N canvas 747 28 349 439 fil 0;
#X obj 12 28 inlet;
#X obj 38 393 outlet;
#X obj 203 14 inlet;
#X obj 113 322 spigot;
#X obj 37 324 spigot;
#X obj 130 165 spigot;
#X obj 152 132 == 0;
#X obj 202 141 * 100;
#X obj 134 281 < 0;
#X text 116 103 !!!;
#X obj 238 80 int;
#X obj 216 107 -;
#X obj 198 47 t f f;
#X obj 134 246 random 100;
#X obj 135 205 t f b;
#X obj 76 104 >= 5;
#X connect 0 0 4 0;
#X connect 0 0 5 0;
#X connect 2 0 12 0;
#X connect 2 0 15 0;
#X connect 3 0 1 0;
#X connect 4 0 1 0;
#X connect 5 0 14 0;
#X connect 6 0 5 1;
#X connect 7 0 8 1;
#X connect 8 0 3 1;
#X connect 10 0 11 1;
#X connect 11 0 7 0;
#X connect 12 0 11 0;
#X connect 12 1 10 0;
#X connect 13 0 8 0;
#X connect 14 0 3 0;
#X connect 14 1 13 0;
#X connect 15 0 4 1;
#X connect 15 0 6 0;
#X restore 243 335 pd fil;
#N canvas 747 28 349 439 fil 0;
#X obj 12 28 inlet;
#X obj 38 393 outlet;
#X obj 203 14 inlet;
#X obj 113 322 spigot;
#X obj 37 324 spigot;
#X obj 130 165 spigot;
#X obj 152 132 == 0;
#X obj 202 141 * 100;
#X obj 134 281 < 0;
#X text 116 103 !!!;
#X obj 238 80 int;
#X obj 216 107 -;
#X obj 198 47 t f f;
#X obj 134 246 random 100;
#X obj 135 205 t f b;
#X obj 76 104 >= 4;
#X connect 0 0 4 0;
#X connect 0 0 5 0;
#X connect 2 0 12 0;
#X connect 2 0 15 0;
#X connect 3 0 1 0;
#X connect 4 0 1 0;
#X connect 5 0 14 0;
#X connect 6 0 5 1;
#X connect 7 0 8 1;
#X connect 8 0 3 1;
#X connect 10 0 11 1;
#X connect 11 0 7 0;
#X connect 12 0 11 0;
#X connect 12 1 10 0;
#X connect 13 0 8 0;
#X connect 14 0 3 0;
#X connect 14 1 13 0;
#X connect 15 0 4 1;
#X connect 15 0 6 0;
#X restore 184 338 pd fil;
#N canvas 897 4 389 479 fil 0;
#X obj 12 28 inlet;
#X obj 38 393 outlet;
#X obj 203 14 inlet;
#X obj 113 322 spigot;
#X obj 37 324 spigot;
#X obj 130 165 spigot;
#X obj 152 132 == 0;
#X obj 202 141 * 100;
#X obj 134 281 < 0;
#X text 125 72 !!!;
#X obj 238 80 int;
#X obj 216 107 -;
#X obj 198 47 t f f;
#X obj 134 246 random 100;
#X obj 135 205 t f b;
#X obj 87 73 >= 2;
#X floatatom 191 325 5 0 0 0 - - -;
#X floatatom 210 196 5 0 0 0 - - -;
#X floatatom 230 295 5 0 0 0 - - -;
#X floatatom 87 207 5 0 0 0 - - -;
#X connect 0 0 4 0;
#X connect 0 0 5 0;
#X connect 2 0 12 0;
#X connect 2 0 15 0;
#X connect 3 0 1 0;
#X connect 4 0 1 0;
#X connect 5 0 14 0;
#X connect 5 0 19 0;
#X connect 6 0 5 1;
#X connect 7 0 8 1;
#X connect 8 0 3 1;
#X connect 10 0 11 1;
#X connect 11 0 7 0;
#X connect 12 0 11 0;
#X connect 12 1 10 0;
#X connect 13 0 8 0;
#X connect 14 0 3 0;
#X connect 14 1 13 0;
#X connect 15 0 4 1;
#X connect 15 0 6 0;
#X restore 64 335 pd fil;
#N canvas 747 28 349 439 fil 0;
#X obj 12 28 inlet;
#X obj 38 393 outlet;
#X obj 203 14 inlet;
#X obj 113 322 spigot;
#X obj 37 324 spigot;
#X obj 130 165 spigot;
#X obj 152 132 == 0;
#X obj 202 141 * 100;
#X obj 134 281 < 0;
#X text 116 103 !!!;
#X obj 238 80 int;
#X obj 216 107 -;
#X obj 198 47 t f f;
#X obj 134 246 random 100;
#X obj 135 205 t f b;
#X obj 76 104 >= 10;
#X connect 0 0 4 0;
#X connect 0 0 5 0;
#X connect 2 0 12 0;
#X connect 2 0 15 0;
#X connect 3 0 1 0;
#X connect 4 0 1 0;
#X connect 5 0 14 0;
#X connect 6 0 5 1;
#X connect 7 0 8 1;
#X connect 8 0 3 1;
#X connect 10 0 11 1;
#X connect 11 0 7 0;
#X connect 12 0 11 0;
#X connect 12 1 10 0;
#X connect 13 0 8 0;
#X connect 14 0 3 0;
#X connect 14 1 13 0;
#X connect 15 0 4 1;
#X connect 15 0 6 0;
#X restore 545 332 pd fil;
#X obj 546 81 *;
#X obj 683 133 outlet amplitude;
#X obj 169 23 inlet densityadjusted;
#X obj 533 17 inlet activevoices;
#X obj 551 108 + 0.9999;
#X text 623 106 -> altijd naar boven afronden;
#X floatatom 216 165 5 0 0 0 - - -;
#X obj 21 604 f;
#X obj 643 223 - 1;
#X text 675 221 want density 1 = geen density;
#X text 699 235 (zie subpatch density1);
#X text 664 271 maximum van schuiver density;
#X obj 653 323 / 10;
#X obj 656 535 *;
#X obj 694 379 min 0.5;
#X text 31 745 \$1-grlactvoices = totaal aantal nodige stemmen (actief
aantal stemmen * density);
#X obj 159 92 int;
#X text 190 94 naar beneden afronden;
#X floatatom 618 64 5 0 0 0 - - -;
#X obj 705 461 inlet bruikbaar_tempo;
#X text 657 585 bij vb density = 2.25 wordt maar 25%;
#X text 655 602 doorgelaten naar density uitgang 3;
#X obj 266 696 mod;
#X floatatom 178 61 5 0 0 0 - - -;
#X floatatom 495 117 5 0 0 0 - - -;
#X floatatom 769 522 5 0 0 0 - - -;
#X floatatom 766 487 5 0 0 0 - - -;
#X obj 117 499 random;
#X msg 251 457 100;
#X obj 241 385 loadbang;
#X obj 541 757 print t;
#X obj 706 770 print tx;
#X obj 608 758 print del;
#X obj 711 748 mod;
#X obj 564 718 mod;
#X floatatom 134 675 5 0 0 0 - - -;
#X obj 118 529 * 0.01;
#X obj 179 526 * 0.01;
#X obj 240 526 * 0.01;
#X obj 296 524 * 0.01;
#X obj 356 526 * 0.01;
#X obj 408 529 * 0.01;
#X obj 464 528 * 0.01;
#X obj 523 530 * 0.01;
#X obj 582 528 * 0.01;
#X obj 118 565 *;
#X obj 177 568 *;
#X obj 239 565 *;
#X obj 304 568 *;
#X obj 372 569 *;
#X obj 412 569 *;
#X obj 468 567 *;
#X obj 522 568 *;
#X obj 584 572 *;
#X connect 0 0 1 0;
#X connect 1 0 64 0;
#X connect 1 1 4 0;
#X connect 1 2 5 0;
#X connect 1 3 6 0;
#X connect 1 4 7 0;
#X connect 1 5 8 0;
#X connect 1 6 9 0;
#X connect 1 7 10 0;
#X connect 1 8 11 0;
#X connect 1 9 12 0;
#X connect 4 0 55 0;
#X connect 5 0 52 0;
#X connect 6 0 54 0;
#X connect 7 0 53 0;
#X connect 8 0 51 0;
#X connect 9 0 50 0;
#X connect 10 0 49 0;
#X connect 11 0 48 0;
#X connect 12 0 56 0;
#X connect 14 0 79 0;
#X connect 15 0 79 0;
#X connect 16 0 94 0;
#X connect 17 0 79 0;
#X connect 18 0 95 0;
#X connect 19 0 79 0;
#X connect 20 0 96 0;
#X connect 21 0 79 0;
#X connect 22 0 97 0;
#X connect 23 0 79 0;
#X connect 24 0 98 0;
#X connect 25 0 79 0;
#X connect 26 0 99 0;
#X connect 27 0 79 0;
#X connect 28 0 100 0;
#X connect 29 0 79 0;
#X connect 30 0 101 0;
#X connect 31 0 29 0;
#X connect 31 1 30 0;
#X connect 32 0 27 0;
#X connect 32 1 28 0;
#X connect 33 0 25 0;
#X connect 33 1 26 0;
#X connect 34 0 23 0;
#X connect 34 1 24 0;
#X connect 35 0 21 0;
#X connect 35 1 22 0;
#X connect 36 0 17 0;
#X connect 36 1 18 0;
#X connect 37 0 19 0;
#X connect 37 1 20 0;
#X connect 38 0 15 0;
#X connect 38 1 16 0;
#X connect 39 0 14 0;
#X connect 39 1 84 0;
#X connect 42 0 79 1;
#X connect 42 0 91 1;
#X connect 42 0 90 1;
#X connect 43 0 57 0;
#X connect 43 1 57 1;
#X connect 44 0 65 0;
#X connect 44 0 46 0;
#X connect 45 0 70 0;
#X connect 45 1 71 0;
#X connect 46 0 55 1;
#X connect 46 0 52 1;
#X connect 46 0 54 1;
#X connect 46 0 53 1;
#X connect 46 0 51 1;
#X connect 46 0 50 1;
#X connect 46 0 49 1;
#X connect 46 0 48 1;
#X connect 46 0 56 1;
#X connect 47 0 41 0;
#X connect 48 0 32 0;
#X connect 49 0 33 0;
#X connect 50 0 34 0;
#X connect 51 0 35 0;
#X connect 52 0 38 0;
#X connect 53 0 37 0;
#X connect 54 0 36 0;
#X connect 55 0 39 0;
#X connect 56 0 31 0;
#X connect 57 0 58 0;
#X connect 57 0 61 0;
#X connect 59 0 57 0;
#X connect 59 0 73 0;
#X connect 60 0 43 0;
#X connect 61 0 47 0;
#X connect 64 0 79 0;
#X connect 65 0 69 0;
#X connect 69 0 45 0;
#X connect 70 0 102 1;
#X connect 70 0 103 1;
#X connect 70 0 104 1;
#X connect 70 0 105 1;
#X connect 70 0 110 1;
#X connect 70 0 109 1;
#X connect 70 0 108 1;
#X connect 70 0 107 1;
#X connect 70 0 106 1;
#X connect 71 0 70 1;
#X connect 73 0 1 1;
#X connect 76 0 70 0;
#X connect 79 0 40 0;
#X connect 84 0 93 0;
#X connect 85 0 18 1;
#X connect 85 0 16 1;
#X connect 85 0 84 1;
#X connect 85 0 20 1;
#X connect 85 0 22 1;
#X connect 85 0 24 1;
#X connect 85 0 26 1;
#X connect 85 0 28 1;
#X connect 85 0 30 1;
#X connect 86 0 85 0;
#X connect 90 0 88 0;
#X connect 91 0 87 0;
#X connect 93 0 102 0;
#X connect 94 0 103 0;
#X connect 95 0 104 0;
#X connect 96 0 105 0;
#X connect 97 0 106 0;
#X connect 98 0 107 0;
#X connect 99 0 108 0;
#X connect 100 0 109 0;
#X connect 101 0 110 0;
#X connect 102 0 14 1;
#X connect 103 0 15 1;
#X connect 104 0 17 1;
#X connect 105 0 19 1;
#X connect 106 0 21 1;
#X connect 107 0 23 1;
#X connect 108 0 25 1;
#X connect 109 0 27 1;
#X connect 110 0 29 1;
#X restore 86 687 pd density2;
#X floatatom 291 692 5 0 0 0 - - -;
#X obj 225 952 *~ 0.2;
#N canvas 364 0 851 734 printallreceives 0;
#X obj 35 63 f \$1;
#X obj 33 6 bng 15 250 50 0 empty empty empty 17 7 0 10 -262144 -1
-1;
#X obj 36 87 t f f;
#X obj 166 21 r \$1-grlprintreceives;
#X msg 564 214 \$1-grlron;
#X msg 376 268 \$1-grlrlev;
#X msg 263 292 \$1-grlrtempo;
#X msg 91 246 \$1-grlrrndtem;
#X msg 54 291 \$1-grlrpos;
#X msg 582 404 \$1-grlrrndpos;
#X msg 508 428 \$1-grlrlen;
#X msg 394 454 \$1-grlrrndlen;
#X msg 242 407 \$1-grlrp;
#X msg 139 432 \$1-grlrrndp;
#X msg 459 598 \$1-grlrden;
#X msg 182 623 \$1-grlrdec;
#X obj 56 164 t f f f f f f f;
#X obj -6 719 print end;
#X obj 92 136 print start;
#X msg -7 693 <<.............................[grain-live \$1];
#X msg 91 109 names of receives in [grain-live \$1]............>>;
#X obj 10 21 r printreceives;
#X obj 563 240 print on_off[0-1];
#X obj 381 293 print level[0-100];
#X obj 268 318 print tempo[1-513];
#X obj 90 272 print random_tempo[0-99];
#X obj 507 454 print length[2-500];
#X obj 122 457 print random_pitch[0-0.25];
#X obj 181 649 print decay[0.01-0.5];
#X obj 393 480 print random_length[0-1];
#X obj 458 624 print density[1-10];
#X obj 241 433 print pitch[0-127];
#X msg 25 457 \$1-grlrorip;
#X obj 8 482 print original_pitch[0-127];
#X obj 43 353 t f f f f f f f;
#X obj 27 527 t f f f f f f f f f;
#X msg 469 242 \$1-grlrfrz;
#X obj 468 268 print freeze[0-1];
#X obj 62 317 print delay_in_ms[0-999];
#X obj 602 430 print random_delay[0-0.5];
#X msg 361 624 \$1-grlratt;
#X obj 361 651 print attack[0.01-0.5];
#X connect 0 0 2 0;
#X connect 1 0 0 0;
#X connect 2 0 16 0;
#X connect 2 1 20 0;
#X connect 3 0 0 0;
#X connect 4 0 22 0;
#X connect 5 0 23 0;
#X connect 6 0 24 0;
#X connect 7 0 25 0;
#X connect 8 0 38 0;
#X connect 9 0 39 0;
#X connect 10 0 26 0;
#X connect 11 0 29 0;
#X connect 12 0 31 0;
#X connect 13 0 27 0;
#X connect 14 0 30 0;
#X connect 15 0 28 0;
#X connect 16 0 34 0;
#X connect 16 1 8 0;
#X connect 16 2 7 0;
#X connect 16 3 6 0;
#X connect 16 4 5 0;
#X connect 16 5 36 0;
#X connect 16 6 4 0;
#X connect 19 0 17 0;
#X connect 20 0 18 0;
#X connect 21 0 0 0;
#X connect 32 0 33 0;
#X connect 34 0 35 0;
#X connect 34 1 32 0;
#X connect 34 2 13 0;
#X connect 34 3 12 0;
#X connect 34 4 11 0;
#X connect 34 5 10 0;
#X connect 34 6 9 0;
#X connect 35 3 19 0;
#X connect 35 6 15 0;
#X connect 35 7 40 0;
#X connect 35 8 14 0;
#X connect 36 0 37 0;
#X connect 40 0 41 0;
#X restore 669 298 pd printallreceives;
#X obj 899 23 inlet p;
#X obj 836 79 / 127;
#X obj 966 45 inlet rndp;
#X obj 866 156 s \$1-grlrrndp;
#X obj 869 106 s \$1-grlrp;
#N canvas 335 33 859 875 foutmelding 0;
#X obj 87 38 loadbang;
#X obj 79 83 f \$1;
#X obj 73 111 select 0;
#X msg 75 197 \; \$1 vis 1;
#X msg 74 142 36;
#X text 151 150 ascii-code voor $;
#X text 197 199 als er geen argument is \, noemt de subpatch vreemd
genoeg niet pd 0-warning maar wel pd \$1-warning;
#X text 129 80 als er geen argument is geeft f \$1 een 0;
#X obj 154 336 del 100;
#X msg 319 355 1;
#X obj 238 405 spigot;
#X obj 342 453 spigot;
#X obj 409 425 == 0;
#X obj 338 423 r grain-live;
#X obj 240 489 s grain-live;
#X obj 208 305 t b b b;
#X obj 314 389 t f f;
#X obj 241 429 del 150;
#X obj 239 460 f \$1;
#X msg 169 357 0;
#X obj 378 506 == \$1;
#X obj 455 604 > 1;
#X obj 341 478 t f f;
#X obj 391 568 f 0;
#X obj 390 538 select 1;
#X obj 330 541 spigot;
#X obj 459 569 + 1;
#X obj 336 602 == \$1;
#X obj 396 628 &&;
#X obj 158 628 print pop;
#X text 487 604 groter dan 1 want vergelijking et zichzelf levert sowieso
al 1 op en dan met ev. zelfde object met identiek argument levert 2
op!;
#X obj 396 656 select 1;
#X obj 396 678 f \$1;
#X obj 398 768 symbol;
#X msg 396 795 \; \$1 vis 1;
#X obj 363 706 t f f;
#X obj 92 820 symbol;
#X obj 170 872 print;
#X obj 326 662 bng 15 250 50 0 empty empty empty 17 7 0 10 -262144
-1 -1;
#X msg 173 839 !!! these two abunch objects have the same argument
number: [grain-live \$1];
#X text 406 346 alleen net gecreerde object verstuurt waarde;
#X text 398 372 bij eerder gemaakte objecten staat spigot voor receive
open;
#N canvas 670 470 308 138 \$1-grain-livewarning 0;
#X obj -1 0 cnv 15 320 150 empty empty empty 20 12 0 14 -258699 -66577
0;
#X text 11 32 You forgot to add an unique number;
#X text 11 78 when you created this abunch object;
#X restore 349 165 pd \$1-grain-livewarning;
#N canvas 856 445 327 127 \$1-grain-livesameargument 0;
#X obj -1 0 cnv 15 330 150 empty empty empty 20 12 0 14 -258699 -66577
0;
#X msg 393 108;
#X text 314 243 is used already!!;
#X obj 344 35 inlet;
#X symbolatom 351 77 10 0 0 0 - - -;
#X obj 98 40 cnv 15 60 20 empty empty empty 20 12 0 14 -233017 -66577
0;
#X text 24 40 Create an unique number for this;
#X text 102 69 abunch object.;
#X connect 3 0 1 0;
#X connect 3 0 4 0;
#X restore 541 770 pd \$1-grain-livesameargument;
#X msg 397 738 pd-\$1-grain-livesameargument;
#X obj 74 171 makefilename pd-%c1-grain-livewarning;
#X connect 0 0 1 0;
#X connect 0 0 15 0;
#X connect 1 0 2 0;
#X connect 2 0 4 0;
#X connect 4 0 45 0;
#X connect 8 0 19 0;
#X connect 9 0 16 0;
#X connect 10 0 17 0;
#X connect 11 0 22 0;
#X connect 12 0 11 1;
#X connect 13 0 11 0;
#X connect 15 0 8 0;
#X connect 15 1 10 0;
#X connect 15 2 9 0;
#X connect 16 0 10 1;
#X connect 16 1 12 0;
#X connect 17 0 18 0;
#X connect 18 0 14 0;
#X connect 19 0 16 0;
#X connect 20 0 24 0;
#X connect 20 0 25 1;
#X connect 21 0 28 1;
#X connect 22 0 25 0;
#X connect 22 1 20 0;
#X connect 23 0 26 0;
#X connect 24 0 23 0;
#X connect 25 0 27 0;
#X connect 26 0 23 1;
#X connect 26 0 21 0;
#X connect 27 0 28 0;
#X connect 28 0 31 0;
#X connect 31 0 32 0;
#X connect 32 0 35 0;
#X connect 33 0 34 0;
#X connect 35 0 44 0;
#X connect 35 1 39 0;
#X connect 38 0 32 0;
#X connect 39 0 37 0;
#X connect 44 0 33 0;
#X connect 45 0 3 0;
#X restore 757 267 pd foutmelding;
#X obj 186 702 inlet~;
#N canvas 72 47 853 682 write-delay 0;
#X obj 42 35 inlet~;
#X obj 29 547 outlet~;
#X obj 99 567 tabwrite~ \$1-grllive;
#X obj 288 87 metro 1;
#X obj 206 5 r \$1-grlson;
#X obj 287 124 f -1;
#X obj 332 125 + 1;
#X obj 286 201 s \$1-grldeltel;
#X obj 140 47 select 0 1;
#X msg 108 490 stop;
#X msg 239 499 bang;
#X floatatom 169 183 5 0 0 0 - - -;
#X obj 260 232 select 0;
#X obj 415 10 r \$1-grlsfrz;
#X obj 421 254 select 0 1;
#X obj 292 40 t f b;
#X msg 358 88 -1;
#X obj 379 47 == 0;
#X text 459 34 freeze = metro stoppen zonder te resetten;
#X msg 158 493 start \$1;
#X obj 141 344 f;
#X obj 165 267 r \$1-grlnrsamples;
#X obj 143 370 / 1000;
#X text 213 300 grootte tabel is 1000ms/44100 samples;
#X obj 147 402 *;
#X text 328 230 op einde v tabel opnieuw beginnen opnemen;
#X obj 292 503 catch~ \$1-grltofbk;
#X text 315 484 feedback;
#X obj 289 163 mod 1000;
#X msg 163 86 set 0;
#X obj 159 116 s \$1-grlrfrz;
#X obj 658 314 r \$1-grlsamrate;
#X obj 646 407 r \$1-grlnrsamples;
#X obj 794 467 *;
#X obj 760 355 / 1000;
#X obj 768 384 t b f;
#X obj 687 438 /;
#X obj 686 465 * 1000;
#X obj 451 54 select 0;
#X obj 446 83 f;
#X text 319 369 -> lengte tabel/teller aanpassen!!!;
#X obj 265 418 s \$1-grlxtelsam;
#X obj 301 598 print;
#X obj 264 351 / 1000;
#X obj 266 392 *;
#X text 391 419 write positie in samples;
#X text 391 433 gaat naar 'grl' abstraction;
#X obj 497 130 * 1000;
#X text 362 165 grootte tabel is vb 1000ms/44100 samples \, aanpassen!!
;
#X floatatom 201 412 5 0 0 0 - - -;
#X obj 494 104 r \$1-grlxarraysec;
#X connect 0 0 1 0;
#X connect 0 0 2 0;
#X connect 3 0 5 0;
#X connect 4 0 8 0;
#X connect 4 0 15 0;
#X connect 5 0 6 0;
#X connect 6 0 5 1;
#X connect 6 0 28 0;
#X connect 8 0 9 0;
#X connect 8 0 29 0;
#X connect 9 0 2 0;
#X connect 10 0 2 0;
#X connect 12 0 10 0;
#X connect 13 0 14 0;
#X connect 13 0 17 0;
#X connect 13 0 38 0;
#X connect 14 0 20 0;
#X connect 14 1 9 0;
#X connect 15 0 3 0;
#X connect 15 0 39 1;
#X connect 15 1 16 0;
#X connect 16 0 5 1;
#X connect 17 0 3 0;
#X connect 19 0 2 0;
#X connect 20 0 22 0;
#X connect 21 0 24 1;
#X connect 21 0 44 1;
#X connect 22 0 24 0;
#X connect 24 0 19 0;
#X connect 28 0 7 0;
#X connect 28 0 12 0;
#X connect 28 0 20 1;
#X connect 28 0 43 0;
#X connect 29 0 30 0;
#X connect 31 0 34 0;
#X connect 31 0 36 1;
#X connect 32 0 36 0;
#X connect 34 0 35 0;
#X connect 35 0 33 0;
#X connect 35 1 33 1;
#X connect 36 0 37 0;
#X connect 38 0 39 0;
#X connect 43 0 44 0;
#X connect 44 0 41 0;
#X connect 47 0 28 1;
#X connect 47 0 22 1;
#X connect 47 0 43 1;
#X connect 50 0 47 0;
#X restore 200 772 pd write-delay;
#N canvas 0 0 539 254 showtable 0;
#X obj 22 450 hsl 300 10 0 1 0 0 empty \$1-grlrindex empty 1 -8 0 10
-262144 -1 -1 0 1;
#N canvas 0 0 450 300 (subpatch) 0;
#X array \$1-grllive 220503 float 2;
#X coords 0 1 220503 -1 300 100 1;
#X restore 20 106 graph;
#X text 11 33 eigenlijk grootte van tabel automatisch laten aanpasen
aan maximum delay;
#X restore 791 331 pd showtable;
#X obj 644 599 hsl 128 15 0 1 0 0 \$1-grlsfbk \$1-grlrfbk feedback
-2 -8 0 10 -262144 -1 -1 0 1;
#X obj 740 464 min 0.99;
#X obj 739 491 pack f 30;
#X obj 738 524 line~;
#X obj 716 565 *~;
#X obj 731 438 r feedback;
#X text 779 596 werkt niet goed;
#X text 25 461 random_delay doet nu nog niets;
#X obj 180 834 grl \$1;
#X obj 42 851 grl \$1;
#X obj 57 876 grl \$1;
#X obj 118 833 grl \$1;
#X obj 117 863 grl \$1;
#X obj 144 883 grl \$1;
#X obj 193 858 grl \$1;
#X obj 212 881 grl \$1;
#X obj 245 832 grl \$1;
#X obj 258 856 grl \$1;
#X obj 277 879 grl \$1;
#X obj 313 831 grl \$1;
#X obj 326 855 grl \$1;
#X obj 345 878 grl \$1;
#X obj 375 833 grl \$1;
#X obj 396 855 grl \$1;
#X obj 415 880 grl \$1;
#X obj 449 835 grl \$1;
#X obj 469 856 grl \$1;
#N canvas 744 585 566 199 needsound 0;
#X obj 22 34 r soundfileyesno;
#X msg 18 67 0;
#X obj 22 138 s answersoundfile;
#X text 63 65 0 = this abunch object doesn't need a sound file (store
in a preset file) \, 1 = it does;
#X connect 0 0 1 0;
#X connect 1 0 2 0;
#X restore 836 296 pd needsound;
#X text 22 481 schuiver delayinms gaat tot 999 maar is lengte van array
niet groter?;
#X obj 1 1 cnv 15 350 380 empty empty empty 50 12 0 10 -258699 -143491
0;
#X obj 18 66 hsl 128 15 1 513 0 0 \$1-grlstempo \$1-grlrtempo tempo_in_ms
-2 -9 0 10 -262144 -1 -1 2208 1;
#X obj 25 20 tgl 15 1 \$1-grlson \$1-grlron on_off 17 7 0 10 -262144
-1 -1 0 1;
#X obj 16 141 hsl 128 15 2 500 0 0 \$1-grlslen \$1-grlrlen length -2
-8 0 10 -262144 -1 -1 3774 1;
#X obj 226 21 hsl 85 15 0 100 0 0 \$1-grlslev \$1-grlrlev level -2
-8 0 10 -262144 -1 -1 7560 1;
#X obj 223 146 hsl 100 15 0 1 0 0 \$1-grlsrndlen \$1-grlrrndlen random_length
-2 -8 0 8 -262144 -1 -1 0 1;
#X obj 16 102 hsl 128 15 1 999 0 0 \$1-grlspos \$1-grlrpos delay_in_ms
-2 -8 0 10 -262144 -1 -1 3169 1;
#X obj 18 183 hsl 128 15 0 127 0 0 \$1-grlsp \$1-grlrp pitch -2 -8
0 10 -262144 -1 -1 6900 1;
#X obj 225 67 hsl 100 15 0 99 0 0 \$1-grlsrndtem \$1-grlrrndtem random_tempo
-2 -8 0 8 -262144 -1 -1 0 1;
#X obj 23 306 hsl 100 15 0.01 0.5 0 0 \$1-grlsatt \$1-grlratt attack
-2 -8 0 10 -262144 -1 -1 3839 1;
#X obj 190 304 hsl 128 15 0.01 0.5 0 0 \$1-grlsdec \$1-grlrdec decay
-2 -8 0 10 -262144 -1 -1 4924 1;
#X obj 223 185 hsl 100 15 0 0.25 0 0 \$1-grlsrndp \$1-grlrrndp random_pitch
-2 -8 0 8 -262144 -1 -1 0 1;
#X obj 223 104 hsl 100 15 0 0.5 0 0 \$1-grlsrndpos \$1-grlrrndpos random_delay
-2 -8 0 8 -262144 -1 -1 0 1;
#X obj 218 239 cnv 15 100 35 empty empty max_voices 15 8 0 10 -233017
-66577 0;
#X obj 232 256 nbx 3 14 -1e+037 1e+037 0 0 empty \$1-grlactvoices empty
0 -8 0 10 -86277 -260097 -1 2 256;
#X obj 103 341 bng 10 250 50 0 \$1-grlsextraoptions empty extra_options
17 7 0 8 -262144 -1 -1;
#X text 171 239 show:;
#X obj 19 242 hsl 128 15 1 10 0 0 \$1-grlsden \$1-grlrden density -2
-8 0 10 -262144 -1 -1 0 1;
#X text 269 255 / 20;
#X obj 92 208 nbx 5 14 -1e+037 1e+037 0 0 \$1-grlsorip \$1-grlrorip
original_pitch 56 7 0 10 -262144 -1 -1 69 256;
#X floatatom 87 120 5 0 0 0 - - -;
#X obj 119 22 tgl 15 0 \$1-grlsfrz \$1-grlrfrz freeze 17 7 0 10 -262144
-1 -1 0 1;
#X obj 150 57 nbx 5 14 -1e+037 1e+037 0 0 oxo \$1-grlstempo ms 20 -5
0 10 -86277 -260097 -1 90.0154 256;
#X obj 149 141 nbx 5 14 -1e+037 1e+037 0 0 koekelo \$1-grlslen empty
0 -8 0 10 -86277 -260097 -1 149.988 256;
#X obj 150 183 nbx 5 14 -1e+037 1e+037 0 0 koekeloz \$1-grlsp empty
0 -8 0 10 -86277 -260097 -1 69 256;
#X obj 150 79 nbx 5 14 -1e+037 1e+037 0 0 oxo \$1-grlsbpm bpm 20 -5
0 10 -86277 -260097 -1 666.552 256;
#N canvas 540 309 293 166 printname 0;
#X obj 54 7 r printallnames;
#X obj 54 107 symbol;
#X obj 54 132 s rallnames;
#X obj 54 37 t b b;
#X msg 178 72 grl;
#X msg 54 72 grain-live;
#X connect 0 0 3 0;
#X connect 1 0 2 0;
#X connect 3 0 5 0;
#X connect 3 1 4 0;
#X connect 4 0 1 0;
#X connect 5 0 1 0;
#X restore 790 360 pd printname;
#N canvas 10 184 588 284 presetsnew 0;
#X obj 210 58 r savepresetn;
#X obj 203 119 t b b b;
#N canvas 97 163 1041 286 name-sends-normal 0;
#N canvas 0 0 450 300 (subpatch) 0;
#X array \$1-grlbetween 24 float 2;
#X coords 0 10000 24 -10000 20 20 1;
#X restore 15 236 graph;
#X obj 403 549 tabwrite \$1-grlbetween;
#X obj 438 235 unpack f f;
#X obj 98 156 pack f 1;
#X obj 135 178 pack f 2;
#X obj 186 200 pack f 3;
#X obj 236 155 pack f 4;
#X obj 273 177 pack f 5;
#X obj 324 199 pack f 6;
#X obj 368 156 pack f 7;
#X obj 405 178 pack f 8;
#X obj 449 199 pack f 9;
#X obj 508 156 pack f 10;
#X obj 545 178 pack f 11;
#X obj 596 199 pack f 12;
#X obj 665 156 pack f 13;
#X obj 702 178 pack f 14;
#X obj 754 201 pack f 15;
#X obj 798 156 pack f 16;
#X obj 835 179 pack f 17;
#X obj 884 203 pack f 18;
#X obj 438 505 unpack f f;
#X obj 98 426 pack f 19;
#X obj 135 448 pack f 20;
#X obj 186 470 pack f 21;
#X obj 236 425 pack f 22;
#X obj 273 447 pack f 23;
#X obj 324 469 pack f 24;
#X obj 368 426 pack f 25;
#X obj 405 448 pack f 26;
#X obj 449 469 pack f 27;
#X obj 508 426 pack f 28;
#X obj 545 448 pack f 29;
#X obj 596 469 pack f 30;
#X obj 665 426 pack f 31;
#X obj 702 448 pack f 32;
#X obj 754 471 pack f 33;
#X obj 798 426 pack f 34;
#X obj 835 449 pack f 35;
#X obj 886 470 pack f 36;
#X text 38 238 -> adjust size if necessary (standard size = 109);
#X obj 6 35 r \$1-grlson;
#X obj 400 24 r \$1-grlspos;
#X obj 87 80 r \$1-grlstempo;
#X obj 587 53 r \$1-grlsatt;
#X obj 599 76 r \$1-grlsdec;
#X obj 189 28 r \$1-grlsrndtem;
#X obj 413 51 r \$1-grlsrndpos;
#X obj 51 57 r \$1-grlslev;
#X obj 229 53 r \$1-grlslen;
#X obj 255 75 r \$1-grlsrndlen;
#X obj 761 59 r \$1-grlsautorec;
#X obj 741 39 r \$1-grlsuse;
#X obj 783 79 r \$1-grlsden;
#X obj 563 32 r \$1-grlsrndp;
#X obj 440 75 r \$1-grlsp;
#X obj 914 38 r \$1-grlsorip;
#X obj 925 57 r \$1-grlsfrz;
#X connect 2 0 1 0;
#X connect 2 1 1 1;
#X connect 3 0 2 0;
#X connect 4 0 2 0;
#X connect 5 0 2 0;
#X connect 6 0 2 0;
#X connect 7 0 2 0;
#X connect 8 0 2 0;
#X connect 9 0 2 0;
#X connect 10 0 2 0;
#X connect 11 0 2 0;
#X connect 12 0 2 0;
#X connect 13 0 2 0;
#X connect 14 0 2 0;
#X connect 15 0 2 0;
#X connect 16 0 2 0;
#X connect 17 0 2 0;
#X connect 18 0 2 0;
#X connect 19 0 2 0;
#X connect 20 0 2 0;
#X connect 21 0 1 0;
#X connect 21 1 1 1;
#X connect 22 0 21 0;
#X connect 23 0 21 0;
#X connect 24 0 21 0;
#X connect 25 0 21 0;
#X connect 26 0 21 0;
#X connect 27 0 21 0;
#X connect 28 0 21 0;
#X connect 29 0 21 0;
#X connect 30 0 21 0;
#X connect 31 0 21 0;
#X connect 32 0 21 0;
#X connect 33 0 21 0;
#X connect 34 0 21 0;
#X connect 35 0 21 0;
#X connect 36 0 21 0;
#X connect 37 0 21 0;
#X connect 38 0 21 0;
#X connect 39 0 21 0;
#X connect 41 0 3 0;
#X connect 42 0 9 0;
#X connect 43 0 5 0;
#X connect 44 0 13 0;
#X connect 45 0 14 0;
#X connect 46 0 6 0;
#X connect 47 0 10 0;
#X connect 48 0 4 0;
#X connect 49 0 7 0;
#X connect 50 0 8 0;
#X connect 51 0 16 0;
#X connect 52 0 15 0;
#X connect 53 0 17 0;
#X connect 54 0 12 0;
#X connect 55 0 11 0;
#X connect 56 0 18 0;
#X connect 57 0 19 0;
#X restore 75 27 pd name-sends-normal;
#X obj 223 196 s toextfile;
#N canvas 636 185 560 404 normal 0;
#X obj 278 134 f \$1;
#X obj 237 278 symbol;
#X obj 42 268 list prepend add2;
#X obj 42 293 list trim;
#X obj 188 51 t b b b b b;
#X obj 154 135 f 0;
#X obj 193 135 + 1;
#X msg 181 103 0;
#X msg 240 196 grlrx\$1;
#X obj 237 222 pack s f;
#X msg 237 249 \$2-\$1;
#X obj 131 102 until;
#X obj 193 161 t f f;
#X obj 21 193 tabread \$1-grlbetween;
#X text 151 77 -> aanpassen! aantal op te slagen floats;
#X obj 180 16 inlet;
#X obj 229 345 outlet;
#X msg 235 311 add2 () norm 0 0 \$1;
#X obj 111 76 f 17;
#X connect 0 0 9 1;
#X connect 1 0 17 0;
#X connect 2 0 3 0;
#X connect 3 0 16 0;
#X connect 4 3 18 0;
#X connect 4 4 0 0;
#X connect 4 4 7 0;
#X connect 5 0 6 0;
#X connect 6 0 5 1;
#X connect 6 0 12 0;
#X connect 7 0 5 1;
#X connect 8 0 9 0;
#X connect 9 0 10 0;
#X connect 10 0 1 0;
#X connect 11 0 5 0;
#X connect 12 0 13 0;
#X connect 12 1 8 0;
#X connect 13 0 2 0;
#X connect 15 0 4 0;
#X connect 17 0 16 0;
#X connect 18 0 11 0;
#X restore 217 153 pd normal;
#X text 179 152 !!->;
#X text 212 245 !!->;
#N canvas 49 0 1083 346 receive-normal 0;
#X obj 24 26 r \$1-grlrx1;
#X obj 54 46 r \$1-grlrx2;
#X obj 85 66 r \$1-grlrx3;
#X obj 196 19 r \$1-grlrx4;
#X obj 226 39 r \$1-grlrx5;
#X obj 257 59 r \$1-grlrx6;
#X obj 364 16 r \$1-grlrx7;
#X obj 382 37 r \$1-grlrx8;
#X obj 416 58 r \$1-grlrx9;
#X obj 523 33 r \$1-grlrx10;
#X obj 553 53 r \$1-grlrx11;
#X obj 584 73 r \$1-grlrx12;
#X obj 703 33 r \$1-grlrx13;
#X obj 733 53 r \$1-grlrx14;
#X obj 764 73 r \$1-grlrx15;
#X obj 863 33 r \$1-grlrx16;
#X obj 893 53 r \$1-grlrx17;
#X obj 924 73 r \$1-grlrx18;
#X obj 33 293 r \$1-grlrx19;
#X obj 63 313 r \$1-grlrx20;
#X obj 94 333 r \$1-grlrx21;
#X obj 213 293 r \$1-grlrx22;
#X obj 243 313 r \$1-grlrx23;
#X obj 274 333 r \$1-grlrx24;
#X obj 393 293 r \$1-grlrx25;
#X obj 423 313 r \$1-grlrx26;
#X obj 454 333 r \$1-grlrx27;
#X obj 543 293 r \$1-grlrx28;
#X obj 573 313 r \$1-grlrx29;
#X obj 604 333 r \$1-grlrx30;
#X obj 713 293 r \$1-grlrx31;
#X obj 743 313 r \$1-grlrx32;
#X obj 774 333 r \$1-grlrx33;
#X obj 873 293 r \$1-grlrx34;
#X obj 903 313 r \$1-grlrx35;
#X obj 934 333 r \$1-grlrx36;
#N canvas 30 18 246 218 cmp 0;
#X obj 42 65 list split 1;
#X obj 88 119 ==;
#X obj 43 151 spigot;
#X obj 43 176 outlet;
#X obj 42 28 inlet;
#X obj 110 30 r \$1-grlarg2;
#X connect 0 0 2 0;
#X connect 0 1 1 0;
#X connect 1 0 2 1;
#X connect 2 0 3 0;
#X connect 4 0 0 0;
#X connect 5 0 1 1;
#X restore 22 100 pd cmp;
#N canvas 355 32 246 300 cmp 0;
#X obj 42 65 list split 1;
#X obj 88 119 ==;
#X obj 43 151 spigot;
#X obj 43 176 outlet;
#X obj 42 28 inlet;
#X obj 110 30 r \$1-grlarg2;
#X connect 0 0 2 0;
#X connect 0 1 1 0;
#X connect 1 0 2 1;
#X connect 2 0 3 0;
#X connect 4 0 0 0;
#X connect 5 0 1 1;
#X restore 42 125 pd cmp;
#N canvas 0 0 246 300 cmp 0;
#X obj 42 65 list split 1;
#X obj 88 119 ==;
#X obj 43 151 spigot;
#X obj 43 176 outlet;
#X obj 42 28 inlet;
#X obj 110 30 r \$1-grlarg2;
#X connect 0 0 2 0;
#X connect 0 1 1 0;
#X connect 1 0 2 1;
#X connect 2 0 3 0;
#X connect 4 0 0 0;
#X connect 5 0 1 1;
#X restore 59 153 pd cmp;
#N canvas 0 0 246 300 cmp 0;
#X obj 42 65 list split 1;
#X obj 88 119 ==;
#X obj 43 151 spigot;
#X obj 43 176 outlet;
#X obj 42 28 inlet;
#X obj 110 30 r \$1-grlarg2;
#X connect 0 0 2 0;
#X connect 0 1 1 0;
#X connect 1 0 2 1;
#X connect 2 0 3 0;
#X connect 4 0 0 0;
#X connect 5 0 1 1;
#X restore 172 100 pd cmp;
#N canvas 0 0 246 300 cmp 0;
#X obj 42 65 list split 1;
#X obj 88 119 ==;
#X obj 43 151 spigot;
#X obj 43 176 outlet;
#X obj 42 28 inlet;
#X obj 110 30 r \$1-grlarg2;
#X connect 0 0 2 0;
#X connect 0 1 1 0;
#X connect 1 0 2 1;
#X connect 2 0 3 0;
#X connect 4 0 0 0;
#X connect 5 0 1 1;
#X restore 192 125 pd cmp;
#N canvas 308 15 246 215 cmp 0;
#X obj 42 65 list split 1;
#X obj 88 119 ==;
#X obj 43 151 spigot;
#X obj 43 176 outlet;
#X obj 42 28 inlet;
#X obj 110 30 r \$1-grlarg2;
#X connect 0 0 2 0;
#X connect 0 1 1 0;
#X connect 1 0 2 1;
#X connect 2 0 3 0;
#X connect 4 0 0 0;
#X connect 5 0 1 1;
#X restore 209 153 pd cmp;
#N canvas 0 0 246 300 cmp 0;
#X obj 42 65 list split 1;
#X obj 88 119 ==;
#X obj 43 151 spigot;
#X obj 43 176 outlet;
#X obj 42 28 inlet;
#X obj 110 30 r \$1-grlarg2;
#X connect 0 0 2 0;
#X connect 0 1 1 0;
#X connect 1 0 2 1;
#X connect 2 0 3 0;
#X connect 4 0 0 0;
#X connect 5 0 1 1;
#X restore 362 100 pd cmp;
#N canvas 0 0 246 300 cmp 0;
#X obj 42 65 list split 1;
#X obj 88 119 ==;
#X obj 43 151 spigot;
#X obj 43 176 outlet;
#X obj 42 28 inlet;
#X obj 110 30 r \$1-grlarg2;
#X connect 0 0 2 0;
#X connect 0 1 1 0;
#X connect 1 0 2 1;
#X connect 2 0 3 0;
#X connect 4 0 0 0;
#X connect 5 0 1 1;
#X restore 382 125 pd cmp;
#N canvas 0 0 246 300 cmp 0;
#X obj 42 65 list split 1;
#X obj 88 119 ==;
#X obj 43 151 spigot;
#X obj 43 176 outlet;
#X obj 42 28 inlet;
#X obj 110 30 r \$1-grlarg2;
#X connect 0 0 2 0;
#X connect 0 1 1 0;
#X connect 1 0 2 1;
#X connect 2 0 3 0;
#X connect 4 0 0 0;
#X connect 5 0 1 1;
#X restore 399 153 pd cmp;
#N canvas 0 0 246 300 cmp 0;
#X obj 42 65 list split 1;
#X obj 88 119 ==;
#X obj 43 151 spigot;
#X obj 43 176 outlet;
#X obj 42 28 inlet;
#X obj 110 30 r \$1-grlarg2;
#X connect 0 0 2 0;
#X connect 0 1 1 0;
#X connect 1 0 2 1;
#X connect 2 0 3 0;
#X connect 4 0 0 0;
#X connect 5 0 1 1;
#X restore 542 110 pd cmp;
#N canvas 0 0 246 300 cmp 0;
#X obj 42 65 list split 1;
#X obj 88 119 ==;
#X obj 43 151 spigot;
#X obj 43 176 outlet;
#X obj 42 28 inlet;
#X obj 110 30 r \$1-grlarg2;
#X connect 0 0 2 0;
#X connect 0 1 1 0;
#X connect 1 0 2 1;
#X connect 2 0 3 0;
#X connect 4 0 0 0;
#X connect 5 0 1 1;
#X restore 562 135 pd cmp;
#N canvas 0 0 246 300 cmp 0;
#X obj 42 65 list split 1;
#X obj 88 119 ==;
#X obj 43 151 spigot;
#X obj 43 176 outlet;
#X obj 42 28 inlet;
#X obj 110 30 r \$1-grlarg2;
#X connect 0 0 2 0;
#X connect 0 1 1 0;
#X connect 1 0 2 1;
#X connect 2 0 3 0;
#X connect 4 0 0 0;
#X connect 5 0 1 1;
#X restore 579 163 pd cmp;
#N canvas 0 0 246 300 cmp 0;
#X obj 42 65 list split 1;
#X obj 88 119 ==;
#X obj 43 151 spigot;
#X obj 43 176 outlet;
#X obj 42 28 inlet;
#X obj 110 30 r \$1-grlarg2;
#X connect 0 0 2 0;
#X connect 0 1 1 0;
#X connect 1 0 2 1;
#X connect 2 0 3 0;
#X connect 4 0 0 0;
#X connect 5 0 1 1;
#X restore 692 110 pd cmp;
#N canvas 0 0 246 300 cmp 0;
#X obj 42 65 list split 1;
#X obj 88 119 ==;
#X obj 43 151 spigot;
#X obj 43 176 outlet;
#X obj 42 28 inlet;
#X obj 110 30 r \$1-grlarg2;
#X connect 0 0 2 0;
#X connect 0 1 1 0;
#X connect 1 0 2 1;
#X connect 2 0 3 0;
#X connect 4 0 0 0;
#X connect 5 0 1 1;
#X restore 712 135 pd cmp;
#N canvas 0 0 246 300 cmp 0;
#X obj 42 65 list split 1;
#X obj 88 119 ==;
#X obj 43 151 spigot;
#X obj 43 176 outlet;
#X obj 42 28 inlet;
#X obj 110 30 r \$1-grlarg2;
#X connect 0 0 2 0;
#X connect 0 1 1 0;
#X connect 1 0 2 1;
#X connect 2 0 3 0;
#X connect 4 0 0 0;
#X connect 5 0 1 1;
#X restore 729 163 pd cmp;
#N canvas 0 0 246 300 cmp 0;
#X obj 42 65 list split 1;
#X obj 88 119 ==;
#X obj 43 151 spigot;
#X obj 43 176 outlet;
#X obj 42 28 inlet;
#X obj 110 30 r \$1-grlarg2;
#X connect 0 0 2 0;
#X connect 0 1 1 0;
#X connect 1 0 2 1;
#X connect 2 0 3 0;
#X connect 4 0 0 0;
#X connect 5 0 1 1;
#X restore 882 100 pd cmp;
#N canvas 0 0 246 300 cmp 0;
#X obj 42 65 list split 1;
#X obj 88 119 ==;
#X obj 43 151 spigot;
#X obj 43 176 outlet;
#X obj 42 28 inlet;
#X obj 110 30 r \$1-grlarg2;
#X connect 0 0 2 0;
#X connect 0 1 1 0;
#X connect 1 0 2 1;
#X connect 2 0 3 0;
#X connect 4 0 0 0;
#X connect 5 0 1 1;
#X restore 902 125 pd cmp;
#N canvas 0 0 246 300 cmp 0;
#X obj 42 65 list split 1;
#X obj 88 119 ==;
#X obj 43 151 spigot;
#X obj 43 176 outlet;
#X obj 42 28 inlet;
#X obj 110 30 r \$1-grlarg2;
#X connect 0 0 2 0;
#X connect 0 1 1 0;
#X connect 1 0 2 1;
#X connect 2 0 3 0;
#X connect 4 0 0 0;
#X connect 5 0 1 1;
#X restore 919 153 pd cmp;
#N canvas 30 18 246 218 cmp 0;
#X obj 42 65 list split 1;
#X obj 88 119 ==;
#X obj 43 151 spigot;
#X obj 43 176 outlet;
#X obj 42 28 inlet;
#X obj 110 30 r \$1-grlarg2;
#X connect 0 0 2 0;
#X connect 0 1 1 0;
#X connect 1 0 2 1;
#X connect 2 0 3 0;
#X connect 4 0 0 0;
#X connect 5 0 1 1;
#X restore 32 370 pd cmp;
#N canvas 355 32 246 300 cmp 0;
#X obj 42 65 list split 1;
#X obj 88 119 ==;
#X obj 43 151 spigot;
#X obj 43 176 outlet;
#X obj 42 28 inlet;
#X obj 110 30 r \$1-grlarg2;
#X connect 0 0 2 0;
#X connect 0 1 1 0;
#X connect 1 0 2 1;
#X connect 2 0 3 0;
#X connect 4 0 0 0;
#X connect 5 0 1 1;
#X restore 52 395 pd cmp;
#N canvas 0 0 246 300 cmp 0;
#X obj 42 65 list split 1;
#X obj 88 119 ==;
#X obj 43 151 spigot;
#X obj 43 176 outlet;
#X obj 42 28 inlet;
#X obj 110 30 r \$1-grlarg2;
#X connect 0 0 2 0;
#X connect 0 1 1 0;
#X connect 1 0 2 1;
#X connect 2 0 3 0;
#X connect 4 0 0 0;
#X connect 5 0 1 1;
#X restore 69 423 pd cmp;
#N canvas 0 0 246 300 cmp 0;
#X obj 42 65 list split 1;
#X obj 88 119 ==;
#X obj 43 151 spigot;
#X obj 43 176 outlet;
#X obj 42 28 inlet;
#X obj 110 30 r \$1-grlarg2;
#X connect 0 0 2 0;
#X connect 0 1 1 0;
#X connect 1 0 2 1;
#X connect 2 0 3 0;
#X connect 4 0 0 0;
#X connect 5 0 1 1;
#X restore 182 370 pd cmp;
#N canvas 0 0 246 300 cmp 0;
#X obj 42 65 list split 1;
#X obj 88 119 ==;
#X obj 43 151 spigot;
#X obj 43 176 outlet;
#X obj 42 28 inlet;
#X obj 110 30 r \$1-grlarg2;
#X connect 0 0 2 0;
#X connect 0 1 1 0;
#X connect 1 0 2 1;
#X connect 2 0 3 0;
#X connect 4 0 0 0;
#X connect 5 0 1 1;
#X restore 202 395 pd cmp;
#N canvas 308 15 246 215 cmp 0;
#X obj 42 65 list split 1;
#X obj 88 119 ==;
#X obj 43 151 spigot;
#X obj 43 176 outlet;
#X obj 42 28 inlet;
#X obj 110 30 r \$1-grlarg2;
#X connect 0 0 2 0;
#X connect 0 1 1 0;
#X connect 1 0 2 1;
#X connect 2 0 3 0;
#X connect 4 0 0 0;
#X connect 5 0 1 1;
#X restore 219 423 pd cmp;
#N canvas 0 0 246 300 cmp 0;
#X obj 42 65 list split 1;
#X obj 88 119 ==;
#X obj 43 151 spigot;
#X obj 43 176 outlet;
#X obj 42 28 inlet;
#X obj 110 30 r \$1-grlarg2;
#X connect 0 0 2 0;
#X connect 0 1 1 0;
#X connect 1 0 2 1;
#X connect 2 0 3 0;
#X connect 4 0 0 0;
#X connect 5 0 1 1;
#X restore 372 370 pd cmp;
#N canvas 0 0 246 300 cmp 0;
#X obj 42 65 list split 1;
#X obj 88 119 ==;
#X obj 43 151 spigot;
#X obj 43 176 outlet;
#X obj 42 28 inlet;
#X obj 110 30 r \$1-grlarg2;
#X connect 0 0 2 0;
#X connect 0 1 1 0;
#X connect 1 0 2 1;
#X connect 2 0 3 0;
#X connect 4 0 0 0;
#X connect 5 0 1 1;
#X restore 392 395 pd cmp;
#N canvas 0 0 246 300 cmp 0;
#X obj 42 65 list split 1;
#X obj 88 119 ==;
#X obj 43 151 spigot;
#X obj 43 176 outlet;
#X obj 42 28 inlet;
#X obj 110 30 r \$1-grlarg2;
#X connect 0 0 2 0;
#X connect 0 1 1 0;
#X connect 1 0 2 1;
#X connect 2 0 3 0;
#X connect 4 0 0 0;
#X connect 5 0 1 1;
#X restore 409 423 pd cmp;
#N canvas 0 0 246 300 cmp 0;
#X obj 42 65 list split 1;
#X obj 88 119 ==;
#X obj 43 151 spigot;
#X obj 43 176 outlet;
#X obj 42 28 inlet;
#X obj 110 30 r \$1-grlarg2;
#X connect 0 0 2 0;
#X connect 0 1 1 0;
#X connect 1 0 2 1;
#X connect 2 0 3 0;
#X connect 4 0 0 0;
#X connect 5 0 1 1;
#X restore 552 380 pd cmp;
#N canvas 0 0 246 300 cmp 0;
#X obj 42 65 list split 1;
#X obj 88 119 ==;
#X obj 43 151 spigot;
#X obj 43 176 outlet;
#X obj 42 28 inlet;
#X obj 110 30 r \$1-grlarg2;
#X connect 0 0 2 0;
#X connect 0 1 1 0;
#X connect 1 0 2 1;
#X connect 2 0 3 0;
#X connect 4 0 0 0;
#X connect 5 0 1 1;
#X restore 572 405 pd cmp;
#N canvas 0 0 246 300 cmp 0;
#X obj 42 65 list split 1;
#X obj 88 119 ==;
#X obj 43 151 spigot;
#X obj 43 176 outlet;
#X obj 42 28 inlet;
#X obj 110 30 r \$1-grlarg2;
#X connect 0 0 2 0;
#X connect 0 1 1 0;
#X connect 1 0 2 1;
#X connect 2 0 3 0;
#X connect 4 0 0 0;
#X connect 5 0 1 1;
#X restore 589 433 pd cmp;
#N canvas 0 0 246 300 cmp 0;
#X obj 42 65 list split 1;
#X obj 88 119 ==;
#X obj 43 151 spigot;
#X obj 43 176 outlet;
#X obj 42 28 inlet;
#X obj 110 30 r \$1-grlarg2;
#X connect 0 0 2 0;
#X connect 0 1 1 0;
#X connect 1 0 2 1;
#X connect 2 0 3 0;
#X connect 4 0 0 0;
#X connect 5 0 1 1;
#X restore 702 380 pd cmp;
#N canvas 0 0 246 300 cmp 0;
#X obj 42 65 list split 1;
#X obj 88 119 ==;
#X obj 43 151 spigot;
#X obj 43 176 outlet;
#X obj 42 28 inlet;
#X obj 110 30 r \$1-grlarg2;
#X connect 0 0 2 0;
#X connect 0 1 1 0;
#X connect 1 0 2 1;
#X connect 2 0 3 0;
#X connect 4 0 0 0;
#X connect 5 0 1 1;
#X restore 722 405 pd cmp;
#N canvas 0 0 246 300 cmp 0;
#X obj 42 65 list split 1;
#X obj 88 119 ==;
#X obj 43 151 spigot;
#X obj 43 176 outlet;
#X obj 42 28 inlet;
#X obj 110 30 r \$1-grlarg2;
#X connect 0 0 2 0;
#X connect 0 1 1 0;
#X connect 1 0 2 1;
#X connect 2 0 3 0;
#X connect 4 0 0 0;
#X connect 5 0 1 1;
#X restore 739 433 pd cmp;
#N canvas 0 0 246 300 cmp 0;
#X obj 42 65 list split 1;
#X obj 88 119 ==;
#X obj 43 151 spigot;
#X obj 43 176 outlet;
#X obj 42 28 inlet;
#X obj 110 30 r \$1-grlarg2;
#X connect 0 0 2 0;
#X connect 0 1 1 0;
#X connect 1 0 2 1;
#X connect 2 0 3 0;
#X connect 4 0 0 0;
#X connect 5 0 1 1;
#X restore 892 370 pd cmp;
#N canvas 0 0 246 300 cmp 0;
#X obj 42 65 list split 1;
#X obj 88 119 ==;
#X obj 43 151 spigot;
#X obj 43 176 outlet;
#X obj 42 28 inlet;
#X obj 110 30 r \$1-grlarg2;
#X connect 0 0 2 0;
#X connect 0 1 1 0;
#X connect 1 0 2 1;
#X connect 2 0 3 0;
#X connect 4 0 0 0;
#X connect 5 0 1 1;
#X restore 912 395 pd cmp;
#N canvas 0 0 246 300 cmp 0;
#X obj 42 65 list split 1;
#X obj 88 119 ==;
#X obj 43 151 spigot;
#X obj 43 176 outlet;
#X obj 42 28 inlet;
#X obj 110 30 r \$1-grlarg2;
#X connect 0 0 2 0;
#X connect 0 1 1 0;
#X connect 1 0 2 1;
#X connect 2 0 3 0;
#X connect 4 0 0 0;
#X connect 5 0 1 1;
#X restore 929 423 pd cmp;
#X obj 61 204 s \$1-grlron;
#X obj 83 226 s \$1-grlrlev;
#X obj 110 253 s \$1-grlrtempo;
#X obj 229 203 s \$1-grlrrndtem;
#X obj 260 229 s \$1-grlrlen;
#X obj 395 204 s \$1-grlrpos;
#X obj 425 226 s \$1-grlrrndpos;
#X obj 617 244 s \$1-grlrdec;
#X obj 586 221 s \$1-grlratt;
#X obj 273 255 s \$1-grlrrndlen;
#X obj 743 221 s \$1-grlrautorec;
#X obj 709 201 s \$1-grlruse;
#X obj 782 244 s \$1-grlrden;
#X obj 443 250 s \$1-grlrp;
#X obj 557 200 s \$1-grlrrndp;
#X obj 877 189 s \$1-grlrorip;
#X obj 918 216 s \$1-grlrfrz;
#X connect 0 0 36 0;
#X connect 1 0 37 0;
#X connect 2 0 38 0;
#X connect 3 0 39 0;
#X connect 4 0 40 0;
#X connect 5 0 41 0;
#X connect 6 0 42 0;
#X connect 7 0 43 0;
#X connect 8 0 44 0;
#X connect 9 0 45 0;
#X connect 10 0 46 0;
#X connect 11 0 47 0;
#X connect 12 0 48 0;
#X connect 13 0 49 0;
#X connect 14 0 50 0;
#X connect 15 0 51 0;
#X connect 16 0 52 0;
#X connect 17 0 53 0;
#X connect 18 0 54 0;
#X connect 19 0 55 0;
#X connect 20 0 56 0;
#X connect 21 0 57 0;
#X connect 22 0 58 0;
#X connect 23 0 59 0;
#X connect 24 0 60 0;
#X connect 25 0 61 0;
#X connect 26 0 62 0;
#X connect 27 0 63 0;
#X connect 28 0 64 0;
#X connect 29 0 65 0;
#X connect 30 0 66 0;
#X connect 31 0 67 0;
#X connect 32 0 68 0;
#X connect 33 0 69 0;
#X connect 34 0 70 0;
#X connect 35 0 71 0;
#X connect 36 0 72 0;
#X connect 37 0 73 0;
#X connect 38 0 74 0;
#X connect 39 0 75 0;
#X connect 40 0 76 0;
#X connect 41 0 81 0;
#X connect 42 0 77 0;
#X connect 43 0 78 0;
#X connect 44 0 85 0;
#X connect 45 0 86 0;
#X connect 46 0 80 0;
#X connect 47 0 79 0;
#X connect 48 0 83 0;
#X connect 49 0 82 0;
#X connect 50 0 84 0;
#X connect 51 0 87 0;
#X connect 52 0 88 0;
#X restore 251 246 pd receive-normal;
#X text 32 27 !!->;
#N canvas 0 0 246 300 cmp 0;
#X obj 42 65 list split 1;
#X obj 88 119 ==;
#X obj 43 151 spigot;
#X obj 43 176 outlet;
#X obj 42 28 inlet;
#X obj 157 64 inlet;
#X connect 0 0 2 0;
#X connect 0 1 1 0;
#X connect 1 0 2 1;
#X connect 2 0 3 0;
#X connect 4 0 0 0;
#X connect 5 0 1 1;
#X restore 209 94 pd cmp;
#X obj 458 12 loadbang;
#X obj 458 37 f \$2;
#X obj 458 85 s \$1-grlarg2;
#X connect 0 0 9 0;
#X connect 1 1 4 0;
#X connect 4 0 3 0;
#X connect 9 0 1 0;
#X connect 10 0 11 0;
#X connect 11 0 9 1;
#X connect 11 0 12 0;
#X restore 670 390 pd presetsnew;
#X connect 1 0 50 0;
#X connect 2 0 7 1;
#X connect 3 0 6 1;
#X connect 3 1 80 1;
#X connect 3 2 81 1;
#X connect 3 3 82 1;
#X connect 3 4 83 1;
#X connect 3 5 84 1;
#X connect 3 6 79 1;
#X connect 3 7 85 1;
#X connect 3 8 86 1;
#X connect 3 9 87 1;
#X connect 3 10 88 1;
#X connect 3 11 89 1;
#X connect 3 12 90 1;
#X connect 3 13 91 1;
#X connect 3 14 92 1;
#X connect 3 15 93 1;
#X connect 3 16 94 1;
#X connect 3 17 95 1;
#X connect 3 18 96 1;
#X connect 3 19 97 1;
#X connect 6 0 60 0;
#X connect 7 0 56 0;
#X connect 8 0 7 2;
#X connect 9 0 4 0;
#X connect 10 0 11 0;
#X connect 11 0 12 1;
#X connect 12 0 9 0;
#X connect 13 0 55 0;
#X connect 14 0 16 0;
#X connect 15 0 17 0;
#X connect 15 1 20 0;
#X connect 16 0 15 0;
#X connect 17 0 18 0;
#X connect 20 0 19 0;
#X connect 22 0 56 3;
#X connect 22 0 58 3;
#X connect 22 1 58 4;
#X connect 25 0 53 0;
#X connect 26 0 27 0;
#X connect 28 0 29 0;
#X connect 29 0 30 0;
#X connect 31 0 41 0;
#X connect 32 0 39 0;
#X connect 33 0 40 0;
#X connect 34 0 42 0;
#X connect 39 0 19 0;
#X connect 40 0 36 0;
#X connect 41 0 35 0;
#X connect 42 0 43 0;
#X connect 44 0 45 0;
#X connect 45 0 46 0;
#X connect 46 0 37 0;
#X connect 47 0 63 0;
#X connect 48 0 65 0;
#X connect 49 0 51 0;
#X connect 50 0 7 0;
#X connect 51 0 58 2;
#X connect 51 0 56 2;
#X connect 52 0 25 0;
#X connect 53 0 26 0;
#X connect 55 0 10 0;
#X connect 56 0 58 0;
#X connect 56 1 58 1;
#X connect 57 0 56 1;
#X connect 58 0 3 0;
#X connect 60 0 12 0;
#X connect 62 0 66 0;
#X connect 63 0 38 0;
#X connect 64 0 48 0;
#X connect 68 0 69 0;
#X connect 69 0 6 0;
#X connect 69 0 79 0;
#X connect 69 0 80 0;
#X connect 69 0 81 0;
#X connect 69 0 82 0;
#X connect 69 0 83 0;
#X connect 69 0 84 0;
#X connect 69 0 85 0;
#X connect 69 0 86 0;
#X connect 69 0 87 0;
#X connect 69 0 88 0;
#X connect 69 0 89 0;
#X connect 69 0 90 0;
#X connect 69 0 91 0;
#X connect 69 0 92 0;
#X connect 69 0 93 0;
#X connect 69 0 94 0;
#X connect 69 0 95 0;
#X connect 69 0 96 0;
#X connect 69 0 97 0;
#X connect 72 0 73 0;
#X connect 73 0 74 0;
#X connect 74 0 75 1;
#X connect 76 0 72 0;
#X connect 79 0 60 0;
#X connect 80 0 60 0;
#X connect 81 0 60 0;
#X connect 82 0 60 0;
#X connect 83 0 60 0;
#X connect 84 0 60 0;
#X connect 85 0 60 0;
#X connect 86 0 60 0;
#X connect 87 0 60 0;
#X connect 88 0 60 0;
#X connect 89 0 60 0;
#X connect 90 0 60 0;
#X connect 91 0 60 0;
#X connect 92 0 60 0;
#X connect 93 0 60 0;
#X connect 94 0 60 0;
#X connect 95 0 60 0;
#X connect 96 0 60 0;
#X connect 97 0 60 0;
#X connect 106 0 120 0;
