#N canvas 201 28 710 849 12;
#X obj 207 11 inlet bang;
#X obj 395 81 r \$1-grasp;
#X text 368 32 transpositie in midi;
#X obj 385 183 mtof;
#X obj 383 214 / 440;
#X text 430 215 voorlopig;
#X obj 156 130 r \$1-grasamrate;
#X obj 144 223 r \$1-granrsamples;
#X text 486 17 69 = geen transpositie;
#X obj 253 387 *;
#X obj 292 283 *;
#X obj 258 171 / 1000;
#X obj 266 200 t b f;
#X text 64 163 duur in ms;
#X obj 29 205 f;
#X obj 50 180 r \$1-graslen;
#N canvas 0 0 551 550 randomize2 0;
#X floatatom 97 32 5 0 0 0 - - -;
#X obj 253 71 hsl 128 15 0 1 0 0 empty empty empty -2 -8 0 10 -262144
-1 -1 0 1;
#X text 251 54 randomize_%;
#X obj 167 366 +;
#X obj 203 101 *;
#X obj 148 210 -;
#X obj 93 12 bng 15 250 50 0 empty empty empty 17 7 0 10 -262144 -1
-1;
#X text 349 52 beter ts 0 en 0.5 ca;
#X obj 143 22 inlet;
#X obj 149 410 outlet;
#X obj 149 74 t f f f;
#X obj 142 181 +;
#X obj 187 145 -;
#X obj 142 242 t b f;
#X obj 102 309 * 0.01;
#X obj 153 340 *;
#X text 24 438 (x+(x*perc))-(x-(x*perc)) \, dan random ts 0 en dit
getal \, dan optellen met x-(x*perc) \; omdat random gehele getallen
genereert is random hier genormalized tussen 0 en 1;
#X obj 89 279 random 101;
#X floatatom 209 404 5 0 0 0 - - -;
#X obj 272 86 r \$1-grasrndl;
#X connect 0 0 10 0;
#X connect 1 0 4 1;
#X connect 3 0 9 0;
#X connect 4 0 11 1;
#X connect 4 0 12 1;
#X connect 5 0 13 0;
#X connect 6 0 0 0;
#X connect 8 0 10 0;
#X connect 10 0 11 0;
#X connect 10 1 12 0;
#X connect 10 2 4 0;
#X connect 11 0 5 0;
#X connect 12 0 5 1;
#X connect 12 0 3 1;
#X connect 13 0 17 0;
#X connect 13 1 15 1;
#X connect 14 0 15 0;
#X connect 15 0 3 0;
#X connect 17 0 14 0;
#X connect 19 0 4 1;
#X restore 28 235 pd randomize2;
#X obj 240 442 -;
#X obj 257 413 t b f;
#X obj 437 473 s \$1-grarindex;
#X obj 399 292 f;
#X obj 402 422 * 0.01;
#N canvas 90 537 570 366 randomize1 0;
#X obj 88 116 t f b;
#X obj 246 42 hsl 128 15 0 1 0 0 empty empty empty -2 -8 0 10 -262144
-1 -1 0 1;
#X obj 128 174 * 0.01;
#X text 244 25 randomize_%;
#X obj 101 248 +;
#X obj 246 168 / 2;
#X obj 128 209 -;
#X text 342 23 beter ts 0 en 0.5 ca;
#X obj 21 40 inlet;
#X obj 96 295 outlet;
#X obj 248 141 * 99;
#X obj 127 141 random 99;
#X obj 255 97 r \$1-grasrnds;
#X connect 0 0 4 0;
#X connect 0 1 11 0;
#X connect 2 0 6 0;
#X connect 4 0 9 0;
#X connect 5 0 6 1;
#X connect 6 0 4 1;
#X connect 8 0 0 0;
#X connect 10 0 5 0;
#X connect 11 0 2 0;
#X connect 12 0 2 1;
#X connect 12 0 10 0;
#X restore 392 321 pd randomize1;
#X obj 428 258 r \$1-graspos;
#X obj 185 625 vline~;
#X obj 234 580 pack f f f;
#X obj 297 480 *;
#X obj 365 544 +;
#X obj 304 514 t f f;
#X obj 53 314 min;
#X obj 185 254 /;
#X obj 184 281 * 1000;
#X obj 55 338 max 1;
#X text 8 486 length = 0 impossible;
#X obj 244 814 *~;
#X obj 245 846 outlet~;
#X obj 140 727 tabread4~ \$1-grasample;
#X obj 398 770 vline~;
#X obj 399 721 pack f f f;
#X obj 441 614 r \$1-grasatt;
#X obj 463 582 r \$1-grasdec;
#X msg 396 745 1 \$2 \, 0 \$3 \$1;
#X obj 426 662 *;
#X obj 474 657 *;
#X obj 398 688 -;
#X obj 356 610 t f f;
#X msg 243 677 set \$1;
#X obj 242 650 r \$1-grasamname;
#X obj 376 111 f;
#X obj 202 38 t b b;
#X msg 222 603 \$1 \, \$2 \$3;
#X obj 67 361 t f f;
#X obj 511 145 r \$1-grasorip;
#X obj 510 177 mtof;
#X obj 472 115 r \$1-grasrndp;
#N canvas 0 0 555 554 randomize2 0;
#X floatatom 97 32 5 0 0 0 - - -;
#X obj 253 71 hsl 128 15 0 1 0 0 empty empty empty -2 -8 0 10 -262144
-1 -1 0 1;
#X text 251 54 randomize_%;
#X obj 167 366 +;
#X obj 203 101 *;
#X obj 148 210 -;
#X obj 93 12 bng 15 250 50 0 empty empty empty 17 7 0 10 -262144 -1
-1;
#X text 349 52 beter ts 0 en 0.5 ca;
#X obj 143 22 inlet;
#X obj 149 410 outlet;
#X obj 149 74 t f f f;
#X obj 142 181 +;
#X obj 187 145 -;
#X obj 142 242 t b f;
#X obj 102 309 * 0.01;
#X obj 153 340 *;
#X text 24 438 (x+(x*perc))-(x-(x*perc)) \, dan random ts 0 en dit
getal \, dan optellen met x-(x*perc) \; omdat random gehele getallen
genereert is random hier genormalized tussen 0 en 1;
#X obj 89 279 random 101;
#X floatatom 209 404 5 0 0 0 - - -;
#X obj 249 31 inlet;
#X connect 0 0 10 0;
#X connect 1 0 4 1;
#X connect 3 0 9 0;
#X connect 4 0 11 1;
#X connect 4 0 12 1;
#X connect 5 0 13 0;
#X connect 6 0 0 0;
#X connect 8 0 10 0;
#X connect 10 0 11 0;
#X connect 10 1 12 0;
#X connect 10 2 4 0;
#X connect 11 0 5 0;
#X connect 12 0 5 1;
#X connect 12 0 3 1;
#X connect 13 0 17 0;
#X connect 13 1 15 1;
#X connect 14 0 15 0;
#X connect 15 0 3 0;
#X connect 17 0 14 0;
#X connect 19 0 4 1;
#X restore 375 142 pd randomize2;
#X connect 0 0 49 0;
#X connect 1 0 48 1;
#X connect 3 0 4 0;
#X connect 4 0 10 0;
#X connect 6 0 11 0;
#X connect 6 0 30 1;
#X connect 7 0 17 0;
#X connect 7 0 30 0;
#X connect 9 0 18 0;
#X connect 10 0 9 1;
#X connect 11 0 12 0;
#X connect 12 0 10 0;
#X connect 12 1 10 1;
#X connect 14 0 16 0;
#X connect 15 0 14 1;
#X connect 16 0 29 0;
#X connect 16 0 45 0;
#X connect 17 0 26 0;
#X connect 18 0 17 0;
#X connect 18 1 17 1;
#X connect 18 1 27 1;
#X connect 20 0 22 0;
#X connect 21 0 19 0;
#X connect 21 0 26 1;
#X connect 22 0 21 0;
#X connect 23 0 20 1;
#X connect 24 0 36 0;
#X connect 25 0 50 0;
#X connect 26 0 28 0;
#X connect 27 0 25 1;
#X connect 28 0 25 0;
#X connect 28 1 27 0;
#X connect 29 0 32 0;
#X connect 30 0 31 0;
#X connect 31 0 29 1;
#X connect 32 0 51 0;
#X connect 34 0 35 0;
#X connect 36 0 34 0;
#X connect 37 0 34 1;
#X connect 38 0 41 0;
#X connect 39 0 42 1;
#X connect 40 0 43 1;
#X connect 41 0 37 0;
#X connect 42 0 38 1;
#X connect 43 0 44 1;
#X connect 43 0 38 2;
#X connect 44 0 38 0;
#X connect 45 0 44 0;
#X connect 45 1 42 0;
#X connect 45 1 43 0;
#X connect 46 0 36 0;
#X connect 47 0 46 0;
#X connect 48 0 55 0;
#X connect 49 0 14 0;
#X connect 49 1 48 0;
#X connect 49 1 20 0;
#X connect 50 0 24 0;
#X connect 51 0 9 0;
#X connect 51 1 25 2;
#X connect 52 0 53 0;
#X connect 53 0 4 1;
#X connect 54 0 55 1;
#X connect 55 0 3 0;
