#N canvas 295 16 971 865 12;
#X obj 207 11 inlet bang;
#X text 368 32 transpositie in midi;
#X obj 385 230 mtof;
#X obj 382 255 / 440;
#X obj 156 130 r \$1-grssamrate;
#X obj 144 223 r \$1-grsnrsamples;
#X text 486 17 69 = geen transpositie;
#X obj 253 387 *;
#X obj 292 283 *;
#X obj 258 171 / 1000;
#X obj 266 200 t b f;
#X text 77 183 duur in ms;
#X obj 29 205 f;
#X obj 24 27 r \$1-grsslen;
#N canvas 0 0 555 554 randomize2 0;
#X floatatom 97 32 5 0 0 0 - - -;
#X obj 167 366 +;
#X obj 212 155 *;
#X obj 148 210 -;
#X obj 93 12 bng 15 250 50 0 empty empty empty 17 7 0 10 -262144 -1
-1;
#X text 348 14 beter ts 0 en 0.5 ca;
#X obj 143 22 inlet;
#X obj 149 410 outlet;
#X obj 149 74 t f f f;
#X obj 142 181 +;
#X obj 190 189 -;
#X obj 142 242 t b f;
#X obj 102 309 * 0.01;
#X obj 153 340 *;
#X text 24 438 (x+(x*perc))-(x-(x*perc)) \, dan random ts 0 en dit
getal \, dan optellen met x-(x*perc) \; omdat random gehele getallen
genereert is random hier genormalized tussen 0 en 1;
#X obj 89 279 random 101;
#X floatatom 209 404 5 0 0 0 - - -;
#X obj 216 16 r \$1-grssrndl;
#X obj 325 82 +;
#X obj 340 54 t b f;
#X obj 323 104 max 0;
#X obj 344 29 r \$1-grsxrndl;
#X obj 321 130 min 1;
#X connect 0 0 8 0;
#X connect 1 0 7 0;
#X connect 2 0 9 1;
#X connect 2 0 10 1;
#X connect 3 0 11 0;
#X connect 4 0 0 0;
#X connect 6 0 8 0;
#X connect 8 0 9 0;
#X connect 8 1 10 0;
#X connect 8 2 2 0;
#X connect 9 0 3 0;
#X connect 10 0 3 1;
#X connect 10 0 1 1;
#X connect 11 0 15 0;
#X connect 11 1 13 1;
#X connect 12 0 13 0;
#X connect 13 0 1 0;
#X connect 15 0 12 0;
#X connect 17 0 18 0;
#X connect 18 0 20 0;
#X connect 19 0 18 0;
#X connect 19 1 18 1;
#X connect 20 0 22 0;
#X connect 21 0 19 0;
#X connect 22 0 2 1;
#X restore 28 235 pd randomize2;
#X obj 240 442 -;
#X obj 257 413 t b f;
#X obj 407 449 s \$1-grsrindex;
#X obj 439 363 f;
#X obj 402 422 * 0.01;
#N canvas 90 537 578 374 randomize1 0;
#X obj 88 116 t f b;
#X obj 128 174 * 0.01;
#X obj 102 296 +;
#X obj 238 245 / 2;
#X obj 129 267 -;
#X obj 21 40 inlet;
#X obj 97 343 outlet;
#X obj 240 218 * 99;
#X obj 127 141 random 99;
#X obj 213 62 r \$1-grssrnds;
#X text 391 62 comment;
#X obj 326 103 +;
#X obj 352 60 t b f;
#X obj 324 125 max 0;
#X obj 320 28 r \$1-grsxrnds;
#X obj 322 151 min 0.5;
#X connect 0 0 2 0;
#X connect 0 1 8 0;
#X connect 1 0 4 0;
#X connect 2 0 6 0;
#X connect 3 0 4 1;
#X connect 4 0 2 1;
#X connect 5 0 0 0;
#X connect 7 0 3 0;
#X connect 8 0 1 0;
#X connect 9 0 11 0;
#X connect 11 0 13 0;
#X connect 12 0 11 0;
#X connect 12 1 11 1;
#X connect 13 0 15 0;
#X connect 14 0 12 0;
#X connect 15 0 7 0;
#X connect 15 0 1 1;
#X restore 402 396 pd randomize1;
#X obj 466 264 r \$1-grsspos;
#X obj 185 625 vline~;
#X obj 234 580 pack f f f;
#X obj 297 480 *;
#X obj 365 544 +;
#X obj 304 514 t f f;
#X obj 53 314 min;
#X obj 185 254 /;
#X obj 184 281 * 1000;
#X obj 55 338 max 1;
#X text 8 486 length = 0 impossible;
#X obj 244 814 *~;
#X obj 245 846 outlet~;
#X obj 140 727 tabread4~ \$1-grssample;
#X obj 398 770 vline~;
#X obj 399 721 pack f f f;
#X obj 376 492 r \$1-grssatt;
#X obj 586 493 r \$1-grssdec;
#X msg 396 745 1 \$2 \, 0 \$3 \$1;
#X obj 426 662 *;
#X obj 480 669 *;
#X obj 398 688 -;
#X obj 356 610 t f f;
#X msg 243 677 set \$1;
#X obj 242 650 r \$1-grssamname;
#X obj 373 86 f;
#X obj 202 38 t b b;
#X msg 222 603 \$1 \, \$2 \$3;
#X obj 67 361 t f f;
#X obj 513 202 r \$1-grssorip;
#X obj 512 228 mtof;
#X obj 487 55 r \$1-grssrndp;
#N canvas 0 0 555 554 randomize2 0;
#X floatatom 97 32 5 0 0 0 - - -;
#X obj 253 71 hsl 128 15 0 1 0 0 empty empty empty -2 -8 0 10 -262144
-1 -1 0 1;
#X text 251 54 randomize_%;
#X obj 167 366 +;
#X obj 203 101 *;
#X obj 148 210 -;
#X obj 93 12 bng 15 250 50 0 empty empty empty 17 7 0 10 -262144 -1
-1;
#X text 349 52 beter ts 0 en 0.5 ca;
#X obj 143 22 inlet;
#X obj 149 410 outlet;
#X obj 149 74 t f f f;
#X obj 142 181 +;
#X obj 187 145 -;
#X obj 142 242 t b f;
#X obj 102 309 * 0.01;
#X obj 153 340 *;
#X text 24 438 (x+(x*perc))-(x-(x*perc)) \, dan random ts 0 en dit
getal \, dan optellen met x-(x*perc) \; omdat random gehele getallen
genereert is random hier genormalized tussen 0 en 1;
#X obj 89 279 random 101;
#X floatatom 209 404 5 0 0 0 - - -;
#X obj 249 31 inlet;
#X connect 0 0 10 0;
#X connect 1 0 4 1;
#X connect 3 0 9 0;
#X connect 4 0 11 1;
#X connect 4 0 12 1;
#X connect 5 0 13 0;
#X connect 6 0 0 0;
#X connect 8 0 10 0;
#X connect 10 0 11 0;
#X connect 10 1 12 0;
#X connect 10 2 4 0;
#X connect 11 0 5 0;
#X connect 12 0 5 1;
#X connect 12 0 3 1;
#X connect 13 0 17 0;
#X connect 13 1 15 1;
#X connect 14 0 15 0;
#X connect 15 0 3 0;
#X connect 17 0 14 0;
#X connect 19 0 4 1;
#X restore 384 207 pd randomize2;
#X obj 463 545 +;
#X obj 476 518 t b f;
#X obj 583 106 +;
#X obj 595 78 t b f;
#X obj 581 128 max 0;
#X obj 599 50 r \$1-grsxrndp;
#X obj 579 154 min 0.25;
#X obj 560 296 +;
#X obj 572 267 t b f;
#X obj 558 318 max 0;
#X obj 574 235 r \$1-grsxpos;
#X obj 556 344 min 100;
#X obj 25 125 +;
#X obj 44 98 t b f;
#X obj 23 147 max 0;
#X obj 481 492 r \$1-grsxatt;
#X obj 461 567 max 0.01;
#X obj 459 593 min 0.5;
#X obj 584 582 +;
#X obj 597 555 t b f;
#X obj 582 604 max 0.01;
#X obj 580 630 min 0.5;
#X obj 602 529 r \$1-grsxdec;
#X obj 47 71 r \$1-grsxlen;
#X obj 21 173 min 260;
#X obj 414 80 r \$1-grsxp;
#X obj 402 135 +;
#X obj 414 107 t b f;
#X obj 400 157 max 0;
#X obj 399 183 min 127;
#X obj 392 56 inlet p;
#X connect 0 0 47 0;
#X connect 2 0 3 0;
#X connect 3 0 8 0;
#X connect 4 0 9 0;
#X connect 4 0 28 1;
#X connect 5 0 15 0;
#X connect 5 0 28 0;
#X connect 7 0 16 0;
#X connect 8 0 7 1;
#X connect 9 0 10 0;
#X connect 10 0 8 0;
#X connect 10 1 8 1;
#X connect 12 0 14 0;
#X connect 13 0 66 0;
#X connect 14 0 27 0;
#X connect 14 0 43 0;
#X connect 15 0 24 0;
#X connect 16 0 15 0;
#X connect 16 1 15 1;
#X connect 16 1 25 1;
#X connect 18 0 20 0;
#X connect 19 0 17 0;
#X connect 19 0 24 1;
#X connect 20 0 19 0;
#X connect 21 0 61 0;
#X connect 22 0 34 0;
#X connect 23 0 48 0;
#X connect 24 0 26 0;
#X connect 25 0 23 1;
#X connect 26 0 23 0;
#X connect 26 1 25 0;
#X connect 27 0 30 0;
#X connect 28 0 29 0;
#X connect 29 0 27 1;
#X connect 30 0 49 0;
#X connect 32 0 33 0;
#X connect 34 0 32 0;
#X connect 35 0 32 1;
#X connect 36 0 39 0;
#X connect 37 0 54 0;
#X connect 38 0 72 0;
#X connect 39 0 35 0;
#X connect 40 0 36 1;
#X connect 41 0 42 1;
#X connect 41 0 36 2;
#X connect 42 0 36 0;
#X connect 43 0 42 0;
#X connect 43 1 40 0;
#X connect 43 1 41 0;
#X connect 44 0 34 0;
#X connect 45 0 44 0;
#X connect 46 0 80 0;
#X connect 47 0 12 0;
#X connect 47 1 46 0;
#X connect 47 1 18 0;
#X connect 48 0 22 0;
#X connect 49 0 7 0;
#X connect 49 1 23 2;
#X connect 50 0 51 0;
#X connect 51 0 3 1;
#X connect 52 0 56 0;
#X connect 53 0 2 0;
#X connect 54 0 70 0;
#X connect 55 0 54 0;
#X connect 55 1 54 1;
#X connect 56 0 58 0;
#X connect 57 0 56 0;
#X connect 57 1 56 1;
#X connect 58 0 60 0;
#X connect 59 0 57 0;
#X connect 60 0 53 1;
#X connect 61 0 63 0;
#X connect 62 0 61 0;
#X connect 62 1 61 1;
#X connect 63 0 65 0;
#X connect 64 0 62 0;
#X connect 65 0 18 1;
#X connect 66 0 68 0;
#X connect 67 0 66 0;
#X connect 67 1 66 1;
#X connect 68 0 78 0;
#X connect 69 0 55 0;
#X connect 70 0 71 0;
#X connect 71 0 40 1;
#X connect 72 0 74 0;
#X connect 73 0 72 0;
#X connect 73 1 72 1;
#X connect 74 0 75 0;
#X connect 75 0 41 1;
#X connect 76 0 73 0;
#X connect 77 0 67 0;
#X connect 78 0 12 1;
#X connect 79 0 81 0;
#X connect 80 0 82 0;
#X connect 81 0 80 0;
#X connect 81 1 80 1;
#X connect 82 0 83 0;
#X connect 83 0 53 0;
#X connect 84 0 46 1;
