#N canvas 52 45 351 141 12;
#N canvas 305 206 698 467 key 0;
#X obj 154 20 key;
#X msg 18 152 60;
#X msg 43 140 61;
#X msg 69 153 62;
#X msg 92 138 63;
#X msg 114 153 64;
#X msg 142 153 65;
#X msg 162 135 66;
#X msg 187 153 67;
#X msg 211 133 68;
#X msg 234 154 69;
#X msg 258 131 70;
#X msg 282 152 71;
#X obj 115 224 f;
#X msg 307 152 60;
#X msg 332 140 61;
#X msg 358 153 62;
#X msg 381 138 63;
#X msg 403 153 64;
#X msg 431 153 65;
#X msg 451 135 66;
#X msg 476 153 67;
#X msg 500 133 68;
#X msg 523 154 69;
#X msg 547 131 70;
#X msg 571 152 71;
#X obj 349 225 + 12;
#X obj 159 48 select 119 115 120 100 99 118 103 98 104 110 106 44 97
233 122 34 101 114 40 116 167 121 232 117 105;
#X msg 601 155 72;
#X obj 220 297 outlet;
#X text 215 321 toetsenbord:;
#X text 167 343 2 3;
#X text 223 342 5 6 7 = do# re# fa# ...;
#X text 159 354 a z e r t y u i = do re mi fa sol ...;
#X text 429 348 -> octaaf hoger;
#X text 168 395 s d;
#X text 223 394 g h j = do# re# fa# ...;
#X text 159 406 w x c v b n \, = do re mi fa sol ...;
#X text 428 397 -> vanaf middelste do (midinoot 60);
#X obj 129 247 + 0;
#X obj 346 264 + 0;
#X obj 244 13 inlet laagoctaaf;
#X obj 457 11 inlet hoogoctaaf;
#X connect 0 0 27 0;
#X connect 1 0 13 0;
#X connect 2 0 13 0;
#X connect 3 0 13 0;
#X connect 4 0 13 0;
#X connect 5 0 13 0;
#X connect 6 0 13 0;
#X connect 7 0 13 0;
#X connect 8 0 13 0;
#X connect 9 0 13 0;
#X connect 10 0 13 0;
#X connect 11 0 13 0;
#X connect 12 0 13 0;
#X connect 13 0 39 0;
#X connect 14 0 26 0;
#X connect 15 0 26 0;
#X connect 16 0 26 0;
#X connect 17 0 26 0;
#X connect 18 0 26 0;
#X connect 19 0 26 0;
#X connect 20 0 26 0;
#X connect 21 0 26 0;
#X connect 22 0 26 0;
#X connect 23 0 26 0;
#X connect 24 0 26 0;
#X connect 25 0 26 0;
#X connect 26 0 40 0;
#X connect 27 0 1 0;
#X connect 27 1 2 0;
#X connect 27 2 3 0;
#X connect 27 3 4 0;
#X connect 27 4 5 0;
#X connect 27 5 6 0;
#X connect 27 6 7 0;
#X connect 27 7 8 0;
#X connect 27 8 9 0;
#X connect 27 9 10 0;
#X connect 27 10 11 0;
#X connect 27 11 12 0;
#X connect 27 12 14 0;
#X connect 27 13 15 0;
#X connect 27 14 16 0;
#X connect 27 15 17 0;
#X connect 27 16 18 0;
#X connect 27 17 19 0;
#X connect 27 18 20 0;
#X connect 27 19 21 0;
#X connect 27 20 22 0;
#X connect 27 21 23 0;
#X connect 27 22 24 0;
#X connect 27 23 25 0;
#X connect 27 24 28 0;
#X connect 28 0 26 0;
#X connect 39 0 29 0;
#X connect 40 0 29 0;
#X connect 41 0 39 1;
#X connect 42 0 40 1;
#X restore 44 252 pd key;
#X obj 45 281 + 0;
#X obj 41 313 spigot;
#X obj 28 591 outlet;
#X obj 101 284 r \$1-azeson;
#X obj 142 212 r \$1-azesup;
#X obj 41 213 r \$1-azeslow;
#X obj 117 248 r \$1-azesall;
#X obj 38 342 min 127;
#X obj 45 366 max 0;
#X floatatom 430 597 5 0 0 0 - - -;
#X obj 33 484 t f b;
#X obj 93 593 outlet velocity;
#X msg 95 549 90;
#N canvas 452 452 837 423 printallreceives 0;
#X obj 35 63 f \$1;
#X obj 33 6 bng 15 250 50 0 empty empty empty 17 7 0 10 -262144 -1
-1;
#X obj 70 173 t f f f f f f f f f;
#X obj 36 87 t f f;
#X obj 166 21 r \$1-azeprintreceives;
#X obj 92 136 print start;
#X obj 49 370 print end;
#X msg 91 109 names of receives in [keyboard-azerty \$1]...................>>
;
#X msg 631 240 \$1-azerwav;
#X msg 518 267 \$1-azerglide;
#X msg 48 344 <<.........................................[keyboard-azerty
\$1];
#X msg 331 279 \$1-azerglt;
#X msg 184 276 \$1-azerfreq;
#X msg 45 278 \$1-azerlev;
#X obj 44 304 print level[0-1];
#X obj 179 304 print pitch[0-127];
#X obj 332 302 print glide_time[0-xxx];
#X obj 525 302 print glide[0-1];
#X obj 634 266 print wave_selector[0-5];
#X obj 10 21 r printreceives;
#X connect 0 0 3 0;
#X connect 1 0 0 0;
#X connect 2 0 10 0;
#X connect 2 4 13 0;
#X connect 2 5 12 0;
#X connect 2 6 11 0;
#X connect 2 7 9 0;
#X connect 2 8 8 0;
#X connect 3 0 2 0;
#X connect 3 1 7 0;
#X connect 4 0 0 0;
#X connect 7 0 5 0;
#X connect 8 0 18 0;
#X connect 9 0 17 0;
#X connect 10 0 6 0;
#X connect 11 0 16 0;
#X connect 12 0 15 0;
#X connect 13 0 14 0;
#X connect 19 0 0 0;
#X restore 407 558 pd printallreceives;
#N canvas 219 502 433 169 \$1-keyboard-azertyextra 0;
#X obj 8 72 bng 15 250 50 0 printreceives empty print_all_receives
17 7 0 10 -262144 -1 -1;
#X obj 7 13 bng 15 250 50 0 \$1-azeprintreceives empty print_names_of_receives
17 7 0 10 -262144 -1 -1;
#X text 66 91 (of all objects in open files);
#X text 65 32 (of this 'keyboard-azerty' object);
#X text 81 121 duration of note-on (before note-off is sent);
#X obj 18 124 nbx 5 14 -1e+037 1e+037 0 0 \$1-azesvdur \$1-azervdur
empty 0 -8 0 10 -262144 -1 -1 500 256;
#X restore 374 508 pd \$1-keyboard-azertyextra;
#X obj 407 297 f \$1;
#X obj 410 347 symbol;
#X msg 411 373 \; \$1 vis 1;
#X obj 409 274 r \$1-azesextraoptions;
#X msg 412 322 pd-\$1-keyboard-azertyextra;
#N canvas 335 33 859 875 foutmelding 0;
#X obj 87 38 loadbang;
#X obj 79 83 f \$1;
#X obj 73 111 select 0;
#X msg 75 197 \; \$1 vis 1;
#X msg 74 142 36;
#X text 151 150 ascii-code voor $;
#X text 197 199 als er geen argument is \, noemt de subpatch vreemd
genoeg niet pd 0-warning maar wel pd \$1-warning;
#X text 129 80 als er geen argument is geeft f \$1 een 0;
#X obj 154 336 del 100;
#X msg 319 355 1;
#X obj 238 405 spigot;
#X obj 342 453 spigot;
#X obj 409 425 == 0;
#X obj 338 423 r keyboard-azerty;
#X obj 240 489 s keyboard-azerty;
#X obj 208 305 t b b b;
#X obj 314 389 t f f;
#X obj 241 429 del 150;
#X obj 239 460 f \$1;
#X msg 169 357 0;
#X obj 378 506 == \$1;
#X obj 455 604 > 1;
#X obj 341 478 t f f;
#X obj 391 568 f 0;
#X obj 390 538 select 1;
#X obj 330 541 spigot;
#X obj 459 569 + 1;
#X obj 336 602 == \$1;
#X obj 396 628 &&;
#X obj 158 628 print pop;
#X text 487 604 groter dan 1 want vergelijking et zichzelf levert sowieso
al 1 op en dan met ev. zelfde object met identiek argument levert 2
op!;
#X obj 396 656 select 1;
#X obj 396 678 f \$1;
#X obj 398 768 symbol;
#X msg 396 795 \; \$1 vis 1;
#X obj 363 706 t f f;
#X obj 92 820 symbol;
#X obj 170 872 print;
#X obj 326 662 bng 15 250 50 0 empty empty empty 17 7 0 10 -262144
-1 -1;
#X msg 173 839 !!! these two abunch objects have the same argument
number: [keyboard-azerty \$1];
#X text 406 346 alleen net gecreerde object verstuurt waarde;
#X text 398 372 bij eerder gemaakte objecten staat spigot voor receive
open;
#N canvas 670 470 308 138 \$1-keyboard-azertywarning 0;
#X obj -1 0 cnv 15 320 150 empty empty empty 20 12 0 14 -258699 -66577
0;
#X text 11 32 You forgot to add an unique number;
#X text 11 78 when you created this abunch object;
#X restore 349 165 pd \$1-keyboard-azertywarning;
#N canvas 856 445 327 127 \$1-keyboard-azertysameargument 0;
#X obj -1 0 cnv 15 330 150 empty empty empty 20 12 0 14 -258699 -66577
0;
#X msg 393 108;
#X text 314 243 is used already!!;
#X obj 344 35 inlet;
#X symbolatom 351 77 10 0 0 0 - - -;
#X obj 98 40 cnv 15 60 20 empty empty empty 20 12 0 14 -233017 -66577
0;
#X text 24 40 Create an unique number for this;
#X text 102 69 abunch object.;
#X connect 3 0 1 0;
#X connect 3 0 4 0;
#X restore 541 770 pd \$1-keyboard-azertysameargument;
#X msg 397 738 pd-\$1-keyboard-azertysameargument;
#X obj 74 171 makefilename pd-%c1-keyboard-azertywarning;
#X connect 0 0 1 0;
#X connect 0 0 15 0;
#X connect 1 0 2 0;
#X connect 2 0 4 0;
#X connect 4 0 45 0;
#X connect 8 0 19 0;
#X connect 9 0 16 0;
#X connect 10 0 17 0;
#X connect 11 0 22 0;
#X connect 12 0 11 1;
#X connect 13 0 11 0;
#X connect 15 0 8 0;
#X connect 15 1 10 0;
#X connect 15 2 9 0;
#X connect 16 0 10 1;
#X connect 16 1 12 0;
#X connect 17 0 18 0;
#X connect 18 0 14 0;
#X connect 19 0 16 0;
#X connect 20 0 24 0;
#X connect 20 0 25 1;
#X connect 21 0 28 1;
#X connect 22 0 25 0;
#X connect 22 1 20 0;
#X connect 23 0 26 0;
#X connect 24 0 23 0;
#X connect 25 0 27 0;
#X connect 26 0 23 1;
#X connect 26 0 21 0;
#X connect 27 0 28 0;
#X connect 28 0 31 0;
#X connect 31 0 32 0;
#X connect 32 0 35 0;
#X connect 33 0 34 0;
#X connect 35 0 44 0;
#X connect 35 1 39 0;
#X connect 38 0 32 0;
#X connect 39 0 37 0;
#X connect 44 0 33 0;
#X connect 45 0 3 0;
#X restore 407 456 pd foutmelding;
#X obj 256 497 r \$1-azesvdur;
#X obj 146 539 makenote 90 500;
#X obj 40 453 spigot;
#X obj 149 388 r \$1-azesvelon;
#X obj 129 454 spigot;
#X obj 91 418 == 0;
#N canvas 744 585 566 199 needsound 0;
#X obj 22 34 r soundfileyesno;
#X msg 18 67 0;
#X obj 22 138 s answersoundfile;
#X text 63 65 0 = this abunch object doesn't need a sound file (store
in a preset file) \, 1 = it does;
#X connect 0 0 1 0;
#X connect 1 0 2 0;
#X restore 424 480 pd needsound;
#X obj 0 -2 cnv 15 380 160 empty empty empty 20 12 0 14 -142067 -66577
0;
#X obj 20 86 nbx 5 14 -60 60 0 0 \$1-azesall \$1-azerall shift_all
0 -8 0 10 -262144 -1 -1 0 256;
#X obj 245 86 nbx 5 14 -60 60 0 0 \$1-azesup \$1-azerup shift_upper
0 -8 0 10 -262144 -1 -1 0 256;
#X obj 122 86 nbx 5 14 -60 60 0 0 \$1-azeslow \$1-azerlow shift_lower
0 -8 0 10 -262144 -1 -1 0 256;
#X obj 61 19 tgl 20 0 \$1-azeson \$1-azeron on/off 24 10 0 10 -262144
-1 -1 1 1;
#X obj 213 26 tgl 15 0 \$1-azespreset \$1-azerpreset presets_off 17
7 0 8 -262144 -1 -1 0 57;
#X obj 242 115 bng 10 250 50 0 \$1-azesextraoptions empty extra_options
17 7 0 8 -262144 -1 -1;
#X obj 24 114 tgl 15 0 \$1-azesvelon \$1-azervelon send_pitch_and_velocity
17 7 0 8 -262144 -1 -1 0 1;
#N canvas 234 40 637 300 presets 0;
#X obj 42 45 r \$1-azeson;
#X obj 31 183 s \$1-azeron;
#N canvas 276 161 1004 568 save_preset_array 0;
#X obj 19 403 inlet gui1;
#X obj 112 405 inlet gui2;
#X obj 197 403 inlet gui3;
#X obj 290 405 inlet gui4;
#X obj 204 438 f;
#X obj 285 440 f;
#X obj 25 443 f;
#X obj 106 445 f;
#X obj 83 109 until;
#X obj 62 173 + 1;
#X floatatom 101 291 5 0 0 0 - - -;
#X obj 89 142 f 0;
#X obj 79 42 bng 15 250 50 0 empty empty empty 17 7 0 10 -262144 -1
-1;
#X obj 60 332 select 1 2 3 4 5 6 7 8 9 10;
#X obj 574 473 r openpreset;
#X obj 165 12 r savepreset;
#X obj 21 825 outlet gui1;
#X obj 112 827 outlet gui2;
#X obj 201 827 outlet gui3;
#X obj 293 827 outlet gui4;
#X obj 495 598 until;
#X obj 472 657 + 1;
#X obj 499 626 f 0;
#N canvas 52 160 1048 298 router_1inxout 0;
#X obj 231 27 inlet one;
#X obj 339 23 inlet route123;
#X obj 35 211 outlet one;
#X obj 124 210 outlet two;
#X obj 218 211 outlet three;
#X obj 323 211 outlet four;
#X obj 415 210 outlet five;
#X obj 510 211 outlet six;
#X obj 599 210 outlet seven;
#X obj 700 213 outlet eigth;
#X obj 805 212 outlet nine;
#X obj 897 211 outlet ten;
#X obj 360 124 route 1 2 3 4 5 6 7 8 9 10;
#X obj 361 83 pack;
#X obj 296 57 mod 12;
#X connect 0 0 14 0;
#X connect 1 0 13 1;
#X connect 12 0 2 0;
#X connect 12 1 3 0;
#X connect 12 2 4 0;
#X connect 12 3 5 0;
#X connect 12 4 6 0;
#X connect 12 5 7 0;
#X connect 12 6 8 0;
#X connect 12 7 9 0;
#X connect 12 8 10 0;
#X connect 12 9 11 0;
#X connect 13 0 12 0;
#X connect 14 0 13 0;
#X restore 336 767 pd router_1inxout;
#X obj 211 106 f 0;
#X obj 335 24 r presetnr;
#X obj 336 49 * 12;
#X obj 334 72 - 12;
#X obj 587 587 f 0;
#X obj 495 685 t f f;
#X obj 85 201 t f f;
#N canvas 0 0 450 300 (subpatch) 0;
#X array \$1-azepreset 240 float 2;
#X coords 0 200 239 -1 200 140 1;
#X restore 524 132 graph;
#X floatatom 419 697 5 0 0 0 - - -;
#X floatatom 297 741 5 0 0 0 - - -;
#X obj 66 240 mod 12;
#X text 386 60 -> !!! per 12;
#X text 130 240 -> !!! per 12;
#X text 612 775 -> !!! hierin ook per 12;
#X msg 133 82 12;
#X text 174 83 -> !!! per 12;
#X text 579 54 max 12 parameters/waarden voor array/presets;
#X obj 302 204 symbol;
#X obj 403 183 symbol;
#X obj 345 245 pack s s;
#X obj 402 153 r namepreset;
#X obj 294 155 f \$1;
#X msg 319 272 \; \$1 write presets/\$2-\$1.txt;
#X obj 170 37 t b b b;
#X obj 716 628 symbol;
#X obj 756 655 pack s s;
#X obj 827 582 r namepreset;
#X obj 662 578 f \$1;
#X obj 819 618 symbol;
#X msg 750 686 \; \$1 read presets/\$2-\$1.txt;
#X obj 570 546 t b b b;
#X msg 528 575 12;
#X obj 375 403 inlet gui2;
#X obj 460 401 inlet gui3;
#X obj 553 403 inlet gui4;
#X obj 467 436 f;
#X obj 548 438 f;
#X obj 369 443 f;
#X obj 397 827 outlet gui2;
#X obj 486 827 outlet gui3;
#X obj 578 827 outlet gui4;
#X msg 293 182 \$1-azepreset;
#X obj 259 551 tabwrite \$1-azepreset;
#X msg 675 604 \$1-azepreset;
#X obj 450 737 tabread \$1-azepreset;
#X obj 686 452 r \$1-azespreset;
#X obj 578 507 spigot;
#X obj 687 477 == 0;
#X connect 0 0 6 1;
#X connect 1 0 7 1;
#X connect 2 0 4 1;
#X connect 3 0 5 1;
#X connect 4 0 66 0;
#X connect 5 0 66 0;
#X connect 6 0 66 0;
#X connect 7 0 66 0;
#X connect 8 0 11 0;
#X connect 9 0 11 1;
#X connect 9 0 30 0;
#X connect 11 0 9 0;
#X connect 12 0 8 0;
#X connect 13 0 6 0;
#X connect 13 1 7 0;
#X connect 13 2 4 0;
#X connect 13 3 5 0;
#X connect 13 4 61 0;
#X connect 13 5 59 0;
#X connect 13 6 60 0;
#X connect 14 0 70 0;
#X connect 15 0 47 0;
#X connect 20 0 22 0;
#X connect 21 0 22 1;
#X connect 21 0 29 0;
#X connect 21 0 32 0;
#X connect 22 0 21 0;
#X connect 23 0 16 0;
#X connect 23 1 17 0;
#X connect 23 2 18 0;
#X connect 23 3 19 0;
#X connect 23 4 62 0;
#X connect 23 5 63 0;
#X connect 23 6 64 0;
#X connect 24 0 11 1;
#X connect 25 0 26 0;
#X connect 26 0 27 0;
#X connect 27 0 24 1;
#X connect 27 0 28 1;
#X connect 28 0 22 1;
#X connect 29 0 23 0;
#X connect 29 1 68 0;
#X connect 30 0 34 0;
#X connect 30 1 10 0;
#X connect 30 1 66 1;
#X connect 34 0 13 0;
#X connect 38 0 8 0;
#X connect 41 0 43 0;
#X connect 42 0 43 1;
#X connect 43 0 46 0;
#X connect 44 0 42 0;
#X connect 45 0 65 0;
#X connect 47 0 45 0;
#X connect 47 1 38 0;
#X connect 47 2 24 0;
#X connect 48 0 49 0;
#X connect 49 0 53 0;
#X connect 50 0 52 0;
#X connect 51 0 67 0;
#X connect 52 0 49 1;
#X connect 54 0 55 0;
#X connect 54 1 28 0;
#X connect 54 2 51 0;
#X connect 55 0 20 0;
#X connect 56 0 61 1;
#X connect 57 0 59 1;
#X connect 58 0 60 1;
#X connect 59 0 66 0;
#X connect 60 0 66 0;
#X connect 61 0 66 0;
#X connect 65 0 41 0;
#X connect 67 0 48 0;
#X connect 68 0 23 1;
#X connect 68 0 33 0;
#X connect 69 0 71 0;
#X connect 70 0 54 0;
#X connect 71 0 70 1;
#X restore 107 114 pd save_preset_array;
#X obj 306 33 r \$1-azesup;
#X obj 145 82 r \$1-azeslow;
#X obj 99 64 r \$1-azesall;
#X obj 165 176 s \$1-azerup;
#X obj 94 229 s \$1-azerlow;
#X obj 68 206 s \$1-azerall;
#X obj 162 297 s \$1-azerpreset;
#X obj 333 62 r \$1-azesvelon;
#X obj 219 201 s \$1-azervelon;
#X obj 351 85 r \$1-azesvdur;
#X obj 248 231 s \$1-azervdur;
#X connect 0 0 2 0;
#X connect 2 0 1 0;
#X connect 2 1 8 0;
#X connect 2 2 7 0;
#X connect 2 3 6 0;
#X connect 2 5 11 0;
#X connect 2 6 13 0;
#X connect 3 0 2 3;
#X connect 4 0 2 2;
#X connect 5 0 2 1;
#X connect 10 0 2 5;
#X connect 12 0 2 6;
#X restore 423 425 pd presets;
#N canvas 540 309 293 166 printname 0;
#X obj 54 37 r printallnames;
#X obj 54 107 symbol;
#X obj 54 132 s rallnames;
#X msg 54 73 keyboard-azerty;
#X connect 0 0 3 0;
#X connect 1 0 2 0;
#X connect 3 0 1 0;
#X restore 420 532 pd printname;
#N canvas 394 275 588 284 presetsnew 0;
#X obj 210 58 r savepresetn;
#X obj 203 119 t b b b;
#N canvas 142 83 1041 339 name-sends-normal 0;
#N canvas 0 0 450 300 (subpatch) 0;
#X array \$1-azebetween 12 float 2;
#X coords 0 10000 12 -10000 20 20 1;
#X restore 15 236 graph;
#X obj 409 286 tabwrite \$1-azebetween;
#X obj 438 235 unpack f f;
#X obj 98 156 pack f 1;
#X obj 135 178 pack f 2;
#X obj 186 200 pack f 3;
#X obj 236 155 pack f 4;
#X obj 273 177 pack f 5;
#X obj 324 199 pack f 6;
#X obj 368 156 pack f 7;
#X obj 405 178 pack f 8;
#X obj 449 199 pack f 9;
#X obj 508 156 pack f 10;
#X obj 545 178 pack f 11;
#X obj 596 199 pack f 12;
#X obj 665 156 pack f 13;
#X obj 702 178 pack f 14;
#X obj 754 201 pack f 15;
#X obj 798 156 pack f 16;
#X obj 835 179 pack f 17;
#X obj 884 203 pack f 18;
#X text 38 238 -> adjust size if necessary (standard size = 109);
#X obj 42 45 r \$1-azeson;
#X obj 266 38 r \$1-azesup;
#X obj 145 85 r \$1-azeslow;
#X obj 99 64 r \$1-azesall;
#X obj 297 61 r \$1-azesvelon;
#X obj 315 87 r \$1-azesvdur;
#X connect 2 0 1 0;
#X connect 2 1 1 1;
#X connect 3 0 2 0;
#X connect 4 0 2 0;
#X connect 5 0 2 0;
#X connect 6 0 2 0;
#X connect 7 0 2 0;
#X connect 8 0 2 0;
#X connect 9 0 2 0;
#X connect 10 0 2 0;
#X connect 11 0 2 0;
#X connect 12 0 2 0;
#X connect 13 0 2 0;
#X connect 14 0 2 0;
#X connect 15 0 2 0;
#X connect 16 0 2 0;
#X connect 17 0 2 0;
#X connect 18 0 2 0;
#X connect 19 0 2 0;
#X connect 20 0 2 0;
#X connect 22 0 3 0;
#X connect 23 0 6 0;
#X connect 24 0 5 0;
#X connect 25 0 4 0;
#X connect 26 0 7 0;
#X connect 27 0 8 0;
#X restore 75 27 pd name-sends-normal;
#X obj 223 196 s toextfile;
#N canvas 636 185 560 404 normal 0;
#X obj 278 134 f \$1;
#X obj 237 278 symbol;
#X obj 42 268 list prepend add2;
#X obj 42 293 list trim;
#X obj 188 51 t b b b b b;
#X obj 154 135 f 0;
#X obj 193 135 + 1;
#X msg 181 103 0;
#X msg 240 196 azerx\$1;
#X obj 237 222 pack s f;
#X msg 237 249 \$2-\$1;
#X obj 131 102 until;
#X obj 193 161 t f f;
#X obj 21 193 tabread \$1-azebetween;
#X text 151 77 -> aanpassen! aantal op te slagen floats;
#X obj 180 16 inlet;
#X obj 229 345 outlet;
#X msg 235 311 add2 () norm 0 0 \$1;
#X obj 111 76 f 6;
#X connect 0 0 9 1;
#X connect 1 0 17 0;
#X connect 2 0 3 0;
#X connect 3 0 16 0;
#X connect 4 3 18 0;
#X connect 4 4 0 0;
#X connect 4 4 7 0;
#X connect 5 0 6 0;
#X connect 6 0 5 1;
#X connect 6 0 12 0;
#X connect 7 0 5 1;
#X connect 8 0 9 0;
#X connect 9 0 10 0;
#X connect 10 0 1 0;
#X connect 11 0 5 0;
#X connect 12 0 13 0;
#X connect 12 1 8 0;
#X connect 13 0 2 0;
#X connect 15 0 4 0;
#X connect 17 0 16 0;
#X connect 18 0 11 0;
#X restore 217 153 pd normal;
#X text 179 152 !!->;
#X text 212 245 !!->;
#N canvas 49 0 1083 348 receive-normal 0;
#X obj 24 26 r \$1-azerx1;
#X obj 54 46 r \$1-azerx2;
#X obj 85 66 r \$1-azerx3;
#X obj 196 19 r \$1-azerx4;
#X obj 226 39 r \$1-azerx5;
#X obj 257 59 r \$1-azerx6;
#X obj 364 16 r \$1-azerx7;
#X obj 382 37 r \$1-azerx8;
#X obj 416 58 r \$1-azerx9;
#X obj 523 33 r \$1-azerx10;
#X obj 553 53 r \$1-azerx11;
#X obj 584 73 r \$1-azerx12;
#X obj 703 33 r \$1-azerx13;
#X obj 733 53 r \$1-azerx14;
#X obj 764 73 r \$1-azerx15;
#X obj 863 33 r \$1-azerx16;
#X obj 893 53 r \$1-azerx17;
#X obj 924 73 r \$1-azerx18;
#X text 640 233 ^ hier aanvullen ^;
#N canvas 30 18 246 218 cmp 0;
#X obj 42 65 list split 1;
#X obj 88 119 ==;
#X obj 43 151 spigot;
#X obj 43 176 outlet;
#X obj 42 28 inlet;
#X obj 110 30 r \$1-azearg2;
#X connect 0 0 2 0;
#X connect 0 1 1 0;
#X connect 1 0 2 1;
#X connect 2 0 3 0;
#X connect 4 0 0 0;
#X connect 5 0 1 1;
#X restore 22 100 pd cmp;
#N canvas 355 32 246 300 cmp 0;
#X obj 42 65 list split 1;
#X obj 88 119 ==;
#X obj 43 151 spigot;
#X obj 43 176 outlet;
#X obj 42 28 inlet;
#X obj 110 30 r \$1-azearg2;
#X connect 0 0 2 0;
#X connect 0 1 1 0;
#X connect 1 0 2 1;
#X connect 2 0 3 0;
#X connect 4 0 0 0;
#X connect 5 0 1 1;
#X restore 42 125 pd cmp;
#N canvas 0 0 246 300 cmp 0;
#X obj 42 65 list split 1;
#X obj 88 119 ==;
#X obj 43 151 spigot;
#X obj 43 176 outlet;
#X obj 42 28 inlet;
#X obj 110 30 r \$1-azearg2;
#X connect 0 0 2 0;
#X connect 0 1 1 0;
#X connect 1 0 2 1;
#X connect 2 0 3 0;
#X connect 4 0 0 0;
#X connect 5 0 1 1;
#X restore 59 153 pd cmp;
#N canvas 0 0 246 300 cmp 0;
#X obj 42 65 list split 1;
#X obj 88 119 ==;
#X obj 43 151 spigot;
#X obj 43 176 outlet;
#X obj 42 28 inlet;
#X obj 110 30 r \$1-azearg2;
#X connect 0 0 2 0;
#X connect 0 1 1 0;
#X connect 1 0 2 1;
#X connect 2 0 3 0;
#X connect 4 0 0 0;
#X connect 5 0 1 1;
#X restore 172 100 pd cmp;
#N canvas 0 0 246 300 cmp 0;
#X obj 42 65 list split 1;
#X obj 88 119 ==;
#X obj 43 151 spigot;
#X obj 43 176 outlet;
#X obj 42 28 inlet;
#X obj 110 30 r \$1-azearg2;
#X connect 0 0 2 0;
#X connect 0 1 1 0;
#X connect 1 0 2 1;
#X connect 2 0 3 0;
#X connect 4 0 0 0;
#X connect 5 0 1 1;
#X restore 192 125 pd cmp;
#N canvas 308 15 246 215 cmp 0;
#X obj 42 65 list split 1;
#X obj 88 119 ==;
#X obj 43 151 spigot;
#X obj 43 176 outlet;
#X obj 42 28 inlet;
#X obj 110 30 r \$1-azearg2;
#X connect 0 0 2 0;
#X connect 0 1 1 0;
#X connect 1 0 2 1;
#X connect 2 0 3 0;
#X connect 4 0 0 0;
#X connect 5 0 1 1;
#X restore 209 153 pd cmp;
#N canvas 0 0 246 300 cmp 0;
#X obj 42 65 list split 1;
#X obj 88 119 ==;
#X obj 43 151 spigot;
#X obj 43 176 outlet;
#X obj 42 28 inlet;
#X obj 110 30 r \$1-azearg2;
#X connect 0 0 2 0;
#X connect 0 1 1 0;
#X connect 1 0 2 1;
#X connect 2 0 3 0;
#X connect 4 0 0 0;
#X connect 5 0 1 1;
#X restore 362 100 pd cmp;
#N canvas 0 0 246 300 cmp 0;
#X obj 42 65 list split 1;
#X obj 88 119 ==;
#X obj 43 151 spigot;
#X obj 43 176 outlet;
#X obj 42 28 inlet;
#X obj 110 30 r \$1-azearg2;
#X connect 0 0 2 0;
#X connect 0 1 1 0;
#X connect 1 0 2 1;
#X connect 2 0 3 0;
#X connect 4 0 0 0;
#X connect 5 0 1 1;
#X restore 382 125 pd cmp;
#N canvas 0 0 246 300 cmp 0;
#X obj 42 65 list split 1;
#X obj 88 119 ==;
#X obj 43 151 spigot;
#X obj 43 176 outlet;
#X obj 42 28 inlet;
#X obj 110 30 r \$1-azearg2;
#X connect 0 0 2 0;
#X connect 0 1 1 0;
#X connect 1 0 2 1;
#X connect 2 0 3 0;
#X connect 4 0 0 0;
#X connect 5 0 1 1;
#X restore 399 153 pd cmp;
#N canvas 0 0 246 300 cmp 0;
#X obj 42 65 list split 1;
#X obj 88 119 ==;
#X obj 43 151 spigot;
#X obj 43 176 outlet;
#X obj 42 28 inlet;
#X obj 110 30 r \$1-azearg2;
#X connect 0 0 2 0;
#X connect 0 1 1 0;
#X connect 1 0 2 1;
#X connect 2 0 3 0;
#X connect 4 0 0 0;
#X connect 5 0 1 1;
#X restore 542 110 pd cmp;
#N canvas 0 0 246 300 cmp 0;
#X obj 42 65 list split 1;
#X obj 88 119 ==;
#X obj 43 151 spigot;
#X obj 43 176 outlet;
#X obj 42 28 inlet;
#X obj 110 30 r \$1-azearg2;
#X connect 0 0 2 0;
#X connect 0 1 1 0;
#X connect 1 0 2 1;
#X connect 2 0 3 0;
#X connect 4 0 0 0;
#X connect 5 0 1 1;
#X restore 562 135 pd cmp;
#N canvas 0 0 246 300 cmp 0;
#X obj 42 65 list split 1;
#X obj 88 119 ==;
#X obj 43 151 spigot;
#X obj 43 176 outlet;
#X obj 42 28 inlet;
#X obj 110 30 r \$1-azearg2;
#X connect 0 0 2 0;
#X connect 0 1 1 0;
#X connect 1 0 2 1;
#X connect 2 0 3 0;
#X connect 4 0 0 0;
#X connect 5 0 1 1;
#X restore 579 163 pd cmp;
#N canvas 0 0 246 300 cmp 0;
#X obj 42 65 list split 1;
#X obj 88 119 ==;
#X obj 43 151 spigot;
#X obj 43 176 outlet;
#X obj 42 28 inlet;
#X obj 110 30 r \$1-azearg2;
#X connect 0 0 2 0;
#X connect 0 1 1 0;
#X connect 1 0 2 1;
#X connect 2 0 3 0;
#X connect 4 0 0 0;
#X connect 5 0 1 1;
#X restore 692 110 pd cmp;
#N canvas 0 0 246 300 cmp 0;
#X obj 42 65 list split 1;
#X obj 88 119 ==;
#X obj 43 151 spigot;
#X obj 43 176 outlet;
#X obj 42 28 inlet;
#X obj 110 30 r \$1-azearg2;
#X connect 0 0 2 0;
#X connect 0 1 1 0;
#X connect 1 0 2 1;
#X connect 2 0 3 0;
#X connect 4 0 0 0;
#X connect 5 0 1 1;
#X restore 712 135 pd cmp;
#N canvas 0 0 246 300 cmp 0;
#X obj 42 65 list split 1;
#X obj 88 119 ==;
#X obj 43 151 spigot;
#X obj 43 176 outlet;
#X obj 42 28 inlet;
#X obj 110 30 r \$1-azearg2;
#X connect 0 0 2 0;
#X connect 0 1 1 0;
#X connect 1 0 2 1;
#X connect 2 0 3 0;
#X connect 4 0 0 0;
#X connect 5 0 1 1;
#X restore 729 163 pd cmp;
#N canvas 0 0 246 300 cmp 0;
#X obj 42 65 list split 1;
#X obj 88 119 ==;
#X obj 43 151 spigot;
#X obj 43 176 outlet;
#X obj 42 28 inlet;
#X obj 110 30 r \$1-azearg2;
#X connect 0 0 2 0;
#X connect 0 1 1 0;
#X connect 1 0 2 1;
#X connect 2 0 3 0;
#X connect 4 0 0 0;
#X connect 5 0 1 1;
#X restore 882 100 pd cmp;
#N canvas 0 0 246 300 cmp 0;
#X obj 42 65 list split 1;
#X obj 88 119 ==;
#X obj 43 151 spigot;
#X obj 43 176 outlet;
#X obj 42 28 inlet;
#X obj 110 30 r \$1-azearg2;
#X connect 0 0 2 0;
#X connect 0 1 1 0;
#X connect 1 0 2 1;
#X connect 2 0 3 0;
#X connect 4 0 0 0;
#X connect 5 0 1 1;
#X restore 902 125 pd cmp;
#N canvas 0 0 246 300 cmp 0;
#X obj 42 65 list split 1;
#X obj 88 119 ==;
#X obj 43 151 spigot;
#X obj 43 176 outlet;
#X obj 42 28 inlet;
#X obj 110 30 r \$1-azearg2;
#X connect 0 0 2 0;
#X connect 0 1 1 0;
#X connect 1 0 2 1;
#X connect 2 0 3 0;
#X connect 4 0 0 0;
#X connect 5 0 1 1;
#X restore 919 153 pd cmp;
#X obj 39 197 s \$1-azeron;
#X obj 173 190 s \$1-azerup;
#X obj 102 243 s \$1-azerlow;
#X obj 76 220 s \$1-azerall;
#X obj 227 215 s \$1-azervelon;
#X obj 256 245 s \$1-azervdur;
#X connect 0 0 19 0;
#X connect 1 0 20 0;
#X connect 2 0 21 0;
#X connect 3 0 22 0;
#X connect 4 0 23 0;
#X connect 5 0 24 0;
#X connect 6 0 25 0;
#X connect 7 0 26 0;
#X connect 8 0 27 0;
#X connect 9 0 28 0;
#X connect 10 0 29 0;
#X connect 11 0 30 0;
#X connect 12 0 31 0;
#X connect 13 0 32 0;
#X connect 14 0 33 0;
#X connect 15 0 34 0;
#X connect 16 0 35 0;
#X connect 17 0 36 0;
#X connect 19 0 37 0;
#X connect 20 0 40 0;
#X connect 21 0 39 0;
#X connect 22 0 38 0;
#X connect 23 0 41 0;
#X connect 24 0 42 0;
#X restore 251 246 pd receive-normal;
#X text 32 27 !!->;
#N canvas 0 0 246 300 cmp 0;
#X obj 42 65 list split 1;
#X obj 88 119 ==;
#X obj 43 151 spigot;
#X obj 43 176 outlet;
#X obj 42 28 inlet;
#X obj 157 64 inlet;
#X connect 0 0 2 0;
#X connect 0 1 1 0;
#X connect 1 0 2 1;
#X connect 2 0 3 0;
#X connect 4 0 0 0;
#X connect 5 0 1 1;
#X restore 209 94 pd cmp;
#X obj 458 12 loadbang;
#X obj 458 37 f \$2;
#X obj 458 85 s \$1-azearg2;
#X connect 0 0 9 0;
#X connect 1 1 4 0;
#X connect 4 0 3 0;
#X connect 9 0 1 0;
#X connect 10 0 11 0;
#X connect 11 0 9 1;
#X connect 11 0 12 0;
#X restore 514 426 pd presetsnew;
#N canvas 568 132 391 300 init 0;
#X obj 23 162 s \$1-azeron;
#X obj 143 44 loadbang;
#X msg 25 116 1;
#X obj 114 206 s \$1-azerpreset;
#X msg 150 138 0;
#X obj 150 177 s \$1-azervelon;
#X obj 227 147 s \$1-azervdur;
#X msg 229 114 500;
#X connect 1 0 2 0;
#X connect 1 0 4 0;
#X connect 1 0 7 0;
#X connect 2 0 0 0;
#X connect 4 0 3 0;
#X connect 4 0 5 0;
#X connect 7 0 6 0;
#X restore 535 455 pd init;
#X connect 0 0 1 0;
#X connect 1 0 2 0;
#X connect 2 0 8 0;
#X connect 4 0 2 1;
#X connect 5 0 0 1;
#X connect 6 0 0 0;
#X connect 7 0 1 1;
#X connect 8 0 9 0;
#X connect 9 0 24 0;
#X connect 9 0 26 0;
#X connect 11 0 3 0;
#X connect 11 1 13 0;
#X connect 13 0 12 0;
#X connect 16 0 20 0;
#X connect 17 0 18 0;
#X connect 19 0 16 0;
#X connect 20 0 17 0;
#X connect 22 0 23 2;
#X connect 23 0 3 0;
#X connect 23 1 12 0;
#X connect 24 0 11 0;
#X connect 25 0 27 0;
#X connect 25 0 26 1;
#X connect 26 0 23 0;
#X connect 27 0 24 1;
