#N canvas 543 41 700 681 12;
#X obj 53 393 cnv 15 400 30 empty empty inlet 160 14 0 14 -233017 -66577
0;
#X obj 57 92 cnv 15 400 30 empty empty panel 160 14 0 14 -233017 -66577
0;
#X text 58 533 Inlet 2 =;
#X text 59 589 Inlet 3 =;
#X text 57 643 Inlet 4 =;
#X text 57 702 Inlet 5 =;
#X obj 73 155 tgl 15 0 empty empty on 0 -6 0 8 -262144 -1 -1 0 1;
#X obj 47 338 hradio 17 1 0 5 empty empty empty 0 -8 0 10 -262144 -1
-1 0;
#X text 49 316 1;
#X text 69 317 2;
#X text 86 316 3;
#X text 103 316 4;
#X text 119 316 5;
#X text 57 483 Inlet 1 =;
#X text 56 760 Outlet 1 =;
#X text 54 43 lowhigh-filter: a lowpass and a highpass filter;
#X text 174 145 = turns the lowpass or highpass filter on or off (on
= a cross);
#X text 24 207 fader 'pitch';
#X text 33 285 fader 'vol';
#X text 187 241 (highpass filter) the frequencies lower than this value
will be filtered;
#X text 170 207 = (lowpass filter) the frequencies higher that this
value will be filtered;
#X text 169 290 = with this fader you can change the amplitude of the
output sound;
#X text 168 337 = use these toggles to change the strength of the filter
(with 1 \, 1 filter is working \, with 5 \, 5 identical filters filter
the sound after each other);
#X text 157 484 (audio) inlet for the sound that will be filtered;
#X text 150 533 (event) inlet to control the fader 'pitch' of the lowpass
filter;
#X text 150 587 (event) inlet to control the fader of the fader 'vol'
of the lowpass filter;
#X text 140 641 (event) inlet to control the fader 'pitch' of the highpass
filter;
#X text 140 695 (event) inlet to control the fader of the fader 'vol'
of the highpass filter;
#X text 153 760 (audio) outlet for the sound that has been filtered
;
#X text 75 429 (in- and outlets \, numbered from left to right);
