#N canvas 24 338 363 221 12;
#X obj 307 325 inlet start;
#N canvas 493 82 630 574 demetro 0;
#X obj 79 153 f;
#X obj 79 177 + 1;
#X obj 76 215 mod 4;
#X obj 54 272 select 0 1 2 3 4;
#X obj 187 52 inlet start;
#X msg 196 119 -1;
#X obj 74 51 inlet ticks;
#X obj 77 83 bang;
#X obj 24 296 s \$1-metrbol1;
#X obj 61 322 s \$1-metrbol2;
#X obj 103 344 s \$1-metrbol3;
#X obj 162 366 s \$1-metrbol4;
#X obj 210 390 s \$1-metrbol5;
#X obj 145 167 r \$1-metstime;
#X obj 391 419 osc~;
#X obj 445 424 vline~;
#X obj 391 449 *~;
#X obj 360 272 t f b;
#X obj 358 304 > 0;
#X obj 342 334 select 0 1;
#X obj 399 511 outlet~;
#X msg 396 371 1479;
#X msg 359 372 1660;
#X msg 446 398 0.05 1 \, 0 50 15;
#X obj 386 217 r \$1-metssoun;
#X obj 353 242 spigot;
#X connect 0 0 1 0;
#X connect 1 0 0 1;
#X connect 1 0 2 0;
#X connect 2 0 3 0;
#X connect 2 0 25 0;
#X connect 3 0 8 0;
#X connect 3 1 9 0;
#X connect 3 2 10 0;
#X connect 3 3 11 0;
#X connect 3 4 12 0;
#X connect 4 0 5 0;
#X connect 5 0 0 1;
#X connect 6 0 7 0;
#X connect 7 0 0 0;
#X connect 13 0 2 1;
#X connect 14 0 16 0;
#X connect 15 0 16 1;
#X connect 16 0 20 0;
#X connect 17 0 18 0;
#X connect 17 1 23 0;
#X connect 18 0 19 0;
#X connect 19 0 22 0;
#X connect 19 1 21 0;
#X connect 21 0 14 0;
#X connect 22 0 14 0;
#X connect 23 0 15 0;
#X connect 24 0 25 1;
#X connect 25 0 17 0;
#X restore 21 388 pd demetro;
#X obj 307 352 s \$1-metrstart;
#N canvas 63 237 1288 531 changecolor 0;
#X obj 615 25 r \$1-metstime;
#X obj 56 185 symbol;
#X obj 78 121 f \$1;
#X msg 77 144 \$1-metrbol;
#X obj 78 84 t b b f;
#X obj 88 226 pack s f;
#X msg 91 252 \$1\$2;
#X obj 92 284 symbol;
#X obj 98 381 pack s f f f;
#X msg 92 418 \; \$1 color \$2 \$3 \$4;
#X msg 172 332 12;
#X msg 280 333 0;
#X text 136 311 aan;
#X text 229 314 uit;
#X obj 188 216 select 0 1;
#X msg 136 176 1;
#X obj 188 189 >= 1;
#X msg 209 333 20;
#X msg 245 333 20;
#X msg 101 332 13;
#X obj 325 192 symbol;
#X obj 347 128 f \$1;
#X msg 346 151 \$1-metrbol;
#X obj 347 91 t b b f;
#X obj 337 234 pack s f;
#X msg 340 260 \$1\$2;
#X obj 341 292 symbol;
#X obj 347 389 pack s f f f;
#X msg 341 426 \; \$1 color \$2 \$3 \$4;
#X msg 421 340 12;
#X text 385 319 aan;
#X text 478 322 uit;
#X obj 437 224 select 0 1;
#X obj 457 196 >= 2;
#X msg 405 183 2;
#X msg 536 343 0;
#X msg 350 340 6;
#X msg 458 341 20;
#X msg 501 343 20;
#X obj 550 191 symbol;
#X obj 572 127 f \$1;
#X msg 571 150 \$1-metrbol;
#X obj 572 90 t b b f;
#X obj 562 233 pack s f;
#X msg 565 259 \$1\$2;
#X obj 566 291 symbol;
#X obj 572 388 pack s f f f;
#X msg 566 425 \; \$1 color \$2 \$3 \$4;
#X msg 646 339 12;
#X text 610 318 aan;
#X text 703 321 uit;
#X obj 662 223 select 0 1;
#X msg 761 342 0;
#X msg 575 339 6;
#X msg 683 340 20;
#X msg 726 342 20;
#X obj 784 199 symbol;
#X obj 806 135 f \$1;
#X msg 805 158 \$1-metrbol;
#X obj 806 98 t b b f;
#X obj 796 241 pack s f;
#X msg 799 267 \$1\$2;
#X obj 800 299 symbol;
#X obj 806 396 pack s f f f;
#X msg 800 433 \; \$1 color \$2 \$3 \$4;
#X msg 880 347 12;
#X text 844 326 aan;
#X text 937 329 uit;
#X obj 896 231 select 0 1;
#X msg 995 350 0;
#X msg 809 347 6;
#X msg 917 348 20;
#X msg 960 350 20;
#X obj 1016 199 symbol;
#X obj 1038 135 f \$1;
#X msg 1037 158 \$1-metrbol;
#X obj 1038 98 t b b f;
#X obj 1028 241 pack s f;
#X msg 1031 267 \$1\$2;
#X obj 1032 299 symbol;
#X obj 1038 396 pack s f f f;
#X msg 1032 433 \; \$1 color \$2 \$3 \$4;
#X msg 1112 347 12;
#X text 1076 326 aan;
#X text 1169 329 uit;
#X obj 1128 231 select 0 1;
#X msg 1227 350 0;
#X msg 1041 347 6;
#X msg 1149 348 20;
#X msg 1192 350 20;
#X msg 630 182 3;
#X msg 864 190 4;
#X msg 1096 190 5;
#X obj 682 195 >= 3;
#X obj 916 203 >= 4;
#X obj 1148 203 >= 5;
#X msg 137 332 2;
#X text 114 478 2 = zwart \, 13 = rood \, 20 = grijs \, 6 = licht groenblauw
;
#X msg 386 340 2;
#X msg 611 339 2;
#X msg 845 347 2;
#X msg 1077 347 2;
#X connect 0 0 4 0;
#X connect 0 0 23 0;
#X connect 0 0 42 0;
#X connect 0 0 59 0;
#X connect 0 0 76 0;
#X connect 1 0 5 0;
#X connect 2 0 3 0;
#X connect 3 0 1 0;
#X connect 4 0 2 0;
#X connect 4 1 15 0;
#X connect 4 2 16 0;
#X connect 5 0 6 0;
#X connect 6 0 7 0;
#X connect 7 0 8 0;
#X connect 8 0 9 0;
#X connect 10 0 8 3;
#X connect 11 0 8 3;
#X connect 14 0 17 0;
#X connect 14 0 18 0;
#X connect 14 0 11 0;
#X connect 14 1 19 0;
#X connect 14 1 96 0;
#X connect 14 1 10 0;
#X connect 15 0 5 1;
#X connect 16 0 14 0;
#X connect 17 0 8 1;
#X connect 18 0 8 2;
#X connect 19 0 8 1;
#X connect 20 0 24 0;
#X connect 21 0 22 0;
#X connect 22 0 20 0;
#X connect 23 0 21 0;
#X connect 23 1 34 0;
#X connect 23 2 33 0;
#X connect 24 0 25 0;
#X connect 25 0 26 0;
#X connect 26 0 27 0;
#X connect 27 0 28 0;
#X connect 29 0 27 3;
#X connect 32 0 37 0;
#X connect 32 0 38 0;
#X connect 32 0 35 0;
#X connect 32 1 36 0;
#X connect 32 1 98 0;
#X connect 32 1 29 0;
#X connect 33 0 32 0;
#X connect 34 0 24 1;
#X connect 35 0 27 3;
#X connect 36 0 27 1;
#X connect 37 0 27 1;
#X connect 38 0 27 2;
#X connect 39 0 43 0;
#X connect 40 0 41 0;
#X connect 41 0 39 0;
#X connect 42 0 40 0;
#X connect 42 1 90 0;
#X connect 42 2 93 0;
#X connect 43 0 44 0;
#X connect 44 0 45 0;
#X connect 45 0 46 0;
#X connect 46 0 47 0;
#X connect 48 0 46 3;
#X connect 51 0 54 0;
#X connect 51 0 55 0;
#X connect 51 0 52 0;
#X connect 51 1 53 0;
#X connect 51 1 99 0;
#X connect 51 1 48 0;
#X connect 52 0 46 3;
#X connect 53 0 46 1;
#X connect 54 0 46 1;
#X connect 55 0 46 2;
#X connect 56 0 60 0;
#X connect 57 0 58 0;
#X connect 58 0 56 0;
#X connect 59 0 57 0;
#X connect 59 1 91 0;
#X connect 59 2 94 0;
#X connect 60 0 61 0;
#X connect 61 0 62 0;
#X connect 62 0 63 0;
#X connect 63 0 64 0;
#X connect 65 0 63 3;
#X connect 68 0 71 0;
#X connect 68 0 72 0;
#X connect 68 0 69 0;
#X connect 68 1 70 0;
#X connect 68 1 100 0;
#X connect 68 1 65 0;
#X connect 69 0 63 3;
#X connect 70 0 63 1;
#X connect 71 0 63 1;
#X connect 72 0 63 2;
#X connect 73 0 77 0;
#X connect 74 0 75 0;
#X connect 75 0 73 0;
#X connect 76 0 74 0;
#X connect 76 1 92 0;
#X connect 76 2 95 0;
#X connect 77 0 78 0;
#X connect 78 0 79 0;
#X connect 79 0 80 0;
#X connect 80 0 81 0;
#X connect 82 0 80 3;
#X connect 85 0 88 0;
#X connect 85 0 89 0;
#X connect 85 0 86 0;
#X connect 85 1 87 0;
#X connect 85 1 101 0;
#X connect 85 1 82 0;
#X connect 86 0 80 3;
#X connect 87 0 80 1;
#X connect 88 0 80 1;
#X connect 89 0 80 2;
#X connect 90 0 43 1;
#X connect 91 0 60 1;
#X connect 92 0 77 1;
#X connect 93 0 51 0;
#X connect 94 0 68 0;
#X connect 95 0 85 0;
#X connect 96 0 8 2;
#X connect 98 0 27 2;
#X connect 99 0 46 2;
#X connect 100 0 63 2;
#X connect 101 0 80 2;
#X restore 204 547 pd changecolor;
#X obj 226 437 bng 10 250 50 0 \$1-metsextraoptions empty extra_options
17 7 0 8 -262144 -1 -1;
#N canvas 452 452 837 423 printallreceives 0;
#X obj 35 63 f \$1;
#X obj 33 6 bng 15 250 50 0 empty empty empty 17 7 0 10 -262144 -1
-1;
#X obj 70 173 t f f f f f f f f f;
#X obj 36 87 t f f;
#X obj 166 21 r \$1-metprintreceives;
#X obj 92 136 print start;
#X obj 49 370 print end;
#X msg 91 109 names of receives in [metronome \$1]...................>>
;
#X msg 631 240 \$1-metrwav;
#X msg 518 267 \$1-metrglide;
#X msg 48 344 <<.........................................[metronome
\$1];
#X msg 331 279 \$1-metrglt;
#X msg 184 276 \$1-metrfreq;
#X msg 45 278 \$1-metrlev;
#X obj 44 304 print level[0-1];
#X obj 179 304 print pitch[0-127];
#X obj 332 302 print glide_time[0-xxx];
#X obj 525 302 print glide[0-1];
#X obj 634 266 print wave_selector[0-5];
#X obj 10 21 r printreceives;
#X connect 0 0 3 0;
#X connect 1 0 0 0;
#X connect 2 0 10 0;
#X connect 2 4 13 0;
#X connect 2 5 12 0;
#X connect 2 6 11 0;
#X connect 2 7 9 0;
#X connect 2 8 8 0;
#X connect 3 0 2 0;
#X connect 3 1 7 0;
#X connect 4 0 0 0;
#X connect 7 0 5 0;
#X connect 8 0 18 0;
#X connect 9 0 17 0;
#X connect 10 0 6 0;
#X connect 11 0 16 0;
#X connect 12 0 15 0;
#X connect 13 0 14 0;
#X connect 19 0 0 0;
#X restore 160 462 pd printallreceives;
#N canvas 792 487 421 157 \$1-metronomeextra 0;
#X obj 8 72 bng 15 250 50 0 printreceives empty print_all_receives
17 7 0 10 -262144 -1 -1;
#X obj 7 13 bng 15 250 50 0 \$1-metprintreceives empty print_names_of_receives
17 7 0 10 -262144 -1 -1;
#X text 66 91 (of all objects in open files);
#X text 65 32 (of this 'metronome' object);
#X restore 165 494 pd \$1-metronomeextra;
#X obj 367 465 f \$1;
#X obj 367 516 symbol;
#X msg 367 541 \; \$1 vis 1;
#X obj 365 442 r \$1-metsextraoptions;
#X msg 368 490 pd-\$1-metronomeextra;
#N canvas 335 33 859 875 foutmelding 0;
#X obj 87 38 loadbang;
#X obj 79 83 f \$1;
#X obj 73 111 select 0;
#X msg 75 197 \; \$1 vis 1;
#X msg 74 142 36;
#X text 151 150 ascii-code voor $;
#X text 197 199 als er geen argument is \, noemt de subpatch vreemd
genoeg niet pd 0-warning maar wel pd \$1-warning;
#X text 129 80 als er geen argument is geeft f \$1 een 0;
#X obj 154 336 del 100;
#X msg 319 355 1;
#X obj 238 405 spigot;
#X obj 342 453 spigot;
#X obj 409 425 == 0;
#X obj 338 423 r metronome;
#X obj 240 489 s metronome;
#X obj 208 305 t b b b;
#X obj 314 389 t f f;
#X obj 241 429 del 150;
#X obj 239 460 f \$1;
#X msg 169 357 0;
#X obj 378 506 == \$1;
#X obj 455 604 > 1;
#X obj 341 478 t f f;
#X obj 391 568 f 0;
#X obj 390 538 select 1;
#X obj 330 541 spigot;
#X obj 459 569 + 1;
#X obj 336 602 == \$1;
#X obj 396 628 &&;
#X obj 158 628 print pop;
#X text 487 604 groter dan 1 want vergelijking et zichzelf levert sowieso
al 1 op en dan met ev. zelfde object met identiek argument levert 2
op!;
#X obj 396 656 select 1;
#X obj 396 678 f \$1;
#X obj 398 768 symbol;
#X msg 396 795 \; \$1 vis 1;
#X obj 363 706 t f f;
#X obj 92 820 symbol;
#X obj 170 872 print;
#X obj 326 662 bng 15 250 50 0 empty empty empty 17 7 0 10 -262144
-1 -1;
#X msg 173 839 !!! these two abunch objects have the same argument
number: [metronome \$1];
#X text 406 346 alleen net gecreerde object verstuurt waarde;
#X text 398 372 bij eerder gemaakte objecten staat spigot voor receive
open;
#N canvas 670 470 308 138 \$1-metronomewarning 0;
#X obj -1 0 cnv 15 320 150 empty empty empty 20 12 0 14 -258699 -66577
0;
#X text 11 32 You forgot to add an unique number;
#X text 11 78 when you created this abunch object;
#X restore 349 165 pd \$1-metronomewarning;
#N canvas 856 445 327 127 \$1-metronomesameargument 0;
#X obj -1 0 cnv 15 330 150 empty empty empty 20 12 0 14 -258699 -66577
0;
#X msg 393 108;
#X text 314 243 is used already!!;
#X obj 344 35 inlet;
#X symbolatom 351 77 10 0 0 0 - - -;
#X obj 98 40 cnv 15 60 20 empty empty empty 20 12 0 14 -233017 -66577
0;
#X text 24 40 Create an unique number for this;
#X text 102 69 abunch object.;
#X connect 3 0 1 0;
#X connect 3 0 4 0;
#X restore 541 770 pd \$1-metronomesameargument;
#X msg 397 738 pd-\$1-metronomesameargument;
#X obj 74 171 makefilename pd-%c1-metronomewarning;
#X connect 0 0 1 0;
#X connect 0 0 15 0;
#X connect 1 0 2 0;
#X connect 2 0 4 0;
#X connect 4 0 45 0;
#X connect 8 0 19 0;
#X connect 9 0 16 0;
#X connect 10 0 17 0;
#X connect 11 0 22 0;
#X connect 12 0 11 1;
#X connect 13 0 11 0;
#X connect 15 0 8 0;
#X connect 15 1 10 0;
#X connect 15 2 9 0;
#X connect 16 0 10 1;
#X connect 16 1 12 0;
#X connect 17 0 18 0;
#X connect 18 0 14 0;
#X connect 19 0 16 0;
#X connect 20 0 24 0;
#X connect 20 0 25 1;
#X connect 21 0 28 1;
#X connect 22 0 25 0;
#X connect 22 1 20 0;
#X connect 23 0 26 0;
#X connect 24 0 23 0;
#X connect 25 0 27 0;
#X connect 26 0 23 1;
#X connect 26 0 21 0;
#X connect 27 0 28 0;
#X connect 28 0 31 0;
#X connect 31 0 32 0;
#X connect 32 0 35 0;
#X connect 33 0 34 0;
#X connect 35 0 44 0;
#X connect 35 1 39 0;
#X connect 38 0 32 0;
#X connect 39 0 37 0;
#X connect 44 0 33 0;
#X connect 45 0 3 0;
#X restore 188 517 pd foutmelding;
#N canvas 0 0 462 312 presets-init 0;
#X obj 74 257 s \$1-metrtime;
#X obj 274 101 loadbang;
#X msg 246 160 4;
#X msg 289 159 0;
#X obj 105 234 s \$1-metrext;
#N canvas 134 181 1159 646 save_preset_array 0;
#X obj 19 403 inlet gui1;
#X obj 112 405 inlet gui2;
#X obj 197 403 inlet gui3;
#X obj 290 405 inlet gui4;
#X obj 376 406 inlet gui15;
#X obj 469 408 inlet gui6;
#X obj 554 406 inlet gui7;
#X obj 647 408 inlet gui8;
#X obj 732 408 inlet gui9;
#X obj 825 410 inlet gui10;
#X obj 743 446 f;
#X obj 824 448 f;
#X obj 566 443 f;
#X obj 647 445 f;
#X obj 380 439 f;
#X obj 461 441 f;
#X obj 204 438 f;
#X obj 285 440 f;
#X obj 25 443 f;
#X obj 106 445 f;
#X obj 83 109 until;
#X obj 62 173 + 1;
#X obj 89 142 f 0;
#X obj 79 42 bng 15 250 50 0 empty empty empty 17 7 0 10 -262144 -1
-1;
#X obj 571 505 r openpreset;
#X obj 162 18 r savepreset;
#X obj 21 825 outlet gui1;
#X obj 112 827 outlet gui2;
#X obj 201 827 outlet gui3;
#X obj 293 827 outlet gui4;
#X obj 475 827 outlet gui6;
#X obj 384 827 outlet gui5;
#X obj 567 827 outlet gui7;
#X obj 658 827 outlet gui8;
#X obj 748 827 outlet gui9;
#X obj 840 826 outlet gui10;
#X obj 495 598 until;
#X obj 472 657 + 1;
#X obj 499 626 f 0;
#N canvas 45 153 1064 314 router_1inxout 0;
#X obj 231 27 inlet one;
#X obj 339 23 inlet route123;
#X obj 35 211 outlet one;
#X obj 124 210 outlet two;
#X obj 218 211 outlet three;
#X obj 323 211 outlet four;
#X obj 415 210 outlet five;
#X obj 510 211 outlet six;
#X obj 599 210 outlet seven;
#X obj 700 213 outlet eigth;
#X obj 805 212 outlet nine;
#X obj 897 211 outlet ten;
#X obj 361 83 pack;
#X obj 296 57 mod 12;
#X obj 919 239 outlet nine;
#X obj 1011 238 outlet ten;
#X obj 696 86 route 1 2 3 4 5 6 7 8 9 10 11;
#X obj 58 77 route 1 2;
#X obj 961 138 unpack;
#X connect 0 0 13 0;
#X connect 1 0 12 1;
#X connect 12 0 16 0;
#X connect 13 0 12 0;
#X connect 16 0 2 0;
#X connect 16 1 3 0;
#X connect 16 2 4 0;
#X connect 16 3 5 0;
#X connect 16 4 6 0;
#X connect 16 5 7 0;
#X connect 16 6 8 0;
#X connect 16 7 9 0;
#X connect 16 8 10 0;
#X connect 16 9 11 0;
#X connect 16 10 14 0;
#X connect 16 11 18 0;
#X connect 18 1 15 0;
#X restore 340 771 pd router_1inxout;
#X obj 211 106 f 0;
#X obj 335 24 r presetnr;
#X obj 336 49 * 12;
#X obj 334 72 - 12;
#X obj 587 587 f 0;
#X obj 495 685 t f f;
#X obj 85 201 t f f;
#X obj 736 509 bng 15 250 50 0 empty empty empty 17 7 0 10 -262144
-1 -1;
#N canvas 0 0 450 300 (subpatch) 0;
#X array \$1-metpreset 601 float 2;
#X coords 0 200 601 -1 200 140 1;
#X restore 591 131 graph;
#X obj 66 240 mod 12;
#X text 386 60 -> !!! per 12;
#X text 130 240 -> !!! per 12;
#X text 511 773 -> !!! hierin ook per 12;
#X msg 133 82 12;
#X text 174 83 -> !!! per 12;
#X text 579 54 max 12 parameters/waarden voor array/presets;
#X obj 302 204 symbol;
#X obj 403 183 symbol;
#X obj 345 245 pack s s;
#X obj 402 153 r namepreset;
#X obj 294 155 f \$1;
#X obj 167 43 t b b b;
#X obj 570 546 t b b b;
#X text 130 312 -> !!! per 12;
#X obj 716 628 symbol;
#X obj 756 655 pack s s;
#X obj 827 582 r namepreset;
#X obj 662 578 f \$1;
#X obj 152 163 print bng;
#X obj 819 618 symbol;
#X msg 319 272 \; \$1 write presets/\$2-\$1.txt;
#X msg 750 686 \; \$1 read presets/\$2-\$1.txt;
#X msg 528 575 12;
#X obj 931 444 f;
#X obj 1012 446 f;
#X obj 920 406 inlet gui11;
#X obj 1013 408 inlet gui12;
#X obj 940 828 outlet gui9;
#X obj 1032 827 outlet gui10;
#X obj 56 331 select 1 2 3 4 5 6 7 8 9 10 11;
#X obj 979 379 bang;
#X msg 294 182 \$1-metpreset;
#X obj 225 534 tabwrite \$1-metpreset;
#X msg 675 604 \$1-metpreset;
#X obj 449 736 tabread \$1-metpreset;
#X connect 0 0 18 1;
#X connect 1 0 19 1;
#X connect 2 0 16 1;
#X connect 3 0 17 1;
#X connect 4 0 14 1;
#X connect 5 0 15 1;
#X connect 6 0 12 1;
#X connect 7 0 13 1;
#X connect 8 0 10 1;
#X connect 9 0 11 1;
#X connect 10 0 82 0;
#X connect 11 0 82 0;
#X connect 12 0 82 0;
#X connect 13 0 82 0;
#X connect 14 0 82 0;
#X connect 15 0 82 0;
#X connect 16 0 82 0;
#X connect 17 0 82 0;
#X connect 18 0 82 0;
#X connect 19 0 82 0;
#X connect 20 0 22 0;
#X connect 21 0 22 1;
#X connect 21 0 46 0;
#X connect 22 0 21 0;
#X connect 23 0 20 0;
#X connect 24 0 62 0;
#X connect 25 0 61 0;
#X connect 36 0 38 0;
#X connect 37 0 38 1;
#X connect 37 0 45 0;
#X connect 38 0 37 0;
#X connect 39 0 26 0;
#X connect 39 1 27 0;
#X connect 39 2 28 0;
#X connect 39 3 29 0;
#X connect 39 4 31 0;
#X connect 39 5 30 0;
#X connect 39 6 32 0;
#X connect 39 7 33 0;
#X connect 39 8 34 0;
#X connect 39 9 35 0;
#X connect 39 10 77 0;
#X connect 39 11 78 0;
#X connect 40 0 22 1;
#X connect 41 0 42 0;
#X connect 42 0 43 0;
#X connect 43 0 40 1;
#X connect 43 0 44 1;
#X connect 44 0 38 1;
#X connect 45 0 39 0;
#X connect 45 1 84 0;
#X connect 46 0 49 0;
#X connect 46 1 82 1;
#X connect 47 0 62 0;
#X connect 49 0 79 0;
#X connect 53 0 20 0;
#X connect 56 0 58 0;
#X connect 57 0 58 1;
#X connect 58 0 70 0;
#X connect 59 0 57 0;
#X connect 60 0 81 0;
#X connect 61 0 60 0;
#X connect 61 0 68 0;
#X connect 61 1 53 0;
#X connect 61 2 40 0;
#X connect 62 0 72 0;
#X connect 62 1 44 0;
#X connect 62 2 67 0;
#X connect 64 0 65 0;
#X connect 65 0 71 0;
#X connect 66 0 69 0;
#X connect 67 0 83 0;
#X connect 69 0 65 1;
#X connect 72 0 36 0;
#X connect 73 0 82 0;
#X connect 74 0 82 0;
#X connect 75 0 73 1;
#X connect 76 0 74 1;
#X connect 79 0 18 0;
#X connect 79 1 19 0;
#X connect 79 2 16 0;
#X connect 79 3 17 0;
#X connect 79 4 14 0;
#X connect 79 5 15 0;
#X connect 79 6 12 0;
#X connect 79 7 13 0;
#X connect 79 8 10 0;
#X connect 79 9 11 0;
#X connect 79 10 73 0;
#X connect 79 11 80 0;
#X connect 80 0 74 0;
#X connect 81 0 56 0;
#X connect 83 0 64 0;
#X connect 84 0 39 1;
#X restore 60 151 pd save_preset_array;
#X obj 107 102 r \$1-metsext;
#X obj 55 59 r \$1-metstempo;
#X obj 90 82 r \$1-metstime;
#X obj 35 279 s \$1-metrtempo;
#X obj 198 45 r \$1-metssoun;
#X obj 189 271 s \$1-metrsoun;
#X connect 1 0 2 0;
#X connect 1 0 3 0;
#X connect 2 0 0 0;
#X connect 3 0 4 0;
#X connect 3 0 11 0;
#X connect 5 0 9 0;
#X connect 5 1 0 0;
#X connect 5 2 4 0;
#X connect 5 3 11 0;
#X connect 6 0 5 2;
#X connect 7 0 5 0;
#X connect 8 0 5 1;
#X connect 10 0 5 3;
#X restore 285 397 pd presets-init;
#X obj 20 424 outlet~;
#X text 17 235 in extra_options voorzien: luidsterkte \, toonhoogtes
\, starten met 1 \, 2 \, .. maten en dan stoppen (1 numberbox: 0 =
deze optie uitzetten) \, moet 'sound' hiervoor aanstaan?;
#X obj 451 327 inlet soundon;
#X obj 451 355 s \$1-metrsoun;
#N canvas 744 585 566 199 needsound 0;
#X obj 22 34 r soundfileyesno;
#X msg 18 67 0;
#X obj 22 138 s answersoundfile;
#X text 63 65 0 = this abunch object doesn't need a sound file (store
in a preset file) \, 1 = it does;
#X connect 0 0 1 0;
#X connect 1 0 2 0;
#X restore 84 516 pd needsound;
#X obj -3 0 cnv 15 370 220 empty empty empty 20 12 0 14 -142067 -66577
0;
#X obj 17 18 cnv 15 310 80 empty empty empty 20 12 0 14 -195568 -66577
0;
#X obj 87 34 bng 50 250 50 0 empty \$1-metrbol2 empty 17 7 0 10 -225271
-66577 -33289;
#X obj 25 32 bng 50 100 10 0 \$1-metsbol1 \$1-metrbol1 empty 17 7 0
10 -258699 -66577 -33289;
#X obj 206 36 bng 50 250 50 0 empty \$1-metrbol4 empty 17 7 0 10 -225271
-66577 -33289;
#X obj 264 36 bng 50 250 50 0 empty \$1-metrbol5 empty 17 7 0 10 -225271
-66577 -33289;
#X obj 148 34 bng 50 250 50 0 empty \$1-metrbol3 empty 17 7 0 10 -225271
-66577 -33289;
#X obj 117 118 nbx 6 20 1 5 0 0 \$1-metstime \$1-metrtime time_signature
0 -8 0 10 -262144 -1 -1 5 256;
#X obj 19 107 tgl 30 0 \$1-metsstart \$1-metrstart START 33 15 0 10
-262144 -1 -1 0 1;
#X obj 20 155 hsl 256 15 20 275 0 1 \$1-metstempo \$1-metrtempo tempo
260 8 0 10 -262144 -1 -1 4000 1;
#X obj 17 172 nbx 5 14 -1e+037 1e+037 0 0 empty empty bpm 60 7 0 10
-86277 -257985 -1 60 256;
#X obj 195 177 tgl 15 0 \$1-metsext \$1-metrext external_clock 17 7
0 8 -262144 -1 -1 1 1;
#X obj 264 123 tgl 15 0 \$1-metssoun \$1-metrsoun sound 17 7 0 10 -262144
-1 -1 0 249.192;
#X obj 96 172 nbx 6 14 -1e+037 1e+037 0 0 meet \$1-metrms ms 67 7 0
10 -86277 -257985 -1 1000 256;
#N canvas 540 309 293 166 printname 0;
#X obj 54 37 r printallnames;
#X obj 54 107 symbol;
#X obj 54 132 s rallnames;
#X msg 54 72 metronome;
#X connect 0 0 3 0;
#X connect 1 0 2 0;
#X connect 3 0 1 0;
#X restore 542 475 pd printname;
#N canvas 10 184 588 284 presetsnew 0;
#X obj 210 58 r savepresetn;
#X obj 203 119 t b b b;
#N canvas 122 0 1041 709 name-sends-normal 0;
#N canvas 0 0 450 300 (subpatch) 0;
#X array \$1-metbetween 16 float 2;
#X coords 0 10000 16 -10000 20 20 1;
#X restore 15 236 graph;
#X obj 387 1166 tabwrite \$1-metbetween;
#X obj 438 235 unpack f f;
#X obj 98 156 pack f 1;
#X obj 135 178 pack f 2;
#X obj 186 200 pack f 3;
#X obj 236 155 pack f 4;
#X obj 273 177 pack f 5;
#X obj 324 199 pack f 6;
#X obj 368 156 pack f 7;
#X obj 405 178 pack f 8;
#X obj 449 199 pack f 9;
#X obj 508 156 pack f 10;
#X obj 545 178 pack f 11;
#X obj 596 199 pack f 12;
#X obj 665 156 pack f 13;
#X obj 702 178 pack f 14;
#X obj 754 201 pack f 15;
#X obj 798 156 pack f 16;
#X obj 835 179 pack f 17;
#X obj 884 203 pack f 18;
#X obj 438 505 unpack f f;
#X obj 98 426 pack f 19;
#X obj 135 448 pack f 20;
#X obj 186 470 pack f 21;
#X obj 236 425 pack f 22;
#X obj 273 447 pack f 23;
#X obj 324 469 pack f 24;
#X obj 368 426 pack f 25;
#X obj 405 448 pack f 26;
#X obj 449 469 pack f 27;
#X obj 508 426 pack f 28;
#X obj 545 448 pack f 29;
#X obj 596 469 pack f 30;
#X obj 665 426 pack f 31;
#X obj 702 448 pack f 32;
#X obj 754 471 pack f 33;
#X obj 798 426 pack f 34;
#X obj 835 449 pack f 35;
#X obj 886 470 pack f 36;
#X obj 438 635 unpack f f;
#X obj 98 556 pack f 37;
#X obj 135 578 pack f 38;
#X obj 186 600 pack f 39;
#X obj 236 555 pack f 40;
#X obj 273 577 pack f 41;
#X obj 324 599 pack f 42;
#X obj 368 556 pack f 43;
#X obj 405 578 pack f 44;
#X obj 449 599 pack f 45;
#X obj 508 556 pack f 46;
#X obj 545 578 pack f 47;
#X obj 596 599 pack f 48;
#X obj 665 556 pack f 49;
#X obj 702 578 pack f 50;
#X obj 754 601 pack f 51;
#X obj 798 556 pack f 52;
#X obj 835 579 pack f 53;
#X obj 886 600 pack f 54;
#X obj 438 755 unpack f f;
#X obj 98 676 pack f 55;
#X obj 135 698 pack f 56;
#X obj 186 720 pack f 57;
#X obj 236 675 pack f 58;
#X obj 273 697 pack f 59;
#X obj 324 719 pack f 60;
#X obj 368 676 pack f 61;
#X obj 405 698 pack f 62;
#X obj 449 719 pack f 63;
#X obj 508 676 pack f 64;
#X obj 545 698 pack f 65;
#X obj 596 719 pack f 66;
#X obj 665 676 pack f 67;
#X obj 702 698 pack f 68;
#X obj 754 721 pack f 69;
#X obj 798 676 pack f 70;
#X obj 835 699 pack f 71;
#X obj 886 720 pack f 72;
#X obj 438 935 unpack f f;
#X obj 98 856 pack f 73;
#X obj 135 878 pack f 74;
#X obj 186 900 pack f 75;
#X obj 236 855 pack f 76;
#X obj 273 877 pack f 77;
#X obj 324 899 pack f 78;
#X obj 368 856 pack f 79;
#X obj 405 878 pack f 80;
#X obj 449 899 pack f 81;
#X obj 508 856 pack f 82;
#X obj 545 878 pack f 83;
#X obj 596 899 pack f 84;
#X obj 665 856 pack f 85;
#X obj 702 878 pack f 86;
#X obj 754 901 pack f 87;
#X obj 801 852 pack f 88;
#X obj 835 879 pack f 89;
#X obj 886 900 pack f 90;
#X obj 438 1135 unpack f f;
#X obj 98 1056 pack f 91;
#X obj 135 1078 pack f 92;
#X obj 186 1100 pack f 93;
#X obj 236 1055 pack f 94;
#X obj 273 1077 pack f 95;
#X obj 324 1099 pack f 96;
#X obj 368 1056 pack f 97;
#X obj 405 1078 pack f 98;
#X obj 449 1099 pack f 99;
#X obj 508 1056 pack f 100;
#X obj 545 1078 pack f 101;
#X obj 596 1099 pack f 102;
#X obj 665 1056 pack f 103;
#X obj 702 1078 pack f 104;
#X obj 754 1101 pack f 105;
#X obj 798 1056 pack f 106;
#X obj 835 1079 pack f 107;
#X obj 886 1100 pack f 108;
#X text 38 238 -> adjust size if necessary (standard size = 109);
#X obj 107 102 r \$1-metsext;
#X obj 55 59 r \$1-metstempo;
#X obj 90 82 r \$1-metstime;
#X obj 198 45 r \$1-metssoun;
#X connect 2 0 1 0;
#X connect 2 1 1 1;
#X connect 3 0 2 0;
#X connect 4 0 2 0;
#X connect 5 0 2 0;
#X connect 6 0 2 0;
#X connect 7 0 2 0;
#X connect 8 0 2 0;
#X connect 9 0 2 0;
#X connect 10 0 2 0;
#X connect 11 0 2 0;
#X connect 12 0 2 0;
#X connect 13 0 2 0;
#X connect 14 0 2 0;
#X connect 15 0 2 0;
#X connect 16 0 2 0;
#X connect 17 0 2 0;
#X connect 18 0 2 0;
#X connect 19 0 2 0;
#X connect 20 0 2 0;
#X connect 21 0 1 0;
#X connect 21 1 1 1;
#X connect 22 0 21 0;
#X connect 23 0 21 0;
#X connect 24 0 21 0;
#X connect 25 0 21 0;
#X connect 26 0 21 0;
#X connect 27 0 21 0;
#X connect 28 0 21 0;
#X connect 29 0 21 0;
#X connect 30 0 21 0;
#X connect 31 0 21 0;
#X connect 32 0 21 0;
#X connect 33 0 21 0;
#X connect 34 0 21 0;
#X connect 35 0 21 0;
#X connect 36 0 21 0;
#X connect 37 0 21 0;
#X connect 38 0 21 0;
#X connect 39 0 21 0;
#X connect 40 0 1 0;
#X connect 40 1 1 1;
#X connect 41 0 40 0;
#X connect 42 0 40 0;
#X connect 43 0 40 0;
#X connect 44 0 40 0;
#X connect 45 0 40 0;
#X connect 46 0 40 0;
#X connect 47 0 40 0;
#X connect 48 0 40 0;
#X connect 49 0 40 0;
#X connect 50 0 40 0;
#X connect 51 0 40 0;
#X connect 52 0 40 0;
#X connect 53 0 40 0;
#X connect 54 0 40 0;
#X connect 55 0 40 0;
#X connect 56 0 40 0;
#X connect 57 0 40 0;
#X connect 58 0 40 0;
#X connect 59 0 1 0;
#X connect 59 1 1 1;
#X connect 60 0 59 0;
#X connect 61 0 59 0;
#X connect 62 0 59 0;
#X connect 63 0 59 0;
#X connect 64 0 59 0;
#X connect 65 0 59 0;
#X connect 66 0 59 0;
#X connect 67 0 59 0;
#X connect 68 0 59 0;
#X connect 69 0 59 0;
#X connect 70 0 59 0;
#X connect 71 0 59 0;
#X connect 72 0 59 0;
#X connect 73 0 59 0;
#X connect 74 0 59 0;
#X connect 75 0 59 0;
#X connect 76 0 59 0;
#X connect 77 0 59 0;
#X connect 78 0 1 0;
#X connect 78 1 1 1;
#X connect 79 0 78 0;
#X connect 80 0 78 0;
#X connect 81 0 78 0;
#X connect 82 0 78 0;
#X connect 83 0 78 0;
#X connect 84 0 78 0;
#X connect 85 0 78 0;
#X connect 86 0 78 0;
#X connect 87 0 78 0;
#X connect 88 0 78 0;
#X connect 89 0 78 0;
#X connect 90 0 78 0;
#X connect 91 0 78 0;
#X connect 92 0 78 0;
#X connect 93 0 78 0;
#X connect 94 0 78 0;
#X connect 95 0 78 0;
#X connect 96 0 78 0;
#X connect 97 0 1 0;
#X connect 97 1 1 1;
#X connect 98 0 97 0;
#X connect 99 0 97 0;
#X connect 100 0 97 0;
#X connect 101 0 97 0;
#X connect 102 0 97 0;
#X connect 103 0 97 0;
#X connect 104 0 97 0;
#X connect 105 0 97 0;
#X connect 106 0 97 0;
#X connect 107 0 97 0;
#X connect 108 0 97 0;
#X connect 109 0 97 0;
#X connect 110 0 97 0;
#X connect 111 0 97 0;
#X connect 112 0 97 0;
#X connect 113 0 97 0;
#X connect 114 0 97 0;
#X connect 115 0 97 0;
#X connect 117 0 5 0;
#X connect 118 0 3 0;
#X connect 119 0 4 0;
#X connect 120 0 6 0;
#X restore 75 27 pd name-sends-normal;
#X obj 223 196 s toextfile;
#N canvas 636 185 560 404 normal 0;
#X obj 278 134 f \$1;
#X obj 237 278 symbol;
#X obj 42 268 list prepend add2;
#X obj 42 293 list trim;
#X obj 188 51 t b b b b b;
#X obj 154 135 f 0;
#X obj 193 135 + 1;
#X msg 181 103 0;
#X msg 240 196 metrx\$1;
#X obj 237 222 pack s f;
#X msg 237 249 \$2-\$1;
#X obj 131 102 until;
#X obj 193 161 t f f;
#X obj 21 193 tabread \$1-metbetween;
#X text 151 77 -> aanpassen! aantal op te slagen floats;
#X obj 180 16 inlet;
#X obj 229 345 outlet;
#X msg 235 311 add2 () norm 0 0 \$1;
#X obj 111 76 f 4;
#X connect 0 0 9 1;
#X connect 1 0 17 0;
#X connect 2 0 3 0;
#X connect 3 0 16 0;
#X connect 4 3 18 0;
#X connect 4 4 0 0;
#X connect 4 4 7 0;
#X connect 5 0 6 0;
#X connect 6 0 5 1;
#X connect 6 0 12 0;
#X connect 7 0 5 1;
#X connect 8 0 9 0;
#X connect 9 0 10 0;
#X connect 10 0 1 0;
#X connect 11 0 5 0;
#X connect 12 0 13 0;
#X connect 12 1 8 0;
#X connect 13 0 2 0;
#X connect 15 0 4 0;
#X connect 17 0 16 0;
#X connect 18 0 11 0;
#X restore 217 153 pd normal;
#X text 179 152 !!->;
#X text 212 245 !!->;
#N canvas 49 0 1083 250 receive-normal 0;
#X obj 24 26 r \$1-metrx1;
#X obj 54 46 r \$1-metrx2;
#X obj 85 66 r \$1-metrx3;
#X obj 196 19 r \$1-metrx4;
#X obj 226 39 r \$1-metrx5;
#X obj 257 59 r \$1-metrx6;
#X obj 364 16 r \$1-metrx7;
#X obj 382 37 r \$1-metrx8;
#X obj 416 58 r \$1-metrx9;
#X obj 523 33 r \$1-metrx10;
#X obj 553 53 r \$1-metrx11;
#X obj 584 73 r \$1-metrx12;
#X obj 703 33 r \$1-metrx13;
#X obj 733 53 r \$1-metrx14;
#X obj 764 73 r \$1-metrx15;
#X obj 863 33 r \$1-metrx16;
#X obj 893 53 r \$1-metrx17;
#X obj 924 73 r \$1-metrx18;
#X obj 33 293 r \$1-metrx19;
#X obj 63 313 r \$1-metrx20;
#X obj 94 333 r \$1-metrx21;
#X obj 213 293 r \$1-metrx22;
#X obj 243 313 r \$1-metrx23;
#X obj 274 333 r \$1-metrx24;
#X obj 393 293 r \$1-metrx25;
#X obj 423 313 r \$1-metrx26;
#X obj 454 333 r \$1-metrx27;
#X obj 543 293 r \$1-metrx28;
#X obj 573 313 r \$1-metrx29;
#X obj 604 333 r \$1-metrx30;
#X obj 713 293 r \$1-metrx31;
#X obj 743 313 r \$1-metrx32;
#X obj 774 333 r \$1-metrx33;
#X obj 873 293 r \$1-metrx34;
#X obj 903 313 r \$1-metrx35;
#X obj 934 333 r \$1-metrx36;
#X text 667 236 ^ hier aanvullen ^;
#N canvas 30 18 246 218 cmp 0;
#X obj 42 65 list split 1;
#X obj 88 119 ==;
#X obj 43 151 spigot;
#X obj 43 176 outlet;
#X obj 42 28 inlet;
#X obj 110 30 r \$1-metarg2;
#X connect 0 0 2 0;
#X connect 0 1 1 0;
#X connect 1 0 2 1;
#X connect 2 0 3 0;
#X connect 4 0 0 0;
#X connect 5 0 1 1;
#X restore 22 100 pd cmp;
#N canvas 355 32 246 300 cmp 0;
#X obj 42 65 list split 1;
#X obj 88 119 ==;
#X obj 43 151 spigot;
#X obj 43 176 outlet;
#X obj 42 28 inlet;
#X obj 110 30 r \$1-metarg2;
#X connect 0 0 2 0;
#X connect 0 1 1 0;
#X connect 1 0 2 1;
#X connect 2 0 3 0;
#X connect 4 0 0 0;
#X connect 5 0 1 1;
#X restore 42 125 pd cmp;
#N canvas 0 0 246 300 cmp 0;
#X obj 42 65 list split 1;
#X obj 88 119 ==;
#X obj 43 151 spigot;
#X obj 43 176 outlet;
#X obj 42 28 inlet;
#X obj 110 30 r \$1-metarg2;
#X connect 0 0 2 0;
#X connect 0 1 1 0;
#X connect 1 0 2 1;
#X connect 2 0 3 0;
#X connect 4 0 0 0;
#X connect 5 0 1 1;
#X restore 59 153 pd cmp;
#N canvas 0 0 246 300 cmp 0;
#X obj 42 65 list split 1;
#X obj 88 119 ==;
#X obj 43 151 spigot;
#X obj 43 176 outlet;
#X obj 42 28 inlet;
#X obj 110 30 r \$1-metarg2;
#X connect 0 0 2 0;
#X connect 0 1 1 0;
#X connect 1 0 2 1;
#X connect 2 0 3 0;
#X connect 4 0 0 0;
#X connect 5 0 1 1;
#X restore 172 100 pd cmp;
#N canvas 0 0 246 300 cmp 0;
#X obj 42 65 list split 1;
#X obj 88 119 ==;
#X obj 43 151 spigot;
#X obj 43 176 outlet;
#X obj 42 28 inlet;
#X obj 110 30 r \$1-metarg2;
#X connect 0 0 2 0;
#X connect 0 1 1 0;
#X connect 1 0 2 1;
#X connect 2 0 3 0;
#X connect 4 0 0 0;
#X connect 5 0 1 1;
#X restore 192 125 pd cmp;
#N canvas 308 15 246 215 cmp 0;
#X obj 42 65 list split 1;
#X obj 88 119 ==;
#X obj 43 151 spigot;
#X obj 43 176 outlet;
#X obj 42 28 inlet;
#X obj 110 30 r \$1-metarg2;
#X connect 0 0 2 0;
#X connect 0 1 1 0;
#X connect 1 0 2 1;
#X connect 2 0 3 0;
#X connect 4 0 0 0;
#X connect 5 0 1 1;
#X restore 209 153 pd cmp;
#N canvas 0 0 246 300 cmp 0;
#X obj 42 65 list split 1;
#X obj 88 119 ==;
#X obj 43 151 spigot;
#X obj 43 176 outlet;
#X obj 42 28 inlet;
#X obj 110 30 r \$1-metarg2;
#X connect 0 0 2 0;
#X connect 0 1 1 0;
#X connect 1 0 2 1;
#X connect 2 0 3 0;
#X connect 4 0 0 0;
#X connect 5 0 1 1;
#X restore 362 100 pd cmp;
#N canvas 0 0 246 300 cmp 0;
#X obj 42 65 list split 1;
#X obj 88 119 ==;
#X obj 43 151 spigot;
#X obj 43 176 outlet;
#X obj 42 28 inlet;
#X obj 110 30 r \$1-metarg2;
#X connect 0 0 2 0;
#X connect 0 1 1 0;
#X connect 1 0 2 1;
#X connect 2 0 3 0;
#X connect 4 0 0 0;
#X connect 5 0 1 1;
#X restore 382 125 pd cmp;
#N canvas 0 0 246 300 cmp 0;
#X obj 42 65 list split 1;
#X obj 88 119 ==;
#X obj 43 151 spigot;
#X obj 43 176 outlet;
#X obj 42 28 inlet;
#X obj 110 30 r \$1-metarg2;
#X connect 0 0 2 0;
#X connect 0 1 1 0;
#X connect 1 0 2 1;
#X connect 2 0 3 0;
#X connect 4 0 0 0;
#X connect 5 0 1 1;
#X restore 399 153 pd cmp;
#N canvas 0 0 246 300 cmp 0;
#X obj 42 65 list split 1;
#X obj 88 119 ==;
#X obj 43 151 spigot;
#X obj 43 176 outlet;
#X obj 42 28 inlet;
#X obj 110 30 r \$1-metarg2;
#X connect 0 0 2 0;
#X connect 0 1 1 0;
#X connect 1 0 2 1;
#X connect 2 0 3 0;
#X connect 4 0 0 0;
#X connect 5 0 1 1;
#X restore 542 110 pd cmp;
#N canvas 0 0 246 300 cmp 0;
#X obj 42 65 list split 1;
#X obj 88 119 ==;
#X obj 43 151 spigot;
#X obj 43 176 outlet;
#X obj 42 28 inlet;
#X obj 110 30 r \$1-metarg2;
#X connect 0 0 2 0;
#X connect 0 1 1 0;
#X connect 1 0 2 1;
#X connect 2 0 3 0;
#X connect 4 0 0 0;
#X connect 5 0 1 1;
#X restore 562 135 pd cmp;
#N canvas 0 0 246 300 cmp 0;
#X obj 42 65 list split 1;
#X obj 88 119 ==;
#X obj 43 151 spigot;
#X obj 43 176 outlet;
#X obj 42 28 inlet;
#X obj 110 30 r \$1-metarg2;
#X connect 0 0 2 0;
#X connect 0 1 1 0;
#X connect 1 0 2 1;
#X connect 2 0 3 0;
#X connect 4 0 0 0;
#X connect 5 0 1 1;
#X restore 579 163 pd cmp;
#N canvas 0 0 246 300 cmp 0;
#X obj 42 65 list split 1;
#X obj 88 119 ==;
#X obj 43 151 spigot;
#X obj 43 176 outlet;
#X obj 42 28 inlet;
#X obj 110 30 r \$1-metarg2;
#X connect 0 0 2 0;
#X connect 0 1 1 0;
#X connect 1 0 2 1;
#X connect 2 0 3 0;
#X connect 4 0 0 0;
#X connect 5 0 1 1;
#X restore 692 110 pd cmp;
#N canvas 0 0 246 300 cmp 0;
#X obj 42 65 list split 1;
#X obj 88 119 ==;
#X obj 43 151 spigot;
#X obj 43 176 outlet;
#X obj 42 28 inlet;
#X obj 110 30 r \$1-metarg2;
#X connect 0 0 2 0;
#X connect 0 1 1 0;
#X connect 1 0 2 1;
#X connect 2 0 3 0;
#X connect 4 0 0 0;
#X connect 5 0 1 1;
#X restore 712 135 pd cmp;
#N canvas 0 0 246 300 cmp 0;
#X obj 42 65 list split 1;
#X obj 88 119 ==;
#X obj 43 151 spigot;
#X obj 43 176 outlet;
#X obj 42 28 inlet;
#X obj 110 30 r \$1-metarg2;
#X connect 0 0 2 0;
#X connect 0 1 1 0;
#X connect 1 0 2 1;
#X connect 2 0 3 0;
#X connect 4 0 0 0;
#X connect 5 0 1 1;
#X restore 729 163 pd cmp;
#N canvas 0 0 246 300 cmp 0;
#X obj 42 65 list split 1;
#X obj 88 119 ==;
#X obj 43 151 spigot;
#X obj 43 176 outlet;
#X obj 42 28 inlet;
#X obj 110 30 r \$1-metarg2;
#X connect 0 0 2 0;
#X connect 0 1 1 0;
#X connect 1 0 2 1;
#X connect 2 0 3 0;
#X connect 4 0 0 0;
#X connect 5 0 1 1;
#X restore 882 100 pd cmp;
#N canvas 0 0 246 300 cmp 0;
#X obj 42 65 list split 1;
#X obj 88 119 ==;
#X obj 43 151 spigot;
#X obj 43 176 outlet;
#X obj 42 28 inlet;
#X obj 110 30 r \$1-metarg2;
#X connect 0 0 2 0;
#X connect 0 1 1 0;
#X connect 1 0 2 1;
#X connect 2 0 3 0;
#X connect 4 0 0 0;
#X connect 5 0 1 1;
#X restore 902 125 pd cmp;
#N canvas 0 0 246 300 cmp 0;
#X obj 42 65 list split 1;
#X obj 88 119 ==;
#X obj 43 151 spigot;
#X obj 43 176 outlet;
#X obj 42 28 inlet;
#X obj 110 30 r \$1-metarg2;
#X connect 0 0 2 0;
#X connect 0 1 1 0;
#X connect 1 0 2 1;
#X connect 2 0 3 0;
#X connect 4 0 0 0;
#X connect 5 0 1 1;
#X restore 919 153 pd cmp;
#N canvas 30 18 246 218 cmp 0;
#X obj 42 65 list split 1;
#X obj 88 119 ==;
#X obj 43 151 spigot;
#X obj 43 176 outlet;
#X obj 42 28 inlet;
#X obj 110 30 r \$1-metarg2;
#X connect 0 0 2 0;
#X connect 0 1 1 0;
#X connect 1 0 2 1;
#X connect 2 0 3 0;
#X connect 4 0 0 0;
#X connect 5 0 1 1;
#X restore 32 370 pd cmp;
#N canvas 355 32 246 300 cmp 0;
#X obj 42 65 list split 1;
#X obj 88 119 ==;
#X obj 43 151 spigot;
#X obj 43 176 outlet;
#X obj 42 28 inlet;
#X obj 110 30 r \$1-metarg2;
#X connect 0 0 2 0;
#X connect 0 1 1 0;
#X connect 1 0 2 1;
#X connect 2 0 3 0;
#X connect 4 0 0 0;
#X connect 5 0 1 1;
#X restore 52 395 pd cmp;
#N canvas 0 0 246 300 cmp 0;
#X obj 42 65 list split 1;
#X obj 88 119 ==;
#X obj 43 151 spigot;
#X obj 43 176 outlet;
#X obj 42 28 inlet;
#X obj 110 30 r \$1-metarg2;
#X connect 0 0 2 0;
#X connect 0 1 1 0;
#X connect 1 0 2 1;
#X connect 2 0 3 0;
#X connect 4 0 0 0;
#X connect 5 0 1 1;
#X restore 69 423 pd cmp;
#N canvas 0 0 246 300 cmp 0;
#X obj 42 65 list split 1;
#X obj 88 119 ==;
#X obj 43 151 spigot;
#X obj 43 176 outlet;
#X obj 42 28 inlet;
#X obj 110 30 r \$1-metarg2;
#X connect 0 0 2 0;
#X connect 0 1 1 0;
#X connect 1 0 2 1;
#X connect 2 0 3 0;
#X connect 4 0 0 0;
#X connect 5 0 1 1;
#X restore 182 370 pd cmp;
#N canvas 0 0 246 300 cmp 0;
#X obj 42 65 list split 1;
#X obj 88 119 ==;
#X obj 43 151 spigot;
#X obj 43 176 outlet;
#X obj 42 28 inlet;
#X obj 110 30 r \$1-metarg2;
#X connect 0 0 2 0;
#X connect 0 1 1 0;
#X connect 1 0 2 1;
#X connect 2 0 3 0;
#X connect 4 0 0 0;
#X connect 5 0 1 1;
#X restore 202 395 pd cmp;
#N canvas 308 15 246 215 cmp 0;
#X obj 42 65 list split 1;
#X obj 88 119 ==;
#X obj 43 151 spigot;
#X obj 43 176 outlet;
#X obj 42 28 inlet;
#X obj 110 30 r \$1-metarg2;
#X connect 0 0 2 0;
#X connect 0 1 1 0;
#X connect 1 0 2 1;
#X connect 2 0 3 0;
#X connect 4 0 0 0;
#X connect 5 0 1 1;
#X restore 219 423 pd cmp;
#N canvas 0 0 246 300 cmp 0;
#X obj 42 65 list split 1;
#X obj 88 119 ==;
#X obj 43 151 spigot;
#X obj 43 176 outlet;
#X obj 42 28 inlet;
#X obj 110 30 r \$1-metarg2;
#X connect 0 0 2 0;
#X connect 0 1 1 0;
#X connect 1 0 2 1;
#X connect 2 0 3 0;
#X connect 4 0 0 0;
#X connect 5 0 1 1;
#X restore 372 370 pd cmp;
#N canvas 0 0 246 300 cmp 0;
#X obj 42 65 list split 1;
#X obj 88 119 ==;
#X obj 43 151 spigot;
#X obj 43 176 outlet;
#X obj 42 28 inlet;
#X obj 110 30 r \$1-metarg2;
#X connect 0 0 2 0;
#X connect 0 1 1 0;
#X connect 1 0 2 1;
#X connect 2 0 3 0;
#X connect 4 0 0 0;
#X connect 5 0 1 1;
#X restore 392 395 pd cmp;
#N canvas 0 0 246 300 cmp 0;
#X obj 42 65 list split 1;
#X obj 88 119 ==;
#X obj 43 151 spigot;
#X obj 43 176 outlet;
#X obj 42 28 inlet;
#X obj 110 30 r \$1-metarg2;
#X connect 0 0 2 0;
#X connect 0 1 1 0;
#X connect 1 0 2 1;
#X connect 2 0 3 0;
#X connect 4 0 0 0;
#X connect 5 0 1 1;
#X restore 409 423 pd cmp;
#N canvas 0 0 246 300 cmp 0;
#X obj 42 65 list split 1;
#X obj 88 119 ==;
#X obj 43 151 spigot;
#X obj 43 176 outlet;
#X obj 42 28 inlet;
#X obj 110 30 r \$1-metarg2;
#X connect 0 0 2 0;
#X connect 0 1 1 0;
#X connect 1 0 2 1;
#X connect 2 0 3 0;
#X connect 4 0 0 0;
#X connect 5 0 1 1;
#X restore 552 380 pd cmp;
#N canvas 0 0 246 300 cmp 0;
#X obj 42 65 list split 1;
#X obj 88 119 ==;
#X obj 43 151 spigot;
#X obj 43 176 outlet;
#X obj 42 28 inlet;
#X obj 110 30 r \$1-metarg2;
#X connect 0 0 2 0;
#X connect 0 1 1 0;
#X connect 1 0 2 1;
#X connect 2 0 3 0;
#X connect 4 0 0 0;
#X connect 5 0 1 1;
#X restore 572 405 pd cmp;
#N canvas 0 0 246 300 cmp 0;
#X obj 42 65 list split 1;
#X obj 88 119 ==;
#X obj 43 151 spigot;
#X obj 43 176 outlet;
#X obj 42 28 inlet;
#X obj 110 30 r \$1-metarg2;
#X connect 0 0 2 0;
#X connect 0 1 1 0;
#X connect 1 0 2 1;
#X connect 2 0 3 0;
#X connect 4 0 0 0;
#X connect 5 0 1 1;
#X restore 589 433 pd cmp;
#N canvas 0 0 246 300 cmp 0;
#X obj 42 65 list split 1;
#X obj 88 119 ==;
#X obj 43 151 spigot;
#X obj 43 176 outlet;
#X obj 42 28 inlet;
#X obj 110 30 r \$1-metarg2;
#X connect 0 0 2 0;
#X connect 0 1 1 0;
#X connect 1 0 2 1;
#X connect 2 0 3 0;
#X connect 4 0 0 0;
#X connect 5 0 1 1;
#X restore 702 380 pd cmp;
#N canvas 0 0 246 300 cmp 0;
#X obj 42 65 list split 1;
#X obj 88 119 ==;
#X obj 43 151 spigot;
#X obj 43 176 outlet;
#X obj 42 28 inlet;
#X obj 110 30 r \$1-metarg2;
#X connect 0 0 2 0;
#X connect 0 1 1 0;
#X connect 1 0 2 1;
#X connect 2 0 3 0;
#X connect 4 0 0 0;
#X connect 5 0 1 1;
#X restore 722 405 pd cmp;
#N canvas 0 0 246 300 cmp 0;
#X obj 42 65 list split 1;
#X obj 88 119 ==;
#X obj 43 151 spigot;
#X obj 43 176 outlet;
#X obj 42 28 inlet;
#X obj 110 30 r \$1-metarg2;
#X connect 0 0 2 0;
#X connect 0 1 1 0;
#X connect 1 0 2 1;
#X connect 2 0 3 0;
#X connect 4 0 0 0;
#X connect 5 0 1 1;
#X restore 739 433 pd cmp;
#N canvas 0 0 246 300 cmp 0;
#X obj 42 65 list split 1;
#X obj 88 119 ==;
#X obj 43 151 spigot;
#X obj 43 176 outlet;
#X obj 42 28 inlet;
#X obj 110 30 r \$1-metarg2;
#X connect 0 0 2 0;
#X connect 0 1 1 0;
#X connect 1 0 2 1;
#X connect 2 0 3 0;
#X connect 4 0 0 0;
#X connect 5 0 1 1;
#X restore 892 370 pd cmp;
#N canvas 0 0 246 300 cmp 0;
#X obj 42 65 list split 1;
#X obj 88 119 ==;
#X obj 43 151 spigot;
#X obj 43 176 outlet;
#X obj 42 28 inlet;
#X obj 110 30 r \$1-metarg2;
#X connect 0 0 2 0;
#X connect 0 1 1 0;
#X connect 1 0 2 1;
#X connect 2 0 3 0;
#X connect 4 0 0 0;
#X connect 5 0 1 1;
#X restore 912 395 pd cmp;
#N canvas 0 0 246 300 cmp 0;
#X obj 42 65 list split 1;
#X obj 88 119 ==;
#X obj 43 151 spigot;
#X obj 43 176 outlet;
#X obj 42 28 inlet;
#X obj 110 30 r \$1-metarg2;
#X connect 0 0 2 0;
#X connect 0 1 1 0;
#X connect 1 0 2 1;
#X connect 2 0 3 0;
#X connect 4 0 0 0;
#X connect 5 0 1 1;
#X restore 929 423 pd cmp;
#X obj 74 207 s \$1-metrtime;
#X obj 105 184 s \$1-metrext;
#X obj 35 229 s \$1-metrtempo;
#X obj 189 221 s \$1-metrsoun;
#X connect 0 0 37 0;
#X connect 1 0 38 0;
#X connect 2 0 39 0;
#X connect 3 0 40 0;
#X connect 4 0 41 0;
#X connect 5 0 42 0;
#X connect 6 0 43 0;
#X connect 7 0 44 0;
#X connect 8 0 45 0;
#X connect 9 0 46 0;
#X connect 10 0 47 0;
#X connect 11 0 48 0;
#X connect 12 0 49 0;
#X connect 13 0 50 0;
#X connect 14 0 51 0;
#X connect 15 0 52 0;
#X connect 16 0 53 0;
#X connect 17 0 54 0;
#X connect 18 0 55 0;
#X connect 19 0 56 0;
#X connect 20 0 57 0;
#X connect 21 0 58 0;
#X connect 22 0 59 0;
#X connect 23 0 60 0;
#X connect 24 0 61 0;
#X connect 25 0 62 0;
#X connect 26 0 63 0;
#X connect 27 0 64 0;
#X connect 28 0 65 0;
#X connect 29 0 66 0;
#X connect 30 0 67 0;
#X connect 31 0 68 0;
#X connect 32 0 69 0;
#X connect 33 0 70 0;
#X connect 34 0 71 0;
#X connect 35 0 72 0;
#X connect 37 0 75 0;
#X connect 38 0 73 0;
#X connect 39 0 74 0;
#X connect 40 0 76 0;
#X restore 251 246 pd receive-normal;
#X text 32 27 !!->;
#N canvas 0 0 246 300 cmp 0;
#X obj 42 65 list split 1;
#X obj 88 119 ==;
#X obj 43 151 spigot;
#X obj 43 176 outlet;
#X obj 42 28 inlet;
#X obj 157 64 inlet;
#X connect 0 0 2 0;
#X connect 0 1 1 0;
#X connect 1 0 2 1;
#X connect 2 0 3 0;
#X connect 4 0 0 0;
#X connect 5 0 1 1;
#X restore 209 94 pd cmp;
#X obj 458 12 loadbang;
#X obj 458 37 f \$2;
#X obj 458 85 s \$1-metarg2;
#X connect 0 0 9 0;
#X connect 1 1 4 0;
#X connect 4 0 3 0;
#X connect 9 0 1 0;
#X connect 10 0 11 0;
#X connect 11 0 9 1;
#X connect 11 0 12 0;
#X restore 417 396 pd presetsnew;
#N canvas 303 85 510 473 onoff 0;
#X obj 20 15 inlet ticks;
#X obj 390 89 r \$1-metsstart;
#X obj 137 76 r \$1-metsext;
#X obj 292 207 r \$1-metstempo;
#X obj 193 303 metro;
#N canvas 0 0 462 312 bpmtoms 0;
#X obj 99 101 inlet;
#X obj 102 214 outlet;
#X obj 100 158 expr (60/$f1)*1000;
#X floatatom 159 105 5 0 0 0 - - -;
#X floatatom 167 218 5 0 0 0 - - -;
#X connect 0 0 2 0;
#X connect 2 0 1 0;
#X connect 2 0 4 0;
#X connect 3 0 2 0;
#X restore 292 236 pd bpmtoms;
#X obj 19 308 spigot;
#X obj 178 215 == 0;
#X obj 19 40 route float symbol;
#X obj 292 265 s \$1-metrms;
#X obj 197 429 outlet reset;
#X obj 74 429 outlet tick;
#X text 24 569 ext clock : als ext == 1;
#X obj 87 73 b;
#X obj 230 174 f;
#X text 24 548 int clock (metro): als main == 1 en ext === 0;
#X obj 156 110 t f f b f;
#X obj 230 212 == 1;
#X obj 193 256 &&;
#X obj 390 117 t f b b f;
#X obj 87 311 spigot;
#X obj 19 378 select 1;
#X obj 19 340 > 0;
#X obj 408 278 select 1;
#X connect 0 0 8 0;
#X connect 1 0 19 0;
#X connect 2 0 16 0;
#X connect 3 0 5 0;
#X connect 4 0 11 0;
#X connect 5 0 4 1;
#X connect 5 0 9 0;
#X connect 6 0 22 0;
#X connect 7 0 18 0;
#X connect 8 0 6 0;
#X connect 8 1 13 0;
#X connect 13 0 20 0;
#X connect 14 0 17 0;
#X connect 16 1 7 0;
#X connect 16 2 14 0;
#X connect 16 3 6 1;
#X connect 16 3 20 1;
#X connect 17 0 18 1;
#X connect 18 0 4 0;
#X connect 19 1 7 0;
#X connect 19 2 14 0;
#X connect 19 3 14 1;
#X connect 19 3 23 0;
#X connect 20 0 10 0;
#X connect 21 0 11 0;
#X connect 22 0 21 0;
#X connect 23 0 10 0;
#X restore 21 353 pd onoff;
#X obj 21 326 inlet ticksexternalclock;
#X connect 0 0 2 0;
#X connect 1 0 14 0;
#X connect 7 0 11 0;
#X connect 8 0 9 0;
#X connect 10 0 7 0;
#X connect 11 0 8 0;
#X connect 16 0 17 0;
#X connect 28 0 29 0;
#X connect 35 0 1 0;
#X connect 35 1 1 1;
#X connect 36 0 35 0;
