#N canvas 81 194 392 175 12;
#N canvas 53 276 837 423 printallreceives 0;
#X obj 35 63 f \$1;
#X obj 33 6 bng 15 250 50 0 empty empty empty 17 7 0 10 -262144 -1
-1;
#X obj 70 173 t f f f f f f f f f;
#X obj 36 87 t f f;
#X obj 166 21 r \$1-ctiprintreceives;
#X obj 92 136 print start;
#X obj 49 370 print end;
#X msg 91 109 names of receives in [midi-ctlin \$1]...................>>
;
#X msg 48 344 <<.........................................[midi-ctlin
\$1];
#X obj 10 21 r printreceives;
#X msg 209 249 \$1-ctirpos;
#X obj 212 275 print Left-Mid-Right[0-1];
#X connect 0 0 3 0;
#X connect 1 0 0 0;
#X connect 2 0 8 0;
#X connect 2 8 10 0;
#X connect 3 0 2 0;
#X connect 3 1 7 0;
#X connect 4 0 0 0;
#X connect 7 0 5 0;
#X connect 8 0 6 0;
#X connect 9 0 0 0;
#X connect 10 0 11 0;
#X restore 246 489 pd printallreceives;
#N canvas 482 290 451 231 \$1-midi-ctlinextra 0;
#X obj 26 161 bng 15 250 50 0 printreceives empty print_all_receives
17 7 0 10 -262144 -1 -1;
#X obj 25 102 bng 15 250 50 0 \$1-ctiprintreceives empty print_names_of_receives
17 7 0 10 -262144 -1 -1;
#X text 84 180 (of all objects in open files);
#X text 83 121 (of this 'midi-ctlin' object);
#X obj 209 59 bng 15 250 50 0 \$1-ctisopb \$1-ctiropb write 17 7 0
10 -262144 -1 -1;
#X obj 151 59 nbx 3 14 1 20 0 0 \$1-ctisopn \$1-ctiropn preset_nr -4
-8 0 10 -262144 -1 -1 1 256;
#X text 10 21 Write to internal preset of this 'midi-ctlin' object:
;
#X restore 245 459 pd \$1-midi-ctlinextra;
#X obj 246 338 f \$1;
#X obj 246 389 symbol;
#X msg 246 414 \; \$1 vis 1;
#X obj 246 313 r \$1-ctisextraoptions;
#X msg 247 363 pd-\$1-midi-ctlinextra;
#N canvas 335 0 859 737 foutmelding 0;
#X obj 87 38 loadbang;
#X obj 79 83 f \$1;
#X obj 73 111 select 0;
#X msg 75 197 \; \$1 vis 1;
#X msg 74 142 36;
#X text 151 150 ascii-code voor $;
#X text 197 199 als er geen argument is \, noemt de subpatch vreemd
genoeg niet pd 0-warning maar wel pd \$1-warning;
#X text 129 80 als er geen argument is geeft f \$1 een 0;
#X obj 154 336 del 100;
#X msg 319 355 1;
#X obj 238 405 spigot;
#X obj 342 453 spigot;
#X obj 409 425 == 0;
#X obj 338 423 r midi-ctlin;
#X obj 240 489 s midi-ctlin;
#X obj 208 305 t b b b;
#X obj 314 389 t f f;
#X obj 241 429 del 150;
#X obj 239 460 f \$1;
#X msg 169 357 0;
#X obj 378 506 == \$1;
#X obj 455 604 > 1;
#X obj 341 478 t f f;
#X obj 391 568 f 0;
#X obj 390 538 select 1;
#X obj 330 541 spigot;
#X obj 459 569 + 1;
#X obj 336 602 == \$1;
#X obj 396 628 &&;
#X obj 158 628 print pop;
#X text 487 604 groter dan 1 want vergelijking et zichzelf levert sowieso
al 1 op en dan met ev. zelfde object met identiek argument levert 2
op!;
#X obj 396 656 select 1;
#X obj 396 678 f \$1;
#X obj 398 768 symbol;
#X msg 396 795 \; \$1 vis 1;
#X obj 363 706 t f f;
#X obj 92 820 symbol;
#X obj 170 872 print;
#X obj 326 662 bng 15 250 50 0 empty empty empty 17 7 0 10 -262144
-1 -1;
#X msg 173 839 !!! these two abunch objects have the same argument
number: [midi-ctlin \$1];
#X text 406 346 alleen net gecreerde object verstuurt waarde;
#X text 398 372 bij eerder gemaakte objecten staat spigot voor receive
open;
#N canvas 670 470 308 138 \$1-midi-ctlinwarning 0;
#X obj -1 0 cnv 15 320 150 empty empty empty 20 12 0 14 -258699 -66577
0;
#X text 11 32 You forgot to add an unique number;
#X text 11 78 when you created this abunch object;
#X restore 349 165 pd \$1-midi-ctlinwarning;
#N canvas 856 445 327 127 \$1-midi-ctlinsameargument 0;
#X obj -1 0 cnv 15 330 150 empty empty empty 20 12 0 14 -258699 -66577
0;
#X msg 393 108;
#X text 314 243 is used already!!;
#X obj 344 35 inlet;
#X symbolatom 351 77 10 0 0 0 - - -;
#X obj 98 40 cnv 15 60 20 empty empty empty 20 12 0 14 -233017 -66577
0;
#X text 24 40 Create an unique number for this;
#X text 102 69 abunch object.;
#X connect 3 0 1 0;
#X connect 3 0 4 0;
#X restore 541 770 pd \$1-midi-ctlinsameargument;
#X msg 397 738 pd-\$1-midi-ctlinsameargument;
#X obj 74 171 makefilename pd-%c1-midi-ctlinwarning;
#X connect 0 0 1 0;
#X connect 0 0 15 0;
#X connect 1 0 2 0;
#X connect 2 0 4 0;
#X connect 4 0 45 0;
#X connect 8 0 19 0;
#X connect 9 0 16 0;
#X connect 10 0 17 0;
#X connect 11 0 22 0;
#X connect 12 0 11 1;
#X connect 13 0 11 0;
#X connect 15 0 8 0;
#X connect 15 1 10 0;
#X connect 15 2 9 0;
#X connect 16 0 10 1;
#X connect 16 1 12 0;
#X connect 17 0 18 0;
#X connect 18 0 14 0;
#X connect 19 0 16 0;
#X connect 20 0 24 0;
#X connect 20 0 25 1;
#X connect 21 0 28 1;
#X connect 22 0 25 0;
#X connect 22 1 20 0;
#X connect 23 0 26 0;
#X connect 24 0 23 0;
#X connect 25 0 27 0;
#X connect 26 0 23 1;
#X connect 26 0 21 0;
#X connect 27 0 28 0;
#X connect 28 0 31 0;
#X connect 31 0 32 0;
#X connect 32 0 35 0;
#X connect 33 0 34 0;
#X connect 35 0 44 0;
#X connect 35 1 39 0;
#X connect 38 0 32 0;
#X connect 39 0 37 0;
#X connect 44 0 33 0;
#X connect 45 0 3 0;
#X restore 78 368 pd foutmelding;
#N canvas 519 197 566 199 needsound 0;
#X obj 22 34 r soundfileyesno;
#X msg 18 67 0;
#X obj 22 138 s answersoundfile;
#X text 63 65 0 = this abunch object doesn't need a sound file (store
in a preset file) \, 1 = it does;
#X connect 0 0 1 0;
#X connect 1 0 2 0;
#X restore 77 398 pd needsound;
#N canvas 355 127 883 542 open_own_preset 0;
#X obj 566 118 bng 15 250 50 0 empty empty empty 17 7 0 10 -262144
-1 -1;
#X obj 564 140 openpanel;
#X text 352 58 -> versturen naar alle receives (met \$1 in naam \,
dus enkel naar deze abstraction met dit argument \, en niet naar ev.
tweede geopende abstractie);
#N canvas 89 143 1167 502 ownpreset_array 0;
#X obj 21 435 outlet gui1;
#X obj 112 437 outlet gui2;
#X obj 201 437 outlet gui3;
#X obj 293 437 outlet gui4;
#X obj 475 437 outlet gui6;
#X obj 384 437 outlet gui5;
#X obj 567 437 outlet gui7;
#X obj 658 437 outlet gui8;
#X obj 748 437 outlet gui9;
#X obj 840 436 outlet gui10;
#X obj 495 178 until;
#X obj 472 267 + 1;
#X obj 499 236 f 0;
#N canvas 45 153 1064 314 router_1inxout 0;
#X obj 231 27 inlet one;
#X obj 339 23 inlet route123;
#X obj 35 211 outlet one;
#X obj 124 210 outlet two;
#X obj 218 211 outlet three;
#X obj 323 211 outlet four;
#X obj 415 210 outlet five;
#X obj 510 211 outlet six;
#X obj 599 210 outlet seven;
#X obj 700 213 outlet eigth;
#X obj 805 212 outlet nine;
#X obj 897 211 outlet ten;
#X obj 361 83 pack;
#X obj 296 57 mod 12;
#X obj 919 239 outlet nine;
#X obj 1011 238 outlet ten;
#X obj 58 77 route 1 2;
#X obj 961 138 unpack;
#X obj 696 86 route 0 1 2 3 4 5 6 7 8 9 10 11;
#X connect 0 0 13 0;
#X connect 1 0 12 1;
#X connect 12 0 18 0;
#X connect 13 0 12 0;
#X connect 17 1 15 0;
#X connect 18 0 2 0;
#X connect 18 1 3 0;
#X connect 18 2 4 0;
#X connect 18 3 5 0;
#X connect 18 4 6 0;
#X connect 18 5 7 0;
#X connect 18 6 8 0;
#X connect 18 7 9 0;
#X connect 18 8 10 0;
#X connect 18 9 11 0;
#X connect 18 10 14 0;
#X connect 18 11 17 0;
#X restore 393 393 pd router_1inxout;
#X obj 590 155 * 12;
#X obj 588 178 - 12;
#X obj 495 295 t f f;
#N canvas 0 0 450 300 (subpatch) 0;
#X array \$1-ownctipreset 240 float 3;
#A 0 82 83 28 29 16 80 18 19 1 0 0 0 74 71 81 91 2 10 5 21 1 0 0 0
0 0 1 36 455.779 2040.2 0 1 1 100 512.123 0 0 0 0 42 493.467 6638.19
0 235.394 1 100 461.871 0 0 0 1 78 31.1558 2015.08 1 105.292 169.068
100 10 0 0 0 1 83 3.51759 2015.08 0 1 32.553 100 1376.87 0 0 0 0 0
0 0 0 0 0 0 0 0 0 0 0 0 0 0 0 0 0 0 0 0 0 0 0 0 0 0 0 0 0 0 0 0 0 0
0 0 0 0 0 0 0 0 0 0 0 0 0 0 0 0 0 0 0 0 0 0 0 0 0 0 0 0 0 0 0 0 0 0
0 0 0 0 0 0 0 0 0 0 0 0 0 0 0 0 0 0 0 0 0 0 0 0 0 0 0 0 0 0 0 0 0 0
0 0 0 0 0 0 0 0 0 0 0 0 0 0 0 0 0 0 0 0 0 0 0 0 0 0 0 0 0 0 0 0 0 0
0 0 0 0 0 0 0 0 0 0 0 0 0 0 0 0 0 0 0 0 0 0 0 0 0 0 0 0;
#X coords 0 10000 239 -1 200 140 1;
#X restore 101 156 graph;
#X text 386 60 -> !!! per 12;
#X text 511 383 -> !!! hierin ook per 12;
#X text 583 84 max 12 parameters/waarden voor array/presets;
#X msg 528 155 12;
#X obj 940 438 outlet gui9;
#X obj 1032 437 outlet gui10;
#X obj 565 62 inlet;
#X obj 570 126 t b f b;
#X text 81 112 size van array nog aanpassen !!!;
#X obj 449 346 tabread \$1-ownctipreset;
#X obj 586 203 - 1;
#X connect 10 0 12 0;
#X connect 11 0 12 1;
#X connect 11 0 16 0;
#X connect 12 0 11 0;
#X connect 13 0 0 0;
#X connect 13 1 1 0;
#X connect 13 2 2 0;
#X connect 13 3 3 0;
#X connect 13 4 5 0;
#X connect 13 5 4 0;
#X connect 13 6 6 0;
#X connect 13 7 7 0;
#X connect 13 8 8 0;
#X connect 13 9 9 0;
#X connect 13 10 22 0;
#X connect 13 11 23 0;
#X connect 14 0 15 0;
#X connect 15 0 28 0;
#X connect 16 0 13 0;
#X connect 16 1 27 0;
#X connect 21 0 10 0;
#X connect 24 0 25 0;
#X connect 25 0 21 0;
#X connect 25 1 14 0;
#X connect 27 0 13 1;
#X connect 28 0 12 1;
#X restore 179 144 pd ownpreset_array;
#X text 466 32 range number box aanpassen;
#X msg 565 166 \; 1-ownctipreset read \$1;
#X text 561 202 crynth met 1 als argument;
#N canvas 504 71 253 442 na500msdoorlaten 0;
#X obj 106 144 + 1;
#X obj 62 146 f 0;
#X obj 53 90 metro 1;
#X msg 126 84 0;
#X obj 88 200 > 500;
#X obj 63 316 spigot;
#X obj 39 287 f;
#X obj 16 49 t b f b;
#X obj 33 253 select 1;
#X obj 88 225 t f f;
#X msg 142 286 0;
#X obj 16 8 inlet;
#X text 162 203 500 ms;
#X obj 62 351 outlet;
#X connect 0 0 1 1;
#X connect 0 0 4 0;
#X connect 1 0 0 0;
#X connect 2 0 1 0;
#X connect 3 0 1 1;
#X connect 4 0 9 0;
#X connect 5 0 13 0;
#X connect 6 0 5 0;
#X connect 7 0 2 0;
#X connect 7 1 6 1;
#X connect 7 2 3 0;
#X connect 8 0 6 0;
#X connect 8 0 10 0;
#X connect 9 0 8 0;
#X connect 9 1 5 1;
#X connect 10 0 2 0;
#X connect 11 0 7 0;
#X restore 188 58 pd na500msdoorlaten;
#X obj 188 87 t f b;
#X obj 268 199 s \$1-ctirch;
#X obj 251 221 s \$1-ctir8;
#X obj 229 242 s \$1-ctir7;
#X obj 195 264 s \$1-ctir6;
#X obj 165 286 s \$1-ctir5;
#X obj 125 309 s \$1-ctir4;
#X obj 91 333 s \$1-ctir3;
#X obj 57 358 s \$1-ctir2;
#X obj 17 380 s \$1-ctir1;
#X msg 716 340 menuclose;
#X obj 672 343 f \$1;
#X obj 672 394 symbol;
#X msg 672 419 \; \$1 menuclose;
#X obj 671 314 bng 15 250 50 0 empty empty empty 17 7 0 10 -262144
-1 -1;
#X msg 673 368 pd-open_own_preset;
#N canvas 0 95 1052 626 write_own 0;
#X obj 743 446 f;
#X obj 566 443 f;
#X obj 647 445 f;
#X obj 380 439 f;
#X obj 461 441 f;
#X obj 204 438 f;
#X obj 285 440 f;
#X obj 25 443 f;
#X obj 106 445 f;
#X obj 83 109 until;
#X obj 62 203 + 1;
#X obj 89 172 f 0;
#X obj 211 106 f 0;
#X obj 336 49 * 12;
#X obj 334 72 - 12;
#X obj 85 231 t f f;
#X obj 66 270 mod 12;
#X text 386 60 -> !!! per 12;
#X text 130 270 -> !!! per 12;
#X msg 133 82 12;
#X text 174 83 -> !!! per 12;
#X text 579 54 max 12 parameters/waarden voor array/presets;
#X obj 167 43 t b b b;
#X text 319 329 -> !!! per 12;
#X obj 161 525 print bng;
#X obj 46 410 r \$1-ctis1;
#X obj 150 409 r \$1-ctis2;
#X obj 240 409 r \$1-ctis3;
#X obj 330 409 r \$1-ctis4;
#X obj 420 409 r \$1-ctis5;
#X obj 510 409 r \$1-ctis6;
#X obj 600 409 r \$1-ctis7;
#X obj 690 409 r \$1-ctis8;
#X obj 230 483 tabwrite \$1-ownctipreset;
#X obj 208 130 - 1;
#X obj 167 18 r \$1-ctisopb;
#X obj 335 24 r \$1-ctisopn;
#X obj 46 327 select 0 1 2 3 4 5 6 7 8 9 10 11;
#X obj 931 444 f 0;
#X obj 1012 446 f 0;
#X msg 441 102 menusave;
#X obj 441 173 f \$1;
#X obj 441 224 symbol;
#X msg 441 198 pd-\$1-midi-ctlinextra;
#X obj 441 256 pack s s;
#X obj 443 148 t b s;
#X msg 441 288 \; \$1 \$2;
#X text 623 197 zomaar een willekeurige subpatch in multi-ctlin;
#X obj 441 124 symbol;
#X obj 790 409 r \$1-ctisch;
#X obj 904 407 r \$1-ctispr;
#X obj 824 448 f;
#X connect 0 0 33 0;
#X connect 1 0 33 0;
#X connect 2 0 33 0;
#X connect 3 0 33 0;
#X connect 4 0 33 0;
#X connect 5 0 33 0;
#X connect 6 0 33 0;
#X connect 7 0 33 0;
#X connect 8 0 33 0;
#X connect 9 0 11 0;
#X connect 10 0 11 1;
#X connect 10 0 15 0;
#X connect 11 0 10 0;
#X connect 12 0 34 0;
#X connect 13 0 14 0;
#X connect 14 0 12 1;
#X connect 15 0 16 0;
#X connect 15 1 33 1;
#X connect 16 0 37 0;
#X connect 19 0 9 0;
#X connect 22 0 40 0;
#X connect 22 1 19 0;
#X connect 22 2 12 0;
#X connect 25 0 7 1;
#X connect 26 0 8 1;
#X connect 27 0 5 1;
#X connect 28 0 6 1;
#X connect 29 0 3 1;
#X connect 30 0 4 1;
#X connect 31 0 1 1;
#X connect 32 0 2 1;
#X connect 34 0 11 1;
#X connect 35 0 22 0;
#X connect 36 0 13 0;
#X connect 37 0 7 0;
#X connect 37 1 8 0;
#X connect 37 2 5 0;
#X connect 37 3 6 0;
#X connect 37 4 3 0;
#X connect 37 5 4 0;
#X connect 37 6 1 0;
#X connect 37 7 2 0;
#X connect 37 8 0 0;
#X connect 37 9 51 0;
#X connect 37 10 38 0;
#X connect 37 11 39 0;
#X connect 38 0 33 0;
#X connect 39 0 33 0;
#X connect 40 0 48 0;
#X connect 41 0 43 0;
#X connect 42 0 44 0;
#X connect 43 0 42 0;
#X connect 44 0 46 0;
#X connect 45 0 41 0;
#X connect 45 1 44 1;
#X connect 48 0 45 0;
#X connect 49 0 0 1;
#X connect 50 0 51 1;
#X connect 51 0 33 0;
#X restore 298 389 pd write_own;
#X obj 447 197 t b b;
#X obj 185 18 r \$1-ctisownp;
#X obj 288 177 s \$1-ctirpr;
#X connect 0 0 1 0;
#X connect 1 0 5 0;
#X connect 3 0 17 0;
#X connect 3 1 16 0;
#X connect 3 2 15 0;
#X connect 3 3 14 0;
#X connect 3 4 13 0;
#X connect 3 5 12 0;
#X connect 3 6 11 0;
#X connect 3 7 10 0;
#X connect 3 8 9 0;
#X connect 3 9 27 0;
#X connect 7 0 8 0;
#X connect 8 0 3 0;
#X connect 19 0 23 0;
#X connect 20 0 21 0;
#X connect 22 0 19 0;
#X connect 23 0 20 0;
#X connect 26 0 7 0;
#X restore 80 311 pd open_own_preset;
#X obj 0 0 cnv 15 390 175 empty empty empty 20 12 0 14 -142067 -66577
0;
#N canvas 25 6 1052 394 maincontin 0;
#X obj 213 8 ctlin;
#X obj 79 315 ==;
#X obj 36 343 spigot;
#X obj 183 313 ==;
#X obj 138 339 spigot;
#X obj 100 289 r \$1-ctis1;
#X obj 204 288 r \$1-ctis2;
#X obj 36 368 outlet;
#X obj 138 365 outlet;
#X obj 185 222 f;
#X obj 247 218 f;
#X obj 273 313 ==;
#X obj 228 339 spigot;
#X obj 228 365 outlet;
#X obj 363 313 ==;
#X obj 318 339 spigot;
#X obj 318 365 outlet;
#X obj 453 313 ==;
#X obj 408 339 spigot;
#X obj 408 365 outlet;
#X obj 543 313 ==;
#X obj 498 339 spigot;
#X obj 498 365 outlet;
#X obj 633 313 ==;
#X obj 588 339 spigot;
#X obj 588 365 outlet;
#X obj 723 313 ==;
#X obj 678 339 spigot;
#X obj 678 365 outlet;
#X obj 294 288 r \$1-ctis3;
#X obj 384 288 r \$1-ctis4;
#X obj 474 288 r \$1-ctis5;
#X obj 564 288 r \$1-ctis6;
#X obj 654 288 r \$1-ctis7;
#X obj 744 288 r \$1-ctis8;
#X obj 426 190 print a;
#X obj 433 221 print b;
#X obj 493 207 print c;
#X obj 277 109 ==;
#X obj 187 141 spigot;
#X obj 304 81 r \$1-ctisch;
#X obj 249 141 spigot;
#X obj 444 138 s \$1-ctirshn;
#X obj 444 85 spigot;
#X obj 506 85 spigot;
#X obj 548 56 r \$1-ctisshon;
#X obj 506 114 s \$1-ctirshc;
#X text 461 32 show ctl & channel;
#X obj 824 71 bendin;
#X obj 915 154 ==;
#X obj 854 197 spigot;
#X obj 942 126 r \$1-ctisch;
#X obj 930 266 r \$1-ctispr;
#X obj 854 366 outlet;
#X obj 854 340 *;
#X obj 854 220 - 8192;
#X obj 854 245 / 8192;
#N canvas 153 83 1081 553 midilearn 0;
#X obj 154 6 r \$1-ctisml1;
#X obj 20 204 spigot;
#X obj 158 205 spigot;
#X obj 318 471 s \$1-ctis1;
#X obj 154 56 1;
#X obj 264 6 r \$1-ctisml2;
#X obj 264 56 2;
#X obj 154 31 select 1;
#X obj 264 31 select 1;
#X obj 158 239 pack;
#X obj 430 113 f;
#X obj 281 163 moses 1;
#X obj 261 308 f \$1;
#X obj 203 394 pack f s;
#X obj 261 365 symbol;
#X msg 203 419 \$2\$1;
#X obj 190 312 unpack;
#X obj 203 444 symbol;
#X obj 14 15 inlet;
#X obj 70 15 inlet;
#X obj 84 203 spigot;
#X obj 235 162 > 0;
#X obj 166 164 == 0;
#X obj 20 285 outlet;
#X obj 84 286 outlet;
#X obj 159 274 t l b l b;
#X obj 90 391 0;
#X obj 293 394 pack f s;
#X obj 351 365 symbol;
#X obj 190 476 pack f s;
#X msg 190 501 \; \$2 \$1;
#X msg 112 423 \$2\$1;
#X obj 112 448 symbol;
#X obj 99 480 pack f s;
#X msg 99 505 \; \$2 \$1;
#X msg 261 340 \$1-ctir;
#X msg 351 340 \$1-ctirml;
#X floatatom 105 241 5 0 0 0 - - -;
#X obj 84 350 delay 500;
#X obj 374 31 select 1;
#X obj 484 31 select 1;
#X obj 594 31 select 1;
#X obj 704 31 select 1;
#X obj 814 31 select 1;
#X obj 924 31 select 1;
#X obj 374 56 3;
#X obj 484 57 4;
#X obj 594 56 5;
#X obj 704 56 6;
#X obj 814 56 7;
#X obj 924 56 8;
#X obj 374 6 r \$1-ctisml3;
#X obj 484 6 r \$1-ctisml4;
#X obj 594 6 r \$1-ctisml5;
#X obj 704 6 r \$1-ctisml6;
#X obj 814 6 r \$1-ctisml7;
#X obj 924 6 r \$1-ctisml8;
#X connect 0 0 7 0;
#X connect 1 0 23 0;
#X connect 2 0 9 0;
#X connect 4 0 10 0;
#X connect 5 0 8 0;
#X connect 6 0 10 0;
#X connect 7 0 4 0;
#X connect 7 1 10 0;
#X connect 8 0 6 0;
#X connect 8 1 10 0;
#X connect 9 0 25 0;
#X connect 10 0 11 0;
#X connect 10 0 21 0;
#X connect 10 0 22 0;
#X connect 11 1 9 1;
#X connect 12 0 35 0;
#X connect 12 0 36 0;
#X connect 13 0 15 0;
#X connect 14 0 13 1;
#X connect 15 0 17 0;
#X connect 16 0 29 0;
#X connect 16 1 13 0;
#X connect 16 1 27 0;
#X connect 17 0 29 1;
#X connect 18 0 1 0;
#X connect 19 0 20 0;
#X connect 19 0 2 0;
#X connect 20 0 24 0;
#X connect 21 0 2 1;
#X connect 22 0 20 1;
#X connect 22 0 1 1;
#X connect 22 0 37 0;
#X connect 25 1 38 0;
#X connect 25 2 16 0;
#X connect 25 3 12 0;
#X connect 26 0 33 0;
#X connect 27 0 31 0;
#X connect 28 0 27 1;
#X connect 29 0 30 0;
#X connect 31 0 32 0;
#X connect 32 0 33 1;
#X connect 33 0 34 0;
#X connect 35 0 14 0;
#X connect 36 0 28 0;
#X connect 38 0 26 0;
#X connect 39 0 45 0;
#X connect 39 1 10 0;
#X connect 40 0 46 0;
#X connect 40 1 10 0;
#X connect 41 0 47 0;
#X connect 41 1 10 0;
#X connect 42 0 48 0;
#X connect 42 1 10 0;
#X connect 43 0 49 0;
#X connect 43 1 10 0;
#X connect 44 0 50 0;
#X connect 44 1 10 0;
#X connect 45 0 10 0;
#X connect 46 0 10 0;
#X connect 47 0 10 0;
#X connect 48 0 10 0;
#X connect 49 0 10 0;
#X connect 50 0 10 0;
#X connect 51 0 39 0;
#X connect 52 0 40 0;
#X connect 53 0 41 0;
#X connect 54 0 42 0;
#X connect 55 0 43 0;
#X connect 56 0 44 0;
#X restore 178 183 pd midilearn;
#X connect 0 0 39 0;
#X connect 0 1 41 0;
#X connect 0 1 43 0;
#X connect 0 2 38 0;
#X connect 0 2 44 0;
#X connect 1 0 2 1;
#X connect 2 0 7 0;
#X connect 3 0 4 1;
#X connect 4 0 8 0;
#X connect 5 0 1 1;
#X connect 6 0 3 1;
#X connect 9 0 4 0;
#X connect 9 0 2 0;
#X connect 9 0 12 0;
#X connect 9 0 15 0;
#X connect 9 0 18 0;
#X connect 9 0 21 0;
#X connect 9 0 24 0;
#X connect 9 0 27 0;
#X connect 10 0 3 0;
#X connect 10 0 1 0;
#X connect 10 0 11 0;
#X connect 10 0 14 0;
#X connect 10 0 17 0;
#X connect 10 0 20 0;
#X connect 10 0 23 0;
#X connect 10 0 26 0;
#X connect 11 0 12 1;
#X connect 12 0 13 0;
#X connect 14 0 15 1;
#X connect 15 0 16 0;
#X connect 17 0 18 1;
#X connect 18 0 19 0;
#X connect 20 0 21 1;
#X connect 21 0 22 0;
#X connect 23 0 24 1;
#X connect 24 0 25 0;
#X connect 26 0 27 1;
#X connect 27 0 28 0;
#X connect 29 0 11 1;
#X connect 30 0 14 1;
#X connect 31 0 17 1;
#X connect 32 0 20 1;
#X connect 33 0 23 1;
#X connect 34 0 26 1;
#X connect 38 0 39 1;
#X connect 38 0 41 1;
#X connect 39 0 57 0;
#X connect 40 0 38 1;
#X connect 41 0 57 1;
#X connect 43 0 42 0;
#X connect 44 0 46 0;
#X connect 45 0 44 1;
#X connect 45 0 43 1;
#X connect 48 0 50 0;
#X connect 48 1 49 0;
#X connect 49 0 50 1;
#X connect 50 0 55 0;
#X connect 51 0 49 1;
#X connect 52 0 54 1;
#X connect 54 0 53 0;
#X connect 55 0 56 0;
#X connect 56 0 54 0;
#X connect 57 0 9 0;
#X connect 57 1 10 0;
#X restore 183 201 pd maincontin;
#X obj 25 262 outlet;
#X obj 88 263 outlet;
#X obj 148 264 outlet;
#X obj 204 264 outlet;
#X obj 262 264 outlet;
#X obj 318 263 outlet;
#X obj 373 263 outlet;
#X obj 429 262 outlet;
#X obj 100 25 nbx 3 14 0 1e+037 0 0 \$1-ctis1 \$1-ctir1 out1 0 -8 0
10 -262144 -1 -1 0 256;
#X obj 18 117 nbx 3 20 0 1e+037 0 0 \$1-ctisch \$1-ctirch channel -2
-8 0 10 -262144 -1 -1 1 256;
#X obj 141 25 nbx 3 14 0 1e+037 0 0 \$1-ctis2 \$1-ctir2 out2 0 -8 0
10 -262144 -1 -1 0 256;
#X obj 183 25 nbx 3 14 0 1e+037 0 0 \$1-ctis3 \$1-ctir3 out3 0 -8 0
10 -262144 -1 -1 0 256;
#X obj 226 25 nbx 3 14 0 1e+037 0 0 \$1-ctis4 \$1-ctir4 out4 0 -8 0
10 -262144 -1 -1 0 256;
#X obj 99 61 nbx 3 14 0 1e+037 0 0 \$1-ctis5 \$1-ctir5 out5 0 -8 0
10 -262144 -1 -1 0 256;
#X obj 140 62 nbx 3 14 0 1e+037 0 0 \$1-ctis6 \$1-ctir6 out6 0 -8 0
10 -262144 -1 -1 0 256;
#X obj 182 62 nbx 3 14 0 1e+037 0 0 \$1-ctis7 \$1-ctir7 out7 0 -8 0
10 -262144 -1 -1 0 256;
#X obj 225 62 nbx 3 14 0 1e+037 0 0 \$1-ctis8 \$1-ctir8 out8 0 -8 0
10 -262144 -1 -1 0 256;
#X text 14 22 CONTROLLER;
#X text 44 58 NUMBER;
#X obj 268 138 bng 10 250 50 0 \$1-ctisextraoptions empty extra_options
17 5 0 8 -262144 -1 -1;
#N canvas 72 40 839 292 presets 0;
#N canvas 56 2 1155 694 save_preset_array 0;
#X obj 19 403 inlet gui1;
#X obj 112 405 inlet gui2;
#X obj 197 403 inlet gui3;
#X obj 290 405 inlet gui4;
#X obj 376 406 inlet gui15;
#X obj 469 408 inlet gui6;
#X obj 554 406 inlet gui7;
#X obj 647 408 inlet gui8;
#X obj 732 408 inlet gui9;
#X obj 825 410 inlet gui10;
#X obj 566 443 f;
#X obj 647 445 f;
#X obj 380 439 f;
#X obj 461 441 f;
#X obj 204 438 f;
#X obj 285 440 f;
#X obj 25 443 f;
#X obj 106 445 f;
#X obj 83 109 until;
#X obj 63 213 + 1;
#X obj 90 182 f 0;
#X obj 79 42 bng 15 250 50 0 empty empty empty 17 7 0 10 -262144 -1
-1;
#X obj 162 18 r savepreset;
#X obj 21 865 outlet gui1;
#X obj 112 867 outlet gui2;
#X obj 201 867 outlet gui3;
#X obj 293 867 outlet gui4;
#X obj 475 867 outlet gui6;
#X obj 384 867 outlet gui5;
#X obj 567 867 outlet gui7;
#X obj 658 867 outlet gui8;
#X obj 748 867 outlet gui9;
#X obj 840 866 outlet gui10;
#X obj 495 638 until;
#X obj 472 697 + 1;
#X obj 499 666 f 0;
#N canvas 45 153 1064 314 router_1inxout 0;
#X obj 231 27 inlet one;
#X obj 339 23 inlet route123;
#X obj 35 211 outlet one;
#X obj 124 210 outlet two;
#X obj 218 211 outlet three;
#X obj 323 211 outlet four;
#X obj 415 210 outlet five;
#X obj 510 211 outlet six;
#X obj 599 210 outlet seven;
#X obj 700 213 outlet eigth;
#X obj 805 212 outlet nine;
#X obj 897 211 outlet ten;
#X obj 361 83 pack;
#X obj 296 57 mod 12;
#X obj 919 239 outlet nine;
#X obj 1011 238 outlet ten;
#X obj 58 77 route 1 2;
#X obj 696 85 route 0 1 2 3 4 5 6 7 8 9 10 11;
#X connect 0 0 13 0;
#X connect 1 0 12 1;
#X connect 12 0 17 0;
#X connect 13 0 12 0;
#X connect 17 0 2 0;
#X connect 17 1 3 0;
#X connect 17 2 4 0;
#X connect 17 3 5 0;
#X connect 17 4 6 0;
#X connect 17 5 7 0;
#X connect 17 6 8 0;
#X connect 17 7 9 0;
#X connect 17 8 10 0;
#X connect 17 9 11 0;
#X connect 17 10 14 0;
#X connect 17 11 15 0;
#X restore 340 811 pd router_1inxout;
#X obj 210 136 f 0;
#X obj 335 24 r presetnr;
#X obj 336 49 * 12;
#X obj 334 72 - 12;
#X obj 587 627 f 0;
#X obj 495 725 t f f;
#X obj 86 241 t f f;
#N canvas 0 0 450 300 (subpatch) 0;
#X array \$1-ctipreset 601 float 2;
#X coords 0 200 601 -1 200 140 1;
#X restore 591 131 graph;
#X obj 67 280 mod 12;
#X text 386 60 -> !!! per 12;
#X text 130 240 -> !!! per 12;
#X text 511 813 -> !!! hierin ook per 12;
#X msg 133 82 12;
#X text 174 83 -> !!! per 12;
#X text 579 54 max 12 parameters/waarden voor array/presets;
#X obj 302 204 symbol;
#X obj 403 183 symbol;
#X obj 345 245 pack s s;
#X obj 402 153 r namepreset;
#X obj 294 155 f \$1;
#X obj 167 43 t b b b;
#X obj 570 586 t b b b;
#X text 130 312 -> !!! per 12;
#X obj 716 668 symbol;
#X obj 756 695 pack s s;
#X obj 827 622 r namepreset;
#X obj 662 618 f \$1;
#X obj 819 658 symbol;
#X msg 319 272 \; \$1 write presets/\$2-\$1.txt;
#X msg 750 726 \; \$1 read presets/\$2-\$1.txt;
#X msg 294 182 \$1-ctipreset;
#X obj 230 483 tabwrite \$1-ctipreset;
#X msg 675 644 \$1-ctipreset;
#X obj 449 776 tabread \$1-ctipreset;
#X msg 528 615 12;
#X obj 920 406 inlet gui11;
#X obj 1013 408 inlet gui12;
#X obj 940 868 outlet gui9;
#X obj 1032 867 outlet gui10;
#X obj 559 517 r openpreset;
#X obj 563 551 spigot;
#X obj 672 521 == 0;
#X obj 672 493 r \$1-ctispreset;
#X obj 333 95 - 1;
#X obj 74 331 select 0 1 2 3 4 5 6 7 8 9 10 11;
#X obj 743 446 f 0;
#X obj 824 448 f 0;
#X obj 931 444 f 0;
#X obj 1012 446 f 0;
#X connect 0 0 16 1;
#X connect 1 0 17 1;
#X connect 2 0 14 1;
#X connect 3 0 15 1;
#X connect 4 0 12 1;
#X connect 5 0 13 1;
#X connect 6 0 10 1;
#X connect 7 0 11 1;
#X connect 8 0 82 1;
#X connect 9 0 83 1;
#X connect 10 0 68 0;
#X connect 11 0 68 0;
#X connect 12 0 68 0;
#X connect 13 0 68 0;
#X connect 14 0 68 0;
#X connect 15 0 68 0;
#X connect 16 0 68 0;
#X connect 17 0 68 0;
#X connect 18 0 20 0;
#X connect 19 0 20 1;
#X connect 19 0 43 0;
#X connect 20 0 19 0;
#X connect 21 0 18 0;
#X connect 22 0 57 0;
#X connect 33 0 35 0;
#X connect 34 0 35 1;
#X connect 34 0 42 0;
#X connect 35 0 34 0;
#X connect 36 0 23 0;
#X connect 36 1 24 0;
#X connect 36 2 25 0;
#X connect 36 3 26 0;
#X connect 36 4 28 0;
#X connect 36 5 27 0;
#X connect 36 6 29 0;
#X connect 36 7 30 0;
#X connect 36 8 31 0;
#X connect 36 9 32 0;
#X connect 36 10 74 0;
#X connect 36 11 75 0;
#X connect 37 0 20 1;
#X connect 38 0 39 0;
#X connect 39 0 40 0;
#X connect 40 0 80 0;
#X connect 41 0 35 1;
#X connect 42 0 36 0;
#X connect 42 1 70 0;
#X connect 43 0 45 0;
#X connect 43 1 68 1;
#X connect 45 0 81 0;
#X connect 49 0 18 0;
#X connect 52 0 54 0;
#X connect 53 0 54 1;
#X connect 54 0 65 0;
#X connect 55 0 53 0;
#X connect 56 0 67 0;
#X connect 57 0 56 0;
#X connect 57 1 49 0;
#X connect 57 2 37 0;
#X connect 58 0 71 0;
#X connect 58 1 41 0;
#X connect 58 2 63 0;
#X connect 60 0 61 0;
#X connect 61 0 66 0;
#X connect 62 0 64 0;
#X connect 63 0 69 0;
#X connect 64 0 61 1;
#X connect 67 0 52 0;
#X connect 69 0 60 0;
#X connect 70 0 36 1;
#X connect 71 0 33 0;
#X connect 72 0 84 1;
#X connect 73 0 85 1;
#X connect 76 0 77 0;
#X connect 77 0 58 0;
#X connect 78 0 77 1;
#X connect 79 0 78 0;
#X connect 80 0 37 1;
#X connect 80 0 41 1;
#X connect 81 0 16 0;
#X connect 81 1 17 0;
#X connect 81 2 14 0;
#X connect 81 3 15 0;
#X connect 81 4 12 0;
#X connect 81 5 13 0;
#X connect 81 6 10 0;
#X connect 81 7 11 0;
#X connect 81 8 82 0;
#X connect 81 9 83 0;
#X connect 81 10 84 0;
#X connect 81 11 85 0;
#X connect 82 0 68 0;
#X connect 83 0 68 0;
#X connect 84 0 68 0;
#X connect 85 0 68 0;
#X restore 331 121 pd save_preset_array;
#X obj 100 29 r \$1-ctis1;
#X obj 149 52 r \$1-ctis2;
#X obj 195 72 r \$1-ctis3;
#X obj 302 32 r \$1-ctis4;
#X obj 328 54 r \$1-ctis5;
#X obj 350 75 r \$1-ctis6;
#X obj 513 34 r \$1-ctis7;
#X obj 533 56 r \$1-ctis8;
#X obj 565 219 s \$1-ctirch;
#X obj 544 197 s \$1-ctir8;
#X obj 496 176 s \$1-ctir7;
#X obj 383 223 s \$1-ctir6;
#X obj 355 201 s \$1-ctir5;
#X obj 326 179 s \$1-ctir4;
#X obj 182 221 s \$1-ctir3;
#X obj 147 198 s \$1-ctir2;
#X obj 114 175 s \$1-ctir1;
#X obj 552 77 r \$1-ctisch;
#X obj 715 36 r \$1-ctispr;
#X obj 664 175 s \$1-ctirpr;
#X connect 0 0 17 0;
#X connect 0 1 16 0;
#X connect 0 2 15 0;
#X connect 0 3 14 0;
#X connect 0 4 13 0;
#X connect 0 5 12 0;
#X connect 0 6 11 0;
#X connect 0 7 10 0;
#X connect 0 8 9 0;
#X connect 0 9 20 0;
#X connect 1 0 0 0;
#X connect 2 0 0 1;
#X connect 3 0 0 2;
#X connect 4 0 0 3;
#X connect 5 0 0 4;
#X connect 6 0 0 5;
#X connect 7 0 0 6;
#X connect 8 0 0 7;
#X connect 18 0 0 8;
#X connect 19 0 0 9;
#X restore 80 340 pd presets;
#X obj 110 103 tgl 15 0 \$1-ctispreset \$1-ctirpreset global_presets_off
17 7 0 8 -162280 -1 -1 0 57;
#N canvas 115 212 555 300 init 0;
#X obj 423 126 s \$1-ctirch;
#X obj 294 99 s \$1-ctir8;
#X obj 269 124 s \$1-ctir7;
#X obj 238 148 s \$1-ctir6;
#X obj 204 174 s \$1-ctir5;
#X obj 133 94 s \$1-ctir4;
#X obj 94 122 s \$1-ctir3;
#X obj 61 150 s \$1-ctir2;
#X obj 29 171 s \$1-ctir1;
#X obj 222 21 loadbang;
#X obj 336 204 s \$1-ctiropn;
#X msg 395 83 1;
#X obj 196 251 s \$1-ctirpreset;
#X text 198 269 global presets on/off;
#X text 333 223 write own preset number;
#X msg 261 69 0;
#X obj 432 166 s \$1-ctirpr;
#X msg 442 75 4;
#X obj 20 226 s \$1-ctirml1;
#X connect 9 0 11 0;
#X connect 9 0 15 0;
#X connect 9 0 17 0;
#X connect 11 0 10 0;
#X connect 11 0 0 0;
#X connect 15 0 12 0;
#X connect 15 0 18 0;
#X connect 17 0 16 0;
#X restore 75 427 pd init;
#X obj 223 104 nbx 3 14 1 9 0 0 \$1-ctisownp \$1-ctirownp open_own_preset
39 7 0 10 -162280 -1 -1 1 256;
#X obj 168 137 nbx 3 14 -1e+037 1e+037 0 0 1-ctisshc 1-ctirshc ch 5
-8 0 10 -86853 -257985 -1 0 256;
#X obj 147 137 tgl 15 0 \$1-ctisshon \$1-ctirshon on 2 -6 0 10 -262144
-1 -257985 0 1;
#X text 104 135 SHOW;
#X obj 208 137 nbx 3 14 -1e+037 1e+037 0 0 1-ctisshn 1-ctirshn nr 5
-8 0 10 -86853 -257985 -1 0 256;
#X obj 499 262 outlet;
#X obj 293 26 nbx 3 14 0 1e+037 0 0 \$1-ctispr \$1-ctirpr out9 5 -8
0 10 -262144 -1 -1 4 256;
#N canvas 0 0 450 300 (subpatch) 0;
#X coords 0 1 100 -1 260 80 1;
#X restore 8 8 graph;
#N canvas 0 0 450 300 (subpatch) 0;
#X coords 0 1 100 -1 85 80 1;
#X restore 271 8 graph;
#N canvas 0 0 450 300 (subpatch) 0;
#X coords 0 1 100 -1 85 80 1;
#X restore 8 91 graph;
#N canvas 0 0 450 300 (subpatch) 0;
#X coords 0 1 100 -1 260 80 1;
#X restore 96 91 graph;
#X text 275 41 PITCHBEND;
#X text 290 55 RANGE;
#N canvas 10 184 588 284 presetsnew 0;
#X obj 210 58 r savepresetn;
#X obj 203 119 t b b b;
#N canvas 77 53 1041 458 name-sends-normal 0;
#N canvas 0 0 450 300 (subpatch) 0;
#X array \$1-ctibetween 16 float 2;
#X coords 0 10000 16 -10000 20 20 1;
#X restore 15 236 graph;
#X obj 400 544 tabwrite \$1-ctibetween;
#X obj 438 235 unpack f f;
#X obj 98 156 pack f 1;
#X obj 186 200 pack f 3;
#X obj 236 155 pack f 4;
#X obj 273 177 pack f 5;
#X obj 324 199 pack f 6;
#X obj 368 156 pack f 7;
#X obj 405 178 pack f 8;
#X obj 449 199 pack f 9;
#X obj 508 156 pack f 10;
#X obj 545 178 pack f 11;
#X obj 596 199 pack f 12;
#X obj 665 156 pack f 13;
#X obj 702 178 pack f 14;
#X obj 754 201 pack f 15;
#X obj 798 156 pack f 16;
#X obj 835 179 pack f 17;
#X obj 884 203 pack f 18;
#X obj 438 505 unpack f f;
#X obj 98 426 pack f 19;
#X obj 135 448 pack f 20;
#X obj 186 470 pack f 21;
#X obj 236 425 pack f 22;
#X obj 273 447 pack f 23;
#X obj 324 469 pack f 24;
#X obj 368 426 pack f 25;
#X obj 405 448 pack f 26;
#X obj 449 469 pack f 27;
#X obj 508 426 pack f 28;
#X obj 545 448 pack f 29;
#X obj 596 469 pack f 30;
#X obj 665 426 pack f 31;
#X obj 702 448 pack f 32;
#X obj 754 471 pack f 33;
#X obj 798 426 pack f 34;
#X obj 835 449 pack f 35;
#X obj 886 470 pack f 36;
#X text 38 238 -> adjust size if necessary (standard size = 109);
#X obj 100 29 r \$1-ctis1;
#X obj 149 52 r \$1-ctis2;
#X obj 195 72 r \$1-ctis3;
#X obj 302 32 r \$1-ctis4;
#X obj 328 54 r \$1-ctis5;
#X obj 350 75 r \$1-ctis6;
#X obj 513 34 r \$1-ctis7;
#X obj 533 56 r \$1-ctis8;
#X obj 552 77 r \$1-ctisch;
#X obj 715 36 r \$1-ctispr;
#X obj 135 178 pack f 2;
#X connect 2 0 1 0;
#X connect 2 1 1 1;
#X connect 3 0 2 0;
#X connect 4 0 2 0;
#X connect 5 0 2 0;
#X connect 6 0 2 0;
#X connect 7 0 2 0;
#X connect 8 0 2 0;
#X connect 9 0 2 0;
#X connect 10 0 2 0;
#X connect 11 0 2 0;
#X connect 12 0 2 0;
#X connect 13 0 2 0;
#X connect 14 0 2 0;
#X connect 15 0 2 0;
#X connect 16 0 2 0;
#X connect 17 0 2 0;
#X connect 18 0 2 0;
#X connect 19 0 2 0;
#X connect 20 0 1 0;
#X connect 20 1 1 1;
#X connect 21 0 20 0;
#X connect 22 0 20 0;
#X connect 23 0 20 0;
#X connect 24 0 20 0;
#X connect 25 0 20 0;
#X connect 26 0 20 0;
#X connect 27 0 20 0;
#X connect 28 0 20 0;
#X connect 29 0 20 0;
#X connect 30 0 20 0;
#X connect 31 0 20 0;
#X connect 32 0 20 0;
#X connect 33 0 20 0;
#X connect 34 0 20 0;
#X connect 35 0 20 0;
#X connect 36 0 20 0;
#X connect 37 0 20 0;
#X connect 38 0 20 0;
#X connect 40 0 3 0;
#X connect 41 0 50 0;
#X connect 42 0 4 0;
#X connect 43 0 5 0;
#X connect 44 0 6 0;
#X connect 45 0 7 0;
#X connect 46 0 8 0;
#X connect 47 0 9 0;
#X connect 48 0 10 0;
#X connect 49 0 11 0;
#X connect 50 0 2 0;
#X restore 75 27 pd name-sends-normal;
#X obj 223 196 s toextfile;
#N canvas 636 185 560 404 normal 0;
#X obj 278 134 f \$1;
#X obj 237 278 symbol;
#X obj 42 268 list prepend add2;
#X obj 42 293 list trim;
#X obj 188 51 t b b b b b;
#X obj 154 135 f 0;
#X obj 193 135 + 1;
#X msg 181 103 0;
#X msg 240 196 ctirx\$1;
#X obj 237 222 pack s f;
#X msg 237 249 \$2-\$1;
#X obj 131 102 until;
#X obj 193 161 t f f;
#X obj 21 193 tabread \$1-ctibetween;
#X text 151 77 -> aanpassen! aantal op te slagen floats;
#X obj 180 16 inlet;
#X obj 229 345 outlet;
#X msg 235 311 add2 () norm 0 0 \$1;
#X obj 111 76 f 10;
#X connect 0 0 9 1;
#X connect 1 0 17 0;
#X connect 2 0 3 0;
#X connect 3 0 16 0;
#X connect 4 3 18 0;
#X connect 4 4 0 0;
#X connect 4 4 7 0;
#X connect 5 0 6 0;
#X connect 6 0 5 1;
#X connect 6 0 12 0;
#X connect 7 0 5 1;
#X connect 8 0 9 0;
#X connect 9 0 10 0;
#X connect 10 0 1 0;
#X connect 11 0 5 0;
#X connect 12 0 13 0;
#X connect 12 1 8 0;
#X connect 13 0 2 0;
#X connect 15 0 4 0;
#X connect 17 0 16 0;
#X connect 18 0 11 0;
#X restore 217 153 pd normal;
#X text 179 152 !!->;
#X text 212 245 !!->;
#N canvas 49 0 1083 333 receive-normal 0;
#X obj 24 26 r \$1-ctirx1;
#X obj 54 46 r \$1-ctirx2;
#X obj 85 66 r \$1-ctirx3;
#X obj 196 19 r \$1-ctirx4;
#X obj 226 39 r \$1-ctirx5;
#X obj 257 59 r \$1-ctirx6;
#X obj 364 16 r \$1-ctirx7;
#X obj 382 37 r \$1-ctirx8;
#X obj 416 58 r \$1-ctirx9;
#X obj 523 33 r \$1-ctirx10;
#X obj 553 53 r \$1-ctirx11;
#X obj 584 73 r \$1-ctirx12;
#X obj 703 33 r \$1-ctirx13;
#X obj 733 53 r \$1-ctirx14;
#X obj 764 73 r \$1-ctirx15;
#X obj 863 33 r \$1-ctirx16;
#X obj 893 53 r \$1-ctirx17;
#X obj 924 73 r \$1-ctirx18;
#X obj 33 293 r \$1-ctirx19;
#X obj 63 313 r \$1-ctirx20;
#X obj 94 333 r \$1-ctirx21;
#X obj 213 293 r \$1-ctirx22;
#X obj 243 313 r \$1-ctirx23;
#X obj 274 333 r \$1-ctirx24;
#X obj 393 293 r \$1-ctirx25;
#X obj 423 313 r \$1-ctirx26;
#X obj 454 333 r \$1-ctirx27;
#X obj 543 293 r \$1-ctirx28;
#X obj 573 313 r \$1-ctirx29;
#X obj 604 333 r \$1-ctirx30;
#X obj 713 293 r \$1-ctirx31;
#X obj 743 313 r \$1-ctirx32;
#X obj 774 333 r \$1-ctirx33;
#X obj 873 293 r \$1-ctirx34;
#X obj 903 313 r \$1-ctirx35;
#X obj 934 333 r \$1-ctirx36;
#X text 667 236 ^ hier aanvullen ^;
#N canvas 30 18 246 218 cmp 0;
#X obj 42 65 list split 1;
#X obj 88 119 ==;
#X obj 43 151 spigot;
#X obj 43 176 outlet;
#X obj 42 28 inlet;
#X obj 110 30 r \$1-ctiarg2;
#X connect 0 0 2 0;
#X connect 0 1 1 0;
#X connect 1 0 2 1;
#X connect 2 0 3 0;
#X connect 4 0 0 0;
#X connect 5 0 1 1;
#X restore 22 100 pd cmp;
#N canvas 355 32 246 300 cmp 0;
#X obj 42 65 list split 1;
#X obj 88 119 ==;
#X obj 43 151 spigot;
#X obj 43 176 outlet;
#X obj 42 28 inlet;
#X obj 110 30 r \$1-ctiarg2;
#X connect 0 0 2 0;
#X connect 0 1 1 0;
#X connect 1 0 2 1;
#X connect 2 0 3 0;
#X connect 4 0 0 0;
#X connect 5 0 1 1;
#X restore 42 125 pd cmp;
#N canvas 0 0 246 300 cmp 0;
#X obj 42 65 list split 1;
#X obj 88 119 ==;
#X obj 43 151 spigot;
#X obj 43 176 outlet;
#X obj 42 28 inlet;
#X obj 110 30 r \$1-ctiarg2;
#X connect 0 0 2 0;
#X connect 0 1 1 0;
#X connect 1 0 2 1;
#X connect 2 0 3 0;
#X connect 4 0 0 0;
#X connect 5 0 1 1;
#X restore 59 153 pd cmp;
#N canvas 0 0 246 300 cmp 0;
#X obj 42 65 list split 1;
#X obj 88 119 ==;
#X obj 43 151 spigot;
#X obj 43 176 outlet;
#X obj 42 28 inlet;
#X obj 110 30 r \$1-ctiarg2;
#X connect 0 0 2 0;
#X connect 0 1 1 0;
#X connect 1 0 2 1;
#X connect 2 0 3 0;
#X connect 4 0 0 0;
#X connect 5 0 1 1;
#X restore 172 100 pd cmp;
#N canvas 0 0 246 300 cmp 0;
#X obj 42 65 list split 1;
#X obj 88 119 ==;
#X obj 43 151 spigot;
#X obj 43 176 outlet;
#X obj 42 28 inlet;
#X obj 110 30 r \$1-ctiarg2;
#X connect 0 0 2 0;
#X connect 0 1 1 0;
#X connect 1 0 2 1;
#X connect 2 0 3 0;
#X connect 4 0 0 0;
#X connect 5 0 1 1;
#X restore 192 125 pd cmp;
#N canvas 308 15 246 215 cmp 0;
#X obj 42 65 list split 1;
#X obj 88 119 ==;
#X obj 43 151 spigot;
#X obj 43 176 outlet;
#X obj 42 28 inlet;
#X obj 110 30 r \$1-ctiarg2;
#X connect 0 0 2 0;
#X connect 0 1 1 0;
#X connect 1 0 2 1;
#X connect 2 0 3 0;
#X connect 4 0 0 0;
#X connect 5 0 1 1;
#X restore 209 153 pd cmp;
#N canvas 0 0 246 300 cmp 0;
#X obj 42 65 list split 1;
#X obj 88 119 ==;
#X obj 43 151 spigot;
#X obj 43 176 outlet;
#X obj 42 28 inlet;
#X obj 110 30 r \$1-ctiarg2;
#X connect 0 0 2 0;
#X connect 0 1 1 0;
#X connect 1 0 2 1;
#X connect 2 0 3 0;
#X connect 4 0 0 0;
#X connect 5 0 1 1;
#X restore 362 100 pd cmp;
#N canvas 0 0 246 300 cmp 0;
#X obj 42 65 list split 1;
#X obj 88 119 ==;
#X obj 43 151 spigot;
#X obj 43 176 outlet;
#X obj 42 28 inlet;
#X obj 110 30 r \$1-ctiarg2;
#X connect 0 0 2 0;
#X connect 0 1 1 0;
#X connect 1 0 2 1;
#X connect 2 0 3 0;
#X connect 4 0 0 0;
#X connect 5 0 1 1;
#X restore 382 125 pd cmp;
#N canvas 0 0 246 300 cmp 0;
#X obj 42 65 list split 1;
#X obj 88 119 ==;
#X obj 43 151 spigot;
#X obj 43 176 outlet;
#X obj 42 28 inlet;
#X obj 110 30 r \$1-ctiarg2;
#X connect 0 0 2 0;
#X connect 0 1 1 0;
#X connect 1 0 2 1;
#X connect 2 0 3 0;
#X connect 4 0 0 0;
#X connect 5 0 1 1;
#X restore 399 153 pd cmp;
#N canvas 0 0 246 300 cmp 0;
#X obj 42 65 list split 1;
#X obj 88 119 ==;
#X obj 43 151 spigot;
#X obj 43 176 outlet;
#X obj 42 28 inlet;
#X obj 110 30 r \$1-ctiarg2;
#X connect 0 0 2 0;
#X connect 0 1 1 0;
#X connect 1 0 2 1;
#X connect 2 0 3 0;
#X connect 4 0 0 0;
#X connect 5 0 1 1;
#X restore 542 110 pd cmp;
#N canvas 0 0 246 300 cmp 0;
#X obj 42 65 list split 1;
#X obj 88 119 ==;
#X obj 43 151 spigot;
#X obj 43 176 outlet;
#X obj 42 28 inlet;
#X obj 110 30 r \$1-ctiarg2;
#X connect 0 0 2 0;
#X connect 0 1 1 0;
#X connect 1 0 2 1;
#X connect 2 0 3 0;
#X connect 4 0 0 0;
#X connect 5 0 1 1;
#X restore 562 135 pd cmp;
#N canvas 0 0 246 300 cmp 0;
#X obj 42 65 list split 1;
#X obj 88 119 ==;
#X obj 43 151 spigot;
#X obj 43 176 outlet;
#X obj 42 28 inlet;
#X obj 110 30 r \$1-ctiarg2;
#X connect 0 0 2 0;
#X connect 0 1 1 0;
#X connect 1 0 2 1;
#X connect 2 0 3 0;
#X connect 4 0 0 0;
#X connect 5 0 1 1;
#X restore 579 163 pd cmp;
#N canvas 0 0 246 300 cmp 0;
#X obj 42 65 list split 1;
#X obj 88 119 ==;
#X obj 43 151 spigot;
#X obj 43 176 outlet;
#X obj 42 28 inlet;
#X obj 110 30 r \$1-ctiarg2;
#X connect 0 0 2 0;
#X connect 0 1 1 0;
#X connect 1 0 2 1;
#X connect 2 0 3 0;
#X connect 4 0 0 0;
#X connect 5 0 1 1;
#X restore 692 110 pd cmp;
#N canvas 0 0 246 300 cmp 0;
#X obj 42 65 list split 1;
#X obj 88 119 ==;
#X obj 43 151 spigot;
#X obj 43 176 outlet;
#X obj 42 28 inlet;
#X obj 110 30 r \$1-ctiarg2;
#X connect 0 0 2 0;
#X connect 0 1 1 0;
#X connect 1 0 2 1;
#X connect 2 0 3 0;
#X connect 4 0 0 0;
#X connect 5 0 1 1;
#X restore 712 135 pd cmp;
#N canvas 0 0 246 300 cmp 0;
#X obj 42 65 list split 1;
#X obj 88 119 ==;
#X obj 43 151 spigot;
#X obj 43 176 outlet;
#X obj 42 28 inlet;
#X obj 110 30 r \$1-ctiarg2;
#X connect 0 0 2 0;
#X connect 0 1 1 0;
#X connect 1 0 2 1;
#X connect 2 0 3 0;
#X connect 4 0 0 0;
#X connect 5 0 1 1;
#X restore 729 163 pd cmp;
#N canvas 0 0 246 300 cmp 0;
#X obj 42 65 list split 1;
#X obj 88 119 ==;
#X obj 43 151 spigot;
#X obj 43 176 outlet;
#X obj 42 28 inlet;
#X obj 110 30 r \$1-ctiarg2;
#X connect 0 0 2 0;
#X connect 0 1 1 0;
#X connect 1 0 2 1;
#X connect 2 0 3 0;
#X connect 4 0 0 0;
#X connect 5 0 1 1;
#X restore 882 100 pd cmp;
#N canvas 0 0 246 300 cmp 0;
#X obj 42 65 list split 1;
#X obj 88 119 ==;
#X obj 43 151 spigot;
#X obj 43 176 outlet;
#X obj 42 28 inlet;
#X obj 110 30 r \$1-ctiarg2;
#X connect 0 0 2 0;
#X connect 0 1 1 0;
#X connect 1 0 2 1;
#X connect 2 0 3 0;
#X connect 4 0 0 0;
#X connect 5 0 1 1;
#X restore 902 125 pd cmp;
#N canvas 0 0 246 300 cmp 0;
#X obj 42 65 list split 1;
#X obj 88 119 ==;
#X obj 43 151 spigot;
#X obj 43 176 outlet;
#X obj 42 28 inlet;
#X obj 110 30 r \$1-ctiarg2;
#X connect 0 0 2 0;
#X connect 0 1 1 0;
#X connect 1 0 2 1;
#X connect 2 0 3 0;
#X connect 4 0 0 0;
#X connect 5 0 1 1;
#X restore 919 153 pd cmp;
#N canvas 30 18 246 218 cmp 0;
#X obj 42 65 list split 1;
#X obj 88 119 ==;
#X obj 43 151 spigot;
#X obj 43 176 outlet;
#X obj 42 28 inlet;
#X obj 110 30 r \$1-ctiarg2;
#X connect 0 0 2 0;
#X connect 0 1 1 0;
#X connect 1 0 2 1;
#X connect 2 0 3 0;
#X connect 4 0 0 0;
#X connect 5 0 1 1;
#X restore 32 370 pd cmp;
#N canvas 355 32 246 300 cmp 0;
#X obj 42 65 list split 1;
#X obj 88 119 ==;
#X obj 43 151 spigot;
#X obj 43 176 outlet;
#X obj 42 28 inlet;
#X obj 110 30 r \$1-ctiarg2;
#X connect 0 0 2 0;
#X connect 0 1 1 0;
#X connect 1 0 2 1;
#X connect 2 0 3 0;
#X connect 4 0 0 0;
#X connect 5 0 1 1;
#X restore 52 395 pd cmp;
#N canvas 0 0 246 300 cmp 0;
#X obj 42 65 list split 1;
#X obj 88 119 ==;
#X obj 43 151 spigot;
#X obj 43 176 outlet;
#X obj 42 28 inlet;
#X obj 110 30 r \$1-ctiarg2;
#X connect 0 0 2 0;
#X connect 0 1 1 0;
#X connect 1 0 2 1;
#X connect 2 0 3 0;
#X connect 4 0 0 0;
#X connect 5 0 1 1;
#X restore 69 423 pd cmp;
#N canvas 0 0 246 300 cmp 0;
#X obj 42 65 list split 1;
#X obj 88 119 ==;
#X obj 43 151 spigot;
#X obj 43 176 outlet;
#X obj 42 28 inlet;
#X obj 110 30 r \$1-ctiarg2;
#X connect 0 0 2 0;
#X connect 0 1 1 0;
#X connect 1 0 2 1;
#X connect 2 0 3 0;
#X connect 4 0 0 0;
#X connect 5 0 1 1;
#X restore 182 370 pd cmp;
#N canvas 0 0 246 300 cmp 0;
#X obj 42 65 list split 1;
#X obj 88 119 ==;
#X obj 43 151 spigot;
#X obj 43 176 outlet;
#X obj 42 28 inlet;
#X obj 110 30 r \$1-ctiarg2;
#X connect 0 0 2 0;
#X connect 0 1 1 0;
#X connect 1 0 2 1;
#X connect 2 0 3 0;
#X connect 4 0 0 0;
#X connect 5 0 1 1;
#X restore 202 395 pd cmp;
#N canvas 308 15 246 215 cmp 0;
#X obj 42 65 list split 1;
#X obj 88 119 ==;
#X obj 43 151 spigot;
#X obj 43 176 outlet;
#X obj 42 28 inlet;
#X obj 110 30 r \$1-ctiarg2;
#X connect 0 0 2 0;
#X connect 0 1 1 0;
#X connect 1 0 2 1;
#X connect 2 0 3 0;
#X connect 4 0 0 0;
#X connect 5 0 1 1;
#X restore 219 423 pd cmp;
#N canvas 0 0 246 300 cmp 0;
#X obj 42 65 list split 1;
#X obj 88 119 ==;
#X obj 43 151 spigot;
#X obj 43 176 outlet;
#X obj 42 28 inlet;
#X obj 110 30 r \$1-ctiarg2;
#X connect 0 0 2 0;
#X connect 0 1 1 0;
#X connect 1 0 2 1;
#X connect 2 0 3 0;
#X connect 4 0 0 0;
#X connect 5 0 1 1;
#X restore 372 370 pd cmp;
#N canvas 0 0 246 300 cmp 0;
#X obj 42 65 list split 1;
#X obj 88 119 ==;
#X obj 43 151 spigot;
#X obj 43 176 outlet;
#X obj 42 28 inlet;
#X obj 110 30 r \$1-ctiarg2;
#X connect 0 0 2 0;
#X connect 0 1 1 0;
#X connect 1 0 2 1;
#X connect 2 0 3 0;
#X connect 4 0 0 0;
#X connect 5 0 1 1;
#X restore 392 395 pd cmp;
#N canvas 0 0 246 300 cmp 0;
#X obj 42 65 list split 1;
#X obj 88 119 ==;
#X obj 43 151 spigot;
#X obj 43 176 outlet;
#X obj 42 28 inlet;
#X obj 110 30 r \$1-ctiarg2;
#X connect 0 0 2 0;
#X connect 0 1 1 0;
#X connect 1 0 2 1;
#X connect 2 0 3 0;
#X connect 4 0 0 0;
#X connect 5 0 1 1;
#X restore 409 423 pd cmp;
#N canvas 0 0 246 300 cmp 0;
#X obj 42 65 list split 1;
#X obj 88 119 ==;
#X obj 43 151 spigot;
#X obj 43 176 outlet;
#X obj 42 28 inlet;
#X obj 110 30 r \$1-ctiarg2;
#X connect 0 0 2 0;
#X connect 0 1 1 0;
#X connect 1 0 2 1;
#X connect 2 0 3 0;
#X connect 4 0 0 0;
#X connect 5 0 1 1;
#X restore 552 380 pd cmp;
#N canvas 0 0 246 300 cmp 0;
#X obj 42 65 list split 1;
#X obj 88 119 ==;
#X obj 43 151 spigot;
#X obj 43 176 outlet;
#X obj 42 28 inlet;
#X obj 110 30 r \$1-ctiarg2;
#X connect 0 0 2 0;
#X connect 0 1 1 0;
#X connect 1 0 2 1;
#X connect 2 0 3 0;
#X connect 4 0 0 0;
#X connect 5 0 1 1;
#X restore 572 405 pd cmp;
#N canvas 0 0 246 300 cmp 0;
#X obj 42 65 list split 1;
#X obj 88 119 ==;
#X obj 43 151 spigot;
#X obj 43 176 outlet;
#X obj 42 28 inlet;
#X obj 110 30 r \$1-ctiarg2;
#X connect 0 0 2 0;
#X connect 0 1 1 0;
#X connect 1 0 2 1;
#X connect 2 0 3 0;
#X connect 4 0 0 0;
#X connect 5 0 1 1;
#X restore 589 433 pd cmp;
#N canvas 0 0 246 300 cmp 0;
#X obj 42 65 list split 1;
#X obj 88 119 ==;
#X obj 43 151 spigot;
#X obj 43 176 outlet;
#X obj 42 28 inlet;
#X obj 110 30 r \$1-ctiarg2;
#X connect 0 0 2 0;
#X connect 0 1 1 0;
#X connect 1 0 2 1;
#X connect 2 0 3 0;
#X connect 4 0 0 0;
#X connect 5 0 1 1;
#X restore 702 380 pd cmp;
#N canvas 0 0 246 300 cmp 0;
#X obj 42 65 list split 1;
#X obj 88 119 ==;
#X obj 43 151 spigot;
#X obj 43 176 outlet;
#X obj 42 28 inlet;
#X obj 110 30 r \$1-ctiarg2;
#X connect 0 0 2 0;
#X connect 0 1 1 0;
#X connect 1 0 2 1;
#X connect 2 0 3 0;
#X connect 4 0 0 0;
#X connect 5 0 1 1;
#X restore 722 405 pd cmp;
#N canvas 0 0 246 300 cmp 0;
#X obj 42 65 list split 1;
#X obj 88 119 ==;
#X obj 43 151 spigot;
#X obj 43 176 outlet;
#X obj 42 28 inlet;
#X obj 110 30 r \$1-ctiarg2;
#X connect 0 0 2 0;
#X connect 0 1 1 0;
#X connect 1 0 2 1;
#X connect 2 0 3 0;
#X connect 4 0 0 0;
#X connect 5 0 1 1;
#X restore 739 433 pd cmp;
#N canvas 0 0 246 300 cmp 0;
#X obj 42 65 list split 1;
#X obj 88 119 ==;
#X obj 43 151 spigot;
#X obj 43 176 outlet;
#X obj 42 28 inlet;
#X obj 110 30 r \$1-ctiarg2;
#X connect 0 0 2 0;
#X connect 0 1 1 0;
#X connect 1 0 2 1;
#X connect 2 0 3 0;
#X connect 4 0 0 0;
#X connect 5 0 1 1;
#X restore 892 370 pd cmp;
#N canvas 0 0 246 300 cmp 0;
#X obj 42 65 list split 1;
#X obj 88 119 ==;
#X obj 43 151 spigot;
#X obj 43 176 outlet;
#X obj 42 28 inlet;
#X obj 110 30 r \$1-ctiarg2;
#X connect 0 0 2 0;
#X connect 0 1 1 0;
#X connect 1 0 2 1;
#X connect 2 0 3 0;
#X connect 4 0 0 0;
#X connect 5 0 1 1;
#X restore 912 395 pd cmp;
#N canvas 0 0 246 300 cmp 0;
#X obj 42 65 list split 1;
#X obj 88 119 ==;
#X obj 43 151 spigot;
#X obj 43 176 outlet;
#X obj 42 28 inlet;
#X obj 110 30 r \$1-ctiarg2;
#X connect 0 0 2 0;
#X connect 0 1 1 0;
#X connect 1 0 2 1;
#X connect 2 0 3 0;
#X connect 4 0 0 0;
#X connect 5 0 1 1;
#X restore 929 423 pd cmp;
#X obj 421 224 s \$1-ctirch;
#X obj 400 202 s \$1-ctir8;
#X obj 352 181 s \$1-ctir7;
#X obj 231 236 s \$1-ctir6;
#X obj 203 214 s \$1-ctir5;
#X obj 174 192 s \$1-ctir4;
#X obj 102 231 s \$1-ctir3;
#X obj 67 208 s \$1-ctir2;
#X obj 34 185 s \$1-ctir1;
#X obj 558 196 s \$1-ctirpr;
#X connect 0 0 37 0;
#X connect 1 0 38 0;
#X connect 2 0 39 0;
#X connect 3 0 40 0;
#X connect 4 0 41 0;
#X connect 5 0 42 0;
#X connect 6 0 43 0;
#X connect 7 0 44 0;
#X connect 8 0 45 0;
#X connect 9 0 46 0;
#X connect 10 0 47 0;
#X connect 11 0 48 0;
#X connect 12 0 49 0;
#X connect 13 0 50 0;
#X connect 14 0 51 0;
#X connect 15 0 52 0;
#X connect 16 0 53 0;
#X connect 17 0 54 0;
#X connect 18 0 55 0;
#X connect 19 0 56 0;
#X connect 20 0 57 0;
#X connect 21 0 58 0;
#X connect 22 0 59 0;
#X connect 23 0 60 0;
#X connect 24 0 61 0;
#X connect 25 0 62 0;
#X connect 26 0 63 0;
#X connect 27 0 64 0;
#X connect 28 0 65 0;
#X connect 29 0 66 0;
#X connect 30 0 67 0;
#X connect 31 0 68 0;
#X connect 32 0 69 0;
#X connect 33 0 70 0;
#X connect 34 0 71 0;
#X connect 35 0 72 0;
#X connect 37 0 81 0;
#X connect 38 0 80 0;
#X connect 39 0 79 0;
#X connect 40 0 78 0;
#X connect 41 0 77 0;
#X connect 42 0 76 0;
#X connect 43 0 75 0;
#X connect 44 0 74 0;
#X connect 45 0 73 0;
#X connect 46 0 82 0;
#X restore 251 246 pd receive-normal;
#X text 32 27 !!->;
#N canvas 0 0 246 300 cmp 0;
#X obj 42 65 list split 1;
#X obj 88 119 ==;
#X obj 43 151 spigot;
#X obj 43 176 outlet;
#X obj 42 28 inlet;
#X obj 157 64 inlet;
#X connect 0 0 2 0;
#X connect 0 1 1 0;
#X connect 1 0 2 1;
#X connect 2 0 3 0;
#X connect 4 0 0 0;
#X connect 5 0 1 1;
#X restore 209 94 pd cmp;
#X obj 458 12 loadbang;
#X obj 458 37 f \$2;
#X obj 458 85 s \$1-ctiarg2;
#X connect 0 0 9 0;
#X connect 1 1 4 0;
#X connect 4 0 3 0;
#X connect 9 0 1 0;
#X connect 10 0 11 0;
#X connect 11 0 9 1;
#X connect 11 0 12 0;
#X restore 81 453 pd presetsnew;
#X obj 126 14 tgl 8 0 \$1-ctisml1 \$1-ctirml1 empty 17 7 0 10 -262144
-1 -1 0 1;
#X obj 167 14 tgl 8 0 \$1-ctisml2 \$1-ctirml2 empty 17 7 0 10 -262144
-1 -1 0 1;
#X obj 210 14 tgl 8 0 \$1-ctisml3 \$1-ctirml3 empty 17 7 0 10 -262144
-1 -1 0 1;
#X obj 253 15 tgl 8 0 \$1-ctisml4 \$1-ctirml4 empty 17 7 0 10 -262144
-1 -1 0 1;
#X obj 126 50 tgl 8 0 \$1-ctisml5 \$1-ctirml5 empty 17 7 0 10 -262144
-1 -1 0 1;
#X obj 167 51 tgl 8 0 \$1-ctisml6 \$1-ctirml6 empty 17 7 0 10 -262144
-1 -1 0 1;
#X obj 208 51 tgl 8 0 \$1-ctisml7 \$1-ctirml7 empty 17 7 0 10 -262144
-1 -1 0 1;
#X obj 252 51 tgl 8 0 \$1-ctisml8 \$1-ctirml8 empty 17 7 0 10 -262144
-1 -1 0 1;
#X obj 50 10 cnv 15 50 15 empty empty midi 20 7 0 10 -142067 -262144
0;
#X obj 44 46 cnv 15 50 15 empty empty learn 20 7 0 10 -142067 -262144
0;
#N canvas 37 291 450 166 printname 0;
#X obj 54 33 r printallnames;
#X obj 54 87 symbol;
#X obj 54 112 s rallnames;
#X msg 54 62 midi-ctlin;
#X connect 0 0 3 0;
#X connect 1 0 2 0;
#X connect 3 0 1 0;
#X restore 76 483 pd printname;
#X connect 2 0 6 0;
#X connect 3 0 4 0;
#X connect 5 0 2 0;
#X connect 6 0 3 0;
#X connect 11 0 12 0;
#X connect 11 1 13 0;
#X connect 11 2 14 0;
#X connect 11 3 15 0;
#X connect 11 4 16 0;
#X connect 11 5 17 0;
#X connect 11 6 18 0;
#X connect 11 7 19 0;
#X connect 11 8 40 0;
