#N canvas 36 234 389 245 12;
#X obj 20 267 inlet~;
#X obj 82 296 metro 100;
#X obj 26 385 tabwrite~ \$1-oscilloscope;
#X obj 82 265 r \$1-ososon;
#X obj 185 265 r \$1-ososspe;
#X obj 480 458 samplerate~;
#X obj 453 426 t f b;
#X obj 460 481 *;
#X msg 555 508 \$1-oscilloscope;
#X obj 556 483 f \$1;
#X obj 556 534 symbol;
#X obj 470 568 pack f s;
#X msg 485 614 \; \$2 resize \$1;
#X obj 453 402 / 1000;
#N canvas 504 71 253 442 na500msdoorlaten 0;
#X obj 106 144 + 1;
#X obj 62 146 f 0;
#X obj 53 90 metro 1;
#X msg 126 84 0;
#X obj 88 200 > 500;
#X obj 63 316 spigot;
#X obj 39 287 f;
#X obj 16 49 t b f b;
#X obj 33 253 select 1;
#X obj 88 225 t f f;
#X msg 142 286 0;
#X obj 16 8 inlet;
#X text 162 203 500 ms;
#X obj 62 351 outlet;
#X connect 0 0 1 1;
#X connect 0 0 4 0;
#X connect 1 0 0 0;
#X connect 2 0 1 0;
#X connect 3 0 1 1;
#X connect 4 0 9 0;
#X connect 5 0 13 0;
#X connect 6 0 5 0;
#X connect 7 0 2 0;
#X connect 7 1 6 1;
#X connect 7 2 3 0;
#X connect 8 0 6 0;
#X connect 8 0 10 0;
#X connect 9 0 8 0;
#X connect 9 1 5 1;
#X connect 10 0 2 0;
#X connect 11 0 7 0;
#X restore 450 160 pd na500msdoorlaten;
#X obj 657 607 s \$1-osorms;
#X obj 449 127 r \$1-ososzoom;
#X obj 668 541 + 0.5;
#X obj 670 568 int;
#X obj 398 525 + 0.5;
#X obj 398 551 int;
#X obj 405 590 s \$1-osorsam;
#X obj 101 335 r \$1-osossnap;
#X obj 218 297 inlet snap;
#X obj 219 322 > 0;
#X obj 220 356 select 1;
#X obj 588 130 r \$1-ososz10;
#X obj 698 132 r \$1-ososz100;
#X obj 500 680 s \$1-osorz100;
#X obj 615 683 s \$1-osorz10;
#X obj 620 161 select 0;
#X obj 685 201 bang;
#X msg 686 228 10;
#X obj 519 358 *;
#X obj 696 283 f;
#X obj 722 165 select 0;
#X msg 731 228 1;
#X obj 781 198 bang;
#X msg 782 225 100;
#X obj 694 338 t b f;
#X obj 763 338 t b f;
#X obj 646 287 f;
#X msg 620 201 1;
#X obj 706 388 *;
#X obj 822 616 r \$1-ososspe;
#X obj 789 650 >=;
#X obj 774 678 spigot;
#X obj 771 712 s \$1-osorspe;
#X obj 772 615 t f f;
#X obj 72 553 bng 10 250 50 0 \$1-ososextraoptions empty extra_options
17 7 0 8 -262144 -1 -1;
#N canvas 452 452 837 423 printallreceives 0;
#X obj 35 63 f \$1;
#X obj 33 6 bng 15 250 50 0 empty empty empty 17 7 0 10 -262144 -1
-1;
#X obj 70 173 t f f f f f f f f f;
#X obj 36 87 t f f;
#X obj 166 21 r \$1-osoprintreceives;
#X obj 92 136 print start;
#X obj 49 370 print end;
#X msg 91 109 names of receives in [o-scope \$1]...................>>
;
#X msg 631 240 \$1-osorwav;
#X msg 518 267 \$1-osorglide;
#X msg 48 344 <<.........................................[o-scope \$1]
;
#X msg 331 279 \$1-osorglt;
#X msg 184 276 \$1-osorfreq;
#X msg 45 278 \$1-osorlev;
#X obj 44 304 print level[0-1];
#X obj 179 304 print pitch[0-127];
#X obj 332 302 print glide_time[0-xxx];
#X obj 525 302 print glide[0-1];
#X obj 634 266 print wave_selector[0-5];
#X obj 10 21 r printreceives;
#X connect 0 0 3 0;
#X connect 1 0 0 0;
#X connect 2 0 10 0;
#X connect 2 4 13 0;
#X connect 2 5 12 0;
#X connect 2 6 11 0;
#X connect 2 7 9 0;
#X connect 2 8 8 0;
#X connect 3 0 2 0;
#X connect 3 1 7 0;
#X connect 4 0 0 0;
#X connect 7 0 5 0;
#X connect 8 0 18 0;
#X connect 9 0 17 0;
#X connect 10 0 6 0;
#X connect 11 0 16 0;
#X connect 12 0 15 0;
#X connect 13 0 14 0;
#X connect 19 0 0 0;
#X restore 45 524 pd printallreceives;
#N canvas 792 487 421 157 \$1-o-scopeextra 0;
#X obj 8 72 bng 15 250 50 0 printreceives empty print_all_receives
17 7 0 10 -262144 -1 -1;
#X obj 7 13 bng 15 250 50 0 \$1-osoprintreceives empty print_names_of_receives
17 7 0 10 -262144 -1 -1;
#X text 66 91 (of all objects in open files);
#X text 65 32 (of this 'o-scope' object);
#X restore 63 582 pd \$1-o-scopeextra;
#X obj 220 522 f \$1;
#X obj 220 573 symbol;
#X msg 220 598 \; \$1 vis 1;
#X obj 218 499 r \$1-ososextraoptions;
#X msg 221 547 pd-\$1-o-scopeextra;
#N canvas 335 33 859 875 foutmelding 0;
#X obj 87 38 loadbang;
#X obj 79 83 f \$1;
#X obj 73 111 select 0;
#X msg 75 197 \; \$1 vis 1;
#X msg 74 142 36;
#X text 151 150 ascii-code voor $;
#X text 197 199 als er geen argument is \, noemt de subpatch vreemd
genoeg niet pd 0-warning maar wel pd \$1-warning;
#X text 129 80 als er geen argument is geeft f \$1 een 0;
#X obj 154 336 del 100;
#X msg 319 355 1;
#X obj 238 405 spigot;
#X obj 342 453 spigot;
#X obj 409 425 == 0;
#X obj 338 423 r o-scope;
#X obj 240 489 s o-scope;
#X obj 208 305 t b b b;
#X obj 314 389 t f f;
#X obj 241 429 del 150;
#X obj 239 460 f \$1;
#X msg 169 357 0;
#X obj 378 506 == \$1;
#X obj 455 604 > 1;
#X obj 341 478 t f f;
#X obj 391 568 f 0;
#X obj 390 538 select 1;
#X obj 330 541 spigot;
#X obj 459 569 + 1;
#X obj 336 602 == \$1;
#X obj 396 628 &&;
#X obj 158 628 print pop;
#X text 487 604 groter dan 1 want vergelijking et zichzelf levert sowieso
al 1 op en dan met ev. zelfde object met identiek argument levert 2
op!;
#X obj 396 656 select 1;
#X obj 396 678 f \$1;
#X obj 398 768 symbol;
#X msg 396 795 \; \$1 vis 1;
#X obj 363 706 t f f;
#X obj 92 820 symbol;
#X obj 170 872 print;
#X obj 326 662 bng 15 250 50 0 empty empty empty 17 7 0 10 -262144
-1 -1;
#X msg 173 839 !!! these two abunch objects have the same argument
number: [o-scope \$1];
#X text 406 346 alleen net gecreerde object verstuurt waarde;
#X text 398 372 bij eerder gemaakte objecten staat spigot voor receive
open;
#N canvas 670 470 308 138 \$1-o-scopewarning 0;
#X obj -1 0 cnv 15 320 150 empty empty empty 20 12 0 14 -258699 -66577
0;
#X text 11 32 You forgot to add an unique number;
#X text 11 78 when you created this abunch object;
#X restore 349 165 pd \$1-o-scopewarning;
#N canvas 856 445 327 127 \$1-o-scopesameargument 0;
#X obj -1 0 cnv 15 330 150 empty empty empty 20 12 0 14 -258699 -66577
0;
#X msg 393 108;
#X text 314 243 is used already!!;
#X obj 344 35 inlet;
#X symbolatom 351 77 10 0 0 0 - - -;
#X obj 98 40 cnv 15 60 20 empty empty empty 20 12 0 14 -233017 -66577
0;
#X text 24 40 Create an unique number for this;
#X text 102 69 abunch object.;
#X connect 3 0 1 0;
#X connect 3 0 4 0;
#X restore 541 770 pd \$1-o-scopesameargument;
#X msg 397 738 pd-\$1-o-scopesameargument;
#X obj 74 171 makefilename pd-%c1-o-scopewarning;
#X connect 0 0 1 0;
#X connect 0 0 15 0;
#X connect 1 0 2 0;
#X connect 2 0 4 0;
#X connect 4 0 45 0;
#X connect 8 0 19 0;
#X connect 9 0 16 0;
#X connect 10 0 17 0;
#X connect 11 0 22 0;
#X connect 12 0 11 1;
#X connect 13 0 11 0;
#X connect 15 0 8 0;
#X connect 15 1 10 0;
#X connect 15 2 9 0;
#X connect 16 0 10 1;
#X connect 16 1 12 0;
#X connect 17 0 18 0;
#X connect 18 0 14 0;
#X connect 19 0 16 0;
#X connect 20 0 24 0;
#X connect 20 0 25 1;
#X connect 21 0 28 1;
#X connect 22 0 25 0;
#X connect 22 1 20 0;
#X connect 23 0 26 0;
#X connect 24 0 23 0;
#X connect 25 0 27 0;
#X connect 26 0 23 1;
#X connect 26 0 21 0;
#X connect 27 0 28 0;
#X connect 28 0 31 0;
#X connect 31 0 32 0;
#X connect 32 0 35 0;
#X connect 33 0 34 0;
#X connect 35 0 44 0;
#X connect 35 1 39 0;
#X connect 38 0 32 0;
#X connect 39 0 37 0;
#X connect 44 0 33 0;
#X connect 45 0 3 0;
#X restore 77 607 pd foutmelding;
#N canvas 744 585 566 199 needsound 0;
#X obj 22 34 r soundfileyesno;
#X msg 18 67 0;
#X obj 22 138 s answersoundfile;
#X text 63 65 0 = this abunch object doesn't need a sound file (store
in a preset file) \, 1 = it does;
#X connect 0 0 1 0;
#X connect 1 0 2 0;
#X restore 93 632 pd needsound;
#N canvas 578 33 450 300 init-presets 0;
#X obj 94 40 loadbang;
#X msg 93 68 100;
#X obj 102 298 s \$1-osorspe;
#X obj 280 264 s \$1-osorzoom;
#X msg 179 68 10;
#X obj 174 262 s \$1-osorz10;
#X obj 223 294 s \$1-osorz100;
#X msg 236 68 0;
#N canvas 134 181 1155 642 save_preset_array 0;
#X obj 19 403 inlet gui1;
#X obj 112 405 inlet gui2;
#X obj 197 403 inlet gui3;
#X obj 290 405 inlet gui4;
#X obj 376 406 inlet gui15;
#X obj 469 408 inlet gui6;
#X obj 554 406 inlet gui7;
#X obj 647 408 inlet gui8;
#X obj 732 408 inlet gui9;
#X obj 825 410 inlet gui10;
#X obj 743 446 f;
#X obj 824 448 f;
#X obj 566 443 f;
#X obj 647 445 f;
#X obj 380 439 f;
#X obj 461 441 f;
#X obj 204 438 f;
#X obj 285 440 f;
#X obj 25 443 f;
#X obj 106 445 f;
#X obj 83 109 until;
#X obj 62 173 + 1;
#X obj 89 142 f 0;
#X obj 79 42 bng 15 250 50 0 empty empty empty 17 7 0 10 -262144 -1
-1;
#X obj 571 505 r openpreset;
#X obj 162 18 r savepreset;
#X obj 21 825 outlet gui1;
#X obj 112 827 outlet gui2;
#X obj 201 827 outlet gui3;
#X obj 293 827 outlet gui4;
#X obj 475 827 outlet gui6;
#X obj 384 827 outlet gui5;
#X obj 567 827 outlet gui7;
#X obj 658 827 outlet gui8;
#X obj 748 827 outlet gui9;
#X obj 840 826 outlet gui10;
#X obj 495 598 until;
#X obj 472 657 + 1;
#X obj 499 626 f 0;
#N canvas 45 153 1064 314 router_1inxout 0;
#X obj 231 27 inlet one;
#X obj 339 23 inlet route123;
#X obj 35 211 outlet one;
#X obj 124 210 outlet two;
#X obj 218 211 outlet three;
#X obj 323 211 outlet four;
#X obj 415 210 outlet five;
#X obj 510 211 outlet six;
#X obj 599 210 outlet seven;
#X obj 700 213 outlet eigth;
#X obj 805 212 outlet nine;
#X obj 897 211 outlet ten;
#X obj 361 83 pack;
#X obj 296 57 mod 12;
#X obj 919 239 outlet nine;
#X obj 1011 238 outlet ten;
#X obj 696 86 route 1 2 3 4 5 6 7 8 9 10 11;
#X obj 58 77 route 1 2;
#X obj 961 138 unpack;
#X connect 0 0 13 0;
#X connect 1 0 12 1;
#X connect 12 0 16 0;
#X connect 13 0 12 0;
#X connect 16 0 2 0;
#X connect 16 1 3 0;
#X connect 16 2 4 0;
#X connect 16 3 5 0;
#X connect 16 4 6 0;
#X connect 16 5 7 0;
#X connect 16 6 8 0;
#X connect 16 7 9 0;
#X connect 16 8 10 0;
#X connect 16 9 11 0;
#X connect 16 10 14 0;
#X connect 16 11 18 0;
#X connect 18 1 15 0;
#X restore 340 771 pd router_1inxout;
#X obj 211 106 f 0;
#X obj 335 24 r presetnr;
#X obj 336 49 * 12;
#X obj 334 72 - 12;
#X obj 587 587 f 0;
#X obj 495 685 t f f;
#X obj 85 201 t f f;
#X obj 736 509 bng 15 250 50 0 empty empty empty 17 7 0 10 -262144
-1 -1;
#N canvas 0 0 450 300 (subpatch) 0;
#X array \$1-osopreset 240 float 2;
#X coords 0 200 239 -1 200 140 1;
#X restore 591 131 graph;
#X obj 66 240 mod 12;
#X text 386 60 -> !!! per 12;
#X text 130 240 -> !!! per 12;
#X text 511 773 -> !!! hierin ook per 12;
#X msg 133 82 12;
#X text 174 83 -> !!! per 12;
#X text 579 54 max 12 parameters/waarden voor array/presets;
#X obj 302 204 symbol;
#X obj 403 183 symbol;
#X obj 345 245 pack s s;
#X obj 402 153 r namepreset;
#X obj 294 155 f \$1;
#X obj 167 43 t b b b;
#X obj 570 546 t b b b;
#X text 130 312 -> !!! per 12;
#X obj 716 628 symbol;
#X obj 756 655 pack s s;
#X obj 827 582 r namepreset;
#X obj 662 578 f \$1;
#X obj 152 163 print bng;
#X obj 819 618 symbol;
#X msg 319 272 \; \$1 write presets/\$2-\$1.txt;
#X msg 750 686 \; \$1 read presets/\$2-\$1.txt;
#X msg 528 575 12;
#X obj 931 444 f;
#X obj 1012 446 f;
#X obj 920 406 inlet gui11;
#X obj 1013 408 inlet gui12;
#X obj 940 828 outlet gui9;
#X obj 1032 827 outlet gui10;
#X obj 56 331 select 1 2 3 4 5 6 7 8 9 10 11;
#X obj 979 379 bang;
#X msg 294 182 \$1-osopreset;
#X obj 225 534 tabwrite \$1-osopreset;
#X msg 675 604 \$1-osopreset;
#X obj 449 736 tabread \$1-osopreset;
#X connect 0 0 18 1;
#X connect 1 0 19 1;
#X connect 2 0 16 1;
#X connect 3 0 17 1;
#X connect 4 0 14 1;
#X connect 5 0 15 1;
#X connect 6 0 12 1;
#X connect 7 0 13 1;
#X connect 8 0 10 1;
#X connect 9 0 11 1;
#X connect 10 0 82 0;
#X connect 11 0 82 0;
#X connect 12 0 82 0;
#X connect 13 0 82 0;
#X connect 14 0 82 0;
#X connect 15 0 82 0;
#X connect 16 0 82 0;
#X connect 17 0 82 0;
#X connect 18 0 82 0;
#X connect 19 0 82 0;
#X connect 20 0 22 0;
#X connect 21 0 22 1;
#X connect 21 0 46 0;
#X connect 22 0 21 0;
#X connect 23 0 20 0;
#X connect 24 0 62 0;
#X connect 25 0 61 0;
#X connect 36 0 38 0;
#X connect 37 0 38 1;
#X connect 37 0 45 0;
#X connect 38 0 37 0;
#X connect 39 0 26 0;
#X connect 39 1 27 0;
#X connect 39 2 28 0;
#X connect 39 3 29 0;
#X connect 39 4 31 0;
#X connect 39 5 30 0;
#X connect 39 6 32 0;
#X connect 39 7 33 0;
#X connect 39 8 34 0;
#X connect 39 9 35 0;
#X connect 39 10 77 0;
#X connect 39 11 78 0;
#X connect 40 0 22 1;
#X connect 41 0 42 0;
#X connect 42 0 43 0;
#X connect 43 0 40 1;
#X connect 43 0 44 1;
#X connect 44 0 38 1;
#X connect 45 0 39 0;
#X connect 45 1 84 0;
#X connect 46 0 49 0;
#X connect 46 1 82 1;
#X connect 47 0 62 0;
#X connect 49 0 79 0;
#X connect 53 0 20 0;
#X connect 56 0 58 0;
#X connect 57 0 58 1;
#X connect 58 0 70 0;
#X connect 59 0 57 0;
#X connect 60 0 81 0;
#X connect 61 0 60 0;
#X connect 61 0 68 0;
#X connect 61 1 53 0;
#X connect 61 2 40 0;
#X connect 62 0 72 0;
#X connect 62 1 44 0;
#X connect 62 2 67 0;
#X connect 64 0 65 0;
#X connect 65 0 71 0;
#X connect 66 0 69 0;
#X connect 67 0 83 0;
#X connect 69 0 65 1;
#X connect 72 0 36 0;
#X connect 73 0 82 0;
#X connect 74 0 82 0;
#X connect 75 0 73 1;
#X connect 76 0 74 1;
#X connect 79 0 18 0;
#X connect 79 1 19 0;
#X connect 79 2 16 0;
#X connect 79 3 17 0;
#X connect 79 4 14 0;
#X connect 79 5 15 0;
#X connect 79 6 12 0;
#X connect 79 7 13 0;
#X connect 79 8 10 0;
#X connect 79 9 11 0;
#X connect 79 10 73 0;
#X connect 79 11 80 0;
#X connect 80 0 74 0;
#X connect 81 0 56 0;
#X connect 83 0 64 0;
#X connect 84 0 39 1;
#X restore 119 201 pd save_preset_array;
#X obj 73 262 s \$1-osoron;
#X obj 275 115 r \$1-ososzoom;
#X obj 199 148 r \$1-ososz100;
#X obj 169 113 r \$1-ososz10;
#X obj 68 113 r \$1-ososon;
#X obj 97 149 r \$1-ososspe;
#X connect 0 0 1 0;
#X connect 0 0 4 0;
#X connect 0 0 7 0;
#X connect 1 0 2 0;
#X connect 4 0 3 0;
#X connect 7 0 5 0;
#X connect 7 0 6 0;
#X connect 8 0 9 0;
#X connect 8 1 2 0;
#X connect 8 2 5 0;
#X connect 8 3 6 0;
#X connect 8 4 3 0;
#X connect 10 0 8 4;
#X connect 11 0 8 3;
#X connect 12 0 8 2;
#X connect 13 0 8 0;
#X connect 14 0 8 1;
#X restore 73 488 pd init-presets;
#X obj 0 0 cnv 15 400 260 empty empty empty 20 12 0 14 -261234 -66577
0;
#X obj 297 50 tgl 30 0 \$1-ososon \$1-osoron ON/OFF -10 -15 0 10 -258113
-1 -1 0 1;
#X obj 295 108 nbx 5 14 1 10000 0 0 \$1-ososspe \$1-osorspe refresh_rate
-15 -8 0 10 -258113 -1 -1 100 256;
#X obj 22 207 hsl 256 15 0 63 0 0 \$1-ososzoom \$1-osorzoom zoom -2
-8 0 10 -258113 -1 -1 4048 1;
#X obj 36 172 nbx 5 14 -1e+037 1e+037 0 0 empty \$1-osorms empty 0
-8 0 10 -86277 -260097 -1 10 256;
#X text 95 171 ms or;
#X obj 139 172 nbx 6 14 -1e+037 1e+037 0 0 empty \$1-osorsam empty
0 -8 0 10 -86277 -260097 -1 441 256;
#X obj 295 149 bng 15 250 50 0 \$1-osossnap empty snap 17 7 0 10 -1
-258113 -1;
#X obj 298 206 tgl 15 0 \$1-ososz10 \$1-osorz10 *10 -6 -8 0 10 -258113
-1 -1 0 1;
#X obj 341 206 tgl 15 0 \$1-ososz100 \$1-osorz100 *100 -6 -8 0 10 -258113
-1 -1 0 1;
#X text 203 171 samples ->;
#X text 15 169 <-;
#X text 351 108 ms;
#X obj 19 27 cnv 15 257 140 empty empty empty 50 12 0 10 -258699 -143491
0;
#N canvas 0 0 450 300 (subpatch) 0;
#X array \$1-oscilloscope 441 float 0;
#X coords 0 1 440 -1 257 140 1;
#X restore 19 27 graph;
#N canvas 540 309 293 166 printname 0;
#X obj 54 37 r printallnames;
#X obj 54 107 symbol;
#X obj 54 132 s rallnames;
#X msg 54 72 o-scope;
#X connect 0 0 3 0;
#X connect 1 0 2 0;
#X connect 3 0 1 0;
#X restore 93 462 pd printname;
#N canvas 10 184 588 284 presetsnew 0;
#X obj 210 58 r savepresetn;
#X obj 203 119 t b b b;
#N canvas 30 156 883 470 arraypresets 0;
#X obj 50 178 until;
#X obj 187 183 f \$1;
#X obj 187 233 symbol;
#X obj 50 203 f -1;
#X obj 50 228 + 1;
#X msg 127 167 -1;
#X msg 283 368 add2 \$1;
#X obj 93 -5 inlet;
#X obj 69 267 tabread \$1-osoay;
#X obj 47 102 r \$1-osossize;
#X obj 50 146 f;
#X obj 357 419 outlet;
#X text 41 83 !! size of array;
#X msg 401 367 add2 () arr 0 0 \$1;
#X obj 93 33 t b b b b b b b b;
#X obj 340 178 until;
#X obj 477 183 f \$1;
#X obj 477 233 symbol;
#X obj 340 203 f -1;
#X obj 340 228 + 1;
#X msg 417 167 -1;
#X obj 359 267 tabread \$1-osoay;
#X obj 337 102 r \$1-osossize;
#X obj 340 146 f;
#X text 572 208 !!;
#X text 504 267 !!;
#X obj 630 178 until;
#X obj 767 183 f \$1;
#X obj 767 233 symbol;
#X obj 630 203 f -1;
#X obj 630 228 + 1;
#X msg 707 167 -1;
#X obj 649 267 tabread \$1-osoay;
#X obj 627 102 r \$1-osossize;
#X obj 630 146 f;
#X text 862 208 !!;
#X text 794 267 !!;
#X text 331 84 !! size of array2;
#X text 621 83 !! size of array3;
#X msg 477 208 \$1-osoray2;
#X msg 187 208 \$1-osoray1;
#X msg 767 208 \$1-osoray3;
#X text 234 186 provisionary;
#X text 285 208 name;
#X text 214 267 !!;
#X text 127 289 original array that is saved in presets;
#X connect 0 0 3 0;
#X connect 1 0 40 0;
#X connect 2 0 13 0;
#X connect 3 0 4 0;
#X connect 4 0 3 1;
#X connect 4 0 8 0;
#X connect 5 0 3 1;
#X connect 6 0 11 0;
#X connect 7 0 14 0;
#X connect 8 0 6 0;
#X connect 9 0 10 1;
#X connect 10 0 0 0;
#X connect 13 0 11 0;
#X connect 14 6 10 0;
#X connect 14 7 1 0;
#X connect 14 7 5 0;
#X connect 15 0 18 0;
#X connect 16 0 39 0;
#X connect 17 0 13 0;
#X connect 18 0 19 0;
#X connect 19 0 18 1;
#X connect 19 0 21 0;
#X connect 20 0 18 1;
#X connect 21 0 6 0;
#X connect 22 0 23 1;
#X connect 23 0 15 0;
#X connect 26 0 29 0;
#X connect 27 0 41 0;
#X connect 28 0 13 0;
#X connect 29 0 30 0;
#X connect 30 0 29 1;
#X connect 30 0 32 0;
#X connect 31 0 29 1;
#X connect 32 0 6 0;
#X connect 33 0 34 1;
#X connect 34 0 26 0;
#X connect 39 0 17 0;
#X connect 40 0 2 0;
#X connect 41 0 28 0;
#X restore 46 154 pd arraypresets;
#N canvas 126 92 1041 485 name-sends-normal 0;
#N canvas 0 0 450 300 (subpatch) 0;
#X array \$1-osobetween 12 float 2;
#X coords 0 10000 12 -10000 20 20 1;
#X restore 15 236 graph;
#X obj 406 549 tabwrite \$1-osobetween;
#X obj 438 235 unpack f f;
#X obj 98 156 pack f 1;
#X obj 135 178 pack f 2;
#X obj 186 200 pack f 3;
#X obj 236 155 pack f 4;
#X obj 273 177 pack f 5;
#X obj 324 199 pack f 6;
#X obj 368 156 pack f 7;
#X obj 405 178 pack f 8;
#X obj 449 199 pack f 9;
#X obj 508 156 pack f 10;
#X obj 545 178 pack f 11;
#X obj 596 199 pack f 12;
#X obj 665 156 pack f 13;
#X obj 702 178 pack f 14;
#X obj 754 201 pack f 15;
#X obj 798 156 pack f 16;
#X obj 835 179 pack f 17;
#X obj 884 203 pack f 18;
#X obj 438 505 unpack f f;
#X obj 98 426 pack f 19;
#X obj 135 448 pack f 20;
#X obj 186 470 pack f 21;
#X obj 236 425 pack f 22;
#X obj 273 447 pack f 23;
#X obj 324 469 pack f 24;
#X obj 368 426 pack f 25;
#X obj 405 448 pack f 26;
#X obj 449 469 pack f 27;
#X obj 508 426 pack f 28;
#X obj 545 448 pack f 29;
#X obj 596 469 pack f 30;
#X obj 665 426 pack f 31;
#X obj 702 448 pack f 32;
#X obj 754 471 pack f 33;
#X obj 798 426 pack f 34;
#X obj 835 449 pack f 35;
#X obj 886 470 pack f 36;
#X text 38 238 -> adjust size if necessary (standard size = 109);
#X obj 275 55 r \$1-ososzoom;
#X obj 199 88 r \$1-ososz100;
#X obj 169 53 r \$1-ososz10;
#X obj 68 53 r \$1-ososon;
#X obj 97 89 r \$1-ososspe;
#X connect 2 0 1 0;
#X connect 2 1 1 1;
#X connect 3 0 2 0;
#X connect 4 0 2 0;
#X connect 5 0 2 0;
#X connect 6 0 2 0;
#X connect 7 0 2 0;
#X connect 8 0 2 0;
#X connect 9 0 2 0;
#X connect 10 0 2 0;
#X connect 11 0 2 0;
#X connect 12 0 2 0;
#X connect 13 0 2 0;
#X connect 14 0 2 0;
#X connect 15 0 2 0;
#X connect 16 0 2 0;
#X connect 17 0 2 0;
#X connect 18 0 2 0;
#X connect 19 0 2 0;
#X connect 20 0 2 0;
#X connect 21 0 1 0;
#X connect 21 1 1 1;
#X connect 22 0 21 0;
#X connect 23 0 21 0;
#X connect 24 0 21 0;
#X connect 25 0 21 0;
#X connect 26 0 21 0;
#X connect 27 0 21 0;
#X connect 28 0 21 0;
#X connect 29 0 21 0;
#X connect 30 0 21 0;
#X connect 31 0 21 0;
#X connect 32 0 21 0;
#X connect 33 0 21 0;
#X connect 34 0 21 0;
#X connect 35 0 21 0;
#X connect 36 0 21 0;
#X connect 37 0 21 0;
#X connect 38 0 21 0;
#X connect 39 0 21 0;
#X connect 41 0 7 0;
#X connect 42 0 6 0;
#X connect 43 0 5 0;
#X connect 44 0 3 0;
#X connect 45 0 4 0;
#X restore 75 27 pd name-sends-normal;
#X obj 223 196 s toextfile;
#N canvas 636 185 560 404 normal 0;
#X obj 278 134 f \$1;
#X obj 237 278 symbol;
#X obj 42 268 list prepend add2;
#X obj 42 293 list trim;
#X obj 188 51 t b b b b b;
#X obj 154 135 f 0;
#X obj 193 135 + 1;
#X msg 181 103 0;
#X msg 240 196 osorx\$1;
#X obj 237 222 pack s f;
#X msg 237 249 \$2-\$1;
#X obj 131 102 until;
#X obj 193 161 t f f;
#X obj 21 193 tabread \$1-osobetween;
#X text 151 77 -> aanpassen! aantal op te slagen floats;
#X obj 180 16 inlet;
#X obj 229 345 outlet;
#X msg 235 311 add2 () norm 0 0 \$1;
#X obj 111 76 f 5;
#X connect 0 0 9 1;
#X connect 1 0 17 0;
#X connect 2 0 3 0;
#X connect 3 0 16 0;
#X connect 4 3 18 0;
#X connect 4 4 0 0;
#X connect 4 4 7 0;
#X connect 5 0 6 0;
#X connect 6 0 5 1;
#X connect 6 0 12 0;
#X connect 7 0 5 1;
#X connect 8 0 9 0;
#X connect 9 0 10 0;
#X connect 10 0 1 0;
#X connect 11 0 5 0;
#X connect 12 0 13 0;
#X connect 12 1 8 0;
#X connect 13 0 2 0;
#X connect 15 0 4 0;
#X connect 17 0 16 0;
#X connect 18 0 11 0;
#X restore 217 153 pd normal;
#X text 179 152 !!->;
#X text 212 245 !!->;
#N canvas 49 0 1083 354 receive-normal 0;
#X obj 24 26 r \$1-osorx1;
#X obj 54 46 r \$1-osorx2;
#X obj 85 66 r \$1-osorx3;
#X obj 196 19 r \$1-osorx4;
#X obj 226 39 r \$1-osorx5;
#X obj 257 59 r \$1-osorx6;
#X obj 364 16 r \$1-osorx7;
#X obj 382 37 r \$1-osorx8;
#X obj 416 58 r \$1-osorx9;
#X obj 523 33 r \$1-osorx10;
#X obj 553 53 r \$1-osorx11;
#X obj 584 73 r \$1-osorx12;
#X obj 703 33 r \$1-osorx13;
#X obj 733 53 r \$1-osorx14;
#X obj 764 73 r \$1-osorx15;
#X obj 863 33 r \$1-osorx16;
#X obj 893 53 r \$1-osorx17;
#X obj 924 73 r \$1-osorx18;
#X obj 33 293 r \$1-osorx19;
#X obj 63 313 r \$1-osorx20;
#X obj 94 333 r \$1-osorx21;
#X obj 213 293 r \$1-osorx22;
#X obj 243 313 r \$1-osorx23;
#X obj 274 333 r \$1-osorx24;
#X obj 393 293 r \$1-osorx25;
#X obj 423 313 r \$1-osorx26;
#X obj 454 333 r \$1-osorx27;
#X obj 543 293 r \$1-osorx28;
#X obj 573 313 r \$1-osorx29;
#X obj 604 333 r \$1-osorx30;
#X obj 713 293 r \$1-osorx31;
#X obj 743 313 r \$1-osorx32;
#X obj 774 333 r \$1-osorx33;
#X obj 873 293 r \$1-osorx34;
#X obj 903 313 r \$1-osorx35;
#X obj 934 333 r \$1-osorx36;
#X text 667 236 ^ hier aanvullen ^;
#N canvas 30 18 246 218 cmp 0;
#X obj 42 65 list split 1;
#X obj 88 119 ==;
#X obj 43 151 spigot;
#X obj 43 176 outlet;
#X obj 42 28 inlet;
#X obj 110 30 r \$1-osoarg2;
#X connect 0 0 2 0;
#X connect 0 1 1 0;
#X connect 1 0 2 1;
#X connect 2 0 3 0;
#X connect 4 0 0 0;
#X connect 5 0 1 1;
#X restore 22 100 pd cmp;
#N canvas 355 32 246 300 cmp 0;
#X obj 42 65 list split 1;
#X obj 88 119 ==;
#X obj 43 151 spigot;
#X obj 43 176 outlet;
#X obj 42 28 inlet;
#X obj 110 30 r \$1-osoarg2;
#X connect 0 0 2 0;
#X connect 0 1 1 0;
#X connect 1 0 2 1;
#X connect 2 0 3 0;
#X connect 4 0 0 0;
#X connect 5 0 1 1;
#X restore 42 125 pd cmp;
#N canvas 0 0 246 300 cmp 0;
#X obj 42 65 list split 1;
#X obj 88 119 ==;
#X obj 43 151 spigot;
#X obj 43 176 outlet;
#X obj 42 28 inlet;
#X obj 110 30 r \$1-osoarg2;
#X connect 0 0 2 0;
#X connect 0 1 1 0;
#X connect 1 0 2 1;
#X connect 2 0 3 0;
#X connect 4 0 0 0;
#X connect 5 0 1 1;
#X restore 59 153 pd cmp;
#N canvas 0 0 246 300 cmp 0;
#X obj 42 65 list split 1;
#X obj 88 119 ==;
#X obj 43 151 spigot;
#X obj 43 176 outlet;
#X obj 42 28 inlet;
#X obj 110 30 r \$1-osoarg2;
#X connect 0 0 2 0;
#X connect 0 1 1 0;
#X connect 1 0 2 1;
#X connect 2 0 3 0;
#X connect 4 0 0 0;
#X connect 5 0 1 1;
#X restore 172 100 pd cmp;
#N canvas 0 0 246 300 cmp 0;
#X obj 42 65 list split 1;
#X obj 88 119 ==;
#X obj 43 151 spigot;
#X obj 43 176 outlet;
#X obj 42 28 inlet;
#X obj 110 30 r \$1-osoarg2;
#X connect 0 0 2 0;
#X connect 0 1 1 0;
#X connect 1 0 2 1;
#X connect 2 0 3 0;
#X connect 4 0 0 0;
#X connect 5 0 1 1;
#X restore 192 125 pd cmp;
#N canvas 308 15 246 215 cmp 0;
#X obj 42 65 list split 1;
#X obj 88 119 ==;
#X obj 43 151 spigot;
#X obj 43 176 outlet;
#X obj 42 28 inlet;
#X obj 110 30 r \$1-osoarg2;
#X connect 0 0 2 0;
#X connect 0 1 1 0;
#X connect 1 0 2 1;
#X connect 2 0 3 0;
#X connect 4 0 0 0;
#X connect 5 0 1 1;
#X restore 209 153 pd cmp;
#N canvas 0 0 246 300 cmp 0;
#X obj 42 65 list split 1;
#X obj 88 119 ==;
#X obj 43 151 spigot;
#X obj 43 176 outlet;
#X obj 42 28 inlet;
#X obj 110 30 r \$1-osoarg2;
#X connect 0 0 2 0;
#X connect 0 1 1 0;
#X connect 1 0 2 1;
#X connect 2 0 3 0;
#X connect 4 0 0 0;
#X connect 5 0 1 1;
#X restore 362 100 pd cmp;
#N canvas 0 0 246 300 cmp 0;
#X obj 42 65 list split 1;
#X obj 88 119 ==;
#X obj 43 151 spigot;
#X obj 43 176 outlet;
#X obj 42 28 inlet;
#X obj 110 30 r \$1-osoarg2;
#X connect 0 0 2 0;
#X connect 0 1 1 0;
#X connect 1 0 2 1;
#X connect 2 0 3 0;
#X connect 4 0 0 0;
#X connect 5 0 1 1;
#X restore 382 125 pd cmp;
#N canvas 0 0 246 300 cmp 0;
#X obj 42 65 list split 1;
#X obj 88 119 ==;
#X obj 43 151 spigot;
#X obj 43 176 outlet;
#X obj 42 28 inlet;
#X obj 110 30 r \$1-osoarg2;
#X connect 0 0 2 0;
#X connect 0 1 1 0;
#X connect 1 0 2 1;
#X connect 2 0 3 0;
#X connect 4 0 0 0;
#X connect 5 0 1 1;
#X restore 399 153 pd cmp;
#N canvas 0 0 246 300 cmp 0;
#X obj 42 65 list split 1;
#X obj 88 119 ==;
#X obj 43 151 spigot;
#X obj 43 176 outlet;
#X obj 42 28 inlet;
#X obj 110 30 r \$1-osoarg2;
#X connect 0 0 2 0;
#X connect 0 1 1 0;
#X connect 1 0 2 1;
#X connect 2 0 3 0;
#X connect 4 0 0 0;
#X connect 5 0 1 1;
#X restore 542 110 pd cmp;
#N canvas 0 0 246 300 cmp 0;
#X obj 42 65 list split 1;
#X obj 88 119 ==;
#X obj 43 151 spigot;
#X obj 43 176 outlet;
#X obj 42 28 inlet;
#X obj 110 30 r \$1-osoarg2;
#X connect 0 0 2 0;
#X connect 0 1 1 0;
#X connect 1 0 2 1;
#X connect 2 0 3 0;
#X connect 4 0 0 0;
#X connect 5 0 1 1;
#X restore 562 135 pd cmp;
#N canvas 0 0 246 300 cmp 0;
#X obj 42 65 list split 1;
#X obj 88 119 ==;
#X obj 43 151 spigot;
#X obj 43 176 outlet;
#X obj 42 28 inlet;
#X obj 110 30 r \$1-osoarg2;
#X connect 0 0 2 0;
#X connect 0 1 1 0;
#X connect 1 0 2 1;
#X connect 2 0 3 0;
#X connect 4 0 0 0;
#X connect 5 0 1 1;
#X restore 579 163 pd cmp;
#N canvas 0 0 246 300 cmp 0;
#X obj 42 65 list split 1;
#X obj 88 119 ==;
#X obj 43 151 spigot;
#X obj 43 176 outlet;
#X obj 42 28 inlet;
#X obj 110 30 r \$1-osoarg2;
#X connect 0 0 2 0;
#X connect 0 1 1 0;
#X connect 1 0 2 1;
#X connect 2 0 3 0;
#X connect 4 0 0 0;
#X connect 5 0 1 1;
#X restore 692 110 pd cmp;
#N canvas 0 0 246 300 cmp 0;
#X obj 42 65 list split 1;
#X obj 88 119 ==;
#X obj 43 151 spigot;
#X obj 43 176 outlet;
#X obj 42 28 inlet;
#X obj 110 30 r \$1-osoarg2;
#X connect 0 0 2 0;
#X connect 0 1 1 0;
#X connect 1 0 2 1;
#X connect 2 0 3 0;
#X connect 4 0 0 0;
#X connect 5 0 1 1;
#X restore 712 135 pd cmp;
#N canvas 0 0 246 300 cmp 0;
#X obj 42 65 list split 1;
#X obj 88 119 ==;
#X obj 43 151 spigot;
#X obj 43 176 outlet;
#X obj 42 28 inlet;
#X obj 110 30 r \$1-osoarg2;
#X connect 0 0 2 0;
#X connect 0 1 1 0;
#X connect 1 0 2 1;
#X connect 2 0 3 0;
#X connect 4 0 0 0;
#X connect 5 0 1 1;
#X restore 729 163 pd cmp;
#N canvas 0 0 246 300 cmp 0;
#X obj 42 65 list split 1;
#X obj 88 119 ==;
#X obj 43 151 spigot;
#X obj 43 176 outlet;
#X obj 42 28 inlet;
#X obj 110 30 r \$1-osoarg2;
#X connect 0 0 2 0;
#X connect 0 1 1 0;
#X connect 1 0 2 1;
#X connect 2 0 3 0;
#X connect 4 0 0 0;
#X connect 5 0 1 1;
#X restore 882 100 pd cmp;
#N canvas 0 0 246 300 cmp 0;
#X obj 42 65 list split 1;
#X obj 88 119 ==;
#X obj 43 151 spigot;
#X obj 43 176 outlet;
#X obj 42 28 inlet;
#X obj 110 30 r \$1-osoarg2;
#X connect 0 0 2 0;
#X connect 0 1 1 0;
#X connect 1 0 2 1;
#X connect 2 0 3 0;
#X connect 4 0 0 0;
#X connect 5 0 1 1;
#X restore 902 125 pd cmp;
#N canvas 0 0 246 300 cmp 0;
#X obj 42 65 list split 1;
#X obj 88 119 ==;
#X obj 43 151 spigot;
#X obj 43 176 outlet;
#X obj 42 28 inlet;
#X obj 110 30 r \$1-osoarg2;
#X connect 0 0 2 0;
#X connect 0 1 1 0;
#X connect 1 0 2 1;
#X connect 2 0 3 0;
#X connect 4 0 0 0;
#X connect 5 0 1 1;
#X restore 919 153 pd cmp;
#N canvas 30 18 246 218 cmp 0;
#X obj 42 65 list split 1;
#X obj 88 119 ==;
#X obj 43 151 spigot;
#X obj 43 176 outlet;
#X obj 42 28 inlet;
#X obj 110 30 r \$1-osoarg2;
#X connect 0 0 2 0;
#X connect 0 1 1 0;
#X connect 1 0 2 1;
#X connect 2 0 3 0;
#X connect 4 0 0 0;
#X connect 5 0 1 1;
#X restore 32 370 pd cmp;
#N canvas 355 32 246 300 cmp 0;
#X obj 42 65 list split 1;
#X obj 88 119 ==;
#X obj 43 151 spigot;
#X obj 43 176 outlet;
#X obj 42 28 inlet;
#X obj 110 30 r \$1-osoarg2;
#X connect 0 0 2 0;
#X connect 0 1 1 0;
#X connect 1 0 2 1;
#X connect 2 0 3 0;
#X connect 4 0 0 0;
#X connect 5 0 1 1;
#X restore 52 395 pd cmp;
#N canvas 0 0 246 300 cmp 0;
#X obj 42 65 list split 1;
#X obj 88 119 ==;
#X obj 43 151 spigot;
#X obj 43 176 outlet;
#X obj 42 28 inlet;
#X obj 110 30 r \$1-osoarg2;
#X connect 0 0 2 0;
#X connect 0 1 1 0;
#X connect 1 0 2 1;
#X connect 2 0 3 0;
#X connect 4 0 0 0;
#X connect 5 0 1 1;
#X restore 69 423 pd cmp;
#N canvas 0 0 246 300 cmp 0;
#X obj 42 65 list split 1;
#X obj 88 119 ==;
#X obj 43 151 spigot;
#X obj 43 176 outlet;
#X obj 42 28 inlet;
#X obj 110 30 r \$1-osoarg2;
#X connect 0 0 2 0;
#X connect 0 1 1 0;
#X connect 1 0 2 1;
#X connect 2 0 3 0;
#X connect 4 0 0 0;
#X connect 5 0 1 1;
#X restore 182 370 pd cmp;
#N canvas 0 0 246 300 cmp 0;
#X obj 42 65 list split 1;
#X obj 88 119 ==;
#X obj 43 151 spigot;
#X obj 43 176 outlet;
#X obj 42 28 inlet;
#X obj 110 30 r \$1-osoarg2;
#X connect 0 0 2 0;
#X connect 0 1 1 0;
#X connect 1 0 2 1;
#X connect 2 0 3 0;
#X connect 4 0 0 0;
#X connect 5 0 1 1;
#X restore 202 395 pd cmp;
#N canvas 308 15 246 215 cmp 0;
#X obj 42 65 list split 1;
#X obj 88 119 ==;
#X obj 43 151 spigot;
#X obj 43 176 outlet;
#X obj 42 28 inlet;
#X obj 110 30 r \$1-osoarg2;
#X connect 0 0 2 0;
#X connect 0 1 1 0;
#X connect 1 0 2 1;
#X connect 2 0 3 0;
#X connect 4 0 0 0;
#X connect 5 0 1 1;
#X restore 219 423 pd cmp;
#N canvas 0 0 246 300 cmp 0;
#X obj 42 65 list split 1;
#X obj 88 119 ==;
#X obj 43 151 spigot;
#X obj 43 176 outlet;
#X obj 42 28 inlet;
#X obj 110 30 r \$1-osoarg2;
#X connect 0 0 2 0;
#X connect 0 1 1 0;
#X connect 1 0 2 1;
#X connect 2 0 3 0;
#X connect 4 0 0 0;
#X connect 5 0 1 1;
#X restore 372 370 pd cmp;
#N canvas 0 0 246 300 cmp 0;
#X obj 42 65 list split 1;
#X obj 88 119 ==;
#X obj 43 151 spigot;
#X obj 43 176 outlet;
#X obj 42 28 inlet;
#X obj 110 30 r \$1-osoarg2;
#X connect 0 0 2 0;
#X connect 0 1 1 0;
#X connect 1 0 2 1;
#X connect 2 0 3 0;
#X connect 4 0 0 0;
#X connect 5 0 1 1;
#X restore 392 395 pd cmp;
#N canvas 0 0 246 300 cmp 0;
#X obj 42 65 list split 1;
#X obj 88 119 ==;
#X obj 43 151 spigot;
#X obj 43 176 outlet;
#X obj 42 28 inlet;
#X obj 110 30 r \$1-osoarg2;
#X connect 0 0 2 0;
#X connect 0 1 1 0;
#X connect 1 0 2 1;
#X connect 2 0 3 0;
#X connect 4 0 0 0;
#X connect 5 0 1 1;
#X restore 409 423 pd cmp;
#N canvas 0 0 246 300 cmp 0;
#X obj 42 65 list split 1;
#X obj 88 119 ==;
#X obj 43 151 spigot;
#X obj 43 176 outlet;
#X obj 42 28 inlet;
#X obj 110 30 r \$1-osoarg2;
#X connect 0 0 2 0;
#X connect 0 1 1 0;
#X connect 1 0 2 1;
#X connect 2 0 3 0;
#X connect 4 0 0 0;
#X connect 5 0 1 1;
#X restore 552 380 pd cmp;
#N canvas 0 0 246 300 cmp 0;
#X obj 42 65 list split 1;
#X obj 88 119 ==;
#X obj 43 151 spigot;
#X obj 43 176 outlet;
#X obj 42 28 inlet;
#X obj 110 30 r \$1-osoarg2;
#X connect 0 0 2 0;
#X connect 0 1 1 0;
#X connect 1 0 2 1;
#X connect 2 0 3 0;
#X connect 4 0 0 0;
#X connect 5 0 1 1;
#X restore 572 405 pd cmp;
#N canvas 0 0 246 300 cmp 0;
#X obj 42 65 list split 1;
#X obj 88 119 ==;
#X obj 43 151 spigot;
#X obj 43 176 outlet;
#X obj 42 28 inlet;
#X obj 110 30 r \$1-osoarg2;
#X connect 0 0 2 0;
#X connect 0 1 1 0;
#X connect 1 0 2 1;
#X connect 2 0 3 0;
#X connect 4 0 0 0;
#X connect 5 0 1 1;
#X restore 589 433 pd cmp;
#N canvas 0 0 246 300 cmp 0;
#X obj 42 65 list split 1;
#X obj 88 119 ==;
#X obj 43 151 spigot;
#X obj 43 176 outlet;
#X obj 42 28 inlet;
#X obj 110 30 r \$1-osoarg2;
#X connect 0 0 2 0;
#X connect 0 1 1 0;
#X connect 1 0 2 1;
#X connect 2 0 3 0;
#X connect 4 0 0 0;
#X connect 5 0 1 1;
#X restore 702 380 pd cmp;
#N canvas 0 0 246 300 cmp 0;
#X obj 42 65 list split 1;
#X obj 88 119 ==;
#X obj 43 151 spigot;
#X obj 43 176 outlet;
#X obj 42 28 inlet;
#X obj 110 30 r \$1-osoarg2;
#X connect 0 0 2 0;
#X connect 0 1 1 0;
#X connect 1 0 2 1;
#X connect 2 0 3 0;
#X connect 4 0 0 0;
#X connect 5 0 1 1;
#X restore 722 405 pd cmp;
#N canvas 0 0 246 300 cmp 0;
#X obj 42 65 list split 1;
#X obj 88 119 ==;
#X obj 43 151 spigot;
#X obj 43 176 outlet;
#X obj 42 28 inlet;
#X obj 110 30 r \$1-osoarg2;
#X connect 0 0 2 0;
#X connect 0 1 1 0;
#X connect 1 0 2 1;
#X connect 2 0 3 0;
#X connect 4 0 0 0;
#X connect 5 0 1 1;
#X restore 739 433 pd cmp;
#N canvas 0 0 246 300 cmp 0;
#X obj 42 65 list split 1;
#X obj 88 119 ==;
#X obj 43 151 spigot;
#X obj 43 176 outlet;
#X obj 42 28 inlet;
#X obj 110 30 r \$1-osoarg2;
#X connect 0 0 2 0;
#X connect 0 1 1 0;
#X connect 1 0 2 1;
#X connect 2 0 3 0;
#X connect 4 0 0 0;
#X connect 5 0 1 1;
#X restore 892 370 pd cmp;
#N canvas 0 0 246 300 cmp 0;
#X obj 42 65 list split 1;
#X obj 88 119 ==;
#X obj 43 151 spigot;
#X obj 43 176 outlet;
#X obj 42 28 inlet;
#X obj 110 30 r \$1-osoarg2;
#X connect 0 0 2 0;
#X connect 0 1 1 0;
#X connect 1 0 2 1;
#X connect 2 0 3 0;
#X connect 4 0 0 0;
#X connect 5 0 1 1;
#X restore 912 395 pd cmp;
#N canvas 0 0 246 300 cmp 0;
#X obj 42 65 list split 1;
#X obj 88 119 ==;
#X obj 43 151 spigot;
#X obj 43 176 outlet;
#X obj 42 28 inlet;
#X obj 110 30 r \$1-osoarg2;
#X connect 0 0 2 0;
#X connect 0 1 1 0;
#X connect 1 0 2 1;
#X connect 2 0 3 0;
#X connect 4 0 0 0;
#X connect 5 0 1 1;
#X restore 929 423 pd cmp;
#X obj 102 228 s \$1-osorspe;
#X obj 267 247 s \$1-osorzoom;
#X obj 120 253 s \$1-osorz10;
#X obj 223 224 s \$1-osorz100;
#X obj 66 207 s \$1-osoron;
#X connect 0 0 37 0;
#X connect 1 0 38 0;
#X connect 2 0 39 0;
#X connect 3 0 40 0;
#X connect 4 0 41 0;
#X connect 5 0 42 0;
#X connect 6 0 43 0;
#X connect 7 0 44 0;
#X connect 8 0 45 0;
#X connect 9 0 46 0;
#X connect 10 0 47 0;
#X connect 11 0 48 0;
#X connect 12 0 49 0;
#X connect 13 0 50 0;
#X connect 14 0 51 0;
#X connect 15 0 52 0;
#X connect 16 0 53 0;
#X connect 17 0 54 0;
#X connect 18 0 55 0;
#X connect 19 0 56 0;
#X connect 20 0 57 0;
#X connect 21 0 58 0;
#X connect 22 0 59 0;
#X connect 23 0 60 0;
#X connect 24 0 61 0;
#X connect 25 0 62 0;
#X connect 26 0 63 0;
#X connect 27 0 64 0;
#X connect 28 0 65 0;
#X connect 29 0 66 0;
#X connect 30 0 67 0;
#X connect 31 0 68 0;
#X connect 32 0 69 0;
#X connect 33 0 70 0;
#X connect 34 0 71 0;
#X connect 35 0 72 0;
#X connect 37 0 77 0;
#X connect 38 0 73 0;
#X connect 39 0 75 0;
#X connect 40 0 76 0;
#X connect 41 0 74 0;
#X restore 251 246 pd receive-normal;
#X text 4 153 !!->;
#X text 32 27 !!->;
#N canvas 0 0 246 300 cmp 0;
#X obj 42 65 list split 1;
#X obj 88 119 ==;
#X obj 43 151 spigot;
#X obj 43 176 outlet;
#X obj 42 28 inlet;
#X obj 157 64 inlet;
#X connect 0 0 2 0;
#X connect 0 1 1 0;
#X connect 1 0 2 1;
#X connect 2 0 3 0;
#X connect 4 0 0 0;
#X connect 5 0 1 1;
#X restore 209 94 pd cmp;
#X obj 458 12 loadbang;
#X obj 458 37 f \$2;
#X obj 458 85 s \$1-osoarg2;
#N canvas 623 236 565 271 receive-array 0;
#X obj 46 18 r \$1-osoray1;
#X obj 47 181 list prepend 0;
#X obj 47 206 send \$1-osoay;
#X obj 157 67 list split 1;
#X obj 95 122 ==;
#X obj 175 95 r \$1-osoarg2;
#X obj 47 156 spigot;
#X obj 46 43 t l l;
#X obj 41 72 list split 1;
#X text 169 180 drop the list at index 0 of the array;
#X text 166 205 !! adjust this name of the original saved array;
#X connect 0 0 7 0;
#X connect 1 0 2 0;
#X connect 3 0 4 0;
#X connect 4 0 6 1;
#X connect 5 0 4 1;
#X connect 6 0 1 0;
#X connect 7 0 8 0;
#X connect 7 1 3 0;
#X connect 8 1 6 0;
#X restore 62 248 pd receive-array;
#X text 12 249 !! ->;
#X connect 0 0 11 0;
#X connect 1 1 5 0;
#X connect 2 0 4 0;
#X connect 5 0 4 0;
#X connect 11 0 1 0;
#X connect 12 0 13 0;
#X connect 13 0 11 1;
#X connect 13 0 14 0;
#X restore 214 473 pd presetsnew;
#X connect 0 0 2 0;
#X connect 1 0 2 0;
#X connect 3 0 1 0;
#X connect 4 0 1 1;
#X connect 5 0 7 1;
#X connect 6 0 7 0;
#X connect 6 1 5 0;
#X connect 6 1 9 0;
#X connect 7 0 11 0;
#X connect 7 0 19 0;
#X connect 8 0 10 0;
#X connect 9 0 8 0;
#X connect 10 0 11 1;
#X connect 11 0 12 0;
#X connect 13 0 6 0;
#X connect 14 0 33 0;
#X connect 16 0 14 0;
#X connect 16 0 43 0;
#X connect 17 0 18 0;
#X connect 18 0 15 0;
#X connect 18 0 48 0;
#X connect 19 0 20 0;
#X connect 20 0 21 0;
#X connect 22 0 2 0;
#X connect 23 0 24 0;
#X connect 24 0 25 0;
#X connect 25 0 2 0;
#X connect 26 0 30 0;
#X connect 27 0 35 0;
#X connect 30 0 42 0;
#X connect 30 0 34 0;
#X connect 30 1 31 0;
#X connect 31 0 32 0;
#X connect 32 0 41 1;
#X connect 32 0 40 0;
#X connect 33 0 13 0;
#X connect 34 0 39 0;
#X connect 35 0 36 0;
#X connect 35 0 41 0;
#X connect 35 1 37 0;
#X connect 36 0 34 1;
#X connect 37 0 38 0;
#X connect 38 0 40 0;
#X connect 38 0 34 1;
#X connect 39 0 33 0;
#X connect 39 0 43 0;
#X connect 39 1 33 1;
#X connect 39 1 43 1;
#X connect 40 0 33 0;
#X connect 40 0 43 0;
#X connect 40 1 33 1;
#X connect 40 1 43 1;
#X connect 41 0 39 0;
#X connect 42 0 41 1;
#X connect 43 0 17 0;
#X connect 44 0 45 1;
#X connect 45 0 46 1;
#X connect 46 0 47 0;
#X connect 48 0 46 0;
#X connect 48 1 45 0;
#X connect 52 0 56 0;
#X connect 53 0 54 0;
#X connect 55 0 52 0;
#X connect 56 0 53 0;
