#N canvas 342 296 273 192 12;
#X obj 445 20 inlet;
#X obj 448 73 select 0 1;
#X obj 447 99 s \$1-plfrstop;
#X obj 559 99 s \$1-plfrplay;
#X obj 152 218 r \$1-plfsplay;
#X msg 167 370 1;
#X msg 210 374 0;
#X obj 375 639 dac~;
#X obj 33 243 openpanel;
#X msg 55 353 open \$1;
#X obj 278 216 r \$1-plfsstop;
#N canvas 0 0 399 213 switch 0;
#X obj 47 36 inlet~;
#X obj 265 144 switch~;
#X obj 52 145 outlet~;
#X obj 261 41 inlet switch;
#X obj 125 36 inlet~;
#X obj 130 145 outlet~;
#X connect 0 0 2 0;
#X connect 3 0 1 0;
#X connect 4 0 5 0;
#X coords 0 0 1 1 80 50 0;
#X restore 149 581 pd switch;
#X obj 252 561 == 0;
#X obj 297 506 r \$1-plfsmain;
#N canvas 0 0 399 213 switch 0;
#X obj 47 36 inlet~;
#X obj 265 144 switch~;
#X obj 52 145 outlet~;
#X obj 261 41 inlet switch;
#X obj 125 36 inlet~;
#X obj 130 145 outlet~;
#X connect 0 0 2 0;
#X connect 3 0 1 0;
#X connect 4 0 5 0;
#X coords 0 0 1 1 80 50 0;
#X restore 334 565 pd switch;
#X obj 58 640 outlet~ left;
#X obj 194 645 outlet~ right;
#X obj 130 446 readsf~ 2;
#X obj 137 516 *~;
#X obj 365 424 pack f 50;
#X obj 362 446 line~;
#X obj 366 399 r \$1-plfslev;
#X obj 202 516 *~;
#X obj 602 71 s \$1-plfrlev;
#X obj 28 214 r \$1-plfsopen;
#X obj 160 262 t b b;
#X obj 247 385 spigot;
#X obj 291 359 r \$1-plfsloop;
#X obj 602 20 inlet level;
#X obj 603 46 / 127;
#N canvas 591 155 573 280 samplespresets 0;
#X obj 29 33 r savepreset;
#X obj 256 123 symbol;
#X obj 224 76 inlet namesample;
#X obj 55 188 s fromfiles;
#X obj 33 117 symbol;
#X obj 30 63 f \$1;
#X obj 54 150 pack s s;
#X text 256 153 zie uitleg in presets abstraction;
#X text 33 232 samfile wordt plffile (play-file) of sapfile (sampler
file);
#X text 113 92 !!! aanpassen;
#X msg 29 90 \$1-plffile;
#X connect 0 0 5 0;
#X connect 2 0 6 1;
#X connect 4 0 6 0;
#X connect 5 0 10 0;
#X connect 6 0 3 0;
#X connect 10 0 4 0;
#X restore 17 478 pd samplespresets;
#X obj 55 271 r \$1-plffile;
#X obj 9 400 s \$1-plfrsym;
#X obj 55 309 symbol;
#X obj 564 482 bng 15 250 50 0 empty empty empty 17 7 0 10 -262144
-1 -1;
#X obj 555 603 pack s s;
#X obj 576 513 f \$1;
#N canvas 206 223 806 394 list-12s 0;
#X text 74 4 subpatch based on the abstraction list-12s from list-abs
;
#X msg 327 196 set %s;
#X obj 235 244 t a;
#X obj 118 252 makefilename %s;
#X obj 96 62 t b a b;
#X obj 96 283 symbol;
#X msg 142 22 a b c d 1 2;
#X obj 118 158 route symbol float;
#X obj 118 186 symbol;
#X obj 178 190 makefilename %d;
#X obj 96 21 inlet;
#X obj 96 313 outlet;
#X obj 395 192 makefilename 1%s%%s;
#X msg 395 228 set set \, adddollsym \$1;
#X msg 235 265 set \$1 %s;
#N canvas 0 0 537 411 drip 0;
#X obj 64 206 list split 1;
#X obj 64 123 until;
#X obj 64 181 list append;
#X obj 194 206 bang;
#X text 146 90 First store list \, then start the loop;
#X text 163 118 "until" bangs its output until told to stop by a "bang"
to its right inlet.;
#X text 182 160 Store the remaining list.;
#X text 239 205 third outlet of "split" tells us to stop.;
#X obj 64 243 outlet;
#X obj 64 57 inlet;
#X text 237 44 From list-help.pd;
#X obj 143 243 outlet;
#X obj 64 86 t b a;
#X connect 0 0 8 0;
#X connect 0 1 2 1;
#X connect 0 2 3 0;
#X connect 0 2 11 0;
#X connect 1 0 2 0;
#X connect 2 0 0 0;
#X connect 3 0 1 1;
#X connect 9 0 12 0;
#X connect 12 0 1 0;
#X connect 12 1 2 1;
#X restore 118 123 pd drip;
#X obj 503 100 makefilename %c;
#X msg 503 78 32;
#X text 539 79 SPACE as ascii;
#X obj 503 54 loadbang;
#X obj 395 165 symbol;
#X connect 1 0 3 0;
#X connect 2 0 14 0;
#X connect 3 0 2 0;
#X connect 3 0 5 1;
#X connect 4 0 5 0;
#X connect 4 1 15 0;
#X connect 4 2 1 0;
#X connect 5 0 11 0;
#X connect 6 0 4 0;
#X connect 7 0 8 0;
#X connect 7 1 9 0;
#X connect 8 0 3 0;
#X connect 9 0 3 0;
#X connect 10 0 4 0;
#X connect 12 0 13 0;
#X connect 13 0 14 0;
#X connect 14 0 3 0;
#X connect 15 0 7 0;
#X connect 16 0 20 0;
#X connect 17 0 16 0;
#X connect 19 0 17 0;
#X connect 20 0 12 0;
#X restore 556 572 pd list-12s;
#X msg 556 637 \$1 \$2;
#X text 605 637 verwijdert 'symbol' bij printen...;
#X msg 565 538 used file in [play-file \$1]:;
#X obj 643 256 f \$1;
#X obj 639 308 symbol;
#X msg 639 333 \; \$1 vis 1;
#X obj 641 223 r \$1-plfsextraoptions;
#X obj 582 464 r printallsoundfiles;
#X msg 640 282 pd-\$1-extraplayfile;
#N canvas 797 103 381 223 \$1-extraplayfile 0;
#X obj 16 18 bng 15 250 50 0 \$1-plfprintsoundfiles empty print_opened_sound_file
17 7 0 10 -262144 -1 -1;
#X text 58 37 (in this play-file object);
#X obj 16 68 bng 15 250 50 0 printallsoundfiles empty print_all_opened_sound_file
17 7 0 10 -262144 -1 -1;
#X text 58 87 (in this and other opened objects);
#X obj 20 165 bng 15 250 50 0 printreceives empty print_all_receives
17 7 0 10 -262144 -1 -1;
#X obj 19 116 bng 15 250 50 0 \$1-plfprintreceives empty print_names_of_receives
17 7 0 10 -262144 -1 -1;
#X text 78 184 (of all objects in open files);
#X text 77 135 (of this 'play-file' object);
#X restore 475 300 pd \$1-extraplayfile;
#X obj 547 673 print ....;
#X obj 600 484 r \$1-plfprintsoundfiles;
#N canvas 315 54 841 427 printallreceives 0;
#X obj 35 63 f \$1;
#X obj 33 6 bng 15 250 50 0 empty empty empty 17 7 0 10 -262144 -1
-1;
#X obj 36 87 t f f;
#X obj 166 21 r \$1-plfprintreceives;
#X obj 92 136 print start;
#X obj 49 370 print end;
#X msg 91 109 names of receives in [play-file \$1]...................>>
;
#X msg 48 344 <<.........................................[play-file
\$1];
#X obj 10 21 r printreceives;
#X obj 70 173 t f f f f f f f f f;
#X obj 92 136 print start;
#X obj 119 283 print level[0-1];
#X obj 334 288 print loop[0-1];
#X obj 661 156 print play[1];
#X obj 650 208 print stop[1];
#X obj 543 238 print main_out[0-1];
#X msg 658 130 \$1-plfrplay;
#X msg 647 182 \$1-plfrstop;
#X msg 542 215 \$1-plfrmain;
#X msg 339 260 \$1-plfrloop;
#X msg 120 257 \$1-plfrlev;
#X connect 0 0 2 0;
#X connect 1 0 0 0;
#X connect 2 0 9 0;
#X connect 2 1 6 0;
#X connect 3 0 0 0;
#X connect 6 0 4 0;
#X connect 7 0 5 0;
#X connect 8 0 0 0;
#X connect 9 0 7 0;
#X connect 9 3 20 0;
#X connect 9 4 19 0;
#X connect 9 6 18 0;
#X connect 9 7 17 0;
#X connect 9 8 16 0;
#X connect 16 0 13 0;
#X connect 17 0 14 0;
#X connect 18 0 15 0;
#X connect 19 0 12 0;
#X connect 20 0 11 0;
#X restore 465 323 pd printallreceives;
#N canvas 335 33 859 875 foutmelding 0;
#X obj 87 38 loadbang;
#X obj 79 83 f \$1;
#X obj 73 111 select 0;
#X msg 75 197 \; \$1 vis 1;
#X msg 74 142 36;
#X text 151 150 ascii-code voor $;
#X text 197 199 als er geen argument is \, noemt de subpatch vreemd
genoeg niet pd 0-warning maar wel pd \$1-warning;
#X text 129 80 als er geen argument is geeft f \$1 een 0;
#X obj 154 336 del 100;
#X msg 319 355 1;
#X obj 238 405 spigot;
#X obj 342 453 spigot;
#X obj 409 425 == 0;
#X obj 338 423 r play-file;
#X obj 240 489 s play-file;
#X obj 208 305 t b b b;
#X obj 314 389 t f f;
#X obj 241 429 del 150;
#X obj 239 460 f \$1;
#X msg 169 357 0;
#X obj 378 506 == \$1;
#X obj 455 604 > 1;
#X obj 341 478 t f f;
#X obj 391 568 f 0;
#X obj 390 538 select 1;
#X obj 330 541 spigot;
#X obj 459 569 + 1;
#X obj 336 602 == \$1;
#X obj 396 628 &&;
#X obj 158 628 print pop;
#X text 487 604 groter dan 1 want vergelijking et zichzelf levert sowieso
al 1 op en dan met ev. zelfde object met identiek argument levert 2
op!;
#X obj 396 656 select 1;
#X obj 396 678 f \$1;
#X obj 398 768 symbol;
#X msg 396 795 \; \$1 vis 1;
#X obj 363 706 t f f;
#X obj 92 820 symbol;
#X obj 170 872 print;
#X obj 326 662 bng 15 250 50 0 empty empty empty 17 7 0 10 -262144
-1 -1;
#X msg 173 839 !!! these two abunch objects have the same argument
number: [play-file \$1];
#X text 406 346 alleen net gecreerde object verstuurt waarde;
#X text 398 372 bij eerder gemaakte objecten staat spigot voor receive
open;
#N canvas 670 470 308 138 \$1-play-filewarning 0;
#X obj -1 0 cnv 15 320 150 empty empty empty 20 12 0 14 -258699 -66577
0;
#X text 11 32 You forgot to add an unique number;
#X text 11 78 when you created this abunch object;
#X restore 349 165 pd \$1-play-filewarning;
#N canvas 856 445 327 127 \$1-play-filesameargument 0;
#X obj -1 0 cnv 15 330 150 empty empty empty 20 12 0 14 -258699 -66577
0;
#X msg 393 108;
#X text 314 243 is used already!!;
#X obj 344 35 inlet;
#X symbolatom 351 77 10 0 0 0 - - -;
#X obj 98 40 cnv 15 60 20 empty empty empty 20 12 0 14 -233017 -66577
0;
#X text 24 40 Create an unique number for this;
#X text 102 69 abunch object.;
#X connect 3 0 1 0;
#X connect 3 0 4 0;
#X restore 541 770 pd \$1-play-filesameargument;
#X msg 397 738 pd-\$1-play-filesameargument;
#X obj 74 171 makefilename pd-%c1-play-filewarning;
#X connect 0 0 1 0;
#X connect 0 0 15 0;
#X connect 1 0 2 0;
#X connect 2 0 4 0;
#X connect 4 0 45 0;
#X connect 8 0 19 0;
#X connect 9 0 16 0;
#X connect 10 0 17 0;
#X connect 11 0 22 0;
#X connect 12 0 11 1;
#X connect 13 0 11 0;
#X connect 15 0 8 0;
#X connect 15 1 10 0;
#X connect 15 2 9 0;
#X connect 16 0 10 1;
#X connect 16 1 12 0;
#X connect 17 0 18 0;
#X connect 18 0 14 0;
#X connect 19 0 16 0;
#X connect 20 0 24 0;
#X connect 20 0 25 1;
#X connect 21 0 28 1;
#X connect 22 0 25 0;
#X connect 22 1 20 0;
#X connect 23 0 26 0;
#X connect 24 0 23 0;
#X connect 25 0 27 0;
#X connect 26 0 23 1;
#X connect 26 0 21 0;
#X connect 27 0 28 0;
#X connect 28 0 31 0;
#X connect 31 0 32 0;
#X connect 32 0 35 0;
#X connect 33 0 34 0;
#X connect 35 0 44 0;
#X connect 35 1 39 0;
#X connect 38 0 32 0;
#X connect 39 0 37 0;
#X connect 44 0 33 0;
#X connect 45 0 3 0;
#X restore 490 347 pd foutmelding;
#N canvas 588 137 460 456 showtime 0;
#X obj 60 29 inlet play;
#X obj 175 35 inlet stop;
#X obj 67 177 f 0;
#X obj 113 177 + 1;
#X obj 168 263 f 0;
#X obj 205 265 + 1;
#X obj 230 294 mod 60;
#X obj 321 397 s \$1-plfrmin;
#X obj 180 393 s \$1-plfrsec;
#X obj 69 357 s \$1-plfrms;
#X msg 178 101 0;
#X obj 64 134 metro 100;
#X obj 114 212 mod 10;
#X obj 115 238 select 0;
#X obj 60 81 spigot;
#X obj 177 75 spigot;
#X obj 286 38 r \$1-plfstmon;
#X obj 286 346 f 0;
#X obj 324 348 + 1;
#X obj 244 320 sel 0;
#X msg 413 347 0;
#X connect 0 0 14 0;
#X connect 0 0 20 0;
#X connect 1 0 15 0;
#X connect 2 0 3 0;
#X connect 3 0 2 1;
#X connect 3 0 12 0;
#X connect 4 0 5 0;
#X connect 5 0 4 1;
#X connect 5 0 6 0;
#X connect 6 0 8 0;
#X connect 6 0 19 0;
#X connect 10 0 2 1;
#X connect 10 0 4 1;
#X connect 10 0 11 0;
#X connect 10 0 17 1;
#X connect 11 0 2 0;
#X connect 12 0 13 0;
#X connect 12 0 9 0;
#X connect 13 0 4 0;
#X connect 14 0 11 0;
#X connect 15 0 10 0;
#X connect 16 0 15 1;
#X connect 16 0 14 1;
#X connect 17 0 18 0;
#X connect 18 0 17 1;
#X connect 18 0 7 0;
#X connect 19 0 17 0;
#X connect 20 0 7 0;
#X connect 20 0 8 0;
#X restore 270 304 pd showtime;
#X obj 448 45 > 0;
#N canvas 577 360 566 199 needsound 0;
#X obj 22 34 r soundfileyesno;
#X obj 22 138 s answersoundfile;
#X text 63 65 0 = this abunch object doesn't need a sound file (store
in a preset file) \, 1 = it does;
#X msg 18 67 1;
#X connect 0 0 3 0;
#X connect 3 0 1 0;
#X restore 515 273 pd needsound;
#X obj 826 238 loadbang;
#X msg 825 272 \; pd dsp 0 \; pd dsp 1;
#X text 825 216 because of dsp-graph bug in Pd...;
#X obj 204 471 t b b;
#N canvas 584 20 600 300 init-presets 0;
#X obj 130 61 r \$1-plfslev;
#X obj 180 242 s \$1-plfrlev;
#X obj 295 242 s \$1-plfrmain;
#X obj 372 138 loadbang;
#X msg 338 167 0.6;
#X msg 388 166 0;
#N canvas 263 103 1004 568 save_preset_array 0;
#X obj 19 403 inlet gui1;
#X obj 112 405 inlet gui2;
#X obj 197 403 inlet gui3;
#X obj 290 405 inlet gui4;
#X obj 204 438 f;
#X obj 285 440 f;
#X obj 25 443 f;
#X obj 106 445 f;
#X obj 83 109 until;
#X obj 62 173 + 1;
#X floatatom 101 291 5 0 0 0 - - -;
#X obj 89 142 f 0;
#X obj 79 42 bng 15 250 50 0 empty empty empty 17 7 0 10 -262144 -1
-1;
#X obj 60 332 select 1 2 3 4 5 6 7 8 9 10;
#X obj 571 505 r openpreset;
#X obj 165 12 r savepreset;
#X obj 276 818 outlet gui1;
#X obj 377 817 outlet gui2;
#X obj 474 820 outlet gui3;
#X obj 580 815 outlet gui4;
#X obj 495 598 until;
#X obj 472 657 + 1;
#X obj 499 626 f 0;
#N canvas 52 160 1052 302 router_1inxout 0;
#X obj 231 27 inlet one;
#X obj 339 23 inlet route123;
#X obj 35 211 outlet one;
#X obj 124 210 outlet two;
#X obj 218 211 outlet three;
#X obj 323 211 outlet four;
#X obj 415 210 outlet five;
#X obj 510 211 outlet six;
#X obj 599 210 outlet seven;
#X obj 700 213 outlet eigth;
#X obj 805 212 outlet nine;
#X obj 897 211 outlet ten;
#X obj 360 124 route 1 2 3 4 5 6 7 8 9 10;
#X obj 361 83 pack;
#X obj 296 57 mod 12;
#X connect 0 0 14 0;
#X connect 1 0 13 1;
#X connect 12 0 2 0;
#X connect 12 1 3 0;
#X connect 12 2 4 0;
#X connect 12 3 5 0;
#X connect 12 4 6 0;
#X connect 12 5 7 0;
#X connect 12 6 8 0;
#X connect 12 7 9 0;
#X connect 12 8 10 0;
#X connect 12 9 11 0;
#X connect 13 0 12 0;
#X connect 14 0 13 0;
#X restore 459 776 pd router_1inxout;
#X obj 211 106 f 0;
#X obj 335 24 r presetnr;
#X obj 336 49 * 12;
#X obj 334 72 - 12;
#X obj 587 587 f 0;
#X obj 495 685 t f f;
#X obj 85 201 t f f;
#X obj 736 509 bng 15 250 50 0 empty empty empty 17 7 0 10 -262144
-1 -1;
#N canvas 0 0 450 300 (subpatch) 0;
#X array \$1-plfpreset 240 float 2;
#X coords 0 200 239 -1 200 140 1;
#X restore 524 132 graph;
#X floatatom 419 697 5 0 0 0 - - -;
#X floatatom 416 776 5 0 0 0 - - -;
#X obj 66 240 mod 12;
#X text 386 60 -> !!! per 12;
#X text 130 240 -> !!! per 12;
#X text 612 775 -> !!! hierin ook per 12;
#X msg 133 82 12;
#X text 174 83 -> !!! per 12;
#X text 579 54 max 12 parameters/waarden voor array/presets;
#X obj 302 204 symbol;
#X obj 403 183 symbol;
#X obj 345 245 pack s s;
#X obj 402 153 r namepreset;
#X obj 294 155 f \$1;
#X msg 319 272 \; \$1 write presets/\$2-\$1.txt;
#X obj 170 37 t b b b;
#X obj 716 628 symbol;
#X obj 756 655 pack s s;
#X obj 827 582 r namepreset;
#X obj 662 578 f \$1;
#X obj 819 618 symbol;
#X msg 750 686 \; \$1 read presets/\$2-\$1.txt;
#X obj 570 546 t b b b;
#X msg 293 182 \$1-plfpreset;
#X obj 259 551 tabwrite \$1-plfpreset;
#X msg 675 604 \$1-plfpreset;
#X obj 450 736 tabread \$1-plfpreset;
#X msg 528 575 12;
#X connect 0 0 6 1;
#X connect 1 0 7 1;
#X connect 2 0 4 1;
#X connect 3 0 5 1;
#X connect 4 0 57 0;
#X connect 5 0 57 0;
#X connect 6 0 57 0;
#X connect 7 0 57 0;
#X connect 8 0 11 0;
#X connect 9 0 11 1;
#X connect 9 0 30 0;
#X connect 11 0 9 0;
#X connect 12 0 8 0;
#X connect 13 0 6 0;
#X connect 13 1 7 0;
#X connect 13 2 4 0;
#X connect 13 3 5 0;
#X connect 14 0 55 0;
#X connect 15 0 48 0;
#X connect 20 0 22 0;
#X connect 21 0 22 1;
#X connect 21 0 29 0;
#X connect 21 0 33 0;
#X connect 22 0 21 0;
#X connect 23 0 16 0;
#X connect 23 1 17 0;
#X connect 23 2 18 0;
#X connect 23 3 19 0;
#X connect 24 0 11 1;
#X connect 25 0 26 0;
#X connect 26 0 27 0;
#X connect 27 0 24 1;
#X connect 27 0 28 1;
#X connect 28 0 22 1;
#X connect 29 0 23 0;
#X connect 29 1 59 0;
#X connect 30 0 35 0;
#X connect 30 1 10 0;
#X connect 30 1 57 1;
#X connect 31 0 55 0;
#X connect 35 0 13 0;
#X connect 39 0 8 0;
#X connect 42 0 44 0;
#X connect 43 0 44 1;
#X connect 44 0 47 0;
#X connect 45 0 43 0;
#X connect 46 0 56 0;
#X connect 48 0 46 0;
#X connect 48 1 39 0;
#X connect 48 2 24 0;
#X connect 49 0 50 0;
#X connect 50 0 54 0;
#X connect 51 0 53 0;
#X connect 52 0 58 0;
#X connect 53 0 50 1;
#X connect 55 0 60 0;
#X connect 55 1 28 0;
#X connect 55 2 52 0;
#X connect 56 0 42 0;
#X connect 58 0 49 0;
#X connect 59 0 23 1;
#X connect 59 0 34 0;
#X connect 60 0 20 0;
#X restore 143 141 pd save_preset_array;
#X obj 17 60 r \$1-plfsloop;
#X obj 60 241 s \$1-plfrloop;
#X obj 426 244 s \$1-plfrtmon;
#X text 199 87 show time on/off toggle zit niet in presets;
#X obj 247 56 r \$1-plfsmain;
#X text 445 222 ??;
#X connect 0 0 6 1;
#X connect 3 0 4 0;
#X connect 3 0 5 0;
#X connect 4 0 1 0;
#X connect 5 0 2 0;
#X connect 5 0 9 0;
#X connect 5 0 8 0;
#X connect 6 0 8 0;
#X connect 6 1 1 0;
#X connect 6 2 2 0;
#X connect 7 0 6 0;
#X connect 11 0 6 2;
#X restore 486 244 pd init-presets;
#X obj -4 -6 cnv 15 300 205 empty empty empty 50 12 0 10 -258699 -143491
0;
#X obj 59 28 bng 15 250 50 0 \$1-plfsplay \$1-plfrplay play -5 -6 0
12 -191407 -1 -1;
#X obj 102 28 bng 15 250 50 0 \$1-plfsstop \$1-plfrstop stop -5 -6
0 12 -191407 -1 -1;
#X obj 165 29 tgl 15 0 \$1-plfsmain \$1-plfrmain main_out -15 -6 0
12 -191407 -1 -1 0 65;
#X obj 232 32 vsl 15 100 0 1 0 0 \$1-plfslev \$1-plfrlev level -8 -8
0 12 -191407 -1 -1 7620 1;
#X obj 16 28 bng 15 250 50 0 \$1-plfsopen \$1-plfropen open -5 -6 0
12 -191407 -1 -1;
#X obj 165 85 tgl 15 0 \$1-plfsloop \$1-plfrloop loop -5 -10 0 12 -191407
-1 -1 0 1;
#X obj 177 172 bng 10 250 50 0 \$1-plfsextraoptions empty extra_options
17 7 0 8 -262144 -1 -1;
#X obj 20 70 cnv 15 102 35 empty empty empty 5 12 0 8 -191407 -66577
0;
#X obj 41 83 nbx 3 14 -1e+037 1e+037 0 0 yuyuyuyuo \$1-plfrmin empty
0 -8 0 10 -86277 -260097 -86277 0 256;
#X obj 80 83 nbx 3 14 -1e+037 1e+037 0 0 aaearrr \$1-plfrsec empty
0 -8 0 10 -86277 -260097 -86277 0 256;
#X text 47 66 min;
#X text 84 66 sec;
#X obj 23 83 tgl 15 0 \$1-plfstmon \$1-plfrtmon empty 17 7 0 10 -191407
-1 -1 0 1;
#X obj 1 142 cnv 15 250 20 empty empty empty 20 12 0 14 -86277 -66577
0;
#X symbolatom 7 143 30 0 0 0 - #1-plfrsym hoop;
#N canvas 766 266 450 166 printname 0;
#X obj 54 33 r printallnames;
#X obj 54 87 symbol;
#X obj 54 112 s rallnames;
#X msg 54 62 play-file;
#X connect 0 0 3 0;
#X connect 1 0 2 0;
#X connect 3 0 1 0;
#X restore 822 334 pd printname;
#N canvas 25 386 588 284 presetsnew 0;
#X obj 210 58 r savepresetn;
#X obj 203 119 t b b b;
#N canvas 122 0 1041 709 name-sends-normal 0;
#N canvas 0 0 450 300 (subpatch) 0;
#X array \$1-plfbetween 12 float 2;
#X coords 0 10000 12 -10000 20 20 1;
#X restore 15 236 graph;
#X obj 387 1166 tabwrite \$1-plfbetween;
#X obj 438 235 unpack f f;
#X obj 98 156 pack f 1;
#X obj 135 178 pack f 2;
#X obj 186 200 pack f 3;
#X obj 236 155 pack f 4;
#X obj 273 177 pack f 5;
#X obj 324 199 pack f 6;
#X obj 368 156 pack f 7;
#X obj 405 178 pack f 8;
#X obj 449 199 pack f 9;
#X obj 508 156 pack f 10;
#X obj 545 178 pack f 11;
#X obj 596 199 pack f 12;
#X obj 665 156 pack f 13;
#X obj 702 178 pack f 14;
#X obj 754 201 pack f 15;
#X obj 798 156 pack f 16;
#X obj 835 179 pack f 17;
#X obj 884 203 pack f 18;
#X obj 438 505 unpack f f;
#X obj 98 426 pack f 19;
#X obj 135 448 pack f 20;
#X obj 186 470 pack f 21;
#X obj 236 425 pack f 22;
#X obj 273 447 pack f 23;
#X obj 324 469 pack f 24;
#X obj 368 426 pack f 25;
#X obj 405 448 pack f 26;
#X obj 449 469 pack f 27;
#X obj 508 426 pack f 28;
#X obj 545 448 pack f 29;
#X obj 596 469 pack f 30;
#X obj 665 426 pack f 31;
#X obj 702 448 pack f 32;
#X obj 754 471 pack f 33;
#X obj 798 426 pack f 34;
#X obj 835 449 pack f 35;
#X obj 886 470 pack f 36;
#X obj 438 635 unpack f f;
#X obj 98 556 pack f 37;
#X obj 135 578 pack f 38;
#X obj 186 600 pack f 39;
#X obj 236 555 pack f 40;
#X obj 273 577 pack f 41;
#X obj 324 599 pack f 42;
#X obj 368 556 pack f 43;
#X obj 405 578 pack f 44;
#X obj 449 599 pack f 45;
#X obj 508 556 pack f 46;
#X obj 545 578 pack f 47;
#X obj 596 599 pack f 48;
#X obj 665 556 pack f 49;
#X obj 702 578 pack f 50;
#X obj 754 601 pack f 51;
#X obj 798 556 pack f 52;
#X obj 835 579 pack f 53;
#X obj 886 600 pack f 54;
#X obj 438 755 unpack f f;
#X obj 98 676 pack f 55;
#X obj 135 698 pack f 56;
#X obj 186 720 pack f 57;
#X obj 236 675 pack f 58;
#X obj 273 697 pack f 59;
#X obj 324 719 pack f 60;
#X obj 368 676 pack f 61;
#X obj 405 698 pack f 62;
#X obj 449 719 pack f 63;
#X obj 508 676 pack f 64;
#X obj 545 698 pack f 65;
#X obj 596 719 pack f 66;
#X obj 665 676 pack f 67;
#X obj 702 698 pack f 68;
#X obj 754 721 pack f 69;
#X obj 798 676 pack f 70;
#X obj 835 699 pack f 71;
#X obj 886 720 pack f 72;
#X obj 438 935 unpack f f;
#X obj 98 856 pack f 73;
#X obj 135 878 pack f 74;
#X obj 186 900 pack f 75;
#X obj 236 855 pack f 76;
#X obj 273 877 pack f 77;
#X obj 324 899 pack f 78;
#X obj 368 856 pack f 79;
#X obj 405 878 pack f 80;
#X obj 449 899 pack f 81;
#X obj 508 856 pack f 82;
#X obj 545 878 pack f 83;
#X obj 596 899 pack f 84;
#X obj 665 856 pack f 85;
#X obj 702 878 pack f 86;
#X obj 754 901 pack f 87;
#X obj 801 852 pack f 88;
#X obj 835 879 pack f 89;
#X obj 886 900 pack f 90;
#X obj 438 1135 unpack f f;
#X obj 98 1056 pack f 91;
#X obj 135 1078 pack f 92;
#X obj 186 1100 pack f 93;
#X obj 236 1055 pack f 94;
#X obj 273 1077 pack f 95;
#X obj 324 1099 pack f 96;
#X obj 368 1056 pack f 97;
#X obj 405 1078 pack f 98;
#X obj 449 1099 pack f 99;
#X obj 508 1056 pack f 100;
#X obj 545 1078 pack f 101;
#X obj 596 1099 pack f 102;
#X obj 665 1056 pack f 103;
#X obj 702 1078 pack f 104;
#X obj 754 1101 pack f 105;
#X obj 798 1056 pack f 106;
#X obj 835 1079 pack f 107;
#X obj 886 1100 pack f 108;
#X text 38 238 -> adjust size if necessary (standard size = 109);
#X obj 87 91 r \$1-plfslev;
#X obj 17 60 r \$1-plfsloop;
#X obj 151 117 r \$1-plfsmain;
#X connect 2 0 1 0;
#X connect 2 1 1 1;
#X connect 3 0 2 0;
#X connect 4 0 2 0;
#X connect 5 0 2 0;
#X connect 6 0 2 0;
#X connect 7 0 2 0;
#X connect 8 0 2 0;
#X connect 9 0 2 0;
#X connect 10 0 2 0;
#X connect 11 0 2 0;
#X connect 12 0 2 0;
#X connect 13 0 2 0;
#X connect 14 0 2 0;
#X connect 15 0 2 0;
#X connect 16 0 2 0;
#X connect 17 0 2 0;
#X connect 18 0 2 0;
#X connect 19 0 2 0;
#X connect 20 0 2 0;
#X connect 21 0 1 0;
#X connect 21 1 1 1;
#X connect 22 0 21 0;
#X connect 23 0 21 0;
#X connect 24 0 21 0;
#X connect 25 0 21 0;
#X connect 26 0 21 0;
#X connect 27 0 21 0;
#X connect 28 0 21 0;
#X connect 29 0 21 0;
#X connect 30 0 21 0;
#X connect 31 0 21 0;
#X connect 32 0 21 0;
#X connect 33 0 21 0;
#X connect 34 0 21 0;
#X connect 35 0 21 0;
#X connect 36 0 21 0;
#X connect 37 0 21 0;
#X connect 38 0 21 0;
#X connect 39 0 21 0;
#X connect 40 0 1 0;
#X connect 40 1 1 1;
#X connect 41 0 40 0;
#X connect 42 0 40 0;
#X connect 43 0 40 0;
#X connect 44 0 40 0;
#X connect 45 0 40 0;
#X connect 46 0 40 0;
#X connect 47 0 40 0;
#X connect 48 0 40 0;
#X connect 49 0 40 0;
#X connect 50 0 40 0;
#X connect 51 0 40 0;
#X connect 52 0 40 0;
#X connect 53 0 40 0;
#X connect 54 0 40 0;
#X connect 55 0 40 0;
#X connect 56 0 40 0;
#X connect 57 0 40 0;
#X connect 58 0 40 0;
#X connect 59 0 1 0;
#X connect 59 1 1 1;
#X connect 60 0 59 0;
#X connect 61 0 59 0;
#X connect 62 0 59 0;
#X connect 63 0 59 0;
#X connect 64 0 59 0;
#X connect 65 0 59 0;
#X connect 66 0 59 0;
#X connect 67 0 59 0;
#X connect 68 0 59 0;
#X connect 69 0 59 0;
#X connect 70 0 59 0;
#X connect 71 0 59 0;
#X connect 72 0 59 0;
#X connect 73 0 59 0;
#X connect 74 0 59 0;
#X connect 75 0 59 0;
#X connect 76 0 59 0;
#X connect 77 0 59 0;
#X connect 78 0 1 0;
#X connect 78 1 1 1;
#X connect 79 0 78 0;
#X connect 80 0 78 0;
#X connect 81 0 78 0;
#X connect 82 0 78 0;
#X connect 83 0 78 0;
#X connect 84 0 78 0;
#X connect 85 0 78 0;
#X connect 86 0 78 0;
#X connect 87 0 78 0;
#X connect 88 0 78 0;
#X connect 89 0 78 0;
#X connect 90 0 78 0;
#X connect 91 0 78 0;
#X connect 92 0 78 0;
#X connect 93 0 78 0;
#X connect 94 0 78 0;
#X connect 95 0 78 0;
#X connect 96 0 78 0;
#X connect 97 0 1 0;
#X connect 97 1 1 1;
#X connect 98 0 97 0;
#X connect 99 0 97 0;
#X connect 100 0 97 0;
#X connect 101 0 97 0;
#X connect 102 0 97 0;
#X connect 103 0 97 0;
#X connect 104 0 97 0;
#X connect 105 0 97 0;
#X connect 106 0 97 0;
#X connect 107 0 97 0;
#X connect 108 0 97 0;
#X connect 109 0 97 0;
#X connect 110 0 97 0;
#X connect 111 0 97 0;
#X connect 112 0 97 0;
#X connect 113 0 97 0;
#X connect 114 0 97 0;
#X connect 115 0 97 0;
#X connect 117 0 4 0;
#X connect 118 0 3 0;
#X connect 119 0 5 0;
#X restore 75 27 pd name-sends-normal;
#X obj 223 196 s toextfile;
#N canvas 468 163 544 416 symbols 0;
#N canvas 16 62 1169 612 name-sends-symbols 0;
#N canvas 29 36 666 614 vtextfile 0;
#X obj 71 251 textfile;
#X obj 386 527 outlet;
#X obj 129 327 send;
#X msg 168 58 print;
#X obj 370 392 select empty;
#N canvas 366 166 700 363 rline 0;
#X obj 96 240 outlet;
#X obj 302 170 outlet;
#X msg 199 113 rewind;
#X obj 141 84 until;
#X obj 174 148 f 0;
#X obj 212 150 + 1;
#X obj 121 110 t b b;
#X msg 229 84 0;
#X obj 276 223 ==;
#X obj 362 278 spigot;
#X obj 303 144 symbol;
#X obj 123 9 inlet;
#X obj 362 303 outlet read;
#X obj 512 282 outlet set;
#X obj 124 41 t f f f b;
#X obj 304 85 f \$0;
#X msg 304 111 \$1-rline;
#X obj 362 235 r \$0-rline;
#X connect 2 0 0 0;
#X connect 3 0 6 0;
#X connect 4 0 5 0;
#X connect 5 0 4 1;
#X connect 5 0 8 0;
#X connect 6 0 0 0;
#X connect 6 1 4 0;
#X connect 7 0 4 1;
#X connect 8 0 9 1;
#X connect 9 0 12 0;
#X connect 10 0 1 0;
#X connect 11 0 14 0;
#X connect 14 1 3 0;
#X connect 14 2 8 1;
#X connect 14 2 13 0;
#X connect 14 3 2 0;
#X connect 14 3 7 0;
#X connect 14 3 15 0;
#X connect 15 0 16 0;
#X connect 16 0 10 0;
#X connect 17 0 9 0;
#X restore 186 149 pd rline;
#X obj 291 284 list split 1;
#X obj 337 312 t l l;
#X obj 294 473 spigot;
#X obj 463 417 bang;
#X msg 463 442 1;
#X msg 340 421 0;
#X obj 403 488 list trim;
#N canvas 71 26 1099 687 wline 0;
#X obj 113 805 outlet;
#X obj 671 444 outlet;
#X msg 382 348 rewind;
#X obj 671 416 symbol;
#X obj 325 774 textfile;
#X msg 499 381 clear;
#X obj 200 462 f 0;
#X obj 241 466 + 1;
#X obj 157 436 t b b;
#X obj 176 405 until;
#X msg 220 428 0;
#X obj 509 545 ==;
#X obj 136 629 list prepend add;
#X obj 138 604 spigot;
#X obj 440 583 spigot;
#X obj 442 623 bang;
#X msg 132 465 rewind;
#X obj 60 601 until;
#X msg 21 636 clear;
#X obj 325 799 list prepend add;
#X obj 135 655 list trim;
#X obj 325 824 list trim;
#X text 168 809 to main textfile;
#X obj 884 99 inlet bang;
#X text 786 38 bang at end from main textfile;
#X obj 57 3 inlet;
#X obj 747 481 outlet set;
#X obj 440 652 list;
#X obj 440 702 list prepend add;
#X obj 440 727 list trim;
#X obj 222 524 <;
#X obj 344 540 >;
#X obj 281 692 list prepend add;
#X obj 278 590 spigot;
#X obj 280 718 list trim;
#X obj 276 618 list split 1;
#X obj 279 650 list prepend;
#X text 605 519 smaller than: copy;
#X text 606 532 equal: overwrite;
#X text 604 548 bigger than: update line number;
#X obj 689 310 until;
#X obj 253 60 f 0;
#X obj 255 92 + 1;
#X obj 695 213 t b b b;
#X text 682 188 find length of textfile;
#X obj 170 379 max;
#X obj 67 122 t b b f a f b b;
#X text 344 97 -> length of textfile;
#X msg 757 244 0;
#X obj 256 34 bang;
#X obj 166 347 t f f;
#X obj 696 688 >;
#X obj 640 710 spigot;
#X msg 631 836 add \$1 empty;
#X obj 646 768 ==;
#X obj 597 797 spigot;
#X obj 629 659 t f f f;
#X obj 677 797 spigot;
#X obj 726 770 == 0;
#X text 714 512 if newline number is bigger than the textfile length
;
#X obj 257 123 f;
#X obj 672 732 t f f;
#X obj 759 353 f \$0;
#X msg 759 383 \$1-wline1;
#X obj 680 350 f \$0;
#X msg 676 383 \$1-wline2;
#X obj 253 6 r \$0-wline1;
#X obj 177 549 r \$0-wline2;
#X connect 2 0 0 0;
#X connect 3 0 1 0;
#X connect 4 0 19 0;
#X connect 4 1 17 1;
#X connect 5 0 4 0;
#X connect 6 0 7 0;
#X connect 7 0 6 1;
#X connect 7 0 11 0;
#X connect 7 0 30 0;
#X connect 7 0 31 0;
#X connect 7 0 36 1;
#X connect 7 0 56 0;
#X connect 8 0 0 0;
#X connect 8 1 6 0;
#X connect 9 0 8 0;
#X connect 10 0 6 1;
#X connect 11 0 14 1;
#X connect 12 0 20 0;
#X connect 13 0 12 0;
#X connect 14 0 15 0;
#X connect 15 0 27 0;
#X connect 16 0 4 0;
#X connect 17 0 4 0;
#X connect 18 0 0 0;
#X connect 19 0 21 0;
#X connect 20 0 4 0;
#X connect 21 0 0 0;
#X connect 23 0 40 1;
#X connect 25 0 46 0;
#X connect 27 0 28 0;
#X connect 28 0 29 0;
#X connect 29 0 4 0;
#X connect 30 0 13 1;
#X connect 31 0 33 1;
#X connect 32 0 34 0;
#X connect 33 0 35 0;
#X connect 34 0 4 0;
#X connect 35 1 36 0;
#X connect 36 0 32 0;
#X connect 40 0 0 0;
#X connect 41 0 42 0;
#X connect 42 0 41 1;
#X connect 42 0 60 0;
#X connect 43 0 60 0;
#X connect 43 1 40 0;
#X connect 43 2 48 0;
#X connect 43 2 2 0;
#X connect 43 2 62 0;
#X connect 45 0 9 0;
#X connect 46 0 17 0;
#X connect 46 1 16 0;
#X connect 46 1 18 0;
#X connect 46 2 50 0;
#X connect 46 3 27 1;
#X connect 46 4 30 1;
#X connect 46 4 11 1;
#X connect 46 4 31 1;
#X connect 46 4 26 0;
#X connect 46 4 54 1;
#X connect 46 5 2 0;
#X connect 46 5 64 0;
#X connect 46 6 5 0;
#X connect 46 6 10 0;
#X connect 46 6 43 0;
#X connect 48 0 41 1;
#X connect 48 0 60 1;
#X connect 49 0 41 0;
#X connect 50 0 45 0;
#X connect 51 0 52 1;
#X connect 52 0 61 0;
#X connect 53 0 0 0;
#X connect 54 0 55 1;
#X connect 54 0 58 0;
#X connect 55 0 15 0;
#X connect 56 1 52 0;
#X connect 56 2 51 0;
#X connect 57 0 53 0;
#X connect 58 0 57 1;
#X connect 60 0 45 1;
#X connect 60 0 51 1;
#X connect 61 0 57 0;
#X connect 61 0 55 0;
#X connect 61 1 54 0;
#X connect 62 0 63 0;
#X connect 63 0 3 0;
#X connect 64 0 65 0;
#X connect 65 0 3 0;
#X connect 66 0 49 0;
#X connect 67 0 13 0;
#X connect 67 0 14 0;
#X connect 67 0 33 0;
#X restore 104 150 pd wline;
#X obj 150 91 route wline rline;
#X obj 150 31 inlet;
#X obj 291 254 t l l;
#X obj 568 511 outlet end;
#X obj 68 394 spigot;
#X obj 186 330 inlet;
#X msg 95 333 0;
#X msg 186 359 1;
#X obj 373 358 list split 1;
#X obj 357 36 loadbang;
#X obj 357 86 until;
#X obj 357 111 f 0;
#X obj 357 136 + 1;
#X obj 442 35 bng 15 250 50 0 empty empty empty 17 7 0 10 -262144 -1
-1;
#X text 403 61 -> initial size!! adjust!!;
#X msg 357 161 add \$1 kxpqwmk;
#X text 352 184 'kxpqwmk' is interpreted in every abunch file as an
'empty' symbol (message 'no symbol);
#X obj 357 61 f 3;
#X connect 0 0 2 0;
#X connect 0 0 18 0;
#X connect 0 1 13 1;
#X connect 0 1 17 0;
#X connect 0 1 20 0;
#X connect 3 0 14 0;
#X connect 4 0 11 0;
#X connect 4 1 9 0;
#X connect 5 0 0 0;
#X connect 5 1 2 1;
#X connect 5 2 16 0;
#X connect 6 1 7 0;
#X connect 7 0 8 0;
#X connect 7 1 22 0;
#X connect 8 0 12 0;
#X connect 8 0 1 0;
#X connect 9 0 10 0;
#X connect 10 0 8 1;
#X connect 11 0 8 1;
#X connect 13 0 0 0;
#X connect 13 1 2 1;
#X connect 14 0 13 0;
#X connect 14 1 5 0;
#X connect 14 2 0 0;
#X connect 15 0 14 0;
#X connect 16 0 6 0;
#X connect 18 0 16 0;
#X connect 19 0 21 0;
#X connect 20 0 18 1;
#X connect 21 0 18 1;
#X connect 22 0 4 0;
#X connect 23 0 31 0;
#X connect 24 0 25 0;
#X connect 25 0 26 0;
#X connect 26 0 29 0;
#X connect 26 0 25 1;
#X connect 27 0 31 0;
#X connect 29 0 0 0;
#X connect 31 0 24 0;
#X restore 127 211 pd vtextfile;
#X obj 27 84 inlet;
#X msg 41 142 print;
#X obj 132 115 list prepend wline 1;
#X obj 469 265 list trim;
#X obj 222 238 outlet end-bang;
#X obj 218 183 inlet;
#X obj 127 253 outlet;
#X obj 169 137 list prepend wline 2;
#X obj 179 157 list prepend wline 3;
#X obj 322 115 list prepend wline 4;
#X obj 359 137 list prepend wline 5;
#X obj 369 157 list prepend wline 6;
#X obj 502 115 list prepend wline 7;
#X obj 539 137 list prepend wline 8;
#X obj 549 157 list prepend wline 9;
#X obj 692 115 list prepend wline 10;
#X obj 729 137 list prepend wline 11;
#X obj 739 157 list prepend wline 12;
#X obj 872 115 list prepend wline 13;
#X obj 909 137 list prepend wline 14;
#X obj 919 157 list prepend wline 15;
#X obj 132 375 list prepend wline 16;
#X obj 169 397 list prepend wline 17;
#X obj 179 417 list prepend wline 18;
#X obj 322 375 list prepend wline 19;
#X obj 359 397 list prepend wline 20;
#X obj 369 417 list prepend wline 21;
#X obj 502 375 list prepend wline 22;
#X obj 539 397 list prepend wline 23;
#X obj 549 417 list prepend wline 24;
#X obj 692 375 list prepend wline 25;
#X obj 729 397 list prepend wline 26;
#X obj 739 417 list prepend wline 27;
#X obj 872 375 list prepend wline 28;
#X obj 909 397 list prepend wline 29;
#X obj 919 417 list prepend wline 30;
#X obj 132 485 list prepend wline 31;
#X obj 169 507 list prepend wline 32;
#X obj 179 527 list prepend wline 33;
#X obj 322 485 list prepend wline 34;
#X obj 359 507 list prepend wline 35;
#X obj 369 527 list prepend wline 36;
#X obj 502 485 list prepend wline 37;
#X obj 539 507 list prepend wline 38;
#X obj 549 527 list prepend wline 39;
#X obj 692 485 list prepend wline 40;
#X obj 729 507 list prepend wline 41;
#X obj 739 527 list prepend wline 42;
#X obj 872 485 list prepend wline 43;
#X obj 909 507 list prepend wline 44;
#X obj 919 527 list prepend wline 45;
#X obj 590 458 list trim;
#X obj 636 575 list trim;
#X text 87 46 !! -> symbol (send) names in this abunch object;
#X obj 131 88 r \$1-plfrsym;
#X connect 0 0 7 0;
#X connect 0 1 5 0;
#X connect 1 0 0 0;
#X connect 2 0 0 0;
#X connect 3 0 4 0;
#X connect 4 0 0 0;
#X connect 6 0 0 1;
#X connect 8 0 4 0;
#X connect 9 0 4 0;
#X connect 10 0 4 0;
#X connect 11 0 4 0;
#X connect 12 0 4 0;
#X connect 13 0 4 0;
#X connect 14 0 4 0;
#X connect 15 0 4 0;
#X connect 16 0 4 0;
#X connect 17 0 4 0;
#X connect 18 0 4 0;
#X connect 19 0 4 0;
#X connect 20 0 4 0;
#X connect 21 0 4 0;
#X connect 22 0 52 0;
#X connect 23 0 52 0;
#X connect 24 0 52 0;
#X connect 25 0 52 0;
#X connect 26 0 52 0;
#X connect 27 0 52 0;
#X connect 28 0 52 0;
#X connect 29 0 52 0;
#X connect 30 0 52 0;
#X connect 31 0 52 0;
#X connect 32 0 52 0;
#X connect 33 0 52 0;
#X connect 34 0 52 0;
#X connect 35 0 52 0;
#X connect 36 0 52 0;
#X connect 37 0 53 0;
#X connect 38 0 53 0;
#X connect 39 0 53 0;
#X connect 40 0 53 0;
#X connect 41 0 53 0;
#X connect 42 0 53 0;
#X connect 43 0 53 0;
#X connect 44 0 53 0;
#X connect 45 0 53 0;
#X connect 46 0 53 0;
#X connect 47 0 53 0;
#X connect 48 0 53 0;
#X connect 49 0 53 0;
#X connect 50 0 53 0;
#X connect 52 0 0 0;
#X connect 53 0 0 0;
#X connect 55 0 3 0;
#X restore 189 116 pd name-sends-symbols;
#X obj 227 51 t b b;
#X obj 190 89 until;
#X msg 249 89 rewind;
#X obj 219 13 bng 15 250 50 0 empty empty empty 17 7 0 10 -262144 -1
-1;
#X obj 309 218 f \$1;
#X obj 207 298 symbol;
#X obj 207 242 pack s f;
#X msg 207 269 \$2-\$1;
#X msg 210 216 plfry\$1;
#X msg 395 116 0;
#X obj 214 175 f 0;
#X obj 253 175 + 1;
#X obj 53 298 list prepend add2;
#X obj 53 323 list trim;
#X obj 177 139 t l b;
#X obj 267 14 inlet;
#X obj 199 365 outlet;
#X text 120 113 !!->;
#X msg 207 324 add2 () sym 0 0 \$1;
#X connect 0 0 15 0;
#X connect 0 1 2 1;
#X connect 1 0 2 0;
#X connect 1 1 0 1;
#X connect 1 1 3 0;
#X connect 1 1 10 0;
#X connect 1 1 5 0;
#X connect 2 0 0 0;
#X connect 3 0 0 0;
#X connect 4 0 1 0;
#X connect 5 0 7 1;
#X connect 6 0 19 0;
#X connect 7 0 8 0;
#X connect 8 0 6 0;
#X connect 9 0 7 0;
#X connect 10 0 11 1;
#X connect 11 0 12 0;
#X connect 12 0 11 1;
#X connect 12 0 9 0;
#X connect 13 0 14 0;
#X connect 14 0 17 0;
#X connect 15 0 13 0;
#X connect 15 1 11 0;
#X connect 16 0 1 0;
#X connect 19 0 17 0;
#X restore 335 154 pd symbols;
#N canvas 636 185 560 404 normal 0;
#X obj 278 134 f \$1;
#X obj 237 278 symbol;
#X obj 42 268 list prepend add2;
#X obj 42 293 list trim;
#X obj 188 51 t b b b b b;
#X obj 154 135 f 0;
#X obj 193 135 + 1;
#X msg 181 103 0;
#X msg 240 196 plfrx\$1;
#X obj 237 222 pack s f;
#X msg 237 249 \$2-\$1;
#X obj 131 102 until;
#X obj 193 161 t f f;
#X obj 21 193 tabread \$1-plfbetween;
#X text 151 77 -> aanpassen! aantal op te slagen floats;
#X obj 180 16 inlet;
#X obj 229 345 outlet;
#X msg 235 311 add2 () norm 0 0 \$1;
#X obj 111 76 f 3;
#X connect 0 0 9 1;
#X connect 1 0 17 0;
#X connect 2 0 3 0;
#X connect 3 0 16 0;
#X connect 4 3 18 0;
#X connect 4 4 0 0;
#X connect 4 4 7 0;
#X connect 5 0 6 0;
#X connect 6 0 5 1;
#X connect 6 0 12 0;
#X connect 7 0 5 1;
#X connect 8 0 9 0;
#X connect 9 0 10 0;
#X connect 10 0 1 0;
#X connect 11 0 5 0;
#X connect 12 0 13 0;
#X connect 12 1 8 0;
#X connect 13 0 2 0;
#X connect 15 0 4 0;
#X connect 17 0 16 0;
#X connect 18 0 11 0;
#X restore 217 153 pd normal;
#X text 179 152 !!->;
#X text 298 154 !!->;
#X text 212 245 !!->;
#N canvas 77 22 1083 302 receive-normal 0;
#X obj 24 26 r \$1-plfrx1;
#X obj 54 46 r \$1-plfrx2;
#X obj 85 66 r \$1-plfrx3;
#X obj 196 19 r \$1-plfrx4;
#X obj 226 39 r \$1-plfrx5;
#X obj 257 59 r \$1-plfrx6;
#X obj 364 16 r \$1-plfrx7;
#X obj 382 37 r \$1-plfrx8;
#X obj 416 58 r \$1-plfrx9;
#X obj 523 33 r \$1-plfrx10;
#X obj 553 53 r \$1-plfrx11;
#X obj 584 73 r \$1-plfrx12;
#X obj 703 33 r \$1-plfrx13;
#X obj 733 53 r \$1-plfrx14;
#X obj 764 73 r \$1-plfrx15;
#X obj 863 33 r \$1-plfrx16;
#X obj 893 53 r \$1-plfrx17;
#X obj 924 73 r \$1-plfrx18;
#X text 667 236 ^ hier aanvullen ^;
#N canvas 30 18 246 218 cmp 0;
#X obj 42 65 list split 1;
#X obj 88 119 ==;
#X obj 43 151 spigot;
#X obj 43 176 outlet;
#X obj 42 28 inlet;
#X obj 110 30 r \$1-plfarg2;
#X connect 0 0 2 0;
#X connect 0 1 1 0;
#X connect 1 0 2 1;
#X connect 2 0 3 0;
#X connect 4 0 0 0;
#X connect 5 0 1 1;
#X restore 22 90 pd cmp;
#N canvas 355 32 246 300 cmp 0;
#X obj 42 65 list split 1;
#X obj 88 119 ==;
#X obj 43 151 spigot;
#X obj 43 176 outlet;
#X obj 42 28 inlet;
#X obj 110 30 r \$1-plfarg2;
#X connect 0 0 2 0;
#X connect 0 1 1 0;
#X connect 1 0 2 1;
#X connect 2 0 3 0;
#X connect 4 0 0 0;
#X connect 5 0 1 1;
#X restore 42 115 pd cmp;
#N canvas 0 0 246 300 cmp 0;
#X obj 42 65 list split 1;
#X obj 88 119 ==;
#X obj 43 151 spigot;
#X obj 43 176 outlet;
#X obj 42 28 inlet;
#X obj 110 30 r \$1-plfarg2;
#X connect 0 0 2 0;
#X connect 0 1 1 0;
#X connect 1 0 2 1;
#X connect 2 0 3 0;
#X connect 4 0 0 0;
#X connect 5 0 1 1;
#X restore 59 143 pd cmp;
#N canvas 0 0 246 300 cmp 0;
#X obj 42 65 list split 1;
#X obj 88 119 ==;
#X obj 43 151 spigot;
#X obj 43 176 outlet;
#X obj 42 28 inlet;
#X obj 110 30 r \$1-plfarg2;
#X connect 0 0 2 0;
#X connect 0 1 1 0;
#X connect 1 0 2 1;
#X connect 2 0 3 0;
#X connect 4 0 0 0;
#X connect 5 0 1 1;
#X restore 172 90 pd cmp;
#N canvas 0 0 246 300 cmp 0;
#X obj 42 65 list split 1;
#X obj 88 119 ==;
#X obj 43 151 spigot;
#X obj 43 176 outlet;
#X obj 42 28 inlet;
#X obj 110 30 r \$1-plfarg2;
#X connect 0 0 2 0;
#X connect 0 1 1 0;
#X connect 1 0 2 1;
#X connect 2 0 3 0;
#X connect 4 0 0 0;
#X connect 5 0 1 1;
#X restore 192 115 pd cmp;
#N canvas 308 15 246 215 cmp 0;
#X obj 42 65 list split 1;
#X obj 88 119 ==;
#X obj 43 151 spigot;
#X obj 43 176 outlet;
#X obj 42 28 inlet;
#X obj 110 30 r \$1-plfarg2;
#X connect 0 0 2 0;
#X connect 0 1 1 0;
#X connect 1 0 2 1;
#X connect 2 0 3 0;
#X connect 4 0 0 0;
#X connect 5 0 1 1;
#X restore 209 143 pd cmp;
#N canvas 0 0 246 300 cmp 0;
#X obj 42 65 list split 1;
#X obj 88 119 ==;
#X obj 43 151 spigot;
#X obj 43 176 outlet;
#X obj 42 28 inlet;
#X obj 110 30 r \$1-plfarg2;
#X connect 0 0 2 0;
#X connect 0 1 1 0;
#X connect 1 0 2 1;
#X connect 2 0 3 0;
#X connect 4 0 0 0;
#X connect 5 0 1 1;
#X restore 362 80 pd cmp;
#N canvas 0 0 246 300 cmp 0;
#X obj 42 65 list split 1;
#X obj 88 119 ==;
#X obj 43 151 spigot;
#X obj 43 176 outlet;
#X obj 42 28 inlet;
#X obj 110 30 r \$1-plfarg2;
#X connect 0 0 2 0;
#X connect 0 1 1 0;
#X connect 1 0 2 1;
#X connect 2 0 3 0;
#X connect 4 0 0 0;
#X connect 5 0 1 1;
#X restore 382 105 pd cmp;
#N canvas 0 0 246 300 cmp 0;
#X obj 42 65 list split 1;
#X obj 88 119 ==;
#X obj 43 151 spigot;
#X obj 43 176 outlet;
#X obj 42 28 inlet;
#X obj 110 30 r \$1-plfarg2;
#X connect 0 0 2 0;
#X connect 0 1 1 0;
#X connect 1 0 2 1;
#X connect 2 0 3 0;
#X connect 4 0 0 0;
#X connect 5 0 1 1;
#X restore 399 133 pd cmp;
#N canvas 0 0 246 300 cmp 0;
#X obj 42 65 list split 1;
#X obj 88 119 ==;
#X obj 43 151 spigot;
#X obj 43 176 outlet;
#X obj 42 28 inlet;
#X obj 110 30 r \$1-plfarg2;
#X connect 0 0 2 0;
#X connect 0 1 1 0;
#X connect 1 0 2 1;
#X connect 2 0 3 0;
#X connect 4 0 0 0;
#X connect 5 0 1 1;
#X restore 542 110 pd cmp;
#N canvas 0 0 246 300 cmp 0;
#X obj 42 65 list split 1;
#X obj 88 119 ==;
#X obj 43 151 spigot;
#X obj 43 176 outlet;
#X obj 42 28 inlet;
#X obj 110 30 r \$1-plfarg2;
#X connect 0 0 2 0;
#X connect 0 1 1 0;
#X connect 1 0 2 1;
#X connect 2 0 3 0;
#X connect 4 0 0 0;
#X connect 5 0 1 1;
#X restore 562 135 pd cmp;
#N canvas 0 0 246 300 cmp 0;
#X obj 42 65 list split 1;
#X obj 88 119 ==;
#X obj 43 151 spigot;
#X obj 43 176 outlet;
#X obj 42 28 inlet;
#X obj 110 30 r \$1-plfarg2;
#X connect 0 0 2 0;
#X connect 0 1 1 0;
#X connect 1 0 2 1;
#X connect 2 0 3 0;
#X connect 4 0 0 0;
#X connect 5 0 1 1;
#X restore 579 163 pd cmp;
#N canvas 0 0 246 300 cmp 0;
#X obj 42 65 list split 1;
#X obj 88 119 ==;
#X obj 43 151 spigot;
#X obj 43 176 outlet;
#X obj 42 28 inlet;
#X obj 110 30 r \$1-plfarg2;
#X connect 0 0 2 0;
#X connect 0 1 1 0;
#X connect 1 0 2 1;
#X connect 2 0 3 0;
#X connect 4 0 0 0;
#X connect 5 0 1 1;
#X restore 692 110 pd cmp;
#N canvas 0 0 246 300 cmp 0;
#X obj 42 65 list split 1;
#X obj 88 119 ==;
#X obj 43 151 spigot;
#X obj 43 176 outlet;
#X obj 42 28 inlet;
#X obj 110 30 r \$1-plfarg2;
#X connect 0 0 2 0;
#X connect 0 1 1 0;
#X connect 1 0 2 1;
#X connect 2 0 3 0;
#X connect 4 0 0 0;
#X connect 5 0 1 1;
#X restore 712 135 pd cmp;
#N canvas 0 0 246 300 cmp 0;
#X obj 42 65 list split 1;
#X obj 88 119 ==;
#X obj 43 151 spigot;
#X obj 43 176 outlet;
#X obj 42 28 inlet;
#X obj 110 30 r \$1-plfarg2;
#X connect 0 0 2 0;
#X connect 0 1 1 0;
#X connect 1 0 2 1;
#X connect 2 0 3 0;
#X connect 4 0 0 0;
#X connect 5 0 1 1;
#X restore 729 163 pd cmp;
#N canvas 0 0 246 300 cmp 0;
#X obj 42 65 list split 1;
#X obj 88 119 ==;
#X obj 43 151 spigot;
#X obj 43 176 outlet;
#X obj 42 28 inlet;
#X obj 110 30 r \$1-plfarg2;
#X connect 0 0 2 0;
#X connect 0 1 1 0;
#X connect 1 0 2 1;
#X connect 2 0 3 0;
#X connect 4 0 0 0;
#X connect 5 0 1 1;
#X restore 882 100 pd cmp;
#N canvas 0 0 246 300 cmp 0;
#X obj 42 65 list split 1;
#X obj 88 119 ==;
#X obj 43 151 spigot;
#X obj 43 176 outlet;
#X obj 42 28 inlet;
#X obj 110 30 r \$1-plfarg2;
#X connect 0 0 2 0;
#X connect 0 1 1 0;
#X connect 1 0 2 1;
#X connect 2 0 3 0;
#X connect 4 0 0 0;
#X connect 5 0 1 1;
#X restore 902 125 pd cmp;
#N canvas 0 0 246 300 cmp 0;
#X obj 42 65 list split 1;
#X obj 88 119 ==;
#X obj 43 151 spigot;
#X obj 43 176 outlet;
#X obj 42 28 inlet;
#X obj 110 30 r \$1-plfarg2;
#X connect 0 0 2 0;
#X connect 0 1 1 0;
#X connect 1 0 2 1;
#X connect 2 0 3 0;
#X connect 4 0 0 0;
#X connect 5 0 1 1;
#X restore 919 153 pd cmp;
#X obj 76 220 s \$1-plfrlev;
#X obj 99 245 s \$1-plfrmain;
#X obj 29 188 s \$1-plfrloop;
#X connect 0 0 19 0;
#X connect 1 0 20 0;
#X connect 2 0 21 0;
#X connect 3 0 22 0;
#X connect 4 0 23 0;
#X connect 5 0 24 0;
#X connect 6 0 25 0;
#X connect 7 0 26 0;
#X connect 8 0 27 0;
#X connect 9 0 28 0;
#X connect 10 0 29 0;
#X connect 11 0 30 0;
#X connect 12 0 31 0;
#X connect 13 0 32 0;
#X connect 14 0 33 0;
#X connect 15 0 34 0;
#X connect 16 0 35 0;
#X connect 17 0 36 0;
#X connect 19 0 39 0;
#X connect 20 0 37 0;
#X connect 21 0 38 0;
#X restore 251 246 pd receive-normal;
#N canvas 273 68 955 601 receive-symbol 0;
#X obj 33 33 r \$1-plfry1;
#X obj 62 53 r \$1-plfry2;
#X obj 95 73 r \$1-plfry3;
#X obj 173 33 r \$1-plfry4;
#X obj 202 53 r \$1-plfry5;
#X obj 235 73 r \$1-plfry6;
#X obj 323 33 r \$1-plfry7;
#X obj 352 53 r \$1-plfry8;
#X obj 385 73 r \$1-plfry9;
#X obj 463 33 r \$1-plfry10;
#X obj 492 53 r \$1-plfry11;
#X obj 525 73 r \$1-plfry12;
#X obj 613 33 r \$1-plfry13;
#X obj 639 53 r \$1-plfry14;
#X obj 675 73 r \$1-plfry15;
#X obj 753 33 r \$1-plfry16;
#X obj 782 53 r \$1-plfry17;
#X obj 815 73 r \$1-plfry18;
#X obj 33 293 r \$1-plfry19;
#X obj 62 313 r \$1-plfry20;
#X obj 95 333 r \$1-plfry21;
#X obj 183 293 r \$1-plfry22;
#X obj 212 313 r \$1-plfry23;
#X obj 245 333 r \$1-plfry24;
#X obj 343 293 r \$1-plfry25;
#X obj 372 313 r \$1-plfry26;
#X obj 405 333 r \$1-plfry27;
#X obj 503 283 r \$1-plfry28;
#X obj 532 303 r \$1-plfry29;
#X obj 565 323 r \$1-plfry30;
#X obj 643 283 r \$1-plfry31;
#X obj 672 303 r \$1-plfry32;
#X obj 705 323 r \$1-plfry33;
#X obj 783 283 r \$1-plfry34;
#X obj 809 305 r \$1-plfry35;
#X obj 845 323 r \$1-plfry36;
#X text 107 253 hier aanvullen met echte receive naam;
#N canvas 591 263 233 401 cmp 0;
#X obj 42 65 list split 1;
#X obj 88 119 ==;
#X obj 43 151 spigot;
#X obj 42 28 inlet;
#X obj 110 30 r \$1-plfarg2;
#X obj 151 269 symbol;
#X obj 150 311 outlet;
#X obj 43 190 select kxpqwmk;
#X msg 29 299 set symbol;
#X obj 29 326 s \$1-plfrsym;
#X msg 59 227 symbol;
#X connect 0 0 2 0;
#X connect 0 1 1 0;
#X connect 1 0 2 1;
#X connect 2 0 7 0;
#X connect 3 0 0 0;
#X connect 4 0 1 1;
#X connect 5 0 6 0;
#X connect 7 0 8 0;
#X connect 7 0 10 0;
#X connect 7 1 5 0;
#X connect 8 0 9 0;
#X connect 10 0 6 0;
#X restore 22 80 pd cmp;
#N canvas 0 0 233 297 cmp 0;
#X obj 42 65 list split 1;
#X obj 88 119 ==;
#X obj 43 151 spigot;
#X obj 42 28 inlet;
#X obj 110 30 r \$1-plfarg2;
#X obj 152 218 symbol;
#X obj 110 261 outlet;
#X obj 43 190 select kxpqwmk;
#X msg 43 220 set symbol;
#X connect 0 0 2 0;
#X connect 0 1 1 0;
#X connect 1 0 2 1;
#X connect 2 0 7 0;
#X connect 3 0 0 0;
#X connect 4 0 1 1;
#X connect 5 0 6 0;
#X connect 7 0 8 0;
#X connect 7 1 5 0;
#X connect 8 0 6 0;
#X restore 62 104 pd cmp;
#N canvas 0 0 233 297 cmp 0;
#X obj 42 65 list split 1;
#X obj 88 119 ==;
#X obj 43 151 spigot;
#X obj 42 28 inlet;
#X obj 110 30 r \$1-plfarg2;
#X obj 152 218 symbol;
#X obj 110 261 outlet;
#X obj 43 190 select kxpqwmk;
#X msg 43 220 set symbol;
#X connect 0 0 2 0;
#X connect 0 1 1 0;
#X connect 1 0 2 1;
#X connect 2 0 7 0;
#X connect 3 0 0 0;
#X connect 4 0 1 1;
#X connect 5 0 6 0;
#X connect 7 0 8 0;
#X connect 7 1 5 0;
#X connect 8 0 6 0;
#X restore 92 127 pd cmp;
#N canvas 0 0 233 297 cmp 0;
#X obj 42 65 list split 1;
#X obj 88 119 ==;
#X obj 43 151 spigot;
#X obj 42 28 inlet;
#X obj 110 30 r \$1-plfarg2;
#X obj 152 218 symbol;
#X obj 110 261 outlet;
#X obj 43 190 select kxpqwmk;
#X msg 43 220 set symbol;
#X connect 0 0 2 0;
#X connect 0 1 1 0;
#X connect 1 0 2 1;
#X connect 2 0 7 0;
#X connect 3 0 0 0;
#X connect 4 0 1 1;
#X connect 5 0 6 0;
#X connect 7 0 8 0;
#X connect 7 1 5 0;
#X connect 8 0 6 0;
#X restore 172 100 pd cmp;
#N canvas 0 0 233 297 cmp 0;
#X obj 42 65 list split 1;
#X obj 88 119 ==;
#X obj 43 151 spigot;
#X obj 42 28 inlet;
#X obj 110 30 r \$1-plfarg2;
#X obj 152 218 symbol;
#X obj 110 261 outlet;
#X obj 43 190 select kxpqwmk;
#X msg 43 220 set symbol;
#X connect 0 0 2 0;
#X connect 0 1 1 0;
#X connect 1 0 2 1;
#X connect 2 0 7 0;
#X connect 3 0 0 0;
#X connect 4 0 1 1;
#X connect 5 0 6 0;
#X connect 7 0 8 0;
#X connect 7 1 5 0;
#X connect 8 0 6 0;
#X restore 212 124 pd cmp;
#N canvas 0 0 233 297 cmp 0;
#X obj 42 65 list split 1;
#X obj 88 119 ==;
#X obj 43 151 spigot;
#X obj 42 28 inlet;
#X obj 110 30 r \$1-plfarg2;
#X obj 152 218 symbol;
#X obj 110 261 outlet;
#X obj 43 190 select kxpqwmk;
#X msg 43 220 set symbol;
#X connect 0 0 2 0;
#X connect 0 1 1 0;
#X connect 1 0 2 1;
#X connect 2 0 7 0;
#X connect 3 0 0 0;
#X connect 4 0 1 1;
#X connect 5 0 6 0;
#X connect 7 0 8 0;
#X connect 7 1 5 0;
#X connect 8 0 6 0;
#X restore 242 147 pd cmp;
#N canvas 0 0 233 297 cmp 0;
#X obj 42 65 list split 1;
#X obj 88 119 ==;
#X obj 43 151 spigot;
#X obj 42 28 inlet;
#X obj 110 30 r \$1-plfarg2;
#X obj 152 218 symbol;
#X obj 110 261 outlet;
#X obj 43 190 select kxpqwmk;
#X msg 43 220 set symbol;
#X connect 0 0 2 0;
#X connect 0 1 1 0;
#X connect 1 0 2 1;
#X connect 2 0 7 0;
#X connect 3 0 0 0;
#X connect 4 0 1 1;
#X connect 5 0 6 0;
#X connect 7 0 8 0;
#X connect 7 1 5 0;
#X connect 8 0 6 0;
#X restore 322 100 pd cmp;
#N canvas 0 0 233 297 cmp 0;
#X obj 42 65 list split 1;
#X obj 88 119 ==;
#X obj 43 151 spigot;
#X obj 42 28 inlet;
#X obj 110 30 r \$1-plfarg2;
#X obj 152 218 symbol;
#X obj 110 261 outlet;
#X obj 43 190 select kxpqwmk;
#X msg 43 220 set symbol;
#X connect 0 0 2 0;
#X connect 0 1 1 0;
#X connect 1 0 2 1;
#X connect 2 0 7 0;
#X connect 3 0 0 0;
#X connect 4 0 1 1;
#X connect 5 0 6 0;
#X connect 7 0 8 0;
#X connect 7 1 5 0;
#X connect 8 0 6 0;
#X restore 362 124 pd cmp;
#N canvas 0 0 233 297 cmp 0;
#X obj 42 65 list split 1;
#X obj 88 119 ==;
#X obj 43 151 spigot;
#X obj 42 28 inlet;
#X obj 110 30 r \$1-plfarg2;
#X obj 152 218 symbol;
#X obj 110 261 outlet;
#X obj 43 190 select kxpqwmk;
#X msg 43 220 set symbol;
#X connect 0 0 2 0;
#X connect 0 1 1 0;
#X connect 1 0 2 1;
#X connect 2 0 7 0;
#X connect 3 0 0 0;
#X connect 4 0 1 1;
#X connect 5 0 6 0;
#X connect 7 0 8 0;
#X connect 7 1 5 0;
#X connect 8 0 6 0;
#X restore 392 147 pd cmp;
#N canvas 0 0 233 297 cmp 0;
#X obj 42 65 list split 1;
#X obj 88 119 ==;
#X obj 43 151 spigot;
#X obj 42 28 inlet;
#X obj 110 30 r \$1-plfarg2;
#X obj 152 218 symbol;
#X obj 110 261 outlet;
#X obj 43 190 select kxpqwmk;
#X msg 43 220 set symbol;
#X connect 0 0 2 0;
#X connect 0 1 1 0;
#X connect 1 0 2 1;
#X connect 2 0 7 0;
#X connect 3 0 0 0;
#X connect 4 0 1 1;
#X connect 5 0 6 0;
#X connect 7 0 8 0;
#X connect 7 1 5 0;
#X connect 8 0 6 0;
#X restore 462 100 pd cmp;
#N canvas 0 0 233 297 cmp 0;
#X obj 42 65 list split 1;
#X obj 88 119 ==;
#X obj 43 151 spigot;
#X obj 42 28 inlet;
#X obj 110 30 r \$1-plfarg2;
#X obj 152 218 symbol;
#X obj 110 261 outlet;
#X obj 43 190 select kxpqwmk;
#X msg 43 220 set symbol;
#X connect 0 0 2 0;
#X connect 0 1 1 0;
#X connect 1 0 2 1;
#X connect 2 0 7 0;
#X connect 3 0 0 0;
#X connect 4 0 1 1;
#X connect 5 0 6 0;
#X connect 7 0 8 0;
#X connect 7 1 5 0;
#X connect 8 0 6 0;
#X restore 502 124 pd cmp;
#N canvas 0 0 233 297 cmp 0;
#X obj 42 65 list split 1;
#X obj 88 119 ==;
#X obj 43 151 spigot;
#X obj 42 28 inlet;
#X obj 110 30 r \$1-plfarg2;
#X obj 152 218 symbol;
#X obj 110 261 outlet;
#X obj 43 190 select kxpqwmk;
#X msg 43 220 set symbol;
#X connect 0 0 2 0;
#X connect 0 1 1 0;
#X connect 1 0 2 1;
#X connect 2 0 7 0;
#X connect 3 0 0 0;
#X connect 4 0 1 1;
#X connect 5 0 6 0;
#X connect 7 0 8 0;
#X connect 7 1 5 0;
#X connect 8 0 6 0;
#X restore 532 147 pd cmp;
#N canvas 0 0 233 297 cmp 0;
#X obj 42 65 list split 1;
#X obj 88 119 ==;
#X obj 43 151 spigot;
#X obj 42 28 inlet;
#X obj 110 30 r \$1-plfarg2;
#X obj 152 218 symbol;
#X obj 110 261 outlet;
#X obj 43 190 select kxpqwmk;
#X msg 43 220 set symbol;
#X connect 0 0 2 0;
#X connect 0 1 1 0;
#X connect 1 0 2 1;
#X connect 2 0 7 0;
#X connect 3 0 0 0;
#X connect 4 0 1 1;
#X connect 5 0 6 0;
#X connect 7 0 8 0;
#X connect 7 1 5 0;
#X connect 8 0 6 0;
#X restore 612 100 pd cmp;
#N canvas 0 0 233 297 cmp 0;
#X obj 42 65 list split 1;
#X obj 88 119 ==;
#X obj 43 151 spigot;
#X obj 42 28 inlet;
#X obj 110 30 r \$1-plfarg2;
#X obj 152 218 symbol;
#X obj 110 261 outlet;
#X obj 43 190 select kxpqwmk;
#X msg 43 220 set symbol;
#X connect 0 0 2 0;
#X connect 0 1 1 0;
#X connect 1 0 2 1;
#X connect 2 0 7 0;
#X connect 3 0 0 0;
#X connect 4 0 1 1;
#X connect 5 0 6 0;
#X connect 7 0 8 0;
#X connect 7 1 5 0;
#X connect 8 0 6 0;
#X restore 652 124 pd cmp;
#N canvas 0 0 233 297 cmp 0;
#X obj 42 65 list split 1;
#X obj 88 119 ==;
#X obj 43 151 spigot;
#X obj 42 28 inlet;
#X obj 110 30 r \$1-plfarg2;
#X obj 152 218 symbol;
#X obj 110 261 outlet;
#X obj 43 190 select kxpqwmk;
#X msg 43 220 set symbol;
#X connect 0 0 2 0;
#X connect 0 1 1 0;
#X connect 1 0 2 1;
#X connect 2 0 7 0;
#X connect 3 0 0 0;
#X connect 4 0 1 1;
#X connect 5 0 6 0;
#X connect 7 0 8 0;
#X connect 7 1 5 0;
#X connect 8 0 6 0;
#X restore 682 147 pd cmp;
#N canvas 0 0 233 297 cmp 0;
#X obj 42 65 list split 1;
#X obj 88 119 ==;
#X obj 43 151 spigot;
#X obj 42 28 inlet;
#X obj 110 30 r \$1-plfarg2;
#X obj 152 218 symbol;
#X obj 110 261 outlet;
#X obj 43 190 select kxpqwmk;
#X msg 43 220 set symbol;
#X connect 0 0 2 0;
#X connect 0 1 1 0;
#X connect 1 0 2 1;
#X connect 2 0 7 0;
#X connect 3 0 0 0;
#X connect 4 0 1 1;
#X connect 5 0 6 0;
#X connect 7 0 8 0;
#X connect 7 1 5 0;
#X connect 8 0 6 0;
#X restore 762 100 pd cmp;
#N canvas 0 0 233 297 cmp 0;
#X obj 42 65 list split 1;
#X obj 88 119 ==;
#X obj 43 151 spigot;
#X obj 42 28 inlet;
#X obj 110 30 r \$1-plfarg2;
#X obj 152 218 symbol;
#X obj 110 261 outlet;
#X obj 43 190 select kxpqwmk;
#X msg 43 220 set symbol;
#X connect 0 0 2 0;
#X connect 0 1 1 0;
#X connect 1 0 2 1;
#X connect 2 0 7 0;
#X connect 3 0 0 0;
#X connect 4 0 1 1;
#X connect 5 0 6 0;
#X connect 7 0 8 0;
#X connect 7 1 5 0;
#X connect 8 0 6 0;
#X restore 802 124 pd cmp;
#N canvas 0 0 233 297 cmp 0;
#X obj 42 65 list split 1;
#X obj 88 119 ==;
#X obj 43 151 spigot;
#X obj 42 28 inlet;
#X obj 110 30 r \$1-plfarg2;
#X obj 152 218 symbol;
#X obj 110 261 outlet;
#X obj 43 190 select kxpqwmk;
#X msg 43 220 set symbol;
#X connect 0 0 2 0;
#X connect 0 1 1 0;
#X connect 1 0 2 1;
#X connect 2 0 7 0;
#X connect 3 0 0 0;
#X connect 4 0 1 1;
#X connect 5 0 6 0;
#X connect 7 0 8 0;
#X connect 7 1 5 0;
#X connect 8 0 6 0;
#X restore 832 147 pd cmp;
#N canvas 0 0 233 297 cmp 0;
#X obj 42 65 list split 1;
#X obj 88 119 ==;
#X obj 43 151 spigot;
#X obj 42 28 inlet;
#X obj 110 30 r \$1-plfarg2;
#X obj 152 218 symbol;
#X obj 110 261 outlet;
#X obj 43 190 select kxpqwmk;
#X msg 43 220 set symbol;
#X connect 0 0 2 0;
#X connect 0 1 1 0;
#X connect 1 0 2 1;
#X connect 2 0 7 0;
#X connect 3 0 0 0;
#X connect 4 0 1 1;
#X connect 5 0 6 0;
#X connect 7 0 8 0;
#X connect 7 1 5 0;
#X connect 8 0 6 0;
#X restore 62 374 pd cmp;
#N canvas 0 0 233 297 cmp 0;
#X obj 42 65 list split 1;
#X obj 88 119 ==;
#X obj 43 151 spigot;
#X obj 42 28 inlet;
#X obj 110 30 r \$1-plfarg2;
#X obj 152 218 symbol;
#X obj 110 261 outlet;
#X obj 43 190 select kxpqwmk;
#X msg 43 220 set symbol;
#X connect 0 0 2 0;
#X connect 0 1 1 0;
#X connect 1 0 2 1;
#X connect 2 0 7 0;
#X connect 3 0 0 0;
#X connect 4 0 1 1;
#X connect 5 0 6 0;
#X connect 7 0 8 0;
#X connect 7 1 5 0;
#X connect 8 0 6 0;
#X restore 92 397 pd cmp;
#N canvas 0 0 233 297 cmp 0;
#X obj 42 65 list split 1;
#X obj 88 119 ==;
#X obj 43 151 spigot;
#X obj 42 28 inlet;
#X obj 110 30 r \$1-plfarg2;
#X obj 152 218 symbol;
#X obj 110 261 outlet;
#X obj 43 190 select kxpqwmk;
#X msg 43 220 set symbol;
#X connect 0 0 2 0;
#X connect 0 1 1 0;
#X connect 1 0 2 1;
#X connect 2 0 7 0;
#X connect 3 0 0 0;
#X connect 4 0 1 1;
#X connect 5 0 6 0;
#X connect 7 0 8 0;
#X connect 7 1 5 0;
#X connect 8 0 6 0;
#X restore 172 370 pd cmp;
#N canvas 0 0 233 297 cmp 0;
#X obj 42 65 list split 1;
#X obj 88 119 ==;
#X obj 43 151 spigot;
#X obj 42 28 inlet;
#X obj 110 30 r \$1-plfarg2;
#X obj 152 218 symbol;
#X obj 110 261 outlet;
#X obj 43 190 select kxpqwmk;
#X msg 43 220 set symbol;
#X connect 0 0 2 0;
#X connect 0 1 1 0;
#X connect 1 0 2 1;
#X connect 2 0 7 0;
#X connect 3 0 0 0;
#X connect 4 0 1 1;
#X connect 5 0 6 0;
#X connect 7 0 8 0;
#X connect 7 1 5 0;
#X connect 8 0 6 0;
#X restore 212 394 pd cmp;
#N canvas 0 0 233 297 cmp 0;
#X obj 42 65 list split 1;
#X obj 88 119 ==;
#X obj 43 151 spigot;
#X obj 42 28 inlet;
#X obj 110 30 r \$1-plfarg2;
#X obj 152 218 symbol;
#X obj 110 261 outlet;
#X obj 43 190 select kxpqwmk;
#X msg 43 220 set symbol;
#X connect 0 0 2 0;
#X connect 0 1 1 0;
#X connect 1 0 2 1;
#X connect 2 0 7 0;
#X connect 3 0 0 0;
#X connect 4 0 1 1;
#X connect 5 0 6 0;
#X connect 7 0 8 0;
#X connect 7 1 5 0;
#X connect 8 0 6 0;
#X restore 242 417 pd cmp;
#N canvas 0 0 233 297 cmp 0;
#X obj 42 65 list split 1;
#X obj 88 119 ==;
#X obj 43 151 spigot;
#X obj 42 28 inlet;
#X obj 110 30 r \$1-plfarg2;
#X obj 152 218 symbol;
#X obj 110 261 outlet;
#X obj 43 190 select kxpqwmk;
#X msg 43 220 set symbol;
#X connect 0 0 2 0;
#X connect 0 1 1 0;
#X connect 1 0 2 1;
#X connect 2 0 7 0;
#X connect 3 0 0 0;
#X connect 4 0 1 1;
#X connect 5 0 6 0;
#X connect 7 0 8 0;
#X connect 7 1 5 0;
#X connect 8 0 6 0;
#X restore 322 370 pd cmp;
#N canvas 0 0 233 297 cmp 0;
#X obj 42 65 list split 1;
#X obj 88 119 ==;
#X obj 43 151 spigot;
#X obj 42 28 inlet;
#X obj 110 30 r \$1-plfarg2;
#X obj 152 218 symbol;
#X obj 110 261 outlet;
#X obj 43 190 select kxpqwmk;
#X msg 43 220 set symbol;
#X connect 0 0 2 0;
#X connect 0 1 1 0;
#X connect 1 0 2 1;
#X connect 2 0 7 0;
#X connect 3 0 0 0;
#X connect 4 0 1 1;
#X connect 5 0 6 0;
#X connect 7 0 8 0;
#X connect 7 1 5 0;
#X connect 8 0 6 0;
#X restore 362 394 pd cmp;
#N canvas 0 0 233 297 cmp 0;
#X obj 42 65 list split 1;
#X obj 88 119 ==;
#X obj 43 151 spigot;
#X obj 42 28 inlet;
#X obj 110 30 r \$1-plfarg2;
#X obj 152 218 symbol;
#X obj 110 261 outlet;
#X obj 43 190 select kxpqwmk;
#X msg 43 220 set symbol;
#X connect 0 0 2 0;
#X connect 0 1 1 0;
#X connect 1 0 2 1;
#X connect 2 0 7 0;
#X connect 3 0 0 0;
#X connect 4 0 1 1;
#X connect 5 0 6 0;
#X connect 7 0 8 0;
#X connect 7 1 5 0;
#X connect 8 0 6 0;
#X restore 392 417 pd cmp;
#N canvas 0 0 233 297 cmp 0;
#X obj 42 65 list split 1;
#X obj 88 119 ==;
#X obj 43 151 spigot;
#X obj 42 28 inlet;
#X obj 110 30 r \$1-plfarg2;
#X obj 152 218 symbol;
#X obj 110 261 outlet;
#X obj 43 190 select kxpqwmk;
#X msg 43 220 set symbol;
#X connect 0 0 2 0;
#X connect 0 1 1 0;
#X connect 1 0 2 1;
#X connect 2 0 7 0;
#X connect 3 0 0 0;
#X connect 4 0 1 1;
#X connect 5 0 6 0;
#X connect 7 0 8 0;
#X connect 7 1 5 0;
#X connect 8 0 6 0;
#X restore 462 370 pd cmp;
#N canvas 0 0 233 297 cmp 0;
#X obj 42 65 list split 1;
#X obj 88 119 ==;
#X obj 43 151 spigot;
#X obj 42 28 inlet;
#X obj 110 30 r \$1-plfarg2;
#X obj 152 218 symbol;
#X obj 110 261 outlet;
#X obj 43 190 select kxpqwmk;
#X msg 43 220 set symbol;
#X connect 0 0 2 0;
#X connect 0 1 1 0;
#X connect 1 0 2 1;
#X connect 2 0 7 0;
#X connect 3 0 0 0;
#X connect 4 0 1 1;
#X connect 5 0 6 0;
#X connect 7 0 8 0;
#X connect 7 1 5 0;
#X connect 8 0 6 0;
#X restore 502 394 pd cmp;
#N canvas 0 0 233 297 cmp 0;
#X obj 42 65 list split 1;
#X obj 88 119 ==;
#X obj 43 151 spigot;
#X obj 42 28 inlet;
#X obj 110 30 r \$1-plfarg2;
#X obj 152 218 symbol;
#X obj 110 261 outlet;
#X obj 43 190 select kxpqwmk;
#X msg 43 220 set symbol;
#X connect 0 0 2 0;
#X connect 0 1 1 0;
#X connect 1 0 2 1;
#X connect 2 0 7 0;
#X connect 3 0 0 0;
#X connect 4 0 1 1;
#X connect 5 0 6 0;
#X connect 7 0 8 0;
#X connect 7 1 5 0;
#X connect 8 0 6 0;
#X restore 532 417 pd cmp;
#N canvas 0 0 233 297 cmp 0;
#X obj 42 65 list split 1;
#X obj 88 119 ==;
#X obj 43 151 spigot;
#X obj 42 28 inlet;
#X obj 110 30 r \$1-plfarg2;
#X obj 152 218 symbol;
#X obj 110 261 outlet;
#X obj 43 190 select kxpqwmk;
#X msg 43 220 set symbol;
#X connect 0 0 2 0;
#X connect 0 1 1 0;
#X connect 1 0 2 1;
#X connect 2 0 7 0;
#X connect 3 0 0 0;
#X connect 4 0 1 1;
#X connect 5 0 6 0;
#X connect 7 0 8 0;
#X connect 7 1 5 0;
#X connect 8 0 6 0;
#X restore 612 370 pd cmp;
#N canvas 0 0 233 297 cmp 0;
#X obj 42 65 list split 1;
#X obj 88 119 ==;
#X obj 43 151 spigot;
#X obj 42 28 inlet;
#X obj 110 30 r \$1-plfarg2;
#X obj 152 218 symbol;
#X obj 110 261 outlet;
#X obj 43 190 select kxpqwmk;
#X msg 43 220 set symbol;
#X connect 0 0 2 0;
#X connect 0 1 1 0;
#X connect 1 0 2 1;
#X connect 2 0 7 0;
#X connect 3 0 0 0;
#X connect 4 0 1 1;
#X connect 5 0 6 0;
#X connect 7 0 8 0;
#X connect 7 1 5 0;
#X connect 8 0 6 0;
#X restore 652 394 pd cmp;
#N canvas 0 0 233 297 cmp 0;
#X obj 42 65 list split 1;
#X obj 88 119 ==;
#X obj 43 151 spigot;
#X obj 42 28 inlet;
#X obj 110 30 r \$1-plfarg2;
#X obj 152 218 symbol;
#X obj 110 261 outlet;
#X obj 43 190 select kxpqwmk;
#X msg 43 220 set symbol;
#X connect 0 0 2 0;
#X connect 0 1 1 0;
#X connect 1 0 2 1;
#X connect 2 0 7 0;
#X connect 3 0 0 0;
#X connect 4 0 1 1;
#X connect 5 0 6 0;
#X connect 7 0 8 0;
#X connect 7 1 5 0;
#X connect 8 0 6 0;
#X restore 682 417 pd cmp;
#N canvas 0 0 233 297 cmp 0;
#X obj 42 65 list split 1;
#X obj 88 119 ==;
#X obj 43 151 spigot;
#X obj 42 28 inlet;
#X obj 110 30 r \$1-plfarg2;
#X obj 152 218 symbol;
#X obj 110 261 outlet;
#X obj 43 190 select kxpqwmk;
#X msg 43 220 set symbol;
#X connect 0 0 2 0;
#X connect 0 1 1 0;
#X connect 1 0 2 1;
#X connect 2 0 7 0;
#X connect 3 0 0 0;
#X connect 4 0 1 1;
#X connect 5 0 6 0;
#X connect 7 0 8 0;
#X connect 7 1 5 0;
#X connect 8 0 6 0;
#X restore 762 370 pd cmp;
#N canvas 0 0 233 297 cmp 0;
#X obj 42 65 list split 1;
#X obj 88 119 ==;
#X obj 43 151 spigot;
#X obj 42 28 inlet;
#X obj 110 30 r \$1-plfarg2;
#X obj 152 218 symbol;
#X obj 110 261 outlet;
#X obj 43 190 select kxpqwmk;
#X msg 43 220 set symbol;
#X connect 0 0 2 0;
#X connect 0 1 1 0;
#X connect 1 0 2 1;
#X connect 2 0 7 0;
#X connect 3 0 0 0;
#X connect 4 0 1 1;
#X connect 5 0 6 0;
#X connect 7 0 8 0;
#X connect 7 1 5 0;
#X connect 8 0 6 0;
#X restore 802 394 pd cmp;
#N canvas 0 0 233 297 cmp 0;
#X obj 42 65 list split 1;
#X obj 88 119 ==;
#X obj 43 151 spigot;
#X obj 42 28 inlet;
#X obj 110 30 r \$1-plfarg2;
#X obj 152 218 symbol;
#X obj 110 261 outlet;
#X obj 43 190 select kxpqwmk;
#X msg 43 220 set symbol;
#X connect 0 0 2 0;
#X connect 0 1 1 0;
#X connect 1 0 2 1;
#X connect 2 0 7 0;
#X connect 3 0 0 0;
#X connect 4 0 1 1;
#X connect 5 0 6 0;
#X connect 7 0 8 0;
#X connect 7 1 5 0;
#X connect 8 0 6 0;
#X restore 832 417 pd cmp;
#N canvas 0 0 233 297 cmp 0;
#X obj 42 65 list split 1;
#X obj 88 119 ==;
#X obj 43 151 spigot;
#X obj 42 28 inlet;
#X obj 110 30 r \$1-plfarg2;
#X obj 152 218 symbol;
#X obj 110 261 outlet;
#X obj 43 190 select kxpqwmk;
#X msg 43 220 set symbol;
#X connect 0 0 2 0;
#X connect 0 1 1 0;
#X connect 1 0 2 1;
#X connect 2 0 7 0;
#X connect 3 0 0 0;
#X connect 4 0 1 1;
#X connect 5 0 6 0;
#X connect 7 0 8 0;
#X connect 7 1 5 0;
#X connect 8 0 6 0;
#X restore 22 348 pd cmp;
#X obj 22 172 s \$1-plffile;
#X connect 0 0 37 0;
#X connect 1 0 38 0;
#X connect 2 0 39 0;
#X connect 3 0 40 0;
#X connect 4 0 41 0;
#X connect 5 0 42 0;
#X connect 6 0 43 0;
#X connect 7 0 44 0;
#X connect 8 0 45 0;
#X connect 9 0 46 0;
#X connect 10 0 47 0;
#X connect 11 0 48 0;
#X connect 12 0 49 0;
#X connect 13 0 50 0;
#X connect 14 0 51 0;
#X connect 15 0 52 0;
#X connect 16 0 53 0;
#X connect 17 0 54 0;
#X connect 18 0 72 0;
#X connect 19 0 55 0;
#X connect 20 0 56 0;
#X connect 21 0 57 0;
#X connect 22 0 58 0;
#X connect 23 0 59 0;
#X connect 24 0 60 0;
#X connect 25 0 61 0;
#X connect 26 0 62 0;
#X connect 27 0 63 0;
#X connect 28 0 64 0;
#X connect 29 0 65 0;
#X connect 30 0 66 0;
#X connect 31 0 67 0;
#X connect 32 0 68 0;
#X connect 33 0 69 0;
#X connect 34 0 70 0;
#X connect 35 0 71 0;
#X connect 37 0 73 0;
#X restore 436 247 pd receive-symbol;
#X text 398 247 !!->;
#X text 32 27 !!->;
#N canvas 0 0 246 300 cmp 0;
#X obj 42 65 list split 1;
#X obj 88 119 ==;
#X obj 43 151 spigot;
#X obj 43 176 outlet;
#X obj 42 28 inlet;
#X obj 157 64 inlet;
#X connect 0 0 2 0;
#X connect 0 1 1 0;
#X connect 1 0 2 1;
#X connect 2 0 3 0;
#X connect 4 0 0 0;
#X connect 5 0 1 1;
#X restore 209 94 pd cmp;
#X obj 458 12 loadbang;
#X obj 458 37 f \$2;
#X obj 458 85 s \$1-plfarg2;
#X connect 0 0 13 0;
#X connect 1 1 5 0;
#X connect 1 2 4 0;
#X connect 4 0 3 0;
#X connect 5 0 3 0;
#X connect 13 0 1 0;
#X connect 14 0 15 0;
#X connect 15 0 13 1;
#X connect 15 0 16 0;
#X restore 506 216 pd presetsnew;
#X connect 0 0 53 0;
#X connect 1 0 2 0;
#X connect 1 1 3 0;
#X connect 4 0 25 0;
#X connect 5 0 17 0;
#X connect 6 0 17 0;
#X connect 8 0 33 0;
#X connect 9 0 17 0;
#X connect 10 0 6 0;
#X connect 10 0 52 1;
#X connect 11 0 15 0;
#X connect 11 1 16 0;
#X connect 12 0 11 2;
#X connect 13 0 12 0;
#X connect 13 0 14 2;
#X connect 14 0 7 0;
#X connect 14 1 7 1;
#X connect 17 0 18 0;
#X connect 17 1 22 0;
#X connect 17 2 58 0;
#X connect 18 0 11 0;
#X connect 18 0 14 0;
#X connect 19 0 20 0;
#X connect 20 0 18 1;
#X connect 20 0 22 1;
#X connect 21 0 19 0;
#X connect 22 0 11 1;
#X connect 22 0 14 1;
#X connect 24 0 8 0;
#X connect 25 0 5 0;
#X connect 25 0 52 0;
#X connect 25 1 33 0;
#X connect 26 0 25 0;
#X connect 27 0 26 1;
#X connect 28 0 29 0;
#X connect 29 0 23 0;
#X connect 31 0 33 0;
#X connect 33 0 9 0;
#X connect 33 0 32 0;
#X connect 33 0 30 0;
#X connect 33 0 35 1;
#X connect 34 0 36 0;
#X connect 35 0 38 0;
#X connect 36 0 40 0;
#X connect 37 0 35 0;
#X connect 38 0 48 0;
#X connect 40 0 37 0;
#X connect 41 0 46 0;
#X connect 42 0 43 0;
#X connect 44 0 41 0;
#X connect 45 0 36 0;
#X connect 46 0 42 0;
#X connect 49 0 36 0;
#X connect 53 0 1 0;
#X connect 55 0 56 0;
#X connect 58 0 26 0;
#X connect 58 1 52 1;
