#N canvas 62 312 298 289 12;
#N canvas 322 0 677 706 random-walk 0;
#X obj 26 377 random 2;
#X obj 123 318 t b b f;
#X obj 26 433 sel 0 1;
#X obj 150 554 +;
#X obj 123 147 metro 100;
#X obj 110 416 + 1;
#X obj 104 512 *;
#X msg 26 462 -1;
#X msg 60 462 1;
#X text 39 69 Random walk generator;
#X text 57 112 on/off;
#X text 35 415 sign;
#X text 22 557 add prev value;
#X text 20 576 to random increment;
#X obj 104 378 random 1000;
#X obj 108 442 / 1000;
#X obj 108 476 *;
#X obj 213 400 / 100;
#X text 262 296 0 tot 100;
#X obj 240 463 *;
#X obj 268 402 -;
#X obj 309 371 t b f;
#X text 504 602 wrap within range;
#X text 310 413 magnitude als percentage van range;
#X obj 305 773 f;
#X obj 305 803 outlet;
#X obj 310 315 r \$1-rnwsmin;
#X obj 208 314 r \$1-rnwsmax;
#X obj 209 344 r \$1-rnwstz;
#X obj 328 553 r \$1-rnwsmin;
#X obj 432 562 r \$1-rnwsmax;
#X obj 123 293 f 0;
#X obj 213 252 r \$1-rnwssd;
#X obj 26 94 r \$1-rnwson;
#N canvas 0 0 462 312 bpmtoms 0;
#X obj 99 101 inlet;
#X obj 102 214 outlet;
#X obj 100 158 expr (60/$f1)*1000;
#X floatatom 159 105 5 0 0 0 - - -;
#X floatatom 167 218 5 0 0 0 - - -;
#X connect 0 0 2 0;
#X connect 2 0 1 0;
#X connect 2 0 4 0;
#X connect 3 0 2 0;
#X restore 266 85 pd bpmtoms;
#X obj 267 56 r \$1-rnwsto;
#X obj 312 169 inlet extclock;
#X obj 267 118 s \$1-rnwrms;
#X obj 123 226 spigot;
#X obj 172 197 == 0;
#X obj 219 226 spigot;
#X floatatom 54 239 5 0 0 0 - - -;
#X obj 203 171 r \$1-rnwsext;
#X obj 268 430 t b f;
#X obj 369 644 -;
#X obj 369 701 f;
#X obj 369 672 t b f;
#X obj 369 735 -;
#X obj 338 616 moses;
#X obj 257 586 moses;
#X obj 263 680 -;
#X obj 261 626 t b f;
#X obj 261 651 f;
#X obj 264 712 +;
#X connect 0 0 2 0;
#X connect 1 0 0 0;
#X connect 1 1 14 0;
#X connect 1 2 3 1;
#X connect 2 0 7 0;
#X connect 2 1 8 0;
#X connect 3 0 49 0;
#X connect 4 0 38 0;
#X connect 5 0 15 0;
#X connect 6 0 3 0;
#X connect 7 0 6 0;
#X connect 8 0 6 0;
#X connect 14 0 5 0;
#X connect 15 0 16 0;
#X connect 16 0 6 1;
#X connect 17 0 19 0;
#X connect 19 0 16 1;
#X connect 20 0 43 0;
#X connect 21 0 20 0;
#X connect 21 1 20 1;
#X connect 24 0 25 0;
#X connect 24 0 31 1;
#X connect 26 0 21 0;
#X connect 27 0 20 0;
#X connect 28 0 17 0;
#X connect 29 0 49 1;
#X connect 29 0 52 1;
#X connect 29 0 53 1;
#X connect 30 0 48 1;
#X connect 30 0 44 1;
#X connect 30 0 45 1;
#X connect 31 0 1 0;
#X connect 32 0 31 1;
#X connect 33 0 4 0;
#X connect 34 0 37 0;
#X connect 34 0 4 1;
#X connect 35 0 34 0;
#X connect 36 0 40 0;
#X connect 38 0 31 0;
#X connect 39 0 38 1;
#X connect 40 0 31 0;
#X connect 42 0 39 0;
#X connect 42 0 40 1;
#X connect 43 0 19 0;
#X connect 43 1 19 1;
#X connect 44 0 46 0;
#X connect 45 0 47 0;
#X connect 46 0 45 0;
#X connect 46 1 47 1;
#X connect 47 0 24 0;
#X connect 48 0 24 0;
#X connect 48 1 44 0;
#X connect 49 0 51 0;
#X connect 49 1 48 0;
#X connect 50 0 53 0;
#X connect 51 0 52 0;
#X connect 51 1 50 1;
#X connect 52 0 50 0;
#X connect 53 0 24 0;
#X restore 686 151 pd random-walk;
#N canvas 53 276 837 423 printallreceives 0;
#X obj 35 63 f \$1;
#X obj 33 6 bng 15 250 50 0 empty empty empty 17 7 0 10 -262144 -1
-1;
#X obj 70 173 t f f f f f f f f f;
#X obj 36 87 t f f;
#X obj 166 21 r \$1-rnwprintreceives;
#X obj 92 136 print start;
#X obj 49 370 print end;
#X msg 91 109 names of receives in [random-walk \$1]...................>>
;
#X msg 48 344 <<.........................................[random-walk
\$1];
#X obj 10 21 r printreceives;
#X msg 209 249 \$1-rnwrpos;
#X obj 212 275 print Left-Mid-Right[0-1];
#X connect 0 0 3 0;
#X connect 1 0 0 0;
#X connect 2 0 8 0;
#X connect 2 8 10 0;
#X connect 3 0 2 0;
#X connect 3 1 7 0;
#X connect 4 0 0 0;
#X connect 7 0 5 0;
#X connect 8 0 6 0;
#X connect 9 0 0 0;
#X connect 10 0 11 0;
#X restore 602 289 pd printallreceives;
#N canvas 406 72 253 246 \$1-random-walkextra 0;
#X obj 18 401 bng 15 250 50 0 printreceives empty print_all_receives
17 7 0 10 -262144 -1 -1;
#X obj 17 342 bng 15 250 50 0 \$1-rnwprintreceives empty print_names_of_receives
17 7 0 10 -262144 -1 -1;
#X text 76 420 (of all objects in open files);
#X text 75 361 (of this 'random-walk' object);
#X obj 0 1 cnv 15 300 300 empty empty empty 20 12 0 14 -142067 -66577
0;
#X obj 12 76 hsl 128 15 0 2 0 0 \$1-rnwslenv \$1-rnwrlenv length -2
-8 0 10 -262144 -1 -1 3810 1;
#X obj 11 39 tgl 15 0 \$1-rnwsmode \$1-rnwrmode note_on_and_note_off
17 7 0 10 -262144 -1 -1 0 1;
#X obj 9 93 nbx 5 14 -1e+037 1e+037 0 0 om koman empty 0 -8 0 10 -86277
-260097 -1 0.6 256;
#X obj 11 126 tgl 15 0 \$1-rnwsnew \$1-rnwrnew new_range_for_note_on
17 7 0 10 -262144 -1 -1 0 1;
#X obj 13 153 hsl 128 15 0 127 0 0 \$1-rnwsnmin \$1-rnwrnmin minimum
134 5 0 10 -262144 -1 -1 0 1;
#X obj 13 191 hsl 128 15 0 127 0 0 \$1-rnwsnmax \$1-rnwrnmax maximum
134 5 0 10 -262144 -1 -1 12700 1;
#X obj 10 208 nbx 5 14 -1e+037 1e+037 0 0 omy komany empty 0 -8 0 10
-86277 -260097 -1 127 256;
#X obj 10 170 nbx 5 14 -1e+037 1e+037 0 0 omr komans empty 0 -8 0 10
-86277 -260097 -1 0 256;
#X text 72 3 OUTLET 2;
#X connect 5 0 7 0;
#X connect 9 0 12 0;
#X connect 10 0 11 0;
#X restore 601 259 pd \$1-random-walkextra;
#X obj 399 287 f \$1;
#X obj 399 338 symbol;
#X msg 399 363 \; \$1 vis 1;
#X obj 397 264 r \$1-rnwsextraoptions;
#X msg 400 312 pd-\$1-random-walkextra;
#N canvas 335 0 859 737 foutmelding 0;
#X obj 87 38 loadbang;
#X obj 79 83 f \$1;
#X obj 73 111 select 0;
#X msg 75 197 \; \$1 vis 1;
#X msg 74 142 36;
#X text 151 150 ascii-code voor $;
#X text 197 199 als er geen argument is \, noemt de subpatch vreemd
genoeg niet pd 0-warning maar wel pd \$1-warning;
#X text 129 80 als er geen argument is geeft f \$1 een 0;
#X obj 154 336 del 100;
#X msg 319 355 1;
#X obj 238 405 spigot;
#X obj 342 453 spigot;
#X obj 409 425 == 0;
#X obj 338 423 r random-walk;
#X obj 240 489 s random-walk;
#X obj 208 305 t b b b;
#X obj 314 389 t f f;
#X obj 241 429 del 150;
#X obj 239 460 f \$1;
#X msg 169 357 0;
#X obj 378 506 == \$1;
#X obj 455 604 > 1;
#X obj 341 478 t f f;
#X obj 391 568 f 0;
#X obj 390 538 select 1;
#X obj 330 541 spigot;
#X obj 459 569 + 1;
#X obj 336 602 == \$1;
#X obj 396 628 &&;
#X obj 158 628 print pop;
#X text 487 604 groter dan 1 want vergelijking et zichzelf levert sowieso
al 1 op en dan met ev. zelfde object met identiek argument levert 2
op!;
#X obj 396 656 select 1;
#X obj 396 678 f \$1;
#X obj 398 768 symbol;
#X msg 396 795 \; \$1 vis 1;
#X obj 363 706 t f f;
#X obj 92 820 symbol;
#X obj 170 872 print;
#X obj 326 662 bng 15 250 50 0 empty empty empty 17 7 0 10 -262144
-1 -1;
#X msg 173 839 !!! these two abunch objects have the same argument
number: [random-walk \$1];
#X text 406 346 alleen net gecreerde object verstuurt waarde;
#X text 398 372 bij eerder gemaakte objecten staat spigot voor receive
open;
#N canvas 670 470 308 138 \$1-random-walkwarning 0;
#X obj -1 0 cnv 15 320 150 empty empty empty 20 12 0 14 -258699 -66577
0;
#X text 11 32 You forgot to add an unique number;
#X text 11 78 when you created this abunch object;
#X restore 349 165 pd \$1-random-walkwarning;
#N canvas 856 445 327 127 \$1-random-walksameargument 0;
#X obj -1 0 cnv 15 330 150 empty empty empty 20 12 0 14 -258699 -66577
0;
#X msg 393 108;
#X text 314 243 is used already!!;
#X obj 344 35 inlet;
#X symbolatom 351 77 10 0 0 0 - - -;
#X obj 98 40 cnv 15 60 20 empty empty empty 20 12 0 14 -233017 -66577
0;
#X text 24 40 Create an unique number for this;
#X text 102 69 abunch object.;
#X connect 3 0 1 0;
#X connect 3 0 4 0;
#X restore 541 770 pd \$1-random-walksameargument;
#X msg 397 738 pd-\$1-random-walksameargument;
#X obj 74 171 makefilename pd-%c1-random-walkwarning;
#X connect 0 0 1 0;
#X connect 0 0 15 0;
#X connect 1 0 2 0;
#X connect 2 0 4 0;
#X connect 4 0 45 0;
#X connect 8 0 19 0;
#X connect 9 0 16 0;
#X connect 10 0 17 0;
#X connect 11 0 22 0;
#X connect 12 0 11 1;
#X connect 13 0 11 0;
#X connect 15 0 8 0;
#X connect 15 1 10 0;
#X connect 15 2 9 0;
#X connect 16 0 10 1;
#X connect 16 1 12 0;
#X connect 17 0 18 0;
#X connect 18 0 14 0;
#X connect 19 0 16 0;
#X connect 20 0 24 0;
#X connect 20 0 25 1;
#X connect 21 0 28 1;
#X connect 22 0 25 0;
#X connect 22 1 20 0;
#X connect 23 0 26 0;
#X connect 24 0 23 0;
#X connect 25 0 27 0;
#X connect 26 0 23 1;
#X connect 26 0 21 0;
#X connect 27 0 28 0;
#X connect 28 0 31 0;
#X connect 31 0 32 0;
#X connect 32 0 35 0;
#X connect 33 0 34 0;
#X connect 35 0 44 0;
#X connect 35 1 39 0;
#X connect 38 0 32 0;
#X connect 39 0 37 0;
#X connect 44 0 33 0;
#X connect 45 0 3 0;
#X restore 602 316 pd foutmelding;
#N canvas 625 322 566 199 needsound 0;
#X obj 22 34 r soundfileyesno;
#X msg 18 67 0;
#X obj 22 138 s answersoundfile;
#X text 63 65 0 = this abunch object doesn't need a sound file (store
in a preset file) \, 1 = it does;
#X connect 0 0 1 0;
#X connect 1 0 2 0;
#X restore 602 343 pd needsound;
#X obj 394 41 inlet;
#N canvas 461 141 749 371 init 0;
#X obj 167 46 loadbang;
#X obj 6 147 s \$1-rnwrmin;
#X obj 331 146 s \$1-rnwrsd;
#X obj 527 146 s \$1-rnwrext;
#X obj 637 146 s \$1-rnwrto;
#X obj 116 147 s \$1-rnwrmax;
#X obj 226 147 s \$1-rnwrtz;
#X obj 426 147 s \$1-rnwron;
#X msg 136 74 0;
#X msg 167 71 127;
#X msg 255 74 60;
#X msg 203 76 12;
#X msg 255 194 0.6;
#X obj 113 229 s \$1-rnwrmode;
#X obj 251 231 s \$1-rnwrlenv;
#X obj 67 202 s \$1-rnwrnew;
#X obj 38 258 s \$1-rnwrnmin;
#X obj 138 179 s \$1-rnwrnmax;
#X connect 0 0 8 0;
#X connect 0 0 9 0;
#X connect 0 0 10 0;
#X connect 0 0 11 0;
#X connect 0 0 12 0;
#X connect 8 0 1 0;
#X connect 8 0 2 0;
#X connect 8 0 7 0;
#X connect 8 0 3 0;
#X connect 8 0 13 0;
#X connect 8 0 15 0;
#X connect 8 0 16 0;
#X connect 9 0 5 0;
#X connect 9 0 17 0;
#X connect 10 0 4 0;
#X connect 11 0 6 0;
#X connect 12 0 14 0;
#X restore 600 371 pd init;
#N canvas 37 291 450 166 printname 0;
#X obj 54 33 r printallnames;
#X obj 54 87 symbol;
#X obj 54 112 s rallnames;
#X msg 54 62 random-walk;
#X connect 0 0 3 0;
#X connect 1 0 2 0;
#X connect 3 0 1 0;
#X restore 600 397 pd printname;
#X obj 686 239 outlet;
#N canvas 0 0 602 300 presets 0;
#N canvas 88 20 1155 642 save_preset_array 0;
#X obj 19 403 inlet gui1;
#X obj 112 405 inlet gui2;
#X obj 197 403 inlet gui3;
#X obj 290 405 inlet gui4;
#X obj 376 406 inlet gui15;
#X obj 469 408 inlet gui6;
#X obj 554 406 inlet gui7;
#X obj 647 408 inlet gui8;
#X obj 732 408 inlet gui9;
#X obj 825 410 inlet gui10;
#X obj 83 109 until;
#X obj 62 173 + 1;
#X obj 89 142 f 0;
#X obj 79 42 bng 15 250 50 0 empty empty empty 17 7 0 10 -262144 -1
-1;
#X obj 571 505 r openpreset;
#X obj 162 18 r savepreset;
#X obj 21 825 outlet gui1;
#X obj 112 827 outlet gui2;
#X obj 201 827 outlet gui3;
#X obj 293 827 outlet gui4;
#X obj 475 827 outlet gui6;
#X obj 384 827 outlet gui5;
#X obj 567 827 outlet gui7;
#X obj 658 827 outlet gui8;
#X obj 748 827 outlet gui9;
#X obj 840 826 outlet gui10;
#X obj 495 598 until;
#X obj 472 657 + 1;
#X obj 499 626 f 0;
#N canvas 45 153 857 314 router_1inxout 0;
#X obj 231 27 inlet one;
#X obj 339 23 inlet route123;
#X obj 35 211 outlet one;
#X obj 92 238 outlet two;
#X obj 171 215 outlet three;
#X obj 221 240 outlet four;
#X obj 319 216 outlet five;
#X obj 357 242 outlet six;
#X obj 440 213 outlet seven;
#X obj 491 240 outlet eigth;
#X obj 557 214 outlet nine;
#X obj 616 241 outlet ten;
#X obj 361 83 pack;
#X obj 296 57 mod 12;
#X obj 662 214 outlet nine;
#X obj 718 242 outlet ten;
#X obj 58 77 route 1 2;
#X obj 367 110 route 0 1 2 3 4 5 6 7 8 9 10 11;
#X connect 0 0 13 0;
#X connect 1 0 12 1;
#X connect 12 0 17 0;
#X connect 13 0 12 0;
#X connect 17 0 2 0;
#X connect 17 1 3 0;
#X connect 17 2 4 0;
#X connect 17 3 5 0;
#X connect 17 4 6 0;
#X connect 17 5 7 0;
#X connect 17 6 8 0;
#X connect 17 7 9 0;
#X connect 17 8 10 0;
#X connect 17 9 11 0;
#X connect 17 10 14 0;
#X connect 17 11 15 0;
#X restore 368 760 pd router_1inxout;
#X obj 187 119 f 0;
#X obj 335 24 r presetnr;
#X obj 336 49 * 12;
#X obj 334 72 - 12;
#X obj 587 587 f 0;
#X obj 495 685 t f f;
#X obj 85 201 t f f;
#X obj 736 509 bng 15 250 50 0 empty empty empty 17 7 0 10 -262144
-1 -1;
#N canvas 0 0 450 300 (subpatch) 0;
#X array \$1-rnwpreset 601 float 2;
#X coords 0 200 601 -1 200 140 1;
#X restore 591 131 graph;
#X obj 66 240 mod 12;
#X text 386 60 -> !!! per 12;
#X text 130 240 -> !!! per 12;
#X text 522 762 -> !!! hierin ook per 12;
#X msg 133 82 12;
#X text 174 83 -> !!! per 12;
#X text 579 54 max 12 parameters/waarden voor array/presets;
#X obj 302 204 symbol;
#X obj 403 183 symbol;
#X obj 345 245 pack s s;
#X obj 402 153 r namepreset;
#X obj 294 155 f \$1;
#X obj 167 43 t b b b;
#X obj 570 546 t b b b;
#X text 130 312 -> !!! per 12;
#X obj 716 628 symbol;
#X obj 756 655 pack s s;
#X obj 827 582 r namepreset;
#X obj 662 578 f \$1;
#X obj 152 163 print bng;
#X obj 819 618 symbol;
#X msg 319 272 \; \$1 write presets/\$2-\$1.txt;
#X msg 750 686 \; \$1 read presets/\$2-\$1.txt;
#X msg 294 182 \$1-rnwpreset;
#X obj 225 534 tabwrite \$1-rnwpreset;
#X msg 675 604 \$1-rnwpreset;
#X obj 503 720 tabread \$1-rnwpreset;
#X msg 528 575 12;
#X obj 920 406 inlet gui11;
#X obj 1013 408 inlet gui12;
#X obj 940 828 outlet gui9;
#X obj 1032 827 outlet gui10;
#X obj 334 97 - 1;
#X obj 72 333 select 0 1 2 3 4 5 6 7 8 9 10 11;
#X obj 25 443 f 0;
#X obj 105 445 f 0;
#X obj 204 438 f 0;
#X obj 285 440 f 0;
#X obj 380 439 f 0;
#X obj 461 441 f 0;
#X obj 566 443 f 0;
#X obj 647 445 f 0;
#X obj 743 446 f 0;
#X obj 824 448 f 0;
#X obj 931 444 f 0;
#X obj 1012 446 f 0;
#X connect 0 0 73 1;
#X connect 1 0 74 1;
#X connect 2 0 75 1;
#X connect 3 0 76 1;
#X connect 4 0 77 1;
#X connect 5 0 78 1;
#X connect 6 0 79 1;
#X connect 7 0 80 1;
#X connect 8 0 81 1;
#X connect 9 0 82 1;
#X connect 10 0 12 0;
#X connect 11 0 12 1;
#X connect 11 0 36 0;
#X connect 12 0 11 0;
#X connect 13 0 10 0;
#X connect 14 0 52 0;
#X connect 15 0 51 0;
#X connect 26 0 28 0;
#X connect 27 0 28 1;
#X connect 27 0 35 0;
#X connect 28 0 27 0;
#X connect 29 0 16 0;
#X connect 29 1 17 0;
#X connect 29 2 18 0;
#X connect 29 3 19 0;
#X connect 29 4 21 0;
#X connect 29 5 20 0;
#X connect 29 6 22 0;
#X connect 29 7 23 0;
#X connect 29 8 24 0;
#X connect 29 9 25 0;
#X connect 29 10 69 0;
#X connect 29 11 70 0;
#X connect 30 0 12 1;
#X connect 31 0 32 0;
#X connect 32 0 33 0;
#X connect 33 0 71 0;
#X connect 34 0 28 1;
#X connect 35 0 29 0;
#X connect 35 1 65 0;
#X connect 36 0 39 0;
#X connect 36 1 63 1;
#X connect 37 0 52 0;
#X connect 39 0 72 0;
#X connect 43 0 10 0;
#X connect 46 0 48 0;
#X connect 47 0 48 1;
#X connect 48 0 60 0;
#X connect 49 0 47 0;
#X connect 50 0 62 0;
#X connect 51 0 50 0;
#X connect 51 0 58 0;
#X connect 51 1 43 0;
#X connect 51 2 30 0;
#X connect 52 0 66 0;
#X connect 52 1 34 0;
#X connect 52 2 57 0;
#X connect 54 0 55 0;
#X connect 55 0 61 0;
#X connect 56 0 59 0;
#X connect 57 0 64 0;
#X connect 59 0 55 1;
#X connect 62 0 46 0;
#X connect 64 0 54 0;
#X connect 65 0 29 1;
#X connect 66 0 26 0;
#X connect 67 0 83 1;
#X connect 68 0 84 1;
#X connect 71 0 30 1;
#X connect 71 0 34 1;
#X connect 72 0 73 0;
#X connect 72 1 74 0;
#X connect 72 2 75 0;
#X connect 72 3 76 0;
#X connect 72 4 77 0;
#X connect 72 5 78 0;
#X connect 72 6 79 0;
#X connect 72 7 80 0;
#X connect 72 8 81 0;
#X connect 72 9 82 0;
#X connect 72 10 83 0;
#X connect 72 11 84 0;
#X connect 73 0 63 0;
#X connect 74 0 63 0;
#X connect 75 0 63 0;
#X connect 76 0 63 0;
#X connect 77 0 63 0;
#X connect 78 0 63 0;
#X connect 79 0 63 0;
#X connect 80 0 63 0;
#X connect 81 0 63 0;
#X connect 82 0 63 0;
#X connect 83 0 63 0;
#X connect 84 0 63 0;
#X restore 104 170 pd save_preset_array;
#X obj 32 57 r \$1-rnwsmin;
#X obj 27 229 s \$1-rnwrmin;
#X obj 236 63 r \$1-rnwssd;
#X obj 168 226 s \$1-rnwrsd;
#X obj 286 107 r \$1-rnwsext;
#X obj 256 270 s \$1-rnwrext;
#X obj 283 128 r \$1-rnwsto;
#X obj 324 223 s \$1-rnwrto;
#X obj 81 79 r \$1-rnwsmax;
#X obj 67 254 s \$1-rnwrmax;
#X obj 132 101 r \$1-rnwstz;
#X obj 107 277 s \$1-rnwrtz;
#X obj 259 85 r \$1-rnwson;
#X obj 221 247 s \$1-rnwron;
#X obj 528 89 b;
#X msg 526 117 0;
#X connect 0 0 2 0;
#X connect 0 1 10 0;
#X connect 0 2 12 0;
#X connect 0 3 4 0;
#X connect 0 4 14 0;
#X connect 0 5 6 0;
#X connect 0 6 8 0;
#X connect 1 0 0 0;
#X connect 1 0 15 0;
#X connect 3 0 0 3;
#X connect 5 0 0 5;
#X connect 7 0 0 6;
#X connect 9 0 0 1;
#X connect 11 0 0 2;
#X connect 13 0 0 4;
#X connect 15 0 16 0;
#X connect 16 0 0 7;
#X connect 16 0 0 8;
#X connect 16 0 0 9;
#X connect 16 0 0 10;
#X connect 16 0 0 11;
#X restore 400 408 pd presets;
#X obj -1 0 cnv 15 300 300 empty empty empty 20 12 0 14 -142067 -66577
0;
#X obj 161 257 bng 10 250 50 0 \$1-rnwsextraoptions empty extra_options
17 7 0 8 -262144 -1 -1;
#X obj 199 82 tgl 25 0 \$1-rnwson \$1-rnwron on/off -7 -8 0 10 -262144
-1 -1 0 1;
#X obj 12 213 hsl 256 15 30 1053 0 0 \$1-rnwsto \$1-rnwrto tempo 5
-8 0 10 -262144 -1 -1 748 1;
#X obj 9 231 nbx 5 14 -1e+037 1e+037 0 0 ccc cccc bpm 60 7 0 10 -86277
-260097 -1 60.008 256;
#X obj 185 233 tgl 15 0 \$1-rnwsext \$1-rnwrext external_clock 17 7
0 8 -262144 -1 -1 0 1;
#X obj 92 232 nbx 6 14 -1e+037 1e+037 0 0 weet \$1-rnwrms ms 67 7 0
10 -86277 -260097 -1 999.867 256;
#X obj 17 32 vsl 15 128 0 127 0 0 \$1-rnwsmin \$1-rnwrmin min -3 -12
0 10 -262144 -1 -1 0 1;
#X obj 15 165 nbx 5 14 -1e+037 1e+037 0 0 ccxc ccccx empty 60 7 0 10
-86277 -260097 -1 0 256;
#X obj 77 32 vsl 15 128 0 127 0 0 \$1-rnwsmax \$1-rnwrmax max -3 -12
0 10 -262144 -1 -1 12700 1;
#X obj 75 165 nbx 5 14 -1e+037 1e+037 0 0 ccxc ccccx empty 60 7 0 10
-86277 -260097 -1 127 256;
#X obj 136 32 vsl 15 128 0 100 0 0 \$1-rnwstz \$1-rnwrtz stepsize -11
-12 0 10 -262144 -1 -1 1524 1;
#X obj 135 165 nbx 5 14 -1e+037 1e+037 0 0 ccxc ccccx empty 60 7 0
10 -86277 -260097 -1 12 256;
#X obj 233 88 nbx 5 14 0 127 0 0 \$1-rnwssd \$1-rnwrsd seed 0 -8 0
10 -262144 -1 -1 0 256;
#X obj 686 31 inlet extclock;
#X obj 686 91 > 0;
#X obj 686 61 route float symbol;
#X obj 686 121 select 1;
#X obj 392 73 s \$1-rnwrmin;
#X obj 438 97 s \$1-rnwrmax;
#X obj 496 123 s \$1-rnwrtz;
#X obj 570 95 s \$1-rnwron;
#X obj 441 42 inlet;
#X obj 499 39 inlet;
#X obj 499 73 * 0.787;
#X obj 570 41 inlet;
#X obj 570 66 > 0;
#N canvas 19 0 588 284 presetsnew 0;
#X obj 210 58 r savepresetn;
#X obj 203 119 t b b b;
#N canvas 266 11 957 412 name-sends-normal 0;
#N canvas 0 0 450 300 (subpatch) 0;
#X array \$1-abcbetween 16 float 2;
#X coords 0 10000 16 -10000 20 20 1;
#X restore 15 236 graph;
#X obj 395 540 tabwrite \$1-abcbetween;
#X obj 438 235 unpack f f;
#X obj 98 156 pack f 1;
#X obj 135 178 pack f 2;
#X obj 186 200 pack f 3;
#X obj 236 155 pack f 4;
#X obj 273 177 pack f 5;
#X obj 324 199 pack f 6;
#X obj 368 156 pack f 7;
#X obj 405 178 pack f 8;
#X obj 449 199 pack f 9;
#X obj 508 156 pack f 10;
#X obj 545 178 pack f 11;
#X obj 596 199 pack f 12;
#X obj 665 156 pack f 13;
#X obj 702 178 pack f 14;
#X obj 754 201 pack f 15;
#X obj 798 156 pack f 16;
#X obj 835 179 pack f 17;
#X obj 884 203 pack f 18;
#X obj 438 505 unpack f f;
#X obj 98 426 pack f 19;
#X obj 135 448 pack f 20;
#X obj 186 470 pack f 21;
#X obj 236 425 pack f 22;
#X obj 273 447 pack f 23;
#X obj 324 469 pack f 24;
#X obj 368 426 pack f 25;
#X obj 405 448 pack f 26;
#X obj 449 469 pack f 27;
#X obj 508 426 pack f 28;
#X obj 545 448 pack f 29;
#X obj 596 469 pack f 30;
#X obj 665 426 pack f 31;
#X obj 702 448 pack f 32;
#X obj 754 471 pack f 33;
#X obj 798 426 pack f 34;
#X obj 835 449 pack f 35;
#X obj 886 470 pack f 36;
#X text 38 238 -> adjust size if necessary (standard size = 109);
#X obj 27 56 r \$1-rnwsmin;
#X obj 65 79 r \$1-rnwsmax;
#X obj 89 103 r \$1-rnwstz;
#X obj 251 53 r \$1-rnwssd;
#X obj 267 74 r \$1-rnwsext;
#X obj 294 95 r \$1-rnwsto;
#X obj 414 52 r \$1-rnwson;
#X obj 585 57 r \$1-rnwsnew;
#X obj 602 79 r \$1-rnwsnmin;
#X obj 642 99 r \$1-rnwsnmax;
#X obj 464 98 r \$1-rnwslenv;
#X obj 437 76 r \$1-rnwsmode;
#X connect 2 0 1 0;
#X connect 2 1 1 1;
#X connect 3 0 2 0;
#X connect 4 0 2 0;
#X connect 5 0 2 0;
#X connect 6 0 2 0;
#X connect 7 0 2 0;
#X connect 8 0 2 0;
#X connect 9 0 2 0;
#X connect 10 0 2 0;
#X connect 11 0 2 0;
#X connect 12 0 2 0;
#X connect 13 0 2 0;
#X connect 14 0 2 0;
#X connect 15 0 2 0;
#X connect 16 0 2 0;
#X connect 17 0 2 0;
#X connect 18 0 2 0;
#X connect 19 0 2 0;
#X connect 20 0 2 0;
#X connect 21 0 1 0;
#X connect 21 1 1 1;
#X connect 22 0 21 0;
#X connect 23 0 21 0;
#X connect 24 0 21 0;
#X connect 25 0 21 0;
#X connect 26 0 21 0;
#X connect 27 0 21 0;
#X connect 28 0 21 0;
#X connect 29 0 21 0;
#X connect 30 0 21 0;
#X connect 31 0 21 0;
#X connect 32 0 21 0;
#X connect 33 0 21 0;
#X connect 34 0 21 0;
#X connect 35 0 21 0;
#X connect 36 0 21 0;
#X connect 37 0 21 0;
#X connect 38 0 21 0;
#X connect 39 0 21 0;
#X connect 41 0 3 0;
#X connect 42 0 4 0;
#X connect 43 0 5 0;
#X connect 44 0 6 0;
#X connect 45 0 7 0;
#X connect 46 0 8 0;
#X connect 48 0 12 0;
#X connect 49 0 13 0;
#X connect 50 0 14 0;
#X connect 51 0 11 0;
#X connect 52 0 10 0;
#X restore 75 27 pd name-sends-normal;
#X obj 223 196 s toextfile;
#N canvas 636 185 560 404 normal 0;
#X obj 278 134 f \$1;
#X obj 237 278 symbol;
#X obj 42 268 list prepend add2;
#X obj 42 293 list trim;
#X obj 188 51 t b b b b b;
#X obj 154 135 f 0;
#X obj 193 135 + 1;
#X msg 181 103 0;
#X msg 240 196 abcrx\$1;
#X obj 237 222 pack s f;
#X msg 237 249 \$2-\$1;
#X obj 131 102 until;
#X obj 193 161 t f f;
#X obj 21 193 tabread \$1-abcbetween;
#X text 151 77 -> aanpassen! aantal op te slagen floats;
#X obj 180 16 inlet;
#X obj 229 345 outlet;
#X msg 235 311 add2 () norm 0 0 \$1;
#X obj 111 76 f 12;
#X connect 0 0 9 1;
#X connect 1 0 17 0;
#X connect 2 0 3 0;
#X connect 3 0 16 0;
#X connect 4 3 18 0;
#X connect 4 4 0 0;
#X connect 4 4 7 0;
#X connect 5 0 6 0;
#X connect 6 0 5 1;
#X connect 6 0 12 0;
#X connect 7 0 5 1;
#X connect 8 0 9 0;
#X connect 9 0 10 0;
#X connect 10 0 1 0;
#X connect 11 0 5 0;
#X connect 12 0 13 0;
#X connect 12 1 8 0;
#X connect 13 0 2 0;
#X connect 15 0 4 0;
#X connect 17 0 16 0;
#X connect 18 0 11 0;
#X restore 217 153 pd normal;
#X text 179 152 !!->;
#X text 212 245 !!->;
#N canvas 49 0 1083 347 receive-normal 0;
#X obj 24 26 r \$1-abcrx1;
#X obj 54 46 r \$1-abcrx2;
#X obj 85 66 r \$1-abcrx3;
#X obj 196 19 r \$1-abcrx4;
#X obj 226 39 r \$1-abcrx5;
#X obj 257 59 r \$1-abcrx6;
#X obj 364 16 r \$1-abcrx7;
#X obj 382 37 r \$1-abcrx8;
#X obj 416 58 r \$1-abcrx9;
#X obj 523 33 r \$1-abcrx10;
#X obj 553 53 r \$1-abcrx11;
#X obj 584 73 r \$1-abcrx12;
#X obj 703 33 r \$1-abcrx13;
#X obj 733 53 r \$1-abcrx14;
#X obj 764 73 r \$1-abcrx15;
#X obj 863 33 r \$1-abcrx16;
#X obj 893 53 r \$1-abcrx17;
#X obj 924 73 r \$1-abcrx18;
#X obj 33 293 r \$1-abcrx19;
#X obj 63 313 r \$1-abcrx20;
#X obj 94 333 r \$1-abcrx21;
#X obj 213 293 r \$1-abcrx22;
#X obj 243 313 r \$1-abcrx23;
#X obj 274 333 r \$1-abcrx24;
#X obj 393 293 r \$1-abcrx25;
#X obj 423 313 r \$1-abcrx26;
#X obj 454 333 r \$1-abcrx27;
#X obj 543 293 r \$1-abcrx28;
#X obj 573 313 r \$1-abcrx29;
#X obj 604 333 r \$1-abcrx30;
#X obj 713 293 r \$1-abcrx31;
#X obj 743 313 r \$1-abcrx32;
#X obj 774 333 r \$1-abcrx33;
#X obj 873 293 r \$1-abcrx34;
#X obj 903 313 r \$1-abcrx35;
#X obj 934 333 r \$1-abcrx36;
#N canvas 30 18 246 218 cmp 0;
#X obj 42 65 list split 1;
#X obj 88 119 ==;
#X obj 43 151 spigot;
#X obj 43 176 outlet;
#X obj 42 28 inlet;
#X obj 110 30 r \$1-abcarg2;
#X connect 0 0 2 0;
#X connect 0 1 1 0;
#X connect 1 0 2 1;
#X connect 2 0 3 0;
#X connect 4 0 0 0;
#X connect 5 0 1 1;
#X restore 22 100 pd cmp;
#N canvas 355 32 246 300 cmp 0;
#X obj 42 65 list split 1;
#X obj 88 119 ==;
#X obj 43 151 spigot;
#X obj 43 176 outlet;
#X obj 42 28 inlet;
#X obj 110 30 r \$1-abcarg2;
#X connect 0 0 2 0;
#X connect 0 1 1 0;
#X connect 1 0 2 1;
#X connect 2 0 3 0;
#X connect 4 0 0 0;
#X connect 5 0 1 1;
#X restore 42 125 pd cmp;
#N canvas 0 0 246 300 cmp 0;
#X obj 42 65 list split 1;
#X obj 88 119 ==;
#X obj 43 151 spigot;
#X obj 43 176 outlet;
#X obj 42 28 inlet;
#X obj 110 30 r \$1-abcarg2;
#X connect 0 0 2 0;
#X connect 0 1 1 0;
#X connect 1 0 2 1;
#X connect 2 0 3 0;
#X connect 4 0 0 0;
#X connect 5 0 1 1;
#X restore 59 153 pd cmp;
#N canvas 0 0 246 300 cmp 0;
#X obj 42 65 list split 1;
#X obj 88 119 ==;
#X obj 43 151 spigot;
#X obj 43 176 outlet;
#X obj 42 28 inlet;
#X obj 110 30 r \$1-abcarg2;
#X connect 0 0 2 0;
#X connect 0 1 1 0;
#X connect 1 0 2 1;
#X connect 2 0 3 0;
#X connect 4 0 0 0;
#X connect 5 0 1 1;
#X restore 172 100 pd cmp;
#N canvas 0 0 246 300 cmp 0;
#X obj 42 65 list split 1;
#X obj 88 119 ==;
#X obj 43 151 spigot;
#X obj 43 176 outlet;
#X obj 42 28 inlet;
#X obj 110 30 r \$1-abcarg2;
#X connect 0 0 2 0;
#X connect 0 1 1 0;
#X connect 1 0 2 1;
#X connect 2 0 3 0;
#X connect 4 0 0 0;
#X connect 5 0 1 1;
#X restore 192 125 pd cmp;
#N canvas 308 15 246 215 cmp 0;
#X obj 42 65 list split 1;
#X obj 88 119 ==;
#X obj 43 151 spigot;
#X obj 43 176 outlet;
#X obj 42 28 inlet;
#X obj 110 30 r \$1-abcarg2;
#X connect 0 0 2 0;
#X connect 0 1 1 0;
#X connect 1 0 2 1;
#X connect 2 0 3 0;
#X connect 4 0 0 0;
#X connect 5 0 1 1;
#X restore 209 153 pd cmp;
#N canvas 0 0 246 300 cmp 0;
#X obj 42 65 list split 1;
#X obj 88 119 ==;
#X obj 43 151 spigot;
#X obj 43 176 outlet;
#X obj 42 28 inlet;
#X obj 110 30 r \$1-abcarg2;
#X connect 0 0 2 0;
#X connect 0 1 1 0;
#X connect 1 0 2 1;
#X connect 2 0 3 0;
#X connect 4 0 0 0;
#X connect 5 0 1 1;
#X restore 362 100 pd cmp;
#N canvas 0 0 246 300 cmp 0;
#X obj 42 65 list split 1;
#X obj 88 119 ==;
#X obj 43 151 spigot;
#X obj 43 176 outlet;
#X obj 42 28 inlet;
#X obj 110 30 r \$1-abcarg2;
#X connect 0 0 2 0;
#X connect 0 1 1 0;
#X connect 1 0 2 1;
#X connect 2 0 3 0;
#X connect 4 0 0 0;
#X connect 5 0 1 1;
#X restore 382 125 pd cmp;
#N canvas 0 0 246 300 cmp 0;
#X obj 42 65 list split 1;
#X obj 88 119 ==;
#X obj 43 151 spigot;
#X obj 43 176 outlet;
#X obj 42 28 inlet;
#X obj 110 30 r \$1-abcarg2;
#X connect 0 0 2 0;
#X connect 0 1 1 0;
#X connect 1 0 2 1;
#X connect 2 0 3 0;
#X connect 4 0 0 0;
#X connect 5 0 1 1;
#X restore 399 153 pd cmp;
#N canvas 0 0 246 300 cmp 0;
#X obj 42 65 list split 1;
#X obj 88 119 ==;
#X obj 43 151 spigot;
#X obj 43 176 outlet;
#X obj 42 28 inlet;
#X obj 110 30 r \$1-abcarg2;
#X connect 0 0 2 0;
#X connect 0 1 1 0;
#X connect 1 0 2 1;
#X connect 2 0 3 0;
#X connect 4 0 0 0;
#X connect 5 0 1 1;
#X restore 542 110 pd cmp;
#N canvas 0 0 246 300 cmp 0;
#X obj 42 65 list split 1;
#X obj 88 119 ==;
#X obj 43 151 spigot;
#X obj 43 176 outlet;
#X obj 42 28 inlet;
#X obj 110 30 r \$1-abcarg2;
#X connect 0 0 2 0;
#X connect 0 1 1 0;
#X connect 1 0 2 1;
#X connect 2 0 3 0;
#X connect 4 0 0 0;
#X connect 5 0 1 1;
#X restore 562 135 pd cmp;
#N canvas 0 0 246 300 cmp 0;
#X obj 42 65 list split 1;
#X obj 88 119 ==;
#X obj 43 151 spigot;
#X obj 43 176 outlet;
#X obj 42 28 inlet;
#X obj 110 30 r \$1-abcarg2;
#X connect 0 0 2 0;
#X connect 0 1 1 0;
#X connect 1 0 2 1;
#X connect 2 0 3 0;
#X connect 4 0 0 0;
#X connect 5 0 1 1;
#X restore 579 163 pd cmp;
#N canvas 0 0 246 300 cmp 0;
#X obj 42 65 list split 1;
#X obj 88 119 ==;
#X obj 43 151 spigot;
#X obj 43 176 outlet;
#X obj 42 28 inlet;
#X obj 110 30 r \$1-abcarg2;
#X connect 0 0 2 0;
#X connect 0 1 1 0;
#X connect 1 0 2 1;
#X connect 2 0 3 0;
#X connect 4 0 0 0;
#X connect 5 0 1 1;
#X restore 692 110 pd cmp;
#N canvas 0 0 246 300 cmp 0;
#X obj 42 65 list split 1;
#X obj 88 119 ==;
#X obj 43 151 spigot;
#X obj 43 176 outlet;
#X obj 42 28 inlet;
#X obj 110 30 r \$1-abcarg2;
#X connect 0 0 2 0;
#X connect 0 1 1 0;
#X connect 1 0 2 1;
#X connect 2 0 3 0;
#X connect 4 0 0 0;
#X connect 5 0 1 1;
#X restore 712 135 pd cmp;
#N canvas 0 0 246 300 cmp 0;
#X obj 42 65 list split 1;
#X obj 88 119 ==;
#X obj 43 151 spigot;
#X obj 43 176 outlet;
#X obj 42 28 inlet;
#X obj 110 30 r \$1-abcarg2;
#X connect 0 0 2 0;
#X connect 0 1 1 0;
#X connect 1 0 2 1;
#X connect 2 0 3 0;
#X connect 4 0 0 0;
#X connect 5 0 1 1;
#X restore 729 163 pd cmp;
#N canvas 0 0 246 300 cmp 0;
#X obj 42 65 list split 1;
#X obj 88 119 ==;
#X obj 43 151 spigot;
#X obj 43 176 outlet;
#X obj 42 28 inlet;
#X obj 110 30 r \$1-abcarg2;
#X connect 0 0 2 0;
#X connect 0 1 1 0;
#X connect 1 0 2 1;
#X connect 2 0 3 0;
#X connect 4 0 0 0;
#X connect 5 0 1 1;
#X restore 882 100 pd cmp;
#N canvas 0 0 246 300 cmp 0;
#X obj 42 65 list split 1;
#X obj 88 119 ==;
#X obj 43 151 spigot;
#X obj 43 176 outlet;
#X obj 42 28 inlet;
#X obj 110 30 r \$1-abcarg2;
#X connect 0 0 2 0;
#X connect 0 1 1 0;
#X connect 1 0 2 1;
#X connect 2 0 3 0;
#X connect 4 0 0 0;
#X connect 5 0 1 1;
#X restore 902 125 pd cmp;
#N canvas 0 0 246 300 cmp 0;
#X obj 42 65 list split 1;
#X obj 88 119 ==;
#X obj 43 151 spigot;
#X obj 43 176 outlet;
#X obj 42 28 inlet;
#X obj 110 30 r \$1-abcarg2;
#X connect 0 0 2 0;
#X connect 0 1 1 0;
#X connect 1 0 2 1;
#X connect 2 0 3 0;
#X connect 4 0 0 0;
#X connect 5 0 1 1;
#X restore 919 153 pd cmp;
#N canvas 30 18 246 218 cmp 0;
#X obj 42 65 list split 1;
#X obj 88 119 ==;
#X obj 43 151 spigot;
#X obj 43 176 outlet;
#X obj 42 28 inlet;
#X obj 110 30 r \$1-abcarg2;
#X connect 0 0 2 0;
#X connect 0 1 1 0;
#X connect 1 0 2 1;
#X connect 2 0 3 0;
#X connect 4 0 0 0;
#X connect 5 0 1 1;
#X restore 32 370 pd cmp;
#N canvas 355 32 246 300 cmp 0;
#X obj 42 65 list split 1;
#X obj 88 119 ==;
#X obj 43 151 spigot;
#X obj 43 176 outlet;
#X obj 42 28 inlet;
#X obj 110 30 r \$1-abcarg2;
#X connect 0 0 2 0;
#X connect 0 1 1 0;
#X connect 1 0 2 1;
#X connect 2 0 3 0;
#X connect 4 0 0 0;
#X connect 5 0 1 1;
#X restore 52 395 pd cmp;
#N canvas 0 0 246 300 cmp 0;
#X obj 42 65 list split 1;
#X obj 88 119 ==;
#X obj 43 151 spigot;
#X obj 43 176 outlet;
#X obj 42 28 inlet;
#X obj 110 30 r \$1-abcarg2;
#X connect 0 0 2 0;
#X connect 0 1 1 0;
#X connect 1 0 2 1;
#X connect 2 0 3 0;
#X connect 4 0 0 0;
#X connect 5 0 1 1;
#X restore 69 423 pd cmp;
#N canvas 0 0 246 300 cmp 0;
#X obj 42 65 list split 1;
#X obj 88 119 ==;
#X obj 43 151 spigot;
#X obj 43 176 outlet;
#X obj 42 28 inlet;
#X obj 110 30 r \$1-abcarg2;
#X connect 0 0 2 0;
#X connect 0 1 1 0;
#X connect 1 0 2 1;
#X connect 2 0 3 0;
#X connect 4 0 0 0;
#X connect 5 0 1 1;
#X restore 182 370 pd cmp;
#N canvas 0 0 246 300 cmp 0;
#X obj 42 65 list split 1;
#X obj 88 119 ==;
#X obj 43 151 spigot;
#X obj 43 176 outlet;
#X obj 42 28 inlet;
#X obj 110 30 r \$1-abcarg2;
#X connect 0 0 2 0;
#X connect 0 1 1 0;
#X connect 1 0 2 1;
#X connect 2 0 3 0;
#X connect 4 0 0 0;
#X connect 5 0 1 1;
#X restore 202 395 pd cmp;
#N canvas 308 15 246 215 cmp 0;
#X obj 42 65 list split 1;
#X obj 88 119 ==;
#X obj 43 151 spigot;
#X obj 43 176 outlet;
#X obj 42 28 inlet;
#X obj 110 30 r \$1-abcarg2;
#X connect 0 0 2 0;
#X connect 0 1 1 0;
#X connect 1 0 2 1;
#X connect 2 0 3 0;
#X connect 4 0 0 0;
#X connect 5 0 1 1;
#X restore 219 423 pd cmp;
#N canvas 0 0 246 300 cmp 0;
#X obj 42 65 list split 1;
#X obj 88 119 ==;
#X obj 43 151 spigot;
#X obj 43 176 outlet;
#X obj 42 28 inlet;
#X obj 110 30 r \$1-abcarg2;
#X connect 0 0 2 0;
#X connect 0 1 1 0;
#X connect 1 0 2 1;
#X connect 2 0 3 0;
#X connect 4 0 0 0;
#X connect 5 0 1 1;
#X restore 372 370 pd cmp;
#N canvas 0 0 246 300 cmp 0;
#X obj 42 65 list split 1;
#X obj 88 119 ==;
#X obj 43 151 spigot;
#X obj 43 176 outlet;
#X obj 42 28 inlet;
#X obj 110 30 r \$1-abcarg2;
#X connect 0 0 2 0;
#X connect 0 1 1 0;
#X connect 1 0 2 1;
#X connect 2 0 3 0;
#X connect 4 0 0 0;
#X connect 5 0 1 1;
#X restore 392 395 pd cmp;
#N canvas 0 0 246 300 cmp 0;
#X obj 42 65 list split 1;
#X obj 88 119 ==;
#X obj 43 151 spigot;
#X obj 43 176 outlet;
#X obj 42 28 inlet;
#X obj 110 30 r \$1-abcarg2;
#X connect 0 0 2 0;
#X connect 0 1 1 0;
#X connect 1 0 2 1;
#X connect 2 0 3 0;
#X connect 4 0 0 0;
#X connect 5 0 1 1;
#X restore 409 423 pd cmp;
#N canvas 0 0 246 300 cmp 0;
#X obj 42 65 list split 1;
#X obj 88 119 ==;
#X obj 43 151 spigot;
#X obj 43 176 outlet;
#X obj 42 28 inlet;
#X obj 110 30 r \$1-abcarg2;
#X connect 0 0 2 0;
#X connect 0 1 1 0;
#X connect 1 0 2 1;
#X connect 2 0 3 0;
#X connect 4 0 0 0;
#X connect 5 0 1 1;
#X restore 552 380 pd cmp;
#N canvas 0 0 246 300 cmp 0;
#X obj 42 65 list split 1;
#X obj 88 119 ==;
#X obj 43 151 spigot;
#X obj 43 176 outlet;
#X obj 42 28 inlet;
#X obj 110 30 r \$1-abcarg2;
#X connect 0 0 2 0;
#X connect 0 1 1 0;
#X connect 1 0 2 1;
#X connect 2 0 3 0;
#X connect 4 0 0 0;
#X connect 5 0 1 1;
#X restore 572 405 pd cmp;
#N canvas 0 0 246 300 cmp 0;
#X obj 42 65 list split 1;
#X obj 88 119 ==;
#X obj 43 151 spigot;
#X obj 43 176 outlet;
#X obj 42 28 inlet;
#X obj 110 30 r \$1-abcarg2;
#X connect 0 0 2 0;
#X connect 0 1 1 0;
#X connect 1 0 2 1;
#X connect 2 0 3 0;
#X connect 4 0 0 0;
#X connect 5 0 1 1;
#X restore 589 433 pd cmp;
#N canvas 0 0 246 300 cmp 0;
#X obj 42 65 list split 1;
#X obj 88 119 ==;
#X obj 43 151 spigot;
#X obj 43 176 outlet;
#X obj 42 28 inlet;
#X obj 110 30 r \$1-abcarg2;
#X connect 0 0 2 0;
#X connect 0 1 1 0;
#X connect 1 0 2 1;
#X connect 2 0 3 0;
#X connect 4 0 0 0;
#X connect 5 0 1 1;
#X restore 702 380 pd cmp;
#N canvas 0 0 246 300 cmp 0;
#X obj 42 65 list split 1;
#X obj 88 119 ==;
#X obj 43 151 spigot;
#X obj 43 176 outlet;
#X obj 42 28 inlet;
#X obj 110 30 r \$1-abcarg2;
#X connect 0 0 2 0;
#X connect 0 1 1 0;
#X connect 1 0 2 1;
#X connect 2 0 3 0;
#X connect 4 0 0 0;
#X connect 5 0 1 1;
#X restore 722 405 pd cmp;
#N canvas 0 0 246 300 cmp 0;
#X obj 42 65 list split 1;
#X obj 88 119 ==;
#X obj 43 151 spigot;
#X obj 43 176 outlet;
#X obj 42 28 inlet;
#X obj 110 30 r \$1-abcarg2;
#X connect 0 0 2 0;
#X connect 0 1 1 0;
#X connect 1 0 2 1;
#X connect 2 0 3 0;
#X connect 4 0 0 0;
#X connect 5 0 1 1;
#X restore 739 433 pd cmp;
#N canvas 0 0 246 300 cmp 0;
#X obj 42 65 list split 1;
#X obj 88 119 ==;
#X obj 43 151 spigot;
#X obj 43 176 outlet;
#X obj 42 28 inlet;
#X obj 110 30 r \$1-abcarg2;
#X connect 0 0 2 0;
#X connect 0 1 1 0;
#X connect 1 0 2 1;
#X connect 2 0 3 0;
#X connect 4 0 0 0;
#X connect 5 0 1 1;
#X restore 892 370 pd cmp;
#N canvas 0 0 246 300 cmp 0;
#X obj 42 65 list split 1;
#X obj 88 119 ==;
#X obj 43 151 spigot;
#X obj 43 176 outlet;
#X obj 42 28 inlet;
#X obj 110 30 r \$1-abcarg2;
#X connect 0 0 2 0;
#X connect 0 1 1 0;
#X connect 1 0 2 1;
#X connect 2 0 3 0;
#X connect 4 0 0 0;
#X connect 5 0 1 1;
#X restore 912 395 pd cmp;
#N canvas 0 0 246 300 cmp 0;
#X obj 42 65 list split 1;
#X obj 88 119 ==;
#X obj 43 151 spigot;
#X obj 43 176 outlet;
#X obj 42 28 inlet;
#X obj 110 30 r \$1-abcarg2;
#X connect 0 0 2 0;
#X connect 0 1 1 0;
#X connect 1 0 2 1;
#X connect 2 0 3 0;
#X connect 4 0 0 0;
#X connect 5 0 1 1;
#X restore 929 423 pd cmp;
#X obj 27 196 s \$1-rnwrmin;
#X obj 177 203 s \$1-rnwrsd;
#X obj 193 224 s \$1-rnwrext;
#X obj 220 245 s \$1-rnwrto;
#X obj 65 219 s \$1-rnwrmax;
#X obj 89 243 s \$1-rnwrtz;
#X obj 356 180 s \$1-rnwron;
#X obj 376 217 s \$1-rnwrmode;
#X obj 403 239 s \$1-rnwrlenv;
#X obj 522 195 s \$1-rnwrnew;
#X obj 539 217 s \$1-rnwrnmin;
#X obj 579 237 s \$1-rnwrnmax;
#X text 459 12 -> used to be on/off;
#X connect 0 0 36 0;
#X connect 1 0 37 0;
#X connect 2 0 38 0;
#X connect 3 0 39 0;
#X connect 4 0 40 0;
#X connect 5 0 41 0;
#X connect 7 0 43 0;
#X connect 8 0 44 0;
#X connect 9 0 45 0;
#X connect 10 0 46 0;
#X connect 11 0 47 0;
#X connect 12 0 48 0;
#X connect 13 0 49 0;
#X connect 14 0 50 0;
#X connect 15 0 51 0;
#X connect 16 0 52 0;
#X connect 17 0 53 0;
#X connect 18 0 54 0;
#X connect 19 0 55 0;
#X connect 20 0 56 0;
#X connect 21 0 57 0;
#X connect 22 0 58 0;
#X connect 23 0 59 0;
#X connect 24 0 60 0;
#X connect 25 0 61 0;
#X connect 26 0 62 0;
#X connect 27 0 63 0;
#X connect 28 0 64 0;
#X connect 29 0 65 0;
#X connect 30 0 66 0;
#X connect 31 0 67 0;
#X connect 32 0 68 0;
#X connect 33 0 69 0;
#X connect 34 0 70 0;
#X connect 35 0 71 0;
#X connect 36 0 72 0;
#X connect 37 0 76 0;
#X connect 38 0 77 0;
#X connect 39 0 73 0;
#X connect 40 0 74 0;
#X connect 41 0 75 0;
#X connect 42 0 78 0;
#X connect 43 0 79 0;
#X connect 44 0 80 0;
#X connect 45 0 81 0;
#X connect 46 0 82 0;
#X connect 47 0 83 0;
#X restore 251 246 pd receive-normal;
#X text 32 27 !!->;
#N canvas 0 0 246 300 cmp 0;
#X obj 42 65 list split 1;
#X obj 88 119 ==;
#X obj 43 151 spigot;
#X obj 43 176 outlet;
#X obj 42 28 inlet;
#X obj 157 64 inlet;
#X connect 0 0 2 0;
#X connect 0 1 1 0;
#X connect 1 0 2 1;
#X connect 2 0 3 0;
#X connect 4 0 0 0;
#X connect 5 0 1 1;
#X restore 209 94 pd cmp;
#X obj 458 12 loadbang;
#X obj 458 37 f \$2;
#X obj 458 85 s \$1-abcarg2;
#X connect 0 0 9 0;
#X connect 1 1 4 0;
#X connect 4 0 3 0;
#X connect 9 0 1 0;
#X connect 10 0 11 0;
#X connect 11 0 9 1;
#X connect 11 0 12 0;
#X restore 599 420 pd presetsnew;
#N canvas 490 91 682 592 velocity 0;
#X obj 180 542 outlet gate;
#X obj 94 493 makenote 60 60 100;
#X obj 252 430 * 0.75;
#X obj 90 532 outlet;
#X obj 78 455 spigot;
#X obj 23 454 spigot;
#X obj 190 457 spigot;
#X obj 135 456 spigot;
#X obj 72 14 inlet;
#X obj 251 314 r \$1-rnwrms;
#X obj 296 341 r \$1-rnwslenv;
#X obj 43 50 t f f;
#X obj 202 382 == 0;
#X obj 136 338 r \$1-rnwsmode;
#X obj 296 379 t b f;
#X floatatom 250 205 5 0 0 0 - - -;
#X floatatom 337 204 5 0 0 0 - - -;
#X floatatom 435 203 5 0 0 0 - - -;
#X floatatom 523 209 5 0 0 0 - - -;
#X floatatom 157 201 5 0 0 0 - - -;
#X obj 158 236 expr ((($f1 - $f2)/($f3 - $f2))*($f5-$f4))+$f4 \;;
#X text 430 181 out min;
#X text 518 183 out max;
#X text 247 182 in min;
#X text 335 182 in max;
#X obj 241 126 r \$1-rnwsmin;
#X obj 311 151 r \$1-rnwsmax;
#X obj 184 69 r \$1-rnwsnew;
#X obj 155 159 spigot;
#X obj 112 99 == 0;
#X obj 78 156 spigot;
#X obj 498 139 r \$1-rnwsnmin;
#X obj 538 159 r \$1-rnwsnmax;
#X obj 15 119 int;
#X obj 15 92 + 0.5;
#X obj 78 213 int;
#X obj 78 186 + 0.5;
#X obj 160 294 int;
#X obj 160 267 + 0.5;
#X connect 1 0 3 0;
#X connect 1 1 0 0;
#X connect 2 0 1 2;
#X connect 4 0 1 0;
#X connect 5 0 3 0;
#X connect 6 0 1 1;
#X connect 7 0 0 0;
#X connect 8 0 11 0;
#X connect 9 0 2 0;
#X connect 10 0 14 0;
#X connect 11 0 34 0;
#X connect 11 1 30 0;
#X connect 11 1 28 0;
#X connect 12 0 7 1;
#X connect 12 0 5 1;
#X connect 13 0 12 0;
#X connect 13 0 4 1;
#X connect 13 0 6 1;
#X connect 14 0 2 0;
#X connect 14 1 2 1;
#X connect 15 0 20 1;
#X connect 16 0 20 2;
#X connect 17 0 20 3;
#X connect 18 0 20 4;
#X connect 19 0 20 0;
#X connect 20 0 38 0;
#X connect 25 0 20 1;
#X connect 26 0 20 2;
#X connect 27 0 28 1;
#X connect 27 0 29 0;
#X connect 28 0 20 0;
#X connect 29 0 30 1;
#X connect 30 0 36 0;
#X connect 31 0 20 3;
#X connect 32 0 20 4;
#X connect 33 0 5 0;
#X connect 33 0 4 0;
#X connect 34 0 33 0;
#X connect 35 0 7 0;
#X connect 35 0 6 0;
#X connect 36 0 35 0;
#X connect 37 0 6 0;
#X connect 37 0 7 0;
#X connect 38 0 37 0;
#X restore 686 191 pd velocity;
#X obj 771 238 outlet velo;
#X connect 0 0 43 0;
#X connect 3 0 7 0;
#X connect 4 0 5 0;
#X connect 6 0 3 0;
#X connect 7 0 4 0;
#X connect 10 0 33 0;
#X connect 18 0 19 0;
#X connect 22 0 23 0;
#X connect 24 0 25 0;
#X connect 26 0 27 0;
#X connect 29 0 31 0;
#X connect 30 0 32 0;
#X connect 31 0 30 0;
#X connect 32 0 0 0;
#X connect 37 0 34 0;
#X connect 38 0 39 0;
#X connect 39 0 35 0;
#X connect 40 0 41 0;
#X connect 41 0 36 0;
#X connect 43 0 13 0;
#X connect 43 1 44 0;
