#N canvas 34 456 272 141 12;
#N canvas 169 0 986 737 liverecplay 0;
#N canvas 0 0 450 300 (subpatch) 0;
#X array \$1-researray 441000 float 2;
#X coords 0 1 441000 -1 200 140 1;
#X restore 56 708 graph;
#X obj 7 345 inlet~;
#X msg 122 551 bang;
#X msg 65 547 stop;
#X obj 48 519 vline~;
#X obj 78 397 select 0 1;
#X obj 66 428 t b b;
#X obj 27 553 *~;
#X obj 145 429 t b b;
#X obj 315 507 timer;
#X obj 406 663 <=;
#X obj 492 187 samplerate~;
#X obj 487 93 loadbang;
#X obj 356 600 *;
#X obj 362 633 t f f;
#X obj 360 691 spigot;
#X obj 320 540 / 1000;
#X floatatom 506 222 5 0 0 0 - - -;
#X obj 747 234 *;
#X obj 748 207 f;
#X obj 750 128 bng 15 250 50 0 empty empty empty 17 7 0 10 -262144
-1 -1;
#X obj 422 702 select 0;
#N canvas 0 0 466 316 printmsg 0;
#X obj 137 208 print;
#X obj 116 20 inlet;
#X obj 111 47 t b b b;
#X msg 161 84 ---your recording is too long !!!;
#X msg 141 115 ---change the max_size or;
#X msg 91 148 ---record a shorter fragment...;
#X connect 1 0 2 0;
#X connect 2 0 5 0;
#X connect 2 1 4 0;
#X connect 2 2 3 0;
#X connect 3 0 0 0;
#X connect 4 0 0 0;
#X connect 5 0 0 0;
#X restore 437 727 pd printmsg;
#X obj 460 91 bng 15 250 50 0 empty empty empty 17 7 0 10 -262144 -1
-1;
#X obj 32 39 r \$1-ressrec;
#X obj 803 186 f \$1;
#X msg 800 215 \$1-researray;
#X obj 846 245 symbol;
#X obj 758 266 pack f s;
#X msg 758 293 \; \$2 resize \$1;
#X obj 64 592 tabwrite~ \$1-researray;
#X obj 640 338 expr size("$s2");
#X obj 680 92 r \$1-ressmax;
#X obj 788 80 r \$1-ressmaxb;
#X msg 593 168 10;
#X obj 766 156 t b b b;
#X obj 490 118 t b b b;
#X obj 602 247 s \$1-resrmax;
#X msg 374 170 0;
#X obj 72 181 spigot;
#X obj 167 221 f;
#X obj 145 177 spigot;
#X obj 282 111 inlet clock;
#X obj 163 113 r \$1-resssync;
#X obj 137 148 == 0;
#X obj 367 202 s \$1-resrsync;
#X obj 167 249 change;
#X obj 560 790 f;
#X obj 527 827 pack f f s;
#X text 285 828 reconoff recsamples namearray;
#X obj 424 757 t b f;
#X obj 530 860 outlet pac;
#X obj 322 327 select 0;
#X obj 526 377 /;
#X obj 493 246 t b f;
#X obj 519 401 * 1000;
#X obj 475 436 /;
#X obj 472 465 s \$1-resrstatus;
#X obj 282 135 > 0;
#X obj 283 160 select 1;
#X msg 186 482 0 3 \, 1 20 3;
#X msg 84 486 0 3;
#X obj 20 461 delay 3;
#X obj 140 454 delay 3;
#X msg 331 755 1;
#N canvas 318 166 563 420 overtime 0;
#X obj -94 41 inlet;
#X obj -93 76 metro 1;
#X obj -90 113 f 0;
#X obj -51 115 + 1;
#X obj -22 39 inlet bangreset;
#X obj 13 259 <=;
#X obj 4 285 change;
#X obj 2 320 moses 0.5;
#X obj -12 375 s \$1-resrrec;
#X text 46 257 stop recording if recsamples > size;
#X obj 165 128 * 0.003;
#X obj 173 156 + 3;
#X text 230 129 3 ms delay of amp-envelope;
#X obj 206 41 inlet size_array_ms;
#X obj 116 39 inlet sr;
#X obj 103 188 -;
#X msg -16 71 0;
#X text 232 145 on start or stop recording;
#X obj 162 332 select 0;
#N canvas 0 0 466 316 printmsg 0;
#X obj 137 208 print;
#X obj 116 20 inlet;
#X obj 111 47 t b b b;
#X msg 161 84 ---your recording is too long !!!;
#X msg 141 115 ---change the max_size or;
#X msg 91 148 ---record a shorter fragment...;
#X connect 1 0 2 0;
#X connect 2 0 5 0;
#X connect 2 1 4 0;
#X connect 2 2 3 0;
#X connect 3 0 0 0;
#X connect 4 0 0 0;
#X connect 5 0 0 0;
#X restore 164 382 pd printmsg;
#X obj 164 357 del 10;
#X connect 0 0 1 0;
#X connect 1 0 2 0;
#X connect 2 0 3 0;
#X connect 3 0 2 1;
#X connect 3 0 5 0;
#X connect 4 0 16 0;
#X connect 5 0 6 0;
#X connect 6 0 7 0;
#X connect 7 0 8 0;
#X connect 7 0 18 0;
#X connect 10 0 11 0;
#X connect 11 0 15 1;
#X connect 13 0 15 0;
#X connect 14 0 10 0;
#X connect 15 0 5 1;
#X connect 16 0 2 1;
#X connect 18 0 20 0;
#X connect 20 0 19 0;
#X restore 253 433 pd overtime;
#X obj 172 275 t f f f;
#X obj 68 287 t f f f;
#X obj 30 64 change;
#X text 91 61 because of automatic ending of recording at end of array
and possible second zero to end to inlet 1;
#N canvas 0 0 299 212 show_rec 0;
#X obj 53 36 inlet onoff;
#X obj 178 39 inlet reset;
#X obj 85 88 metro 100;
#X obj 94 139 + 100;
#X obj 95 113 f -100;
#X msg 172 75 -100;
#X obj 92 169 outlet;
#X connect 0 0 2 0;
#X connect 1 0 5 0;
#X connect 2 0 4 0;
#X connect 3 0 4 1;
#X connect 3 0 6 0;
#X connect 4 0 3 0;
#X connect 5 0 4 1;
#X restore 330 366 pd show_rec;
#X text 302 306 reset metro-counter;
#X text 361 508 measure time between rec on and rec off;
#X connect 1 0 7 0;
#X connect 2 0 30 0;
#X connect 3 0 30 0;
#X connect 4 0 7 1;
#X connect 5 0 6 0;
#X connect 5 1 8 0;
#X connect 6 0 62 0;
#X connect 6 1 61 0;
#X connect 6 1 9 1;
#X connect 7 0 30 0;
#X connect 8 0 63 0;
#X connect 8 1 60 0;
#X connect 8 1 9 0;
#X connect 9 0 16 0;
#X connect 10 0 15 1;
#X connect 10 0 21 0;
#X connect 11 0 13 1;
#X connect 11 0 17 0;
#X connect 11 0 18 1;
#X connect 11 0 54 0;
#X connect 11 0 65 2;
#X connect 12 0 36 0;
#X connect 13 0 14 0;
#X connect 14 0 15 0;
#X connect 14 1 10 0;
#X connect 15 0 50 0;
#X connect 16 0 13 0;
#X connect 18 0 28 0;
#X connect 19 0 18 0;
#X connect 20 0 35 0;
#X connect 21 0 22 0;
#X connect 23 0 36 0;
#X connect 24 0 68 0;
#X connect 25 0 26 0;
#X connect 26 0 27 0;
#X connect 27 0 28 1;
#X connect 27 0 31 1;
#X connect 27 0 48 2;
#X connect 28 0 29 0;
#X connect 31 0 10 1;
#X connect 31 0 53 0;
#X connect 32 0 19 1;
#X connect 33 0 35 0;
#X connect 34 0 19 1;
#X connect 34 0 37 0;
#X connect 35 0 31 0;
#X connect 35 1 19 0;
#X connect 35 2 25 0;
#X connect 36 0 38 0;
#X connect 36 1 35 0;
#X connect 36 2 34 0;
#X connect 36 2 11 0;
#X connect 38 0 45 0;
#X connect 39 0 67 0;
#X connect 40 0 46 0;
#X connect 41 0 40 1;
#X connect 42 0 58 0;
#X connect 43 0 44 0;
#X connect 43 0 41 1;
#X connect 44 0 39 1;
#X connect 46 0 66 0;
#X connect 47 0 48 0;
#X connect 48 0 51 0;
#X connect 50 0 47 0;
#X connect 50 1 48 1;
#X connect 52 0 65 1;
#X connect 52 0 70 1;
#X connect 53 0 55 0;
#X connect 54 0 53 0;
#X connect 54 1 53 1;
#X connect 55 0 56 1;
#X connect 55 0 65 3;
#X connect 56 0 57 0;
#X connect 58 0 59 0;
#X connect 59 0 40 0;
#X connect 60 0 4 0;
#X connect 61 0 4 0;
#X connect 62 0 3 0;
#X connect 63 0 2 0;
#X connect 63 0 64 0;
#X connect 64 0 48 0;
#X connect 66 0 5 0;
#X connect 66 1 47 1;
#X connect 66 1 65 0;
#X connect 66 1 70 0;
#X connect 66 2 52 0;
#X connect 67 0 5 0;
#X connect 67 1 47 1;
#X connect 67 1 65 0;
#X connect 67 1 70 0;
#X connect 67 2 52 0;
#X connect 68 0 39 0;
#X connect 68 0 41 0;
#X connect 70 0 56 0;
#X restore 35 252 pd liverecplay;
#X obj 36 223 inlet~;
#X obj 642 301 r \$1-ressrec;
#X obj 644 274 r \$1-ressmaxb;
#X obj 146 201 inlet extclock;
#X obj 34 291 outlet pac;
#X obj 651 246 r \$1-resrrec;
#X text 50 313 pack: reconoff recsamples namearray;
#N canvas 73 275 837 423 printallreceives 0;
#X obj 35 63 f \$1;
#X obj 33 6 bng 15 250 50 0 empty empty empty 17 7 0 10 -262144 -1
-1;
#X obj 70 173 t f f f f f f f f f;
#X obj 36 87 t f f;
#X obj 166 21 r \$1-resprintreceives;
#X obj 92 136 print start;
#X obj 49 393 print end;
#X msg 91 109 names of receives in [record-sample \$1]...................>>
;
#X msg 48 344 <<.........................................[record-sample
\$1];
#X obj 10 21 r printreceives;
#X obj 381 248 print rec[0-1];
#X msg 378 222 \$1-resrrec;
#X obj 272 284 print max_size[1-60];
#X msg 265 249 \$1-resrmax;
#X msg 157 237 \$1-resrmaxb;
#X obj 161 260 print go[1];
#X obj 127 310 print sync_with_ext_clock[0-1];
#X msg 125 287 \$1-resrsync;
#X connect 0 0 3 0;
#X connect 1 0 0 0;
#X connect 2 0 8 0;
#X connect 2 5 17 0;
#X connect 2 6 14 0;
#X connect 2 7 13 0;
#X connect 2 8 11 0;
#X connect 3 0 2 0;
#X connect 3 1 7 0;
#X connect 4 0 0 0;
#X connect 7 0 5 0;
#X connect 8 0 6 0;
#X connect 9 0 0 0;
#X connect 11 0 10 0;
#X connect 13 0 12 0;
#X connect 14 0 15 0;
#X connect 17 0 16 0;
#X restore 331 214 pd printallreceives;
#N canvas 792 487 429 165 \$1-record-sampleextra 0;
#X obj 8 72 bng 15 250 50 0 printreceives empty print_all_receives
17 7 0 10 -262144 -1 -1;
#X obj 7 13 bng 15 250 50 0 \$1-resprintreceives empty print_names_of_receives
17 7 0 10 -262144 -1 -1;
#X text 66 91 (of all objects in open files);
#X text 65 32 (of this 'record-sample' object);
#X restore 333 186 pd \$1-record-sampleextra;
#X obj 544 178 f \$1;
#X obj 544 229 symbol;
#X msg 544 254 \; \$1 vis 1;
#X obj 542 155 r \$1-ressextraoptions;
#X msg 545 203 pd-\$1-record-sampleextra;
#N canvas 335 33 859 875 foutmelding 0;
#X obj 87 38 loadbang;
#X obj 79 83 f \$1;
#X obj 73 111 select 0;
#X msg 75 197 \; \$1 vis 1;
#X msg 74 142 36;
#X text 151 150 ascii-code voor $;
#X text 197 199 als er geen argument is \, noemt de subpatch vreemd
genoeg niet pd 0-warning maar wel pd \$1-warning;
#X text 129 80 als er geen argument is geeft f \$1 een 0;
#X obj 154 336 del 100;
#X msg 319 355 1;
#X obj 238 405 spigot;
#X obj 342 453 spigot;
#X obj 409 425 == 0;
#X obj 338 423 r record-sample;
#X obj 240 489 s record-sample;
#X obj 208 305 t b b b;
#X obj 314 389 t f f;
#X obj 241 429 del 150;
#X obj 239 460 f \$1;
#X msg 169 357 0;
#X obj 378 506 == \$1;
#X obj 455 604 > 1;
#X obj 341 478 t f f;
#X obj 391 568 f 0;
#X obj 390 538 select 1;
#X obj 330 541 spigot;
#X obj 459 569 + 1;
#X obj 336 602 == \$1;
#X obj 396 628 &&;
#X obj 158 628 print pop;
#X text 487 604 groter dan 1 want vergelijking et zichzelf levert sowieso
al 1 op en dan met ev. zelfde object met identiek argument levert 2
op!;
#X obj 396 656 select 1;
#X obj 396 678 f \$1;
#X obj 398 768 symbol;
#X msg 396 795 \; \$1 vis 1;
#X obj 363 706 t f f;
#X obj 92 820 symbol;
#X obj 170 872 print;
#X obj 326 662 bng 15 250 50 0 empty empty empty 17 7 0 10 -262144
-1 -1;
#X msg 173 839 !!! these two abunch objects have the same argument
number: [record-sample \$1];
#X text 406 346 alleen net gecreerde object verstuurt waarde;
#X text 398 372 bij eerder gemaakte objecten staat spigot voor receive
open;
#N canvas 670 470 308 138 \$1-record-samplewarning 0;
#X obj -1 0 cnv 15 320 150 empty empty empty 20 12 0 14 -258699 -66577
0;
#X text 11 32 You forgot to add an unique number;
#X text 11 78 when you created this abunch object;
#X restore 349 165 pd \$1-record-samplewarning;
#N canvas 856 445 335 135 \$1-record-samplesameargument 0;
#X obj -1 0 cnv 15 330 150 empty empty empty 20 12 0 14 -258699 -66577
0;
#X msg 393 108;
#X text 314 243 is used already!!;
#X obj 344 35 inlet;
#X symbolatom 351 77 10 0 0 0 - - -;
#X obj 98 40 cnv 15 60 20 empty empty empty 20 12 0 14 -233017 -66577
0;
#X text 24 40 Create an unique number for this;
#X text 102 69 abunch object.;
#X connect 3 0 1 0;
#X connect 3 0 4 0;
#X restore 541 770 pd \$1-record-samplesameargument;
#X msg 397 738 pd-\$1-record-samplesameargument;
#X obj 74 171 makefilename pd-%c1-record-samplewarning;
#X connect 0 0 1 0;
#X connect 0 0 15 0;
#X connect 1 0 2 0;
#X connect 2 0 4 0;
#X connect 4 0 45 0;
#X connect 8 0 19 0;
#X connect 9 0 16 0;
#X connect 10 0 17 0;
#X connect 11 0 22 0;
#X connect 12 0 11 1;
#X connect 13 0 11 0;
#X connect 15 0 8 0;
#X connect 15 1 10 0;
#X connect 15 2 9 0;
#X connect 16 0 10 1;
#X connect 16 1 12 0;
#X connect 17 0 18 0;
#X connect 18 0 14 0;
#X connect 19 0 16 0;
#X connect 20 0 24 0;
#X connect 20 0 25 1;
#X connect 21 0 28 1;
#X connect 22 0 25 0;
#X connect 22 1 20 0;
#X connect 23 0 26 0;
#X connect 24 0 23 0;
#X connect 25 0 27 0;
#X connect 26 0 23 1;
#X connect 26 0 21 0;
#X connect 27 0 28 0;
#X connect 28 0 31 0;
#X connect 31 0 32 0;
#X connect 32 0 35 0;
#X connect 33 0 34 0;
#X connect 35 0 44 0;
#X connect 35 1 39 0;
#X connect 38 0 32 0;
#X connect 39 0 37 0;
#X connect 44 0 33 0;
#X connect 45 0 3 0;
#X restore 365 272 pd foutmelding;
#X obj 405 34 inlet onoff;
#X obj 404 100 s \$1-resrrec;
#N canvas 744 585 566 199 needsound 0;
#X obj 22 34 r soundfileyesno;
#X msg 18 67 0;
#X obj 22 138 s answersoundfile;
#X text 63 65 0 = this abunch object doesn't need a sound file (store
in a preset file) \, 1 = it does;
#X connect 0 0 1 0;
#X connect 1 0 2 0;
#X restore 385 243 pd needsound;
#N canvas 739 91 311 240 save-presets 0;
#X obj 32 27 r \$1-ressmax;
#X obj 138 30 r \$1-resssync;
#N canvas 134 181 1016 630 save_preset_array 0;
#X obj 19 403 inlet gui1;
#X obj 112 405 inlet gui2;
#X obj 197 403 inlet gui3;
#X obj 290 405 inlet gui4;
#X obj 376 406 inlet gui15;
#X obj 469 408 inlet gui6;
#X obj 554 406 inlet gui7;
#X obj 647 408 inlet gui8;
#X obj 732 408 inlet gui9;
#X obj 825 410 inlet gui10;
#X obj 743 446 f;
#X obj 824 448 f;
#X obj 566 443 f;
#X obj 647 445 f;
#X obj 380 439 f;
#X obj 461 441 f;
#X obj 204 438 f;
#X obj 285 440 f;
#X obj 25 443 f;
#X obj 106 445 f;
#X obj 83 109 until;
#X obj 62 173 + 1;
#X obj 89 142 f 0;
#X obj 79 42 bng 15 250 50 0 empty empty empty 17 7 0 10 -262144 -1
-1;
#X obj 60 332 select 1 2 3 4 5 6 7 8 9 10;
#X obj 571 505 r openpreset;
#X obj 162 18 r savepreset;
#X obj 21 825 outlet gui1;
#X obj 112 827 outlet gui2;
#X obj 201 827 outlet gui3;
#X obj 293 827 outlet gui4;
#X obj 475 827 outlet gui6;
#X obj 384 827 outlet gui5;
#X obj 567 827 outlet gui7;
#X obj 658 827 outlet gui8;
#X obj 748 827 outlet gui9;
#X obj 840 826 outlet gui10;
#X obj 495 598 until;
#X obj 472 657 + 1;
#X obj 499 626 f 0;
#N canvas 52 160 1048 298 router_1inxout 0;
#X obj 231 27 inlet one;
#X obj 339 23 inlet route123;
#X obj 35 211 outlet one;
#X obj 124 210 outlet two;
#X obj 218 211 outlet three;
#X obj 323 211 outlet four;
#X obj 415 210 outlet five;
#X obj 510 211 outlet six;
#X obj 599 210 outlet seven;
#X obj 700 213 outlet eigth;
#X obj 805 212 outlet nine;
#X obj 897 211 outlet ten;
#X obj 360 124 route 1 2 3 4 5 6 7 8 9 10;
#X obj 361 83 pack;
#X obj 296 57 mod 12;
#X connect 0 0 14 0;
#X connect 1 0 13 1;
#X connect 12 0 2 0;
#X connect 12 1 3 0;
#X connect 12 2 4 0;
#X connect 12 3 5 0;
#X connect 12 4 6 0;
#X connect 12 5 7 0;
#X connect 12 6 8 0;
#X connect 12 7 9 0;
#X connect 12 8 10 0;
#X connect 12 9 11 0;
#X connect 13 0 12 0;
#X connect 14 0 13 0;
#X restore 459 776 pd router_1inxout;
#X obj 211 106 f 0;
#X obj 335 24 r presetnr;
#X obj 336 49 * 12;
#X obj 334 72 - 12;
#X obj 587 587 f 0;
#X obj 495 685 t f f;
#X obj 85 201 t f f;
#X obj 736 509 bng 15 250 50 0 empty empty empty 17 7 0 10 -262144
-1 -1;
#N canvas 0 0 450 300 (subpatch) 0;
#X array \$1-respreset 240 float 2;
#X coords 0 200 239 -1 200 140 1;
#X restore 591 131 graph;
#X obj 66 240 mod 12;
#X text 386 60 -> !!! per 12;
#X text 130 240 -> !!! per 12;
#X text 612 775 -> !!! hierin ook per 12;
#X msg 133 82 12;
#X text 174 83 -> !!! per 12;
#X text 579 54 max 12 parameters/waarden voor array/presets;
#X obj 302 204 symbol;
#X obj 403 183 symbol;
#X obj 345 245 pack s s;
#X obj 402 153 r namepreset;
#X obj 294 155 f \$1;
#X obj 167 43 t b b b;
#X obj 570 546 t b b b;
#X text 130 312 -> !!! per 12;
#X obj 716 628 symbol;
#X obj 756 655 pack s s;
#X obj 827 582 r namepreset;
#X obj 662 578 f \$1;
#X obj 152 163 print bng;
#X obj 819 618 symbol;
#X msg 319 272 \; \$1 write presets/\$2-\$1.txt;
#X msg 750 686 \; \$1 read presets/\$2-\$1.txt;
#X msg 528 575 12;
#X msg 294 182 \$1-respreset;
#X obj 260 552 tabwrite \$1-respreset;
#X msg 675 604 \$1-respreset;
#X obj 449 736 tabread \$1-respreset;
#X connect 0 0 18 1;
#X connect 1 0 19 1;
#X connect 2 0 16 1;
#X connect 3 0 17 1;
#X connect 4 0 14 1;
#X connect 5 0 15 1;
#X connect 6 0 12 1;
#X connect 7 0 13 1;
#X connect 8 0 10 1;
#X connect 9 0 11 1;
#X connect 10 0 75 0;
#X connect 11 0 75 0;
#X connect 12 0 75 0;
#X connect 13 0 75 0;
#X connect 14 0 75 0;
#X connect 15 0 75 0;
#X connect 16 0 75 0;
#X connect 17 0 75 0;
#X connect 18 0 75 0;
#X connect 19 0 75 0;
#X connect 20 0 22 0;
#X connect 21 0 22 1;
#X connect 21 0 47 0;
#X connect 22 0 21 0;
#X connect 23 0 20 0;
#X connect 24 0 18 0;
#X connect 24 1 19 0;
#X connect 24 2 16 0;
#X connect 24 3 17 0;
#X connect 25 0 63 0;
#X connect 26 0 62 0;
#X connect 37 0 39 0;
#X connect 38 0 39 1;
#X connect 38 0 46 0;
#X connect 39 0 38 0;
#X connect 40 0 27 0;
#X connect 40 1 28 0;
#X connect 40 2 29 0;
#X connect 40 3 30 0;
#X connect 41 0 22 1;
#X connect 42 0 43 0;
#X connect 43 0 44 0;
#X connect 44 0 41 1;
#X connect 44 0 45 1;
#X connect 45 0 39 1;
#X connect 46 0 40 0;
#X connect 46 1 77 0;
#X connect 47 0 50 0;
#X connect 47 1 75 1;
#X connect 48 0 63 0;
#X connect 50 0 24 0;
#X connect 54 0 20 0;
#X connect 57 0 59 0;
#X connect 58 0 59 1;
#X connect 59 0 71 0;
#X connect 60 0 58 0;
#X connect 61 0 74 0;
#X connect 62 0 61 0;
#X connect 62 0 69 0;
#X connect 62 1 54 0;
#X connect 62 2 41 0;
#X connect 63 0 73 0;
#X connect 63 1 45 0;
#X connect 63 2 68 0;
#X connect 65 0 66 0;
#X connect 66 0 72 0;
#X connect 67 0 70 0;
#X connect 68 0 76 0;
#X connect 70 0 66 1;
#X connect 73 0 37 0;
#X connect 74 0 57 0;
#X connect 76 0 65 0;
#X connect 77 0 40 1;
#X restore 69 75 pd save_preset_array;
#X obj 161 175 s \$1-resrsync;
#X obj 101 142 s \$1-resrmax;
#X obj 33 171 s \$1-resrmaxb;
#X obj 60 109 t b f;
#X connect 0 0 2 0;
#X connect 1 0 2 1;
#X connect 2 0 6 0;
#X connect 2 1 3 0;
#X connect 6 0 5 0;
#X connect 6 1 4 0;
#X restore 383 156 pd save-presets;
#X obj 145 227 route float symbol;
#X obj -2 -4 cnv 15 275 145 empty empty empty 50 12 0 10 -258699 -143491
0;
#X obj 40 23 tgl 30 0 \$1-ressrec \$1-resrrec rec 3 -8 0 12 -184321
-1 -262144 0 1;
#X obj 38 81 tgl 15 0 \$1-resssync \$1-resrsync sync_with_ext_clock
17 7 0 10 -228856 -1 -1 0 1;
#X obj 43 58 hsl 200 15 0 1 0 0 aar \$1-resrstatus empty -2 -8 0 10
-86277 -260097 -1 0 1;
#X obj 118 15 cnv 15 125 40 empty empty empty 20 12 0 14 -233017 -66577
0;
#X obj 125 32 nbx 5 14 1 60 0 0 \$1-ressmax \$1-resrmax max_size 0
-8 0 10 -262144 -1 -1 10 256;
#X obj 197 32 bng 15 250 50 0 \$1-ressmaxb \$1-resrmaxb go 17 7 0 10
-262144 -1 -1;
#X obj 176 114 bng 10 250 50 0 \$1-ressextraoptions empty extra_options
17 7 0 8 -228856 -1 -1;
#X obj 405 62 > 0;
#N canvas 365 462 450 166 printname 0;
#X obj 54 33 r printallnames;
#X obj 54 87 symbol;
#X obj 54 112 s rallnames;
#X msg 54 62 record-sample;
#X connect 0 0 3 0;
#X connect 1 0 2 0;
#X connect 3 0 1 0;
#X restore 379 299 pd printname;
#N canvas 388 396 588 284 presetsnew 0;
#X obj 210 58 r savepresetn;
#X obj 203 119 t b b b;
#N canvas 126 118 755 340 name-sends-normal 0;
#N canvas 0 0 450 300 (subpatch) 0;
#X array \$1-resbetween 8 float 2;
#X coords 0 10000 8 -10000 20 20 1;
#X restore 15 236 graph;
#X obj 401 272 tabwrite \$1-resbetween;
#X obj 438 235 unpack f f;
#X obj 98 156 pack f 1;
#X obj 135 178 pack f 2;
#X obj 186 200 pack f 3;
#X obj 236 155 pack f 4;
#X obj 273 177 pack f 5;
#X obj 324 199 pack f 6;
#X obj 368 156 pack f 7;
#X obj 405 178 pack f 8;
#X obj 449 199 pack f 9;
#X obj 508 156 pack f 10;
#X obj 545 178 pack f 11;
#X obj 596 199 pack f 12;
#X obj 665 156 pack f 13;
#X obj 702 178 pack f 14;
#X obj 754 201 pack f 15;
#X obj 798 156 pack f 16;
#X obj 835 179 pack f 17;
#X obj 884 203 pack f 18;
#X text 38 238 -> adjust size if necessary (standard size = 109);
#X obj 56 75 r \$1-ressmax;
#X obj 162 78 r \$1-resssync;
#X connect 2 0 1 0;
#X connect 2 1 1 1;
#X connect 3 0 2 0;
#X connect 4 0 2 0;
#X connect 5 0 2 0;
#X connect 6 0 2 0;
#X connect 7 0 2 0;
#X connect 8 0 2 0;
#X connect 9 0 2 0;
#X connect 10 0 2 0;
#X connect 11 0 2 0;
#X connect 12 0 2 0;
#X connect 13 0 2 0;
#X connect 14 0 2 0;
#X connect 15 0 2 0;
#X connect 16 0 2 0;
#X connect 17 0 2 0;
#X connect 18 0 2 0;
#X connect 19 0 2 0;
#X connect 20 0 2 0;
#X connect 22 0 3 0;
#X connect 23 0 4 0;
#X restore 75 27 pd name-sends-normal;
#X obj 223 196 s toextfile;
#N canvas 636 185 560 404 normal 0;
#X obj 278 134 f \$1;
#X obj 237 278 symbol;
#X obj 42 268 list prepend add2;
#X obj 42 293 list trim;
#X obj 188 51 t b b b b b;
#X obj 154 135 f 0;
#X obj 193 135 + 1;
#X msg 181 103 0;
#X msg 240 196 resrx\$1;
#X obj 237 222 pack s f;
#X msg 237 249 \$2-\$1;
#X obj 131 102 until;
#X obj 193 161 t f f;
#X obj 21 193 tabread \$1-resbetween;
#X text 151 77 -> aanpassen! aantal op te slagen floats;
#X obj 180 16 inlet;
#X obj 229 345 outlet;
#X msg 235 311 add2 () norm 0 0 \$1;
#X obj 111 76 f 2;
#X connect 0 0 9 1;
#X connect 1 0 17 0;
#X connect 2 0 3 0;
#X connect 3 0 16 0;
#X connect 4 3 18 0;
#X connect 4 4 0 0;
#X connect 4 4 7 0;
#X connect 5 0 6 0;
#X connect 6 0 5 1;
#X connect 6 0 12 0;
#X connect 7 0 5 1;
#X connect 8 0 9 0;
#X connect 9 0 10 0;
#X connect 10 0 1 0;
#X connect 11 0 5 0;
#X connect 12 0 13 0;
#X connect 12 1 8 0;
#X connect 13 0 2 0;
#X connect 15 0 4 0;
#X connect 17 0 16 0;
#X connect 18 0 11 0;
#X restore 217 153 pd normal;
#X text 179 152 !!->;
#X text 212 245 !!->;
#N canvas 49 0 1083 299 receive-normal 0;
#X obj 24 26 r \$1-resrx1;
#X obj 54 46 r \$1-resrx2;
#X obj 85 66 r \$1-resrx3;
#X obj 196 19 r \$1-resrx4;
#X obj 226 39 r \$1-resrx5;
#X obj 257 59 r \$1-resrx6;
#X obj 364 16 r \$1-resrx7;
#X obj 382 37 r \$1-resrx8;
#X obj 416 58 r \$1-resrx9;
#X obj 523 33 r \$1-resrx10;
#X obj 553 53 r \$1-resrx11;
#X obj 584 73 r \$1-resrx12;
#X obj 703 33 r \$1-resrx13;
#X obj 733 53 r \$1-resrx14;
#X obj 764 73 r \$1-resrx15;
#X obj 863 33 r \$1-resrx16;
#X obj 893 53 r \$1-resrx17;
#X obj 924 73 r \$1-resrx18;
#X text 667 236 ^ hier aanvullen ^;
#N canvas 30 18 246 218 cmp 0;
#X obj 42 65 list split 1;
#X obj 88 119 ==;
#X obj 43 151 spigot;
#X obj 43 176 outlet;
#X obj 42 28 inlet;
#X obj 110 30 r \$1-resarg2;
#X connect 0 0 2 0;
#X connect 0 1 1 0;
#X connect 1 0 2 1;
#X connect 2 0 3 0;
#X connect 4 0 0 0;
#X connect 5 0 1 1;
#X restore 22 100 pd cmp;
#N canvas 355 32 246 300 cmp 0;
#X obj 42 65 list split 1;
#X obj 88 119 ==;
#X obj 43 151 spigot;
#X obj 43 176 outlet;
#X obj 42 28 inlet;
#X obj 110 30 r \$1-resarg2;
#X connect 0 0 2 0;
#X connect 0 1 1 0;
#X connect 1 0 2 1;
#X connect 2 0 3 0;
#X connect 4 0 0 0;
#X connect 5 0 1 1;
#X restore 42 125 pd cmp;
#N canvas 0 0 246 300 cmp 0;
#X obj 42 65 list split 1;
#X obj 88 119 ==;
#X obj 43 151 spigot;
#X obj 43 176 outlet;
#X obj 42 28 inlet;
#X obj 110 30 r \$1-resarg2;
#X connect 0 0 2 0;
#X connect 0 1 1 0;
#X connect 1 0 2 1;
#X connect 2 0 3 0;
#X connect 4 0 0 0;
#X connect 5 0 1 1;
#X restore 106 135 pd cmp;
#N canvas 0 0 246 300 cmp 0;
#X obj 42 65 list split 1;
#X obj 88 119 ==;
#X obj 43 151 spigot;
#X obj 43 176 outlet;
#X obj 42 28 inlet;
#X obj 110 30 r \$1-resarg2;
#X connect 0 0 2 0;
#X connect 0 1 1 0;
#X connect 1 0 2 1;
#X connect 2 0 3 0;
#X connect 4 0 0 0;
#X connect 5 0 1 1;
#X restore 172 100 pd cmp;
#N canvas 0 0 246 300 cmp 0;
#X obj 42 65 list split 1;
#X obj 88 119 ==;
#X obj 43 151 spigot;
#X obj 43 176 outlet;
#X obj 42 28 inlet;
#X obj 110 30 r \$1-resarg2;
#X connect 0 0 2 0;
#X connect 0 1 1 0;
#X connect 1 0 2 1;
#X connect 2 0 3 0;
#X connect 4 0 0 0;
#X connect 5 0 1 1;
#X restore 192 125 pd cmp;
#N canvas 308 15 246 215 cmp 0;
#X obj 42 65 list split 1;
#X obj 88 119 ==;
#X obj 43 151 spigot;
#X obj 43 176 outlet;
#X obj 42 28 inlet;
#X obj 110 30 r \$1-resarg2;
#X connect 0 0 2 0;
#X connect 0 1 1 0;
#X connect 1 0 2 1;
#X connect 2 0 3 0;
#X connect 4 0 0 0;
#X connect 5 0 1 1;
#X restore 209 153 pd cmp;
#N canvas 0 0 246 300 cmp 0;
#X obj 42 65 list split 1;
#X obj 88 119 ==;
#X obj 43 151 spigot;
#X obj 43 176 outlet;
#X obj 42 28 inlet;
#X obj 110 30 r \$1-resarg2;
#X connect 0 0 2 0;
#X connect 0 1 1 0;
#X connect 1 0 2 1;
#X connect 2 0 3 0;
#X connect 4 0 0 0;
#X connect 5 0 1 1;
#X restore 362 100 pd cmp;
#N canvas 0 0 246 300 cmp 0;
#X obj 42 65 list split 1;
#X obj 88 119 ==;
#X obj 43 151 spigot;
#X obj 43 176 outlet;
#X obj 42 28 inlet;
#X obj 110 30 r \$1-resarg2;
#X connect 0 0 2 0;
#X connect 0 1 1 0;
#X connect 1 0 2 1;
#X connect 2 0 3 0;
#X connect 4 0 0 0;
#X connect 5 0 1 1;
#X restore 382 125 pd cmp;
#N canvas 0 0 246 300 cmp 0;
#X obj 42 65 list split 1;
#X obj 88 119 ==;
#X obj 43 151 spigot;
#X obj 43 176 outlet;
#X obj 42 28 inlet;
#X obj 110 30 r \$1-resarg2;
#X connect 0 0 2 0;
#X connect 0 1 1 0;
#X connect 1 0 2 1;
#X connect 2 0 3 0;
#X connect 4 0 0 0;
#X connect 5 0 1 1;
#X restore 399 153 pd cmp;
#N canvas 0 0 246 300 cmp 0;
#X obj 42 65 list split 1;
#X obj 88 119 ==;
#X obj 43 151 spigot;
#X obj 43 176 outlet;
#X obj 42 28 inlet;
#X obj 110 30 r \$1-resarg2;
#X connect 0 0 2 0;
#X connect 0 1 1 0;
#X connect 1 0 2 1;
#X connect 2 0 3 0;
#X connect 4 0 0 0;
#X connect 5 0 1 1;
#X restore 542 110 pd cmp;
#N canvas 0 0 246 300 cmp 0;
#X obj 42 65 list split 1;
#X obj 88 119 ==;
#X obj 43 151 spigot;
#X obj 43 176 outlet;
#X obj 42 28 inlet;
#X obj 110 30 r \$1-resarg2;
#X connect 0 0 2 0;
#X connect 0 1 1 0;
#X connect 1 0 2 1;
#X connect 2 0 3 0;
#X connect 4 0 0 0;
#X connect 5 0 1 1;
#X restore 562 135 pd cmp;
#N canvas 0 0 246 300 cmp 0;
#X obj 42 65 list split 1;
#X obj 88 119 ==;
#X obj 43 151 spigot;
#X obj 43 176 outlet;
#X obj 42 28 inlet;
#X obj 110 30 r \$1-resarg2;
#X connect 0 0 2 0;
#X connect 0 1 1 0;
#X connect 1 0 2 1;
#X connect 2 0 3 0;
#X connect 4 0 0 0;
#X connect 5 0 1 1;
#X restore 579 163 pd cmp;
#N canvas 0 0 246 300 cmp 0;
#X obj 42 65 list split 1;
#X obj 88 119 ==;
#X obj 43 151 spigot;
#X obj 43 176 outlet;
#X obj 42 28 inlet;
#X obj 110 30 r \$1-resarg2;
#X connect 0 0 2 0;
#X connect 0 1 1 0;
#X connect 1 0 2 1;
#X connect 2 0 3 0;
#X connect 4 0 0 0;
#X connect 5 0 1 1;
#X restore 692 110 pd cmp;
#N canvas 0 0 246 300 cmp 0;
#X obj 42 65 list split 1;
#X obj 88 119 ==;
#X obj 43 151 spigot;
#X obj 43 176 outlet;
#X obj 42 28 inlet;
#X obj 110 30 r \$1-resarg2;
#X connect 0 0 2 0;
#X connect 0 1 1 0;
#X connect 1 0 2 1;
#X connect 2 0 3 0;
#X connect 4 0 0 0;
#X connect 5 0 1 1;
#X restore 712 135 pd cmp;
#N canvas 0 0 246 300 cmp 0;
#X obj 42 65 list split 1;
#X obj 88 119 ==;
#X obj 43 151 spigot;
#X obj 43 176 outlet;
#X obj 42 28 inlet;
#X obj 110 30 r \$1-resarg2;
#X connect 0 0 2 0;
#X connect 0 1 1 0;
#X connect 1 0 2 1;
#X connect 2 0 3 0;
#X connect 4 0 0 0;
#X connect 5 0 1 1;
#X restore 729 163 pd cmp;
#N canvas 0 0 246 300 cmp 0;
#X obj 42 65 list split 1;
#X obj 88 119 ==;
#X obj 43 151 spigot;
#X obj 43 176 outlet;
#X obj 42 28 inlet;
#X obj 110 30 r \$1-resarg2;
#X connect 0 0 2 0;
#X connect 0 1 1 0;
#X connect 1 0 2 1;
#X connect 2 0 3 0;
#X connect 4 0 0 0;
#X connect 5 0 1 1;
#X restore 882 100 pd cmp;
#N canvas 0 0 246 300 cmp 0;
#X obj 42 65 list split 1;
#X obj 88 119 ==;
#X obj 43 151 spigot;
#X obj 43 176 outlet;
#X obj 42 28 inlet;
#X obj 110 30 r \$1-resarg2;
#X connect 0 0 2 0;
#X connect 0 1 1 0;
#X connect 1 0 2 1;
#X connect 2 0 3 0;
#X connect 4 0 0 0;
#X connect 5 0 1 1;
#X restore 902 125 pd cmp;
#N canvas 0 0 246 300 cmp 0;
#X obj 42 65 list split 1;
#X obj 88 119 ==;
#X obj 43 151 spigot;
#X obj 43 176 outlet;
#X obj 42 28 inlet;
#X obj 110 30 r \$1-resarg2;
#X connect 0 0 2 0;
#X connect 0 1 1 0;
#X connect 1 0 2 1;
#X connect 2 0 3 0;
#X connect 4 0 0 0;
#X connect 5 0 1 1;
#X restore 919 153 pd cmp;
#X obj 145 252 s \$1-resrsync;
#X obj 68 226 s \$1-resrmax;
#X obj 33 251 s \$1-resrmaxb;
#X obj 30 198 t b f;
#X connect 0 0 19 0;
#X connect 1 0 20 0;
#X connect 2 0 21 0;
#X connect 3 0 22 0;
#X connect 4 0 23 0;
#X connect 5 0 24 0;
#X connect 6 0 25 0;
#X connect 7 0 26 0;
#X connect 8 0 27 0;
#X connect 9 0 28 0;
#X connect 10 0 29 0;
#X connect 11 0 30 0;
#X connect 12 0 31 0;
#X connect 13 0 32 0;
#X connect 14 0 33 0;
#X connect 15 0 34 0;
#X connect 16 0 35 0;
#X connect 17 0 36 0;
#X connect 19 0 40 0;
#X connect 20 0 37 0;
#X connect 40 0 39 0;
#X connect 40 1 38 0;
#X restore 251 246 pd receive-normal;
#X text 32 27 !!->;
#N canvas 0 0 246 300 cmp 0;
#X obj 42 65 list split 1;
#X obj 88 119 ==;
#X obj 43 151 spigot;
#X obj 43 176 outlet;
#X obj 42 28 inlet;
#X obj 157 64 inlet;
#X connect 0 0 2 0;
#X connect 0 1 1 0;
#X connect 1 0 2 1;
#X connect 2 0 3 0;
#X connect 4 0 0 0;
#X connect 5 0 1 1;
#X restore 209 94 pd cmp;
#X obj 458 12 loadbang;
#X obj 458 37 f \$2;
#X obj 458 85 s \$1-resarg2;
#X connect 0 0 9 0;
#X connect 1 1 4 0;
#X connect 4 0 3 0;
#X connect 9 0 1 0;
#X connect 10 0 11 0;
#X connect 11 0 9 1;
#X connect 11 0 12 0;
#X restore 392 134 pd presetsnew;
#N canvas 494 299 309 218 clear_array 0;
#X msg 85 98 \$1-researray;
#X obj 85 123 symbol;
#X msg 85 156 \; \$1 const 0;
#X obj 85 69 f \$1;
#X obj 85 37 r \$1-ressclear;
#X connect 0 0 1 0;
#X connect 1 0 2 0;
#X connect 3 0 0 0;
#X connect 4 0 3 0;
#X restore 357 348 pd clear_array;
#X obj 38 102 bng 15 250 50 0 \$1-ressclear \$1-resrclear clear 17
7 0 10 -237178 -1 -1;
#X connect 0 0 5 0;
#X connect 1 0 0 0;
#X connect 4 0 20 0;
#X connect 10 0 14 0;
#X connect 11 0 12 0;
#X connect 13 0 10 0;
#X connect 14 0 11 0;
#X connect 16 0 29 0;
#X connect 20 0 0 1;
#X connect 29 0 17 0;
