#N canvas 810 62 288 136 12;
#X obj 431 79 s \$1-scdrton;
#X obj 539 79 s \$1-scdrscd;
#X obj 127 218 inlet;
#X obj 428 40 inlet tonic;
#X obj 536 39 inlet scdle;
#X obj 181 222 inlet velocity;
#X obj 76 351 outlet pitch;
#X obj 177 362 outlet velo;
#X text 373 607 velocity in input2:;
#X obj 535 608 tgl 15 0 \$1-scdsvelon \$1-scdrvelon yes/no 17 7 0 8
-262144 -1 -1 0 1;
#N canvas 629 21 562 423 printallreceives 0;
#X obj 35 63 f \$1;
#X obj 33 6 bng 15 250 50 0 empty empty empty 17 7 0 10 -262144 -1
-1;
#X obj 70 173 t f f f f f f f f f;
#X obj 36 87 t f f;
#X obj 166 21 r \$1-scdprintreceives;
#X obj 92 136 print start;
#X obj 49 370 print end;
#X msg 91 109 names of receives in [scdles-div \$1]...................>>
;
#X msg 48 344 <<.........................................[scdles-div
\$1];
#X obj 10 21 r printreceives;
#X msg 347 241 \$1-scdrton;
#X obj 350 267 print tonic[-7-7];
#X msg 188 243 \$1-scdrscd;
#X obj 191 269 print scdle[0-23];
#X connect 0 0 3 0;
#X connect 1 0 0 0;
#X connect 2 0 8 0;
#X connect 2 7 12 0;
#X connect 2 8 10 0;
#X connect 3 0 2 0;
#X connect 3 1 7 0;
#X connect 4 0 0 0;
#X connect 7 0 5 0;
#X connect 8 0 6 0;
#X connect 9 0 0 0;
#X connect 10 0 11 0;
#X connect 12 0 13 0;
#X restore 384 316 pd printallreceives;
#N canvas 88 40 378 128 \$1-scdles-divextra 0;
#X obj 10 74 bng 15 250 50 0 printreceives empty print_all_receives
17 7 0 10 -262144 -1 -1;
#X obj 9 15 bng 15 250 50 0 \$1-scdprintreceives empty print_names_of_receives
17 7 0 10 -262144 -1 -1;
#X text 68 93 (of all objects in open files);
#X text 67 34 (of this 'scales-div' object);
#X restore 383 288 pd \$1-scdles-divextra;
#N canvas 335 33 859 875 foutmelding 0;
#X obj 87 38 loadbang;
#X obj 79 83 f \$1;
#X obj 73 111 select 0;
#X msg 75 197 \; \$1 vis 1;
#X msg 74 142 36;
#X text 151 150 ascii-code voor $;
#X text 197 199 als er geen argument is \, noemt de subpatch vreemd
genoeg niet pd 0-warning maar wel pd \$1-warning;
#X text 129 80 als er geen argument is geeft f \$1 een 0;
#X obj 154 336 del 100;
#X msg 319 355 1;
#X obj 238 405 spigot;
#X obj 342 453 spigot;
#X obj 409 425 == 0;
#X obj 338 423 r scdles-div;
#X obj 240 489 s scdles-div;
#X obj 208 305 t b b b;
#X obj 314 389 t f f;
#X obj 241 429 del 150;
#X obj 239 460 f \$1;
#X msg 169 357 0;
#X obj 378 506 == \$1;
#X obj 455 604 > 1;
#X obj 341 478 t f f;
#X obj 391 568 f 0;
#X obj 390 538 select 1;
#X obj 330 541 spigot;
#X obj 459 569 + 1;
#X obj 336 602 == \$1;
#X obj 396 628 &&;
#X obj 158 628 print pop;
#X text 487 604 groter dan 1 want vergelijking et zichzelf levert sowieso
al 1 op en dan met ev. zelfde object met identiek argument levert 2
op!;
#X obj 396 656 select 1;
#X obj 396 678 f \$1;
#X obj 398 768 symbol;
#X msg 396 795 \; \$1 vis 1;
#X obj 363 706 t f f;
#X obj 92 820 symbol;
#X obj 170 872 print;
#X obj 326 662 bng 15 250 50 0 empty empty empty 17 7 0 10 -262144
-1 -1;
#X msg 173 839 !!! these two abunch objects have the same argument
number: [scdles-div \$1];
#X text 406 346 alleen net gecreerde object verstuurt waarde;
#X text 398 372 bij eerder gemaakte objecten staat spigot voor receive
open;
#N canvas 670 470 308 138 \$1-scdles-divwarning 0;
#X obj -1 0 cnv 15 320 150 empty empty empty 20 12 0 14 -258699 -66577
0;
#X text 11 32 You forgot to add an unique number;
#X text 11 78 when you created this abunch object;
#X restore 349 165 pd \$1-scdles-divwarning;
#N canvas 856 445 327 127 \$1-scdles-divsameargument 0;
#X obj -1 0 cnv 15 330 150 empty empty empty 20 12 0 14 -258699 -66577
0;
#X msg 393 108;
#X text 314 243 is used already!!;
#X obj 344 35 inlet;
#X symbolatom 351 77 10 0 0 0 - - -;
#X obj 98 40 cnv 15 60 20 empty empty empty 20 12 0 14 -233017 -66577
0;
#X text 24 40 Create an unique number for this;
#X text 102 69 abunch object.;
#X connect 3 0 1 0;
#X connect 3 0 4 0;
#X restore 541 770 pd \$1-scdles-divsameargument;
#X msg 397 738 pd-\$1-scdles-divsameargument;
#X obj 74 171 makefilename pd-%c1-scdles-divwarning;
#X connect 0 0 1 0;
#X connect 0 0 15 0;
#X connect 1 0 2 0;
#X connect 2 0 4 0;
#X connect 4 0 45 0;
#X connect 8 0 19 0;
#X connect 9 0 16 0;
#X connect 10 0 17 0;
#X connect 11 0 22 0;
#X connect 12 0 11 1;
#X connect 13 0 11 0;
#X connect 15 0 8 0;
#X connect 15 1 10 0;
#X connect 15 2 9 0;
#X connect 16 0 10 1;
#X connect 16 1 12 0;
#X connect 17 0 18 0;
#X connect 18 0 14 0;
#X connect 19 0 16 0;
#X connect 20 0 24 0;
#X connect 20 0 25 1;
#X connect 21 0 28 1;
#X connect 22 0 25 0;
#X connect 22 1 20 0;
#X connect 23 0 26 0;
#X connect 24 0 23 0;
#X connect 25 0 27 0;
#X connect 26 0 23 1;
#X connect 26 0 21 0;
#X connect 27 0 28 0;
#X connect 28 0 31 0;
#X connect 31 0 32 0;
#X connect 32 0 35 0;
#X connect 33 0 34 0;
#X connect 35 0 44 0;
#X connect 35 1 39 0;
#X connect 38 0 32 0;
#X connect 39 0 37 0;
#X connect 44 0 33 0;
#X connect 45 0 3 0;
#X restore 377 344 pd foutmelding;
#N canvas 502 176 566 199 needsound 0;
#X obj 22 34 r soundfileyesno;
#X msg 18 67 0;
#X obj 22 138 s answersoundfile;
#X text 63 65 0 = this abunch object doesn't need a sound file (store
in a preset file) \, 1 = it does;
#X connect 0 0 1 0;
#X connect 1 0 2 0;
#X restore 377 378 pd needsound;
#X obj 578 308 f \$1;
#X obj 578 359 symbol;
#X msg 578 384 \; \$1 vis 1;
#X obj 576 285 r \$1-scdsextraoptions;
#X msg 579 333 pd-\$1-scdles-divextra;
#X obj -7 -6 cnv 15 330 150 empty empty empty 20 12 0 14 -142067 -66577
0;
#X obj 6 13 cnv 15 260 100 empty empty empty 20 12 0 14 -231361 -66577
0;
#X obj 9 30 nbx 3 14 0 127 0 0 \$1-scdston \$1-scdrton centre 0 -8
0 12 -262144 -1 -1 60 256;
#X symbolatom 402 145 18 0 0 2 show: #1-scdrshow -;
#X obj 73 30 nbx 3 14 0 9999 0 0 \$1-scdsscd \$1-scdrscd divide 0 -8
0 12 -262144 -1 -1 5 256;
#X obj 172 97 bng 10 250 50 0 \$1-scdsextraoptions empty extra_options
15 5 0 10 -262144 -1 -1;
#N canvas 540 309 293 166 printname 0;
#X obj 54 37 r printallnames;
#X obj 54 107 symbol;
#X obj 54 132 s rallnames;
#X msg 54 72 scales-div;
#X connect 0 0 3 0;
#X connect 1 0 2 0;
#X connect 3 0 1 0;
#X restore 377 401 pd printname;
#N canvas 472 231 588 284 presetsnew 0;
#X obj 210 58 r savepresetn;
#X obj 203 119 t b b b;
#N canvas 132 16 1041 299 name-sends-normal 0;
#N canvas 0 0 450 300 (subpatch) 0;
#X array \$1-scdbetween 12 float 2;
#X coords 0 10000 12 -10000 20 20 1;
#X restore 15 236 graph;
#X obj 404 279 tabwrite \$1-scdbetween;
#X obj 438 235 unpack f f;
#X obj 98 156 pack f 1;
#X obj 135 178 pack f 2;
#X obj 186 200 pack f 3;
#X obj 236 155 pack f 4;
#X obj 273 177 pack f 5;
#X obj 324 199 pack f 6;
#X obj 368 156 pack f 7;
#X obj 405 178 pack f 8;
#X obj 449 199 pack f 9;
#X obj 508 156 pack f 10;
#X obj 545 178 pack f 11;
#X obj 596 199 pack f 12;
#X obj 665 156 pack f 13;
#X obj 702 178 pack f 14;
#X obj 754 201 pack f 15;
#X obj 798 156 pack f 16;
#X obj 835 179 pack f 17;
#X obj 884 203 pack f 18;
#X text 38 238 -> adjust size if necessary (standard size = 109);
#X obj 86 52 r \$1-scdston;
#X obj 126 75 r \$1-scdsscd;
#X obj 174 101 r \$1-scdstr;
#X obj 233 123 r \$1-scdsint;
#X connect 2 0 1 0;
#X connect 2 1 1 1;
#X connect 3 0 2 0;
#X connect 4 0 2 0;
#X connect 5 0 2 0;
#X connect 6 0 2 0;
#X connect 7 0 2 0;
#X connect 8 0 2 0;
#X connect 9 0 2 0;
#X connect 10 0 2 0;
#X connect 11 0 2 0;
#X connect 12 0 2 0;
#X connect 13 0 2 0;
#X connect 14 0 2 0;
#X connect 15 0 2 0;
#X connect 16 0 2 0;
#X connect 17 0 2 0;
#X connect 18 0 2 0;
#X connect 19 0 2 0;
#X connect 20 0 2 0;
#X connect 22 0 3 0;
#X connect 23 0 4 0;
#X connect 24 0 5 0;
#X connect 25 0 6 0;
#X restore 75 27 pd name-sends-normal;
#X obj 223 196 s toextfile;
#N canvas 636 185 560 404 normal 0;
#X obj 278 134 f \$1;
#X obj 237 278 symbol;
#X obj 42 268 list prepend add2;
#X obj 42 293 list trim;
#X obj 188 51 t b b b b b;
#X obj 154 135 f 0;
#X obj 193 135 + 1;
#X msg 181 103 0;
#X msg 240 196 scdrx\$1;
#X obj 237 222 pack s f;
#X msg 237 249 \$2-\$1;
#X obj 131 102 until;
#X obj 193 161 t f f;
#X obj 21 193 tabread \$1-scdbetween;
#X text 151 77 -> aanpassen! aantal op te slagen floats;
#X obj 180 16 inlet;
#X obj 229 345 outlet;
#X msg 235 311 add2 () norm 0 0 \$1;
#X obj 111 76 f 4;
#X connect 0 0 9 1;
#X connect 1 0 17 0;
#X connect 2 0 3 0;
#X connect 3 0 16 0;
#X connect 4 3 18 0;
#X connect 4 4 0 0;
#X connect 4 4 7 0;
#X connect 5 0 6 0;
#X connect 6 0 5 1;
#X connect 6 0 12 0;
#X connect 7 0 5 1;
#X connect 8 0 9 0;
#X connect 9 0 10 0;
#X connect 10 0 1 0;
#X connect 11 0 5 0;
#X connect 12 0 13 0;
#X connect 12 1 8 0;
#X connect 13 0 2 0;
#X connect 15 0 4 0;
#X connect 17 0 16 0;
#X connect 18 0 11 0;
#X restore 217 153 pd normal;
#X text 179 152 !!->;
#X text 212 245 !!->;
#N canvas 145 172 1059 266 receive-normal 0;
#X obj 24 26 r \$1-scdrx1;
#X obj 54 46 r \$1-scdrx2;
#X obj 85 66 r \$1-scdrx3;
#X obj 196 19 r \$1-scdrx4;
#X obj 226 39 r \$1-scdrx5;
#X obj 257 59 r \$1-scdrx6;
#X obj 364 16 r \$1-scdrx7;
#X obj 382 37 r \$1-scdrx8;
#X obj 416 58 r \$1-scdrx9;
#X obj 523 33 r \$1-scdrx10;
#X obj 553 53 r \$1-scdrx11;
#X obj 584 73 r \$1-scdrx12;
#X obj 703 33 r \$1-scdrx13;
#X obj 733 53 r \$1-scdrx14;
#X obj 764 73 r \$1-scdrx15;
#X obj 863 33 r \$1-scdrx16;
#X obj 893 53 r \$1-scdrx17;
#X obj 924 73 r \$1-scdrx18;
#N canvas 30 18 246 218 cmp 0;
#X obj 42 65 list split 1;
#X obj 88 119 ==;
#X obj 43 151 spigot;
#X obj 43 176 outlet;
#X obj 42 28 inlet;
#X obj 110 30 r \$1-scdarg2;
#X connect 0 0 2 0;
#X connect 0 1 1 0;
#X connect 1 0 2 1;
#X connect 2 0 3 0;
#X connect 4 0 0 0;
#X connect 5 0 1 1;
#X restore 22 100 pd cmp;
#N canvas 355 32 246 300 cmp 0;
#X obj 42 65 list split 1;
#X obj 88 119 ==;
#X obj 43 151 spigot;
#X obj 43 176 outlet;
#X obj 42 28 inlet;
#X obj 110 30 r \$1-scdarg2;
#X connect 0 0 2 0;
#X connect 0 1 1 0;
#X connect 1 0 2 1;
#X connect 2 0 3 0;
#X connect 4 0 0 0;
#X connect 5 0 1 1;
#X restore 42 125 pd cmp;
#N canvas 0 0 246 300 cmp 0;
#X obj 42 65 list split 1;
#X obj 88 119 ==;
#X obj 43 151 spigot;
#X obj 43 176 outlet;
#X obj 42 28 inlet;
#X obj 110 30 r \$1-scdarg2;
#X connect 0 0 2 0;
#X connect 0 1 1 0;
#X connect 1 0 2 1;
#X connect 2 0 3 0;
#X connect 4 0 0 0;
#X connect 5 0 1 1;
#X restore 59 153 pd cmp;
#N canvas 0 0 246 300 cmp 0;
#X obj 42 65 list split 1;
#X obj 88 119 ==;
#X obj 43 151 spigot;
#X obj 43 176 outlet;
#X obj 42 28 inlet;
#X obj 110 30 r \$1-scdarg2;
#X connect 0 0 2 0;
#X connect 0 1 1 0;
#X connect 1 0 2 1;
#X connect 2 0 3 0;
#X connect 4 0 0 0;
#X connect 5 0 1 1;
#X restore 172 100 pd cmp;
#N canvas 0 0 246 300 cmp 0;
#X obj 42 65 list split 1;
#X obj 88 119 ==;
#X obj 43 151 spigot;
#X obj 43 176 outlet;
#X obj 42 28 inlet;
#X obj 110 30 r \$1-scdarg2;
#X connect 0 0 2 0;
#X connect 0 1 1 0;
#X connect 1 0 2 1;
#X connect 2 0 3 0;
#X connect 4 0 0 0;
#X connect 5 0 1 1;
#X restore 192 125 pd cmp;
#N canvas 308 15 246 215 cmp 0;
#X obj 42 65 list split 1;
#X obj 88 119 ==;
#X obj 43 151 spigot;
#X obj 43 176 outlet;
#X obj 42 28 inlet;
#X obj 110 30 r \$1-scdarg2;
#X connect 0 0 2 0;
#X connect 0 1 1 0;
#X connect 1 0 2 1;
#X connect 2 0 3 0;
#X connect 4 0 0 0;
#X connect 5 0 1 1;
#X restore 209 153 pd cmp;
#N canvas 0 0 246 300 cmp 0;
#X obj 42 65 list split 1;
#X obj 88 119 ==;
#X obj 43 151 spigot;
#X obj 43 176 outlet;
#X obj 42 28 inlet;
#X obj 110 30 r \$1-scdarg2;
#X connect 0 0 2 0;
#X connect 0 1 1 0;
#X connect 1 0 2 1;
#X connect 2 0 3 0;
#X connect 4 0 0 0;
#X connect 5 0 1 1;
#X restore 362 100 pd cmp;
#N canvas 0 0 246 300 cmp 0;
#X obj 42 65 list split 1;
#X obj 88 119 ==;
#X obj 43 151 spigot;
#X obj 43 176 outlet;
#X obj 42 28 inlet;
#X obj 110 30 r \$1-scdarg2;
#X connect 0 0 2 0;
#X connect 0 1 1 0;
#X connect 1 0 2 1;
#X connect 2 0 3 0;
#X connect 4 0 0 0;
#X connect 5 0 1 1;
#X restore 382 125 pd cmp;
#N canvas 0 0 246 300 cmp 0;
#X obj 42 65 list split 1;
#X obj 88 119 ==;
#X obj 43 151 spigot;
#X obj 43 176 outlet;
#X obj 42 28 inlet;
#X obj 110 30 r \$1-scdarg2;
#X connect 0 0 2 0;
#X connect 0 1 1 0;
#X connect 1 0 2 1;
#X connect 2 0 3 0;
#X connect 4 0 0 0;
#X connect 5 0 1 1;
#X restore 399 153 pd cmp;
#N canvas 0 0 246 300 cmp 0;
#X obj 42 65 list split 1;
#X obj 88 119 ==;
#X obj 43 151 spigot;
#X obj 43 176 outlet;
#X obj 42 28 inlet;
#X obj 110 30 r \$1-scdarg2;
#X connect 0 0 2 0;
#X connect 0 1 1 0;
#X connect 1 0 2 1;
#X connect 2 0 3 0;
#X connect 4 0 0 0;
#X connect 5 0 1 1;
#X restore 542 110 pd cmp;
#N canvas 0 0 246 300 cmp 0;
#X obj 42 65 list split 1;
#X obj 88 119 ==;
#X obj 43 151 spigot;
#X obj 43 176 outlet;
#X obj 42 28 inlet;
#X obj 110 30 r \$1-scdarg2;
#X connect 0 0 2 0;
#X connect 0 1 1 0;
#X connect 1 0 2 1;
#X connect 2 0 3 0;
#X connect 4 0 0 0;
#X connect 5 0 1 1;
#X restore 562 135 pd cmp;
#N canvas 0 0 246 300 cmp 0;
#X obj 42 65 list split 1;
#X obj 88 119 ==;
#X obj 43 151 spigot;
#X obj 43 176 outlet;
#X obj 42 28 inlet;
#X obj 110 30 r \$1-scdarg2;
#X connect 0 0 2 0;
#X connect 0 1 1 0;
#X connect 1 0 2 1;
#X connect 2 0 3 0;
#X connect 4 0 0 0;
#X connect 5 0 1 1;
#X restore 579 163 pd cmp;
#N canvas 0 0 246 300 cmp 0;
#X obj 42 65 list split 1;
#X obj 88 119 ==;
#X obj 43 151 spigot;
#X obj 43 176 outlet;
#X obj 42 28 inlet;
#X obj 110 30 r \$1-scdarg2;
#X connect 0 0 2 0;
#X connect 0 1 1 0;
#X connect 1 0 2 1;
#X connect 2 0 3 0;
#X connect 4 0 0 0;
#X connect 5 0 1 1;
#X restore 692 110 pd cmp;
#N canvas 0 0 246 300 cmp 0;
#X obj 42 65 list split 1;
#X obj 88 119 ==;
#X obj 43 151 spigot;
#X obj 43 176 outlet;
#X obj 42 28 inlet;
#X obj 110 30 r \$1-scdarg2;
#X connect 0 0 2 0;
#X connect 0 1 1 0;
#X connect 1 0 2 1;
#X connect 2 0 3 0;
#X connect 4 0 0 0;
#X connect 5 0 1 1;
#X restore 712 135 pd cmp;
#N canvas 0 0 246 300 cmp 0;
#X obj 42 65 list split 1;
#X obj 88 119 ==;
#X obj 43 151 spigot;
#X obj 43 176 outlet;
#X obj 42 28 inlet;
#X obj 110 30 r \$1-scdarg2;
#X connect 0 0 2 0;
#X connect 0 1 1 0;
#X connect 1 0 2 1;
#X connect 2 0 3 0;
#X connect 4 0 0 0;
#X connect 5 0 1 1;
#X restore 729 163 pd cmp;
#N canvas 0 0 246 300 cmp 0;
#X obj 42 65 list split 1;
#X obj 88 119 ==;
#X obj 43 151 spigot;
#X obj 43 176 outlet;
#X obj 42 28 inlet;
#X obj 110 30 r \$1-scdarg2;
#X connect 0 0 2 0;
#X connect 0 1 1 0;
#X connect 1 0 2 1;
#X connect 2 0 3 0;
#X connect 4 0 0 0;
#X connect 5 0 1 1;
#X restore 882 100 pd cmp;
#N canvas 0 0 246 300 cmp 0;
#X obj 42 65 list split 1;
#X obj 88 119 ==;
#X obj 43 151 spigot;
#X obj 43 176 outlet;
#X obj 42 28 inlet;
#X obj 110 30 r \$1-scdarg2;
#X connect 0 0 2 0;
#X connect 0 1 1 0;
#X connect 1 0 2 1;
#X connect 2 0 3 0;
#X connect 4 0 0 0;
#X connect 5 0 1 1;
#X restore 902 125 pd cmp;
#N canvas 0 0 246 300 cmp 0;
#X obj 42 65 list split 1;
#X obj 88 119 ==;
#X obj 43 151 spigot;
#X obj 43 176 outlet;
#X obj 42 28 inlet;
#X obj 110 30 r \$1-scdarg2;
#X connect 0 0 2 0;
#X connect 0 1 1 0;
#X connect 1 0 2 1;
#X connect 2 0 3 0;
#X connect 4 0 0 0;
#X connect 5 0 1 1;
#X restore 919 153 pd cmp;
#X obj 31 187 s \$1-scdrton;
#X obj 47 210 s \$1-scdrscd;
#X obj 66 232 s \$1-scdrtr;
#X obj 152 184 s \$1-scdrint;
#X connect 0 0 18 0;
#X connect 1 0 19 0;
#X connect 2 0 20 0;
#X connect 3 0 21 0;
#X connect 4 0 22 0;
#X connect 5 0 23 0;
#X connect 6 0 24 0;
#X connect 7 0 25 0;
#X connect 8 0 26 0;
#X connect 9 0 27 0;
#X connect 10 0 28 0;
#X connect 11 0 29 0;
#X connect 12 0 30 0;
#X connect 13 0 31 0;
#X connect 14 0 32 0;
#X connect 15 0 33 0;
#X connect 16 0 34 0;
#X connect 17 0 35 0;
#X connect 18 0 36 0;
#X connect 19 0 37 0;
#X connect 20 0 38 0;
#X connect 21 0 39 0;
#X restore 251 246 pd receive-normal;
#X text 32 27 !!->;
#N canvas 0 0 246 300 cmp 0;
#X obj 42 65 list split 1;
#X obj 88 119 ==;
#X obj 43 151 spigot;
#X obj 43 176 outlet;
#X obj 42 28 inlet;
#X obj 157 64 inlet;
#X connect 0 0 2 0;
#X connect 0 1 1 0;
#X connect 1 0 2 1;
#X connect 2 0 3 0;
#X connect 4 0 0 0;
#X connect 5 0 1 1;
#X restore 209 94 pd cmp;
#X obj 458 12 loadbang;
#X obj 458 37 f \$2;
#X obj 458 85 s \$1-scdarg2;
#X connect 0 0 9 0;
#X connect 1 1 4 0;
#X connect 4 0 3 0;
#X connect 9 0 1 0;
#X connect 10 0 11 0;
#X connect 11 0 9 1;
#X connect 11 0 12 0;
#X restore 469 258 pd presetsnew;
#X obj 107 280 pack;
#X obj 77 481 pack;
#X obj 77 506 print;
#N canvas 454 153 584 574 scales-div 0;
#X obj 101 12 inlet pitch;
#X obj 153 522 outlet pitch;
#X obj 135 226 +;
#N canvas 321 121 755 396 memo 0;
#X text 26 8 memorize the pitches of note-ons that didn't receive a
note-off yet (should also be able to memorize non-integer pitch values)
;
#X obj 190 56 inlet pvpack;
#X obj 272 226 > 0;
#X text 273 100 maximum 64 voices;
#X obj 190 101 poly 64 1;
#N canvas 0 0 450 300 (subpatch) 0;
#X array \$1-scdmemo 64 float 2;
#X coords 0 127 63 0 50 30 1;
#X restore 508 22 graph;
#X obj 190 189 list split 2;
#X text 306 226 note-on or note-off;
#X obj 168 225 list split 1;
#X obj 231 273 *;
#X obj 193 330 f;
#X obj 168 250 t b f;
#X obj 251 335 - 1;
#X obj 511 68 inlet bang;
#X text 595 66 trigger note-offs;
#X obj 524 178 until;
#X obj 525 149 f 64;
#X obj 524 203 f -1;
#X obj 573 205 + 1;
#X msg 609 168 -1;
#X obj 573 254 tabread \$1-scdmemo;
#X obj 129 369 tabwrite \$1-scdmemo;
#X obj 573 279 select 0;
#X text 283 334 voice number = index;
#X obj 634 308 pack f 0;
#X obj 634 333 outlet;
#X obj 477 75 bng 15 250 50 0 empty empty empty 17 7 0 10 -262144 -1
-1;
#X obj 190 137 pack f f f;
#X obj 511 109 t b b b;
#X obj 493 343 s \$1-scdmemo;
#X msg 511 310 const 0;
#X connect 1 0 4 0;
#X connect 2 0 9 1;
#X connect 4 0 27 0;
#X connect 4 1 27 1;
#X connect 4 2 27 2;
#X connect 6 0 8 0;
#X connect 6 1 2 0;
#X connect 8 0 11 0;
#X connect 8 1 9 0;
#X connect 9 0 10 1;
#X connect 10 0 21 0;
#X connect 11 0 10 0;
#X connect 11 1 12 0;
#X connect 12 0 21 1;
#X connect 13 0 28 0;
#X connect 15 0 17 0;
#X connect 16 0 15 0;
#X connect 17 0 18 0;
#X connect 18 0 17 1;
#X connect 18 0 20 0;
#X connect 19 0 17 1;
#X connect 20 0 22 0;
#X connect 22 1 24 0;
#X connect 24 0 25 0;
#X connect 26 0 28 0;
#X connect 27 0 6 0;
#X connect 28 0 30 0;
#X connect 28 1 16 0;
#X connect 28 2 19 0;
#X connect 30 0 29 0;
#X restore 312 397 pd memo;
#X obj 129 63 unpack;
#X obj 208 69 t f b;
#X obj 295 133 t f b;
#X obj 266 522 outlet velo;
#X obj 165 318 pack;
#X obj 189 442 unpack;
#X obj 128 36 t l l;
#X obj 165 346 t l l;
#X obj 282 442 unpack;
#X obj 124 88 t f f;
#X obj 134 118 -;
#X obj 150 181 /;
#X obj 295 104 / 12;
#X obj 208 35 r \$1-scdston;
#X obj 295 76 r \$1-scdsscd;
#X obj 418 69 t f b;
#X obj 418 35 r \$1-scdstr;
#X obj 129 268 +;
#X floatatom 339 15 5 0 0 0 - - -;
#X obj 330 45 t b f;
#X text 383 9 basic interval;
#X obj 282 4 r \$1-scdsint;
#X connect 0 0 10 0;
#X connect 2 0 21 0;
#X connect 3 0 12 0;
#X connect 4 0 13 0;
#X connect 4 1 8 1;
#X connect 5 0 14 1;
#X connect 5 0 2 1;
#X connect 5 1 3 1;
#X connect 6 0 15 1;
#X connect 6 1 3 1;
#X connect 8 0 11 0;
#X connect 9 0 1 0;
#X connect 9 1 7 0;
#X connect 10 0 4 0;
#X connect 11 0 9 0;
#X connect 11 1 3 0;
#X connect 12 0 1 0;
#X connect 12 1 7 0;
#X connect 13 0 14 0;
#X connect 14 0 15 0;
#X connect 15 0 2 0;
#X connect 16 0 6 0;
#X connect 17 0 5 0;
#X connect 18 0 16 0;
#X connect 19 0 21 1;
#X connect 19 1 3 1;
#X connect 20 0 19 0;
#X connect 21 0 8 0;
#X connect 22 0 23 0;
#X connect 23 0 16 0;
#X connect 23 1 16 1;
#X connect 25 0 23 0;
#X restore 76 314 pd scales-div;
#X obj 145 31 nbx 3 14 -64 127 0 0 \$1-scdstr \$1-scdrtr transpose_output
0 -8 0 12 -262144 -1 -1 0 256;
#N canvas 140 257 575 304 init 0;
#X obj 74 150 s \$1-scdrton;
#X obj 183 144 s \$1-scdrscd;
#X obj 260 40 loadbang;
#X obj 279 238 s \$1-scdmemo;
#X msg 297 205 const 0;
#X msg 94 84 60;
#X msg 195 94 24;
#X msg 335 94 0;
#X obj 329 125 s \$1-scdrtr;
#X obj 401 200 s \$1-scdrint;
#X msg 403 91 12;
#X obj 314 164 s \$1-scdrow;
#X connect 2 0 6 0;
#X connect 2 0 4 0;
#X connect 2 0 5 0;
#X connect 2 0 7 0;
#X connect 2 0 10 0;
#X connect 4 0 3 0;
#X connect 5 0 0 0;
#X connect 6 0 1 0;
#X connect 7 0 8 0;
#X connect 7 0 11 0;
#X connect 10 0 9 0;
#X restore 383 259 pd init;
#X obj 144 63 nbx 3 14 0 9999 0 0 \$1-scdsint \$1-scdrint basic_interval
0 -7 0 12 -262144 -1 -1 7 256;
#X obj 238 430 s \$1-scdrin;
#X obj 60 94 nbx 3 14 -1e+037 1e+037 0 0 \$1-scdsin \$1-scdrin in 3
-8 0 12 -86277 -257985 -1 65 256;
#X obj 105 94 nbx 5 14 -1e+037 1e+037 0 0 \$1-scdsout \$1-scdrout out
3 -8 0 12 -86277 -257985 -1 67 256;
#X obj 41 94 tgl 15 0 \$1-scdsow \$1-scdrow show -32 7 0 12 -262144
-1 -1 1 1;
#X obj 238 401 spigot;
#X obj 274 364 r \$1-scdsow;
#X obj 192 492 spigot;
#X obj 192 521 s \$1-scdrout;
#X connect 2 0 27 0;
#X connect 2 0 38 0;
#X connect 3 0 0 0;
#X connect 4 0 1 0;
#X connect 5 0 27 1;
#X connect 14 0 18 0;
#X connect 15 0 16 0;
#X connect 17 0 14 0;
#X connect 18 0 15 0;
#X connect 27 0 30 0;
#X connect 28 0 29 0;
#X connect 30 0 6 0;
#X connect 30 0 40 0;
#X connect 30 1 7 0;
#X connect 38 0 34 0;
#X connect 39 0 38 1;
#X connect 39 0 40 1;
#X connect 40 0 41 0;
