#N canvas 271 416 664 176 12;
#N canvas 107 63 860 737 sequencer 0;
#X obj 31 175 i;
#X obj 78 197 + 1;
#X obj 79 661 i;
#X obj 111 661 i;
#X obj 143 661 i;
#X obj 175 661 i;
#X obj 207 661 i;
#X obj 239 661 i;
#X obj 271 661 i;
#X obj 303 661 i;
#X obj 44 222 mod 16;
#X obj 184 560 r \$1-seqsst1;
#X obj 215 581 r \$1-seqsst2;
#X obj 244 601 r \$1-seqsst3;
#X obj 283 561 r \$1-seqsst4;
#X obj 313 581 r \$1-seqsst5;
#X obj 344 601 r \$1-seqsst6;
#X obj 383 561 r \$1-seqsst7;
#X obj 411 582 r \$1-seqsst8;
#X obj 443 602 r \$1-seqsst9;
#X obj 483 561 r \$1-seqsst10;
#X obj 511 582 r \$1-seqsst11;
#X obj 543 603 r \$1-seqsst12;
#X obj 592 560 r \$1-seqsst13;
#X obj 621 581 r \$1-seqsst14;
#X obj 653 603 r \$1-seqsst15;
#X obj 734 557 r \$1-seqsst16;
#X obj 385 660 i;
#X obj 417 660 i;
#X obj 449 660 i;
#X obj 481 660 i;
#X obj 513 660 i;
#X obj 545 660 i;
#X obj 576 658 i;
#X obj 613 660 i;
#X obj 53 621 sel 0 1 2 3 4 5 6 7 8 9 10 11 12 13 14 15;
#X obj 429 764 i;
#X obj 417 787 outlet;
#X obj 92 521 s \$1-seqrlamp;
#X obj 151 209 r \$1-seqssteps;
#X obj 54 21 inlet extclock;
#X msg 93 150 -1;
#X obj 270 233 r \$1-seqsrnd;
#X obj 158 396 random;
#X obj 164 235 / 2;
#X obj 209 285 *;
#X obj 161 426 -;
#X obj 228 400 / 2;
#X obj 64 448 +;
#X obj 82 250 t f b;
#X obj 65 476 mod 16;
#X obj 163 254 t b f;
#X obj 230 342 int;
#X obj 230 314 + 0.5;
#X text 280 331 <- afronden;
#X obj 201 368 + 1;
#X text 239 368 random-object ts O en x-1!;
#N canvas 357 112 681 473 onoff 0;
#X obj 20 15 inlet ticks;
#X obj 193 303 metro;
#N canvas 0 0 462 312 bpmtoms 0;
#X obj 99 101 inlet;
#X obj 102 214 outlet;
#X obj 100 158 expr (60/$f1)*1000;
#X floatatom 159 105 5 0 0 0 - - -;
#X floatatom 167 218 5 0 0 0 - - -;
#X connect 0 0 2 0;
#X connect 2 0 1 0;
#X connect 2 0 4 0;
#X connect 3 0 2 0;
#X restore 306 239 pd bpmtoms;
#X obj 19 308 spigot;
#X obj 178 215 == 0;
#X obj 19 40 route float symbol;
#X obj 197 429 outlet reset;
#X obj 74 429 outlet tick;
#X text 24 569 ext clock : als ext == 1;
#X obj 87 73 b;
#X obj 230 174 f;
#X text 24 548 int clock (metro): als main == 1 en ext === 0;
#X obj 156 110 t f f b f;
#X obj 230 212 == 1;
#X obj 193 256 &&;
#X obj 390 117 t f b b f;
#X obj 306 268 s \$1-seqrms;
#X obj 306 210 r \$1-seqstempo;
#X obj 390 89 r \$1-seqsstart;
#X obj 171 40 r \$1-seqsext;
#X obj 156 76 change;
#X text 216 71 -> anders wordt bij presetverandering de teller gereset
;
#X obj 85 306 spigot;
#X obj 19 378 select 1;
#X obj 19 340 > 0;
#X obj 459 286 select 1;
#X connect 0 0 5 0;
#X connect 1 0 7 0;
#X connect 2 0 1 1;
#X connect 2 0 16 0;
#X connect 3 0 24 0;
#X connect 4 0 14 0;
#X connect 5 0 3 0;
#X connect 5 1 9 0;
#X connect 9 0 22 0;
#X connect 10 0 13 0;
#X connect 12 1 4 0;
#X connect 12 2 10 0;
#X connect 12 3 3 1;
#X connect 12 3 22 1;
#X connect 13 0 14 1;
#X connect 14 0 1 0;
#X connect 15 1 4 0;
#X connect 15 2 10 0;
#X connect 15 3 10 1;
#X connect 15 3 25 0;
#X connect 17 0 2 0;
#X connect 18 0 15 0;
#X connect 19 0 20 0;
#X connect 20 0 12 0;
#X connect 22 0 6 0;
#X connect 23 0 7 0;
#X connect 24 0 23 0;
#X connect 25 0 6 0;
#X restore 32 94 pd onoff;
#X connect 0 0 1 0;
#X connect 1 0 10 0;
#X connect 2 0 36 0;
#X connect 3 0 36 0;
#X connect 4 0 36 0;
#X connect 5 0 36 0;
#X connect 6 0 36 0;
#X connect 7 0 36 0;
#X connect 8 0 36 0;
#X connect 9 0 36 0;
#X connect 10 0 0 1;
#X connect 10 0 49 0;
#X connect 11 0 2 1;
#X connect 12 0 3 1;
#X connect 13 0 4 1;
#X connect 14 0 5 1;
#X connect 15 0 6 1;
#X connect 16 0 7 1;
#X connect 17 0 8 1;
#X connect 18 0 9 1;
#X connect 19 0 27 1;
#X connect 20 0 28 1;
#X connect 21 0 29 1;
#X connect 22 0 30 1;
#X connect 23 0 31 1;
#X connect 24 0 32 1;
#X connect 25 0 33 1;
#X connect 26 0 34 1;
#X connect 27 0 36 0;
#X connect 28 0 36 0;
#X connect 29 0 36 0;
#X connect 30 0 36 0;
#X connect 31 0 36 0;
#X connect 32 0 36 0;
#X connect 33 0 36 0;
#X connect 34 0 36 0;
#X connect 35 0 2 0;
#X connect 35 1 3 0;
#X connect 35 2 4 0;
#X connect 35 3 5 0;
#X connect 35 4 6 0;
#X connect 35 5 7 0;
#X connect 35 6 8 0;
#X connect 35 7 9 0;
#X connect 35 8 27 0;
#X connect 35 9 28 0;
#X connect 35 10 29 0;
#X connect 35 11 30 0;
#X connect 35 12 31 0;
#X connect 35 13 32 0;
#X connect 35 14 33 0;
#X connect 35 15 34 0;
#X connect 36 0 37 0;
#X connect 39 0 10 1;
#X connect 39 0 44 0;
#X connect 39 0 50 1;
#X connect 40 0 57 0;
#X connect 41 0 0 1;
#X connect 42 0 45 0;
#X connect 43 0 46 0;
#X connect 44 0 51 0;
#X connect 45 0 53 0;
#X connect 46 0 48 1;
#X connect 47 0 46 1;
#X connect 48 0 50 0;
#X connect 49 0 48 0;
#X connect 49 1 43 0;
#X connect 50 0 38 0;
#X connect 50 0 35 0;
#X connect 51 0 45 0;
#X connect 51 1 45 1;
#X connect 52 0 47 0;
#X connect 52 0 55 0;
#X connect 53 0 52 0;
#X connect 55 0 43 1;
#X connect 57 0 0 0;
#X connect 57 1 41 0;
#X restore 274 261 pd sequencer;
#X obj 274 221 inlet extclock;
#X obj 274 297 outlet one;
#X obj 160 294 / 127;
#X obj 34 217 inlet tempo;
#X obj 160 220 inlet steps;
#X obj 34 365 s \$1-seqrtempo;
#X obj 163 367 s \$1-seqrsteps;
#X obj 163 319 * 16;
#X obj 34 299 * 8;
#X obj 34 332 + 30;
#X obj 435 226 inlet start;
#X obj 439 250 > 0;
#X obj 438 284 s \$1-seqrstart;
#X obj 207 494 bng 10 250 50 0 \$1-seqsextraoptions empty extra_options
17 7 0 8 -262144 -1 -1;
#N canvas 452 452 837 423 printallreceives 0;
#X obj 35 63 f \$1;
#X obj 33 6 bng 15 250 50 0 empty empty empty 17 7 0 10 -262144 -1
-1;
#X obj 70 173 t f f f f f f f f f;
#X obj 36 87 t f f;
#X obj 166 21 r \$1-seqprintreceives;
#X obj 92 136 print start;
#X obj 49 370 print end;
#X msg 91 109 names of receives in [sequencer \$1]...................>>
;
#X msg 631 240 \$1-seqrwav;
#X msg 518 267 \$1-seqrglide;
#X msg 48 344 <<.........................................[sequencer
\$1];
#X msg 331 279 \$1-seqrglt;
#X msg 184 276 \$1-seqrfreq;
#X msg 45 278 \$1-seqrlev;
#X obj 44 304 print level[0-1];
#X obj 179 304 print pitch[0-127];
#X obj 332 302 print glide_time[0-xxx];
#X obj 525 302 print glide[0-1];
#X obj 634 266 print wave_selector[0-5];
#X obj 10 21 r printreceives;
#X connect 0 0 3 0;
#X connect 1 0 0 0;
#X connect 2 0 10 0;
#X connect 2 4 13 0;
#X connect 2 5 12 0;
#X connect 2 6 11 0;
#X connect 2 7 9 0;
#X connect 2 8 8 0;
#X connect 3 0 2 0;
#X connect 3 1 7 0;
#X connect 4 0 0 0;
#X connect 7 0 5 0;
#X connect 8 0 18 0;
#X connect 9 0 17 0;
#X connect 10 0 6 0;
#X connect 11 0 16 0;
#X connect 12 0 15 0;
#X connect 13 0 14 0;
#X connect 19 0 0 0;
#X restore 184 444 pd printallreceives;
#N canvas 792 487 421 157 \$1-sequencerextra 0;
#X obj 8 72 bng 15 250 50 0 printreceives empty print_all_receives
17 7 0 10 -262144 -1 -1;
#X obj 7 13 bng 15 250 50 0 \$1-seqprintreceives empty print_names_of_receives
17 7 0 10 -262144 -1 -1;
#X text 66 91 (of all objects in open files);
#X text 65 32 (of this 'sequencer' object);
#X restore 188 466 pd \$1-sequencerextra;
#X obj 347 429 f \$1;
#X obj 347 480 symbol;
#X msg 347 505 \; \$1 vis 1;
#X obj 345 406 r \$1-seqsextraoptions;
#X msg 348 454 pd-\$1-sequencerextra;
#N canvas 335 33 859 875 foutmelding 0;
#X obj 87 38 loadbang;
#X obj 79 83 f \$1;
#X obj 73 111 select 0;
#X msg 75 197 \; \$1 vis 1;
#X msg 74 142 36;
#X text 151 150 ascii-code voor $;
#X text 197 199 als er geen argument is \, noemt de subpatch vreemd
genoeg niet pd 0-warning maar wel pd \$1-warning;
#X text 129 80 als er geen argument is geeft f \$1 een 0;
#X obj 154 336 del 100;
#X msg 319 355 1;
#X obj 238 405 spigot;
#X obj 342 453 spigot;
#X obj 409 425 == 0;
#X obj 338 423 r sequencer;
#X obj 240 489 s sequencer;
#X obj 208 305 t b b b;
#X obj 314 389 t f f;
#X obj 241 429 del 150;
#X obj 239 460 f \$1;
#X msg 169 357 0;
#X obj 378 506 == \$1;
#X obj 455 604 > 1;
#X obj 341 478 t f f;
#X obj 391 568 f 0;
#X obj 390 538 select 1;
#X obj 330 541 spigot;
#X obj 459 569 + 1;
#X obj 336 602 == \$1;
#X obj 396 628 &&;
#X obj 158 628 print pop;
#X text 487 604 groter dan 1 want vergelijking et zichzelf levert sowieso
al 1 op en dan met ev. zelfde object met identiek argument levert 2
op!;
#X obj 396 656 select 1;
#X obj 396 678 f \$1;
#X obj 398 768 symbol;
#X msg 396 795 \; \$1 vis 1;
#X obj 363 706 t f f;
#X obj 92 820 symbol;
#X obj 170 872 print;
#X obj 326 662 bng 15 250 50 0 empty empty empty 17 7 0 10 -262144
-1 -1;
#X msg 173 839 !!! these two abunch objects have the same argument
number: [sequencer \$1];
#X text 406 346 alleen net gecreerde object verstuurt waarde;
#X text 398 372 bij eerder gemaakte objecten staat spigot voor receive
open;
#N canvas 670 470 308 138 \$1-sequencerwarning 0;
#X obj -1 0 cnv 15 320 150 empty empty empty 20 12 0 14 -258699 -66577
0;
#X text 11 32 You forgot to add an unique number;
#X text 11 78 when you created this abunch object;
#X restore 349 165 pd \$1-sequencerwarning;
#N canvas 856 445 327 127 \$1-sequencersameargument 0;
#X obj -1 0 cnv 15 330 150 empty empty empty 20 12 0 14 -258699 -66577
0;
#X msg 393 108;
#X text 314 243 is used already!!;
#X obj 344 35 inlet;
#X symbolatom 351 77 10 0 0 0 - - -;
#X obj 98 40 cnv 15 60 20 empty empty empty 20 12 0 14 -233017 -66577
0;
#X text 24 40 Create an unique number for this;
#X text 102 69 abunch object.;
#X connect 3 0 1 0;
#X connect 3 0 4 0;
#X restore 541 770 pd \$1-sequencersameargument;
#X msg 397 738 pd-\$1-sequencersameargument;
#X obj 74 171 makefilename pd-%c1-sequencerwarning;
#X connect 0 0 1 0;
#X connect 0 0 15 0;
#X connect 1 0 2 0;
#X connect 2 0 4 0;
#X connect 4 0 45 0;
#X connect 8 0 19 0;
#X connect 9 0 16 0;
#X connect 10 0 17 0;
#X connect 11 0 22 0;
#X connect 12 0 11 1;
#X connect 13 0 11 0;
#X connect 15 0 8 0;
#X connect 15 1 10 0;
#X connect 15 2 9 0;
#X connect 16 0 10 1;
#X connect 16 1 12 0;
#X connect 17 0 18 0;
#X connect 18 0 14 0;
#X connect 19 0 16 0;
#X connect 20 0 24 0;
#X connect 20 0 25 1;
#X connect 21 0 28 1;
#X connect 22 0 25 0;
#X connect 22 1 20 0;
#X connect 23 0 26 0;
#X connect 24 0 23 0;
#X connect 25 0 27 0;
#X connect 26 0 23 1;
#X connect 26 0 21 0;
#X connect 27 0 28 0;
#X connect 28 0 31 0;
#X connect 31 0 32 0;
#X connect 32 0 35 0;
#X connect 33 0 34 0;
#X connect 35 0 44 0;
#X connect 35 1 39 0;
#X connect 38 0 32 0;
#X connect 39 0 37 0;
#X connect 44 0 33 0;
#X connect 45 0 3 0;
#X restore 213 421 pd foutmelding;
#N canvas 744 585 566 199 needsound 0;
#X obj 22 34 r soundfileyesno;
#X msg 18 67 0;
#X obj 22 138 s answersoundfile;
#X text 63 65 0 = this abunch object doesn't need a sound file (store
in a preset file) \, 1 = it does;
#X connect 0 0 1 0;
#X connect 1 0 2 0;
#X restore 38 417 pd needsound;
#N canvas 2 0 1032 737 presets 0;
#X obj 367 454 f;
#X obj 308 411 f;
#X obj 338 434 f;
#X obj 209 468 f;
#X obj 240 482 f;
#X obj 85 505 f;
#X obj 181 443 f;
#X obj 26 465 f;
#X obj 58 484 f;
#X obj 83 109 until;
#X obj 62 173 + 1;
#X obj 89 142 f 0;
#X obj 79 42 bng 15 250 50 0 empty empty empty 17 7 0 10 -262144 -1
-1;
#X obj 557 555 r openpreset;
#X obj 163 32 r savepreset;
#X obj 493 642 until;
#X obj 470 701 + 1;
#X obj 497 670 f 0;
#N canvas 0 144 1080 330 router_1inxout 0;
#X obj 231 27 inlet one;
#X obj 339 23 inlet route123;
#X obj 309 82 pack;
#X obj 271 56 mod 56;
#X obj 69 229 s \$1-seqrst1;
#X obj 100 250 s \$1-seqrst2;
#X obj 129 270 s \$1-seqrst3;
#X obj 222 218 s \$1-seqrst4;
#X obj 253 238 s \$1-seqrst5;
#X obj 283 258 s \$1-seqrst6;
#X obj 355 187 s \$1-seqrst7;
#X obj 376 209 s \$1-seqrst8;
#X obj 401 230 s \$1-seqrst9;
#X obj 508 233 s \$1-seqrst10;
#X obj 535 253 s \$1-seqrst11;
#X obj 567 274 s \$1-seqrst12;
#X obj 619 206 s \$1-seqrst13;
#X obj 648 227 s \$1-seqrst14;
#X obj 680 249 s \$1-seqrst15;
#X obj 697 282 s \$1-seqrst16;
#X obj 777 203 s \$1-seqrtempo;
#X obj 820 230 s \$1-seqrext;
#X obj 833 285 s \$1-seqrsteps;
#X obj 842 255 s \$1-seqrout2;
#X obj 917 200 s \$1-seqrrnd;
#X obj 265 116 route 1 2 3 4 5 6 7 8 9 10 11 12 13 14 15 16 17 18 19
20 21 22;
#X connect 0 0 3 0;
#X connect 1 0 2 1;
#X connect 2 0 25 0;
#X connect 3 0 2 0;
#X connect 25 0 4 0;
#X connect 25 1 5 0;
#X connect 25 2 6 0;
#X connect 25 3 7 0;
#X connect 25 4 8 0;
#X connect 25 5 9 0;
#X connect 25 6 10 0;
#X connect 25 7 11 0;
#X connect 25 8 12 0;
#X connect 25 9 13 0;
#X connect 25 10 14 0;
#X connect 25 11 15 0;
#X connect 25 12 16 0;
#X connect 25 13 17 0;
#X connect 25 14 18 0;
#X connect 25 15 19 0;
#X connect 25 16 20 0;
#X connect 25 17 21 0;
#X connect 25 18 23 0;
#X connect 25 19 22 0;
#X connect 25 20 24 0;
#X restore 403 796 pd router_1inxout;
#X obj 211 106 f 0;
#X obj 335 24 r presetnr;
#X obj 585 631 f 0;
#X obj 493 729 t f f;
#X obj 85 201 t f f;
#X obj 691 561 bng 15 250 50 0 empty empty empty 17 7 0 10 -262144
-1 -1;
#N canvas 0 0 454 304 (subpatch) 0;
#X array \$1-seqpreset 1120 float 2;
#X coords 0 200 1120 -1 200 140 1;
#X restore 524 132 graph;
#X obj 256 204 symbol;
#X obj 357 183 symbol;
#X obj 299 245 pack s s;
#X obj 356 153 r namepreset;
#X obj 248 155 f \$1;
#X msg 273 272 \; \$1 write presets/\$2-\$1.txt;
#X obj 168 57 t b b b;
#X obj 714 672 symbol;
#X obj 754 699 pack s s;
#X obj 825 626 r namepreset;
#X obj 667 612 f \$1;
#X obj 817 662 symbol;
#X msg 748 730 \; \$1 read presets/\$2-\$1.txt;
#X obj 561 584 t b b b;
#X obj 336 49 * 56;
#X obj 334 72 - 56;
#X msg 138 83 56;
#X obj 66 240 mod 56;
#X msg 515 606 56;
#X obj 326 561 tabwrite \$1-seqpreset;
#X obj 528 760 tabread \$1-seqpreset;
#X msg 673 648 \$1-seqpreset;
#X msg 247 182 \$1-seqpreset;
#X obj 40 430 r \$1-seqsst1;
#X obj 71 451 r \$1-seqsst2;
#X obj 100 471 r \$1-seqsst3;
#X obj 193 419 r \$1-seqsst4;
#X obj 223 439 r \$1-seqsst5;
#X obj 254 459 r \$1-seqsst6;
#X obj 326 388 r \$1-seqsst7;
#X obj 347 410 r \$1-seqsst8;
#X obj 372 430 r \$1-seqsst9;
#X obj 478 433 r \$1-seqsst10;
#X obj 506 454 r \$1-seqsst11;
#X obj 516 475 r \$1-seqsst12;
#X obj 585 380 r \$1-seqsst13;
#X obj 614 401 r \$1-seqsst14;
#X obj 646 423 r \$1-seqsst15;
#X obj 692 442 r \$1-seqsst16;
#X obj 492 493 f;
#X obj 438 452 f;
#X obj 464 472 f;
#X obj 642 448 f;
#X obj 557 410 f;
#X obj 589 429 f;
#X obj 763 416 f;
#X obj 657 476 f;
#X obj 725 393 f;
#X obj 738 364 r \$1-seqstempo;
#X obj 812 438 f;
#X obj 781 391 r \$1-seqsext;
#X obj 855 436 r \$1-seqssteps;
#X obj 821 467 f;
#X obj 834 411 r \$1-seqsout2;
#X text 553 801 -> !!! nog aanpassen per 56;
#X text 579 54 max 56 parameters/waarden voor array/presets;
#X text 386 60 -> !!! per 56;
#X text 174 83 -> !!! per 56;
#X text 130 240 -> !!! per 56;
#X text 503 25 !!!onderaan nog aanpassen als er echt 56 waarden zijn!!!
;
#X obj 888 469 r \$1-seqsrnd;
#X obj 199 318 select 1 2 3 4 5 6 7 8 9 10 11 12 13 14 15 16 17 18
19 20 21 22;
#X obj 809 503 f;
#X connect 0 0 45 0;
#X connect 1 0 45 0;
#X connect 2 0 45 0;
#X connect 3 0 45 0;
#X connect 4 0 45 0;
#X connect 5 0 45 0;
#X connect 6 0 45 0;
#X connect 7 0 45 0;
#X connect 8 0 45 0;
#X connect 9 0 11 0;
#X connect 10 0 11 1;
#X connect 10 0 23 0;
#X connect 11 0 10 0;
#X connect 12 0 9 0;
#X connect 13 0 39 0;
#X connect 14 0 32 0;
#X connect 15 0 17 0;
#X connect 16 0 17 1;
#X connect 16 0 22 0;
#X connect 17 0 16 0;
#X connect 19 0 11 1;
#X connect 20 0 40 0;
#X connect 21 0 17 1;
#X connect 22 0 18 0;
#X connect 22 1 46 0;
#X connect 23 0 43 0;
#X connect 23 1 45 1;
#X connect 24 0 39 0;
#X connect 26 0 28 0;
#X connect 27 0 28 1;
#X connect 28 0 31 0;
#X connect 29 0 27 0;
#X connect 30 0 48 0;
#X connect 32 0 30 0;
#X connect 32 1 42 0;
#X connect 32 2 19 0;
#X connect 33 0 34 0;
#X connect 34 0 38 0;
#X connect 35 0 37 0;
#X connect 36 0 47 0;
#X connect 37 0 34 1;
#X connect 39 0 44 0;
#X connect 39 1 21 0;
#X connect 39 2 36 0;
#X connect 40 0 41 0;
#X connect 41 0 19 1;
#X connect 41 0 21 1;
#X connect 42 0 9 0;
#X connect 43 0 87 0;
#X connect 44 0 15 0;
#X connect 46 0 18 1;
#X connect 47 0 33 0;
#X connect 48 0 26 0;
#X connect 49 0 7 1;
#X connect 50 0 8 1;
#X connect 51 0 5 1;
#X connect 52 0 6 1;
#X connect 53 0 3 1;
#X connect 54 0 4 1;
#X connect 55 0 1 1;
#X connect 56 0 2 1;
#X connect 57 0 0 1;
#X connect 58 0 66 1;
#X connect 59 0 67 1;
#X connect 60 0 65 1;
#X connect 61 0 69 1;
#X connect 62 0 70 1;
#X connect 63 0 68 1;
#X connect 64 0 72 1;
#X connect 65 0 45 0;
#X connect 66 0 45 0;
#X connect 67 0 45 0;
#X connect 68 0 45 0;
#X connect 69 0 45 0;
#X connect 70 0 45 0;
#X connect 71 0 45 0;
#X connect 72 0 45 0;
#X connect 73 0 45 0;
#X connect 74 0 73 1;
#X connect 75 0 45 0;
#X connect 76 0 71 1;
#X connect 77 0 78 1;
#X connect 78 0 45 0;
#X connect 79 0 75 1;
#X connect 86 0 88 1;
#X connect 87 0 7 0;
#X connect 87 1 8 0;
#X connect 87 2 5 0;
#X connect 87 3 6 0;
#X connect 87 4 3 0;
#X connect 87 5 4 0;
#X connect 87 6 1 0;
#X connect 87 7 2 0;
#X connect 87 8 0 0;
#X connect 87 9 66 0;
#X connect 87 10 67 0;
#X connect 87 11 65 0;
#X connect 87 12 69 0;
#X connect 87 13 70 0;
#X connect 87 14 68 0;
#X connect 87 15 72 0;
#X connect 87 16 73 0;
#X connect 87 17 71 0;
#X connect 87 18 75 0;
#X connect 87 19 78 0;
#X connect 87 20 88 0;
#X connect 88 0 45 0;
#X restore 38 466 pd presets;
#X obj -2 -1 cnv 15 680 200 empty empty empty 20 12 0 14 -142067 -66577
0;
#X obj 142 27 tgl 30 0 \$1-seqsst5 \$1-seqrst5 empty 0 -6 0 8 -262144
-1 -1 0 127;
#X obj 46 27 tgl 30 0 \$1-seqsst2 \$1-seqrst2 empty 0 -6 0 8 -262144
-1 -1 0 127;
#X obj 78 27 tgl 30 0 \$1-seqsst3 \$1-seqrst3 empty 0 -6 0 8 -262144
-1 -1 0 127;
#X obj 110 27 tgl 30 0 \$1-seqsst4 \$1-seqrst4 empty 0 -6 0 8 -262144
-1 -1 0 127;
#X obj 174 27 tgl 30 0 \$1-seqsst6 \$1-seqrst6 empty 0 -6 0 8 -262144
-1 -1 0 127;
#X obj 206 27 tgl 30 0 \$1-seqsst7 \$1-seqrst7 empty 0 -6 0 8 -262144
-1 -1 0 127;
#X obj 238 27 tgl 30 0 \$1-seqsst8 \$1-seqrst8 empty 0 -6 0 8 -262144
-1 -1 0 127;
#X obj 302 27 tgl 30 0 \$1-seqsst10 \$1-seqrst10 empty 0 -6 0 8 -262144
-1 -1 0 127;
#X obj 270 27 tgl 30 0 \$1-seqsst9 \$1-seqrst9 empty 0 -6 0 8 -262144
-1 -1 0 127;
#X obj 334 27 tgl 30 0 \$1-seqsst11 \$1-seqrst11 empty 0 -6 0 8 -262144
-1 -1 0 127;
#X obj 367 27 tgl 30 0 \$1-seqsst12 \$1-seqrst12 empty 0 -6 0 8 -262144
-1 -1 0 127;
#X obj 399 27 tgl 30 0 \$1-seqsst13 \$1-seqrst13 empty 0 -6 0 8 -262144
-1 -1 0 127;
#X obj 431 27 tgl 30 0 \$1-seqsst14 \$1-seqrst14 empty 0 -6 0 8 -262144
-1 -1 0 127;
#X obj 463 27 tgl 30 0 \$1-seqsst15 \$1-seqrst15 empty 0 -6 0 8 -262144
-1 -1 0 127;
#X obj 496 27 tgl 30 0 \$1-seqsst16 \$1-seqrst16 empty 0 -6 0 8 -262144
-1 -1 0 127;
#X obj 14 27 tgl 30 0 \$1-seqsst1 \$1-seqrst1 empty 0 -6 0 8 -262144
-1 -1 0 127;
#X text 137 10 |;
#X text 264 10 |;
#X text 393 10 |;
#X obj 15 63 hradio 32 1 0 16 \$1-seqslamp \$1-seqrlamp empty 0 -8
0 10 -86277 -257985 -1 0;
#X obj 549 44 tgl 40 0 \$1-seqsstart \$1-seqrstart start/reset -15
-8 0 10 -262144 -1 -1 0 1;
#X obj 21 103 hsl 256 15 30 1053 0 0 \$1-seqstempo \$1-seqrtempo tempo
260 8 0 10 -262144 -1 -1 748 1;
#X obj 18 120 nbx 5 14 -1e+037 1e+037 0 0 empty empty bpm 57 7 0 10
-86277 -257985 -1 60.008 256;
#X obj 386 103 tgl 15 0 \$1-seqsext \$1-seqrext external_clock 17 7
0 8 -262144 -1 -1 0 1;
#X obj 549 108 nbx 5 20 1 16 0 0 \$1-seqssteps \$1-seqrsteps steps
0 -8 0 10 -262144 -1 -1 16 256;
#X obj 397 148 hsl 128 15 0 1 0 0 \$1-seqsrnd \$1-seqrrnd randomize
-2 -8 0 10 -262144 -1 -1 0 1;
#X obj 99 120 nbx 6 14 -1e+037 1e+037 0 0 weet \$1-seqrms ms 67 7 0
10 -86277 -257985 -1 999.867 256;
#N canvas 540 309 293 166 printname 0;
#X obj 54 37 r printallnames;
#X obj 54 107 symbol;
#X obj 54 132 s rallnames;
#X msg 54 72 sequencer;
#X connect 0 0 3 0;
#X connect 1 0 2 0;
#X connect 3 0 1 0;
#X restore 39 441 pd printname;
#N canvas 0 0 450 300 init 0;
#X obj 32 164 s \$1-seqrtempo;
#X obj 150 166 s \$1-seqrsteps;
#X obj 234 90 loadbang;
#X msg 183 123 60;
#X msg 216 124 16;
#X obj 298 159 s \$1-seqrrnd;
#X msg 295 120 0;
#X connect 2 0 3 0;
#X connect 2 0 4 0;
#X connect 2 0 6 0;
#X connect 3 0 0 0;
#X connect 4 0 1 0;
#X connect 6 0 5 0;
#X restore 40 490 pd init;
#N canvas 10 184 588 284 presetsnew 0;
#X obj 210 58 r savepresetn;
#X obj 203 119 t b b b;
#N canvas 30 156 883 470 arraypresets 0;
#X obj 50 178 until;
#X obj 187 183 f \$1;
#X obj 187 233 symbol;
#X obj 50 203 f -1;
#X obj 50 228 + 1;
#X msg 127 167 -1;
#X msg 283 368 add2 \$1;
#X obj 93 -5 inlet;
#X obj 69 267 tabread \$1-seqay;
#X obj 47 102 r \$1-seqssize;
#X obj 50 146 f;
#X obj 357 419 outlet;
#X text 41 83 !! size of array;
#X msg 401 367 add2 () arr 0 0 \$1;
#X obj 93 33 t b b b b b b b b;
#X obj 340 178 until;
#X obj 477 183 f \$1;
#X obj 477 233 symbol;
#X obj 340 203 f -1;
#X obj 340 228 + 1;
#X msg 417 167 -1;
#X obj 359 267 tabread \$1-seqay;
#X obj 337 102 r \$1-seqssize;
#X obj 340 146 f;
#X text 572 208 !!;
#X text 504 267 !!;
#X obj 630 178 until;
#X obj 767 183 f \$1;
#X obj 767 233 symbol;
#X obj 630 203 f -1;
#X obj 630 228 + 1;
#X msg 707 167 -1;
#X obj 649 267 tabread \$1-seqay;
#X obj 627 102 r \$1-seqssize;
#X obj 630 146 f;
#X text 862 208 !!;
#X text 794 267 !!;
#X text 331 84 !! size of array2;
#X text 621 83 !! size of array3;
#X msg 477 208 \$1-seqray2;
#X msg 187 208 \$1-seqray1;
#X msg 767 208 \$1-seqray3;
#X text 234 186 provisionary;
#X text 285 208 name;
#X text 214 267 !!;
#X text 127 289 original array that is saved in presets;
#X connect 0 0 3 0;
#X connect 1 0 40 0;
#X connect 2 0 13 0;
#X connect 3 0 4 0;
#X connect 4 0 3 1;
#X connect 4 0 8 0;
#X connect 5 0 3 1;
#X connect 6 0 11 0;
#X connect 7 0 14 0;
#X connect 8 0 6 0;
#X connect 9 0 10 1;
#X connect 10 0 0 0;
#X connect 13 0 11 0;
#X connect 14 6 10 0;
#X connect 14 7 1 0;
#X connect 14 7 5 0;
#X connect 15 0 18 0;
#X connect 16 0 39 0;
#X connect 17 0 13 0;
#X connect 18 0 19 0;
#X connect 19 0 18 1;
#X connect 19 0 21 0;
#X connect 20 0 18 1;
#X connect 21 0 6 0;
#X connect 22 0 23 1;
#X connect 23 0 15 0;
#X connect 26 0 29 0;
#X connect 27 0 41 0;
#X connect 28 0 13 0;
#X connect 29 0 30 0;
#X connect 30 0 29 1;
#X connect 30 0 32 0;
#X connect 31 0 29 1;
#X connect 32 0 6 0;
#X connect 33 0 34 1;
#X connect 34 0 26 0;
#X connect 39 0 17 0;
#X connect 40 0 2 0;
#X connect 41 0 28 0;
#X restore 46 154 pd arraypresets;
#N canvas 114 32 1041 527 name-sends-normal 0;
#N canvas 0 0 450 300 (subpatch) 0;
#X array \$1-seqbetween 24 float 2;
#X coords 0 10000 24 -10000 20 20 1;
#X restore 15 256 graph;
#X obj 404 545 tabwrite \$1-seqbetween;
#X obj 438 255 unpack f f;
#X obj 98 176 pack f 1;
#X obj 135 198 pack f 2;
#X obj 186 220 pack f 3;
#X obj 236 175 pack f 4;
#X obj 273 197 pack f 5;
#X obj 324 219 pack f 6;
#X obj 368 176 pack f 7;
#X obj 405 198 pack f 8;
#X obj 449 219 pack f 9;
#X obj 508 176 pack f 10;
#X obj 545 198 pack f 11;
#X obj 596 219 pack f 12;
#X obj 665 176 pack f 13;
#X obj 702 198 pack f 14;
#X obj 754 221 pack f 15;
#X obj 798 176 pack f 16;
#X obj 835 199 pack f 17;
#X obj 884 223 pack f 18;
#X obj 438 505 unpack f f;
#X obj 98 426 pack f 19;
#X obj 135 448 pack f 20;
#X obj 186 470 pack f 21;
#X obj 236 425 pack f 22;
#X obj 273 447 pack f 23;
#X obj 324 469 pack f 24;
#X obj 368 426 pack f 25;
#X obj 405 448 pack f 26;
#X obj 449 469 pack f 27;
#X obj 508 426 pack f 28;
#X obj 545 448 pack f 29;
#X obj 596 469 pack f 30;
#X obj 665 426 pack f 31;
#X obj 702 448 pack f 32;
#X obj 754 471 pack f 33;
#X obj 798 426 pack f 34;
#X obj 835 449 pack f 35;
#X obj 886 470 pack f 36;
#X text 38 258 -> adjust size if necessary (standard size = 109);
#X obj 40 80 r \$1-seqsst1;
#X obj 71 101 r \$1-seqsst2;
#X obj 100 121 r \$1-seqsst3;
#X obj 193 69 r \$1-seqsst4;
#X obj 223 89 r \$1-seqsst5;
#X obj 254 109 r \$1-seqsst6;
#X obj 334 67 r \$1-seqsst7;
#X obj 355 89 r \$1-seqsst8;
#X obj 380 109 r \$1-seqsst9;
#X obj 478 83 r \$1-seqsst10;
#X obj 506 104 r \$1-seqsst11;
#X obj 516 125 r \$1-seqsst12;
#X obj 658 74 r \$1-seqsst13;
#X obj 687 95 r \$1-seqsst14;
#X obj 719 117 r \$1-seqsst15;
#X obj 846 73 r \$1-seqsst16;
#X obj 870 100 r \$1-seqstempo;
#X obj 913 127 r \$1-seqsext;
#X obj 91 358 r \$1-seqssteps;
#X obj 70 333 r \$1-seqsout2;
#X obj 124 391 r \$1-seqsrnd;
#X connect 2 0 1 0;
#X connect 2 1 1 1;
#X connect 3 0 2 0;
#X connect 4 0 2 0;
#X connect 5 0 2 0;
#X connect 6 0 2 0;
#X connect 7 0 2 0;
#X connect 8 0 2 0;
#X connect 9 0 2 0;
#X connect 10 0 2 0;
#X connect 11 0 2 0;
#X connect 12 0 2 0;
#X connect 13 0 2 0;
#X connect 14 0 2 0;
#X connect 15 0 2 0;
#X connect 16 0 2 0;
#X connect 17 0 2 0;
#X connect 18 0 2 0;
#X connect 19 0 2 0;
#X connect 20 0 2 0;
#X connect 21 0 1 0;
#X connect 21 1 1 1;
#X connect 22 0 21 0;
#X connect 23 0 21 0;
#X connect 24 0 21 0;
#X connect 25 0 21 0;
#X connect 26 0 21 0;
#X connect 27 0 21 0;
#X connect 28 0 21 0;
#X connect 29 0 21 0;
#X connect 30 0 21 0;
#X connect 31 0 21 0;
#X connect 32 0 21 0;
#X connect 33 0 21 0;
#X connect 34 0 21 0;
#X connect 35 0 21 0;
#X connect 36 0 21 0;
#X connect 37 0 21 0;
#X connect 38 0 21 0;
#X connect 39 0 21 0;
#X connect 41 0 3 0;
#X connect 42 0 4 0;
#X connect 43 0 5 0;
#X connect 44 0 6 0;
#X connect 45 0 7 0;
#X connect 46 0 8 0;
#X connect 47 0 9 0;
#X connect 48 0 10 0;
#X connect 49 0 11 0;
#X connect 50 0 12 0;
#X connect 51 0 13 0;
#X connect 52 0 14 0;
#X connect 53 0 15 0;
#X connect 54 0 16 0;
#X connect 55 0 17 0;
#X connect 56 0 18 0;
#X connect 57 0 19 0;
#X connect 58 0 20 0;
#X connect 59 0 23 0;
#X connect 60 0 22 0;
#X connect 61 0 24 0;
#X restore 75 27 pd name-sends-normal;
#X obj 223 196 s toextfile;
#N canvas 636 185 560 404 normal 0;
#X obj 278 134 f \$1;
#X obj 237 278 symbol;
#X obj 42 268 list prepend add2;
#X obj 42 293 list trim;
#X obj 188 51 t b b b b b;
#X obj 154 135 f 0;
#X obj 193 135 + 1;
#X msg 181 103 0;
#X msg 240 196 seqrx\$1;
#X obj 237 222 pack s f;
#X msg 237 249 \$2-\$1;
#X obj 131 102 until;
#X obj 193 161 t f f;
#X obj 21 193 tabread \$1-seqbetween;
#X text 151 77 -> aanpassen! aantal op te slagen floats;
#X obj 180 16 inlet;
#X obj 229 345 outlet;
#X msg 235 311 add2 () norm 0 0 \$1;
#X obj 111 76 f 21;
#X connect 0 0 9 1;
#X connect 1 0 17 0;
#X connect 2 0 3 0;
#X connect 3 0 16 0;
#X connect 4 3 18 0;
#X connect 4 4 0 0;
#X connect 4 4 7 0;
#X connect 5 0 6 0;
#X connect 6 0 5 1;
#X connect 6 0 12 0;
#X connect 7 0 5 1;
#X connect 8 0 9 0;
#X connect 9 0 10 0;
#X connect 10 0 1 0;
#X connect 11 0 5 0;
#X connect 12 0 13 0;
#X connect 12 1 8 0;
#X connect 13 0 2 0;
#X connect 15 0 4 0;
#X connect 17 0 16 0;
#X connect 18 0 11 0;
#X restore 217 153 pd normal;
#X text 179 152 !!->;
#X text 212 245 !!->;
#N canvas 49 0 1083 670 receive-normal 0;
#X obj 24 26 r \$1-seqrx1;
#X obj 54 46 r \$1-seqrx2;
#X obj 85 66 r \$1-seqrx3;
#X obj 196 19 r \$1-seqrx4;
#X obj 226 39 r \$1-seqrx5;
#X obj 257 59 r \$1-seqrx6;
#X obj 364 16 r \$1-seqrx7;
#X obj 382 37 r \$1-seqrx8;
#X obj 416 58 r \$1-seqrx9;
#X obj 523 33 r \$1-seqrx10;
#X obj 553 53 r \$1-seqrx11;
#X obj 584 73 r \$1-seqrx12;
#X obj 703 33 r \$1-seqrx13;
#X obj 733 53 r \$1-seqrx14;
#X obj 764 73 r \$1-seqrx15;
#X obj 863 33 r \$1-seqrx16;
#X obj 893 53 r \$1-seqrx17;
#X obj 924 73 r \$1-seqrx18;
#X obj 33 363 r \$1-seqrx19;
#X obj 63 383 r \$1-seqrx20;
#X obj 94 403 r \$1-seqrx21;
#X obj 213 363 r \$1-seqrx22;
#X obj 243 383 r \$1-seqrx23;
#X obj 274 403 r \$1-seqrx24;
#X obj 393 363 r \$1-seqrx25;
#X obj 423 383 r \$1-seqrx26;
#X obj 454 403 r \$1-seqrx27;
#X obj 543 363 r \$1-seqrx28;
#X obj 573 383 r \$1-seqrx29;
#X obj 604 403 r \$1-seqrx30;
#X obj 713 363 r \$1-seqrx31;
#X obj 743 383 r \$1-seqrx32;
#X obj 774 403 r \$1-seqrx33;
#X obj 873 363 r \$1-seqrx34;
#X obj 903 383 r \$1-seqrx35;
#X obj 934 403 r \$1-seqrx36;
#N canvas 30 18 246 218 cmp 0;
#X obj 42 65 list split 1;
#X obj 88 119 ==;
#X obj 43 151 spigot;
#X obj 43 176 outlet;
#X obj 42 28 inlet;
#X obj 110 30 r \$1-seqarg2;
#X connect 0 0 2 0;
#X connect 0 1 1 0;
#X connect 1 0 2 1;
#X connect 2 0 3 0;
#X connect 4 0 0 0;
#X connect 5 0 1 1;
#X restore 22 100 pd cmp;
#N canvas 355 32 246 300 cmp 0;
#X obj 42 65 list split 1;
#X obj 88 119 ==;
#X obj 43 151 spigot;
#X obj 43 176 outlet;
#X obj 42 28 inlet;
#X obj 110 30 r \$1-seqarg2;
#X connect 0 0 2 0;
#X connect 0 1 1 0;
#X connect 1 0 2 1;
#X connect 2 0 3 0;
#X connect 4 0 0 0;
#X connect 5 0 1 1;
#X restore 42 125 pd cmp;
#N canvas 0 0 246 300 cmp 0;
#X obj 42 65 list split 1;
#X obj 88 119 ==;
#X obj 43 151 spigot;
#X obj 43 176 outlet;
#X obj 42 28 inlet;
#X obj 110 30 r \$1-seqarg2;
#X connect 0 0 2 0;
#X connect 0 1 1 0;
#X connect 1 0 2 1;
#X connect 2 0 3 0;
#X connect 4 0 0 0;
#X connect 5 0 1 1;
#X restore 59 153 pd cmp;
#N canvas 0 0 246 300 cmp 0;
#X obj 42 65 list split 1;
#X obj 88 119 ==;
#X obj 43 151 spigot;
#X obj 43 176 outlet;
#X obj 42 28 inlet;
#X obj 110 30 r \$1-seqarg2;
#X connect 0 0 2 0;
#X connect 0 1 1 0;
#X connect 1 0 2 1;
#X connect 2 0 3 0;
#X connect 4 0 0 0;
#X connect 5 0 1 1;
#X restore 172 100 pd cmp;
#N canvas 0 0 246 300 cmp 0;
#X obj 42 65 list split 1;
#X obj 88 119 ==;
#X obj 43 151 spigot;
#X obj 43 176 outlet;
#X obj 42 28 inlet;
#X obj 110 30 r \$1-seqarg2;
#X connect 0 0 2 0;
#X connect 0 1 1 0;
#X connect 1 0 2 1;
#X connect 2 0 3 0;
#X connect 4 0 0 0;
#X connect 5 0 1 1;
#X restore 192 125 pd cmp;
#N canvas 308 15 246 215 cmp 0;
#X obj 42 65 list split 1;
#X obj 88 119 ==;
#X obj 43 151 spigot;
#X obj 43 176 outlet;
#X obj 42 28 inlet;
#X obj 110 30 r \$1-seqarg2;
#X connect 0 0 2 0;
#X connect 0 1 1 0;
#X connect 1 0 2 1;
#X connect 2 0 3 0;
#X connect 4 0 0 0;
#X connect 5 0 1 1;
#X restore 209 153 pd cmp;
#N canvas 0 0 246 300 cmp 0;
#X obj 42 65 list split 1;
#X obj 88 119 ==;
#X obj 43 151 spigot;
#X obj 43 176 outlet;
#X obj 42 28 inlet;
#X obj 110 30 r \$1-seqarg2;
#X connect 0 0 2 0;
#X connect 0 1 1 0;
#X connect 1 0 2 1;
#X connect 2 0 3 0;
#X connect 4 0 0 0;
#X connect 5 0 1 1;
#X restore 362 100 pd cmp;
#N canvas 0 0 246 300 cmp 0;
#X obj 42 65 list split 1;
#X obj 88 119 ==;
#X obj 43 151 spigot;
#X obj 43 176 outlet;
#X obj 42 28 inlet;
#X obj 110 30 r \$1-seqarg2;
#X connect 0 0 2 0;
#X connect 0 1 1 0;
#X connect 1 0 2 1;
#X connect 2 0 3 0;
#X connect 4 0 0 0;
#X connect 5 0 1 1;
#X restore 382 125 pd cmp;
#N canvas 0 0 246 300 cmp 0;
#X obj 42 65 list split 1;
#X obj 88 119 ==;
#X obj 43 151 spigot;
#X obj 43 176 outlet;
#X obj 42 28 inlet;
#X obj 110 30 r \$1-seqarg2;
#X connect 0 0 2 0;
#X connect 0 1 1 0;
#X connect 1 0 2 1;
#X connect 2 0 3 0;
#X connect 4 0 0 0;
#X connect 5 0 1 1;
#X restore 399 153 pd cmp;
#N canvas 0 0 246 300 cmp 0;
#X obj 42 65 list split 1;
#X obj 88 119 ==;
#X obj 43 151 spigot;
#X obj 43 176 outlet;
#X obj 42 28 inlet;
#X obj 110 30 r \$1-seqarg2;
#X connect 0 0 2 0;
#X connect 0 1 1 0;
#X connect 1 0 2 1;
#X connect 2 0 3 0;
#X connect 4 0 0 0;
#X connect 5 0 1 1;
#X restore 542 110 pd cmp;
#N canvas 0 0 246 300 cmp 0;
#X obj 42 65 list split 1;
#X obj 88 119 ==;
#X obj 43 151 spigot;
#X obj 43 176 outlet;
#X obj 42 28 inlet;
#X obj 110 30 r \$1-seqarg2;
#X connect 0 0 2 0;
#X connect 0 1 1 0;
#X connect 1 0 2 1;
#X connect 2 0 3 0;
#X connect 4 0 0 0;
#X connect 5 0 1 1;
#X restore 562 135 pd cmp;
#N canvas 0 0 246 300 cmp 0;
#X obj 42 65 list split 1;
#X obj 88 119 ==;
#X obj 43 151 spigot;
#X obj 43 176 outlet;
#X obj 42 28 inlet;
#X obj 110 30 r \$1-seqarg2;
#X connect 0 0 2 0;
#X connect 0 1 1 0;
#X connect 1 0 2 1;
#X connect 2 0 3 0;
#X connect 4 0 0 0;
#X connect 5 0 1 1;
#X restore 579 163 pd cmp;
#N canvas 0 0 246 300 cmp 0;
#X obj 42 65 list split 1;
#X obj 88 119 ==;
#X obj 43 151 spigot;
#X obj 43 176 outlet;
#X obj 42 28 inlet;
#X obj 110 30 r \$1-seqarg2;
#X connect 0 0 2 0;
#X connect 0 1 1 0;
#X connect 1 0 2 1;
#X connect 2 0 3 0;
#X connect 4 0 0 0;
#X connect 5 0 1 1;
#X restore 692 110 pd cmp;
#N canvas 0 0 246 300 cmp 0;
#X obj 42 65 list split 1;
#X obj 88 119 ==;
#X obj 43 151 spigot;
#X obj 43 176 outlet;
#X obj 42 28 inlet;
#X obj 110 30 r \$1-seqarg2;
#X connect 0 0 2 0;
#X connect 0 1 1 0;
#X connect 1 0 2 1;
#X connect 2 0 3 0;
#X connect 4 0 0 0;
#X connect 5 0 1 1;
#X restore 712 135 pd cmp;
#N canvas 0 0 246 300 cmp 0;
#X obj 42 65 list split 1;
#X obj 88 119 ==;
#X obj 43 151 spigot;
#X obj 43 176 outlet;
#X obj 42 28 inlet;
#X obj 110 30 r \$1-seqarg2;
#X connect 0 0 2 0;
#X connect 0 1 1 0;
#X connect 1 0 2 1;
#X connect 2 0 3 0;
#X connect 4 0 0 0;
#X connect 5 0 1 1;
#X restore 729 163 pd cmp;
#N canvas 0 0 246 300 cmp 0;
#X obj 42 65 list split 1;
#X obj 88 119 ==;
#X obj 43 151 spigot;
#X obj 43 176 outlet;
#X obj 42 28 inlet;
#X obj 110 30 r \$1-seqarg2;
#X connect 0 0 2 0;
#X connect 0 1 1 0;
#X connect 1 0 2 1;
#X connect 2 0 3 0;
#X connect 4 0 0 0;
#X connect 5 0 1 1;
#X restore 882 100 pd cmp;
#N canvas 0 0 246 300 cmp 0;
#X obj 42 65 list split 1;
#X obj 88 119 ==;
#X obj 43 151 spigot;
#X obj 43 176 outlet;
#X obj 42 28 inlet;
#X obj 110 30 r \$1-seqarg2;
#X connect 0 0 2 0;
#X connect 0 1 1 0;
#X connect 1 0 2 1;
#X connect 2 0 3 0;
#X connect 4 0 0 0;
#X connect 5 0 1 1;
#X restore 902 125 pd cmp;
#N canvas 0 0 246 300 cmp 0;
#X obj 42 65 list split 1;
#X obj 88 119 ==;
#X obj 43 151 spigot;
#X obj 43 176 outlet;
#X obj 42 28 inlet;
#X obj 110 30 r \$1-seqarg2;
#X connect 0 0 2 0;
#X connect 0 1 1 0;
#X connect 1 0 2 1;
#X connect 2 0 3 0;
#X connect 4 0 0 0;
#X connect 5 0 1 1;
#X restore 919 153 pd cmp;
#N canvas 30 18 246 218 cmp 0;
#X obj 42 65 list split 1;
#X obj 88 119 ==;
#X obj 43 151 spigot;
#X obj 43 176 outlet;
#X obj 42 28 inlet;
#X obj 110 30 r \$1-seqarg2;
#X connect 0 0 2 0;
#X connect 0 1 1 0;
#X connect 1 0 2 1;
#X connect 2 0 3 0;
#X connect 4 0 0 0;
#X connect 5 0 1 1;
#X restore 32 440 pd cmp;
#N canvas 355 32 246 300 cmp 0;
#X obj 42 65 list split 1;
#X obj 88 119 ==;
#X obj 43 151 spigot;
#X obj 43 176 outlet;
#X obj 42 28 inlet;
#X obj 110 30 r \$1-seqarg2;
#X connect 0 0 2 0;
#X connect 0 1 1 0;
#X connect 1 0 2 1;
#X connect 2 0 3 0;
#X connect 4 0 0 0;
#X connect 5 0 1 1;
#X restore 52 469 pd cmp;
#N canvas 0 0 246 300 cmp 0;
#X obj 42 65 list split 1;
#X obj 88 119 ==;
#X obj 43 151 spigot;
#X obj 43 176 outlet;
#X obj 42 28 inlet;
#X obj 110 30 r \$1-seqarg2;
#X connect 0 0 2 0;
#X connect 0 1 1 0;
#X connect 1 0 2 1;
#X connect 2 0 3 0;
#X connect 4 0 0 0;
#X connect 5 0 1 1;
#X restore 69 493 pd cmp;
#N canvas 0 0 246 300 cmp 0;
#X obj 42 65 list split 1;
#X obj 88 119 ==;
#X obj 43 151 spigot;
#X obj 43 176 outlet;
#X obj 42 28 inlet;
#X obj 110 30 r \$1-seqarg2;
#X connect 0 0 2 0;
#X connect 0 1 1 0;
#X connect 1 0 2 1;
#X connect 2 0 3 0;
#X connect 4 0 0 0;
#X connect 5 0 1 1;
#X restore 182 440 pd cmp;
#N canvas 0 0 246 300 cmp 0;
#X obj 42 65 list split 1;
#X obj 88 119 ==;
#X obj 43 151 spigot;
#X obj 43 176 outlet;
#X obj 42 28 inlet;
#X obj 110 30 r \$1-seqarg2;
#X connect 0 0 2 0;
#X connect 0 1 1 0;
#X connect 1 0 2 1;
#X connect 2 0 3 0;
#X connect 4 0 0 0;
#X connect 5 0 1 1;
#X restore 202 465 pd cmp;
#N canvas 308 15 246 215 cmp 0;
#X obj 42 65 list split 1;
#X obj 88 119 ==;
#X obj 43 151 spigot;
#X obj 43 176 outlet;
#X obj 42 28 inlet;
#X obj 110 30 r \$1-seqarg2;
#X connect 0 0 2 0;
#X connect 0 1 1 0;
#X connect 1 0 2 1;
#X connect 2 0 3 0;
#X connect 4 0 0 0;
#X connect 5 0 1 1;
#X restore 219 493 pd cmp;
#N canvas 0 0 246 300 cmp 0;
#X obj 42 65 list split 1;
#X obj 88 119 ==;
#X obj 43 151 spigot;
#X obj 43 176 outlet;
#X obj 42 28 inlet;
#X obj 110 30 r \$1-seqarg2;
#X connect 0 0 2 0;
#X connect 0 1 1 0;
#X connect 1 0 2 1;
#X connect 2 0 3 0;
#X connect 4 0 0 0;
#X connect 5 0 1 1;
#X restore 372 440 pd cmp;
#N canvas 0 0 246 300 cmp 0;
#X obj 42 65 list split 1;
#X obj 88 119 ==;
#X obj 43 151 spigot;
#X obj 43 176 outlet;
#X obj 42 28 inlet;
#X obj 110 30 r \$1-seqarg2;
#X connect 0 0 2 0;
#X connect 0 1 1 0;
#X connect 1 0 2 1;
#X connect 2 0 3 0;
#X connect 4 0 0 0;
#X connect 5 0 1 1;
#X restore 392 465 pd cmp;
#N canvas 0 0 246 300 cmp 0;
#X obj 42 65 list split 1;
#X obj 88 119 ==;
#X obj 43 151 spigot;
#X obj 43 176 outlet;
#X obj 42 28 inlet;
#X obj 110 30 r \$1-seqarg2;
#X connect 0 0 2 0;
#X connect 0 1 1 0;
#X connect 1 0 2 1;
#X connect 2 0 3 0;
#X connect 4 0 0 0;
#X connect 5 0 1 1;
#X restore 409 493 pd cmp;
#N canvas 0 0 246 300 cmp 0;
#X obj 42 65 list split 1;
#X obj 88 119 ==;
#X obj 43 151 spigot;
#X obj 43 176 outlet;
#X obj 42 28 inlet;
#X obj 110 30 r \$1-seqarg2;
#X connect 0 0 2 0;
#X connect 0 1 1 0;
#X connect 1 0 2 1;
#X connect 2 0 3 0;
#X connect 4 0 0 0;
#X connect 5 0 1 1;
#X restore 552 450 pd cmp;
#N canvas 0 0 246 300 cmp 0;
#X obj 42 65 list split 1;
#X obj 88 119 ==;
#X obj 43 151 spigot;
#X obj 43 176 outlet;
#X obj 42 28 inlet;
#X obj 110 30 r \$1-seqarg2;
#X connect 0 0 2 0;
#X connect 0 1 1 0;
#X connect 1 0 2 1;
#X connect 2 0 3 0;
#X connect 4 0 0 0;
#X connect 5 0 1 1;
#X restore 572 475 pd cmp;
#N canvas 0 0 246 300 cmp 0;
#X obj 42 65 list split 1;
#X obj 88 119 ==;
#X obj 43 151 spigot;
#X obj 43 176 outlet;
#X obj 42 28 inlet;
#X obj 110 30 r \$1-seqarg2;
#X connect 0 0 2 0;
#X connect 0 1 1 0;
#X connect 1 0 2 1;
#X connect 2 0 3 0;
#X connect 4 0 0 0;
#X connect 5 0 1 1;
#X restore 589 503 pd cmp;
#N canvas 0 0 246 300 cmp 0;
#X obj 42 65 list split 1;
#X obj 88 119 ==;
#X obj 43 151 spigot;
#X obj 43 176 outlet;
#X obj 42 28 inlet;
#X obj 110 30 r \$1-seqarg2;
#X connect 0 0 2 0;
#X connect 0 1 1 0;
#X connect 1 0 2 1;
#X connect 2 0 3 0;
#X connect 4 0 0 0;
#X connect 5 0 1 1;
#X restore 702 450 pd cmp;
#N canvas 0 0 246 300 cmp 0;
#X obj 42 65 list split 1;
#X obj 88 119 ==;
#X obj 43 151 spigot;
#X obj 43 176 outlet;
#X obj 42 28 inlet;
#X obj 110 30 r \$1-seqarg2;
#X connect 0 0 2 0;
#X connect 0 1 1 0;
#X connect 1 0 2 1;
#X connect 2 0 3 0;
#X connect 4 0 0 0;
#X connect 5 0 1 1;
#X restore 722 475 pd cmp;
#N canvas 0 0 246 300 cmp 0;
#X obj 42 65 list split 1;
#X obj 88 119 ==;
#X obj 43 151 spigot;
#X obj 43 176 outlet;
#X obj 42 28 inlet;
#X obj 110 30 r \$1-seqarg2;
#X connect 0 0 2 0;
#X connect 0 1 1 0;
#X connect 1 0 2 1;
#X connect 2 0 3 0;
#X connect 4 0 0 0;
#X connect 5 0 1 1;
#X restore 739 503 pd cmp;
#N canvas 0 0 246 300 cmp 0;
#X obj 42 65 list split 1;
#X obj 88 119 ==;
#X obj 43 151 spigot;
#X obj 43 176 outlet;
#X obj 42 28 inlet;
#X obj 110 30 r \$1-seqarg2;
#X connect 0 0 2 0;
#X connect 0 1 1 0;
#X connect 1 0 2 1;
#X connect 2 0 3 0;
#X connect 4 0 0 0;
#X connect 5 0 1 1;
#X restore 892 440 pd cmp;
#N canvas 0 0 246 300 cmp 0;
#X obj 42 65 list split 1;
#X obj 88 119 ==;
#X obj 43 151 spigot;
#X obj 43 176 outlet;
#X obj 42 28 inlet;
#X obj 110 30 r \$1-seqarg2;
#X connect 0 0 2 0;
#X connect 0 1 1 0;
#X connect 1 0 2 1;
#X connect 2 0 3 0;
#X connect 4 0 0 0;
#X connect 5 0 1 1;
#X restore 912 465 pd cmp;
#N canvas 0 0 246 300 cmp 0;
#X obj 42 65 list split 1;
#X obj 88 119 ==;
#X obj 43 151 spigot;
#X obj 43 176 outlet;
#X obj 42 28 inlet;
#X obj 110 30 r \$1-seqarg2;
#X connect 0 0 2 0;
#X connect 0 1 1 0;
#X connect 1 0 2 1;
#X connect 2 0 3 0;
#X connect 4 0 0 0;
#X connect 5 0 1 1;
#X restore 929 493 pd cmp;
#X obj 21 191 s \$1-seqrst1;
#X obj 52 212 s \$1-seqrst2;
#X obj 81 232 s \$1-seqrst3;
#X obj 175 183 s \$1-seqrst4;
#X obj 206 203 s \$1-seqrst5;
#X obj 236 223 s \$1-seqrst6;
#X obj 355 187 s \$1-seqrst7;
#X obj 376 209 s \$1-seqrst8;
#X obj 401 230 s \$1-seqrst9;
#X obj 508 233 s \$1-seqrst10;
#X obj 535 253 s \$1-seqrst11;
#X obj 567 274 s \$1-seqrst12;
#X obj 619 206 s \$1-seqrst13;
#X obj 648 227 s \$1-seqrst14;
#X obj 680 249 s \$1-seqrst15;
#X obj 855 212 s \$1-seqrst16;
#X obj 892 236 s \$1-seqrtempo;
#X obj 935 263 s \$1-seqrext;
#X obj 72 584 s \$1-seqrsteps;
#X obj 57 560 s \$1-seqrout2;
#X obj 94 613 s \$1-seqrrnd;
#X connect 0 0 36 0;
#X connect 1 0 37 0;
#X connect 2 0 38 0;
#X connect 3 0 39 0;
#X connect 4 0 40 0;
#X connect 5 0 41 0;
#X connect 6 0 42 0;
#X connect 7 0 43 0;
#X connect 8 0 44 0;
#X connect 9 0 45 0;
#X connect 10 0 46 0;
#X connect 11 0 47 0;
#X connect 12 0 48 0;
#X connect 13 0 49 0;
#X connect 14 0 50 0;
#X connect 15 0 51 0;
#X connect 16 0 52 0;
#X connect 17 0 53 0;
#X connect 18 0 54 0;
#X connect 19 0 55 0;
#X connect 20 0 56 0;
#X connect 21 0 57 0;
#X connect 22 0 58 0;
#X connect 23 0 59 0;
#X connect 24 0 60 0;
#X connect 25 0 61 0;
#X connect 26 0 62 0;
#X connect 27 0 63 0;
#X connect 28 0 64 0;
#X connect 29 0 65 0;
#X connect 30 0 66 0;
#X connect 31 0 67 0;
#X connect 32 0 68 0;
#X connect 33 0 69 0;
#X connect 34 0 70 0;
#X connect 35 0 71 0;
#X connect 36 0 72 0;
#X connect 37 0 73 0;
#X connect 38 0 74 0;
#X connect 39 0 75 0;
#X connect 40 0 76 0;
#X connect 41 0 77 0;
#X connect 42 0 78 0;
#X connect 43 0 79 0;
#X connect 44 0 80 0;
#X connect 45 0 81 0;
#X connect 46 0 82 0;
#X connect 47 0 83 0;
#X connect 48 0 84 0;
#X connect 49 0 85 0;
#X connect 50 0 86 0;
#X connect 51 0 87 0;
#X connect 52 0 88 0;
#X connect 53 0 89 0;
#X connect 54 0 91 0;
#X connect 55 0 90 0;
#X connect 56 0 92 0;
#X restore 251 246 pd receive-normal;
#X text 4 153 !!->;
#X text 32 27 !!->;
#N canvas 0 0 246 300 cmp 0;
#X obj 42 65 list split 1;
#X obj 88 119 ==;
#X obj 43 151 spigot;
#X obj 43 176 outlet;
#X obj 42 28 inlet;
#X obj 157 64 inlet;
#X connect 0 0 2 0;
#X connect 0 1 1 0;
#X connect 1 0 2 1;
#X connect 2 0 3 0;
#X connect 4 0 0 0;
#X connect 5 0 1 1;
#X restore 209 94 pd cmp;
#X obj 458 12 loadbang;
#X obj 458 37 f \$2;
#X obj 458 85 s \$1-seqarg2;
#N canvas 623 236 565 271 receive-array 0;
#X obj 46 18 r \$1-seqray1;
#X obj 47 181 list prepend 0;
#X obj 47 206 send \$1-seqay;
#X obj 157 67 list split 1;
#X obj 95 122 ==;
#X obj 175 95 r \$1-seqarg2;
#X obj 47 156 spigot;
#X obj 46 43 t l l;
#X obj 41 72 list split 1;
#X text 169 180 drop the list at index 0 of the array;
#X text 166 205 !! adjust this name of the original saved array;
#X connect 0 0 7 0;
#X connect 1 0 2 0;
#X connect 3 0 4 0;
#X connect 4 0 6 1;
#X connect 5 0 4 1;
#X connect 6 0 1 0;
#X connect 7 0 8 0;
#X connect 7 1 3 0;
#X connect 8 1 6 0;
#X restore 62 248 pd receive-array;
#X text 12 249 !! ->;
#X connect 0 0 11 0;
#X connect 1 1 5 0;
#X connect 2 0 4 0;
#X connect 5 0 4 0;
#X connect 11 0 1 0;
#X connect 12 0 13 0;
#X connect 13 0 11 1;
#X connect 13 0 14 0;
#X restore 38 517 pd presetsnew;
#X connect 0 0 2 0;
#X connect 1 0 0 0;
#X connect 3 0 8 0;
#X connect 4 0 9 0;
#X connect 5 0 3 0;
#X connect 8 0 7 0;
#X connect 9 0 10 0;
#X connect 10 0 6 0;
#X connect 11 0 12 0;
#X connect 12 0 13 0;
#X connect 17 0 21 0;
#X connect 18 0 19 0;
#X connect 20 0 17 0;
#X connect 21 0 18 0;
#X connect 47 0 48 0;
