#N canvas 31 97 296 302 12;
#N canvas 394 81 657 574 fmm 0;
#X obj 57 125 mtof;
#X obj 299 424 osc~;
#X obj 190 512 osc~;
#X obj 207 462 *~;
#X obj 191 490 +~;
#X obj 191 388 line~;
#X obj 192 427 *~;
#X obj 204 267 pack f 300;
#X obj 188 543 outlet~;
#X obj 343 146 t b f;
#X obj 363 21 inlet ratio;
#X obj 16 6 inlet pitch;
#X obj 135 8 inlet index;
#X obj 300 389 line~;
#X obj 304 351 pack f 300;
#X obj 136 75 t f b;
#X obj 186 173 *;
#X obj 241 78 r \$1-fm1sion;
#X obj 239 104 > 0;
#X obj 318 261 t f b;
#X obj 349 326 *;
#X obj 428 292 > 0;
#X obj 424 265 r \$1-fm1sron;
#X obj 171 105 f 300;
#X obj 352 290 f 300;
#X obj 206 48 r \$1-fm1xigt;
#X obj 397 241 r \$1-fm1xrgt;
#X obj 15 157 s \$1-fm1rhz;
#N canvas 53 310 450 300 fixed-pitch 0;
#X obj 155 98 select 0 1;
#X obj 148 26 r \$1-fm1sfix;
#X msg 64 147 label ratio;
#X msg 262 134 label p-mod;
#X msg 81 167 range 0 32;
#X msg 265 160 range 0 127;
#X msg 94 190 size 15 129;
#X msg 269 187 size 15 128;
#X obj 126 274 s \$1-fm1rr;
#X obj 145 60 t b b f f;
#X obj 251 100 outlet;
#X text 306 99 to switch;
#X obj 316 238 outlet;
#X connect 0 0 2 0;
#X connect 0 0 4 0;
#X connect 0 0 6 0;
#X connect 0 1 3 0;
#X connect 0 1 5 0;
#X connect 0 1 7 0;
#X connect 1 0 9 0;
#X connect 2 0 8 0;
#X connect 3 0 8 0;
#X connect 4 0 8 0;
#X connect 5 0 8 0;
#X connect 6 0 8 0;
#X connect 7 0 8 0;
#X connect 9 0 12 0;
#X connect 9 1 8 0;
#X connect 9 2 0 0;
#X connect 9 3 10 0;
#X restore 520 20 pd fixed-pitch;
#X obj 364 119 spigot;
#X obj 493 125 spigot;
#X obj 489 89 == 0;
#X obj 493 193 mtof;
#X obj 519 348 s \$1-fm1rhz2;
#X obj 258 168 spigot;
#X obj 14 401 pack f 300;
#X obj 28 311 t f b;
#X obj 59 376 *;
#X obj 138 342 > 0;
#X obj 134 315 r \$1-fm1sron;
#X obj 62 340 f 300;
#X obj 107 291 r \$1-fm1xrgt;
#X obj 103 445 line~;
#X obj 318 232 *;
#N canvas 86 439 315 251 lfo-mode 0;
#X obj 165 41 r \$1-fm1slfo;
#X obj 138 162 -;
#X obj 165 70 select 1;
#X obj 61 101 inlet;
#X obj 138 193 outlet;
#X obj 35 196 s \$1-fm1rfix;
#X obj 144 97 t b b;
#X msg 35 165 1;
#X obj 225 106 t b f;
#X obj 225 165 s \$1-fm1rr;
#X msg 151 127 80;
#X connect 0 0 2 0;
#X connect 1 0 4 0;
#X connect 2 0 6 0;
#X connect 2 1 8 0;
#X connect 3 0 1 0;
#X connect 6 0 7 0;
#X connect 6 1 10 0;
#X connect 7 0 5 0;
#X connect 8 0 9 0;
#X connect 8 1 1 1;
#X connect 10 0 1 1;
#X restore 493 161 pd lfo-mode;
#X obj 257 142 f;
#X connect 0 0 27 0;
#X connect 0 0 34 0;
#X connect 0 0 36 0;
#X connect 0 0 45 1;
#X connect 1 0 3 1;
#X connect 2 0 8 0;
#X connect 3 0 4 1;
#X connect 4 0 2 0;
#X connect 5 0 6 0;
#X connect 6 0 3 0;
#X connect 7 0 5 0;
#X connect 9 0 43 0;
#X connect 9 1 43 1;
#X connect 10 0 29 0;
#X connect 10 0 30 0;
#X connect 11 0 0 0;
#X connect 12 0 15 0;
#X connect 13 0 1 0;
#X connect 13 0 6 1;
#X connect 14 0 13 0;
#X connect 15 0 7 0;
#X connect 15 1 23 0;
#X connect 16 0 7 1;
#X connect 17 0 18 0;
#X connect 18 0 16 1;
#X connect 19 0 14 0;
#X connect 19 1 24 0;
#X connect 20 0 14 1;
#X connect 21 0 20 1;
#X connect 22 0 21 0;
#X connect 23 0 16 0;
#X connect 24 0 20 0;
#X connect 25 0 23 1;
#X connect 26 0 24 1;
#X connect 28 0 31 0;
#X connect 28 0 30 1;
#X connect 28 1 45 0;
#X connect 29 0 9 0;
#X connect 30 0 44 0;
#X connect 31 0 29 1;
#X connect 31 0 34 1;
#X connect 32 0 19 0;
#X connect 32 0 33 0;
#X connect 34 0 43 0;
#X connect 35 0 42 0;
#X connect 36 0 35 0;
#X connect 36 1 40 0;
#X connect 37 0 35 1;
#X connect 38 0 37 1;
#X connect 39 0 38 0;
#X connect 40 0 37 0;
#X connect 41 0 40 1;
#X connect 42 0 4 0;
#X connect 43 0 19 0;
#X connect 43 0 33 0;
#X connect 44 0 32 0;
#X connect 45 0 34 0;
#X restore 34 362 pd fmm;
#X obj 35 300 r \$1-fm1sp;
#X obj 123 300 r \$1-fm1si;
#X obj 213 301 r \$1-fm1sr;
#X obj 143 501 outlet~;
#X obj 147 465 *~;
#X obj 236 393 pack f 50;
#X obj 236 415 line~;
#X obj 229 367 r \$1-fm1slev;
#X obj 787 274 s \$1-fm1rlev;
#X obj 551 359 s \$1-fm1rr;
#X obj 457 272 s \$1-fm1ri;
#X obj 369 272 s \$1-fm1rp;
#X obj 540 220 inlet ratio;
#X obj 346 217 inlet pitch;
#X obj 446 216 inlet index;
#X obj 790 220 inlet level;
#X obj 449 244 / 2;
#X obj 617 319 / 4;
#X obj 790 247 / 127;
#N canvas 445 4 771 687 printallreceives 0;
#X obj 35 63 f \$1;
#X obj 33 6 bng 15 250 50 0 empty empty empty 17 7 0 10 -262144 -1
-1;
#X obj 76 169 t f f f f f f f f f;
#X obj 36 87 t f f;
#X obj 166 21 r \$1-fm1printreceives;
#X obj 92 136 print start;
#X obj 69 623 print end;
#X msg 91 109 names of receives in [simple-fm \$1]...................>>
;
#X msg 68 597 <<.........................................[simple-fm
\$1];
#X msg 289 275 \$1-fm1rlev;
#X obj 288 301 print level[0-1];
#X obj 532 227 print pitch[0-127];
#X obj 10 21 r printreceives;
#X msg 537 199 \$1-fm1rp;
#X msg 454 216 \$1-fm1ri;
#X obj 461 251 print index[0-64];
#X obj 380 278 print ratio[0-32];
#X msg 379 255 \$1-fm1rr;
#X msg 162 221 \$1-fm1rion;
#X obj 161 247 print glide_on(index)[0-1];
#X msg 62 251 \$1-fm1rron;
#X obj 70 415 t f f f f f f f f f;
#X msg 203 507 \$1-fm1xigt;
#X obj 202 534 print (hidden)glide_time(index)[0-xxx];
#X msg 103 537 \$1-fm1xrgt;
#X obj 102 564 print (hidden)glide_time(pitch)[0-xxx];
#X obj 232 354 print fixed_pitch[0-1];
#X obj 132 384 print low_pitch_(LFO)[0-1];
#X msg 132 357 \$1-fm1rlfo;
#X msg 233 327 \$1-fm1rfix;
#X obj 61 277 print glide_on(pitch)[0-1];
#X connect 0 0 3 0;
#X connect 1 0 0 0;
#X connect 2 0 21 0;
#X connect 2 1 28 0;
#X connect 2 2 29 0;
#X connect 2 3 20 0;
#X connect 2 4 18 0;
#X connect 2 5 9 0;
#X connect 2 6 17 0;
#X connect 2 7 14 0;
#X connect 2 8 13 0;
#X connect 3 0 2 0;
#X connect 3 1 7 0;
#X connect 4 0 0 0;
#X connect 7 0 5 0;
#X connect 8 0 6 0;
#X connect 9 0 10 0;
#X connect 12 0 0 0;
#X connect 13 0 11 0;
#X connect 14 0 15 0;
#X connect 17 0 16 0;
#X connect 18 0 19 0;
#X connect 20 0 30 0;
#X connect 21 0 8 0;
#X connect 21 7 24 0;
#X connect 21 8 22 0;
#X connect 22 0 23 0;
#X connect 24 0 25 0;
#X connect 28 0 27 0;
#X connect 29 0 26 0;
#X restore 387 103 pd printallreceives;
#N canvas 367 381 324 199 \$1-simple-fmextra 0;
#X obj 0 0 cnv 15 360 196 empty empty empty 70 12 0 10 -260818 -123526
0;
#X obj 8 137 bng 15 250 50 0 printreceives empty print_all_receives
17 7 0 10 -262144 -1 -1;
#X obj 7 78 bng 15 250 50 0 \$1-fm1printreceives empty print_names_of_receives
17 7 0 10 -262144 -1 -1;
#X text 66 156 (of all objects in open files);
#X text 65 97 (of this 'simple-fm' object);
#X obj 43 31 nbx 4 14 -1e+037 1e+037 0 0 \$1-fm1srn1 rrriokoer empty
0 -8 0 12 -262144 -1 -1 3 256;
#X obj 113 31 nbx 4 14 -1e+037 1e+037 0 0 \$1-fm1srn2 rrriokoer empty
0 -8 0 12 -262144 -1 -1 4 256;
#X obj 189 30 bng 15 250 50 0 \$1-fm1srgo empty go 17 7 0 12 -262144
-1 -1;
#X text 97 27 :;
#X text 83 5 RATIO;
#X restore 387 132 pd \$1-simple-fmextra;
#X obj 595 74 f \$1;
#X obj 595 125 symbol;
#X msg 595 150 \; \$1 vis 1;
#X obj 593 51 r \$1-fm1sextraoptions;
#X msg 596 99 pd-\$1-simple-fmextra;
#N canvas 335 33 859 875 foutmelding 0;
#X obj 87 38 loadbang;
#X obj 79 83 f \$1;
#X obj 73 111 select 0;
#X msg 75 197 \; \$1 vis 1;
#X msg 74 142 36;
#X text 151 150 ascii-code voor $;
#X text 197 199 als er geen argument is \, noemt de subpatch vreemd
genoeg niet pd 0-warning maar wel pd \$1-warning;
#X text 129 80 als er geen argument is geeft f \$1 een 0;
#X obj 154 336 del 100;
#X msg 319 355 1;
#X obj 238 405 spigot;
#X obj 342 453 spigot;
#X obj 409 425 == 0;
#X obj 338 423 r simple-fm;
#X obj 240 489 s simple-fm;
#X obj 208 305 t b b b;
#X obj 314 389 t f f;
#X obj 241 429 del 150;
#X obj 239 460 f \$1;
#X msg 169 357 0;
#X obj 378 506 == \$1;
#X obj 455 604 > 1;
#X obj 341 478 t f f;
#X obj 391 568 f 0;
#X obj 390 538 select 1;
#X obj 330 541 spigot;
#X obj 459 569 + 1;
#X obj 336 602 == \$1;
#X obj 396 628 &&;
#X obj 158 628 print pop;
#X text 487 604 groter dan 1 want vergelijking et zichzelf levert sowieso
al 1 op en dan met ev. zelfde object met identiek argument levert 2
op!;
#X obj 396 656 select 1;
#X obj 396 678 f \$1;
#X obj 398 768 symbol;
#X msg 396 795 \; \$1 vis 1;
#X obj 363 706 t f f;
#X obj 92 820 symbol;
#X obj 170 872 print;
#X obj 326 662 bng 15 250 50 0 empty empty empty 17 7 0 10 -262144
-1 -1;
#X msg 173 839 !!! these two abunch objects have the same argument
number: [simple-fm \$1];
#X text 406 346 alleen net gecreerde object verstuurt waarde;
#X text 398 372 bij eerder gemaakte objecten staat spigot voor receive
open;
#N canvas 670 470 308 138 \$1-simple-fmwarning 0;
#X obj -1 0 cnv 15 320 150 empty empty empty 20 12 0 14 -258699 -66577
0;
#X text 11 32 You forgot to add an unique number;
#X text 11 78 when you created this abunch object;
#X restore 349 165 pd \$1-simple-fmwarning;
#N canvas 856 445 327 127 \$1-simple-fmsameargument 0;
#X obj -1 0 cnv 15 330 150 empty empty empty 20 12 0 14 -258699 -66577
0;
#X msg 393 108;
#X text 314 243 is used already!!;
#X obj 344 35 inlet;
#X symbolatom 351 77 10 0 0 0 - - -;
#X obj 98 40 cnv 15 60 20 empty empty empty 20 12 0 14 -233017 -66577
0;
#X text 24 40 Create an unique number for this;
#X text 102 69 abunch object.;
#X connect 3 0 1 0;
#X connect 3 0 4 0;
#X restore 541 770 pd \$1-simple-fmsameargument;
#X msg 397 738 pd-\$1-simple-fmsameargument;
#X obj 74 171 makefilename pd-%c1-simple-fmwarning;
#X connect 0 0 1 0;
#X connect 0 0 15 0;
#X connect 1 0 2 0;
#X connect 2 0 4 0;
#X connect 4 0 45 0;
#X connect 8 0 19 0;
#X connect 9 0 16 0;
#X connect 10 0 17 0;
#X connect 11 0 22 0;
#X connect 12 0 11 1;
#X connect 13 0 11 0;
#X connect 15 0 8 0;
#X connect 15 1 10 0;
#X connect 15 2 9 0;
#X connect 16 0 10 1;
#X connect 16 1 12 0;
#X connect 17 0 18 0;
#X connect 18 0 14 0;
#X connect 19 0 16 0;
#X connect 20 0 24 0;
#X connect 20 0 25 1;
#X connect 21 0 28 1;
#X connect 22 0 25 0;
#X connect 22 1 20 0;
#X connect 23 0 26 0;
#X connect 24 0 23 0;
#X connect 25 0 27 0;
#X connect 26 0 23 1;
#X connect 26 0 21 0;
#X connect 27 0 28 0;
#X connect 28 0 31 0;
#X connect 31 0 32 0;
#X connect 32 0 35 0;
#X connect 33 0 34 0;
#X connect 35 0 44 0;
#X connect 35 1 39 0;
#X connect 38 0 32 0;
#X connect 39 0 37 0;
#X connect 44 0 33 0;
#X connect 45 0 3 0;
#X restore 398 24 pd foutmelding;
#N canvas 260 227 528 637 bereken 0;
#X obj 26 40 r \$1-fm1sp;
#X obj 415 38 r \$1-fm1si;
#X obj 200 33 r \$1-fm1sr;
#X text 20 13 pitch carrier (midi);
#X text 429 17 index;
#X text 201 14 Carrier:Modulator ratio;
#X obj 49 100 mtof;
#X obj 163 130 t b f;
#X obj 59 248 +;
#X obj 43 126 t f f;
#X obj 118 247 -;
#X obj 271 216 * 2;
#X obj 207 376 * 3;
#X obj 202 509 * 4;
#X text 360 275 index 1;
#X text 370 388 index 2;
#X text 368 516 index 3;
#X obj 56 282 ftom;
#X obj 99 287 ftom;
#X floatatom 53 315 5 0 0 0 - - -;
#X floatatom 99 312 5 0 0 0 - - -;
#X obj 208 246 +;
#X obj 285 246 -;
#X obj 208 268 ftom;
#X obj 287 311 ftom;
#X floatatom 208 294 5 0 0 0 - - -;
#X floatatom 284 338 5 0 0 0 - - -;
#X obj 209 411 +;
#X obj 286 411 -;
#X obj 209 433 ftom;
#X obj 285 435 ftom;
#X floatatom 209 459 5 0 0 0 - - -;
#X floatatom 282 462 5 0 0 0 - - -;
#X obj 204 546 +;
#X obj 281 546 -;
#X obj 204 568 ftom;
#X obj 280 570 ftom;
#X floatatom 204 594 5 0 0 0 - - -;
#X floatatom 277 597 5 0 0 0 - - -;
#X floatatom 406 160 5 0 0 0 - - -;
#X floatatom 238 175 5 0 0 0 - - -;
#X floatatom 13 185 5 0 0 0 - - -;
#X obj 172 168 /;
#X floatatom 302 284 5 0 0 0 - - -;
#X obj 38 511 sqrt;
#X floatatom 35 468 5 0 0 0 - - -;
#X floatatom 34 545 5 0 0 0 - - -;
#X obj 75 69 spigot;
#X obj 192 100 spigot;
#X obj 407 104 spigot;
#X obj 258 69 tgl 15 0 empty empty empty 17 7 0 10 -262144 -1 -1 0
1;
#X text 276 65 ON/OFF berekening;
#X obj 259 -98 loadbang;
#X msg 256 -67 0;
#X connect 0 0 47 0;
#X connect 1 0 49 0;
#X connect 2 0 48 0;
#X connect 6 0 9 0;
#X connect 6 0 41 0;
#X connect 7 0 42 0;
#X connect 7 1 42 1;
#X connect 8 0 17 0;
#X connect 9 0 8 0;
#X connect 9 0 21 0;
#X connect 9 0 22 0;
#X connect 9 0 27 0;
#X connect 9 0 28 0;
#X connect 9 0 33 0;
#X connect 9 0 34 0;
#X connect 9 0 10 0;
#X connect 9 1 42 0;
#X connect 10 0 18 0;
#X connect 11 0 22 1;
#X connect 11 0 21 1;
#X connect 12 0 27 1;
#X connect 12 0 28 1;
#X connect 13 0 34 1;
#X connect 13 0 33 1;
#X connect 17 0 19 0;
#X connect 18 0 20 0;
#X connect 21 0 23 0;
#X connect 22 0 24 0;
#X connect 22 0 43 0;
#X connect 23 0 25 0;
#X connect 24 0 26 0;
#X connect 27 0 29 0;
#X connect 28 0 30 0;
#X connect 29 0 31 0;
#X connect 30 0 32 0;
#X connect 33 0 35 0;
#X connect 34 0 36 0;
#X connect 35 0 37 0;
#X connect 36 0 38 0;
#X connect 42 0 8 1;
#X connect 42 0 10 1;
#X connect 42 0 11 0;
#X connect 42 0 12 0;
#X connect 42 0 13 0;
#X connect 42 0 40 0;
#X connect 44 0 46 0;
#X connect 45 0 44 0;
#X connect 47 0 6 0;
#X connect 48 0 7 0;
#X connect 49 0 39 0;
#X connect 50 0 48 1;
#X connect 50 0 47 1;
#X connect 50 0 49 1;
#X connect 52 0 53 0;
#X connect 53 0 50 0;
#X restore 386 76 pd bereken;
#N canvas 744 585 566 199 needsound 0;
#X obj 22 34 r soundfileyesno;
#X msg 18 67 0;
#X obj 22 138 s answersoundfile;
#X text 63 65 0 = this abunch object doesn't need a sound file (store
in a preset file) \, 1 = it does;
#X connect 0 0 1 0;
#X connect 1 0 2 0;
#X restore 389 156 pd needsound;
#N canvas 209 412 705 237 presets 0;
#X obj 35 50 r \$1-fm1sp;
#X obj 123 50 r \$1-fm1si;
#X obj 213 51 r \$1-fm1sr;
#N canvas 134 181 1155 642 save_preset_array 0;
#X obj 19 403 inlet gui1;
#X obj 112 405 inlet gui2;
#X obj 197 403 inlet gui3;
#X obj 290 405 inlet gui4;
#X obj 376 406 inlet gui15;
#X obj 469 408 inlet gui6;
#X obj 554 406 inlet gui7;
#X obj 647 408 inlet gui8;
#X obj 732 408 inlet gui9;
#X obj 825 410 inlet gui10;
#X obj 743 446 f;
#X obj 824 448 f;
#X obj 566 443 f;
#X obj 647 445 f;
#X obj 380 439 f;
#X obj 461 441 f;
#X obj 204 438 f;
#X obj 285 440 f;
#X obj 25 443 f;
#X obj 106 445 f;
#X obj 83 109 until;
#X obj 62 173 + 1;
#X obj 89 142 f 0;
#X obj 79 42 bng 15 250 50 0 empty empty empty 17 7 0 10 -262144 -1
-1;
#X obj 571 505 r openpreset;
#X obj 162 18 r savepreset;
#X obj 21 825 outlet gui1;
#X obj 112 827 outlet gui2;
#X obj 201 827 outlet gui3;
#X obj 293 827 outlet gui4;
#X obj 475 827 outlet gui6;
#X obj 384 827 outlet gui5;
#X obj 567 827 outlet gui7;
#X obj 658 827 outlet gui8;
#X obj 748 827 outlet gui9;
#X obj 840 826 outlet gui10;
#X obj 495 598 until;
#X obj 472 657 + 1;
#X obj 499 626 f 0;
#N canvas 45 153 1064 314 router_1inxout 0;
#X obj 231 27 inlet one;
#X obj 339 23 inlet route123;
#X obj 35 211 outlet one;
#X obj 124 210 outlet two;
#X obj 218 211 outlet three;
#X obj 323 211 outlet four;
#X obj 415 210 outlet five;
#X obj 510 211 outlet six;
#X obj 599 210 outlet seven;
#X obj 700 213 outlet eigth;
#X obj 805 212 outlet nine;
#X obj 897 211 outlet ten;
#X obj 361 83 pack;
#X obj 296 57 mod 12;
#X obj 919 239 outlet nine;
#X obj 1011 238 outlet ten;
#X obj 696 86 route 1 2 3 4 5 6 7 8 9 10 11;
#X obj 58 77 route 1 2;
#X obj 961 138 unpack;
#X connect 0 0 13 0;
#X connect 1 0 12 1;
#X connect 12 0 16 0;
#X connect 13 0 12 0;
#X connect 16 0 2 0;
#X connect 16 1 3 0;
#X connect 16 2 4 0;
#X connect 16 3 5 0;
#X connect 16 4 6 0;
#X connect 16 5 7 0;
#X connect 16 6 8 0;
#X connect 16 7 9 0;
#X connect 16 8 10 0;
#X connect 16 9 11 0;
#X connect 16 10 14 0;
#X connect 16 11 18 0;
#X connect 18 1 15 0;
#X restore 340 771 pd router_1inxout;
#X obj 211 106 f 0;
#X obj 335 24 r presetnr;
#X obj 336 49 * 12;
#X obj 334 72 - 12;
#X obj 587 587 f 0;
#X obj 495 685 t f f;
#X obj 85 201 t f f;
#X obj 736 509 bng 15 250 50 0 empty empty empty 17 7 0 10 -262144
-1 -1;
#N canvas 0 0 450 300 (subpatch) 0;
#X array \$1-fm1preset 240 float 2;
#X coords 0 200 239 -1 200 140 1;
#X restore 591 131 graph;
#X obj 66 240 mod 12;
#X text 386 60 -> !!! per 12;
#X text 130 240 -> !!! per 12;
#X text 511 773 -> !!! hierin ook per 12;
#X msg 133 82 12;
#X text 174 83 -> !!! per 12;
#X text 579 54 max 12 parameters/waarden voor array/presets;
#X obj 302 204 symbol;
#X obj 403 183 symbol;
#X obj 345 245 pack s s;
#X obj 402 153 r namepreset;
#X obj 294 155 f \$1;
#X obj 167 43 t b b b;
#X obj 570 546 t b b b;
#X text 130 312 -> !!! per 12;
#X obj 716 628 symbol;
#X obj 756 655 pack s s;
#X obj 827 582 r namepreset;
#X obj 662 578 f \$1;
#X obj 152 163 print bng;
#X obj 819 618 symbol;
#X msg 319 272 \; \$1 write presets/\$2-\$1.txt;
#X msg 750 686 \; \$1 read presets/\$2-\$1.txt;
#X msg 294 182 \$1-fm1preset;
#X obj 225 534 tabwrite \$1-fm1preset;
#X msg 675 604 \$1-fm1preset;
#X obj 449 736 tabread \$1-fm1preset;
#X msg 528 575 12;
#X obj 931 444 f;
#X obj 1012 446 f;
#X obj 920 406 inlet gui11;
#X obj 1013 408 inlet gui12;
#X obj 940 828 outlet gui9;
#X obj 1032 827 outlet gui10;
#X obj 56 331 select 1 2 3 4 5 6 7 8 9 10 11;
#X obj 979 379 bang;
#X connect 0 0 18 1;
#X connect 1 0 19 1;
#X connect 2 0 16 1;
#X connect 3 0 17 1;
#X connect 4 0 14 1;
#X connect 5 0 15 1;
#X connect 6 0 12 1;
#X connect 7 0 13 1;
#X connect 8 0 10 1;
#X connect 9 0 11 1;
#X connect 10 0 73 0;
#X connect 11 0 73 0;
#X connect 12 0 73 0;
#X connect 13 0 73 0;
#X connect 14 0 73 0;
#X connect 15 0 73 0;
#X connect 16 0 73 0;
#X connect 17 0 73 0;
#X connect 18 0 73 0;
#X connect 19 0 73 0;
#X connect 20 0 22 0;
#X connect 21 0 22 1;
#X connect 21 0 46 0;
#X connect 22 0 21 0;
#X connect 23 0 20 0;
#X connect 24 0 62 0;
#X connect 25 0 61 0;
#X connect 36 0 38 0;
#X connect 37 0 38 1;
#X connect 37 0 45 0;
#X connect 38 0 37 0;
#X connect 39 0 26 0;
#X connect 39 1 27 0;
#X connect 39 2 28 0;
#X connect 39 3 29 0;
#X connect 39 4 31 0;
#X connect 39 5 30 0;
#X connect 39 6 32 0;
#X connect 39 7 33 0;
#X connect 39 8 34 0;
#X connect 39 9 35 0;
#X connect 39 10 81 0;
#X connect 39 11 82 0;
#X connect 40 0 22 1;
#X connect 41 0 42 0;
#X connect 42 0 43 0;
#X connect 43 0 40 1;
#X connect 43 0 44 1;
#X connect 44 0 38 1;
#X connect 45 0 39 0;
#X connect 45 1 75 0;
#X connect 46 0 49 0;
#X connect 46 1 73 1;
#X connect 47 0 62 0;
#X connect 49 0 83 0;
#X connect 53 0 20 0;
#X connect 56 0 58 0;
#X connect 57 0 58 1;
#X connect 58 0 70 0;
#X connect 59 0 57 0;
#X connect 60 0 72 0;
#X connect 61 0 60 0;
#X connect 61 0 68 0;
#X connect 61 1 53 0;
#X connect 61 2 40 0;
#X connect 62 0 76 0;
#X connect 62 1 44 0;
#X connect 62 2 67 0;
#X connect 64 0 65 0;
#X connect 65 0 71 0;
#X connect 66 0 69 0;
#X connect 67 0 74 0;
#X connect 69 0 65 1;
#X connect 72 0 56 0;
#X connect 74 0 64 0;
#X connect 75 0 39 1;
#X connect 76 0 36 0;
#X connect 77 0 73 0;
#X connect 78 0 73 0;
#X connect 79 0 77 1;
#X connect 80 0 78 1;
#X connect 83 0 18 0;
#X connect 83 1 19 0;
#X connect 83 2 16 0;
#X connect 83 3 17 0;
#X connect 83 4 14 0;
#X connect 83 5 15 0;
#X connect 83 6 12 0;
#X connect 83 7 13 0;
#X connect 83 8 10 0;
#X connect 83 9 11 0;
#X connect 83 10 77 0;
#X connect 83 11 84 0;
#X connect 84 0 78 0;
#X restore 263 99 pd save_preset_array;
#X obj 302 49 r \$1-fm1slev;
#X obj 377 158 s \$1-fm1rlev;
#X obj 291 158 s \$1-fm1rr;
#X obj 201 157 s \$1-fm1ri;
#X obj 113 157 s \$1-fm1rp;
#X obj 417 54 r \$1-fm1sion;
#X obj 526 57 r \$1-fm1sron;
#X obj 579 160 s \$1-fm1rron;
#X obj 477 160 s \$1-fm1rion;
#X connect 0 0 3 0;
#X connect 1 0 3 1;
#X connect 2 0 3 2;
#X connect 3 0 8 0;
#X connect 3 1 7 0;
#X connect 3 2 6 0;
#X connect 3 3 5 0;
#X connect 3 4 12 0;
#X connect 3 5 11 0;
#X connect 4 0 3 3;
#X connect 9 0 3 4;
#X connect 10 0 3 5;
#X restore 394 48 pd presets;
#X obj -4 -5 cnv 15 300 300 empty empty empty 50 12 0 10 -258699 -143491
0;
#X obj 5 4 cnv 15 260 196 empty empty empty 70 12 0 10 -260818 -123526
0;
#X obj 27 31 vsl 15 128 0 127 0 0 \$1-fm1sp \$1-fm1rp pitch -7 -12
0 10 -262144 -1 -1 4700 1;
#X obj 89 30 vsl 15 129 0 64 0 0 \$1-fm1si \$1-fm1ri index -7 -12 0
10 -262144 -1 -1 200 1;
#X obj 152 31 vsl 15 129 0 32 0 0 \$1-fm1sr \$1-fm1rr ratio -7 -12
0 10 -262144 -1 -1 533 1;
#X obj 221 31 vsl 15 128 0 1 0 0 \$1-fm1slev \$1-fm1rlev level -7 -12
0 10 -262144 -1 -1 435 1;
#X text 51 559 GLIDE ON:;
#X obj 17 162 nbx 5 14 -1e+037 1e+037 0 0 bob obo empty 0 -8 0 10 -86277
-260097 -1 47 256;
#X obj 145 164 nbx 5 14 -1e+037 1e+037 0 0 bob obo empty 0 -8 0 10
-86277 -260097 -1 1.3325 256;
#X obj 76 163 nbx 5 14 -1e+037 1e+037 0 0 bob obo empty 0 -8 0 10 -86277
-260097 -1 1 256;
#N canvas 540 309 293 166 printname 0;
#X obj 54 37 r printallnames;
#X obj 54 107 symbol;
#X obj 54 132 s rallnames;
#X msg 54 72 simple-fm;
#X connect 0 0 3 0;
#X connect 1 0 2 0;
#X connect 3 0 1 0;
#X restore 481 77 pd printname;
#N canvas 55 87 588 284 presetsnew 0;
#X obj 210 58 r savepresetn;
#X obj 203 119 t b b b;
#N canvas 114 167 970 341 name-sends-normal 0;
#N canvas 0 0 450 300 (subpatch) 0;
#X array \$1-fm1between 12 float 2;
#X coords 0 10000 12 -10000 20 20 1;
#X restore 15 236 graph;
#X obj 395 286 tabwrite \$1-fm1between;
#X obj 438 235 unpack f f;
#X obj 98 156 pack f 1;
#X obj 135 178 pack f 2;
#X obj 186 200 pack f 3;
#X obj 236 155 pack f 4;
#X obj 273 177 pack f 5;
#X obj 324 199 pack f 6;
#X obj 368 156 pack f 7;
#X obj 405 178 pack f 8;
#X obj 449 199 pack f 9;
#X obj 508 156 pack f 10;
#X obj 545 178 pack f 11;
#X obj 596 199 pack f 12;
#X obj 665 156 pack f 13;
#X obj 702 178 pack f 14;
#X obj 754 201 pack f 15;
#X obj 798 156 pack f 16;
#X obj 835 179 pack f 17;
#X obj 884 203 pack f 18;
#X text 38 238 -> adjust size if necessary (standard size = 109);
#X obj 35 50 r \$1-fm1sp;
#X obj 87 78 r \$1-fm1si;
#X obj 134 106 r \$1-fm1sr;
#X obj 211 48 r \$1-fm1slev;
#X obj 231 72 r \$1-fm1sion;
#X obj 258 97 r \$1-fm1sron;
#X obj 362 55 r \$1-fm1sfix;
#X obj 382 84 r \$1-fm1slfo;
#X connect 2 0 1 0;
#X connect 2 1 1 1;
#X connect 3 0 2 0;
#X connect 4 0 2 0;
#X connect 5 0 2 0;
#X connect 6 0 2 0;
#X connect 7 0 2 0;
#X connect 8 0 2 0;
#X connect 9 0 2 0;
#X connect 10 0 2 0;
#X connect 11 0 2 0;
#X connect 12 0 2 0;
#X connect 13 0 2 0;
#X connect 14 0 2 0;
#X connect 15 0 2 0;
#X connect 16 0 2 0;
#X connect 17 0 2 0;
#X connect 18 0 2 0;
#X connect 19 0 2 0;
#X connect 20 0 2 0;
#X connect 22 0 3 0;
#X connect 23 0 4 0;
#X connect 24 0 5 0;
#X connect 25 0 6 0;
#X connect 26 0 7 0;
#X connect 27 0 8 0;
#X connect 28 0 9 0;
#X connect 29 0 10 0;
#X restore 75 27 pd name-sends-normal;
#X obj 223 196 s toextfile;
#N canvas 636 185 560 404 normal 0;
#X obj 278 134 f \$1;
#X obj 237 278 symbol;
#X obj 42 268 list prepend add2;
#X obj 42 293 list trim;
#X obj 188 51 t b b b b b;
#X obj 154 135 f 0;
#X obj 193 135 + 1;
#X msg 181 103 0;
#X msg 240 196 fm1rx\$1;
#X obj 237 222 pack s f;
#X msg 237 249 \$2-\$1;
#X obj 131 102 until;
#X obj 193 161 t f f;
#X obj 21 193 tabread \$1-fm1between;
#X text 151 77 -> aanpassen! aantal op te slagen floats;
#X obj 180 16 inlet;
#X obj 229 345 outlet;
#X msg 235 311 add2 () norm 0 0 \$1;
#X obj 111 76 f 8;
#X connect 0 0 9 1;
#X connect 1 0 17 0;
#X connect 2 0 3 0;
#X connect 3 0 16 0;
#X connect 4 3 18 0;
#X connect 4 4 0 0;
#X connect 4 4 7 0;
#X connect 5 0 6 0;
#X connect 6 0 5 1;
#X connect 6 0 12 0;
#X connect 7 0 5 1;
#X connect 8 0 9 0;
#X connect 9 0 10 0;
#X connect 10 0 1 0;
#X connect 11 0 5 0;
#X connect 12 0 13 0;
#X connect 12 1 8 0;
#X connect 13 0 2 0;
#X connect 15 0 4 0;
#X connect 17 0 16 0;
#X connect 18 0 11 0;
#X restore 217 153 pd normal;
#X text 179 152 !!->;
#X text 212 245 !!->;
#N canvas 95 90 1083 353 receive-normal 0;
#X obj 24 26 r \$1-fm1rx1;
#X obj 54 46 r \$1-fm1rx2;
#X obj 85 66 r \$1-fm1rx3;
#X obj 196 19 r \$1-fm1rx4;
#X obj 226 39 r \$1-fm1rx5;
#X obj 257 59 r \$1-fm1rx6;
#X obj 364 16 r \$1-fm1rx7;
#X obj 382 37 r \$1-fm1rx8;
#X obj 416 58 r \$1-fm1rx9;
#X obj 523 33 r \$1-fm1rx10;
#X obj 553 53 r \$1-fm1rx11;
#X obj 584 73 r \$1-fm1rx12;
#X obj 703 33 r \$1-fm1rx13;
#X obj 733 53 r \$1-fm1rx14;
#X obj 764 73 r \$1-fm1rx15;
#X obj 863 33 r \$1-fm1rx16;
#X obj 893 53 r \$1-fm1rx17;
#X obj 924 73 r \$1-fm1rx18;
#X text 684 235 ^ hier aanvullen ^;
#N canvas 30 18 246 218 cmp 0;
#X obj 42 65 list split 1;
#X obj 88 119 ==;
#X obj 43 151 spigot;
#X obj 43 176 outlet;
#X obj 42 28 inlet;
#X obj 110 30 r \$1-fm1arg2;
#X connect 0 0 2 0;
#X connect 0 1 1 0;
#X connect 1 0 2 1;
#X connect 2 0 3 0;
#X connect 4 0 0 0;
#X connect 5 0 1 1;
#X restore 22 100 pd cmp;
#N canvas 355 32 246 300 cmp 0;
#X obj 42 65 list split 1;
#X obj 88 119 ==;
#X obj 43 151 spigot;
#X obj 43 176 outlet;
#X obj 42 28 inlet;
#X obj 110 30 r \$1-fm1arg2;
#X connect 0 0 2 0;
#X connect 0 1 1 0;
#X connect 1 0 2 1;
#X connect 2 0 3 0;
#X connect 4 0 0 0;
#X connect 5 0 1 1;
#X restore 42 125 pd cmp;
#N canvas 0 0 246 300 cmp 0;
#X obj 42 65 list split 1;
#X obj 88 119 ==;
#X obj 43 151 spigot;
#X obj 43 176 outlet;
#X obj 42 28 inlet;
#X obj 110 30 r \$1-fm1arg2;
#X connect 0 0 2 0;
#X connect 0 1 1 0;
#X connect 1 0 2 1;
#X connect 2 0 3 0;
#X connect 4 0 0 0;
#X connect 5 0 1 1;
#X restore 59 153 pd cmp;
#N canvas 0 0 246 300 cmp 0;
#X obj 42 65 list split 1;
#X obj 88 119 ==;
#X obj 43 151 spigot;
#X obj 43 176 outlet;
#X obj 42 28 inlet;
#X obj 110 30 r \$1-fm1arg2;
#X connect 0 0 2 0;
#X connect 0 1 1 0;
#X connect 1 0 2 1;
#X connect 2 0 3 0;
#X connect 4 0 0 0;
#X connect 5 0 1 1;
#X restore 172 100 pd cmp;
#N canvas 0 0 246 300 cmp 0;
#X obj 42 65 list split 1;
#X obj 88 119 ==;
#X obj 43 151 spigot;
#X obj 43 176 outlet;
#X obj 42 28 inlet;
#X obj 110 30 r \$1-fm1arg2;
#X connect 0 0 2 0;
#X connect 0 1 1 0;
#X connect 1 0 2 1;
#X connect 2 0 3 0;
#X connect 4 0 0 0;
#X connect 5 0 1 1;
#X restore 192 125 pd cmp;
#N canvas 308 15 246 215 cmp 0;
#X obj 42 65 list split 1;
#X obj 88 119 ==;
#X obj 43 151 spigot;
#X obj 43 176 outlet;
#X obj 42 28 inlet;
#X obj 110 30 r \$1-fm1arg2;
#X connect 0 0 2 0;
#X connect 0 1 1 0;
#X connect 1 0 2 1;
#X connect 2 0 3 0;
#X connect 4 0 0 0;
#X connect 5 0 1 1;
#X restore 209 153 pd cmp;
#N canvas 0 0 246 300 cmp 0;
#X obj 42 65 list split 1;
#X obj 88 119 ==;
#X obj 43 151 spigot;
#X obj 43 176 outlet;
#X obj 42 28 inlet;
#X obj 110 30 r \$1-fm1arg2;
#X connect 0 0 2 0;
#X connect 0 1 1 0;
#X connect 1 0 2 1;
#X connect 2 0 3 0;
#X connect 4 0 0 0;
#X connect 5 0 1 1;
#X restore 362 100 pd cmp;
#N canvas 0 0 246 300 cmp 0;
#X obj 42 65 list split 1;
#X obj 88 119 ==;
#X obj 43 151 spigot;
#X obj 43 176 outlet;
#X obj 42 28 inlet;
#X obj 110 30 r \$1-fm1arg2;
#X connect 0 0 2 0;
#X connect 0 1 1 0;
#X connect 1 0 2 1;
#X connect 2 0 3 0;
#X connect 4 0 0 0;
#X connect 5 0 1 1;
#X restore 382 125 pd cmp;
#N canvas 0 0 246 300 cmp 0;
#X obj 42 65 list split 1;
#X obj 88 119 ==;
#X obj 43 151 spigot;
#X obj 43 176 outlet;
#X obj 42 28 inlet;
#X obj 110 30 r \$1-fm1arg2;
#X connect 0 0 2 0;
#X connect 0 1 1 0;
#X connect 1 0 2 1;
#X connect 2 0 3 0;
#X connect 4 0 0 0;
#X connect 5 0 1 1;
#X restore 399 153 pd cmp;
#N canvas 0 0 246 300 cmp 0;
#X obj 42 65 list split 1;
#X obj 88 119 ==;
#X obj 43 151 spigot;
#X obj 43 176 outlet;
#X obj 42 28 inlet;
#X obj 110 30 r \$1-fm1arg2;
#X connect 0 0 2 0;
#X connect 0 1 1 0;
#X connect 1 0 2 1;
#X connect 2 0 3 0;
#X connect 4 0 0 0;
#X connect 5 0 1 1;
#X restore 542 110 pd cmp;
#N canvas 0 0 246 300 cmp 0;
#X obj 42 65 list split 1;
#X obj 88 119 ==;
#X obj 43 151 spigot;
#X obj 43 176 outlet;
#X obj 42 28 inlet;
#X obj 110 30 r \$1-fm1arg2;
#X connect 0 0 2 0;
#X connect 0 1 1 0;
#X connect 1 0 2 1;
#X connect 2 0 3 0;
#X connect 4 0 0 0;
#X connect 5 0 1 1;
#X restore 562 135 pd cmp;
#N canvas 0 0 246 300 cmp 0;
#X obj 42 65 list split 1;
#X obj 88 119 ==;
#X obj 43 151 spigot;
#X obj 43 176 outlet;
#X obj 42 28 inlet;
#X obj 110 30 r \$1-fm1arg2;
#X connect 0 0 2 0;
#X connect 0 1 1 0;
#X connect 1 0 2 1;
#X connect 2 0 3 0;
#X connect 4 0 0 0;
#X connect 5 0 1 1;
#X restore 579 163 pd cmp;
#N canvas 0 0 246 300 cmp 0;
#X obj 42 65 list split 1;
#X obj 88 119 ==;
#X obj 43 151 spigot;
#X obj 43 176 outlet;
#X obj 42 28 inlet;
#X obj 110 30 r \$1-fm1arg2;
#X connect 0 0 2 0;
#X connect 0 1 1 0;
#X connect 1 0 2 1;
#X connect 2 0 3 0;
#X connect 4 0 0 0;
#X connect 5 0 1 1;
#X restore 692 110 pd cmp;
#N canvas 0 0 246 300 cmp 0;
#X obj 42 65 list split 1;
#X obj 88 119 ==;
#X obj 43 151 spigot;
#X obj 43 176 outlet;
#X obj 42 28 inlet;
#X obj 110 30 r \$1-fm1arg2;
#X connect 0 0 2 0;
#X connect 0 1 1 0;
#X connect 1 0 2 1;
#X connect 2 0 3 0;
#X connect 4 0 0 0;
#X connect 5 0 1 1;
#X restore 712 135 pd cmp;
#N canvas 0 0 246 300 cmp 0;
#X obj 42 65 list split 1;
#X obj 88 119 ==;
#X obj 43 151 spigot;
#X obj 43 176 outlet;
#X obj 42 28 inlet;
#X obj 110 30 r \$1-fm1arg2;
#X connect 0 0 2 0;
#X connect 0 1 1 0;
#X connect 1 0 2 1;
#X connect 2 0 3 0;
#X connect 4 0 0 0;
#X connect 5 0 1 1;
#X restore 729 163 pd cmp;
#N canvas 0 0 246 300 cmp 0;
#X obj 42 65 list split 1;
#X obj 88 119 ==;
#X obj 43 151 spigot;
#X obj 43 176 outlet;
#X obj 42 28 inlet;
#X obj 110 30 r \$1-fm1arg2;
#X connect 0 0 2 0;
#X connect 0 1 1 0;
#X connect 1 0 2 1;
#X connect 2 0 3 0;
#X connect 4 0 0 0;
#X connect 5 0 1 1;
#X restore 882 100 pd cmp;
#N canvas 0 0 246 300 cmp 0;
#X obj 42 65 list split 1;
#X obj 88 119 ==;
#X obj 43 151 spigot;
#X obj 43 176 outlet;
#X obj 42 28 inlet;
#X obj 110 30 r \$1-fm1arg2;
#X connect 0 0 2 0;
#X connect 0 1 1 0;
#X connect 1 0 2 1;
#X connect 2 0 3 0;
#X connect 4 0 0 0;
#X connect 5 0 1 1;
#X restore 902 125 pd cmp;
#N canvas 0 0 246 300 cmp 0;
#X obj 42 65 list split 1;
#X obj 88 119 ==;
#X obj 43 151 spigot;
#X obj 43 176 outlet;
#X obj 42 28 inlet;
#X obj 110 30 r \$1-fm1arg2;
#X connect 0 0 2 0;
#X connect 0 1 1 0;
#X connect 1 0 2 1;
#X connect 2 0 3 0;
#X connect 4 0 0 0;
#X connect 5 0 1 1;
#X restore 919 153 pd cmp;
#X obj 184 185 s \$1-fm1rlev;
#X obj 78 236 s \$1-fm1rr;
#X obj 53 208 s \$1-fm1ri;
#X obj 24 181 s \$1-fm1rp;
#X obj 243 237 s \$1-fm1rron;
#X obj 214 208 s \$1-fm1rion;
#X obj 362 215 s \$1-fm1rfix;
#X obj 382 244 s \$1-fm1rlfo;
#X connect 0 0 19 0;
#X connect 1 0 20 0;
#X connect 2 0 21 0;
#X connect 3 0 22 0;
#X connect 4 0 23 0;
#X connect 5 0 24 0;
#X connect 6 0 25 0;
#X connect 7 0 26 0;
#X connect 8 0 27 0;
#X connect 9 0 28 0;
#X connect 10 0 29 0;
#X connect 11 0 30 0;
#X connect 12 0 31 0;
#X connect 13 0 32 0;
#X connect 14 0 33 0;
#X connect 15 0 34 0;
#X connect 16 0 35 0;
#X connect 17 0 36 0;
#X connect 19 0 40 0;
#X connect 20 0 39 0;
#X connect 21 0 38 0;
#X connect 22 0 37 0;
#X connect 23 0 42 0;
#X connect 24 0 41 0;
#X connect 25 0 43 0;
#X connect 26 0 44 0;
#X restore 251 246 pd receive-normal;
#X text 32 27 !!->;
#N canvas 0 0 246 300 cmp 0;
#X obj 42 65 list split 1;
#X obj 88 119 ==;
#X obj 43 151 spigot;
#X obj 43 176 outlet;
#X obj 42 28 inlet;
#X obj 157 64 inlet;
#X connect 0 0 2 0;
#X connect 0 1 1 0;
#X connect 1 0 2 1;
#X connect 2 0 3 0;
#X connect 4 0 0 0;
#X connect 5 0 1 1;
#X restore 209 94 pd cmp;
#X obj 458 12 loadbang;
#X obj 458 37 f \$2;
#X obj 458 85 s \$1-fm1arg2;
#X connect 0 0 9 0;
#X connect 1 1 4 0;
#X connect 4 0 3 0;
#X connect 9 0 1 0;
#X connect 10 0 11 0;
#X connect 11 0 9 1;
#X connect 11 0 12 0;
#X restore 481 49 pd presetsnew;
#X obj 17 178 nbx 5 14 -1e+037 1e+037 0 0 bob \$1-fm1rhz Hz 60 8 0
10 -86277 -260097 -1 123.471 256;
#X obj 145 180 nbx 5 14 -1e+037 1e+037 0 0 bob \$1-fm1rhz2 Hz 60 8
0 10 -86277 -260097 -1 164.525 256;
#X text 52 582 FIXED PITCH:;
#X text 52 608 LOW PITCH LFO:;
#X obj 5 206 cnv 15 260 25 empty empty GLIDE: 10 12 0 12 -260818 -123526
0;
#N canvas 617 154 450 249 ratio 0;
#X obj 137 102 r \$1-fm1srn2;
#X obj 244 101 r \$1-fm1srn1;
#X obj 81 173 /;
#X obj 67 145 f;
#X obj 54 4 r \$1-fm1srgo;
#X obj 81 198 s \$1-fm1rr;
#X obj 54 29 t b b;
#X msg 91 54 0;
#X obj 91 79 s \$1-fm1rfix;
#X obj 200 78 s \$1-fm1rlfo;
#X connect 0 0 3 1;
#X connect 1 0 2 1;
#X connect 2 0 5 0;
#X connect 3 0 2 0;
#X connect 4 0 6 0;
#X connect 6 0 3 0;
#X connect 6 1 7 0;
#X connect 7 0 8 0;
#X connect 7 0 9 0;
#X restore 383 375 pd ratio;
#N canvas 0 0 524 214 init 0;
#X obj 184 115 s \$1-fm1rlev;
#X obj 78 166 s \$1-fm1rr;
#X obj 53 138 s \$1-fm1ri;
#X obj 24 111 s \$1-fm1rp;
#X obj 243 167 s \$1-fm1rron;
#X obj 214 138 s \$1-fm1rion;
#X obj 362 145 s \$1-fm1rfix;
#X obj 382 174 s \$1-fm1rlfo;
#X obj 180 26 loadbang;
#X msg 180 51 60;
#X msg 220 54 3;
#X msg 272 52 0;
#X msg 313 53 0.05;
#X connect 8 0 9 0;
#X connect 8 0 10 0;
#X connect 8 0 11 0;
#X connect 8 0 12 0;
#X connect 9 0 3 0;
#X connect 10 0 2 0;
#X connect 10 0 1 0;
#X connect 11 0 6 0;
#X connect 11 0 7 0;
#X connect 11 0 5 0;
#X connect 11 0 4 0;
#X connect 12 0 0 0;
#X restore 461 377 pd init;
#X obj 5 236 cnv 15 180 25 empty empty FIXED_PITCH: 10 12 0 12 -260818
-123526 0;
#X obj 5 266 cnv 15 180 25 empty empty LOW_PITCH_(LFO) 10 12 0 12 -260818
-123526 0;
#X obj 90 210 tgl 15 0 \$1-fm1sion \$1-fm1rion index 17 7 0 10 -262144
-1 -1 1 1;
#X obj 155 211 tgl 15 0 \$1-fm1sron \$1-fm1rron pitch 17 7 0 10 -262144
-1 -1 0 1;
#X obj 191 259 bng 10 250 50 0 \$1-fm1sextraoptions empty extra_options
17 4 0 10 -262144 -1 -1;
#X obj 155 240 tgl 15 0 \$1-fm1sfix \$1-fm1rfix empty 17 7 0 10 -262144
-1 -1 0 1;
#X obj 154 269 tgl 15 0 \$1-fm1slfo \$1-fm1rlfo empty 17 7 0 10 -262144
-1 -1 0 1;
#N canvas 309 130 250 273 rescale 0;
#X obj 92 112 nbx 5 14 -1e+037 1e+037 0 0 empty empty empty 0 -8 0
10 -262144 -1 -1 0 256;
#X text 40 109 min;
#X text 41 136 max;
#X obj 92 139 nbx 5 14 -1e+037 1e+037 0 0 empty empty empty 0 -8 0
10 -262144 -1 -1 0 256;
#X text 5 60 input min;
#X text 7 82 input max;
#X obj 90 62 nbx 5 14 -1e+037 1e+037 0 0 empty empty empty 0 -8 0 10
-262144 -1 -1 0 256;
#X obj 91 85 nbx 5 14 -1e+037 1e+037 0 0 empty empty empty 0 -8 0 10
-262144 -1 -1 0 256;
#X text 19 216 wat buiten input min en max valt wordt geclipt naar
output min en max;
#X obj 118 14 vradio 15 1 0 2 empty empty empty 0 -8 0 10 -262144 -1
-1 0;
#X text 13 6 from pitch;
#X text 13 27 from velo;
#X obj 115 170 vradio 15 1 0 2 empty empty empty 0 -8 0 10 -262144
-1 -1 0;
#X text 16 164 to index;
#X text 16 185 to ratio;
#X restore 528 379 pd rescale;
#X obj 551 280 spigot;
#X obj 617 280 spigot;
#X obj 668 223 r \$1-fm1sfix;
#X obj 668 248 == 0;
#X connect 0 0 5 0;
#X connect 1 0 0 0;
#X connect 2 0 0 1;
#X connect 3 0 0 2;
#X connect 5 0 4 0;
#X connect 6 0 7 0;
#X connect 7 0 5 1;
#X connect 8 0 6 0;
#X connect 13 0 58 0;
#X connect 13 0 59 0;
#X connect 14 0 12 0;
#X connect 15 0 17 0;
#X connect 16 0 19 0;
#X connect 17 0 11 0;
#X connect 18 0 10 0;
#X connect 19 0 9 0;
#X connect 22 0 26 0;
#X connect 23 0 24 0;
#X connect 25 0 22 0;
#X connect 26 0 23 0;
#X connect 33 0 38 0;
#X connect 34 0 40 0;
#X connect 35 0 39 0;
#X connect 58 0 10 0;
#X connect 59 0 18 0;
#X connect 60 0 61 0;
#X connect 60 0 58 1;
#X connect 61 0 59 1;
