#N canvas 375 515 265 247 12;
#X obj 28 262 inlet~;
#X obj 60 39 vsl 15 128 0 511 0 0 \$1-slisatt \$1-sliratt attack 0
-9 0 10 -262144 -1 -1 0 1;
#X obj 82 126 tgl 15 0 \$1-slisattmul \$1-slirattmul *2 17 7 0 10 -262144
-1 -1 0 1;
#X obj 82 105 tgl 15 0 \$1-slisattdiv \$1-slirattdiv /2 17 7 0 10 -262144
-1 -1 0 1;
#X obj 59 181 nbx 5 14 -1e+037 1e+037 0 0 \$1-slisattshow \$1-slirattshow
empty 0 -8 0 10 -262144 -1 -1 0 256;
#X obj 126 39 vsl 15 128 0 511 0 0 \$1-slisdec \$1-slirdec decay 0
-9 0 10 -262144 -1 -1 0 1;
#X obj 148 124 tgl 15 0 \$1-slisdecmul \$1-slirdecmul *2 17 7 0 10
-262144 -1 -1 0 1;
#X obj 149 103 tgl 15 0 \$1-slisdecdiv \$1-slirdecdiv /2 17 7 0 10
-262144 -1 -1 0 1;
#X obj 125 181 nbx 5 14 -1e+037 1e+037 0 0 \$1-slisdecshow \$1-slirdecshow
empty 0 -8 0 10 -262144 -1 -1 0 256;
#N canvas 0 0 863 646 slisse 0;
#X obj 144 59 r \$1-slisatt;
#X obj 208 137 * 0.5;
#X obj 216 209 * 2;
#X obj 226 100 spigot;
#X obj 219 182 spigot;
#X obj 140 179 spigot;
#X obj 140 99 spigot;
#X obj 321 31 r \$1-slisattdiv;
#X obj 324 118 r \$1-slisattmul;
#X obj 279 64 == 0;
#X obj 322 147 == 0;
#X obj 224 286 s \$1-slirattshow;
#X obj 530 130 * 0.5;
#X obj 538 202 * 2;
#X obj 548 93 spigot;
#X obj 541 175 spigot;
#X obj 462 172 spigot;
#X obj 462 92 spigot;
#X obj 601 57 == 0;
#X obj 644 140 == 0;
#X obj 534 278 s \$1-slirdecshow;
#X obj 646 111 r \$1-slisdecmul;
#X obj 643 24 r \$1-slisdecdiv;
#X obj 47 58 inlet~;
#X obj 295 444 vline~;
#X msg 313 415 1 \$1 \, 0 \$2 \$1;
#X obj 175 338 f;
#X obj 453 348 f;
#X obj 365 297 t b b;
#X obj 316 386 pack;
#X obj 76 490 *~;
#X obj 78 527 outlet~;
#X obj 466 52 r \$1-slisdec;
#X obj 352 251 r \$1-slisbang;
#X obj 303 521 outlet~;
#X connect 0 0 6 0;
#X connect 0 0 3 0;
#X connect 1 0 11 0;
#X connect 1 0 26 1;
#X connect 2 0 11 0;
#X connect 2 0 26 1;
#X connect 3 0 1 0;
#X connect 4 0 2 0;
#X connect 5 0 11 0;
#X connect 5 0 26 1;
#X connect 6 0 5 0;
#X connect 6 0 4 0;
#X connect 7 0 9 0;
#X connect 7 0 3 1;
#X connect 8 0 10 0;
#X connect 8 0 4 1;
#X connect 9 0 6 1;
#X connect 10 0 5 1;
#X connect 12 0 20 0;
#X connect 12 0 27 1;
#X connect 13 0 20 0;
#X connect 13 0 27 1;
#X connect 14 0 12 0;
#X connect 15 0 13 0;
#X connect 16 0 20 0;
#X connect 16 0 27 1;
#X connect 17 0 16 0;
#X connect 17 0 15 0;
#X connect 18 0 17 1;
#X connect 19 0 16 1;
#X connect 21 0 19 0;
#X connect 21 0 15 1;
#X connect 22 0 18 0;
#X connect 22 0 14 1;
#X connect 23 0 30 0;
#X connect 24 0 30 1;
#X connect 24 0 34 0;
#X connect 25 0 24 0;
#X connect 26 0 29 0;
#X connect 27 0 29 1;
#X connect 28 0 26 0;
#X connect 28 1 27 0;
#X connect 29 0 25 0;
#X connect 30 0 31 0;
#X connect 32 0 17 0;
#X connect 32 0 14 0;
#X connect 33 0 28 0;
#X restore 27 289 pd slisse;
#X obj 28 320 outlet~;
#X obj 12 101 bng 15 250 50 0 \$1-slisbang \$1-slirbang go 17 7 0 10
-262144 -1 -1;
#X obj 305 41 inlet go;
#X obj 293 140 s \$1-slirbang;
#X obj 519 296 loadbang;
#X obj 485 363 s \$1-slirdecdiv;
#X obj 522 391 s \$1-slirdecmul;
#X obj 334 368 s \$1-slirattdiv;
#X obj 364 392 s \$1-slirattmul;
#X msg 514 322 0;
#X obj 302 75 > 0;
#X obj 296 105 select 1;
#X obj 440 38 inlet attack;
#X obj 436 145 s \$1-sliratt;
#X obj 604 146 s \$1-slirdec;
#X obj 605 109 * 4;
#X obj 607 36 inlet decay;
#N canvas 394 63 980 816 save_preset_array 0;
#X obj 19 403 inlet gui1;
#X obj 112 405 inlet gui2;
#X obj 197 403 inlet gui3;
#X obj 290 405 inlet gui4;
#X obj 376 406 inlet gui15;
#X obj 469 408 inlet gui6;
#X obj 554 406 inlet gui7;
#X obj 647 408 inlet gui8;
#X obj 732 408 inlet gui9;
#X obj 825 410 inlet gui10;
#X obj 743 446 f;
#X obj 824 448 f;
#X obj 566 443 f;
#X obj 647 445 f;
#X obj 380 439 f;
#X obj 461 441 f;
#X obj 204 438 f;
#X obj 285 440 f;
#X obj 25 443 f;
#X obj 106 445 f;
#X obj 83 109 until;
#X obj 62 173 + 1;
#X floatatom 101 291 5 0 0 0 - - -;
#X obj 89 142 f 0;
#X obj 79 42 bng 15 250 50 0 empty empty empty 17 7 0 10 -262144 -1
-1;
#X obj 60 332 select 1 2 3 4 5 6 7 8 9 10;
#X obj 571 505 r openpreset;
#X obj 163 32 r savepreset;
#X obj 21 825 outlet gui1;
#X obj 112 827 outlet gui2;
#X obj 201 827 outlet gui3;
#X obj 293 827 outlet gui4;
#X obj 475 827 outlet gui6;
#X obj 384 827 outlet gui5;
#X obj 567 827 outlet gui7;
#X obj 658 827 outlet gui8;
#X obj 748 827 outlet gui9;
#X obj 840 826 outlet gui10;
#X obj 495 598 until;
#X obj 472 657 + 1;
#X obj 499 626 f 0;
#N canvas 52 160 1048 298 router_1inxout 0;
#X obj 231 27 inlet one;
#X obj 339 23 inlet route123;
#X obj 35 211 outlet one;
#X obj 124 210 outlet two;
#X obj 218 211 outlet three;
#X obj 323 211 outlet four;
#X obj 415 210 outlet five;
#X obj 510 211 outlet six;
#X obj 599 210 outlet seven;
#X obj 700 213 outlet eigth;
#X obj 805 212 outlet nine;
#X obj 897 211 outlet ten;
#X obj 360 124 route 1 2 3 4 5 6 7 8 9 10;
#X obj 361 83 pack;
#X obj 296 57 mod 12;
#X connect 0 0 14 0;
#X connect 1 0 13 1;
#X connect 12 0 2 0;
#X connect 12 1 3 0;
#X connect 12 2 4 0;
#X connect 12 3 5 0;
#X connect 12 4 6 0;
#X connect 12 5 7 0;
#X connect 12 6 8 0;
#X connect 12 7 9 0;
#X connect 12 8 10 0;
#X connect 12 9 11 0;
#X connect 13 0 12 0;
#X connect 14 0 13 0;
#X restore 459 776 pd router_1inxout;
#X obj 211 106 f 0;
#X obj 335 24 r presetnr;
#X obj 336 49 * 12;
#X obj 334 72 - 12;
#X obj 587 587 f 0;
#X obj 495 685 t f f;
#X obj 85 201 t f f;
#X obj 736 509 bng 15 250 50 0 empty empty empty 17 7 0 10 -262144
-1 -1;
#N canvas 0 0 450 300 (subpatch) 0;
#X array \$1-slipreset 240 float 2;
#X coords 0 200 239 -1 200 140 1;
#X restore 524 132 graph;
#X floatatom 395 706 5 0 0 0 - - -;
#X floatatom 361 753 5 0 0 0 - - -;
#X obj 66 240 mod 12;
#X text 386 60 -> !!! per 12;
#X text 130 240 -> !!! per 12;
#X text 612 775 -> !!! hierin ook per 12;
#X msg 138 83 12;
#X text 174 83 -> !!! per 12;
#X text 579 54 max 12 parameters/waarden voor array/presets;
#X obj 256 204 symbol;
#X obj 357 183 symbol;
#X obj 299 245 pack s s;
#X obj 356 153 r namepreset;
#X obj 248 155 f \$1;
#X msg 273 272 \; \$1 write presets/\$2-\$1.txt;
#X obj 168 57 t b b b;
#X obj 716 628 symbol;
#X obj 756 655 pack s s;
#X obj 827 582 r namepreset;
#X obj 662 578 f \$1;
#X obj 819 618 symbol;
#X msg 750 686 \; \$1 read presets/\$2-\$1.txt;
#X obj 570 546 t b b b;
#X msg 528 575 12;
#X msg 247 182 \$1-slipreset;
#X obj 259 551 tabwrite \$1-slipreset;
#X msg 675 604 \$1-slipreset;
#X obj 449 736 tabread \$1-slipreset;
#X connect 0 0 18 1;
#X connect 1 0 19 1;
#X connect 2 0 16 1;
#X connect 3 0 17 1;
#X connect 4 0 14 1;
#X connect 5 0 15 1;
#X connect 6 0 12 1;
#X connect 7 0 13 1;
#X connect 8 0 10 1;
#X connect 9 0 11 1;
#X connect 10 0 76 0;
#X connect 11 0 76 0;
#X connect 12 0 76 0;
#X connect 13 0 76 0;
#X connect 14 0 76 0;
#X connect 15 0 76 0;
#X connect 16 0 76 0;
#X connect 17 0 76 0;
#X connect 18 0 76 0;
#X connect 19 0 76 0;
#X connect 20 0 23 0;
#X connect 21 0 23 1;
#X connect 21 0 48 0;
#X connect 23 0 21 0;
#X connect 24 0 20 0;
#X connect 25 0 18 0;
#X connect 25 1 19 0;
#X connect 25 2 16 0;
#X connect 25 3 17 0;
#X connect 25 4 14 0;
#X connect 25 5 15 0;
#X connect 25 6 12 0;
#X connect 25 7 13 0;
#X connect 25 8 10 0;
#X connect 25 9 11 0;
#X connect 26 0 73 0;
#X connect 27 0 66 0;
#X connect 38 0 40 0;
#X connect 39 0 40 1;
#X connect 39 0 47 0;
#X connect 40 0 39 0;
#X connect 41 0 28 0;
#X connect 41 1 29 0;
#X connect 41 2 30 0;
#X connect 41 3 31 0;
#X connect 41 4 33 0;
#X connect 41 5 32 0;
#X connect 41 6 34 0;
#X connect 41 7 35 0;
#X connect 41 8 36 0;
#X connect 41 9 37 0;
#X connect 42 0 23 1;
#X connect 43 0 44 0;
#X connect 44 0 45 0;
#X connect 45 0 42 1;
#X connect 45 0 46 1;
#X connect 46 0 40 1;
#X connect 47 0 41 0;
#X connect 47 1 78 0;
#X connect 48 0 53 0;
#X connect 48 1 22 0;
#X connect 48 1 76 1;
#X connect 49 0 73 0;
#X connect 53 0 25 0;
#X connect 57 0 20 0;
#X connect 60 0 62 0;
#X connect 61 0 62 1;
#X connect 62 0 65 0;
#X connect 63 0 61 0;
#X connect 64 0 75 0;
#X connect 66 0 64 0;
#X connect 66 1 57 0;
#X connect 66 2 42 0;
#X connect 67 0 68 0;
#X connect 68 0 72 0;
#X connect 69 0 71 0;
#X connect 70 0 77 0;
#X connect 71 0 68 1;
#X connect 73 0 74 0;
#X connect 73 1 46 0;
#X connect 73 2 70 0;
#X connect 74 0 38 0;
#X connect 75 0 60 0;
#X connect 77 0 67 0;
#X connect 78 0 41 1;
#X restore 328 300 pd save_preset_array;
#X obj 417 258 r \$1-slisattmul;
#X obj 527 233 r \$1-slisdecdiv;
#X obj 359 236 r \$1-slisattdiv;
#X obj 568 260 r \$1-slisdecmul;
#X obj 215 239 r \$1-slisatt;
#X obj 294 262 r \$1-slisdec;
#X obj 220 368 s \$1-sliratt;
#X obj 250 396 s \$1-slirdec;
#X obj 440 95 * 4;
#X obj 95 321 outlet~;
#X obj 186 527 bng 10 250 50 0 \$1-slisextraoptions empty extra_options
17 7 0 8 -262144 -1 -1;
#N canvas 452 452 837 423 printallreceives 0;
#X obj 35 63 f \$1;
#X obj 33 6 bng 15 250 50 0 empty empty empty 17 7 0 10 -262144 -1
-1;
#X obj 70 173 t f f f f f f f f f;
#X obj 36 87 t f f;
#X obj 166 21 r \$1-sliprintreceives;
#X obj 92 136 print start;
#X obj 49 370 print end;
#X msg 91 109 names of receives in [slice \$1]...................>>
;
#X msg 631 240 \$1-slirsli;
#X msg 518 267 \$1-slirglide;
#X msg 48 344 <<.........................................[slice \$1]
;
#X msg 331 279 \$1-slirglt;
#X msg 184 276 \$1-slirfreq;
#X msg 45 278 \$1-slirlev;
#X obj 44 304 print level[0-1];
#X obj 179 304 print pitch[0-127];
#X obj 332 302 print glide_time[0-xxx];
#X obj 525 302 print glide[0-1];
#X obj 634 266 print slie_selector[0-5];
#X obj 10 21 r printreceives;
#X connect 0 0 3 0;
#X connect 1 0 0 0;
#X connect 2 0 10 0;
#X connect 2 4 13 0;
#X connect 2 5 12 0;
#X connect 2 6 11 0;
#X connect 2 7 9 0;
#X connect 2 8 8 0;
#X connect 3 0 2 0;
#X connect 3 1 7 0;
#X connect 4 0 0 0;
#X connect 7 0 5 0;
#X connect 8 0 18 0;
#X connect 9 0 17 0;
#X connect 10 0 6 0;
#X connect 11 0 16 0;
#X connect 12 0 15 0;
#X connect 13 0 14 0;
#X connect 19 0 0 0;
#X restore 54 478 pd printallreceives;
#N canvas 792 487 421 157 \$1-sliceextra 0;
#X obj 8 72 bng 15 250 50 0 printreceives empty print_all_receives
17 7 0 10 -262144 -1 -1;
#X obj 7 13 bng 15 250 50 0 \$1-sliprintreceives empty print_names_of_receives
17 7 0 10 -262144 -1 -1;
#X text 66 91 (of all objects in open files);
#X text 65 32 (of this 'slice' object);
#X restore 219 478 pd \$1-sliceextra;
#X obj 401 468 f \$1;
#X obj 401 519 symbol;
#X msg 401 544 \; \$1 vis 1;
#X obj 399 445 r \$1-slisextraoptions;
#X msg 402 493 pd-\$1-sliceextra;
#N canvas 335 33 859 875 foutmelding 0;
#X obj 87 38 loadbang;
#X obj 79 83 f \$1;
#X obj 73 111 select 0;
#X msg 75 197 \; \$1 vis 1;
#X msg 74 142 36;
#X text 151 150 ascii-code voor $;
#X text 197 199 als er geen argument is \, noemt de subpatch vreemd
genoeg niet pd 0-warning maar wel pd \$1-warning;
#X text 129 80 als er geen argument is geeft f \$1 een 0;
#X obj 154 336 del 100;
#X msg 319 355 1;
#X obj 238 405 spigot;
#X obj 342 453 spigot;
#X obj 409 425 == 0;
#X obj 338 423 r slice;
#X obj 240 489 s slice;
#X obj 208 305 t b b b;
#X obj 314 389 t f f;
#X obj 241 429 del 150;
#X obj 239 460 f \$1;
#X msg 169 357 0;
#X obj 378 506 == \$1;
#X obj 455 604 > 1;
#X obj 341 478 t f f;
#X obj 391 568 f 0;
#X obj 390 538 select 1;
#X obj 330 541 spigot;
#X obj 459 569 + 1;
#X obj 336 602 == \$1;
#X obj 396 628 &&;
#X obj 158 628 print pop;
#X text 487 604 groter dan 1 want vergelijking et zichzelf levert sowieso
al 1 op en dan met ev. zelfde object met identiek argument levert 2
op!;
#X obj 396 656 select 1;
#X obj 396 678 f \$1;
#X obj 398 768 symbol;
#X msg 396 795 \; \$1 vis 1;
#X obj 363 706 t f f;
#X obj 92 820 symbol;
#X obj 170 872 print;
#X obj 326 662 bng 15 250 50 0 empty empty empty 17 7 0 10 -262144
-1 -1;
#X msg 173 839 !!! these two abunch objects have the same argument
number: [slice \$1];
#X text 406 346 alleen net gecreerde object verstuurt waarde;
#X text 398 372 bij eerder gemaakte objecten staat spigot voor receive
open;
#N canvas 670 470 308 138 \$1-slicewarning 0;
#X obj -1 0 cnv 15 320 150 empty empty empty 20 12 0 14 -258699 -66577
0;
#X text 11 32 You forgot to add an unique number;
#X text 11 78 when you created this abunch object;
#X restore 349 165 pd \$1-slicewarning;
#N canvas 856 445 327 127 \$1-slicesameargument 0;
#X obj -1 0 cnv 15 330 150 empty empty empty 20 12 0 14 -258699 -66577
0;
#X msg 393 108;
#X text 314 243 is used already!!;
#X obj 344 35 inlet;
#X symbolatom 351 77 10 0 0 0 - - -;
#X obj 98 40 cnv 15 60 20 empty empty empty 20 12 0 14 -233017 -66577
0;
#X text 24 40 Create an unique number for this;
#X text 102 69 abunch object.;
#X connect 3 0 1 0;
#X connect 3 0 4 0;
#X restore 541 770 pd \$1-slicesameargument;
#X msg 397 738 pd-\$1-slicesameargument;
#X obj 74 171 makefilename pd-%c1-slicewarning;
#X connect 0 0 1 0;
#X connect 0 0 15 0;
#X connect 1 0 2 0;
#X connect 2 0 4 0;
#X connect 4 0 45 0;
#X connect 8 0 19 0;
#X connect 9 0 16 0;
#X connect 10 0 17 0;
#X connect 11 0 22 0;
#X connect 12 0 11 1;
#X connect 13 0 11 0;
#X connect 15 0 8 0;
#X connect 15 1 10 0;
#X connect 15 2 9 0;
#X connect 16 0 10 1;
#X connect 16 1 12 0;
#X connect 17 0 18 0;
#X connect 18 0 14 0;
#X connect 19 0 16 0;
#X connect 20 0 24 0;
#X connect 20 0 25 1;
#X connect 21 0 28 1;
#X connect 22 0 25 0;
#X connect 22 1 20 0;
#X connect 23 0 26 0;
#X connect 24 0 23 0;
#X connect 25 0 27 0;
#X connect 26 0 23 1;
#X connect 26 0 21 0;
#X connect 27 0 28 0;
#X connect 28 0 31 0;
#X connect 31 0 32 0;
#X connect 32 0 35 0;
#X connect 33 0 34 0;
#X connect 35 0 44 0;
#X connect 35 1 39 0;
#X connect 38 0 32 0;
#X connect 39 0 37 0;
#X connect 44 0 33 0;
#X connect 45 0 3 0;
#X restore 604 497 pd foutmelding;
#N canvas 744 585 566 199 needsound 0;
#X obj 22 34 r soundfileyesno;
#X msg 18 67 0;
#X obj 22 138 s answersoundfile;
#X text 63 65 0 = this abunch object doesn't need a sound file (store
in a preset file) \, 1 = it does;
#X connect 0 0 1 0;
#X connect 1 0 2 0;
#X restore 252 565 pd needsound;
#X connect 0 0 9 0;
#X connect 9 0 10 0;
#X connect 9 1 37 0;
#X connect 12 0 20 0;
#X connect 14 0 19 0;
#X connect 19 0 15 0;
#X connect 19 0 16 0;
#X connect 19 0 18 0;
#X connect 19 0 17 0;
#X connect 20 0 21 0;
#X connect 21 0 13 0;
#X connect 22 0 36 0;
#X connect 25 0 24 0;
#X connect 26 0 25 0;
#X connect 27 0 34 0;
#X connect 27 1 35 0;
#X connect 27 2 17 0;
#X connect 27 3 18 0;
#X connect 27 4 15 0;
#X connect 27 5 16 0;
#X connect 28 0 27 3;
#X connect 29 0 27 4;
#X connect 30 0 27 2;
#X connect 31 0 27 5;
#X connect 32 0 27 0;
#X connect 33 0 27 1;
#X connect 36 0 23 0;
#X connect 41 0 45 0;
#X connect 42 0 43 0;
#X connect 44 0 41 0;
#X connect 45 0 42 0;
