#N canvas 117 323 168 239 12;
#X obj 111 298 inlet~;
#X obj 27 295 inlet~;
#X obj 110 370 outlet~;
#X obj 25 364 outlet~;
#X obj 379 28 inlet L;
#X obj 457 31 inlet R;
#X obj 377 89 s \$1-soutrlevl;
#X obj 495 90 s \$1-soutrlevr;
#X obj 380 59 * 0.787;
#X obj 460 59 * 0.787;
#N canvas 360 38 590 423 printallreceives 0;
#X obj 35 63 f \$1;
#X obj 33 6 bng 15 250 50 0 empty empty empty 17 7 0 10 -262144 -1
-1;
#X obj 70 173 t f f f f f f f f f;
#X obj 36 87 t f f;
#X obj 166 21 r \$1-soutprintreceives;
#X obj 92 136 print start;
#X obj 49 370 print end;
#X msg 91 109 names of receives in [sound-out \$1]...................>>
;
#X msg 48 344 <<.........................................[sound-out
\$1];
#X obj 10 21 r printreceives;
#X obj 438 246 print L[0-100];
#X msg 435 220 \$1-soutrlevl;
#X msg 410 271 \$1-soutrlevr;
#X obj 413 297 print R[0-100];
#X obj 196 255 print link[0-1];
#X msg 197 229 \$1-soutrlink;
#X obj 153 307 print computerout[0-1];
#X msg 154 281 \$1-soutrby;
#X connect 0 0 3 0;
#X connect 1 0 0 0;
#X connect 2 0 8 0;
#X connect 2 5 17 0;
#X connect 2 6 15 0;
#X connect 2 7 12 0;
#X connect 2 8 11 0;
#X connect 3 0 2 0;
#X connect 3 1 7 0;
#X connect 4 0 0 0;
#X connect 7 0 5 0;
#X connect 8 0 6 0;
#X connect 9 0 0 0;
#X connect 11 0 10 0;
#X connect 12 0 13 0;
#X connect 15 0 14 0;
#X connect 17 0 16 0;
#X restore 269 155 pd printallreceives;
#N canvas 792 487 421 157 \$1-sound-outextra 0;
#X obj 8 72 bng 15 250 50 0 printreceives empty print_all_receives
17 7 0 10 -262144 -1 -1;
#X obj 7 13 bng 15 250 50 0 \$1-soutprintreceives empty print_names_of_receives
17 7 0 10 -262144 -1 -1;
#X text 66 91 (of all objects in open files);
#X text 65 32 (of this 'sound-out' object);
#X restore 261 208 pd \$1-sound-outextra;
#X obj 440 154 f \$1;
#X obj 440 205 symbol;
#X msg 440 230 \; \$1 vis 1;
#X obj 438 131 r \$1-soutsextraoptions;
#X msg 441 179 pd-\$1-sound-outextra;
#N canvas 335 33 863 879 foutmelding 0;
#X obj 87 38 loadbang;
#X obj 79 83 f \$1;
#X obj 73 111 select 0;
#X msg 75 197 \; \$1 vis 1;
#X msg 74 142 36;
#X text 151 150 ascii-code voor $;
#X text 197 199 als er geen argument is \, noemt de subpatch vreemd
genoeg niet pd 0-warning maar wel pd \$1-warning;
#X text 129 80 als er geen argument is geeft f \$1 een 0;
#X obj 154 336 del 100;
#X msg 319 355 1;
#X obj 238 405 spigot;
#X obj 342 453 spigot;
#X obj 409 425 == 0;
#X obj 338 423 r sound-out;
#X obj 240 489 s sound-out;
#X obj 208 305 t b b b;
#X obj 314 389 t f f;
#X obj 241 429 del 150;
#X obj 239 460 f \$1;
#X msg 169 357 0;
#X obj 378 506 == \$1;
#X obj 455 604 > 1;
#X obj 341 478 t f f;
#X obj 391 568 f 0;
#X obj 390 538 select 1;
#X obj 330 541 spigot;
#X obj 459 569 + 1;
#X obj 336 602 == \$1;
#X obj 396 628 &&;
#X obj 158 628 print pop;
#X text 487 604 groter dan 1 want vergelijking et zichzelf levert sowieso
al 1 op en dan met ev. zelfde object met identiek argument levert 2
op!;
#X obj 396 656 select 1;
#X obj 396 678 f \$1;
#X obj 398 768 symbol;
#X msg 396 795 \; \$1 vis 1;
#X obj 363 706 t f f;
#X obj 92 820 symbol;
#X obj 170 872 print;
#X obj 326 662 bng 15 250 50 0 empty empty empty 17 7 0 10 -262144
-1 -1;
#X msg 173 839 !!! these two abunch objects have the same argument
number: [sound-out \$1];
#X text 406 346 alleen net gecreerde object verstuurt waarde;
#X text 398 372 bij eerder gemaakte objecten staat spigot voor receive
open;
#N canvas 670 470 308 138 \$1-sound-outwarning 0;
#X obj -1 0 cnv 15 320 150 empty empty empty 20 12 0 14 -258699 -66577
0;
#X text 11 32 You forgot to add an unique number;
#X text 11 78 when you created this abunch object;
#X restore 349 165 pd \$1-sound-outwarning;
#N canvas 856 445 327 127 \$1-sound-outsameargument 0;
#X obj -1 0 cnv 15 330 150 empty empty empty 20 12 0 14 -258699 -66577
0;
#X msg 393 108;
#X text 314 243 is used already!!;
#X obj 344 35 inlet;
#X symbolatom 351 77 10 0 0 0 - - -;
#X obj 98 40 cnv 15 60 20 empty empty empty 20 12 0 14 -233017 -66577
0;
#X text 24 40 Create an unique number for this;
#X text 102 69 abunch object.;
#X connect 3 0 1 0;
#X connect 3 0 4 0;
#X restore 541 770 pd \$1-sound-outsameargument;
#X msg 397 738 pd-\$1-sound-outsameargument;
#X obj 74 171 makefilename pd-%c1-sound-outwarning;
#X connect 0 0 1 0;
#X connect 0 0 15 0;
#X connect 1 0 2 0;
#X connect 2 0 4 0;
#X connect 4 0 45 0;
#X connect 8 0 19 0;
#X connect 9 0 16 0;
#X connect 10 0 17 0;
#X connect 11 0 22 0;
#X connect 12 0 11 1;
#X connect 13 0 11 0;
#X connect 15 0 8 0;
#X connect 15 1 10 0;
#X connect 15 2 9 0;
#X connect 16 0 10 1;
#X connect 16 1 12 0;
#X connect 17 0 18 0;
#X connect 18 0 14 0;
#X connect 19 0 16 0;
#X connect 20 0 24 0;
#X connect 20 0 25 1;
#X connect 21 0 28 1;
#X connect 22 0 25 0;
#X connect 22 1 20 0;
#X connect 23 0 26 0;
#X connect 24 0 23 0;
#X connect 25 0 27 0;
#X connect 26 0 23 1;
#X connect 26 0 21 0;
#X connect 27 0 28 0;
#X connect 28 0 31 0;
#X connect 31 0 32 0;
#X connect 32 0 35 0;
#X connect 33 0 34 0;
#X connect 35 0 44 0;
#X connect 35 1 39 0;
#X connect 38 0 32 0;
#X connect 39 0 37 0;
#X connect 44 0 33 0;
#X connect 45 0 3 0;
#X restore 260 233 pd foutmelding;
#N canvas 744 585 566 199 needsound 0;
#X obj 22 34 r soundfileyesno;
#X msg 18 67 0;
#X obj 22 138 s answersoundfile;
#X text 63 65 0 = this abunch object doesn't need a sound file (store
in a preset file) \, 1 = it does;
#X connect 0 0 1 0;
#X connect 1 0 2 0;
#X restore 264 183 pd needsound;
#N canvas 26 116 465 300 init-presets 0;
#X obj 61 238 s \$1-soutrlevl;
#X obj 190 200 s \$1-soutrlevr;
#X obj 102 57 r \$1-soutslevl;
#X obj 269 42 r \$1-soutslevr;
#X obj 171 85 r \$1-soutslink;
#N canvas 134 181 974 638 save_preset_array 0;
#X obj 19 403 inlet gui1;
#X obj 112 405 inlet gui2;
#X obj 197 403 inlet gui3;
#X obj 290 405 inlet gui4;
#X obj 376 406 inlet gui15;
#X obj 469 408 inlet gui6;
#X obj 554 406 inlet gui7;
#X obj 647 408 inlet gui8;
#X obj 732 408 inlet gui9;
#X obj 825 410 inlet gui10;
#X obj 743 446 f;
#X obj 824 448 f;
#X obj 566 443 f;
#X obj 647 445 f;
#X obj 380 439 f;
#X obj 461 441 f;
#X obj 204 438 f;
#X obj 285 440 f;
#X obj 25 443 f;
#X obj 106 445 f;
#X obj 83 109 until;
#X obj 62 173 + 1;
#X obj 89 142 f 0;
#X obj 79 42 bng 15 250 50 0 empty empty empty 17 7 0 10 -262144 -1
-1;
#X obj 60 332 select 1 2 3 4 5 6 7 8 9 10;
#X obj 571 505 r openpreset;
#X obj 162 18 r savepreset;
#X obj 21 825 outlet gui1;
#X obj 112 827 outlet gui2;
#X obj 201 827 outlet gui3;
#X obj 293 827 outlet gui4;
#X obj 495 598 until;
#X obj 472 657 + 1;
#X obj 499 626 f 0;
#N canvas 52 160 1048 298 router_1inxout 0;
#X obj 231 27 inlet one;
#X obj 339 23 inlet route123;
#X obj 35 211 outlet one;
#X obj 124 210 outlet two;
#X obj 218 211 outlet three;
#X obj 323 211 outlet four;
#X obj 415 210 outlet five;
#X obj 510 211 outlet six;
#X obj 599 210 outlet seven;
#X obj 700 213 outlet eigth;
#X obj 805 212 outlet nine;
#X obj 897 211 outlet ten;
#X obj 360 124 route 1 2 3 4 5 6 7 8 9 10;
#X obj 361 83 pack;
#X obj 296 57 mod 12;
#X connect 0 0 14 0;
#X connect 1 0 13 1;
#X connect 12 0 2 0;
#X connect 12 1 3 0;
#X connect 12 2 4 0;
#X connect 12 3 5 0;
#X connect 12 4 6 0;
#X connect 12 5 7 0;
#X connect 12 6 8 0;
#X connect 12 7 9 0;
#X connect 12 8 10 0;
#X connect 12 9 11 0;
#X connect 13 0 12 0;
#X connect 14 0 13 0;
#X restore 459 776 pd router_1inxout;
#X obj 211 106 f 0;
#X obj 335 24 r presetnr;
#X obj 336 49 * 12;
#X obj 334 72 - 12;
#X obj 587 587 f 0;
#X obj 495 685 t f f;
#X obj 85 201 t f f;
#X obj 736 509 bng 15 250 50 0 empty empty empty 17 7 0 10 -262144
-1 -1;
#N canvas 0 0 450 300 (subpatch) 0;
#X array \$1-soutpreset 601 float 2;
#X coords 0 200 601 -1 200 140 1;
#X restore 591 131 graph;
#X obj 66 240 mod 12;
#X text 386 60 -> !!! per 12;
#X text 130 240 -> !!! per 12;
#X text 612 775 -> !!! hierin ook per 12;
#X msg 133 82 12;
#X text 174 83 -> !!! per 12;
#X text 579 54 max 12 parameters/waarden voor array/presets;
#X obj 302 204 symbol;
#X obj 403 183 symbol;
#X obj 345 245 pack s s;
#X obj 402 153 r namepreset;
#X obj 294 155 f \$1;
#X obj 167 43 t b b b;
#X obj 570 546 t b b b;
#X text 130 312 -> !!! per 12;
#X obj 716 628 symbol;
#X obj 756 655 pack s s;
#X obj 827 582 r namepreset;
#X obj 662 578 f \$1;
#X obj 152 163 print bng;
#X obj 819 618 symbol;
#X msg 319 272 \; \$1 write presets/\$2-\$1.txt;
#X msg 750 686 \; \$1 read presets/\$2-\$1.txt;
#X msg 272 182 \$1-soutpreset;
#X obj 262 552 tabwrite \$1-soutpreset;
#X obj 449 736 tabread \$1-soutpreset;
#X msg 675 604 \$1-soutpreset;
#X msg 528 575 12;
#X connect 0 0 18 1;
#X connect 1 0 19 1;
#X connect 2 0 16 1;
#X connect 3 0 17 1;
#X connect 4 0 14 1;
#X connect 5 0 15 1;
#X connect 6 0 12 1;
#X connect 7 0 13 1;
#X connect 8 0 10 1;
#X connect 9 0 11 1;
#X connect 10 0 68 0;
#X connect 11 0 68 0;
#X connect 12 0 68 0;
#X connect 13 0 68 0;
#X connect 14 0 68 0;
#X connect 15 0 68 0;
#X connect 16 0 68 0;
#X connect 17 0 68 0;
#X connect 18 0 68 0;
#X connect 19 0 68 0;
#X connect 20 0 22 0;
#X connect 21 0 22 1;
#X connect 21 0 41 0;
#X connect 22 0 21 0;
#X connect 23 0 20 0;
#X connect 24 0 18 0;
#X connect 24 1 19 0;
#X connect 24 2 16 0;
#X connect 24 3 17 0;
#X connect 25 0 57 0;
#X connect 26 0 56 0;
#X connect 31 0 33 0;
#X connect 32 0 33 1;
#X connect 32 0 40 0;
#X connect 33 0 32 0;
#X connect 34 0 27 0;
#X connect 34 1 28 0;
#X connect 34 2 29 0;
#X connect 34 3 30 0;
#X connect 35 0 22 1;
#X connect 36 0 37 0;
#X connect 37 0 38 0;
#X connect 38 0 35 1;
#X connect 38 0 39 1;
#X connect 39 0 33 1;
#X connect 40 0 34 0;
#X connect 40 1 69 0;
#X connect 41 0 44 0;
#X connect 41 1 68 1;
#X connect 42 0 57 0;
#X connect 44 0 24 0;
#X connect 48 0 20 0;
#X connect 51 0 53 0;
#X connect 52 0 53 1;
#X connect 53 0 65 0;
#X connect 54 0 52 0;
#X connect 55 0 67 0;
#X connect 56 0 55 0;
#X connect 56 0 63 0;
#X connect 56 1 48 0;
#X connect 56 2 35 0;
#X connect 57 0 71 0;
#X connect 57 1 39 0;
#X connect 57 2 62 0;
#X connect 59 0 60 0;
#X connect 60 0 66 0;
#X connect 61 0 64 0;
#X connect 62 0 70 0;
#X connect 64 0 60 1;
#X connect 67 0 51 0;
#X connect 69 0 34 1;
#X connect 70 0 59 0;
#X connect 71 0 31 0;
#X restore 191 133 pd save_preset_array;
#X obj 129 217 s \$1-soutrlink;
#X obj 21 85 loadbang;
#X msg 27 141 100;
#X obj 335 68 r \$1-soutsby;
#X obj 293 180 s \$1-soutrby;
#X msg 87 145 1;
#X obj 23 110 t b b b b;
#X connect 2 0 5 0;
#X connect 3 0 5 2;
#X connect 4 0 5 1;
#X connect 5 0 0 0;
#X connect 5 1 6 0;
#X connect 5 2 1 0;
#X connect 5 3 10 0;
#X connect 7 0 12 0;
#X connect 8 0 0 0;
#X connect 8 0 1 0;
#X connect 9 0 5 3;
#X connect 11 0 6 0;
#X connect 11 0 10 0;
#X connect 12 2 8 0;
#X connect 12 3 11 0;
#X restore 269 123 pd init-presets;
#X obj -2 -3 cnv 15 230 250 empty empty empty 50 12 0 10 -258699 -143491
0;
#X obj 47 21 vsl 15 128 0 100 0 0 \$1-soutslevl \$1-soutrlevl L 4 -9
0 10 -262144 -1 -1 12700 1;
#X obj 73 21 vsl 15 128 0 100 0 0 \$1-soutslevr \$1-soutrlevr R 4 -9
0 10 -262144 -1 -1 12700 1;
#X obj 25 162 tgl 15 0 \$1-soutslink \$1-soutrlink link 17 7 0 10 -262144
-1 -1 1 1;
#X obj 26 190 tgl 15 0 \$1-soutsby \$1-soutrby computerout 17 7 0 10
-262144 -1 -1 1 1;
#X obj 70 214 bng 10 250 50 0 \$1-soutsextraoptions empty extra_options
17 7 0 8 -262144 -1 -1;
#N canvas 540 309 293 166 printname 0;
#X obj 54 33 r printallnames;
#X obj 54 87 symbol;
#X obj 54 112 s rallnames;
#X msg 54 62 sound-out;
#X connect 0 0 3 0;
#X connect 1 0 2 0;
#X connect 3 0 1 0;
#X restore 259 257 pd printname;
#N canvas 0 0 528 406 soundout 0;
#X obj 258 225 inlet~;
#X obj 18 201 inlet~;
#X obj 238 346 outlet~;
#X obj 39 345 outlet~;
#X obj 134 349 dac~;
#X obj 79 178 dbtorms;
#X obj 82 237 line~;
#X obj 44 274 *~;
#X obj 79 213 pack 0 50;
#X obj 242 279 *~;
#X obj 20 224 hip~ 3;
#X obj 259 249 hip~ 3;
#X msg 287 105 set \$1;
#X msg 346 105 set \$1;
#X obj 345 136 s \$1-soutrlevl;
#X obj 264 159 s \$1-soutrlevr;
#X obj 68 11 r \$1-soutslevl;
#X obj 311 12 r \$1-soutslevr;
#X obj 219 66 spigot;
#X obj 56 84 spigot;
#X obj 98 47 == 0;
#X obj 192 10 r \$1-soutslink;
#X obj 129 90 spigot;
#X obj 279 68 spigot;
#X obj 164 190 dbtorms;
#X obj 166 237 line~;
#X obj 163 213 pack 0 50;
#X obj 118 276 r \$1-soutsby;
#N canvas 0 0 482 332 switch 0;
#X obj 181 44 inlet~;
#X obj 297 175 switch~;
#X obj 186 153 outlet~;
#X obj 284 27 inlet switch;
#X connect 0 0 2 0;
#X connect 3 0 1 0;
#X coords 0 0 1 1 80 50 0;
#X restore 55 305 pd switch;
#N canvas 0 0 482 332 switch 0;
#X obj 181 44 inlet~;
#X obj 297 175 switch~;
#X obj 186 153 outlet~;
#X obj 284 27 inlet switch;
#X connect 0 0 2 0;
#X connect 3 0 1 0;
#X coords 0 0 1 1 80 50 0;
#X restore 162 315 pd switch;
#X connect 0 0 11 0;
#X connect 1 0 10 0;
#X connect 5 0 8 0;
#X connect 6 0 7 0;
#X connect 7 0 3 0;
#X connect 7 0 28 0;
#X connect 8 0 6 0;
#X connect 9 0 29 0;
#X connect 9 0 2 0;
#X connect 10 0 7 1;
#X connect 11 0 9 1;
#X connect 12 0 15 0;
#X connect 13 0 14 0;
#X connect 16 0 19 0;
#X connect 16 0 18 0;
#X connect 17 0 22 0;
#X connect 17 0 23 0;
#X connect 18 0 12 0;
#X connect 18 0 5 0;
#X connect 18 0 24 0;
#X connect 19 0 5 0;
#X connect 20 0 19 1;
#X connect 20 0 22 1;
#X connect 21 0 20 0;
#X connect 21 0 18 1;
#X connect 21 0 23 1;
#X connect 22 0 24 0;
#X connect 23 0 13 0;
#X connect 23 0 5 0;
#X connect 23 0 24 0;
#X connect 24 0 26 0;
#X connect 25 0 9 0;
#X connect 26 0 25 0;
#X connect 27 0 28 1;
#X connect 27 0 29 1;
#X connect 28 0 4 0;
#X connect 29 0 4 1;
#X restore 26 329 pd soundout;
#N canvas 10 184 588 284 presetsnew 0;
#X obj 210 58 r savepresetn;
#X obj 203 119 t b b b;
#N canvas 122 0 1041 709 name-sends-normal 0;
#N canvas 0 0 450 300 (subpatch) 0;
#X array \$1-soutbetween 12 float 2;
#X coords 0 10000 12 -10000 20 20 1;
#X restore 15 236 graph;
#X obj 387 1166 tabwrite \$1-soutbetween;
#X obj 438 235 unpack f f;
#X obj 98 156 pack f 1;
#X obj 135 178 pack f 2;
#X obj 186 200 pack f 3;
#X obj 236 155 pack f 4;
#X obj 273 177 pack f 5;
#X obj 324 199 pack f 6;
#X obj 368 156 pack f 7;
#X obj 405 178 pack f 8;
#X obj 449 199 pack f 9;
#X obj 508 156 pack f 10;
#X obj 545 178 pack f 11;
#X obj 596 199 pack f 12;
#X obj 665 156 pack f 13;
#X obj 702 178 pack f 14;
#X obj 754 201 pack f 15;
#X obj 798 156 pack f 16;
#X obj 835 179 pack f 17;
#X obj 884 203 pack f 18;
#X obj 438 505 unpack f f;
#X obj 98 426 pack f 19;
#X obj 135 448 pack f 20;
#X obj 186 470 pack f 21;
#X obj 236 425 pack f 22;
#X obj 273 447 pack f 23;
#X obj 324 469 pack f 24;
#X obj 368 426 pack f 25;
#X obj 405 448 pack f 26;
#X obj 449 469 pack f 27;
#X obj 508 426 pack f 28;
#X obj 545 448 pack f 29;
#X obj 596 469 pack f 30;
#X obj 665 426 pack f 31;
#X obj 702 448 pack f 32;
#X obj 754 471 pack f 33;
#X obj 798 426 pack f 34;
#X obj 835 449 pack f 35;
#X obj 886 470 pack f 36;
#X obj 438 635 unpack f f;
#X obj 98 556 pack f 37;
#X obj 135 578 pack f 38;
#X obj 186 600 pack f 39;
#X obj 236 555 pack f 40;
#X obj 273 577 pack f 41;
#X obj 324 599 pack f 42;
#X obj 368 556 pack f 43;
#X obj 405 578 pack f 44;
#X obj 449 599 pack f 45;
#X obj 508 556 pack f 46;
#X obj 545 578 pack f 47;
#X obj 596 599 pack f 48;
#X obj 665 556 pack f 49;
#X obj 702 578 pack f 50;
#X obj 754 601 pack f 51;
#X obj 798 556 pack f 52;
#X obj 835 579 pack f 53;
#X obj 886 600 pack f 54;
#X obj 438 755 unpack f f;
#X obj 98 676 pack f 55;
#X obj 135 698 pack f 56;
#X obj 186 720 pack f 57;
#X obj 236 675 pack f 58;
#X obj 273 697 pack f 59;
#X obj 324 719 pack f 60;
#X obj 368 676 pack f 61;
#X obj 405 698 pack f 62;
#X obj 449 719 pack f 63;
#X obj 508 676 pack f 64;
#X obj 545 698 pack f 65;
#X obj 596 719 pack f 66;
#X obj 665 676 pack f 67;
#X obj 702 698 pack f 68;
#X obj 754 721 pack f 69;
#X obj 798 676 pack f 70;
#X obj 835 699 pack f 71;
#X obj 886 720 pack f 72;
#X obj 438 935 unpack f f;
#X obj 98 856 pack f 73;
#X obj 135 878 pack f 74;
#X obj 186 900 pack f 75;
#X obj 236 855 pack f 76;
#X obj 273 877 pack f 77;
#X obj 324 899 pack f 78;
#X obj 368 856 pack f 79;
#X obj 405 878 pack f 80;
#X obj 449 899 pack f 81;
#X obj 508 856 pack f 82;
#X obj 545 878 pack f 83;
#X obj 596 899 pack f 84;
#X obj 665 856 pack f 85;
#X obj 702 878 pack f 86;
#X obj 754 901 pack f 87;
#X obj 801 852 pack f 88;
#X obj 835 879 pack f 89;
#X obj 886 900 pack f 90;
#X obj 438 1135 unpack f f;
#X obj 98 1056 pack f 91;
#X obj 135 1078 pack f 92;
#X obj 186 1100 pack f 93;
#X obj 236 1055 pack f 94;
#X obj 273 1077 pack f 95;
#X obj 324 1099 pack f 96;
#X obj 368 1056 pack f 97;
#X obj 405 1078 pack f 98;
#X obj 449 1099 pack f 99;
#X obj 508 1056 pack f 100;
#X obj 545 1078 pack f 101;
#X obj 596 1099 pack f 102;
#X obj 665 1056 pack f 103;
#X obj 702 1078 pack f 104;
#X obj 754 1101 pack f 105;
#X obj 798 1056 pack f 106;
#X obj 835 1079 pack f 107;
#X obj 886 1100 pack f 108;
#X text 38 238 -> adjust size if necessary (standard size = 109);
#X obj 102 57 r \$1-soutslevl;
#X obj 197 103 r \$1-soutslevr;
#X obj 171 85 r \$1-soutslink;
#X obj 335 68 r \$1-soutsby;
#X connect 2 0 1 0;
#X connect 2 1 1 1;
#X connect 3 0 2 0;
#X connect 4 0 2 0;
#X connect 5 0 2 0;
#X connect 6 0 2 0;
#X connect 7 0 2 0;
#X connect 8 0 2 0;
#X connect 9 0 2 0;
#X connect 10 0 2 0;
#X connect 11 0 2 0;
#X connect 12 0 2 0;
#X connect 13 0 2 0;
#X connect 14 0 2 0;
#X connect 15 0 2 0;
#X connect 16 0 2 0;
#X connect 17 0 2 0;
#X connect 18 0 2 0;
#X connect 19 0 2 0;
#X connect 20 0 2 0;
#X connect 21 0 1 0;
#X connect 21 1 1 1;
#X connect 22 0 21 0;
#X connect 23 0 21 0;
#X connect 24 0 21 0;
#X connect 25 0 21 0;
#X connect 26 0 21 0;
#X connect 27 0 21 0;
#X connect 28 0 21 0;
#X connect 29 0 21 0;
#X connect 30 0 21 0;
#X connect 31 0 21 0;
#X connect 32 0 21 0;
#X connect 33 0 21 0;
#X connect 34 0 21 0;
#X connect 35 0 21 0;
#X connect 36 0 21 0;
#X connect 37 0 21 0;
#X connect 38 0 21 0;
#X connect 39 0 21 0;
#X connect 40 0 1 0;
#X connect 40 1 1 1;
#X connect 41 0 40 0;
#X connect 42 0 40 0;
#X connect 43 0 40 0;
#X connect 44 0 40 0;
#X connect 45 0 40 0;
#X connect 46 0 40 0;
#X connect 47 0 40 0;
#X connect 48 0 40 0;
#X connect 49 0 40 0;
#X connect 50 0 40 0;
#X connect 51 0 40 0;
#X connect 52 0 40 0;
#X connect 53 0 40 0;
#X connect 54 0 40 0;
#X connect 55 0 40 0;
#X connect 56 0 40 0;
#X connect 57 0 40 0;
#X connect 58 0 40 0;
#X connect 59 0 1 0;
#X connect 59 1 1 1;
#X connect 60 0 59 0;
#X connect 61 0 59 0;
#X connect 62 0 59 0;
#X connect 63 0 59 0;
#X connect 64 0 59 0;
#X connect 65 0 59 0;
#X connect 66 0 59 0;
#X connect 67 0 59 0;
#X connect 68 0 59 0;
#X connect 69 0 59 0;
#X connect 70 0 59 0;
#X connect 71 0 59 0;
#X connect 72 0 59 0;
#X connect 73 0 59 0;
#X connect 74 0 59 0;
#X connect 75 0 59 0;
#X connect 76 0 59 0;
#X connect 77 0 59 0;
#X connect 78 0 1 0;
#X connect 78 1 1 1;
#X connect 79 0 78 0;
#X connect 80 0 78 0;
#X connect 81 0 78 0;
#X connect 82 0 78 0;
#X connect 83 0 78 0;
#X connect 84 0 78 0;
#X connect 85 0 78 0;
#X connect 86 0 78 0;
#X connect 87 0 78 0;
#X connect 88 0 78 0;
#X connect 89 0 78 0;
#X connect 90 0 78 0;
#X connect 91 0 78 0;
#X connect 92 0 78 0;
#X connect 93 0 78 0;
#X connect 94 0 78 0;
#X connect 95 0 78 0;
#X connect 96 0 78 0;
#X connect 97 0 1 0;
#X connect 97 1 1 1;
#X connect 98 0 97 0;
#X connect 99 0 97 0;
#X connect 100 0 97 0;
#X connect 101 0 97 0;
#X connect 102 0 97 0;
#X connect 103 0 97 0;
#X connect 104 0 97 0;
#X connect 105 0 97 0;
#X connect 106 0 97 0;
#X connect 107 0 97 0;
#X connect 108 0 97 0;
#X connect 109 0 97 0;
#X connect 110 0 97 0;
#X connect 111 0 97 0;
#X connect 112 0 97 0;
#X connect 113 0 97 0;
#X connect 114 0 97 0;
#X connect 115 0 97 0;
#X connect 117 0 3 0;
#X connect 118 0 5 0;
#X connect 119 0 4 0;
#X connect 120 0 6 0;
#X restore 75 27 pd name-sends-normal;
#X obj 223 196 s toextfile;
#N canvas 636 185 560 404 normal 0;
#X obj 278 134 f \$1;
#X obj 237 278 symbol;
#X obj 42 268 list prepend add2;
#X obj 42 293 list trim;
#X obj 188 51 t b b b b b;
#X obj 154 135 f 0;
#X obj 193 135 + 1;
#X msg 181 103 0;
#X msg 240 196 soutrx\$1;
#X obj 237 222 pack s f;
#X msg 237 249 \$2-\$1;
#X obj 131 102 until;
#X obj 193 161 t f f;
#X obj 21 193 tabread \$1-soutbetween;
#X text 151 77 -> aanpassen! aantal op te slagen floats;
#X obj 180 16 inlet;
#X obj 229 345 outlet;
#X msg 235 311 add2 () norm 0 0 \$1;
#X obj 111 76 f 4;
#X connect 0 0 9 1;
#X connect 1 0 17 0;
#X connect 2 0 3 0;
#X connect 3 0 16 0;
#X connect 4 3 18 0;
#X connect 4 4 0 0;
#X connect 4 4 7 0;
#X connect 5 0 6 0;
#X connect 6 0 5 1;
#X connect 6 0 12 0;
#X connect 7 0 5 1;
#X connect 8 0 9 0;
#X connect 9 0 10 0;
#X connect 10 0 1 0;
#X connect 11 0 5 0;
#X connect 12 0 13 0;
#X connect 12 1 8 0;
#X connect 13 0 2 0;
#X connect 15 0 4 0;
#X connect 17 0 16 0;
#X connect 18 0 11 0;
#X restore 217 153 pd normal;
#X text 179 152 !!->;
#X text 212 245 !!->;
#N canvas 49 0 1083 670 receive-normal 0;
#X obj 24 26 r \$1-soutrx1;
#X obj 54 46 r \$1-soutrx2;
#X obj 85 66 r \$1-soutrx3;
#X obj 196 19 r \$1-soutrx4;
#X obj 226 39 r \$1-soutrx5;
#X obj 257 59 r \$1-soutrx6;
#X obj 364 16 r \$1-soutrx7;
#X obj 382 37 r \$1-soutrx8;
#X obj 416 58 r \$1-soutrx9;
#X obj 523 33 r \$1-soutrx10;
#X obj 553 53 r \$1-soutrx11;
#X obj 584 73 r \$1-soutrx12;
#X obj 703 33 r \$1-soutrx13;
#X obj 733 53 r \$1-soutrx14;
#X obj 764 73 r \$1-soutrx15;
#X obj 863 33 r \$1-soutrx16;
#X obj 893 53 r \$1-soutrx17;
#X obj 924 73 r \$1-soutrx18;
#X obj 33 293 r \$1-soutrx19;
#X obj 63 313 r \$1-soutrx20;
#X obj 94 333 r \$1-soutrx21;
#X obj 213 293 r \$1-soutrx22;
#X obj 243 313 r \$1-soutrx23;
#X obj 274 333 r \$1-soutrx24;
#X obj 393 293 r \$1-soutrx25;
#X obj 423 313 r \$1-soutrx26;
#X obj 454 333 r \$1-soutrx27;
#X obj 543 293 r \$1-soutrx28;
#X obj 573 313 r \$1-soutrx29;
#X obj 604 333 r \$1-soutrx30;
#X obj 713 293 r \$1-soutrx31;
#X obj 743 313 r \$1-soutrx32;
#X obj 774 333 r \$1-soutrx33;
#X obj 873 293 r \$1-soutrx34;
#X obj 903 313 r \$1-soutrx35;
#X obj 934 333 r \$1-soutrx36;
#X obj 33 573 r \$1-soutrx37;
#X obj 63 593 r \$1-soutrx38;
#X obj 94 613 r \$1-soutrx39;
#X obj 223 573 r \$1-soutrx40;
#X obj 253 593 r \$1-soutrx41;
#X obj 284 613 r \$1-soutrx42;
#X obj 393 573 r \$1-soutrx43;
#X obj 423 593 r \$1-soutrx44;
#X obj 454 613 r \$1-soutrx45;
#X obj 553 573 r \$1-soutrx46;
#X obj 583 593 r \$1-soutrx47;
#X obj 614 613 r \$1-soutrx48;
#X obj 723 573 r \$1-soutrx49;
#X obj 753 593 r \$1-soutrx50;
#X obj 784 613 r \$1-soutrx51;
#X obj 893 573 r \$1-soutrx52;
#X obj 923 593 r \$1-soutrx53;
#X obj 954 613 r \$1-soutrx54;
#X obj 53 883 r \$1-soutrx55;
#X obj 83 903 r \$1-soutrx56;
#X obj 114 923 r \$1-soutrx57;
#X obj 233 883 r \$1-soutrx58;
#X obj 263 903 r \$1-soutrx59;
#X obj 294 923 r \$1-soutrx60;
#X obj 393 873 r \$1-soutrx61;
#X obj 423 893 r \$1-soutrx62;
#X obj 454 913 r \$1-soutrx63;
#X obj 563 873 r \$1-soutrx64;
#X obj 593 893 r \$1-soutrx65;
#X obj 624 913 r \$1-soutrx66;
#X obj 713 873 r \$1-soutrx67;
#X obj 743 893 r \$1-soutrx68;
#X obj 774 913 r \$1-soutrx69;
#X obj 873 873 r \$1-soutrx70;
#X obj 903 893 r \$1-soutrx71;
#X obj 934 913 r \$1-soutrx72;
#X text 667 236 ^ hier aanvullen ^;
#N canvas 30 18 246 218 cmp 0;
#X obj 42 65 list split 1;
#X obj 88 119 ==;
#X obj 43 151 spigot;
#X obj 43 176 outlet;
#X obj 42 28 inlet;
#X obj 110 30 r \$1-soutarg2;
#X connect 0 0 2 0;
#X connect 0 1 1 0;
#X connect 1 0 2 1;
#X connect 2 0 3 0;
#X connect 4 0 0 0;
#X connect 5 0 1 1;
#X restore 22 100 pd cmp;
#N canvas 355 32 246 300 cmp 0;
#X obj 42 65 list split 1;
#X obj 88 119 ==;
#X obj 43 151 spigot;
#X obj 43 176 outlet;
#X obj 42 28 inlet;
#X obj 110 30 r \$1-soutarg2;
#X connect 0 0 2 0;
#X connect 0 1 1 0;
#X connect 1 0 2 1;
#X connect 2 0 3 0;
#X connect 4 0 0 0;
#X connect 5 0 1 1;
#X restore 42 125 pd cmp;
#N canvas 0 0 246 300 cmp 0;
#X obj 42 65 list split 1;
#X obj 88 119 ==;
#X obj 43 151 spigot;
#X obj 43 176 outlet;
#X obj 42 28 inlet;
#X obj 110 30 r \$1-soutarg2;
#X connect 0 0 2 0;
#X connect 0 1 1 0;
#X connect 1 0 2 1;
#X connect 2 0 3 0;
#X connect 4 0 0 0;
#X connect 5 0 1 1;
#X restore 59 153 pd cmp;
#N canvas 0 0 246 300 cmp 0;
#X obj 42 65 list split 1;
#X obj 88 119 ==;
#X obj 43 151 spigot;
#X obj 43 176 outlet;
#X obj 42 28 inlet;
#X obj 110 30 r \$1-soutarg2;
#X connect 0 0 2 0;
#X connect 0 1 1 0;
#X connect 1 0 2 1;
#X connect 2 0 3 0;
#X connect 4 0 0 0;
#X connect 5 0 1 1;
#X restore 172 100 pd cmp;
#N canvas 0 0 246 300 cmp 0;
#X obj 42 65 list split 1;
#X obj 88 119 ==;
#X obj 43 151 spigot;
#X obj 43 176 outlet;
#X obj 42 28 inlet;
#X obj 110 30 r \$1-soutarg2;
#X connect 0 0 2 0;
#X connect 0 1 1 0;
#X connect 1 0 2 1;
#X connect 2 0 3 0;
#X connect 4 0 0 0;
#X connect 5 0 1 1;
#X restore 192 125 pd cmp;
#N canvas 308 15 246 215 cmp 0;
#X obj 42 65 list split 1;
#X obj 88 119 ==;
#X obj 43 151 spigot;
#X obj 43 176 outlet;
#X obj 42 28 inlet;
#X obj 110 30 r \$1-soutarg2;
#X connect 0 0 2 0;
#X connect 0 1 1 0;
#X connect 1 0 2 1;
#X connect 2 0 3 0;
#X connect 4 0 0 0;
#X connect 5 0 1 1;
#X restore 209 153 pd cmp;
#N canvas 0 0 246 300 cmp 0;
#X obj 42 65 list split 1;
#X obj 88 119 ==;
#X obj 43 151 spigot;
#X obj 43 176 outlet;
#X obj 42 28 inlet;
#X obj 110 30 r \$1-soutarg2;
#X connect 0 0 2 0;
#X connect 0 1 1 0;
#X connect 1 0 2 1;
#X connect 2 0 3 0;
#X connect 4 0 0 0;
#X connect 5 0 1 1;
#X restore 362 100 pd cmp;
#N canvas 0 0 246 300 cmp 0;
#X obj 42 65 list split 1;
#X obj 88 119 ==;
#X obj 43 151 spigot;
#X obj 43 176 outlet;
#X obj 42 28 inlet;
#X obj 110 30 r \$1-soutarg2;
#X connect 0 0 2 0;
#X connect 0 1 1 0;
#X connect 1 0 2 1;
#X connect 2 0 3 0;
#X connect 4 0 0 0;
#X connect 5 0 1 1;
#X restore 382 125 pd cmp;
#N canvas 0 0 246 300 cmp 0;
#X obj 42 65 list split 1;
#X obj 88 119 ==;
#X obj 43 151 spigot;
#X obj 43 176 outlet;
#X obj 42 28 inlet;
#X obj 110 30 r \$1-soutarg2;
#X connect 0 0 2 0;
#X connect 0 1 1 0;
#X connect 1 0 2 1;
#X connect 2 0 3 0;
#X connect 4 0 0 0;
#X connect 5 0 1 1;
#X restore 399 153 pd cmp;
#N canvas 0 0 246 300 cmp 0;
#X obj 42 65 list split 1;
#X obj 88 119 ==;
#X obj 43 151 spigot;
#X obj 43 176 outlet;
#X obj 42 28 inlet;
#X obj 110 30 r \$1-soutarg2;
#X connect 0 0 2 0;
#X connect 0 1 1 0;
#X connect 1 0 2 1;
#X connect 2 0 3 0;
#X connect 4 0 0 0;
#X connect 5 0 1 1;
#X restore 542 110 pd cmp;
#N canvas 0 0 246 300 cmp 0;
#X obj 42 65 list split 1;
#X obj 88 119 ==;
#X obj 43 151 spigot;
#X obj 43 176 outlet;
#X obj 42 28 inlet;
#X obj 110 30 r \$1-soutarg2;
#X connect 0 0 2 0;
#X connect 0 1 1 0;
#X connect 1 0 2 1;
#X connect 2 0 3 0;
#X connect 4 0 0 0;
#X connect 5 0 1 1;
#X restore 562 135 pd cmp;
#N canvas 0 0 246 300 cmp 0;
#X obj 42 65 list split 1;
#X obj 88 119 ==;
#X obj 43 151 spigot;
#X obj 43 176 outlet;
#X obj 42 28 inlet;
#X obj 110 30 r \$1-soutarg2;
#X connect 0 0 2 0;
#X connect 0 1 1 0;
#X connect 1 0 2 1;
#X connect 2 0 3 0;
#X connect 4 0 0 0;
#X connect 5 0 1 1;
#X restore 579 163 pd cmp;
#N canvas 0 0 246 300 cmp 0;
#X obj 42 65 list split 1;
#X obj 88 119 ==;
#X obj 43 151 spigot;
#X obj 43 176 outlet;
#X obj 42 28 inlet;
#X obj 110 30 r \$1-soutarg2;
#X connect 0 0 2 0;
#X connect 0 1 1 0;
#X connect 1 0 2 1;
#X connect 2 0 3 0;
#X connect 4 0 0 0;
#X connect 5 0 1 1;
#X restore 692 110 pd cmp;
#N canvas 0 0 246 300 cmp 0;
#X obj 42 65 list split 1;
#X obj 88 119 ==;
#X obj 43 151 spigot;
#X obj 43 176 outlet;
#X obj 42 28 inlet;
#X obj 110 30 r \$1-soutarg2;
#X connect 0 0 2 0;
#X connect 0 1 1 0;
#X connect 1 0 2 1;
#X connect 2 0 3 0;
#X connect 4 0 0 0;
#X connect 5 0 1 1;
#X restore 712 135 pd cmp;
#N canvas 0 0 246 300 cmp 0;
#X obj 42 65 list split 1;
#X obj 88 119 ==;
#X obj 43 151 spigot;
#X obj 43 176 outlet;
#X obj 42 28 inlet;
#X obj 110 30 r \$1-soutarg2;
#X connect 0 0 2 0;
#X connect 0 1 1 0;
#X connect 1 0 2 1;
#X connect 2 0 3 0;
#X connect 4 0 0 0;
#X connect 5 0 1 1;
#X restore 729 163 pd cmp;
#N canvas 0 0 246 300 cmp 0;
#X obj 42 65 list split 1;
#X obj 88 119 ==;
#X obj 43 151 spigot;
#X obj 43 176 outlet;
#X obj 42 28 inlet;
#X obj 110 30 r \$1-soutarg2;
#X connect 0 0 2 0;
#X connect 0 1 1 0;
#X connect 1 0 2 1;
#X connect 2 0 3 0;
#X connect 4 0 0 0;
#X connect 5 0 1 1;
#X restore 882 100 pd cmp;
#N canvas 0 0 246 300 cmp 0;
#X obj 42 65 list split 1;
#X obj 88 119 ==;
#X obj 43 151 spigot;
#X obj 43 176 outlet;
#X obj 42 28 inlet;
#X obj 110 30 r \$1-soutarg2;
#X connect 0 0 2 0;
#X connect 0 1 1 0;
#X connect 1 0 2 1;
#X connect 2 0 3 0;
#X connect 4 0 0 0;
#X connect 5 0 1 1;
#X restore 902 125 pd cmp;
#N canvas 0 0 246 300 cmp 0;
#X obj 42 65 list split 1;
#X obj 88 119 ==;
#X obj 43 151 spigot;
#X obj 43 176 outlet;
#X obj 42 28 inlet;
#X obj 110 30 r \$1-soutarg2;
#X connect 0 0 2 0;
#X connect 0 1 1 0;
#X connect 1 0 2 1;
#X connect 2 0 3 0;
#X connect 4 0 0 0;
#X connect 5 0 1 1;
#X restore 919 153 pd cmp;
#N canvas 30 18 246 218 cmp 0;
#X obj 42 65 list split 1;
#X obj 88 119 ==;
#X obj 43 151 spigot;
#X obj 43 176 outlet;
#X obj 42 28 inlet;
#X obj 110 30 r \$1-soutarg2;
#X connect 0 0 2 0;
#X connect 0 1 1 0;
#X connect 1 0 2 1;
#X connect 2 0 3 0;
#X connect 4 0 0 0;
#X connect 5 0 1 1;
#X restore 32 370 pd cmp;
#N canvas 355 32 246 300 cmp 0;
#X obj 42 65 list split 1;
#X obj 88 119 ==;
#X obj 43 151 spigot;
#X obj 43 176 outlet;
#X obj 42 28 inlet;
#X obj 110 30 r \$1-soutarg2;
#X connect 0 0 2 0;
#X connect 0 1 1 0;
#X connect 1 0 2 1;
#X connect 2 0 3 0;
#X connect 4 0 0 0;
#X connect 5 0 1 1;
#X restore 52 395 pd cmp;
#N canvas 0 0 246 300 cmp 0;
#X obj 42 65 list split 1;
#X obj 88 119 ==;
#X obj 43 151 spigot;
#X obj 43 176 outlet;
#X obj 42 28 inlet;
#X obj 110 30 r \$1-soutarg2;
#X connect 0 0 2 0;
#X connect 0 1 1 0;
#X connect 1 0 2 1;
#X connect 2 0 3 0;
#X connect 4 0 0 0;
#X connect 5 0 1 1;
#X restore 69 423 pd cmp;
#N canvas 0 0 246 300 cmp 0;
#X obj 42 65 list split 1;
#X obj 88 119 ==;
#X obj 43 151 spigot;
#X obj 43 176 outlet;
#X obj 42 28 inlet;
#X obj 110 30 r \$1-soutarg2;
#X connect 0 0 2 0;
#X connect 0 1 1 0;
#X connect 1 0 2 1;
#X connect 2 0 3 0;
#X connect 4 0 0 0;
#X connect 5 0 1 1;
#X restore 182 370 pd cmp;
#N canvas 0 0 246 300 cmp 0;
#X obj 42 65 list split 1;
#X obj 88 119 ==;
#X obj 43 151 spigot;
#X obj 43 176 outlet;
#X obj 42 28 inlet;
#X obj 110 30 r \$1-soutarg2;
#X connect 0 0 2 0;
#X connect 0 1 1 0;
#X connect 1 0 2 1;
#X connect 2 0 3 0;
#X connect 4 0 0 0;
#X connect 5 0 1 1;
#X restore 202 395 pd cmp;
#N canvas 308 15 246 215 cmp 0;
#X obj 42 65 list split 1;
#X obj 88 119 ==;
#X obj 43 151 spigot;
#X obj 43 176 outlet;
#X obj 42 28 inlet;
#X obj 110 30 r \$1-soutarg2;
#X connect 0 0 2 0;
#X connect 0 1 1 0;
#X connect 1 0 2 1;
#X connect 2 0 3 0;
#X connect 4 0 0 0;
#X connect 5 0 1 1;
#X restore 219 423 pd cmp;
#N canvas 0 0 246 300 cmp 0;
#X obj 42 65 list split 1;
#X obj 88 119 ==;
#X obj 43 151 spigot;
#X obj 43 176 outlet;
#X obj 42 28 inlet;
#X obj 110 30 r \$1-soutarg2;
#X connect 0 0 2 0;
#X connect 0 1 1 0;
#X connect 1 0 2 1;
#X connect 2 0 3 0;
#X connect 4 0 0 0;
#X connect 5 0 1 1;
#X restore 372 370 pd cmp;
#N canvas 0 0 246 300 cmp 0;
#X obj 42 65 list split 1;
#X obj 88 119 ==;
#X obj 43 151 spigot;
#X obj 43 176 outlet;
#X obj 42 28 inlet;
#X obj 110 30 r \$1-soutarg2;
#X connect 0 0 2 0;
#X connect 0 1 1 0;
#X connect 1 0 2 1;
#X connect 2 0 3 0;
#X connect 4 0 0 0;
#X connect 5 0 1 1;
#X restore 392 395 pd cmp;
#N canvas 0 0 246 300 cmp 0;
#X obj 42 65 list split 1;
#X obj 88 119 ==;
#X obj 43 151 spigot;
#X obj 43 176 outlet;
#X obj 42 28 inlet;
#X obj 110 30 r \$1-soutarg2;
#X connect 0 0 2 0;
#X connect 0 1 1 0;
#X connect 1 0 2 1;
#X connect 2 0 3 0;
#X connect 4 0 0 0;
#X connect 5 0 1 1;
#X restore 409 423 pd cmp;
#N canvas 0 0 246 300 cmp 0;
#X obj 42 65 list split 1;
#X obj 88 119 ==;
#X obj 43 151 spigot;
#X obj 43 176 outlet;
#X obj 42 28 inlet;
#X obj 110 30 r \$1-soutarg2;
#X connect 0 0 2 0;
#X connect 0 1 1 0;
#X connect 1 0 2 1;
#X connect 2 0 3 0;
#X connect 4 0 0 0;
#X connect 5 0 1 1;
#X restore 552 380 pd cmp;
#N canvas 0 0 246 300 cmp 0;
#X obj 42 65 list split 1;
#X obj 88 119 ==;
#X obj 43 151 spigot;
#X obj 43 176 outlet;
#X obj 42 28 inlet;
#X obj 110 30 r \$1-soutarg2;
#X connect 0 0 2 0;
#X connect 0 1 1 0;
#X connect 1 0 2 1;
#X connect 2 0 3 0;
#X connect 4 0 0 0;
#X connect 5 0 1 1;
#X restore 572 405 pd cmp;
#N canvas 0 0 246 300 cmp 0;
#X obj 42 65 list split 1;
#X obj 88 119 ==;
#X obj 43 151 spigot;
#X obj 43 176 outlet;
#X obj 42 28 inlet;
#X obj 110 30 r \$1-soutarg2;
#X connect 0 0 2 0;
#X connect 0 1 1 0;
#X connect 1 0 2 1;
#X connect 2 0 3 0;
#X connect 4 0 0 0;
#X connect 5 0 1 1;
#X restore 589 433 pd cmp;
#N canvas 0 0 246 300 cmp 0;
#X obj 42 65 list split 1;
#X obj 88 119 ==;
#X obj 43 151 spigot;
#X obj 43 176 outlet;
#X obj 42 28 inlet;
#X obj 110 30 r \$1-soutarg2;
#X connect 0 0 2 0;
#X connect 0 1 1 0;
#X connect 1 0 2 1;
#X connect 2 0 3 0;
#X connect 4 0 0 0;
#X connect 5 0 1 1;
#X restore 702 380 pd cmp;
#N canvas 0 0 246 300 cmp 0;
#X obj 42 65 list split 1;
#X obj 88 119 ==;
#X obj 43 151 spigot;
#X obj 43 176 outlet;
#X obj 42 28 inlet;
#X obj 110 30 r \$1-soutarg2;
#X connect 0 0 2 0;
#X connect 0 1 1 0;
#X connect 1 0 2 1;
#X connect 2 0 3 0;
#X connect 4 0 0 0;
#X connect 5 0 1 1;
#X restore 722 405 pd cmp;
#N canvas 0 0 246 300 cmp 0;
#X obj 42 65 list split 1;
#X obj 88 119 ==;
#X obj 43 151 spigot;
#X obj 43 176 outlet;
#X obj 42 28 inlet;
#X obj 110 30 r \$1-soutarg2;
#X connect 0 0 2 0;
#X connect 0 1 1 0;
#X connect 1 0 2 1;
#X connect 2 0 3 0;
#X connect 4 0 0 0;
#X connect 5 0 1 1;
#X restore 739 433 pd cmp;
#N canvas 0 0 246 300 cmp 0;
#X obj 42 65 list split 1;
#X obj 88 119 ==;
#X obj 43 151 spigot;
#X obj 43 176 outlet;
#X obj 42 28 inlet;
#X obj 110 30 r \$1-soutarg2;
#X connect 0 0 2 0;
#X connect 0 1 1 0;
#X connect 1 0 2 1;
#X connect 2 0 3 0;
#X connect 4 0 0 0;
#X connect 5 0 1 1;
#X restore 892 370 pd cmp;
#N canvas 0 0 246 300 cmp 0;
#X obj 42 65 list split 1;
#X obj 88 119 ==;
#X obj 43 151 spigot;
#X obj 43 176 outlet;
#X obj 42 28 inlet;
#X obj 110 30 r \$1-soutarg2;
#X connect 0 0 2 0;
#X connect 0 1 1 0;
#X connect 1 0 2 1;
#X connect 2 0 3 0;
#X connect 4 0 0 0;
#X connect 5 0 1 1;
#X restore 912 395 pd cmp;
#N canvas 0 0 246 300 cmp 0;
#X obj 42 65 list split 1;
#X obj 88 119 ==;
#X obj 43 151 spigot;
#X obj 43 176 outlet;
#X obj 42 28 inlet;
#X obj 110 30 r \$1-soutarg2;
#X connect 0 0 2 0;
#X connect 0 1 1 0;
#X connect 1 0 2 1;
#X connect 2 0 3 0;
#X connect 4 0 0 0;
#X connect 5 0 1 1;
#X restore 929 423 pd cmp;
#N canvas 30 18 246 218 cmp 0;
#X obj 42 65 list split 1;
#X obj 88 119 ==;
#X obj 43 151 spigot;
#X obj 43 176 outlet;
#X obj 42 28 inlet;
#X obj 110 30 r \$1-soutarg2;
#X connect 0 0 2 0;
#X connect 0 1 1 0;
#X connect 1 0 2 1;
#X connect 2 0 3 0;
#X connect 4 0 0 0;
#X connect 5 0 1 1;
#X restore 42 650 pd cmp;
#N canvas 355 32 246 300 cmp 0;
#X obj 42 65 list split 1;
#X obj 88 119 ==;
#X obj 43 151 spigot;
#X obj 43 176 outlet;
#X obj 42 28 inlet;
#X obj 110 30 r \$1-soutarg2;
#X connect 0 0 2 0;
#X connect 0 1 1 0;
#X connect 1 0 2 1;
#X connect 2 0 3 0;
#X connect 4 0 0 0;
#X connect 5 0 1 1;
#X restore 62 675 pd cmp;
#N canvas 0 0 246 300 cmp 0;
#X obj 42 65 list split 1;
#X obj 88 119 ==;
#X obj 43 151 spigot;
#X obj 43 176 outlet;
#X obj 42 28 inlet;
#X obj 110 30 r \$1-soutarg2;
#X connect 0 0 2 0;
#X connect 0 1 1 0;
#X connect 1 0 2 1;
#X connect 2 0 3 0;
#X connect 4 0 0 0;
#X connect 5 0 1 1;
#X restore 79 703 pd cmp;
#N canvas 0 0 246 300 cmp 0;
#X obj 42 65 list split 1;
#X obj 88 119 ==;
#X obj 43 151 spigot;
#X obj 43 176 outlet;
#X obj 42 28 inlet;
#X obj 110 30 r \$1-soutarg2;
#X connect 0 0 2 0;
#X connect 0 1 1 0;
#X connect 1 0 2 1;
#X connect 2 0 3 0;
#X connect 4 0 0 0;
#X connect 5 0 1 1;
#X restore 192 650 pd cmp;
#N canvas 0 0 246 300 cmp 0;
#X obj 42 65 list split 1;
#X obj 88 119 ==;
#X obj 43 151 spigot;
#X obj 43 176 outlet;
#X obj 42 28 inlet;
#X obj 110 30 r \$1-soutarg2;
#X connect 0 0 2 0;
#X connect 0 1 1 0;
#X connect 1 0 2 1;
#X connect 2 0 3 0;
#X connect 4 0 0 0;
#X connect 5 0 1 1;
#X restore 212 675 pd cmp;
#N canvas 308 15 246 215 cmp 0;
#X obj 42 65 list split 1;
#X obj 88 119 ==;
#X obj 43 151 spigot;
#X obj 43 176 outlet;
#X obj 42 28 inlet;
#X obj 110 30 r \$1-soutarg2;
#X connect 0 0 2 0;
#X connect 0 1 1 0;
#X connect 1 0 2 1;
#X connect 2 0 3 0;
#X connect 4 0 0 0;
#X connect 5 0 1 1;
#X restore 229 703 pd cmp;
#N canvas 0 0 246 300 cmp 0;
#X obj 42 65 list split 1;
#X obj 88 119 ==;
#X obj 43 151 spigot;
#X obj 43 176 outlet;
#X obj 42 28 inlet;
#X obj 110 30 r \$1-soutarg2;
#X connect 0 0 2 0;
#X connect 0 1 1 0;
#X connect 1 0 2 1;
#X connect 2 0 3 0;
#X connect 4 0 0 0;
#X connect 5 0 1 1;
#X restore 382 650 pd cmp;
#N canvas 0 0 246 300 cmp 0;
#X obj 42 65 list split 1;
#X obj 88 119 ==;
#X obj 43 151 spigot;
#X obj 43 176 outlet;
#X obj 42 28 inlet;
#X obj 110 30 r \$1-soutarg2;
#X connect 0 0 2 0;
#X connect 0 1 1 0;
#X connect 1 0 2 1;
#X connect 2 0 3 0;
#X connect 4 0 0 0;
#X connect 5 0 1 1;
#X restore 402 675 pd cmp;
#N canvas 0 0 246 300 cmp 0;
#X obj 42 65 list split 1;
#X obj 88 119 ==;
#X obj 43 151 spigot;
#X obj 43 176 outlet;
#X obj 42 28 inlet;
#X obj 110 30 r \$1-soutarg2;
#X connect 0 0 2 0;
#X connect 0 1 1 0;
#X connect 1 0 2 1;
#X connect 2 0 3 0;
#X connect 4 0 0 0;
#X connect 5 0 1 1;
#X restore 419 703 pd cmp;
#N canvas 0 0 246 300 cmp 0;
#X obj 42 65 list split 1;
#X obj 88 119 ==;
#X obj 43 151 spigot;
#X obj 43 176 outlet;
#X obj 42 28 inlet;
#X obj 110 30 r \$1-soutarg2;
#X connect 0 0 2 0;
#X connect 0 1 1 0;
#X connect 1 0 2 1;
#X connect 2 0 3 0;
#X connect 4 0 0 0;
#X connect 5 0 1 1;
#X restore 562 660 pd cmp;
#N canvas 0 0 246 300 cmp 0;
#X obj 42 65 list split 1;
#X obj 88 119 ==;
#X obj 43 151 spigot;
#X obj 43 176 outlet;
#X obj 42 28 inlet;
#X obj 110 30 r \$1-soutarg2;
#X connect 0 0 2 0;
#X connect 0 1 1 0;
#X connect 1 0 2 1;
#X connect 2 0 3 0;
#X connect 4 0 0 0;
#X connect 5 0 1 1;
#X restore 582 685 pd cmp;
#N canvas 0 0 246 300 cmp 0;
#X obj 42 65 list split 1;
#X obj 88 119 ==;
#X obj 43 151 spigot;
#X obj 43 176 outlet;
#X obj 42 28 inlet;
#X obj 110 30 r \$1-soutarg2;
#X connect 0 0 2 0;
#X connect 0 1 1 0;
#X connect 1 0 2 1;
#X connect 2 0 3 0;
#X connect 4 0 0 0;
#X connect 5 0 1 1;
#X restore 599 713 pd cmp;
#N canvas 0 0 246 300 cmp 0;
#X obj 42 65 list split 1;
#X obj 88 119 ==;
#X obj 43 151 spigot;
#X obj 43 176 outlet;
#X obj 42 28 inlet;
#X obj 110 30 r \$1-soutarg2;
#X connect 0 0 2 0;
#X connect 0 1 1 0;
#X connect 1 0 2 1;
#X connect 2 0 3 0;
#X connect 4 0 0 0;
#X connect 5 0 1 1;
#X restore 712 660 pd cmp;
#N canvas 0 0 246 300 cmp 0;
#X obj 42 65 list split 1;
#X obj 88 119 ==;
#X obj 43 151 spigot;
#X obj 43 176 outlet;
#X obj 42 28 inlet;
#X obj 110 30 r \$1-soutarg2;
#X connect 0 0 2 0;
#X connect 0 1 1 0;
#X connect 1 0 2 1;
#X connect 2 0 3 0;
#X connect 4 0 0 0;
#X connect 5 0 1 1;
#X restore 732 685 pd cmp;
#N canvas 0 0 246 300 cmp 0;
#X obj 42 65 list split 1;
#X obj 88 119 ==;
#X obj 43 151 spigot;
#X obj 43 176 outlet;
#X obj 42 28 inlet;
#X obj 110 30 r \$1-soutarg2;
#X connect 0 0 2 0;
#X connect 0 1 1 0;
#X connect 1 0 2 1;
#X connect 2 0 3 0;
#X connect 4 0 0 0;
#X connect 5 0 1 1;
#X restore 749 713 pd cmp;
#N canvas 0 0 246 300 cmp 0;
#X obj 42 65 list split 1;
#X obj 88 119 ==;
#X obj 43 151 spigot;
#X obj 43 176 outlet;
#X obj 42 28 inlet;
#X obj 110 30 r \$1-soutarg2;
#X connect 0 0 2 0;
#X connect 0 1 1 0;
#X connect 1 0 2 1;
#X connect 2 0 3 0;
#X connect 4 0 0 0;
#X connect 5 0 1 1;
#X restore 902 650 pd cmp;
#N canvas 0 0 246 300 cmp 0;
#X obj 42 65 list split 1;
#X obj 88 119 ==;
#X obj 43 151 spigot;
#X obj 43 176 outlet;
#X obj 42 28 inlet;
#X obj 110 30 r \$1-soutarg2;
#X connect 0 0 2 0;
#X connect 0 1 1 0;
#X connect 1 0 2 1;
#X connect 2 0 3 0;
#X connect 4 0 0 0;
#X connect 5 0 1 1;
#X restore 922 675 pd cmp;
#N canvas 0 0 246 300 cmp 0;
#X obj 42 65 list split 1;
#X obj 88 119 ==;
#X obj 43 151 spigot;
#X obj 43 176 outlet;
#X obj 42 28 inlet;
#X obj 110 30 r \$1-soutarg2;
#X connect 0 0 2 0;
#X connect 0 1 1 0;
#X connect 1 0 2 1;
#X connect 2 0 3 0;
#X connect 4 0 0 0;
#X connect 5 0 1 1;
#X restore 941 704 pd cmp;
#X obj 23 247 s \$1-soutrlevl;
#X obj 152 209 s \$1-soutrlevr;
#X obj 91 226 s \$1-soutrlink;
#X obj 175 184 s \$1-soutrby;
#X connect 0 0 73 0;
#X connect 1 0 74 0;
#X connect 2 0 75 0;
#X connect 3 0 76 0;
#X connect 4 0 77 0;
#X connect 5 0 78 0;
#X connect 6 0 79 0;
#X connect 7 0 80 0;
#X connect 8 0 81 0;
#X connect 9 0 82 0;
#X connect 10 0 83 0;
#X connect 11 0 84 0;
#X connect 12 0 85 0;
#X connect 13 0 86 0;
#X connect 14 0 87 0;
#X connect 15 0 88 0;
#X connect 16 0 89 0;
#X connect 17 0 90 0;
#X connect 18 0 91 0;
#X connect 19 0 92 0;
#X connect 20 0 93 0;
#X connect 21 0 94 0;
#X connect 22 0 95 0;
#X connect 23 0 96 0;
#X connect 24 0 97 0;
#X connect 25 0 98 0;
#X connect 26 0 99 0;
#X connect 27 0 100 0;
#X connect 28 0 101 0;
#X connect 29 0 102 0;
#X connect 30 0 103 0;
#X connect 31 0 104 0;
#X connect 32 0 105 0;
#X connect 33 0 106 0;
#X connect 34 0 107 0;
#X connect 35 0 108 0;
#X connect 36 0 109 0;
#X connect 37 0 110 0;
#X connect 38 0 111 0;
#X connect 39 0 112 0;
#X connect 40 0 113 0;
#X connect 41 0 114 0;
#X connect 42 0 115 0;
#X connect 43 0 116 0;
#X connect 44 0 117 0;
#X connect 45 0 118 0;
#X connect 46 0 119 0;
#X connect 47 0 120 0;
#X connect 48 0 121 0;
#X connect 49 0 122 0;
#X connect 50 0 123 0;
#X connect 51 0 124 0;
#X connect 52 0 125 0;
#X connect 53 0 126 0;
#X connect 73 0 127 0;
#X connect 74 0 129 0;
#X connect 75 0 128 0;
#X connect 76 0 130 0;
#X restore 251 246 pd receive-normal;
#X text 32 27 !!->;
#N canvas 0 0 246 300 cmp 0;
#X obj 42 65 list split 1;
#X obj 88 119 ==;
#X obj 43 151 spigot;
#X obj 43 176 outlet;
#X obj 42 28 inlet;
#X obj 157 64 inlet;
#X connect 0 0 2 0;
#X connect 0 1 1 0;
#X connect 1 0 2 1;
#X connect 2 0 3 0;
#X connect 4 0 0 0;
#X connect 5 0 1 1;
#X restore 209 94 pd cmp;
#X obj 458 12 loadbang;
#X obj 458 37 f \$2;
#X obj 458 85 s \$1-soutarg2;
#X connect 0 0 9 0;
#X connect 1 1 4 0;
#X connect 4 0 3 0;
#X connect 9 0 1 0;
#X connect 10 0 11 0;
#X connect 11 0 9 1;
#X connect 11 0 12 0;
#X restore 259 282 pd presetsnew;
#X connect 0 0 27 1;
#X connect 1 0 27 0;
#X connect 4 0 8 0;
#X connect 5 0 9 0;
#X connect 8 0 6 0;
#X connect 9 0 7 0;
#X connect 12 0 16 0;
#X connect 13 0 14 0;
#X connect 15 0 12 0;
#X connect 16 0 13 0;
#X connect 27 0 3 0;
#X connect 27 1 2 0;
