#N canvas 748 126 395 226 12;
#N canvas 640 442 609 416 fft 0;
#X obj 19 62 inlet~;
#X obj 85 214 inlet;
#X obj 19 92 rfft~;
#X obj 19 125 *~;
#X obj 50 125 *~;
#X obj 19 155 sqrt~;
#X obj 332 109 block~ 4096 1;
#X obj 19 181 biquad~ 0 0 0 0 1;
#X text 83 93 Fourier series;
#X text 88 146 magnitude;
#X text 86 131 calculate;
#X text 21 3 This subpatch computes the spectrum of the incoming signal
with a (rectangular windowed) FFT. FFTs aren't properly introduced
until much later.;
#X text 83 62 signal to analyze;
#X text 182 166 delay two samples;
#X text 181 182 for better graphing;
#X text 135 216 "bang" into this inlet to graph it;
#X obj 57 276 tabwrite~ \$1-spectrum;
#X text 72 350 ...just a copy E01.spectrum.pd in the doc files by Miller
Puckette;
#X connect 0 0 2 0;
#X connect 1 0 16 0;
#X connect 2 0 3 0;
#X connect 2 0 3 1;
#X connect 2 1 4 0;
#X connect 2 1 4 1;
#X connect 3 0 5 0;
#X connect 4 0 5 0;
#X connect 5 0 7 0;
#X connect 7 0 16 0;
#X restore 60 400 pd fft;
#X obj 25 295 inlet~;
#X obj 87 324 metro 100;
#X obj 87 293 r \$1-spcson;
#X obj 190 293 r \$1-spcsspe;
#X obj 584 41 loadbang;
#X msg 583 69 100;
#X obj 573 109 s \$1-spcrspe;
#X obj 136 360 r \$1-spcssnap;
#X text 29 269 zou nog zoom op Y-as kunnen maken...;
#X obj 161 387 inlet snap;
#X obj 162 416 bang;
#X msg 556 197 \; 1-spectrum bounds 0 4300 255 -40;
#X obj 349 339 t f b;
#X obj 405 365 f \$1;
#X obj 405 416 symbol;
#X obj 319 450 pack f s;
#N canvas 504 71 253 442 na500msdoorlaten 0;
#X obj 106 144 + 1;
#X obj 62 146 f 0;
#X obj 53 90 metro 1;
#X msg 126 84 0;
#X obj 88 200 > 500;
#X obj 63 316 spigot;
#X obj 39 287 f;
#X obj 16 49 t b f b;
#X obj 33 253 select 1;
#X obj 88 225 t f f;
#X msg 142 286 0;
#X obj 16 8 inlet;
#X text 162 203 500 ms;
#X obj 62 351 outlet;
#X connect 0 0 1 1;
#X connect 0 0 4 0;
#X connect 1 0 0 0;
#X connect 2 0 1 0;
#X connect 3 0 1 1;
#X connect 4 0 9 0;
#X connect 5 0 13 0;
#X connect 6 0 5 0;
#X connect 7 0 2 0;
#X connect 7 1 6 1;
#X connect 7 2 3 0;
#X connect 8 0 6 0;
#X connect 8 0 10 0;
#X connect 9 0 8 0;
#X connect 9 1 5 1;
#X connect 10 0 2 0;
#X connect 11 0 7 0;
#X restore 344 314 pd na500msdoorlaten;
#X obj 354 280 r \$1-spcszoom;
#X msg 404 390 \$1-spectrum;
#X msg 315 475 \; \$2 bounds 0 \$1 255 -40;
#X obj 593 158 s \$1-spcrzoom;
#X msg 624 71 3000;
#X obj 562 379 bng 10 250 50 0 \$1-spcsextraoptions empty extra_options
17 7 0 8 -262144 -1 -1;
#N canvas 452 452 837 423 printallreceives 0;
#X obj 35 63 f \$1;
#X obj 33 6 bng 15 250 50 0 empty empty empty 17 7 0 10 -262144 -1
-1;
#X obj 70 173 t f f f f f f f f f;
#X obj 36 87 t f f;
#X obj 166 21 r \$1-spcprintreceives;
#X obj 92 136 print start;
#X obj 49 370 print end;
#X msg 91 109 names of receives in [spectrum \$1]...................>>
;
#X msg 631 240 \$1-spcrwav;
#X msg 518 267 \$1-spcrglide;
#X msg 48 344 <<.........................................[spectrum
\$1];
#X msg 331 279 \$1-spcrglt;
#X msg 184 276 \$1-spcrfreq;
#X msg 45 278 \$1-spcrlev;
#X obj 44 304 print level[0-1];
#X obj 179 304 print pitch[0-127];
#X obj 332 302 print glide_time[0-xxx];
#X obj 525 302 print glide[0-1];
#X obj 634 266 print wave_selector[0-5];
#X obj 10 21 r printreceives;
#X connect 0 0 3 0;
#X connect 1 0 0 0;
#X connect 2 0 10 0;
#X connect 2 4 13 0;
#X connect 2 5 12 0;
#X connect 2 6 11 0;
#X connect 2 7 9 0;
#X connect 2 8 8 0;
#X connect 3 0 2 0;
#X connect 3 1 7 0;
#X connect 4 0 0 0;
#X connect 7 0 5 0;
#X connect 8 0 18 0;
#X connect 9 0 17 0;
#X connect 10 0 6 0;
#X connect 11 0 16 0;
#X connect 12 0 15 0;
#X connect 13 0 14 0;
#X connect 19 0 0 0;
#X restore 535 350 pd printallreceives;
#N canvas 792 487 421 157 \$1-spectrumextra 0;
#X obj 8 72 bng 15 250 50 0 printreceives empty print_all_receives
17 7 0 10 -262144 -1 -1;
#X obj 7 13 bng 15 250 50 0 \$1-spcprintreceives empty print_names_of_receives
17 7 0 10 -262144 -1 -1;
#X text 66 91 (of all objects in open files);
#X text 65 32 (of this 'spectrum' object);
#X restore 553 408 pd \$1-spectrumextra;
#X obj 710 348 f \$1;
#X obj 710 399 symbol;
#X msg 710 424 \; \$1 vis 1;
#X obj 708 325 r \$1-spcsextraoptions;
#X msg 711 373 pd-\$1-spectrumextra;
#N canvas 335 33 859 875 foutmelding 0;
#X obj 87 38 loadbang;
#X obj 79 83 f \$1;
#X obj 73 111 select 0;
#X msg 75 197 \; \$1 vis 1;
#X msg 74 142 36;
#X text 151 150 ascii-code voor $;
#X text 197 199 als er geen argument is \, noemt de subpatch vreemd
genoeg niet pd 0-warning maar wel pd \$1-warning;
#X text 129 80 als er geen argument is geeft f \$1 een 0;
#X obj 154 336 del 100;
#X msg 319 355 1;
#X obj 238 405 spigot;
#X obj 342 453 spigot;
#X obj 409 425 == 0;
#X obj 338 423 r spectrum;
#X obj 240 489 s spectrum;
#X obj 208 305 t b b b;
#X obj 314 389 t f f;
#X obj 241 429 del 150;
#X obj 239 460 f \$1;
#X msg 169 357 0;
#X obj 378 506 == \$1;
#X obj 455 604 > 1;
#X obj 341 478 t f f;
#X obj 391 568 f 0;
#X obj 390 538 select 1;
#X obj 330 541 spigot;
#X obj 459 569 + 1;
#X obj 336 602 == \$1;
#X obj 396 628 &&;
#X obj 158 628 print pop;
#X text 487 604 groter dan 1 want vergelijking et zichzelf levert sowieso
al 1 op en dan met ev. zelfde object met identiek argument levert 2
op!;
#X obj 396 656 select 1;
#X obj 396 678 f \$1;
#X obj 398 768 symbol;
#X msg 396 795 \; \$1 vis 1;
#X obj 363 706 t f f;
#X obj 92 820 symbol;
#X obj 170 872 print;
#X obj 326 662 bng 15 250 50 0 empty empty empty 17 7 0 10 -262144
-1 -1;
#X msg 173 839 !!! these two abunch objects have the same argument
number: [spectrum \$1];
#X text 406 346 alleen net gecreerde object verstuurt waarde;
#X text 398 372 bij eerder gemaakte objecten staat spigot voor receive
open;
#N canvas 670 470 308 138 \$1-spectrumwarning 0;
#X obj -1 0 cnv 15 320 150 empty empty empty 20 12 0 14 -258699 -66577
0;
#X text 11 32 You forgot to add an unique number;
#X text 11 78 when you created this abunch object;
#X restore 349 165 pd \$1-spectrumwarning;
#N canvas 856 445 327 127 \$1-spectrumsameargument 0;
#X obj -1 0 cnv 15 330 150 empty empty empty 20 12 0 14 -258699 -66577
0;
#X msg 393 108;
#X text 314 243 is used already!!;
#X obj 344 35 inlet;
#X symbolatom 351 77 10 0 0 0 - - -;
#X obj 98 40 cnv 15 60 20 empty empty empty 20 12 0 14 -233017 -66577
0;
#X text 24 40 Create an unique number for this;
#X text 102 69 abunch object.;
#X connect 3 0 1 0;
#X connect 3 0 4 0;
#X restore 541 770 pd \$1-spectrumsameargument;
#X msg 397 738 pd-\$1-spectrumsameargument;
#X obj 74 171 makefilename pd-%c1-spectrumwarning;
#X connect 0 0 1 0;
#X connect 0 0 15 0;
#X connect 1 0 2 0;
#X connect 2 0 4 0;
#X connect 4 0 45 0;
#X connect 8 0 19 0;
#X connect 9 0 16 0;
#X connect 10 0 17 0;
#X connect 11 0 22 0;
#X connect 12 0 11 1;
#X connect 13 0 11 0;
#X connect 15 0 8 0;
#X connect 15 1 10 0;
#X connect 15 2 9 0;
#X connect 16 0 10 1;
#X connect 16 1 12 0;
#X connect 17 0 18 0;
#X connect 18 0 14 0;
#X connect 19 0 16 0;
#X connect 20 0 24 0;
#X connect 20 0 25 1;
#X connect 21 0 28 1;
#X connect 22 0 25 0;
#X connect 22 1 20 0;
#X connect 23 0 26 0;
#X connect 24 0 23 0;
#X connect 25 0 27 0;
#X connect 26 0 23 1;
#X connect 26 0 21 0;
#X connect 27 0 28 0;
#X connect 28 0 31 0;
#X connect 31 0 32 0;
#X connect 32 0 35 0;
#X connect 33 0 34 0;
#X connect 35 0 44 0;
#X connect 35 1 39 0;
#X connect 38 0 32 0;
#X connect 39 0 37 0;
#X connect 44 0 33 0;
#X connect 45 0 3 0;
#X restore 567 433 pd foutmelding;
#N canvas 744 585 566 199 needsound 0;
#X obj 22 34 r soundfileyesno;
#X msg 18 67 0;
#X obj 22 138 s answersoundfile;
#X text 63 65 0 = this abunch object doesn't need a sound file (store
in a preset file) \, 1 = it does;
#X connect 0 0 1 0;
#X connect 1 0 2 0;
#X restore 589 325 pd needsound;
#X obj 0 -3 cnv 15 400 260 empty empty empty 20 12 0 14 -204786 -66577
0;
#X text 34 165 |;
#X text 30 181 60;
#X text 207 169 |;
#X text 203 185 96;
#X text 13 165 |;
#X text 9 181 24;
#X obj 328 51 tgl 30 0 \$1-spcson \$1-spcron ON/OFF -10 -15 0 10 -258113
-1 -1 0 1;
#X obj 323 106 nbx 5 14 1 1000 0 0 \$1-spcsspe \$1-spcrspe refresh_rate
-15 -8 0 10 -258113 -1 -1 100 256;
#X text 224 171 ------> midi pitch;
#X text 68 200 Middle;
#X text 224 200 High;
#X text 11 199 Low;
#X obj 328 141 bng 15 250 50 0 \$1-spcssnap empty snap 17 7 0 10 -1
-258113 -1;
#X obj 279 23 vsl 15 140 500 5000 0 0 \$1-spcszoom \$1-spcrzoom zoom
-6 -9 0 12 -258113 -1 -1 7722 1;
#X obj 13 25 cnv 15 257 138 empty empty empty 50 12 0 10 -258699 -143491
0;
#N canvas 0 0 450 300 (subpatch) 0;
#X array \$1-spectrum 256 float 0;
#X coords 0 2999.93 255 -40 257 140 1;
#X restore 12 25 graph;
#N canvas 540 309 293 166 printname 0;
#X obj 54 37 r printallnames;
#X obj 54 107 symbol;
#X obj 54 132 s rallnames;
#X msg 55 72 spectrum;
#X connect 0 0 3 0;
#X connect 1 0 2 0;
#X connect 3 0 1 0;
#X restore 587 458 pd printname;
#N canvas 459 278 588 284 presetsnew 0;
#X obj 210 58 r savepresetn;
#X obj 203 119 t b b b;
#N canvas 30 156 883 470 arraypresets 0;
#X obj 50 178 until;
#X obj 187 183 f \$1;
#X obj 187 233 symbol;
#X obj 50 203 f -1;
#X obj 50 228 + 1;
#X msg 127 167 -1;
#X msg 283 368 add2 \$1;
#X obj 93 -5 inlet;
#X obj 69 267 tabread \$1-spcay;
#X obj 47 102 r \$1-spcssize;
#X obj 50 146 f;
#X obj 357 419 outlet;
#X text 41 83 !! size of array;
#X msg 401 367 add2 () arr 0 0 \$1;
#X obj 93 33 t b b b b b b b b;
#X obj 340 178 until;
#X obj 477 183 f \$1;
#X obj 477 233 symbol;
#X obj 340 203 f -1;
#X obj 340 228 + 1;
#X msg 417 167 -1;
#X obj 359 267 tabread \$1-spcay;
#X obj 337 102 r \$1-spcssize;
#X obj 340 146 f;
#X text 572 208 !!;
#X text 504 267 !!;
#X obj 630 178 until;
#X obj 767 183 f \$1;
#X obj 767 233 symbol;
#X obj 630 203 f -1;
#X obj 630 228 + 1;
#X msg 707 167 -1;
#X obj 649 267 tabread \$1-spcay;
#X obj 627 102 r \$1-spcssize;
#X obj 630 146 f;
#X text 862 208 !!;
#X text 794 267 !!;
#X text 331 84 !! size of array2;
#X text 621 83 !! size of array3;
#X msg 477 208 \$1-spcray2;
#X msg 187 208 \$1-spcray1;
#X msg 767 208 \$1-spcray3;
#X text 234 186 provisionary;
#X text 285 208 name;
#X text 214 267 !!;
#X text 127 289 original array that is saved in presets;
#X connect 0 0 3 0;
#X connect 1 0 40 0;
#X connect 2 0 13 0;
#X connect 3 0 4 0;
#X connect 4 0 3 1;
#X connect 4 0 8 0;
#X connect 5 0 3 1;
#X connect 6 0 11 0;
#X connect 7 0 14 0;
#X connect 8 0 6 0;
#X connect 9 0 10 1;
#X connect 10 0 0 0;
#X connect 13 0 11 0;
#X connect 14 6 10 0;
#X connect 14 7 1 0;
#X connect 14 7 5 0;
#X connect 15 0 18 0;
#X connect 16 0 39 0;
#X connect 17 0 13 0;
#X connect 18 0 19 0;
#X connect 19 0 18 1;
#X connect 19 0 21 0;
#X connect 20 0 18 1;
#X connect 21 0 6 0;
#X connect 22 0 23 1;
#X connect 23 0 15 0;
#X connect 26 0 29 0;
#X connect 27 0 41 0;
#X connect 28 0 13 0;
#X connect 29 0 30 0;
#X connect 30 0 29 1;
#X connect 30 0 32 0;
#X connect 31 0 29 1;
#X connect 32 0 6 0;
#X connect 33 0 34 1;
#X connect 34 0 26 0;
#X connect 39 0 17 0;
#X connect 40 0 2 0;
#X connect 41 0 28 0;
#X restore 46 154 pd arraypresets;
#N canvas 125 79 1041 284 name-sends-normal 0;
#N canvas 0 0 450 300 (subpatch) 0;
#X array \$1-spcbetween 12 float 2;
#X coords 0 10000 12 -10000 20 20 1;
#X restore 15 236 graph;
#X obj 397 546 tabwrite \$1-spcbetween;
#X obj 438 235 unpack f f;
#X obj 98 156 pack f 1;
#X obj 135 178 pack f 2;
#X obj 186 200 pack f 3;
#X obj 236 155 pack f 4;
#X obj 273 177 pack f 5;
#X obj 324 199 pack f 6;
#X obj 368 156 pack f 7;
#X obj 405 178 pack f 8;
#X obj 449 199 pack f 9;
#X obj 508 156 pack f 10;
#X obj 545 178 pack f 11;
#X obj 596 199 pack f 12;
#X obj 665 156 pack f 13;
#X obj 702 178 pack f 14;
#X obj 754 201 pack f 15;
#X obj 798 156 pack f 16;
#X obj 835 179 pack f 17;
#X obj 884 203 pack f 18;
#X obj 438 505 unpack f f;
#X obj 98 426 pack f 19;
#X obj 135 448 pack f 20;
#X obj 186 470 pack f 21;
#X obj 236 425 pack f 22;
#X obj 273 447 pack f 23;
#X obj 324 469 pack f 24;
#X obj 368 426 pack f 25;
#X obj 405 448 pack f 26;
#X obj 449 469 pack f 27;
#X obj 508 426 pack f 28;
#X obj 545 448 pack f 29;
#X obj 596 469 pack f 30;
#X obj 665 426 pack f 31;
#X obj 702 448 pack f 32;
#X obj 754 471 pack f 33;
#X obj 798 426 pack f 34;
#X obj 835 449 pack f 35;
#X obj 886 470 pack f 36;
#X text 38 238 -> adjust size if necessary (standard size = 109);
#X obj 63 35 r \$1-spcsspe;
#X obj 134 61 r \$1-spcson;
#X obj 102 83 r \$1-spcszoom;
#X connect 2 0 1 0;
#X connect 2 1 1 1;
#X connect 3 0 2 0;
#X connect 4 0 2 0;
#X connect 5 0 2 0;
#X connect 6 0 2 0;
#X connect 7 0 2 0;
#X connect 8 0 2 0;
#X connect 9 0 2 0;
#X connect 10 0 2 0;
#X connect 11 0 2 0;
#X connect 12 0 2 0;
#X connect 13 0 2 0;
#X connect 14 0 2 0;
#X connect 15 0 2 0;
#X connect 16 0 2 0;
#X connect 17 0 2 0;
#X connect 18 0 2 0;
#X connect 19 0 2 0;
#X connect 20 0 2 0;
#X connect 21 0 1 0;
#X connect 21 1 1 1;
#X connect 22 0 21 0;
#X connect 23 0 21 0;
#X connect 24 0 21 0;
#X connect 25 0 21 0;
#X connect 26 0 21 0;
#X connect 27 0 21 0;
#X connect 28 0 21 0;
#X connect 29 0 21 0;
#X connect 30 0 21 0;
#X connect 31 0 21 0;
#X connect 32 0 21 0;
#X connect 33 0 21 0;
#X connect 34 0 21 0;
#X connect 35 0 21 0;
#X connect 36 0 21 0;
#X connect 37 0 21 0;
#X connect 38 0 21 0;
#X connect 39 0 21 0;
#X connect 41 0 3 0;
#X connect 42 0 5 0;
#X connect 43 0 4 0;
#X restore 75 27 pd name-sends-normal;
#X obj 223 196 s toextfile;
#N canvas 636 185 560 404 normal 0;
#X obj 278 134 f \$1;
#X obj 237 278 symbol;
#X obj 42 268 list prepend add2;
#X obj 42 293 list trim;
#X obj 188 51 t b b b b b;
#X obj 154 135 f 0;
#X obj 193 135 + 1;
#X msg 181 103 0;
#X msg 240 196 spcrx\$1;
#X obj 237 222 pack s f;
#X msg 237 249 \$2-\$1;
#X obj 131 102 until;
#X obj 193 161 t f f;
#X obj 21 193 tabread \$1-spcbetween;
#X text 151 77 -> aanpassen! aantal op te slagen floats;
#X obj 180 16 inlet;
#X obj 229 345 outlet;
#X msg 235 311 add2 () norm 0 0 \$1;
#X obj 111 76 f 3;
#X connect 0 0 9 1;
#X connect 1 0 17 0;
#X connect 2 0 3 0;
#X connect 3 0 16 0;
#X connect 4 3 18 0;
#X connect 4 4 0 0;
#X connect 4 4 7 0;
#X connect 5 0 6 0;
#X connect 6 0 5 1;
#X connect 6 0 12 0;
#X connect 7 0 5 1;
#X connect 8 0 9 0;
#X connect 9 0 10 0;
#X connect 10 0 1 0;
#X connect 11 0 5 0;
#X connect 12 0 13 0;
#X connect 12 1 8 0;
#X connect 13 0 2 0;
#X connect 15 0 4 0;
#X connect 17 0 16 0;
#X connect 18 0 11 0;
#X restore 217 153 pd normal;
#X text 179 152 !!->;
#X text 212 245 !!->;
#N canvas 49 0 1083 379 receive-normal 0;
#X obj 24 26 r \$1-spcrx1;
#X obj 54 46 r \$1-spcrx2;
#X obj 85 66 r \$1-spcrx3;
#X obj 196 19 r \$1-spcrx4;
#X obj 226 39 r \$1-spcrx5;
#X obj 257 59 r \$1-spcrx6;
#X obj 364 16 r \$1-spcrx7;
#X obj 382 37 r \$1-spcrx8;
#X obj 416 58 r \$1-spcrx9;
#X obj 523 33 r \$1-spcrx10;
#X obj 553 53 r \$1-spcrx11;
#X obj 584 73 r \$1-spcrx12;
#X obj 703 33 r \$1-spcrx13;
#X obj 733 53 r \$1-spcrx14;
#X obj 764 73 r \$1-spcrx15;
#X obj 863 33 r \$1-spcrx16;
#X obj 893 53 r \$1-spcrx17;
#X obj 924 73 r \$1-spcrx18;
#X obj 33 293 r \$1-spcrx19;
#X obj 63 313 r \$1-spcrx20;
#X obj 94 333 r \$1-spcrx21;
#X obj 213 293 r \$1-spcrx22;
#X obj 243 313 r \$1-spcrx23;
#X obj 274 333 r \$1-spcrx24;
#X obj 393 293 r \$1-spcrx25;
#X obj 423 313 r \$1-spcrx26;
#X obj 454 333 r \$1-spcrx27;
#X obj 543 293 r \$1-spcrx28;
#X obj 573 313 r \$1-spcrx29;
#X obj 604 333 r \$1-spcrx30;
#X obj 713 293 r \$1-spcrx31;
#X obj 743 313 r \$1-spcrx32;
#X obj 774 333 r \$1-spcrx33;
#X obj 873 293 r \$1-spcrx34;
#X obj 903 313 r \$1-spcrx35;
#X obj 934 333 r \$1-spcrx36;
#X text 667 236 ^ hier aanvullen ^;
#N canvas 30 18 246 218 cmp 0;
#X obj 42 65 list split 1;
#X obj 88 119 ==;
#X obj 43 151 spigot;
#X obj 43 176 outlet;
#X obj 42 28 inlet;
#X obj 110 30 r \$1-spcarg2;
#X connect 0 0 2 0;
#X connect 0 1 1 0;
#X connect 1 0 2 1;
#X connect 2 0 3 0;
#X connect 4 0 0 0;
#X connect 5 0 1 1;
#X restore 22 100 pd cmp;
#N canvas 355 32 246 300 cmp 0;
#X obj 42 65 list split 1;
#X obj 88 119 ==;
#X obj 43 151 spigot;
#X obj 43 176 outlet;
#X obj 42 28 inlet;
#X obj 110 30 r \$1-spcarg2;
#X connect 0 0 2 0;
#X connect 0 1 1 0;
#X connect 1 0 2 1;
#X connect 2 0 3 0;
#X connect 4 0 0 0;
#X connect 5 0 1 1;
#X restore 42 125 pd cmp;
#N canvas 0 0 246 300 cmp 0;
#X obj 42 65 list split 1;
#X obj 88 119 ==;
#X obj 43 151 spigot;
#X obj 43 176 outlet;
#X obj 42 28 inlet;
#X obj 110 30 r \$1-spcarg2;
#X connect 0 0 2 0;
#X connect 0 1 1 0;
#X connect 1 0 2 1;
#X connect 2 0 3 0;
#X connect 4 0 0 0;
#X connect 5 0 1 1;
#X restore 59 153 pd cmp;
#N canvas 0 0 246 300 cmp 0;
#X obj 42 65 list split 1;
#X obj 88 119 ==;
#X obj 43 151 spigot;
#X obj 43 176 outlet;
#X obj 42 28 inlet;
#X obj 110 30 r \$1-spcarg2;
#X connect 0 0 2 0;
#X connect 0 1 1 0;
#X connect 1 0 2 1;
#X connect 2 0 3 0;
#X connect 4 0 0 0;
#X connect 5 0 1 1;
#X restore 172 100 pd cmp;
#N canvas 0 0 246 300 cmp 0;
#X obj 42 65 list split 1;
#X obj 88 119 ==;
#X obj 43 151 spigot;
#X obj 43 176 outlet;
#X obj 42 28 inlet;
#X obj 110 30 r \$1-spcarg2;
#X connect 0 0 2 0;
#X connect 0 1 1 0;
#X connect 1 0 2 1;
#X connect 2 0 3 0;
#X connect 4 0 0 0;
#X connect 5 0 1 1;
#X restore 192 125 pd cmp;
#N canvas 308 15 246 215 cmp 0;
#X obj 42 65 list split 1;
#X obj 88 119 ==;
#X obj 43 151 spigot;
#X obj 43 176 outlet;
#X obj 42 28 inlet;
#X obj 110 30 r \$1-spcarg2;
#X connect 0 0 2 0;
#X connect 0 1 1 0;
#X connect 1 0 2 1;
#X connect 2 0 3 0;
#X connect 4 0 0 0;
#X connect 5 0 1 1;
#X restore 209 153 pd cmp;
#N canvas 0 0 246 300 cmp 0;
#X obj 42 65 list split 1;
#X obj 88 119 ==;
#X obj 43 151 spigot;
#X obj 43 176 outlet;
#X obj 42 28 inlet;
#X obj 110 30 r \$1-spcarg2;
#X connect 0 0 2 0;
#X connect 0 1 1 0;
#X connect 1 0 2 1;
#X connect 2 0 3 0;
#X connect 4 0 0 0;
#X connect 5 0 1 1;
#X restore 362 100 pd cmp;
#N canvas 0 0 246 300 cmp 0;
#X obj 42 65 list split 1;
#X obj 88 119 ==;
#X obj 43 151 spigot;
#X obj 43 176 outlet;
#X obj 42 28 inlet;
#X obj 110 30 r \$1-spcarg2;
#X connect 0 0 2 0;
#X connect 0 1 1 0;
#X connect 1 0 2 1;
#X connect 2 0 3 0;
#X connect 4 0 0 0;
#X connect 5 0 1 1;
#X restore 382 125 pd cmp;
#N canvas 0 0 246 300 cmp 0;
#X obj 42 65 list split 1;
#X obj 88 119 ==;
#X obj 43 151 spigot;
#X obj 43 176 outlet;
#X obj 42 28 inlet;
#X obj 110 30 r \$1-spcarg2;
#X connect 0 0 2 0;
#X connect 0 1 1 0;
#X connect 1 0 2 1;
#X connect 2 0 3 0;
#X connect 4 0 0 0;
#X connect 5 0 1 1;
#X restore 399 153 pd cmp;
#N canvas 0 0 246 300 cmp 0;
#X obj 42 65 list split 1;
#X obj 88 119 ==;
#X obj 43 151 spigot;
#X obj 43 176 outlet;
#X obj 42 28 inlet;
#X obj 110 30 r \$1-spcarg2;
#X connect 0 0 2 0;
#X connect 0 1 1 0;
#X connect 1 0 2 1;
#X connect 2 0 3 0;
#X connect 4 0 0 0;
#X connect 5 0 1 1;
#X restore 542 110 pd cmp;
#N canvas 0 0 246 300 cmp 0;
#X obj 42 65 list split 1;
#X obj 88 119 ==;
#X obj 43 151 spigot;
#X obj 43 176 outlet;
#X obj 42 28 inlet;
#X obj 110 30 r \$1-spcarg2;
#X connect 0 0 2 0;
#X connect 0 1 1 0;
#X connect 1 0 2 1;
#X connect 2 0 3 0;
#X connect 4 0 0 0;
#X connect 5 0 1 1;
#X restore 562 135 pd cmp;
#N canvas 0 0 246 300 cmp 0;
#X obj 42 65 list split 1;
#X obj 88 119 ==;
#X obj 43 151 spigot;
#X obj 43 176 outlet;
#X obj 42 28 inlet;
#X obj 110 30 r \$1-spcarg2;
#X connect 0 0 2 0;
#X connect 0 1 1 0;
#X connect 1 0 2 1;
#X connect 2 0 3 0;
#X connect 4 0 0 0;
#X connect 5 0 1 1;
#X restore 579 163 pd cmp;
#N canvas 0 0 246 300 cmp 0;
#X obj 42 65 list split 1;
#X obj 88 119 ==;
#X obj 43 151 spigot;
#X obj 43 176 outlet;
#X obj 42 28 inlet;
#X obj 110 30 r \$1-spcarg2;
#X connect 0 0 2 0;
#X connect 0 1 1 0;
#X connect 1 0 2 1;
#X connect 2 0 3 0;
#X connect 4 0 0 0;
#X connect 5 0 1 1;
#X restore 692 110 pd cmp;
#N canvas 0 0 246 300 cmp 0;
#X obj 42 65 list split 1;
#X obj 88 119 ==;
#X obj 43 151 spigot;
#X obj 43 176 outlet;
#X obj 42 28 inlet;
#X obj 110 30 r \$1-spcarg2;
#X connect 0 0 2 0;
#X connect 0 1 1 0;
#X connect 1 0 2 1;
#X connect 2 0 3 0;
#X connect 4 0 0 0;
#X connect 5 0 1 1;
#X restore 712 135 pd cmp;
#N canvas 0 0 246 300 cmp 0;
#X obj 42 65 list split 1;
#X obj 88 119 ==;
#X obj 43 151 spigot;
#X obj 43 176 outlet;
#X obj 42 28 inlet;
#X obj 110 30 r \$1-spcarg2;
#X connect 0 0 2 0;
#X connect 0 1 1 0;
#X connect 1 0 2 1;
#X connect 2 0 3 0;
#X connect 4 0 0 0;
#X connect 5 0 1 1;
#X restore 729 163 pd cmp;
#N canvas 0 0 246 300 cmp 0;
#X obj 42 65 list split 1;
#X obj 88 119 ==;
#X obj 43 151 spigot;
#X obj 43 176 outlet;
#X obj 42 28 inlet;
#X obj 110 30 r \$1-spcarg2;
#X connect 0 0 2 0;
#X connect 0 1 1 0;
#X connect 1 0 2 1;
#X connect 2 0 3 0;
#X connect 4 0 0 0;
#X connect 5 0 1 1;
#X restore 882 100 pd cmp;
#N canvas 0 0 246 300 cmp 0;
#X obj 42 65 list split 1;
#X obj 88 119 ==;
#X obj 43 151 spigot;
#X obj 43 176 outlet;
#X obj 42 28 inlet;
#X obj 110 30 r \$1-spcarg2;
#X connect 0 0 2 0;
#X connect 0 1 1 0;
#X connect 1 0 2 1;
#X connect 2 0 3 0;
#X connect 4 0 0 0;
#X connect 5 0 1 1;
#X restore 902 125 pd cmp;
#N canvas 0 0 246 300 cmp 0;
#X obj 42 65 list split 1;
#X obj 88 119 ==;
#X obj 43 151 spigot;
#X obj 43 176 outlet;
#X obj 42 28 inlet;
#X obj 110 30 r \$1-spcarg2;
#X connect 0 0 2 0;
#X connect 0 1 1 0;
#X connect 1 0 2 1;
#X connect 2 0 3 0;
#X connect 4 0 0 0;
#X connect 5 0 1 1;
#X restore 919 153 pd cmp;
#N canvas 30 18 246 218 cmp 0;
#X obj 42 65 list split 1;
#X obj 88 119 ==;
#X obj 43 151 spigot;
#X obj 43 176 outlet;
#X obj 42 28 inlet;
#X obj 110 30 r \$1-spcarg2;
#X connect 0 0 2 0;
#X connect 0 1 1 0;
#X connect 1 0 2 1;
#X connect 2 0 3 0;
#X connect 4 0 0 0;
#X connect 5 0 1 1;
#X restore 32 370 pd cmp;
#N canvas 355 32 246 300 cmp 0;
#X obj 42 65 list split 1;
#X obj 88 119 ==;
#X obj 43 151 spigot;
#X obj 43 176 outlet;
#X obj 42 28 inlet;
#X obj 110 30 r \$1-spcarg2;
#X connect 0 0 2 0;
#X connect 0 1 1 0;
#X connect 1 0 2 1;
#X connect 2 0 3 0;
#X connect 4 0 0 0;
#X connect 5 0 1 1;
#X restore 52 395 pd cmp;
#N canvas 0 0 246 300 cmp 0;
#X obj 42 65 list split 1;
#X obj 88 119 ==;
#X obj 43 151 spigot;
#X obj 43 176 outlet;
#X obj 42 28 inlet;
#X obj 110 30 r \$1-spcarg2;
#X connect 0 0 2 0;
#X connect 0 1 1 0;
#X connect 1 0 2 1;
#X connect 2 0 3 0;
#X connect 4 0 0 0;
#X connect 5 0 1 1;
#X restore 69 423 pd cmp;
#N canvas 0 0 246 300 cmp 0;
#X obj 42 65 list split 1;
#X obj 88 119 ==;
#X obj 43 151 spigot;
#X obj 43 176 outlet;
#X obj 42 28 inlet;
#X obj 110 30 r \$1-spcarg2;
#X connect 0 0 2 0;
#X connect 0 1 1 0;
#X connect 1 0 2 1;
#X connect 2 0 3 0;
#X connect 4 0 0 0;
#X connect 5 0 1 1;
#X restore 182 370 pd cmp;
#N canvas 0 0 246 300 cmp 0;
#X obj 42 65 list split 1;
#X obj 88 119 ==;
#X obj 43 151 spigot;
#X obj 43 176 outlet;
#X obj 42 28 inlet;
#X obj 110 30 r \$1-spcarg2;
#X connect 0 0 2 0;
#X connect 0 1 1 0;
#X connect 1 0 2 1;
#X connect 2 0 3 0;
#X connect 4 0 0 0;
#X connect 5 0 1 1;
#X restore 202 395 pd cmp;
#N canvas 308 15 246 215 cmp 0;
#X obj 42 65 list split 1;
#X obj 88 119 ==;
#X obj 43 151 spigot;
#X obj 43 176 outlet;
#X obj 42 28 inlet;
#X obj 110 30 r \$1-spcarg2;
#X connect 0 0 2 0;
#X connect 0 1 1 0;
#X connect 1 0 2 1;
#X connect 2 0 3 0;
#X connect 4 0 0 0;
#X connect 5 0 1 1;
#X restore 219 423 pd cmp;
#N canvas 0 0 246 300 cmp 0;
#X obj 42 65 list split 1;
#X obj 88 119 ==;
#X obj 43 151 spigot;
#X obj 43 176 outlet;
#X obj 42 28 inlet;
#X obj 110 30 r \$1-spcarg2;
#X connect 0 0 2 0;
#X connect 0 1 1 0;
#X connect 1 0 2 1;
#X connect 2 0 3 0;
#X connect 4 0 0 0;
#X connect 5 0 1 1;
#X restore 372 370 pd cmp;
#N canvas 0 0 246 300 cmp 0;
#X obj 42 65 list split 1;
#X obj 88 119 ==;
#X obj 43 151 spigot;
#X obj 43 176 outlet;
#X obj 42 28 inlet;
#X obj 110 30 r \$1-spcarg2;
#X connect 0 0 2 0;
#X connect 0 1 1 0;
#X connect 1 0 2 1;
#X connect 2 0 3 0;
#X connect 4 0 0 0;
#X connect 5 0 1 1;
#X restore 392 395 pd cmp;
#N canvas 0 0 246 300 cmp 0;
#X obj 42 65 list split 1;
#X obj 88 119 ==;
#X obj 43 151 spigot;
#X obj 43 176 outlet;
#X obj 42 28 inlet;
#X obj 110 30 r \$1-spcarg2;
#X connect 0 0 2 0;
#X connect 0 1 1 0;
#X connect 1 0 2 1;
#X connect 2 0 3 0;
#X connect 4 0 0 0;
#X connect 5 0 1 1;
#X restore 409 423 pd cmp;
#N canvas 0 0 246 300 cmp 0;
#X obj 42 65 list split 1;
#X obj 88 119 ==;
#X obj 43 151 spigot;
#X obj 43 176 outlet;
#X obj 42 28 inlet;
#X obj 110 30 r \$1-spcarg2;
#X connect 0 0 2 0;
#X connect 0 1 1 0;
#X connect 1 0 2 1;
#X connect 2 0 3 0;
#X connect 4 0 0 0;
#X connect 5 0 1 1;
#X restore 552 380 pd cmp;
#N canvas 0 0 246 300 cmp 0;
#X obj 42 65 list split 1;
#X obj 88 119 ==;
#X obj 43 151 spigot;
#X obj 43 176 outlet;
#X obj 42 28 inlet;
#X obj 110 30 r \$1-spcarg2;
#X connect 0 0 2 0;
#X connect 0 1 1 0;
#X connect 1 0 2 1;
#X connect 2 0 3 0;
#X connect 4 0 0 0;
#X connect 5 0 1 1;
#X restore 572 405 pd cmp;
#N canvas 0 0 246 300 cmp 0;
#X obj 42 65 list split 1;
#X obj 88 119 ==;
#X obj 43 151 spigot;
#X obj 43 176 outlet;
#X obj 42 28 inlet;
#X obj 110 30 r \$1-spcarg2;
#X connect 0 0 2 0;
#X connect 0 1 1 0;
#X connect 1 0 2 1;
#X connect 2 0 3 0;
#X connect 4 0 0 0;
#X connect 5 0 1 1;
#X restore 589 433 pd cmp;
#N canvas 0 0 246 300 cmp 0;
#X obj 42 65 list split 1;
#X obj 88 119 ==;
#X obj 43 151 spigot;
#X obj 43 176 outlet;
#X obj 42 28 inlet;
#X obj 110 30 r \$1-spcarg2;
#X connect 0 0 2 0;
#X connect 0 1 1 0;
#X connect 1 0 2 1;
#X connect 2 0 3 0;
#X connect 4 0 0 0;
#X connect 5 0 1 1;
#X restore 702 380 pd cmp;
#N canvas 0 0 246 300 cmp 0;
#X obj 42 65 list split 1;
#X obj 88 119 ==;
#X obj 43 151 spigot;
#X obj 43 176 outlet;
#X obj 42 28 inlet;
#X obj 110 30 r \$1-spcarg2;
#X connect 0 0 2 0;
#X connect 0 1 1 0;
#X connect 1 0 2 1;
#X connect 2 0 3 0;
#X connect 4 0 0 0;
#X connect 5 0 1 1;
#X restore 722 405 pd cmp;
#N canvas 0 0 246 300 cmp 0;
#X obj 42 65 list split 1;
#X obj 88 119 ==;
#X obj 43 151 spigot;
#X obj 43 176 outlet;
#X obj 42 28 inlet;
#X obj 110 30 r \$1-spcarg2;
#X connect 0 0 2 0;
#X connect 0 1 1 0;
#X connect 1 0 2 1;
#X connect 2 0 3 0;
#X connect 4 0 0 0;
#X connect 5 0 1 1;
#X restore 739 433 pd cmp;
#N canvas 0 0 246 300 cmp 0;
#X obj 42 65 list split 1;
#X obj 88 119 ==;
#X obj 43 151 spigot;
#X obj 43 176 outlet;
#X obj 42 28 inlet;
#X obj 110 30 r \$1-spcarg2;
#X connect 0 0 2 0;
#X connect 0 1 1 0;
#X connect 1 0 2 1;
#X connect 2 0 3 0;
#X connect 4 0 0 0;
#X connect 5 0 1 1;
#X restore 892 370 pd cmp;
#N canvas 0 0 246 300 cmp 0;
#X obj 42 65 list split 1;
#X obj 88 119 ==;
#X obj 43 151 spigot;
#X obj 43 176 outlet;
#X obj 42 28 inlet;
#X obj 110 30 r \$1-spcarg2;
#X connect 0 0 2 0;
#X connect 0 1 1 0;
#X connect 1 0 2 1;
#X connect 2 0 3 0;
#X connect 4 0 0 0;
#X connect 5 0 1 1;
#X restore 912 395 pd cmp;
#N canvas 0 0 246 300 cmp 0;
#X obj 42 65 list split 1;
#X obj 88 119 ==;
#X obj 43 151 spigot;
#X obj 43 176 outlet;
#X obj 42 28 inlet;
#X obj 110 30 r \$1-spcarg2;
#X connect 0 0 2 0;
#X connect 0 1 1 0;
#X connect 1 0 2 1;
#X connect 2 0 3 0;
#X connect 4 0 0 0;
#X connect 5 0 1 1;
#X restore 929 423 pd cmp;
#X obj 26 197 s \$1-spcrspe;
#X obj 46 246 s \$1-spcrzoom;
#X obj 61 221 s \$1-spcron;
#X connect 0 0 37 0;
#X connect 1 0 38 0;
#X connect 2 0 39 0;
#X connect 3 0 40 0;
#X connect 4 0 41 0;
#X connect 5 0 42 0;
#X connect 6 0 43 0;
#X connect 7 0 44 0;
#X connect 8 0 45 0;
#X connect 9 0 46 0;
#X connect 10 0 47 0;
#X connect 11 0 48 0;
#X connect 12 0 49 0;
#X connect 13 0 50 0;
#X connect 14 0 51 0;
#X connect 15 0 52 0;
#X connect 16 0 53 0;
#X connect 17 0 54 0;
#X connect 18 0 55 0;
#X connect 19 0 56 0;
#X connect 20 0 57 0;
#X connect 21 0 58 0;
#X connect 22 0 59 0;
#X connect 23 0 60 0;
#X connect 24 0 61 0;
#X connect 25 0 62 0;
#X connect 26 0 63 0;
#X connect 27 0 64 0;
#X connect 28 0 65 0;
#X connect 29 0 66 0;
#X connect 30 0 67 0;
#X connect 31 0 68 0;
#X connect 32 0 69 0;
#X connect 33 0 70 0;
#X connect 34 0 71 0;
#X connect 35 0 72 0;
#X connect 37 0 73 0;
#X connect 38 0 74 0;
#X connect 39 0 75 0;
#X restore 251 246 pd receive-normal;
#X text 4 153 !!->;
#X text 32 27 !!->;
#N canvas 0 0 246 300 cmp 0;
#X obj 42 65 list split 1;
#X obj 88 119 ==;
#X obj 43 151 spigot;
#X obj 43 176 outlet;
#X obj 42 28 inlet;
#X obj 157 64 inlet;
#X connect 0 0 2 0;
#X connect 0 1 1 0;
#X connect 1 0 2 1;
#X connect 2 0 3 0;
#X connect 4 0 0 0;
#X connect 5 0 1 1;
#X restore 209 94 pd cmp;
#X obj 458 12 loadbang;
#X obj 458 37 f \$2;
#X obj 458 85 s \$1-spcarg2;
#N canvas 623 236 565 271 receive-array 0;
#X obj 46 18 r \$1-spcray1;
#X obj 47 181 list prepend 0;
#X obj 47 206 send \$1-spcay;
#X obj 157 67 list split 1;
#X obj 95 122 ==;
#X obj 175 95 r \$1-spcarg2;
#X obj 47 156 spigot;
#X obj 46 43 t l l;
#X obj 41 72 list split 1;
#X text 169 180 drop the list at index 0 of the array;
#X text 166 205 !! adjust this name of the original saved array;
#X connect 0 0 7 0;
#X connect 1 0 2 0;
#X connect 3 0 4 0;
#X connect 4 0 6 1;
#X connect 5 0 4 1;
#X connect 6 0 1 0;
#X connect 7 0 8 0;
#X connect 7 1 3 0;
#X connect 8 1 6 0;
#X restore 62 248 pd receive-array;
#X text 12 249 !! ->;
#X connect 0 0 11 0;
#X connect 1 1 5 0;
#X connect 2 0 4 0;
#X connect 5 0 4 0;
#X connect 11 0 1 0;
#X connect 12 0 13 0;
#X connect 13 0 11 1;
#X connect 13 0 14 0;
#X restore 572 484 pd presetsnew;
#X obj 644 135 s \$1-spcron;
#X connect 1 0 0 0;
#X connect 2 0 0 1;
#X connect 3 0 2 0;
#X connect 4 0 2 1;
#X connect 5 0 6 0;
#X connect 5 0 22 0;
#X connect 6 0 7 0;
#X connect 8 0 0 1;
#X connect 10 0 11 0;
#X connect 11 0 0 1;
#X connect 13 0 16 0;
#X connect 13 1 14 0;
#X connect 14 0 19 0;
#X connect 15 0 16 1;
#X connect 16 0 20 0;
#X connect 17 0 13 0;
#X connect 18 0 17 0;
#X connect 19 0 15 0;
#X connect 22 0 21 0;
#X connect 26 0 30 0;
#X connect 27 0 28 0;
#X connect 29 0 26 0;
#X connect 30 0 27 0;
