#N canvas 810 14 302 502 12;
#N canvas 614 78 618 429 fmm 0;
#X obj 291 344 outlet~;
#X obj 36 41 inlet pitch;
#X obj 131 34 inlet velo;
#N canvas 143 123 684 363 sixvoicesssssssss 0;
#X obj 108 173 pack f f f;
#X obj 108 75 inlet;
#X obj 10 298 outlet;
#X obj 15 266 unpack f f;
#X obj 106 268 unpack f f;
#X obj 196 269 unpack f f;
#X obj 104 217 route 1 2 3 4 5 6;
#X obj 331 267 unpack f f;
#X obj 422 269 unpack f f;
#X obj 512 270 unpack f f;
#X obj 62 299 outlet;
#X obj 115 301 outlet;
#X obj 167 300 outlet;
#X obj 219 300 outlet;
#X obj 272 300 outlet;
#X obj 325 300 outlet;
#X obj 377 301 outlet;
#X obj 430 303 outlet;
#X obj 482 302 outlet;
#X obj 534 302 outlet;
#X obj 587 302 outlet;
#X obj 108 109 pack;
#X obj 164 75 inlet;
#X obj 108 138 poly 6 1;
#X connect 0 0 6 0;
#X connect 1 0 21 0;
#X connect 3 0 2 0;
#X connect 3 1 10 0;
#X connect 4 0 11 0;
#X connect 4 1 12 0;
#X connect 5 0 13 0;
#X connect 5 1 14 0;
#X connect 6 0 3 0;
#X connect 6 1 4 0;
#X connect 6 2 5 0;
#X connect 6 3 7 0;
#X connect 6 4 8 0;
#X connect 6 5 9 0;
#X connect 7 0 15 0;
#X connect 7 1 16 0;
#X connect 8 0 17 0;
#X connect 8 1 18 0;
#X connect 9 0 19 0;
#X connect 9 1 20 0;
#X connect 21 0 23 0;
#X connect 22 0 21 1;
#X connect 23 0 0 0;
#X connect 23 1 0 1;
#X connect 23 2 0 2;
#X restore 41 97 pd sixvoicesssssssss;
#N canvas 21 83 806 639 voice1 0;
#X obj 56 118 mtof;
#X obj 310 215 osc~;
#X obj 313 151 *;
#X obj 198 504 osc~;
#X obj 214 413 *~;
#X obj 198 441 +~;
#X obj 144 181 line~;
#X obj 188 228 *~;
#X obj 196 560 outlet~;
#X obj 127 379 sig~;
#X obj 321 102 t b f;
#X obj 343 37 inlet ratio;
#X obj 36 41 inlet pitch;
#X obj 129 24 inlet index;
#N canvas 82 92 844 673 adr-velocity-peak 0;
#X obj 108 148 inlet;
#X text 104 123 trigger;
#X obj 108 176 sel 0;
#X obj 495 188 inlet;
#X obj 557 188 inlet;
#X obj 692 187 inlet;
#X msg 108 207 stop;
#X obj 376 590 outlet~;
#X text 34 163 if zero;
#X text 35 180 release;
#X text 15 197 and cancel;
#X text 46 214 decay;
#X text 626 519 on release ramp;
#X text 627 536 back to zero;
#X text 491 166 attack;
#X text 558 165 decay;
#X text 689 166 release;
#X text 197 187 attack;
#X obj 199 208 moses;
#X obj 189 238 t b b;
#X msg 119 453 0;
#X text 10 458 optionally;
#X text 10 474 bash to zero;
#X text 20 444 ATTACK:;
#X text 250 205 test for negative trigger;
#X text 248 229 if so \, zero;
#X text 249 245 the output;
#X text 273 281 in any case;
#X text 276 265 ... do this;
#X obj 223 440 pack 0 f;
#X obj 330 444 del;
#X obj 380 499 pack 0 f;
#X obj 633 493 pack 0 f;
#X msg 180 271 0;
#X obj 243 304 t b f;
#X obj 296 329 / 127;
#X obj 376 565 vline~;
#X obj 219 382 bang;
#X text 44 409 altijd zelfde piek ->;
#X obj 307 353 * 100;
#X msg 224 409 100;
#X obj 337 471 f 100;
#X obj 612 188 inlet sus;
#X connect 0 0 2 0;
#X connect 2 0 6 0;
#X connect 2 0 32 0;
#X connect 2 1 18 0;
#X connect 3 0 29 1;
#X connect 3 0 30 1;
#X connect 4 0 31 1;
#X connect 5 0 32 1;
#X connect 6 0 30 0;
#X connect 18 0 19 0;
#X connect 18 1 34 0;
#X connect 19 0 33 0;
#X connect 19 1 20 0;
#X connect 20 0 36 0;
#X connect 29 0 36 0;
#X connect 30 0 41 0;
#X connect 31 0 36 0;
#X connect 32 0 36 0;
#X connect 33 0 34 0;
#X connect 34 0 30 0;
#X connect 34 1 35 0;
#X connect 35 0 39 0;
#X connect 36 0 7 0;
#X connect 37 0 40 0;
#X connect 39 0 37 0;
#X connect 40 0 29 0;
#X connect 41 0 31 0;
#X connect 42 0 41 1;
#X restore 404 274 pd adr-velocity-peak;
#X obj 211 386 *~;
#N canvas 408 87 792 552 adr-velocity-peak 0;
#X obj 112 57 inlet;
#X text 108 32 trigger;
#X obj 112 85 sel 0;
#X obj 499 97 inlet;
#X obj 561 97 inlet;
#X obj 696 96 inlet;
#X msg 112 116 stop;
#X obj 380 499 outlet~;
#X text 38 72 if zero;
#X text 39 89 release;
#X text 19 106 and cancel;
#X text 50 123 decay;
#X text 630 428 on release ramp;
#X text 631 445 back to zero;
#X text 245 40 ADSR ENVELOPE;
#X text 495 75 attack;
#X text 562 74 decay;
#X text 693 75 release;
#X text 201 96 attack;
#X obj 203 117 moses;
#X obj 193 147 t b b;
#X msg 123 362 0;
#X text 15 345 optionally;
#X text 5 363 bash to zero;
#X text 20 318 ATTACK:;
#X text 254 114 test for negative trigger;
#X text 252 138 if so \, zero;
#X text 253 154 the output;
#X text 277 190 in any case;
#X text 280 174 ... do this;
#X obj 225 379 pack 0 f;
#X obj 334 353 del;
#X obj 355 383 f;
#X obj 384 408 pack 0 f;
#X obj 637 402 pack 0 f;
#X msg 184 180 0;
#X obj 257 229 t b f;
#X obj 298 256 / 127;
#X obj 380 474 vline~;
#X obj 232 302 * 1.2;
#X text 172 303 piek->;
#X obj 234 332 min 1;
#X connect 0 0 2 0;
#X connect 2 0 6 0;
#X connect 2 0 34 0;
#X connect 2 1 19 0;
#X connect 3 0 30 1;
#X connect 3 0 31 1;
#X connect 4 0 33 1;
#X connect 5 0 34 1;
#X connect 6 0 31 0;
#X connect 19 0 20 0;
#X connect 19 1 36 0;
#X connect 20 0 35 0;
#X connect 20 1 21 0;
#X connect 21 0 38 0;
#X connect 30 0 38 0;
#X connect 31 0 32 0;
#X connect 32 0 33 0;
#X connect 33 0 38 0;
#X connect 34 0 38 0;
#X connect 35 0 36 0;
#X connect 36 0 31 0;
#X connect 36 1 37 0;
#X connect 37 0 39 0;
#X connect 37 0 32 1;
#X connect 38 0 7 0;
#X connect 39 0 41 0;
#X connect 41 0 30 0;
#X restore 278 490 pd adr-velocity-peak;
#X obj 197 534 *~;
#X obj 435 34 inlet velo;
#X obj 383 236 r \$1-fm2siatt;
#X obj 498 234 r \$1-fm2sidec;
#X obj 607 234 r \$1-fm2sirel;
#X obj 345 425 r \$1-fm2satt;
#X obj 460 423 r \$1-fm2sdec;
#X obj 569 423 r \$1-fm2srel;
#X obj 410 130 t f f;
#X obj 396 301 dbtorms~;
#X obj 140 151 pack f 300;
#X obj 264 184 sig~;
#X obj 607 191 r \$1-fm2sisus;
#X obj 100 88 f;
#X obj 240 35 t b b;
#X msg 280 60 0;
#X obj 237 9 r openpreset;
#X text 339 8 plaknoot tegengaan bij openen preset;
#X connect 0 0 2 0;
#X connect 0 0 9 0;
#X connect 1 0 4 1;
#X connect 2 0 28 0;
#X connect 2 0 1 0;
#X connect 3 0 17 0;
#X connect 4 0 5 1;
#X connect 5 0 3 0;
#X connect 6 0 7 0;
#X connect 7 0 15 0;
#X connect 9 0 5 0;
#X connect 10 0 2 0;
#X connect 10 1 2 1;
#X connect 11 0 10 0;
#X connect 12 0 0 0;
#X connect 12 0 30 1;
#X connect 13 0 27 0;
#X connect 14 0 26 0;
#X connect 15 0 4 0;
#X connect 16 0 17 1;
#X connect 17 0 8 0;
#X connect 18 0 25 0;
#X connect 19 0 14 1;
#X connect 20 0 14 2;
#X connect 21 0 14 4;
#X connect 22 0 16 1;
#X connect 23 0 16 2;
#X connect 24 0 16 3;
#X connect 25 0 16 0;
#X connect 25 1 14 0;
#X connect 26 0 15 1;
#X connect 27 0 6 0;
#X connect 28 0 7 1;
#X connect 29 0 14 3;
#X connect 30 0 0 0;
#X connect 31 0 30 0;
#X connect 31 1 32 0;
#X connect 32 0 25 0;
#X connect 33 0 31 0;
#X restore 14 193 pd voice1;
#X obj 293 307 *~ 0.2;
#N canvas 21 83 806 639 voice1 0;
#X obj 56 118 mtof;
#X obj 310 215 osc~;
#X obj 313 151 *;
#X obj 198 504 osc~;
#X obj 214 413 *~;
#X obj 198 441 +~;
#X obj 144 181 line~;
#X obj 188 228 *~;
#X obj 196 560 outlet~;
#X obj 127 379 sig~;
#X obj 321 102 t b f;
#X obj 343 37 inlet ratio;
#X obj 36 41 inlet pitch;
#X obj 129 24 inlet index;
#N canvas 82 92 844 673 adr-velocity-peak 0;
#X obj 108 148 inlet;
#X text 104 123 trigger;
#X obj 108 176 sel 0;
#X obj 495 188 inlet;
#X obj 557 188 inlet;
#X obj 692 187 inlet;
#X msg 108 207 stop;
#X obj 376 590 outlet~;
#X text 34 163 if zero;
#X text 35 180 release;
#X text 15 197 and cancel;
#X text 46 214 decay;
#X text 626 519 on release ramp;
#X text 627 536 back to zero;
#X text 491 166 attack;
#X text 558 165 decay;
#X text 689 166 release;
#X text 197 187 attack;
#X obj 199 208 moses;
#X obj 189 238 t b b;
#X msg 119 453 0;
#X text 10 458 optionally;
#X text 10 474 bash to zero;
#X text 20 444 ATTACK:;
#X text 250 205 test for negative trigger;
#X text 248 229 if so \, zero;
#X text 249 245 the output;
#X text 273 281 in any case;
#X text 276 265 ... do this;
#X obj 223 440 pack 0 f;
#X obj 330 444 del;
#X obj 380 499 pack 0 f;
#X obj 633 493 pack 0 f;
#X msg 180 271 0;
#X obj 243 304 t b f;
#X obj 296 329 / 127;
#X obj 376 565 vline~;
#X obj 219 382 bang;
#X text 44 409 altijd zelfde piek ->;
#X obj 307 353 * 100;
#X msg 224 409 100;
#X obj 337 471 f 100;
#X obj 612 188 inlet sus;
#X connect 0 0 2 0;
#X connect 2 0 6 0;
#X connect 2 0 32 0;
#X connect 2 1 18 0;
#X connect 3 0 29 1;
#X connect 3 0 30 1;
#X connect 4 0 31 1;
#X connect 5 0 32 1;
#X connect 6 0 30 0;
#X connect 18 0 19 0;
#X connect 18 1 34 0;
#X connect 19 0 33 0;
#X connect 19 1 20 0;
#X connect 20 0 36 0;
#X connect 29 0 36 0;
#X connect 30 0 41 0;
#X connect 31 0 36 0;
#X connect 32 0 36 0;
#X connect 33 0 34 0;
#X connect 34 0 30 0;
#X connect 34 1 35 0;
#X connect 35 0 39 0;
#X connect 36 0 7 0;
#X connect 37 0 40 0;
#X connect 39 0 37 0;
#X connect 40 0 29 0;
#X connect 41 0 31 0;
#X connect 42 0 41 1;
#X restore 404 274 pd adr-velocity-peak;
#X obj 211 386 *~;
#N canvas 408 87 792 552 adr-velocity-peak 0;
#X obj 112 57 inlet;
#X text 108 32 trigger;
#X obj 112 85 sel 0;
#X obj 499 97 inlet;
#X obj 561 97 inlet;
#X obj 696 96 inlet;
#X msg 112 116 stop;
#X obj 380 499 outlet~;
#X text 38 72 if zero;
#X text 39 89 release;
#X text 19 106 and cancel;
#X text 50 123 decay;
#X text 630 428 on release ramp;
#X text 631 445 back to zero;
#X text 245 40 ADSR ENVELOPE;
#X text 495 75 attack;
#X text 562 74 decay;
#X text 693 75 release;
#X text 201 96 attack;
#X obj 203 117 moses;
#X obj 193 147 t b b;
#X msg 123 362 0;
#X text 15 345 optionally;
#X text 5 363 bash to zero;
#X text 20 318 ATTACK:;
#X text 254 114 test for negative trigger;
#X text 252 138 if so \, zero;
#X text 253 154 the output;
#X text 277 190 in any case;
#X text 280 174 ... do this;
#X obj 225 379 pack 0 f;
#X obj 334 353 del;
#X obj 355 383 f;
#X obj 384 408 pack 0 f;
#X obj 637 402 pack 0 f;
#X msg 184 180 0;
#X obj 257 229 t b f;
#X obj 298 256 / 127;
#X obj 380 474 vline~;
#X obj 232 302 * 1.2;
#X text 172 303 piek->;
#X obj 234 332 min 1;
#X connect 0 0 2 0;
#X connect 2 0 6 0;
#X connect 2 0 34 0;
#X connect 2 1 19 0;
#X connect 3 0 30 1;
#X connect 3 0 31 1;
#X connect 4 0 33 1;
#X connect 5 0 34 1;
#X connect 6 0 31 0;
#X connect 19 0 20 0;
#X connect 19 1 36 0;
#X connect 20 0 35 0;
#X connect 20 1 21 0;
#X connect 21 0 38 0;
#X connect 30 0 38 0;
#X connect 31 0 32 0;
#X connect 32 0 33 0;
#X connect 33 0 38 0;
#X connect 34 0 38 0;
#X connect 35 0 36 0;
#X connect 36 0 31 0;
#X connect 36 1 37 0;
#X connect 37 0 39 0;
#X connect 37 0 32 1;
#X connect 38 0 7 0;
#X connect 39 0 41 0;
#X connect 41 0 30 0;
#X restore 278 490 pd adr-velocity-peak;
#X obj 197 534 *~;
#X obj 435 34 inlet velo;
#X obj 383 236 r \$1-fm2siatt;
#X obj 498 234 r \$1-fm2sidec;
#X obj 607 234 r \$1-fm2sirel;
#X obj 345 425 r \$1-fm2satt;
#X obj 460 423 r \$1-fm2sdec;
#X obj 569 423 r \$1-fm2srel;
#X obj 410 130 t f f;
#X obj 396 301 dbtorms~;
#X obj 140 151 pack f 300;
#X obj 264 184 sig~;
#X obj 607 191 r \$1-fm2sisus;
#X obj 100 88 f;
#X obj 240 35 t b b;
#X msg 280 60 0;
#X obj 237 9 r openpreset;
#X text 339 8 plaknoot tegengaan bij openen preset;
#X connect 0 0 2 0;
#X connect 0 0 9 0;
#X connect 1 0 4 1;
#X connect 2 0 28 0;
#X connect 2 0 1 0;
#X connect 3 0 17 0;
#X connect 4 0 5 1;
#X connect 5 0 3 0;
#X connect 6 0 7 0;
#X connect 7 0 15 0;
#X connect 9 0 5 0;
#X connect 10 0 2 0;
#X connect 10 1 2 1;
#X connect 11 0 10 0;
#X connect 12 0 0 0;
#X connect 12 0 30 1;
#X connect 13 0 27 0;
#X connect 14 0 26 0;
#X connect 15 0 4 0;
#X connect 16 0 17 1;
#X connect 17 0 8 0;
#X connect 18 0 25 0;
#X connect 19 0 14 1;
#X connect 20 0 14 2;
#X connect 21 0 14 4;
#X connect 22 0 16 1;
#X connect 23 0 16 2;
#X connect 24 0 16 3;
#X connect 25 0 16 0;
#X connect 25 1 14 0;
#X connect 26 0 15 1;
#X connect 27 0 6 0;
#X connect 28 0 7 1;
#X connect 29 0 14 3;
#X connect 30 0 0 0;
#X connect 31 0 30 0;
#X connect 31 1 32 0;
#X connect 32 0 25 0;
#X connect 33 0 31 0;
#X restore 114 191 pd voice1;
#N canvas 21 83 806 639 voice1 0;
#X obj 56 118 mtof;
#X obj 310 215 osc~;
#X obj 313 151 *;
#X obj 198 504 osc~;
#X obj 214 413 *~;
#X obj 198 441 +~;
#X obj 144 181 line~;
#X obj 188 228 *~;
#X obj 196 560 outlet~;
#X obj 127 379 sig~;
#X obj 321 102 t b f;
#X obj 343 37 inlet ratio;
#X obj 36 41 inlet pitch;
#X obj 129 24 inlet index;
#N canvas 82 92 844 673 adr-velocity-peak 0;
#X obj 108 148 inlet;
#X text 104 123 trigger;
#X obj 108 176 sel 0;
#X obj 495 188 inlet;
#X obj 557 188 inlet;
#X obj 692 187 inlet;
#X msg 108 207 stop;
#X obj 376 590 outlet~;
#X text 34 163 if zero;
#X text 35 180 release;
#X text 15 197 and cancel;
#X text 46 214 decay;
#X text 626 519 on release ramp;
#X text 627 536 back to zero;
#X text 491 166 attack;
#X text 558 165 decay;
#X text 689 166 release;
#X text 197 187 attack;
#X obj 199 208 moses;
#X obj 189 238 t b b;
#X msg 119 453 0;
#X text 10 458 optionally;
#X text 10 474 bash to zero;
#X text 20 444 ATTACK:;
#X text 250 205 test for negative trigger;
#X text 248 229 if so \, zero;
#X text 249 245 the output;
#X text 273 281 in any case;
#X text 276 265 ... do this;
#X obj 223 440 pack 0 f;
#X obj 330 444 del;
#X obj 380 499 pack 0 f;
#X obj 633 493 pack 0 f;
#X msg 180 271 0;
#X obj 243 304 t b f;
#X obj 296 329 / 127;
#X obj 376 565 vline~;
#X obj 219 382 bang;
#X text 44 409 altijd zelfde piek ->;
#X obj 307 353 * 100;
#X msg 224 409 100;
#X obj 337 471 f 100;
#X obj 612 188 inlet sus;
#X connect 0 0 2 0;
#X connect 2 0 6 0;
#X connect 2 0 32 0;
#X connect 2 1 18 0;
#X connect 3 0 29 1;
#X connect 3 0 30 1;
#X connect 4 0 31 1;
#X connect 5 0 32 1;
#X connect 6 0 30 0;
#X connect 18 0 19 0;
#X connect 18 1 34 0;
#X connect 19 0 33 0;
#X connect 19 1 20 0;
#X connect 20 0 36 0;
#X connect 29 0 36 0;
#X connect 30 0 41 0;
#X connect 31 0 36 0;
#X connect 32 0 36 0;
#X connect 33 0 34 0;
#X connect 34 0 30 0;
#X connect 34 1 35 0;
#X connect 35 0 39 0;
#X connect 36 0 7 0;
#X connect 37 0 40 0;
#X connect 39 0 37 0;
#X connect 40 0 29 0;
#X connect 41 0 31 0;
#X connect 42 0 41 1;
#X restore 404 274 pd adr-velocity-peak;
#X obj 211 386 *~;
#N canvas 408 87 792 552 adr-velocity-peak 0;
#X obj 112 57 inlet;
#X text 108 32 trigger;
#X obj 112 85 sel 0;
#X obj 499 97 inlet;
#X obj 561 97 inlet;
#X obj 696 96 inlet;
#X msg 112 116 stop;
#X obj 380 499 outlet~;
#X text 38 72 if zero;
#X text 39 89 release;
#X text 19 106 and cancel;
#X text 50 123 decay;
#X text 630 428 on release ramp;
#X text 631 445 back to zero;
#X text 245 40 ADSR ENVELOPE;
#X text 495 75 attack;
#X text 562 74 decay;
#X text 693 75 release;
#X text 201 96 attack;
#X obj 203 117 moses;
#X obj 193 147 t b b;
#X msg 123 362 0;
#X text 15 345 optionally;
#X text 5 363 bash to zero;
#X text 20 318 ATTACK:;
#X text 254 114 test for negative trigger;
#X text 252 138 if so \, zero;
#X text 253 154 the output;
#X text 277 190 in any case;
#X text 280 174 ... do this;
#X obj 225 379 pack 0 f;
#X obj 334 353 del;
#X obj 355 383 f;
#X obj 384 408 pack 0 f;
#X obj 637 402 pack 0 f;
#X msg 184 180 0;
#X obj 257 229 t b f;
#X obj 298 256 / 127;
#X obj 380 474 vline~;
#X obj 232 302 * 1.2;
#X text 172 303 piek->;
#X obj 234 332 min 1;
#X connect 0 0 2 0;
#X connect 2 0 6 0;
#X connect 2 0 34 0;
#X connect 2 1 19 0;
#X connect 3 0 30 1;
#X connect 3 0 31 1;
#X connect 4 0 33 1;
#X connect 5 0 34 1;
#X connect 6 0 31 0;
#X connect 19 0 20 0;
#X connect 19 1 36 0;
#X connect 20 0 35 0;
#X connect 20 1 21 0;
#X connect 21 0 38 0;
#X connect 30 0 38 0;
#X connect 31 0 32 0;
#X connect 32 0 33 0;
#X connect 33 0 38 0;
#X connect 34 0 38 0;
#X connect 35 0 36 0;
#X connect 36 0 31 0;
#X connect 36 1 37 0;
#X connect 37 0 39 0;
#X connect 37 0 32 1;
#X connect 38 0 7 0;
#X connect 39 0 41 0;
#X connect 41 0 30 0;
#X restore 278 490 pd adr-velocity-peak;
#X obj 197 534 *~;
#X obj 435 34 inlet velo;
#X obj 383 236 r \$1-fm2siatt;
#X obj 498 234 r \$1-fm2sidec;
#X obj 607 234 r \$1-fm2sirel;
#X obj 345 425 r \$1-fm2satt;
#X obj 460 423 r \$1-fm2sdec;
#X obj 569 423 r \$1-fm2srel;
#X obj 410 130 t f f;
#X obj 396 301 dbtorms~;
#X obj 140 151 pack f 300;
#X obj 264 184 sig~;
#X obj 607 191 r \$1-fm2sisus;
#X obj 100 88 f;
#X obj 240 35 t b b;
#X msg 280 60 0;
#X obj 237 9 r openpreset;
#X text 339 8 plaknoot tegengaan bij openen preset;
#X connect 0 0 2 0;
#X connect 0 0 9 0;
#X connect 1 0 4 1;
#X connect 2 0 28 0;
#X connect 2 0 1 0;
#X connect 3 0 17 0;
#X connect 4 0 5 1;
#X connect 5 0 3 0;
#X connect 6 0 7 0;
#X connect 7 0 15 0;
#X connect 9 0 5 0;
#X connect 10 0 2 0;
#X connect 10 1 2 1;
#X connect 11 0 10 0;
#X connect 12 0 0 0;
#X connect 12 0 30 1;
#X connect 13 0 27 0;
#X connect 14 0 26 0;
#X connect 15 0 4 0;
#X connect 16 0 17 1;
#X connect 17 0 8 0;
#X connect 18 0 25 0;
#X connect 19 0 14 1;
#X connect 20 0 14 2;
#X connect 21 0 14 4;
#X connect 22 0 16 1;
#X connect 23 0 16 2;
#X connect 24 0 16 3;
#X connect 25 0 16 0;
#X connect 25 1 14 0;
#X connect 26 0 15 1;
#X connect 27 0 6 0;
#X connect 28 0 7 1;
#X connect 29 0 14 3;
#X connect 30 0 0 0;
#X connect 31 0 30 0;
#X connect 31 1 32 0;
#X connect 32 0 25 0;
#X connect 33 0 31 0;
#X restore 194 190 pd voice1;
#N canvas 21 83 806 639 voice1 0;
#X obj 56 118 mtof;
#X obj 310 215 osc~;
#X obj 313 151 *;
#X obj 198 504 osc~;
#X obj 214 413 *~;
#X obj 198 441 +~;
#X obj 144 181 line~;
#X obj 188 228 *~;
#X obj 196 560 outlet~;
#X obj 127 379 sig~;
#X obj 321 102 t b f;
#X obj 343 37 inlet ratio;
#X obj 36 41 inlet pitch;
#X obj 129 24 inlet index;
#N canvas 82 92 844 673 adr-velocity-peak 0;
#X obj 108 148 inlet;
#X text 104 123 trigger;
#X obj 108 176 sel 0;
#X obj 495 188 inlet;
#X obj 557 188 inlet;
#X obj 692 187 inlet;
#X msg 108 207 stop;
#X obj 376 590 outlet~;
#X text 34 163 if zero;
#X text 35 180 release;
#X text 15 197 and cancel;
#X text 46 214 decay;
#X text 626 519 on release ramp;
#X text 627 536 back to zero;
#X text 491 166 attack;
#X text 558 165 decay;
#X text 689 166 release;
#X text 197 187 attack;
#X obj 199 208 moses;
#X obj 189 238 t b b;
#X msg 119 453 0;
#X text 10 458 optionally;
#X text 10 474 bash to zero;
#X text 20 444 ATTACK:;
#X text 250 205 test for negative trigger;
#X text 248 229 if so \, zero;
#X text 249 245 the output;
#X text 273 281 in any case;
#X text 276 265 ... do this;
#X obj 223 440 pack 0 f;
#X obj 330 444 del;
#X obj 380 499 pack 0 f;
#X obj 633 493 pack 0 f;
#X msg 180 271 0;
#X obj 243 304 t b f;
#X obj 296 329 / 127;
#X obj 376 565 vline~;
#X obj 219 382 bang;
#X text 44 409 altijd zelfde piek ->;
#X obj 307 353 * 100;
#X msg 224 409 100;
#X obj 337 471 f 100;
#X obj 612 188 inlet sus;
#X connect 0 0 2 0;
#X connect 2 0 6 0;
#X connect 2 0 32 0;
#X connect 2 1 18 0;
#X connect 3 0 29 1;
#X connect 3 0 30 1;
#X connect 4 0 31 1;
#X connect 5 0 32 1;
#X connect 6 0 30 0;
#X connect 18 0 19 0;
#X connect 18 1 34 0;
#X connect 19 0 33 0;
#X connect 19 1 20 0;
#X connect 20 0 36 0;
#X connect 29 0 36 0;
#X connect 30 0 41 0;
#X connect 31 0 36 0;
#X connect 32 0 36 0;
#X connect 33 0 34 0;
#X connect 34 0 30 0;
#X connect 34 1 35 0;
#X connect 35 0 39 0;
#X connect 36 0 7 0;
#X connect 37 0 40 0;
#X connect 39 0 37 0;
#X connect 40 0 29 0;
#X connect 41 0 31 0;
#X connect 42 0 41 1;
#X restore 404 274 pd adr-velocity-peak;
#X obj 211 386 *~;
#N canvas 408 87 792 552 adr-velocity-peak 0;
#X obj 112 57 inlet;
#X text 108 32 trigger;
#X obj 112 85 sel 0;
#X obj 499 97 inlet;
#X obj 561 97 inlet;
#X obj 696 96 inlet;
#X msg 112 116 stop;
#X obj 380 499 outlet~;
#X text 38 72 if zero;
#X text 39 89 release;
#X text 19 106 and cancel;
#X text 50 123 decay;
#X text 630 428 on release ramp;
#X text 631 445 back to zero;
#X text 245 40 ADSR ENVELOPE;
#X text 495 75 attack;
#X text 562 74 decay;
#X text 693 75 release;
#X text 201 96 attack;
#X obj 203 117 moses;
#X obj 193 147 t b b;
#X msg 123 362 0;
#X text 15 345 optionally;
#X text 5 363 bash to zero;
#X text 20 318 ATTACK:;
#X text 254 114 test for negative trigger;
#X text 252 138 if so \, zero;
#X text 253 154 the output;
#X text 277 190 in any case;
#X text 280 174 ... do this;
#X obj 225 379 pack 0 f;
#X obj 334 353 del;
#X obj 355 383 f;
#X obj 384 408 pack 0 f;
#X obj 637 402 pack 0 f;
#X msg 184 180 0;
#X obj 257 229 t b f;
#X obj 298 256 / 127;
#X obj 380 474 vline~;
#X obj 232 302 * 1.2;
#X text 172 303 piek->;
#X obj 234 332 min 1;
#X connect 0 0 2 0;
#X connect 2 0 6 0;
#X connect 2 0 34 0;
#X connect 2 1 19 0;
#X connect 3 0 30 1;
#X connect 3 0 31 1;
#X connect 4 0 33 1;
#X connect 5 0 34 1;
#X connect 6 0 31 0;
#X connect 19 0 20 0;
#X connect 19 1 36 0;
#X connect 20 0 35 0;
#X connect 20 1 21 0;
#X connect 21 0 38 0;
#X connect 30 0 38 0;
#X connect 31 0 32 0;
#X connect 32 0 33 0;
#X connect 33 0 38 0;
#X connect 34 0 38 0;
#X connect 35 0 36 0;
#X connect 36 0 31 0;
#X connect 36 1 37 0;
#X connect 37 0 39 0;
#X connect 37 0 32 1;
#X connect 38 0 7 0;
#X connect 39 0 41 0;
#X connect 41 0 30 0;
#X restore 278 490 pd adr-velocity-peak;
#X obj 197 534 *~;
#X obj 435 34 inlet velo;
#X obj 383 236 r \$1-fm2siatt;
#X obj 498 234 r \$1-fm2sidec;
#X obj 607 234 r \$1-fm2sirel;
#X obj 345 425 r \$1-fm2satt;
#X obj 460 423 r \$1-fm2sdec;
#X obj 569 423 r \$1-fm2srel;
#X obj 410 130 t f f;
#X obj 396 301 dbtorms~;
#X obj 140 151 pack f 300;
#X obj 264 184 sig~;
#X obj 607 191 r \$1-fm2sisus;
#X obj 100 88 f;
#X obj 240 35 t b b;
#X msg 280 60 0;
#X obj 237 9 r openpreset;
#X text 339 8 plaknoot tegengaan bij openen preset;
#X connect 0 0 2 0;
#X connect 0 0 9 0;
#X connect 1 0 4 1;
#X connect 2 0 28 0;
#X connect 2 0 1 0;
#X connect 3 0 17 0;
#X connect 4 0 5 1;
#X connect 5 0 3 0;
#X connect 6 0 7 0;
#X connect 7 0 15 0;
#X connect 9 0 5 0;
#X connect 10 0 2 0;
#X connect 10 1 2 1;
#X connect 11 0 10 0;
#X connect 12 0 0 0;
#X connect 12 0 30 1;
#X connect 13 0 27 0;
#X connect 14 0 26 0;
#X connect 15 0 4 0;
#X connect 16 0 17 1;
#X connect 17 0 8 0;
#X connect 18 0 25 0;
#X connect 19 0 14 1;
#X connect 20 0 14 2;
#X connect 21 0 14 4;
#X connect 22 0 16 1;
#X connect 23 0 16 2;
#X connect 24 0 16 3;
#X connect 25 0 16 0;
#X connect 25 1 14 0;
#X connect 26 0 15 1;
#X connect 27 0 6 0;
#X connect 28 0 7 1;
#X connect 29 0 14 3;
#X connect 30 0 0 0;
#X connect 31 0 30 0;
#X connect 31 1 32 0;
#X connect 32 0 25 0;
#X connect 33 0 31 0;
#X restore 270 191 pd voice1;
#N canvas 21 83 806 639 voice1 0;
#X obj 56 118 mtof;
#X obj 310 215 osc~;
#X obj 313 151 *;
#X obj 198 504 osc~;
#X obj 214 413 *~;
#X obj 198 441 +~;
#X obj 144 181 line~;
#X obj 188 228 *~;
#X obj 196 560 outlet~;
#X obj 127 379 sig~;
#X obj 321 102 t b f;
#X obj 343 37 inlet ratio;
#X obj 36 41 inlet pitch;
#X obj 129 24 inlet index;
#N canvas 82 92 844 673 adr-velocity-peak 0;
#X obj 108 148 inlet;
#X text 104 123 trigger;
#X obj 108 176 sel 0;
#X obj 495 188 inlet;
#X obj 557 188 inlet;
#X obj 692 187 inlet;
#X msg 108 207 stop;
#X obj 376 590 outlet~;
#X text 34 163 if zero;
#X text 35 180 release;
#X text 15 197 and cancel;
#X text 46 214 decay;
#X text 626 519 on release ramp;
#X text 627 536 back to zero;
#X text 491 166 attack;
#X text 558 165 decay;
#X text 689 166 release;
#X text 197 187 attack;
#X obj 199 208 moses;
#X obj 189 238 t b b;
#X msg 119 453 0;
#X text 10 458 optionally;
#X text 10 474 bash to zero;
#X text 20 444 ATTACK:;
#X text 250 205 test for negative trigger;
#X text 248 229 if so \, zero;
#X text 249 245 the output;
#X text 273 281 in any case;
#X text 276 265 ... do this;
#X obj 223 440 pack 0 f;
#X obj 330 444 del;
#X obj 380 499 pack 0 f;
#X obj 633 493 pack 0 f;
#X msg 180 271 0;
#X obj 243 304 t b f;
#X obj 296 329 / 127;
#X obj 376 565 vline~;
#X obj 219 382 bang;
#X text 44 409 altijd zelfde piek ->;
#X obj 307 353 * 100;
#X msg 224 409 100;
#X obj 337 471 f 100;
#X obj 612 188 inlet sus;
#X connect 0 0 2 0;
#X connect 2 0 6 0;
#X connect 2 0 32 0;
#X connect 2 1 18 0;
#X connect 3 0 29 1;
#X connect 3 0 30 1;
#X connect 4 0 31 1;
#X connect 5 0 32 1;
#X connect 6 0 30 0;
#X connect 18 0 19 0;
#X connect 18 1 34 0;
#X connect 19 0 33 0;
#X connect 19 1 20 0;
#X connect 20 0 36 0;
#X connect 29 0 36 0;
#X connect 30 0 41 0;
#X connect 31 0 36 0;
#X connect 32 0 36 0;
#X connect 33 0 34 0;
#X connect 34 0 30 0;
#X connect 34 1 35 0;
#X connect 35 0 39 0;
#X connect 36 0 7 0;
#X connect 37 0 40 0;
#X connect 39 0 37 0;
#X connect 40 0 29 0;
#X connect 41 0 31 0;
#X connect 42 0 41 1;
#X restore 404 274 pd adr-velocity-peak;
#X obj 211 386 *~;
#N canvas 408 87 792 552 adr-velocity-peak 0;
#X obj 112 57 inlet;
#X text 108 32 trigger;
#X obj 112 85 sel 0;
#X obj 499 97 inlet;
#X obj 561 97 inlet;
#X obj 696 96 inlet;
#X msg 112 116 stop;
#X obj 380 499 outlet~;
#X text 38 72 if zero;
#X text 39 89 release;
#X text 19 106 and cancel;
#X text 50 123 decay;
#X text 630 428 on release ramp;
#X text 631 445 back to zero;
#X text 245 40 ADSR ENVELOPE;
#X text 495 75 attack;
#X text 562 74 decay;
#X text 693 75 release;
#X text 201 96 attack;
#X obj 203 117 moses;
#X obj 193 147 t b b;
#X msg 123 362 0;
#X text 15 345 optionally;
#X text 5 363 bash to zero;
#X text 20 318 ATTACK:;
#X text 254 114 test for negative trigger;
#X text 252 138 if so \, zero;
#X text 253 154 the output;
#X text 277 190 in any case;
#X text 280 174 ... do this;
#X obj 225 379 pack 0 f;
#X obj 334 353 del;
#X obj 355 383 f;
#X obj 384 408 pack 0 f;
#X obj 637 402 pack 0 f;
#X msg 184 180 0;
#X obj 257 229 t b f;
#X obj 298 256 / 127;
#X obj 380 474 vline~;
#X obj 232 302 * 1.2;
#X text 172 303 piek->;
#X obj 234 332 min 1;
#X connect 0 0 2 0;
#X connect 2 0 6 0;
#X connect 2 0 34 0;
#X connect 2 1 19 0;
#X connect 3 0 30 1;
#X connect 3 0 31 1;
#X connect 4 0 33 1;
#X connect 5 0 34 1;
#X connect 6 0 31 0;
#X connect 19 0 20 0;
#X connect 19 1 36 0;
#X connect 20 0 35 0;
#X connect 20 1 21 0;
#X connect 21 0 38 0;
#X connect 30 0 38 0;
#X connect 31 0 32 0;
#X connect 32 0 33 0;
#X connect 33 0 38 0;
#X connect 34 0 38 0;
#X connect 35 0 36 0;
#X connect 36 0 31 0;
#X connect 36 1 37 0;
#X connect 37 0 39 0;
#X connect 37 0 32 1;
#X connect 38 0 7 0;
#X connect 39 0 41 0;
#X connect 41 0 30 0;
#X restore 278 490 pd adr-velocity-peak;
#X obj 197 534 *~;
#X obj 435 34 inlet velo;
#X obj 383 236 r \$1-fm2siatt;
#X obj 498 234 r \$1-fm2sidec;
#X obj 607 234 r \$1-fm2sirel;
#X obj 345 425 r \$1-fm2satt;
#X obj 460 423 r \$1-fm2sdec;
#X obj 569 423 r \$1-fm2srel;
#X obj 410 130 t f f;
#X obj 396 301 dbtorms~;
#X obj 140 151 pack f 300;
#X obj 264 184 sig~;
#X obj 607 191 r \$1-fm2sisus;
#X obj 100 88 f;
#X obj 240 35 t b b;
#X msg 280 60 0;
#X obj 237 9 r openpreset;
#X text 339 8 plaknoot tegengaan bij openen preset;
#X connect 0 0 2 0;
#X connect 0 0 9 0;
#X connect 1 0 4 1;
#X connect 2 0 28 0;
#X connect 2 0 1 0;
#X connect 3 0 17 0;
#X connect 4 0 5 1;
#X connect 5 0 3 0;
#X connect 6 0 7 0;
#X connect 7 0 15 0;
#X connect 9 0 5 0;
#X connect 10 0 2 0;
#X connect 10 1 2 1;
#X connect 11 0 10 0;
#X connect 12 0 0 0;
#X connect 12 0 30 1;
#X connect 13 0 27 0;
#X connect 14 0 26 0;
#X connect 15 0 4 0;
#X connect 16 0 17 1;
#X connect 17 0 8 0;
#X connect 18 0 25 0;
#X connect 19 0 14 1;
#X connect 20 0 14 2;
#X connect 21 0 14 4;
#X connect 22 0 16 1;
#X connect 23 0 16 2;
#X connect 24 0 16 3;
#X connect 25 0 16 0;
#X connect 25 1 14 0;
#X connect 26 0 15 1;
#X connect 27 0 6 0;
#X connect 28 0 7 1;
#X connect 29 0 14 3;
#X connect 30 0 0 0;
#X connect 31 0 30 0;
#X connect 31 1 32 0;
#X connect 32 0 25 0;
#X connect 33 0 31 0;
#X restore 347 191 pd voice1;
#N canvas 21 83 806 639 voice1 0;
#X obj 56 118 mtof;
#X obj 310 215 osc~;
#X obj 313 151 *;
#X obj 198 504 osc~;
#X obj 214 413 *~;
#X obj 198 441 +~;
#X obj 144 181 line~;
#X obj 188 228 *~;
#X obj 196 560 outlet~;
#X obj 127 379 sig~;
#X obj 321 102 t b f;
#X obj 343 37 inlet ratio;
#X obj 36 41 inlet pitch;
#X obj 129 24 inlet index;
#N canvas 82 92 844 673 adr-velocity-peak 0;
#X obj 108 148 inlet;
#X text 104 123 trigger;
#X obj 108 176 sel 0;
#X obj 495 188 inlet;
#X obj 557 188 inlet;
#X obj 692 187 inlet;
#X msg 108 207 stop;
#X obj 376 590 outlet~;
#X text 34 163 if zero;
#X text 35 180 release;
#X text 15 197 and cancel;
#X text 46 214 decay;
#X text 626 519 on release ramp;
#X text 627 536 back to zero;
#X text 491 166 attack;
#X text 558 165 decay;
#X text 689 166 release;
#X text 197 187 attack;
#X obj 199 208 moses;
#X obj 189 238 t b b;
#X msg 119 453 0;
#X text 10 458 optionally;
#X text 10 474 bash to zero;
#X text 20 444 ATTACK:;
#X text 250 205 test for negative trigger;
#X text 248 229 if so \, zero;
#X text 249 245 the output;
#X text 273 281 in any case;
#X text 276 265 ... do this;
#X obj 223 440 pack 0 f;
#X obj 330 444 del;
#X obj 380 499 pack 0 f;
#X obj 633 493 pack 0 f;
#X msg 180 271 0;
#X obj 243 304 t b f;
#X obj 296 329 / 127;
#X obj 376 565 vline~;
#X obj 219 382 bang;
#X text 44 409 altijd zelfde piek ->;
#X obj 307 353 * 100;
#X msg 224 409 100;
#X obj 337 471 f 100;
#X obj 612 188 inlet sus;
#X connect 0 0 2 0;
#X connect 2 0 6 0;
#X connect 2 0 32 0;
#X connect 2 1 18 0;
#X connect 3 0 29 1;
#X connect 3 0 30 1;
#X connect 4 0 31 1;
#X connect 5 0 32 1;
#X connect 6 0 30 0;
#X connect 18 0 19 0;
#X connect 18 1 34 0;
#X connect 19 0 33 0;
#X connect 19 1 20 0;
#X connect 20 0 36 0;
#X connect 29 0 36 0;
#X connect 30 0 41 0;
#X connect 31 0 36 0;
#X connect 32 0 36 0;
#X connect 33 0 34 0;
#X connect 34 0 30 0;
#X connect 34 1 35 0;
#X connect 35 0 39 0;
#X connect 36 0 7 0;
#X connect 37 0 40 0;
#X connect 39 0 37 0;
#X connect 40 0 29 0;
#X connect 41 0 31 0;
#X connect 42 0 41 1;
#X restore 404 274 pd adr-velocity-peak;
#X obj 211 386 *~;
#N canvas 408 87 792 552 adr-velocity-peak 0;
#X obj 112 57 inlet;
#X text 108 32 trigger;
#X obj 112 85 sel 0;
#X obj 499 97 inlet;
#X obj 561 97 inlet;
#X obj 696 96 inlet;
#X msg 112 116 stop;
#X obj 380 499 outlet~;
#X text 38 72 if zero;
#X text 39 89 release;
#X text 19 106 and cancel;
#X text 50 123 decay;
#X text 630 428 on release ramp;
#X text 631 445 back to zero;
#X text 245 40 ADSR ENVELOPE;
#X text 495 75 attack;
#X text 562 74 decay;
#X text 693 75 release;
#X text 201 96 attack;
#X obj 203 117 moses;
#X obj 193 147 t b b;
#X msg 123 362 0;
#X text 15 345 optionally;
#X text 5 363 bash to zero;
#X text 20 318 ATTACK:;
#X text 254 114 test for negative trigger;
#X text 252 138 if so \, zero;
#X text 253 154 the output;
#X text 277 190 in any case;
#X text 280 174 ... do this;
#X obj 225 379 pack 0 f;
#X obj 334 353 del;
#X obj 355 383 f;
#X obj 384 408 pack 0 f;
#X obj 637 402 pack 0 f;
#X msg 184 180 0;
#X obj 257 229 t b f;
#X obj 298 256 / 127;
#X obj 380 474 vline~;
#X obj 232 302 * 1.2;
#X text 172 303 piek->;
#X obj 234 332 min 1;
#X connect 0 0 2 0;
#X connect 2 0 6 0;
#X connect 2 0 34 0;
#X connect 2 1 19 0;
#X connect 3 0 30 1;
#X connect 3 0 31 1;
#X connect 4 0 33 1;
#X connect 5 0 34 1;
#X connect 6 0 31 0;
#X connect 19 0 20 0;
#X connect 19 1 36 0;
#X connect 20 0 35 0;
#X connect 20 1 21 0;
#X connect 21 0 38 0;
#X connect 30 0 38 0;
#X connect 31 0 32 0;
#X connect 32 0 33 0;
#X connect 33 0 38 0;
#X connect 34 0 38 0;
#X connect 35 0 36 0;
#X connect 36 0 31 0;
#X connect 36 1 37 0;
#X connect 37 0 39 0;
#X connect 37 0 32 1;
#X connect 38 0 7 0;
#X connect 39 0 41 0;
#X connect 41 0 30 0;
#X restore 278 490 pd adr-velocity-peak;
#X obj 197 534 *~;
#X obj 435 34 inlet velo;
#X obj 383 236 r \$1-fm2siatt;
#X obj 498 234 r \$1-fm2sidec;
#X obj 607 234 r \$1-fm2sirel;
#X obj 345 425 r \$1-fm2satt;
#X obj 460 423 r \$1-fm2sdec;
#X obj 569 423 r \$1-fm2srel;
#X obj 410 130 t f f;
#X obj 396 301 dbtorms~;
#X obj 140 151 pack f 300;
#X obj 264 184 sig~;
#X obj 607 191 r \$1-fm2sisus;
#X obj 100 88 f;
#X obj 240 35 t b b;
#X msg 280 60 0;
#X obj 237 9 r openpreset;
#X text 339 8 plaknoot tegengaan bij openen preset;
#X connect 0 0 2 0;
#X connect 0 0 9 0;
#X connect 1 0 4 1;
#X connect 2 0 28 0;
#X connect 2 0 1 0;
#X connect 3 0 17 0;
#X connect 4 0 5 1;
#X connect 5 0 3 0;
#X connect 6 0 7 0;
#X connect 7 0 15 0;
#X connect 9 0 5 0;
#X connect 10 0 2 0;
#X connect 10 1 2 1;
#X connect 11 0 10 0;
#X connect 12 0 0 0;
#X connect 12 0 30 1;
#X connect 13 0 27 0;
#X connect 14 0 26 0;
#X connect 15 0 4 0;
#X connect 16 0 17 1;
#X connect 17 0 8 0;
#X connect 18 0 25 0;
#X connect 19 0 14 1;
#X connect 20 0 14 2;
#X connect 21 0 14 4;
#X connect 22 0 16 1;
#X connect 23 0 16 2;
#X connect 24 0 16 3;
#X connect 25 0 16 0;
#X connect 25 1 14 0;
#X connect 26 0 15 1;
#X connect 27 0 6 0;
#X connect 28 0 7 1;
#X connect 29 0 14 3;
#X connect 30 0 0 0;
#X connect 31 0 30 0;
#X connect 31 1 32 0;
#X connect 32 0 25 0;
#X connect 33 0 31 0;
#X restore 425 191 pd voice1;
#X obj 269 107 r \$1-fm2si;
#X obj 371 107 r \$1-fm2sr;
#X connect 1 0 3 0;
#X connect 2 0 3 1;
#X connect 3 0 4 0;
#X connect 3 1 4 3;
#X connect 3 2 6 0;
#X connect 3 3 6 3;
#X connect 3 4 7 0;
#X connect 3 5 7 3;
#X connect 3 6 8 0;
#X connect 3 7 8 3;
#X connect 3 8 9 0;
#X connect 3 9 9 3;
#X connect 3 10 10 0;
#X connect 3 11 10 3;
#X connect 4 0 5 0;
#X connect 5 0 0 0;
#X connect 6 0 5 0;
#X connect 7 0 5 0;
#X connect 8 0 5 0;
#X connect 9 0 5 0;
#X connect 10 0 5 0;
#X connect 11 0 4 1;
#X connect 11 0 6 1;
#X connect 11 0 7 1;
#X connect 11 0 8 1;
#X connect 11 0 9 1;
#X connect 11 0 10 1;
#X connect 12 0 4 2;
#X connect 12 0 6 2;
#X connect 12 0 7 2;
#X connect 12 0 8 2;
#X connect 12 0 9 2;
#X connect 12 0 10 2;
#X restore 43 810 pd fmm;
#X obj 32 684 r \$1-fm2sp;
#X obj 58 857 outlet~;
#X obj 297 647 s \$1-fm2rr;
#X obj 210 646 s \$1-fm2ri;
#X obj 118 645 s \$1-fm2rp;
#X obj 316 579 inlet ratio;
#X obj 27 587 inlet pitch;
#X obj 222 575 inlet index;
#X obj 225 603 / 2;
#X obj 319 607 / 4;
#X obj 1 193 cnv 15 300 140 empty empty index_envelope 50 12 0 10 -258699
-143491 0;
#X obj 1 334 cnv 15 300 170 empty empty amp_envelope 70 12 0 10 -260818
-123526 0;
#X obj 39 382 vsl 15 64 0 1270 0 0 \$1-fm2satt \$1-fm2ratt attack -7
-9 0 10 -262144 -1 -1 0 1;
#X obj 109 384 vsl 15 64 0 1270 0 0 \$1-fm2sdec \$1-fm2rdec decay -7
-9 0 10 -262144 -1 -1 0 1;
#X obj 183 383 vsl 15 64 0 6400 0 0 \$1-fm2srel \$1-fm2rrel release
-12 -9 0 10 -262144 -1 -1 0 1;
#X obj 135 588 inlet velo;
#X obj 29 239 vsl 15 64 0 1270 0 0 \$1-fm2siatt \$1-fm2riatt attack
-9 -9 0 10 -262144 -1 -1 0 1;
#X obj 93 239 vsl 15 64 0 1270 0 0 \$1-fm2sidec \$1-fm2ridec decay
-7 -9 0 10 -262144 -1 -1 0 1;
#X obj 221 240 vsl 15 64 0 6400 0 0 \$1-fm2sirel \$1-fm2rirel release
-12 -9 0 10 -262144 -1 -1 0 1;
#X obj 159 240 vsl 15 64 0 100 0 0 \$1-fm2sisus \$1-fm2risus sustain
-12 -9 0 10 -262144 -1 -1 0 1;
#N canvas 114 62 846 324 presets 0;
#X obj -6 34 r \$1-fm2sp;
#X obj 39 56 r \$1-fm2si;
#X obj 75 78 r \$1-fm2sr;
#N canvas 134 181 1167 654 save_preset_array 0;
#X obj 19 403 inlet gui1;
#X obj 112 405 inlet gui2;
#X obj 197 403 inlet gui3;
#X obj 290 405 inlet gui4;
#X obj 376 406 inlet gui15;
#X obj 469 408 inlet gui6;
#X obj 554 406 inlet gui7;
#X obj 647 408 inlet gui8;
#X obj 732 408 inlet gui9;
#X obj 825 410 inlet gui10;
#X obj 743 446 f;
#X obj 824 448 f;
#X obj 566 443 f;
#X obj 647 445 f;
#X obj 380 439 f;
#X obj 461 441 f;
#X obj 204 438 f;
#X obj 285 440 f;
#X obj 25 443 f;
#X obj 106 445 f;
#X obj 83 109 until;
#X obj 62 173 + 1;
#X obj 89 142 f 0;
#X obj 79 42 bng 15 250 50 0 empty empty empty 17 7 0 10 -262144 -1
-1;
#X obj 571 505 r openpreset;
#X obj 162 18 r savepreset;
#X obj 21 825 outlet gui1;
#X obj 112 827 outlet gui2;
#X obj 201 827 outlet gui3;
#X obj 293 827 outlet gui4;
#X obj 475 827 outlet gui6;
#X obj 384 827 outlet gui5;
#X obj 567 827 outlet gui7;
#X obj 658 827 outlet gui8;
#X obj 748 827 outlet gui9;
#X obj 840 826 outlet gui10;
#X obj 495 598 until;
#X obj 472 657 + 1;
#X obj 499 626 f 0;
#N canvas 45 153 1064 314 router_1inxout 0;
#X obj 231 27 inlet one;
#X obj 339 23 inlet route123;
#X obj 35 211 outlet one;
#X obj 124 210 outlet two;
#X obj 218 211 outlet three;
#X obj 323 211 outlet four;
#X obj 415 210 outlet five;
#X obj 510 211 outlet six;
#X obj 599 210 outlet seven;
#X obj 700 213 outlet eigth;
#X obj 805 212 outlet nine;
#X obj 897 211 outlet ten;
#X obj 361 83 pack;
#X obj 296 57 mod 12;
#X obj 919 239 outlet nine;
#X obj 1011 238 outlet ten;
#X obj 696 86 route 1 2 3 4 5 6 7 8 9 10 11;
#X obj 58 77 route 1 2;
#X obj 961 138 unpack;
#X connect 0 0 13 0;
#X connect 1 0 12 1;
#X connect 12 0 16 0;
#X connect 13 0 12 0;
#X connect 16 0 2 0;
#X connect 16 1 3 0;
#X connect 16 2 4 0;
#X connect 16 3 5 0;
#X connect 16 4 6 0;
#X connect 16 5 7 0;
#X connect 16 6 8 0;
#X connect 16 7 9 0;
#X connect 16 8 10 0;
#X connect 16 9 11 0;
#X connect 16 10 14 0;
#X connect 16 11 18 0;
#X connect 18 1 15 0;
#X restore 340 771 pd router_1inxout;
#X obj 211 106 f 0;
#X obj 335 24 r presetnr;
#X obj 336 49 * 12;
#X obj 334 72 - 12;
#X obj 587 587 f 0;
#X obj 495 685 t f f;
#X obj 85 201 t f f;
#X obj 736 509 bng 15 250 50 0 empty empty empty 17 7 0 10 -262144
-1 -1;
#N canvas 0 0 450 300 (subpatch) 0;
#X array \$1-fm2preset 240 float 2;
#X coords 0 200 239 -1 200 140 1;
#X restore 591 131 graph;
#X obj 66 240 mod 12;
#X text 386 60 -> !!! per 12;
#X text 130 240 -> !!! per 12;
#X text 511 773 -> !!! hierin ook per 12;
#X msg 133 82 12;
#X text 174 83 -> !!! per 12;
#X text 579 54 max 12 parameters/waarden voor array/presets;
#X obj 302 204 symbol;
#X obj 403 183 symbol;
#X obj 345 245 pack s s;
#X obj 402 153 r namepreset;
#X obj 294 155 f \$1;
#X obj 167 43 t b b b;
#X obj 570 546 t b b b;
#X text 130 312 -> !!! per 12;
#X obj 716 628 symbol;
#X obj 756 655 pack s s;
#X obj 827 582 r namepreset;
#X obj 662 578 f \$1;
#X obj 152 163 print bng;
#X obj 819 618 symbol;
#X msg 319 272 \; \$1 write presets/\$2-\$1.txt;
#X msg 750 686 \; \$1 read presets/\$2-\$1.txt;
#X msg 294 182 \$1-fm2preset;
#X obj 225 534 tabwrite \$1-fm2preset;
#X msg 675 604 \$1-fm2preset;
#X obj 449 736 tabread \$1-fm2preset;
#X msg 528 575 12;
#X obj 931 444 f;
#X obj 1012 446 f;
#X obj 920 406 inlet gui11;
#X obj 1013 408 inlet gui12;
#X obj 940 828 outlet gui9;
#X obj 1032 827 outlet gui10;
#X obj 56 331 select 1 2 3 4 5 6 7 8 9 10 11;
#X obj 979 379 bang;
#X connect 0 0 18 1;
#X connect 1 0 19 1;
#X connect 2 0 16 1;
#X connect 3 0 17 1;
#X connect 4 0 14 1;
#X connect 5 0 15 1;
#X connect 6 0 12 1;
#X connect 7 0 13 1;
#X connect 8 0 10 1;
#X connect 9 0 11 1;
#X connect 10 0 73 0;
#X connect 11 0 73 0;
#X connect 12 0 73 0;
#X connect 13 0 73 0;
#X connect 14 0 73 0;
#X connect 15 0 73 0;
#X connect 16 0 73 0;
#X connect 17 0 73 0;
#X connect 18 0 73 0;
#X connect 19 0 73 0;
#X connect 20 0 22 0;
#X connect 21 0 22 1;
#X connect 21 0 46 0;
#X connect 22 0 21 0;
#X connect 23 0 20 0;
#X connect 24 0 62 0;
#X connect 25 0 61 0;
#X connect 36 0 38 0;
#X connect 37 0 38 1;
#X connect 37 0 45 0;
#X connect 38 0 37 0;
#X connect 39 0 26 0;
#X connect 39 1 27 0;
#X connect 39 2 28 0;
#X connect 39 3 29 0;
#X connect 39 4 31 0;
#X connect 39 5 30 0;
#X connect 39 6 32 0;
#X connect 39 7 33 0;
#X connect 39 8 34 0;
#X connect 39 9 35 0;
#X connect 39 10 81 0;
#X connect 39 11 82 0;
#X connect 40 0 22 1;
#X connect 41 0 42 0;
#X connect 42 0 43 0;
#X connect 43 0 40 1;
#X connect 43 0 44 1;
#X connect 44 0 38 1;
#X connect 45 0 39 0;
#X connect 45 1 75 0;
#X connect 46 0 49 0;
#X connect 46 1 73 1;
#X connect 47 0 62 0;
#X connect 49 0 83 0;
#X connect 53 0 20 0;
#X connect 56 0 58 0;
#X connect 57 0 58 1;
#X connect 58 0 70 0;
#X connect 59 0 57 0;
#X connect 60 0 72 0;
#X connect 61 0 60 0;
#X connect 61 0 68 0;
#X connect 61 1 53 0;
#X connect 61 2 40 0;
#X connect 62 0 76 0;
#X connect 62 1 44 0;
#X connect 62 2 67 0;
#X connect 64 0 65 0;
#X connect 65 0 71 0;
#X connect 66 0 69 0;
#X connect 67 0 74 0;
#X connect 69 0 65 1;
#X connect 72 0 56 0;
#X connect 74 0 64 0;
#X connect 75 0 39 1;
#X connect 76 0 36 0;
#X connect 77 0 73 0;
#X connect 78 0 73 0;
#X connect 79 0 77 1;
#X connect 80 0 78 1;
#X connect 83 0 18 0;
#X connect 83 1 19 0;
#X connect 83 2 16 0;
#X connect 83 3 17 0;
#X connect 83 4 14 0;
#X connect 83 5 15 0;
#X connect 83 6 12 0;
#X connect 83 7 13 0;
#X connect 83 8 10 0;
#X connect 83 9 11 0;
#X connect 83 10 77 0;
#X connect 83 11 84 0;
#X connect 84 0 78 0;
#X restore 162 120 pd save_preset_array;
#X obj 69 256 s \$1-fm2rr;
#X obj 41 225 s \$1-fm2ri;
#X obj -1 202 s \$1-fm2rp;
#X obj 167 20 r \$1-fm2siatt;
#X obj 197 42 r \$1-fm2sidec;
#X obj 220 65 r \$1-fm2sirel;
#X obj 409 39 r \$1-fm2satt;
#X obj 428 62 r \$1-fm2sdec;
#X obj 564 17 r \$1-fm2srel;
#X obj 149 192 s \$1-fm2riatt;
#X obj 206 240 s \$1-fm2rirel;
#X obj 176 217 s \$1-fm2ridec;
#X obj 361 216 s \$1-fm2ratt;
#X obj 394 242 s \$1-fm2rdec;
#X obj 486 197 s \$1-fm2rrel;
#X obj 393 17 r \$1-fm2sisus;
#X obj 323 193 s \$1-fm2risus;
#X connect 0 0 3 0;
#X connect 1 0 3 1;
#X connect 2 0 3 2;
#X connect 3 0 6 0;
#X connect 3 1 5 0;
#X connect 3 2 4 0;
#X connect 3 3 13 0;
#X connect 3 4 15 0;
#X connect 3 5 14 0;
#X connect 3 6 20 0;
#X connect 3 7 16 0;
#X connect 3 8 17 0;
#X connect 3 9 18 0;
#X connect 7 0 3 3;
#X connect 8 0 3 4;
#X connect 9 0 3 5;
#X connect 10 0 3 7;
#X connect 11 0 3 8;
#X connect 12 0 3 9;
#X connect 19 0 3 6;
#X restore 473 587 pd presets;
#X obj 1 2 cnv 15 300 190 empty empty empty 70 12 0 10 -260818 -123526
0;
#X obj 37 35 vsl 15 128 0 127 0 0 \$1-fm2sp \$1-fm2rp pitch -7 -12
0 10 -262144 -1 -1 0 1;
#X obj 99 34 vsl 15 129 0 64 0 0 \$1-fm2si \$1-fm2ri index -7 -12 0
10 -262144 -1 -1 0 1;
#X obj 162 34 vsl 15 129 0 32 0 0 \$1-fm2sr \$1-fm2rr ratio -7 -12
0 10 -262144 -1 -1 0 1;
#X obj 146 478 bng 10 250 50 0 \$1-fm2sextraoptions empty extra_options
17 7 0 8 -262144 -1 -1;
#N canvas 381 117 845 594 printallreceives 0;
#X obj 35 63 f \$1;
#X obj 33 6 bng 15 250 50 0 empty empty empty 17 7 0 10 -262144 -1
-1;
#X obj 54 162 t f f f f f f f f f;
#X obj 36 87 t f f;
#X obj 166 21 r \$1-fm2printreceives;
#X obj 92 136 print start;
#X obj 57 552 print end;
#X msg 91 109 names of receives in [syna-fm \$1]...................>>
;
#X msg 604 59 \$1-fm2rglide;
#X msg 56 526 <<.........................................[syna-fm \$1]
;
#X obj 585 190 print pitch[0-127];
#X obj 611 94 print glide[0-1];
#X obj 10 21 r printreceives;
#X msg 590 162 \$1-fm2rp;
#X msg 631 240 \$1-fm2ri;
#X obj 634 266 print index[0-64];
#X obj 488 267 print ratio[0-32];
#X msg 485 241 \$1-fm2rr;
#X obj 389 291 print attack_index[0-1270];
#X msg 386 265 \$1-fm2riatt;
#X msg 286 290 \$1-fm2ridec;
#X obj 289 316 print decay_index[0-1270];
#X msg 248 213 \$1-fm2risus;
#X msg 148 240 \$1-fm2rirel;
#X obj 151 266 print release_index[0-6400];
#X obj 251 239 print sustain_index[0-100];
#X obj 26 323 t f f f f f f;
#X obj 175 341 print attack_amp[0-1270];
#X msg 172 315 \$1-fm2ratt;
#X msg 580 409 \$1-fm2rdec;
#X obj 583 435 print decay_amp[0-1270];
#X msg 158 379 \$1-fm2rrel;
#X obj 161 405 print release_amp[0-6400];
#X msg 134 442 \$1-fm2rvel;
#X obj 137 468 print (velocity_inlet2[0-127]);
#X connect 0 0 3 0;
#X connect 1 0 0 0;
#X connect 2 0 26 0;
#X connect 2 1 28 0;
#X connect 2 2 23 0;
#X connect 2 3 22 0;
#X connect 2 4 20 0;
#X connect 2 5 19 0;
#X connect 2 6 17 0;
#X connect 2 7 14 0;
#X connect 2 8 13 0;
#X connect 3 0 2 0;
#X connect 3 1 7 0;
#X connect 4 0 0 0;
#X connect 7 0 5 0;
#X connect 8 0 11 0;
#X connect 9 0 6 0;
#X connect 12 0 0 0;
#X connect 13 0 10 0;
#X connect 14 0 15 0;
#X connect 17 0 16 0;
#X connect 19 0 18 0;
#X connect 20 0 21 0;
#X connect 22 0 25 0;
#X connect 23 0 24 0;
#X connect 26 0 9 0;
#X connect 26 3 33 0;
#X connect 26 4 31 0;
#X connect 26 5 29 0;
#X connect 28 0 27 0;
#X connect 29 0 30 0;
#X connect 31 0 32 0;
#X connect 33 0 34 0;
#X restore 404 489 pd printallreceives;
#N canvas 792 487 429 165 \$1-syna-fmextra 0;
#X obj 8 72 bng 15 250 50 0 printreceives empty print_all_receives
17 7 0 10 -262144 -1 -1;
#X obj 7 13 bng 15 250 50 0 \$1-fm2printreceives empty print_names_of_receives
17 7 0 10 -262144 -1 -1;
#X text 66 91 (of all objects in open files);
#X text 65 32 (of this 'syna-fm' object);
#X restore 426 513 pd \$1-syna-fmextra;
#X obj 404 721 f \$1;
#X obj 404 772 symbol;
#X msg 404 797 \; \$1 vis 1;
#X obj 402 698 r \$1-fm2sextraoptions;
#X msg 405 746 pd-\$1-syna-fmextra;
#N canvas 335 33 859 875 foutmelding 0;
#X obj 87 38 loadbang;
#X obj 79 83 f \$1;
#X obj 73 111 select 0;
#X msg 75 197 \; \$1 vis 1;
#X msg 74 142 36;
#X text 151 150 ascii-code voor $;
#X text 197 199 als er geen argument is \, noemt de subpatch vreemd
genoeg niet pd 0-warning maar wel pd \$1-warning;
#X text 129 80 als er geen argument is geeft f \$1 een 0;
#X obj 154 336 del 100;
#X msg 319 355 1;
#X obj 238 405 spigot;
#X obj 342 453 spigot;
#X obj 409 425 == 0;
#X obj 338 423 r syna-fm;
#X obj 240 489 s syna-fm;
#X obj 208 305 t b b b;
#X obj 314 389 t f f;
#X obj 241 429 del 150;
#X obj 239 460 f \$1;
#X msg 169 357 0;
#X obj 378 506 == \$1;
#X obj 455 604 > 1;
#X obj 341 478 t f f;
#X obj 391 568 f 0;
#X obj 390 538 select 1;
#X obj 330 541 spigot;
#X obj 459 569 + 1;
#X obj 336 602 == \$1;
#X obj 396 628 &&;
#X obj 158 628 print pop;
#X text 487 604 groter dan 1 want vergelijking et zichzelf levert sowieso
al 1 op en dan met ev. zelfde object met identiek argument levert 2
op!;
#X obj 396 656 select 1;
#X obj 396 678 f \$1;
#X obj 398 768 symbol;
#X msg 396 795 \; \$1 vis 1;
#X obj 363 706 t f f;
#X obj 92 820 symbol;
#X obj 170 872 print;
#X obj 326 662 bng 15 250 50 0 empty empty empty 17 7 0 10 -262144
-1 -1;
#X msg 173 839 !!! these two abunch objects have the same argument
number: [syna-fm \$1];
#X text 406 346 alleen net gecreerde object verstuurt waarde;
#X text 398 372 bij eerder gemaakte objecten staat spigot voor receive
open;
#N canvas 670 470 308 138 \$1-syna-fmwarning 0;
#X obj -1 0 cnv 15 320 150 empty empty empty 20 12 0 14 -258699 -66577
0;
#X text 11 32 You forgot to add an unique number;
#X text 11 78 when you created this abunch object;
#X restore 349 165 pd \$1-syna-fmwarning;
#N canvas 856 445 327 127 \$1-syna-fmsameargument 0;
#X obj -1 0 cnv 15 330 150 empty empty empty 20 12 0 14 -258699 -66577
0;
#X msg 393 108;
#X text 314 243 is used already!!;
#X obj 344 35 inlet;
#X symbolatom 351 77 10 0 0 0 - - -;
#X obj 98 40 cnv 15 60 20 empty empty empty 20 12 0 14 -233017 -66577
0;
#X text 24 40 Create an unique number for this;
#X text 102 69 abunch object.;
#X connect 3 0 1 0;
#X connect 3 0 4 0;
#X restore 541 770 pd \$1-syna-fmsameargument;
#X msg 397 738 pd-\$1-syna-fmsameargument;
#X obj 74 171 makefilename pd-%c1-syna-fmwarning;
#X connect 0 0 1 0;
#X connect 0 0 15 0;
#X connect 1 0 2 0;
#X connect 2 0 4 0;
#X connect 4 0 45 0;
#X connect 8 0 19 0;
#X connect 9 0 16 0;
#X connect 10 0 17 0;
#X connect 11 0 22 0;
#X connect 12 0 11 1;
#X connect 13 0 11 0;
#X connect 15 0 8 0;
#X connect 15 1 10 0;
#X connect 15 2 9 0;
#X connect 16 0 10 1;
#X connect 16 1 12 0;
#X connect 17 0 18 0;
#X connect 18 0 14 0;
#X connect 19 0 16 0;
#X connect 20 0 24 0;
#X connect 20 0 25 1;
#X connect 21 0 28 1;
#X connect 22 0 25 0;
#X connect 22 1 20 0;
#X connect 23 0 26 0;
#X connect 24 0 23 0;
#X connect 25 0 27 0;
#X connect 26 0 23 1;
#X connect 26 0 21 0;
#X connect 27 0 28 0;
#X connect 28 0 31 0;
#X connect 31 0 32 0;
#X connect 32 0 35 0;
#X connect 33 0 34 0;
#X connect 35 0 44 0;
#X connect 35 1 39 0;
#X connect 38 0 32 0;
#X connect 39 0 37 0;
#X connect 44 0 33 0;
#X connect 45 0 3 0;
#X restore 444 538 pd foutmelding;
#N canvas 436 80 874 592 bereken 0;
#X text 20 13 pitch carrier (midi);
#X text 429 17 index;
#X text 201 14 Carrier:Modulator ratio;
#X obj 49 100 mtof;
#X obj 163 130 t b f;
#X obj 30 319 +;
#X obj 43 126 t f f;
#X obj 89 318 -;
#X obj 270 281 * 2;
#X obj 448 269 * 3;
#X obj 684 251 * 4;
#X obj 29 344 ftom;
#X obj 78 370 ftom;
#X floatatom 30 398 5 0 0 0 - - -;
#X floatatom 78 395 5 0 0 0 - - -;
#X obj 209 317 +;
#X obj 286 317 -;
#X obj 209 339 ftom;
#X obj 286 370 ftom;
#X floatatom 208 396 5 0 0 0 - - -;
#X floatatom 283 397 5 0 0 0 - - -;
#X obj 435 317 +;
#X obj 512 317 -;
#X obj 435 339 ftom;
#X obj 509 365 ftom;
#X floatatom 436 392 5 0 0 0 - - -;
#X floatatom 506 392 5 0 0 0 - - -;
#X obj 612 296 +;
#X obj 689 296 -;
#X obj 612 318 ftom;
#X obj 689 366 ftom;
#X floatatom 613 388 5 0 0 0 - - -;
#X floatatom 686 393 5 0 0 0 - - -;
#X floatatom 427 140 5 0 0 0 - - -;
#X obj 75 69 spigot;
#X obj 192 100 spigot;
#X obj 429 109 spigot;
#X obj 255 -25 tgl 15 0 empty empty empty 17 7 0 10 -262144 -1 -1 0
1;
#X text 277 -25 ON/OFF berekening;
#X obj 251 -81 loadbang;
#X msg 256 -53 0;
#X obj 26 40 r \$1-fm2sp;
#X obj 200 33 r \$1-fm2sr;
#X obj 414 37 r \$1-fm2si;
#X obj 172 168 *;
#X obj 287 343 abs;
#X obj 512 342 abs;
#X obj 688 322 abs;
#X obj 82 345 abs;
#X obj 21 157 s \$1-fm2xf;
#X obj 573 259 r \$1-fm2xf;
#X obj 352 271 r \$1-fm2xf;
#X obj 29 264 r \$1-fm2xf;
#X obj 178 272 r \$1-fm2xf;
#X obj 292 166 cnv 15 130 30 empty empty empty 20 12 0 14 -228992 -66577
0;
#X obj 31 220 cnv 15 80 30 empty empty empty 20 12 0 14 -228992 -66577
0;
#X obj 582 223 cnv 15 80 30 empty empty empty 20 12 0 14 -228992 -66577
0;
#X obj 390 230 cnv 15 80 30 empty empty empty 20 12 0 14 -228992 -66577
0;
#X obj 199 227 cnv 15 80 30 empty empty empty 20 12 0 14 -228992 -66577
0;
#X text 32 226 index = 0;
#X text 204 233 index = 1;
#X text 395 235 index = 2;
#X text 586 229 index = 3;
#X obj 238 147 ftom;
#X floatatom 239 174 5 0 0 0 - - -;
#X obj 751 221 cnv 15 80 30 empty empty empty 20 12 0 14 -228992 -66577
0;
#X text 761 228 enz...;
#X text 302 173 pitch carrier;
#X connect 3 0 6 0;
#X connect 4 0 44 0;
#X connect 4 1 44 1;
#X connect 5 0 11 0;
#X connect 6 0 49 0;
#X connect 6 1 44 0;
#X connect 7 0 48 0;
#X connect 8 0 16 1;
#X connect 8 0 15 1;
#X connect 9 0 21 1;
#X connect 9 0 22 1;
#X connect 10 0 28 1;
#X connect 10 0 27 1;
#X connect 11 0 13 0;
#X connect 12 0 14 0;
#X connect 15 0 17 0;
#X connect 16 0 45 0;
#X connect 17 0 19 0;
#X connect 18 0 20 0;
#X connect 21 0 23 0;
#X connect 22 0 46 0;
#X connect 23 0 25 0;
#X connect 24 0 26 0;
#X connect 27 0 29 0;
#X connect 28 0 47 0;
#X connect 29 0 31 0;
#X connect 30 0 32 0;
#X connect 34 0 3 0;
#X connect 35 0 4 0;
#X connect 36 0 33 0;
#X connect 37 0 35 1;
#X connect 37 0 34 1;
#X connect 37 0 36 1;
#X connect 39 0 40 0;
#X connect 40 0 37 0;
#X connect 41 0 34 0;
#X connect 42 0 35 0;
#X connect 43 0 36 0;
#X connect 44 0 5 1;
#X connect 44 0 7 1;
#X connect 44 0 8 0;
#X connect 44 0 9 0;
#X connect 44 0 10 0;
#X connect 44 0 63 0;
#X connect 45 0 18 0;
#X connect 46 0 24 0;
#X connect 47 0 30 0;
#X connect 48 0 12 0;
#X connect 50 0 27 0;
#X connect 50 0 28 0;
#X connect 51 0 21 0;
#X connect 51 0 22 0;
#X connect 52 0 5 0;
#X connect 52 0 7 0;
#X connect 53 0 15 0;
#X connect 53 0 16 0;
#X connect 63 0 64 0;
#X restore 380 197 pd bereken;
#X obj 12 640 r \$1-fm2rvel;
#N canvas 288 68 783 413 open_own_preset 0;
#X obj 469 71 bng 15 250 50 0 empty empty empty 17 7 0 10 -262144 -1
-1;
#X obj 467 93 openpanel;
#X text 178 314 -> versturen naar alle receives (met \$1 in naam \,
dus enkel naar deze abstraction met dit argument \, en niet naar ev.
tweede geopende abstractie);
#X obj 284 246 s \$1-fm2rr;
#X obj 205 281 s \$1-fm2ri;
#X obj 193 254 s \$1-fm2rp;
#X obj 337 282 s \$1-fm2riatt;
#X obj 464 283 s \$1-fm2rirel;
#X obj 385 253 s \$1-fm2ridec;
#X obj 594 272 s \$1-fm2ratt;
#X obj 642 252 s \$1-fm2rdec;
#X obj 744 272 s \$1-fm2rrel;
#X obj 508 250 s \$1-fm2risus;
#N canvas 0 78 1167 502 ownpreset_array 0;
#X obj 21 435 outlet gui1;
#X obj 112 437 outlet gui2;
#X obj 201 437 outlet gui3;
#X obj 293 437 outlet gui4;
#X obj 475 437 outlet gui6;
#X obj 384 437 outlet gui5;
#X obj 567 437 outlet gui7;
#X obj 658 437 outlet gui8;
#X obj 748 437 outlet gui9;
#X obj 840 436 outlet gui10;
#X obj 495 208 until;
#X obj 472 267 + 1;
#X obj 499 236 f 0;
#N canvas 45 153 1064 314 router_1inxout 0;
#X obj 231 27 inlet one;
#X obj 339 23 inlet route123;
#X obj 35 211 outlet one;
#X obj 124 210 outlet two;
#X obj 218 211 outlet three;
#X obj 323 211 outlet four;
#X obj 415 210 outlet five;
#X obj 510 211 outlet six;
#X obj 599 210 outlet seven;
#X obj 700 213 outlet eigth;
#X obj 805 212 outlet nine;
#X obj 897 211 outlet ten;
#X obj 361 83 pack;
#X obj 296 57 mod 12;
#X obj 919 239 outlet nine;
#X obj 1011 238 outlet ten;
#X obj 696 86 route 1 2 3 4 5 6 7 8 9 10 11;
#X obj 58 77 route 1 2;
#X obj 961 138 unpack;
#X connect 0 0 13 0;
#X connect 1 0 12 1;
#X connect 12 0 16 0;
#X connect 13 0 12 0;
#X connect 16 0 2 0;
#X connect 16 1 3 0;
#X connect 16 2 4 0;
#X connect 16 3 5 0;
#X connect 16 4 6 0;
#X connect 16 5 7 0;
#X connect 16 6 8 0;
#X connect 16 7 9 0;
#X connect 16 8 10 0;
#X connect 16 9 11 0;
#X connect 16 10 14 0;
#X connect 16 11 18 0;
#X connect 18 1 15 0;
#X restore 340 381 pd router_1inxout;
#X obj 590 185 * 12;
#X obj 588 208 - 12;
#X obj 495 295 t f f;
#N canvas 0 0 450 300 (subpatch) 0;
#X array \$1-ownfm2preset 240 float 3;
#A 0 0 84 10.5 1 10.281 80.6349 304.762 11.1111 20.1587 322.54 1930.16
0 0 91 10 1.125 0 0 4266.67 92.0635 463.651 40.3175 3152.25 0 0 81
9 0.625 0 1128.89 2539.68 82.5397 423.333 846.667 612.571 0 0 57 10.5
1 10.281 7.05556 304.762 63.4921 20.1587 322.54 1930.16 0 0 79 1.275
0.8725 0 1128.89 2539.68 100 423.333 1270 3253.84 0 0 60 1.345 0.915
0 806.349 1828.57 82.5397 1.00794 1270 409.397 0 0 36 24.345 0.915
1.20952 685.397 1828.57 50.7937 1.00794 262.064 1323.68 0 0 84 1.715
4.09 403.175 20.1587 4469.84 77.7778 1.00794 0 815.746 0 0 48 28.5
8.5 0 1270 3860.32 60.3175 120.952 1270 3453.97 0 0 0 0 0 0 0 0 0 0
0 0 0 0 0 0 0 0 0 0 0 0 0 0 0 0 0 0 0 0 0 0 0 0 0 0 0 0 0 0 0 0 0 0
0 0 0 0 0 0 0 0 0 0 0 0 0 0 0 0 0 0 0 0 0 0 0 0 0 0 0 0 0 0 0 0 0 0
0 0 0 0 0 0 0 0 0 0 0 0 0 0 0 0 0 0 0 0 0 0 0 0 0 0 0 0 0 0 0 0 0 0
0 0 0 0 0 0 0 0 0 0 0 0 0 0 0 0 0 0 0 0 0;
#X coords 0 10000 239 -1 200 140 1;
#X restore 101 156 graph;
#X text 386 60 -> !!! per 12;
#X text 511 383 -> !!! hierin ook per 12;
#X text 583 114 max 12 parameters/waarden voor array/presets;
#X msg 528 185 12;
#X obj 940 438 outlet gui9;
#X obj 1032 437 outlet gui10;
#X obj 565 62 inlet;
#X obj 570 156 t b f b;
#X obj 449 346 tabread \$1-ownfm2preset;
#X connect 10 0 12 0;
#X connect 11 0 12 1;
#X connect 11 0 16 0;
#X connect 12 0 11 0;
#X connect 13 0 0 0;
#X connect 13 1 1 0;
#X connect 13 2 2 0;
#X connect 13 3 3 0;
#X connect 13 4 5 0;
#X connect 13 5 4 0;
#X connect 13 6 6 0;
#X connect 13 7 7 0;
#X connect 13 8 8 0;
#X connect 13 9 9 0;
#X connect 13 10 22 0;
#X connect 13 11 23 0;
#X connect 14 0 15 0;
#X connect 15 0 12 1;
#X connect 16 0 13 0;
#X connect 16 1 26 0;
#X connect 21 0 10 0;
#X connect 24 0 25 0;
#X connect 25 0 21 0;
#X connect 25 1 14 0;
#X connect 26 0 13 1;
#X restore 198 213 pd ownpreset_array;
#X obj 188 9 r \$1-fm2openownpreset;
#X msg 468 119 \; 1-ownfm2preset read \$1;
#X text 390 51 'syna-fm 1' gebruiken om preset file te openen:;
#N canvas 504 71 253 442 na500msdoorlaten 0;
#X obj 106 144 + 1;
#X obj 62 146 f 0;
#X obj 53 90 metro 1;
#X msg 126 84 0;
#X obj 88 200 > 500;
#X obj 63 316 spigot;
#X obj 39 287 f;
#X obj 16 49 t b f b;
#X obj 33 253 select 1;
#X obj 88 225 t f f;
#X msg 142 286 0;
#X obj 16 8 inlet;
#X text 162 203 500 ms;
#X obj 62 351 outlet;
#X connect 0 0 1 1;
#X connect 0 0 4 0;
#X connect 1 0 0 0;
#X connect 2 0 1 0;
#X connect 3 0 1 1;
#X connect 4 0 9 0;
#X connect 5 0 13 0;
#X connect 6 0 5 0;
#X connect 7 0 2 0;
#X connect 7 1 6 1;
#X connect 7 2 3 0;
#X connect 8 0 6 0;
#X connect 8 0 10 0;
#X connect 9 0 8 0;
#X connect 9 1 5 1;
#X connect 10 0 2 0;
#X connect 11 0 7 0;
#X restore 188 58 pd na500msdoorlaten;
#N canvas 593 115 514 515 vorige7 0;
#X obj 63 38 inlet;
#X obj 51 153 tabwrite \$1-fm2previous;
#X obj 63 66 t f b;
#X obj 122 92 f -1;
#X obj 174 89 + 1;
#X obj 230 114 mod 7;
#X text 279 114 previous 7 values;
#X obj 292 38 inlet bang;
#X text 254 14 send out all values in array;
#X obj 306 141 until;
#X msg 308 93 7;
#X obj 302 182 f -1;
#X obj 354 179 + 1;
#X obj 361 64 t b b;
#X msg 395 92 -1;
#X obj 312 219 tabread \$1-fm2previous;
#X obj 314 256 outlet;
#N canvas 0 0 450 300 (subpatch) 0;
#X array \$1-fm2previous 7 float 2;
#X coords 0 1000 6 -10000 200 140 1;
#X restore 76 330 graph;
#X connect 0 0 2 0;
#X connect 2 0 1 0;
#X connect 2 1 3 0;
#X connect 3 0 4 0;
#X connect 4 0 3 1;
#X connect 4 0 5 0;
#X connect 5 0 1 1;
#X connect 7 0 13 0;
#X connect 9 0 11 0;
#X connect 10 0 9 0;
#X connect 11 0 12 0;
#X connect 12 0 11 1;
#X connect 12 0 15 0;
#X connect 13 0 10 0;
#X connect 13 1 14 0;
#X connect 14 0 11 1;
#X connect 15 0 16 0;
#X restore 38 160 pd vorige7;
#X obj 188 87 t f b;
#X obj 32 321 t f b;
#X msg 73 349 0;
#X obj 139 382 outlet velo;
#X obj 32 382 outlet pitch;
#X obj 32 58 inlet pitch;
#X text 25 39 note on pitch;
#X msg 233 115 0;
#X obj 235 148 s \$1-fm2srel;
#X text 237 163 naar send (!!!) van release;
#X text 22 119 send noteoffs;
#X text 19 133 to previous pitches;
#X connect 0 0 1 0;
#X connect 1 0 15 0;
#X connect 13 0 5 0;
#X connect 13 1 4 0;
#X connect 13 2 3 0;
#X connect 13 3 6 0;
#X connect 13 4 8 0;
#X connect 13 5 7 0;
#X connect 13 6 12 0;
#X connect 13 7 9 0;
#X connect 13 8 10 0;
#X connect 13 9 11 0;
#X connect 14 0 17 0;
#X connect 17 0 19 0;
#X connect 18 0 20 0;
#X connect 19 0 13 0;
#X connect 19 1 18 1;
#X connect 19 1 26 0;
#X connect 20 0 23 0;
#X connect 20 1 21 0;
#X connect 21 0 22 0;
#X connect 24 0 18 0;
#X connect 26 0 27 0;
#X restore 120 763 pd open_own_preset;
#X obj 228 166 nbx 3 14 1 9 0 0 \$1-fm2openownpreset opat own_preset
-12 -8 0 9 -262144 -1 -1 1 256;
#N canvas 744 585 566 199 needsound 0;
#X obj 22 34 r soundfileyesno;
#X msg 18 67 0;
#X obj 22 138 s answersoundfile;
#X text 63 65 0 = this abunch object doesn't need a sound file (store
in a preset file) \, 1 = it does;
#X connect 0 0 1 0;
#X connect 1 0 2 0;
#X restore 460 564 pd needsound;
#X obj 38 450 nbx 5 14 -1e+037 1e+037 0 0 bob obo empty 0 -8 0 10 -86277
-260097 -1 0 256;
#X obj 183 451 nbx 5 14 -1e+037 1e+037 0 0 bob obo empty 0 -8 0 10
-86277 -260097 -1 0 256;
#X obj 108 452 nbx 5 14 -1e+037 1e+037 0 0 bob obo empty 0 -8 0 10
-86277 -260097 -1 0 256;
#X obj 28 307 nbx 5 14 -1e+037 1e+037 0 0 bob obo empty 0 -8 0 10 -86277
-260097 -1 0 256;
#X obj 159 308 nbx 5 14 -1e+037 1e+037 0 0 bob obo empty 0 -8 0 10
-86277 -260097 -1 0 256;
#X obj 93 307 nbx 5 14 -1e+037 1e+037 0 0 bob obo empty 0 -8 0 10 -86277
-260097 -1 0 256;
#X obj 36 167 nbx 5 14 -1e+037 1e+037 0 0 bob obo empty 0 -8 0 10 -86277
-260097 -1 0 256;
#X obj 221 307 nbx 5 14 -1e+037 1e+037 0 0 bob obo empty 0 -8 0 10
-86277 -260097 -1 0 256;
#X obj 98 167 nbx 5 14 -1e+037 1e+037 0 0 bob obo empty 0 -8 0 10 -86277
-260097 -1 0 256;
#X obj 161 167 nbx 5 14 -1e+037 1e+037 0 0 bob obo empty 0 -8 0 10
-86277 -260097 -1 0 256;
#X obj 120 736 stripnote;
#N canvas 540 309 293 166 printname 0;
#X obj 54 37 r printallnames;
#X obj 54 107 symbol;
#X obj 54 132 s rallnames;
#X msg 54 72 syna-fm;
#X connect 0 0 3 0;
#X connect 1 0 2 0;
#X connect 3 0 1 0;
#X restore 409 463 pd printname;
#N canvas 10 184 588 284 presetsnew 0;
#X obj 210 58 r savepresetn;
#X obj 203 119 t b b b;
#N canvas 117 32 1041 579 name-sends-normal 0;
#N canvas 0 0 450 300 (subpatch) 0;
#X array \$1-fm2between 16 float 2;
#X coords 0 10000 16 -10000 20 20 1;
#X restore 15 236 graph;
#X obj 395 534 tabwrite \$1-fm2between;
#X obj 438 235 unpack f f;
#X obj 98 156 pack f 1;
#X obj 135 178 pack f 2;
#X obj 186 200 pack f 3;
#X obj 236 155 pack f 4;
#X obj 273 177 pack f 5;
#X obj 324 199 pack f 6;
#X obj 368 156 pack f 7;
#X obj 405 178 pack f 8;
#X obj 449 199 pack f 9;
#X obj 508 156 pack f 10;
#X obj 545 178 pack f 11;
#X obj 596 199 pack f 12;
#X obj 665 156 pack f 13;
#X obj 702 178 pack f 14;
#X obj 754 201 pack f 15;
#X obj 798 156 pack f 16;
#X obj 835 179 pack f 17;
#X obj 884 203 pack f 18;
#X obj 438 505 unpack f f;
#X obj 98 426 pack f 19;
#X obj 135 448 pack f 20;
#X obj 186 470 pack f 21;
#X obj 236 425 pack f 22;
#X obj 273 447 pack f 23;
#X obj 324 469 pack f 24;
#X obj 368 426 pack f 25;
#X obj 405 448 pack f 26;
#X obj 449 469 pack f 27;
#X obj 508 426 pack f 28;
#X obj 545 448 pack f 29;
#X obj 596 469 pack f 30;
#X obj 665 426 pack f 31;
#X obj 702 448 pack f 32;
#X obj 754 471 pack f 33;
#X obj 798 426 pack f 34;
#X obj 835 449 pack f 35;
#X obj 886 470 pack f 36;
#X text 38 238 -> adjust size if necessary (standard size = 109);
#X obj 36 39 r \$1-fm2sp;
#X obj 81 61 r \$1-fm2si;
#X obj 117 83 r \$1-fm2sr;
#X obj 209 25 r \$1-fm2siatt;
#X obj 239 47 r \$1-fm2sidec;
#X obj 262 70 r \$1-fm2sirel;
#X obj 451 44 r \$1-fm2satt;
#X obj 470 67 r \$1-fm2sdec;
#X obj 606 22 r \$1-fm2srel;
#X obj 435 22 r \$1-fm2sisus;
#X connect 2 0 1 0;
#X connect 2 1 1 1;
#X connect 3 0 2 0;
#X connect 4 0 2 0;
#X connect 5 0 2 0;
#X connect 6 0 2 0;
#X connect 7 0 2 0;
#X connect 8 0 2 0;
#X connect 9 0 2 0;
#X connect 10 0 2 0;
#X connect 11 0 2 0;
#X connect 12 0 2 0;
#X connect 13 0 2 0;
#X connect 14 0 2 0;
#X connect 15 0 2 0;
#X connect 16 0 2 0;
#X connect 17 0 2 0;
#X connect 18 0 2 0;
#X connect 19 0 2 0;
#X connect 20 0 2 0;
#X connect 21 0 1 0;
#X connect 21 1 1 1;
#X connect 22 0 21 0;
#X connect 23 0 21 0;
#X connect 24 0 21 0;
#X connect 25 0 21 0;
#X connect 26 0 21 0;
#X connect 27 0 21 0;
#X connect 28 0 21 0;
#X connect 29 0 21 0;
#X connect 30 0 21 0;
#X connect 31 0 21 0;
#X connect 32 0 21 0;
#X connect 33 0 21 0;
#X connect 34 0 21 0;
#X connect 35 0 21 0;
#X connect 36 0 21 0;
#X connect 37 0 21 0;
#X connect 38 0 21 0;
#X connect 39 0 21 0;
#X connect 41 0 3 0;
#X connect 42 0 4 0;
#X connect 43 0 5 0;
#X connect 44 0 6 0;
#X connect 45 0 7 0;
#X connect 46 0 8 0;
#X connect 47 0 10 0;
#X connect 48 0 11 0;
#X connect 49 0 12 0;
#X connect 50 0 9 0;
#X restore 75 27 pd name-sends-normal;
#X obj 223 196 s toextfile;
#N canvas 636 185 560 404 normal 0;
#X obj 278 134 f \$1;
#X obj 237 278 symbol;
#X obj 42 268 list prepend add2;
#X obj 42 293 list trim;
#X obj 188 51 t b b b b b;
#X obj 154 135 f 0;
#X obj 193 135 + 1;
#X msg 181 103 0;
#X msg 240 196 fm2rx\$1;
#X obj 237 222 pack s f;
#X msg 237 249 \$2-\$1;
#X obj 131 102 until;
#X obj 193 161 t f f;
#X obj 21 193 tabread \$1-fm2between;
#X text 151 77 -> aanpassen! aantal op te slagen floats;
#X obj 180 16 inlet;
#X obj 229 345 outlet;
#X msg 235 311 add2 () norm 0 0 \$1;
#X obj 111 76 f 10;
#X connect 0 0 9 1;
#X connect 1 0 17 0;
#X connect 2 0 3 0;
#X connect 3 0 16 0;
#X connect 4 3 18 0;
#X connect 4 4 0 0;
#X connect 4 4 7 0;
#X connect 5 0 6 0;
#X connect 6 0 5 1;
#X connect 6 0 12 0;
#X connect 7 0 5 1;
#X connect 8 0 9 0;
#X connect 9 0 10 0;
#X connect 10 0 1 0;
#X connect 11 0 5 0;
#X connect 12 0 13 0;
#X connect 12 1 8 0;
#X connect 13 0 2 0;
#X connect 15 0 4 0;
#X connect 17 0 16 0;
#X connect 18 0 11 0;
#X restore 217 153 pd normal;
#X text 179 152 !!->;
#X text 212 245 !!->;
#N canvas 49 0 1083 539 receive-normal 0;
#X obj 24 26 r \$1-fm2rx1;
#X obj 54 46 r \$1-fm2rx2;
#X obj 85 66 r \$1-fm2rx3;
#X obj 196 19 r \$1-fm2rx4;
#X obj 226 39 r \$1-fm2rx5;
#X obj 257 59 r \$1-fm2rx6;
#X obj 364 16 r \$1-fm2rx7;
#X obj 382 37 r \$1-fm2rx8;
#X obj 416 58 r \$1-fm2rx9;
#X obj 523 33 r \$1-fm2rx10;
#X obj 553 53 r \$1-fm2rx11;
#X obj 584 73 r \$1-fm2rx12;
#X obj 703 33 r \$1-fm2rx13;
#X obj 733 53 r \$1-fm2rx14;
#X obj 764 73 r \$1-fm2rx15;
#X obj 863 33 r \$1-fm2rx16;
#X obj 893 53 r \$1-fm2rx17;
#X obj 924 73 r \$1-fm2rx18;
#X obj 33 293 r \$1-fm2rx19;
#X obj 63 313 r \$1-fm2rx20;
#X obj 94 333 r \$1-fm2rx21;
#X obj 213 293 r \$1-fm2rx22;
#X obj 243 313 r \$1-fm2rx23;
#X obj 274 333 r \$1-fm2rx24;
#X obj 393 293 r \$1-fm2rx25;
#X obj 423 313 r \$1-fm2rx26;
#X obj 454 333 r \$1-fm2rx27;
#X obj 543 293 r \$1-fm2rx28;
#X obj 573 313 r \$1-fm2rx29;
#X obj 604 333 r \$1-fm2rx30;
#X obj 713 293 r \$1-fm2rx31;
#X obj 743 313 r \$1-fm2rx32;
#X obj 774 333 r \$1-fm2rx33;
#X obj 873 293 r \$1-fm2rx34;
#X obj 903 313 r \$1-fm2rx35;
#X obj 934 333 r \$1-fm2rx36;
#X text 667 236 ^ hier aanvullen ^;
#N canvas 30 18 246 218 cmp 0;
#X obj 42 65 list split 1;
#X obj 88 119 ==;
#X obj 43 151 spigot;
#X obj 43 176 outlet;
#X obj 42 28 inlet;
#X obj 110 30 r \$1-fm2arg2;
#X connect 0 0 2 0;
#X connect 0 1 1 0;
#X connect 1 0 2 1;
#X connect 2 0 3 0;
#X connect 4 0 0 0;
#X connect 5 0 1 1;
#X restore 22 100 pd cmp;
#N canvas 355 32 246 300 cmp 0;
#X obj 42 65 list split 1;
#X obj 88 119 ==;
#X obj 43 151 spigot;
#X obj 43 176 outlet;
#X obj 42 28 inlet;
#X obj 110 30 r \$1-fm2arg2;
#X connect 0 0 2 0;
#X connect 0 1 1 0;
#X connect 1 0 2 1;
#X connect 2 0 3 0;
#X connect 4 0 0 0;
#X connect 5 0 1 1;
#X restore 42 125 pd cmp;
#N canvas 0 0 246 300 cmp 0;
#X obj 42 65 list split 1;
#X obj 88 119 ==;
#X obj 43 151 spigot;
#X obj 43 176 outlet;
#X obj 42 28 inlet;
#X obj 110 30 r \$1-fm2arg2;
#X connect 0 0 2 0;
#X connect 0 1 1 0;
#X connect 1 0 2 1;
#X connect 2 0 3 0;
#X connect 4 0 0 0;
#X connect 5 0 1 1;
#X restore 59 153 pd cmp;
#N canvas 0 0 246 300 cmp 0;
#X obj 42 65 list split 1;
#X obj 88 119 ==;
#X obj 43 151 spigot;
#X obj 43 176 outlet;
#X obj 42 28 inlet;
#X obj 110 30 r \$1-fm2arg2;
#X connect 0 0 2 0;
#X connect 0 1 1 0;
#X connect 1 0 2 1;
#X connect 2 0 3 0;
#X connect 4 0 0 0;
#X connect 5 0 1 1;
#X restore 172 100 pd cmp;
#N canvas 0 0 246 300 cmp 0;
#X obj 42 65 list split 1;
#X obj 88 119 ==;
#X obj 43 151 spigot;
#X obj 43 176 outlet;
#X obj 42 28 inlet;
#X obj 110 30 r \$1-fm2arg2;
#X connect 0 0 2 0;
#X connect 0 1 1 0;
#X connect 1 0 2 1;
#X connect 2 0 3 0;
#X connect 4 0 0 0;
#X connect 5 0 1 1;
#X restore 192 125 pd cmp;
#N canvas 308 15 246 215 cmp 0;
#X obj 42 65 list split 1;
#X obj 88 119 ==;
#X obj 43 151 spigot;
#X obj 43 176 outlet;
#X obj 42 28 inlet;
#X obj 110 30 r \$1-fm2arg2;
#X connect 0 0 2 0;
#X connect 0 1 1 0;
#X connect 1 0 2 1;
#X connect 2 0 3 0;
#X connect 4 0 0 0;
#X connect 5 0 1 1;
#X restore 209 153 pd cmp;
#N canvas 0 0 246 300 cmp 0;
#X obj 42 65 list split 1;
#X obj 88 119 ==;
#X obj 43 151 spigot;
#X obj 43 176 outlet;
#X obj 42 28 inlet;
#X obj 110 30 r \$1-fm2arg2;
#X connect 0 0 2 0;
#X connect 0 1 1 0;
#X connect 1 0 2 1;
#X connect 2 0 3 0;
#X connect 4 0 0 0;
#X connect 5 0 1 1;
#X restore 362 100 pd cmp;
#N canvas 0 0 246 300 cmp 0;
#X obj 42 65 list split 1;
#X obj 88 119 ==;
#X obj 43 151 spigot;
#X obj 43 176 outlet;
#X obj 42 28 inlet;
#X obj 110 30 r \$1-fm2arg2;
#X connect 0 0 2 0;
#X connect 0 1 1 0;
#X connect 1 0 2 1;
#X connect 2 0 3 0;
#X connect 4 0 0 0;
#X connect 5 0 1 1;
#X restore 382 125 pd cmp;
#N canvas 0 0 246 300 cmp 0;
#X obj 42 65 list split 1;
#X obj 88 119 ==;
#X obj 43 151 spigot;
#X obj 43 176 outlet;
#X obj 42 28 inlet;
#X obj 110 30 r \$1-fm2arg2;
#X connect 0 0 2 0;
#X connect 0 1 1 0;
#X connect 1 0 2 1;
#X connect 2 0 3 0;
#X connect 4 0 0 0;
#X connect 5 0 1 1;
#X restore 399 153 pd cmp;
#N canvas 0 0 246 300 cmp 0;
#X obj 42 65 list split 1;
#X obj 88 119 ==;
#X obj 43 151 spigot;
#X obj 43 176 outlet;
#X obj 42 28 inlet;
#X obj 110 30 r \$1-fm2arg2;
#X connect 0 0 2 0;
#X connect 0 1 1 0;
#X connect 1 0 2 1;
#X connect 2 0 3 0;
#X connect 4 0 0 0;
#X connect 5 0 1 1;
#X restore 542 110 pd cmp;
#N canvas 0 0 246 300 cmp 0;
#X obj 42 65 list split 1;
#X obj 88 119 ==;
#X obj 43 151 spigot;
#X obj 43 176 outlet;
#X obj 42 28 inlet;
#X obj 110 30 r \$1-fm2arg2;
#X connect 0 0 2 0;
#X connect 0 1 1 0;
#X connect 1 0 2 1;
#X connect 2 0 3 0;
#X connect 4 0 0 0;
#X connect 5 0 1 1;
#X restore 562 135 pd cmp;
#N canvas 0 0 246 300 cmp 0;
#X obj 42 65 list split 1;
#X obj 88 119 ==;
#X obj 43 151 spigot;
#X obj 43 176 outlet;
#X obj 42 28 inlet;
#X obj 110 30 r \$1-fm2arg2;
#X connect 0 0 2 0;
#X connect 0 1 1 0;
#X connect 1 0 2 1;
#X connect 2 0 3 0;
#X connect 4 0 0 0;
#X connect 5 0 1 1;
#X restore 579 163 pd cmp;
#N canvas 0 0 246 300 cmp 0;
#X obj 42 65 list split 1;
#X obj 88 119 ==;
#X obj 43 151 spigot;
#X obj 43 176 outlet;
#X obj 42 28 inlet;
#X obj 110 30 r \$1-fm2arg2;
#X connect 0 0 2 0;
#X connect 0 1 1 0;
#X connect 1 0 2 1;
#X connect 2 0 3 0;
#X connect 4 0 0 0;
#X connect 5 0 1 1;
#X restore 692 110 pd cmp;
#N canvas 0 0 246 300 cmp 0;
#X obj 42 65 list split 1;
#X obj 88 119 ==;
#X obj 43 151 spigot;
#X obj 43 176 outlet;
#X obj 42 28 inlet;
#X obj 110 30 r \$1-fm2arg2;
#X connect 0 0 2 0;
#X connect 0 1 1 0;
#X connect 1 0 2 1;
#X connect 2 0 3 0;
#X connect 4 0 0 0;
#X connect 5 0 1 1;
#X restore 712 135 pd cmp;
#N canvas 0 0 246 300 cmp 0;
#X obj 42 65 list split 1;
#X obj 88 119 ==;
#X obj 43 151 spigot;
#X obj 43 176 outlet;
#X obj 42 28 inlet;
#X obj 110 30 r \$1-fm2arg2;
#X connect 0 0 2 0;
#X connect 0 1 1 0;
#X connect 1 0 2 1;
#X connect 2 0 3 0;
#X connect 4 0 0 0;
#X connect 5 0 1 1;
#X restore 729 163 pd cmp;
#N canvas 0 0 246 300 cmp 0;
#X obj 42 65 list split 1;
#X obj 88 119 ==;
#X obj 43 151 spigot;
#X obj 43 176 outlet;
#X obj 42 28 inlet;
#X obj 110 30 r \$1-fm2arg2;
#X connect 0 0 2 0;
#X connect 0 1 1 0;
#X connect 1 0 2 1;
#X connect 2 0 3 0;
#X connect 4 0 0 0;
#X connect 5 0 1 1;
#X restore 882 100 pd cmp;
#N canvas 0 0 246 300 cmp 0;
#X obj 42 65 list split 1;
#X obj 88 119 ==;
#X obj 43 151 spigot;
#X obj 43 176 outlet;
#X obj 42 28 inlet;
#X obj 110 30 r \$1-fm2arg2;
#X connect 0 0 2 0;
#X connect 0 1 1 0;
#X connect 1 0 2 1;
#X connect 2 0 3 0;
#X connect 4 0 0 0;
#X connect 5 0 1 1;
#X restore 902 125 pd cmp;
#N canvas 0 0 246 300 cmp 0;
#X obj 42 65 list split 1;
#X obj 88 119 ==;
#X obj 43 151 spigot;
#X obj 43 176 outlet;
#X obj 42 28 inlet;
#X obj 110 30 r \$1-fm2arg2;
#X connect 0 0 2 0;
#X connect 0 1 1 0;
#X connect 1 0 2 1;
#X connect 2 0 3 0;
#X connect 4 0 0 0;
#X connect 5 0 1 1;
#X restore 919 153 pd cmp;
#N canvas 30 18 246 218 cmp 0;
#X obj 42 65 list split 1;
#X obj 88 119 ==;
#X obj 43 151 spigot;
#X obj 43 176 outlet;
#X obj 42 28 inlet;
#X obj 110 30 r \$1-fm2arg2;
#X connect 0 0 2 0;
#X connect 0 1 1 0;
#X connect 1 0 2 1;
#X connect 2 0 3 0;
#X connect 4 0 0 0;
#X connect 5 0 1 1;
#X restore 32 370 pd cmp;
#N canvas 355 32 246 300 cmp 0;
#X obj 42 65 list split 1;
#X obj 88 119 ==;
#X obj 43 151 spigot;
#X obj 43 176 outlet;
#X obj 42 28 inlet;
#X obj 110 30 r \$1-fm2arg2;
#X connect 0 0 2 0;
#X connect 0 1 1 0;
#X connect 1 0 2 1;
#X connect 2 0 3 0;
#X connect 4 0 0 0;
#X connect 5 0 1 1;
#X restore 52 395 pd cmp;
#N canvas 0 0 246 300 cmp 0;
#X obj 42 65 list split 1;
#X obj 88 119 ==;
#X obj 43 151 spigot;
#X obj 43 176 outlet;
#X obj 42 28 inlet;
#X obj 110 30 r \$1-fm2arg2;
#X connect 0 0 2 0;
#X connect 0 1 1 0;
#X connect 1 0 2 1;
#X connect 2 0 3 0;
#X connect 4 0 0 0;
#X connect 5 0 1 1;
#X restore 69 423 pd cmp;
#N canvas 0 0 246 300 cmp 0;
#X obj 42 65 list split 1;
#X obj 88 119 ==;
#X obj 43 151 spigot;
#X obj 43 176 outlet;
#X obj 42 28 inlet;
#X obj 110 30 r \$1-fm2arg2;
#X connect 0 0 2 0;
#X connect 0 1 1 0;
#X connect 1 0 2 1;
#X connect 2 0 3 0;
#X connect 4 0 0 0;
#X connect 5 0 1 1;
#X restore 182 370 pd cmp;
#N canvas 0 0 246 300 cmp 0;
#X obj 42 65 list split 1;
#X obj 88 119 ==;
#X obj 43 151 spigot;
#X obj 43 176 outlet;
#X obj 42 28 inlet;
#X obj 110 30 r \$1-fm2arg2;
#X connect 0 0 2 0;
#X connect 0 1 1 0;
#X connect 1 0 2 1;
#X connect 2 0 3 0;
#X connect 4 0 0 0;
#X connect 5 0 1 1;
#X restore 202 395 pd cmp;
#N canvas 308 15 246 215 cmp 0;
#X obj 42 65 list split 1;
#X obj 88 119 ==;
#X obj 43 151 spigot;
#X obj 43 176 outlet;
#X obj 42 28 inlet;
#X obj 110 30 r \$1-fm2arg2;
#X connect 0 0 2 0;
#X connect 0 1 1 0;
#X connect 1 0 2 1;
#X connect 2 0 3 0;
#X connect 4 0 0 0;
#X connect 5 0 1 1;
#X restore 219 423 pd cmp;
#N canvas 0 0 246 300 cmp 0;
#X obj 42 65 list split 1;
#X obj 88 119 ==;
#X obj 43 151 spigot;
#X obj 43 176 outlet;
#X obj 42 28 inlet;
#X obj 110 30 r \$1-fm2arg2;
#X connect 0 0 2 0;
#X connect 0 1 1 0;
#X connect 1 0 2 1;
#X connect 2 0 3 0;
#X connect 4 0 0 0;
#X connect 5 0 1 1;
#X restore 372 370 pd cmp;
#N canvas 0 0 246 300 cmp 0;
#X obj 42 65 list split 1;
#X obj 88 119 ==;
#X obj 43 151 spigot;
#X obj 43 176 outlet;
#X obj 42 28 inlet;
#X obj 110 30 r \$1-fm2arg2;
#X connect 0 0 2 0;
#X connect 0 1 1 0;
#X connect 1 0 2 1;
#X connect 2 0 3 0;
#X connect 4 0 0 0;
#X connect 5 0 1 1;
#X restore 392 395 pd cmp;
#N canvas 0 0 246 300 cmp 0;
#X obj 42 65 list split 1;
#X obj 88 119 ==;
#X obj 43 151 spigot;
#X obj 43 176 outlet;
#X obj 42 28 inlet;
#X obj 110 30 r \$1-fm2arg2;
#X connect 0 0 2 0;
#X connect 0 1 1 0;
#X connect 1 0 2 1;
#X connect 2 0 3 0;
#X connect 4 0 0 0;
#X connect 5 0 1 1;
#X restore 409 423 pd cmp;
#N canvas 0 0 246 300 cmp 0;
#X obj 42 65 list split 1;
#X obj 88 119 ==;
#X obj 43 151 spigot;
#X obj 43 176 outlet;
#X obj 42 28 inlet;
#X obj 110 30 r \$1-fm2arg2;
#X connect 0 0 2 0;
#X connect 0 1 1 0;
#X connect 1 0 2 1;
#X connect 2 0 3 0;
#X connect 4 0 0 0;
#X connect 5 0 1 1;
#X restore 552 380 pd cmp;
#N canvas 0 0 246 300 cmp 0;
#X obj 42 65 list split 1;
#X obj 88 119 ==;
#X obj 43 151 spigot;
#X obj 43 176 outlet;
#X obj 42 28 inlet;
#X obj 110 30 r \$1-fm2arg2;
#X connect 0 0 2 0;
#X connect 0 1 1 0;
#X connect 1 0 2 1;
#X connect 2 0 3 0;
#X connect 4 0 0 0;
#X connect 5 0 1 1;
#X restore 572 405 pd cmp;
#N canvas 0 0 246 300 cmp 0;
#X obj 42 65 list split 1;
#X obj 88 119 ==;
#X obj 43 151 spigot;
#X obj 43 176 outlet;
#X obj 42 28 inlet;
#X obj 110 30 r \$1-fm2arg2;
#X connect 0 0 2 0;
#X connect 0 1 1 0;
#X connect 1 0 2 1;
#X connect 2 0 3 0;
#X connect 4 0 0 0;
#X connect 5 0 1 1;
#X restore 589 433 pd cmp;
#N canvas 0 0 246 300 cmp 0;
#X obj 42 65 list split 1;
#X obj 88 119 ==;
#X obj 43 151 spigot;
#X obj 43 176 outlet;
#X obj 42 28 inlet;
#X obj 110 30 r \$1-fm2arg2;
#X connect 0 0 2 0;
#X connect 0 1 1 0;
#X connect 1 0 2 1;
#X connect 2 0 3 0;
#X connect 4 0 0 0;
#X connect 5 0 1 1;
#X restore 702 380 pd cmp;
#N canvas 0 0 246 300 cmp 0;
#X obj 42 65 list split 1;
#X obj 88 119 ==;
#X obj 43 151 spigot;
#X obj 43 176 outlet;
#X obj 42 28 inlet;
#X obj 110 30 r \$1-fm2arg2;
#X connect 0 0 2 0;
#X connect 0 1 1 0;
#X connect 1 0 2 1;
#X connect 2 0 3 0;
#X connect 4 0 0 0;
#X connect 5 0 1 1;
#X restore 722 405 pd cmp;
#N canvas 0 0 246 300 cmp 0;
#X obj 42 65 list split 1;
#X obj 88 119 ==;
#X obj 43 151 spigot;
#X obj 43 176 outlet;
#X obj 42 28 inlet;
#X obj 110 30 r \$1-fm2arg2;
#X connect 0 0 2 0;
#X connect 0 1 1 0;
#X connect 1 0 2 1;
#X connect 2 0 3 0;
#X connect 4 0 0 0;
#X connect 5 0 1 1;
#X restore 739 433 pd cmp;
#N canvas 0 0 246 300 cmp 0;
#X obj 42 65 list split 1;
#X obj 88 119 ==;
#X obj 43 151 spigot;
#X obj 43 176 outlet;
#X obj 42 28 inlet;
#X obj 110 30 r \$1-fm2arg2;
#X connect 0 0 2 0;
#X connect 0 1 1 0;
#X connect 1 0 2 1;
#X connect 2 0 3 0;
#X connect 4 0 0 0;
#X connect 5 0 1 1;
#X restore 892 370 pd cmp;
#N canvas 0 0 246 300 cmp 0;
#X obj 42 65 list split 1;
#X obj 88 119 ==;
#X obj 43 151 spigot;
#X obj 43 176 outlet;
#X obj 42 28 inlet;
#X obj 110 30 r \$1-fm2arg2;
#X connect 0 0 2 0;
#X connect 0 1 1 0;
#X connect 1 0 2 1;
#X connect 2 0 3 0;
#X connect 4 0 0 0;
#X connect 5 0 1 1;
#X restore 912 395 pd cmp;
#N canvas 0 0 246 300 cmp 0;
#X obj 42 65 list split 1;
#X obj 88 119 ==;
#X obj 43 151 spigot;
#X obj 43 176 outlet;
#X obj 42 28 inlet;
#X obj 110 30 r \$1-fm2arg2;
#X connect 0 0 2 0;
#X connect 0 1 1 0;
#X connect 1 0 2 1;
#X connect 2 0 3 0;
#X connect 4 0 0 0;
#X connect 5 0 1 1;
#X restore 929 423 pd cmp;
#X obj 100 245 s \$1-fm2rr;
#X obj 72 214 s \$1-fm2ri;
#X obj 30 191 s \$1-fm2rp;
#X obj 182 186 s \$1-fm2riatt;
#X obj 239 234 s \$1-fm2rirel;
#X obj 209 211 s \$1-fm2ridec;
#X obj 413 211 s \$1-fm2ratt;
#X obj 446 237 s \$1-fm2rdec;
#X obj 538 192 s \$1-fm2rrel;
#X obj 375 188 s \$1-fm2risus;
#X connect 0 0 37 0;
#X connect 1 0 38 0;
#X connect 2 0 39 0;
#X connect 3 0 40 0;
#X connect 4 0 41 0;
#X connect 5 0 42 0;
#X connect 6 0 43 0;
#X connect 7 0 44 0;
#X connect 8 0 45 0;
#X connect 9 0 46 0;
#X connect 10 0 47 0;
#X connect 11 0 48 0;
#X connect 12 0 49 0;
#X connect 13 0 50 0;
#X connect 14 0 51 0;
#X connect 15 0 52 0;
#X connect 16 0 53 0;
#X connect 17 0 54 0;
#X connect 18 0 55 0;
#X connect 19 0 56 0;
#X connect 20 0 57 0;
#X connect 21 0 58 0;
#X connect 22 0 59 0;
#X connect 23 0 60 0;
#X connect 24 0 61 0;
#X connect 25 0 62 0;
#X connect 26 0 63 0;
#X connect 27 0 64 0;
#X connect 28 0 65 0;
#X connect 29 0 66 0;
#X connect 30 0 67 0;
#X connect 31 0 68 0;
#X connect 32 0 69 0;
#X connect 33 0 70 0;
#X connect 34 0 71 0;
#X connect 35 0 72 0;
#X connect 37 0 75 0;
#X connect 38 0 74 0;
#X connect 39 0 73 0;
#X connect 40 0 76 0;
#X connect 41 0 78 0;
#X connect 42 0 77 0;
#X connect 43 0 82 0;
#X connect 44 0 79 0;
#X connect 45 0 80 0;
#X connect 46 0 81 0;
#X restore 251 246 pd receive-normal;
#X text 32 27 !!->;
#N canvas 0 0 246 300 cmp 0;
#X obj 42 65 list split 1;
#X obj 88 119 ==;
#X obj 43 151 spigot;
#X obj 43 176 outlet;
#X obj 42 28 inlet;
#X obj 157 64 inlet;
#X connect 0 0 2 0;
#X connect 0 1 1 0;
#X connect 1 0 2 1;
#X connect 2 0 3 0;
#X connect 4 0 0 0;
#X connect 5 0 1 1;
#X restore 209 94 pd cmp;
#X obj 458 12 loadbang;
#X obj 458 37 f \$2;
#X obj 458 85 s \$1-fm2arg2;
#X connect 0 0 9 0;
#X connect 1 1 4 0;
#X connect 4 0 3 0;
#X connect 9 0 1 0;
#X connect 10 0 11 0;
#X connect 11 0 9 1;
#X connect 11 0 12 0;
#X restore 445 611 pd presetsnew;
#X connect 0 0 2 0;
#X connect 1 0 0 0;
#X connect 1 0 50 0;
#X connect 6 0 10 0;
#X connect 7 0 5 0;
#X connect 8 0 9 0;
#X connect 9 0 4 0;
#X connect 10 0 3 0;
#X connect 13 0 40 0;
#X connect 14 0 42 0;
#X connect 15 0 41 0;
#X connect 16 0 0 1;
#X connect 16 0 50 1;
#X connect 17 0 43 0;
#X connect 18 0 45 0;
#X connect 19 0 47 0;
#X connect 20 0 44 0;
#X connect 23 0 46 0;
#X connect 24 0 48 0;
#X connect 25 0 49 0;
#X connect 29 0 33 0;
#X connect 30 0 31 0;
#X connect 32 0 29 0;
#X connect 33 0 30 0;
#X connect 36 0 0 1;
#X connect 37 0 0 0;
#X connect 37 1 0 1;
#X connect 50 0 37 0;
