#N canvas 564 149 481 337 12;
#N canvas 406 17 774 737 drawwave 0;
#X obj 29 47 inlet pack;
#X obj 17 540 tabosc4~ \$1-addwaves;
#X msg 33 129 normalize;
#X obj 53 327 r \$1-wvtsfreq;
#X obj 43 599 *~;
#X obj 138 561 line~;
#X obj 194 535 pack f 30;
#X obj 188 482 r \$1-wvtslev;
#X obj 46 633 outlet~;
#X floatatom 287 208 5 0 0 0 - - -;
#X msg 390 745 \; 1-addwaves cosinesum 16384 1 0 1 0 1 0 1 0 1 0 1
0 1 0 1 0;
#X msg 405 681 \; 1-addwaves normalize;
#X obj 530 36 f \$1;
#X obj 439 8 loadbang;
#X obj 531 11 bng 15 250 50 0 empty empty empty 17 7 0 10 -262144 -1
-1;
#X msg 528 68 \$1-addwaves;
#X obj 167 282 pack s s f f f f f f f f f f f f f f f f f;
#X obj 265 227 unpack f f f f f f f f f f f f f f f f;
#X msg 197 231 16384;
#X msg 105 227 sinesum;
#X obj 530 115 symbol;
#X obj 33 99 t b b b a;
#X msg 169 310 \; \$2 \$1 \$3 \$4 \$5 \$6 \$7 \$8 \$9 \$10 \$11 \$12
\$13 \$14 \$15 \$16 \$17 \$18 \$19;
#X obj 107 255 symbol;
#X obj 17 179 symbol;
#X obj 21 204 pack s s;
#X msg 19 246 \; \$2 \$1;
#X obj 457 455 list trim;
#X obj 376 399 t b a;
#X msg 376 429 normalize;
#X obj 376 484 s \$1-addwaves;
#X obj 457 431 list prepend sinesum 1024;
#X obj 54 509 mtof;
#X obj 22 432 spigot;
#X obj 87 431 spigot;
#X obj 185 405 == 0;
#X obj 18 461 pack f 100;
#X obj 21 486 line;
#X obj 156 438 r \$1-wvtsglt;
#X obj 166 370 r \$1-wvtsglide;
#X connect 0 0 28 0;
#X connect 1 0 4 0;
#X connect 2 0 24 0;
#X connect 3 0 33 0;
#X connect 3 0 34 0;
#X connect 4 0 8 0;
#X connect 5 0 4 1;
#X connect 6 0 5 0;
#X connect 7 0 6 0;
#X connect 12 0 15 0;
#X connect 13 0 12 0;
#X connect 14 0 12 0;
#X connect 15 0 20 0;
#X connect 16 0 22 0;
#X connect 17 0 16 3;
#X connect 17 1 16 4;
#X connect 17 2 16 5;
#X connect 17 3 16 6;
#X connect 17 4 16 7;
#X connect 17 5 16 8;
#X connect 17 6 16 9;
#X connect 17 7 16 10;
#X connect 17 8 16 11;
#X connect 17 9 16 12;
#X connect 17 10 16 13;
#X connect 17 11 16 14;
#X connect 17 12 16 15;
#X connect 17 13 16 16;
#X connect 17 14 16 17;
#X connect 17 15 16 18;
#X connect 18 0 16 2;
#X connect 19 0 23 0;
#X connect 20 0 16 1;
#X connect 20 0 25 1;
#X connect 21 0 2 0;
#X connect 21 1 19 0;
#X connect 21 2 18 0;
#X connect 21 3 17 0;
#X connect 23 0 16 0;
#X connect 24 0 25 0;
#X connect 25 0 26 0;
#X connect 27 0 30 0;
#X connect 28 0 29 0;
#X connect 28 1 31 0;
#X connect 29 0 30 0;
#X connect 31 0 27 0;
#X connect 32 0 1 0;
#X connect 33 0 36 0;
#X connect 34 0 32 0;
#X connect 35 0 34 1;
#X connect 36 0 37 0;
#X connect 37 0 32 0;
#X connect 38 0 36 1;
#X connect 39 0 35 0;
#X connect 39 0 33 1;
#X restore 360 561 pd drawwave;
#X obj 154 397 r \$1-wvtsp1;
#X obj 247 398 r \$1-wvtsp2;
#X obj 344 398 r \$1-wvtsp3;
#X obj 437 399 r \$1-wvtsp4;
#X obj 249 417 r \$1-wvtsp5;
#X obj 317 437 r \$1-wvtsp6;
#X obj 360 456 r \$1-wvtsp7;
#X obj 457 457 r \$1-wvtsp8;
#X obj 538 398 r \$1-wvtsp9;
#X obj 631 399 r \$1-wvtsp10;
#X obj 734 402 r \$1-wvtsp11;
#X obj 843 402 r \$1-wvtsp12;
#X obj 554 446 r \$1-wvtsp13;
#X obj 660 446 r \$1-wvtsp14;
#X obj 766 449 r \$1-wvtsp15;
#X obj 876 448 r \$1-wvtsp16;
#N canvas 0 0 450 300 (subpatch) 0;
#X array \$1-addwaves 1027 float 2;
#X coords 0 1 1027 -1 350 140 1;
#X restore 4 19 graph;
#X obj 359 529 pack f f f f f f f f f f f f f f f f;
#X obj 360 603 outlet~;
#X obj 109 724 t b f;
#X obj 164 724 t b f;
#X obj 224 725 t b f;
#X obj 488 732 t b f;
#X obj 546 732 t b f;
#X obj 603 733 t b f;
#X obj 661 733 t b f;
#X obj 521 768 t b f;
#X obj 579 768 t b f;
#X obj 636 769 t b f;
#X obj 694 769 t b f;
#X obj 203 759 t b f;
#X obj 261 759 t b f;
#X obj 318 760 t b f;
#X obj 376 760 t b f;
#X obj 113 482 f;
#X obj 49 441 r \$1-wvtsgo;
#X obj 59 512 bng 15 250 50 0 empty empty empty 17 7 0 10 -262144 -1
-1;
#X obj 568 111 inlet freq;
#X obj 569 153 s \$1-wvtrfreq;
#N canvas 155 0 1056 737 save_preset_array 0;
#X obj 367 454 f;
#X obj 308 411 f;
#X obj 338 434 f;
#X obj 209 468 f;
#X obj 240 482 f;
#X obj 85 505 f;
#X obj 181 443 f;
#X obj 26 465 f;
#X obj 58 484 f;
#X obj 83 109 until;
#X obj 62 173 + 1;
#X obj 89 142 f 0;
#X obj 79 42 bng 15 250 50 0 empty empty empty 17 7 0 10 -262144 -1
-1;
#X obj 557 555 r openpreset;
#X obj 163 32 r savepreset;
#X obj 493 642 until;
#X obj 470 701 + 1;
#X obj 497 670 f 0;
#N canvas 49 80 1096 346 router_1inxout 0;
#X obj 231 27 inlet one;
#X obj 339 23 inlet route123;
#X obj 309 82 pack;
#X obj 271 56 mod 56;
#X obj 265 116 route 1 2 3 4 5 6 7 8 9 10 11 12 13 14 15 16 17 18 19
20 21 22;
#X obj 31 219 s \$1-wvtrp1;
#X obj 126 219 s \$1-wvtrp2;
#X obj 221 219 s \$1-wvtrp3;
#X obj 316 219 s \$1-wvtrp4;
#X obj 410 220 s \$1-wvtrp5;
#X obj 505 220 s \$1-wvtrp6;
#X obj 600 220 s \$1-wvtrp7;
#X obj 695 220 s \$1-wvtrp8;
#X obj 122 249 s \$1-wvtrp9;
#X obj 217 249 s \$1-wvtrp10;
#X obj 312 249 s \$1-wvtrp11;
#X obj 407 249 s \$1-wvtrp12;
#X obj 501 250 s \$1-wvtrp13;
#X obj 604 250 s \$1-wvtrp14;
#X obj 703 248 s \$1-wvtrp15;
#X obj 811 249 s \$1-wvtrp16;
#X obj 888 282 s \$1-wvtrfreq;
#X obj 946 302 s \$1-wvtrlev;
#X obj 127 172 t b f;
#X obj 25 273 s \$1-wvtrgo;
#X text 257 289 'bang' op het einde om nieuwe golfvorm effectief te
vormen;
#X obj 999 279 s \$1-wvtrglide;
#X obj 1053 301 s \$1-wvtrglt;
#X connect 0 0 3 0;
#X connect 1 0 2 1;
#X connect 2 0 4 0;
#X connect 3 0 2 0;
#X connect 4 0 23 0;
#X connect 4 1 6 0;
#X connect 4 2 7 0;
#X connect 4 3 8 0;
#X connect 4 4 9 0;
#X connect 4 5 10 0;
#X connect 4 6 11 0;
#X connect 4 7 12 0;
#X connect 4 8 13 0;
#X connect 4 9 14 0;
#X connect 4 10 15 0;
#X connect 4 11 16 0;
#X connect 4 12 17 0;
#X connect 4 13 18 0;
#X connect 4 14 19 0;
#X connect 4 15 20 0;
#X connect 4 16 21 0;
#X connect 4 17 22 0;
#X connect 4 18 26 0;
#X connect 4 19 27 0;
#X connect 23 0 24 0;
#X connect 23 1 5 0;
#X restore 412 789 pd router_1inxout;
#X obj 211 106 f 0;
#X obj 335 24 r presetnr;
#X obj 585 631 f 0;
#X obj 493 729 t f f;
#X obj 85 201 t f f;
#X obj 691 561 bng 15 250 50 0 empty empty empty 17 7 0 10 -262144
-1 -1;
#N canvas 0 0 454 304 (subpatch) 0;
#X array \$1-wvtpreset 1120 float 3;
#A 0 0 0.0551181 0.0944882 0.141732 0.204724 0.283465 0.338583 0.409449
0.464567 0.496063 0.433071 0.370079 0.322835 0.275591 0.23622 0.19685
0.149606 9 0.0708661 1 50 0 0 0 0 118.11 1.54331 118 127 0 0 0 0 0
0 0 0 0 0 0 0 0 0 0 0 0 0 0 0 0 0 0 0 0 0 0 0 0.92126 0.834646 0.748031
0.669291 0.582677 0.456693 0.409449 0.322835 0.401575 0.456693 0.535433
0.598425 0.677165 0.740157 0.779528 0.84252 60 0.338583 0 500 0 0 0
0 0 0 0 0 0 0 0 0 0 0 0 0 0 0 0 0 0 0 0 0 0 0 0 0 0 0 0 0 0 0 0 0 0.0787402
0.212598 0.519685 0.929134 0.716535 0.377953 0.15748 0.267717 0.440945
0.511811 0.354331 0.102362 0.015748 0.0944882 0.0787402 0.0314961 36
0.377953 0 0 0 0 0 0 0 0 0 0 0 0 0 0 0 0 0 0 0 0 0 0 0 0 0 0 0 0 0
0 0 0 0 0 0 0 0 0 0 0 0 0 0 0 0 0 0 0 0 0 0 0 0 0 0 0 0 0 0 0 0 0 0
0 0 0 0 0 0 0 0 0 0 0 0 0 0 0 0 0 0 0 0 0 0 0 0 0 0 0 0 0 0 0 0 0 0
0 1 0 0 0 1 0 0 0 1 0 0 0 62.0941 1 0 16 0 0 0 0 0 0 0 0 0 0 0 0 0
0 0 0 0 0 0 0 0 0 0 0 0 0 0 0 0 0 0 0 0 0 0 0 0 1 1 0 1 0 1 0 1 0 1
0 1 0 0 0 62.0941 1 0 16 0 0 0 0 0 0 0 0 0 0 0 0 0 0 0 0 0 0 0 0 0
0 0 0 0 0 0 0 0 0 0 0 0 0 0 0 0 0 0 0 0 0 0 0 0 0 0 0 0 0 0 0 0 0 0
0 0 0 0 0 0 0 0 0 0 0 0 0 0 0 0 0 0 0 0 0 0 0 0 0 0 0 0 0 0 0 0 0 0
0 0 0 0 0 0 0 0 0 0 0 0 0 0 0 0 0 0 0 0 0 0 0 0 0 0 0 0 0 0 0 0 0 0
0 0 0 0 0 0 0 0 0 0 0 0 0 0 0 0 0 0 0 0 0 0 0 0 0 0 0 0 0 0 0 0 0 0
0 0 0 0 0 0 0 0 0 0 0 0 0 0 0 0 0 0 0 0 0 0 0 0 0 0 0 0 0 0 0 0 0 0
0 0 0 0 0 0 0 0 0 0 0 0 0 0 0 0 0 0 0 0 0 0 0 0 0 0 0 0 0 0 0 0 0 0
0 0 0 0 0 0 0 0 0 0 0 0 0 0 0 0 0 0 0 0 0 0 0 0 0 0 0 0 0 0 0 0 0 0
0 0 0 0 0 0 0 0 0 0 0 0 0 0 0 0 0 0 0 0 0 0 0 0 0 0 0 0 0 0 0 0 0 0
0 0 0 0 0 0 0 0 0 0 0 0 0 0 0 0 0 0 0 0 0 0 0 0 0 0 0 0 0 0 0 0 0 0
0 0 0 0 0 0 0 0 0 0 0 0 0 0 0 0 0 0 0 0 0 0 0 0 0 0 0 0 0 0 0 0 0 0
0 0 0 0 0 0 0 0 0 0 0 0 0 0 0 0 0 0 0 0 0 0 0 0 0 0 0 0 0 0 0 0 0 0
0 0 0 0 0 0 0 0 0 0 0 0 0 0 0 0 0 0 0 0 0 0 0 0 0 0 0 0 0 0 0 0 0 0
0 0 0 0 0 0 0 0 0 0 0 0 0 0 0 0 0 0 0 0 0 0 0 0 0 0 0 0 0 0 0 0 0 0
0 0 0 0 0 0 0 0 0 0 0 0 0 0 0 0 0 0 0 0 0 0 0 0 0 0 0 0 0 0 0 0 0 0
0 0 0 0 0 0 0 0 0 0 0 0 0 0 0 0 0 0 0 0 0 0 0 0 0 0 0 0 0 0 0 0 0 0
0 0 0 0 0 0 0 0 0 0 0 0 0 0 0 0 0 0 0 0 0 0 0 0 0 0 0 0 0 0 0 0 0 0
0 0 0 0 0 0 0 0 0 0 0 0 0 0 0 0 0 0 0 0 0 0 0 0 0 0 0 0 0 0 0 0 0 0
0 0 0 0 0 0 0 0 0 0 0 0 0 0 0 0 0 0 0 0 0 0 0 0 0 0 0 0 0 0 0 0 0 0
0 0 0 0 0 0 0 0 0 0 0 0 0 0 0 0 0 0 0 0 0 0 0 0 0 0 0 0 0 0 0 0 0 0
0 0 0 0 0 0 0 0 0 0 0 0 0 0 0 0 0 0 0 0 0 0 0 0 0 0 0 0 0 0 0 0;
#A 1000 0 0 0 0 0 0 0 0 0 0 0 0 0 0 0 0 0 0 0 0 0 0 0 0 0 0 0 0 0 0
0 0 0 0 0 0 0 0 0 0 0 0 0 0 0 0 0 0 0 0 0 0 0 0 0 0 0 0 0 0 0 0 0 0
0 0 0 0 0 0 0 0 0 0 0 0 0 0 0 0 0 0 0 0 0 0 0 0 0 0 0 0 0 0 0 0 0 0
0 0 0 0 0 0 0 0 0 0 0 0 0 0 0 0 0 0 0 0 0 0;
#X coords 0 200 1120 -1 200 140 1;
#X restore 524 132 graph;
#X obj 256 204 symbol;
#X obj 357 183 symbol;
#X obj 299 245 pack s s;
#X obj 356 153 r namepreset;
#X obj 248 155 f \$1;
#X msg 273 272 \; \$1 write presets/\$2-\$1.txt;
#X obj 168 57 t b b b;
#X obj 714 672 symbol;
#X obj 754 699 pack s s;
#X obj 825 626 r namepreset;
#X obj 667 612 f \$1;
#X obj 817 662 symbol;
#X msg 748 730 \; \$1 read presets/\$2-\$1.txt;
#X obj 561 584 t b b b;
#X obj 336 49 * 56;
#X obj 334 72 - 56;
#X msg 138 83 56;
#X obj 66 240 mod 56;
#X msg 515 606 56;
#X obj 492 493 f;
#X obj 438 452 f;
#X obj 464 472 f;
#X obj 599 459 f;
#X obj 535 482 f;
#X obj 556 413 f;
#X obj 754 415 f;
#X obj 662 468 f;
#X obj 698 399 f;
#X obj 812 438 f;
#X obj 821 467 f;
#X text 553 801 -> !!! nog aanpassen per 56;
#X text 579 54 max 56 parameters/waarden voor array/presets;
#X text 386 60 -> !!! per 56;
#X text 174 83 -> !!! per 56;
#X text 130 240 -> !!! per 56;
#X text 503 25 !!!onderaan nog aanpassen als er echt 56 waarden zijn!!!
;
#X obj 113 314 select 1 2 3 4 5 6 7 8 9 10 11 12 13 14 15 16 17 18
19 20 21 22;
#X obj 856 518 f;
#X obj 16 359 r \$1-wvtsp1;
#X obj 19 435 r \$1-wvtsp2;
#X obj 59 408 r \$1-wvtsp3;
#X obj 128 357 r \$1-wvtsp4;
#X obj 159 380 r \$1-wvtsp5;
#X obj 197 403 r \$1-wvtsp6;
#X obj 257 360 r \$1-wvtsp7;
#X obj 315 377 r \$1-wvtsp8;
#X obj 355 402 r \$1-wvtsp9;
#X obj 410 367 r \$1-wvtsp10;
#X obj 439 387 r \$1-wvtsp11;
#X obj 451 413 r \$1-wvtsp12;
#X obj 486 440 r \$1-wvtsp13;
#X obj 557 385 r \$1-wvtsp14;
#X obj 611 430 r \$1-wvtsp15;
#X obj 689 338 r \$1-wvtsp16;
#X msg 247 182 \$1-wvtpreset;
#X obj 326 561 tabwrite \$1-wvtpreset;
#X msg 673 648 \$1-wvtpreset;
#X obj 528 760 tabread \$1-wvtpreset;
#X obj 844 324 r \$1-wvtsfreq;
#X obj 864 371 r \$1-wvtslev;
#X obj 884 430 r \$1-wvtsglt;
#X obj 876 400 r \$1-wvtsglide;
#X connect 0 0 81 0;
#X connect 1 0 81 0;
#X connect 2 0 81 0;
#X connect 3 0 81 0;
#X connect 4 0 81 0;
#X connect 5 0 81 0;
#X connect 6 0 81 0;
#X connect 7 0 81 0;
#X connect 8 0 81 0;
#X connect 9 0 11 0;
#X connect 10 0 11 1;
#X connect 10 0 23 0;
#X connect 11 0 10 0;
#X connect 12 0 9 0;
#X connect 13 0 39 0;
#X connect 14 0 32 0;
#X connect 15 0 17 0;
#X connect 16 0 17 1;
#X connect 16 0 22 0;
#X connect 17 0 16 0;
#X connect 19 0 11 1;
#X connect 20 0 40 0;
#X connect 21 0 17 1;
#X connect 22 0 18 0;
#X connect 22 1 83 0;
#X connect 23 0 43 0;
#X connect 23 1 81 1;
#X connect 24 0 39 0;
#X connect 26 0 28 0;
#X connect 27 0 28 1;
#X connect 28 0 31 0;
#X connect 29 0 27 0;
#X connect 30 0 80 0;
#X connect 32 0 30 0;
#X connect 32 1 42 0;
#X connect 32 2 19 0;
#X connect 33 0 34 0;
#X connect 34 0 38 0;
#X connect 35 0 37 0;
#X connect 36 0 82 0;
#X connect 37 0 34 1;
#X connect 39 0 44 0;
#X connect 39 1 21 0;
#X connect 39 2 36 0;
#X connect 40 0 41 0;
#X connect 41 0 19 1;
#X connect 41 0 21 1;
#X connect 42 0 9 0;
#X connect 43 0 62 0;
#X connect 44 0 15 0;
#X connect 45 0 81 0;
#X connect 46 0 81 0;
#X connect 47 0 81 0;
#X connect 48 0 81 0;
#X connect 49 0 81 0;
#X connect 50 0 81 0;
#X connect 51 0 81 0;
#X connect 52 0 81 0;
#X connect 53 0 81 0;
#X connect 54 0 81 0;
#X connect 55 0 81 0;
#X connect 62 0 7 0;
#X connect 62 1 8 0;
#X connect 62 2 5 0;
#X connect 62 3 6 0;
#X connect 62 4 3 0;
#X connect 62 5 4 0;
#X connect 62 6 1 0;
#X connect 62 7 2 0;
#X connect 62 8 0 0;
#X connect 62 9 46 0;
#X connect 62 10 47 0;
#X connect 62 11 45 0;
#X connect 62 12 49 0;
#X connect 62 13 50 0;
#X connect 62 14 48 0;
#X connect 62 15 52 0;
#X connect 62 16 53 0;
#X connect 62 17 51 0;
#X connect 62 18 54 0;
#X connect 62 19 55 0;
#X connect 62 20 63 0;
#X connect 63 0 81 0;
#X connect 64 0 7 1;
#X connect 65 0 8 1;
#X connect 66 0 5 1;
#X connect 67 0 6 1;
#X connect 68 0 3 1;
#X connect 69 0 4 1;
#X connect 70 0 1 1;
#X connect 71 0 2 1;
#X connect 72 0 0 1;
#X connect 73 0 46 1;
#X connect 74 0 47 1;
#X connect 75 0 45 1;
#X connect 76 0 49 1;
#X connect 77 0 50 1;
#X connect 78 0 48 1;
#X connect 79 0 52 1;
#X connect 80 0 26 0;
#X connect 82 0 33 0;
#X connect 83 0 18 1;
#X connect 84 0 53 1;
#X connect 85 0 51 1;
#X connect 86 0 55 1;
#X connect 87 0 54 1;
#X restore 580 291 pd save_preset_array;
#N canvas 378 28 737 602 printallreceives 0;
#X obj 35 63 f \$1;
#X obj 33 6 bng 15 250 50 0 empty empty empty 17 7 0 10 -262144 -1
-1;
#X obj 36 87 t f f;
#X obj 166 21 r \$1-wvtprintreceives;
#X obj 92 136 print start;
#X obj 38 659 print end;
#X msg 91 109 names of receives in [waves-add \$1]...................>>
;
#X msg 54 433 \$1-wvtrglide;
#X msg 37 633 <<.........................................[waves-add
\$1];
#X msg 194 490 \$1-wvtrglt;
#X msg 537 201 \$1-wvtrfreq;
#X msg 543 256 \$1-wvtrlev;
#X obj 542 282 print level[0-1];
#X obj 532 229 print pitch[0-127];
#X obj 52 460 print glide[0-1];
#X obj 10 21 r printreceives;
#X obj 195 513 print gl_time[0-xxx];
#X obj 413 265 print p1[0-1];
#X msg 414 239 \$1-wvtrp1;
#X obj 40 349 t f f f f f f f f f f;
#X obj 108 156 t f f f f f f f f f f f f;
#X msg 414 289 \$1-wvtrp2;
#X obj 413 315 print p2[0-1];
#X msg 414 339 \$1-wvtrp3;
#X obj 413 365 print p3[0-1];
#X msg 290 243 \$1-wvtrp4;
#X obj 290 269 print p4[0-1];
#X msg 290 292 \$1-wvtrp5;
#X obj 289 318 print p5[0-1];
#X msg 174 239 \$1-wvtrp6;
#X obj 173 265 print p6[0-1];
#X msg 174 289 \$1-wvtrp7;
#X obj 173 315 print p7[0-1];
#X msg 50 243 \$1-wvtrp8;
#X obj 50 269 print p8[0-1];
#X msg 50 292 \$1-wvtrp9;
#X obj 49 318 print p9[0-1];
#X msg 534 407 \$1-wvtrp10;
#X obj 533 433 print p10[0-1];
#X msg 532 459 \$1-wvtrp11;
#X obj 531 485 print p11[0-1];
#X msg 532 509 \$1-wvtrp12;
#X obj 531 535 print p12[0-1];
#X msg 383 396 \$1-wvtrp13;
#X obj 382 422 print p13[0-1];
#X msg 386 449 \$1-wvtrp14;
#X obj 386 475 print p14[0-1];
#X msg 228 390 \$1-wvtrp15;
#X obj 228 417 print p15[0-1];
#X msg 211 441 \$1-wvtrp16;
#X obj 210 467 print p16[0-1];
#X obj 40 527 t f f f f;
#X msg 109 566 \$1-wvtrgo;
#X obj 108 593 print go[1];
#X connect 0 0 2 0;
#X connect 1 0 0 0;
#X connect 2 0 20 0;
#X connect 2 1 6 0;
#X connect 3 0 0 0;
#X connect 6 0 4 0;
#X connect 7 0 14 0;
#X connect 8 0 5 0;
#X connect 9 0 16 0;
#X connect 10 0 13 0;
#X connect 11 0 12 0;
#X connect 15 0 0 0;
#X connect 18 0 17 0;
#X connect 19 0 51 0;
#X connect 19 1 7 0;
#X connect 19 2 9 0;
#X connect 19 3 49 0;
#X connect 19 4 47 0;
#X connect 19 5 45 0;
#X connect 19 6 43 0;
#X connect 19 7 41 0;
#X connect 19 8 39 0;
#X connect 19 9 37 0;
#X connect 20 0 19 0;
#X connect 20 1 35 0;
#X connect 20 2 33 0;
#X connect 20 3 31 0;
#X connect 20 4 29 0;
#X connect 20 5 27 0;
#X connect 20 6 25 0;
#X connect 20 7 23 0;
#X connect 20 8 21 0;
#X connect 20 9 18 0;
#X connect 20 10 11 0;
#X connect 20 11 10 0;
#X connect 21 0 22 0;
#X connect 23 0 24 0;
#X connect 25 0 26 0;
#X connect 27 0 28 0;
#X connect 29 0 30 0;
#X connect 31 0 32 0;
#X connect 33 0 34 0;
#X connect 35 0 36 0;
#X connect 37 0 38 0;
#X connect 39 0 40 0;
#X connect 41 0 42 0;
#X connect 43 0 44 0;
#X connect 45 0 46 0;
#X connect 47 0 48 0;
#X connect 49 0 50 0;
#X connect 51 0 8 0;
#X connect 51 3 52 0;
#X connect 52 0 53 0;
#X restore 565 213 pd printallreceives;
#N canvas 417 514 425 135 \$1-wavesaddextra 0;
#X obj 8 72 bng 15 250 50 0 printreceives empty print_all_receives
17 7 0 10 -262144 -1 -1;
#X obj 7 13 bng 15 250 50 0 \$1-wvtprintreceives empty print_names_of_receives
17 7 0 10 -262144 -1 -1;
#X text 66 91 (of all objects in open files);
#X text 65 32 (of this 'waves-add' object);
#X restore 576 236 pd \$1-wavesaddextra;
#X obj 763 244 f \$1;
#X obj 763 295 symbol;
#X msg 763 320 \; \$1 vis 1;
#X obj 761 221 r \$1-wvtsextraoptions;
#X msg 764 269 pd-\$1-wavesaddextra;
#X obj 833 164 s \$1-wvtrglide;
#X obj 939 141 s \$1-wvtrglt;
#X text 38 344 presets \, toch live p1 veranderen?;
#X obj 686 104 inlet level;
#X obj 686 132 / 127;
#X obj 828 84 inlet glide;
#X obj 937 85 inlet gltime;
#X obj 825 110 > 0;
#X obj 936 111 * 10;
#X text 972 109 ts 0 en 1270;
#X obj 685 161 s \$1-wvtrlev;
#N canvas 744 585 566 199 needsound 0;
#X obj 22 34 r soundfileyesno;
#X msg 18 67 0;
#X obj 22 138 s answersoundfile;
#X text 63 65 0 = this abunch object doesn't need a sound file (store
in a preset file) \, 1 = it does;
#X connect 0 0 1 0;
#X connect 1 0 2 0;
#X restore 613 262 pd needsound;
#N canvas 0 0 332 196 init 0;
#X obj 173 121 s \$1-wvtrfreq;
#X obj 143 30 loadbang;
#X msg 104 75 0;
#X msg 138 74 100;
#X msg 177 75 60;
#X obj 38 148 s \$1-wvtrglide;
#X obj 161 148 s \$1-wvtrglt;
#X connect 1 0 2 0;
#X connect 1 0 3 0;
#X connect 1 0 4 0;
#X connect 2 0 5 0;
#X connect 3 0 6 0;
#X connect 4 0 0 0;
#X restore 604 321 pd init;
#X obj 4 164 cnv 15 350 170 empty empty empty 50 12 0 10 -258699 -143491
0;
#X obj 12 178 vsl 15 128 0 1 0 0 \$1-wvtsp1 \$1-wvtrp1 p1 0 -9 0 8
-262144 -1 -1 0 1;
#X obj 30 178 vsl 15 128 0 1 0 0 \$1-wvtsp2 \$1-wvtrp2 p2 0 -9 0 8
-262144 -1 -1 0 1;
#X obj 48 178 vsl 15 128 0 1 0 0 \$1-wvtsp3 \$1-wvtrp3 p3 0 -9 0 8
-262144 -1 -1 0 1;
#X obj 66 178 vsl 15 128 0 1 0 0 \$1-wvtsp4 \$1-wvtrp4 p4 0 -9 0 8
-262144 -1 -1 0 1;
#X obj 88 178 vsl 15 128 0 1 0 0 \$1-wvtsp5 \$1-wvtrp5 p5 0 -9 0 8
-262144 -1 -1 0 1;
#X obj 106 178 vsl 15 128 0 1 0 0 \$1-wvtsp6 \$1-wvtrp6 p6 0 -9 0 8
-262144 -1 -1 0 1;
#X obj 124 178 vsl 15 128 0 1 0 0 \$1-wvtsp7 \$1-wvtrp7 p7 0 -9 0 8
-262144 -1 -1 0 1;
#X obj 142 178 vsl 15 128 0 1 0 0 \$1-wvtsp8 \$1-wvtrp8 p8 0 -9 0 8
-262144 -1 -1 0 1;
#X obj 160 178 vsl 15 128 0 1 0 0 \$1-wvtsp9 \$1-wvtrp9 p9 0 -9 0 8
-262144 -1 -1 0 1;
#X obj 183 178 vsl 15 128 0 1 0 0 \$1-wvtsp10 \$1-wvtrp10 p10 0 -9
0 8 -262144 -1 -1 0 1;
#X obj 206 178 vsl 15 128 0 1 0 0 \$1-wvtsp11 \$1-wvtrp11 p11 0 -9
0 8 -262144 -1 -1 0 1;
#X obj 229 178 vsl 15 128 0 1 0 0 \$1-wvtsp12 \$1-wvtrp12 p12 0 -9
0 8 -262144 -1 -1 0 1;
#X obj 253 178 vsl 15 128 0 1 0 0 \$1-wvtsp13 \$1-wvtrp13 p13 0 -9
0 8 -262144 -1 -1 0 1;
#X obj 277 178 vsl 15 128 0 1 0 0 \$1-wvtsp14 \$1-wvtrp14 p14 0 -9
0 8 -262144 -1 -1 0 1;
#X obj 302 178 vsl 15 128 0 1 0 0 \$1-wvtsp15 \$1-wvtrp15 p15 0 -9
0 8 -262144 -1 -1 0 1;
#X obj 326 178 vsl 15 128 0 1 0 0 \$1-wvtsp16 \$1-wvtrp16 p16 0 -9
0 8 -262144 -1 -1 0 1;
#X obj 357 17 cnv 15 120 318 empty empty empty 20 12 0 14 -35595 -66577
0;
#X obj 375 34 vsl 15 128 0 127 0 0 \$1-wvtsfreq \$1-wvtrfreq pitch
-5 -9 0 10 -262144 -1 -1 6000 1;
#X obj 428 35 vsl 15 128 0 1 0 0 \$1-wvtslev \$1-wvtrlev level -5 -9
0 10 -262144 -1 -1 0 1;
#X obj 321 315 bng 15 250 50 0 \$1-wvtsgo \$1-wvtrgo go 17 7 0 10 -262144
-1 -1;
#X obj 375 199 tgl 15 0 \$1-wvtsglide \$1-wvtrglide glide 17 7 0 10
-262144 -1 -1 0 1;
#X obj 375 221 nbx 5 14 -1e+037 1e+037 0 0 \$1-wvtsglt \$1-wvtrglt
gl_time 58 7 0 10 -262144 -1 -1 100 256;
#X obj 382 320 bng 10 250 50 0 \$1-wvtsextraoptions empty extra_options
17 7 0 8 -262144 -1 -1;
#X obj 375 166 nbx 5 14 -1e+037 1e+037 0 0 empty empty empty 0 -8 0
10 -86277 -260097 -1 60 256;
#X text 13 313 --------------partials-------------->;
#N canvas 702 417 237 166 printname 0;
#X obj 54 33 r printallnames;
#X obj 54 87 symbol;
#X obj 54 112 s rallnames;
#X msg 54 62 waves-add;
#X connect 0 0 3 0;
#X connect 1 0 2 0;
#X connect 3 0 1 0;
#X restore 589 346 pd printname;
#N canvas 45 187 588 284 presetsnew 0;
#X obj 210 58 r savepresetn;
#X obj 203 119 t b b b;
#N canvas 97 72 1041 501 name-sends-normal 0;
#N canvas 0 0 450 300 (subpatch) 0;
#X array \$1-wvtbetween 24 float 2;
#X coords 0 10000 24 -10000 20 20 1;
#X restore 15 236 graph;
#X obj 403 547 tabwrite \$1-wvtbetween;
#X obj 438 235 unpack f f;
#X obj 98 156 pack f 1;
#X obj 135 178 pack f 2;
#X obj 186 200 pack f 3;
#X obj 236 155 pack f 4;
#X obj 273 177 pack f 5;
#X obj 324 199 pack f 6;
#X obj 368 156 pack f 7;
#X obj 405 178 pack f 8;
#X obj 449 199 pack f 9;
#X obj 508 156 pack f 10;
#X obj 545 178 pack f 11;
#X obj 596 199 pack f 12;
#X obj 665 156 pack f 13;
#X obj 702 178 pack f 14;
#X obj 754 201 pack f 15;
#X obj 798 156 pack f 16;
#X obj 835 179 pack f 17;
#X obj 884 203 pack f 18;
#X obj 438 505 unpack f f;
#X obj 98 426 pack f 19;
#X obj 135 448 pack f 20;
#X obj 186 470 pack f 21;
#X obj 236 425 pack f 22;
#X obj 273 447 pack f 23;
#X obj 324 469 pack f 24;
#X obj 368 426 pack f 25;
#X obj 405 448 pack f 26;
#X obj 449 469 pack f 27;
#X obj 508 426 pack f 28;
#X obj 545 448 pack f 29;
#X obj 596 469 pack f 30;
#X obj 665 426 pack f 31;
#X obj 702 448 pack f 32;
#X obj 754 471 pack f 33;
#X obj 798 426 pack f 34;
#X obj 835 449 pack f 35;
#X obj 886 470 pack f 36;
#X text 38 238 -> adjust size if necessary (standard size = 109);
#X obj 36 59 r \$1-wvtsp1;
#X obj 55 82 r \$1-wvtsp2;
#X obj 79 108 r \$1-wvtsp3;
#X obj 148 57 r \$1-wvtsp4;
#X obj 179 80 r \$1-wvtsp5;
#X obj 217 103 r \$1-wvtsp6;
#X obj 277 60 r \$1-wvtsp7;
#X obj 320 83 r \$1-wvtsp8;
#X obj 342 105 r \$1-wvtsp9;
#X obj 430 67 r \$1-wvtsp10;
#X obj 459 87 r \$1-wvtsp11;
#X obj 471 113 r \$1-wvtsp12;
#X obj 582 61 r \$1-wvtsp13;
#X obj 598 84 r \$1-wvtsp14;
#X obj 614 108 r \$1-wvtsp15;
#X obj 730 50 r \$1-wvtsp16;
#X obj 747 78 r \$1-wvtsfreq;
#X obj 772 105 r \$1-wvtslev;
#X obj 153 368 r \$1-wvtsglt;
#X obj 130 342 r \$1-wvtsglide;
#X connect 2 0 1 0;
#X connect 2 1 1 1;
#X connect 3 0 2 0;
#X connect 4 0 2 0;
#X connect 5 0 2 0;
#X connect 6 0 2 0;
#X connect 7 0 2 0;
#X connect 8 0 2 0;
#X connect 9 0 2 0;
#X connect 10 0 2 0;
#X connect 11 0 2 0;
#X connect 12 0 2 0;
#X connect 13 0 2 0;
#X connect 14 0 2 0;
#X connect 15 0 2 0;
#X connect 16 0 2 0;
#X connect 17 0 2 0;
#X connect 18 0 2 0;
#X connect 19 0 2 0;
#X connect 20 0 2 0;
#X connect 21 0 1 0;
#X connect 21 1 1 1;
#X connect 22 0 21 0;
#X connect 23 0 21 0;
#X connect 24 0 21 0;
#X connect 25 0 21 0;
#X connect 26 0 21 0;
#X connect 27 0 21 0;
#X connect 28 0 21 0;
#X connect 29 0 21 0;
#X connect 30 0 21 0;
#X connect 31 0 21 0;
#X connect 32 0 21 0;
#X connect 33 0 21 0;
#X connect 34 0 21 0;
#X connect 35 0 21 0;
#X connect 36 0 21 0;
#X connect 37 0 21 0;
#X connect 38 0 21 0;
#X connect 39 0 21 0;
#X connect 41 0 3 0;
#X connect 42 0 4 0;
#X connect 43 0 5 0;
#X connect 44 0 6 0;
#X connect 45 0 7 0;
#X connect 46 0 8 0;
#X connect 47 0 9 0;
#X connect 48 0 10 0;
#X connect 49 0 11 0;
#X connect 50 0 12 0;
#X connect 51 0 13 0;
#X connect 52 0 14 0;
#X connect 53 0 15 0;
#X connect 54 0 16 0;
#X connect 55 0 17 0;
#X connect 56 0 18 0;
#X connect 57 0 19 0;
#X connect 58 0 20 0;
#X connect 59 0 23 0;
#X connect 60 0 22 0;
#X restore 75 27 pd name-sends-normal;
#X obj 223 196 s toextfile;
#N canvas 636 185 560 404 normal 0;
#X obj 278 134 f \$1;
#X obj 237 278 symbol;
#X obj 42 268 list prepend add2;
#X obj 42 293 list trim;
#X obj 188 51 t b b b b b;
#X obj 154 135 f 0;
#X obj 193 135 + 1;
#X msg 181 103 0;
#X msg 240 196 wvtrx\$1;
#X obj 237 222 pack s f;
#X msg 237 249 \$2-\$1;
#X obj 131 102 until;
#X obj 193 161 t f f;
#X obj 21 193 tabread \$1-wvtbetween;
#X text 151 77 -> aanpassen! aantal op te slagen floats;
#X obj 180 16 inlet;
#X obj 229 345 outlet;
#X msg 235 311 add2 () norm 0 0 \$1;
#X obj 111 76 f 20;
#X connect 0 0 9 1;
#X connect 1 0 17 0;
#X connect 2 0 3 0;
#X connect 3 0 16 0;
#X connect 4 3 18 0;
#X connect 4 4 0 0;
#X connect 4 4 7 0;
#X connect 5 0 6 0;
#X connect 6 0 5 1;
#X connect 6 0 12 0;
#X connect 7 0 5 1;
#X connect 8 0 9 0;
#X connect 9 0 10 0;
#X connect 10 0 1 0;
#X connect 11 0 5 0;
#X connect 12 0 13 0;
#X connect 12 1 8 0;
#X connect 13 0 2 0;
#X connect 15 0 4 0;
#X connect 17 0 16 0;
#X connect 18 0 11 0;
#X restore 217 153 pd normal;
#X text 179 152 !!->;
#X text 212 245 !!->;
#N canvas 77 22 1083 670 receive-normal 0;
#X obj 24 26 r \$1-wvtrx1;
#X obj 54 46 r \$1-wvtrx2;
#X obj 85 66 r \$1-wvtrx3;
#X obj 196 19 r \$1-wvtrx4;
#X obj 226 39 r \$1-wvtrx5;
#X obj 257 59 r \$1-wvtrx6;
#X obj 364 16 r \$1-wvtrx7;
#X obj 382 37 r \$1-wvtrx8;
#X obj 416 58 r \$1-wvtrx9;
#X obj 523 33 r \$1-wvtrx10;
#X obj 553 53 r \$1-wvtrx11;
#X obj 584 73 r \$1-wvtrx12;
#X obj 703 33 r \$1-wvtrx13;
#X obj 733 53 r \$1-wvtrx14;
#X obj 764 73 r \$1-wvtrx15;
#X obj 863 33 r \$1-wvtrx16;
#X obj 893 53 r \$1-wvtrx17;
#X obj 924 73 r \$1-wvtrx18;
#X obj 33 373 r \$1-wvtrx19;
#X obj 63 393 r \$1-wvtrx20;
#X obj 94 413 r \$1-wvtrx21;
#X obj 213 373 r \$1-wvtrx22;
#X obj 243 393 r \$1-wvtrx23;
#X obj 274 413 r \$1-wvtrx24;
#X obj 393 373 r \$1-wvtrx25;
#X obj 423 393 r \$1-wvtrx26;
#X obj 454 413 r \$1-wvtrx27;
#X obj 543 373 r \$1-wvtrx28;
#X obj 573 393 r \$1-wvtrx29;
#X obj 604 413 r \$1-wvtrx30;
#X obj 713 373 r \$1-wvtrx31;
#X obj 743 393 r \$1-wvtrx32;
#X obj 774 413 r \$1-wvtrx33;
#X obj 873 373 r \$1-wvtrx34;
#X obj 903 393 r \$1-wvtrx35;
#X obj 934 413 r \$1-wvtrx36;
#N canvas 30 18 246 218 cmp 0;
#X obj 42 65 list split 1;
#X obj 88 119 ==;
#X obj 43 151 spigot;
#X obj 43 176 outlet;
#X obj 42 28 inlet;
#X obj 110 30 r \$1-wvtarg2;
#X connect 0 0 2 0;
#X connect 0 1 1 0;
#X connect 1 0 2 1;
#X connect 2 0 3 0;
#X connect 4 0 0 0;
#X connect 5 0 1 1;
#X restore 22 90 pd cmp;
#N canvas 355 32 246 300 cmp 0;
#X obj 42 65 list split 1;
#X obj 88 119 ==;
#X obj 43 151 spigot;
#X obj 43 176 outlet;
#X obj 42 28 inlet;
#X obj 110 30 r \$1-wvtarg2;
#X connect 0 0 2 0;
#X connect 0 1 1 0;
#X connect 1 0 2 1;
#X connect 2 0 3 0;
#X connect 4 0 0 0;
#X connect 5 0 1 1;
#X restore 42 115 pd cmp;
#N canvas 0 0 246 300 cmp 0;
#X obj 42 65 list split 1;
#X obj 88 119 ==;
#X obj 43 151 spigot;
#X obj 43 176 outlet;
#X obj 42 28 inlet;
#X obj 110 30 r \$1-wvtarg2;
#X connect 0 0 2 0;
#X connect 0 1 1 0;
#X connect 1 0 2 1;
#X connect 2 0 3 0;
#X connect 4 0 0 0;
#X connect 5 0 1 1;
#X restore 59 143 pd cmp;
#N canvas 0 0 246 300 cmp 0;
#X obj 42 65 list split 1;
#X obj 88 119 ==;
#X obj 43 151 spigot;
#X obj 43 176 outlet;
#X obj 42 28 inlet;
#X obj 110 30 r \$1-wvtarg2;
#X connect 0 0 2 0;
#X connect 0 1 1 0;
#X connect 1 0 2 1;
#X connect 2 0 3 0;
#X connect 4 0 0 0;
#X connect 5 0 1 1;
#X restore 172 90 pd cmp;
#N canvas 0 0 246 300 cmp 0;
#X obj 42 65 list split 1;
#X obj 88 119 ==;
#X obj 43 151 spigot;
#X obj 43 176 outlet;
#X obj 42 28 inlet;
#X obj 110 30 r \$1-wvtarg2;
#X connect 0 0 2 0;
#X connect 0 1 1 0;
#X connect 1 0 2 1;
#X connect 2 0 3 0;
#X connect 4 0 0 0;
#X connect 5 0 1 1;
#X restore 192 115 pd cmp;
#N canvas 308 15 246 215 cmp 0;
#X obj 42 65 list split 1;
#X obj 88 119 ==;
#X obj 43 151 spigot;
#X obj 43 176 outlet;
#X obj 42 28 inlet;
#X obj 110 30 r \$1-wvtarg2;
#X connect 0 0 2 0;
#X connect 0 1 1 0;
#X connect 1 0 2 1;
#X connect 2 0 3 0;
#X connect 4 0 0 0;
#X connect 5 0 1 1;
#X restore 209 143 pd cmp;
#N canvas 0 0 246 300 cmp 0;
#X obj 42 65 list split 1;
#X obj 88 119 ==;
#X obj 43 151 spigot;
#X obj 43 176 outlet;
#X obj 42 28 inlet;
#X obj 110 30 r \$1-wvtarg2;
#X connect 0 0 2 0;
#X connect 0 1 1 0;
#X connect 1 0 2 1;
#X connect 2 0 3 0;
#X connect 4 0 0 0;
#X connect 5 0 1 1;
#X restore 362 80 pd cmp;
#N canvas 0 0 246 300 cmp 0;
#X obj 42 65 list split 1;
#X obj 88 119 ==;
#X obj 43 151 spigot;
#X obj 43 176 outlet;
#X obj 42 28 inlet;
#X obj 110 30 r \$1-wvtarg2;
#X connect 0 0 2 0;
#X connect 0 1 1 0;
#X connect 1 0 2 1;
#X connect 2 0 3 0;
#X connect 4 0 0 0;
#X connect 5 0 1 1;
#X restore 382 105 pd cmp;
#N canvas 0 0 246 300 cmp 0;
#X obj 42 65 list split 1;
#X obj 88 119 ==;
#X obj 43 151 spigot;
#X obj 43 176 outlet;
#X obj 42 28 inlet;
#X obj 110 30 r \$1-wvtarg2;
#X connect 0 0 2 0;
#X connect 0 1 1 0;
#X connect 1 0 2 1;
#X connect 2 0 3 0;
#X connect 4 0 0 0;
#X connect 5 0 1 1;
#X restore 399 133 pd cmp;
#N canvas 0 0 246 300 cmp 0;
#X obj 42 65 list split 1;
#X obj 88 119 ==;
#X obj 43 151 spigot;
#X obj 43 176 outlet;
#X obj 42 28 inlet;
#X obj 110 30 r \$1-wvtarg2;
#X connect 0 0 2 0;
#X connect 0 1 1 0;
#X connect 1 0 2 1;
#X connect 2 0 3 0;
#X connect 4 0 0 0;
#X connect 5 0 1 1;
#X restore 542 110 pd cmp;
#N canvas 0 0 246 300 cmp 0;
#X obj 42 65 list split 1;
#X obj 88 119 ==;
#X obj 43 151 spigot;
#X obj 43 176 outlet;
#X obj 42 28 inlet;
#X obj 110 30 r \$1-wvtarg2;
#X connect 0 0 2 0;
#X connect 0 1 1 0;
#X connect 1 0 2 1;
#X connect 2 0 3 0;
#X connect 4 0 0 0;
#X connect 5 0 1 1;
#X restore 562 135 pd cmp;
#N canvas 0 0 246 300 cmp 0;
#X obj 42 65 list split 1;
#X obj 88 119 ==;
#X obj 43 151 spigot;
#X obj 43 176 outlet;
#X obj 42 28 inlet;
#X obj 110 30 r \$1-wvtarg2;
#X connect 0 0 2 0;
#X connect 0 1 1 0;
#X connect 1 0 2 1;
#X connect 2 0 3 0;
#X connect 4 0 0 0;
#X connect 5 0 1 1;
#X restore 579 163 pd cmp;
#N canvas 0 0 246 300 cmp 0;
#X obj 42 65 list split 1;
#X obj 88 119 ==;
#X obj 43 151 spigot;
#X obj 43 176 outlet;
#X obj 42 28 inlet;
#X obj 110 30 r \$1-wvtarg2;
#X connect 0 0 2 0;
#X connect 0 1 1 0;
#X connect 1 0 2 1;
#X connect 2 0 3 0;
#X connect 4 0 0 0;
#X connect 5 0 1 1;
#X restore 692 110 pd cmp;
#N canvas 0 0 246 300 cmp 0;
#X obj 42 65 list split 1;
#X obj 88 119 ==;
#X obj 43 151 spigot;
#X obj 43 176 outlet;
#X obj 42 28 inlet;
#X obj 110 30 r \$1-wvtarg2;
#X connect 0 0 2 0;
#X connect 0 1 1 0;
#X connect 1 0 2 1;
#X connect 2 0 3 0;
#X connect 4 0 0 0;
#X connect 5 0 1 1;
#X restore 712 135 pd cmp;
#N canvas 0 0 246 300 cmp 0;
#X obj 42 65 list split 1;
#X obj 88 119 ==;
#X obj 43 151 spigot;
#X obj 43 176 outlet;
#X obj 42 28 inlet;
#X obj 110 30 r \$1-wvtarg2;
#X connect 0 0 2 0;
#X connect 0 1 1 0;
#X connect 1 0 2 1;
#X connect 2 0 3 0;
#X connect 4 0 0 0;
#X connect 5 0 1 1;
#X restore 729 163 pd cmp;
#N canvas 0 0 246 300 cmp 0;
#X obj 42 65 list split 1;
#X obj 88 119 ==;
#X obj 43 151 spigot;
#X obj 43 176 outlet;
#X obj 42 28 inlet;
#X obj 110 30 r \$1-wvtarg2;
#X connect 0 0 2 0;
#X connect 0 1 1 0;
#X connect 1 0 2 1;
#X connect 2 0 3 0;
#X connect 4 0 0 0;
#X connect 5 0 1 1;
#X restore 882 100 pd cmp;
#N canvas 0 0 246 300 cmp 0;
#X obj 42 65 list split 1;
#X obj 88 119 ==;
#X obj 43 151 spigot;
#X obj 43 176 outlet;
#X obj 42 28 inlet;
#X obj 110 30 r \$1-wvtarg2;
#X connect 0 0 2 0;
#X connect 0 1 1 0;
#X connect 1 0 2 1;
#X connect 2 0 3 0;
#X connect 4 0 0 0;
#X connect 5 0 1 1;
#X restore 902 125 pd cmp;
#N canvas 0 0 246 300 cmp 0;
#X obj 42 65 list split 1;
#X obj 88 119 ==;
#X obj 43 151 spigot;
#X obj 43 176 outlet;
#X obj 42 28 inlet;
#X obj 110 30 r \$1-wvtarg2;
#X connect 0 0 2 0;
#X connect 0 1 1 0;
#X connect 1 0 2 1;
#X connect 2 0 3 0;
#X connect 4 0 0 0;
#X connect 5 0 1 1;
#X restore 919 153 pd cmp;
#X obj 21 206 s \$1-wvtrp1;
#X obj 34 234 s \$1-wvtrp2;
#X obj 58 259 s \$1-wvtrp3;
#X obj 189 209 s \$1-wvtrp4;
#X obj 213 232 s \$1-wvtrp5;
#X obj 230 254 s \$1-wvtrp6;
#X obj 339 209 s \$1-wvtrp7;
#X obj 363 234 s \$1-wvtrp8;
#X obj 372 257 s \$1-wvtrp9;
#X obj 480 208 s \$1-wvtrp10;
#X obj 495 232 s \$1-wvtrp11;
#X obj 521 252 s \$1-wvtrp12;
#X obj 640 208 s \$1-wvtrp13;
#X obj 664 232 s \$1-wvtrp14;
#X obj 687 259 s \$1-wvtrp15;
#X obj 950 263 s \$1-wvtrp16;
#X obj 889 186 s \$1-wvtrfreq;
#X obj 919 216 s \$1-wvtrlev;
#X obj 852 219 t b f;
#X obj 850 260 s \$1-wvtrgo;
#X obj 34 531 s \$1-wvtrglide;
#X obj 66 564 s \$1-wvtrglt;
#N canvas 0 0 246 300 cmp 0;
#X obj 42 65 list split 1;
#X obj 88 119 ==;
#X obj 43 151 spigot;
#X obj 43 176 outlet;
#X obj 42 28 inlet;
#X obj 110 30 r \$1-wvtarg2;
#X connect 0 0 2 0;
#X connect 0 1 1 0;
#X connect 1 0 2 1;
#X connect 2 0 3 0;
#X connect 4 0 0 0;
#X connect 5 0 1 1;
#X restore 32 433 pd cmp;
#N canvas 308 15 246 215 cmp 0;
#X obj 42 65 list split 1;
#X obj 88 119 ==;
#X obj 43 151 spigot;
#X obj 43 176 outlet;
#X obj 42 28 inlet;
#X obj 110 30 r \$1-wvtarg2;
#X connect 0 0 2 0;
#X connect 0 1 1 0;
#X connect 1 0 2 1;
#X connect 2 0 3 0;
#X connect 4 0 0 0;
#X connect 5 0 1 1;
#X restore 49 461 pd cmp;
#X connect 0 0 36 0;
#X connect 1 0 37 0;
#X connect 2 0 38 0;
#X connect 3 0 39 0;
#X connect 4 0 40 0;
#X connect 5 0 41 0;
#X connect 6 0 42 0;
#X connect 7 0 43 0;
#X connect 8 0 44 0;
#X connect 9 0 45 0;
#X connect 10 0 46 0;
#X connect 11 0 47 0;
#X connect 12 0 48 0;
#X connect 13 0 49 0;
#X connect 14 0 50 0;
#X connect 15 0 51 0;
#X connect 16 0 52 0;
#X connect 17 0 53 0;
#X connect 18 0 76 0;
#X connect 19 0 77 0;
#X connect 36 0 54 0;
#X connect 37 0 55 0;
#X connect 38 0 56 0;
#X connect 39 0 57 0;
#X connect 40 0 58 0;
#X connect 41 0 59 0;
#X connect 42 0 60 0;
#X connect 43 0 61 0;
#X connect 44 0 62 0;
#X connect 45 0 63 0;
#X connect 46 0 64 0;
#X connect 47 0 65 0;
#X connect 48 0 66 0;
#X connect 49 0 67 0;
#X connect 50 0 68 0;
#X connect 51 0 72 0;
#X connect 52 0 70 0;
#X connect 53 0 71 0;
#X connect 72 0 73 0;
#X connect 72 1 69 0;
#X connect 76 0 74 0;
#X connect 77 0 75 0;
#X restore 251 246 pd receive-normal;
#X text 32 27 !!->;
#N canvas 0 0 246 300 cmp 0;
#X obj 42 65 list split 1;
#X obj 88 119 ==;
#X obj 43 151 spigot;
#X obj 43 176 outlet;
#X obj 42 28 inlet;
#X obj 157 64 inlet;
#X connect 0 0 2 0;
#X connect 0 1 1 0;
#X connect 1 0 2 1;
#X connect 2 0 3 0;
#X connect 4 0 0 0;
#X connect 5 0 1 1;
#X restore 209 94 pd cmp;
#X obj 458 12 loadbang;
#X obj 458 37 f \$2;
#X obj 458 85 s \$1-wvtarg2;
#X connect 0 0 9 0;
#X connect 1 1 4 0;
#X connect 4 0 3 0;
#X connect 9 0 1 0;
#X connect 10 0 11 0;
#X connect 11 0 9 1;
#X connect 11 0 12 0;
#X restore 767 359 pd presetsnew;
#N canvas 335 0 859 737 foutmelding 0;
#X obj 87 38 loadbang;
#X obj 79 83 f \$1;
#X obj 73 111 select 0;
#X msg 75 197 \; \$1 vis 1;
#X msg 74 142 36;
#X text 151 150 ascii-code voor $;
#X text 197 199 als er geen argument is \, noemt de subpatch vreemd
genoeg niet pd 0-warning maar wel pd \$1-warning;
#X text 129 80 als er geen argument is geeft f \$1 een 0;
#X obj 154 336 del 100;
#X msg 319 355 1;
#X obj 238 405 spigot;
#X obj 342 453 spigot;
#X obj 409 425 == 0;
#X obj 338 423 r waves-add;
#X obj 240 489 s waves-add;
#X obj 208 305 t b b b;
#X obj 314 389 t f f;
#X obj 241 429 del 150;
#X obj 239 460 f \$1;
#X msg 169 357 0;
#X obj 378 506 == \$1;
#X obj 455 604 > 1;
#X obj 341 478 t f f;
#X obj 391 568 f 0;
#X obj 390 538 select 1;
#X obj 330 541 spigot;
#X obj 459 569 + 1;
#X obj 336 602 == \$1;
#X obj 396 628 &&;
#X obj 158 628 print pop;
#X text 487 604 groter dan 1 want vergelijking et zichzelf levert sowieso
al 1 op en dan met ev. zelfde object met identiek argument levert 2
op!;
#X obj 396 656 select 1;
#X obj 396 678 f \$1;
#X obj 398 768 symbol;
#X msg 396 795 \; \$1 vis 1;
#X obj 363 706 t f f;
#X obj 92 820 symbol;
#X obj 170 872 print;
#X obj 326 662 bng 15 250 50 0 empty empty empty 17 7 0 10 -262144
-1 -1;
#X msg 173 839 !!! these two abunch objects have the same argument
number: [waves-add \$1];
#X text 406 346 alleen net gecreerde object verstuurt waarde;
#X text 398 372 bij eerder gemaakte objecten staat spigot voor receive
open;
#N canvas 670 470 308 138 \$1-waves-addwarning 0;
#X obj -1 0 cnv 15 320 150 empty empty empty 20 12 0 14 -258699 -66577
0;
#X text 11 32 You forgot to add an unique number;
#X text 11 78 when you created this abunch object;
#X restore 349 165 pd \$1-waves-addwarning;
#N canvas 856 445 327 127 \$1-waves-addsameargument 0;
#X obj -1 0 cnv 15 330 150 empty empty empty 20 12 0 14 -258699 -66577
0;
#X msg 393 108;
#X text 314 243 is used already!!;
#X obj 344 35 inlet;
#X symbolatom 351 77 10 0 0 0 - - -;
#X obj 98 40 cnv 15 60 20 empty empty empty 20 12 0 14 -233017 -66577
0;
#X text 24 40 Create an unique number for this;
#X text 102 69 abunch object.;
#X connect 3 0 1 0;
#X connect 3 0 4 0;
#X restore 541 770 pd \$1-waves-addsameargument;
#X msg 397 738 pd-\$1-waves-addsameargument;
#X obj 74 171 makefilename pd-%c1-waves-addwarning;
#X connect 0 0 1 0;
#X connect 0 0 15 0;
#X connect 1 0 2 0;
#X connect 2 0 4 0;
#X connect 4 0 45 0;
#X connect 8 0 19 0;
#X connect 9 0 16 0;
#X connect 10 0 17 0;
#X connect 11 0 22 0;
#X connect 12 0 11 1;
#X connect 13 0 11 0;
#X connect 15 0 8 0;
#X connect 15 1 10 0;
#X connect 15 2 9 0;
#X connect 16 0 10 1;
#X connect 16 1 12 0;
#X connect 17 0 18 0;
#X connect 18 0 14 0;
#X connect 19 0 16 0;
#X connect 20 0 24 0;
#X connect 20 0 25 1;
#X connect 21 0 28 1;
#X connect 22 0 25 0;
#X connect 22 1 20 0;
#X connect 23 0 26 0;
#X connect 24 0 23 0;
#X connect 25 0 27 0;
#X connect 26 0 23 1;
#X connect 26 0 21 0;
#X connect 27 0 28 0;
#X connect 28 0 31 0;
#X connect 31 0 32 0;
#X connect 32 0 35 0;
#X connect 33 0 34 0;
#X connect 35 0 44 0;
#X connect 35 1 39 0;
#X connect 38 0 32 0;
#X connect 39 0 37 0;
#X connect 44 0 33 0;
#X connect 45 0 3 0;
#X restore 917 314 pd foutmelding;
#X connect 0 0 19 0;
#X connect 1 0 35 1;
#X connect 2 0 18 1;
#X connect 3 0 18 2;
#X connect 4 0 18 3;
#X connect 5 0 18 4;
#X connect 6 0 18 5;
#X connect 7 0 18 6;
#X connect 8 0 18 7;
#X connect 9 0 18 8;
#X connect 10 0 18 9;
#X connect 11 0 18 10;
#X connect 12 0 18 11;
#X connect 13 0 18 12;
#X connect 14 0 18 13;
#X connect 15 0 18 14;
#X connect 16 0 18 15;
#X connect 18 0 0 0;
#X connect 35 0 18 0;
#X connect 36 0 35 0;
#X connect 36 0 37 0;
#X connect 38 0 39 0;
#X connect 43 0 47 0;
#X connect 44 0 45 0;
#X connect 46 0 43 0;
#X connect 47 0 44 0;
#X connect 51 0 52 0;
#X connect 52 0 58 0;
#X connect 53 0 55 0;
#X connect 54 0 56 0;
#X connect 55 0 48 0;
#X connect 56 0 49 0;
#X connect 79 0 85 0;
