#N canvas 826 178 905 599 10;
#X obj 89 548 outlet~;
#X obj 26 42 phasor~;
#X obj 75 412 cos~;
#X obj 55 327 *~;
#X obj 76 391 +~;
#X obj 60 354 clip~;
#X obj 80 434 *~;
#X obj 81 463 -~;
#X obj 108 282 unpack f f f f f f;
#X obj 50 133 +~;
#X obj 163 60 *~;
#X obj 17 -7 inlet~;
#X obj 170 202 inlet;
#X text 17 -24 freq;
#X text 171 186 params;
#X obj 324 30 inlet;
#X obj 406 13 block~ 1;
#X obj 178 28 delread~ \$0fmop1;
#X obj 112 500 delwrite~ \$0fmop1 1;
#X text 213 -11 fm operator with parametric wavform and feedback;
#X text 320 13 fb amt;
#X obj 281 138 samplerate~;
#X obj 281 165 t b f;
#X msg 267 193 1000;
#X obj 284 230 /;
#X obj 281 114 loadbang;
#X text 281 253 1 sample delay;
#X obj 94 7 inlet~;
#X obj 53 94 +~;
#X text 96 -15 phase mod;
#X obj 46 181 wrap~;
#X connect 1 0 28 0;
#X connect 2 0 6 0;
#X connect 3 0 5 0;
#X connect 4 0 2 0;
#X connect 5 0 4 0;
#X connect 6 0 7 0;
#X connect 7 0 0 0;
#X connect 7 0 18 0;
#X connect 8 0 5 1;
#X connect 8 1 5 2;
#X connect 8 2 4 1;
#X connect 8 3 3 1;
#X connect 8 4 6 1;
#X connect 8 5 7 1;
#X connect 9 0 30 0;
#X connect 10 0 9 1;
#X connect 11 0 1 0;
#X connect 12 0 8 0;
#X connect 15 0 10 1;
#X connect 17 0 10 0;
#X connect 21 0 22 0;
#X connect 22 0 23 0;
#X connect 22 1 24 1;
#X connect 23 0 24 0;
#X connect 24 0 17 0;
#X connect 25 0 21 0;
#X connect 27 0 28 1;
#X connect 28 0 9 0;
#X connect 30 0 3 0;
