#N canvas 357 128 1375 873 10;
#X obj 148 169 phasor~;
#X obj -37 1160 dac~;
#X obj 153 82 sqrt;
#X msg 153 58 5;
#X obj 272 168 phasor~;
#X obj 281 82 sqrt;
#X msg 281 58 7;
#X obj 323 70 + 10;
#X obj 321 50 random 90;
#X obj 199 72 + 10;
#X obj 197 52 random 90;
#X msg 86 -70 bang;
#X obj 299 231 + 200;
#X obj 263 255 hip~;
#X obj 189 225 + 200;
#X obj 153 249 hip~;
#X obj 282 122 *;
#X obj 163 126 *;
#X obj 13 179 phasor~;
#X obj 15 92 sqrt;
#X obj 66 93 + 10;
#X obj 64 73 random 90;
#X obj 51 235 + 200;
#X obj 15 259 hip~;
#X obj 27 141 *;
#X msg 15 68 3;
#X obj -115 183 phasor~;
#X obj -119 93 sqrt;
#X obj -68 94 + 10;
#X obj -70 74 random 90;
#X obj -69 118 / 200;
#X obj -83 236 + 200;
#X obj -119 260 hip~;
#X obj -107 142 *;
#X msg -119 69 2;
#X obj -176 300 max;
#X obj -2 -35 t b b b b b;
#X obj -155 347 max;
#X obj -144 388 max;
#X obj 323 94 / 400;
#X obj 198 96 / 300;
#X obj 65 117 / 250;
#X obj -137 473 /;
#X msg -143 441 1;
#X obj -136 419 t b f;
#X obj -98 466 * 60;
#X obj 192 194 random 900;
#X obj 297 204 random 900;
#X obj 49 208 random 900;
#X obj -85 209 random 900;
#X obj -90 352 *~;
#X obj -43 250 * 0.5;
#X obj 16 366 *~;
#X obj 51 262 * 0.33;
#X obj 201 257 * 0.4;
#X obj 135 361 *~;
#X obj 270 380 *~;
#X obj 316 268 * 0.25;
#N canvas 59 109 544 557 random4klang 0;
#X obj 115 -170 inlet;
#X obj 105 61 +;
#X obj -41 266 outlet;
#X obj 32 113 mod 12;
#X obj 89 302 outlet;
#X obj 129 137 mod 12;
#X obj 192 328 outlet;
#X obj 216 166 mod 12;
#X obj 199 103 +;
#X obj 292 346 outlet;
#X obj 339 185 mod 12;
#X obj 317 147 +;
#X obj 63 -16 random 2;
#X obj 133 -9 random 2;
#X obj 221 10 random 2;
#X obj 329 11 random 2;
#X obj 41 14 + 2;
#X obj 137 21 + 2;
#X obj 225 40 + 2;
#X obj 331 39 + 2;
#X obj 22 142 +;
#X obj 133 176 +;
#X obj 215 206 +;
#X obj 329 209 +;
#X obj -75 107 random 2;
#X obj -37 225 +;
#X obj 60 -84 t b b b b b b;
#X obj 79 258 +;
#X obj 189 289 +;
#X obj 308 309 +;
#X obj -98 -95 inlet;
#X obj -41 -67 random 12;
#X obj -49 -21 mod 12;
#X obj -53 5 +;
#X obj -41 -171 inlet;
#X obj -50 59 t b f;
#X obj -45 -139 t b b;
#X obj -46 -45 * 7;
#X obj -51 37 + 12;
#X obj -73 164 * 12;
#X obj -72 134 + 1;
#X connect 0 0 26 0;
#X connect 1 0 5 0;
#X connect 1 0 8 0;
#X connect 3 0 20 0;
#X connect 5 0 21 0;
#X connect 7 0 22 0;
#X connect 8 0 7 0;
#X connect 8 0 11 0;
#X connect 10 0 23 0;
#X connect 11 0 10 0;
#X connect 12 0 16 0;
#X connect 13 0 17 0;
#X connect 14 0 18 0;
#X connect 15 0 19 0;
#X connect 16 0 3 0;
#X connect 16 0 1 0;
#X connect 17 0 1 1;
#X connect 18 0 8 1;
#X connect 19 0 11 1;
#X connect 20 0 25 1;
#X connect 21 0 27 1;
#X connect 22 0 28 1;
#X connect 23 0 29 1;
#X connect 24 0 40 0;
#X connect 25 0 2 0;
#X connect 26 0 25 0;
#X connect 26 1 33 0;
#X connect 26 2 12 0;
#X connect 26 3 13 0;
#X connect 26 4 14 0;
#X connect 26 5 15 0;
#X connect 27 0 4 0;
#X connect 28 0 6 0;
#X connect 29 0 9 0;
#X connect 30 0 33 1;
#X connect 31 0 37 0;
#X connect 32 0 33 0;
#X connect 33 0 38 0;
#X connect 34 0 36 0;
#X connect 35 0 20 0;
#X connect 35 0 21 0;
#X connect 35 0 22 0;
#X connect 35 0 23 0;
#X connect 35 1 20 1;
#X connect 35 1 21 1;
#X connect 35 1 22 1;
#X connect 35 1 23 1;
#X connect 36 0 24 0;
#X connect 36 1 31 0;
#X connect 37 0 32 0;
#X connect 38 0 35 0;
#X connect 39 0 25 0;
#X connect 39 0 27 0;
#X connect 39 0 28 0;
#X connect 39 0 29 0;
#X connect 40 0 39 0;
#X restore 576 358 pd random4klang;
#X obj 542 238 random 12;
#X obj 620 281 t b b;
#X msg 440 127 bang;
#X msg 520 348 bang;
#N canvas 9 105 979 632 dualdelay1m 0;
#X obj -84 383 inlet~;
#X obj 331 212 inlet;
#X obj 382 316 pow -1;
#X obj 382 339 / 4;
#X obj 395 362 *;
#X obj 396 387 * 60000;
#X obj 232 440 +~;
#X obj 257 367 *~;
#X text 369 215 <- bpm in;
#X obj 520 953 outlet~;
#X obj 364 667 *;
#X obj 366 697 * 60000;
#X obj 173 641 +~;
#X obj 209 616 *~;
#X obj 41 90 vsl 8 100 20 120 0 1 empty empty cut 0 110 1 8 -233017
-1 -1 4600 1;
#X obj 68 324 mtof;
#X obj 517 883 +~;
#X obj 510 516 *~;
#X obj 525 546 +~;
#X obj 559 520 *~;
#X obj 378 779 *~;
#X obj 393 809 +~;
#X obj 415 786 *~;
#X obj 40 296 +;
#X obj 159 268 +;
#X obj 513 37 inlet;
#X text 559 38 <- sync-in;
#X text 403 151 1 beatsynced delay for high - and one for low frequencies
;
#X obj 243 479 delwrite~ \$0ddl-hl 2000;
#X obj 148 699 delwrite~ \$0ddl-ll 2000;
#X text 560 424 <-unique delaybuffer name!;
#X text 13 443 unique delaybuffer name! ->;
#X text -82 696 unique delaybuffer name2! ->;
#X text 513 734 <-unique delaybuffer name2!;
#X obj 158 583 vcf~;
#X obj 2 383 hip~;
#X obj 106 538 lop~;
#X obj 26 415 vcf~;
#X obj 120 498 mtof;
#X obj 104 470 + 24;
#X obj 428 423 delread~ \$0ddl-hl;
#X obj 386 732 delread~ \$0ddl-ll;
#X obj 658 195 t b b;
#X obj 675 30 inlet;
#X obj 461 240 random 8;
#X obj 460 264 + 1;
#X obj 566 256 random 8;
#X obj 565 280 + 1;
#X obj 664 55 t b b;
#X obj 378 272 int;
#X floatatom 472 388 5 0 0 0 - - -;
#X floatatom 571 312 5 0 0 0 - - -;
#X msg 201 233 6;
#N canvas 187 182 588 521 rndline1 0;
#X obj 166 290 pack;
#X obj 130 135 random 1000;
#X obj 130 156 / 1000;
#X obj 135 361 ==;
#X obj 159 324 line;
#X obj 241 187 exp;
#X obj 236 159 / 100;
#X obj 93 16 inlet;
#X text 139 18 start;
#X obj 251 413 outlet;
#X obj 90 396 moses 0.1;
#X obj 98 43 t b b;
#X obj 34 454 delay 1000;
#X obj 244 210 int;
#X obj 234 134 random 950;
#X obj 196 264 + 300;
#X obj 313 334 +;
#X obj 333 238 random 950;
#X connect 0 0 4 0;
#X connect 1 0 2 0;
#X connect 2 0 0 0;
#X connect 2 0 3 1;
#X connect 3 0 10 0;
#X connect 4 0 9 0;
#X connect 4 0 3 0;
#X connect 5 0 13 0;
#X connect 6 0 5 0;
#X connect 7 0 11 0;
#X connect 10 1 12 0;
#X connect 11 0 1 0;
#X connect 11 0 14 0;
#X connect 11 1 17 0;
#X connect 12 0 11 0;
#X connect 13 0 15 0;
#X connect 13 0 16 0;
#X connect 13 0 17 1;
#X connect 14 0 6 0;
#X connect 15 0 0 1;
#X connect 16 0 12 1;
#X connect 17 0 16 1;
#X restore 80 152 pd rndline1;
#N canvas 187 182 588 521 rndline2 0;
#X obj 166 290 pack;
#X obj 130 135 random 1000;
#X obj 130 156 / 1000;
#X obj 135 361 ==;
#X obj 159 324 line;
#X obj 241 187 exp;
#X obj 236 159 / 100;
#X obj 93 16 inlet;
#X text 139 18 start;
#X obj 251 413 outlet;
#X obj 90 396 moses 0.1;
#X obj 98 43 t b b;
#X obj 34 454 delay 1000;
#X obj 244 210 int;
#X obj 234 134 random 950;
#X obj 196 264 + 300;
#X obj 313 334 +;
#X obj 333 238 random 950;
#X connect 0 0 4 0;
#X connect 1 0 2 0;
#X connect 2 0 0 0;
#X connect 2 0 3 1;
#X connect 3 0 10 0;
#X connect 4 0 9 0;
#X connect 4 0 3 0;
#X connect 5 0 13 0;
#X connect 6 0 5 0;
#X connect 7 0 11 0;
#X connect 10 1 12 0;
#X connect 11 0 1 0;
#X connect 11 0 14 0;
#X connect 11 1 17 0;
#X connect 12 0 11 0;
#X connect 13 0 15 0;
#X connect 13 0 16 0;
#X connect 13 0 17 1;
#X connect 14 0 6 0;
#X connect 15 0 0 1;
#X connect 16 0 12 1;
#X connect 17 0 16 1;
#X restore -71 235 pd rndline2;
#X obj -62 266 * 40;
#X obj 118 204 * 4;
#X msg 765 274 0.7;
#X msg 815 268 0.3;
#X msg 714 291 0.6;
#X obj 487 326 ==;
#X obj 526 205 t b b;
#X obj 465 349 +;
#X obj 455 297 t f f;
#X connect 0 0 35 0;
#X connect 0 0 36 0;
#X connect 1 0 49 0;
#X connect 2 0 3 0;
#X connect 3 0 4 0;
#X connect 3 0 10 0;
#X connect 4 0 5 0;
#X connect 5 0 40 0;
#X connect 6 0 17 1;
#X connect 6 0 28 0;
#X connect 7 0 6 1;
#X connect 10 0 11 0;
#X connect 11 0 41 0;
#X connect 12 0 20 1;
#X connect 12 0 29 0;
#X connect 13 0 12 1;
#X connect 14 0 23 1;
#X connect 15 0 37 1;
#X connect 15 0 34 1;
#X connect 15 0 35 1;
#X connect 16 0 9 0;
#X connect 17 0 18 0;
#X connect 18 0 16 1;
#X connect 19 0 18 1;
#X connect 20 0 21 0;
#X connect 21 0 16 0;
#X connect 22 0 21 1;
#X connect 23 0 15 0;
#X connect 23 0 39 0;
#X connect 24 0 34 2;
#X connect 24 0 37 2;
#X connect 25 0 42 0;
#X connect 34 0 12 0;
#X connect 35 0 37 0;
#X connect 36 0 34 0;
#X connect 37 0 6 0;
#X connect 38 0 36 1;
#X connect 39 0 38 0;
#X connect 40 0 7 0;
#X connect 40 0 19 0;
#X connect 41 0 13 0;
#X connect 41 0 22 0;
#X connect 42 0 14 0;
#X connect 42 1 57 0;
#X connect 42 1 58 0;
#X connect 42 1 59 0;
#X connect 43 0 48 0;
#X connect 44 0 45 0;
#X connect 45 0 63 0;
#X connect 46 0 47 0;
#X connect 47 0 10 1;
#X connect 47 0 51 0;
#X connect 47 0 60 1;
#X connect 48 0 49 0;
#X connect 48 0 53 0;
#X connect 48 0 54 0;
#X connect 48 1 52 0;
#X connect 48 1 53 0;
#X connect 48 1 54 0;
#X connect 48 1 61 0;
#X connect 49 0 2 0;
#X connect 52 0 24 1;
#X connect 53 0 56 0;
#X connect 54 0 55 0;
#X connect 55 0 23 0;
#X connect 56 0 24 0;
#X connect 57 0 19 1;
#X connect 57 0 22 1;
#X connect 58 0 17 0;
#X connect 58 0 20 0;
#X connect 59 0 7 1;
#X connect 59 0 13 1;
#X connect 60 0 62 1;
#X connect 61 0 44 0;
#X connect 61 1 46 0;
#X connect 62 0 4 1;
#X connect 62 0 50 0;
#X connect 63 0 62 0;
#X connect 63 1 60 0;
#X coords 0 0 1 1 250 135 0;
#X restore 335 789 pd dualdelay1m;
#X obj -124 510 * 500;
#X obj 321 887 tabwrite~ \$0grainsource1;
#N canvas 1297 205 588 521 rndline 0;
#X obj 166 290 pack;
#X obj 67 81 random 1000;
#X obj 79 208 / 1000;
#X obj 135 361 ==;
#X obj 159 324 line;
#X obj 241 187 exp;
#X obj 236 159 / 100;
#X obj 49 -10 inlet;
#X text 102 -16 start;
#X obj 251 413 outlet;
#X obj 90 396 moses 0.1;
#X obj 74 437 delay 1000;
#X obj 241 213 int;
#X obj 234 134 random 950;
#X obj 313 334 +;
#X obj 338 268 random 950;
#X obj 264 236 t f f;
#X obj 54 22 t b b b;
#X obj 89 140 +;
#X obj 95 173 mod 1000;
#X obj 126 146 int;
#X obj 68 104 + 200;
#X obj 196 264 + 200;
#X connect 0 0 4 0;
#X connect 1 0 21 0;
#X connect 2 0 0 0;
#X connect 2 0 3 1;
#X connect 3 0 10 0;
#X connect 4 0 9 0;
#X connect 4 0 3 0;
#X connect 5 0 12 0;
#X connect 6 0 5 0;
#X connect 7 0 17 0;
#X connect 10 1 11 0;
#X connect 11 0 17 0;
#X connect 12 0 16 0;
#X connect 12 0 22 0;
#X connect 13 0 6 0;
#X connect 14 0 11 1;
#X connect 15 0 14 1;
#X connect 16 0 14 0;
#X connect 16 1 15 1;
#X connect 17 0 1 0;
#X connect 17 1 13 0;
#X connect 17 2 15 0;
#X connect 18 0 19 0;
#X connect 19 0 2 0;
#X connect 19 0 20 0;
#X connect 20 0 18 1;
#X connect 21 0 18 0;
#X connect 22 0 0 1;
#X restore 657 614 pd rndline;
#N canvas 1298 209 588 521 rndline 0;
#X obj 166 290 pack;
#X obj 67 81 random 1000;
#X obj 79 208 / 1000;
#X obj 135 361 ==;
#X obj 159 324 line;
#X obj 241 187 exp;
#X obj 236 159 / 100;
#X obj 49 -10 inlet;
#X text 102 -16 start;
#X obj 251 413 outlet;
#X obj 90 396 moses 0.1;
#X obj 74 437 delay 1000;
#X obj 241 213 int;
#X obj 234 134 random 950;
#X obj 313 334 +;
#X obj 338 268 random 950;
#X obj 264 236 t f f;
#X obj 54 22 t b b b;
#X obj 89 140 +;
#X obj 95 173 mod 1000;
#X obj 126 146 int;
#X obj 68 104 + 200;
#X obj 196 264 + 200;
#X connect 0 0 4 0;
#X connect 1 0 21 0;
#X connect 2 0 0 0;
#X connect 2 0 3 1;
#X connect 3 0 10 0;
#X connect 4 0 9 0;
#X connect 4 0 3 0;
#X connect 5 0 12 0;
#X connect 6 0 5 0;
#X connect 7 0 17 0;
#X connect 10 1 11 0;
#X connect 11 0 17 0;
#X connect 12 0 16 0;
#X connect 12 0 22 0;
#X connect 13 0 6 0;
#X connect 14 0 11 1;
#X connect 15 0 14 1;
#X connect 16 0 14 0;
#X connect 16 1 15 1;
#X connect 17 0 1 0;
#X connect 17 1 13 0;
#X connect 17 2 15 0;
#X connect 18 0 19 0;
#X connect 19 0 2 0;
#X connect 19 0 20 0;
#X connect 20 0 18 1;
#X connect 21 0 18 0;
#X connect 22 0 0 1;
#X restore 731 571 pd rndline;
#N canvas 1297 205 588 521 rndline 0;
#X obj 166 290 pack;
#X obj 67 81 random 1000;
#X obj 79 208 / 1000;
#X obj 135 361 ==;
#X obj 159 324 line;
#X obj 241 187 exp;
#X obj 236 159 / 100;
#X obj 49 -10 inlet;
#X text 102 -16 start;
#X obj 251 413 outlet;
#X obj 90 396 moses 0.1;
#X obj 74 437 delay 1000;
#X obj 241 213 int;
#X obj 234 134 random 950;
#X obj 313 334 +;
#X obj 338 268 random 950;
#X obj 264 236 t f f;
#X obj 54 22 t b b b;
#X obj 89 140 +;
#X obj 95 173 mod 1000;
#X obj 126 146 int;
#X obj 68 104 + 200;
#X obj 196 264 + 200;
#X connect 0 0 4 0;
#X connect 1 0 21 0;
#X connect 2 0 0 0;
#X connect 2 0 3 1;
#X connect 3 0 10 0;
#X connect 4 0 9 0;
#X connect 4 0 3 0;
#X connect 5 0 12 0;
#X connect 6 0 5 0;
#X connect 7 0 17 0;
#X connect 10 1 11 0;
#X connect 11 0 17 0;
#X connect 12 0 16 0;
#X connect 12 0 22 0;
#X connect 13 0 6 0;
#X connect 14 0 11 1;
#X connect 15 0 14 1;
#X connect 16 0 14 0;
#X connect 16 1 15 1;
#X connect 17 0 1 0;
#X connect 17 1 13 0;
#X connect 17 2 15 0;
#X connect 18 0 19 0;
#X connect 19 0 2 0;
#X connect 19 0 20 0;
#X connect 20 0 18 1;
#X connect 21 0 18 0;
#X connect 22 0 0 1;
#X restore 792 504 pd rndline;
#N canvas 1297 205 588 521 rndline 0;
#X obj 166 290 pack;
#X obj 67 81 random 1000;
#X obj 79 208 / 1000;
#X obj 135 361 ==;
#X obj 159 324 line;
#X obj 241 187 exp;
#X obj 236 159 / 100;
#X obj 49 -10 inlet;
#X text 102 -16 start;
#X obj 251 413 outlet;
#X obj 90 396 moses 0.1;
#X obj 74 437 delay 1000;
#X obj 241 213 int;
#X obj 234 134 random 950;
#X obj 313 334 +;
#X obj 338 268 random 950;
#X obj 264 236 t f f;
#X obj 54 22 t b b b;
#X obj 89 140 +;
#X obj 95 173 mod 1000;
#X obj 126 146 int;
#X obj 68 104 + 200;
#X obj 196 264 + 200;
#X connect 0 0 4 0;
#X connect 1 0 21 0;
#X connect 2 0 0 0;
#X connect 2 0 3 1;
#X connect 3 0 10 0;
#X connect 4 0 9 0;
#X connect 4 0 3 0;
#X connect 5 0 12 0;
#X connect 6 0 5 0;
#X connect 7 0 17 0;
#X connect 10 1 11 0;
#X connect 11 0 17 0;
#X connect 12 0 16 0;
#X connect 12 0 22 0;
#X connect 13 0 6 0;
#X connect 14 0 11 1;
#X connect 15 0 14 1;
#X connect 16 0 14 0;
#X connect 16 1 15 1;
#X connect 17 0 1 0;
#X connect 17 1 13 0;
#X connect 17 2 15 0;
#X connect 18 0 19 0;
#X connect 19 0 2 0;
#X connect 19 0 20 0;
#X connect 20 0 18 1;
#X connect 21 0 18 0;
#X connect 22 0 0 1;
#X restore 831 606 pd rndline;
#N canvas 1297 205 588 521 rndline 0;
#X obj 166 290 pack;
#X obj 67 81 random 1000;
#X obj 79 208 / 1000;
#X obj 135 361 ==;
#X obj 159 324 line;
#X obj 241 187 exp;
#X obj 236 159 / 100;
#X obj 49 -10 inlet;
#X text 102 -16 start;
#X obj 251 413 outlet;
#X obj 90 396 moses 0.1;
#X obj 74 437 delay 1000;
#X obj 241 213 int;
#X obj 234 134 random 950;
#X obj 313 334 +;
#X obj 338 268 random 950;
#X obj 264 236 t f f;
#X obj 54 22 t b b b;
#X obj 89 140 +;
#X obj 95 173 mod 1000;
#X obj 126 146 int;
#X obj 68 104 + 200;
#X obj 196 264 + 200;
#X connect 0 0 4 0;
#X connect 1 0 21 0;
#X connect 2 0 0 0;
#X connect 2 0 3 1;
#X connect 3 0 10 0;
#X connect 4 0 9 0;
#X connect 4 0 3 0;
#X connect 5 0 12 0;
#X connect 6 0 5 0;
#X connect 7 0 17 0;
#X connect 10 1 11 0;
#X connect 11 0 17 0;
#X connect 12 0 16 0;
#X connect 12 0 22 0;
#X connect 13 0 6 0;
#X connect 14 0 11 1;
#X connect 15 0 14 1;
#X connect 16 0 14 0;
#X connect 16 1 15 1;
#X connect 17 0 1 0;
#X connect 17 1 13 0;
#X connect 17 2 15 0;
#X connect 18 0 19 0;
#X connect 19 0 2 0;
#X connect 19 0 20 0;
#X connect 20 0 18 1;
#X connect 21 0 18 0;
#X connect 22 0 0 1;
#X restore 999 615 pd rndline;
#X obj 918 621 clip 0 1;
#N canvas 1297 205 588 521 rndline 0;
#X obj 166 290 pack;
#X obj 67 81 random 1000;
#X obj 79 208 / 1000;
#X obj 135 361 ==;
#X obj 159 324 line;
#X obj 241 187 exp;
#X obj 236 159 / 100;
#X obj 49 -10 inlet;
#X text 102 -16 start;
#X obj 251 413 outlet;
#X obj 90 396 moses 0.1;
#X obj 74 437 delay 1000;
#X obj 241 213 int;
#X obj 234 134 random 950;
#X obj 313 334 +;
#X obj 338 268 random 950;
#X obj 264 236 t f f;
#X obj 54 22 t b b b;
#X obj 89 140 +;
#X obj 95 173 mod 1000;
#X obj 126 146 int;
#X obj 68 104 + 200;
#X obj 196 264 + 200;
#X connect 0 0 4 0;
#X connect 1 0 21 0;
#X connect 2 0 0 0;
#X connect 2 0 3 1;
#X connect 3 0 10 0;
#X connect 4 0 9 0;
#X connect 4 0 3 0;
#X connect 5 0 12 0;
#X connect 6 0 5 0;
#X connect 7 0 17 0;
#X connect 10 1 11 0;
#X connect 11 0 17 0;
#X connect 12 0 16 0;
#X connect 12 0 22 0;
#X connect 13 0 6 0;
#X connect 14 0 11 1;
#X connect 15 0 14 1;
#X connect 16 0 14 0;
#X connect 16 1 15 1;
#X connect 17 0 1 0;
#X connect 17 1 13 0;
#X connect 17 2 15 0;
#X connect 18 0 19 0;
#X connect 19 0 2 0;
#X connect 19 0 20 0;
#X connect 20 0 18 1;
#X connect 21 0 18 0;
#X connect 22 0 0 1;
#X restore 917 548 pd rndline;
#X obj 790 339 t b;
#X msg 413 838 start;
#X obj 86 -92 loadbang;
#X obj 321 862 clip~ -1 1;
#N canvas 66 178 883 711 particlecloud 0;
#X msg -177 374 bang;
#X obj 76 450 *;
#X obj 1 399 *;
#X obj -302 535 metro;
#X obj -257 513 +;
#X obj -198 493 random;
#X obj -277 590 delay 0;
#X msg 20 542 0;
#X obj -8 645 outlet~;
#X obj 111 646 outlet~;
#X obj -289 36 inlet;
#X text -248 37 position 0..1;
#X obj -139 36 inlet;
#X text -98 37 dens 0..1;
#X obj -18 38 inlet;
#X text 23 39 densjit 0..1;
#X obj 116 38 inlet;
#X text 158 39 len 0..1;
#X obj 228 37 inlet;
#X obj 351 35 inlet;
#X text 390 36 pitchjit 0..1;
#X text 270 39 tp -24..24;
#X obj 491 35 inlet;
#X text 532 38 panjit 0..1;
#X obj -51 213 loadbang;
#X obj 294 377 table \$0grainsource1 176400;
#X msg -52 253 176400;
#N canvas 341 96 1379 949 particles12 0;
#X obj -148 -2 inlet;
#X obj 251 108 inlet;
#X obj 91 45 inlet;
#X obj 205 748 outlet~;
#X text 130 45 <-length;
#X obj 169 75 inlet;
#X text 207 76 <-len jitter;
#X obj 319 129 inlet;
#X text 365 128 <-pos jitter;
#X text 292 107 <-pos;
#X obj -90 16 + 1;
#X obj -129 43 float;
#X obj 411 158 inlet;
#X obj 516 189 inlet;
#X text 452 158 <-transpose;
#X text 557 190 <-p jitter;
#X obj 583 228 inlet;
#X text 632 230 <-pan jitter;
#X obj 719 798 outlet~;
#X text 583 57 \;;
#X text 593 58 -);
#N canvas 0 0 1050 795 grainplayer01 0;
#X obj 35 -145 inlet;
#X obj 403 11 inlet;
#X obj 239 -124 inlet;
#X obj 59 142 line~;
#X obj 127 558 outlet~;
#X msg 48 48 0;
#X msg 65 104 1 455.861;
#X obj 14 305 +~;
#X obj 61 245 *~;
#X msg 87 64 set 1 \$1;
#X obj 125 -34 / 22.05;
#X text 282 -124 <-length;
#X obj 352 -107 inlet;
#X obj 193 -44 +;
#X text 398 -108 <-len jitter;
#X obj 472 33 inlet;
#X obj 133 230 +;
#X text 518 32 <-pos jitter;
#X text 445 11 <-pos;
#X obj 223 189 random 1;
#X obj 234 -77 random 1;
#X obj 163 338 cos~;
#X obj 163 286 -~ 0.5;
#X obj 163 310 *~ 0.5;
#X obj 105 -3 *;
#X obj 630 8 inlet;
#X obj 699 75 inlet;
#X text 672 8 <-transpose;
#X text 748 74 <-p jitter;
#X msg 446 190 1.05946;
#X obj 481 218 pow;
#X obj 544 85 * -1;
#X obj 637 131 * 128;
#X obj 630 166 random 1;
#X obj 631 190 / 128;
#X obj 613 296 *;
#X obj 509 110 +;
#X obj 127 522 *~;
#X obj 228 564 outlet~;
#X obj 228 528 *~;
#X msg 295 356 0.5;
#X obj 295 384 +;
#X obj 768 317 inlet;
#X text 817 316 <-pan jitter;
#X obj 686 352 * 128;
#X obj 634 397 random 1;
#X obj 624 423 / 128;
#X obj 623 454 - 0.5;
#X obj 624 487 *;
#X text 513 -79 play a single grain on bang;
#X msg 281 450 1;
#X obj 301 481 -;
#X obj 628 219 * 48;
#X obj 5 185 phasor~;
#X obj 48 20 / 1000;
#X obj -4 43 pow -1;
#X msg 28 152 1;
#X obj 467 243 clip 0.125 4;
#X obj 628 244 - 24;
#X obj 140 413 *~;
#X obj 163 360 *~ 8;
#X obj 161 383 clip~ 0 1;
#X obj 287 415 t b f;
#X text 76 -142 bang starts grain;
#X obj 508 132 float;
#X obj -6 358 tabread4~ \$0grainsource1;
#X obj 483 159 t b f;
#X obj 649 101 float;
#X obj 633 30 t b f;
#X obj 571 64 float;
#X connect 0 0 19 0;
#X connect 0 0 20 0;
#X connect 0 0 5 0;
#X connect 0 0 33 0;
#X connect 0 0 40 0;
#X connect 0 0 45 0;
#X connect 0 0 56 0;
#X connect 0 0 64 0;
#X connect 1 0 16 1;
#X connect 2 0 13 1;
#X connect 3 0 22 0;
#X connect 5 0 3 0;
#X connect 5 0 6 0;
#X connect 6 0 3 0;
#X connect 7 0 65 0;
#X connect 8 0 7 0;
#X connect 9 0 6 0;
#X connect 10 0 24 0;
#X connect 12 0 20 1;
#X connect 13 0 10 0;
#X connect 13 0 8 1;
#X connect 15 0 19 1;
#X connect 16 0 7 1;
#X connect 19 0 16 0;
#X connect 20 0 13 0;
#X connect 21 0 60 0;
#X connect 22 0 23 0;
#X connect 23 0 21 0;
#X connect 24 0 9 0;
#X connect 24 0 54 0;
#X connect 25 0 68 0;
#X connect 25 0 69 0;
#X connect 26 0 35 1;
#X connect 26 0 67 0;
#X connect 29 0 30 0;
#X connect 30 0 57 0;
#X connect 31 0 36 1;
#X connect 32 0 33 1;
#X connect 33 0 34 0;
#X connect 34 0 52 0;
#X connect 35 0 36 0;
#X connect 36 0 64 0;
#X connect 37 0 4 0;
#X connect 39 0 38 0;
#X connect 40 0 41 0;
#X connect 41 0 37 1;
#X connect 41 0 62 0;
#X connect 42 0 44 0;
#X connect 42 0 48 1;
#X connect 44 0 45 1;
#X connect 45 0 46 0;
#X connect 46 0 47 0;
#X connect 47 0 48 0;
#X connect 48 0 41 1;
#X connect 50 0 51 0;
#X connect 51 0 39 1;
#X connect 52 0 58 0;
#X connect 53 0 8 0;
#X connect 54 0 55 0;
#X connect 55 0 53 0;
#X connect 56 0 53 1;
#X connect 57 0 24 1;
#X connect 58 0 35 0;
#X connect 59 0 37 0;
#X connect 59 0 39 0;
#X connect 60 0 61 0;
#X connect 61 0 59 1;
#X connect 62 0 50 0;
#X connect 62 1 51 1;
#X connect 64 0 66 0;
#X connect 65 0 59 0;
#X connect 66 0 29 0;
#X connect 66 1 30 1;
#X connect 67 0 32 0;
#X connect 68 0 67 0;
#X connect 68 0 33 0;
#X connect 68 0 69 0;
#X connect 68 1 69 1;
#X connect 69 0 31 0;
#X restore -120 191 pd grainplayer01;
#N canvas 0 0 1050 795 grainplayer02 0;
#X obj 35 -145 inlet;
#X obj 403 11 inlet;
#X obj 239 -124 inlet;
#X obj 59 142 line~;
#X obj 127 558 outlet~;
#X msg 48 48 0;
#X msg 65 104 1 437.108;
#X obj 14 305 +~;
#X obj 61 245 *~;
#X msg 87 64 set 1 \$1;
#X obj 125 -34 / 22.05;
#X text 282 -124 <-length;
#X obj 352 -107 inlet;
#X obj 193 -44 +;
#X text 398 -108 <-len jitter;
#X obj 472 33 inlet;
#X obj 133 230 +;
#X text 518 32 <-pos jitter;
#X text 445 11 <-pos;
#X obj 223 189 random 1;
#X obj 234 -77 random 1;
#X obj 163 338 cos~;
#X obj 163 286 -~ 0.5;
#X obj 163 310 *~ 0.5;
#X obj 105 -3 *;
#X obj 630 8 inlet;
#X obj 699 75 inlet;
#X text 672 8 <-transpose;
#X text 748 74 <-p jitter;
#X msg 446 190 1.05946;
#X obj 481 218 pow;
#X obj 544 85 * -1;
#X obj 637 131 * 128;
#X obj 630 166 random 1;
#X obj 631 190 / 128;
#X obj 613 296 *;
#X obj 509 110 +;
#X obj 127 522 *~;
#X obj 228 564 outlet~;
#X obj 228 528 *~;
#X msg 295 356 0.5;
#X obj 295 384 +;
#X obj 768 317 inlet;
#X text 817 316 <-pan jitter;
#X obj 686 352 * 128;
#X obj 634 397 random 1;
#X obj 624 423 / 128;
#X obj 623 454 - 0.5;
#X obj 624 487 *;
#X text 513 -79 play a single grain on bang;
#X msg 281 450 1;
#X obj 301 481 -;
#X obj 628 219 * 48;
#X obj 5 185 phasor~;
#X obj 48 20 / 1000;
#X obj -4 43 pow -1;
#X msg 28 152 1;
#X obj 467 243 clip 0.125 4;
#X obj 628 244 - 24;
#X obj 140 413 *~;
#X obj 163 360 *~ 8;
#X obj 161 383 clip~ 0 1;
#X obj 287 415 t b f;
#X text 76 -142 bang starts grain;
#X obj 508 132 float;
#X obj -6 358 tabread4~ \$0grainsource1;
#X obj 483 159 t b f;
#X obj 649 101 float;
#X obj 633 30 t b f;
#X obj 571 64 float;
#X connect 0 0 19 0;
#X connect 0 0 20 0;
#X connect 0 0 5 0;
#X connect 0 0 33 0;
#X connect 0 0 40 0;
#X connect 0 0 45 0;
#X connect 0 0 56 0;
#X connect 0 0 64 0;
#X connect 1 0 16 1;
#X connect 2 0 13 1;
#X connect 3 0 22 0;
#X connect 5 0 3 0;
#X connect 5 0 6 0;
#X connect 6 0 3 0;
#X connect 7 0 65 0;
#X connect 8 0 7 0;
#X connect 9 0 6 0;
#X connect 10 0 24 0;
#X connect 12 0 20 1;
#X connect 13 0 10 0;
#X connect 13 0 8 1;
#X connect 15 0 19 1;
#X connect 16 0 7 1;
#X connect 19 0 16 0;
#X connect 20 0 13 0;
#X connect 21 0 60 0;
#X connect 22 0 23 0;
#X connect 23 0 21 0;
#X connect 24 0 9 0;
#X connect 24 0 54 0;
#X connect 25 0 68 0;
#X connect 25 0 69 0;
#X connect 26 0 35 1;
#X connect 26 0 67 0;
#X connect 29 0 30 0;
#X connect 30 0 57 0;
#X connect 31 0 36 1;
#X connect 32 0 33 1;
#X connect 33 0 34 0;
#X connect 34 0 52 0;
#X connect 35 0 36 0;
#X connect 36 0 64 0;
#X connect 37 0 4 0;
#X connect 39 0 38 0;
#X connect 40 0 41 0;
#X connect 41 0 37 1;
#X connect 41 0 62 0;
#X connect 42 0 44 0;
#X connect 42 0 48 1;
#X connect 44 0 45 1;
#X connect 45 0 46 0;
#X connect 46 0 47 0;
#X connect 47 0 48 0;
#X connect 48 0 41 1;
#X connect 50 0 51 0;
#X connect 51 0 39 1;
#X connect 52 0 58 0;
#X connect 53 0 8 0;
#X connect 54 0 55 0;
#X connect 55 0 53 0;
#X connect 56 0 53 1;
#X connect 57 0 24 1;
#X connect 58 0 35 0;
#X connect 59 0 37 0;
#X connect 59 0 39 0;
#X connect 60 0 61 0;
#X connect 61 0 59 1;
#X connect 62 0 50 0;
#X connect 62 1 51 1;
#X connect 64 0 66 0;
#X connect 65 0 59 0;
#X connect 66 0 29 0;
#X connect 66 1 30 1;
#X connect 67 0 32 0;
#X connect 68 0 67 0;
#X connect 68 0 33 0;
#X connect 68 0 69 0;
#X connect 68 1 69 1;
#X connect 69 0 31 0;
#X restore -31 222 pd grainplayer02;
#N canvas 0 0 1050 795 grainplayer03 0;
#X obj 35 -145 inlet;
#X obj 403 11 inlet;
#X obj 239 -124 inlet;
#X obj 59 142 line~;
#X obj 127 558 outlet~;
#X msg 48 48 0;
#X msg 65 104 1 867.157;
#X obj 14 305 +~;
#X obj 61 245 *~;
#X msg 87 64 set 1 \$1;
#X obj 125 -34 / 22.05;
#X text 282 -124 <-length;
#X obj 352 -107 inlet;
#X obj 193 -44 +;
#X text 398 -108 <-len jitter;
#X obj 472 33 inlet;
#X obj 133 230 +;
#X text 518 32 <-pos jitter;
#X text 445 11 <-pos;
#X obj 223 189 random 1;
#X obj 234 -77 random 1;
#X obj 163 338 cos~;
#X obj 163 286 -~ 0.5;
#X obj 163 310 *~ 0.5;
#X obj 105 -3 *;
#X obj 630 8 inlet;
#X obj 699 75 inlet;
#X text 672 8 <-transpose;
#X text 748 74 <-p jitter;
#X msg 446 190 1.05946;
#X obj 481 218 pow;
#X obj 544 85 * -1;
#X obj 637 131 * 128;
#X obj 630 166 random 1;
#X obj 631 190 / 128;
#X obj 613 296 *;
#X obj 509 110 +;
#X obj 127 522 *~;
#X obj 228 564 outlet~;
#X obj 228 528 *~;
#X msg 295 356 0.5;
#X obj 295 384 +;
#X obj 768 317 inlet;
#X text 817 316 <-pan jitter;
#X obj 686 352 * 128;
#X obj 634 397 random 1;
#X obj 624 423 / 128;
#X obj 623 454 - 0.5;
#X obj 624 487 *;
#X text 513 -79 play a single grain on bang;
#X msg 281 450 1;
#X obj 301 481 -;
#X obj 628 219 * 48;
#X obj 5 185 phasor~;
#X obj 48 20 / 1000;
#X obj -4 43 pow -1;
#X msg 28 152 1;
#X obj 467 243 clip 0.125 4;
#X obj 628 244 - 24;
#X obj 140 413 *~;
#X obj 163 360 *~ 8;
#X obj 161 383 clip~ 0 1;
#X obj 287 415 t b f;
#X text 76 -142 bang starts grain;
#X obj 508 132 float;
#X obj -6 358 tabread4~ \$0grainsource1;
#X obj 483 159 t b f;
#X obj 649 101 float;
#X obj 633 30 t b f;
#X obj 571 64 float;
#X connect 0 0 19 0;
#X connect 0 0 20 0;
#X connect 0 0 5 0;
#X connect 0 0 33 0;
#X connect 0 0 40 0;
#X connect 0 0 45 0;
#X connect 0 0 56 0;
#X connect 0 0 64 0;
#X connect 1 0 16 1;
#X connect 2 0 13 1;
#X connect 3 0 22 0;
#X connect 5 0 3 0;
#X connect 5 0 6 0;
#X connect 6 0 3 0;
#X connect 7 0 65 0;
#X connect 8 0 7 0;
#X connect 9 0 6 0;
#X connect 10 0 24 0;
#X connect 12 0 20 1;
#X connect 13 0 10 0;
#X connect 13 0 8 1;
#X connect 15 0 19 1;
#X connect 16 0 7 1;
#X connect 19 0 16 0;
#X connect 20 0 13 0;
#X connect 21 0 60 0;
#X connect 22 0 23 0;
#X connect 23 0 21 0;
#X connect 24 0 9 0;
#X connect 24 0 54 0;
#X connect 25 0 68 0;
#X connect 25 0 69 0;
#X connect 26 0 35 1;
#X connect 26 0 67 0;
#X connect 29 0 30 0;
#X connect 30 0 57 0;
#X connect 31 0 36 1;
#X connect 32 0 33 1;
#X connect 33 0 34 0;
#X connect 34 0 52 0;
#X connect 35 0 36 0;
#X connect 36 0 64 0;
#X connect 37 0 4 0;
#X connect 39 0 38 0;
#X connect 40 0 41 0;
#X connect 41 0 37 1;
#X connect 41 0 62 0;
#X connect 42 0 44 0;
#X connect 42 0 48 1;
#X connect 44 0 45 1;
#X connect 45 0 46 0;
#X connect 46 0 47 0;
#X connect 47 0 48 0;
#X connect 48 0 41 1;
#X connect 50 0 51 0;
#X connect 51 0 39 1;
#X connect 52 0 58 0;
#X connect 53 0 8 0;
#X connect 54 0 55 0;
#X connect 55 0 53 0;
#X connect 56 0 53 1;
#X connect 57 0 24 1;
#X connect 58 0 35 0;
#X connect 59 0 37 0;
#X connect 59 0 39 0;
#X connect 60 0 61 0;
#X connect 61 0 59 1;
#X connect 62 0 50 0;
#X connect 62 1 51 1;
#X connect 64 0 66 0;
#X connect 65 0 59 0;
#X connect 66 0 29 0;
#X connect 66 1 30 1;
#X connect 67 0 32 0;
#X connect 68 0 67 0;
#X connect 68 0 33 0;
#X connect 68 0 69 0;
#X connect 68 1 69 1;
#X connect 69 0 31 0;
#X restore 68 253 pd grainplayer03;
#N canvas 0 0 1050 795 grainplayer04 0;
#X obj 35 -145 inlet;
#X obj 403 11 inlet;
#X obj 239 -124 inlet;
#X obj 59 142 line~;
#X obj 127 558 outlet~;
#X msg 48 48 0;
#X msg 65 104 1 910.509;
#X obj 14 305 +~;
#X obj 61 245 *~;
#X msg 87 64 set 1 \$1;
#X obj 125 -34 / 22.05;
#X text 282 -124 <-length;
#X obj 352 -107 inlet;
#X obj 193 -44 +;
#X text 398 -108 <-len jitter;
#X obj 472 33 inlet;
#X obj 133 230 +;
#X text 518 32 <-pos jitter;
#X text 445 11 <-pos;
#X obj 223 189 random 1;
#X obj 234 -77 random 1;
#X obj 163 338 cos~;
#X obj 163 286 -~ 0.5;
#X obj 163 310 *~ 0.5;
#X obj 105 -3 *;
#X obj 630 8 inlet;
#X obj 699 75 inlet;
#X text 672 8 <-transpose;
#X text 748 74 <-p jitter;
#X msg 446 190 1.05946;
#X obj 481 218 pow;
#X obj 544 85 * -1;
#X obj 637 131 * 128;
#X obj 630 166 random 1;
#X obj 631 190 / 128;
#X obj 613 296 *;
#X obj 509 110 +;
#X obj 127 522 *~;
#X obj 228 564 outlet~;
#X obj 228 528 *~;
#X msg 295 356 0.5;
#X obj 295 384 +;
#X obj 768 317 inlet;
#X text 817 316 <-pan jitter;
#X obj 686 352 * 128;
#X obj 634 397 random 1;
#X obj 624 423 / 128;
#X obj 623 454 - 0.5;
#X obj 624 487 *;
#X text 513 -79 play a single grain on bang;
#X msg 281 450 1;
#X obj 301 481 -;
#X obj 628 219 * 48;
#X obj 5 185 phasor~;
#X obj 48 20 / 1000;
#X obj -4 43 pow -1;
#X msg 28 152 1;
#X obj 467 243 clip 0.125 4;
#X obj 628 244 - 24;
#X obj 140 413 *~;
#X obj 163 360 *~ 8;
#X obj 161 383 clip~ 0 1;
#X obj 287 415 t b f;
#X text 76 -142 bang starts grain;
#X obj 508 132 float;
#X obj -6 358 tabread4~ \$0grainsource1;
#X obj 483 159 t b f;
#X obj 649 101 float;
#X obj 633 30 t b f;
#X obj 571 64 float;
#X connect 0 0 19 0;
#X connect 0 0 20 0;
#X connect 0 0 5 0;
#X connect 0 0 33 0;
#X connect 0 0 40 0;
#X connect 0 0 45 0;
#X connect 0 0 56 0;
#X connect 0 0 64 0;
#X connect 1 0 16 1;
#X connect 2 0 13 1;
#X connect 3 0 22 0;
#X connect 5 0 3 0;
#X connect 5 0 6 0;
#X connect 6 0 3 0;
#X connect 7 0 65 0;
#X connect 8 0 7 0;
#X connect 9 0 6 0;
#X connect 10 0 24 0;
#X connect 12 0 20 1;
#X connect 13 0 10 0;
#X connect 13 0 8 1;
#X connect 15 0 19 1;
#X connect 16 0 7 1;
#X connect 19 0 16 0;
#X connect 20 0 13 0;
#X connect 21 0 60 0;
#X connect 22 0 23 0;
#X connect 23 0 21 0;
#X connect 24 0 9 0;
#X connect 24 0 54 0;
#X connect 25 0 68 0;
#X connect 25 0 69 0;
#X connect 26 0 35 1;
#X connect 26 0 67 0;
#X connect 29 0 30 0;
#X connect 30 0 57 0;
#X connect 31 0 36 1;
#X connect 32 0 33 1;
#X connect 33 0 34 0;
#X connect 34 0 52 0;
#X connect 35 0 36 0;
#X connect 36 0 64 0;
#X connect 37 0 4 0;
#X connect 39 0 38 0;
#X connect 40 0 41 0;
#X connect 41 0 37 1;
#X connect 41 0 62 0;
#X connect 42 0 44 0;
#X connect 42 0 48 1;
#X connect 44 0 45 1;
#X connect 45 0 46 0;
#X connect 46 0 47 0;
#X connect 47 0 48 0;
#X connect 48 0 41 1;
#X connect 50 0 51 0;
#X connect 51 0 39 1;
#X connect 52 0 58 0;
#X connect 53 0 8 0;
#X connect 54 0 55 0;
#X connect 55 0 53 0;
#X connect 56 0 53 1;
#X connect 57 0 24 1;
#X connect 58 0 35 0;
#X connect 59 0 37 0;
#X connect 59 0 39 0;
#X connect 60 0 61 0;
#X connect 61 0 59 1;
#X connect 62 0 50 0;
#X connect 62 1 51 1;
#X connect 64 0 66 0;
#X connect 65 0 59 0;
#X connect 66 0 29 0;
#X connect 66 1 30 1;
#X connect 67 0 32 0;
#X connect 68 0 67 0;
#X connect 68 0 33 0;
#X connect 68 0 69 0;
#X connect 68 1 69 1;
#X connect 69 0 31 0;
#X restore 163 284 pd grainplayer04;
#N canvas 0 0 1050 795 grainplayer05 0;
#X obj 35 -145 inlet;
#X obj 403 11 inlet;
#X obj 239 -124 inlet;
#X obj 59 142 line~;
#X obj 127 558 outlet~;
#X msg 48 48 0;
#X msg 65 104 1 730.603;
#X obj 14 305 +~;
#X obj 61 245 *~;
#X msg 87 64 set 1 \$1;
#X obj 125 -34 / 22.05;
#X text 282 -124 <-length;
#X obj 352 -107 inlet;
#X obj 193 -44 +;
#X text 398 -108 <-len jitter;
#X obj 472 33 inlet;
#X obj 133 230 +;
#X text 518 32 <-pos jitter;
#X text 445 11 <-pos;
#X obj 223 189 random 1;
#X obj 234 -77 random 1;
#X obj 163 338 cos~;
#X obj 163 286 -~ 0.5;
#X obj 163 310 *~ 0.5;
#X obj 105 -3 *;
#X obj 630 8 inlet;
#X obj 699 75 inlet;
#X text 672 8 <-transpose;
#X text 748 74 <-p jitter;
#X msg 446 190 1.05946;
#X obj 481 218 pow;
#X obj 544 85 * -1;
#X obj 637 131 * 128;
#X obj 630 166 random 1;
#X obj 631 190 / 128;
#X obj 613 296 *;
#X obj 509 110 +;
#X obj 127 522 *~;
#X obj 228 564 outlet~;
#X obj 228 528 *~;
#X msg 295 356 0.5;
#X obj 295 384 +;
#X obj 768 317 inlet;
#X text 817 316 <-pan jitter;
#X obj 686 352 * 128;
#X obj 634 397 random 1;
#X obj 624 423 / 128;
#X obj 623 454 - 0.5;
#X obj 624 487 *;
#X text 513 -79 play a single grain on bang;
#X msg 281 450 1;
#X obj 301 481 -;
#X obj 628 219 * 48;
#X obj 5 185 phasor~;
#X obj 48 20 / 1000;
#X obj -4 43 pow -1;
#X msg 28 152 1;
#X obj 467 243 clip 0.125 4;
#X obj 628 244 - 24;
#X obj 140 413 *~;
#X obj 163 360 *~ 8;
#X obj 161 383 clip~ 0 1;
#X obj 287 415 t b f;
#X text 76 -142 bang starts grain;
#X obj 508 132 float;
#X obj -6 358 tabread4~ \$0grainsource1;
#X obj 483 159 t b f;
#X obj 649 101 float;
#X obj 633 30 t b f;
#X obj 571 64 float;
#X connect 0 0 19 0;
#X connect 0 0 20 0;
#X connect 0 0 5 0;
#X connect 0 0 33 0;
#X connect 0 0 40 0;
#X connect 0 0 45 0;
#X connect 0 0 56 0;
#X connect 0 0 64 0;
#X connect 1 0 16 1;
#X connect 2 0 13 1;
#X connect 3 0 22 0;
#X connect 5 0 3 0;
#X connect 5 0 6 0;
#X connect 6 0 3 0;
#X connect 7 0 65 0;
#X connect 8 0 7 0;
#X connect 9 0 6 0;
#X connect 10 0 24 0;
#X connect 12 0 20 1;
#X connect 13 0 10 0;
#X connect 13 0 8 1;
#X connect 15 0 19 1;
#X connect 16 0 7 1;
#X connect 19 0 16 0;
#X connect 20 0 13 0;
#X connect 21 0 60 0;
#X connect 22 0 23 0;
#X connect 23 0 21 0;
#X connect 24 0 9 0;
#X connect 24 0 54 0;
#X connect 25 0 68 0;
#X connect 25 0 69 0;
#X connect 26 0 35 1;
#X connect 26 0 67 0;
#X connect 29 0 30 0;
#X connect 30 0 57 0;
#X connect 31 0 36 1;
#X connect 32 0 33 1;
#X connect 33 0 34 0;
#X connect 34 0 52 0;
#X connect 35 0 36 0;
#X connect 36 0 64 0;
#X connect 37 0 4 0;
#X connect 39 0 38 0;
#X connect 40 0 41 0;
#X connect 41 0 37 1;
#X connect 41 0 62 0;
#X connect 42 0 44 0;
#X connect 42 0 48 1;
#X connect 44 0 45 1;
#X connect 45 0 46 0;
#X connect 46 0 47 0;
#X connect 47 0 48 0;
#X connect 48 0 41 1;
#X connect 50 0 51 0;
#X connect 51 0 39 1;
#X connect 52 0 58 0;
#X connect 53 0 8 0;
#X connect 54 0 55 0;
#X connect 55 0 53 0;
#X connect 56 0 53 1;
#X connect 57 0 24 1;
#X connect 58 0 35 0;
#X connect 59 0 37 0;
#X connect 59 0 39 0;
#X connect 60 0 61 0;
#X connect 61 0 59 1;
#X connect 62 0 50 0;
#X connect 62 1 51 1;
#X connect 64 0 66 0;
#X connect 65 0 59 0;
#X connect 66 0 29 0;
#X connect 66 1 30 1;
#X connect 67 0 32 0;
#X connect 68 0 67 0;
#X connect 68 0 33 0;
#X connect 68 0 69 0;
#X connect 68 1 69 1;
#X connect 69 0 31 0;
#X restore 262 317 pd grainplayer05;
#N canvas 0 0 1050 795 grainplayer06 0;
#X obj 35 -145 inlet;
#X obj 403 11 inlet;
#X obj 239 -124 inlet;
#X obj 59 142 line~;
#X obj 127 558 outlet~;
#X msg 48 48 0;
#X msg 65 104 1 472.057;
#X obj 14 305 +~;
#X obj 61 245 *~;
#X msg 87 64 set 1 \$1;
#X obj 125 -34 / 22.05;
#X text 282 -124 <-length;
#X obj 352 -107 inlet;
#X obj 193 -44 +;
#X text 398 -108 <-len jitter;
#X obj 472 33 inlet;
#X obj 133 230 +;
#X text 518 32 <-pos jitter;
#X text 445 11 <-pos;
#X obj 223 189 random 1;
#X obj 234 -77 random 1;
#X obj 163 338 cos~;
#X obj 163 286 -~ 0.5;
#X obj 163 310 *~ 0.5;
#X obj 105 -3 *;
#X obj 630 8 inlet;
#X obj 699 75 inlet;
#X text 672 8 <-transpose;
#X text 748 74 <-p jitter;
#X msg 446 190 1.05946;
#X obj 481 218 pow;
#X obj 544 85 * -1;
#X obj 637 131 * 128;
#X obj 630 166 random 1;
#X obj 631 190 / 128;
#X obj 613 296 *;
#X obj 509 110 +;
#X obj 127 522 *~;
#X obj 228 564 outlet~;
#X obj 228 528 *~;
#X msg 295 356 0.5;
#X obj 295 384 +;
#X obj 768 317 inlet;
#X text 817 316 <-pan jitter;
#X obj 686 352 * 128;
#X obj 634 397 random 1;
#X obj 624 423 / 128;
#X obj 623 454 - 0.5;
#X obj 624 487 *;
#X text 513 -79 play a single grain on bang;
#X msg 281 450 1;
#X obj 301 481 -;
#X obj 628 219 * 48;
#X obj 5 185 phasor~;
#X obj 48 20 / 1000;
#X obj -4 43 pow -1;
#X msg 28 152 1;
#X obj 467 243 clip 0.125 4;
#X obj 628 244 - 24;
#X obj 140 413 *~;
#X obj 163 360 *~ 8;
#X obj 161 383 clip~ 0 1;
#X obj 287 415 t b f;
#X text 76 -142 bang starts grain;
#X obj 508 132 float;
#X obj -6 358 tabread4~ \$0grainsource1;
#X obj 483 159 t b f;
#X obj 649 101 float;
#X obj 633 30 t b f;
#X obj 571 64 float;
#X connect 0 0 19 0;
#X connect 0 0 20 0;
#X connect 0 0 5 0;
#X connect 0 0 33 0;
#X connect 0 0 40 0;
#X connect 0 0 45 0;
#X connect 0 0 56 0;
#X connect 0 0 64 0;
#X connect 1 0 16 1;
#X connect 2 0 13 1;
#X connect 3 0 22 0;
#X connect 5 0 3 0;
#X connect 5 0 6 0;
#X connect 6 0 3 0;
#X connect 7 0 65 0;
#X connect 8 0 7 0;
#X connect 9 0 6 0;
#X connect 10 0 24 0;
#X connect 12 0 20 1;
#X connect 13 0 10 0;
#X connect 13 0 8 1;
#X connect 15 0 19 1;
#X connect 16 0 7 1;
#X connect 19 0 16 0;
#X connect 20 0 13 0;
#X connect 21 0 60 0;
#X connect 22 0 23 0;
#X connect 23 0 21 0;
#X connect 24 0 9 0;
#X connect 24 0 54 0;
#X connect 25 0 68 0;
#X connect 25 0 69 0;
#X connect 26 0 35 1;
#X connect 26 0 67 0;
#X connect 29 0 30 0;
#X connect 30 0 57 0;
#X connect 31 0 36 1;
#X connect 32 0 33 1;
#X connect 33 0 34 0;
#X connect 34 0 52 0;
#X connect 35 0 36 0;
#X connect 36 0 64 0;
#X connect 37 0 4 0;
#X connect 39 0 38 0;
#X connect 40 0 41 0;
#X connect 41 0 37 1;
#X connect 41 0 62 0;
#X connect 42 0 44 0;
#X connect 42 0 48 1;
#X connect 44 0 45 1;
#X connect 45 0 46 0;
#X connect 46 0 47 0;
#X connect 47 0 48 0;
#X connect 48 0 41 1;
#X connect 50 0 51 0;
#X connect 51 0 39 1;
#X connect 52 0 58 0;
#X connect 53 0 8 0;
#X connect 54 0 55 0;
#X connect 55 0 53 0;
#X connect 56 0 53 1;
#X connect 57 0 24 1;
#X connect 58 0 35 0;
#X connect 59 0 37 0;
#X connect 59 0 39 0;
#X connect 60 0 61 0;
#X connect 61 0 59 1;
#X connect 62 0 50 0;
#X connect 62 1 51 1;
#X connect 64 0 66 0;
#X connect 65 0 59 0;
#X connect 66 0 29 0;
#X connect 66 1 30 1;
#X connect 67 0 32 0;
#X connect 68 0 67 0;
#X connect 68 0 33 0;
#X connect 68 0 69 0;
#X connect 68 1 69 1;
#X connect 69 0 31 0;
#X restore 366 347 pd grainplayer06;
#N canvas 0 0 1050 795 grainplayer07 0;
#X obj 35 -145 inlet;
#X obj 403 11 inlet;
#X obj 239 -124 inlet;
#X obj 59 142 line~;
#X obj 127 558 outlet~;
#X msg 48 48 0;
#X msg 65 104 1 433.794;
#X obj 14 305 +~;
#X obj 61 245 *~;
#X msg 87 64 set 1 \$1;
#X obj 125 -34 / 22.05;
#X text 282 -124 <-length;
#X obj 352 -107 inlet;
#X obj 193 -44 +;
#X text 398 -108 <-len jitter;
#X obj 472 33 inlet;
#X obj 133 230 +;
#X text 518 32 <-pos jitter;
#X text 445 11 <-pos;
#X obj 223 189 random 1;
#X obj 234 -77 random 1;
#X obj 163 338 cos~;
#X obj 163 286 -~ 0.5;
#X obj 163 310 *~ 0.5;
#X obj 105 -3 *;
#X obj 630 8 inlet;
#X obj 699 75 inlet;
#X text 672 8 <-transpose;
#X text 748 74 <-p jitter;
#X msg 446 190 1.05946;
#X obj 481 218 pow;
#X obj 544 85 * -1;
#X obj 637 131 * 128;
#X obj 630 166 random 1;
#X obj 631 190 / 128;
#X obj 613 296 *;
#X obj 509 110 +;
#X obj 127 522 *~;
#X obj 228 564 outlet~;
#X obj 228 528 *~;
#X msg 295 356 0.5;
#X obj 295 384 +;
#X obj 768 317 inlet;
#X text 817 316 <-pan jitter;
#X obj 686 352 * 128;
#X obj 634 397 random 1;
#X obj 624 423 / 128;
#X obj 623 454 - 0.5;
#X obj 624 487 *;
#X text 513 -79 play a single grain on bang;
#X msg 281 450 1;
#X obj 301 481 -;
#X obj 628 219 * 48;
#X obj 5 185 phasor~;
#X obj 48 20 / 1000;
#X obj -4 43 pow -1;
#X msg 28 152 1;
#X obj 467 243 clip 0.125 4;
#X obj 628 244 - 24;
#X obj 140 413 *~;
#X obj 163 360 *~ 8;
#X obj 161 383 clip~ 0 1;
#X obj 287 415 t b f;
#X text 76 -142 bang starts grain;
#X obj 508 132 float;
#X obj -6 358 tabread4~ \$0grainsource1;
#X obj 483 159 t b f;
#X obj 649 101 float;
#X obj 633 30 t b f;
#X obj 571 64 float;
#X connect 0 0 19 0;
#X connect 0 0 20 0;
#X connect 0 0 5 0;
#X connect 0 0 33 0;
#X connect 0 0 40 0;
#X connect 0 0 45 0;
#X connect 0 0 56 0;
#X connect 0 0 64 0;
#X connect 1 0 16 1;
#X connect 2 0 13 1;
#X connect 3 0 22 0;
#X connect 5 0 3 0;
#X connect 5 0 6 0;
#X connect 6 0 3 0;
#X connect 7 0 65 0;
#X connect 8 0 7 0;
#X connect 9 0 6 0;
#X connect 10 0 24 0;
#X connect 12 0 20 1;
#X connect 13 0 10 0;
#X connect 13 0 8 1;
#X connect 15 0 19 1;
#X connect 16 0 7 1;
#X connect 19 0 16 0;
#X connect 20 0 13 0;
#X connect 21 0 60 0;
#X connect 22 0 23 0;
#X connect 23 0 21 0;
#X connect 24 0 9 0;
#X connect 24 0 54 0;
#X connect 25 0 68 0;
#X connect 25 0 69 0;
#X connect 26 0 35 1;
#X connect 26 0 67 0;
#X connect 29 0 30 0;
#X connect 30 0 57 0;
#X connect 31 0 36 1;
#X connect 32 0 33 1;
#X connect 33 0 34 0;
#X connect 34 0 52 0;
#X connect 35 0 36 0;
#X connect 36 0 64 0;
#X connect 37 0 4 0;
#X connect 39 0 38 0;
#X connect 40 0 41 0;
#X connect 41 0 37 1;
#X connect 41 0 62 0;
#X connect 42 0 44 0;
#X connect 42 0 48 1;
#X connect 44 0 45 1;
#X connect 45 0 46 0;
#X connect 46 0 47 0;
#X connect 47 0 48 0;
#X connect 48 0 41 1;
#X connect 50 0 51 0;
#X connect 51 0 39 1;
#X connect 52 0 58 0;
#X connect 53 0 8 0;
#X connect 54 0 55 0;
#X connect 55 0 53 0;
#X connect 56 0 53 1;
#X connect 57 0 24 1;
#X connect 58 0 35 0;
#X connect 59 0 37 0;
#X connect 59 0 39 0;
#X connect 60 0 61 0;
#X connect 61 0 59 1;
#X connect 62 0 50 0;
#X connect 62 1 51 1;
#X connect 64 0 66 0;
#X connect 65 0 59 0;
#X connect 66 0 29 0;
#X connect 66 1 30 1;
#X connect 67 0 32 0;
#X connect 68 0 67 0;
#X connect 68 0 33 0;
#X connect 68 0 69 0;
#X connect 68 1 69 1;
#X connect 69 0 31 0;
#X restore 425 383 pd grainplayer07;
#N canvas 0 0 1050 795 grainplayer08 0;
#X obj 35 -145 inlet;
#X obj 403 11 inlet;
#X obj 239 -124 inlet;
#X obj 59 142 line~;
#X obj 127 558 outlet~;
#X msg 48 48 0;
#X msg 65 104 1 801.26;
#X obj 14 305 +~;
#X obj 61 245 *~;
#X msg 87 64 set 1 \$1;
#X obj 125 -34 / 22.05;
#X text 282 -124 <-length;
#X obj 352 -107 inlet;
#X obj 193 -44 +;
#X text 398 -108 <-len jitter;
#X obj 472 33 inlet;
#X obj 133 230 +;
#X text 518 32 <-pos jitter;
#X text 445 11 <-pos;
#X obj 223 189 random 1;
#X obj 234 -77 random 1;
#X obj 163 338 cos~;
#X obj 163 286 -~ 0.5;
#X obj 163 310 *~ 0.5;
#X obj 105 -3 *;
#X obj 630 8 inlet;
#X obj 699 75 inlet;
#X text 672 8 <-transpose;
#X text 748 74 <-p jitter;
#X msg 446 190 1.05946;
#X obj 481 218 pow;
#X obj 544 85 * -1;
#X obj 637 131 * 128;
#X obj 630 166 random 1;
#X obj 631 190 / 128;
#X obj 613 296 *;
#X obj 509 110 +;
#X obj 127 522 *~;
#X obj 228 564 outlet~;
#X obj 228 528 *~;
#X msg 295 356 0.5;
#X obj 295 384 +;
#X obj 768 317 inlet;
#X text 817 316 <-pan jitter;
#X obj 686 352 * 128;
#X obj 634 397 random 1;
#X obj 624 423 / 128;
#X obj 623 454 - 0.5;
#X obj 624 487 *;
#X text 513 -79 play a single grain on bang;
#X msg 281 450 1;
#X obj 301 481 -;
#X obj 628 219 * 48;
#X obj 5 185 phasor~;
#X obj 48 20 / 1000;
#X obj -4 43 pow -1;
#X msg 28 152 1;
#X obj 467 243 clip 0.125 4;
#X obj 628 244 - 24;
#X obj 140 413 *~;
#X obj 163 360 *~ 8;
#X obj 161 383 clip~ 0 1;
#X obj 287 415 t b f;
#X text 76 -142 bang starts grain;
#X obj 508 132 float;
#X obj -6 358 tabread4~ \$0grainsource1;
#X obj 483 159 t b f;
#X obj 649 101 float;
#X obj 633 30 t b f;
#X obj 571 64 float;
#X connect 0 0 19 0;
#X connect 0 0 20 0;
#X connect 0 0 5 0;
#X connect 0 0 33 0;
#X connect 0 0 40 0;
#X connect 0 0 45 0;
#X connect 0 0 56 0;
#X connect 0 0 64 0;
#X connect 1 0 16 1;
#X connect 2 0 13 1;
#X connect 3 0 22 0;
#X connect 5 0 3 0;
#X connect 5 0 6 0;
#X connect 6 0 3 0;
#X connect 7 0 65 0;
#X connect 8 0 7 0;
#X connect 9 0 6 0;
#X connect 10 0 24 0;
#X connect 12 0 20 1;
#X connect 13 0 10 0;
#X connect 13 0 8 1;
#X connect 15 0 19 1;
#X connect 16 0 7 1;
#X connect 19 0 16 0;
#X connect 20 0 13 0;
#X connect 21 0 60 0;
#X connect 22 0 23 0;
#X connect 23 0 21 0;
#X connect 24 0 9 0;
#X connect 24 0 54 0;
#X connect 25 0 68 0;
#X connect 25 0 69 0;
#X connect 26 0 35 1;
#X connect 26 0 67 0;
#X connect 29 0 30 0;
#X connect 30 0 57 0;
#X connect 31 0 36 1;
#X connect 32 0 33 1;
#X connect 33 0 34 0;
#X connect 34 0 52 0;
#X connect 35 0 36 0;
#X connect 36 0 64 0;
#X connect 37 0 4 0;
#X connect 39 0 38 0;
#X connect 40 0 41 0;
#X connect 41 0 37 1;
#X connect 41 0 62 0;
#X connect 42 0 44 0;
#X connect 42 0 48 1;
#X connect 44 0 45 1;
#X connect 45 0 46 0;
#X connect 46 0 47 0;
#X connect 47 0 48 0;
#X connect 48 0 41 1;
#X connect 50 0 51 0;
#X connect 51 0 39 1;
#X connect 52 0 58 0;
#X connect 53 0 8 0;
#X connect 54 0 55 0;
#X connect 55 0 53 0;
#X connect 56 0 53 1;
#X connect 57 0 24 1;
#X connect 58 0 35 0;
#X connect 59 0 37 0;
#X connect 59 0 39 0;
#X connect 60 0 61 0;
#X connect 61 0 59 1;
#X connect 62 0 50 0;
#X connect 62 1 51 1;
#X connect 64 0 66 0;
#X connect 65 0 59 0;
#X connect 66 0 29 0;
#X connect 66 1 30 1;
#X connect 67 0 32 0;
#X connect 68 0 67 0;
#X connect 68 0 33 0;
#X connect 68 0 69 0;
#X connect 68 1 69 1;
#X connect 69 0 31 0;
#X restore 513 426 pd grainplayer08;
#N canvas 0 0 1050 795 grainplayer09 0;
#X obj 35 -145 inlet;
#X obj 403 11 inlet;
#X obj 239 -124 inlet;
#X obj 59 142 line~;
#X obj 127 558 outlet~;
#X msg 48 48 0;
#X msg 65 104 1 556.88;
#X obj 14 305 +~;
#X obj 61 245 *~;
#X msg 87 64 set 1 \$1;
#X obj 125 -34 / 22.05;
#X text 282 -124 <-length;
#X obj 352 -107 inlet;
#X obj 193 -44 +;
#X text 398 -108 <-len jitter;
#X obj 472 33 inlet;
#X obj 133 230 +;
#X text 518 32 <-pos jitter;
#X text 445 11 <-pos;
#X obj 223 189 random 1;
#X obj 234 -77 random 1;
#X obj 163 338 cos~;
#X obj 163 286 -~ 0.5;
#X obj 163 310 *~ 0.5;
#X obj 105 -3 *;
#X obj 630 8 inlet;
#X obj 699 75 inlet;
#X text 672 8 <-transpose;
#X text 748 74 <-p jitter;
#X msg 446 190 1.05946;
#X obj 481 218 pow;
#X obj 544 85 * -1;
#X obj 637 131 * 128;
#X obj 630 166 random 1;
#X obj 631 190 / 128;
#X obj 613 296 *;
#X obj 509 110 +;
#X obj 127 522 *~;
#X obj 228 564 outlet~;
#X obj 228 528 *~;
#X msg 295 356 0.5;
#X obj 295 384 +;
#X obj 768 317 inlet;
#X text 817 316 <-pan jitter;
#X obj 686 352 * 128;
#X obj 634 397 random 1;
#X obj 624 423 / 128;
#X obj 623 454 - 0.5;
#X obj 624 487 *;
#X text 513 -79 play a single grain on bang;
#X msg 281 450 1;
#X obj 301 481 -;
#X obj 628 219 * 48;
#X obj 5 185 phasor~;
#X obj 48 20 / 1000;
#X obj -4 43 pow -1;
#X msg 28 152 1;
#X obj 467 243 clip 0.125 4;
#X obj 628 244 - 24;
#X obj 140 413 *~;
#X obj 163 360 *~ 8;
#X obj 161 383 clip~ 0 1;
#X obj 287 415 t b f;
#X text 76 -142 bang starts grain;
#X obj 508 132 float;
#X obj -6 358 tabread4~ \$0grainsource1;
#X obj 483 159 t b f;
#X obj 649 101 float;
#X obj 633 30 t b f;
#X obj 571 64 float;
#X connect 0 0 19 0;
#X connect 0 0 20 0;
#X connect 0 0 5 0;
#X connect 0 0 33 0;
#X connect 0 0 40 0;
#X connect 0 0 45 0;
#X connect 0 0 56 0;
#X connect 0 0 64 0;
#X connect 1 0 16 1;
#X connect 2 0 13 1;
#X connect 3 0 22 0;
#X connect 5 0 3 0;
#X connect 5 0 6 0;
#X connect 6 0 3 0;
#X connect 7 0 65 0;
#X connect 8 0 7 0;
#X connect 9 0 6 0;
#X connect 10 0 24 0;
#X connect 12 0 20 1;
#X connect 13 0 10 0;
#X connect 13 0 8 1;
#X connect 15 0 19 1;
#X connect 16 0 7 1;
#X connect 19 0 16 0;
#X connect 20 0 13 0;
#X connect 21 0 60 0;
#X connect 22 0 23 0;
#X connect 23 0 21 0;
#X connect 24 0 9 0;
#X connect 24 0 54 0;
#X connect 25 0 68 0;
#X connect 25 0 69 0;
#X connect 26 0 35 1;
#X connect 26 0 67 0;
#X connect 29 0 30 0;
#X connect 30 0 57 0;
#X connect 31 0 36 1;
#X connect 32 0 33 1;
#X connect 33 0 34 0;
#X connect 34 0 52 0;
#X connect 35 0 36 0;
#X connect 36 0 64 0;
#X connect 37 0 4 0;
#X connect 39 0 38 0;
#X connect 40 0 41 0;
#X connect 41 0 37 1;
#X connect 41 0 62 0;
#X connect 42 0 44 0;
#X connect 42 0 48 1;
#X connect 44 0 45 1;
#X connect 45 0 46 0;
#X connect 46 0 47 0;
#X connect 47 0 48 0;
#X connect 48 0 41 1;
#X connect 50 0 51 0;
#X connect 51 0 39 1;
#X connect 52 0 58 0;
#X connect 53 0 8 0;
#X connect 54 0 55 0;
#X connect 55 0 53 0;
#X connect 56 0 53 1;
#X connect 57 0 24 1;
#X connect 58 0 35 0;
#X connect 59 0 37 0;
#X connect 59 0 39 0;
#X connect 60 0 61 0;
#X connect 61 0 59 1;
#X connect 62 0 50 0;
#X connect 62 1 51 1;
#X connect 64 0 66 0;
#X connect 65 0 59 0;
#X connect 66 0 29 0;
#X connect 66 1 30 1;
#X connect 67 0 32 0;
#X connect 68 0 67 0;
#X connect 68 0 33 0;
#X connect 68 0 69 0;
#X connect 68 1 69 1;
#X connect 69 0 31 0;
#X restore 586 462 pd grainplayer09;
#N canvas 0 0 1050 795 grainplayer10 0;
#X obj 35 -145 inlet;
#X obj 403 11 inlet;
#X obj 239 -124 inlet;
#X obj 59 142 line~;
#X obj 127 558 outlet~;
#X msg 48 48 0;
#X msg 65 104 1 600.377;
#X obj 14 305 +~;
#X obj 61 245 *~;
#X msg 87 64 set 1 \$1;
#X obj 125 -34 / 22.05;
#X text 282 -124 <-length;
#X obj 352 -107 inlet;
#X obj 193 -44 +;
#X text 398 -108 <-len jitter;
#X obj 472 33 inlet;
#X obj 133 230 +;
#X text 518 32 <-pos jitter;
#X text 445 11 <-pos;
#X obj 223 189 random 1;
#X obj 234 -77 random 1;
#X obj 163 338 cos~;
#X obj 163 286 -~ 0.5;
#X obj 163 310 *~ 0.5;
#X obj 105 -3 *;
#X obj 630 8 inlet;
#X obj 699 75 inlet;
#X text 672 8 <-transpose;
#X text 748 74 <-p jitter;
#X msg 446 190 1.05946;
#X obj 481 218 pow;
#X obj 544 85 * -1;
#X obj 637 131 * 128;
#X obj 630 166 random 1;
#X obj 631 190 / 128;
#X obj 613 296 *;
#X obj 509 110 +;
#X obj 127 522 *~;
#X obj 228 564 outlet~;
#X obj 228 528 *~;
#X msg 295 356 0.5;
#X obj 295 384 +;
#X obj 768 317 inlet;
#X text 817 316 <-pan jitter;
#X obj 686 352 * 128;
#X obj 634 397 random 1;
#X obj 624 423 / 128;
#X obj 623 454 - 0.5;
#X obj 624 487 *;
#X text 513 -79 play a single grain on bang;
#X msg 281 450 1;
#X obj 301 481 -;
#X obj 628 219 * 48;
#X obj 5 185 phasor~;
#X obj 48 20 / 1000;
#X obj -4 43 pow -1;
#X msg 28 152 1;
#X obj 467 243 clip 0.125 4;
#X obj 628 244 - 24;
#X obj 140 413 *~;
#X obj 163 360 *~ 8;
#X obj 161 383 clip~ 0 1;
#X obj 287 415 t b f;
#X text 76 -142 bang starts grain;
#X obj 508 132 float;
#X obj -6 358 tabread4~ \$0grainsource1;
#X obj 483 159 t b f;
#X obj 649 101 float;
#X obj 633 30 t b f;
#X obj 571 64 float;
#X connect 0 0 19 0;
#X connect 0 0 20 0;
#X connect 0 0 5 0;
#X connect 0 0 33 0;
#X connect 0 0 40 0;
#X connect 0 0 45 0;
#X connect 0 0 56 0;
#X connect 0 0 64 0;
#X connect 1 0 16 1;
#X connect 2 0 13 1;
#X connect 3 0 22 0;
#X connect 5 0 3 0;
#X connect 5 0 6 0;
#X connect 6 0 3 0;
#X connect 7 0 65 0;
#X connect 8 0 7 0;
#X connect 9 0 6 0;
#X connect 10 0 24 0;
#X connect 12 0 20 1;
#X connect 13 0 10 0;
#X connect 13 0 8 1;
#X connect 15 0 19 1;
#X connect 16 0 7 1;
#X connect 19 0 16 0;
#X connect 20 0 13 0;
#X connect 21 0 60 0;
#X connect 22 0 23 0;
#X connect 23 0 21 0;
#X connect 24 0 9 0;
#X connect 24 0 54 0;
#X connect 25 0 68 0;
#X connect 25 0 69 0;
#X connect 26 0 35 1;
#X connect 26 0 67 0;
#X connect 29 0 30 0;
#X connect 30 0 57 0;
#X connect 31 0 36 1;
#X connect 32 0 33 1;
#X connect 33 0 34 0;
#X connect 34 0 52 0;
#X connect 35 0 36 0;
#X connect 36 0 64 0;
#X connect 37 0 4 0;
#X connect 39 0 38 0;
#X connect 40 0 41 0;
#X connect 41 0 37 1;
#X connect 41 0 62 0;
#X connect 42 0 44 0;
#X connect 42 0 48 1;
#X connect 44 0 45 1;
#X connect 45 0 46 0;
#X connect 46 0 47 0;
#X connect 47 0 48 0;
#X connect 48 0 41 1;
#X connect 50 0 51 0;
#X connect 51 0 39 1;
#X connect 52 0 58 0;
#X connect 53 0 8 0;
#X connect 54 0 55 0;
#X connect 55 0 53 0;
#X connect 56 0 53 1;
#X connect 57 0 24 1;
#X connect 58 0 35 0;
#X connect 59 0 37 0;
#X connect 59 0 39 0;
#X connect 60 0 61 0;
#X connect 61 0 59 1;
#X connect 62 0 50 0;
#X connect 62 1 51 1;
#X connect 64 0 66 0;
#X connect 65 0 59 0;
#X connect 66 0 29 0;
#X connect 66 1 30 1;
#X connect 67 0 32 0;
#X connect 68 0 67 0;
#X connect 68 0 33 0;
#X connect 68 0 69 0;
#X connect 68 1 69 1;
#X connect 69 0 31 0;
#X restore 648 496 pd grainplayer10;
#N canvas 0 0 1050 795 grainplayer11 0;
#X obj 35 -145 inlet;
#X obj 403 11 inlet;
#X obj 239 -124 inlet;
#X obj 59 142 line~;
#X obj 127 558 outlet~;
#X msg 48 48 0;
#X msg 65 104 1 530.323;
#X obj 14 305 +~;
#X obj 61 245 *~;
#X msg 87 64 set 1 \$1;
#X obj 125 -34 / 22.05;
#X text 282 -124 <-length;
#X obj 352 -107 inlet;
#X obj 193 -44 +;
#X text 398 -108 <-len jitter;
#X obj 472 33 inlet;
#X obj 133 230 +;
#X text 518 32 <-pos jitter;
#X text 445 11 <-pos;
#X obj 223 189 random 1;
#X obj 234 -77 random 1;
#X obj 163 338 cos~;
#X obj 163 286 -~ 0.5;
#X obj 163 310 *~ 0.5;
#X obj 105 -3 *;
#X obj 630 8 inlet;
#X obj 699 75 inlet;
#X text 672 8 <-transpose;
#X text 748 74 <-p jitter;
#X msg 446 190 1.05946;
#X obj 481 218 pow;
#X obj 544 85 * -1;
#X obj 637 131 * 128;
#X obj 630 166 random 1;
#X obj 631 190 / 128;
#X obj 613 296 *;
#X obj 509 110 +;
#X obj 127 522 *~;
#X obj 228 564 outlet~;
#X obj 228 528 *~;
#X msg 295 356 0.5;
#X obj 295 384 +;
#X obj 768 317 inlet;
#X text 817 316 <-pan jitter;
#X obj 686 352 * 128;
#X obj 634 397 random 1;
#X obj 624 423 / 128;
#X obj 623 454 - 0.5;
#X obj 624 487 *;
#X text 513 -79 play a single grain on bang;
#X msg 281 450 1;
#X obj 301 481 -;
#X obj 628 219 * 48;
#X obj 5 185 phasor~;
#X obj 48 20 / 1000;
#X obj -4 43 pow -1;
#X msg 28 152 1;
#X obj 467 243 clip 0.125 4;
#X obj 628 244 - 24;
#X obj 140 413 *~;
#X obj 163 360 *~ 8;
#X obj 161 383 clip~ 0 1;
#X obj 287 415 t b f;
#X text 76 -142 bang starts grain;
#X obj 508 132 float;
#X obj -6 358 tabread4~ \$0grainsource1;
#X obj 483 159 t b f;
#X obj 649 101 float;
#X obj 633 30 t b f;
#X obj 571 64 float;
#X connect 0 0 19 0;
#X connect 0 0 20 0;
#X connect 0 0 5 0;
#X connect 0 0 33 0;
#X connect 0 0 40 0;
#X connect 0 0 45 0;
#X connect 0 0 56 0;
#X connect 0 0 64 0;
#X connect 1 0 16 1;
#X connect 2 0 13 1;
#X connect 3 0 22 0;
#X connect 5 0 3 0;
#X connect 5 0 6 0;
#X connect 6 0 3 0;
#X connect 7 0 65 0;
#X connect 8 0 7 0;
#X connect 9 0 6 0;
#X connect 10 0 24 0;
#X connect 12 0 20 1;
#X connect 13 0 10 0;
#X connect 13 0 8 1;
#X connect 15 0 19 1;
#X connect 16 0 7 1;
#X connect 19 0 16 0;
#X connect 20 0 13 0;
#X connect 21 0 60 0;
#X connect 22 0 23 0;
#X connect 23 0 21 0;
#X connect 24 0 9 0;
#X connect 24 0 54 0;
#X connect 25 0 68 0;
#X connect 25 0 69 0;
#X connect 26 0 35 1;
#X connect 26 0 67 0;
#X connect 29 0 30 0;
#X connect 30 0 57 0;
#X connect 31 0 36 1;
#X connect 32 0 33 1;
#X connect 33 0 34 0;
#X connect 34 0 52 0;
#X connect 35 0 36 0;
#X connect 36 0 64 0;
#X connect 37 0 4 0;
#X connect 39 0 38 0;
#X connect 40 0 41 0;
#X connect 41 0 37 1;
#X connect 41 0 62 0;
#X connect 42 0 44 0;
#X connect 42 0 48 1;
#X connect 44 0 45 1;
#X connect 45 0 46 0;
#X connect 46 0 47 0;
#X connect 47 0 48 0;
#X connect 48 0 41 1;
#X connect 50 0 51 0;
#X connect 51 0 39 1;
#X connect 52 0 58 0;
#X connect 53 0 8 0;
#X connect 54 0 55 0;
#X connect 55 0 53 0;
#X connect 56 0 53 1;
#X connect 57 0 24 1;
#X connect 58 0 35 0;
#X connect 59 0 37 0;
#X connect 59 0 39 0;
#X connect 60 0 61 0;
#X connect 61 0 59 1;
#X connect 62 0 50 0;
#X connect 62 1 51 1;
#X connect 64 0 66 0;
#X connect 65 0 59 0;
#X connect 66 0 29 0;
#X connect 66 1 30 1;
#X connect 67 0 32 0;
#X connect 68 0 67 0;
#X connect 68 0 33 0;
#X connect 68 0 69 0;
#X connect 68 1 69 1;
#X connect 69 0 31 0;
#X restore 679 538 pd grainplayer11;
#N canvas 0 0 1050 795 grainplayer12 0;
#X obj 35 -145 inlet;
#X obj 403 11 inlet;
#X obj 239 -124 inlet;
#X obj 59 142 line~;
#X obj 127 558 outlet~;
#X msg 48 48 0;
#X msg 65 104 1 670.213;
#X obj 14 305 +~;
#X obj 61 245 *~;
#X msg 87 64 set 1 \$1;
#X obj 125 -34 / 22.05;
#X text 282 -124 <-length;
#X obj 352 -107 inlet;
#X obj 193 -44 +;
#X text 398 -108 <-len jitter;
#X obj 472 33 inlet;
#X obj 133 230 +;
#X text 518 32 <-pos jitter;
#X text 445 11 <-pos;
#X obj 223 189 random 1;
#X obj 234 -77 random 1;
#X obj 163 338 cos~;
#X obj 163 286 -~ 0.5;
#X obj 163 310 *~ 0.5;
#X obj 105 -3 *;
#X obj 630 8 inlet;
#X obj 699 75 inlet;
#X text 672 8 <-transpose;
#X text 748 74 <-p jitter;
#X msg 446 190 1.05946;
#X obj 481 218 pow;
#X obj 544 85 * -1;
#X obj 637 131 * 128;
#X obj 630 166 random 1;
#X obj 631 190 / 128;
#X obj 613 296 *;
#X obj 509 110 +;
#X obj 127 522 *~;
#X obj 228 564 outlet~;
#X obj 228 528 *~;
#X msg 295 356 0.5;
#X obj 295 384 +;
#X obj 768 317 inlet;
#X text 817 316 <-pan jitter;
#X obj 686 352 * 128;
#X obj 634 397 random 1;
#X obj 624 423 / 128;
#X obj 623 454 - 0.5;
#X obj 624 487 *;
#X text 513 -79 play a single grain on bang;
#X msg 281 450 1;
#X obj 301 481 -;
#X obj 628 219 * 48;
#X obj 5 185 phasor~;
#X obj 48 20 / 1000;
#X obj -4 43 pow -1;
#X msg 28 152 1;
#X obj 467 243 clip 0.125 4;
#X obj 628 244 - 24;
#X obj 140 413 *~;
#X obj 163 360 *~ 8;
#X obj 161 383 clip~ 0 1;
#X obj 287 415 t b f;
#X text 76 -142 bang starts grain;
#X obj 508 132 float;
#X obj -27 359 tabread4~ \$0grainsource1;
#X obj 483 159 t b f;
#X obj 649 101 float;
#X obj 633 30 t b f;
#X obj 571 64 float;
#X connect 0 0 19 0;
#X connect 0 0 20 0;
#X connect 0 0 5 0;
#X connect 0 0 33 0;
#X connect 0 0 40 0;
#X connect 0 0 45 0;
#X connect 0 0 56 0;
#X connect 0 0 64 0;
#X connect 1 0 16 1;
#X connect 2 0 13 1;
#X connect 3 0 22 0;
#X connect 5 0 3 0;
#X connect 5 0 6 0;
#X connect 6 0 3 0;
#X connect 7 0 65 0;
#X connect 8 0 7 0;
#X connect 9 0 6 0;
#X connect 10 0 24 0;
#X connect 12 0 20 1;
#X connect 13 0 10 0;
#X connect 13 0 8 1;
#X connect 15 0 19 1;
#X connect 16 0 7 1;
#X connect 19 0 16 0;
#X connect 20 0 13 0;
#X connect 21 0 60 0;
#X connect 22 0 23 0;
#X connect 23 0 21 0;
#X connect 24 0 9 0;
#X connect 24 0 54 0;
#X connect 25 0 68 0;
#X connect 25 0 69 0;
#X connect 26 0 35 1;
#X connect 26 0 67 0;
#X connect 29 0 30 0;
#X connect 30 0 57 0;
#X connect 31 0 36 1;
#X connect 32 0 33 1;
#X connect 33 0 34 0;
#X connect 34 0 52 0;
#X connect 35 0 36 0;
#X connect 36 0 64 0;
#X connect 37 0 4 0;
#X connect 39 0 38 0;
#X connect 40 0 41 0;
#X connect 41 0 37 1;
#X connect 41 0 62 0;
#X connect 42 0 44 0;
#X connect 42 0 48 1;
#X connect 44 0 45 1;
#X connect 45 0 46 0;
#X connect 46 0 47 0;
#X connect 47 0 48 0;
#X connect 48 0 41 1;
#X connect 50 0 51 0;
#X connect 51 0 39 1;
#X connect 52 0 58 0;
#X connect 53 0 8 0;
#X connect 54 0 55 0;
#X connect 55 0 53 0;
#X connect 56 0 53 1;
#X connect 57 0 24 1;
#X connect 58 0 35 0;
#X connect 59 0 37 0;
#X connect 59 0 39 0;
#X connect 60 0 61 0;
#X connect 61 0 59 1;
#X connect 62 0 50 0;
#X connect 62 1 51 1;
#X connect 64 0 66 0;
#X connect 65 0 59 0;
#X connect 66 0 29 0;
#X connect 66 1 30 1;
#X connect 67 0 32 0;
#X connect 68 0 67 0;
#X connect 68 0 33 0;
#X connect 68 0 69 0;
#X connect 68 1 69 1;
#X connect 69 0 31 0;
#X restore 721 566 pd grainplayer12;
#X obj -83 49 mod 12;
#X text 213 38 12 grains at the same time should be enough for everyone
;
#X obj -161 82 select 0 1 2 3 4 5 6 7 8 9 10 11;
#X connect 0 0 11 0;
#X connect 1 0 21 3;
#X connect 1 0 22 3;
#X connect 1 0 23 3;
#X connect 1 0 24 3;
#X connect 1 0 25 3;
#X connect 1 0 26 3;
#X connect 1 0 27 3;
#X connect 1 0 28 3;
#X connect 1 0 29 3;
#X connect 1 0 30 3;
#X connect 1 0 31 3;
#X connect 1 0 32 3;
#X connect 2 0 21 1;
#X connect 2 0 22 1;
#X connect 2 0 23 1;
#X connect 2 0 24 1;
#X connect 2 0 25 1;
#X connect 2 0 26 1;
#X connect 2 0 27 1;
#X connect 2 0 28 1;
#X connect 2 0 29 1;
#X connect 2 0 30 1;
#X connect 2 0 31 1;
#X connect 2 0 32 1;
#X connect 5 0 21 2;
#X connect 5 0 22 2;
#X connect 5 0 23 2;
#X connect 5 0 24 2;
#X connect 5 0 25 2;
#X connect 5 0 26 2;
#X connect 5 0 27 2;
#X connect 5 0 28 2;
#X connect 5 0 29 2;
#X connect 5 0 30 2;
#X connect 5 0 31 2;
#X connect 5 0 32 2;
#X connect 7 0 21 4;
#X connect 7 0 22 4;
#X connect 7 0 23 4;
#X connect 7 0 24 4;
#X connect 7 0 25 4;
#X connect 7 0 26 4;
#X connect 7 0 27 4;
#X connect 7 0 28 4;
#X connect 7 0 29 4;
#X connect 7 0 30 4;
#X connect 7 0 31 4;
#X connect 7 0 32 4;
#X connect 10 0 11 1;
#X connect 10 0 33 0;
#X connect 11 0 10 0;
#X connect 12 0 21 5;
#X connect 12 0 22 5;
#X connect 12 0 23 5;
#X connect 12 0 24 5;
#X connect 12 0 25 5;
#X connect 12 0 26 5;
#X connect 12 0 27 5;
#X connect 12 0 28 5;
#X connect 12 0 29 5;
#X connect 12 0 30 5;
#X connect 12 0 31 5;
#X connect 12 0 32 5;
#X connect 13 0 21 6;
#X connect 13 0 22 6;
#X connect 13 0 23 6;
#X connect 13 0 24 6;
#X connect 13 0 25 6;
#X connect 13 0 26 6;
#X connect 13 0 27 6;
#X connect 13 0 28 6;
#X connect 13 0 29 6;
#X connect 13 0 30 6;
#X connect 13 0 31 6;
#X connect 13 0 32 6;
#X connect 16 0 21 7;
#X connect 16 0 22 7;
#X connect 16 0 23 7;
#X connect 16 0 24 7;
#X connect 16 0 25 7;
#X connect 16 0 26 7;
#X connect 16 0 27 7;
#X connect 16 0 28 7;
#X connect 16 0 29 7;
#X connect 16 0 30 7;
#X connect 16 0 31 7;
#X connect 16 0 32 7;
#X connect 21 0 3 0;
#X connect 21 1 18 0;
#X connect 22 0 3 0;
#X connect 22 1 18 0;
#X connect 23 0 3 0;
#X connect 23 1 18 0;
#X connect 24 0 3 0;
#X connect 24 1 18 0;
#X connect 25 0 3 0;
#X connect 25 1 18 0;
#X connect 26 0 3 0;
#X connect 26 1 18 0;
#X connect 27 0 3 0;
#X connect 27 1 18 0;
#X connect 28 0 3 0;
#X connect 28 1 18 0;
#X connect 29 0 3 0;
#X connect 29 1 18 0;
#X connect 30 0 3 0;
#X connect 30 1 18 0;
#X connect 31 0 3 0;
#X connect 31 1 18 0;
#X connect 32 0 3 0;
#X connect 32 1 18 0;
#X connect 33 0 35 0;
#X connect 35 0 21 0;
#X connect 35 1 22 0;
#X connect 35 2 23 0;
#X connect 35 3 24 0;
#X connect 35 4 25 0;
#X connect 35 5 26 0;
#X connect 35 6 27 0;
#X connect 35 7 28 0;
#X connect 35 8 29 0;
#X connect 35 9 30 0;
#X connect 35 10 31 0;
#X connect 35 11 32 0;
#X restore -1 594 pd particles12;
#X obj -269 448 * 70;
#X obj -157 459 * 70;
#X obj -43 362 / 8;
#X connect 0 0 3 0;
#X connect 0 0 7 0;
#X connect 1 0 27 3;
#X connect 2 0 27 1;
#X connect 3 0 6 0;
#X connect 3 0 27 0;
#X connect 4 0 3 1;
#X connect 5 0 4 0;
#X connect 6 0 5 0;
#X connect 7 0 27 2;
#X connect 7 0 27 4;
#X connect 10 0 1 0;
#X connect 12 0 28 0;
#X connect 14 0 29 0;
#X connect 16 0 2 0;
#X connect 18 0 27 5;
#X connect 19 0 27 6;
#X connect 22 0 27 7;
#X connect 24 0 26 0;
#X connect 26 0 0 0;
#X connect 26 0 1 1;
#X connect 26 0 30 0;
#X connect 27 0 8 0;
#X connect 27 1 9 0;
#X connect 28 0 4 1;
#X connect 29 0 5 1;
#X connect 30 0 2 1;
#X coords 0 0 1 1 200 40 0;
#X restore 716 744 pd particlecloud;
#X obj -67 396 delwrite~ \$0clxdl1 5000;
#X obj -62 418 delread~ \$0clxdl1;
#X obj 75 445 delwrite~ \$0clxdl2 5000;
#X obj 85 468 delread~ \$0clxdl2;
#X obj 145 504 delwrite~ \$0clxdl3 5000;
#X obj 154 527 delread~ \$0clxdl3;
#X obj 176 578 delwrite~ \$0clxdl4 5000;
#X obj 185 601 delread~ \$0clxdl4;
#N canvas 217 407 665 482 fix-pan-mix4 0;
#X obj 41 38 inlet~;
#X obj 109 41 inlet~;
#X obj 55 225 outlet~;
#X obj 180 226 outlet~;
#X obj 201 37 inlet~;
#X obj 293 42 inlet~;
#N canvas 0 0 450 300 pan1 0;
#X obj 120 15 inlet;
#X obj 297 51 inlet~;
#X obj 256 225 outlet~;
#X obj 336 218 outlet~;
#X obj 251 149 *~;
#X obj 323 154 *~;
#X obj 276 122 + 1;
#X obj 335 113 * -1;
#X obj 208 75 * -1;
#X obj 160 42 clip 0 1;
#X connect 0 0 9 0;
#X connect 1 0 4 0;
#X connect 1 0 5 1;
#X connect 4 0 2 0;
#X connect 5 0 3 0;
#X connect 6 0 4 1;
#X connect 7 0 5 0;
#X connect 8 0 6 0;
#X connect 8 0 7 0;
#X connect 9 0 8 0;
#X restore 22 105 pd pan1;
#X msg 9 79 0.375;
#N canvas 0 0 450 300 pan1 0;
#X obj 120 15 inlet;
#X obj 297 51 inlet~;
#X obj 256 225 outlet~;
#X obj 336 218 outlet~;
#X obj 251 149 *~;
#X obj 323 154 *~;
#X obj 276 122 + 1;
#X obj 335 113 * -1;
#X obj 208 75 * -1;
#X obj 160 42 clip 0 1;
#X connect 0 0 9 0;
#X connect 1 0 4 0;
#X connect 1 0 5 1;
#X connect 4 0 2 0;
#X connect 5 0 3 0;
#X connect 6 0 4 1;
#X connect 7 0 5 0;
#X connect 8 0 6 0;
#X connect 8 0 7 0;
#X connect 9 0 8 0;
#X restore 102 110 pd pan1;
#X msg 91 78 0.495;
#N canvas 0 0 450 300 pan1 0;
#X obj 120 15 inlet;
#X obj 297 51 inlet~;
#X obj 256 225 outlet~;
#X obj 336 218 outlet~;
#X obj 251 149 *~;
#X obj 323 154 *~;
#X obj 276 122 + 1;
#X obj 335 113 * -1;
#X obj 208 75 * -1;
#X obj 160 42 clip 0 1;
#X connect 0 0 9 0;
#X connect 1 0 4 0;
#X connect 1 0 5 1;
#X connect 4 0 2 0;
#X connect 5 0 3 0;
#X connect 6 0 4 1;
#X connect 7 0 5 0;
#X connect 8 0 6 0;
#X connect 8 0 7 0;
#X connect 9 0 8 0;
#X restore 183 101 pd pan1;
#X msg 170 75 0.6025;
#N canvas 0 0 450 300 pan1 0;
#X obj 120 15 inlet;
#X obj 297 51 inlet~;
#X obj 256 225 outlet~;
#X obj 336 218 outlet~;
#X obj 251 149 *~;
#X obj 323 154 *~;
#X obj 276 122 + 1;
#X obj 335 113 * -1;
#X obj 208 75 * -1;
#X obj 160 42 clip 0 1;
#X connect 0 0 9 0;
#X connect 1 0 4 0;
#X connect 1 0 5 1;
#X connect 4 0 2 0;
#X connect 5 0 3 0;
#X connect 6 0 4 1;
#X connect 7 0 5 0;
#X connect 8 0 6 0;
#X connect 8 0 7 0;
#X connect 9 0 8 0;
#X restore 261 112 pd pan1;
#X msg 260 78 0.445;
#X obj 179 -171 t b b;
#X obj -11 -82 random 100;
#X obj -8 -61 / 400;
#X msg -6 -4 set \$1;
#X obj -7 -36 + 0.375;
#X obj 87 -80 random 100;
#X obj 90 -59 / 400;
#X msg 92 -2 set \$1;
#X obj 91 -34 + 0.375;
#X obj 178 -72 random 100;
#X obj 181 -51 / 400;
#X msg 183 6 set \$1;
#X obj 182 -26 + 0.375;
#X obj 273 -68 random 100;
#X obj 276 -47 / 400;
#X msg 278 10 set \$1;
#X obj 277 -22 + 0.375;
#X obj 174 -212 loadbang;
#X connect 0 0 6 1;
#X connect 1 0 8 1;
#X connect 4 0 10 1;
#X connect 5 0 12 1;
#X connect 6 0 2 0;
#X connect 6 1 3 0;
#X connect 7 0 6 0;
#X connect 8 0 2 0;
#X connect 8 1 3 0;
#X connect 9 0 8 0;
#X connect 10 0 2 0;
#X connect 10 1 3 0;
#X connect 11 0 10 0;
#X connect 12 0 2 0;
#X connect 12 1 3 0;
#X connect 13 0 12 0;
#X connect 14 0 7 0;
#X connect 14 0 9 0;
#X connect 14 0 11 0;
#X connect 14 0 13 0;
#X connect 14 1 15 0;
#X connect 14 1 19 0;
#X connect 14 1 23 0;
#X connect 14 1 27 0;
#X connect 15 0 16 0;
#X connect 16 0 18 0;
#X connect 17 0 7 0;
#X connect 18 0 17 0;
#X connect 19 0 20 0;
#X connect 20 0 22 0;
#X connect 21 0 9 0;
#X connect 22 0 21 0;
#X connect 23 0 24 0;
#X connect 24 0 26 0;
#X connect 25 0 11 0;
#X connect 26 0 25 0;
#X connect 27 0 28 0;
#X connect 28 0 30 0;
#X connect 29 0 13 0;
#X connect 30 0 29 0;
#X connect 31 0 14 0;
#X restore 217 734 pd fix-pan-mix4;
#X obj 491 291 metro;
#X obj 464 225 * 10000;
#X obj 473 257 t b f;
#X obj 443 804 metro;
#X obj 447 780 t b f;
#N canvas 12 114 991 632 4tap-delay 0;
#X obj 636 784 outlet~;
#X obj 787 789 outlet~;
#X obj 13 484 inlet~;
#X obj 313 175 inlet;
#X floatatom 328 319 5 0 0 0 - - -;
#X obj 127 114 hradio 12 1 1 8 empty empty 1/16 -25 6 0 8 -262144 -1
-1 3;
#X obj 327 338 pow -1;
#X obj 327 361 / 4;
#X obj 327 385 *;
#X obj 351 412 * 60000;
#X obj 114 630 +~;
#X obj 233 811 *~;
#X obj 136 338 hsl 96 8 0 0.95 0 1 empty empty fb -16 5 0 8 -262144
-1 -1 3500 1;
#X text 362 175 <- bpm in;
#X obj 525 179 loadbang;
#X floatatom 393 306 5 0 0 0 - - -;
#X obj 286 276 t b b;
#X text 269 112 beatsynced multitap-delay with feedback;
#X text 132 654 <- unique name for delaylines! ->;
#X obj 131 130 hsl 96 8 1 0.01 0 1 empty empty fn -16 5 0 8 -262144
-1 -1 300 1;
#X obj 394 327 +;
#X obj 358 502 *~;
#X obj 366 472 dbtorms;
#X obj 371 439 / 1.27;
#X obj 160 153 hsl 41 8 0 -1 0 1 empty empty pan -21 4 0 8 -262144
-1 -1 3680 1;
#X obj 355 559 *~;
#X obj 412 558 *~;
#X obj 380 532 + 1;
#X obj 412 530 * -1;
#X obj 131 142 hsl 96 8 0 127 0 1 empty empty lv -16 5 0 8 -262144
-1 -1 8200 1;
#X obj 712 757 +~;
#X floatatom 489 296 5 0 0 0 - - -;
#X obj 128 169 hradio 12 1 1 8 empty empty 1/16 -25 6 0 8 -262144 -1
-1 1;
#X obj 488 315 pow -1;
#X obj 488 338 / 4;
#X obj 488 362 *;
#X obj 512 389 * 60000;
#X floatatom 554 283 5 0 0 0 - - -;
#X obj 447 253 t b b;
#X obj 132 185 hsl 96 8 1 0.01 0 1 empty empty fn -16 5 0 8 -262144
-1 -1 1000 1;
#X obj 555 304 +;
#X obj 161 208 hsl 41 8 0 -1 0 1 empty empty pan -21 4 0 8 -262144
-1 -1 440 1;
#X obj 132 197 hsl 96 8 0 127 0 1 empty empty lv -16 5 0 8 -262144
-1 -1 8800 1;
#X obj 504 488 *~;
#X obj 511 457 dbtorms;
#X obj 521 424 / 1.27;
#X obj 490 545 *~;
#X obj 547 544 *~;
#X obj 506 523 + 1;
#X obj 547 518 * -1;
#X floatatom 638 290 5 0 0 0 - - -;
#X obj 129 226 hradio 12 1 1 8 empty empty 1/16 -25 6 0 8 -262144 -1
-1 4;
#X obj 637 309 pow -1;
#X obj 637 332 / 4;
#X obj 637 356 *;
#X obj 661 383 * 60000;
#X floatatom 703 277 5 0 0 0 - - -;
#X obj 596 247 t b b;
#X obj 133 242 hsl 96 8 1 0.01 0 1 empty empty fn -16 5 0 8 -262144
-1 -1 1400 1;
#X obj 704 298 +;
#X obj 162 265 hsl 41 8 0 -1 0 1 empty empty pan -21 4 0 8 -262144
-1 -1 3280 1;
#X obj 133 254 hsl 96 8 0 127 0 1 empty empty lv -16 5 0 8 -262144
-1 -1 8800 1;
#X obj 653 482 *~;
#X obj 660 451 dbtorms;
#X obj 670 418 / 1.27;
#X obj 639 539 *~;
#X obj 696 538 *~;
#X obj 655 517 + 1;
#X obj 696 509 * -1;
#X floatatom 778 289 5 0 0 0 - - -;
#X obj 131 283 hradio 12 1 1 8 empty empty 1/16 -25 6 0 8 -262144 -1
-1 2;
#X obj 777 308 pow -1;
#X obj 777 331 / 4;
#X obj 777 355 *;
#X obj 801 382 * 60000;
#X floatatom 843 276 5 0 0 0 - - -;
#X obj 736 246 t b b;
#X obj 135 299 hsl 96 8 1 0.01 0 1 empty empty fn -16 5 0 8 -262144
-1 -1 1800 1;
#X obj 844 297 +;
#X obj 164 322 hsl 41 8 0 -1 0 1 empty empty pan -21 4 0 8 -262144
-1 -1 600 1;
#X obj 135 311 hsl 96 8 0 127 0 1 empty empty lv -16 5 0 8 -262144
-1 -1 8900 1;
#X obj 797 481 *~;
#X obj 800 450 dbtorms;
#X obj 810 417 / 1.27;
#X obj 779 538 *~;
#X obj 836 537 *~;
#X obj 795 516 + 1;
#X obj 830 510 * -1;
#X obj 31 78 random 100;
#X obj 44 107 * -0.01;
#X obj 78 12 inlet;
#X obj 17 139 random 100;
#X obj 17 166 * -0.01;
#X obj 9 212 random 100;
#X obj 8 242 * -0.01;
#X obj 11 282 random 100;
#X obj 15 308 * -0.01;
#X obj 370 656 delread~ \$0bmtdl1;
#X obj 363 699 delread~ \$0bmtdl2;
#X obj 364 736 delread~ \$0bmtdl3;
#X obj 365 773 delread~ \$0bmtdl4;
#X obj -20 655 delwrite~ \$0bmtdl1 5000;
#X obj -23 701 delwrite~ \$0bmtdl2 5000;
#X obj -24 737 delwrite~ \$0bmtdl3 5000;
#X obj -26 774 delwrite~ \$0bmtdl4 5000;
#X connect 2 0 10 0;
#X connect 3 0 4 0;
#X connect 3 0 31 0;
#X connect 3 0 50 0;
#X connect 3 0 69 0;
#X connect 4 0 6 0;
#X connect 5 0 15 0;
#X connect 5 0 16 0;
#X connect 6 0 7 0;
#X connect 7 0 8 0;
#X connect 8 0 9 0;
#X connect 9 0 97 0;
#X connect 10 0 101 0;
#X connect 11 0 10 1;
#X connect 12 0 11 1;
#X connect 14 0 16 0;
#X connect 14 0 38 0;
#X connect 14 0 57 0;
#X connect 14 0 76 0;
#X connect 15 0 20 0;
#X connect 16 0 4 0;
#X connect 16 1 15 0;
#X connect 19 0 20 1;
#X connect 19 0 16 0;
#X connect 20 0 8 1;
#X connect 21 0 25 0;
#X connect 21 0 26 1;
#X connect 22 0 21 0;
#X connect 23 0 22 0;
#X connect 24 0 27 0;
#X connect 24 0 28 0;
#X connect 25 0 30 0;
#X connect 25 0 0 0;
#X connect 26 0 30 1;
#X connect 26 0 1 0;
#X connect 27 0 25 1;
#X connect 28 0 26 0;
#X connect 29 0 23 0;
#X connect 30 0 11 0;
#X connect 31 0 33 0;
#X connect 32 0 37 0;
#X connect 32 0 38 0;
#X connect 33 0 34 0;
#X connect 34 0 35 0;
#X connect 35 0 36 0;
#X connect 36 0 98 0;
#X connect 37 0 40 0;
#X connect 38 0 31 0;
#X connect 38 1 37 0;
#X connect 39 0 40 1;
#X connect 39 0 38 0;
#X connect 40 0 35 1;
#X connect 41 0 49 0;
#X connect 41 0 48 0;
#X connect 42 0 45 0;
#X connect 43 0 46 0;
#X connect 43 0 47 1;
#X connect 44 0 43 0;
#X connect 45 0 44 0;
#X connect 46 0 30 0;
#X connect 46 0 0 0;
#X connect 47 0 30 1;
#X connect 47 0 1 0;
#X connect 48 0 46 1;
#X connect 49 0 47 0;
#X connect 50 0 52 0;
#X connect 51 0 56 0;
#X connect 51 0 57 0;
#X connect 52 0 53 0;
#X connect 53 0 54 0;
#X connect 54 0 55 0;
#X connect 55 0 99 0;
#X connect 56 0 59 0;
#X connect 57 0 50 0;
#X connect 57 1 56 0;
#X connect 58 0 59 1;
#X connect 58 0 57 0;
#X connect 59 0 54 1;
#X connect 60 0 68 0;
#X connect 60 0 67 0;
#X connect 61 0 64 0;
#X connect 62 0 65 0;
#X connect 62 0 66 1;
#X connect 63 0 62 0;
#X connect 64 0 63 0;
#X connect 65 0 30 0;
#X connect 65 0 0 0;
#X connect 66 0 30 1;
#X connect 66 0 1 0;
#X connect 67 0 65 1;
#X connect 68 0 66 0;
#X connect 69 0 71 0;
#X connect 70 0 75 0;
#X connect 70 0 76 0;
#X connect 71 0 72 0;
#X connect 72 0 73 0;
#X connect 73 0 74 0;
#X connect 74 0 100 0;
#X connect 75 0 78 0;
#X connect 76 0 69 0;
#X connect 76 1 75 0;
#X connect 77 0 78 1;
#X connect 77 0 76 0;
#X connect 78 0 73 1;
#X connect 79 0 87 0;
#X connect 79 0 86 0;
#X connect 80 0 83 0;
#X connect 81 0 84 0;
#X connect 81 0 85 1;
#X connect 82 0 81 0;
#X connect 83 0 82 0;
#X connect 84 0 30 0;
#X connect 84 0 0 0;
#X connect 85 0 30 1;
#X connect 85 0 1 0;
#X connect 86 0 84 1;
#X connect 87 0 85 0;
#X connect 88 0 89 0;
#X connect 89 0 24 0;
#X connect 90 0 88 0;
#X connect 90 0 91 0;
#X connect 90 0 93 0;
#X connect 90 0 95 0;
#X connect 91 0 92 0;
#X connect 92 0 41 0;
#X connect 93 0 94 0;
#X connect 94 0 60 0;
#X connect 95 0 96 0;
#X connect 96 0 79 0;
#X connect 97 0 21 1;
#X connect 97 0 102 0;
#X connect 98 0 43 1;
#X connect 98 0 103 0;
#X connect 99 0 62 1;
#X connect 99 0 104 0;
#X connect 100 0 81 1;
#X coords 0 0 1 1 140 250 0;
#X restore 34 708 pd 4tap-delay;
#N canvas 6 90 839 714 resonator1 0;
#X obj 130 384 inlet~;
#X obj 230 555 outlet~;
#X obj 117 126 hsl 96 8 0.6 0.999 1 1 empty empty fb -15 4 0 8 -262144
-1 -1 8900 1;
#X obj 117 114 hsl 96 8 75 127 1 1 empty empty dp -15 4 0 8 -262144
-1 -1 6069 1;
#X obj 200 421 mtof;
#X obj 315 376 mtof;
#X msg 266 371 1000;
#X obj 287 411 /;
#X obj 334 67 inlet;
#N canvas 192 258 839 634 delayline 0;
#X obj 125 281 inlet~;
#X obj 418 525 outlet~;
#X obj 199 507 +~;
#X obj 228 478 *~;
#X obj 29 267 block~ 1;
#X obj 355 374 lop~;
#X obj 399 289 inlet;
#X obj 288 277 inlet;
#X obj 215 266 inlet;
#X obj 304 342 vd~ \$0tpres1;
#X obj 203 530 delwrite~ \$0tpres1 500;
#X connect 0 0 2 0;
#X connect 2 0 10 0;
#X connect 3 0 2 1;
#X connect 5 0 3 1;
#X connect 6 0 5 1;
#X connect 7 0 9 0;
#X connect 8 0 3 0;
#X connect 9 0 1 0;
#X connect 9 0 5 0;
#X restore 231 494 pd delayline;
#X obj 386 141 - 63;
#X obj 387 164 / 64;
#X obj 283 230 t b f;
#X obj 302 445 +;
#X obj 388 186 - 1;
#X obj 387 209 abs;
#X obj 321 344 float;
#X obj 341 302 t b b f;
#X obj 384 238 *;
#X obj 378 261 * -0.2;
#X obj 192 -70 inlet;
#X obj 181 -39 random 30;
#X obj 178 -12 + 95;
#X connect 0 0 9 0;
#X connect 2 0 9 1;
#X connect 3 0 4 0;
#X connect 3 0 10 0;
#X connect 4 0 9 3;
#X connect 5 0 7 1;
#X connect 6 0 7 0;
#X connect 7 0 13 0;
#X connect 8 0 12 0;
#X connect 9 0 1 0;
#X connect 10 0 11 0;
#X connect 11 0 14 0;
#X connect 12 0 6 0;
#X connect 12 1 16 0;
#X connect 13 0 9 2;
#X connect 14 0 15 0;
#X connect 15 0 18 1;
#X connect 15 0 18 0;
#X connect 16 0 5 0;
#X connect 17 0 6 0;
#X connect 17 1 16 0;
#X connect 17 2 13 1;
#X connect 18 0 19 0;
#X connect 19 0 17 0;
#X connect 20 0 21 0;
#X connect 21 0 22 0;
#X connect 22 0 3 0;
#X coords 0 -1 1 1 140 40 1 100 100;
#X restore 405 432 pd resonator1;
#N canvas 4 82 839 714 resonator2 0;
#X obj 130 384 inlet~;
#X obj 230 555 outlet~;
#X obj 117 126 hsl 96 8 0.6 0.999 1 1 empty empty fb -15 4 0 8 -262144
-1 -1 9000 1;
#X obj 117 114 hsl 96 8 75 127 1 1 empty empty dp -15 4 0 8 -262144
-1 -1 3488 1;
#X obj 200 421 mtof;
#X obj 315 376 mtof;
#X msg 266 371 1000;
#X obj 287 411 /;
#X obj 334 67 inlet;
#N canvas 192 258 839 634 delayline 0;
#X obj 125 281 inlet~;
#X obj 418 525 outlet~;
#X obj 199 507 +~;
#X obj 228 478 *~;
#X obj 29 267 block~ 1;
#X obj 355 374 lop~;
#X obj 399 289 inlet;
#X obj 288 277 inlet;
#X obj 215 266 inlet;
#X obj 304 342 vd~ \$0tpres2;
#X obj 205 528 delwrite~ \$0tpres2 500;
#X connect 0 0 2 0;
#X connect 2 0 10 0;
#X connect 3 0 2 1;
#X connect 5 0 3 1;
#X connect 6 0 5 1;
#X connect 7 0 9 0;
#X connect 8 0 3 0;
#X connect 9 0 1 0;
#X connect 9 0 5 0;
#X restore 231 494 pd delayline;
#X obj 386 141 - 63;
#X obj 387 164 / 64;
#X obj 283 230 t b f;
#X obj 302 445 +;
#X obj 388 186 - 1;
#X obj 387 209 abs;
#X obj 321 344 float;
#X obj 341 302 t b b f;
#X obj 384 238 *;
#X obj 378 261 * -0.2;
#X obj 189 -7 inlet;
#X obj 178 24 random 35;
#X obj 169 52 + 90;
#X connect 0 0 9 0;
#X connect 2 0 9 1;
#X connect 3 0 4 0;
#X connect 3 0 10 0;
#X connect 4 0 9 3;
#X connect 5 0 7 1;
#X connect 6 0 7 0;
#X connect 7 0 13 0;
#X connect 8 0 12 0;
#X connect 9 0 1 0;
#X connect 10 0 11 0;
#X connect 11 0 14 0;
#X connect 12 0 6 0;
#X connect 12 1 16 0;
#X connect 13 0 9 2;
#X connect 14 0 15 0;
#X connect 15 0 18 1;
#X connect 15 0 18 0;
#X connect 16 0 5 0;
#X connect 17 0 6 0;
#X connect 17 1 16 0;
#X connect 17 2 13 1;
#X connect 18 0 19 0;
#X connect 19 0 17 0;
#X connect 20 0 21 0;
#X connect 21 0 22 0;
#X connect 22 0 3 0;
#X coords 0 -1 1 1 140 40 1 100 100;
#X restore 434 513 pd resonator2;
#N canvas 0 60 839 714 resonator3 0;
#X obj 130 384 inlet~;
#X obj 230 555 outlet~;
#X obj 117 126 hsl 96 8 0.6 0.999 1 1 empty empty fb -15 4 0 8 -262144
-1 -1 8900 1;
#X obj 117 114 hsl 96 8 75 127 1 1 empty empty dp -15 4 0 8 -262144
-1 -1 7710 1;
#X obj 200 421 mtof;
#X obj 315 376 mtof;
#X msg 266 371 1000;
#X obj 287 411 /;
#X obj 334 67 inlet;
#N canvas 192 258 839 634 delayline 0;
#X obj 125 281 inlet~;
#X obj 418 525 outlet~;
#X obj 199 507 +~;
#X obj 228 478 *~;
#X obj 29 267 block~ 1;
#X obj 355 374 lop~;
#X obj 399 289 inlet;
#X obj 288 277 inlet;
#X obj 215 266 inlet;
#X obj 305 342 vd~ \$0tpres3;
#X obj 204 530 delwrite~ \$0tpres3 500;
#X connect 0 0 2 0;
#X connect 2 0 10 0;
#X connect 3 0 2 1;
#X connect 5 0 3 1;
#X connect 6 0 5 1;
#X connect 7 0 9 0;
#X connect 8 0 3 0;
#X connect 9 0 1 0;
#X connect 9 0 5 0;
#X restore 231 494 pd delayline;
#X obj 386 141 - 63;
#X obj 387 164 / 64;
#X obj 283 230 t b f;
#X obj 302 445 +;
#X obj 388 186 - 1;
#X obj 387 209 abs;
#X obj 321 344 float;
#X obj 341 302 t b b f;
#X obj 384 238 *;
#X obj 378 261 * -0.2;
#X obj 189 -7 inlet;
#X obj 179 24 random 30;
#X obj 169 52 + 95;
#X connect 0 0 9 0;
#X connect 2 0 9 1;
#X connect 3 0 4 0;
#X connect 3 0 10 0;
#X connect 4 0 9 3;
#X connect 5 0 7 1;
#X connect 6 0 7 0;
#X connect 7 0 13 0;
#X connect 8 0 12 0;
#X connect 9 0 1 0;
#X connect 10 0 11 0;
#X connect 11 0 14 0;
#X connect 12 0 6 0;
#X connect 12 1 16 0;
#X connect 13 0 9 2;
#X connect 14 0 15 0;
#X connect 15 0 18 1;
#X connect 15 0 18 0;
#X connect 16 0 5 0;
#X connect 17 0 6 0;
#X connect 17 1 16 0;
#X connect 17 2 13 1;
#X connect 18 0 19 0;
#X connect 19 0 17 0;
#X connect 20 0 21 0;
#X connect 21 0 22 0;
#X connect 22 0 3 0;
#X coords 0 -1 1 1 140 40 1 100 100;
#X restore 451 586 pd resonator3;
#N canvas 0 60 839 714 resonator4 0;
#X obj 130 384 inlet~;
#X obj 230 555 outlet~;
#X obj 117 126 hsl 96 8 0.6 0.999 1 1 empty empty fb -15 4 0 8 -262144
-1 -1 8800 1;
#X obj 117 114 hsl 96 8 75 127 1 1 empty empty dp -15 4 0 8 -262144
-1 -1 6908 1;
#X obj 200 421 mtof;
#X obj 315 376 mtof;
#X msg 266 371 1000;
#X obj 287 411 /;
#X obj 334 67 inlet;
#N canvas 192 258 839 634 delayline 0;
#X obj 125 281 inlet~;
#X obj 418 525 outlet~;
#X obj 199 507 +~;
#X obj 228 478 *~;
#X obj 29 267 block~ 1;
#X obj 355 374 lop~;
#X obj 399 289 inlet;
#X obj 288 277 inlet;
#X obj 215 266 inlet;
#X obj 305 342 vd~ \$0tpres4;
#X obj 204 530 delwrite~ \$0tpres4 500;
#X connect 0 0 2 0;
#X connect 2 0 10 0;
#X connect 3 0 2 1;
#X connect 5 0 3 1;
#X connect 6 0 5 1;
#X connect 7 0 9 0;
#X connect 8 0 3 0;
#X connect 9 0 1 0;
#X connect 9 0 5 0;
#X restore 231 494 pd delayline;
#X obj 386 141 - 63;
#X obj 387 164 / 64;
#X obj 283 230 t b f;
#X obj 302 445 +;
#X obj 388 186 - 1;
#X obj 387 209 abs;
#X obj 321 344 float;
#X obj 341 302 t b b f;
#X obj 384 238 *;
#X obj 378 261 * -0.2;
#X obj 189 -7 inlet;
#X obj 178 24 random 35;
#X obj 169 52 + 90;
#X connect 0 0 9 0;
#X connect 2 0 9 1;
#X connect 3 0 4 0;
#X connect 3 0 10 0;
#X connect 4 0 9 3;
#X connect 5 0 7 1;
#X connect 6 0 7 0;
#X connect 7 0 13 0;
#X connect 8 0 12 0;
#X connect 9 0 1 0;
#X connect 10 0 11 0;
#X connect 11 0 14 0;
#X connect 12 0 6 0;
#X connect 12 1 16 0;
#X connect 13 0 9 2;
#X connect 14 0 15 0;
#X connect 15 0 18 1;
#X connect 15 0 18 0;
#X connect 16 0 5 0;
#X connect 17 0 6 0;
#X connect 17 1 16 0;
#X connect 17 2 13 1;
#X connect 18 0 19 0;
#X connect 19 0 17 0;
#X connect 20 0 21 0;
#X connect 21 0 22 0;
#X connect 22 0 3 0;
#X coords 0 -1 1 1 140 40 1 100 100;
#X restore 472 652 pd resonator4;
#X msg 855 648 -5;
#X obj 450 757 * 16000;
#X obj 919 574 * 4.5;
#X obj 918 596 - 3.5;
#X obj -4 954 osc~;
#X obj 17 994 *~;
#X obj 122 900 line~;
#X obj 124 851 pack 0 f;
#X obj 54 765 t b f b;
#X msg -92 629 bang;
#X obj -105 759 select 0 1 2 3;
#X obj -107 733 random 4;
#X obj -105 796 int;
#X obj -69 796 int;
#X obj -39 797 int;
#X obj -3 797 int;
#X obj -47 834 mod 12;
#X obj -43 884 mtof;
#X obj -45 860 + 31;
#X obj -66 662 random 500;
#X obj 30 846 / 100;
#X obj 31 869 clip 0 1;
#X obj -122 571 metro;
#X obj 31 824 - 35;
#X obj 69 1036 *~;
#X obj -49 696 + 1300;
#X obj -8 931 line;
#X msg -16 904 \$1 150;
#X obj 29 803 random 115;
#X obj -145 208 -~ 0.5;
#X obj -1 205 -~ 0.5;
#X obj 135 205 -~ 0.5;
#X obj 247 221 -~ 0.5;
#X obj 8 1027 *~ 0.1;
#X obj 64 987 clip 0 1;
#X obj 62 921 random 100;
#X obj 64 942 - 50;
#X obj 63 964 / 400;
#X obj 321 840 *~ 0.7;
#X obj 616 681 mtof;
#X obj 594 612 mtof;
#X obj 580 542 mtof;
#X obj 548 458 mtof;
#X obj 418 487 vcf~ 2;
#X obj 438 563 vcf~ 2;
#X obj 454 630 vcf~ 2;
#X obj 471 701 vcf~ 2;
#X obj 341 754 *~ 3;
#X obj 378 756 *~ 0.2;
#X text 168 360 lfos controlling clicks volume;
#X text 150 419 delayed clicks to resonators;
#X text -306 815 bass-tones from the 4 chord pitches;
#X text 108 1038 ringmod with bass-tone;
#X text -97 31 clicks-cycles with lengths of multiples of irrationals
numbers;
#X text 465 27 clicks \, resonators \, a granulator and some effects
;
#X text 464 45 5/2011 martin brinkmann;
#X obj 87 1130 clip~ -1 1;
#X obj -93 1119 clip~ -1 1;
#X obj 101 1098 *~ 3;
#X obj -97 1091 *~ 3;
#X obj -61 273 osc~;
#X obj -61 320 *~ 0.5;
#X obj -61 297 +~ 1.1;
#X obj 48 288 osc~;
#X obj 40 335 *~ 0.5;
#X obj 40 312 +~ 1.1;
#X obj 199 283 osc~;
#X obj 159 332 *~ 0.5;
#X obj 183 306 +~ 1.1;
#X obj 313 294 osc~;
#X obj 305 341 *~ 0.5;
#X obj 305 318 +~ 1.1;
#X obj 255 758 *~ 0.5;
#X obj 27 677 *~ 0.25;
#X text -243 491 max cycle length as delaytime etc;
#X connect 0 0 128 0;
#X connect 2 0 17 0;
#X connect 3 0 2 0;
#X connect 3 0 0 1;
#X connect 4 0 129 0;
#X connect 5 0 16 0;
#X connect 6 0 5 0;
#X connect 6 0 4 1;
#X connect 7 0 39 0;
#X connect 8 0 7 0;
#X connect 9 0 40 0;
#X connect 10 0 9 0;
#X connect 11 0 36 0;
#X connect 11 0 61 0;
#X connect 11 0 63 2;
#X connect 11 0 74 0;
#X connect 11 0 62 0;
#X connect 12 0 13 1;
#X connect 13 0 56 0;
#X connect 14 0 15 1;
#X connect 15 0 55 0;
#X connect 16 0 4 0;
#X connect 16 0 38 1;
#X connect 16 0 54 0;
#X connect 17 0 0 0;
#X connect 17 0 37 1;
#X connect 17 0 57 0;
#X connect 18 0 127 0;
#X connect 19 0 24 0;
#X connect 20 0 41 0;
#X connect 21 0 20 0;
#X connect 22 0 23 1;
#X connect 23 0 52 0;
#X connect 24 0 18 0;
#X connect 24 0 35 1;
#X connect 24 0 51 0;
#X connect 25 0 19 0;
#X connect 25 0 18 1;
#X connect 26 0 126 0;
#X connect 27 0 33 0;
#X connect 28 0 30 0;
#X connect 29 0 28 0;
#X connect 30 0 33 1;
#X connect 31 0 32 1;
#X connect 32 0 50 0;
#X connect 33 0 26 0;
#X connect 33 0 35 0;
#X connect 33 0 53 0;
#X connect 34 0 27 0;
#X connect 34 0 26 1;
#X connect 35 0 37 0;
#X connect 36 0 34 0;
#X connect 36 0 119 0;
#X connect 36 1 25 0;
#X connect 36 2 3 0;
#X connect 36 3 6 0;
#X connect 36 4 8 0;
#X connect 36 4 10 0;
#X connect 36 4 21 0;
#X connect 36 4 29 0;
#X connect 36 4 46 0;
#X connect 36 4 47 0;
#X connect 36 4 48 0;
#X connect 36 4 49 0;
#X connect 36 4 92 1;
#X connect 37 0 38 0;
#X connect 38 0 44 0;
#X connect 39 0 16 1;
#X connect 40 0 17 1;
#X connect 41 0 24 1;
#X connect 42 0 45 0;
#X connect 42 0 64 0;
#X connect 42 0 88 0;
#X connect 43 0 42 0;
#X connect 44 0 43 0;
#X connect 44 1 42 1;
#X connect 45 0 63 1;
#X connect 45 0 92 2;
#X connect 46 0 14 0;
#X connect 47 0 12 0;
#X connect 48 0 22 0;
#X connect 49 0 31 0;
#X connect 50 0 78 0;
#X connect 50 0 170 0;
#X connect 51 0 157 0;
#X connect 52 0 80 0;
#X connect 52 0 170 0;
#X connect 53 0 160 0;
#X connect 54 0 163 0;
#X connect 55 0 82 0;
#X connect 55 0 170 0;
#X connect 56 0 84 0;
#X connect 56 0 170 0;
#X connect 57 0 166 0;
#X connect 58 0 93 2;
#X connect 58 0 109 1;
#X connect 58 0 139 0;
#X connect 58 1 94 2;
#X connect 58 1 110 1;
#X connect 58 1 138 0;
#X connect 58 2 95 2;
#X connect 58 2 111 1;
#X connect 58 2 137 0;
#X connect 58 3 96 2;
#X connect 58 3 112 1;
#X connect 58 3 136 0;
#X connect 59 0 58 0;
#X connect 60 0 58 1;
#X connect 60 1 58 2;
#X connect 61 0 59 0;
#X connect 61 0 60 0;
#X connect 61 0 63 3;
#X connect 61 0 73 0;
#X connect 62 0 93 1;
#X connect 62 0 94 1;
#X connect 62 0 95 1;
#X connect 62 0 96 1;
#X connect 63 0 121 1;
#X connect 63 0 135 0;
#X connect 63 0 155 0;
#X connect 63 0 156 0;
#X connect 64 0 79 0;
#X connect 64 0 81 0;
#X connect 64 0 83 0;
#X connect 64 0 85 0;
#X connect 64 0 98 0;
#X connect 64 0 119 1;
#X connect 66 0 77 0;
#X connect 67 0 77 1;
#X connect 68 0 77 2;
#X connect 69 0 77 3;
#X connect 70 0 77 6;
#X connect 71 0 77 5;
#X connect 72 0 99 0;
#X connect 73 0 66 0;
#X connect 73 0 67 0;
#X connect 73 0 68 0;
#X connect 73 0 69 0;
#X connect 73 0 70 0;
#X connect 73 0 72 0;
#X connect 73 0 97 0;
#X connect 74 0 65 0;
#X connect 75 0 11 0;
#X connect 76 0 65 0;
#X connect 77 0 121 1;
#X connect 77 0 156 0;
#X connect 77 1 121 1;
#X connect 77 1 155 0;
#X connect 79 0 93 0;
#X connect 81 0 94 0;
#X connect 83 0 95 0;
#X connect 85 0 96 0;
#X connect 86 0 135 0;
#X connect 86 0 156 0;
#X connect 86 1 135 0;
#X connect 86 1 155 0;
#X connect 87 0 62 0;
#X connect 88 0 89 0;
#X connect 89 0 87 0;
#X connect 89 1 87 1;
#X connect 90 0 74 0;
#X connect 91 0 90 0;
#X connect 91 1 90 1;
#X connect 92 0 156 0;
#X connect 92 1 135 0;
#X connect 92 1 155 0;
#X connect 93 0 140 0;
#X connect 93 0 145 0;
#X connect 94 0 141 0;
#X connect 94 0 145 0;
#X connect 95 0 142 0;
#X connect 95 0 145 0;
#X connect 96 0 143 0;
#X connect 96 0 145 0;
#X connect 97 0 77 4;
#X connect 98 0 91 0;
#X connect 99 0 100 0;
#X connect 100 0 71 0;
#X connect 101 0 102 0;
#X connect 102 0 121 0;
#X connect 102 0 130 0;
#X connect 103 0 102 1;
#X connect 104 0 103 0;
#X connect 105 0 104 0;
#X connect 105 1 104 1;
#X connect 105 2 125 0;
#X connect 106 0 108 0;
#X connect 106 0 116 0;
#X connect 106 0 132 0;
#X connect 107 0 109 0;
#X connect 107 1 110 0;
#X connect 107 2 111 0;
#X connect 107 3 112 0;
#X connect 108 0 107 0;
#X connect 109 0 113 0;
#X connect 110 0 113 0;
#X connect 111 0 113 0;
#X connect 112 0 113 0;
#X connect 113 0 115 0;
#X connect 114 0 124 0;
#X connect 115 0 114 0;
#X connect 116 0 122 0;
#X connect 117 0 118 0;
#X connect 118 0 103 0;
#X connect 119 0 106 0;
#X connect 120 0 117 0;
#X connect 121 0 155 0;
#X connect 121 0 156 0;
#X connect 122 0 105 0;
#X connect 123 0 101 0;
#X connect 124 0 123 0;
#X connect 125 0 120 0;
#X connect 126 0 32 0;
#X connect 127 0 23 0;
#X connect 128 0 15 0;
#X connect 129 0 13 0;
#X connect 130 0 155 0;
#X connect 130 0 156 0;
#X connect 131 0 130 1;
#X connect 132 0 133 0;
#X connect 133 0 134 0;
#X connect 134 0 131 0;
#X connect 135 0 76 0;
#X connect 136 0 143 1;
#X connect 137 0 142 1;
#X connect 138 0 141 1;
#X connect 139 0 140 1;
#X connect 140 0 86 0;
#X connect 140 0 144 0;
#X connect 141 0 86 1;
#X connect 141 0 144 0;
#X connect 142 0 86 2;
#X connect 142 0 144 0;
#X connect 143 0 86 3;
#X connect 143 0 144 0;
#X connect 144 0 63 0;
#X connect 145 0 63 0;
#X connect 153 0 1 1;
#X connect 154 0 1 0;
#X connect 155 0 153 0;
#X connect 156 0 154 0;
#X connect 157 0 159 0;
#X connect 158 0 50 1;
#X connect 159 0 158 0;
#X connect 160 0 162 0;
#X connect 161 0 52 1;
#X connect 162 0 161 0;
#X connect 163 0 165 0;
#X connect 164 0 55 1;
#X connect 165 0 164 0;
#X connect 166 0 168 0;
#X connect 167 0 56 1;
#X connect 168 0 167 0;
#X connect 169 0 63 0;
#X connect 170 0 92 0;
#X connect 170 0 169 0;
