#N canvas 640 174 794 448 10;
#X obj 3 219 dac~;
#N canvas 411 436 1047 545 jazzman 1;
#X obj 1 343 cnv 15 300 200 empty empty JAZZMAN 20 12 0 14 -257472
-66577 0;
#X obj 1 374 cnv 15 300 48 empty empty empty 20 12 0 14 -228992 -66577
0;
#X obj 1 429 cnv 15 300 48 empty empty empty 20 12 0 14 -228992 -66577
0;
#X obj 2 486 cnv 15 300 48 empty empty empty 20 12 0 14 -228992 -66577
0;
#X obj 66 497 vsl 12 32 0 1 0 0 empty empty Kick 0 -8 0 8 -24198 -1
-1 1550 1;
#X obj 22 497 vsl 12 32 0 1 0 0 empty empty HH 0 -8 0 8 -258699 -1
-1 1550 1;
#X obj 108 497 vsl 12 32 0 1 0 0 empty empty Snare 0 -8 0 8 -260818
-1 -1 1550 1;
#X obj 108 385 vsl 12 32 2 0.5 0 0 empty empty busy 0 -8 0 8 -241291
-1 -1 1653 1;
#X obj 156 384 vsl 12 32 0.3 1.2 0 0 empty empty swing 0 -8 0 8 -260818
-1 -1 936 1;
#X obj 64 384 vsl 12 32 50 300 0 0 empty empty speed 0 -8 0 8 -44926
-1 -1 2232 1;
#X obj 615 382 loadbang;
#X obj 21 441 vsl 12 32 1 8 0 0 empty empty hihat_steps 0 -8 0 8 -261689
-1 -1 2171 1;
#X obj 196 442 vsl 12 32 1 12 0 0 empty empty snare_runs 0 -8 0 8 -261681
-1 -1 564 1;
#X obj 108 443 vsl 12 32 1 12 0 0 empty empty kick_runs 0 -8 0 8 -225271
-1 -1 564 1;
#X obj 240 497 vsl 12 32 1 4 1 0 empty empty distort 0 -8 0 8 -250685
-1 -1 1550 1;
#X obj 158 497 vsl 12 32 70 4000 0 0 empty empty F 0 -8 0 8 -44926
-1 -1 1207 1;
#X obj 197 497 vsl 12 32 0.1 6 1 0 empty empty Q 0 -8 0 8 -62784 -1
-1 1998 1;
#X obj 20 385 vsl 12 32 0 1 0 0 empty empty vol 0 -8 0 8 -262131 -1
-1 1860 1;
#X obj 520 588 s \$0-busy;
#X obj 562 567 s \$0-swing;
#X obj 477 564 s \$0-speed;
#X obj 409 672 s \$0-hhsteps;
#X obj 501 671 s \$0-kicksteps;
#X obj 554 691 s \$0-snaresteps;
#X obj 497 607 s \$0-snarel;
#X obj 591 610 s \$0-filq;
#X obj 458 634 s \$0-kickl;
#X obj 549 634 s \$0-filf;
#X obj 416 611 s \$0-hhl;
#X obj 430 582 s \$0-mainvol;
#X msg 484 415 1600;
#X msg 525 415 1.4;
#X msg 449 415 0.5;
#N canvas 1 83 725 844 gubbins 1;
#X floatatom 314 271 0 0 144 0 - - -;
#N canvas 0 50 326 253 loadsamples 0;
#X obj 22 200 soundfiler;
#X obj 72 134 makefilename #0-drum%d;
#X obj 22 156 pack s s;
#X msg 22 179 read -resize \$1 \$2;
#X msg 47 23 bang;
#X obj 47 66 until;
#X obj 47 87 f 0;
#X obj 75 87 + 1;
#X obj 109 87 sel 31;
#X msg 103 53 0;
#X obj 99 21 loadbang;
#X obj 22 114 makefilename ./sounds/kit/1/sound%d.wav;
#X connect 1 0 2 1;
#X connect 2 0 3 0;
#X connect 3 0 0 0;
#X connect 4 0 5 0;
#X connect 5 0 6 0;
#X connect 6 0 7 0;
#X connect 6 0 8 0;
#X connect 6 0 1 0;
#X connect 6 0 11 0;
#X connect 7 0 6 1;
#X connect 8 0 5 1;
#X connect 8 0 9 0;
#X connect 9 0 6 1;
#X connect 10 0 5 0;
#X connect 11 0 2 0;
#X restore 408 41 pd loadsamples;
#N canvas 0 50 700 225 tables 0;
#X obj 8 13 table #0-drum0 2048;
#X obj 8 33 table #0-drum1 2048;
#X obj 8 53 table #0-drum2 2048;
#X obj 8 72 table #0-drum3 2048;
#X obj 8 91 table #0-drum4 2048;
#X obj 8 111 table #0-drum5 2048;
#X obj 8 130 table #0-drum6 2048;
#X obj 8 150 table #0-drum7 2048;
#X obj 182 14 table #0-drum8 2048;
#X obj 182 34 table #0-drum9 2048;
#X obj 182 54 table #0-drum10 2048;
#X obj 182 73 table #0-drum11 2048;
#X obj 182 92 table #0-drum12 2048;
#X obj 182 112 table #0-drum13 2048;
#X obj 182 131 table #0-drum14 2048;
#X obj 182 151 table #0-drum15 2048;
#X obj 354 12 table #0-drum16 2048;
#X obj 354 32 table #0-drum17 2048;
#X obj 354 52 table #0-drum18 2048;
#X obj 354 71 table #0-drum19 2048;
#X obj 354 90 table #0-drum20 2048;
#X obj 354 110 table #0-drum21 2048;
#X obj 354 129 table #0-drum22 2048;
#X obj 354 149 table #0-drum23 2048;
#X obj 515 11 table #0-drum24 2048;
#X obj 515 31 table #0-drum25 2048;
#X obj 514 51 table #0-drum26 2048;
#X obj 515 70 table #0-drum27 2048;
#X obj 514 88 table #0-drum28 2048;
#X obj 515 109 table #0-drum29 2048;
#X obj 515 128 table #0-drum30 2048;
#X obj 515 148 table #0-drum31 2048;
#X restore 406 64 pd tables;
#X obj 325 436 random 16;
#N canvas 0 50 425 381 playeri1 0;
#X obj 247 198 hip~ 5;
#X obj 247 145 vline~;
#X obj 247 173 tabread4~;
#X obj 247 222 *~ 0.5;
#X obj 180 115 r i1snum;
#X obj 247 115 r i1phase;
#X obj 323 29 inlet;
#X text 313 8 vol;
#X obj 43 162 makefilename #0-drum%d;
#X obj 42 118 max 0;
#X obj 42 140 min 31;
#X msg 43 184 \; i1snum set \$1 \; i1phase 1 \, 4.41e+08 1e+07 \;;
#X obj 40 46 inlet;
#X text 36 23 note/sound;
#X text 101 -16 i1;
#X obj 245 254 outlet~;
#X connect 0 0 3 0;
#X connect 1 0 2 0;
#X connect 2 0 0 0;
#X connect 3 0 15 0;
#X connect 4 0 2 0;
#X connect 5 0 1 0;
#X connect 6 0 3 1;
#X connect 8 0 11 0;
#X connect 9 0 10 0;
#X connect 10 0 8 0;
#X connect 12 0 9 0;
#X restore 496 603 pd playeri1;
#X obj 265 176 f;
#X obj 294 176 + 1;
#X obj 497 455 sel 0;
#X obj 490 374 sel 5 13;
#X obj 497 475 random 7;
#X obj 162 401 + 16;
#X obj 497 432 random 2;
#X floatatom 337 459 5 0 0 0 - - -, f 5;
#X floatatom 504 527 5 0 0 0 - - -, f 5;
#X obj 497 497 + 25;
#X obj 266 270 mod 16;
#X obj 265 200 / 2;
#X obj 265 222 int;
#X obj 266 243 change;
#N canvas 0 50 425 381 playeri3 0;
#X obj 247 198 hip~ 5;
#X obj 247 145 vline~;
#X obj 247 173 tabread4~;
#X obj 247 222 *~ 0.5;
#X obj 323 29 inlet;
#X text 313 8 vol;
#X obj 43 162 makefilename #0-drum%d;
#X obj 42 118 max 0;
#X obj 42 140 min 31;
#X obj 40 46 inlet;
#X text 36 23 note/sound;
#X text 101 -16 i1;
#X obj 245 254 outlet~;
#X msg 43 184 \; i3snum set \$1 \; i3phase 1 \, 4.41e+08 1e+07 \;;
#X obj 247 115 r i3phase;
#X obj 180 115 r i3snum;
#X connect 0 0 3 0;
#X connect 1 0 2 0;
#X connect 2 0 0 0;
#X connect 3 0 12 0;
#X connect 4 0 3 1;
#X connect 6 0 13 0;
#X connect 7 0 8 0;
#X connect 8 0 6 0;
#X connect 9 0 7 0;
#X connect 14 0 1 0;
#X connect 15 0 2 0;
#X restore 325 597 pd playeri3;
#N canvas 0 50 425 381 playeri2 0;
#X obj 247 198 hip~ 5;
#X obj 247 145 vline~;
#X obj 247 173 tabread4~;
#X obj 247 222 *~ 0.5;
#X obj 323 29 inlet;
#X text 313 8 vol;
#X obj 43 162 makefilename #0-drum%d;
#X obj 42 118 max 0;
#X obj 42 140 min 31;
#X obj 40 46 inlet;
#X text 36 23 note/sound;
#X text 101 -16 i1;
#X obj 245 254 outlet~;
#X msg 43 184 \; i2snum set \$1 \; i2phase 1 \, 4.41e+08 1e+07 \;;
#X obj 247 115 r i2phase;
#X obj 180 115 r i2snum;
#X connect 0 0 3 0;
#X connect 1 0 2 0;
#X connect 2 0 0 0;
#X connect 3 0 12 0;
#X connect 4 0 3 1;
#X connect 6 0 13 0;
#X connect 7 0 8 0;
#X connect 8 0 6 0;
#X connect 9 0 7 0;
#X connect 14 0 1 0;
#X connect 15 0 2 0;
#X restore 167 601 pd playeri2;
#X obj 292 140 del 100;
#X obj 350 91 / 2;
#N canvas 0 50 729 266 rupto 0;
#X obj 106 124 f;
#X obj 135 124 + 1;
#X obj 146 176 sel 1;
#X msg 148 199 0;
#X obj 164 25 inlet;
#X floatatom 204 155 5 0 0 0 - - -, f 5;
#X floatatom 89 162 5 0 0 0 - - -, f 5;
#X msg 191 50 bang;
#X obj 145 153 >=;
#X obj 96 96 spigot;
#X msg 160 73 1;
#X obj 54 161 t b;
#X obj 98 24 inlet;
#X obj 59 207 outlet;
#X text 83 7 metro;
#X text 162 8 trigbang;
#X text 286 129 send out random bangs at metro freq when triggered
;
#X obj 193 101 random 6;
#X obj 290 20 inlet;
#X connect 0 0 1 0;
#X connect 0 0 6 0;
#X connect 0 0 8 0;
#X connect 0 0 11 0;
#X connect 1 0 0 1;
#X connect 2 0 3 0;
#X connect 3 0 0 1;
#X connect 3 0 9 1;
#X connect 4 0 7 0;
#X connect 4 0 10 0;
#X connect 7 0 17 0;
#X connect 8 0 2 0;
#X connect 9 0 0 0;
#X connect 10 0 9 1;
#X connect 11 0 13 0;
#X connect 12 0 9 0;
#X connect 17 0 5 0;
#X connect 17 0 8 1;
#X connect 18 0 17 1;
#X restore 496 409 pd rupto;
#X obj 292 375 sel 0 8;
#N canvas 0 50 729 266 rupto 0;
#X obj 106 124 f;
#X obj 135 124 + 1;
#X obj 146 176 sel 1;
#X msg 148 199 0;
#X obj 164 25 inlet;
#X floatatom 204 155 5 0 0 0 - - -, f 5;
#X floatatom 89 162 5 0 0 0 - - -, f 5;
#X msg 191 50 bang;
#X obj 145 153 >=;
#X obj 96 96 spigot;
#X msg 160 73 1;
#X obj 54 161 t b;
#X obj 98 24 inlet;
#X obj 59 207 outlet;
#X text 83 7 metro;
#X text 162 8 trigbang;
#X text 286 129 send out random bangs at metro freq when triggered
;
#X obj 193 101 random 6;
#X obj 290 20 inlet;
#X connect 0 0 1 0;
#X connect 0 0 6 0;
#X connect 0 0 8 0;
#X connect 0 0 11 0;
#X connect 1 0 0 1;
#X connect 2 0 3 0;
#X connect 3 0 0 1;
#X connect 3 0 9 1;
#X connect 4 0 7 0;
#X connect 4 0 10 0;
#X connect 7 0 17 0;
#X connect 8 0 2 0;
#X connect 9 0 0 0;
#X connect 10 0 9 1;
#X connect 11 0 13 0;
#X connect 12 0 9 0;
#X connect 17 0 5 0;
#X connect 17 0 8 1;
#X connect 18 0 17 1;
#X restore 325 414 pd rupto;
#X obj 162 378 mod 7;
#X obj 161 340 int;
#X floatatom 161 361 5 0 0 0 - - -, f 5;
#X obj 138 53 t;
#X obj 300 77 f;
#X floatatom 89 44 5 0 0 0 - - -, f 5;
#X floatatom 372 174 5 0 0 0 - - -, f 5;
#X obj 239 107 metro 300;
#X obj 352 120 * 0.6;
#X msg 311 51 300;
#X obj 311 30 loadbang;
#X obj 545 324 int;
#X floatatom 572 353 5 0 0 0 - - -, f 5;
#X obj 422 297 int;
#X floatatom 453 298 5 0 0 0 - - -, f 5;
#X obj 362 812 outlet~;
#X obj 326 675 vcf~;
#X obj 363 785 *~;
#X obj 172 19 r \$0-busy;
#X floatatom 172 46 5 0 0 0 - - -, f 5;
#X obj 87 9 r \$0-swing;
#X obj 284 9 r \$0-speed;
#X obj 567 582 r \$0-snarel;
#X obj 380 761 r \$0-mainvol;
#X obj 393 574 r \$0-kickl;
#X obj 376 624 r \$0-filq;
#X obj 308 623 r \$0-filf;
#X obj 233 576 r \$0-hhl;
#X obj 105 256 r \$0-hhsteps;
#X obj 424 272 r \$0-kicksteps;
#X obj 545 294 r \$0-snaresteps;
#X obj 387 704 max 0.5;
#X obj 386 682 min 5;
#X obj 387 660 r \$0-distort;
#X obj 30 20 inlet;
#X text 16 1 go;
#X connect 3 0 19 0;
#X connect 3 0 12 0;
#X connect 4 0 42 0;
#X connect 5 0 6 0;
#X connect 5 0 16 0;
#X connect 6 0 5 1;
#X connect 7 0 9 0;
#X connect 8 0 23 1;
#X connect 8 1 23 1;
#X connect 9 0 14 0;
#X connect 10 0 20 0;
#X connect 11 0 7 0;
#X connect 14 0 4 0;
#X connect 14 0 13 0;
#X connect 15 0 0 0;
#X connect 15 0 8 0;
#X connect 15 0 24 0;
#X connect 15 0 26 0;
#X connect 16 0 17 0;
#X connect 17 0 18 0;
#X connect 18 0 15 0;
#X connect 19 0 42 0;
#X connect 20 0 42 0;
#X connect 21 0 5 0;
#X connect 21 0 23 0;
#X connect 21 0 25 0;
#X connect 22 0 34 0;
#X connect 23 0 11 0;
#X connect 24 0 25 1;
#X connect 24 1 25 1;
#X connect 25 0 3 0;
#X connect 26 0 10 0;
#X connect 27 0 28 0;
#X connect 27 0 26 1;
#X connect 29 0 30 0;
#X connect 30 0 22 0;
#X connect 30 0 33 1;
#X connect 33 0 21 0;
#X connect 33 0 5 0;
#X connect 33 0 25 0;
#X connect 33 0 23 0;
#X connect 34 0 21 1;
#X connect 34 0 32 0;
#X connect 35 0 30 0;
#X connect 36 0 35 0;
#X connect 37 0 38 0;
#X connect 37 0 23 2;
#X connect 39 0 40 0;
#X connect 39 0 25 2;
#X connect 42 0 43 0;
#X connect 43 0 41 0;
#X connect 44 0 16 1;
#X connect 44 0 29 0;
#X connect 44 0 45 0;
#X connect 46 0 29 0;
#X connect 46 0 31 0;
#X connect 46 0 34 1;
#X connect 47 0 30 0;
#X connect 48 0 4 1;
#X connect 49 0 43 1;
#X connect 50 0 19 1;
#X connect 51 0 42 2;
#X connect 52 0 42 1;
#X connect 53 0 20 1;
#X connect 54 0 27 0;
#X connect 55 0 39 0;
#X connect 56 0 37 0;
#X connect 57 0 43 0;
#X connect 58 0 57 0;
#X connect 59 0 58 0;
#X connect 60 0 33 0;
#X restore 416 497 pd gubbins;
#X obj 416 520 outlet~;
#X obj 114 356 tgl 15 0 empty empty start 0 -6 0 8 -262144 -1 -1 1
1;
#X msg 668 414 5;
#X msg 707 412 3;
#X obj 632 631 s \$0-distort;
#X msg 623 413 0.92;
#X msg 559 416 230;
#X msg 592 415 1.2;
#X msg 778 412 2;
#X msg 742 413 0.6;
#X connect 4 0 26 0;
#X connect 5 0 28 0;
#X connect 6 0 24 0;
#X connect 7 0 18 0;
#X connect 8 0 19 0;
#X connect 9 0 20 0;
#X connect 10 0 31 0;
#X connect 10 0 30 0;
#X connect 10 0 32 0;
#X connect 10 0 40 0;
#X connect 10 0 41 0;
#X connect 10 0 39 0;
#X connect 10 0 36 0;
#X connect 10 0 37 0;
#X connect 10 0 43 0;
#X connect 10 0 42 0;
#X connect 11 0 21 0;
#X connect 12 0 23 0;
#X connect 13 0 22 0;
#X connect 14 0 38 0;
#X connect 15 0 27 0;
#X connect 16 0 25 0;
#X connect 17 0 29 0;
#X connect 30 0 15 0;
#X connect 31 0 16 0;
#X connect 32 0 6 0;
#X connect 32 0 4 0;
#X connect 32 0 5 0;
#X connect 33 0 34 0;
#X connect 35 0 33 0;
#X connect 36 0 11 0;
#X connect 37 0 13 0;
#X connect 37 0 12 0;
#X connect 39 0 8 0;
#X connect 40 0 9 0;
#X connect 41 0 7 0;
#X connect 42 0 14 0;
#X connect 43 0 17 0;
#X coords 0 545 1 544 300 200 0;
#X restore 1 0 pd jazzman;
#X text 108 203 Jazz Kit sampler drum box;
#X text 40 223 Andy J Farnell 2006 (http://www.obiwannabe.co.uk);
#X connect 1 0 0 0;
#X connect 1 0 0 1;
